<?xml version="1.0" encoding="UTF-8"?><svg id="Layer_1" xmlns="http://www.w3.org/2000/svg" viewBox="0 0 1500 750"><defs><style>.cls-1{fill:#bd9d97;}.cls-2{fill:#231f20;}</style></defs><g><path class="cls-1" d="M1198.2,286.08s-143.53,72.03-167.9,64.98c-24.37-7.05-383.79-18.88-395.95-26.42-.87-.54-2.58-1.08-4.98-1.61l47.08,2.64c-14.81-1.99-25.38-16.34-28.37-30.98-3-14.64-.22-29.75,1.58-44.59,.49-4.02,.28-9.17-3.47-10.71-28.02,14.85-45,44.15-68.93,64.95-5.69,4.95-11.93,9.45-18.83,12.39-56.25-2.55-128.06-2.54-159.21,3.51-44.76,8.69-82.24,19.19-82.24,19.19l-16.98,5.77s5.52,7.25,9.24,9.38,41.9,17.29,41.9,17.29c0,0-4.46,1.64-1.21,6.02s39.47,19.42,52.22,19.26,24.61-2.9,24.61-2.9c0,0,18.65,8.16,27.88,10.09,0,0,3.47,.75,9.23,1.93,13.86,35.12,20.05,73.94,42.37,104.31,3.24-6.37,2.44-13.93,2.43-21.08-.06-26.62,12.54-52.99,33.27-69.68,11.2,1.39,21.04,2.17,27.63,1.84,28.05-1.42,145.37-11.62,145.37-11.62,0,0,1.78-.45,5.08-1.26,2.48,1.14,5.02,2.19,7.53,3.21,6.55,2.66,13.09,5.33,19.64,7.99,4.32,1.76,8.84,3.55,13.48,3.16,.43-10.31,8.36-19.84,18.41-22.16,.45-.97-1.01-1.68-2.08-1.77-3.47-.3-6.94-.56-10.42-.8,63-12.97,172.53-31.65,264.96-27.48,2.06,.09,4.06,.18,6,.27l61.25,25.44s-19.14-14.96-13.03-20.45c.68-.62,2.16-1.62,4.18-2.88,5.09,.11,4.5-.06,.62-.39,16.73-10.32,67.74-37.09,67.74-37.09l11.84-4.69s16.13,7.34,15.29,3.86-2.61-17.51,1-25.49c3.61-7.98,11.76-23.47,11.76-23.47Z"/><path class="cls-1" d="M889.01,383.68c-.29,.45,.59,1.07,.72,.55l2.67-.5c-.64-.13-1.28-.28-1.93-.39-.52-.09-1.18-.12-1.46,.33Z"/><path class="cls-1" d="M892.41,383.73c16.69,3.45,31.07,14.2,47.21,19.93,1.69,.6,3.65,1.12,5.2,.21,2.08-1.23,2.1-4.15,2.02-6.56-.15-4.58,.31-9.35,2.64-13.3s6.92-6.82,11.43-5.99l-17.25-3.81-51.25,9.52Z"/><path class="cls-1" d="M933.5,304.53c.71-6.84,3.1-13.48,3.18-20.36,.02-1.41-.13-2.96-1.13-3.95-1.87-1.84-4.98-.44-7.14,1.05-17.94,12.33-34.54,26.59-49.44,42.45-6.37,6.78-13.25,14.3-22.47,15.51l93.28,2.86c-11.26-8.69-17.74-23.37-16.27-37.55Z"/><path class="cls-1" d="M950.51,342.11l-.74-.02c.88,.68,1.79,1.34,2.73,1.94-.66-.64-1.33-1.28-1.99-1.92Z"/></g><path class="cls-2" d="M357.14,346.37c.05-.04,.25,.13,.36,.15,.15,.03,.31,0,.45-.07,.22-.12,.27-.29,.26-.52s-.05-.39-.22-.56c-.18-.19-.52-.43-.8-.29-.13,.07-.1,.16-.1,.29,0,.29,0,.58,.02,.88,.02,.45,.07,.91,.23,1.34,.3,.78,.88,1.44,1.6,1.86,1.51,.88,3.37,.33,4.28-1.14,.2-.32,.33-.67,.43-1.04,.03-.11,.05-.22,.06-.34,.03-.57,0-1.14-.02-1.71-.01-.41,0-.85-.06-1.26-.04-.25-.27-.44-.46-.59-.37-.31-.78-.56-1.19-.81s-.81-.4-1.3-.45c-.26-.03-.42,0-.67,.1-.19,.07-.44,.15-.59,.28-.26,.22-.42,.66-.54,.96-.16,.4-.29,.82-.48,1.21-.29,.58-.6,1.17-.82,1.78-.08,.21,0,.58,0,.8,0,.19,0,.38,.02,.57,0,.03,.03,.22,.02,.23,.27-.27,.69-.57,1.06-.28,.21,.16,.37,.4,.62,.51,.13,.05,.22,.08,.35,.05,.13-.03,.27-.11,.4-.16,.26-.09,.5-.16,.74-.29,.28-.15,.58-.25,.85-.4,.49-.27,.95-.48,1.51-.57,.12-.02,.24-.02,.36-.05,.06-.01,.14-.05,.19-.08l-.03-1.06c0-1.1-.01-1.41-.04-.93-.03,.38-.09,.73-.24,1.08-.21,.51-.55,.98-.96,1.35-.85,.76-2.02,1.07-3.11,.69-.59-.2-1.11-.58-1.51-1.06-.19-.23-.34-.48-.46-.74-.06-.13-.1-.27-.15-.41-.09-.29-.08-.78-.07,.22v.25c.11-.24,.3-.4,.56-.45,.17-.04,.47-.02,.5,.21,.02,.14-.24,.37-.39,.44-.25,.11-.56,.1-.65-.18,0,.02,.01,.17,0,.18h0Z"/><path class="cls-2" d="M347.93,347.26c-1.05-.23-2.07-.79-3.06-1.2l.02,.87c2.45-.95,4.73-2.11,7.29-2.78s5.29-1.1,7.98-1.23,5.27,.02,7.87,.45c1.3,.22,2.58,.51,3.85,.87,.67,.19,1.33,.4,1.98,.63,.83,.29,1.29,.66,1.95,1.23l-.06-2.51c-2.63,5.2-10.49,4.63-15.36,4.96-3.21,.22-6.55,1.02-9.3-1.09-1.58-1.22-3.64-3.94-5.94-3.29-.12,.03,.07,2.47,.06,2.47,.48,.02,1.07,.27,1.21,.78l-.03-1.14-.08,.74c-.03,.18,.1,.55,.02,.7,.6-1.06-.19-3.1-1.17-3.54l.06,2.47c1.22,.1,2.11,.33,3.12,1.07s1.85,1.65,2.82,2.42c2.71,2.14,6.09,1.45,9.3,1.19,4.91-.4,12.74,.03,15.35-5.21,.11-.22-.09-2.51-.06-2.51-.34,.02-.63,.12-.95,.09s-.69-.24-.98-.34c-.59-.2-1.18-.39-1.78-.56-1.26-.36-2.55-.65-3.84-.86-2.66-.44-5.37-.58-8.07-.43s-5.24,.6-7.77,1.35-5.3,1.71-7.48,3.22c-.05,.04,.02,.87,.02,.87,1,.14,2.09,.19,3.04,.51-.01,0,.01-.17,0-.18h0Z"/><path class="cls-2" d="M342.34,346.85c.54,.75,.85,1.64,1.42,2.38,.51,.67,1.1,1.28,1.73,1.84,1.29,1.15,2.78,2.07,4.38,2.73,3.24,1.34,6.78,1.45,10.08,.23,.04-.01-.04-.34,0-.35-3.27,1.02-6.92,.74-10.09-.51-1.56-.61-3.02-1.48-4.29-2.56-1.2-1.03-2.63-2.45-3.23-3.93,.02,.05-.03,.14,0,.18h0Z"/><path class="cls-2" d="M376.83,348.23l1.5-2.01v-.28c-.11,.18-.23,.23-.37,.37s-.29,.31-.41,.48c-.33,.44-.62,.89-.98,1.3-.39,.45-.72,.93-1.11,1.38-.42,.49-.88,.95-1.32,1.42-1.81,1.92-4.03,3.46-6.51,4.36-.07,.03,.06,.9,.02,.91,2.36-.32,4.63-1.2,6.55-2.62,.95-.7,1.85-1.73,2.44-2.76,.35-.62,.69-1.27,.96-1.94,.34-.85,.49-1.74,.73-2.62,.02-.07-.04-.22,0-.28l-1.5,2.21s.01,.06,0,.07h0Z"/><path class="cls-2" d="M339.61,348.91c.29,.65,.59,1.29,1.01,1.86,.38,.52,.8,1,1.25,1.46,.89,.9,1.88,1.63,3.02,2.18-.05-.03,.05-.38-.01-.42-1.08-.67-2.13-1.48-3.03-2.39-.44-.44-.85-.92-1.23-1.42-.34-.45-.7-.88-1.03-1.34,.01,.01,0,.05,0,.07h0Z"/><path class="cls-2" d="M305.61,353.15c.8-.37,.03-1.7-.46-1.29-.02,.02,0,.47,.01,.49,1.72,1.33,3.73,2.4,5.61,3.49s3.8,2.17,5.74,3.2c3.73,1.98,7.54,3.82,11.42,5.51s7.81,3.22,11.8,4.61,8.51,2.4,12.56,4.06l-.05-2.1c-.16,1.49-.55,3.1-1.8,4.06-.88,.68-2.58,.77-2.79-.63l.03,1.14c0-.18,.03-.36,.09-.53,.09-.32-.13-.74-.03-1.05-.37,1.08-.03,2.39,.94,2.99,.82,.5,1.8,.86,2.55,.07,.96-1,.98-2.67,1.07-3.96,.01-.2,0-2.1-.05-2.1-4.23-.37-8.53-1.96-12.54-3.27s-7.92-2.76-11.8-4.38-7.68-3.37-11.41-5.28c-1.87-.95-3.71-1.94-5.54-2.97-1.93-1.09-3.8-2.4-5.8-3.36v.49c.62-.74,1.12,.81,.46,.62v.18h0Z"/><path class="cls-2" d="M349.94,380.51c1.47,1.35,3.26,2.25,5.01,3.21,1.62,.89,3.27,1.73,4.93,2.54,3.42,1.66,6.87,3.28,10.38,4.74,6.95,2.89,14.28,5.04,21.71,6.25s14.85,1.71,22.31,1.44c3.91-.14,7.96-.92,11.86-.4s7.09,2.8,10.64,4.06c4.07,1.44,8.2,2.66,12.5,3.16,2.1,.24,4.21,.4,6.32,.53,1.13,.07,2.26,.11,3.4,.1,.52,0,1.07,.04,1.58-.01,.89-.1,1.2-.68,1.77-1.37,.29-.35,.21-2.66-.07-3-.38-.45-.82-1.22-1.39-1.44-.37-.14-.96-.07-1.36-.09-1.06-.07-2.11-.15-3.17-.18-1.89-.07-3.77-.16-5.65-.31-3.73-.3-7.61-.58-11.27-1.4s-6.98-2.83-10.55-4.08c-3.79-1.32-7.75-.62-11.64-.34-14.96,1.09-29.86-.84-44.34-4.56-3.95-1.02-7.89-2.19-11.66-3.77-1.87-.78-3.72-1.61-5.54-2.49s-3.74-2.19-5.77-2.67c0,0,0,.06,0,.07h0Z"/><path class="cls-2" d="M457.28,397.42c1.23,.11,2.54-.31,3.75-.51,1.1-.18,2.19-.35,3.29-.5,2.21-.31,4.41-.62,6.63-.85,4.67-.49,9.38-.71,14.07-.67s9.24,.35,13.83,.91c1.96,.24,4.28,.29,6.12,1.08,.8,.34,1.55,.97,1.84,1.82,.43,1.29-.4,3.07-.87,4.27-.05,.12,.05,.42,.03,.47,.92-1.9,1.67-4.47,.66-6.52-.68-1.36-2.21-1.73-3.6-1.95-2.1-.33-4.22-.56-6.34-.76-8.41-.78-16.89-.69-25.28,.25-2.3,.26-4.59,.56-6.87,.99-1.18,.23-2.35,.47-3.53,.73-1.24,.27-2.61,.45-3.73,1.06-.02,.01-.01,.18,0,.18h0Z"/><path class="cls-2" d="M500.43,403.33c-1.01-2.67-2-5.21-3.55-7.63l.02,1.99c5.23,6.27,12.3,11.25,19.7,14.65,3.94,1.81,8.07,3.18,12.27,4.28s8.92,2.48,13.25,1.74c.08-.01,.07-.99-.03-1.05-4.05-2.24-8.88-2.86-13.31-4-4.19-1.08-8.32-2.41-12.26-4.2-3.64-1.65-7.15-3.6-10.43-5.87s-6.27-4.92-9.24-7.58c.23,.2-.3,1.63,.05,2.03,1.47,1.68,2.83,3.66,3.52,5.8,0,.02,.02-.12,0-.16h0Z"/><path class="cls-2" d="M466.96,404.78c-2.61-.06-4.9-3.08-5.63-5.32l-.04,1.18c2.91,7.46,5.79,14.9,8.34,22.5,2.49,7.45,4.8,14.96,7.15,22.46,4.71,15.04,9.53,30.11,16.22,44.41,3.73,7.97,8.08,15.65,13.21,22.81,.07,.11,.13,.11,.19,0,3.3-6.43,2.76-14.14,2.62-21.14-.13-6.43,.5-12.84,1.88-19.12,2.78-12.67,8.34-24.73,16.15-35.09,2.2-2.92,4.58-5.7,7.13-8.33,1.34-1.38,2.72-2.73,4.14-4.03,.67-.61,1.45-1.16,2.07-1.82,.7-.75,1.23-1.71,1.83-2.55,.15-.2,.05-2.15-.09-2.12-.66,.15-1.43,.24-1.99,.61-.69,.45-1.31,1.12-1.92,1.67-1.24,1.11-2.46,2.26-3.63,3.45-2.43,2.47-4.71,5.09-6.84,7.83-4.26,5.49-7.89,11.47-10.81,17.77-5.84,12.62-8.64,26.35-8.56,40.24,.02,3.7,.27,7.44-.2,11.13-.24,1.89-.66,3.76-1.36,5.54-.11,.28-.32,1.15-.63,1.2-.26,.04-.57-.57-.73-.79-.57-.77-1.12-1.55-1.67-2.33-4.09-5.88-7.65-12.13-10.8-18.56-6.39-13.04-11.04-26.84-15.44-40.65-4.43-13.91-8.65-27.92-14.14-41.47-.66-1.63-1.32-3.26-2.08-4.84,.06,.13-.15,.92-.02,1.24,.44,1.1,1.13,2.05,2.06,2.78,1.12,.89,2.32,1.06,3.62,1.53,0,0,.02-.18,0-.18h0Z"/><path class="cls-2" d="M542.01,421.59c-2.57,.44-4.77-2.46-5.26-4.61v.98c1.33,.46,2.87,.51,4.27,.7,1.58,.22,3.16,.43,4.75,.63,3.01,.39,6.02,.75,9.04,1.07,5.95,.63,11.91,1.14,17.88,1.55,12.01,.82,24.05,1.2,36.09,1.13,23.88-.13,47.8-1.81,71.38-5.64,6.61-1.07,13.19-2.28,19.75-3.63,3.36-.69,6.71-1.41,10.05-2.17,1.63-.37,3.26-.75,4.89-1.14,.78-.18,1.55-.37,2.32-.56,1.19-.29,1.83-1,2.76-1.8,.17-.14,.14-1.89-.05-1.95-.81-.28-1.51-.62-2.35-.54-.62,.06-1.25,.3-1.86,.45-1.55,.37-3.1,.74-4.65,1.09-2.95,.68-5.91,1.33-8.87,1.95-5.85,1.23-11.72,2.35-17.61,3.36-11.86,2.04-23.79,3.74-35.76,5.01-23.79,2.53-47.7,3.44-71.61,2.51-6.68-.26-13.36-.65-20.02-1.19-3.41-.27-6.82-.57-10.22-.9-1.66-.16-3.32-.33-4.98-.51s-3.53-.63-5.21-.5c-.11,0-.02,.94,.01,1.04,.35,.95,1.03,1.84,1.81,2.48,1.08,.88,2.19,.98,3.46,1.34,0,0,.01-.18,0-.18h0Z"/><path class="cls-2" d="M706.27,400c1.42,1.21,2.65,2.59,4.14,3.74,1.4,1.08,2.88,2.07,4.39,2.99,3.17,1.92,6.5,3.56,9.88,5.08,7.55,3.41,15.16,6.67,22.78,9.92,4.22,1.8,8.59,3.56,13.27,3.33,.07,0,.08-.62,.08-.56,.31-5.84,3.38-11.5,7.59-15.46,2.07-1.95,4.44-3.59,7.05-4.74,.65-.29,1.32-.53,1.99-.76,.48-.16,1.48-.46,1.73-.93s.14-1.37,.13-1.87c-.01-.55,.06-1.36-.21-1.87-.55-1.03-2.1-.96-3.08-.99-2.13-.06-4.27-.12-6.4-.15-3.96-.07-7.89-.25-11.84-.45-8.07-.41-16.14-.65-24.22-.71-9.07-.07-18.13,.1-27.19,.48-.09,0,0,1.06,.02,1.17,.33,1.45,.9,2.65,2.06,3.6-.06-.05,.06-.45-.01-.56-.94-1.26-1.7-2.65-2.05-4.19l.02,1.17c9.72-.39,19.44-.54,29.17-.42s19.33,.22,28.9,1.11c2.72,.25,5.44,.66,8.15,1.02,1.32,.18,2.63,.35,3.95,.54,.96,.14,2.25,.37,2.61,1.43l-.12-1.8c0-1.81-3.06-.26-3.87,.09-1.19,.51-2.33,1.11-3.42,1.81-2.24,1.44-4.21,3.26-5.87,5.35-3.31,4.18-5.08,9.16-5.33,14.46l.08-.56c-3.99,.35-7.82-.77-11.52-2.14-3.94-1.46-7.85-3.02-11.77-4.53-7.03-2.72-14.31-4.97-21.11-8.25-1.78-.86-3.51-1.8-5.17-2.87s-3.5-2.22-4.8-3.65c.02,.03-.03,.15,0,.18h0Z"/><path class="cls-2" d="M778.52,396.61c-1.14,.29-2.41,.27-3.58,.37v.29c16.67-2.68,33.23-5.95,49.89-8.64,16.59-2.68,33.24-5.07,49.92-7.15,16.77-2.1,33.57-3.97,50.39-5.51s33.52-2.77,50.31-3.71c16.87-.94,33.76-1.57,50.66-1.9,2.1-.04,4.2-.08,6.3-.11,.05,0,.02-1.53-.04-1.53-16.9,.25-33.79,.8-50.67,1.65s-33.57,2-50.32,3.46-33.65,3.18-50.42,5.29c-16.69,2.11-33.34,4.51-49.94,7.22-16.67,2.72-33.42,5.46-49.9,9.21-2.06,.47-4.12,.94-6.18,1.44-.04,0,0,.29,0,.29,1.17-.18,2.4-.49,3.58-.47,.02,0,0-.18,0-.18h0Z"/><path class="cls-2" d="M889.73,384.14c-.28,.64-1.14-.58,.09-.67,.75-.05,1.61,.28,2.32,.45,1.64,.39,3.28,.8,4.9,1.29,3.1,.93,6.12,2.09,9.09,3.37,6.01,2.6,11.77,5.72,17.59,8.7,2.92,1.5,5.85,2.97,8.83,4.32s5.99,2.92,9.11,3.53c.81,.16,1.63,.2,2.43-.02,.42-.11,1.12-.25,1.49-.49,.87-.57,1.17-1.95,1.29-2.89,.39-2.99-.07-5.98,.45-8.97,1.13-6.48,6.26-13.5,13.63-12.45-.08-.01,.37-4.53-.11-4.62-2.88-.57-5.68-.73-8.6-.86s-5.76-.73-8.61-1.13c.02,0-.08,.94,.02,.98,2.87,.86,5.86,1.57,8.64,2.68s5.65,2.22,8.65,2.95l-.11-4.62c-3.08-.56-6.13,.45-8.53,2.4-2.56,2.08-4.06,5.1-4.84,8.26-.9,3.63-.88,7.42-.79,11.13,.03,1.3-.14,2.7-.79,3.85-.36,.64-.81,1.4-1.47,1.76-.82,.45-1.92,.37-2.8,.22-1.65-.28-3.25-.97-4.81-1.56-1.71-.65-3.4-1.35-5.08-2.09-3.23-1.42-6.41-2.96-9.58-4.52-6.18-3.04-12.33-6.17-18.79-8.59-3.64-1.36-7.41-2.58-11.25-3.2-.69-.11-3.09-.82-3.18,.42-.03,.43,.39,.87,.79,.51,.03-.03-.02-.15,0-.18h0Z"/><path class="cls-2" d="M1027.32,369.04c1.17,.4,2.27,1.16,3.36,1.75,1.19,.64,2.39,1.28,3.59,1.92,2.32,1.22,4.65,2.39,7.01,3.52,4.62,2.21,9.28,4.35,13.97,6.4,9.45,4.14,19.05,7.94,28.76,11.45,2.67,.96,5.35,1.9,8.03,2.81,1.42,.48,2.84,.96,4.26,1.42s2.98,.78,4.27,1.49c-.18-.1,.13-1.73-.05-2.03-2.11-3.42-4.67-6.49-7.2-9.6-2.22-2.73-4.8-5.4-6.62-8.42-.4-.66-.76-1.37-.98-2.11-.47-1.58,.58-.66-.13,1.7,.13-.43,.15-.82,.32-1.25,.52-1.3,1.53-2.34,2.62-3.17,2.55-1.96,5.65-3.28,8.48-4.77,13.4-7.04,26.79-14.09,40.19-21.13l11.26-5.92,5.74-3.02c2.07-1.09,3.87-2.35,5.72-3.78,.29-.23-.18-2.48-.06-2.51-1.89,.52-3.58,1.1-5.32,2.01l-5.74,3.01-10.82,5.67-21.86,11.45-21.64,11.34c-2.7,1.41-5.91,2.71-7.82,5.19-.74,.96-1.16,2.05-1.25,3.26-.13,1.67-.13,3.52,.18,5.17s1.17,3.01,2.14,4.28c1.3,1.71,2.75,3.33,4.13,4.98,2.74,3.28,5.35,6.99,8.71,9.66l-.05-2.03c-1.2-.09-2.44-.63-3.59-.99-1.27-.39-2.54-.79-3.81-1.19-2.46-.78-4.92-1.59-7.37-2.41-4.82-1.63-9.62-3.35-14.38-5.14-9.6-3.62-19.07-7.57-28.4-11.84-2.55-1.17-5.09-2.37-7.65-3.53-1.34-.61-2.68-1.22-4.01-1.84s-2.79-1.14-3.99-1.96c.02,.01-.03,.17,0,.18h0Z"/><path class="cls-2" d="M1146.86,329.83c.89-.17,1.79,0,2.69,0,.75,0,1.5-.06,2.24-.07,1.8-.02,3.6,.04,5.39,.12,3.45,.16,6.88,.61,10.25,1.33s6.69,1.73,9.9,3c2.26,.9,4.77,2.57,7.33,1.94,1.63-.4,1.69-2,1.39-3.42-.26-1.21-1.49-1.9-2.19-2.86-.91-1.24-1.53-2.96-1.48-4.51,.09-3.02,1.29-6.08,2.23-8.91,1.06-3.17,2.27-6.28,3.65-9.33,3.13-6.88,7.09-13.36,11.76-19.29,.27-.35-.17-3.53-.09-3.55-11.34,2.35-21.71,7.63-31.86,13-10.68,5.65-21.47,11.04-32.51,15.94-22.34,9.91-45.27,18.45-68.2,26.89-6.38,2.35-12.81,4.6-19.38,6.35-3.35,.89-6.73,1.65-10.15,2.22-1.71,.28-3.43,.56-5.15,.7-.52,.04-2.19,.3-2.41-.44l.04,1.32c.04-.29,.17-.47,.44-.51,.08-.01,0-.91-.02-.91-.28,.04-.34-.12-.49,.1-.09,.13-.02,.56-.02,.7,.02,.63,.11,1.17,.44,1.72,.23,.38,.67,1.03,1.12,1.22,.54,.22,1.36-.03,1.92-.09,1.64-.19,3.28-.43,4.91-.72,6.29-1.09,12.46-2.82,18.52-4.81,12.04-3.96,23.87-8.62,35.71-13.12,23.76-9.02,47.37-18.59,69.94-30.34,11.95-6.22,23.9-12.96,37.24-15.67l-.09-3.55c-4.22,5.34-7.87,11.11-10.84,17.23-2.83,5.82-5.43,12.16-6.54,18.57-.43,2.51-.55,5.3-.15,7.83,.17,1.07,.55,2.15,1.11,3.08,.3,.51,.67,.96,1.08,1.38,.26,.26,.54,.49,.79,.76,.17,.17,.31,.36,.44,.56,.16-.19,.17-.18,.03,.04-.31,.75-1.62,.89-2.28,.91-1.21,.03-2.3-.29-3.4-.77-3.16-1.37-6.4-2.51-9.74-3.35-3.77-.95-7.63-1.55-11.52-1.79-2.02-.12-4.04-.14-6.06,0-.97,.07-1.95,.13-2.91,.27-1.05,.15-2.07,.56-3.12,.63-.01,0,0,.18,0,.18h0Z"/><path class="cls-2" d="M305.39,354.13c-1.3-2.23-3.1-4.56-4.05-6.95-.69-1.74-.49-1.71,1.27-2.46,1.45-.62,3.07-1.02,4.57-1.53,5.66-1.94,11.35-3.78,17.08-5.52,11.01-3.35,22.12-6.33,33.33-8.95,22.86-5.33,46.07-9.12,69.44-11.32,48.48-4.57,97.21-1.75,145.62,2.36,49.12,4.18,98.2,8.68,147.34,12.52,48.95,3.83,97.93,7.17,146.94,10.14,49.27,2.98,98.53,5.89,147.84,8.16,6.07,.28,12.14,.54,18.21,.73-.04,0,.03-4.11-.1-4.11-48.54-2.02-97.09-3.44-145.62-5.78-48.53-2.34-97.03-5.48-145.49-8.92-48.46-3.44-96.86-7.49-145.25-11.82-48.18-4.31-96.58-8.41-144.98-6.1-25.89,1.24-51.68,4.39-77.1,9.46-25.15,5.01-50.51,11.47-74.43,20.81-.06,.02-.02,.64,.02,.7l5.38,8.64s0-.05,0-.07h0Z"/><path class="cls-2" d="M552.83,318.82c1.75-.84,3.8-1.2,5.61-1.94s3.6-1.58,5.33-2.52c3.44-1.86,6.65-4.14,9.71-6.55,5.77-4.56,11.08-9.7,16.16-15.01,10.01-10.46,19.16-21.72,29.43-31.93,5.03-5,10.39-9.7,16.17-13.81,2.92-2.08,5.96-4.01,9.09-5.77,.61-.34,1.51-1.09,2.16-.9s1.35,.9,1.75,1.43c1,1.3,1.41,3.01,1.49,4.62,.1,2.07-.3,4.18-.57,6.23-.29,2.24-.59,4.48-.87,6.72-.55,4.29-1.05,8.58-1.35,12.89-.56,8.08-.5,16.36,1.32,24.28,2.84,12.29,10.95,24.84,23.4,28.99,.76,.25,1.57,.55,2.36,.67s1.64-.02,2.43-.11c.07,0,.07-.87-.02-.91-.77-.3-1.51-.69-2.29-.95-.83-.28-1.7-.44-2.54-.72-1.49-.5-2.93-1.12-4.31-1.86-2.89-1.55-5.51-3.58-7.8-5.92-4.73-4.81-8.15-10.89-10.18-17.3-2.81-8.86-2.78-18.35-1.98-27.51,.4-4.55,.98-9.07,1.57-13.6,.46-3.52,1.12-7.09,1.04-10.66-.06-2.4-.33-5.22-2.08-7.04-.35-.36-1.02-1.02-1.55-1.08-.66-.08-1.91,.9-2.53,1.25-1.51,.87-3,1.78-4.45,2.74-5.98,3.98-11.49,8.62-16.67,13.59-10.45,10.04-19.64,21.25-29.42,31.93s-21.05,22.39-34.81,28.55c-1.7,.76-3.75,1.84-5.61,2-.03,0,0,.18,0,.18h0Z"/><path class="cls-2" d="M856.5,339.71c2.75-.05,5.1-.76,7.53-2.05,2.26-1.2,4.35-2.71,6.3-4.36,4.24-3.59,7.93-7.8,11.79-11.79,8.51-8.8,17.56-17.08,27.07-24.79,4.76-3.85,9.63-7.57,14.6-11.13,2.28-1.63,4.63-3.66,7.27-4.69,1.05-.41,2.28-.69,3.38-.31,1.81,.62,2.18,2.51,2.1,4.21-.33,6.42-2.49,12.58-3.13,18.96-.47,4.71-.23,9.53,.74,14.16,1.15,5.48,3.35,10.72,6.46,15.38,1.53,2.29,3.29,4.44,5.24,6.4s4.19,4.12,6.68,5.29c-.08-.04,.27-1.7-.05-1.94l-1.98-1.51c.08,.06-.15,.91,0,1.1,.66,.77,1.33,1.55,1.99,2.32v-1.91c-2.06-1.69-4.24-3.13-6.16-4.99s-3.57-3.8-5.07-5.92c-2.96-4.18-5.18-8.88-6.51-13.83-1.53-5.67-1.61-11.28-.56-17.03s2.78-11.77,2.58-17.83c-.06-1.88-.29-4.3-2.38-5.01-2.43-.84-5.07,1.09-6.94,2.39-5.03,3.49-9.96,7.12-14.77,10.91-9.68,7.61-18.9,15.81-27.59,24.54-4.5,4.52-8.65,9.41-13.33,13.74-4.41,4.08-9.43,7.18-15.28,8.71-.12,.03-.05,.98,.02,.98h0Z"/><path class="cls-2" d="M422.23,366.98c-.5-.41-.62-.93-.63-1.59,0-.14,0-1.26-.22-1.25s-.16,1.19-.16,1.26c.1,2.87,.14,5.75,0,8.62-.15,3.04-.66,6.06-.8,9.1l.43-.72c.28,.21,.4,.03,.36-.54,.1-.2,.2-.39,.33-.58,.13-.21-.06-1.1-.08-1.07-.8,.89-1.03,1.73-1.04,2.91,0,.53-.04,1.17,.14,1.68,.08,.22,.17,.52,.3,.12,.48-1.48,.46-3.29,.59-4.84,.14-1.66,.23-3.32,.29-4.98,.12-3.34,.1-6.7-.15-10.04l-.14,1.59c.35,.05,.61,.21,.78,.5,0,0,.04-.14,0-.17h0Z"/><path class="cls-2" d="M435.72,368.58c-.37-.83-.54-1.7-.51-2.63-.04-.4-.2-1.45-.43-.54s-.08,2.04,.04,2.94c.37,2.67,.79,5.33,.89,8.03,.09,2.47-.08,4.97-.41,7.44l.41-.75c-.16-.28-.29-.56-.38-.87,0,0-.2-.96-.09-.35l.14,2.11c0-1.21,.5-2.35,1.34-3.21,.23-.23-.12-1.47-.07-1.5-.48,.33-.9,.74-1.29,1.16-.19,.2-.29,.34-.39,.6-.05,.12-.07,.24-.11,.36-.19,.68,.06-.23-.01,.1-.3,1.37-.25,2.84-.08,4.22,.13,1.04,.32,2.03,.85,2.94,.26,.44,.41-.75,.41-.75,.48-3.88,.64-7.79,.48-11.7-.15-3.59-.33-7.48-1.41-10.93l-.05,3.67,.68-.18s0-.13,0-.15h0Z"/><path class="cls-2" d="M446.2,370.71c1.49,5.22,1.84,9.93,.94,15.2l.59-.5c-.14-.36-.26-.8-.55-1.07l.24,1.33c-.02-.27,.36-1.2,.4-1.33,.09-.24-.06-1.45-.09-1.41-.58,.68-.8,1.49-.88,2.23-.19,1.77-.14,4,.52,5.66,.34,.85,.51-.03,.59-.5,1.28-7.96,.88-16.47-1.5-24.2-.31-1.01-.46,.76-.47,.96-.07,1.15-.1,2.49,.22,3.62h0Z"/><path class="cls-2" d="M457.2,367.84c.15,.99,.21,1.99,.41,2.96,.14,.69,.33,1.37,.47,2.06,.25,1.24,.45,2.5,.58,3.76,.25,2.26,.28,4.53,.07,6.79l.2-.6-.39,.25,.26,.46c-.17-.59-.22-2.5-.91-2.66l.6,2.11-.04-.46-.04,2.68c.19-.77,.46-1.33,1.01-1.88,.16-.17,.12-1.99-.09-1.98-.52,.03-1-.12-1.46-.46-.33-.12-.46,1.98-.47,2.03-.08,1.4-.05,2.81,.07,4.2,.08,.97,.14,2.16,.62,3.03,.27,.49,.48-.38,.5-.47,.96-4.22,1.03-8.62,.67-12.93-.15-1.73-.37-3.45-.71-5.15-.16-.81-.34-1.61-.54-2.4-.07-.29-.12-.9-.32-1.13-.12-.13-.36-.15-.51-.28,0,0,0,.05,0,.06h0Z"/><path class="cls-2" d="M466.82,368.32s.09,.04,.13,.05c.03,0,.02-.21,.02-.22-.02-.23-.45-.85-.73-.7-.24,.12-.09,1.15-.07,1.36,.05,.51,.15,1.01,.45,1.42,.33,.45,.62,.66,.76,1.22,.33,1.34,.48,2.78,.57,4.16,.17,2.56-.07,5.11-.56,7.62l.2-.21c-.57-.69-1.42-.92-2.19-1.33,0,0-.06,.96,0,1.1,.68,1.37,1.22,2.96,2.13,4.19,.13,.17,.18-.12,.2-.21,.69-3.77,.88-7.63,.66-11.46-.11-1.77-.31-3.53-.63-5.27-.11-.61-.13-1.56-.55-2.05-.14-.16-.37-.29-.56-.39-.13-.06-.34-.09-.44-.15l.12,1.54c0-.11,.45-.71,.59-.61l-.02-.34c-.02,.08-.06,.16-.12,.23,0,0,0,.06,0,.07h0Z"/><path class="cls-2" d="M331.24,368.64c.14,.37,.29,.64,.53,.94l.54,.65,1.13,1.37,2.2,2.66s.02,.03,.03,0c.13-.31,.25-.49,.5-.7,.2-.16,.34-.38,.51-.57,.42-.5,.7-1.12,1.06-1.68,.46-.71,.81-1.49,1.24-2.22,.46-.77,1.01-1.5,1.57-2.21,.1-.12-.06-.74-.02-.77-.83,.56-1.64,1.18-2.4,1.84-.93,.8-1.47,2.02-1.87,3.15-.14,.41-.24,.82-.35,1.24-.04,.17-.09,.41-.18,.57-.14,.22-.15,.18-.34,.01-.5-.43-.93-1.04-1.37-1.53l-1.37-1.53-.71-.8c-.19-.21-.4-.62-.71-.5,0,0,0,.06,0,.07h0Z"/><path class="cls-2" d="M393.65,337.65c1.36-1.49,2.82,2.06,3.21,2.88,.83,1.78,1.61,3.6,2.31,5.43,1.3,3.39,2.38,6.87,3.24,10.4,1.89,7.7,2.64,15.65,2.27,23.57,0,.04,.03,.2,.03,.08,.36-7.67-.31-15.36-2.03-22.85-.92-4.01-2.15-7.96-3.68-11.79-.72-1.81-1.5-3.59-2.35-5.34-.58-1.2-1.37-3.16-3.02-2.57-.05,.02,0,.18,0,.18h0Z"/><path class="cls-2" d="M400.89,340.23c-1.18,.35-1.29-2.32-.58-2.22,.66,.1,1.12,1.89,1.35,2.42,.79,1.81,1.51,3.66,2.17,5.52,1.23,3.47,2.27,7,3.07,10.6,1.7,7.66,2.34,15.53,1.9,23.36,0,.05,.03,.31,.04,.14,.81-14.51-1.97-29.14-8.32-42.22h0c-.55,.23-.77,.72-.72,1.29,.06,.74,.48,1.01,1.1,1.29,.01,0,.02-.19,0-.18h0Z"/><path class="cls-2" d="M309.63,352.75c2.2,.56,4.36,1.78,6.47,2.64s4.34,1.75,6.52,2.59c4.28,1.65,8.58,3.21,12.93,4.65,8.76,2.92,17.64,5.49,26.59,7.76,17.95,4.54,36.19,7.84,54.55,10.16,18.82,2.38,37.76,3.73,56.72,4.36,19.79,.66,39.6,.54,59.38,0,19.8-.53,39.61-1.34,59.39-2.48,2.5-.14,4.99-.29,7.49-.44,0,0,0-.14,0-.14-19.8,.84-39.58,1.92-59.38,2.54-19.79,.63-39.6,.89-59.39,.41s-38.23-1.6-57.24-3.75c-18.4-2.09-36.7-5.11-54.72-9.35s-35.66-9.67-52.83-16.42c-2.13-.84-4.5-1.54-6.47-2.71,.01,0-.03,.17,0,.18h0Z"/><path class="cls-2" d="M530.49,393.48c3.66,1.22,7.15,2.59,10.96,3.35s7.93,1.19,11.93,1.36c8.09,.34,16.2-.33,24.26-.88,17.07-1.16,34.12-2.64,51.15-4.32,34.45-3.41,68.8-7.71,103.13-12.13,34.16-4.4,68.3-8.94,102.51-12.86s68.28-7.23,102.55-9.19c34.37-1.97,68.84-2.56,103.25-1.04,4.22,.19,8.45,.4,12.67,.62,0,0,0-.21,0-.21-34.19-2.24-68.57-1.94-102.78-.35s-68.8,4.67-103.07,8.44c-34.22,3.76-68.37,8.22-102.51,12.64-34.17,4.42-68.34,8.8-102.6,12.41-17.19,1.81-34.4,3.42-51.64,4.74-8.41,.64-16.83,1.3-25.26,1.69-7.86,.36-15.84,.4-23.6-1.06-3.7-.69-7.61-1.62-10.96-3.38,.01,0-.03,.17,0,.18h0Z"/><path class="cls-2" d="M981.54,361.85c-.15-.1-1.55-1.04-1.53-1.09,.14-.31,1.31-.03,1.61-.01l4.48,.33,8.21,.6c5.55,.41,11.11,.75,16.67,1.1l32.83,2.06c6.3,.4,12.6,.79,18.9,1.13,0,0,0-.21,0-.21-10.77-.8-21.56-1.47-32.34-2.17s-21.55-1.51-32.34-2.1l-18.4-1.01s0,.11,0,.11l1.91,1.32s.01-.06,0-.07h0Z"/><path class="cls-2" d="M602.49,333.91c7.68,6.4,10.24,16.66,11.55,26.15,1.74,12.64,1.91,25.5,.57,38.19-.72,6.85-1.92,13.62-3.47,20.33,0,.04,.01,.21,.02,.18,3.01-12.35,4.42-25.11,4.38-37.82-.02-6.05-.38-12.1-1.08-18.1-.59-5.07-1.38-10.15-2.98-15.01-1.76-5.36-4.56-10.38-8.98-13.98,0,0-.01,.06,0,.07h0Z"/><path class="cls-2" d="M610.95,333.76c7.34,18.01,10.44,37.69,8.93,57.09-.42,5.46-1.22,10.89-2.36,16.25,0,.04,.02,.2,.02,.18,4.06-19.04,3.62-39.01-1.31-57.84-1.4-5.36-3.18-10.62-5.29-15.75,0,0,0,.05,0,.07h0Z"/><path class="cls-2" d="M532.13,324.73c1.89,1.52,3.2,4.27,4.19,6.43,1.09,2.39,1.91,4.89,2.61,7.42,1.54,5.49,2.77,11.09,3.78,16.71,2.1,11.7,3.11,23.6,2.99,35.49-.06,6.76-.51,13.5-1.27,20.22,0,.03,.02,.23,.03,.15,2.8-23.59,1.12-47.81-4.98-70.77-.74-2.78-1.55-5.54-2.67-8.19-.55-1.31-1.18-2.59-1.91-3.81-.82-1.37-1.86-2.52-2.77-3.82,0,.01-.04,.14,0,.18h0Z"/><path class="cls-2" d="M544.26,334.41c-1.09-3.11-1.84-6.39-2.74-9.57l-.34-1.21c-.04-.13-.31-1.13-.21-.53,.11,.66,.44,1.34,.65,1.98,.49,1.54,.96,3.1,1.41,4.65,1.69,5.91,3.04,11.91,4.06,17.97,2.11,12.56,2.72,25.37,1.8,38.07-.52,7.18-1.53,14.31-3.01,21.36-.01,.07,.02,.34,.03,.3,4.61-21.69,4.66-44.42,.12-66.13-1.34-6.39-3.08-12.7-5.2-18.87-.01-.03-.03,.18-.01,.23,1.15,3.95,2.46,7.9,3.42,11.9,0,.02,.02-.12,.01-.15h0Z"/><path class="cls-2" d="M493.1,418.73c.7,4.32,1.15,8.69,1.82,13.02s1.43,8.85,2.25,13.25c1.63,8.69,3.53,17.32,5.69,25.89,.01,.06,.02-.08,.01-.1-2.13-8.52-4.02-17.11-5.63-25.75s-3.29-17.58-4.12-26.43c-.01-.11-.02,.07-.02,.11h0Z"/><path class="cls-2" d="M456.29,402.8c.33,.58,.47,1.22,.84,1.77,.27,.4,.53,.81,.78,1.22,.5,.83,.94,1.69,1.34,2.58s.76,1.73,1.06,2.62c.28,.83,.47,1.67,.7,2.51,.02,.08,.05-.28,.04-.33-.26-2.01-.81-4.08-1.63-5.93-.39-.9-.85-1.77-1.35-2.61-.26-.43-.53-.86-.82-1.27-.1-.14-.22-.42-.39-.47-.11-.03-.2,.03-.31,0-.08-.02-.21-.18-.27-.22,0,0-.01,.11,0,.14h0Z"/><path class="cls-2" d="M458.41,403.1c1.54,3.56,3.74,6.87,5.44,10.37s3.16,6.84,4.56,10.34c2.85,7.11,5.22,14.4,7.49,21.71,4.4,14.18,8.39,28.59,14.63,42.1,3.51,7.6,7.77,14.85,13.04,21.36,.07,.08,.12-.77,.11-.86-.14-1.56-.27-3.12-.4-4.68-.04-.44-.1-.04-.08,.17,.1,1.63,.19,3.26,.29,4.89l.11-.86c-9.49-11.69-15.48-25.64-20.24-39.8s-8.52-28.68-13.87-42.66c-1.49-3.91-3.11-7.77-4.94-11.54-.92-1.89-1.88-3.76-2.9-5.6-.93-1.68-1.8-3.72-3.23-5.01,0,0,0,.06,0,.07h0Z"/><path class="cls-2" d="M501.81,398.83c-.22-.03-.41-.36-.56-.53-.22-.24-.45-.48-.65-.73l.04,.23-.04-.74c-.03-.55-.05-1.14-.17-1.68,0-.04-.09-.57-.22-.28-.16,.36-.12,.93-.13,1.3-.02,.73,0,1.45,.03,2.18,.02,.36,.04,.71,.07,1.07,.02,.22,.01,.18,0-.13-.04-.54-.02-.36,.04,.55,.05,.61,.12,1.22,.24,1.83s.26,1.17,.48,1.72c.28,.66,.68,1.42,1.37,1.73,.17,.08,.25-.03,.42-.03,.13,0,.3,.08,.43,.1,.33,.06,.64-.02,.96-.11,.36-.1,.72-.29,1.09-.35,.4-.07,.78-.15,1.17-.27,.13-.04,.07-.76,.07-.87,0-.21-.01-.41-.04-.62,0-.06,0-.22-.07-.25-.36-.2-.7-.42-1.03-.67-.38-.29-.68-.65-.98-1.03l.06,.07c-.48-.6-.9-1.23-1.35-1.85s-.73-1.33-1.14-1.98c-.28-.46-.58-.91-.85-1.37-.2-.35-.42-.71-.56-1.08l-.09-.12h-.02l.41,5.13,.06-1.88-.02,.13c.31,.19,.81,.39,1.01,.7,0,0,.03-.17,0-.18h0Z"/><path class="cls-2" d="M498.15,400.82c10.15,8.19,21.91,14.35,34.5,17.76,13.47,3.65,27.44,4.88,41.36,4.85,7.51-.01,15.01-.38,22.49-.9s15-.85,22.5-1.22c7.54-.37,15.06-1.12,22.58-1.73l22.58-1.83c8.44-.69,16.87-1.44,25.31-2.18l12.65-1.11c2.15-.19,4.3-.37,6.45-.54l2.98-.23c.51-.04,1.02-.01,1.49-.26,.69-.37,1.33-.99,1.95-1.46,.28-.21,.18-3.68-.09-3.83-1.01-.56-1.84-1.19-3.01-1.16-.82,.02-1.66,.16-2.48,.24-1.98,.19-3.97,.38-5.95,.56l-11.41,1c-7.44,.65-14.89,1.26-22.33,1.96-15.13,1.42-30.26,2.85-45.4,4.27-7.52,.71-14.97,2.02-22.49,2.72s-14.99,1.1-22.49,1.3c-14.08,.36-28.26-.37-42.03-3.48s-27.83-8.18-39.21-16.9c0,0-.08,.99-.07,1.08,0,.22-.07,.92,.13,1.08h0Z"/><path class="cls-2" d="M773.26,398.09c-.61-.02-1.17-.15-1.77-.28-.45-.09-.97,0-.5-.3,.39-.25,1.3-.24,1.78-.33,.68-.13,1.35-.26,2.03-.38,2.27-.39,4.58-.64,6.87-.94,4.69-.61,9.34-1.46,14-2.26,9.35-1.6,18.71-3.12,28.07-4.62,18.75-3,37.56-5.59,56.42-7.77,18.78-2.17,37.6-3.76,56.46-5.09,9.47-.67,18.95-1.23,28.43-1.69s18.98-.6,28.47-.8,19-.39,28.5,.02c2.33,.1,4.67,.22,7,.34,1.62,.08,4.15,.68,5.26-.94,.4-.58,.35-1.29,.35-1.97,0-1.27,.23-2.92-.14-4.15-.25-.85-1.46-.43-1.73,.28-.19,.5-.05,1.24-.04,1.75,.01,.59-.05,1.27,.16,1.83-.11-.28,.02-1,.02-1.3-.01-.54,0-1.1-.08-1.64l-.07-.49,.06,3.26c.57-.65,1.69,1.02,1.74,1.44l-.13-5.27c-.26,1.26-2.85,1-3.75,1.05-2.24,.12-4.48,.25-6.72,.39-4.31,.26-8.62,.45-12.94,.65-8.8,.41-17.61,.48-26.4,.95-17.41,.93-34.83,1.95-52.22,3.35-17.47,1.4-34.91,3.3-52.32,5.38-17.32,2.07-34.6,4.49-51.82,7.25-17.34,2.78-34.74,5.75-51.72,10.26-2.1,.56-4.22,.99-6.34,1.46,0,0,0,.1,0,.11,1.01,.17,2.06,.28,3.03,.61,0,0,.02-.18,0-.18h0Z"/></svg>