<?xml version="1.0" encoding="UTF-8"?><svg id="Layer_1" xmlns="http://www.w3.org/2000/svg" viewBox="0 0 1500 750"><defs><style>.cls-1{fill:#898282;}.cls-2{fill:#c0bdbd;}.cls-3{fill:#57aea4;}.cls-4{fill:#277165;}.cls-5{fill:#231f20;}.cls-6{fill:#ece1e1;}</style></defs><g><path class="cls-2" d="M1197.71,477.08c-2.89-3.79-45.26-30.88-54.12-36.5s-62.29-39.47-62.29-39.47l-113.05-72.08s-51.77-31.16-70.16-36.61c-18.39-5.46-68.28-13.28-77.6-13.95-9.32-.67-101.44-11.16-108.98-6.77-7.54,4.39-47.49,45.68-47.49,45.68,0,0-120.83,13.82-144.63,21.23l-33.18-25.75-5.72,2.12-7.27-2.59s-28.19,68.14-53.22,69.31c0,0-52.02-12.78-88.91-50.91,0,0-11.83-9.87-18.74,5.79l-1.11,6.59-5.81,2.76s-8.63,19.62-3.29,32.54c0,0,26.76-6.85,27.46,.13,.7,6.98,.86,20.61,19.5,26.23,18.64,5.62,23.82,28.83,11.19,39.86-12.63,11.03,34.98-3.61,34.98-3.61l37.49-25.97s64.09-6.5,70.34-2c.51,.37,.93,.68,1.31,.96l-14.17,1.83s-4.97,4.39-.42,9.03c4.55,4.64,4.34,23.36,4.34,23.36l14.19-4.3s-4.45-8.69,20.42,6.87c24.87,15.56,14.37,7.29,29.29-2.65,14.92-9.94,35.71-17.14,35.71-17.14l-.56-1.09c4.56,.58,9.7,1.22,15.33,1.9,2.42,1.41,5.03,2.58,7.64,3.5,7.08,2.5,14.49,3.1,21.95,3.34,3.58,.12,7.17,.17,10.75,.21,1.03,.14,2.06,.28,3.07,.43,7.76,1.16,15.56,1.97,23.37,2.66,15.41,1.36,30.87,2.07,46.33,2.51,15.38,.43,30.91,1.16,46.27-.02,18.32,.17,34.37-.55,46.05-2.59,20.97-3.66,109.71-27.18,148-10.86,38.29,16.32,58.56,27.98,62.87,22.46,4.31-5.52,4.97-8.6,4.97-8.6,0,0,60.79,16.89,74.98,18.46,14.2,1.56,48.37,7.91,60.46,10.99,12.09,3.07,35.33,6.51,32.45,2.72Z"/><path class="cls-6" d="M598.86,419.88c10.58,3.81,21.57,5.87,32.76,6.83,11.29,.97,22.63,.86,33.95,1.28,22.25,.82,44.52,1.33,66.78,1.84s44.68,.2,67-.88c22.24-1.08,44.38-2.96,66.44-5.98s43.67-7.03,65.12-12.41c2.73-.68,5.45-1.39,8.17-2.11l-.3-12.42c-11.67,12.11-29.37,14.34-45.24,16.2-20.91,2.45-41.81,4.89-62.72,7.33-20.82,2.43-41.64,4.95-62.47,7.25-20.69,2.29-41.44,4.23-62.26,4.94-11.6,.39-23.22,.39-34.82-.16-5.68-.27-11.39-.57-17.04-1.23-2.36-.28-4.79-.73-6.84-2.01-1.02-.64-1.66-1.45-2.42-2.36-.19-.23-.44-.45-.65-.68-.12-.18-.21-.38-.27-.59-.29,6.3-.06,7.95,.7,4.94,.49-.88,.21-2.6,.18-3.57-.02-.84-.05-1.69-.14-2.52-.02-.15-.24-.99-.22-1.04-.29,.53-.63,.72-.79,1.38-.36,1.52-.21,3.26-.17,4.8,.06,2.99,.03,6.79,1.52,9.52,2.08,3.83,7.19,4.4,11.06,4.77,10.67,1,21.4,1.43,32.11,1.48,21.7,.1,43.38-1.45,64.96-3.6,21.71-2.16,43.37-4.85,65.04-7.39,21.81-2.55,43.61-5.11,65.42-7.66,18.76-2.2,41.35-2.85,55.36-17.39,.28-.29,.22-1.63,.23-1.83,.06-1.46,.05-2.93,0-4.39-.01-.45-.35-6.25-.54-6.2-21.48,5.73-43.32,10.19-65.28,13.64-21.88,3.43-43.93,5.85-65.99,7.76-22.26,1.92-44.58,3.06-66.89,4.26-11.17,.6-22.33,1.24-33.51,1.59-11.17,.35-22.33,.59-33.5,.91s-22.5,.6-33.75,.51-22.25-.67-33.13-3.17c-2.65-.61-5.27-1.32-7.87-2.12,.02,0-.06,.45,.01,.48h0Z"/><path class="cls-6" d="M631.96,425.05c.38,2.94,3.73,3.73,6.23,3.92,4.57,.35,9.19,.3,13.77,.2,9.13-.2,18.25-.63,27.35-1.24,18.46-1.23,36.8-3.31,55.14-5.64,36.59-4.65,73.17-10.04,110.05-11.66,20.67-.91,41.47-.71,62.07,1.27,.24,.02,.16-5.68,.15-6.14-.01-.55,.1-6.03-.45-6.13-31.6-5.2-63.7-7.86-95.7-8.75-31.97-.89-64.02,.17-95.85,3.3-17.29,1.7-34.58,4.23-51.18,9.49-.28,.09-.29,1.9-.29,1.83-.08,1.46-.07,2.95-.03,4.41,.01,.46,.21,6.29,.63,6.22,35.31-5.24,70.8-9.21,106.4-11.91,35.59-2.7,71.28-4.12,106.98-4.26,5-.02,10.06,.23,15.03-.26s10.03-.84,15-1.49c2.41-.32,4.78-.74,7.19-.85,2.6-.11,5.22-.16,7.8-.41,2.39-.23,4.8-.69,7.19-.81,2.57-.13,5.24-.09,7.81,0,.04,0,.09-2.87-.07-2.88-2.21-.08-4.42-.31-6.62-.45-2.43-.16-4.83-.69-7.24-1.1-2-.34-4.01-.53-6.03-.72-1.2-.11-2.41-.24-3.61-.32s-2.39-.37-3.62-.57c-8.75-1.44-17.65-2.62-26.53-2.63-17.85,0-35.69,.3-53.53,.93-35.67,1.26-71.3,3.8-106.79,7.62-19.94,2.14-39.83,4.69-59.67,7.63l.31,12.47c14.85-4.7,30.25-7.23,45.7-8.92,15.76-1.73,31.6-2.82,47.44-3.48,32.02-1.35,64.12-.69,96.06,1.95,17.91,1.48,35.74,3.69,53.53,6.21l-.3-12.27c-36.61-2.68-73.24,.87-109.49,5.98-36.36,5.13-72.51,11.63-108.89,16.61-10.23,1.4-20.5,2.59-30.79,3.5-5.04,.45-10.09,.8-15.12,1.3-2.62,.26-9.43,1.6-10.03-2.48,0-.04-.03,.4-.01,.52h0Z"/><path class="cls-6" d="M880.06,416.49c-1.74,.28-3.65,.08-5.41,.08h-5.17c-1.69,0-3.49,.18-5.17,0-1.83-.21-3.62-.67-5.44-.94l.06,2.26c2.29-.03,4.65,0,6.92-.31s4.62-.59,6.93-.84c4.55-.5,9.11-.86,13.68-1.19,9.14-.65,18.32-.87,27.48-.66,18.44,.42,36.96,2.58,54.87,7.01,5.13,1.27,10.21,2.7,15.23,4.35s10.24,3.27,15.03,5.63l-.28-11.59c-3.27-1.48-7-2.26-10.5-3.07s-6.89-1.53-10.36-2.18c-7.02-1.31-14.09-2.32-21.2-3.01-14.05-1.37-28.23-1.53-42.31-.46-7.98,.61-15.92,1.61-23.81,3-.57,.1-.25,5.66-.23,6.23,.01,.46,.19,6.25,.54,6.21,15.62-1.84,31.44-1.86,47.06-.06,15.62,1.8,31.04,5.39,45.84,10.7,4.11,1.48,8.17,3.08,12.17,4.83,1.93,.84,3.82,1.86,5.81,2.54,.38,.13,.85,.35,1.24,.25,.45-.12,.89-.74,1.2-1.08,.46-.5,.9-1.04,1.28-1.61,.29-.44,.8-1.85,1.11-2.11,.27-.23,.06-1.76,.05-2.1,0-.24-.28-1.98-.15-2.1-.26,.22-2.2-1.65-2.35-1.8-.79-.8-1.23-1.54-2.32-1.87-1.7-.52-3.3-1.39-4.93-2.11-3.58-1.58-7.2-3.06-10.87-4.43-7.33-2.74-14.82-5.05-22.41-6.93-15.19-3.75-30.81-5.76-46.46-5.97-8.88-.12-17.76,.36-26.58,1.4l.31,12.44c27.98-4.95,56.78-4.97,84.76-.07,3.86,.68,7.71,1.45,11.53,2.31,1.98,.45,3.97,.9,5.95,1.37s3.9,1.05,5.9,1.26c.24,.03,.17-5.37,.16-5.8-.01-.51,.08-5.71-.44-5.79-4.51-.64-8.93-1.86-13.39-2.74s-8.89-1.68-13.35-2.45c-8.97-1.55-18.04-2.79-27.09-3.73-18.29-1.9-36.8-2.18-55.13-.76-5.2,.4-10.38,.99-15.54,1.72-2.54,.36-5.08,.75-7.62,1.18-2.67,.45-5.24,1.26-7.8,2.13-.24,.08,.1,2.25,.06,2.26,1.8-.31,3.58-.81,5.39-1.04,1.68-.21,3.47-.08,5.17-.1l5.17-.08c1.77-.03,3.67-.26,5.41-.01,0,0,0-.15,0-.15h0Z"/><path class="cls-6" d="M928.15,407.17c-1.62-1-3.23-2.01-4.85-3.01l.03,1.24c5.17,1.37,10.52,2.28,15.78,3.25s10.5,1.94,15.73,3.01c10.35,2.13,20.66,4.55,30.78,7.61,5.74,1.73,11.57,3.54,17.07,5.94l-.09-3.8c-10.35-2.89-20.76-5.48-31.21-7.97l-15.48-3.69c-4.97-1.18-10-2.23-14.91-3.68-5.56-1.64-10.92-3.62-16.16-6.08l.17,6.97c5.44,.61,10.85,1.64,16.24,2.61s10.77,2.02,16.12,3.18c10.67,2.32,21.29,5,31.74,8.18,5.91,1.8,11.76,3.76,17.56,5.89l-.27-11.05c-1.06,.18-1.81,.19-2.58,1.03l.24,9.94c.59-.73,1.14-1.55,1.78-2.24,.49-.53,1.08-.97,1.57-1.49,.26-.23,.49-.5,.67-.8,.32-.12,.62-.28,.91-.47l1.81-1.07c.17-.1-.08-2.04-.05-2.04-.61,.02-1.23,.02-1.84,.06-.31-.01-.62,.02-.92,.1-.2-.19-.44-.32-.7-.38-.51-.22-1.12-.26-1.62-.5-.64-.31-1.25-.75-1.86-1.11-.05-.03-.12,1.71-.11,1.46-.02,1.17,0,2.35,.02,3.52s.07,2.34,.15,3.51c.02,.27-.04,1.3,.19,1.45,.88,.6,1.62,.27,2.61,.08,.41-.08,.12-5.05,.11-5.53-.03-1.3-.07-2.61-.17-3.9-.02-.23,0-1.54-.21-1.61-20.5-7.02-41.68-12.24-63.25-14.48-6.1-.63-12.19-.89-18.31-1.3-.19-.01-.12,3.23-.11,3.49,.02,.82,.05,1.64,.12,2.46,.01,.17,0,.95,.17,1.02,4.51,1.94,9.33,3.25,14.1,4.38s10,2.31,15,3.44c10.31,2.33,20.61,4.73,30.95,6.93,5.87,1.25,11.74,2.41,17.64,3.5-.17-.03,.34-3.66-.09-3.8-5.02-1.7-9.97-3.53-15.05-5.05s-10.2-2.86-15.36-4.07c-10.26-2.42-20.66-4.23-31.06-5.89-5.88-.94-11.88-1.89-17.83-2.23,0,0-.1,1.19,.03,1.24,1.61,.61,3.21,1.22,4.82,1.83,0,0,0-.05,0-.06h0Z"/><path class="cls-6" d="M1009.96,422.6c-.26-.9-.7-1.69-1.38-2.34-.36-.34-.77-.65-1.18-.93-1.05-.7-1.39-1.45-1.88-2.71-.11-.27-.11,.27-.11,.29-.11,.5-.04,1.21-.03,1.71,.01,1.15-.03,2.38,.2,3.51,.21,1.02,.29,1.95,.86,2.82,.33,.51,.76,.95,1.15,1.41,.8,.95,1.77,1.75,2.67,2.6,1.54,1.44,3.16,2.8,4.76,4.18,3.29,2.82,6.57,5.65,9.89,8.43,3.14,2.63,6.25,5.3,9.43,7.89,2.7,2.19,5.47,4.15,9.11,3.31s7.38-3.33,9.09-6.49c.2-.37-.26-2.01-.05-2.16-1.04,.77-2.05,1.37-3.38,1.37-1.65,0-3-.48-4.48-1.17-1.63-.76-3.11-1.84-4.58-2.86s-3.02-2.17-4.5-3.28c-3.18-2.37-6.17-5.03-9.23-7.56s-6.32-5.2-9.5-7.78c-1.84-1.49-3.65-3.01-5.51-4.46-.87-.67-1.77-1.31-2.66-1.95-.75-.54-1.85-1.49-2.83-1.28l.34,8.47c.08-1.64-.4-3.93,1.43-3.47,.32,.08,.61,.22,.88,.41,.74,.51,1.23,1.25,1.51,2.1,0-.01,0-.04,0-.06h0Z"/><path class="cls-6" d="M1057.48,445.78c-2.1-.96-4.07-2.13-6.2-3.03-1.98-.83-3.95-1.71-5.95-2.47-3.72-1.42-7.45-2.83-11.15-4.29-6.19-2.44-12.6-4.76-17.91-8.87-3.14-2.44-5.82-5.54-7.95-8.88,.08,.12-.15,1.07-.17,1.29-.06,1.03-.05,2.07-.04,3.1,.03,2.23,0,4.53,.32,6.74,.75,5.15,4.55,8.21,9.13,10.16,2.45,1.05,5.01,1.77,7.56,2.53,3.26,.97,6.54,1.91,9.82,2.8,6.51,1.77,13.07,3.34,19.71,4.52,3.33,.59,6.68,1.07,10.04,1.42s6.71,.63,10.02,.17c3.8-.53,7.5-1.54,11.08-2.89s7.38-2.65,10.96-4.26c.22-.1-.08-2.46-.06-2.46-3.18,.21-6.51,.39-9.68-.03s-6.54-.98-9.79-1.56c-6.49-1.16-13.1-1.35-19.62-2.35s-13.08-2.44-19.52-4.09c-6.16-1.58-12.4-3.18-18.41-5.27-4.68-1.63-10.21-4.23-11.27-9.59l.2,11.73c4.01,4.33,9.77,6.88,15.21,8.92,6.45,2.43,13.22,3.55,19.95,4.88,2.2,.43,4.41,.8,6.63,1.15,1.18,.19,2.36,.44,3.55,.48s2.36,.09,3.54,.24c0,0,0-.06,0-.06h0Z"/><path class="cls-6" d="M1057.7,444.17c-1.43-1.89-3.73-3.23-6.11-2.57-.13,.04-.1,2.53,.06,2.6,4.89,1.97,10.03,3.46,15.04,5.07,4.95,1.59,9.91,3.12,14.89,4.6,9.93,2.94,20.1,5.42,30.24,7.52,2.87,.6,5.74,1.17,8.62,1.73,1.35,.26,2.71,.48,4.07,.67,.7,.1,1.45,.28,2.16,.3,.9,.03,1.56-.43,2.37-.85l-.1-4.27c-.63,.52-1.14,.34-1.94,.3-.65-.03-1.3-.07-1.94-.1-1.46-.08-2.92-.19-4.37-.31-2.77-.23-5.51-.64-8.26-1.05-5.43-.81-10.85-1.66-16.26-2.56s-10.82-1.93-16.22-2.98c-4.94-.96-9.89-1.93-14.74-3.32-2.61-.75-5.16-1.67-7.64-2.76-1.26-.55-2.57-1.12-3.75-1.83-.68-.41-1.33-.93-1.92-1.46s-1.22-.89-1.87-1.31l.08,3.34c10.78,3.62,21.95,6.18,33.15,8.09,11.22,1.92,22.48,3.68,33.73,5.4,3.09,.47,6.16,1.02,9.25,1.52,1.6,.25,3.22,.5,4.82,.7,.76,.1,1.52,.11,2.28,.16,.43,.03,1.11-.07,1.38,.33l-.05-1.74c-.02,.22-.74,1.15-.8,.69,.02,.18-.02,.52,.01,.75,.07,.57,.67,.7,.85,.18,.14-.4,.04-1.24-.05-1.65-.31-1.41-2.3-1.84-3.47-2.22-1.51-.49-3.07-.89-4.61-1.28-6.17-1.57-12.5-2.53-18.78-3.47-12.46-1.88-24.98-3.51-37.36-5.86-6.89-1.31-13.72-2.9-20.43-4.93,.24,.07-.36,3.07,.08,3.34s.97,.7,1.49,.89c.47,.18,1.02,.26,1.51,.41,1.21,.38,2.34,1.02,3.51,1.5,2.27,.94,4.6,1.68,6.95,2.38,4.7,1.4,9.51,2.39,14.32,3.3,10.85,2.05,21.74,3.99,32.63,5.79,3,.5,6.03,.89,9,1.52,1.54,.33,3.09,.64,4.63,1,1.45,.34,3.87,.45,4.89,1.52-.18-.19,.02-1.83,.01-2.14,0-.36,.18-1.88-.11-2.13-.58-.49-1.26-1.26-1.95-1.6-.54-.26-1.34-.3-1.92-.43-1.28-.29-2.55-.59-3.84-.84-2.56-.48-5.11-.95-7.66-1.45-5.01-.98-10.03-1.91-15.03-2.92-10.03-2.02-20.07-4.11-30.06-6.29-5.63-1.23-11.22-2.81-16.89-3.85l.06,2.6c1.88-.95,4.25-1.26,6.05,.03,0,0,0-.05,0-.06h0Z"/><path class="cls-6" d="M1070.07,445.93c-1.35-.2-2.94-.71-4.15-1.33v.43c1.46,.73,3.22,.91,4.79,1.26s3.18,.64,4.76,.96c3.02,.6,6.03,1.22,9.03,1.86,6.22,1.33,12.48,2.51,18.69,3.89,12.32,2.75,24.59,5.78,36.76,9.15,6.61,1.83,13.4,4.45,20.31,4.68-.04,0,.04-.69-.02-.72-5.56-3.28-11.88-4.94-18.05-6.67s-12.25-3.34-18.41-4.86c-12.21-3.02-24.58-5.46-36.97-7.59-3.38-.58-6.8-1.01-10.2-1.46-1.74-.23-3.48-.48-5.23-.66s-3.77-.62-5.47-.26c-.02,0,0,.43,.01,.43,1.32,.09,2.92,.53,4.15,1.05-.01,0,.01-.15,0-.15h0Z"/><path class="cls-6" d="M1077.13,447.22c-2.28-.61-4.57-2.11-6.62-3.27-2.26-1.28-4.35-2.62-6.28-4.36l.03,1.18c3.56,1.22,7.24,2.14,10.86,3.17s6.88,2.03,10.34,2.98c6.96,1.91,13.89,3.93,20.79,6.04,6.89,2.11,13.76,4.3,20.61,6.53s13.6,4.79,20.46,6.96c3.62,1.14,7.29,2.17,11.05,2.73s7.83,.36,11.76,.26c0,0,0-.9-.02-.9-3.63-.26-7.23-1.35-10.68-2.47s-6.67-2.1-9.98-3.25c-6.7-2.34-13.42-4.61-20.17-6.79-13.71-4.42-27.58-8.26-41.56-11.71-3.81-.94-7.64-1.76-11.49-2.55s-7.97-1.74-12-2.18c.03,0-.1,1.12,.03,1.18,2.16,1.01,4.16,2.26,6.26,3.39s4.54,1.97,6.62,3.21c-.02,0,.02-.15,0-.15h0Z"/><path class="cls-6" d="M1180.5,476.14c-9.5-3.66-19.15-6.87-28.84-9.99-9.63-3.1-19.28-6.19-29-8.98-19.37-5.56-38.84-10.81-58.47-15.4-10.92-2.56-22.06-4.94-33.23-6.12,.01,0-.06,.75,.02,.78,9.7,3.12,19.64,5.43,29.5,7.98,9.74,2.52,19.56,4.76,29.33,7.21,19.46,4.88,38.85,10.11,58.17,15.54,10.84,3.05,21.63,6.28,32.52,9.16-.01,0,.02-.17,0-.18h0Z"/><path class="cls-6" d="M996.26,429.92c-.24-.56-1.56-4.9-.44-4.69l-.07-.3c1.01,6.34,3.63,12.29,6.95,17.75,1.5,2.48,3.18,4.85,5.01,7.1,.94,1.15,1.89,2.36,3.01,3.34,.97,.84,2.4,1.75,3.73,1.52,.48-.08,.18-5.27,.17-5.78-.04-1.36-.08-2.72-.19-4.08-.04-.53-.01-1.21-.26-1.69-2.56-4.98-5.62-9.72-8.48-14.52l.3,12.38c1.91,3.08,4.26,5.84,6.97,8.24,1.32,1.17,2.72,2.26,4.19,3.24,.47,.31,1.6,1.32,2.25,1.19,.92-.19,1.49-2.31,1.67-3.02,.22-.9,.05-2.07,.02-2.98-.01-.31-.34-2.21-.19-2.35-.68,.65-.57,.35-.7,.98-.06,.3-.19,2.45,.08,2.59,.37,.19,.51,.65,.66,1.01l-.06-.3,.07,.79-.06-5.06c-.49-.25-.67-.94-.92-1.39-.37-.67-.67-1.35-1.22-1.89-.6-.6-1.39-1.01-2.08-1.51-1.47-1.07-2.87-2.23-4.18-3.49-2.63-2.51-4.89-5.36-6.82-8.43,.01,.02-.19,2.04-.19,1.82-.05,1.46-.03,2.92,.01,4.38s.09,2.92,.2,4.37c.04,.54,0,1.34,.28,1.81,2.76,4.56,5.33,9.36,8.46,13.69l-.28-11.54c-1.35,.67-2.34,.46-3.54-.41-1.08-.79-1.99-1.84-2.89-2.82-1.83-2.01-3.51-4.16-5.04-6.41s-2.77-4.48-3.96-6.85c-.59-1.17-1.14-2.37-1.68-3.56-.22-.49-.77-2.25-1.34-2.26-.05,.09-.07,.2-.06,.31-.24,3.08-.73,5.99,.61,8.89,0-.01,0-.04,0-.06h0Z"/><path class="cls-6" d="M1021.05,448.13c-1.18-1.68-2.57-3.18-3.77-4.84-1.28-1.76-2.44-3.55-3.82-5.24-2.4-2.94-4.93-5.71-7.69-8.31-4.98-4.71-10.3-9.05-15.69-13.27l.3,12.22c9.36,4.22,18.22,9.54,26.22,15.98l-.31-12.51c-3.42,.6-6.5-.69-9.73-1.62s-6.75-.81-10.06-1.36c-6.73-1.12-13.44-2.32-20.15-3.56,.11,.02-.26,2.55,.07,2.7,6.79,3.14,13.56,6.31,20.3,9.55,3.34,1.6,6.46,3.79,9.92,5.12,3.08,1.19,6.65,2.26,9.96,1.67,.55-.1,.22-5.7,.21-6.27-.04-1.47-.09-2.95-.21-4.42-.03-.4,.03-1.56-.3-1.83-7.99-6.4-16.77-11.73-26.21-15.68-.12-.05-.21,2.1-.19,1.8-.05,1.44-.03,2.89,0,4.32s.09,2.88,.2,4.32c.03,.37-.03,1.55,.28,1.78,5.22,3.89,10.35,7.91,15.65,11.69,2.38,1.7,4.79,3.25,7.42,4.55,.64,.32,1.28,.71,1.96,.92,.58,.18,1.19,.24,1.76,.45,1.39,.48,2.51,1.39,3.88,1.9,0,0,0-.05,0-.06h0Z"/><path class="cls-6" d="M1004.8,417.19c-5.57-2.58-11.05-5.47-16.78-7.69s-11.27-4.28-17-6.15c-11.33-3.7-22.79-6.97-34.36-9.81-23.17-5.67-46.86-9.19-70.65-10.89-13.34-.96-26.72-1.34-40.09-1.15-.02,0-.01,.72,.02,.72,23.96,.35,47.76,2.67,71.41,6.47,23.57,3.79,46.95,9.25,69.74,16.35,6.29,1.96,12.56,3.97,18.79,6.1s12.67,3.87,18.91,6.11c0,0,0-.06,0-.06h0Z"/><path class="cls-6" d="M861.69,390.5c-40.68-1.12-81.37-1.33-122.07-.94-40.69,.38-81.37,1.4-122.03,3.06-22.82,.93-45.63,2.08-68.42,3.49-.01,0,0,.24,0,.24,40.63-2.24,81.28-4.02,121.96-5.12,40.67-1.1,81.37-1.56,122.06-1.38,22.83,.1,45.67,.35,68.5,.72v-.06h0Z"/><path class="cls-6" d="M809.73,385.27c-2.04-.14-4.1-.73-6.14-.99-2.23-.29-4.47-.47-6.72-.58-4.33-.21-8.68-.15-13.01,.1-8.67,.49-17.33,1.35-25.99,2.09l-52.79,4.47c-35.38,2.99-70.77,5.87-106.13,9.03l-29.63,2.65c-10.04,.9-20.29,1.34-30.14,3.54-.04,0,0,.54,.01,.54,8.98,.39,18.01-.77,26.95-1.57l26.39-2.36c17.6-1.57,35.19-3.23,52.78-4.89,35.37-3.33,70.74-6.66,106.1-9.99,9.77-.92,19.54-1.95,29.32-2.72,4.85-.38,9.71-.67,14.57-.62,2.42,.03,4.83,.14,7.24,.36s4.95,.34,7.17,1.11c0,0,.01-.15,0-.15h0Z"/><path class="cls-6" d="M549.82,407.07c28.17,1.67,56.37,3.02,84.57,4.02,28.2,1,56.42,1.65,84.63,2.04,3.7,.05,7.41,.12,11.11,.13,3.41,0,6.82-.27,10.23-.27s6.81,.05,10.22-.38c1.65-.21,3.28-.5,4.9-.9,1.5-.37,3.33-.75,4.69-1.48,.11-.06,.07-1.39,.06-1.28,0-1.03,0-2.07-.04-3.1,0-.35,.02-4.35-.24-4.37-6.12-.61-12.2-1.36-18.34-1.81s-12.22-.68-18.34-.62c-12.15,.13-24.3,.67-36.43,1.37-24.38,1.41-48.71,3.69-73.13,4.59-13.69,.51-27.4,.59-41.08-.07l.3,12.42c22.75,.02,45.5,.51,68.23,1.48,22.65,.97,45.27,2.42,67.86,4.33,12.78,1.09,25.54,2.33,38.29,3.71l-.31-12.53c-27.17,1.58-54.38,2.4-81.6,2.51-24.67,.09-49.52-.57-73.81-5.23-13.56-2.6-26.88-6.5-39.52-12.11-.16-.07-.27,2.16-.26,1.84-.07,1.47-.06,2.96-.02,4.43s.09,2.96,.23,4.43c.03,.34,.01,1.67,.35,1.83,15.09,7.07,30.78,12.84,46.87,17.21s32.69,7.4,49.36,8.95c9.36,.87,18.76,1.28,28.17,1.24l-.31-12.53c-9.91,2.6-20.04-1.3-29.51-3.96-9.99-2.81-20.05-5.39-30.16-7.73-20.02-4.63-40.32-8.62-60.75-10.98-5.7-.66-11.48-.84-17.22-.87-2.88-.02-5.75-.05-8.62,.05-1.44,.05-2.87,.11-4.31,.17s-3.08,.33-4.55,.21c-.09,0-.34,5.54,.14,5.58,1.29,.11,2.58,.55,3.86,.83s2.57,.57,3.86,.85c2.58,.58,5.12,1.1,7.71,1.64,5.12,1.06,10.24,2.09,15.37,3.13,5.13,1.04,10.37,1.67,15.54,2.47s10.17,1.62,15.24,2.52c20.28,3.59,40.39,8.12,60.25,13.58,5.53,1.52,11.02,3.29,16.61,4.59s11.28,1.93,16.85,.47c.21-.06,.21-2,.2-1.84,.05-1.47,.03-2.96,0-4.43-.01-.49-.07-6.26-.5-6.26-16.67,.08-33.33-1.28-49.76-4.07-16.51-2.8-32.77-7.02-48.55-12.62-8.86-3.14-17.57-6.72-26.08-10.71l.31,12.53c22.59,10.03,47.15,14.43,71.68,16.2,25.65,1.85,51.49,1.29,77.18,.59,15.37-.41,30.72-1.06,46.07-1.96,.36-.02,.4-12.45-.31-12.53-22.62-2.45-45.28-4.42-67.98-5.92-22.62-1.49-45.27-2.5-67.92-3.04-12.82-.31-25.64-.46-38.46-.46-.33,0-.42,12.38,.3,12.42,24.38,1.16,48.79-.07,73.12-1.75,24.35-1.68,48.69-3.91,73.1-4.64,6.84-.2,13.68-.31,20.51-.53s13.67-.5,20.49-.21l-.21-8.75c-1.38,.74-2.66,1.73-4.06,2.47s-2.92,1.44-4.43,2.05c-2.93,1.18-5.97,2.08-9.04,2.8-5.96,1.4-12.39,1.05-18.48,1.1-14.06,.12-28.12,.15-42.18,.07-28.2-.17-56.39-.69-84.58-1.54-15.79-.48-31.59-1.07-47.37-1.76-.01,0-.02,.42,.01,.42h0Z"/><path class="cls-6" d="M568.53,412.36c-2.57-1.7-4.68-3.87-7.56-5.13s-5.67-1.94-8.67-2.37c-6.48-.93-13.04-.71-19.56-.56-14.99,.36-29.92,1.38-44.84,2.92-8.52,.88-17.03,1.92-25.52,3.1-.06,0,0,.72,.02,.72,15.04-1.62,30.13-2.74,45.24-3.36,7.56-.31,15.13-.61,22.69-.79,6.53-.15,13.14-.45,19.66,0,3.34,.23,6.7,.74,9.93,1.61,2.94,.79,6.44,1.73,8.6,4.01-.02-.02,.03-.13,0-.15h0Z"/><path class="cls-6" d="M421.52,412.45c-.95,.35-1.88,.72-2.86,.97-.04,0-.03,.51,.01,.53,3.14,1.75,6.88,1.37,10.27,.81,3.6-.59,7.2-1.19,10.8-1.8,7.31-1.24,14.66-2.26,22.03-3.04,14.91-1.58,29.92-2.31,44.92-2.41,8.36-.06,16.75,.11,25.11,.45,.01,0,.04-.65-.02-.66-29.88-3.84-60.09-2.37-89.71,2.86-4.14,.73-8.22,1.63-12.31,2.59-3.72,.87-7.33,1.56-11.1,.66v.53c.93-.54,1.9-.98,2.86-1.44,0,0,0-.06,0-.06h0Z"/><path class="cls-6" d="M557.34,436.04c1.46-.72,3.02-1.13,4.44-1.98s2.47-1.94,3.74-2.92c.07-.05,.03-.88-.02-.89-1.06-.22-2.04-.61-3.08-.89s-2.02-.31-3.06-.34c-1.87-.05-3.75-.1-5.62-.03-3.89,.13-7.74,.39-11.6,.92-7.71,1.06-15.22,3.11-22.59,5.58-.57,.19-.36,4.2-.36,4.49,.01,2.3,.07,4.61,.39,6.89,.25,1.76,1.24,2.39,2.98,2.27,1.97-.14,3.93-1.02,5.81-1.59,4.61-1.4,9.27-2.59,13.92-3.82,9.26-2.45,18.58-4.65,27.86-7.01l-.25-10.26c-1.45,.38-2.99,.36-4.46,.7s-2.95,.71-4.41,1.1c-2.87,.77-5.68,1.81-8.46,2.85s-5.54,2.18-8.25,3.41-5.75,2.49-8.2,4.27c-.31,.22-.29,1.65-.3,1.79-.09,1.43-.08,2.88-.04,4.3s.09,2.87,.25,4.3c.03,.32,.04,1.65,.38,1.77,.64,.22,1.04,.1,1.58-.32,.29-.22,.46-.32,.75-.46s.62-.24,.92-.39c1.34-.64,2.28-1.59,3.35-2.57,.95-.87,2.05-1.49,2.92-2.48,.78-.88,1.38-1.85,1.82-2.95,.18-.45-.21-1.56-.08-1.79-.83,1.57-3.13,3.72-5.06,3.11-1.07-.34-2.16-.84-3.15-1.37-.73-.4-1.21-.7-1.73-1.35s-.97-1.14-1.63-1.58l.3,12.16c2.82-1.06,5.49-2.76,8.21-4.08s5.46-2.55,8.24-3.69,5.63-2.13,8.45-3.19c1.46-.55,2.92-1.08,4.4-1.58s2.91-1.32,4.43-1.69c.61-.15,.3-4.6,.28-5.14-.01-.37-.26-5.19-.53-5.12-8.97,2.16-17.91,4.48-26.91,6.54-4.48,1.03-8.95,2.15-13.46,3.02-2.09,.4-4.23,.97-6.35,1.19-.65,.07-1.33,.05-1.96-.11-.31-.08-.62-.18-.9-.36-.16-.11-.54-.6-.51-.43l.03,11.38c7.38-3.07,14.96-5.66,22.53-8.23,3.83-1.3,7.67-2.61,11.53-3.81,1.86-.58,3.71-1.21,5.58-1.78,.97-.3,1.86-.64,2.79-1.05,1.11-.49,2.12-1.19,3.25-1.68l-.02-.89c-.97,1.36-2.36,2.49-3.72,3.44-1.27,.88-2.88,1.94-4.43,2.2-.02,0,0,.15,0,.15h0Z"/><path class="cls-6" d="M564.62,433.02c-.62-.08-1.1-.19-1.69,.06-.54,.23-1.01,.64-1.49,.97-1.09,.77-2.08,1.64-3.08,2.52-2.09,1.83-4.16,3.69-6.12,5.65-3.92,3.91-7.96,7.94-11.27,12.38l.12,4.81c.73-1.15,1.26-2.42,1.96-3.6,.84-1.42,1.68-2.84,2.59-4.22l4.57-6.89c.18-.27-.17-.96-.03-1.14l-4.59,5.98c-.71,.92-1.46,1.79-2.23,2.66s-1.7,1.54-2.38,2.39c-.38,.47-.16,1.84-.15,2.41s.03,1.14,.1,1.7c0,.07,.14,.72,.16,.7,1.93-2.08,3.68-4.34,5.57-6.47s3.85-4.25,5.85-6.31,3.93-4.09,5.96-6.08c1.09-1.07,2.18-2.13,3.23-3.24,1.25-1.33,2.08-2.63,2.93-4.24,0,0,0-.06,0-.06h0Z"/><path class="cls-6" d="M561.15,421.89c-1.64-.95-2.99-1.71-4.97-1.52-1.54,.14-3.34,.83-4.51,1.86-.13,.12-.1,1.65,.04,1.71,2.14,1,4.42,1.33,6.74,1.64,2.09,.28,4.18,.52,6.28,.72,4.26,.41,8.55,.57,12.83,.36,8.66-.42,17.28-1.56,25.78-3.21,.11-.02-.01-1.14-.03-1.14-8.57,1.11-17.2,1.43-25.84,1.07-4.28-.18-8.56-.32-12.83-.54-2.09-.11-4.18-.26-6.27-.45-2.24-.2-4.47-.53-6.71-.16l.04,1.71c.97-1.85,2.38-3.02,4.47-3.32,1.67-.24,3.81,.09,4.97,1.42-.02-.02,.03-.13,0-.15h0Z"/><path class="cls-6" d="M608.4,416.8c2.03,1.04,3.9,2.44,5.92,3.52s4.13,2.06,6.27,2.93c4.41,1.79,8.99,3.13,13.63,4.16,9.39,2.09,19.06,3.1,28.63,3.97,19.99,1.82,40.08,2.53,60.14,2.51,20.18-.02,40.34-1.05,60.47-2.48s40.09-3.3,60.09-5.42c9.98-1.06,19.98-2.11,29.9-3.7,7.68-1.23,15.59-2.85,21.85-7.78,1.56-1.23,2.95-2.65,4.19-4.21,.19-.24-.21-1.09-.03-1.26-5.49,5.13-13.24,6.38-20.43,7.16-9.37,1.03-18.79,1.55-28.17,2.6-20,2.25-40.01,4.44-60.06,6.25-20.12,1.82-40.26,3.09-60.44,3.95s-40.08,.99-60.11,.1c-9.73-.43-19.52-.87-29.2-2.05s-18.35-3.12-26.75-7.16c-1.98-.96-4.16-1.92-5.92-3.26,.02,.01-.03,.14,0,.15h0Z"/><path class="cls-6" d="M871.87,409.68c-1.38,.2-2.86,.05-4.25,.03l-4.25-.04-8.5-.09-17.01-.17c-5.66-.06-11.36,.08-17.01-.21s-11.35-.53-17.03-.89c-22.63-1.45-45.37-1.03-68.03-.84-12.83,.11-25.66,.38-38.49,.58-.43,0-.38,12.33,.3,12.35,18.68,.56,37.4,.45,56.09,.1,18.61-.35,37.21-1.06,55.8-2.14,10.49-.61,20.97-1.33,31.45-2.16,.42-.03,.18-5.73,.17-6.24-.04-1.47-.09-2.94-.2-4.41-.02-.29,0-1.7-.27-1.82-10.14-4.35-21.15-5.88-32.09-6.45-11.66-.61-23.38-.52-35.06-.46-23.97,.12-47.95,.99-71.87,2.59-3.38,.23-6.76,.47-10.14,.72s-6.81,.35-10.13,.98-6.61,1.19-9.85,1.99c-1.65,.4-3.3,.8-4.92,1.33-.9,.29-1.8,.58-2.7,.89-.39,.13-1.79,.96-1.93,.43l.2,3.92c-.02,1.15,.06,.21,.3-.23,.15-.27,.35-.54,.58-.75,.42-.39,.84-.78,1.32-.46-.03-.02,.06-1.25,.06-1.38,0-.23,.1-1.23-.12-1.38-.62-.42-1.34-1.02-2.1-.35s-.41,2.41-.39,3.21c.02,.71-.2,3.03,.51,3.59,.5,.39,1.88,.38,2.49,.46,.83,.11,1.65,.21,2.48,.32,3.27,.43,6.62,.41,9.91,.46s6.25,.1,9.41-.15c12.86-1.03,25.73-1.85,38.61-2.46,25.58-1.2,51.24-1.71,76.84-1.06,13.19,.33,26.64,1.44,38.9,6.7l-.31-12.47c-18.64,1.48-37.3,2.61-55.99,3.37-18.6,.76-37.21,1.15-55.83,1.18-10.51,.02-21.01-.12-31.52-.23l.3,12.35c22.65-.8,45.3-1.69,67.95-2.66,5.65-.24,11.34-.69,16.97-1.18s11.33-.71,16.97-1.36,11.3-1.25,16.96-1.83,11.3-.91,16.97-1.26l19.22-1.18,9.49-.58,4.74-.29c1.63-.1,3.37-.38,5-.23v-.15h0Z"/><path class="cls-6" d="M773.83,379.12c-19.68-.61-39.17,2.81-58.49,6.22-19.46,3.43-38.96,6.47-58.57,8.85s-39.12,3.97-58.76,5.05c-19.66,1.08-39.3,1.24-58.98,1.22-19.73-.02-39.51-.56-59.18-1.98-2.44-.18-4.87-.36-7.31-.56-.01,0-.06,.89,.02,.9,19.59,2.13,39.22,3.76,58.91,4.52,19.75,.77,39.55,.44,59.29-.45s39.27-2.59,58.8-4.93c19.56-2.34,38.99-5.51,58.32-9.31s38.82-7.68,58.63-9.06c2.44-.17,4.88-.29,7.32-.36,0,0,0-.12,0-.12h0Z"/><path class="cls-6" d="M413.18,408.96c1.9,1.13,4.06,1.6,6.21,2.06s4.18,.79,6.29,1.02c4.15,.45,8.32,.56,12.48,.48,8.53-.15,17.07-1.26,25.55-2.13,17.17-1.75,34.59-2.88,51.84-1.81,4.82,.3,9.69,1.11,14.52,.99,1.92-.05,3.85-.15,5.76,.02,.79,.07,1.59,.23,2.37,.3,.3,.03,.81-.2,1.04-.15,.27,.06,.69,.67,.86,.86-.09-.11,.03-1.07,.03-1.26,0-.35,.08-.94-.09-1.26-.98-1.83-1.98-3.55-3.69-4.8-1.41-1.02-3.14-1.7-4.8-2.23-4.19-1.33-8.46-1.83-12.84-2.15-8.66-.62-17.35-.65-26.02-.25-17.32,.79-34.49,3.71-51.38,7.53-4.67,1.06-9.31,2.16-14.07,2.7-2.31,.26-4.65,.39-6.97,.37s-4.74-.53-7.09-.36c0,0,0,.06,0,.06h0Z"/><path class="cls-6" d="M427.51,405.07c-.93,.87-2.05,1.56-3.08,2.31s-2.02,1.52-3.08,2.19c-.04,.03,0,.39,0,.39,7.51-.58,15.03-.91,22.53-1.6s15.05-1.35,22.58-1.94c14.92-1.17,29.89-1.99,44.85-2.49,30.03-.99,60.05-.18,90.08,.04,8.48,.06,16.96-.06,25.45-.08s16.94,.07,25.42,.19c.02,0,.05-1.37-.03-1.38-7.59-.52-15.18-1.01-22.77-1.63-7.59-.63-15.19-1.3-22.8-1.79-15.02-.96-30.05-1.35-45.09-1.49-29.96-.28-60.05,.33-89.88,3.26-8.44,.83-16.86,1.79-25.24,3.11s-16.8,3.29-25.11,5.42v.39c1-.85,2.06-1.62,3.08-2.42s1.98-1.68,3.08-2.31c.03-.02-.02-.14,0-.15h0Z"/><path class="cls-6" d="M569.51,406.98c-2.73,1.23-6.54,.78-9.32-.02-3.06-.89-5.81-2.58-7.97-4.92v.36c8.22-3.67,17.65-3.17,26.44-3,9.95,.2,19.9,.31,29.85,.34,19.69,.06,39.39-.38,59.07-1.09,19.78-.72,39.52-2.05,59.25-3.65s38.56-3.64,57.89-4.66c19.2-1.01,38.53-2.04,57.7,0,2.37,.25,4.74,.56,7.1,.91-.06,0,.09-1.41-.04-1.44-18.8-4.28-38.4-6.48-57.69-5.73s-38.52,2.87-57.75,4.73c-19.71,1.9-39.46,3.34-59.21,4.81-19.65,1.46-39.32,2.51-59.01,3.46-9.94,.48-19.87,.88-29.82,1.19-4.81,.15-9.62,.24-14.43,.33-4.41,.08-8.86,.29-13.17,1.3-2.14,.5-4.21,1.21-6.2,2.14-.03,.01-.02,.33,0,.36,2.18,2.29,4.92,3.92,7.97,4.74,1.48,.4,3.02,.61,4.55,.61,1.65,0,3.16-.44,4.77-.61,.02,0,0-.15,0-.15h0Z"/><path class="cls-6" d="M743.04,364.12c1.92-1.27,4.66-1.65,6.91-1.81s4.6-.02,6.88,.29c5.11,.69,10.14,2.06,15.16,3.22,10.62,2.45,21.19,5.06,31.73,7.83s20.75,5.65,31.07,8.64,20.08,5.74,30.39,7.36c5.74,.9,11.53,1.36,17.34,1.15s11.51-1.28,17.06-3.13c.05-.02-.04-.47-.01-.48-20.35,4.98-41.46,.19-61.18-5.24-20.7-5.7-41.41-11.21-62.36-15.92-5.72-1.29-11.46-2.69-17.27-3.54-2.64-.39-5.31-.61-7.98-.44-1.27,.08-2.53,.26-3.76,.55-1.39,.33-2.64,.97-4,1.36-.03,0,.01,.15,0,.15h0Z"/><path class="cls-6" d="M907.55,378.72c-.85-.9-1.83-1.43-3.08-.99-.02,0,0,.44,.01,.48,1.26,3.9-.84,7.27-3.51,9.98s-5.99,4.58-9.41,6.17c-7.13,3.3-14.99,5.33-22.84,5.81-4.43,.27-8.88,.03-13.26-.7,.02,0-.03,.41,.01,.42,8.72,1.8,17.79,1.64,26.44-.5,4.3-1.06,8.48-2.79,12.38-4.87,3.66-1.96,7.16-4.55,9.24-8.23,1.43-2.55,2-5.76,.94-8.55v.48c1.07-.55,2.42-.43,3.08,.66-.02-.03,.02-.12,0-.15h0Z"/><path class="cls-6" d="M913.76,382.84c-1.31-1.4-2.63-2.79-3.94-4.2,.06,.06,0,.58,0,.68,.32,5.63-.8,11.23-2.87,16.46-.94,2.37-2.05,4.7-3.33,6.91-.64,1.11-1.34,2.18-2.03,3.25-.82,1.26-1.83,2.44-2.56,3.75-.06,.1,.07,.76,.02,.78,1.11-.49,2.19-2.02,2.95-2.95,.93-1.16,1.75-2.43,2.51-3.7,1.58-2.66,2.76-5.54,3.64-8.5,1.59-5.33,2.07-11,1.69-16.54v.77c1.31,1.11,2.61,2.24,3.92,3.36,0,0,0-.05,0-.06h0Z"/><path class="cls-6" d="M903.56,397.13c-3.46-1.29-5.46-4.32-5.65-7.99v3.91c.21,.48,.54,1.62,.94,1.92,.15,.11,.5,.16,.68,.22,.53,.17,1.04,.27,1.59,.35,1.13,.17,2.26,.33,3.4,.47,2.19,.26,4.37,.55,6.55,.86,4.36,.62,8.71,1.32,13.05,2.13,8.65,1.62,17.27,3.45,25.8,5.64,16.97,4.36,33.58,10.09,49.63,17.13,4.48,1.96,8.91,4.03,13.4,5.95,1.09,.47,2.16,.95,3.25,1.41,1,.43,2.1,.41,3.1,.81,.8,.32,1.31,.98,1.96,1.5,.36,.29,.87,.38,.98,.89l-.12-3.47c0,.36-.63,1.35-.89,1.72-.13,.18,.14,2.34,.06,2.34,.45,0,.8-.06,.96-.51,.07-.2,.01-.55,0-.76,0-.84-.03-1.68-.05-2.52-.07-2.04-.32-4.17-1.67-5.81-2.94-3.56-7.45-5.75-11.51-7.75-8.45-4.16-17.13-7.8-25.95-11.09-17.4-6.49-35.5-11.76-53.82-14.92-5.21-.9-10.45-1.68-15.7-2.34-2.55-.32-5.11-.61-7.67-.87-1.35-.14-2.71-.28-4.07-.35-.6-.03-1.21-.11-1.81-.08-.2,0-.68,.04-.9,.12l-.45,.06c-.35,.55-.64,1.14-.86,1.76-.21,.49,.02,5.2,.13,5.19,.72-.05,.81,.34,1.23,.88,.39,.51,.78,1.01,1.26,1.45,.92,.85,1.99,1.44,3.18,1.82,0,0,0-.06,0-.06h0Z"/><path class="cls-6" d="M911.79,381.03c-1.55,.69-3.35,1-4.99,1.46,0,0,0,.21,0,.21,14.53,3.3,29.07,6.53,43.63,9.69,14.19,3.08,28.41,6.1,42.34,10.21,3.62,1.07,7.23,2.15,10.74,3.54,1.79,.71,3.57,1.49,5.33,2.29,.8,.37,1.58,.75,2.36,1.17,.59,.32,1.99,.68,2.04,1.51l-.02-.81c-.12,.37-.71,.72-.99,.27v.57l.04-.19c.02-.18-.04-.37-.01-.54-.04,.21-.1,.61,.02,.8,.19,.3,.72,.33,.92,.02,.1-.15,.03-.39,.03-.56,.02-1.38-.98-2.07-2.08-2.79-1.66-1.1-3.39-2.15-5.21-2.98-7.57-3.45-15.75-5.44-23.81-7.37-16.91-4.04-34.06-7.12-51.12-10.49-4.76-.94-9.52-1.81-14.29-2.7l-7.27-1.36c-.53-.1-1.49-.1-1.94-.36,.11,.07-.24,0-.27-.07,0,.01,.83-.27,.91-.29,1.18-.38,2.4-.9,3.63-1.08,.01,0-.01-.15,0-.15h0Z"/><path class="cls-6" d="M1004.6,408.06c3.05,.21,6.01,0,9.07-.16s6.22-.26,9.33-.37,6.06-.16,9.1-.29c1.47-.06,2.95-.08,4.42-.15s3.52,.09,4.9-.48c.03-.01,.02-.41-.01-.42-1.31-.64-3.23-.63-4.69-.76s-2.96-.18-4.43-.25c-3.13-.13-6.22-.06-9.35,.09-6.1,.3-12.54,.73-18.35,2.63-.01,0,0,.15,0,.15h0Z"/><path class="cls-6" d="M1034.19,406.2c-.76-.31-1.3-.47-2.11-.23-.68,.2-1.37,.4-2.03,.66-1.27,.49-2.48,1.23-3.65,1.92-2.43,1.46-4.7,3.33-6.65,5.39-1.02,1.08-1.97,2.16-2.45,3.6s-.39,3.3-.18,4.81c.23,1.7,3.05,1.81,3.65,.29,.12-.29-.16-.84-.03-1.08-.36,.65-1.09,.71-1.74,.48-1.05-.36-1.41-1.19-1.8-2.12-.13,1.97-.1,2.53,.08,1.69,.06-.2,.14-.39,.25-.58,.12-.21,.26-.41,.41-.61,.33-.43,.68-.85,1.05-1.25,.86-.94,1.79-1.83,2.72-2.71,1.83-1.74,3.82-3.34,5.86-4.84,1.05-.77,2.14-1.48,3.19-2.25,.54-.4,1.11-.76,1.65-1.16,.73-.54,1.24-1.24,1.79-1.96,0,0,0-.06,0-.06h0Z"/><path class="cls-6" d="M1070.9,425.78c.56-1.35-.41-3.12-1.9-3.23,0,0,0,.15,0,.15,1.34,.1,2.42,1.65,1.89,2.92-.02,.04,.02,.11,0,.15h0Z"/><path class="cls-6" d="M1055.67,431.91c.07-1.3,.34-2.58,.8-3.8,.19-.5,.41-.99,.7-1.45,.13-.21,.28-.42,.43-.62,.47-.63,.28-.61,1.1,.09l-.09-3.68c-.91,2.52-1.91,5-3.18,7.36s-2.95,4.67-4.56,6.93l.13,4.37c.32-1.98,.7-3.87,1.53-5.7,.65-1.45,1.59-2.79,2.63-3.99,.99-1.14,2.14-2.09,3.41-2.89s2.72-1.61,4.24-1.41l-.03-.33c-.01-.26-.05,.39-.06,.46-.04,.22-.09,.42-.15,.64-.13,.5-.28,.99-.49,1.47-.4,.93-.95,1.79-1.61,2.56s-1.45,1.53-2.34,2.12c-.95,.63-1.97,1.12-2.87,1.81l.07,2.22c.62-2.98,2.07-5.78,4.07-8.08,.87-1,1.83-1.97,2.89-2.76,.35-.26,1.19-.96,1.59-.85,.28,.08,.64,.5,.91,.67,.35,.22,.63,.35,1.03,.44l-.13-5.35c-.55,.16-.95,1.08-1.17,1.54-.38,.82-.77,1.63-1.15,2.45-.19,.4-.35,.82-.48,1.25-.09,.3-.47,2.33-1.02,1.61-.43-.57-.73-1.34-1.07-1.97,.06,.1-.02,.56-.02,.68,0,.27-.03,.59,.05,.85,.3,1.05,.6,2.11,.9,3.16,.41,1.43,.65,2.89,.92,4.36l.05,.13c.54-.12,.73-.98,.88-1.43,.25-.71,.5-1.42,.75-2.13,.61-1.73,1.15-3.45,1.51-5.25,.18-.92,.04-2.01,.01-2.94-.02-.51-.03-1.02-.07-1.53,0-.11-.14-.74-.1-.78-.74,.93-1.23,2-1.74,3.07-.31,.65-1.11,1.14-1.67,1.6-1.06,.88-2.07,1.8-2.97,2.84-.84,.98-1.63,2.03-2.31,3.12-.63,1.01-1.05,2.13-1.74,3.08-.12,.17-.03,2.24,.06,2.26,1.31,.3,2.58-.47,3.58-1.27,1.09-.87,1.95-1.94,2.61-3.16,1.29-2.39,1.56-5.13,1.29-7.8,0-.03,0-.06-.02-.09-1.32,.86-2.85,1.33-4.22,2.11-1.29,.74-2.49,1.68-3.57,2.71-1.01,.97-1.85,2.08-2.61,3.26-.34,.53-.59,1.12-.94,1.65-.29,.43-.46,.8-.59,1.31-.19,.73-.03,1.71,0,2.45,.01,.43,.03,.85,.06,1.28,0,.09,.11,.62,.08,.65,1.9-2.12,3.39-4.73,4.67-7.26,.64-1.26,1.22-2.55,1.74-3.86,.58-1.45,1.18-2.98,1.38-4.54,.07-.55,0-1.16,0-1.71-.01-.38-.18-1-.08-1.35-.18,.65-.3,1.31-.65,1.89-.21,.36-.41,.72-.59,1.09-.37,.75-.71,1.52-.99,2.31-.47,1.32-.73,2.69-.8,4.09,0,.01,0,.05,0,.05h0Z"/><path class="cls-6" d="M1057.85,419.56c-.14-.09-.22-.22-.24-.39-.03,.17-.02,.23,.04,.16,.08-.04,.14-.09,.24-.1,.49-.03,.61,.05,.95,.42,.74,.81,1.39,1.64,2.07,2.5,1.25,1.6,2.3,3.38,2.99,5.29l-.06-.15c.2,.59,.38,1.19,.52,1.8,.07,.29,.13,.57,.18,.86,.03,.15,.05,.29,.07,.44-.02-.13-.1,.42,0,0-.09-1.13-.11-2.26-.07-3.39,.02-3.26,0-4.3-.07-3.14-.08,.28,.03-.27,0,.04-.03,.25-.06,.49-.11,.74-.1,.56-.25,1.11-.41,1.66l.06-.19c-.19,.59-.41,1.16-.58,1.75l.05-.17c-.15,.49-.31,.97-.48,1.46-.08,.22-.13,.57-.27,.74-.17,.2-.25,.16-.54,.28-.36,.16-.72,.41-1.08,.55-.43,.17-.87-.07-1.33,.06-.11,.03-.05,2.05,.05,2.22,.26,.41,.57,.77,.88,1.14,.37,.44,.59,.94,.88,1.44s.58,1.05,.89,1.56c.06,.09,.27,.54,.38,.58,.07,.02,.22-.07,.29-.08,.75-.12,.99-.88,1.2-1.5,.35-1.03,.49-2.1,.55-3.18,.19-3.08,.07-6.22-.13-9.3-.13-1.98-.38-3.92-1.51-5.59-.75-1.11-2.32-2.76-3.73-1.79-.57,.39-.81,1.12-1.29,1.61-.27,.28-.56,.55-.64,.95-.08,.43-.02,.61,.26,.9-.02-.02,.03-.13,0-.15h0Z"/><path class="cls-6" d="M355.85,393.57c-4.57-2.83-8.77-6.24-12.47-10.14-1.8-1.9-3.49-3.92-5.04-6.04-1.91-2.61-3.97-5.39-4.68-8.59l-.16,2.56c.66,1.38,1.18,3.03,2.32,4.07,.88,.8,1.83,1.53,2.82,2.18,1.81,1.19,3.62,2.37,5.44,3.55,3.64,2.35,7.31,4.65,10.99,6.93,7.31,4.5,14.71,8.85,22.19,13.06s14.53,8.11,22.17,11.39c7.25,3.12,15.01,5.87,22.96,6.12,9.1,.28,17.97-2.27,25.69-7.08,.3-.19-.07-2.09-.05-2.1-7.37,2.27-15.03,1.97-22.59,.99s-15.71-3.03-23.08-5.89-14.96-6.82-22.17-10.76c-7.51-4.1-14.93-8.37-22.26-12.78-4.11-2.48-8.2-5-12.25-7.57-2.03-1.28-4.05-2.58-6.06-3.89-.99-.64-1.96-1.3-3.01-1.84-.42-.22-1.1-.68-1.59-.57-.43,.1-1.19,.91-1.54,1.18-.42,.33-.06,3.1,.08,3.06,1-.31,2.15,2.45,2.6,3.14,.73,1.12,1.49,2.21,2.29,3.28,1.6,2.14,3.34,4.17,5.2,6.09,3.64,3.74,7.74,6.99,12.2,9.7,0,0,.01-.05,0-.06h0Z"/><path class="cls-6" d="M327.47,379.77c.71-.87,1.3-1.61,1.42-2.76,.03-.33,.03-.66,0-.99-.02-.23-.06-.46-.11-.68-.27-1.27-.06,1.42,.07,2.03,.31,1.5,1.26,3,1.99,4.34s1.61,2.75,2.61,4c3.47,4.36,10.74,6.06,15.29,2.38,.18-.15-.09-.98-.03-1.02-3.83,2.44-8.56,.97-11.8-1.76-3.59-3.02-5.81-7.23-7.87-11.35-.14-.29-.27,.71-.28,.74-.06,.74-.06,1.53,.03,2.27,.11,.86-.55,2.21-1.32,2.66-.04,.02,.01,.15,0,.15h0Z"/><path class="cls-1" d="M717.71,285.13c1.8-2.06,1.21-4.64,.14-6.89l-.02-.03c-7.79,2.01-16.39,6.52-19.77,14.24-.17,.39-.07,1.07-.05,1.48,0,.14,.18,1.13,.15,1.16,3.16-3.27,6.63-6.22,10.38-8.78,1.87-1.28,3.81-2.46,5.81-3.54,1-.54,2.01-1.05,3.03-1.54,.48-.23,1.03-.59,1.55-.71,.26-.23,.52-.23,.79,0,.27,.2,.54,.4,.81,.6-.02-.02,.15-2.23,.14-2.46-.01-.48,.17-2.11-.26-2.45-.64-.49-1.3-.96-2.11-1-.68-.03-1.23-.25-1.89-.38-1.16-.22-2.71-.06-3.86,.19-2.57,.55-4.94,1.53-7.21,2.85-4.56,2.65-8.33,6.67-11.2,11.05l.46,.61,.2,7.58c-.04,.3-.04,.38-.01,.24,.12-.32,.19-.66,.32-.99,.26-.66,.59-1.29,.98-1.89,.84-1.3,1.95-2.42,3.1-3.45,2.32-2.08,4.96-3.88,7.61-5.48,2.8-1.7,5.89-3.08,9.21-3.14,1.38-.02,2.71,.21,4.03,.6,1.43,.43,2.4,1.23,3.62,2.02,.94,.61,2.11,.99,2.76-.18s.41-3.38,.41-4.69-.04-2.59-.14-3.88c-.05-.59,.03-2-.44-2.49,.19,.19-.51,0-.51,0-.13,0-.4,.27-.57,.3-.67,.15-1.31-.26-1.8-.67-1.21-1.01-2.16-2.09-3.64-2.75-6.14-2.72-12.77,1.85-17.53,5.27-2.65,1.9-5.23,4.08-6.92,6.9-.96,1.61-1.37,3.36-1.53,5.2-.35,3.95-.32,8.28,.53,12.16,.06,.3,.15,1.11,.46,.61,2.89-4.52,6.81-8,11.22-10.97,2.17-1.46,4.51-2.76,6.85-3.93,1.26-.63,2.65-1.3,3.82-2.07,.63-.42,1.13-.85,1.85-1.14,.81-.32,1.44-.96,2.05-1.6l-.12-4.91c-.46,.75-.78,1.46-1.53,1.91-.47,.28-1.05,.46-1.55,.69-1.02,.47-2.04,.97-3.03,1.5-2,1.05-3.94,2.21-5.81,3.46-3.75,2.51-7.22,5.41-10.38,8.63l.1,2.64c1.97-4.53,5.82-7.82,9.99-10.29,2.1-1.24,4.32-2.18,6.48-3.31,.56-.29,1.14-.56,1.69-.86,.4-.21,1.19-.91,1.62-.82,1.08,.23,.79,3.07,.76,3.21-.17,.77-.53,1.46-1.02,2.08-.01,.01,0,.05,0,.06h0Z"/><path class="cls-1" d="M713.07,280.76c.09-.04,.18-.04,.28-.03,.07,0,.14,0,.2,.02,.17,.29,.36,.34,.55,.13,.52,.12,1,.31,1.51,.46,1.24,.37,2.71,.23,4.01,.41,4.18,.56,8.39,.95,12.58,1.45,8.47,1.01,16.89,2.36,25.25,4.03,.27,.05,.26-5.31,.25-5.73-.04-1.35-.08-2.7-.21-4.04-.02-.25-.04-1.61-.32-1.67-3.85-.89-7.66-1.78-11.56-2.44s-7.74-1.24-11.62-1.77c-3.5-.47-7.14-1.13-10.68-1.09-2.46,.02-5,.63-5.94,3.15-.39,1.04-.35,12.28,.41,12.31,7.94,.28,15.8,1.88,23.63,3.24l-.24-9.58c-2.51,.83-5.41,.85-8.04,.73s-5.45-.29-8.14-.87c-5.36-1.16-10.5-3.46-14.83-6.82-.11-.08-.26,2.15-.25,1.81-.05,1.18-.04,2.36-.03,3.54,.03,2.19-.09,4.62,.46,6.75,1.8,6.99,11.03,6.82,16.72,7.5,4.83,.58,9.61,1.56,14.27,2.92,4.41,1.28,8.67,2.94,13.13,4.08,2.42,.62,5.14,.26,7.62,.19,2.65-.07,5.32-.79,7.73-1.85,.24-.11,0-2.99-.07-3-4.89-.3-9.37-2.39-13.36-5.11-2.07-1.41-4.48-2.49-6.73-3.6-2.12-1.04-4.35-1.8-6.59-2.51-4.48-1.42-9.08-2.49-13.73-3.19-3.79-.57-7.69-.63-11.43-1.53-3.2-.77-6.71-2.33-7.62-5.79l.19,12.11c4.37,3.26,9.42,5.39,14.81,6.17,2.58,.37,5.34,.57,7.93,.18,2.84-.42,5.45-1.38,8.2-2.14,.53-.15,.23-4.3,.21-4.8-.03-1.13-.07-2.26-.18-3.38-.02-.21-.04-1.35-.27-1.4-7.96-1.79-16.02-3.42-23.7-6.19l.41,12.31c.89-2.41,4.02-2.76,6.22-2.72,3.55,.06,7.14,.68,10.67,1.09,3.72,.43,7.43,.93,11.13,1.48s7.71,1.05,11.54,1.66l-.28-11.44c-8.69-1.12-17.43-1.9-26.19-2.3-4.11-.19-8.38-.54-12.48-.03-.8,.1-1.45,.33-2.18,.69s-1.19,.97-1.66,1.64c-1.05,1.49-1.51,3.1-1.61,4.93,0,0,0,.05,0,.05h0Z"/><path class="cls-1" d="M716.26,277.37c.87,1.01,1.66,1.85,2.86,2.47,1.06,.55,2.23,.96,3.35,1.37,2.12,.76,4.31,1.32,6.51,1.79,4.46,.95,8.98,1.52,13.5,2.03,9.87,1.11,19.75,1.96,29.65,2.78s19.76,1.45,29.64,2.12c4.9,.33,9.8,.65,14.7,.97s9.96,.31,14.93,.38c11.09,.16,22.24-.4,33.32-.92,.03,0,.05-1.54-.04-1.56-4.99-.76-9.99-1.44-14.98-2.16s-9.81-1.58-14.73-2.07-9.81-.99-14.71-1.45-9.97-.61-14.94-.88c-19.74-1.08-39.48-2.43-59.24-2.9-5.14-.12-10.3-.07-15.43-.31-2.48-.11-4.95-.34-7.4-.77-1.13-.2-2.25-.43-3.36-.72-.61-.16-1.21-.34-1.84-.43s-1.17,.08-1.78,.21c0,0,0,.06,0,.06h0Z"/><path class="cls-1" d="M728.04,278.37c-.83-.33-1.6-.83-2.37-1.27-.36-.2-.74-.39-1.08-.61-.86-.57-1.28-1.43-1.73-2.34l.05,3.21c.54,.91,.31,.78,1.01,1.02,.33,.11,.66,.25,.99,.36,.56,.18,1.15,.33,1.73,.44,1.3,.26,2.63,.42,3.94,.61,2.46,.37,4.93,.74,7.39,1.09,5,.73,10.01,1.38,15.03,1.94,10.02,1.12,20.06,2.16,30.11,2.99s19.93,1.55,29.9,2.16c5.03,.31,10.05,.5,15.09,.67s10.06-.03,15.08-.14c5.61-.12,11.2-.55,16.8-.93s11.37-.7,17.05-1.07c.04,0,.03-1.91-.05-1.92-10.12-.81-20.17-1.96-30.27-3.02s-20.13-1.78-30.21-2.22c-20.02-.88-40.02-2.21-59.99-3.85-5.58-.46-11.16-.94-16.74-1.34-2.79-.2-5.57-.41-8.36-.63-1.39-.11-2.78-.24-4.18-.33-.65-.04-1.31-.07-1.96-.04-.33,.02-.65,.06-.98,.09-.84,.08-.92,.01-1.45,.84-.23,.36-.08,1.23-.07,1.64,0,.22,.25,1.51,.15,1.63,.48-.53,.58-.91,1.26-.79,.37,.07,.95,.46,1.29,.63,.87,.42,1.78,.8,2.59,1.33-.02-.01,.02-.14,0-.15h0Z"/><path class="cls-1" d="M701.31,281.74c1.58-1.01,2.65-2.59,2.97-4.45,.02-.1,.07-.83-.03-.87-3.34-1.21-6.05,2.37-7.85,4.66-2.63,3.34-5.27,6.66-7.86,10.03-5.3,6.89-10.66,13.73-15.86,20.69-1.52,2.04-3.06,4.06-4.53,6.13-1.58,2.23-3.02,4.51-4.51,6.8-.13,.19,.13,.78,.02,.9,1.33-1.45,2.68-2.82,3.95-4.35,1.39-1.68,2.74-3.39,4.08-5.11,2.65-3.4,5.25-6.82,7.85-10.25,5.31-7.01,10.61-14.02,15.85-21.09,2.4-3.24,4.67-6.69,8.87-7.52l-.04-.82c-.17,2.16-1.15,3.95-2.93,5.19-.01,0,0,.06,0,.06h0Z"/><path class="cls-1" d="M702.77,281.89c.26-1.13,.51-2.27,.8-3.39,.05-.19-.12-.8-.03-.91-1.88,2.48-3.72,4.94-5.83,7.22s-4.4,4.37-6.75,6.41c-4.78,4.14-9.67,8.13-14.12,12.62-2.58,2.6-4.93,5.26-6.72,8.47-.26,.46-.18,1.82-.19,2.26-.02,1.04,0,2.08,.03,3.12,.03,.94,.08,1.88,.18,2.81,.02,.14,.27,1.47,.32,1.43,1.04-1,1.99-2.13,3.1-3.04,.87-.71,1.83-1.35,2.73-2.02,1.99-1.47,3.91-3.04,5.85-4.57,3.78-2.98,7.56-5.98,11.3-9.01s7.59-6.45,11.28-9.77l5.83-5.23c1.89-1.7,3.71-3.67,5.84-5.06l-.13-5.42c-4.64,4.52-8.93,9.37-13.85,13.63-2.44,2.11-4.97,4.11-7.65,5.9s-5.64,3.39-8.5,5.03l.18,7.44c2.27-3.21,4.86-6.06,7.76-8.7,.3-.27-.2-1.82-.05-1.92-2.47,1.5-5,2.83-7.89,3.18-.43,.05-.25,3.37-.24,3.73,0,.28,.34,3.75,.42,3.71,5.92-2.85,11.28-7.34,16.13-11.73s9.78-9.45,13.82-14.85c.4-.54,.14-2.08,.13-2.71s-.03-1.28-.1-1.91c0-.08-.14-.8-.16-.79-1.74,1.63-3.89,2.87-5.86,4.22l-5.86,4.05c-3.82,2.64-7.66,5.32-11.32,8.17s-7.55,5.94-11.3,8.94c-1.95,1.56-3.94,3.09-5.85,4.71-.91,.77-1.81,1.55-2.72,2.31s-2.11,1.27-3.13,1.91l.24,9.79c2.03-2.77,3.87-5.68,5.94-8.43s4.43-5.6,6.78-8.29c4.78-5.5,9.54-11.04,13.96-16.84,2.37-3.11,4.67-6.36,6.44-9.86l-.04-.89c-.24,1.41-.5,2.82-.76,4.23,0,.02,0,.05,0,.06h0Z"/><path class="cls-1" d="M700.28,293.52c.16,.53-.82-.13-.89-.17-.13-.16-.15-.08-.05,.26,.1-.09,.21-.16,.34-.19,.27,.02,.58-.09,.87-.06,.83,.08,1.67,.48,2.47,.69,.91,.23,1.83,.45,2.75,.65,3.77,.83,7.51,1.33,11.37,1.42,7.76,.18,15.48-.79,22.97-2.8,.1-.03-.04-.96-.02-.96-7.63,1.54-15.48,2-23.24,1.36-3.94-.32-7.93-.75-11.82-1.44-1.68-.3-6.29-1.91-5.95,1.26,.11,1.09,1.63,.67,1.2-.08,0,.01,0,.04,0,.06h0Z"/><path class="cls-1" d="M607.38,327.7c-.55,.11-1.2-.05-1.76-.09-.5-.03-1.01-.06-1.51-.07-1.14-.03-2.28-.01-3.41,.06-2.23,.14-4.44,.48-6.61,1,0,0,0,.06,0,.06,2.17-.53,4.38-.88,6.61-1.03,1.09-.07,2.19-.1,3.28-.07,.55,.01,1.09,.03,1.64,.07s1.23,.01,1.76,.23c0,0,0-.16,0-.15h0Z"/><path class="cls-1" d="M517.6,339.65c-.63-.26-1.26-.6-1.85-.92-.55-.3-.98-.34-1.61-.44-1.14-.18-2.28-.38-3.42-.51-2.4-.26-4.62-.01-6.98,.41-4.56,.82-9.09,2.22-13.46,3.73-8.84,3.06-17.5,6.65-26.03,10.48-2.41,1.08-4.81,2.17-7.21,3.27-1.2,.55-2.39,1.1-3.59,1.65-.56,.26-1.13,.52-1.69,.78-.17,.08-.68,.24-.84,.39-.43,.39-.68,1.33-.92,1.83l.35,9.66c1.2-1.74,3.73-2.54,5.59-3.41s3.63-1.63,5.38-2.58c3.71-2,7.41-3.96,10.97-6.23,7.09-4.52,14.75-8.12,21.93-12.49,.26-.16-.1-1.78-.04-1.8-7.43,2.47-14.54,5.91-22.04,8.19-3.69,1.12-7.22,2.59-10.79,4.03-1.83,.74-3.6,1.63-5.39,2.47-.97,.46-1.93,.95-2.92,1.38-.8,.36-2.13,.97-2.94,.59-.16-.07-.33,4.56-.32,4.93,.03,1.16,.08,2.32,.21,3.47,.05,.42,.04,1.12,.35,1.43,.07,.07,.69,.82,.87,.86,.1,.02,.83-.39,.84-.4,.49-.23,.98-.47,1.48-.7,1.06-.5,2.11-1,3.17-1.5,2.11-1,4.23-1.99,6.35-2.98,4.32-2.01,8.65-3.99,13.01-5.92s8.6-3.72,12.96-5.42,9-3.29,13.4-5.14c2.51-1.05,4.97-2.01,7.34-3.36,1.3-.74,2.54-1.57,3.8-2.36,.58-.36,1.25-.68,1.8-1.09,.81-.61,1.45-1.52,2.23-2.18,.01-.01,0-.15,0-.15h0Z"/><path class="cls-1" d="M472.59,320.11c-.08,.2-.16,.63-.3,.79-.29,.31-.86,.15-1.19,.52-.28,.32-.42,.74-.58,1.12-.45,1.06-.84,2.14-1.23,3.23l.49,9.51c1.04-3.5,1.96-7,2.82-10.56l-.75-11.21c-.41,2.04-.33,4.24-.28,6.31s.12,4.27,.6,6.3c.36,1.54,1.2,2.86,2.62,3.61,3.14,1.68,7.3-.4,9.79-2.4,.32-.26,.31-1.46,.33-1.69,.1-1.35,.09-2.73,.05-4.07-.01-.45-.16-5.81-.67-5.74-2.34,.29-4.68,.41-7,.77-.66,.1-.35,5.53-.34,6.11,.01,.47,.16,6.14,.64,6.09,3.64-.39,7.02-1.47,10.16-3.35,.31-.18,.3-1.67,.31-1.77,.09-1.41,.08-2.85,.04-4.26-.01-.44-.47-6.07-.64-6-5.08,2.04-10.39,3.59-15.57,5.41l.31,12.47c1.34-.82,2.33-2.13,2.72-3.66,.64-2.49,.37-5.32,.25-7.86-.06-1.23-.11-2.51-.35-3.72-.08-.43-.23-1-.67-1.22-1.43-.7-2.7,1.97-3.17,2.83-1.07,1.97-2.13,3.95-3.2,5.92-4.22,7.82-8.44,15.65-12.66,23.47-1.18,2.19-2.42,4.36-3.55,6.58-.61,1.21-.93,2.8-1.77,3.85-.02,.02-.17-.11-.23-.06-.04,0-.08,0-.12,0-1.28,.04-1.22,1.28,.18,3.72,.21-.68,.35-1.3,.67-1.95,.26-.53,.11-1.52,.09-2.08,0-.19-.26-1.6-.23-1.63-1.03,1.06-1.14,2.38-1.18,3.8-.07,2.89,.05,6.12,1.11,8.84l.16,.19c1.39-1.11,2.21-3.06,3.03-4.58l3.07-5.71c2.05-3.81,4.1-7.61,6.14-11.42s4.1-7.61,6.14-11.42c1.02-1.9,2.05-3.81,3.07-5.71,.44-.82,2.03-3.3,3.11-1.79l-.45-12.25c-.35,1.48-1.18,2.59-2.47,3.38-.33,.2-.32,1.71-.33,1.84-.1,1.46-.09,2.95-.05,4.41,.01,.45,.45,6.31,.69,6.22,5.18-1.93,10.3-4.16,15.56-5.86l-.3-12.03c-3.17,1.63-6.62,2.75-10.16,3.18l.3,12.2c2.35-.39,4.64-1,6.99-1.46l-.28-11.51c-1.95,1.76-4.36,3.42-7.11,2.93-1.1-.19-2.13-.65-2.99-1.36-.48-.39-.92-.87-1.27-1.39-.12-.19-.22-.39-.33-.58,.02-.18-.03-.28-.14-.31-2.9-.78-2.81,2.21,.27,8.96,.47-2.44,.23-5.22,.06-7.67-.06-.97-.12-1.98-.32-2.93-.02-.11-.33-1.3-.49-.61-1.03,4.45-1.94,8.9-2.8,13.39-.38,1.96-.18,4.19-.05,6.16,.05,.78,.09,1.59,.26,2.35,.02,.09,.26,1.04,.39,.49,.54-2.28,1.1-4.57,1.52-6.88,.49-2.66,.09-5.67,1.29-8.14,.02-.04-.02-.12,0-.15h0Z"/><path class="cls-1" d="M462.27,347.03c-10.11,13.82-22.5,26.05-36.55,35.84-.07,.05,.04,.34,0,.36,14.54-9.44,26.97-21.69,36.55-36.15,0-.01,0-.05,0-.06h0Z"/><path class="cls-1" d="M416.77,415.47c-.07,.3-.12,.79-.37,.99-.17,.14-.4,.05-.55,.17-.26,.21-.34,.71-.6,.95-.21,.2-.44,.28-.72,.39-1.27,.5-2.57,.92-3.86,1.39-3.57,1.29-6.95,2.99-10.38,4.63-8.17,3.9-16.1,8.29-24.4,11.94-4.52,1.99-9.27,3.52-14.26,3.35l.31,12.43c18.17-4.43,35.64-11.65,51.63-21.36,2.18-1.33,4.34-2.7,6.47-4.12,1.09-.73,2.18-1.47,3.26-2.22,1.36-.95,2.39-2.1,3.36-3.44,.28-.39,.27-1.12,.31-1.55,.09-1.23,.09-2.49,.05-3.72s-.08-2.48-.23-3.71c-.02-.14-.28-1.61-.38-1.53-.88,.67-1.04,.68-1.9,1.02-.51,.21-.26,4.52,.12,4.92,1.09,1.13,1.49,2.3,1.77,3.85v-9.79c-2.25,.25-3.93,1.8-5.75,3.03-1.94,1.31-3.9,2.59-5.88,3.82-3.97,2.47-8.04,4.79-12.19,6.95-8.3,4.32-16.93,8-25.79,11-4.98,1.69-10.04,3.15-15.15,4.41-.37,.09-.43,1.81-.43,1.83-.13,1.45-.13,2.95-.09,4.4,.02,.59-.01,6.17,.83,6.2,9.06,.3,17.42-4.79,25.2-8.81,4.22-2.18,8.48-4.33,12.59-6.71,3.7-2.14,7.8-4.25,10.73-7.43,1.65-1.8,2.99-3.69,4.03-5.9,.53-1.11,1.22-2.34,1.55-3.52s.54-2.56,.75-3.82c0-.02,0-.05,0-.05h0Z"/><path class="cls-1" d="M490.64,424.15c.73,.04,1.11-.22,1.6-.7,.56-.54,.59-.72,.6-1.54,.01-1.36,.13-3.44-1.07-4.39-1.11-.89-2.47-.25-3,.93-.32,.71-.34,1.54-.36,2.3-.03,1.31-.05,2.69,.22,3.98,.12,.56,.35,1.19,.86,1.52,.86,.55,2.6,0,3.58-.13,2.72-.34,5.41-.79,8.09-1.33s5.21-1.08,7.76-1.8,5.13-1.74,7.62-2.72c2.92-1.14,5.74-2.61,8.52-4.06s5.71-3.08,8.27-5.11c.15-.12-.04-1.32-.03-1.32-4,.86-7.81,2.46-11.73,3.61s-7.92,2.33-11.92,3.33-8.24,2.35-12.44,3.26c-2.1,.46-4.2,.91-6.31,1.3-.71,.13-1.33,.34-1.87-.25s-.39-1.81-.28,.88c.1,2.51-.05,1.46,.4,.66,.57-1.01,1.93-1.72,2.93-.82,.19,.17,.41,.45,.47,.7,.05,.17-.02,.08-.01,.02,.04-.3-.2,.24-.19,.24-.33,.33-.42,.78-.82,1.06-.29,.2-.59,.29-.93,.34,0,0,0,.06,0,.06h0Z"/><path class="cls-1" d="M498.19,438.2l-1.66,.53c-.27,.09-1.06,.2-1.25,.4-.13,.14-.27,.8-.36,1.01-.16,.4-.31,.79-.48,1.18-.14,.32-.19,1.81,.08,2.07,.51,.5,1.1,1.62,1.79,1.92,.42,.18,1.39,.28,1.83,.23,1.06-.12,2.35-.62,3.34-1.03,2.3-.95,4.54-2.05,6.87-2.96,4.73-1.85,9.49-3.44,14.41-4.7,10.32-2.64,20.94-3.6,31.37-5.67,1.5-.3,2.95-.99,4.38-1.55,1.5-.58,2.9-1.25,4.34-1.97s3.04-1.24,4.49-2.05,2.94-1.66,4.42-2.45c.2-.11,0-1.98-.05-1.98-2.62,.07-5.22-.28-7.84-.23-1.28,.03-2.52-.29-3.79-.35-1.4-.06-2.81-.11-4.21-.2-2.6-.17-5.26,.36-7.84,.63s-5.23,.59-7.84,.95c-5.29,.71-10.58,1.5-15.8,2.64-4.91,1.08-10.04,2.45-14.55,4.71-2.7,1.35-5.21,2.97-7.6,4.79-1.42,1.08-2.51,2.42-3.76,3.68-.62,.63-1.24,1.41-1.94,1.95-.25,.19-.5,.27-.72,.51-.54,.58-.5,1.02-1.35,1.02l.1,1.97c.2-1.14,.29-3.39,1.35-4.05,.66-.41,1.56-.64,2.28-.94,0,0,0-.06,0-.06h0Z"/><path class="cls-1" d="M740.1,363.6c1.46,.37,2.86,1.1,4.29,1.58s2.9,.89,4.37,1.29c2.94,.79,5.91,1.36,8.91,1.89,6.02,1.07,12.14,1.69,18.25,1.94s11.85,0,17.77,.44,11.93,1.22,17.83,2.12,11.87,2.04,17.73,3.42c5.74,1.36,11.46,2.8,17.23,4.03s11.74,2.29,17.62,3.38,11.71,2.08,17.61,2.27c6.46,.2,12.97-.18,19.37-1.11,1.39-.2,2.87-.25,3.98-1.21s1.76-2.47,2.05-3.85,.16-2.86,.11-4.27c-.04-.91,.09-1.62-1.03-1.3-.06,.02-.08,2.53,.06,2.64,1.23,.93,.91,2.42,.87-1.33l.02-1.06c-.05,.3-.84,.4-1.1,.5-.84,.29-1.65,.55-2.54,.65-2.8,.33-5.56,.8-8.37,1.01-5.58,.42-11.16-.07-16.74-.33s-11.03-.89-16.5-1.69-11.04-2.17-16.53-3.38-11.17-2.38-16.78-3.47-11.06-2.24-16.62-3.16-11.07-1.53-16.7-1.68-11.51,.13-17.24,.53c-6.39,.45-12.69,1.7-19.09,2.11-3.18,.2-6.38,.14-9.56-.15-1.54-.14-3.06-.38-4.58-.68s-3.29-.57-4.72-1.25c.01,0-.02,.15,0,.15h0Z"/><path class="cls-1" d="M754.3,365.83c5.31,.68,10.51,1.95,15.76,2.94s10.1,2.1,15.13,3.24c10.32,2.34,20.52,5.14,30.76,7.78s19.9,4.99,30,6.79c4.9,.88,9.92,1.37,14.88,1.75s9.91,.72,14.89,.71c5.53,0,11.05-.63,16.5-1.62,2.67-.48,5.4-.97,7.98-1.82,.69-.23,1.57-.42,2.19-.82,.76-.49,1.18-1.4,1.93-1.92,1.45-1,2.75-2.03,4.07-3.21,.11-.1-.03-1.86-.05-1.86-1.16-.2-2.33-.54-3.51-.54-.73,0-1.1,0-1.77-.37-.74-.4-1.18-.36-1.99-.23-2.45,.38-4.86,.99-7.3,1.41-4.78,.82-9.58,1.23-14.42,1.5s-10.03,.49-15.07,.37-9.95-.63-14.89-1.24c-10.01-1.24-19.94-2.76-29.85-4.66s-20.28-4.02-30.47-5.75c-5.71-.97-11.43-1.77-17.2-2.29s-11.71-.37-17.58-.22c0,0,0,.06,0,.06h0Z"/><path class="cls-1" d="M905.1,377.88c-.55,1.68-2.09,3.19-3.48,4.21-1.56,1.15-3.47,1.96-5.35,2.45-3.81,.99-8.08,.71-11.26-1.8,.09,.07-.09,.5,.01,.6,3.01,2.79,7.31,3.83,11.28,2.85,1.97-.49,3.72-1.43,5.25-2.77,.8-.7,1.51-1.5,2.1-2.39,.63-.96,.98-1.97,1.45-3,.02-.04-.02-.11,0-.15h0Z"/><path class="cls-1" d="M904.33,380.72c.64-1.17,1.22-2.37,1.71-3.61,.31-.77,.77-3.46,1.71-3.62l-.3-3.11c.02,1.92,.04,3.85,.39,5.75,.21,1.14,.47,2.26,.67,3.4,.16,.9,.29,1.8,.4,2.71,.08,.68,.02,.11,.07,.74,.04,.54,.05,.58,.02,.12,.02,.29,.03,.58,.04,.87-.02-.6-.03-.61,0-.02,0-.54,0-.62,0-.25,0,.33,0,.29,0-.12,0,.29-.01,.58-.02,.87-.02,.49-.02,.58-.01,.27-.02,.29-.04,.59-.06,.88-.03,.45-.07,.9-.11,1.35-.09,1.13-.08,2.3-.37,3.39-.22,.83-.54,2.16-1.47,2.45-.38,.12-.16,3.2,.04,3.53-.51-.84-.31-2.05-.18-.92,.03,.25,.05,.5,.13,.74,.12,.34,.24,.52,.56,.69,.51,.27,1.21,.78,1.59,.15,.54-.88,.52-2.66,.61-3.64,.16-1.76,.23-3.53,.26-5.3,.06-4-.08-8-.5-11.98-.3-2.86-.63-5.92-1.58-8.65-.14-.39-.24,.12-.28,.24-.19,.52-.14,1.38-.17,1.89-.19,4-1.34,7.56-3.14,11.11,0,.01,0,.05,0,.06h0Z"/><path class="cls-1" d="M918.01,380.78c-.17-1.7-.33-3.33-.31-5.05l-.66-.94c.06,2.05,.09,4.16,.63,6.16,.25,.94,.56,1.86,.8,2.8s.44,1.87,.61,2.82c.07,.38,.14,.77,.19,1.14,.02,.16,.2,1.45,.08,.63,.2,1.5-.04-1.11,.03,.39-.03-.67-.05-1.34-.03-2.01-.02,.57-.02,.6,0,.1-.01,.22-.03,.45-.04,.67-.02,.27-.05,.61-.1,1.05-.23,1.88-.61,3.72-1.12,5.54-.24,.88-.23,1.95-.26,2.85-.05,1.58-.02,3.18,.06,4.76,.07,1.22,.11,2.48,.34,3.68,.05,.24,.15,1.16,.44,.61,1.01-1.88,2.18-3.58,3.4-5.33,.74-1.06,1.39-2.08,1.9-3.26,.16-.38,.05-1.06,.04-1.45,0-.14-.18-1.09-.13-1.14-.64,.66-1.43,1.24-2.37,1.29-1.54,.08-2.43-1.1-3.28-2.24l.44,12.13c1.73-6.27,1.95-12.79,1.72-19.26-.12-3.37-.38-6.76-.99-10.07-.22-1.2-.5-2.39-.82-3.56-.23-.86-.48-2.5-1.19-3.1-.13-.11-.31,1.84-.29,1.53-.09,1.22-.08,2.47-.05,3.69,.01,.42,.08,5.23,.59,5.2l.36,.41s0-.03,0-.04h0Z"/><path class="cls-1" d="M927.89,385.47c-.2-4.02-.25-4.76-.15-2.23l.07,1.21c.05,.82,.15,1.62,.24,2.44,.03,.3,.06,.6,.09,.89-.07-.74,.03,.37,.03,.53-.02-.74-.08-1.48-.08-2.22,0-.12,.05-1.5,0-.95,0,.19-.02,.37-.03,.56,.02-.27,.01-.28,0-.02-.04,.38-.07,.76-.12,1.14-.35,2.9-1.17,5.74-2.26,8.44-.29,.72-.19,2.17-.2,2.87-.02,1.33,0,2.65,.04,3.97,.02,.46,.35,5.46,.58,5.39,.97-.29,1.14-1.19,1.51-2.04,.51-1.15,1.17-2.24,1.71-3.38,.74-1.56,1.39-3.22,1.72-4.92,.09-.44,.04-.92,.02-1.37,0-.15-.09-.82-.12-.77-.21,.43-.51,.81-.88,1.12-.32,.27-.69,.28-1.11,.27-.49-.01-1-.21-1.4-.5-.72-.53-.77-1.2-1.76-.88l.42,12.24c1.54-3.89,2.34-7.96,2.64-12.13,.25-3.46,.22-6.95,.06-10.41-.07-1.52-.16-3.05-.33-4.57-.1-.87-.09-2.37-.53-3.16-.19-.34-.19,.04-.24,.26-.15,.64-.12,1.44-.13,2.07-.04,2.04,.03,4.09,.21,6.12h0Z"/><path class="cls-1" d="M933.2,388.32c-.38-6.01-.54-7.88-.5-5.61,.02,.73,.05,1.47,.1,2.2,.07,1.03,.11,2.13,.34,3.14s.69,1.89,1.03,2.83c.5,1.4,.98,2.81,1.25,4.28,.02,.12,.19,1.22,.14,.85-.03-.26-.02-.19,.02,.19-.08-.89-.12-1.78-.14-2.68-.03-.9-.03-1.8,.01-2.71-.02,.43-.02,.44,0,.02-.03,.33-.06,.65-.1,.98-.21,1.56-.7,3.03-1.15,4.54-.25,.82-.18,2.03-.2,2.84-.02,1.31,0,2.63,.04,3.94,.04,1.18,.08,2.37,.21,3.54,.03,.24,.4,1.74,.36,1.8,1.24-1.94,1.44-4.51,1.96-6.71,.38-1.63,.57-3.27,.59-4.94,0-.54,.02-1.1-.05-1.63-.02-.13-.07-.62-.12-.21-.04,.36-.2,1.19-.54,1.41s-.71-.13-1.09-.27c-.23,.1-.43,.03-.61-.2-.16,.03-.31,.1-.44,.2l.42,12.13c.81-1.83,1.13-3.95,1.36-5.92,.45-3.92,.34-7.93,.12-11.86-.15-2.72-.39-5.44-1.06-8.08-.41-1.63-.95-3.64-2.11-4.9-.07-.08-.26,1.93-.24,1.62-.05,1.06-.05,2.12-.03,3.17,.02,1.17,.05,2.35,.13,3.52,.06,.81,.02,1.77,.3,2.53h0Z"/><path class="cls-1" d="M906.59,376.8c-.46-.2-.93-.31-1.43-.27-.16,.01-.42,.13-.56,.11-.15-.34-.37-.49-.66-.45-.11,0-.23,.01-.34,.03-.15,.02-.14,2.31,.06,2.47,1.62,1.25,3.3,2.17,5.26,2.79,1.66,.52,3.33,1.14,5.03,1.52s3.33,.78,5.02,1.06c.82,.13,1.58,.12,2.4,0,.48-.07,.79-.13,1.19-.4,.59-.4,.88-1,1.57-1.23,.18-.06,.13-2.39-.06-2.52-1.06-.72-1.47-1.95-2.66-2.56-.86-.44-1.68-.77-2.62-.96-1.66-.33-3.34-.53-5.01-.76s-3.34-.24-5-.3c-1.85-.07-3.47,.18-5.17,.9l.09,2.42c.39-.69,.67-1.65,1.48-1.84,.48-.11,.95-.08,1.43,.05,0,0,0-.06,0-.06h0Z"/><path class="cls-1" d="M906.58,387.03c.72,.41,1.42,.71,2.11,1.18,.55,.38,1.22,.53,1.8,.86,.66,.37,1.26,.79,1.95,1.13,.64,.32,1.27,.65,1.94,.9,1.28,.48,2.56,.92,3.85,1.36,1.15,.39,2.59,1.07,3.82,.91l-.2-8.15c-.19,.28-.39,.56-.56,.85-.35,.6-.48,1.32-.92,1.86s-1.12,1.1-1.77,1.43c-1.2,.61-2.43,.87-3.75,.56,.07,.02-.2,1.73,.05,1.86,1.12,.57,2.42,1.01,3.68,1.09,.57,.04,1.14,.08,1.72,.1,.51,.02,.55,.31,.99,.51,.3,.14,.49,.03,.78-.11,.19-.09,.18-1.2,.18-1.2,.05-.96,.04-1.93,.02-2.89s-.05-1.93-.16-2.88c-.03-.25,0-1.04-.24-1.19-1.1-.67-2.56-.73-3.82-.87s-2.54-.23-3.82-.24c-.6,0-1.17,.07-1.77,.15-.74,.1-1.35,.28-2.06,.47-.58,.15-1.21,.05-1.77,.26-.69,.27-1.35,.33-2.06,.54-.1,.03-.08,1.43,.04,1.5h0Z"/><path class="cls-1" d="M905.6,395.2c.15,1.28,.05,2.71,1.27,3.45,.6,.37,1.35,.63,2,.91,1.14,.5,2.35,.91,3.56,1.22s2.39,.65,3.58,.99c.54,.15,1.06,.34,1.61,.44,.35,.06,.52,.07,.84-.08s.63-.28,.93-.48c.53-.34,.65-.63,1-1.23s.46-.62,.49-1.13c.04-.63,.07-1.36-.07-1.98-.11-.51-.45-1.03-.6-1.55-.17-.58-.36-1.14-.66-1.67-.45-.8-1.04-1.81-1.71-2.43-.84-.79-2.39-1.24-3.49-1.46s-2.3-.37-3.48-.28c-1.37,.11-2.89,.66-4.04,1.44s-1.37,2.55-1.22,3.82h0Z"/><path class="cls-1" d="M930.1,385.9c-.24-.21-.52-.37-.79-.54-.43-.26-.65-.73-.73-1.22v1.67c.08-.04,.23,.06,.28,.09,.31,.15,.59,.48,.89,.69,.64,.43,1.28,.84,1.96,1.2,1.32,.69,2.63,1.4,3.97,2.06,1.24,.61,2.54,1.42,3.94,1.5,.62,.03,1.31,.18,1.91,0s1.2-.33,1.86-.42c.09-.01,.07-1.67-.04-1.8-1.6-1.73-3.08-3.77-5.35-4.65-1.69-.66-3.62-.88-5.42-1.01-.91-.07-1.77-.12-2.67,0-.49,.06-1.25,.13-1.39,.69-.05,.19-.11,1.59,.07,1.67,.17,.08,.31-.41,.47-.44,.07-.02,.3,.15,.38,.19,.23,.12,.46,.24,.66,.39,0,0,0-.05,0-.06h0Z"/><path class="cls-1" d="M1014.7,409.86c-1.13-.38-2.21-1.02-3.28-1.55-.47-.23-.95-.45-1.41-.7-.83-.45-1.31-1.29-1.9-2l.1,3.93c1.32,.31,2.71,.14,4.06,.15s2.72-.05,4.07-.06c2.72-.01,5.45,.12,8.17,.24s5.27,.43,7.91,.67c1.34,.12,2.7,.31,4.04,.3,1.49,0,3.1,.16,4.21-.96l-.08-3.09c-.35,.66-.68,1.33-1.06,1.97-.13,.23,.14,1.5,.04,1.56,.35-.2,.72-.31,1.1-.44,.26-.09,.11-2.84-.08-3.09-1.77-2.36-5.37-2.79-8.11-3.15s-5.44-.38-8.14-.39-5.28,.22-7.91,.53-5.92,.53-8.33,1.83c-.26,.14-.09,1.7-.09,1.97,0,.16,.19,1.96,.18,1.96,.69-.34,1.06-.69,1.84-.65,.45,.02,.96,.21,1.4,.31,1.09,.24,2.23,.41,3.26,.81,0,0,.02-.14,0-.15h0Z"/><path class="cls-1" d="M1011.64,407.78c.58,.48,.77,.82,1.53,.88,.51,.04,1.01,.08,1.52,.08,.87-.01,1.75-.05,2.62-.11,1.83-.12,3.65-.32,5.48-.4,3.76-.15,7.49-.18,11.25,.18s7.24,1.05,10.87,1.52,7.29,1.27,10.82,2.36c-.1-.03,.19-1.49-.04-1.62-3.43-1.91-6.99-3.56-10.67-4.92s-7.31-1.87-11.1-2.16-7.38-.34-11.02,.03c-1.89,.19-3.85,.43-5.69,.9-.87,.22-1.75,.5-2.6,.81-.45,.17-.87,.37-1.29,.59-.84,.44-1.12,.93-1.69,1.7-.01,.02-.01,.14,0,.15h0Z"/><path class="cls-1" d="M1054.69,412.41c-1.1-.88-2.37-2.08-3.09-3.28l.02,.98c1.37,2.24,3.83,3.87,5.74,5.65s3.82,3.68,5.65,5.6,3.52,3.81,5.22,5.76,3.67,4.05,5.09,6.31l-.19-7.91c-3.13-3.97-6.69-7.73-10.35-11.22-1.7-1.62-3.41-3.23-5.15-4.81s-3.29-3.34-5.15-4.57l.3,12.17c1.19,.12,2.33,.85,3.4,1.37,1.22,.59,2.39,1.24,3.56,1.92,2.29,1.33,4.58,2.7,6.78,4.17s4.29,2.95,6.39,4.49c1.11,.82,2.21,1.65,3.3,2.49,.89,.69,1.96,1.4,2.28,2.54l-.22-2.21,.02,.28v-6.94c-.13,.92-.35,1.98-1.12,2.54-.12,.09-.68,.57-.84,.44l.1,3.39c.01-.23,.06-.44,.15-.65,.07-.24,.1-2.67-.08-2.71-.05-.02-.11-.03-.17-.03-.09,0-.04,1.71-.04,1.73,.03,1.32,0,2.62,1.02,3.61,.28,.27,.47,.47,.72,.78,.29,.36,.29,.45,.54,.21,.23-.22,.15-1.22,.16-1.42,.03-.79,.03-1.6,.02-2.39-.02-1.94,.11-4.21-.38-6.12-.19-.73-.6-1.31-1.13-1.83-1.38-1.35-3.04-2.48-4.58-3.65-3.21-2.46-6.52-4.79-9.86-7.08-1.68-1.15-3.4-2.25-5.1-3.37s-3.76-2.26-5.22-3.74c-.08-.08-.26,2.12-.25,1.79-.07,1.43-.05,2.88-.02,4.31s.09,2.87,.23,4.3c.05,.49,0,1.39,.34,1.78,1.51,1.71,3.44,3.15,5.15,4.66s3.41,2.97,5.14,4.42,3.36,2.65,5.13,3.89c1.67,1.17,3.3,2.41,5.12,3.35-.04-.02,.14-3.63,.13-3.96-.03-.93-.06-1.87-.13-2.8-.02-.23,.02-1.02-.19-1.15-1.79-1.21-3.29-3.05-4.9-4.5-1.73-1.55-3.51-3.02-5.34-4.45s-3.6-2.76-5.44-4.07c-.93-.66-1.87-1.32-2.81-1.95-.85-.57-1.95-1.63-3.04-1.42-.06,.01-.04,.97,.02,.98,.6,.11,1.08,.69,1.53,1.08,.53,.45,1.07,.88,1.54,1.38-.02-.02,.03-.13,0-.15h0Z"/><path class="cls-1" d="M557.43,436.23l5.05-2.18s-.01-.15,0-.15l-5.05,2.18s.01,.15,0,.15h0Z"/><path class="cls-1" d="M569.71,434.08c.59-.39,1.16-.77,1.78-1.09,.14-.07,.05-1.17-.03-1.3-2.17-3.25-6-4.29-9.75-3.9-4.27,.45-8.52,1.64-12.67,2.7-4.74,1.21-9.42,2.52-14.1,3.91-2.42,.72-4.79,1.52-7.16,2.37s-5.25,1.41-7.15,2.99c-.11,.09-.07,1.41,.04,1.44,1.18,.35,2.65,0,3.85-.2l3.36-.56c2.41-.4,4.8-.84,7.19-1.37,4.73-1.06,9.43-2.19,14.11-3.44,4.2-1.12,8.36-2.7,12.65-3.46,3.3-.59,6.66-.97,9.68,.82l-.03-1.3c-.56,.8-1.15,1.56-1.75,2.32,0,0,0,.06,0,.06h0Z"/><path class="cls-1" d="M309.12,345.63c2.04,4.24,1.46,7.46,1.21,4.64-.04-.41-.1-.82-.17-1.22-.22-1.2-.6-2.61-1.16-3.68-.71-1.34-2.16-.41-2.88,.41-1.81,2.04-2.91,4.9-3.56,7.5-1.12,4.5-1.14,9.28-.88,13.89,.13,2.3,.36,4.6,.8,6.86,.13,.64,.47,3.21,1.45,3.24l.14-.18c.4-1.46,.99-2.92,1.58-4.31,.46-1.07,1.13-1.99,1.65-3.02,.11-.21,.05-2.27-.09-2.24-.57,.12-1.02,.62-1.6,.63-.39,0-.39-.18-.74-.29-.56-.17-.54-.01-1.19-.45l.3,.67c-.27-1.39-.59-2.77-.91-4.14-.06-.28-.12-.57-.18-.85-.13-.61,.08,.84-.03-.24,.03,.32,.08,.82,.03,.21,.06,.73,.1,1.47,.11,2.2,0,.32,.16,1.56-.05,1.8,.08-.1,.05-.57,.06-.7-.06,.53,0-.02,.05-.26s.08-.47,.12-.7c.2-1.01,.5-2,.85-2.97,.73-2,1.76-3.95,3.03-5.67,.68-.92,2.01-1.26,2.33-2.39,.38-1.33,.25-2.9,.22-4.26s.11-3.23-.5-4.48h0Z"/><path class="cls-1" d="M304.12,376.51c1.3,.69,2.78,.84,4.22,1.07s2.8,.43,4.21,.54c2.81,.21,5.61,.38,8.43,.3,5.6-.16,11.3-1.21,16.81-2.16,.11-.02,.05-1.08-.03-1.08-5.65-.14-11.25-.79-16.88-1.03-2.73-.12-5.45-.11-8.18-.17-1.4-.03-2.8,0-4.2,.03s-3.03-.1-4.43,.4c-.22,.08-.16,1.99,.05,2.1h0Z"/><path class="cls-1" d="M332.74,386.63c1.69-.69,2.27-1.5,1.72-2.45-.11-.22-.22-.45-.32-.67-.62-1.33-.66-1.95-.78-3.8-.06-1.04-.1-2.12-.34-3.13-.15-.65-.29-.9-.52-.25-.3,.84-.22,1.9-.24,2.78-.03,1.56,.03,3.12,.14,4.68,.55,7.69,5.91,14.83,12.18,19.04,3.18,2.13,6.71,3.4,10.37,4.43,1.79,.5,4,1.51,5.79,.68,.95-.44,1.86-.93,2.77-1.28,1.03-.4,1.94-.47,3.04-.38,.11,0,.13-2.08-.06-2.28-.94-.98-1.81-2-2.73-2.98s-1.96-2.09-2.86-3.17c-.78-.94-1.57-1.64-2.71-2.1-.87-.35-1.81-.54-2.71-.79-3.55-.98-7.08-2.05-10.26-3.96-2.88-1.72-5.48-3.98-7.56-6.61s-3.43-5.55-4.68-8.66c-.28-.7-.5,.67-.49,.61-.17,.94-.18,1.91-.2,2.86-.05,2.38-.18,5.12,.45,7.44h0Z"/><path class="cls-1" d="M352.78,404.64c1.89,2.8,4.38,4.92,7.07,6.92,1.27,.94,2.53,1.88,3.85,2.76s2.56,1.69,3.72,2.68c2.04,1.72,3.79,3.98,4.75,6.48,.17,.44,.33,1.05,.44,1.42-.78-2.77,.14-5.49-.18-3.58-.08,.49-.16,.98-.27,1.46-.19,.79-.34,1.82-1,2.38-.17,.14-.87,.38-.83,.56l.03,2.48c.03-.14,.1-.26,.19-.37,.13-.19,.13-2.26-.09-2.3-.07-.03-.14-.03-.21,0-.18,.05-.1,1.29-.1,1.36,.01,1,.24,2.56,1.65,2.55,1.28-.01,1.36-2.16,1.43-3,.37-4.67,.17-9.95-2.54-13.95-1.98-2.91-4.99-4.93-8.18-6.32-1.58-.69-3.32-1.17-4.96-1.72s-3.21-1.25-4.8-1.88c0,0-.14,1.83,.02,2.06h0Z"/><path class="cls-3" d="M1042.29,418.58c.28-.41,.33-.85,.28-1.33-.12-1.26-.35-2.59-.93-3.73-.17-.34-.23-.34-.52-.49-.06-.03-.26-.19-.29-.19-.05,0-.16,.11-.21,.13-.34,.12-.73,.45-1.01,.67-.65,.53-1.14,1.16-1.47,1.93-.73,1.69-.71,3.72-.72,5.51-.02,2.64,0,5.5,.72,8.07,.48,1.7,1.49,3.55,3.44,3.78s4.05-1.3,4.95-2.94c.28-.51,.44-1.1,.55-1.67,.37-1.93,.35-4.03,.29-5.99s-.14-3.87-.54-5.76c-.11-.52-.26-1.06-.52-1.52-.75-1.29-2.29-2.07-3.76-1.9-1.9,.21-2.92,1.97-3.3,3.67-.18,.8-.24,1.62-.3,2.43-.14,2.02-.12,4.07,0,6.09s.18,4.24,1.1,6.03c.8,1.58,2.45,2.63,4.17,2.92s3.42-.14,4.79-1.18c1.53-1.16,2.42-2.78,2.85-4.62,.15-.65,.22-1.33,.28-1.99,.18-2.22,.18-4.47,.04-6.7-.12-1.97-.21-4.14-.99-6-.56-1.31-1.76-2.36-3.08-2.87s-2.81-.57-4.09,0c-1.73,.76-2.41,2.4-2.63,4.18-.2,1.55-.23,3.11-.21,4.67,.02,1.95,.09,3.91,.37,5.84,.16,1.12,.39,2.29,.93,3.29,.65,1.21,1.82,2.36,3.23,2.59,2.06,.33,3.15-2.25,3.55-3.88,.2-.79,.3-1.54,.4-2.28,.11-.89,.14-1.51,.18-2.19,.02-.35,.03-.7,.03-1.05,0-.32,0-.65-.02-.97-.04-1.08,.03,.75-.01-.28-.03-.68-.06-1.38-.24-2.04-.13-.48-.41-.84-.85-1.08-.07-.04-.12,1.02-.12,1.04,0,.39-.05,.95,.14,1.31s.34,.71,.45,1.09c.05,.17,.08,.35,.13,.52,.17,.66-.03-1.78-.05-1l.09-1.4c-.02,.08-.03,.16-.05,.24l.15-.36c-.48-.12-.57-.22-.98-.15-.22,.04-.44,.04-.66,.03-.56-.03-1.1-.04-1.67-.04-1.2,0-2.2-.46-3.02-1.32l.2,.22c-.27-.3-.51-.61-.71-.96-.1-.17-.19-.35-.27-.53-.04-.09-.08-.18-.11-.28-.09-.25-.07-.19,.05,.2-.03-.1-.05-.19-.07-.29,.53,2.8,.64,5.65,.32,8.53-.11,.74-.13,.93-.06,.56-.11,.4-.12,.47-.04,.22,.17-.37,.33-.7,.58-1.02l-.19,.23c1.96-2.28,5.68-1.76,7.6,.28l-.2-.22c.31,.35,.57,.72,.77,1.14,.02,.04,.14,.34,.14,.34-.04,0-.12-.54-.04-.13l.04,.17c-.3-1.47-.37-2.96-.21-4.48-.23-1.4-.25-2.78-.05-4.16,.05-.38,.06-.43,.02-.15-.11,.32,.07,0,.05-.13,.02,.09-.09,.32-.13,.41-.08,.25-.18,.49-.3,.72-.26,.53-.58,1.01-.95,1.46l.19-.23c-1.13,1.3-2.66,2.2-4.4,2.32s-3.56-.5-4.78-1.8l.2,.22c-.27-.31-.51-.64-.69-1.01-.02-.04-.22-.43-.19-.47,.1,.35,.12,.4,.05,.14,.29,1.46,.36,2.93,.2,4.43,.23,1.49,.23,2.97,.01,4.44,.06-.27,.04-.22-.05,.14-.04-.06,.14-.42,.17-.47,.15-.36,.35-.69,.59-1l-.19,.23c1.39-1.63,3.84-1.58,5.32-.08l-.2-.22c.16,.18,.31,.37,.43,.59,.06,.11,.09,.23,.15,.33,.05,.12,.04,.09-.03-.1-1.01-3.04-1.11-6.23-.3-9.58,.14-.56-.08,.14-.18,.34-.16,.32-.37,.6-.59,.87l.19-.22c-1.56,1.76-4.5,2.94-6.37,1.01l.2,.21c-.22-.24-.39-.49-.56-.77-.05-.08-.35-.75-.39-.76,.1,.35,.12,.4,.05,.16l-.03-.14c.46,2.64,.53,5.27,.22,7.89l.04-.24c.1-.46,.15-.66,.35-1.2,.38-.99,.82-1.94,1.3-2.88,.25-.49,.55-.97,.79-1.47,.35-.75,.58-1.67,.76-2.48l-.13,.34c.28-.34,.44-.45,.89-.58l-.02-.2c-.02,.35-.11,.65-.27,.95,0,.01,0,.05,0,.06h0Z"/><path class="cls-3" d="M1048.56,413.73c-.84-.35-1.61-.99-2.34-1.52-.81-.59-1.75-.99-2.5-1.65-.64-.56-1.46-.72-2.29-.94-.78-.21-1.41-.13-2.19,.06-2.32,.58-4.37,2.29-5.07,4.63-.39,1.3-.48,2.68-.55,4.03-.13,2.69-.04,5.47,.33,8.15,.21,1.55,.56,3.13,1.54,4.39,.71,.92,1.65,1.74,2.71,2.23,.52,.24,1.09,.44,1.65,.55s1.19-.12,1.73-.33c.91-.36,1.75-.84,2.58-1.35s1.72-.92,2.51-1.55c1.72-1.38,3.26-2.96,4.95-4.37,.25-.21,.08-2.36-.06-2.34-1.57,.24-3.04,.22-4.61,.04-.7-.08-1.39-.15-2.09-.19-.86-.05-1.66-.33-2.45-.66-.71-.29-1.38-.65-2.04-1.04-.52-.3-1.06-.47-1.6-.71-1.14-.49-2.22-1.17-3.08-2.06l.2,.22c-.35-.39-.66-.8-.91-1.26-.12-.22-.19-.64-.35-.82,.09,.22,.14,.45,.15,.69-.37,7.85-.33,10.43,.13,7.72,.02-.09,.03-.19,.14-.52,.1-.29,.22-.57,.36-.85,.29-.6,.66-1.15,1.07-1.67l-.17,.21c.67-.8,1.42-1.56,2.26-2.17,.98-.72,2.09-1.19,3.08-1.88,.53-.37,1.1-.65,1.63-1.01,.6-.4,1.02-1.06,1.65-1.48,1.15-.77,2.33-1.88,3.63-2.37,.02,0,.01-.15,0-.15h0Z"/><path class="cls-3" d="M1046.67,414.55c.57-1.39,2.29-1.49,3.56-1.17,1.74,.44,3.24,1.47,3.93,3.17,.11,.28,.2,.57,.27,.86,.18,.7-.05-.85,.01-.92,0,0,.03-.16-.01,.04-.03,.14-.04,.28-.07,.41-.06,.26-.13,.52-.22,.77-.35,1.03-.91,2.02-1.56,2.9-.58,.79-1.32,1.45-2.12,2.02-.84,.6-1.63,1.22-2.57,1.65-1.7,.78-3.89,1.21-5.43-.11-.01-.01-.05,.43-.05,.44,0,.15-.03,.43,.06,.56,1.24,1.81,3.26,2.72,5.43,2.47,1.01-.12,2.08-.39,2.91-.98,.9-.64,1.68-1.43,2.3-2.35,1.8-2.65,2.04-6.12,1.62-9.21-.27-1.92-1.33-3.8-3.47-3.93s-4.11,1.31-4.59,3.33c0,.01,0,.05,0,.06h0Z"/><path class="cls-4" d="M1036.33,407.67c-.66,.04-1.28,.25-1.94,.31-.59,.06-1.05,.06-1.6,.36-1.02,.55-1.78,1.53-2.33,2.53-1.42,2.57-1.56,5.68-1.68,8.54-.06,1.55-.12,3.1,.02,4.64,.1,1.13,.24,2.36,1,3.26,1.2,1.43,3.93,1.33,4.72-.45,.09-.2-.09-.73-.05-.81-.87,1.56-3.06,.96-4.08-.1-1.71-1.76-1.35-4.45-1.18-6.68,.19-2.47,.74-4.98,2.09-7.09,.63-.98,1.37-1.86,2.17-2.71,.41-.43,.75-.95,1.29-1.25,.47-.26,1.04-.4,1.56-.5,0,0,0-.06,0-.06h0Z"/><path class="cls-4" d="M1019.68,410.5c.07-.76-.94-1.38-1.3-1.81-.21-.26-.24,.53-.24,.59-.08,.73-.04,1.47-.01,2.2,.05,1.28,.21,2.54,.69,3.74s1.17,2.29,1.84,3.38c1.15,1.85,2.44,3.6,3.7,5.37,1.1,1.54,2.18,3.09,3.54,4.41,.58,.56,1.23,1.03,1.89,1.49,.29,.21,.59,.4,.89,.6,.39,.26,.53,.32,.99,.31,.57-.02,.14-4.27-.04-4.72,.89,2.31-.06-.13-.22-.58-.25-.67-.56-1.28-.89-1.91-.59-1.12-1.19-2.24-1.79-3.35-.99-1.82-2.15-3.51-3.48-5.1-1.16-1.38-2.28-2.8-3.49-4.14-.92-1.02-1.97-2.23-3.29-2.66l.44,3.87c0-.21-.07-2.42,.45-2.14,.2,.1,.34,.13,.32,.41,0,0,0,.06,0,.04h0Z"/><path class="cls-4" d="M1023.04,411.61c1.46,.12,1.01-.08,1.49,2.43,.11,.55,.11,.84,.49,1.26,.51,.57,1.18,.98,1.87,1.28,.65,.29,1.32,.41,2.01,.58s1.29,.36,1.99,.3c1.33-.11,2.59-.82,3.86-1.15,.63-.17,1.28-.1,1.9-.33,.28-.1,.52-.21,.8-.29,.36-.09,.71-.12,1.06-.27,.29-.13,.13-2.12-.06-2.34-.58-.68-1.27-1.29-1.92-1.92-.6-.58-1.3-.97-1.94-1.49-1.24-1.02-2.48-2.23-3.96-2.89-1.09-.49-2.85-.4-3.97-.06-.68,.21-1.33,.58-1.81,1.13-.34,.39-.35,.74-.42,1.25-.37,2.54,.07,2.25-1.37,2.44,0,0,0,.06,0,.06h0Z"/><path class="cls-4" d="M1039.24,418.6c.77-2.73-.19-5.39-.44-8.13-.01-.13-.06-1.7-.35-1.73-.74-.07-1.31-.15-1.92,.32-.55,.42-.82,1.12-.99,1.77-.46,1.78-.46,3.7-.46,5.52-.01,2.75,.05,5.63,.62,8.33,.41,1.98,1.22,3.83,2.64,5.3,1.6,1.65,3.84,2.64,6.04,3.17,1.28,.31,2.63,.55,3.95,.51,.83-.02,1.39-.17,2.14-.5,.37-.16,.62-.34,.85-.68,.17-.25,.29-.54,.47-.8,.26-.37,.36-.34,.77-.46l-.19-7.59c-1-.17-1.85-1-2.87-1.15-.93-.13-1.84-.26-2.74-.53-1.82-.53-3.67-1.24-5.3-2.22-.79-.48-1.48-1.17-2.27-1.62-.61-.34-1.3-.64-1.93-.96-.25-.13-.21-.11-.44-.1-.29,.02-.24,.14-.53,0-.27-.14-.52-.5-.71-.74-.42-.51-.79-1.12-.98-1.76-.11-.36-.24,.68-.24,.62-.07,.76-.05,1.54-.01,2.31,.15,2.81,.49,5.86,1.86,8.38,1,1.84,2.62,3.48,4.39,4.58,1.67,1.03,4.3,.77,6.03,.02,1.1-.48,2.13-1.24,3.05-2,.98-.81,1.99-1.58,2.87-2.49,.34-.35-.12-2.74-.07-2.76-.83,.37-1.74,.71-2.66,.64-1.02-.09-1.99-.31-2.96-.6-2.02-.62-3.96-1.18-5.8-2.27-.78-.46-1.6-.78-2.34-1.31s-1.45-1.17-2.03-1.9c-.49-.62-1.01-1.26-1.39-1.95-.23-.43-.56-.78-.71-1.25l-.09,4.33c.57,2.65,1.53,5.11,2.48,7.64,.45,1.18,1.28,2.32,2.05,3.32,.62,.81,1.43,1.35,2.32,1.86,1.64,.95,3.43,1.66,5.34,1.74,.95,.04,1.9-.01,2.84-.16,1.3-.21,2.03-1.35,3.03-2.07,.24-.17,.25-.94,.27-1.12,.08-.88,.08-1.8,.06-2.69s-.06-1.79-.19-2.68c-.03-.2-.07-1.06-.32-1.1-.19-.03-.38-.06-.57-.09-.29-.31-.54-.65-.73-1.03-.29-.39-.59-.52-1.03-.69-.69-.28-1.28-.4-2.02-.49-1.37-.15-2.73-.2-4.08-.49-2.45-.52-4.92-1.61-6.53-3.59l.17,.21c-.61-.78-1.09-1.65-1.41-2.59-.03-.1-.2-.7-.08-.22-.05-.19-.05-.44-.13-.62,.08,.57,.1,.68,.06,.31,.24,2.16,.3,4.32,.18,6.48-.04,.51-.06,.41,.03-.04-.06,.31,.1-.35,.1-.34,.07-.26,.17-.51,.26-.76,.19-.54,.39-1.08,.65-1.59,.31-.59,.61-1.19,.98-1.75,.27-.41,.58-1.07,1.29-.56,.33,.24-.14,2.29-.25,2.77,0,.02,0,.05,0,.06h0Z"/><path class="cls-4" d="M1051.38,422.43c.34-.27,.42-.42,.39-.84-.04-.44-.25-.8-.51-1.14-.16-.21-.29-.42-.53-.56-.11-.11-.25-.15-.42-.12-.19-.48-.5-.78-.94-.91-1.3-.38-2.51,1.31-3.26,2.12-1.13,1.23-2.32,2.43-3.24,3.82l.16-.22c-.62-.05-1.33,.49-1.95,.68-.57,.17-1.24,.42-1.83,.49-.98,.13-2.37-.61-3.15-1.17-2.2-1.58-3.63-4-4.25-6.6-.08-.34-.13,.66-.12,.74,.08,5.26,2.42,11.33,7.41,13.78,2.5,1.23,5,.35,7.31-.86s4.46-2.85,6.06-5.04c.17-.23,.07-.93,.06-1.19,0-.11-.16-.92-.14-.93-1.48,1.6-3.36,2.49-5.52,2.78-1.05,.14-2.17-.04-3.19-.28-1.12-.26-2.27-.45-3.35-.85-1.96-.72-3.9-1.27-5.52-2.68s-2.79-3.08-2.94-5.18l-.1,1.18c.67,2.52,1.77,4.94,3.24,7.1,.73,1.08,1.57,2.1,2.39,3.1,1.07,1.3,2.13,2.59,3.19,3.89,.55,.67,1.12,1.31,1.69,1.96,.2,.23,.56,.85,.87,.89,.34,.04,.58-.53,.77-.84,.98-1.57,1.88-3.19,2.8-4.8,1.07-1.89,1.99-3.8,2.67-5.87,.37-1.12,.51-2.55,1.5-3.29,.24-.18,.3-.26,.57-.15,.38,.16,.31,.77-.11,.8-.03,0,0,.15,0,.15h0Z"/><path class="cls-4" d="M1058.13,430.06c-.16-.2-.37-.31-.63-.27-.12,.02-.23,.06-.33,.12-.06,.03-.12,.08-.17,.12-.19,.16-.06,.13-.44,.03-.1-.03-.07,1.47-.06,1.58,.05,.67,.23,1.44,.91,1.74,.46,.2,1.01,.19,1.48,.03,.29-.1,.47-.32,.65-.57,.23-.31,.44-.66,.6-1.01,.36-.8,.58-1.65,.95-2.44,.06-.13,.03-.36,.02-.49,0-.09,0-.17-.02-.26,0-.01-.03-.14-.04-.13-.16,.2-.29,.43-.47,.6-.15,.14-.29,.27-.45,.39-.18,.14-.35,.3-.55,.42s-.44,.17-.64,.3c-.41,.26-.91,.42-1.4,.37-.22-.02-.4-.11-.6-.19-.08-.04-.17-.05-.25-.12-.02-.01-.03-.03-.05-.04-.03-.03-.05-.14-.02-.02l.08,.9c0-.32-.04-.38,.1-.59,.05-.08,.11-.16,.18-.24,.11-.12,.24-.22,.38-.29,.27-.13,.56-.1,.77,.13,0,0,0-.05,0-.06h0Z"/></g><g><path class="cls-5" d="M545.73,403.46c-1.32-.46-2.44-1.27-3.82-1.63-1.3-.34-2.63-.56-3.97-.68-2.67-.23-5.41-.04-8.01,.59-5.38,1.31-10.1,4.42-13.36,8.89-.07,.09,.06,.36,.01,.42,3.46-4.01,8.27-6.8,13.38-8.11,2.62-.67,5.3-.99,8.01-.85,1.28,.07,2.55,.24,3.8,.51s2.83,.41,3.97,1.01c-.01,0,.02-.14,0-.15h0Z"/><path class="cls-5" d="M521.74,408.15c-1.96,1.74-4.86,2.8-7.31,3.65-2.57,.89-5.17,1.65-7.83,2.23s-5.39,1.03-8.09,1.46-6.07,1.25-8.3-.76c.02,.01-.09,1.39-.08,1.46-.02-.55-.22,.17-.29,.35-.13,.3-.29,.59-.46,.88-.38,.67-.83,1.32-1.1,2.04-.43,1.12-.41,2.42-.28,3.59,.33,3.03,3.48,3.89,5.11,6.1,2.02,2.74,1.67,5.97,1.23,9.15-.2,1.45-.46,2.9-.6,4.36-.12,1.25-.26,2.9,.27,4.07,.65,1.47,2.36,1.21,3.62,.76,1.75-.64,3.45-1.47,5.17-2.21,3.7-1.59,7.4-3.16,11.13-4.68,7.29-2.96,14.68-5.69,22.27-7.77,4.28-1.17,8.64-2.04,13.04-2.64,2.12-.29,4.3-.33,6.41-.66,.76-.12,1.19-.38,1.31-1.16s.03-1.71-.05-2.51c0,.04-.03-.43-.1-.43-.58,0-.75,.52-.77,.98,0,.15,.12,.95,.06,1.02,.22-.24,.71,.79,.74,.88l-.1-2.69c-.07,.46-3.93,.62-4.4,.68-1.98,.27-3.95,.61-5.91,1-3.62,.72-7.2,1.65-10.75,2.65-7.14,2.01-14.1,4.6-20.97,7.39-3.45,1.41-6.87,2.87-10.28,4.35-1.7,.74-3.41,1.48-5.11,2.22-1.23,.54-2.9,1.51-4.29,1.03-.88-.3-1-.64-.9-1.36s.21-1.45,.31-2.18c.2-1.42,.39-2.84,.49-4.27,.18-2.57,.22-5.33-.48-7.83-.4-1.41-1.09-2.7-2.14-3.74s-2.53-1.75-3.48-2.94c-.2-.24-.34-.49-.48-.77-.07,.46-.05,.48,.07,.05,.08-.21,.17-.41,.27-.61,.35-.71,.8-1.37,1.14-2.08,.6-1.25,.64-2.58,.51-3.94l-.06,1.73c1.35,.09,2.68,.37,4.05,.31s2.83-.35,4.23-.61c2.71-.5,5.41-1.02,8.09-1.68s5.32-1.4,7.82-2.51c1.29-.57,2.55-1.21,3.77-1.92s2.3-1.65,3.53-2.32c.03-.02-.02-.14,0-.15h0Z"/><path class="cls-5" d="M550.12,419.71c.24-.06,.6,.18,.83,.26s.47,.16,.7,.25c.5,.2,.97,.45,1.45,.7,.92,.49,1.76,1.11,2.5,1.84,1.48,1.46,2.62,3.4,3.01,5.45,.02,.08,.02-.07,.02-.08,.01-.09,0-.2-.01-.29-.35-2.14-1.32-4.07-2.87-5.6-.75-.75-1.62-1.39-2.56-1.88-.46-.24-.94-.41-1.44-.55-.27-.07-.54-.14-.81-.18s-.6,.05-.83-.08c0,0-.01,.16,0,.15h0Z"/><path class="cls-5" d="M558.06,427.54c32.14,6.75,64.72,11.31,97.33,15.06,32.71,3.77,65.61,5.58,98.54,5.33,32.76-.24,65.29-2.35,97.7-7.24s62.99-11.58,94.96-9.6c14.37,.89,28.73,3.5,42.18,8.71,6.76,2.62,13.12,5.95,19.27,9.77,5.16,3.21,11.35,7.37,17.61,4.66,2.2-.95,4.38-2.67,4.82-5.14,.26-1.49-.29-3.12-.11-4.62-.81,6.7-7.78,8.82-13.52,6.91-3.25-1.08-6.05-3.14-8.86-5.03-3.01-2.02-6.16-3.83-9.38-5.47-12.83-6.54-26.91-10.33-41.15-12.18-31.47-4.08-63.11,1.46-94.12,6.55-32.3,5.3-64.82,8.58-97.54,9.78-32.7,1.19-65.48-.41-98.08-2.94-16.34-1.27-32.63-3.03-48.87-5.2-16.25-2.17-32.39-4.96-48.58-7.47-4.07-.63-8.13-1.28-12.19-1.95,0,0,0,.06,0,.06h0Z"/><path class="cls-5" d="M1021.72,445.06s0-.15,0-.15c0,0,0,.15,0,.15h0Z"/><path class="cls-5" d="M1019.1,443.41c.19,.48,.22,.59,.11,.33-.07-.13-.11-.28-.12-.43v1.22c.03-.12,.24,.03,.27,.05,.23,.16,.3,.53,.42,.76,.2,.37,.41,.75,.6,1.13l1.42,2.74,1.37,2.65c.46,.89,.86,1.87,1.42,2.7,0,0,.06-.53,.06-.46,.01-.3,0-.6,0-.91,0-.33-.02-.67-.04-1-.01-.22,.01-.52-.08-.72,.2,1.07,.25,1.31,.14,.74-.03-.16-.06-.33-.09-.49-.04-.2-.08-.34-.17-.52-.14-.29-.31-.58-.46-.87l-.87-1.65-1.79-3.38-.87-1.65-.46-.87c-.08-.14-.18-.5-.37-.52-.13-.01-.45,.25-.51,.33-.09,.13-.1,.3-.11,.45-.03,.49-.05,1.04,.06,1.53,.01,.07,.05-.25,.05-.28,0-.29,0-.59-.02-.88h0Z"/><path class="cls-5" d="M1024.53,451.81c-1.06-.77-1.9-2.15-2.47-3.3-.31-.62-.56-1.26-.76-1.92-.09-.3-.17-.61-.23-.92-.17-.76-.22-1.53-.16-2.31,.03-.27,.07-.53,.13-.8,.46-.62,1.46,.13,2.05,.4,.79,.36,1.59,.71,2.39,1.06,1.59,.7,3.19,1.39,4.8,2.06,6.1,2.56,12.3,4.8,18.58,6.86,12.52,4.1,25.45,7.09,38.42,9.36s26.73,3.37,40.11,5.08c6.76,.86,13.49,1.94,20.11,3.54s12.64,3.47,18.95,5.23c6.92,1.93,13.94,3.66,21.1,4.39,1.82,.19,3.65,.3,5.48,.34,1.46,.03,2.94,.08,4.35-.36,1.27-.4,2.26-1.05,2.56-2.41,.18-.81,.09-1.7,.05-2.52-.03-.62-.03,.47-.02,.59-.01-.47-.39,.13-.61,.32-.36,.32-.73,.59-1.17,.8-.95,.46-2.03,.66-3.08,.71-2.83,.13-5.72-.13-8.53-.45-6.01-.68-11.91-2.06-17.74-3.63s-11.56-3.34-17.38-4.88-12.19-2.85-18.39-3.78c-12.39-1.86-24.9-2.71-37.3-4.51s-23.99-4.23-35.74-7.41c-13.16-3.56-26.16-7.75-38.91-12.56v.02c-.4,1.73-.45,3.58-.12,5.32,.19,1.04,.55,2.06,1.07,2.98,.66,1.19,1.53,1.92,2.47,2.86-.02-.02,.03-.13,0-.15h0Z"/><path class="cls-5" d="M416.63,383.03c1.16-.54,2.49-.82,3.69-1.29,1.33-.52,2.63-1.11,3.91-1.74,2.45-1.21,4.79-2.6,7.03-4.16,4.42-3.07,8.43-6.7,12.03-10.69,8.02-8.87,14.07-19.32,18.9-30.21,2.47-5.56,4.53-11.28,6.92-16.87,.89-2.09,2.42-4.58,5.06-4.07,2.16,.42,3.76,2.57,6.04,2.53s4.02-2.88,6.39-2.05c1.29,.45,2.2,1.85,3.09,2.82,1.05,1.14,2.13,2.27,3.23,3.37,4.1,4.12,8.54,7.93,13.42,11.1,5.67,3.69,11.92,6.47,18.57,7.78,3.21,.63,6.68,1.07,9.95,.78,3.47-.31,6.97-1.38,10.16-2.74,.17-.07-.02-1.14-.03-1.14-2.92,.73-5.9,1.07-8.91,1.05s-6.07-.03-9.1-.48c-6.02-.89-11.81-3.02-17.11-5.99s-9.9-6.58-14.23-10.64c-2.26-2.12-4.42-4.35-6.49-6.65-.75-.83-1.53-1.92-2.63-2.32-1.21-.44-2.33,.19-3.35,.79-.94,.56-1.9,1.21-3.04,1.22s-2.11-.57-3.04-1.11c-1.89-1.12-3.94-2.31-5.91-.64s-2.61,4.41-3.48,6.64c-1.15,2.98-2.32,5.94-3.54,8.89-4.76,11.56-10.13,23.27-17.87,33.17-3.92,5.02-8.4,9.62-13.45,13.51-2.4,1.85-4.94,3.53-7.58,5.02-1.38,.78-2.79,1.5-4.23,2.16s-2.93,1.49-4.41,1.79c-.03,0,0,.15,0,.15h0Z"/><path class="cls-5" d="M538.55,340.08c1.49-.72,3.25-1.09,4.84-1.57,1.77-.54,3.54-1.05,5.31-1.56,3.41-.98,6.82-2,10.25-2.9,6.86-1.81,13.8-3.37,20.77-4.71,13.99-2.69,28.14-4.51,42.33-5.78,28.66-2.56,57.46-2.93,86.2-3.7,17.1-.46,34.2-1.03,51.29-1.64,.01,0,0-.3,0-.3-29.98,.4-59.98,.86-89.94,1.91-28.4,1-56.88,2.76-84.88,7.84-7.75,1.4-15.46,3.06-23.09,5.03-3.89,1-7.76,2.08-11.61,3.25-1.94,.59-3.85,1.26-5.75,1.93s-3.79,1.62-5.72,2.05c-.02,0,0,.15,0,.15h0Z"/><path class="cls-5" d="M783.15,292.33c-1.78,4.79-6.32,8.48-10.58,10.99-4.55,2.67-9.54,4.51-14.52,6.2-12.47,4.21-25.3,7.39-38.29,9.49-7.36,1.19-14.78,2.06-22.21,2.62-.01,0,0,.18,0,.18,13.31-.79,26.51-2.8,39.47-5.89,6.33-1.51,12.59-3.27,18.77-5.29,5.28-1.73,10.63-3.52,15.49-6.27,2.45-1.38,4.79-3,6.84-4.94,1.04-.99,2.01-2.07,2.85-3.24s1.44-2.46,2.18-3.7c.02-.04-.02-.12,0-.15h0Z"/><path class="cls-5" d="M664.02,317.68c7.16-7.43,14.3-14.88,21.4-22.37,6.31-6.66,12.4-14.26,19.99-19.52s16.74-6.08,25.88-5.07,19.03,2.87,28.6,3.91c38.05,4.12,76.73,3.46,114.26,11.77,18.66,4.13,36.4,10.88,53.35,19.69s33.56,19.55,49.95,29.94l105.1,66.59c35,22.17,70.2,44.06,104.97,66.59,2.01,1.31,4.02,2.62,6.03,3.94,1.77,1.17,3.91,2.28,4.17,4.62l-.03-1.41c-.28,1.4-2.63,2.63-3.21,.8,.14,.43-.1,.99,.04,1.44,.69,2.2,3.19,.21,3.21-1.42,.04-2.78-2.07-4.05-4.21-5.46-8.77-5.8-17.68-11.4-26.56-17.03l-54.79-34.72-109.14-69.17c-17.64-11.18-35.17-22.59-53.04-33.41-16.95-10.26-34.51-19.75-53.3-26.18-37.81-12.95-78.24-13.3-117.68-16.32-9.98-.76-19.95-1.7-29.87-3.04s-19.57-3.85-29.36-2.85-16.8,6.44-23.29,13.18c-7.31,7.59-14.46,15.34-21.59,23.09-3.63,3.94-7.25,7.88-10.88,11.83-.11,.12,.08,.53,.02,.59h0Z"/><path class="cls-5" d="M518.82,441c-.06,.14-.24,.19-.37,.26l-.33,.16-.63,.31-1.28,.63s0,.06,0,.06l1.28-.66,.63-.32,.33-.17c.08-.04,.29-.2,.37-.12,.01,.02,0-.16,0-.15h0Z"/><path class="cls-5" d="M513.78,442.36c.37,.64,.63,1.09,1.23,1.48s1.21,.76,1.81,1.14c1.14,.71,2.29,1.42,3.44,2.12,2.37,1.43,4.75,2.84,7.17,4.19,4.75,2.64,9.57,5.14,14.46,7.51,2.06,1,4.24,2.27,6.54,1.28,2.03-.87,3.36-2.83,4.74-4.46,3.1-3.67,6.14-7.45,9.63-10.76,1.91-1.81,3.96-3.49,6.18-4.9,1.2-.76,2.45-1.46,3.79-1.96s2.91-.44,4.15-1.15c.31-.18,.22-2.51-.07-2.7-.63-.42-.95-.53-1.7-.44-.63,.08-1.25,.23-1.86,.43-1.16,.39-2.26,.95-3.31,1.58-2.11,1.26-4.06,2.78-5.88,4.43-3.56,3.22-6.62,6.93-9.51,10.75-1.45,1.91-2.8,4.05-4.67,5.59s-3.87,1.66-6.07,.73c-4.85-2.07-9.56-4.59-14.2-7.06-2.62-1.4-5.23-2.82-7.81-4.27-1.36-.76-2.71-1.53-4.06-2.32-.67-.39-1.34-.79-2.01-1.18-.73-.43-1.15-.91-1.99-.49-.07,.03-.03,.41,0,.47h0Z"/><path class="cls-5" d="M370.67,393.07c15.22,9.14,32.27,14.79,49.78,17.48,8.8,1.35,17.71,1.99,26.61,2.01,9.03,.02,17.99-.72,26.96-1.71,10.42-1.15,21.23-2.04,31.38,1.21-.02,0,.07-.45-.01-.48-8.81-3.83-18.41-3.32-27.74-2.31-9.06,.99-18.05,2.09-27.16,2.31-17.72,.43-35.57-1.55-52.56-6.73-9.5-2.9-18.67-6.83-27.25-11.85,0,0,0,.05,0,.06h0Z"/><path class="cls-5" d="M302.13,378.49c2.98-.01,5.92-.47,8.89-.55s5.99-.04,8.97,.2c2.81,.23,5.65,.61,8.39,1.25,2.04,.48,4.35,1.17,5.9,2.66-.07-.07,.05-.57-.01-.71-1.07-2.3-2.97-3.51-5.4-4.07-2.83-.65-5.79-.92-8.69-1.07s-5.98-.11-8.96,.22-6.21,.78-9.1,1.99c0,0,0,.06,0,.06h0Z"/><path class="cls-5" d="M300.93,377.61c-1.04-6.68-1.13-13.34,.3-19.97,.62-2.87,1.4-5.81,2.65-8.48,.95-2.04,2.36-3.93,4.64-4.5,1.61-.4,3.53-.47,3.65-2.51,.05-.82-.19-1.46-.33-2.25-.26-1.46,.67-2.92,1.32-4.2,2-3.9,5.17-8.39,10.16-7.67s8.44,5.26,13.52,4.34c.07-.01,.02-.6-.01-.6-4.99,.4-8.52-4.26-13.23-5.14-5.28-.99-8.63,3.84-10.69,7.95-.99,1.98-1.88,3.96-1.27,6.21,.22,.81,.33,1.16-.47,1.66-.41,.25-.89,.36-1.35,.47-1.23,.3-2.35,.47-3.39,1.26-1.81,1.39-2.75,3.64-3.49,5.73-1.03,2.88-1.79,5.85-2.3,8.87-1.05,6.23-1.14,12.88,.27,19.06,0,.04,.03-.19,.02-.24h0Z"/><path class="cls-5" d="M329.79,332.55c.17-.98,2.28-.14,2.77,.18,1.41,.92,2.64,2.33,3.9,3.45,2.8,2.49,5.65,4.92,8.54,7.3,5.73,4.71,11.61,9.24,17.7,13.48,12.03,8.38,24.91,15.74,38.68,20.86,3.79,1.41,7.62,2.74,11.51,3.86,2.01,.58,4.05,1.07,6.1,1.52,.96,.21,1.92,.41,2.88,.6,.7,.14,1.88,.26,2.23,1l-.09-1.95c-.03,.48-.86,.91-1.15,.43l.05,1.11,.1-.23c.14-.22-.15-.96-.03-1.08-.27,.26-.26,1.21-.04,1.51,.16,.22,.89,.49,1.11,.36,.27-.17,.13-1.02,.12-1.28-.01-.6,.01-1.35-.31-1.87-.45-.73-1.32-.82-2.08-.94-2.12-.34-4.24-.73-6.34-1.19-8.13-1.76-15.94-4.29-23.56-7.63-15.45-6.78-29.59-16.2-42.81-26.62-3.75-2.96-7.41-6.02-11.07-9.09-1.72-1.45-3.36-3.06-5.16-4.4-.55-.41-1.37-.83-2.09-.75-.67,.07-.91,.62-.99,1.24,0,.03,0,.15,.01,.13h0Z"/><path class="cls-5" d="M329.06,381.69c-.14-.9-.1-2.19-.46-3.02-.08-.18,.01,1.05,.05,1.26,.06,.39,.18,.78,.27,1.17,.34,1.46,.71,2.92,1.12,4.36,.8,2.8,1.76,5.58,3.17,8.14,2.83,5.14,7.32,8.23,12.55,10.62s10.81,4.47,14.91,8.79c4.41,4.64,7.37,11.4,6.68,17.87s-4.22,12.79-9.45,16.86c-.18,.14-.09,1.93,.05,1.94,22.09,1.22,42.36-9.31,59.67-22.04,4.99-3.67,10.12-7.39,14.65-11.62,.25-.23,.1-1.2,.1-1.5,0-.13-.18-1.49-.17-1.5-4.44,3.16-8.51,6.89-12.83,10.23s-8.8,6.58-13.43,9.53c-9.18,5.86-19.13,10.67-29.75,13.21-5.99,1.43-12.12,2.06-18.28,1.74l.05,1.94c9.07-7.1,12.1-19.98,7.78-30.57-2.34-5.74-6.65-10.19-12.11-13.03s-11.86-4.54-16.47-8.92c-5.37-5.1-6.76-12.32-8.66-19.14,.05,.17-.09,.78-.02,1.08,.19,.88,.39,1.76,.59,2.63,0,0,0-.04,0-.05h0Z"/><path class="cls-5" d="M322.99,363.81c2.25,.91,4.37,2.47,6.47,3.69l6.47,3.77c4.38,2.55,8.76,5.11,13.16,7.62l26.1,14.91s.03-.16,0-.18l-26.1-15.07c-4.3-2.48-8.62-4.92-12.94-7.37l-6.47-3.66c-2.2-1.25-4.65-2.36-6.69-3.86,.02,.01-.03,.14,0,.15h0Z"/><path class="cls-5" d="M898.31,355.98c-1.03-.47-1.95-1.13-3-1.58-1.14-.48-2.33-.87-3.55-1.09-2.2-.4-4.49-.37-6.72-.15-4.87,.48-9.59,1.9-14.28,3.26-10.12,2.95-20.44,4.62-30.97,5.22-21.41,1.22-42.79-1.3-64.19-1.66-12.03-.2-24.1,.29-35.95,2.47-.04,0-.04,.72,.02,.74,22.3,6.03,45.55,5.58,68.43,6.86,11.62,.65,23.11,2.05,34.58,4,11.53,1.96,23.01,4.24,34.62,5.68,6.39,.8,12.94,1.53,19.39,1.42,2.01-.04,4.43-.57,4.63-2.94,.1-1.22-.02-2.82-1.44-3.16,0,0-.03,.96,.02,1.06,1.78,3.83-2.61,8.83-6.64,8.34,0,0-.03,.47,.01,.48,5.26,.65,8.75-5.26,6.62-9.86l.02,1.06c.83,.2,1.45,.91,1.23,1.79-.26,1.09-1.4,1.69-2.4,1.95-2.39,.62-5.21,.2-7.64,.09-5.5-.26-10.99-.81-16.45-1.53-11.04-1.45-21.97-3.61-32.95-5.44s-21.86-3.13-32.92-3.75-21.93-.81-32.88-1.48c-12.21-.75-24.42-2.13-36.25-5.31l.02,.74c21.13-3.93,42.7-2.44,64.01-1.37s42.76,1.78,63.39-3.83c5.29-1.44,10.5-3.26,15.94-4.09,2.63-.4,5.33-.57,7.98-.23,2.43,.31,5.36,.87,7.31,2.45-.02-.01,.03-.14,0-.15h0Z"/><path class="cls-5" d="M749.35,367.67c2.27,.05,4.66,.76,6.9,1.16l7.15,1.28c4.6,.82,9.2,1.62,13.81,2.4l27.86,4.74,27.86,4.74c9.17,1.56,18.33,3.24,27.57,4.34,5.18,.62,10.4,1.05,15.62,1.12s10.7,.23,15.54-1.43c.02,0,0-.3,0-.3-2.28-.08-4.53,.19-6.8,.37s-4.7,.28-7.06,.29c-4.56,.03-9.12-.22-13.66-.65-9.23-.87-18.38-2.46-27.52-3.96l-55.71-9.16c-5.26-.86-10.51-1.74-15.77-2.56l-7.64-1.19-3.94-.61c-1.38-.21-2.86-.31-4.19-.73,0,0-.01,.15,0,.15h0Z"/><path class="cls-5" d="M895.26,383.73c-.91,.81-2.4,1.23-3.55,1.61-1.23,.4-2.5,.7-3.78,.88-2.6,.38-5.16,.44-7.76,0,0,0-.02,.18,0,.18,2.53,.5,5.22,.64,7.76,.16,1.28-.24,2.55-.59,3.77-1.05,.57-.22,1.14-.45,1.69-.71,.6-.28,1.22-.75,1.86-.91,.02,0-.01-.14,0-.15h0Z"/><path class="cls-5" d="M906.89,373.26c.01-.3,0-2.37,.45-.92,.13,.42,.29,.84,.43,1.26,.32,.99,.6,1.98,.84,2.99,.53,2.17,.9,4.39,1.04,6.62,.13,2.06-.02,4.12-.3,6.16-.06,.43-.13,.87-.2,1.3-.06,.38-.13,.75-.2,1.13-.04,1.72,.04,2.11,.22,1.18,.47-.98,.69-1.85,1.61-2.54,.11-.08-.05-.77-.02-.78-.86,.34-1.74,.84-1.97,1.8-.31,1.31-.11,2.94,.11,4.25-.01-.08,.07,.44,.13,.19,1-4.69,1.17-9.52,.85-14.3-.15-2.31-.45-4.61-.94-6.87-.23-1.05-.49-2.08-.79-3.11-.26-.88-.48-2.31-1.15-2.98,.07,.07-.07,1.5-.06,1.63,.05,.96,0,1.94-.06,2.9,0,.03,0,.19,.01,.09h0Z"/><path class="cls-5" d="M917.13,377.83c-.31-1.55-.61-3.03-.7-4.63l-.15,2.02c.32,2.63,.9,5.72,.94,8.13s-.34,5.16-.81,7.64c-.22,1.18-.12,2.56-.05,3.76,.03,.49,.06,.98,.12,1.47-.02-.2,.19,1.05,.24,.97,.72-1.06,1.29-2.18,2.1-3.19,.62-.77,1.24-1.53,1.82-2.34,.22-.3-.18-1.5-.04-1.62-.54,.47-1.15,.89-1.85,1.09-.93,.26-1.39-.22-2.19-.6l.31,6.19c.77-4.41,.96-8.89,.84-13.36-.06-2.16-.19-4.32-.45-6.47-.12-.95-.25-1.9-.43-2.84-.11-.56-.16-1.21-.51-1.68,.1,.13-.09,1.42-.08,1.66,0,.13,.02,1.66,.17,1.66,.5-.02,.68,1.86,.75,2.18,0,0,0-.04,0-.05h0Z"/><path class="cls-5" d="M925.2,378.03c-.3,.13-.29-.33-.17-.42,.15-.12,.64,1.33,.7,1.55,.28,.93,.31,1.94,.41,2.9,.16,1.61,.25,3.23,.19,4.85-.11,3.33-.6,6.64-1.34,9.88-.2,.88-.12,1.88-.09,2.77,0,.22,.28,2.17,.26,2.18,.99-.73,1.74-1.87,2.52-2.82,.73-.89,1.43-1.82,2.08-2.78,.22-.32-.21-1.24-.04-1.44-.6,.68-1.26,1.22-2.11,1.57s-1.72,.2-2.58,.42l.18,4.94c1.36-6.08,1.7-12.31,1.39-18.53-.07-1.45-.18-2.9-.36-4.34-.06-.51-.07-2.32-.69-2.38-.28-.03-.75,.99-.71,1.36,.02,.23,.06,.58,.36,.33,0,0,0-.06,0-.06h0Z"/><path class="cls-5" d="M935,385.08c.14-.21,.31-.41,.43-.63,.1-.18,.14-.52,.26-.67l-.12-1.22c.09,3.38,1.22,6.64,1.65,9.99,.08,.65,.15,1.31,.2,1.96,.02,.31,.03,.39,.04,.69-.02-.44,0,.56,0,.1,.01,1.49-.15,3.48-.1,5.14l.3-.62c-.03-.51-.02-1.03-.02-1.55,0-.28,.04-.67-.05-.94-.02-.07-.05-.33-.07-.07h-.05c-.14,.22-.11,.58-.12,.84-.04,.8-.02,1.6,0,2.39,.02,.62,.04,1.24,.12,1.86,.01,.08,.14,.82,.18,.51,.3-1.95,.24-4,.23-5.97-.02-2.18-.11-4.36-.3-6.53-.15-1.67-.35-3.33-.66-4.97s-.6-3.3-1.2-4.81c-.1-.25-.14,.35-.14,.43-.05,.63-.03,1.26-.02,1.89,.01,.76-.02,1.49-.58,2.05-.03,.03,.02,.12,0,.15h0Z"/><path class="cls-5" d="M1005.42,381.04c-.02-.08-.09,.16-.09,.15-.03,.11-.04,.24-.06,.36l-.1,.65-.2,1.29-.4,2.59c-.1,.63-.05,1.34-.02,1.98,0,.14,.01,1.27,.17,1.28,1.63,.14,2.85-1.36,3.12-2.84,.15-.84,.14-1.72,.12-2.57s-.06-1.73-.2-2.58c-.17-1.05-.51-2.07-.97-3.04l.05,3.51c.13,.11,.16-.04,.31-.03,.08,0,.17,.04,.25,.06,.21,.04,.4,.08,.61,.14,.44,.13,.89,.17,1.34,.16,.03,0,.07-.97-.03-1.02-.51-.28-.99-.62-1.41-1.02-.22-.21-.4-.45-.57-.71-.11-.17-.23-.34-.32-.52-.11-.21-.14-.43-.27-.63-.02-.02-.09,.62-.09,.53-.02,.34-.02,.68-.01,1.03,0,.38,.02,.76,.04,1.14,.02,.27,.02,.56,.1,.82,.27,.78,.57,1.55,.78,2.35,.04,.16,.08,.32,.1,.48,0,0,.03,.2,.02,.11-.46-2.52,.06-2.35-.05-1.66-.05,.29-.14,.58-.26,.84-.48,1.1-1.52,2.01-2.76,1.95l.15,3.26,.54-3.64c.09-.61,.21-1.22,.26-1.84s.03-1.31,0-1.95c-.01-.2,.02-.51-.07-.7,0-.04-.02-.08-.04-.11-.04,.05-.05,.11-.05,.18h0Z"/><path class="cls-5" d="M1047.22,407.54c-1.07-.25-2.06-.68-3.15-.86-1.16-.19-2.22-.04-3.36,.26-1.84,.49-3.55,1.37-5.01,2.59-2.55,2.13-4.26,5.19-4.92,8.43-1.34,6.64,1.17,13.43,7.23,16.79,3.13,1.74,6.87,2.36,10.35,1.4,3.22-.89,6.5-3.02,8.5-5.71,2.28-3.07,2.53-6.68,2.33-10.4s-1.13-7.29-3.54-10.17c-2.58-3.08-6.99-4.85-10.99-4.38-2.6,.31-5.04,1.28-7.44,2.27-2.61,1.08-5.12,2.44-7.54,3.89-.08,.05,.03,.47,.01,.48,3.57-1.46,7.16-3.18,11.06-3.48,3.48-.27,7.29,.29,10.31,2.13,2.67,1.63,5.05,4.33,6.46,7.11,.34,.66,.62,1.35,.85,2.06,.11,.35,.21,.71,.29,1.07,.02,.1,.03,.43,.1,.51-.15-.17,.11-1.24-.05-.42-.31,1.69-.72,3.36-1.45,4.93-1.4,3.01-3.62,5.81-6.65,7.28-2.77,1.34-5.9,1.67-8.89,.96-6.23-1.48-12.12-7.6-10.87-14.36,.64-3.47,2.56-6.72,5.29-8.95,1.42-1.16,3.06-2.01,4.82-2.51,.96-.27,1.96-.42,2.93-.63,1.05-.23,2.29-.41,3.34-.13,0,0,.02-.15,0-.15h0Z"/><path class="cls-5" d="M1012.43,410.05c.1-1.4,1.45-2.13,2.58-2.67,1.21-.58,2.45-1.09,3.71-1.55,2.59-.95,5.27-1.67,7.98-2.16,5.3-.96,10.77-1.01,16.08-.15,9.88,1.61,19.11,6.54,26,13.79,3.82,4.02,6.8,8.76,9.05,13.81l-.04-2.24c-8.84,5.87-19.93,8.04-30.35,6.13-4.87-.89-9.74-3.07-13.92-5.71s-7.78-5.9-10.79-9.7c-3.45-4.36-5.88-9.32-7.41-14.66-.03-.11-.14,1.07-.14,1.22,0,.7-.02,1.45,.15,2.14,2.32,9.44,8.43,18.04,16.43,23.52,8.47,5.8,19.28,7.77,29.36,6.1,5.99-1,11.72-3.3,16.72-6.75,.23-.16,.08-1.99-.04-2.24-3.97-8.79-11.1-16.28-19.45-21.05-9.42-5.38-20.61-7.15-31.27-5.22-3.08,.56-6.09,1.43-8.99,2.62-1.95,.8-5.55,1.82-5.72,4.35,0,.08,.04,.65,.05,.42h0Z"/><path class="cls-5" d="M1036.07,405.58c-5.42,.06-7.23,7.83-7.69,12.06s.13,9.08,3.75,11.91c-.04-.03,.06-.3,0-.36-3.98-3.44-4.32-8.97-3.19-13.8,.85-3.66,2.73-9.16,7.14-9.56,.02,0,.01-.24,0-.24h0Z"/><path class="cls-5" d="M907.24,391.75c-.31-.02-1.91-.58-2.16-.42,.27-.18,1.69,.17,1.98,.2,1.69,.19,3.37,.39,5.06,.6,3.29,.4,6.57,.83,9.85,1.29,6.4,.89,12.79,1.85,19.16,2.91,12.9,2.15,25.73,4.73,38.46,7.73,7.22,1.7,14.41,3.57,21.58,5.46,0,0,.01-.12,0-.12-12.26-3.53-24.7-6.46-37.19-9.06s-25.06-4.86-37.69-6.57c-7.19-.97-14.41-1.81-21.63-2.53v.03c.87,.19,1.78,.31,2.6,.64,0,0,.01-.15,0-.15h0Z"/><path class="cls-5" d="M1068.68,438.71c-1.58-1.06-2.95-2.54-4.42-3.76v.43c17.66,4.62,35.2,9.73,52.57,15.33s34.7,11.76,51.77,18.42c9.57,3.74,19.08,7.64,28.51,11.7-.09-.04,.08-.65-.02-.72-1.68-1.16-3.4-2.26-5.12-3.36,.05,.04-.05,.32,0,.36,1.7,1.26,3.39,2.52,5.13,3.72l-.02-.72c-16.76-7.21-33.72-13.91-50.88-20.09s-34.66-11.89-52.24-17.05c-9.84-2.88-19.77-5.51-29.72-8.02,.02,0-.04,.39,.01,.43,1.44,1.17,3.08,2.19,4.42,3.48-.02-.02,.03-.13,0-.15h0Z"/><path class="cls-5" d="M799.63,385.92c-1.95,.28-4.08,.04-6.05,.03s-4.04,0-6.05,.03c-4.03,.05-8.07,.15-12.1,.3-8.06,.3-16.12,.89-24.15,1.65-16.15,1.53-32.22,3.88-48.13,7.02-8.95,1.77-17.85,3.78-26.67,6.1-.01,0,0,.12,0,.12,15.66-3.91,31.46-7.18,47.42-9.59,16.05-2.42,32.19-3.92,48.39-4.83,4.51-.25,9.03-.44,13.55-.57,2.26-.06,4.52-.11,6.78-.14s4.77-.32,7.02,.03c0,0,0-.15,0-.15h0Z"/><path class="cls-5" d="M742.89,383.68c-7.75,9.4-15.73,18.73-25.17,26.49-9.64,7.92-20.55,13.56-32.77,16.28-12.95,2.88-26.33,2.95-39.53,2.89-14.5-.06-29-.4-43.49-1.03-16.3-.71-32.6-1.78-48.86-3.16,0,0-.01,.18,0,.18,28.88,2.64,57.88,4.04,86.88,4.3,13.39,.12,26.94,.34,40.19-1.9,12.49-2.12,24.06-6.87,34.18-14.53,10.95-8.29,19.92-18.87,28.56-29.46,.01-.01,0-.05,0-.06h0Z"/><path class="cls-5" d="M703.81,285.35c.04,.71-1.9,.16-.87-.87,.51-.51,1.62-.09,2.16,.13,1.93,.8,3.79,1.78,5.72,2.57,3.87,1.59,7.85,2.96,11.9,4.01,8.13,2.12,16.64,3.18,25.04,2.98,.01,0,0-.18,0-.18-8.16-.05-16.24-.93-24.16-2.93-3.9-.98-7.75-2.15-11.51-3.58-1.91-.73-3.8-1.52-5.66-2.37-.8-.37-3.15-1.75-3.77-.42-.37,.79,1.21,1.58,1.15,.65,0-.04,0,0,0,.02h0Z"/><path class="cls-5" d="M539.31,344.85c.15-.51,.15-.87-.29-1.28-1.24-1.18-2.53,.31-3.14,1.34-2.12,3.63-3.88,7.53-5.61,11.35-3.5,7.78-6.42,15.82-8.75,24.03-1.33,4.7-2.47,9.46-3.42,14.25,0,.04,.01,.18,.02,.15,1.92-9.63,4.63-19.08,8.08-28.28,1.69-4.52,3.56-8.97,5.61-13.33,1.04-2.22,2.12-4.41,3.25-6.59,.51-.99,1.01-2.31,1.96-2.98,.36-.26,.77-.41,1.21-.34,.6,.1,1.48,.77,1.05,1.52-.02,.04,0,.16,.01,.14h0Z"/><path class="cls-5" d="M547.85,339.41c-4.21,3.65-7.27,8.33-9.78,13.26-2.64,5.19-4.86,10.62-6.92,16.07-2.2,5.83-4.11,11.78-5.75,17.79-.82,3.01-1.58,6.03-2.26,9.08-.46,2.02-.9,4.04-1.02,6.11-.2,3.59,.41,8.21,4.32,9.54,0,0,.05-.22,0-.24-4.5-1.7-4.64-7.33-4.03-11.36,.8-5.31,2.37-10.61,3.86-15.76,3.05-10.52,6.82-21.03,11.73-30.84,2.52-5.04,5.6-9.84,9.87-13.59,.01,0,0-.06,0-.06h0Z"/><path class="cls-5" d="M668.2,330.71c-.99,1.16-2.07,2.17-2.96,3.43s-1.61,2.54-2.28,3.89c-1.42,2.89-2.56,5.94-3.69,8.95-2.37,6.35-4.39,12.83-6.05,19.41-3.2,12.65-5.08,25.63-5.6,38.67-.29,7.34-.16,14.69,.42,22.02,.02,.21,.06,.02,.05-.08-1.99-26.37,1.58-53.05,10.56-77.93,1.16-3.22,2.37-6.44,3.79-9.55,.7-1.54,1.45-3.06,2.34-4.49s2-3.17,3.41-4.16c.04-.03,0-.15,0-.15h0Z"/><path class="cls-5" d="M679.25,335.04c.16-1.68-1.72-2.73-3.24-2.3-1.25,.35-2.1,1.54-2.69,2.62-.88,1.63-1.54,3.4-2.24,5.11-2.78,6.82-5.02,13.83-6.88,20.96-3.77,14.52-5.96,29.39-7.76,44.26-.9,7.42-2.08,15.18,.32,22.45,.01,.04,.03-.16,.02-.21-2.34-7.27-1.12-14.99-.22-22.39,.8-6.59,1.69-13.18,2.75-19.74,2.16-13.29,5.09-26.48,9.58-39.19,1.22-3.45,2.52-6.9,4.04-10.23,.62-1.35,1.46-2.92,2.94-3.45,1.4-.5,3.54,.32,3.37,2.08,0,0,0,.06,0,.04h0Z"/><path class="cls-5" d="M750.71,393.71c-.57-.83-1.01-1.77-1.5-2.65,0,0,0,.04,0,.05,.82,8.89,3.01,17.61,6.54,25.81,1.71,3.98,3.71,7.84,6.02,11.5,2.14,3.39,4.76,6.78,8.43,8.62s8.52,1.85,11.63-1.15c.04-.04,0-.24-.02-.23-2.76,2.55-6.88,2.82-10.3,1.59-3.87-1.39-6.73-4.66-8.96-7.98-5.12-7.61-8.78-16.33-11.05-25.2-.65-2.55-1.2-5.14-1.61-7.74-.19-1.16-.35-2.32-.48-3.49-.02-.15-.14-.69-.1-.88,.16-.64,.19-.32,.44,.13,.33,.59,.67,1.16,.96,1.77,0-.01,.03-.11,0-.15h0Z"/><path class="cls-5" d="M756.67,389.57c1.1,4.31,2,8.64,3.35,12.89s2.99,8.5,4.84,12.61c1.82,4.03,3.87,7.96,6.13,11.76,2.13,3.58,4.36,7.21,7.16,10.31s6.37,5.68,10.7,5.71c.02,0,.02-.18,0-.18-8.05-.18-13.08-8.34-16.82-14.43-4.6-7.47-8.34-15.45-11.22-23.73-1.7-4.87-3.28-9.94-4.12-15.04-.02-.1-.03,.06-.02,.09h0Z"/><path class="cls-5" d="M871.38,289.48c-13.33,15.26-22.69,33.81-27.12,53.58-1.21,5.39-2.04,10.85-2.51,16.35,0,.03,.02,.2,.03,.09,1.72-20.03,8.51-39.56,19.43-56.43,3.07-4.74,6.48-9.27,10.17-13.54,0-.01,0-.06,0-.06h0Z"/><path class="cls-5" d="M881.65,294.69c.02-.41-.03-.7-.37-1.01-.95-.88-2.11-.14-2.82,.63-1.9,2.07-3.49,4.54-5.12,6.82-3.57,5.03-6.84,10.26-9.85,15.65-6,10.74-10.91,22.09-14.64,33.81-.96,3.02-2.13,6.16-2.52,9.32-.23,1.94-.09,3.93,1.21,5.48,0,0,.04-.18,0-.23-2.2-2.77-.92-6.52-.04-9.57,.76-2.65,1.59-5.28,2.47-7.89,1.68-4.96,3.58-9.85,5.68-14.64,4.21-9.61,9.27-18.79,15-27.57,1.6-2.46,3.26-4.88,4.98-7.26,.91-1.26,1.79-2.6,2.83-3.76,.43-.48,.93-.98,1.61-1.06,.75-.09,1.61,.38,1.56,1.25,0,.01,0,.07,0,.03h0Z"/><path class="cls-5" d="M863.23,291.04c-.13-1.72-.27-3.43-.38-5.15,0,0-.03-.14-.03-.14-2.09,2.02-3.85,4.53-5.61,6.84s-3.53,4.76-5.18,7.22c-3.39,5.03-6.47,10.27-9.23,15.67-5.48,10.73-9.66,22.09-12.41,33.82-1.39,5.91-2.83,12.4-.6,18.29,.01,.04,.04-.2,.02-.26-2.43-6.75-.24-14.26,1.52-20.93,1.53-5.78,3.4-11.48,5.6-17.04,4.26-10.81,9.75-21.13,16.34-30.7,1.85-2.68,3.78-5.3,5.8-7.86,1.01-1.27,2-2.88,3.23-3.95,.39-.34,.34-.55,.58-.14,.2,.34,.1,1.21,.13,1.6,.08,.92,.15,1.83,.23,2.75,0,.03,0-.01,0-.02h0Z"/><path class="cls-5" d="M814.2,312.27c-.92-1.17,.88-2.12,1.63-2.4,.93-.35,1.86-.35,2.84-.33,2.62,.03,5.24,.08,7.87,.15,5.16,.14,10.32,.37,15.47,.68,10.38,.63,20.76,1.58,31.09,2.84,5.85,.71,11.69,1.54,17.52,2.47,0,0,0-.12,0-.12-22.58-3.74-45.37-5.76-68.26-6.04-1.57-.02-9.69-.77-8.15,2.9-.01-.02,.02-.12,0-.15h0Z"/><path class="cls-5" d="M803.53,322.32c1.36-.38,2.87-.41,4.27-.55,1.58-.16,3.17-.3,4.76-.43,2.94-.24,5.88-.42,8.82-.55,5.97-.26,11.94-.31,17.91-.14,11.94,.35,23.85,1.47,35.62,3.5,6.59,1.14,13.13,2.55,19.6,4.22,0,0,.01-.12,0-.12-23.13-6.06-47.09-8.72-70.99-7.7-3.26,.14-6.52,.34-9.77,.62-1.67,.14-3.33,.29-5,.47s-3.51,.59-5.22,.53c-.01,0,0,.15,0,.15h0Z"/><path class="cls-5" d="M900.36,328.61c1.98-.35,4.29,0,6.28,.2s4.16,.53,6.22,.94c4.14,.83,8.21,2,12.22,3.34,7.99,2.66,15.84,5.81,23.65,8.97,15.73,6.37,31.23,13.26,46.44,20.79,8.63,4.27,17.16,8.73,25.59,13.38-.02,0,.02-.11,0-.12-14.86-8.23-30.03-15.88-45.48-22.93s-31.09-13.6-47.08-19.17c-4.5-1.57-9.07-2.99-13.74-3.99-2.28-.49-4.58-.88-6.89-1.14-1.16-.13-2.32-.23-3.48-.28-1.23-.06-2.52,.05-3.74-.13,0,0,0,.15,0,.15h0Z"/><path class="cls-5" d="M912,344.71c2.03,.05,4.21,.77,6.2,1.19,2.14,.45,4.27,.93,6.41,1.42,4.19,.96,8.36,2,12.52,3.1,8.24,2.18,16.4,4.65,24.49,7.33,16.23,5.38,32.11,11.82,47.5,19.26,8.68,4.2,17.2,8.71,25.55,13.54-.02-.01,.03-.16,0-.18-14.81-8.57-30.16-16.19-45.96-22.78s-32-12.12-48.52-16.54c-4.66-1.24-9.33-2.4-14.03-3.47-2.28-.52-4.56-1.02-6.84-1.5s-5.03-.71-7.31-1.53c0,0,0,.15,0,.15h0Z"/><path class="cls-5" d="M981.42,339.4c-1.6,1.26-3.01,2.38-4.2,4.07s-2.2,3.61-3.21,5.46c-2.36,4.29-4.64,8.62-6.83,13-4.4,8.79-8.42,17.75-12.11,26.86-.01,.03,.01,.1,0,.12,3.64-8.93,7.62-17.73,11.9-26.38,2.11-4.27,4.31-8.49,6.58-12.68,1.04-1.91,2.04-3.85,3.22-5.67,1.08-1.67,2.66-3.94,4.64-4.62,.03-.01-.02-.14,0-.15h0Z"/><path class="cls-5" d="M989.43,341.87c-6.64,2.47-10.4,8.96-13.41,14.97-3.98,7.97-7.58,16.14-10.79,24.45-1.83,4.74-3.51,9.54-5.08,14.38-.02,.05,.02,.15,0,.17,2.74-8.34,5.84-16.57,9.3-24.64,1.75-4.08,3.6-8.12,5.54-12.12,1.61-3.31,3.25-6.63,5.38-9.64,2.32-3.27,5.25-6.08,9.05-7.52,0,0,0-.06,0-.06h0Z"/><path class="cls-5" d="M454.38,367.7c-.69,.22-1.89,.89-2.6,.84,.56,.04,1.61-.52,2.25-.75,1.79-.65,3.58-1.3,5.37-1.93,3.59-1.27,7.18-2.51,10.79-3.72,7.07-2.36,14.18-4.62,21.32-6.77,14.45-4.35,29.05-8.19,43.77-11.49,8.22-1.84,16.47-3.57,24.74-5.15,.03,0,0-.24,0-.24-28.91,5.03-57.53,12.36-85.33,21.77-7.84,2.65-15.62,5.46-23.35,8.42-.02,0,0,.1,0,.1l3.03-1.01s0-.06,0-.06h0Z"/><path class="cls-5" d="M473.82,367.43c1.19-1.25,2.19-2.38,2.51-4.16,.18-.99,.12-1.98-.11-2.96,0,0,0-.02-.01-.01-8.35,11.36-12.92,25.21-13.26,39.29,0,.1,.03,.29,.04,.08,.22-8.09,1.85-16.1,4.82-23.63,1.42-3.6,3.13-7.11,5.1-10.44,.44-.75,.9-1.49,1.36-2.22,.31-.49,.63-.97,.95-1.45,.11-.17,.56-.99,.74-1.07,1.12-.49-.03,3.73-.34,4.31-.42,.8-1,1.67-1.82,2.1-.04,.02,.02,.14,0,.15h0Z"/><path class="cls-5" d="M482.63,359.54c-.03-1.16-.07-2.31-.1-3.47,0,0,0-.07-.01-.06-7.57,13.31-11.8,28.26-12.51,43.55,0,.04,.02,.27,.03,.12,.38-8.24,1.81-16.41,4.27-24.28,1.16-3.74,2.52-7.41,4.1-10.99,.79-1.79,1.63-3.56,2.53-5.3,.11-.21,1.16-2.59,1.38-2.59,.42,0,.31,2.61,.32,3.02,0,.03,0,.03,0,0h0Z"/><path class="cls-5" d="M329.98,359.64c1.82,1.38,3.37,3.26,5.04,4.82s3.46,3.16,5.24,4.69c3.56,3.06,7.23,5.97,11.02,8.73,7.57,5.52,15.58,10.48,23.95,14.68,4.69,2.35,9.48,4.48,14.36,6.4,0,0,.02-.11,0-.12-17.24-6.92-33.43-16.49-47.7-28.39-1.96-1.63-3.88-3.31-5.77-5.02-2.06-1.88-4.4-3.77-6.14-5.95,0,0-.03,.12,0,.15h0Z"/><path class="cls-5" d="M360.28,449c1.43,.12,2.84,.54,4.29,.66s2.89,.13,4.33,.04c3-.18,5.94-.78,8.83-1.58,5.31-1.48,10.51-3.44,15.57-5.6s9.95-4.59,14.71-7.3c2.34-1.33,4.65-2.71,6.93-4.12s4.41-2.98,6.69-4.34c2.4-1.43,4.78-2.88,7.1-4.44,1.21-.81,2.4-1.64,3.58-2.5,.42-.3,1.01-.6,1.31-1.03,.52-.75,.49-2,.51-2.86,0-.39,.21-2.89-.27-3.06-.98-.34-1.2,2.45-.85,2.94l.03,.03,.15-.03c.15-.03,.09-1.35-.01-1.47l-.13-.14-.04,1.6c.19-.13,.37-.04,.55,.07l-.2-1.81v.73l.27-2.12c-.46,.2-.78,.72-1.13,1.09-.48,.51-.96,1.01-1.44,1.52-2.31,2.42-4.71,4.76-7.15,7.04-2.02,1.88-4.1,3.57-6.34,5.18-4.04,2.92-8.23,5.59-12.58,8.02-8.56,4.78-17.66,8.9-27.06,11.73-2.8,.84-5.69,1.54-8.59,1.92s-6.35,.68-9.06-.32c0,0-.02,.15,0,.15h0Z"/><path class="cls-5" d="M414.16,411.37c12.06,2.76,24.46,4.17,36.83,3.99,12-.18,23.8-2.51,35.77-2.85,3.27-.09,6.55,0,9.79,.38,1.65,.2,3.29,.47,4.92,.84,.73,.16,1.51,.3,2.21,.56,.95,.36,1.64,1.18,2.64,1.42-.12-.03,.37-3.18-.08-3.31-.29-.08-.66-.36-.93-.41-.1-.07-.19-.16-.27-.24-.08,.72-.05,.82,.07,.3,.11-.36-.15-1.11-.06-1.33-.58,1.46-.16,4.21,1.27,4.99l-.08-3.31c-.78-.34-1.36-.11-2.17-.15-.67-.04-1.33-.28-1.98-.42-1.47-.33-2.96-.58-4.45-.76-2.86-.35-5.74-.45-8.62-.39-5.96,.12-11.88,.91-17.77,1.7-12.1,1.61-24.18,2.46-36.38,1.67-6.95-.45-13.86-1.37-20.7-2.73,0,0,0,.06,0,.06h0Z"/><path class="cls-5" d="M539.63,404.1c-.79-.35-1.51-.88-2.3-1.26-.9-.43-1.85-.74-2.82-.97-1.75-.42-3.56-.57-5.36-.46-3.7,.23-7.27,1.59-10.11,3.99-1.64,1.38-3.05,3.01-4.63,4.45-1.45,1.32-3.06,2.45-4.8,3.38-3.39,1.8-7.14,2.79-10.91,3.36-4.42,.67-8.9,.78-13.36,.85-.01,.02-.02,.03-.02,.06-.86,5.32,2.19,9.73,5.44,13.63,3.57,4.29,9.2,11.67,3.37,16.63-.11,.09,0,1.05,.03,1.05,17.73-3.19,32.5-14.89,50.18-18.24,2.4-.46,5.05-.27,7.47-.06,1.22,.11,2.43,.27,3.64,.48,.68,.12,1.37,.26,2.04,.43,.73,.18,1.28,.13,2.03,.02l.05-.07c.4-1.51,.8-3.02,1.23-4.53,.11-.4-.17-1.44-.08-1.62-.31,.65-.77,2.13-1.45,2.26-.46,.09-1.13-.34-1.65-.37-.67-.03-1.36,0-2.03,.04-2.36,.11-4.7,.45-7,.96-4.58,1.01-9.18,2.11-13.61,3.66-8.87,3.11-17.11,7.68-25.77,11.28-4.87,2.03-9.87,3.73-15.07,4.69l.03,1.05c3.59-3.08,3.02-8.89,.97-12.67-1.57-2.89-3.92-5.25-5.94-7.82-.97-1.24-1.87-2.54-2.57-3.95-.38-.76-.71-1.55-.95-2.37s-.74-2.89-.34-3.36,.69-.37,1.23-.39c6.32-.15,12.81-.46,18.84-2.55,2.93-1.01,5.71-2.47,8.09-4.46s4.45-4.73,7.14-6.56,6.12-2.87,9.47-2.94c1.61-.03,3.22,.14,4.79,.54s3.47,.94,4.75,1.97c-.02-.01,.03-.14,0-.15h0Z"/><path class="cls-5" d="M562.03,428.82c-1.16-1.94-2.2-4.08-3.62-5.84l.07,2.95c33.44,7.06,66.93,13.98,100.82,18.52,33.76,4.52,67.7,6.28,101.73,4.4,34.23-1.9,68.2-6.89,101.85-13.25,16.63-3.15,33.26-6.76,50.2-7.78,15.11-.91,30.32,.46,45.03,4.02,14.63,3.54,28.38,9.35,41.54,16.6,3.12,1.72,6.2,3.53,9.16,5.5s5.98,3.95,9.44,4.76c5.3,1.23,11.54-1.87,11.58-7.84,0-1.3-.1-2.47-.7-3.66,.21,.43-.18,1.17,.04,1.62,.39,.79,.56,1.36,.66,2.29l-.04-1.62c-.04,3.04-2.2,5.61-4.87,6.87-2.97,1.39-6.29,.8-9.2-.46-3.22-1.39-6.09-3.52-8.93-5.55s-5.91-4.02-8.97-5.87c-12.41-7.52-26.5-12.72-40.58-16.08s-28.79-4.73-43.33-3.96c-16.32,.87-32.37,4.19-48.39,7.23-32.59,6.18-65.46,11.17-98.58,13.36-33.08,2.2-66.13,1.11-99.04-2.87-32.69-3.95-65.02-10.31-97.29-16.74-4.07-.81-8.14-1.63-12.2-2.44-.06-.01-.16,2.66,.07,2.95,.95,1.16,2.36,2.03,3.55,2.96,0,0,0-.05,0-.06h0Z"/><path class="cls-5" d="M507.45,443.77c3.01,1.53,6.5,2.26,9.66,3.5s6.23,2.66,9.2,4.27c5.53,2.99,10.67,6.58,17.05,7.44,5.37,.72,10.68-1.9,14.66-5.28,4.4-3.73,7.92-8.36,12.3-12.1,4.87-4.17,11.17-7.02,17.61-4.99,.18,.06,.21-2.78,.21-2.99-.02-.62,.2-2.53-.35-2.98-.26-.22-.53-.43-.79-.65-.61-.51-.38-.02-.96,.25-.37,.17-.34,.14-.77-.03-.32-.13-.65-.26-.98-.39,.06,.03-.23,2.22,.06,2.52,.91,.94,1.56,1.74,2.13,2.99,.33,.71,.79,.87,1.45,1.29l-.15-5.98c-6.12-.93-11.4,2.44-15.95,6.14s-8.1,8.43-12.31,12.51c-3.85,3.73-8.52,7.54-14.01,8.17-6.42,.73-11.88-2.83-17.26-5.84-3.19-1.78-6.48-3.37-9.88-4.73-1.71-.68-3.44-1.31-5.18-1.88-1.83-.6-3.8-1.28-5.74-1.27,0,0,0,.06,0,.06h0Z"/><path class="cls-5" d="M357.29,449.63c1.38-.23,2.84-.05,4.25-.22,1.55-.19,3.1-.4,4.64-.63,2.8-.42,5.6-.89,8.38-1.43,5.72-1.1,11.3-2.69,16.85-4.44s10.67-3.56,15.86-5.86,10.47-4.67,15.48-7.42c2.82-1.55,5.42-3.5,8.26-5s5.25-3.24,7.94-4.75c.62-.35,.31-3.1,.29-3.69-.02-.87-.06-1.74-.18-2.6-.04-.29-.04-.89-.3-1.07-.74-.52-1.03-1.55-1.33-2.37l-.15-.19c-.18,.23-.74,1.06-.97,1.14-.19,.06-.75-.06-.95-.08-.59-.09-1.1-.25-1.7-.27-.23,0-.1,3.01,.04,3.3,.5,1.07,1.07,2.05,1.73,3.03,.84,1.24,1.39,2.33,1.98,3.72,.1,.26,.19,.26,.28,0,.3-.54,.59-1.04,1.25-.9l-.18-7.37c-2.24,2.25-4.79,4.22-7.19,6.29-2.21,1.91-4.67,3.49-7.13,5.08-5.01,3.23-9.99,6.53-15.33,9.2s-10.44,4.81-15.75,7c-5.42,2.23-11.12,3.79-16.77,5.32-3.18,.86-6.38,1.63-9.61,2.26-1.54,.3-3.09,.58-4.64,.83-.84,.14-1.7,.24-2.54,.43s-1.67,.5-2.54,.55c-.02,0,0,.15,0,.15h0Z"/><path class="cls-5" d="M423.92,413.74c2.33,1.33,5.39,1.69,8.03,2.14s5.39,.77,8.1,.97c5.41,.41,10.93,.05,16.34-.34,10.94-.79,21.8-2.45,32.8-2.15,3.02,.08,6.03,.31,9.03,.72,1.42,.2,2.84,.51,4.27,.57,1.64,.07,2.68-.91,3.62-2.19,.09-.12,0-1.2-.03-1.2-1.07,.17-2.05-.23-3.11-.25-1.18-.03-2.33-.2-3.5-.38-2.69-.41-5.4-.67-8.11-.81-5.45-.27-10.92-.04-16.36,.38-10.93,.84-21.81,2.41-32.77,2.83-3,.11-5.98,.27-8.99,.17-1.56-.05-3.13-.14-4.68-.29s-3.11-.51-4.65-.33c-.01,0-.01,.14,0,.15h0Z"/><path class="cls-5" d="M452.86,363.75c2.1-1.33,4.57-2.23,6.83-3.24s4.6-2.02,6.9-3.03c4.7-2.07,9.44-4.02,14.23-5.86,9.48-3.65,19.12-6.86,28.87-9.69,19.6-5.69,39.62-9.84,59.79-12.95s40.64-5.2,61.07-6.72c20.91-1.56,41.84-2.51,62.79-3.13,22.55-.67,45.21-.75,67.65,1.89,2.78,.33,5.55,.7,8.32,1.11-.08-.01,.29-3.24-.08-3.34-1.08-.3-2.21-.34-3.25-.81-.99-.44-1.82-1.18-2.53-1.98,.14,.16-.11,.74,.02,.96,1.25,2.01,3.44,4.57,5.84,5.18l-.08-3.34c-22.4-2.82-45.02-2.71-67.54-1.72-21.18,.93-42.38,2.25-63.53,3.74s-40.87,3.37-61.16,6.28-40.33,6.78-60.05,12.15c-19.58,5.33-39.05,11.97-57.27,20.97-2.25,1.11-4.48,2.53-6.83,3.4-.03,.01,.01,.15,0,.15h0Z"/></g></svg>