<?xml version="1.0" encoding="UTF-8"?><svg id="Layer_1" xmlns="http://www.w3.org/2000/svg" viewBox="0 0 1500 750"><defs><style>.cls-1{fill:#213939;}.cls-2{fill:#c8dbda;}.cls-3{fill:#759f9f;}.cls-4{fill:#231f20;}</style></defs><g><path class="cls-3" d="M431.85,451.8l270.2,1.23,202.32-3.89s101.74-5.88,104.68-7.93,125.37-17.24,122.54-23.7l-2.83-6.46s70.74-15.38,71.24-31.53c.5-16.15-134.15-34-134.15-34,0,0-164.14-19.6-175.43-32.07-11.29-12.47-41.93-50.96-74.49-64.46-32.56-13.5-41.3-17.27-39.29-5.28s26.87,64.04,9.64,83.27l-248.45,72.29-91.11,19.87s-18-31.76-59.63-57.7c-41.63-25.94-90.88-72.22-85.93-85.73,0,0,61.89,130.8,84.01,150.29,22.11,19.48,14.5,45.18,10.57,51.73-3.93,6.55-17.92,48.34-4.73,33.74,13.19-14.6,40.85-59.66,40.85-59.66Z"/><path class="cls-3" d="M918.81,446.85c-2.95-.62-6.3,1.16-7.07,4.17-.27,1.06,2,3.58,3.1,3.26,4.75-1.4,9.37-3.14,13.89-5.16l-3.53-3.71c-4.56,2.49-9.13,4.98-13.7,7.46-1.11,.61,2.34,4.62,3.6,4.2,3.69-1.23,7.38-2.46,11.07-3.69l-3.84-4.48c-3.86,4.11-8.66,7.25-13.99,9.08l4.27,4.97c.76-1.36,1.54-2.71,2.27-4.09,.6-1.13-.68-2.6-1.42-3.37-.6-.63-2.29-2.3-3.3-1.58-5,3.56-10.54,6.27-16.43,8.02s-11.8,2.87-17.8,2.65l3.47,4.47c6.77-1.29,13.31-3.47,19.77-5.81s13.12-4.81,19.68-7.22c12.81-4.71,25.79-9.11,38.39-14.36,6.69-2.79,13.24-5.97,19.34-9.9l-4.77-3.92c-.86,4.89-5.53,7.63-9.53,9.82-5.28,2.9-10.71,5.51-16.23,7.9-11.01,4.76-22.38,8.62-33.84,12.15-6.62,2.04-13.26,4-19.89,5.99-1.93,.58,1.63,5.84,3.35,5.44,24.12-5.64,47.81-12.81,70.82-22.01,6.29-2.52,12.64-4.98,18.5-8.4,1.09-.64-2.15-4.66-3.32-4.26-5.88,2-11.54,4.52-17.29,6.85s-11.38,4.47-17.13,6.53c-11.5,4.12-23.17,7.79-34.97,10.99-6.61,1.79-13.26,3.43-19.96,4.86l3.35,5.44c23.68-6.73,47.58-14.01,69.3-25.85,4.83-2.63,10.73-5.87,11.74-11.83,.25-1.5-3.33-4.86-4.77-3.92-10.9,7.05-23.15,11.53-35.26,16.01-12.95,4.79-25.89,9.6-38.85,14.38-7.16,2.65-14.38,5.21-21.9,6.65-1.13,.22,.09,2.02,.41,2.43,.72,.93,1.81,1.99,3.06,2.04,6.37,.24,12.65-.14,18.78-1.99s11.62-4.58,16.69-8.19l-4.72-4.95c-.74,1.39-1.44,2.81-2.16,4.21-.51,1,.47,2.22,1.1,2.95,.54,.62,2.17,2.42,3.18,2.03,5.48-2.12,10.3-5.44,14.18-9.86,1.05-1.19-2.55-4.95-3.84-4.48-3.62,1.33-7.23,2.65-10.85,3.98l3.6,4.2c4.45-2.61,8.9-5.22,13.35-7.83,1-.59-2.16-4.38-3.53-3.71-4.25,2.06-8.63,3.82-13.11,5.29l3.1,3.26c.58-2.57,2.95-4.39,5.62-3.78,.95,.22,.53-.93,.29-1.36-.44-.77-1.36-1.77-2.28-1.96h0Z"/><path class="cls-3" d="M686.82,457.07c-1.88-2.73-5.17-4.51-8.52-4.22-.27,.02-.46,.05-.52,.35-.76,3.62,2.07,6.51,4.6,8.66,1.36,1.16,2.84,2.16,4.27,3.23,.25,.19,.93,.53,1.06,.81-.13-.35-.26-.46-.39-.34,.08,.09,.12,.2,.14,.33,0,.57,.24,.98-.48,1.14l3.56,1.97c-1.85-2.28-2.21-5.32-1.52-8.11l-4.2-1.62c3.23,3.78,6.45,7.57,9.68,11.35,.54,.63,3.44,3.43,4.41,2.1,1.73-2.36,.85-5.42-.72-7.62-2.03-2.83-5.11-4.58-8.16-6.13l2.42,4.37c10.49,.11,21.07-1.73,31.01-5.03,1.35-.45-.34-2.46-.81-2.95-.83-.85-2.68-2.42-4.03-1.98-5.46,1.75-10.9,3.55-16.36,5.28-2.56,.81-5.24,1.47-7.73,2.48-.84,.34-1.82,.84-2.36,1.59-.72,1-.53,1.98-.13,3.06,.52,1.43,3.15,4.07,4.88,3.6,2.68-.72,5.27-1.67,7.79-2.85,1.28-.6-.04-2.39-.59-3.05-3.54-4.22-8-7.56-13.07-9.7l2.97,5.19c2.83,.09,5.68-.03,8.48-.45,1.32-.2,2.63-.45,3.92-.77s2.46-1.14,3.55-1.91c.72-.51-.76-2.15-1.04-2.44-.71-.71-1.72-1.55-2.8-1.45-1.38,.13-2.8,.14-4.15,.43s-2.58,.58-3.9,.78c-2.54,.39-5.09,.54-7.66,.45-1.36-.05-1.1,1.15-.61,2.03,.78,1.38,2.12,2.54,3.57,3.16s2.92,1.45,4.13,2.34c1.3,.96,2.25,1.89,3.25,3.07l-.59-3.05c-2.54,1.19-5.16,2.17-7.86,2.93l5.1,4.2c-.41-1.7,3.11-2.44,4.18-2.8,2.47-.82,4.94-1.66,7.41-2.47,4.81-1.58,9.63-3.16,14.44-4.75l-4.84-4.93c-9.67,3.31-19.65,4.94-29.85,5.21-1.06,.03-1.06,.85-.64,1.64,.64,1.19,1.86,2.17,3.06,2.74,.68,.33,1.37,.64,2.02,1.03,.34,.21,.66,.41,.79,.57,.93,1.17,.76,3.04-.03,4.2l4.41,2.1c-3.32-3.79-6.65-7.58-9.97-11.38-.49-.56-3.8-3.45-4.2-1.62-.86,3.9,.41,7.92,2.98,10.92,.7,.82,2.3,2.33,3.56,1.97,2.25-.64,.85-3.58-.05-4.78-1.44-1.93-3.7-3.11-5.62-4.49-1.49-1.06-3.1-2.22-3.81-3.98-.19-.48-.34-1.02-.35-1.54-.01-.75,.35-.65,1.04-.65,1.37,.02,2.58,.45,3.49,1.5,.23,.26,.7,.74,1.09,.72,.29-.02,.51-.13,.27-.47h0Z"/><path class="cls-3" d="M552.07,455.04c-.28,2.95,.27,5.83,.72,8.74,.48,3.1,.96,6.2,1.43,9.3,.18,1.18,4.14,4.87,4.85,2.93,2.15-5.87,4.64-11.47,8.01-16.76l-5.08-3.91c-.41,3.64-2.2,6.83-5.04,9.14l5.22,4.03c.3-2.33-.92-4.51-2.47-6.17-1.72-1.84-4.23-3.56-6.85-3.55-1.46,0-.87,1.46-.31,2.24,.88,1.24,2.33,2.41,3.87,2.68,6.72,1.17,13.69,.36,19.93-2.4,.48-.21,.55-.54,.45-1.05-.36-1.81-2.15-3.39-3.71-4.22-1.11-.59-2.32-.77-3.47-.21-1.09,.53-1.78,1.45-2.55,2.35-.98,1.14-1.93,2.3-2.85,3.48-3.6,4.63-6.8,9.55-9.59,14.7-.65,1.21,.85,2.75,1.67,3.49,.73,.67,2.58,2.19,3.63,1.35,7.55-6.07,14.11-13.12,19.67-21.05,1.17-1.67-3.77-6.02-4.83-4.6-5.79,7.73-12.61,14.75-20.14,20.81l5.3,4.84c2.23-4.1,4.71-8.06,7.45-11.84,1.35-1.86,2.76-3.67,4.21-5.45,.7-.85,1.38-1.78,2.17-2.56,.23-.22,.46-.41,.75-.54,.27-.12,.86-.11,.35-.28l-1.41-.77-1.14-1.01-.94-1.31-.1-.18,.45-1.05c-5.92,2.69-12.43,3.61-18.85,2.56l3.56,4.92c.11,0,1.01,.11,1.02,.1-.15,.12-.94-.74-.91-.76,.17-.13,.32,1.55,.29,1.78-.13,1.2,1.33,2.5,2.16,3.13,.69,.53,2.19,1.63,3.06,.9,2.96-2.49,4.81-6.1,5.18-9.95,.12-1.19-1.27-2.43-2.09-3.05-.47-.36-2.44-1.75-2.99-.86-3.36,5.47-6.26,11.46-7.97,17.67l4.85,2.93c-1.37-6.44-2.28-13.17-4.68-19.32-.15-.39-2.19-2.19-2.28-1.24h0Z"/><path class="cls-3" d="M559.98,454.29l3.7-1.1c.49-.15-.03-.89-.2-1.1-.21-.26-.46-.51-.75-.68-.18-.11-.42-.26-.65-.21l-3.94,.81c-.21,.04-.24,.25-.22,.43,.05,.29,.27,.62,.45,.83,.25,.3,.53,.59,.87,.78,.2,.12,.5,.31,.74,.24h0Z"/><path class="cls-3" d="M691.13,453.24c.91,3.48,1.77,6.97,2.75,10.43l1.22-.95c-3.21-1.9-6.37-3.92-9.37-6.14-1.51-1.12-2.98-2.28-4.43-3.48s-2.85-2.45-4.02-3.54c-.47-.44-2.13-2-2.63-.81-.48,1.12,1.08,3.01,1.75,3.69l16.12,16.72c.46,.47,1.87,1.84,2.66,1.22s-.18-2.32-.54-2.88c-3.98-6.25-9.59-11.57-16.25-14.87-.74-.37-1.67-.53-1.63,.59,.05,1.25,1.05,2.61,1.9,3.45,2.34,2.31,4.66,4.64,6.98,6.97l3.42,3.43c1.31,1.32,2.55,2.78,4.19,3.7,.45,.25,1.17,.55,1.44-.11s-.32-1.72-.66-2.24c-1.99-2.99-4.88-5.38-7.42-7.89-2.34-2.3-4.67-4.6-6.99-6.91l.27,4.04c1.37,.69,2.68,1.46,3.95,2.32,.81,.54-.38-.3,.4,.28,.33,.24,.65,.49,.97,.74,.56,.44,1.1,.9,1.64,1.37,.29,.26,.3,.27,.05,.04,.11,.1,.22,.21,.33,.31,.26,.25,.51,.5,.76,.75,.28,.29,.56,.59,.84,.88,.12,.13,.72,.83,.19,.2,.46,.54,.91,1.09,1.33,1.66,.24,.32,.48,.65,.71,.99-.51-.73,.23,.36,.31,.49l2.13-1.66-16.2-16.45-.31,3.41c5.84,5.36,12.35,10.1,19.35,13.84,.88,.47,1.58,.16,1.22-.95-1.17-3.54-2.31-7.09-3.26-10.69-.28-1.05-1.19-2.17-2.12-2.72-.82-.48-1.26-.1-1.03,.8h0Z"/><path class="cls-3" d="M676.49,460.6c2.62,.79,5.55,.84,8.26,.96s5.49,.13,8.23-.06c5.42-.36,10.7-1.26,15.91-2.78,1.96-.57-1.94-5.93-3.77-5.46-5.1,1.32-10.34,2.34-15.58,2.89-2.55,.27-5.1,.48-7.66,.56s-5.23-.33-7.69,.12c-.83,.15-.16,1.41,.06,1.77,.5,.82,1.28,1.72,2.24,2h0Z"/><path class="cls-3" d="M677.99,454.19c4.76,2.2,9.13,5.22,13.02,8.72,.41,.37,1.49,.89,1.44-.09s-.96-2.02-1.67-2.64c-4.32-3.77-9.17-6.8-14.34-9.26-.85-.4-.55,.89-.39,1.24,.4,.85,1.09,1.64,1.94,2.03h0Z"/><path class="cls-3" d="M516.46,404.84c1.66-2.55,3.14-5.2,4.41-7.96,.61-1.33,1.16-2.68,1.83-3.98s1.32-2.58,1.73-3.97c.37-1.26-3.8-4-4.23-2.96-1.9,4.62-4.65,8.51-7.86,12.3l5.4,4.22c2.23-5.85,5.14-11.44,8.77-16.55,1.16-1.64-4.44-6.02-5.73-4.47-5.03,6.04-9.97,12.15-14.93,18.24l6.14,4.79c2.44-5.17,4.85-10.35,7.27-15.52,.62-1.33-1.28-2.98-2.21-3.67-.7-.53-3.22-2.35-4.11-1.22-4.62,5.91-8.71,12.26-12.03,19-.6,1.21,1.15,2.72,1.93,3.36s3.11,2.42,4.28,1.74c6.49-3.78,12.28-8.62,17.12-14.37,.9-1.07-1.61-3.14-2.3-3.64-1.01-.72-2.92-2.05-4.15-1.13-1.68,1.26-2.57,3.35-2.41,5.44,.17,2.21,2.7,4.12,4.6,4.87s4.48,.45,5.44-1.65l-6.01-4.36c.13,1.16,.26,2.32,.39,3.48s1.64,2.5,2.46,3.15c.91,.73,1.97,1.41,3.18,1.36,2.77-.11,4.93-1.99,5.81-4.54,.17-.51-.54-1.53-.77-1.85-.49-.67-1.11-1.25-1.77-1.76-.8-.62-2.51-1.9-3.52-1.1-.12,.09-.97,.48-.92,.32,.07-.23,1.5,1,1.62,1.11,.47,.38-.06-.22,.04,.04-.4-1.07-.56-2.2-.76-3.34-.62-3.56-2.44-6.22-5.44-8.27-.59-.4-2.47-1.57-3.17-.73s.82,2.46,1.32,2.98c6.6,6.9,14.59,12.36,23.43,15.96l-3.47-5.47c-6.5-.48-12.98,.44-19.04,2.86-2.11,.84,3.05,6.21,5.04,5.63,3.51-1.02,7.01-2.04,10.52-3.03l-5.39-5.41c-2.16,1.65-4.38,3.21-6.69,4.65-1.06,.66-2.12,1.37-3.24,1.91-.38,.19-.78,.32-1.2,.39-.23,.04-.46,.03-.69,.07-1.19,.2,3.85-2.2,3.71,3.66,.04-1.47-1.54-2.88-2.63-3.67-.39-.29-2.95-1.83-2.99-.44-.06,2.38,2.21,4.36,4.16,5.4,1.54,.82,3.24,1.03,4.83,.23,3.72-1.86,7.22-4.44,10.48-7,.94-.74-1.12-2.94-1.52-3.34-.8-.81-2.57-2.45-3.87-2.07-3.51,1.02-7.02,2.01-10.54,3.01l5.04,5.63c5.77-2.27,11.96-3.3,18.14-2.84,1.49,.11,1.04-1.3,.52-2.14-.91-1.46-2.4-2.69-3.99-3.33-3.46-1.4-6.68-3.14-9.51-5.07-1.67-1.14-2.28-1.6-3.83-2.9s-2.24-1.96-3.81-3.59l-1.86,2.25c-.55-.37-1.01-.83-1.38-1.38,.13,.3,.18,.38,.15,.24,.08,.32,.23,.63,.32,.95,.23,.78,.36,1.59,.51,2.39,.33,1.8,.82,3.34,1.87,4.86,1.85,2.67,6.7,7.23,10.13,4.61l-6.07-4.71c-.7,2-2.7,3.17-4.75,3.21l5.64,4.51c-.13-1.14-.25-2.29-.38-3.43-.15-1.32-1.88-2.8-2.86-3.51-.44-.32-2.71-1.79-3.15-.85-.38,.82-1.5,1.9-2.38,1.61l4.6,4.87c-.03-2.09,.86-3.8,2.5-5.08l-6.45-4.77c-4.66,5.53-10.23,10.2-16.52,13.78l6.21,5.1c3.34-6.68,7.22-13.03,11.77-18.96l-6.31-4.89c-2.37,5.21-4.75,10.4-7.1,15.62-.59,1.31,1.22,2.9,2.14,3.59,.68,.51,3.14,2.3,4,1.2,4.85-6.17,9.73-12.33,14.52-18.55l-5.73-4.47c-3.45,5.27-6.31,10.87-8.44,16.8-.44,1.22,1.04,2.48,1.89,3.15,.6,.47,2.74,2.02,3.51,1.07,3.17-3.9,5.29-8.76,6.68-13.56l-4.32-2.69c-.27,1.47-.36,2.96-.57,4.44s-.59,2.83-1.04,4.22c-.96,2.97-2.15,5.86-3.54,8.66-.25,.5,1.22,1.7,1.49,1.28h0Z"/><path class="cls-3" d="M519.75,383.12c.47-.69,.68-1.21,.29-2.03l-.08-.15c-.27-.43-.26-.41,.01,.06,.06,0-.84-1.31-.86-1.34-.67-.72-1.53-1.32-2.48-1.59-.26-.07-1.25-.33-1.18,.31,.12,1.17,.76,2.28,1.28,3.33s1.07,2,1.69,2.95c1.33,2.06,2.83,3.99,4.5,5.78,3.4,3.63,7.44,6.71,11.93,8.86,.63,.3,2.2,.83,1.86-.48-.32-1.25-1.8-2.49-2.89-3.04-.45-.23-.9-.46-1.34-.71-.2-.11-.4-.22-.6-.34-.03-.01-.78-.47-.3-.17-.85-.53-1.68-1.1-2.49-1.7-.07-.05-.67-.5-.32-.24s-.25-.2-.31-.25c-.39-.32-.77-.64-1.15-.97-.17-.15-.34-.3-.51-.46-.67-.61,.46,.46-.19-.18-.36-.35-.71-.71-1.05-1.08s-.68-.74-1.01-1.12c.27,.31-.02-.02-.13-.16-.14-.18-.29-.36-.43-.53-.62-.79-1.21-1.6-1.75-2.45,.16,.25-.12-.2-.17-.27-.12-.2-.25-.39-.37-.59-.29-.48-.57-.96-.84-1.45-.55-1.01-1.01-2.05-1.65-3.01l.18,1.7c.16-.05,.31-.06,.48-.08l-2.17-1.35c.23,.29,.35,.81,.13,1.12-.41,.6,1.55,2.17,1.91,1.65h0Z"/><path class="cls-2" d="M1031.23,414.48l.08,.14-.41-1.23c0,.07-.47-.27,.14,.12l1.83,1.79-.09-.13,.74,1.44c-.05-.72,12.17-1.38,13.37-1.48,4.92-.4,9.83-.86,14.75-1.31,9.74-.89,19.48-1.78,29.22-2.66,5.49-.5,10.99-1,16.48-1.51l-3.9-4.86c-13.84,4.04-28.16,6.65-42.39,8.87s-28.46,3.83-42.72,5.45c-8.4,.95-16.8,1.91-25.19,2.86l3.47,6.78c28.62-4.49,57.2-9.26,85.77-14.07,7.91-1.33,15.84-2.61,23.75-3.92l-5.08-6.21c-22.85,6.49-46.16,11.42-69.62,15.14-6.65,1.05-13.31,1.95-19.98,2.84-1.45,.19-.27,2.67,.1,3.41,.49,.98,1.07,1.92,1.81,2.74,.38,.42,1.08,1.27,1.7,1.26,19.64-.47,38.98-3.37,58.41-6.02l-5.37-7.11c-9.86,2.74-19.78,5.5-29.95,6.81-5,.64-10.06,.95-15.1,.63-4.43-.28-8.68-1.38-13.06-1.93-3.8-.48-8.09-.28-10.58,3.03-.88,1.17,.46,3.24,1.07,4.22,.81,1.29,2.18,3.38,3.84,3.63,7.53,1.13,15.13,.51,22.58-.88,7.58-1.41,15.08-3.23,22.61-4.9,15.28-3.38,30.56-6.77,45.84-10.15,4.23-.94,8.45-1.87,12.68-2.81,2.11-.47,4.23-.94,6.34-1.41,1.12-.25,2.23-.5,3.36-.71,.61-.12,1.8-.57,2.4-.3l-2.28-1.8,.36,.42-2.76-4.63s-.08-.16-.02-.16l1.24,.6-.18-.13c-.31-.21-1.18-.85-1.65-.5s-.12,1.37,0,1.72c.67,1.96,2.27,4.19,3.99,5.38,.6,.41,1.48,1.05,2.21,.53,.85-.6,.68-1.83,.37-2.67-.68-1.85-2.03-3.58-3.48-4.88-.92-.82-2.07-1.61-3.35-1.49-.94,.08-1.89,.43-2.8,.65-1.14,.28-2.28,.52-3.43,.77-2.02,.44-4.05,.89-6.07,1.33-8.42,1.85-16.84,3.7-25.25,5.55-16.63,3.66-33.25,7.4-49.9,10.97-8.88,1.9-18.28,3.74-27.27,1.53l4.91,7.85c2.02-2.99,5.74-3.29,9.03-3.04,4.33,.32,8.55,1.4,12.89,1.67,10.11,.64,20.17-.88,29.98-3.2,5.66-1.34,11.23-2.97,16.81-4.61,2.14-.63-3.2-7.44-5.37-7.11-18.72,2.86-37.68,5.46-56.64,5.73l3.61,7.4c24-3.11,47.85-7.92,71.3-13.89,6.61-1.68,13.2-3.46,19.77-5.3,1.79-.5-3.11-6.52-5.08-6.21-28.11,4.51-56.23,8.97-84.34,13.48-7.98,1.28-15.95,2.64-23.92,3.99-.99,.17,.65,3.33,.77,3.55,.41,.73,.89,1.43,1.46,2.05,.34,.36,1.05,1.2,1.6,1.13,14.8-1.85,29.62-3.64,44.41-5.61s28.84-4.07,43.05-7.25c7.86-1.76,15.58-3.89,23.27-6.24,1.42-.43-2.46-5-3.9-4.86-22.98,2.24-45.97,4.39-68.93,6.86-1.21,.13-2.7,.05-3.82,.57-1.35,.63-.7,2.03-.04,2.95s1.85,2.41,3.13,2.34c1.18-.07,.62-1.32,.24-1.96-.52-.88-1.49-2.26-2.55-2.51s-.54,.94-.24,1.44h0Z"/><path class="cls-2" d="M1125.94,409.69c-6.6,1.83-13.11,3.97-19.76,5.63-6.62,1.66-13.3,3.02-20.03,4.15-13.68,2.31-27.43,3.92-41.26,5.08-7.79,.65-15.59,1.16-23.38,1.8-1.72,.14,1.3,6.53,3.11,6.49,16.09-.37,31.9-2.78,47.27-7.59,.94-.29-2.4-6.25-4.41-5.66-14.86,4.33-30.48,6.76-45.97,6.76l3.11,6.49c13.83-.88,27.67-2.1,41.42-3.77,13.8-1.68,27.49-3.99,40.92-7.58,7.38-1.97,14.96-4.14,21.86-7.46,.91-.44-1.67-4.67-2.9-4.34h0Z"/><path class="cls-2" d="M1117.24,410.13c2.91-1.77-2.08-7.34-3.54-4.38-.22,.46,.31,1.39,.5,1.73,.33,.61,.75,1.24,1.34,1.63,5.73,3.89,13.61,5.75,20.42,4.12,.84-.2-1.35-4.54-2.45-4.5-3.45,.11-6.85,.05-10.27-.48-3.18-.5-6.25-1.59-9.25-2.68l2.08,3.47c.04-.27,.09-.51,.28-.72s.49-.21,.68-.36c.64-.04,.38-.49-.77-1.36-.01,.12-.05,.22-.12,.32-.22,.15-.31,.3-.61,.38-.51,.13,.93,3.3,1.7,2.84h0Z"/><path class="cls-2" d="M1139.53,402.2c-4.36-1.86-9.5-1.15-12.93,2.23-.75,.74,.31,2.57,.7,3.27s1.38,2.52,2.43,2.29c4.27-.91,8.41-2.76,12.22-4.86l-3.25-5.8c-.92,2.35-2.18,4.46-3.87,6.33l3.62,5.66c.08-1.58,.12-3.16,.18-4.73l-.61,.75c4.89,.99,9.88-1.2,14.48-2.61l14.41-4.4c9.04-2.76,18.51-5.02,26.69-9.92,.92-.55-.51-3.08-.83-3.65-.46-.82-1.52-2.8-2.7-2.59-15.93,2.74-29.76,11.54-44.75,17.06-4.29,1.58-8.68,2.87-13.18,3.68-1.03,.18,1.15,6.84,3.07,6.49,16.03-2.91,29.97-11.83,45.11-17.34,4.32-1.58,8.75-2.85,13.29-3.63l-3.54-6.24c-3.94,2.27-8.18,3.71-12.49,5.09-4.63,1.48-9.3,2.87-13.95,4.29l-14.18,4.33c-2.33,.71-4.66,1.46-7.01,2.12s-4.78,1.19-7.26,.75c-.48-.08-.61,.37-.61,.75,0,1.62-.03,3.23-.01,4.85,.01,1.46,.85,3.04,1.68,4.19,.39,.54,1.47,2.11,2.15,1.22,1.6-2.09,2.87-4.41,3.77-6.88,.4-1.1-.49-2.75-1-3.65-.27-.48-1.45-2.61-2.25-2.15-3.92,2.28-8.03,3.84-12.3,5.33l3.13,5.56c2.84-3.48,7.59-4.89,11.84-3.38,.81,.29,.04-1.71,0-1.8-.4-.85-1.12-2.21-2.04-2.6h0Z"/><path class="cls-2" d="M1123.5,390.56c-1.15-.74-2.53-.77-3.75-.17-.6,.29-1.09,.72-1.49,1.25s-.55,1.16-.58,1.81c-.05,1.04,.31,2.14,.72,3.09,.52,1.2,1.21,2.33,2.08,3.31,1.16,1.3,2.58,2.27,4.25,2.78,2.71,.82,6.42,.28,7.24-2.88,.47-1.79,.01-3.7-.72-5.36-.91-2.06-2.31-4.28-4.48-5.17-1.31-.54-2.93-.27-4.12,.46-.65,.4-1.18,.95-1.6,1.58-.5,.75-.59,1.62-.52,2.51,.11,1.27,.7,2.49,1.44,3.52,.17,.24,1.57,1.94,1.81,1.02,.09-.33,.26-.6,.41-.91,.17-.36,.34-.7,.58-1.02l-.19,.24c.81-1.01,1.98-1.66,3.26-1.8l-.3,.03c.37-.03,.74-.02,1.11,.06,.17,.03,.34,.08,.51,.14,.05,.02,.34,.17,.14,.05-.19-.1,.04,.03,.07,.05,.08,.05,.16,.1,.24,.15,.3,.18-.29-.29-.12-.11,.05,.05,.11,.11,.16,.15,.23,.2-.45-.53-.2-.22,.28,.34-.42-.62-.23-.33,.2,.31-.45-.78-.27-.46s-.39-.86-.21-.43c.17,.41-.24-.7-.14-.37,.15,.47-.13-.66-.02-.05,.01,.07,.01,.16,.04,.23-.15-.39-.03-.38-.02-.15,0,.17,.01,.34,0,.51,0,.1-.01,.19-.02,.29-.01,.19-.03,.19,0,0-.14,.72-.4,1.38-.86,1.96l.18-.22c-.82,.98-2.05,1.44-3.29,1.56l.27-.02c-.73,.06-1.47,.02-2.19-.13-.31-.06-.61-.15-.91-.25-.17-.06-.34-.13-.5-.2-.26-.11,.1,.07-.17-.08s-.54-.31-.79-.49c-.07-.05-.14-.1-.21-.15-.15-.12-.13-.1,.06,.05-.15-.07-.22-.3-.37-.35l.2,.23c-.06-.07-.11-.13-.16-.2,.24,.35,.29,.41,.15,.2,.24,.41,.29,.5,.16,.26,.2,.42,.24,.51,.13,.26l.12,.32c-.03-.09-.06-.17-.08-.26,.07,.28,.08,.31,.03,.09-.05-.32,0,.24-.01-.17,0-.15,0-.3,.02-.45,.01-.09,.12-.52,.18-.74,.17-.63,.47-1.26,.88-1.78,.68-.87,1.78-1.49,2.88-1.09,.38,.14,.08-.78,.06-.84-.17-.45-.45-1.02-.86-1.28h0Z"/><path class="cls-2" d="M1031.61,404.93c-.75,2.16-1.34,4.42-1.82,6.66-.09,.42,.1,.95,.25,1.32,.25,.63,.63,1.29,1.05,1.82,.25,.32,1.49,1.9,1.88,1.06,.65-1.39,1.29-2.78,1.94-4.18l-.73,.12c.36,.22,.73,.43,1.09,.66,.2,.13,.4,.27,.61,.4,.37,.25-.13-.12,.18,.13,.19,.15,.37,.31,.55,.46,.42,.35-.29-.3,.06,.06,.2,.23,.16,.17-.12-.16,.2,.26,.14,.19-.16-.23-.26-.47-.32-.57-.18-.3-.19-.43-.25-.54-.17-.34,.07,.18,.04,.09-.09-.26,.03,.09,.05,.19,.07,.28-.05-.27-.06-.3-.02-.08,.01,.07,.02,.15,.03,.23,.04,.44,.05,.44-.02,.81-.13,.67-.4,1.2-.94,1.63-.29,.22-.14,.79-.08,1.05,.16,.64,.52,1.32,.87,1.86s.78,1.16,1.31,1.59c.23,.18,.66,.58,.98,.38,2.19-1.36,1.56-4.34,.66-6.27-.81-1.73-1.99-3.34-3.44-4.57-.95-.81-2.02-1.45-3.11-2.05-.27-.15-.6-.24-.73,.12-.57,1.49-1.15,2.97-1.72,4.46l3.18,4.21c.39-2.72,.66-5.49,.81-8.24,.04-.69-.64-1.59-1.04-2.07-.15-.18-.94-1.09-1.13-.55h0Z"/><path class="cls-2" d="M439.05,445.21c13.85-.12,27.7-.95,41.54-1.57,13.75-.61,27.49-1.27,41.24-1.96,27.45-1.37,54.91-2.76,82.36-4.22,54.77-2.9,109.52-6.34,164.24-10.06,30.66-2.09,61.31-4.26,91.95-6.64,1.89-.15-1.15-3.63-1.49-3.98-1.34-1.37-3.62-3.49-5.73-3.38-4.54,.22-9.07,.6-13.59,1.01-1.62,.14,.83,3.15,1.15,3.51,1.08,1.22,3.01,3.25,4.83,3.23,4.95-.07,9.89-.14,14.84-.38l-7.22-7.36c-54.53,4.3-109.1,8.07-163.7,11.44-54.48,3.36-108.99,6.46-163.49,9.53-15.26,.86-30.53,1.69-45.79,2.61-15.14,.92-30.35,1.52-45.45,3-1.29,.13,.41,2.43,.69,2.77,.81,.99,2.23,2.47,3.64,2.46h0Z"/><path class="cls-2" d="M448.59,444.7c28.93,.82,57.98-.61,86.9-1.42,28.79-.8,57.57-1.64,86.36-2.46s57.44-1.73,86.16-2.64c28.42-.9,56.86-2.05,85.3-1.81,15.46,.13,30.88,.85,46.3,1.82s29.94,1.2,44.38-2.24c2.23-.53-3.66-12.08-6.56-12.04-7.51,.1-14.82,.86-22.26,1.82s-15.01,1.49-22.51,2.16c-1.19,.11,1.85,8.5,4.1,8.49,7.76-.05,15.52-.24,23.28-.02,3.85,.11,7.74,.41,11.59,.34s7.85-.36,11.75-.66l-6.56-12.04c-7.03,2.04-13.96,3.42-21.27,4.06-6.89,.61-13.82,.73-20.73,.66-13.65-.13-27.28-1.14-40.94-1.34-28.24-.41-56.46,.83-84.67,1.91-56.23,2.16-112.45,4.46-168.67,6.84-15.67,.66-31.34,1.32-47.01,2.06s-31.62,1.31-47.34,2.96c-1.04,.11,1.32,3.52,2.4,3.55h0Z"/><path class="cls-2" d="M474.69,446.55c-3.61-5.61-11.05-9.73-17.75-7.23-1.14,.42,2.32,4.78,3.45,4.78,26.22,.07,52.42,.26,78.64-.15,26.17-.4,52.33-1.06,78.49-1.9,51.95-1.66,103.88-4.22,155.79-6.95,29.1-1.53,58.21-2.86,87.33-3.96l-5.07-7.6c-36.96,2.28-73.88,5.15-110.85,7.27-36.57,2.1-73.18,3.71-109.8,4.35-10.14,.17-20.28,.27-30.42,.29-5.21,0-10.41,.01-15.62-.06-2.35-.03-4.71-.07-7.06-.1-1.26-.02-2.51-.04-3.77-.06-4.27-.07-3.03,.38-7.94,4.53l4.68-1.19-.96-.02,4.7,1.08c-1.62-1.32-4.02-4.28-6.2-4.51-.81-.08-1.69-.03-2.5-.04-1.5-.03-3-.06-4.5-.09-3.17-.07-6.33-.14-9.5-.22-6.33-.17-12.67-.39-19-.61-13.17-.46-26.35-.87-39.5-1.52-2-.1,.76,8.42,3.04,8.59,49.79,3.79,99.56,6.13,149.51,6.04,49.76-.09,99.49-1.98,149.17-4.52,13.82-.71,27.65-1.47,41.46-2.25,6.96-.4,14.01-1.15,20.98-.99,6.38,.15,12.72,.13,19.09-.19l-4.12-8.47c-34.89,2.01-69.85,2.31-104.76,.6l3.27,8.83c21.5,.63,43.02,.49,64.51-.26,21.55-.76,42.99-2.52,64.46-4.45,12.02-1.08,24.02-2.35,35.98-3.95l-3.45-3.79,.13,.29-1.11-4.73c-.04,.1-.32,.17-.4,.1l3.36,5.83-.1-.34,.19,2.4c.43-2.24,6.16-2.72,7.94-3.15,3.55-.86,7.13-1.62,10.73-2.28,1.43-.26-1.38-9.29-3.88-8.83-28.07,5.09-55.86,11.48-83.22,19.57-1.8,.53,1.31,9.89,3.49,9.27,7.36-2.12,15.03-3.16,22.7-3,1.86,.04,3.75,.35,5.61,.3s3.82-.44,5.69-.67c4.14-.49,8.29-.96,12.43-1.49,1.36-.18-2.07-8.92-4.32-8.93-37.07-.09-74.13-.25-111.2-.38-10.55-.04-21.1-.07-31.64-.11-1.18,0,.78,9.17,3.6,9.27,24.93,.91,49.98,.01,74.85-1.7,2.08-.14-1.83-8.73-4.21-8.57-24.74,1.71-49.47,1.71-74.24,1l3.6,9.27c37.24,.05,74.48,.1,111.72,.15,10.47,.01,20.93,.01,31.4,.04l-4.32-8.93c-3.66,.36-7.32,.79-10.98,1.19-1.83,.2-3.68,.51-5.51,.61-2.21,.12-4.5-.24-6.71-.3-7.45-.18-14.81,.89-21.95,2.99l3.49,9.27c27.45-8.26,55.37-15.08,83.61-20.01l-3.88-8.83c-3.93,.7-7.85,1.5-11.73,2.44-2.2,.54-7.17,.82-7.82,3.62-.61,2.61,1.81,8.2,4.42,9.1,3.7,1.27,1.44-4.45,.86-5.71-.5-1.09-1.9-4-3.45-3.79-21.34,2.88-42.7,5.42-64.2,6.78-21.3,1.34-42.64,2.22-63.99,2.31-11.91,.05-23.83-.1-35.74-.42-1.05-.03,.59,8.71,3.27,8.83,35.18,1.63,70.47,1.4,105.61-.97,1.02-.07-1.41-8.63-4.12-8.47-6.57,.4-13.1,1.07-19.63,1.85s-12.64,.99-18.99,1.31c-12.26,.63-24.53,1.24-36.8,1.81-24.7,1.16-49.4,2.17-74.11,2.9-49.02,1.45-98.1,1.78-147.11-.15-27.55-1.09-55.11-2.68-82.49-5.94l3.04,8.59c12.31,1.09,24.6,2.04,36.94,2.6,6.16,.28,12.33,.48,18.5,.65,3.08,.09,6.17,.17,9.25,.23,1.62,.04,3.25,.07,4.87,.1,4.61,.09,3.47-.25,8.6-4.41l-4.7,1.08h1.02l-4.72-.97c2.36,1.85,4.25,4.38,7.33,4.41,1.21,.01,2.41,.03,3.62,.04,2.41,.02,4.82,.03,7.23,.03,4.69,0,9.38,.02,14.07,0,9.28-.02,18.55-.11,27.83-.26,18.56-.31,37.12-.89,55.66-1.66,37.38-1.57,74.72-4.04,112.03-6.81,20.93-1.56,41.85-3.21,62.75-5.15,1.73-.16-2.68-7.76-5.07-7.6-52.1,3.65-104.24,6.33-156.41,8.69-51.47,2.32-102.97,4.25-154.49,5.48-29.14,.7-58.32,1.48-87.46,1.52l3.45,4.78c4.1-1.52,9.65-1.57,12.5,2.47,.82,1.17,2.92,2.23,1.52,.06h0Z"/><path class="cls-2" d="M572.63,430.91c.22,0,0-1.45-.44-1.45-.22,0,0,1.45,.44,1.45h0Z"/><path class="cls-2" d="M572.01,432.49c1.56,.11,3.22,.34,4.77,.12,1.41-.2,2.82-.38,4.23-.59,3.01-.44,5.98-1.04,8.97-1.6,5.71-1.07,11.43-2.1,17.15-3.13,11.34-2.04,22.72-3.88,34.11-5.64,22.7-3.5,45.5-6.34,68.34-8.69,45.83-4.72,91.84-7.88,137.85-10.04,13.08-.61,26.17-1.06,39.26-1.19,6.54-.06,13.08-.02,19.62,.07,3.25,.04,6.49,.12,9.74,.2,1.61,.04,3.22,.08,4.84,.13,1.27,.04,2.94-.18,4.14,.27l-2.07-1.25,.33,.25-1.66-1.66c-.22-.32-.08,.4-.37,.35l2.62,1.58-.16-.15,1.09,1.53v-.24c-.02-.94-1.49-1.93-2.18-2.37-.26-.17-2.01-1.22-2-.37,.03,1.73,2.88,3.63,4.49,3.67,2.77,.06,.76-2.66-.24-3.6-2.4-2.23-4.85-2.54-7.98-2.73s-6.18-.35-9.27-.46c-12.46-.46-24.93-.43-37.39-.16-24.76,.53-49.51,1.99-74.23,3.52-24.42,1.51-48.82,3.3-73.18,5.58s-48.59,5.12-72.76,8.67c-11.95,1.75-23.88,3.65-35.74,5.9-5.98,1.14-11.97,2.26-17.93,3.54-5.66,1.22-11.43,2.28-16.99,3.9-1.38,.4-2.74,.82-4.11,1.25s-2.54,1.27-3.79,2.08c-.26,.17,.21,1.21,.48,1.23h0Z"/><path class="cls-2" d="M684.86,432.75c18.52,1.07,37.06-1.39,55.38-3.72s37.13-4.42,55.74-6.11c37.08-3.36,74.29-5.07,111.52-5.43,10.36-.1,20.73-.08,31.09,.05s20.92,0,31.27,1.16l-5.25-7.21c-9.86,.18-19.74,1.27-29.56,2.19-10,.94-19.99,1.99-29.96,3.14-19.94,2.3-39.83,5.01-59.66,8.14-11.22,1.77-22.41,3.75-33.62,5.57-1.69,.27,.33,9.79,2.6,9.49,39.74-5.18,79.29-11.51,119.31-14.26,11.38-.78,22.78-1.47,34.18-1.61l-5.01-11.01c-14.64,2.21-29.22,4.73-43.89,6.71-14.94,2.01-29.91,3.83-44.9,5.44-8.53,.92-17.06,1.78-25.61,2.46l6.26,11.39c18.17-2.99,36.28-6.35,54.4-9.62,1.55-.28-.25-5.27-.44-5.8-.47-1.27-1.03-2.53-1.76-3.67-.46-.73-1.23-2.1-2.14-2.28-2.97-.62-5.94-1.14-8.94-1.62l4.68,11.29c13.36-2.46,27.04-3.67,40.58-4.77,13.58-1.1,27.2-1.77,40.82-1.99,7.75-.13,15.49-.14,23.24,.09l-4.62-10.73c-9.94,.96-19.88,1.93-29.82,2.92l3.56,11.26c16.77-1.78,33.7-1.21,50.24,2.18,1.84,.38,.58-3.84,.36-4.57-.45-1.45-1.02-2.88-1.79-4.19-.38-.65-1.08-2.03-1.87-2.19-16.58-3.41-33.66-4.41-50.49-2.49-1.53,.17,0,5.4,.23,6.12,.38,1.16,1.55,5.33,3.33,5.14,10.46-1.13,20.91-2.27,31.36-3.44,1.36-.15-.61-5.02-.75-5.35-.5-1.16-1.08-2.3-1.81-3.34-.4-.57-1.3-2.03-2.07-2.04-27.62-.35-55.17,.55-82.64,3.45-7.7,.81-15.36,1.9-23.06,2.67-1.47,.15,.5,5.26,.66,5.63,.51,1.22,1.1,2.42,1.85,3.51,.51,.74,1.25,1.9,2.17,2.15,2.85,.75,5.7,1.45,8.58,2.07l-4.34-11.75c-18.6,3.27-37.22,6.46-55.77,10.01-1.68,.32,2.85,11.77,6.26,11.39,14.92-1.66,29.85-3.24,44.75-5.11,14.79-1.86,29.55-3.99,44.31-6.11,8.21-1.18,16.45-2.33,24.61-3.79,1.78-.32-2.45-11.1-5.53-10.99-39.44,1.36-78.51,6.07-117.51,11.96-11.21,1.69-22.41,3.49-33.58,5.44l2.6,9.49c20.1-4.13,40.44-7.25,60.74-10.21s40.46-5.48,60.75-7.62c11.31-1.19,22.68-2.02,33.96-3.49,1.48-.19-.55-2.99-.89-3.47-.8-1.1-2.73-3.78-4.36-3.74-9.44,.2-18.87-.35-28.31-.57s-18.11-.33-27.17-.35c-18.36-.04-36.72,.3-55.06,1.16-36.79,1.72-73.54,4.67-110.05,9.56-20.17,2.7-40.36,6.84-60.8,5.58-.77-.05-.1,5.79,1.63,5.89h0Z"/><path class="cls-2" d="M709.99,426.24c-5.45-1.09-10.89-2.28-16.35-3.24l-.23,5.99c25.16,.09,50.3-.18,75.45-.52s50.1-.76,75.15-1.13c14.14-.21,28.28-.51,42.42-.87l-4.36-6.9c-37.58,3.83-75.51,5.46-113.27,6.25-37.55,.79-75.08,.59-112.63,.15-10.37-.12-20.73-.18-31.1-.26s-20.37-.28-30.17,2.68c-1.8,.54-.27,8.82,1.49,8.56,43-6.38,86.17-11.6,129.53-14.82,43.05-3.19,86.14-5.11,129.32-5.28,24.32-.09,48.65,.31,72.96,1.2,1.56,.06-.96-3.23-1.18-3.49-1.12-1.32-2.89-3.31-4.75-3.52-40.36-4.5-80.98-4.21-121.44-1.4-40.42,2.81-80.8,6.53-121.14,10.29-22.62,2.11-45.24,4.21-67.86,6.33l-.24,9.89c46.31-5.4,92.74-9.84,139.22-13.5s92.67-6.35,139.1-8.02c13.01-.47,26.02-.86,39.03-1.18,12.83-.31,25.68-.74,38.51-.53l-5.91-7.84c-2.61,.63-5.21,1.27-7.81,1.93-1.07,.27,2.47,8.79,4.9,8.17,3.08-.77,6.15-1.55,9.22-2.36,1.06-.28-1.56-4.03-1.69-4.21-.81-1.06-2.66-3.68-4.22-3.63-22.99,.72-46,.69-69,1.3-22.82,.61-45.63,1.56-68.43,2.59-45.67,2.07-91.29,5.16-136.82,9.35-25.32,2.33-50.6,5.05-75.86,8.02-2.28,.27-1.98,10.06-.24,9.89,41.53-3.93,83.06-7.85,124.59-11.9,41-4,82.01-8.13,123.23-8.92,22.97-.44,45.98,.12,68.82,2.71l-5.94-7.01c-42.83-1.62-85.72-1.71-128.55-.24-42.79,1.47-85.47,4.35-128.05,8.8-23.63,2.47-47.25,5.32-70.75,8.79l1.49,8.56c8.73-2.63,17.88-2.74,26.92-2.7,9.48,.04,18.97,.1,28.45,.13,19.38,.07,38.75-.16,58.13-.31,37.71-.29,75.44-1.1,113.1-3.05,21.19-1.1,42.31-2.77,63.45-4.55,1.37-.12-.29-2.75-.6-3.23-.63-1-2.31-3.67-3.77-3.67-24.62,.12-49.25,.5-73.87,.91-24.47,.42-48.94,.84-73.41,1.32-13.72,.27-27.44,.71-41.15,1.2-1.24,.04-1.49,5.81-.23,5.99,5.39,.78,10.82,1.35,16.23,2,.89,.11,1.39-4.54,.35-4.75h0Z"/><path class="cls-2" d="M425.62,448.48c1.11,.06,2.25,.22,3.36,.09,1.02-.13,2.04-.25,3.06-.38,2.04-.26,4.08-.49,6.12-.76,4.01-.54,8.01-1.21,12.02-1.8,7.94-1.18,15.86-2.55,23.78-3.84,15.67-2.53,31.33-5.13,46.99-7.72,31.47-5.19,62.94-10.39,94.4-15.67,8.72-1.46,17.44-2.93,26.16-4.39,4.4-.74,8.79-1.51,13.15-2.42,4.25-.89,8.56-1.63,12.73-2.86,1.05-.31-.64-2.06-.95-2.38-.78-.8-2.22-2.18-3.47-2.1-4.13,.26-8.22,.88-12.32,1.4s-8.02,1.06-12,1.73c-7.85,1.31-15.7,2.62-23.55,3.93-15.62,2.61-31.24,5.19-46.85,7.84-31.18,5.29-62.38,10.51-93.54,15.91-8.72,1.51-17.44,3.02-26.16,4.53-4.37,.76-8.72,1.62-13.08,2.41-2.07,.38-4.12,.85-6.18,1.29-1.11,.24-2.22,.46-3.33,.71-.98,.22-1.83,.69-2.74,1.12s1.69,3.32,2.4,3.36h0Z"/><path class="cls-2" d="M441.08,442.17c-2.29,.02-4.55,0-6.83-.3l1.73,3.13c8.55,.87,17.16,.7,25.75,.65s16.84-.11,25.26-.17c16.78-.13,33.56-.48,50.34-.79,33.34-.61,66.67-1.44,100-2.33,18.6-.5,37.19-.97,55.75-2.3,1.15-.08-.81-2.23-1.01-2.42-.91-.88-2.24-2.03-3.59-2.04-16.81-.17-33.61,.23-50.41,.67-16.59,.43-33.17,.84-49.76,1.22-32.99,.77-65.98,1.34-98.97,2.15-9.26,.23-18.52,.5-27.78,.74s-18.33,.05-27.3,1.48c-.81,.13,.86,3.23,1.73,3.13,2.07-.26,4.14-.16,6.22-.05,.62,.03-.33-2.78-1.11-2.77h0Z"/><path class="cls-2" d="M451.87,454.03c-2.61-1.11-5.21-2.26-7.81-3.38s-5.35-2.16-7.81-3.68l2.01,4.29c.76,.2,1.13,.43,1.87,.43,.55,0,1.1,0,1.65,0,1.1,0,2.2,0,3.31,0,2.38,0,4.75-.02,7.12-.07,4.36-.09,8.72-.17,13.08-.26,8.9-.18,17.8-.37,26.7-.56,17.79-.38,35.58-.78,53.37-1.25,35.36-.92,70.71-1.78,106.07-2.85,19.79-.6,39.56-1.25,59.34-2.2,1.46-.07-.89-2.87-1.14-3.14-1.05-1.1-2.77-2.86-4.45-2.84-35.29,.29-70.56,1.38-105.84,2.41-35.09,1.02-70.18,2.02-105.27,3.22-9.83,.34-19.67,.67-29.5,1.02-4.83,.17-9.65,.35-14.48,.52-2.49,.09-4.98,.19-7.48,.33-1.24,.07-2.48,.14-3.71,.22-.53,.03-1.06,.05-1.59,.09-.75,.05-.93,.24-1.6,.55-1,.46,1.59,4.36,2.54,4.36,2.29,0,4.6,.99,6.79,1.62,2.36,.68,4.73,1.34,7.08,2.04,.17,.05-.04-.79-.26-.89h0Z"/><path class="cls-2" d="M523.51,435.85c20.3-2.62,40.5-5.97,60.77-8.81,20-2.8,40.04-5.41,60.1-7.77,11.31-1.33,22.61-2.68,33.93-3.9,1.16-.12-.29-2.27-.56-2.66-.5-.73-1.09-1.42-1.76-1.99-.36-.3-.97-.89-1.48-.84-20.03,1.93-40.02,4.18-59.97,6.79-19.98,2.61-39.9,5.68-59.77,8.97-10.96,1.81-21.97,3.7-32.78,6.28-.75,.18,.49,4.06,1.51,3.92h0Z"/><path class="cls-2" d="M337.98,346.36c1.59,1.44,2.96,3.11,4.48,4.62,1.59,1.59,3.24,3.14,4.89,4.67,3.14,2.89,6.38,5.66,9.68,8.36,6.64,5.44,13.45,10.66,20.12,16.06,12.46,10.1,24.56,20.87,33.42,34.37,2.36,3.59,4.49,7.36,6.25,11.28,.83,1.85,1.55,3.75,2.19,5.68,.72,2.13,1.1,4.43,1.92,6.52l7.93,1.44c-.7-1.06-1.45-2.08-2.2-3.1-.89-1.23-2.44-1.97-3.91-2.22-.67-.11-2.95-.28-2.61,1.04,.25,.95,.47,1.91,.79,2.84,.59,1.76,2.77,2.81,4.48,3.19,1.04,.23,3.84,.66,3.69-1.16-.17-1.94-1.05-3.97-1.7-5.8s-1.45-3.79-2.28-5.64c-1.62-3.62-3.48-7.13-5.58-10.49-4.3-6.89-9.51-13.18-15.15-19.02-12.06-12.49-26.26-22.51-39.95-33.09-3.96-3.06-7.88-6.18-11.73-9.38-1.93-1.61-3.84-3.24-5.72-4.92s-4.04-3.39-5.72-5.39c-.61-.72-1.87-1.06-2.76-1s-1.23,.48-.52,1.13h0Z"/><path class="cls-2" d="M357.98,367.74c4.97,4.05,10.45,7.16,16.05,10.22,5.27,2.88,10.38,5.68,14.8,9.58s8.03,9.09,11.26,14.16c3.63,5.7,7.09,11.53,10.36,17.44,1.69,3.06,3.33,6.15,4.91,9.26,.74,1.46,1.5,2.92,2.24,4.38,1.17,2.32,2.2,4.6,4.55,6.01,1.15,.69,2.39,1.32,3.73,1.5,.62,.08,1.46,.13,2.01-.27,.47-.35,1.01-1.45,.94-1.99-.11-.95-.88-2-1.32-2.84s-.87-1.67-1.32-2.51c-1.63-3.08-3.36-6.1-5.12-9.11-3.54-6.03-7.26-11.97-11.2-17.74s-7.65-11-12.41-15.67c-5.43-5.33-11.84-9.22-18.55-12.71-6.17-3.21-12.72-6.06-18.36-10.18-.69-.5-1.84-1.2-2.73-.95s-.3,1.02,.17,1.4h0Z"/><path class="cls-2" d="M420.64,441.07c-.46-1.44-.98-2.87-1.35-4.33-.35-1.33-.95-2.85-.54-4.22l-4.69-1.5c.15,.95,.69,1.84,1.03,2.73s.62,1.7,.95,2.55c.74,1.88,1.34,3.81,1.79,5.78s.77,3.98,.94,5.99-.07,4.26,.6,6.22c.39,1.16,1.79,1.81,2.86,2.15,.8,.25,2.5,.71,3.02-.27,.96-1.81,.49-4.41,.24-6.39-.26-2.11-.68-4.2-1.25-6.26-1.15-4.16-2.85-8.83-5.91-11.99-.73-.75-2-1.24-3.04-1.26-.53-.01-1.77,.26-1.1,1.07,2.11,2.58,3,6.01,4.07,9.12,.25,.73,2.59,1.28,2.37,.6h0Z"/><path class="cls-2" d="M429.51,442.99l.24,.06-1.88-.91-.77-1.03c-.09,.09-.14,.19-.15,.31-.08,.11-.12,.36-.18,.5-.23,.47-.6,.84-.95,1.23-1.06,1.16-2.05,2.37-3.05,3.59-1.95,2.37-3.91,4.74-5.81,7.16s-3.67,4.68-5.5,7.02-4.01,4.84-5.73,7.43l9.4,4.45c.27-.66,.17-1.33,.39-1.99,.14-.43,.48-.91,.69-1.31,.54-1.02,1.1-2.02,1.66-3.02,1.08-1.94,2.16-3.88,3.24-5.82s2.18-3.9,3.29-5.83,2.21-4.14,3.53-6.04l-6.52-3.16c-10,13.8-19.05,28.29-28.32,42.58-1.29,1.99-2.58,3.98-3.87,5.97-.67,1.03-1.34,2.07-2.01,3.11-.78,1.21-1.54,2.21-1.74,3.68l11.52,4.21c-.56-1.24-.76-2.31-.36-3.64,.6-2-1.88-3.82-3.4-4.64-1.41-.76-4.42-2.19-5.72-.53-.84,1.07-1.5,2.47-1.83,3.8-.6,2.34,1.68,4.23,3.42,5.42,1.14,.78,2.44,1.51,3.79,1.85,1,.25,2.59,.69,3.51,.03,1.79-1.29,2.66-3.8,3.69-5.71s2.02-3.74,3.03-5.61c2.09-3.88,4.19-7.76,6.28-11.64,4.06-7.53,8.27-15,12.06-22.66,2.16-4.35,4.42-8.66,6.49-13.05,.94-2-5.47-5.15-6.52-3.16s-2.48,3.93-3.72,5.85-2.45,3.77-3.7,5.64-2.5,3.77-3.75,5.65c-.65,.98-1.29,1.96-1.96,2.92-.25,.35-.54,.91-.86,1.2-.58,.52-1.16,.83-1.69,1.45-.47,.56,.41,1.77,.69,2.1,.76,.9,1.98,1.7,3.04,2.17,1.52,.68,4.38,1.81,5.67,.17,2.23-2.84,4.1-6.02,6.1-9.02s4.16-6.13,6.14-9.26c.96-1.52,1.92-3.05,2.89-4.57,.91-1.44,2.07-2.94,2.69-4.53,1.2-3.05-3.13-6.16-5.84-4.9-1.39,.65,2.06,2.39,2.41,2.48h0Z"/><path class="cls-2" d="M396.05,483.02c1.28-.71,2.71-1.32,3.76-2.35,.97-.95,1.94-1.88,2.87-2.86,1.91-1.99,3.62-4.14,5.33-6.3,3.39-4.31,6.62-8.74,9.67-13.29,1.53-2.28,2.97-4.62,4.38-6.97,1.32-2.2,2.81-4.43,3.74-6.84,.98-2.56,.87-5.04-.26-7.53s-2.86-4.86-4.34-7.21c-3.73-5.96-7.46-11.92-11.18-17.89-.8-1.28-2.75-2.27-4.18-2.52-.97-.17-2.37-.08-1.84,1.29,4.22,10.84,7.04,22.21,8.57,33.74,.23,1.76,2.12,3.17,3.62,3.89,.57,.27,3.86,1.52,3.66-.22-1.86-15.52-8.06-30.3-18.3-42.16-9.69-11.23-22.13-19.54-33.33-29.12-1.49-1.27-2.94-2.6-4.35-3.95-.14-.13-.27-.26-.41-.39,.41,.38,.79,.78,.16,.15-.31-.31-.62-.63-.92-.94-.7-.72-1.38-1.46-2.05-2.2-.63-.7-1.23-1.42-1.84-2.14-.39-.46,.26,.33,.27,.33-.22-.22-.39-.5-.58-.74-.27-.35-.54-.7-.8-1.05-1.21-1.63-2.35-3.32-3.41-5.05l-8.85-.7c10.63,9.63,22.64,17.59,34.11,26.17,2.6,1.95,5.18,3.93,7.71,5.97,.59,.47,1.17,.95,1.75,1.43,.26,.22,.54,.43,.79,.66-1.15-1.03-.09-.08,.12,.11,1.15,.98,2.29,1.99,3.41,3,2.24,2.04,4.42,4.14,6.51,6.34,.47,.5,.94,1,1.41,1.51,.13,.14,1.05,1.17,.23,.25,.18,.21,.36,.41,.54,.62,1.08,1.24,2.13,2.5,3.14,3.79s1.98,2.61,2.91,3.95c.46,.67,.92,1.35,1.36,2.04,.22,.34,.44,.69,.65,1.03,.08,.13,.69,1.13,.28,.45,.96,1.62,1.82,3.3,2.83,4.9,.92,1.47,1.64,2.74,2.57,4.52,1.1,2.09,3.45,3.73,5.71,4.35,1.53,.42,3.77,.57,3.16-1.63-.77-2.74-1.67-5.36-3.09-7.83-1.62-2.8-3.36-5.53-5.28-8.13-3.76-5.11-8.07-9.83-12.65-14.22-9.76-9.34-20.84-17.09-31.74-25.01-3.11-2.26-6.21-4.53-9.25-6.89-.73-.56-1.45-1.13-2.16-1.71-.17-.14-1.37-1.12-.28-.21-.35-.29-.71-.58-1.06-.87-2.34-1.95-4.65-3.94-6.91-5.97-1.61-1.45-4.54-3.06-6.83-2.89-.49,.04-1.17,.2-1.46,.65-.52,.82,.2,1.94,.6,2.59,7.74,12.57,19.94,21.69,31.52,30.49,5.64,4.28,10.81,8.26,15.8,13.18,.28,.27,.55,.55,.82,.82,.55,.57,.21,.22,.09,.09,.13,.14,.26,.28,.39,.42,.64,.7,1.28,1.4,1.9,2.11,1.23,1.41,2.41,2.87,3.54,4.38,2.25,3.01,4.27,6.18,6.02,9.51,3.99,7.57,6.81,15.83,7.95,24.32l7.27,3.67c-1.8-12.2-5.03-24.11-9.47-35.61l-6.02-1.23c3.13,5.04,6.25,10.09,9.38,15.13,1.47,2.37,2.97,4.72,4.4,7.11,1.31,2.19,2.34,4.4,1.59,6.98-.71,2.44-2.19,4.66-3.46,6.84s-2.64,4.42-4.01,6.59c-2.83,4.49-5.75,8.92-8.86,13.22-1.69,2.33-3.52,4.56-5.16,6.91-.86,1.23-1.71,2.46-2.56,3.69-.42,.61-.74,1.06-.95,1.76-.24,.79-.54,1.56-.81,2.33s1.58,1.65,2.16,1.33h0Z"/><path class="cls-2" d="M370.34,380.07c1.13,.46,2.19,.88,3.4,1.07,1.03,.16,2.06,.29,3.08,.5,1.93,.39,3.8,.97,5.62,1.71,3.35,1.35,5.86,2.89,8.46,5.4,5.28,5.09,8.25,12.94,8.38,20.55,.04,2.34-.16,4.67-.61,6.97-.22,1.12-.53,2.21-.82,3.3-.36,1.32-.79,2.38-.52,3.76,.2,1.02,1.02,1.77,1.86,2.33,.69,.46,2.01,1.23,2.86,.82,2.11-1.01,2.57-3.96,3.02-6.06,.48-2.22,.72-4.5,.73-6.77,.02-4.65-.92-9.37-2.75-13.64-3.87-9.09-11.58-16.06-20.56-19.96-2.28-.99-4.7-1.71-7.15-2.15-1.29-.23-2.6-.39-3.91-.46-1.09-.06-2.03-.11-2.65,.88-.41,.66,1.19,1.6,1.56,1.75h0Z"/><path class="cls-2" d="M362.22,373.23c-.68-1.05-1.78-2.5-1.93-3.8l-4.66-1.96c.43,1.27,1.81,2.37,2.73,3.3,1.11,1.13,2.24,2.25,3.36,3.39,2.14,2.17,4.24,4.37,6.32,6.6,4.15,4.46,8.16,9.05,12.05,13.74,7.61,9.19,14.7,18.82,21.22,28.82,1.81,2.78,3.55,5.6,5.25,8.45,.89,1.48,1.77,2.97,2.62,4.48,1.06,1.89,1.94,3.87,3.44,5.46l2.68-4.08c.68,.24,.76,.3,.05-.02-.22-.1-.98-.59-.24-.09-.69-.46-1.4-.87-2.1-1.31-1.01-.63-3.14-1.67-4.37-.96s-.05,2.31,.61,2.92c.37,.35,.75,.69,1.12,1.04,.54,.49,2.51,3.06,1.39,1.42,1.42,2.08,3.88,3.92,6.31,4.67,.8,.25,1.65,.46,2.5,.42,.68-.03,1.88-.53,1.74-1.46-.3-1.96-1.54-3.58-2.63-5.19-.93-1.37-1.81-2.76-2.73-4.14-1.75-2.64-3.54-5.25-5.35-7.85-3.65-5.25-7.42-10.41-11.35-15.46-8-10.28-16.54-20.13-25.67-29.44-2.52-2.57-5.07-5.09-7.67-7.58-1.34-1.29-2.69-2.57-4.07-3.82-1.55-1.4-3.07-2.88-4.95-3.83-.47-.24-1.84-.83-2.26-.17s.71,1.63,1.11,1.98c1.35,1.17,2.49,2.68,3.55,4.11,.33,.44,.97,.94,1.54,.98,.49,.03,.7-.18,.4-.64h0Z"/><path class="cls-2" d="M363.51,375.16c1.77-1.17-4.53-4.58-3.95-1.25,.28,1.62,1.99,3.18,2.96,4.42,1.25,1.6,2.57,3.13,3.88,4.68,5.27,6.24,10.55,12.47,15.8,18.73s10.42,12.65,15.65,18.96c2.42,2.92,4.92,5.78,7.26,8.76,.26,.33,.51,.67,.77,1,.38,.48-.16-.23-.19-.26,.14,.14,.25,.35,.36,.51,.52,.74,1.02,1.49,1.5,2.26,.88,1.41,1.59,2.86,2.13,4.44,.16,.47,.31,.95,.44,1.43,.04,.17,.09,.33,.13,.5,.02,.06,.16,.74,.09,.37s.02,.18,.03,.21c.03,.23,.06,.46,.09,.69,.04,.41,.07,.81,.09,1.22,.06,1.63-.08,3.27-.45,4.86-.08,.35-.02,.12,0,.05-.09,.38-.21,.75-.3,1.13s-.14,.62-.18,.74c-.23,.75-.51,1.49-.86,2.2-.69,1.38-1.5,2.68-2.13,4.09s1.06,2.91,1.99,3.61c1.36,1.02,3.42,2.26,5.21,1.97,3.24-.53,5.55-2.37,7.11-5.22,1.33-2.43,1.56-5.52,1.24-8.24-.83-7.12-5.17-13.23-9.74-18.51-4.97-5.74-10.24-11.22-15.39-16.8s-10.7-11.55-16-17.38c-2.95-3.24-5.89-6.48-8.83-9.72-1.47-1.62-2.94-3.25-4.42-4.86-.87-.95-1.78-1.86-2.68-2.79-.35-.36-.7-.74-1.06-1.09-.05-.05-1.15-1.02-.73-1l-1.02-.26-1.04-.97c-.18,.75,1.62,1.98,2.28,1.55h0Z"/><path class="cls-2" d="M378.41,395.07c7.53,11.13,14.87,22.4,22.54,33.44,2.98,4.29,6.79,8.96,6.69,14.46-.1,4.97-2.03,9.52-3.97,14.01-1.1,2.56-2.23,5.11-3.11,7.75-.93,2.82-1.36,5.7-1.22,8.68,.08,1.58,1.89,2.87,3.17,3.51,.74,.37,3.18,1.3,3.29-.24,.38-5.09,2.57-10.01,4.53-14.66s4.05-9.53,3.9-14.6c-.18-6.22-3.42-11.33-6.95-16.22-3.89-5.4-7.77-10.8-11.62-16.23-4.44-6.26-8.73-12.59-12.88-19.04-.71-1.11-2.13-2.05-3.43-2.29-1.09-.2-1.61,.46-.95,1.43h0Z"/><path class="cls-2" d="M405.79,426.41c6.6,6.74,13.05,13.62,19.8,20.21,.51,.49,1.6,1.22,2.36,1.02s.29-1.03-.06-1.42c-6.14-6.85-12.61-13.39-18.92-20.08-.71-.75-2.11-1.63-3.19-1.46s-.46,1.23,.03,1.74h0Z"/><path class="cls-2" d="M430.29,448.92c-.79,2.21-1.78,4.33-2.99,6.34s-2.29,4.13-3.64,6.07c-.44,.63,.7,1.61,1.12,1.92,.49,.35,1.58,1.07,2.16,.52,.88-.84,1.72-1.71,2.52-2.63s1.47-1.87,2.04-2.97c1.14-2.17,2.03-4.45,2.73-6.8,.09-.32-.37-.93-.54-1.11-.34-.38-.73-.69-1.16-.96-.33-.2-1.98-1.09-2.24-.37h0Z"/><path class="cls-2" d="M875.51,470.94c4.01-1.36,8.18-2.26,12.23-3.53s7.62-2.63,11.34-4.17c7.7-3.19,15.09-6.99,22.17-11.39,.94-.59-1.9-4.47-3.09-3.77-7.04,4.14-14.38,7.85-21.91,11.02-3.76,1.58-7.58,3.01-11.42,4.38s-7.86,2.82-11.93,3.53c-.91,.16-.01,1.63,.24,2.01,.32,.48,1.59,2.2,2.38,1.93h0Z"/><path class="cls-2" d="M911.88,448.72c-.04,.26-.08,.51-.12,.77-.14,.87,1.37,4.19,2.6,3.61,1.07-.5,2.18-.82,3.21-1.4s2.1-1.13,3.15-1.7c2.1-1.13,4.19-2.27,6.32-3.34,4.19-2.12,8.46-4.08,12.77-5.94,8.72-3.76,17.73-6.88,26.93-9.27,5.19-1.35,10.44-2.43,15.71-3.4,.48-.09,.49-.36,.48-.81-.07-3.12-2.92-6.53-5.43-8.14-2.28-1.47-5.1-.92-7.59-.4-5.68,1.2-11.34,2.5-16.95,4.02-11.21,3.05-22.2,6.88-32.87,11.46-6.03,2.59-11.95,5.45-17.78,8.45-1.53,.79,1.41,7.07,3.06,6.41,1.96-.79,3.9-1.56,5.75-2.58,1.49-.82-1.81-6.33-3.52-5.87-1.84,.51-3.55,1.27-5.3,2.03l3.06,6.41c18.46-10.11,38.41-17.67,58.83-22.73,2.84-.7,5.69-1.36,8.56-1.92,1.5-.29,3.02-.6,4.56-.47,.7,.06,1.27,.28,1.92,.47,1.3,.39-1.29,.84-.91-1.87-.02,.17,.1,.59,.1,.79l.48-.81c-18.59,2.96-37.02,9.19-53.58,18.13-2.27,1.22-4.51,2.5-6.72,3.81-1.14,.68-2.25,1.4-3.36,2.13-1.24,.81-2.23,1.78-3.38,2.71l2.63,3.32c.01-.32,.02-.63,.04-.95,.03-.83-.71-1.84-1.24-2.41-.16-.17-1.32-1.26-1.44-.54h0Z"/><path class="cls-2" d="M864.11,446.3c4.43-.81,8.72-2.08,13.07-3.27s8.6-2.3,12.93-3.38c8.62-2.15,17.23-4.3,25.91-6.18,4.87-1.05,9.73-2.14,14.62-3.14,.73-.15-1.05-4.34-2.45-4.09-17.41,3.16-34.59,7.39-51.5,12.62-4.73,1.46-9.47,2.88-13.96,5-.61,.29,.7,2.56,1.38,2.44h0Z"/><path class="cls-2" d="M675.02,449.56c-3.82,1.82,1.11,7.27,2.55,8.96,3.72,4.35,7.44,8.7,11.18,13.02,.38,.44,2.59,2.21,2.47,.45-.49-7.05-4.99-13.65-10.63-17.66l1.41,4.68c.72,.47,1.17,.83,1.89,1.45s-.18-.2,.21,.19c.18,.18,.36,.36,.53,.55,.14,.15,.27,.3,.41,.46-.32-.36-.03-.04,.12,.16,.12,.16,.24,.33,.36,.49,.34,.42-.4-.65,.11,.16,.11,.17,.22,.34,.32,.52,.03,.06,.41,.73,.26,.44-.13-.24,.13,.27,.16,.32,.11,.23,.22,.46,.32,.69,.24,.55,.2,.47,.39,1.04l3.14,.63c-3.71-4.55-7.72-8.84-12.11-12.76l1.46,5.02c4.72,1.63,9.7,1.58,14.33-.35,1.47-.61-2.27-7.2-4.39-6.23-3.89,1.78-8.47,2.16-12.55,.8-1.07-.35-1.18,.59-.96,1.41,.38,1.37,1.37,2.69,2.42,3.62,2.17,1.92,3.84,3.49,5.74,5.47,.93,.97,1.84,1.96,2.72,2.97s2.37,3.46,3.92,3.3c.71-.08,.63-.92,.45-1.42-1.99-5.51-5.69-10.42-10.65-13.6-.28-.18-.9-.51-1.25-.24s-.2,.95-.1,1.27c.41,1.44,1.55,2.8,2.76,3.65,.31,.22,.72,.53,1.13,.9,.07,.06,.67,.65,.32,.29,.18,.18,.35,.36,.52,.55,.1,.11,.2,.23,.3,.34-.19-.23-.21-.25-.06-.07,.16,.2,.31,.4,.46,.61,.59,.78-.31-.53,.21,.31,.16,.26,.32,.52,.47,.78-.24-.41,.19,.37,.2,.4,.11,.23,.22,.46,.32,.69,.18,.41,.3,.73,.46,1.24,.35,1.11,.55,2.22,.68,3.37l2.47,.45c-2.99-3.27-6-6.53-9.01-9.78-1.3-1.4-2.94-2.91-4.02-4.29-.79-1.01-1.42-2.75-.2-3.66,.41-.31-.75-1.82-1.24-1.59h0Z"/><path class="cls-2" d="M552.75,462.53c-.14-.58-.22-1.16-.3-1.74l-.12,.45,.14-.14-3.11-3.27c.83,4.08,1.47,8.21,1.72,12.36,.12,2.03,.15,4.06,.1,6.09-.06,2.27-.52,4.66-.07,6.89,.2,.98,.77,1.87,1.46,2.59,.24,.25,1.51,1.47,1.91,.94,1.13-1.53,.82-4.17,.83-6,.02-2.33-.08-4.65-.27-6.97-.39-4.6-1.21-9.14-2.51-13.57-.31-1.04-1.3-2.34-2.28-2.78-1.08-.49-.97,.62-.59,1.32,.28,.52,.3,1.2,.35,1.79,.08,.96,.99,2.04,1.73,2.57s1.26,.44,1.02-.53h0Z"/><path class="cls-2" d="M779.07,254.7c.17,2.35,.41,4.5,1.15,6.76s1.64,4.35,2.68,6.43c2.11,4.22,4.65,8.3,6.24,12.76,3.71,10.43,1.35,21.88-2.66,31.86-1.19,2.96-2.56,5.85-3.96,8.73-.66,1.35-1.33,2.69-2.02,4.02-.76,1.47-1.67,2.92-2.22,4.49s.85,3.72,1.72,4.88c.38,.51,2.81,3.4,3.66,2.32,1.82-2.33,3.06-5.22,4.39-7.86s2.52-5.21,3.59-7.91c2.15-5.39,3.82-10.98,4.42-16.77,.6-5.78,.32-11.61-1.26-17.23-1.49-5.3-4.27-10.11-7.02-14.83s-6.18-10.25-6.84-16c-.07-.62-.53-1.25-1-1.65-.23-.2-.9-.62-.86,0h0Z"/><path class="cls-1" d="M511.89,384.28c-.73,.27-.82,.37-1.05,1.11s-.47,1.47-.68,2.22c-.41,1.46-.77,2.93-1.15,4.4-.28,1.05,.44,2.27,1.05,3.06,.36,.47,1.58,1.99,2.32,1.43,4.59-3.47,7.35-8.83,7.76-14.56,.1-1.48-1.14-3.2-2.17-4.14-.77-.7-1.99-1.39-2.24,.03l-2,11.32c-.23,1.33,1.15,3.19,1.99,4.05,.4,.41,2.18,2.02,2.58,.77,.94-2.93,1.32-5.99,1.07-9.06l-4.49-3.05,2.69,7.87c.46,1.35,1.51,2.85,2.73,3.65,.78,.51,1.77,.64,1.86-.54l.39-5.19-1.29,.86c1.16,.42,2.24,.94,3.17,1.75,.64,.56,2.17,1.65,2.5,.23s-.91-3.33-1.77-4.28l-2.13-2.35-.09,4.6,7.32,5.13c.82,.57,1.9,.67,1.96-.57,.07-1.42-.95-3.13-1.87-4.13l-4.84-5.29c-.52-.57-1.97-2.24-2.95-1.58s0,2.62,.33,3.33c2.91,6.34,8.88,11.99,15.93,13.12,1.43,.23,.48-2.52,.3-2.93-.56-1.26-1.79-3.34-3.26-3.71-2.25-.56-4.4-1.43-6.28-2.8-.14-.1-.55-.44-.89-.77,.01,.01-.68-.7-.44-.43,.27,.3-.34-.42-.39-.48-.51-.58,.11,.22-.14-.17-.17-.26-.34-.51-.51-.77,.23,.34,.16,.29,0-.03s-.34-.66-.49-.99l-2.62,1.75,4.87,5.23,.09-4.69-7.3-5c-.8-.55-1.86-.66-1.92,.55-.07,1.39,.93,3.06,1.83,4.04l2.14,2.33,.72-4.05c-1.68-1.45-3.5-2.62-5.61-3.35-.77-.27-1.24,.06-1.29,.86l-.33,5.25,4.59,3.11-2.77-7.9c-.47-1.33-1.47-2.79-2.67-3.58-.64-.42-1.94-.7-1.82,.53,.26,2.78,.02,5.5-.77,8.18l4.57,4.82,1.75-11.55-4.42-4.11c-.28,5.3-2.66,10.27-6.51,13.92l3.44,4.1c.27-1.61,.57-3.21,.81-4.82,.11-.75,.2-1.5,.3-2.25,.13-1.03,0-1.76-.25-2.77-.14-.55-.87-2.01-1.62-1.74h0Z"/><path class="cls-1" d="M326.99,319.44c12.55,15.73,28.18,29.27,44.72,40.66,8.66,5.96,17.76,11.19,26.71,16.69,8.18,5.02,16.26,10.68,22.7,17.86,2.99,3.33,5.54,7.12,7.63,11.08,1.05,1.99,2,4.02,2.78,6.14s1.17,4.35,2.09,6.35c1.07,2.33,3.04,4.11,5.71,4.37,.92,.09,2.1,.06,2.39-1.01,.08-.29,.02-.92,.02-.98,0-.08,.13-.5,.11-.73-.11-1.2-.62-2.49-.99-3.63s-.8-2.28-1.28-3.39c-1.91-4.39-4.42-8.49-7.42-12.22-6.21-7.72-13.8-14.22-21.97-19.83-9.01-6.19-18.64-11.43-27.96-17.12-17.54-10.7-33.2-24.03-47.67-38.55-1.83-1.84-3.63-3.7-5.43-5.57-.41-.43-1.17-.89-1.79-.85-.54,.04-.72,.29-.35,.75h0Z"/><path class="cls-1" d="M435.02,397.56c5.1,4.94,8.25,11.62,8.77,18.69l6.44,2.4c-1.87-9.3-6.96-18.38-13.6-25.11-.8-.81-5.26-3.43-5.51-.98-.4,3.85,1.26,7.36,3.81,10.15,.83,.91,2.33,1.78,3.6,1.73,1.05-.04,1.42-.82,.75-1.72-1.6-2.16-2.03-4.88-1.71-7.5l-5.51-.98c2.76,3.14,5.24,6.53,7.19,10.23,2.06,3.92,3.46,8.06,4.66,12.3,.38,1.35,2.35,2.37,3.56,2.7,.66,.19,2.98,.56,2.76-.83-1.38-8.71-5.95-16.47-12.86-21.92-.56-.44-1.82-1.05-2.55-.7s-.25,1.1,.2,1.53h0Z"/><path class="cls-1" d="M788.15,238.62c-1.89-1.77-5.03-2.75-7.49-1.7-.97,.41,1.01,1.9,1.31,2.08,6.9,4.25,14.28,7.76,21.39,11.64s13.69,7.94,20.04,12.69,12.44,9.97,18.51,15.13c2.8,2.38,5.6,4.77,8.34,7.22,.32,.29,.65,.58,.97,.87,.15,.13,1.08,.98,.61,.55s.04,.04,.12,.11c.21,.2,.42,.39,.63,.58,.47,.44,.94,.88,1.41,1.32,1.29,1.23,2.57,2.49,3.82,3.76,.75,.76,1.5,1.53,2.23,2.31,.34,.36,.68,.73,1.02,1.1,.07,.07,.55,.61,.11,.12s.17,.19,.25,.28c1.36,1.52,2.66,3.1,3.91,4.7,.6,.77,1.2,1.56,1.78,2.35,.12,.17,.25,.34,.37,.51,.45,.61-.46-.67-.03-.05,.28,.4,.56,.8,.83,1.21,1.18,1.75,2.25,3.55,3.33,5.36,1.44,2.42,4.22,4.35,6.86,5.18,1.57,.49,4.3,.52,3.48-1.96-.47-1.41-.93-2.82-1.4-4.23-.72-2.17-3.12-3.86-5.08-4.76-1.04-.48-4.05-1.58-4.23,.45-.1,1.11-.19,2.23-.29,3.34l10.49,4.14c-4.48-7.09-10.19-13.45-16.13-19.33s-11.89-10.92-18.14-16-12.71-10.33-19.3-15.17c-6.93-5.09-14.26-9.63-21.79-13.78-4.15-2.29-8.36-4.46-12.64-6.51-3.97-1.9-8.04-3.79-12.21-5.21l2.25,2.29c1.05-1.21,2.63-2.04,3.95-.59,.26,.29,1.25,.48,.72-.02h0Z"/><path class="cls-1" d="M806.49,249.62c3.09,1.15,5.99,3.14,8.82,4.8s5.46,3.13,8.14,4.77c5.37,3.3,10.59,6.84,15.61,10.66,2.56,1.95,5.06,3.98,7.51,6.07,1.12,.96,2.23,1.93,3.33,2.92,.5,.45,1,.91,1.5,1.37,.3,.27,.6,.55,.89,.83,.16,.15,1.43,1.36,.55,.51,2.32,2.23,4.62,4.49,6.84,6.83,1.02,1.07,2.03,2.16,3.02,3.25,.27,.3,.54,.6,.81,.9,.91,1.01-.68-.79,.21,.24,.52,.61,1.04,1.21,1.56,1.83,4.75,5.68,8.57,11.46,12.71,17.56,1.15,1.7,2.86,3.03,4.68,3.95,1.31,.66,3.2,1.46,4.68,.86,1.17-.47,2.23-1.25,3.07-2.2,1.1-1.24,.74-2.85,.28-4.28s-2.28-2.71-3.53-3.41c-1.15-.64-2.85-1.43-4.18-.89-.49,.2-.94,.35-1.38,.61-.52,.31-.94,.74-1.4,1.13-.56,.48-1.29,.88-2.11,1.14l9.36,4.82c-3.75-5.62-8.21-10.84-12.68-15.9-4.99-5.64-10.21-11.04-15.73-16.17-9.99-9.28-21.17-17.5-33-24.26-3.12-1.78-6.31-3.45-9.55-5.02s-6.95-2.6-10.23-4.28c-.34-.17-1.03-.48-1.07,.1-.04,.51,.96,1.1,1.32,1.23h0Z"/></g><g><path class="cls-4" d="M871.75,467.11c-1.12,2.98,.78,6.18,3.76,7.02,2.2,.61,4.5,.12,6.68-.3s4.57-.89,6.84-1.35c9.19-1.89,18.32-4.04,27.38-6.46,18.11-4.83,35.95-10.71,53.39-17.59,9.7-3.83,19.27-7.97,28.7-12.41,.56-.26,.46-2.45-.07-2.71-2.67-1.31-3.99-4.51-1.9-6.94,.4-.46,.59-2.37-.07-2.71-1.57-.83-3.34-1.43-5.12-1.54s-3.63,.54-5.23,1.3c-.27,.13-.19,1.48,.1,1.43,3.28-.6,7.14-.06,10.07,1.53l-.07-2.71c-3,3.41-2.27,10.29,2.02,12.36l-.07-2.71c-15.93,7.62-32.26,14.38-48.93,20.22-16.55,5.81-33.42,10.7-50.5,14.68-4.84,1.13-9.69,2.18-14.56,3.16-2.28,.46-4.65,1.1-6.98,1.05-1.17-.02-2.35-.25-3.34-.91s-2.11-1.95-1.64-3.24c.14-.38-.18-1.98-.48-1.18h0Z"/><path class="cls-4" d="M877.22,466.14c.74,.16,1.29,.24,2.03,.04,.67-.19,1.34-.38,2.01-.57,1.26-.37,2.52-.75,3.77-1.15,2.65-.84,5.28-1.75,7.88-2.72,5.03-1.88,9.97-4,14.79-6.37,.51-.25,.25-2.45-.17-2.31-.28,.1-.42,.13-.7,.03l-.18-.07c-.38-.19-.4-.32-.06-.39,.19-.37,.8-.64,1.15-.85,1.28-.73,2.65-1.32,3.98-1.96,2.58-1.24,5.18-2.43,7.79-3.6,5.4-2.41,10.88-4.66,16.41-6.75,10.85-4.1,21.92-7.61,33.16-10.48,6.33-1.62,12.75-3.07,18.99-4.99,.19-.06,.16-.8-.02-.78-6.38,.48-12.84,1.89-19.03,3.47-6.29,1.61-12.53,3.41-18.71,5.4-12.1,3.9-23.97,8.55-35.5,13.89-1.61,.75-3.22,1.51-4.82,2.28-1.29,.62-2.98,1.18-3.88,2.36s-.91,5.63,1.5,4.78l-.17-2.31c-4.97,2.44-10.04,4.67-15.22,6.63-2.46,.93-4.95,1.8-7.45,2.61s-5.52,1.21-7.6,2.86c-.18,.14-.2,.88,.07,.93h0Z"/><path class="cls-4" d="M998.91,440.96c19.75-.81,39.46-2.87,59.03-5.67,9.75-1.4,19.46-3.01,29.14-4.83s18.65-3.46,27.73-6.07c4.77-1.37,9.47-3.08,13.89-5.35,1.69-.87,3.45-1.99,4.15-3.86,.46-1.23,.6-3.11-.59-3.97-.29-.21-.25,1.12-.14,1.28,2.59,4.03-18.41,9.92-21.07,10.6-8.63,2.22-17.43,3.9-26.19,5.54-18.16,3.4-36.47,6.05-54.85,7.95-10.36,1.07-20.76,1.91-31.15,2.65-.45,.03-.39,1.76,.04,1.74h0Z"/><path class="cls-4" d="M1130.61,412.37c3.22,0,6.43-.9,9.55-1.63s6.16-1.53,9.19-2.46c6.04-1.85,11.97-4.03,17.76-6.54s11.43-5.3,16.87-8.45c4.62-2.68,9.86-6.04,12.49-10.88,1.24-2.29,1.08-5.22-1.57-6.26-3.32-1.3-6.85-2.7-10.41-3.1-.29-.03-.24,1.14-.02,1.27,2.62,1.5,5.4,2.36,8.25,3.3,1.01,.34,3.2,.64,3.63,1.76s-1.54,3.08-2.19,3.84c-3.39,3.95-7.93,6.7-12.42,9.22-10.22,5.72-21.03,10.36-32.21,13.85-3.04,.95-6.1,1.84-9.18,2.66-3.25,.85-6.62,1.38-9.75,2.57-.19,.07-.19,.84,.02,.84h0Z"/><path class="cls-4" d="M881.21,309.77c19.58,6.85,39.62,12.08,59.91,16.34s40.82,7.61,61.35,10.66c20.58,3.06,41.21,5.82,61.79,8.91,20.5,3.08,40.96,6.5,61.23,10.89s40,9.66,59.4,16.49c2.48,.87,4.94,1.77,7.4,2.69,.17,.06,.53-2.08-.06-2.3-19.36-7.23-39.26-12.89-59.4-17.49s-40.62-8.18-61.09-11.34-41.18-5.93-61.77-8.91-41.08-6.16-61.45-10.2c-20.18-4-40.22-8.87-59.86-14.98-2.5-.78-4.99-1.58-7.47-2.4-.2-.06-.4,1.47,.04,1.63h0Z"/><path class="cls-4" d="M775.79,338.21c2.06,1.32,4.68,1.28,7.08,1.21,2.53-.07,5.06-.39,7.55-.81,5.04-.85,10.05-1.94,15.05-2.99,10.26-2.14,20.61-4.22,30.7-7.06,.26-.07,.21-1.04-.02-1.01-10.23,1.44-20.38,3.7-30.49,5.84-4.94,1.04-9.85,2.25-14.82,3.19-2.49,.47-5.01,.85-7.55,1-1.25,.07-2.51,.08-3.77,.05-1.32-.03-2.44-.18-3.73,.15-.12,.03-.1,.38-.01,.44h0Z"/><path class="cls-4" d="M776.65,336.73c3.19-2.11,5.66-5.22,7.8-8.37s3.92-6.67,5.21-10.31c2.65-7.47,3.31-15.49,2.13-23.32-2.5-16.63-12.14-31.32-14.23-48.03-.24-1.9-.63-4.12-.09-6s2.1-3,3.89-3.37c3.51-.74,7.11,.69,10.32,1.96,7.59,3,15.02,6.41,22.24,10.22,14.5,7.65,28.16,16.91,40.68,27.49s23.92,22.51,33.88,35.54c.15,.2,1.6,2.3,1.71,2.26-.68,.25,.32-1.04-.01-.33-.07,.15-.04,.28-.14,.44-.11,.18-.35,.34-.32,.46-.29-1.03-.59,.42-.46,.86,.26,.91,.77,1.5,1.46,.45,.77-1.17,.71-3.19,.06-4.4-.96-1.79-2.55-3.44-3.81-5.04s-2.6-3.28-3.93-4.88c-5.44-6.54-11.25-12.78-17.38-18.67-12.37-11.88-26.06-22.37-40.76-31.21-7.41-4.45-15.06-8.51-22.92-12.1-3.87-1.77-7.78-3.44-11.75-4.98-3.09-1.2-6.88-2.37-10.13-1.1-3.92,1.54-4.28,6.16-4.07,9.81,.25,4.39,1.05,8.73,2.21,12.96,2.28,8.32,5.97,16.18,8.88,24.28,2.97,8.27,5.13,16.96,4.07,25.8-1.02,8.51-4.69,16.75-10.15,23.34-1.45,1.75-3.02,3.41-4.54,5.09-.17,.19-.16,1.34,.15,1.13h0Z"/><path class="cls-4" d="M778.21,330.63c-16.75,5.38-33.72,10.13-50.76,14.49s-34.3,8.33-51.51,12.24-34.57,7.8-51.79,12.01c-17.08,4.17-34.08,8.66-50.88,13.83s-33.11,10.93-49.17,17.72c-2.04,.86-4.06,1.74-6.09,2.63-.51,.22-.3,2.35,.26,2.1,16.11-7.1,32.65-13.17,49.41-18.5s33.71-9.93,50.76-14.17,34.16-8.12,51.28-12.01,34.43-7.81,51.55-12.09c17.03-4.25,33.97-8.85,50.65-14.34,2.11-.69,4.21-1.4,6.3-2.11,.5-.17,.26-1.89-.04-1.79h0Z"/><path class="cls-4" d="M536.02,390.43c-2.16-1.38-4.2-2.87-6.45-4.12-2.01-1.11-4.03-2.19-6.05-3.28-1.37-.74-3.17-1.68-4.38-.16-.96,1.21-1.02,3.06-1.45,4.48-1.06,3.52-2.95,6.79-5.4,9.53s-5.58,4.68-8.63,6.8c-.2,.14-.2,1.22,.09,1.15,3.3-.7,6.16-3.1,8.42-5.51s4.04-5.23,5.27-8.3c.62-1.55,1.01-3.13,1.39-4.75,.22-.94,.53-2.01,1.6-2.28s2.08,.4,2.96,.86c2.02,1.06,4.03,2.15,6.06,3.19,2.14,1.09,4.34,1.87,6.54,2.81,.11,.05,.12-.37,.03-.43h0Z"/><path class="cls-4" d="M516.06,405.58s.01-.06,0-.06c-.01,0-.01,.06,0,.06h0Z"/><path class="cls-4" d="M515.44,403.77c-1.99-1.2-4.05-.64-6.17-.04-2.35,.67-4.68,1.41-7.02,2.09-4.72,1.35-9.47,2.56-14.26,3.65-9.59,2.19-19.26,3.93-29.02,5.08-2.68,.32-5.36,.59-8.04,.83-1.42,.12-2.84,.24-4.27,.34s-2.6,.11-3.85,.72c-.31,.15-.22,1.26,.1,1.37,2.21,.79,5.06,.13,7.36-.07s4.74-.43,7.1-.7c4.8-.54,9.59-1.21,14.36-2.01,9.55-1.6,18.98-3.74,28.28-6.44,2.67-.77,5.33-1.57,7.97-2.45,2.46-.82,4.8-1.7,7.44-1.49,.23,.02,.17-.79,.02-.88h0Z"/><path class="cls-4" d="M306.9,282.17c4.98,11.19,11.49,21.69,18.74,31.54s15.25,18.82,24.08,27.1c9.28,8.69,19.43,16.28,29.95,23.39,10.92,7.38,22.12,14.36,32.7,22.23,5.73,4.26,11.39,8.73,16.41,13.82,2.33,2.36,4.51,4.89,6.39,7.62s3.31,5.82,4.74,8.87c.35,.74,.56-.63,.5-.9-1.35-5.63-5-10.69-8.8-14.96-4.04-4.56-8.73-8.53-13.48-12.32-10.38-8.26-21.57-15.41-32.61-22.73-10.73-7.12-21.31-14.47-30.99-23s-17.6-17.06-25.17-26.67c-8.52-10.83-15.65-22.55-22.19-34.66-.25-.47-.38,.45-.28,.68h0Z"/><path class="cls-4" d="M300.74,279.63c2.85,7.83,6.52,15.34,10.09,22.87s7.38,15.12,11.25,22.58c7.66,14.79,15.74,29.36,24.24,43.69s17.23,28.14,26.44,41.83c4.65,6.91,9.4,13.75,14.24,20.53,2.45,3.42,4.92,6.82,7.41,10.2,2.26,3.07,5.25,6.28,6.07,10.11,.48,2.24-.04,4.56-.57,6.75s-1.09,4.29-1.63,6.44c-1.12,4.41-2.24,8.81-3.37,13.21-2.23,8.72-4.46,17.44-6.7,26.16-.56,2.18-1,4.31-1.31,6.54-.06,.41,.48,1.9,.86,.93,1.65-4.16,2.51-8.6,3.58-12.93s2.2-8.85,3.3-13.28c2.21-8.88,4.61-17.74,6.64-26.67,.88-3.89,1.02-7.67-.73-11.35s-4.45-6.66-6.78-9.82c-4.98-6.75-9.87-13.58-14.65-20.47-9.7-13.98-18.99-28.25-27.84-42.78-8.81-14.47-17.19-29.19-25.13-44.16s-15.38-29.94-22.46-45.2c-.85-1.84-1.85-3.6-2.83-5.37-.09-.16-.14,.14-.11,.21h0Z"/><path class="cls-4" d="M386.76,509.02c0,1.69,1.06,3.12,2.77,3.44,2.22,.42,4-1.4,5.27-2.97,3.94-4.83,7.69-9.83,11.53-14.74,7.61-9.73,15.12-19.55,22.75-29.27,1.8-2.3,3.66-4.57,5.78-6.59s4.68-3.59,7.16-5.25c.28-.19,.3-1.63-.12-1.54-4.32,.94-7.86,4.91-10.63,8.14-3.5,4.08-6.68,8.44-9.97,12.68-7.21,9.29-14.4,18.59-21.57,27.91-1.94,2.52-3.78,5.17-5.87,7.57-.86,.99-1.96,1.98-3.3,2.17-.96,.14-3.06-.29-3.12-1.57-.04-.92-.66-.92-.66,.02h0Z"/><path class="cls-4" d="M431.87,452.58c31.44,3.93,63.48,2.45,95.09,2.29,31.75-.15,63.5-.31,95.25-.46,63.24-.3,126.48-.69,189.72-.95,35.26-.15,70.85-.15,105.95-3.93,.93-.1,.71-4.27-.1-4.2-31.75,2.68-63.44,4.52-95.31,5.22-31.45,.69-62.93,.62-94.38,.83-63.49,.43-126.99,.86-190.48,1.3-35.18,.24-70.69,1.77-105.77-1.67-.3-.03-.35,1.52,.04,1.57h0Z"/><path class="cls-4" d="M667.94,455.02c.33,.57,.49,.95,1.06,1.22,.47,.22,.97,.39,1.45,.6,1.08,.48,2.13,1.02,3.15,1.61,1.82,1.06,3.53,2.29,5.11,3.68,1.74,1.53,3.33,3.23,4.71,5.09,1.13,1.53,1.99,3.28,3.26,4.7,1.53,1.72,3.35,2.08,5.53,1.47,2.39-.68,4.74-1.58,7.07-2.46,4.61-1.73,9.16-3.65,13.57-5.84,2.54-1.26,5.04-2.59,7.51-3.98s5.32-2.74,7.46-4.62c.32-.29,.27-2.37-.15-2.2-2.17,.86-4.18,2.39-6.22,3.55-2.19,1.24-4.41,2.43-6.66,3.57-4.48,2.27-9.05,4.39-13.71,6.28-2.39,.97-4.81,1.89-7.25,2.75-2.1,.74-4.33,1.58-6.26-.01-1.57-1.31-2.48-3.36-3.69-4.98s-2.63-3.19-4.15-4.58c-1.73-1.58-3.63-2.96-5.66-4.13-1.07-.62-2.18-1.17-3.32-1.66-.45-.19-.9-.37-1.35-.54-.78-.29-.83-.32-1.46,.32-.03,.03-.02,.12,0,.15h0Z"/><path class="cls-4" d="M547.04,457.47c-.29,.13-.7,.02-.74-.35-.04-.34,.4,0,.63,.12,.41,.2,.82,.44,1.2,.7,.8,.56,1.44,1.29,1.96,2.11,1.17,1.85,1.68,4.06,1.95,6.2,.74,5.93,.61,12.07,.11,18.01-.01,.15,.12,1.94,.59,1.5,4.67-4.34,9.26-8.77,13.76-13.29,2.19-2.21,4.37-4.43,6.52-6.68s4.79-4.57,6.39-7.35c.12-.22,.21-1.74-.27-1.48-1.33,.73-2.29,1.96-3.32,3.06-1.09,1.17-2.18,2.33-3.29,3.49-2.15,2.26-4.32,4.49-6.51,6.7-4.44,4.48-8.97,8.87-13.59,13.18l.59,1.5c.39-4.69,.5-9.39,.26-14.09-.17-3.38-.38-6.83-1.58-10.03-.49-1.31-1.16-2.59-2.11-3.62-.68-.74-2.1-2.06-3.23-1.83-1.58,.32-.34,3.55,.68,2.3,.02-.02,.02-.18-.03-.15h0Z"/><path class="cls-4" d="M816.86,302.93c-3.23,6.84-8,12.98-13.82,17.8-.23,.19-.11,1.3,.14,1.13,3.2-2.19,5.92-4.83,8.27-7.91,2.48-3.23,4.25-6.81,5.51-10.67,.02-.08-.04-.49-.11-.35h0Z"/><path class="cls-4" d="M431.53,433.19c16.37,4.45,33.34,2.47,49.9,.23,17.24-2.34,34.48-4.67,51.75-6.83,34.3-4.3,68.66-8.13,103.08-11.38,69.14-6.54,138.52-10.76,207.97-11.81,39.07-.59,78.13,.06,117.19,.89,.21,0,.22-1.05-.03-1.06-69.26-4.04-138.98-2.4-208.22,1.28-69.39,3.69-138.6,10.17-207.57,18.61-19.41,2.37-38.79,4.9-58.16,7.57-18.53,2.55-37.38,5.2-55.94,1.35-.22-.05-.29,1.09,.03,1.18h0Z"/><path class="cls-4" d="M987.34,395.97c.74,2.08,1.22,4.31,1.3,6.51s-.41,4.4-.6,6.61c-.02,.2,.14,1.53,.5,1,.72-1.04,.87-2.3,1.02-3.53,.17-1.4,.21-2.83,.13-4.24-.16-2.71-.72-5.33-1.87-7.8-.16-.35-.38-.34-.52,.01-.17,.42-.11,1.01,.04,1.43h0Z"/><path class="cls-4" d="M996.31,394.58c.21,1.55,.81,2.99,1.19,4.5,.34,1.38,.6,2.75,.74,4.17,.11,1.21,.16,2.5,.07,3.71-.05,.68-.16,1.35-.19,2.03-.05,1.03,.09,1.57,.28,2.42,.03,.12,.1,.41,.27,.41,.65,.02,.83-.63,.96-1.17,.23-.95,.29-1.98,.34-2.95,.1-1.88,.08-3.8-.19-5.67-.25-1.69-.62-3.38-1.18-4.99-.26-.76-.57-1.52-.93-2.23-.25-.5-.52-1.12-1.11-1.23-.3-.06-.26,.91-.25,1h0Z"/><path class="cls-4" d="M1007.92,393.28c0,.88,.04,1.58,.27,2.44s.42,1.7,.59,2.57c.29,1.51,.46,3.06,.52,4.59,.13,3.21-.37,6.29-1.26,9.37-.23,.79-.42,2.39,.23,3.09,.7,.77,1.05-.66,1.06-1.2v-.32c.03-.54,.08-1.93-.66-2.12l-.12-.03,.61,3.35c2.32-6.89,2.19-14.87-.4-21.65-.05-.12-.2-.4-.38-.38-.12,.02-.23,.01-.34-.03-.12-.02-.12,.29-.12,.34h0Z"/><path class="cls-4" d="M1018.02,395.08c.27,.55,.41,.97,.46,1.6,.04,.52,.08,1.02,.26,1.51,.23,.62,.49,1.22,.68,1.85,.37,1.28,.59,2.6,.6,3.94,.04,2.69-.81,5.17-2.1,7.5-.49,.89-.46,2.14-.22,3.1,.14,.55,.57,1.58,1.15,.78,.97-1.34,1.52-2.94,2.19-4.44,.1-.22,.22-2-.3-1.68-1.1,.68-2.01,1.21-2.81,2.24l.93,3.88c1.98-3.33,2.76-7.43,2.67-11.27-.05-1.91-.31-3.83-.85-5.66-.25-.85-.54-1.7-.91-2.51-.16-.36-.29-.74-.73-.78-.13-.01-.22,.12-.37,.07-.18-.05-.41-.44-.52-.58-.14-.17-.16,.36-.12,.44h0Z"/><path class="cls-4" d="M1028.16,396.11c.18-.34,.32-.32,.41,.06,.11-.82,.13-.93,.05-.31-.03,.42,.01,.82,.09,1.24,.14,.73,.32,1.45,.45,2.18,.26,1.46,.39,2.93,.41,4.41,.04,2.99-.42,5.99-1.33,8.84l1.1,1.75c.05-.62,.31-1.07,.73-1.53,.21-.22,.37-1.9-.13-1.81-1.11,.18-1.64,.87-1.78,1.97-.1,.74-.15,1.66,.22,2.34,.28,.52,.65,.42,.82-.16,.99-3.26,1.55-6.6,1.62-10.01,.04-1.69-.05-3.38-.25-5.06-.19-1.59-.37-3.4-.99-4.88-.11-.27-.26-.55-.58-.4l-.25,.03c-.05-.04-.1-.03-.15,0-.25,.21-1.27,1.39-.44,1.57,.05,.01,.05-.2,0-.22h0Z"/><path class="cls-4" d="M1122.24,391.59c-1.02,1.07-1.37,2.55-1.35,4,0,.8,.14,1.62,.44,2.36,.08,.19,.16,.5,.34,.61,.11,.07,.27,.07,.39,.07,.26,.01,.51-.01,.76-.07,1.05-.25,1.92-1.01,2.41-1.95,.09-.17,.16-.34,.23-.52,.02-.06,.05-.12,.07-.18-.05,.22-.06,.15-.01,.06,.17-.33,.28-.7,.34-1.06,.12-.64,.13-1.3,.04-1.94-.03-.26-.07-.51-.13-.76-.08-.33-.18-.94-.5-1.14-.21-.13-.56-.13-.8-.11-.28,.03-.57,.16-.81,.3-.47,.26-.85,.71-1.11,1.17-.51,.89-.66,1.97-.64,2.98,.02,.95,.17,2.06,.75,2.86s1.57,1.24,2.56,1.12c.46-.06,.94-.24,1.31-.52,.61-.47,.91-1.21,1.04-1.95,.15-.87,.13-1.81-.07-2.66-.06-.23-.12-.47-.22-.68-.11-.25-.31-.75-.66-.73-.23,.01-.48,.05-.68,.18-.54,.33-.56,1.36-.55,1.87,.01,.59,.09,1.8,.91,1.87,.23,.02,.38-.15,.46-.35,.25-.59,.23-1.38,0-1.98-.06-.15-.2-.43-.4-.29-.21,.15-.25,.58-.26,.81,0,.04,.05-.74,.33-.76-.06,0,.13,.04,.05,.01-.14-.05,.15-.02,.03,.05,0,0-.06-.09-.06-.09-.07-.1,.01-.13,.03,.07,0-.04-.04-.09-.05-.12-.08-.18,.08,.32,.08,.34,.11,.64-.86,2.29-.28,2.02l-.16,.07c.08-.02,.16,0,.23,.02l-.17-.06c.11,.04,.19,.09,.27,.17l-.17-.19c.12,.18-.15-.33-.01,0,.06,.14,.13,.29,.21,.42-.18-.26-.14-.29-.07-.14-.15-.34-.16-.63-.18-.88-.02-.22-.03-.45,0-.67,.06-.41,.07-.52,.04-.34,.01-.06,.12-.49,.04-.21,.1-.39,.11-.26,.04-.13-.04,.06-.08,.12-.13,.18l.17-.22c-.22,.27-.51,.47-.83,.61l.2-.08c-.58,.23-1.22,.24-1.81,.04l.2,.07c-.33-.12-.62-.31-.86-.57l.18,.21c-.06-.07-.12-.14-.17-.22,0,0-.08-.15-.08-.15,.01,0,.15,.33,.08,.15-.1-.25,.11,.45,.05,.19-.05-.23,.06,.35,.05,.32-.04-.3,.02,.62,.02,.32,0,0-.03,.66,0,.35,.02-.19-.08,.58-.03,.29,.04-.24-.12,.39-.05,.22,.02-.05,.03-.1,.05-.15,.06-.21-.14,.27-.06,.13,.11-.19,.2-.38,.34-.56l-.17,.21c.26-.32,.58-.58,.97-.74l-.19,.08c.31-.12,.62-.2,.95-.19l-.51-.57c.02,.06,.04,.12,.07,.17-.18-.41-.09-.32-.05-.16,.06,.25-.1-.45-.04-.25,.02,.17,.05,.33,.08,.49,.13,.44,.15,.52,.07,.24-.02-.06-.13-.68-.1-.42,.03,.27-.03-.51-.02-.22,0,.26,.03-.46,0-.17,0,.06,0,.11-.01,.17-.02,.24,.17-.63,.06-.35-.02,.04-.03,.15-.07,.18,.05-.12,.06-.14,.03-.08-.01,.03-.03,.06-.04,.09-.03,.06-.06,.12-.09,.18-.05,.1-.11,.19-.17,.28-.04,.05-.08,.11-.12,.16-.12,.17,.09-.09-.05,.06-.68,.73-1.48,1.2-2.5,1.1l.24,.18c-.05-.09-.04-.09,0,.01-.02-.04-.04-.09-.06-.13-.03-.07-.05-.13-.07-.2-.04-.11-.03-.09,.02,.06-.01-.05-.02-.09-.04-.14-.01-.05-.02-.09-.03-.14l.03,.17c0-.08-.02-.21-.03-.29,.07,.38,.02,.17,.01,.06-.01-.23-.02,.34,0-.02,0-.05,0-.1,.01-.15-.02,.18-.03,.22-.01,.13,.01-.07,0-.19,.05-.25-.04,.14-.04,.16-.01,.05,0-.04,.02-.07,.03-.11,.03-.08,.06-.16,.08-.25,.04-.09,.04-.09,0,0,.01-.03,.03-.07,.05-.1,.14-.3,.33-.6,.53-.83,.33-.38,.33-1.05,.26-1.52-.02-.13-.24-1.18-.55-.85h0Z"/><path class="cls-4" d="M1120.46,386.5c-.26-.04-.66-.18-.92-.17-.2,0-.43,.16-.61,.24-.63,.28-1.15,.69-1.63,1.17-.86,.86-1.56,1.89-2.06,2.99-.99,2.2-1.26,4.71-.89,7.09s1.3,4.54,3.04,6.09c1.59,1.41,3.82,2.07,5.93,1.86,2.37-.23,4.58-1.74,5.72-3.81,.12-.22,0-1.36-.24-1.01-2.02,2.98-6.68,3.42-9.7,1.84-3.61-1.89-4.99-6.35-3.57-10.05,.44-1.16,1.13-2.24,1.99-3.13,.4-.41,.86-.78,1.31-1.14,.26-.21,.58-.38,.83-.6,.3-.27,.53-.6,.84-.87,.08-.07,.1-.47-.04-.49h0Z"/><path class="cls-4" d="M1124.36,386.98c4.36-.05,9.43,1.67,10.85,6.28s-3.26,9.11-7.44,10.05c-.28,.06-.26,1.11,.03,1.12,4.27,.14,7.53-3.73,8.19-7.68,.7-4.22-1.3-8.35-5.23-10.16-2.09-.96-4.41-1.09-6.41,.16-.04,.02-.04,.22,.02,.22h0Z"/><path class="cls-4" d="M1036.3,401.61c.04-.71-.91-.74-1.14-.14-.77,1.99,2.88,2.18,3.85,2.31,6.1,.8,12.23,1.31,18.37,1.56,12.35,.51,24.79-.29,37.05-1.79,6.95-.85,13.86-1.92,20.61-3.82,.24-.07,.2-.98-.02-.95-10.53,1.13-20.94,3.02-31.51,3.89-10.55,.87-21.16,1.06-31.74,.6-2.9-.13-5.8-.31-8.7-.56-1.53-.13-3.05-.3-4.58-.45-.66-.06-1.35-.05-2-.17-.2-.04-.77-.12-.82-.28-.08-.28,.54-.55,.61-.19,0,.02,.02,0,.02,0h0Z"/><path class="cls-4" d="M1135.17,394.79c2.15,.69,4.67,.32,6.91,.21s4.59-.28,6.88-.5c4.57-.46,9.12-1.22,13.61-2.19s8.94-2.18,13.31-3.62c2.18-.72,4.35-1.49,6.49-2.33s4.34-1.44,5.98-2.95c.15-.14,.22-1.1-.08-1.1-1.39,0-2.55,.67-3.82,1.19-.99,.41-1.99,.81-2.99,1.19-2.15,.82-4.32,1.59-6.51,2.3-4.23,1.37-8.53,2.53-12.88,3.47s-8.74,1.64-13.16,2.18c-2.28,.28-4.58,.5-6.87,.66s-4.75-.08-6.89,.65c-.22,.07-.19,.77,.02,.84h0Z"/><path class="cls-4" d="M1195.87,380.16c-.19,.15-.38,.32-.61,.41-.18,.06-.32,.03-.48,.05-.31,.04-.76,.37-1,.55-.74,.55-1.5,1.06-2.31,1.5-1.63,.9-3.34,1.66-5.14,2.15-.24,.07-.19,1.03,.02,1.01,1.79-.19,3.54-.61,5.16-1.42,.81-.4,1.59-.86,2.33-1.38,.93-.65,1.34-1.69,2.06-2.54,.05-.06,.02-.37-.04-.32h0Z"/><path class="cls-4" d="M867.16,346.02c-5.46,16.27-8.28,33.32-8.35,50.48-.02,4.9,.21,9.8,.65,14.68,.05,.61,.39,.14,.36-.25-1.4-16.94-.22-34.08,3.54-50.66,1.08-4.75,2.37-9.46,3.87-14.1,.02-.05-.03-.27-.07-.16h0Z"/><path class="cls-4" d="M875.38,346.88c-5.26,5.48-5.89,13.98-6.63,21.17-.96,9.38-1.35,18.86-1.01,28.29,.19,5.26,.58,10.51,1.15,15.74,.07,.65,.43,.15,.39-.26-.86-8.88-1.17-17.83-.97-26.75s.66-17.39,2.23-25.83c.8-4.31,2.26-8.59,4.88-12.15,.03-.04,0-.25-.04-.2h0Z"/><path class="cls-4" d="M876.5,355.05c-2.81,16.73-3.39,33.7-1.85,50.59,.04,.44,.36,.25,.33-.11-1.36-16.76-.77-33.69,1.67-50.33,.02-.12-.12-.38-.16-.15h0Z"/><path class="cls-4" d="M566.26,419.27c.2,4.04,.85,8.04,1.93,11.94,.05,.17,.13-.06,.1-.14-1.07-3.85-1.71-7.81-1.91-11.8,0-.16-.13-.17-.12,0h0Z"/><path class="cls-4" d="M578.67,387.61c-4.62,4.86-5.13,12.37-5.4,18.73-.34,7.94,.12,15.91,1.48,23.75,.78,4.51,1.85,8.95,3.21,13.32,.26,.84,.61-.27,.49-.69-2.62-9.37-4.19-19.05-4.48-28.77-.26-8.75-.21-18.46,4.78-26.04,.04-.07,.02-.4-.08-.29h0Z"/><path class="cls-4" d="M588.6,382.97c-4.45,4.98-6.03,12.01-6.58,18.5-.63,7.5,.09,15.14,1.27,22.56,.74,4.64,1.72,9.24,2.97,13.77,.16,.57,.39-.19,.33-.46-2.27-9.51-3.89-19.33-4.1-29.13-.19-8.88,1.45-17.33,6.17-24.95,.04-.06,.02-.4-.08-.29h0Z"/><path class="cls-4" d="M596.3,381.32c-4.82,4.51-6.33,11.48-6.7,17.84-.45,7.8,.39,15.82,2.12,23.43,1.03,4.54,2.45,9,4.22,13.3,.19,.45,.38-.38,.31-.59-3.37-9.36-5.52-19.18-5.94-29.14-.37-8.6,.59-17.41,6.09-24.39,.07-.09,.01-.56-.09-.46h0Z"/><path class="cls-4" d="M724.36,394.43c-2.57,13.42,.89,28.14,9.22,38.99,2.4,3.12,5.16,5.91,8.31,8.26,.24,.18,.32-.78,.09-.98-10.02-8.69-16.76-20.98-17.88-34.27-.33-3.93-.2-7.86,.44-11.76,.02-.15-.13-.57-.19-.25h0Z"/><path class="cls-4" d="M733.62,393.57c-4.77,13.3-1.53,29.48,6.61,40.81,2.41,3.35,5.24,6.3,8.59,8.72,.26,.19,.31-.78,.1-.98-10.46-9.19-16.99-22.42-16.81-36.46,.05-4.04,.61-8.04,1.59-11.96,.01-.05-.04-.25-.08-.13h0Z"/><path class="cls-4" d="M738.8,394.42c-1.51,7.21-.41,14.99,1.92,21.91s6.41,13.89,11.72,19.33c2.95,3.02,6.38,5.64,10.19,7.48,.34,.17,.36-.86,.1-1.03-6.06-3.99-11.47-8.89-15.56-14.92s-6.83-12.98-7.88-20.18c-.6-4.11-.58-8.29-.31-12.42,0-.13-.13-.44-.19-.17h0Z"/><path class="cls-4" d="M340.13,340.83c10.11,10.31,21.75,18.94,33.27,27.6s23.26,17.48,33.8,27.5c5.8,5.51,11.1,11.47,16.29,17.55,.28,.32,.42-.51,.29-.71-8-11.83-19.08-21.55-30.11-30.48-11.19-9.06-22.94-17.4-34.34-26.2-6.5-5.01-12.89-10.2-19.14-15.51-.1-.09-.13,.18-.07,.24h0Z"/><path class="cls-4" d="M420.07,411.06c4.37,5.53,7.29,12.26,8.22,19.25,.05,.37,.41,.23,.38-.1-.59-7.26-3.49-14.07-8.51-19.38-.09-.1-.14,.16-.09,.22h0Z"/><path class="cls-4" d="M1133.75,410.94c-.06,.21-.13,.4-.23,.6l.08-.06c-.27-.08-.34-.01-.45,.23-.07,.13-.14,.27-.22,.39-.14,.23-.29,.45-.46,.65-.39,.47-.82,.92-1.3,1.3-.95,.76-2.14,1.34-3.35,1.53-.32,.05-.29,1.25,.03,1.29,.65,.08,1.3,.05,1.94-.09s1.23-.46,1.75-.82c.56-.38,1-.84,1.39-1.39,.2-.28,.37-.58,.52-.89,.29-.6,.38-1.19,.24-1.85v.61c.09-.42,.16-.83,.2-1.26,0-.07-.08-.48-.15-.24h0Z"/><path class="cls-4" d="M1128.78,411.97c18.83-.6,37.4-7.02,53.17-17.23,4.47-2.9,8.99-6.08,12.88-9.74,.52-.49,.14-3.02-.31-2.64-3.65,3.03-7.2,6.06-11.14,8.72s-7.97,5.04-12.17,7.16c-8.43,4.26-17.41,7.43-26.65,9.41-5.21,1.11-10.51,1.98-15.82,2.47-.47,.04-.4,1.86,.05,1.85h0Z"/><path class="cls-4" d="M989.6,422.41c-4.11,.33-8.09,.88-12.14,1.67-3.95,.77-7.89,1.62-11.8,2.55-7.99,1.9-15.88,4.21-23.67,6.83s-15.33,5.5-22.81,8.71c-3.38,1.45-7.01,2.77-10.11,4.78-1.31,.84-2.5,1.9-3.31,3.24-.85,1.42-1.02,3-1.43,4.57-.58,2.19-2.44,3.13-4.46,3.75-2.18,.67-4.4,1.24-6.6,1.85-4.81,1.34-9.52,3-14.23,4.65-.38,.13-.27,1.63,.04,1.57,4.22-.86,8.42-1.77,12.6-2.8,2.07-.51,4.12-1.12,6.17-1.69,1.62-.45,3.35-.82,4.8-1.72,3.17-1.96,2.18-5.99,4.42-8.56s5.71-3.79,8.69-5.12c15.13-6.79,30.8-12.16,46.8-16.49,4.43-1.2,8.88-2.3,13.36-3.29,2.2-.49,4.4-.95,6.61-1.39,2.39-.47,4.73-1.18,7.09-1.76,.32-.08,.26-1.37-.03-1.35h0Z"/><path class="cls-4" d="M300.22,280.27c-.06-1.55,.35-3.22,1.21-4.52l-.35,.11c3.11,2.1,5.74,4.89,7.7,8.09s3.03,6.62,3.78,10.22c.13,.62,.53,.36,.52-.16-.12-8.04-5.16-15.75-11.8-20.01-.12-.07-.28,0-.35,.11-1.2,1.88-1.69,4.15-.8,6.26,.04,.09,.09-.04,.09-.08h0Z"/><path class="cls-4" d="M304.81,274.67l-3.66,.83c-.14,.03-.1,.42,0,.39l3.66-1c.08-.02,.06-.24,0-.22h0Z"/><path class="cls-4" d="M1131.56,417.26c-.16,.12-.31,.26-.48,.36s-.35,.16-.49,.3c-.34,.34-.65,.71-.93,1.1-.29,.41-.6,.82-.88,1.24-.3,.46-.56,.95-.84,1.43-.11,.19-.1,.49-.06,.7,.01,.07,.1,.45,.24,.32,.31-.3,.64-.59,.93-.91,.32-.36,.61-.75,.91-1.12,.33-.41,.61-.85,.9-1.3,.16-.25,.26-.55,.38-.83s.27-.55,.41-.83c.03-.06,.04-.55-.08-.46h0Z"/></g></svg>