<?xml version="1.0" encoding="UTF-8"?><svg id="Layer_1" xmlns="http://www.w3.org/2000/svg" viewBox="0 0 1500 750"><defs><style>.cls-1{fill:#d9d8e1;}.cls-2{fill:#9b96ac;}.cls-3{fill:#231f20;}</style></defs><g><path class="cls-2" d="M576.94,430.66s109.9,.3,148.68-17.29c38.78-17.59,168.24-42.14,190.97-42.15,22.73,0,43,1.3,43,1.3,0,0,40.69,37.19,46.97,37.94s13.82,10.53,23.88-30c0,0,114.89-61.82,122.31-52.1,7.43,9.72,2.93,3.38,2.93,3.38,0,0,32.96-30.38,44.33-30.53,0,0-47.98-10.09-91.41,2.29-43.43,12.37-171.75,36.87-171.75,36.87,0,0-183.85-51.17-252.33-45.86-68.48,5.32-91.09-2.72-162.34,6.94-71.25,9.66-171.72,28.99-171.72,28.99,0,0-65.77,8.28-44.91,20.51s53.12,25.8,53.12,25.8c0,0-12.09,5.33,5.72,11.28,17.81,5.95,114.88,31.87,114.88,31.87l97.68,10.75Z"/><path class="cls-2" d="M551.35,303.5s57.97-45.94,71.2-72.93c13.23-26.98,29.64-31.73,33.77-19.79,4.13,11.93-10.39,49.92,14.76,68.56,25.15,18.64,34.41,28.51,34.41,28.51l-154.14-4.35Z"/><path class="cls-2" d="M477.68,410.47c2.01,0,22.55,45.51,28.94,70.78,6.38,25.27,34.26,42.2,34.26,42.2,0,0,10.51-22.32,20-16.85l11.12-8.23,8.87-52.17-24.84-44.17-78.34,8.44Z"/><path class="cls-2" d="M617.49,424.34s16.89,19.48,21.98,21.53c5.1,2.05,4.4,8.55,1.06,16.87s-17.46,48.63-2.78,82.91c0,0-62.12-80.91-66.6-96.73s0-49.24,0-49.24l46.34,24.67Z"/><path class="cls-2" d="M710.52,410.47s43.06,15.66,53.87,27.47c10.8,11.81,9.29,4.09,37.4-22.28,28.11-26.37-100.82-4.67-99.49-20.76s8.22,15.57,8.22,15.57Z"/><path class="cls-2" d="M841.49,387.69c4.04-.09,36.38,7.55,47.05,16.61,10.67,9.05,7.11,5.71,10.12-9.59,3.02-15.29,42.05-25.22,42.05-25.22l-99.22,18.2Z"/><path class="cls-2" d="M854.78,323.77s45.25-34.5,47.86-31.56c2.61,2.94,14.66,48.08,13.94,50.37-.72,2.29-61.8-18.81-61.8-18.81Z"/><path class="cls-1" d="M310.21,353.93c.6,.67,.85,1.32,1.57,1.91,.63,.52,1.3,.99,1.94,1.49,1.42,1.13,2.92,2.2,4.49,3.1,3.16,1.82,6.82,2.79,10.37,3.54,3.74,.8,7.54,1.32,11.32,1.88,2.08,.31,4.16,.62,6.24,.91s4.21,.82,6.28,.84c2.64,.03,6.66-8.02,3.36-8.6-.91-.16-1.42-.16-2.29,.2-1.05,.43-1.86,1.68-2.37,2.64-.47,.88-1.17,2.39-.87,3.44,.17,.59,.24,.97,.68,1.41,.3,.29,.61,.55,.93,.81l4.48-8.38c-2.05-.52-4.27-.57-6.37-.8s-4.23-.45-6.34-.67c-3.9-.41-7.82-.76-11.69-1.41-3.63-.62-7.17-1.66-10.56-3.08-1.66-.7-3.18-1.75-4.89-2.32-.88-.29-1.71-.51-2.64-.35-1.12,.18-1.96,.87-2.87,1.52-.35,.25-1.17,1.47-.77,1.92h0Z"/><path class="cls-1" d="M321.06,349.24c-1.8-.55-3.18,1.37-3.9,2.76-.17,.32-.99,2.2-.22,2.44,5.96,1.87,12.2,2.47,18.42,1.9l.8-6.24c-2.2,2.71-3.61,6.91-1.4,9.96,1.34,1.85,3.37,3.44,5.25,4.7s3.95,2.26,6.21,2.63c2.83,.47,5.25-.28,7.58-1.91,1.64-1.15,3.07-3.2,3.65-5.12,.33-1.11,.79-3.09-.82-3.34-1.52-.23-3.04-.13-4.56-.33-1.62-.21-3.21-.69-4.69-1.34-1.64-.72-3.18-1.65-4.62-2.7-.62-.45-1.23-.92-1.81-1.43-.31-.26-1.18-1.02-1.25-1.38l-.23,1.85,.27-1.28-.6,2.09,.12-.28-1.25,2.2,.19-.28c.86-1.27,1.67-2.69,1.85-4.24,.06-.56,.04-2.28-1.04-2-3.12,.82-6.31,1.37-9.53,1.62-1.56,.12-3.12,.17-4.68,.14-.82-.01-1.64-.03-2.46-.07-.46-.02-1.92,.15-2.23-.17l.26,.62v-.11l-.77,2.05,.17-.24-1.15,1.22,.2,.07c1.13,.15,3.27-3.5,2.25-3.8h0Z"/><path class="cls-1" d="M330.89,353.14c-.36-.25-.53-.59-.5-1.01-.21-1.6-1.76-.5-2.44,.17s-2.44,2.91-1.77,4.05c1.38,2.33,4.05,3.92,6.27,5.38,2.36,1.55,4.8,3.03,7.36,4.23,5.27,2.48,10.74,4.34,16.45,5.48,.65,.13,1.72-.85,2.08-1.2,.8-.79,1.54-1.88,1.98-2.92,.51-1.2,1.37-3.54-.41-3.97-5.24-1.25-10.44-2.9-15.37-5.05-2.44-1.07-4.88-2.12-7.25-3.35s-4.87-3.1-7.55-3.68l-2.51,5.4c.58-.24,1.03-.42,1.64-.26,.94,.24,2.92-2.59,2.03-3.27h0Z"/><path class="cls-1" d="M345.62,359.08l-.15,.1,1.45-.33,.08,.31-1.05,3.06,.12-.17-2.85,2.42c.58-.12,1.94,1.15,2.49,1.52,1.02,.68,2.05,1.36,3.09,2.01,2.07,1.3,4.22,2.5,6.32,3.75,4.11,2.43,8.75,4.22,13.16,6.03s9,3.49,13.6,4.99c2.39,.78,4.85,1.63,7.34,2.04,4.26,.7,7.29-3.7,8.81-7,.67-1.45,1.42-4.01-.02-5.24-.31-.27-.55-.48-.95-.6-2.63-.74-4.91,3.67-5.39,5.66-.25,1.05-.42,2.1-.54,3.18l4.32-7.61-.16,.1,1.87-.82c-.2,.05-.4,.1-.6,.15l-.46,.12c.51-.09,.62-.12,.33-.09-.01-.02-.36,0-.4,0,.04,0,.46,.09,.08,.02-.25-.05-1.76-.45-1.05-.27-.52-.14-1.03-.28-1.55-.42-2.08-.57-4.19-1.04-6.28-1.56-4.06-1.01-8.11-2.05-12.13-3.2s-8.14-2.46-12.15-3.89-7.97-2.64-11.91-4.12c-1.06-.4-2.11-.88-3.19-1.23-1.23-.41-2.27,.1-3.18,.97-1.06,1.02-2.85,3.59-2.2,5.22,.43,1.09,1.38,.85,2.22,.32,1.35-.87,2.46-2.72,2.71-4.29,.23-1.41-.6-1.87-1.77-1.12h0Z"/><path class="cls-1" d="M353.96,364.18c1.51,.27,3.01-.17,4.37-.84,1.97-.98,3.61-2.46,5.04-4.11,2.43-2.8,4.27-6.79,3.96-10.57-.04-.51-.21-1.14-.86-1.14-.62,0-1.17,.37-1.64,.72-.7,.52-1.32,1.18-1.81,1.9-.56,.82-1.18,1.78-1.33,2.78-.05,.32-.14,.63-.23,.94-.17,.57,.01-.14,.1-.29-.08,.13-.12,.35-.17,.5-.11,.3-.23,.6-.36,.89-.06,.13-.12,.26-.18,.4,.33-.67,.42-.86,.27-.57-.04,.08-.08,.16-.12,.23-.14,.26-.29,.51-.43,.76-.38,.66,.68-1.04,.27-.41-.22,.34-1.42,2.04-.28,.44-.17,.24-.33,.48-.5,.71-.1,.14-.22,.27-.32,.41l.5-.61c-.08,.09-.15,.18-.23,.27-.72,.81-1.39,1.72-1.8,2.73-.2,.5-.61,1.62-.31,2.19,.8,1.53,2.86-.46,3.51-1.09,1.51-1.46,2.81-3.2,3.77-5.06,.48-.94,.93-1.88,1.27-2.88s.56-2.02,.81-3.06l-5.65,4.26c.04,.54,.05,1.05,.01,1.59-.04,.5,.11-.54,0-.05-.02,.11-.04,.23-.07,.34-.05,.25-.13,.5-.19,.75-.14,.52,.26-.66,.05-.16-.05,.11-.09,.22-.13,.33-.14,.34-.66,1.17,.05-.03-.13,.23-.26,.46-.4,.69-.29,.45,.07-.19,.15-.21-.05,.01-.24,.31-.27,.35-.08,.1-.16,.19-.24,.28-.29,.35,.75-.8,.35-.39-.13,.13-.58,.45-.64,.62,.03-.1,.61-.5,.19-.17-.1,.08-.2,.15-.3,.23-.12,.09-.24,.17-.36,.26-.38,.27,.49-.27,.04-.02-.47,.25-.94,.51-1.43,.74-.12,.05-.24,.1-.36,.16-.23,.09-.19,.08,.12-.04l-.56,.21c-.08,.03-.38,.19-.46,.18l.22-.08c-.11,.04-.22,.08-.33,.11-1.26,.41-2.27,1.41-2.96,2.5-.31,.5-1.19,2.12-.1,2.32h0Z"/><path class="cls-1" d="M346.29,344.55c-.86-.3-1.58,.05-2.26,.61-1.11,.91-2.11,2.44-2.4,3.86-.41,1.99,.61,3.73,2.03,5.06,1.3,1.22,3.01,2.06,4.81,2.16,2.04,.11,3.88-.79,5.38-2.12,1.16-1.03,2.14-2.37,2.82-3.77,.58-1.2,.82-2.47,.5-3.76-.18-.72-1.26,0-1.5,.19-.73,.61-1.41,1.55-1.67,2.47-.03,.09-.08,.49-.18,.55,.15-.34,.18-.42,.09-.24-.11,.23-.04,.11,.21-.35-.17,.23-.47,.58-.54,.84l.34-.47c-.22,.26-.14,.18,.24-.24-.11,.08-.3,.24-.36,.34,.1-.16,.52-.4,.11-.12-.14,.1-.29,.18-.43,.28-.15,.09-.1,.06,.17-.09-.08,.04-.16,.08-.23,.11-.16,.07-.32,.14-.48,.2-.14,.05-.27,.09-.41,.13,.38-.11-.16,.02-.24,.04-.78,.1-1.55,.04-2.32-.12-1.38-.28-2.71-1.05-3.71-2.04-.41-.41-.86-1.11-.91-1.53-.02-.15,0-.3,0-.44-.03-.35-.11,.35,0-.02l-.26,.68c-.13,.25-.3,.48-.49,.69,.02,.1-.33,.19,.1,.04,.61-.21,1.13-.9,1.43-1.45,.13-.23,.64-1.31,.18-1.47h0Z"/><path class="cls-1" d="M345.28,342.15c-2.33,2.97-3.4,7.54-1.28,10.91,.95,1.5,2.27,2.57,4.01,2.99,1.58,.38,3.39,.14,4.85-.55,2.72-1.28,4.96-3.75,5.95-6.6,.18-.53,.54-1.88-.4-1.93-.3-.02-.64,.19-.88,.34-.58,.35-1.12,1.02-1.48,1.57-.01,.02-.16,.23-.16,.23-.02-.02,.54-.66,.26-.35-.03,.03-.17,.16-.17,.19,0-.01,.58-.6,.3-.31-.12,.12-.25,.24-.37,.36-.29,.28,.28-.24,.29-.22s-.18,.13-.2,.15c-.28,.19-.66,.34-.9,.57,.06-.05,.52-.25,.21-.11-.08,.04-.17,.08-.25,.11-.19,.08-.38,.15-.58,.22-.18,.06-.36,.12-.54,.17-.09,.03-.18,.05-.27,.07-.05,.01-.37,.07-.09,.02s-.04,0-.1,.01c-.09,.01-.19,.03-.28,.03-.19,.02-.37,.03-.56,.04-.76,.02-1.54-.09-2.27-.3l.38,.12c-1.22-.37-2.24-1.09-3.02-2.11l.22,.29c-.35-.48-.64-.99-.85-1.55-.11-.29-.21-.58-.3-.87-.04-.12-.07-.25-.1-.37-.01-.04-.1-.49-.07-.31s-.03-.27-.03-.32c0-.13-.01-.25-.01-.38s0-.25,.01-.38c0-.08,.01-.17,.02-.25-.03,.2-.04,.24-.02,.12,.05-.14,.06-.29,.1-.44,.03-.11,.16-.5,0-.03,.14-.42-.22,.34,0,0,.35-.55-.19,.25,.05-.09,.31-.43,1.27-1.85,.61-2.34s-1.77,.9-2.06,1.27h0Z"/><path class="cls-1" d="M353.99,344.66l.18,.02-.26-.17c.07,.36,.08,.75,.17,1.1,.07,.29,.24,.56,.36,.84,.25,.6,.36,1.23,.54,1.85,.16,.59,.26,1.07,.27,1.6,0,.34-.01,.68-.04,1.02-.02,.2-.02,.21,.01,0-.03,.18-.07,.36-.12,.54-.02,.09-.22,.59-.05,.2s-.05,.13-.07,.17c-.05,.12-.3,.57-.04,.12s-.01,0-.07,.1c-.28,.5,.41-.55,.16-.23-.4,.49,.1-.19,.2-.21-.06,.01-.24,.26-.29,.31-.26,.28,.58-.49,.16-.16-.18,.15-.59,.34,.05,0-.1,.05-.19,.13-.28,.18-.14,.09-.29,.17-.44,.25-.39,.22,.3-.12,.02,0s-.54,.23-.82,.32c-.14,.04-.28,.08-.42,.12-.07,.02-.56,.11-.22,.06-1.44,.22-2.61,1.55-3.28,2.78-.33,.61-.7,1.31-.69,2.02,0,.38,.16,.97,.67,.92,1.96-.2,3.68-1.03,5.17-2.32,1.94-1.69,3.57-3.87,4.33-6.35,.47-1.54,.45-3.29-.13-4.8-.29-.76-.75-1.37-1.34-1.92-.25-.23-.53-.5-.83-.66-.41-.22-.97-.14-1.41-.13l.26,.17-.08-.18c-.47-1.04-2.9,2.28-1.63,2.44h0Z"/><path class="cls-1" d="M359.32,382.93c-.57,1.06-.64,1.7,.15,2.59,.56,.64,1.22,1.24,1.92,1.72,1.27,.87,2.68,1.63,4.12,2.19,3.08,1.2,6.35,1.86,9.6,2.38s6.78,.76,10.16,1.25c1.65,.24,3.29,.54,4.92,.91,1.94,.45,3.8,1.09,5.8,1.04,1.47-.04,2.73-1.8,3.38-2.91,.6-1.02,1.45-2.69,.52-3.73-.63-.72-1.2-1.08-2.08-1.42s-1.77-.56-2.67-.77c-1.73-.4-3.49-.63-5.25-.82-3.51-.38-7.04-.58-10.57-.77s-6.88-.61-10.26-1.43c-1.69-.41-3.27-1.02-4.89-1.63-.77-.29-1.64-.91-2.48-.75-.97,.19-1.93,1.33-2.36,2.15h0Z"/><path class="cls-1" d="M373.74,378.45l-.19,.1,.82-.18c-.26,.01-.21-.03-.37-.25l.17,.65c.03-.62-.13-.39-.48,.68l-1.8,1.79,.13-.09-1.21,.57c-.76,.17,.08,.11,.4,.2,.22,.07,.43,.13,.64,.22,.68,.27,1.32,.65,1.99,.92,1.6,.66,3.28,1.19,4.91,1.77,2.95,1.05,5.78,2.35,8.7,3.47,6.13,2.35,12.43,4.42,18.72,6.26,12.83,3.76,25.92,6.64,39.03,9.27,3.54,.71,7.2,1.69,10.8,1.95,1.55,.11,3.09,.16,4.63,.38,2.18,.31,4.35,.71,6.55,.61,1.62-.07,3.87-1.68,5-2.66,1.48-1.29,2.78-2.74,3.83-4.4,.76-1.2,1.69-2.79,1.72-4.25,.02-1.03-.22-2.75-1.64-2.77-1.35-.02-2.61,.23-3.94,.3-1.07,.06-2.06,.08-3.11,.27-2.46,.44-4.89,2.6-6.28,4.58-.95,1.35-2.73,4.04-1.32,5.62,.53,.59,1.06,.98,1.73,1.39s1.03,1.05,1.71,1.43l11.21-13.58c-1.62-.59-3.6-.61-5.31-.86-2.24-.33-4.45-.87-6.67-1.33-3.65-.75-7.42-1.07-11.12-1.6-7.25-1.03-14.49-2.19-21.7-3.49-14.68-2.63-29.33-5.34-44.04-7.74-2.12-.35-4.22-.89-6.31-1.37-1.8-.41-4.17-1.2-6.03-.79-1.3,.29-2.6,1.36-3.48,2.31-.73,.79-2.02,2.26-1.7,3.49,.3,1.12,1.69,1.5,2.61,.99,1.07-.6,2.16-1.6,2.55-2.81,.29-.9-.18-1.6-1.16-1.05h0Z"/><path class="cls-1" d="M353.64,364.13c3.24,2.55,6.98,3.91,10.91,4.99s8.1,2.03,12.11,3.21,8.13,2.59,12.1,4.15,8.33,4.11,12.81,4.17c1.95,.03,3.79-2.42,4.72-3.82,.81-1.22,2.28-3.59,1.1-4.98-.76-.89-1.46-1.4-2.49-1.94s-1.91-.93-2.96-1.27c-2.15-.71-4.32-1.38-6.5-2.01-4.15-1.19-8.34-2.21-12.57-3.07-8.13-1.65-16.76-2.06-24.51-5.2-1.31-.53-2.75,1.05-3.5,1.96-.51,.62-2.28,2.99-1.24,3.81h0Z"/><path class="cls-1" d="M363.08,356.54c.24-.95,.35-1.84,.24-2.82l-6.15,6.17c.46,.47,.77,.97,1.31,1.34,.5,.35,1.02,.69,1.55,1.01,1.18,.71,2.42,1.26,3.71,1.75,2.41,.92,4.91,1.57,7.42,2.16,5.44,1.28,10.91,2.36,16.25,4.01l-.8-.25c2.27,.72,4.51,1.5,6.73,2.36,1.04,.4,2.07,.82,3.1,1.26,1.25,.53,2.47,1.21,3.82,1.4,2,.29,3.62-.68,5.11-1.95,2.57-2.18,4.19-5.38,4.33-8.73s-3.23-3.73-5.7-4.42c-4.64-1.3-9.32-2.36-14.09-3.06-4.38-.64-8.75-.8-13.16-1.09-2.35-.16-4.71-.39-7.03-.85-1.11-.22-2.23-.45-3.33-.73-.62-.16-1.23-.34-1.83-.54-.64-.22-1.28-.26-1.93-.46-.61-.19-1.71,.53-2.13,.82-.9,.62-1.79,1.53-2.41,2.43-.42,.62-2.21,3.52-.47,3.73,2.37,.3,4.86-1.16,5.46-3.55h0Z"/><path class="cls-1" d="M359.51,351.09c-.43,2.65,.59,2.79,2.25,3.28,.75,.22,1.49,.44,2.23,.67,1.48,.45,2.93,.91,4.35,1.49,3.01,1.24,6.23,2.24,9.37,3.08,6.23,1.67,12.49,3.23,18.73,4.88s12.99,3.36,19.46,5.15,12.71,3.55,19.13,5.07c3.65,.87,7.31,1.65,11,2.34,3.87,.73,8.16,2.01,11.93,.45,2.82-1.17,5.21-3.34,6.82-5.95,1.13-1.83,2.65-4.46,1.25-6.48-1.17-1.7-3.19-1.78-5.09-2.13-1.7-.31-3.41-.59-5.11-.89-3.34-.59-6.66-1.25-9.97-1.99-6.7-1.49-13.33-3.3-19.96-5.09-13.36-3.61-26.83-6.93-40.6-8.46-4.07-.45-8.14-.38-12.22-.5-2.07-.06-4.15-.14-6.22-.23-1.42-.06-2.78,.22-3.91,1.12-1.24,1-3.15,2.46-3.43,4.17h0Z"/><path class="cls-1" d="M391.04,375.69c-.53-.04-.92-.07-.76-.69l-5.96,4.59c4.2,2.22,9.26,3.04,13.8,4.31,4.78,1.34,9.74,2.11,14.64,2.91s10.1,1.58,15.13,1.84c5.5,.28,11.03,.62,16.47-.42,1.68-.32,3.42-2.24,4.3-3.59,.4-.62,.78-1.27,1.02-1.97,.11-.3,.47-1.75-.13-2-4.68-1.93-9.95-2.21-14.93-2.81s-9.73-.93-14.58-1.37c-4.96-.45-9.91-1.12-14.88-1.45-5.31-.35-10.69-1.34-16.02-1.22-1.58,.03-6.9,5.15-4.43,5.97,.76,.26,1.37,.77,2.2,.79,1.42,.04,2.71-1.1,3.58-2.13,.29-.35,1.86-2.67,.54-2.77h0Z"/><path class="cls-1" d="M495.63,372.77c-.77-.4-1.44-1.15-1.05-2.09l-6.15,4.24c2.94,2.11,6.25,2.87,9.8,3.23,4.05,.41,8.13,.55,12.2,.64,8.72,.21,17.39-.13,26.09-.76,1.91-.14,3.92-2.24,4.97-3.64,.38-.5,2.24-3.56,.48-3.61-8.01-.22-16-.17-24.01-.11-4.36,.04-8.73,.05-13.08-.07-3.59-.1-7.31-.48-10.64-1.9-.56-.24-1.73,.4-2.14,.64-.92,.54-1.85,1.35-2.52,2.18-.44,.55-2.41,3.3-.72,3.61,1.21,.22,2.26,.99,3.44,1.35s4.38-3.17,3.33-3.71h0Z"/><path class="cls-1" d="M459.08,403.94l-.02-.13-1.93,2.88c-.99,.84-1.23,.51-.66,.66,.37,.1,.76,.11,1.13,.25,.84,.32,1.61,.89,2.43,1.27,1.98,.92,4.07,1.66,6.14,2.34,4.31,1.4,8.69,2.26,13.2,2.61,1.62,.13,3.26-1.96,4.03-3.15,.38-.58,1.87-3.32,.27-3.44-5.59-.44-11.2-1.46-16.54-3.18-2.15-.69-4.53-2.06-6.84-1.94-1.2,.07-2.24,.5-3.18,1.24-.78,.62-1.49,1.39-1.99,2.25-.13,.23-.25,.47-.36,.72,.24-.49-.25,.56-.29,.68-.54,1.7,.75,1.63,1.89,.9,.68-.44,1.32-1.07,1.81-1.71,.31-.41,1.23-1.63,.91-2.24h0Z"/><path class="cls-1" d="M482.6,394.7c-1.38-.6-2.89-.93-4.39-.85l.76,.15c-.3-.19-.49-.41-.88-.43-1.73-.06-3.43,1.47-4.45,2.74-.54,.68-2.23,2.92-.7,3.44,3.85,1.3,8.05,1.74,12.03,2.55s8.17,1.7,12.18,2.8c8.1,2.23,16.15,4.64,24.21,7.04,4.58,1.36,9.22,2.7,13.66,4.46l-.92-.37c2.33,.98,4.41,2.22,6.39,3.78,1.84,1.46,3.93,3.06,6.36,3.27,1.51,.13,3.22-.94,4.35-1.77,1.79-1.31,3.56-3.22,4.74-5.09,1.02-1.61,4.11-7.02,.57-7.74-.52-.14-1.05-.13-1.59,.05-.51,.07-.57,.11-.19,.12-.63,.13-1.3,.08-1.93,.19-1.33,.23-2.6,.85-3.85,1.36-1.47,.6-2.79,1.92-3.73,3.16-.52,.69-1.85,2.5-1.38,3.51,.34,.72,.45,1.48,.75,2.22,.17,.41,.38,.8,.47,1.23,.11,.52,.08,.99,.29,1.5l11.16-13.34c-.64-.11-1.26-.25-1.87-.48l.96,.37c-1.95-.81-3.5-2.24-5.25-3.39-2.13-1.4-4.56-2.36-6.97-3.16-4.78-1.58-9.88-2.62-14.83-3.49-5.26-.93-10.53-1.78-15.82-2.5s-10.96-1.15-16.44-1.61c-6.19-.52-12.55-1.32-18.75-.86l-1.72,4.96c.26-.19,.51-.39,.74-.61,.72-.61,.52-.47-.61,.43,.12,.09,.94-.2,1.1-.21,.8-.07,1.48,.17,2.19,.51,1.3,.62,4.86-3.32,3.36-3.97h0Z"/><path class="cls-1" d="M557.9,410.73c.1-1.15-.45-2.76-1.83-2.64-1.28,.11-2.7,1.49-3.48,2.4-.63,.75-1.49,1.88-1.01,2.88,.44,.9,2.3,1,3.22,1.27,1.31,.39,2.62,.73,3.96,1.02,2.52,.55,4.99,1.28,7.51,1.8,5.11,1.04,10.21,1.66,15.4,2.12,10.85,.95,21.75,1.17,32.63,1.21,11.68,.04,23.38-.41,35.04-.98,10.97-.54,21.92-1.23,32.85-2.22,6.04-.55,12.08-1.1,18.11-1.7,3.05-.31,6.11-.62,9.16-.94,1.45-.15,2.89-.3,4.34-.46,2.01-.21,3.95-.68,5.92-1.14,3.78-.89,7.53-3.53,9.96-6.51,1.31-1.61,2.98-5.03-.59-4.98-.71,0-1.41-.13-2.11-.12-1.17,.02-2.37,.28-3.54,.43-1.58,.21-3.13,1.05-4.49,1.82-1.52,.86-3.06,1.88-4.27,3.15-1.14,1.19-3.43,3.72-1.33,5.03,1.05,.65,1.79,.88,3.02,1.09l-.78-.58,.14,.31,12.78-11.16c-3.99-.22-7.94,.2-11.92,.48s-7.7,.53-11.55,.82c-7.7,.59-15.41,1.08-23.12,1.55l1.23-.07c-16.76,.99-33.48,2.27-50.27,2.67-15.93,.39-31.87,.45-47.8,.07-4.96-.12-10.1,0-15.11,.29-2.22,.13-4.43,.07-6.65,.08-1.3,0-2.61,.08-3.91,.11-1.42,.03-2.6-.06-3.96,.46l1.62,.86v-.07l-1.06,1.88-1.53,1.27c.16-.02,.31-.02,.47,.02,.19,.13,.43,.11,.63,.28,.69,.55,2.26-1.16,2.31-1.78h0Z"/><path class="cls-1" d="M511.23,385.79c3.22,.44,6.42,1.16,9.65,1.43s6.73,.55,10.1,.76c6.67,.41,13.35,.74,20.04,.96,13.41,.44,26.81,.38,40.22-.03,26.96-.81,53.9-2.85,80.72-5.7,27.27-2.9,54.49-6.32,81.67-9.92,27.39-3.62,54.79-7.16,82.25-10.26,27.08-3.06,54.29-5.7,81.55-6.36,3.88-.09,7.99,.41,11.8-.23l.35-6.37c-.91,1.18-1.7,2.24-2.43,3.52l2.05-2.89,1.58-1.47,2.73-1.55c-.31,.22-.66,.31-1.04,.25-2.06,.07-4.58,2.24-5.94,3.6-.73,.74-3.21,3.25-2.15,4.43,3.01,3.34,8.07-.86,10.39-3.07,2.11-2.01,4.57-4.78,4.16-7.92-.14-1.06-.38-1.53-1.3-1.99-1.46-.72-3.33-1.01-4.94-1.19-7.57-.86-15.24-.85-22.84-.58-14.72,.52-29.38,2.06-44.02,3.63-28.34,3.04-56.55,7.06-84.7,11.49-27.99,4.4-55.98,8.85-84.03,12.85s-56.68,7.53-85.18,9.7c-28.54,2.17-57.23,3.06-85.85,2.1-3.55-.12-7.11,.12-10.67,.05-1.3-.03-2.86,1.38-3.63,2.28-.3,.35-1.74,2.29-.53,2.46h0Z"/><path class="cls-1" d="M540.99,398.81c22.95,7.07,47.98,3.71,71.28,.28,24.65-3.63,49.27-7.56,73.9-11.34,24.2-3.71,48.43-7.3,72.65-10.88s49.16-7.54,73.83-10.71c13.57-1.75,27.18-3.39,40.8-4.75,6.83-.68,13.67-1.22,20.53-1.49,3.42-.13,6.84-.2,10.27-.18,1.65,0,3.31,.11,4.96-.01,.61-.04,1.23-.1,1.84-.17,2.5-.27,4.8-1.32,7.18-2.11l4.85-9.44c-3.13,1.35-6.76,3.16-9.56,4.29-2.45,.98-5.01,1.86-7.4,2.95-1.48,.67-2.9,1.43-4.14,2.51-.59,.52-1.77,1.49-1.73,2.35,.11,2.27,6.72-.19,8.13-.56,2.65-.68,5.37-.96,8.04-1.54,3.38-.74,7.1-3.01,9.53-5.46,.93-.94,4.08-4.21,1.64-5.2-4-1.61-7.86-2.49-12.16-2.64-3.3-.11-6.61-.15-9.91-.12-6.36,.05-12.72,.35-19.06,.79-12.58,.88-25.1,2.29-37.6,3.94-24.42,3.24-48.75,7.18-73.05,11.24-25.01,4.17-49.98,8.57-74.96,12.89-24.46,4.23-48.93,8.49-73.29,13.32-13.57,2.69-27.17,5.46-40.93,7.07-13.81,1.62-27.8,1.7-41.6-.01-1.6-.2-5.92,4.38-4.03,4.97h0Z"/><path class="cls-1" d="M493.24,388.71c.39,.5,.64,1,1.22,1.25,.46,.2,.89,.39,1.32,.66,.96,.6,1.88,1.26,2.86,1.81,1.98,1.11,4.25,1.84,6.4,2.58,4.37,1.51,8.98,2.37,13.53,3.14,9.32,1.58,18.84,2.06,28.28,2.11,19.77,.12,39.5-1.75,59.19-3.28,5.7-.44,11.41-.78,17.11-1.13,2.89-.18,5.76-.29,8.63-.65,1.52-.19,3.03-.41,4.55-.67,2.02-.34,3.77-1.08,5.65-1.86s3.54-2.86,4.46-4.61c.54-1.02,1.94-3.6,.67-4.57-.94-.71-1.74-1.42-2.92-1.68s-2.38-.42-3.57-.53c-2.39-.21-4.71-.22-7.1-.13-4.96,.17-9.92,.53-14.87,.93-9.97,.79-19.91,1.88-29.87,2.82-19.15,1.8-38.42,2.9-57.62,1.33-2.65-.22-5.3-.46-7.94-.75s-5.46-.82-8.19-1.08-5.49-.71-8.25-.98c-1.46-.14-2.95-.13-4.42-.22-.67-.04-1.31-.17-1.97-.27-.94-.15-1.85,.05-2.8,.14-1.28,.12-2.74,1.7-3.45,2.64-.53,.69-1.57,2.14-.89,3.01h0Z"/><path class="cls-1" d="M495.81,380.72c-1.17,5.08-1.51,10.22-1.34,15.43,.09,2.81,.42,9.2,4.91,7.85,1.5-.45,2.76-1.74,3.68-2.93,.82-1.06,1.67-2.38,1.53-3.77-.32-3.2-1.12-6.36-2.22-9.38-.54-1.49-1.1-2.96-1.76-4.4-.75-1.62-1.66-3.15-2.12-4.89-.57-2.15-4.42,2.11-4.78,2.76-2.51,4.58-2.4,10.14,.45,14.55,.31,.49,1.49,0,1.77-.13,.78-.37,1.44-.95,2.05-1.54,.96-.94,2.74-2.87,2.34-4.39-1.07-4.1-2.82-7.93-5.2-11.44-.7-1.03-3.19,.94-3.62,1.33-1.16,1.05-2.87,2.78-2.95,4.45-.22,4.62,.56,9.06,2.51,13.26,1.41,3.03,6.57-3.34,7.04-4.71,1.69-4.96,2.44-10,2.17-15.24l-7.07,7.43c2.39,.86,4.76,1.52,7.29,1.85s5.12,.28,7.68,.27c5.49-.02,10.99-.12,16.48-.19,11.25-.15,22.48-.39,33.71-1.04,6.47-.38,12.95-.76,19.42-1.19,2.25-.15,4.27-2.16,5.5-3.92,.41-.59,2.74-4.45,.63-4.48-10.91-.19-21.82-.36-32.72-.1-11.23,.26-22.47,.67-33.69,1.21-2.94,.14-5.88,.25-8.83,.3s-6.25-.03-9.2-.9c-1.48-.44-3.8,1.74-4.64,2.66-1.15,1.25-2.58,2.96-2.42,4.77,.34,3.92,.03,7.98-1.1,11.77l7.04-4.71c-1.9-3.56-3.02-7.66-2.96-11.71l-6.57,5.78c2.29,3.1,4.02,6.51,5.13,10.21l6.16-6.07c-1.09-1.54-1.78-3.23-2.04-5.1-.25-1.77,.08-3.49,.45-5.22l-5.11,4.39c1.16,1.22,1.69,2.82,2.23,4.38s1.04,3.19,1.38,4.83c.69,3.32,.98,6.69,1,10.08l4.48-5.76c1.21-.5,.45,0,.24-.24-.18-.19-.44-.31-.62-.51-.42-.45-.67-.98-.86-1.56-.52-1.62-.52-3.47-.62-5.16-.25-4.02-.17-8.07-.1-12.09,.02-1.11-2,.07-2.24,.23-.99,.68-2.18,1.77-2.46,3h0Z"/><path class="cls-1" d="M534.65,402.15c11.03,2.11,22.25,3.17,33.47,3.72,11.3,.56,22.61,.73,33.92,.42,22.77-.63,45.61-3.58,68.09-7.17,45.67-7.3,91.22-15.44,136.79-23.32,12.61-2.18,25.22-4.36,37.82-6.62,6.38-1.14,12.76-2.29,19.14-3.44,3.19-.57,6.38-1.15,9.57-1.72s6.74-.94,9.86-2.15l6.74-14.15c-5.96,2.84-11.89,5.4-18.03,7.78-1.85,.72-3.68,2.59-4.8,4.19-.27,.39-1.91,3.23-.37,3.11,2.33-.18,4.68-.44,7.02-.49,2.78-.05,5.55-.01,8.32-.17,1.43-.08,2.93-1.3,3.92-2.17,1.66-1.46,3.25-3.4,4.36-5.3,.65-1.11,3.97-7.21,.71-7.24-2.83-.02-5.65,.69-8.43,1.17-2.99,.52-5.98,1.05-8.97,1.57-5.52,.97-11.04,1.93-16.56,2.9-11,1.93-21.99,3.89-32.98,5.88-22.12,4.01-44.25,8.03-66.37,12.05-22.95,4.17-45.87,8.53-68.82,12.69-21.7,3.94-43.42,7.88-65.34,10.45-14.5,1.7-29.04,2.98-43.64,3.42-13.62,.41-27.23,.06-40.84-.07-1.37-.01-2.97,1.26-3.85,2.18-.32,.33-1.92,2.24-.7,2.47h0Z"/><path class="cls-1" d="M568.16,402.74c-1.17,.19-2.34,.38-3.51,.57-1.29,.2-2.5,1.06-3.37,1.99-.38,.4-1.6,1.78-.61,2.17,10.15,3.97,21.89,3.88,32.63,3.42,11.44-.48,22.86-1.82,34.24-3.1,23.02-2.59,45.92-5.95,68.76-9.79s45.85-8.12,68.7-12.58c23.54-4.6,47.06-9.29,70.62-13.82,11.41-2.19,22.82-4.31,34.24-6.43s22.66-3.89,33.86-6.48c3.26-.75,6.33-2.11,9.48-3.24,2.17-.78,4.27-2.25,5.82-3.95,.36-.39,2.54-3.17,.88-3.29-3.3-.23-6.58-.5-9.88-.1-3.13,.38-6.27,.71-9.38,1.19-5.66,.88-11.29,2-16.93,3.03-11.46,2.1-22.9,4.34-34.33,6.63-23.33,4.67-46.62,9.58-69.93,14.36-22.73,4.66-45.46,9.31-68.26,13.63-22.77,4.31-45.61,8.29-68.52,11.78-11.43,1.74-22.89,3.4-34.38,4.67-11.46,1.26-23.08,1.91-34.58,.82-2.88-.27-5.75-.61-8.64-.89l-3.46,4.05c1.29-.45,2.58-.89,3.87-1.33,1.08-.37,2.14-1,2.84-1.91,.29-.37,.9-1.58-.16-1.4h0Z"/><path class="cls-1" d="M622.43,407.27c10.73,2.59,21.67,2.37,32.59,1.39s21.89-2.37,32.79-3.91c21.85-3.08,43.57-7.13,65.22-11.41,21.78-4.31,43.48-9.04,65.22-13.6,21.52-4.52,43.06-9.04,64.7-12.95,10.88-1.97,21.79-3.77,32.73-5.38,5.26-.77,10.53-1.51,15.8-2.18,6.35-.8,12.77-1.39,19.09-2.37,3.23-.5,6.45-1.08,9.53-2.17l2.14-6.69c-2.95,1.67-5.82,3.31-8.59,5.25-.53,.38-2.04,1.51-1.63,2.39s2.24,.4,2.88,.26c1.25-.28,2.52-.53,3.79-.73,2.58-.48,5.6-2.6,7.39-4.47,.56-.59,3.26-3.61,1.22-4.07-3.04-.69-6.63-.37-9.72-.14s-6.07,.52-9.1,.81c-5.46,.52-10.91,1.22-16.35,1.94-11.38,1.51-22.72,3.27-34.04,5.22-21.89,3.78-43.66,8.17-65.34,12.99-21.6,4.8-43.16,9.75-64.75,14.6s-43.21,9.32-64.96,13.31c-11.04,2.03-22.12,3.83-33.23,5.46-11.16,1.64-22.42,3.37-33.74,3.01-2.82-.09-5.62-.34-8.41-.76-1.38-.2-3.21,.95-4.21,1.76-.31,.25-2.28,2.11-1.05,2.4h0Z"/><path class="cls-1" d="M690.92,405.88c4.5,1.14,9.07,2.06,13.72,2.22s9.65-.2,14.43-.81c9.74-1.24,19.37-3.4,29.01-5.26,19.58-3.78,39.18-7.47,58.83-10.85,19.75-3.4,39.56-6.51,59.42-9.22,19.84-2.71,39.75-5.02,59.71-6.69,9.14-.77,18.2-2.01,27.39-2.19s18.01,.55,26.55,3.05c2.13,.62,4.17,1.46,6.25,2.22l6.01-4.6c.87-.21-.62,.04-.69,.04-.75,.04-1.5,.05-2.25-.05-1.98-.26-4.07,.27-5.86,1.11-.54,.26-3.38,1.7-2.1,2.55,2.43,1.6,5.01,1.51,7.8,1.12,2.11-.3,4.31-1.15,6.08-2.32,.48-.32,2.64-1.92,1.31-2.58-4.35-2.13-9.22-3.51-13.91-4.61s-9.06-1.73-13.65-2.13c-9.45-.83-18.96-.63-28.42-.13-20.33,1.07-40.63,3.73-60.79,6.49-19.86,2.72-39.65,5.92-59.38,9.44-19.76,3.52-39.47,7.33-59.15,11.31-9.72,1.96-19.42,3.99-29.13,6-9.48,1.97-19.11,3.48-28.82,2.79-2.49-.18-4.88-.58-7.28-1.27-1.32-.38-3.05,.92-3.97,1.72-.34,.3-2.34,2.33-1.08,2.65h0Z"/><path class="cls-1" d="M869.44,368.49c4.21-.58,8.49-.79,12.73-1.08s8.47-.54,12.71-.75c8.33-.41,16.67-.62,25-.65,17.17-.06,34.3,.84,51.41,2.26,4.65,.39,9.3,.83,13.95,1.34,1.19,.13,2.4,.34,3.6,.41,1.9,.11,4.03-.49,5.85-.96,2.22-.57,4.51-1.36,6.38-2.71,.73-.53,1.99-1.49,1.49-2.54s-2.28-1.15-3.21-1.15c-1.86,0-3.77,.51-5.48,1.21-1.13,.46-2.9,1.17-3.46,2.38l-.09,.2c-.57,1.23,1.89,1.18,2.4,1.15,1.99-.11,4.1-.7,5.85-1.64l2.26-1.92-2.15,1.74,.17-.09-7.58,1.66c-.6-.53-.84-.62-.72-.27,.1,.49,.36,.19,.78-.88l2.65-1.43-.3,.12,5.13-1.45-.19,.02,3.52,.24c-1.37-.54-2.52-.87-3.98-1.01-1-.1-2-.19-3-.29-2.17-.2-4.34-.39-6.51-.56-4.18-.34-8.36-.62-12.54-.87-8.14-.47-16.32-.62-24.47-.64-16.84-.04-33.68,.61-50.46,2.07-4.7,.41-9.39,.88-14.07,1.43s-9.7,1.36-14.56,1.84c-1.49,.15-3.35,.61-4.45,1.7s.43,1.24,1.35,1.11h0Z"/><path class="cls-1" d="M919.2,354.84c18.2,.78,36.4,2.07,54.58,3.22,2.51,.16,5.02,.34,7.54,.48,1.21,.07,2.42,.12,3.63,.2,.63,.04,1.26,.1,1.89,.16,1.76,.18,3.44-.42,5.12-.87l5.19-5.88c-4.45,.29-8.89,.75-13.35,.99s-9.21,.47-13.82,.66c-9.05,.38-18.11,.66-27.17,.83-2.54,.05-5.08,.09-7.61,.09-.65,0-1.3,0-1.95,0-.24,0-.49,0-.73,0-.18,0-1.28,.03-.35,.03-1.19,0-2.39-.11-3.57-.18-3.77-.23-7.87,.97-11.12,2.88-1.53,.9-5.16,3.39-1.71,4.25,10.47,2.61,21.57,1.32,32.25,1.18,2.68-.03,5.37-.03,8.05,.02,1.22,.02,2.44,.05,3.66,.09,.65,.02,1.3,.04,1.95,.07-1.16-.05-.28-.01-.04,0,.49,.02,.98,.05,1.46,.07,5.36,.28,10.71,.73,16.04,1.35,2.91,.34,5.81,.73,8.7,1.18,3.33,.51,6.61,1.25,9.99,1.28l11.1-7.55c-1.09,.05-2.18-.02-3.28-.06-3.64-.12-7.62,1.01-10.79,2.77-1.55,.86-4.27,2.96-1.19,3.88,.88,.26,1.76,.53,2.63,.82,1.49,.49,4.14,0,5.56-.32,1.93-.43,3.8-1.03,5.6-1.85,1.26-.57,2.89-1.29,3.81-2.37,.47-.55,1.44-1.86,.24-2.35-2.82-1.15-5.75-1.54-8.74-2.01-2.66-.41-5.33-.78-8.01-1.11-5.35-.65-10.72-1.13-16.11-1.44-5.71-.32-11.44-.49-17.16-.43-5.34,.05-10.67,.37-16.01,.52-2.86,.08-5.8,.22-8.66-.02,1.11,.09,.26,.01,.03,0-.48-.03-.96-.06-1.44-.1-.64-.05-1.27-.12-1.91-.18-1.64-.16-3.29-.32-4.92-.58l-11.42,7.19c9.4-.64,18.84-.65,28.26-.99s18.54-.77,27.8-1.31c2.66-.16,5.33-.29,8-.41,1.26-.06,2.52-.12,3.77-.18,1.33-.06,2.75-.19,3.8-.07,1.31,.15,3.1-.39,4.29-.82,1.46-.52,2.86-1.17,4.19-1.97,.96-.58,2.07-1.27,2.75-2.18,.32-.43,.96-1.59-.01-1.81-2.74-.62-5.54-.34-8.34-.37-2.31-.02-4.62,0-6.93,0-4.79,.01-9.58,.02-14.37,.02-10.03,0-20.05,.03-30.08-.03-5.35-.04-10.7-.02-16.05-.11-1.53-.03-3.4,.72-4.64,1.57-.47,.32-1.93,1.65-.41,1.71h0Z"/><path class="cls-1" d="M1009.91,356.74c-.18,.1-.16-.1,0,.18-.12-.28-.33-.41-.63-.38-1.32,.32-2.83-.39-3.57-1.5-.4-.6-.55-1.49-.54-2.01,0-.02,.12-.62,.03-.25-.11,.43,.37-.6,.02-.04-.09,.14-.58,1.07-.27,.55,.39-.65-.55,.73-.55,.73-.03-.32,1.52-.9,1.86-1.04,1.07-.46,2.18-.83,3.29-1.19,2.37-.76,4.76-1.49,7.13-2.24,9.61-3.05,19.23-6.03,28.87-8.97,19.29-5.9,38.73-11.2,58.45-15.47,11.12-2.41,22.31-4.37,33.61-5.68l6.18-8.87c-8.2,1.96-16.24,4.56-24.03,7.79-8.32,3.45-16.64,7.38-24.13,12.41-1.82,1.22-3.9,3.16-4.62,5.29-.15,.46-.46,1.19-.03,1.62,.51,.51,1.58,.05,2.05-.2,3.67-1.93,7.24-4.05,10.95-5.91s7.16-3.43,10.65-4.83c7.7-3.1,15.64-5.57,23.72-7.43,1.03-.24,2.3-1.3,3.02-1.97,.94-.87,1.79-1.82,2.52-2.87,.32-.46,2.53-4.23,.64-4.02-22.62,2.42-44.88,6.88-66.86,12.69-11.6,3.07-23.11,6.42-34.58,9.94-5.4,1.66-10.78,3.39-16.16,5.14s-10.79,3.2-15.98,5.26c-3.13,1.24-5.9,3.3-7.93,5.99s-4.12,6.68-3.25,10.29c.51,2.14,2.37,3.37,4.47,3.58,2.82,.28,5.03-2.3,6.08-4.68,.14-.31,.85-2.59-.38-1.9h0Z"/><path class="cls-1" d="M987.15,349.24c-.85,.04-1.33-.15-1.97-.7l.13,.98,.07-.41c.06-.35,.19-.93-.16-1.2l-.25-.19-3.15,5.33c3.15,.51,6.26,.78,9.45,.82s6.46,.08,9.6-.33l3.52-7.54c-3.24,.7-6.37,1.47-9.48,2.64-.85,.32-1.57,1.68-1.9,2.45-.13,.3-.82,2.09-.16,2.2,2.7,.48,5.3,.38,8.03,.25,.65-.03,1.42-.81,1.8-1.22,.73-.78,1.39-1.79,1.82-2.77,.26-.59,1.5-3.71-.11-3.55-3.26,.33-6.49,.87-9.77,1.1s-6.65,.42-9.97,.55c-1.09,.04-2.11,1.65-2.58,2.44-.27,.45-1.41,2.49-.57,2.89l.28,.14c.39,.19,.87-.1,1.17-.32l.37-.28-.7,.32c.84,.11,1.75,.13,2.6,0s1.51-1.17,1.88-1.86c.15-.28,.83-1.78,.04-1.74h0Z"/><path class="cls-1" d="M975.79,350.97c4.26,.95,8.5,.38,12.8-.05,4.54-.46,9.08-.91,13.63-1.37l4.21-7.93c-3.72,.42-7.41,.52-11.15,.37l-3.69,8.19c20.65-6.24,41.26-12.65,61.88-18.99,19.85-6.1,39.57-13.15,60.05-16.87,11.2-2.04,22.58-2.97,33.95-2.09l4.35-6.5c-5.86,2.3-11.82,4.33-17.74,6.48s-12.11,4.56-18.16,6.86c-1.74,.66-3.25,2.12-4.29,3.64-.39,.57-1.53,2.88,.2,2.28,5.96-2.07,11.94-4.08,17.87-6.24s12.14-4.56,18.28-6.62c1.6-.54,3.01-2.28,3.91-3.62,.34-.51,1.77-2.73,.45-2.88-20.81-2.4-41.64,1.95-61.61,7.5s-40.86,12.16-61.23,18.38c-11.62,3.55-23.24,7.07-34.84,10.68-.8,.25-1.79,1.4-2.25,2-.65,.84-1.21,1.73-1.64,2.7-.35,.78-1.43,3.43,.21,3.48,3.75,.13,7.55-.18,11.24-.81,1.85-.32,3.35-2.55,4.13-4.1,.25-.49,1.81-4.11,.08-3.83-4.78,.78-9.57,1.56-14.35,2.34-5.03,.82-9.9,1.7-14.66,3.58-.54,.21-2.58,3.22-1.63,3.43h0Z"/><path class="cls-1" d="M721.54,411.5c1.67,1.27,3.4,2.32,5.3,3.24s3.69,1.8,5.44,2.91c3.57,2.28,6.16,5.67,9.58,8.12,3.14,2.25,7.26,2.61,10.09,5.32,2.63,2.52,4.42,5.81,7.22,8.18,1.59,1.35,3.41,2.59,5.49,3,2.86,.56,4.94-.68,7.01-2.55,1.64-1.48,2.82-4.25,3.08-6.42,.13-1.11,.28-3.86-1.56-3.56-1.26,.2-2.78,.04-4.3-.38s-3.11-1.22-4.36-2.24c-2.75-2.26-4.58-5.45-7.32-7.73-1.53-1.27-3.09-2.19-4.97-2.82s-3.79-1.2-5.56-2.23c-3.23-1.88-6.19-4.3-9.57-5.91-4.25-2.02-8.88-2.98-13.57-2.64-1.05,.08-1.85,2.01-2.11,2.78-.29,.84-.75,2.29,.1,2.93h0Z"/><path class="cls-1" d="M582.38,446.69c-.09-.44-.31-1.09-.21-1.55l-3.17,3.1c.7,2.63,1.98,5.18,3.07,7.68s2.22,4.91,3.44,7.32c2.38,4.74,4.91,9.4,7.57,14,5.28,9.13,11.1,17.9,17.56,26.24,3.57,4.61,7.58,8.85,11.75,12.93,1.03,1.01,2.12-1.27,2.37-1.96,.47-1.32,.8-3.2-.11-4.41-3.22-4.31-6.25-8.77-9.5-13.06s-6.11-8.32-9.01-12.58c-5.84-8.58-11.32-17.4-16.2-26.56-1.36-2.56-2.69-5.14-4.04-7.71s-2.36-5.32-4-7.59c-1.04-1.44-2.59,2.19-2.72,2.65-.28,.94-.87,3.82,.81,3.71l.48-.03-.69-.46c.2,.39,.39,.79,.59,1.18,.82,1.65,2.18-2.13,2.02-2.9h0Z"/><path class="cls-1" d="M587.29,443.7c-.66-1.38-1.39-2.72-2.09-4.07-.75-1.45-1.33-3.59-2.59-4.68-1.47-1.27-2.99,3.59-2.25,4.73,2.19,3.38,5.04,6.4,7.65,9.46s5.21,6.14,7.91,9.12c5.41,5.96,10.97,11.82,16.69,17.49,3.15,3.12,6.58,5.9,10.04,8.67,1.66,1.33,3.11-4.38,1.99-5.64-2.69-3.03-5.33-6.11-8.15-9.03s-5.54-5.55-8.3-8.33c-5.54-5.59-11-11.27-16.43-16.96-1.5-1.57-2.99-3.15-4.47-4.74s-2.96-3.33-4.68-4.76l-1.99,4.92c1.38,.55,2.6,.36,3.72,1.52,.96,.99,1.6,2.28,2.27,3.48,.2,.35,.83-.84,.67-1.17h0Z"/><path class="cls-1" d="M587.17,432.89c-1.44-1.47-2.89-2.86-4.04-4.58l-1.78,3.49c2.37,3.74,5.81,6.95,9,9.99s6.43,5.99,9.74,8.89,6.7,5.63,10.15,8.32c1.71,1.33,3.4,2.65,5.24,3.79s3.62,2.14,5.47,3.15c.8,.44,1.59-1.65,1.71-2.03,.24-.79,.65-2.46-.09-3.14-1.65-1.5-3.28-3.01-4.95-4.49s-3.37-2.71-5.08-4.05c-3.39-2.64-6.72-5.35-10.06-8.05s-6.59-5.46-9.82-8.27c-1.6-1.4-3.25-2.75-4.86-4.13s-3.1-2.63-4.86-3.61c-.97-.54-2.46,3.08-1.4,3.78,1.57,1.05,2.81,2.46,4.13,3.81,.75,.76,2.19-2.17,1.51-2.86h0Z"/><path class="cls-1" d="M484.46,414.4c6.92,1.68,10.05,8.1,12.27,14.24s4.52,12.02,7.19,17.87c5.15,11.28,11.56,21.98,20.16,30.97,4.67,4.89,9.82,8.96,15.94,11.88,2.48,1.18,3.17-6.01,1.28-7.21-10.28-6.54-18.93-15.01-25.71-25.13s-11.89-21.37-16.34-32.77c-2.39-6.11-6.36-14.74-14.25-14.24-1.37,.09-1.91,4.05-.54,4.39h0Z"/><path class="cls-1" d="M504.43,423.63l-.16-.09,.5,.48-.07-.15,.19,1.61,.02-.2-.54,1.87,.11-.19-.92,.99c.43-.19,3.73,5.03,4.15,5.63,1.4,1.97,2.77,3.95,4.1,5.96,2.75,4.15,5.44,8.32,8.34,12.37,5.48,7.65,11.65,15.06,19.68,20.16,4.3,2.73,10.57,5.29,14.55,.63,1.05-1.23,1.32-3.17,1.05-4.73-.2-1.17-.87-2.41-2.08-1.47-1.54,1.19-4.26,.42-5.9-.12-2.21-.74-4.22-2.15-6.14-3.43-4.08-2.72-7.71-6.07-10.99-9.7-6.71-7.45-12.18-15.93-18.44-23.75-1.68-2.1-3.44-4.12-5.33-6.04-2.81-2.84-5.4,3.05-3.55,5.17,.84,.96,1.82-1.4,1.94-1.82,.27-.92,.55-2.63-.49-3.18h0Z"/><path class="cls-1" d="M531.78,432.91c-.27-.37-.51-.65-.63-1.1-.38-1.53-1.53-1.16-2.18-.05-.75,1.27-1.04,3.26-.39,4.64,1.86,3.97,4.68,7.62,7.37,11.07s5.42,6.73,8.31,9.94c5.71,6.37,11.77,12.37,18.74,17.36,1.41,1.01,2.5-1.54,2.76-2.53,.4-1.52,.75-4.04-.57-5.27-6.18-5.73-12.47-11.37-18.3-17.46-2.85-2.98-5.6-6.06-8.24-9.23s-5.02-6.59-7.98-9.38l-1.04,5.99c.23,.08,.44,.19,.64,.34,1.58,.99,2.14-3.48,1.52-4.33h0Z"/><path class="cls-1" d="M570.51,295.26c6.4-4.6,11.93-10.4,17.13-16.29s9.94-11.7,14.87-17.59c11.29-13.5,22.74-26.86,33.95-40.42,2.64-3.19,5.24-6.59,8.22-9.47-.68,.66,.23-.18,.33-.25-.41,.28-.41,.29,.01,.02-.36,.19-.33,.19,.09-.02-.74,.1,.49,.03-.08,.04,.31,0,.61-.07,.92-.04,1.41,.15,2.46,1.04,2.94,2.35,.61,1.68,8.39-2.64,7.22-5.35-1.25-2.91-5.15-3.27-7.83-2.51-4.68,1.33-7.92,5.2-10.83,8.84-5.63,7.04-11.67,13.76-17.41,20.72-10.64,12.91-21.26,25.85-32.18,38.53-5.71,6.63-11.06,12.21-17.67,18.18-.74,.67-1.88,2.12-1.68,3.21s1.4,.49,2.01,.06h0Z"/><path class="cls-1" d="M650.74,209.27c.7,1.97,1.39,3.93,2.09,5.9l4.59-3.5c-8.03-.31-15.18,5.21-20.5,10.65-5.61,5.75-10.62,12.11-15.96,18.11-11.13,12.51-22.81,24.55-35.34,35.66-.45,.4-.9,.79-1.35,1.19-.17,.15-.34,.3-.51,.44-.06,.05-.66,.58-.42,.37,.34-.3-.36,.31-.42,.36-.23,.2-.46,.39-.68,.58-.46,.39-.91,.78-1.37,1.16-1.78,1.5-3.57,2.97-5.38,4.43s-3.76,2.98-5.67,4.43c-2.01,1.52-4.11,2.98-5.93,4.72-.52,.49-1.96,1.84-1.34,2.72s2.37-.01,3.01-.34c3.73-1.91,7.07-4.83,10.35-7.42s6.26-5.05,9.32-7.68c6.46-5.55,12.74-11.3,18.8-17.28,11.79-11.63,22.87-23.95,33.54-36.61,1.24-1.47,2.49-2.93,3.81-4.33,1.45-1.54,2.41-2.48,3.73-3.56,.39-.32,.79-.63,1.19-.93,.15-.11,.3-.22,.44-.34,.52-.42-.78,.51,.2-.14,.36-.24,.72-.47,1.09-.7s-.01,0-.08,.04c.27-.15,.55-.29,.82-.43,.55-.27,1.22-.54,2.13-.82,.84-.26,1.72-.44,2.59-.53,1.19-.12,2.29-.65,3.24-1.37,.46-.35,1.8-1.42,1.35-2.13-1.08-1.71-2.16-3.42-3.24-5.13-.68-1.08-4.54,1.24-4.1,2.46h0Z"/><path class="cls-1" d="M648.49,210.15c-.61-2.41-4.17-.74-5.49-.03-2.1,1.14-3.7,2.78-5.29,4.53-2.87,3.15-5.53,6.51-8.08,9.92-5.12,6.86-9.91,14.1-13.39,21.94-.62,1.4,1.18,1.23,2.01,.99,1.47-.43,3.16-1.42,3.94-2.79,3.54-6.22,7.1-12.46,11.21-18.32,2.05-2.92,4.21-5.77,6.46-8.54,1.08-1.33,2.19-2.62,3.31-3.92,.17-.2,1.54-1.75,1.51-1.79,.08,.1-1.07,.49-1.19,.64-.31,.09-.36,.11-.15,.07,.21,.02,.4,.1,.57,.22,1.2,.6,4.95-1.42,4.57-2.9h0Z"/><path class="cls-1" d="M646.4,211.02c-1.43,.92-2.68,2.15-3.95,3.29-1.17,1.05-2.32,2.13-3.45,3.22-2.35,2.27-4.62,4.63-6.8,7.06-.72,.8-.55,1.62,.59,1.58,1.42-.05,2.88-.96,3.93-1.85,5.24-4.45,10.3-9.12,15.57-13.53,.56-.47,1.67-1.79,.45-2.14s-3.07,.66-3.98,1.34c-6.99,5.25-13.46,11.12-18.91,17.98-.2,.25-.6,.75-.4,1.12s.84,.33,1.16,.29c1.38-.16,2.81-1.01,3.75-2,5.57-5.88,11.53-11.43,17.94-16.59l-4.2-.27c-5.05,4.61-10.32,8.99-15.4,13.57l4.52-.27c1.88-2.25,3.84-4.44,5.88-6.54,.92-.94,1.86-1.87,2.81-2.78,1.1-1.05,2.42-2,3.37-3.18,.39-.48,.62-1.05-.16-1.19-.88-.16-2.01,.43-2.72,.88h0Z"/><path class="cls-1" d="M906.5,299.46c.42-.61,.73-.79,.86-1.48,.1-.5,.11-1.03,.11-1.54,0-.87-.14-1.74-.57-2.51-.78-1.4-2.13-2.05-3.71-1.95-3.92,.24-7.55,3.27-10.05,6.09-2.05,2.31-3.7,4.92-5.44,7.46-.85,1.24-1.77,2.41-2.72,3.57-.58,.71-.94,1.12-1.56,1.84,.15-.18-.36,.39-.43,.45-.25,.25-.53,.49-.67,.82-.39,.93,.66,1.01,1.37,.81,6.56-1.92,9.59-8.05,13.11-13.28,1.27-1.89,2.8-3.69,4.35-4.85,.29-.18,.31-.21,.07-.06,.14-.08,.28-.16,.43-.24,.59-.3,.16-.18-1.29,.35,.18,.02,.35,.05,.51,.11,.56,.2,1.09,.63,1.46,1.09,.49,.61,.79,1.41,1.03,2.15,.11,.34,.16,.69,.27,1.02,.19,.58,.42,.5,.91,.86s1.66-.29,1.93-.69h0Z"/><path class="cls-1" d="M871.11,318.32c5.12-3.92,10.28-7.78,15.69-11.3,2.64-1.72,5.32-3.35,8.06-4.9,1.38-.78,2.77-1.54,4.18-2.28,.67-.35,1.34-.7,2.01-1.04,.4-.21,.81-.42,1.21-.62l.4-.21c.97-.46,.51-.36-1.38,.29l-1.07-.23c.36,.15,.54,.23,.36,.61l6.86-2.09c-.35-1.1-.7-2.21-1.05-3.31l-7.01,2.51c.25,.74,.5,1.47,.75,2.21l6.85-2.84c-2.05-1.82-5.04-1.61-7.54-1.03-3,.7-5.82,2.12-8.35,3.85-5.2,3.56-10.29,7.26-15.38,10.96-.83,.61-.76,1.41,.29,1.55,1.3,.17,2.9-.4,3.98-1.1,4.37-2.83,8.76-5.63,13.06-8.57,1.05-.72,2.09-1.46,3.16-2.16,.31-.2,.62-.4,.94-.6,.22-.13,.44-.26,.66-.38-.28,.16-.23,.13,.17-.07,.43-.19,.46-.21,.07-.05,.45-.15,.47-.17,.06-.05,.42-.1,.47-.12,.13-.05,.39-.05,.46-.06,.22-.03,.77,.13,1.31,.34,1.95,.88,.98,.81,3.29-.07,4.23-.46,.68-.28,3.04-1.3,2.62-2.39-.28-.73-.56-1.45-.84-2.18-.71-1.84-7.68,.68-7.01,2.51,.4,1.09,.8,2.19,1.2,3.28s2.78,.36,3.42,.17c1.22-.38,2.87-1,3.44-2.26,.96-2.13-2.38-2.26-3.58-2.06-2.38,.4-4.54,1.69-6.63,2.82-3.53,1.92-7,3.96-10.38,6.13-6.59,4.23-13.01,8.93-18.66,14.37-.53,.51-.43,.98,.29,1.07,.86,.11,2-.44,2.65-.94h0Z"/><path class="cls-1" d="M870.36,318.18c3.26-1.63,6.32-3.68,9.46-5.53s6.31-3.67,9.51-5.43c6.18-3.41,12.59-6.45,18.61-10.13,.37-.23,1.13-.81,.64-1.27s-1.76-.06-2.25,.13c-6.93,2.73-13.43,6.4-19.88,10.09-3.26,1.86-6.5,3.77-9.71,5.73-3,1.83-6.14,3.6-8.85,5.85-.46,.38-.55,.88,.05,1.09,.73,.25,1.79-.2,2.43-.52h0Z"/></g><path class="cls-3" d="M764.41,395.61c-2.07-1.67-4.56-1.94-7.12-1.99s-5.11,.21-7.62,.64c-5.12,.88-10.08,2.52-14.99,4.17s-9.92,3.5-14.8,5.47c-1.18,.48-2.38,.93-3.54,1.46-.79,.36-1.28,.72-1.48,1.59-.49,2.1,.42,3.84,2.42,4.59,2.26,.85,4.66,.38,7,.41,1.95,.02,4.54,.18,5.81,1.89,.46,.61,.49-1.53,.32-1.89-1.68-3.57-5.54-3.33-8.89-3.13-.93,.06-1.88,.09-2.81-.03-.49-.06-.97-.17-1.44-.33-.29-.1-.55-.22-.82-.37-.11-.06-.93-.7-.83-.72l.14,.64c-.08,.59,.02,.78,.29,.55,.23,.05,.73-.34,1.01-.46,.51-.22,1.03-.43,1.55-.65,1.11-.46,2.21-.91,3.33-1.36,8.7-3.49,17.68-6.93,26.86-8.89,2.58-.55,5.21-.93,7.85-1.01s5.26,.51,7.74-.22c.09-.03,.07-.31,0-.36h0Z"/><path class="cls-3" d="M725.63,413.84c4.26,1.48,7.57,4.02,10.76,7.13s6.63,6.31,10.16,9.23c6.91,5.71,14.49,10.94,22.79,14.43,1.96,.82,3.94,1.13,5.49-.59,1.29-1.43,2.23-3.23,3.35-4.8,2.58-3.59,5.48-6.92,8.62-10.03s6.45-5.91,10.02-8.44c3.07-2.18,7.31-3.94,8.23-7.97,.45-1.95,.37-4.51-.98-6.12-1.5-1.8-4.42-2.04-6.56-2.55-2.76-.66-5.51-1.41-8.31-1.86s-5.68-.88-8.53-1.3c-.42-.06-.46,1.93,.05,2.1,4.57,1.51,9.11,3.04,13.79,4.16,2.24,.54,4.48,1.08,6.73,1.61,.91,.21,1.87,.47,2.5,1.2s.24,1.31-.24,2.04c-1.08,1.62-2.91,2.64-4.5,3.68-1.69,1.1-3.34,2.27-4.94,3.5-3.2,2.46-6.23,5.16-8.98,8.1s-5.33,6.13-7.63,9.48c-1.07,1.55-1.95,3.56-3.34,4.85-1.84,1.71-4.29,.39-6.21-.48-7.61-3.48-14.58-8.2-21.04-13.48-3.61-2.96-7.09-6.07-10.48-9.27-1.55-1.46-3.13-2.93-4.93-4.1-1.91-1.24-3.61-1.93-5.88-1.46-.26,.05-.2,.86,.02,.94h0Z"/><path class="cls-3" d="M778.31,396.43c1.63,.23,3.24,.48,4.89,.38s3.24-.21,4.87-.33c3.32-.25,6.64-.53,9.95-.91,6.48-.75,12.94-1.66,19.38-2.67,13-2.06,25.93-4.56,38.85-7.1,25.52-5.01,51.1-10.18,77.07-12.14,7.19-.54,14.41-.84,21.62-.83,3.69,0,7.38,.25,11.06,.23s7.38,.05,11.06,.24c.36,.02,.39-1.74-.04-1.81-3.23-.51-6.46-.97-9.71-1.35s-6.6-.45-9.91-.51c-6.45-.1-12.89,.06-19.33,.46-13,.8-25.93,2.47-38.78,4.57-25.82,4.21-51.32,10.13-77.12,14.49-7.2,1.22-14.43,2.31-21.67,3.21-3.69,.46-7.39,.9-11.1,1.29-1.85,.19-3.7,.37-5.56,.54s-3.7,.6-5.55,1.08c-.29,.07-.27,1.12,.03,1.16h0Z"/><path class="cls-3" d="M977.76,371.86c-.42-.35-1.06-1.01-1.6-1.01s-1.1,.46-1.44,.78c-.28,.26-.39,2.02,.14,2.05,7.83,.43,15.67-.51,23.27-2.42,3.8-.95,7.53-2.15,11.16-3.6,1.7-.68,3.47-1.34,5.08-2.21,1.06-.57,1.62-1.61,.84-2.62-.04-.09-.1-.14-.19-.15-1.61,.35-3.21,1.39-4.74,2.03-1.6,.66-3.22,1.28-4.85,1.85-3.27,1.14-6.61,2.08-9.99,2.82-6.76,1.49-13.71,2.1-20.62,2.21l.14,2.05c.44-.45,.96-.53,1.44-.86s.77-.66,1.37-.77c.04,0,.02-.12,0-.14h0Z"/><path class="cls-3" d="M950.24,372.79c7.7,.77,14.08,5.82,19.54,10.93,6.16,5.77,12.08,11.67,18.87,16.72,3.52,2.62,7.17,5.07,10.93,7.35,3.51,2.12,7.16,4.21,11.2,5.15,3.55,.82,7.35,.43,10.24-1.94,2.1-1.72,3.38-4.2,4.13-6.77,1.65-5.62,1.38-11.7,3.33-17.24,1.14-3.24,3.3-5.59,6.25-7.34,3.79-2.24,7.99-3.89,11.98-5.74,17.78-8.26,35.54-16.57,53.29-24.88,8.95-4.19,17.91-8.38,26.86-12.57,4.37-2.04,8.7-4.36,13.21-6.05,3.67-1.38,7.9-2.12,11.55-.28,1.44,.73,2.76,1.81,3.44,3.31,.25,.56,.64,.94,1.09,.35,8.4-11,19.48-19.04,32.09-24.6,3.65-1.61,7.45-3.08,11.23-4.35,.65-.22,.57-2.76-.07-2.68-3.44,.41-6.72,1.08-10.01,2.2s-6.46,2.51-9.52,4.16c-6.12,3.3-11.8,7.43-16.81,12.25-2.86,2.75-5.52,5.74-7.91,8.91l1.09,.35c-1.51-3.25-4.49-5.21-8.01-5.72-4.3-.62-8.5,1.2-12.32,2.95-8.96,4.11-17.88,8.29-26.82,12.44-17.92,8.32-35.86,16.61-53.76,24.98l-13.55,6.34c-3.71,1.73-7.88,3.26-10.88,6.15-4.72,4.54-5.28,11.53-5.93,17.67-.58,5.5-1.69,12.09-7.84,13.93-3.96,1.18-8.22-.17-11.81-1.88-3.94-1.87-7.67-4.28-11.29-6.69-7.23-4.83-13.89-10.35-20.17-16.35-5.34-5.1-10.97-10.77-18.24-12.94-1.79-.53-3.63-.82-5.49-.88-.72-.02-.72,2.67,.07,2.75h0Z"/><path class="cls-3" d="M953.44,337.34c.97,0,1.96,.07,2.91-.1,1.05-.19,2.09-.46,3.14-.68,2.01-.44,4.02-.87,6.04-1.3,4.03-.87,8.05-1.77,12.08-2.67,8.13-1.83,16.28-3.64,24.42-5.41,16.21-3.54,32.46-6.95,48.7-10.32,16.19-3.36,32.39-6.65,48.62-9.84s31.56-5.96,47.55-7.27,31.79-1.05,47.36,2.08c.93,.19,1.85,.41,2.78,.59,.98,.19,2-.03,2.99-.13,.48-.05,.38-1.93,.03-2.14-.78-.46-1.58-1.03-2.42-1.38-.93-.38-2.03-.49-3.02-.68-1.93-.39-3.87-.73-5.82-1.03-3.96-.61-7.95-1.05-11.95-1.33-7.95-.56-15.93-.51-23.88-.03-16.1,.97-32.04,3.64-47.85,6.69s-32.3,6.47-48.42,9.83-32.66,6.93-48.96,10.55-32.61,7.29-48.81,11.37c-.96,.24-1.95,.43-2.89,.73s-1.82,.81-2.7,1.23c-.25,.12-.23,1.21,.09,1.21h0Z"/><path class="cls-3" d="M476.87,404.04c.95,2.27,2.39,4.27,3.61,6.41s2.25,4.17,3.3,6.3c2.09,4.22,3.92,8.55,5.59,12.95,3.37,8.92,6.04,18.08,8.87,27.18,5.12,16.45,11.05,33.04,21.74,46.78,5.64,7.26,12.57,13.21,21.12,16.73,.69,.28,.73-1.8,.2-2.1-14.63-8.38-25.08-22.1-32.18-37.15-7.74-16.38-11.78-34.16-18.06-51.1-1.82-4.92-3.83-9.77-6.17-14.46-1.09-2.19-2.29-4.34-3.56-6.44-1.2-1.99-2.4-4.54-4.31-5.9-.26-.18-.2,.7-.17,.79h0Z"/><path class="cls-3" d="M547.29,515.18c-.11,.75-.21,1.49-.19,2.25,.02,.52,.43,1.77,.93,.83,1.99-3.77,4.22-7.3,7.33-10.25,.64-.61,1.41-1.41,2.38-1.24,.88,.16,1.55,.96,2.37,1.27,1.24,.47,2.3-.13,2.96-1.21,.73-1.19,.92-2.62,1.61-3.83,.91-1.6,2.9-1.98,4.55-2.33s3.16-.71,4.36-1.95,1.53-2.61,1.4-4.22c-.02-.26-.17-.84-.52-.77s-.36,.83-.37,1.08c-.04,1.3-2.99,2.17-3.92,2.39-1.51,.36-3.11,.54-4.49,1.31-1.3,.72-2,1.92-2.52,3.27-.37,.97-.65,2.79-1.82,3.14-1.44,.43-2.53-1.39-3.98-1.32-1.61,.07-3.04,2.05-4.01,3.15-2.54,2.87-4.76,6.22-6.11,9.82l.9,.51c-.09-.7-.31-1.34-.53-2.01-.11-.32-.28-.15-.32,.1h0Z"/><path class="cls-3" d="M582.69,441.32c-.22,.27-.56,.35-.76,.62-.25,.36-.39,.94-.55,1.36-.45,1.13-.89,2.27-1.31,3.41-.78,2.1-1.48,4.23-2.13,6.37-1.33,4.35-2.5,8.74-3.5,13.18-2.03,9.06-3.32,18.27-3.85,27.54-.27,4.8-.43,9.9,1.65,14.36,.44,.94,.71-.81,.62-1.16-1.1-4.2-1.12-8.5-.85-12.8s.7-8.58,1.29-12.84c1.18-8.59,2.92-17.08,5.31-25.41,.67-2.33,1.4-4.65,2.13-6.97,.38-1.23,.78-2.45,1.19-3.67,.18-.53,.38-1.06,.54-1.6,.24-.76,.16-1.39,.3-2.21,0-.03,0-.29-.09-.2h0Z"/><path class="cls-3" d="M543.55,415.9c.57-.98-.67-2.46-1.7-2.15-.77,.23-.63,2.09-.08,2.48,3.07,2.17,6.53,3.92,9.79,5.78s6.57,3.74,9.91,5.53,6.52,3.45,9.81,5.13c1.71,.88,3.43,1.76,5.16,2.6,1.37,.67,2.89,1.49,3.84-.12,.22-.37,.22-1.08-.11-1.39-.71-.66-1.44-.6-2.31-.92-.77-.28-1.49-.69-2.22-1.05-1.65-.83-3.29-1.66-4.94-2.5-3.21-1.65-6.41-3.32-9.59-5.03s-6.35-3.38-9.5-5.11-6.32-3.81-9.62-5.35l.36,1.84c.05-.26,1.31-.53,1.14,.12,0,.03,.02,.22,.07,.15h0Z"/><path class="cls-3" d="M582.52,436.4c.29,4.42-1.38,8.77-4.51,11.89-.24,.24-.16,1.51,.18,1.25,3.96-2.96,5.83-8.53,4.52-13.27-.07-.26-.21-.02-.2,.13h0Z"/><path class="cls-3" d="M479.66,403.55h-.07l.11,.54c-.03,.07,1.71,.58,1.99,.59,.91,.05,1.82,.03,2.73,.06,1.82,.07,3.63,.2,5.44,.38,3.62,.37,7.21,.98,10.77,1.74,7.15,1.52,14.07,4.04,20.83,6.78,.55,.22,.57-1.5,.15-1.75-7.01-4.15-14.84-6.78-22.84-8.29-4-.76-8.09-1.18-12.16-1.34-1.01-.04-8.41-.77-7.11,1.83,.05,.11,.14,.12,.19,0l.05-.11c.04-.09,.06-.42-.08-.43h0Z"/><path class="cls-3" d="M442.03,359.87c-.51,1.17-.51,2.46-.58,3.71-.08,1.49-.09,2.98-.1,4.47-.02,2.79,0,5.58,.14,8.36s.33,5.61,.63,8.41c.28,2.64,.61,5.34,1.53,7.84,.4,1.1,1.04-.17,1.08-.7,.44-4.92-.24-9.96-.44-14.88-.1-2.46-.2-4.91-.25-7.37-.03-1.23-.04-2.46-.05-3.69,0-.66-.01-1.31-.03-1.97,0-.33-.02-.65-.03-.98,0-.83-.05-.66-.17,.52,.36-1.18,.48-2.62-.09-3.76-.47-.93-1.2-.94-1.63,.04h0Z"/><path class="cls-3" d="M455.79,361.39c-1.41,1.45-1.79,3.28-2.11,5.23-.28,1.73-.49,3.43-.56,5.18-.14,3.63-.04,7.23,.44,10.84,.73,5.5,2.42,11.7,6.74,15.46,.28,.17,.56,.16,.83-.02l.14-.05c.88-.35,.94-2.41,.93-3.11,0,.42,.01,.42,0,0-.02-.61-.06-1.19-.18-1.79-.14-.72-.33-1.43-.49-2.15-.32-1.41-.69-2.81-1.01-4.22-.03-.12-.23-1.11-.1-.44,.15,.75-.11-.62-.11-.62-.17-.95-.38-1.89-.59-2.82-.06-.28-.09-.6-.19-.86,.48,1.27,.11,.51,.03,.07-.11-.64-.2-1.29-.3-1.93-.08-.56-.18-1.12-.25-1.69-.05-.35-.09-.71-.13-1.06-.02-.22-.11-1.25-.02-.16s.01,.06,0-.17c-.02-.36-.04-.71-.05-1.07-.02-.57-.03-1.14-.02-1.71,0-.25,.02-1.54,0-.39-.02,1.07,0,.05,.02-.17,.04-.65,.09-1.29,.14-1.94,.15-2.12,.41-4.18,.09-6.31-.17-1.13-.51-2.63-1.26-3.55-.41-.51-1.35-1.21-1.98-.56h0Z"/><path class="cls-3" d="M471.06,366.83c-.63,.89-.86,2.11-1.09,3.15-.28,1.27-.52,2.54-.73,3.82-.45,2.77-.68,5.56-.77,8.36-.18,5.35,0,10.96,1.58,16.11,.26,.83,.72,.08,.68-.44-.39-5.08-.96-10.14-.81-15.25,.07-2.53,.32-5.05,.62-7.56s1.02-5.05,1.02-7.58c0-.17-.2-1.04-.5-.62h0Z"/><path class="cls-3" d="M484.56,367.65c-.29-.62-.29-1.27-.65-1.88-.17-.28-.45-.32-.72-.2-1.38,.6-1.7,2.12-2,3.44-.38,1.75-.72,3.49-1.04,5.25-.7,3.83-1.41,7.65-2.02,11.49-.32,2-.67,4-.94,6.01s-.65,3.9-.62,5.84c.02,1.15,.13,3.51,1.61,3.79,1.06,.2,1.8-.78,2-1.68,.05-.23-.04-2.11-.6-1.64-.6,.51-.78-.81-.85,.2-.07,1.12,.2-.25,.22-.34,.07-.31,.13-.63,.2-.94,.3-1.42,.61-2.85,.87-4.28,.54-3.04,1.1-6.08,1.57-9.13,.44-2.81,.87-5.63,1.31-8.44,.24-1.52,.31-3.09,.61-4.6,.09-.44,.27-.67,.48-1.04,.11-.21,.44-1.67,.53-1.68,.06,0,.04-.15,.03-.19h0Z"/><path class="cls-3" d="M492.46,376.83c1.07-3.24,.16-6.03-2.08-4.24-.68,.55-1.21,1.54-1.64,2.3-1.15,2.01-1.89,4.27-2.46,6.5-.61,2.35-.81,4.81-.89,7.23-.09,2.88,.04,5.87,.84,8.65,.42,1.48,1.72,5.37,3.92,4.08,.81-.48,1.16-1.59,1.36-2.46,.33-1.42,.26-3.06-.75-4.17-.42-.46,.68,.76,.53,.78,.02,0-.8-2.03-.37-1.04-.15-.35-.52-1.35-.85-1.49,.12,.05,.67,2.79,.56,1.46-.02-.19-.05-.39-.08-.58-.07-.57-.14-1.14-.22-1.71-.07-.49-.13-.98-.19-1.48-.03-.24-.06-.48-.09-.72-.11-.77,.25,.08,.02,.41,.14-.21-.05-1.18-.06-1.47,0-.23,.03-.51,0-.73,.07,.54-.05,1.02,0,.17,.04-.56,.09-1.11,.16-1.66,.03-.23,.04-.51,.1-.73-.17,.61-.09,.54,.02-.04s.22-1.13,.35-1.68c.06-.25,.12-.49,.19-.74-.15,.55,.02-.06,.09-.29,.94-2.9,2.15-5.65,2.24-8.74l-1.08,2.1s.11,.25,.14,.33c.05,.13,.17,.13,.21,0h0Z"/><path class="cls-3" d="M467.03,372.56c1.72-.32,2.32-1.47,2.59-3.1,.13-.81,.18-1.82-.2-2.58-.21-.43-.67-.9-1.05-.31-.84,1.33-.84,3.15-1.02,4.68-.19,1.64-.35,3.29-.45,4.94-.22,3.43-.21,6.9-.07,10.33,.26,6.52,1.08,13.16,3.32,19.32,.14,.38,.38,.45,.64,.19,.31-.31,.25-1.09,.2-1.48-.71-6.1-1.5-12.19-1.76-18.32-.12-2.92-.09-5.83,.02-8.75,.05-1.53,.14-3.05,.26-4.57,.14-1.7,.4-3.38,.16-5.09l-.76,2.72h.28l-.45-1.36c-.07,1.17-.76,2.27-1.75,2.88-.09,.06-.09,.52,.04,.5h0Z"/><path class="cls-3" d="M304.55,348.79c7.76,7.13,16.43,13.17,25.87,17.88s19.6,7.87,29.98,10.21c6.48,1.46,12.98,2.84,19.26,5.03l-.07-2.75c-6.19,1.32-12.72,1.1-18.85-.42-.27-.07-.4,1.72,.05,1.88,6.11,2.26,12.51,2.64,18.87,1.29,.63-.13,.5-2.55-.07-2.75-10.77-3.74-22.16-5.15-33-8.62-9.97-3.19-19.38-7.81-28.15-13.51-4.85-3.15-9.44-6.68-13.75-10.54-.27-.24-.62,1.86-.14,2.31h0Z"/><path class="cls-3" d="M350.91,380.16c.48,.6,.99,1.17,1.5,1.74,.35,.39,.53,.86,.88,1.25,.27,.31,.55,.61,.83,.91,1.03,1.07,2.47,1.86,3.78,2.54,1.23,.65,2.55,1.26,3.91,1.58,1.48,.34,2.99,.53,4.51,.58,.3,0,.31-1.39-.04-1.45-2.9-.53-5.84-1.57-8.47-2.92-1.25-.64-2.34-1.53-3.58-2.17-.29-.15-.57-.34-.86-.48s-.55-.1-.84-.3c-.59-.41-1.11-.98-1.61-1.49-.02-.02-.05,.17-.01,.21h0Z"/><path class="cls-3" d="M357.64,381.04l-.29-.17-.14-.09h-.05c0-.1-.03-.19-.06-.29-.03-.07-.06-.14-.1-.21-.05-.08-.12-.12-.2-.17-.32-.21-.69-.3-1.05-.41l-1.02-.32c-.34-.11-.71-.13-1.06-.18-.19-.03-.16,.83-.02,.93,.33,.21,.66,.45,1.01,.62l.95,.44,.47,.22c.15,.07,.31,.17,.47,.21,.14,.04,.38,.09,.49-.03,.04-.06,.08-.11,.14-.16,.04-.09,.09-.12,.16-.08,.09,0,.2,.04,.29,.05,.07,.01,.06-.32,0-.36h0Z"/><path class="cls-3" d="M350.37,379.47c1.42,3.19,4.38,5.4,7.37,7.07s6.39,2.9,9.75,3.83c8.58,2.38,17.31,4.31,25.96,6.43,18.15,4.46,36.31,8.85,54.44,13.37,5.08,1.27,10.16,2.54,15.24,3.81l7.74,1.93,3.63,.91,1.94,.48c.79,.2,1.37,.11,2.16-.05,.56-.11,.42-2.3,.03-2.56-1.06-.73-1.78-1.03-3.01-1.32l-3.39-.8-6.77-1.59-13.54-3.19c-9.04-2.13-18.06-4.3-27.09-6.46-17.98-4.3-35.97-8.56-53.94-12.91-3.84-.93-7.73-1.91-11.34-3.52-1.77-.79-3.47-1.73-5.02-2.89-1.46-1.09-2.57-2.54-4.03-3.59-.25-.18-.16,.95-.11,1.06h0Z"/><path class="cls-3" d="M303.76,348.09c-2.06-.5-1.37-3.66-.16-4.75,1.05-.94,2.94-1.25,4.25-1.58,2.75-.68,5.51-1.32,8.26-1.98,5.61-1.33,11.22-2.65,16.84-3.94,11.25-2.59,22.53-5.08,33.82-7.47,22.85-4.84,45.78-9.26,68.81-13.18,45.75-7.79,91.87-13.59,138.19-16.62,45.81-2.99,91.83-3.25,137.63,.02,46.1,3.3,91.55,10.73,136.46,21.57s89.06,24.79,134.95,26.45c5.69,.21,11.38,.04,17.07-.22,.5-.02,.46-2.73-.07-2.75-23.84-.95-47.66-3.99-71.04-8.66-23.34-4.66-46.36-10.74-69.45-16.48-46.7-11.6-94.07-19.35-142.07-23.02-47.76-3.66-95.78-3.42-143.56-.21s-96.41,9.5-144.1,17.89c-23.66,4.16-47.23,8.85-70.71,13.96-11.93,2.6-23.84,5.31-35.72,8.12-5.58,1.32-11.49,2.26-16.91,4.16-2.88,1.01-5.29,2.76-5.42,6-.09,2.16,.66,4.45,2.98,4.93,.46,.09,.59-2.09-.06-2.25h0Z"/><path class="cls-3" d="M561.33,296.1c3.44-1.25,6.4-3.49,9.3-5.71s5.68-4.55,8.39-6.99c5.46-4.93,10.49-10.29,15.3-15.85,9.9-11.44,18.86-23.64,28.44-35.35,4.79-5.86,9.73-11.6,15-17.02,2.53-2.6,5.08-5.49,8.19-7.4s7.5-2.63,9.09,1.64c2.94,7.88,1.73,16.92,1.09,25.08-.65,8.34-1.1,16.9,1.36,25.01,4.37,14.44,15.84,25.01,27.23,34.18,1.39,1.12,2.92,1.93,4.52,2.7,.71,.35,.6-1.81,.31-2.13-1.33-1.45-2.65-2.95-4.18-4.18s-2.96-2.38-4.42-3.61c-2.94-2.47-5.81-5.03-8.5-7.77-5.19-5.28-9.84-11.22-12.62-18.14-6.44-16.02,1.09-33.43-2.73-49.89-.76-3.29-1.92-7.77-5.97-8.08-3.52-.27-6.88,2.39-9.26,4.68-5.43,5.24-10.5,10.84-15.36,16.61-9.83,11.68-18.81,24.04-28.5,35.83-4.83,5.88-9.87,11.59-15.19,17.04s-11.01,10.31-16.98,14.99c-1.59,1.25-3.11,2.47-4.58,3.86-.09,.08-.12,.56,.07,.49h0Z"/><path class="cls-3" d="M865.99,321.64c5.49-3.75,10.52-8.27,15.68-12.45s10.42-8.6,15.62-12.91c1.04-.86,2.13-1.9,3.43-2.33,1.63-.53,2.91,.29,3.71,1.68,1.26,2.17,1.96,4.77,2.57,7.18,1.28,5.07,1.85,10.29,2.95,15.4,.6,2.78,1.36,5.55,2.45,8.18,.5,1.21,1.07,2.43,1.76,3.55,.6,.98,1.29,2.16,2.43,2.48,.48,.13,.29-1.43,.22-1.61-.98-2.51-2.65-4.71-3.67-7.23s-1.62-4.95-2.15-7.5c-1.1-5.23-1.69-10.57-3.08-15.74-1.01-3.76-3.06-12.34-8.57-9.18-1.32,.76-2.46,1.86-3.62,2.83l-4.19,3.49c-2.67,2.22-5.34,4.42-8,6.66-2.93,2.46-5.83,4.95-8.74,7.43-3.08,2.62-6.21,5.16-9.09,8-.37,.37-.27,2.46,.28,2.09h0Z"/><path class="cls-3" d="M841.49,387.98c1.82,.2,3.61,.45,5.43,.58s3.61,.37,5.4,.7c3.6,.67,7.12,1.73,10.52,3.09s6.48,2.97,9.44,4.95,5.79,4.48,8.53,6.92,5.41,4.77,8.56,6.51c2.7,1.5,6.47,2.62,8.66-.3,2.03-2.7,1.56-6.51,1.05-9.6-.29-1.75-.49-3.31,.21-4.99,.63-1.51,1.65-2.88,2.79-4.05,2.71-2.8,6.12-4.84,9.45-6.79,3.88-2.27,7.89-4.3,12-6.09,.46-.2,.5-1.36,.51-1.71,.02-.71-.08-1.39-.41-2.02-.41-.79-1.09-1.7-1.92-2.11s-1.56-.26-2.4,.09c-.56,.23-.39,2.16,.06,2.45,1.31,.82,2.81,1.74,3.57,3.11l.09-3.73c-3.55,1.64-7.02,3.43-10.4,5.41-3.11,1.82-6.27,3.72-9.07,6-2.39,1.94-4.59,4.33-5.6,7.29-.57,1.66-.79,3.42-.69,5.17,.1,1.89,.65,3.72,.74,5.61,.07,1.41-.49,2.82-1.72,3.59-1.55,.97-3.59,.56-5.17-.1-3.25-1.35-6.1-3.63-8.76-5.88s-5.44-4.78-8.43-6.83-6.04-3.67-9.3-5.01c-3.58-1.46-7.3-2.46-11.12-3.02-1.92-.28-3.85-.45-5.79-.5-2.18-.06-4.12,.19-6.24,.69-.17,.04-.16,.56,.01,.58h0Z"/><path class="cls-3" d="M560.99,426.82c.4,.63,.79,1.47,1.32,1.99s1.17,.51,1.87,.62c1.36,.2,2.72,.43,4.09,.56,2.8,.27,5.61,.45,8.42,.63,5.45,.37,10.91,.65,16.37,.85,11,.4,22,.38,32.99,.02,10.97-.36,21.97-.77,32.93-1.49,10.93-.71,21.89-2.34,32.71-4.03,12.2-1.9,24.33-4.29,36.36-7.08,2.49-.58,1.39-9.89-.23-9.49-21.39,5.18-43.11,9.12-64.97,11.71-10.96,1.3-21.84,2.86-32.86,3.46s-21.98,.82-32.98,.82c-6.1,0-12.19-.11-18.29-.32-3.13-.11-6.25-.24-9.37-.41-1.52-.08-3.03-.09-4.56-.09-.66,0-1.51-.17-2.13,.08-.75,.3-1.24,1.42-1.67,2.03-.02,.03-.02,.1,0,.13h0Z"/><path class="cls-3" d="M776.07,397.71c.83,.28,1.59,.68,2.47,.68,.81,0,1.63-.06,2.45-.1,1.79-.08,3.59-.15,5.38-.28,3.25-.23,6.5-.58,9.74-.94,6.64-.73,13.29-1.48,19.85-2.75,12.86-2.48,25.56-5.7,38.31-8.69,12.93-3.03,25.93-5.76,39.11-7.44,13.08-1.67,26.27-2.56,39.45-2.92,7.5-.2,15.01-.23,22.52-.15,3.76,.04,7.51-.11,11.24-.52s7.47-.86,11.21-1.23c.7-.07,.64-3.07-.08-3.19-6.7-1.13-13.32-2.47-20.12-2.84s-13.41-.16-20.07-.06c-13.36,.2-26.72,.88-39.98,2.48s-25.94,4.14-38.74,7.17c-12.91,3.06-25.75,6.46-38.73,9.23-7.37,1.57-14.76,3.17-22.18,4.48-3.72,.66-7.45,1.23-11.18,1.78-1.79,.27-3.57,.57-5.36,.84-.97,.15-1.96,.27-2.93,.43s-1.71,.72-2.55,1.16c-.63,.33-.46,2.62,.2,2.84h0Z"/><path class="cls-3" d="M959.62,372.87c.77-.57,1.38-.35,2.25-.45s1.76-.15,2.66-.06c2.17,.2,4.33,.52,6.5,.69,4.68,.37,9.39,.56,14.08,.43s9.36-.93,13.92-1.82c2.3-.45,4.58-1,6.83-1.63,1.2-.33,2.42-.66,3.6-1.06,1.31-.44,2.12-1.58,2.91-2.67,.39-.54,.47-2.64-.21-3.04-.51-.3-1.11-.6-1.69-.76-.63-.17-1-.04-1.62,.16-1.2,.37-2.4,.72-3.6,1.05-2.26,.62-4.55,1.19-6.84,1.71-4.76,1.09-9.56,1.72-14.38,2.44s-9.64,1.13-14.51,1.16c-2.02,.01-4.09-.18-6.1,.1s-3.12,1.27-3.91,3.08c-.04,.08-.05,.77,.1,.66h0Z"/><path class="cls-3" d="M578.73,455.42c.79,3.56,2.18,6.86,3.59,10.21s2.83,6.62,4.39,9.87c3.1,6.45,6.45,12.77,10.05,18.95,7.19,12.36,15.36,24.15,24.39,35.23,5.06,6.21,10.39,12.19,15.97,17.93,.56,.58,1.27,.17,1.61-.39,.46-.77,.47-1.93,.14-2.75-4.91-12.33-7.32-25.46-7.07-38.74,.12-6.42,.94-12.89,2.38-19.14,1.51-6.57,3.8-12.83,6.32-19.07,2.87-7.07,5.82-14.75,3.43-22.39-.46-1.45-1.39-.15-1.38,.75,.09,6.66-2.29,13.04-4.79,19.11-2.64,6.43-4.91,12.87-6.39,19.67-2.85,13.13-3.15,26.86-.97,40.12,1.24,7.54,3.3,14.97,6.21,22.03l1.75-3.14c-19.78-20.05-36.33-43.24-48.92-68.44-1.71-3.43-3.39-6.88-4.99-10.36s-2.89-7.17-4.96-10.39c-.52-.81-.87,.49-.77,.94h0Z"/><path class="cls-3" d="M620.97,432.06c-.07-.65,.06,.46,.04,.38,.07,.33,.2,.6,.35,.9,.33,.64,.74,1.24,1.14,1.84,.84,1.25,1.76,2.43,2.78,3.56,1.98,2.19,4.33,3.89,6.91,5.32s5.19,1.93,7.85,2.94c.62,.23,1.25,.5,1.79,.88,.46,.32,.55,.48,.74,.72,.46,.55-.09-.33,.14,.3,.62,1.74,.23,.45,.14,.1-.22-.87,.11,.28,.07,.72,.01-.17,.03-.72-.09-.12s.03,1.83,.68,2.12c1.57,.72,2.33-.69,2.69-2.09,.6-2.31,.27-4.96-1.02-6.98-1.94-3.04-5.28-3.45-8.45-4.42-2.97-.91-5.66-2.06-8.41-3.49-1.26-.66-2.53-1.25-3.75-1.99-.62-.38-1.25-.74-1.85-1.15-.45-.31-.93-.84-1.49-.54-.32,.17-.3,.71-.27,1h0Z"/><path class="cls-3" d="M580.78,446.31c3.38,8.64,8.38,16.66,13.58,24.32s10.82,14.86,17.03,21.66c3.46,3.78,7.21,7.32,11.01,10.74,.44,.39,.57-.79,.3-1.07-12.81-13.04-24.49-27.46-33.98-43.1-2.59-4.27-5.04-8.64-7.78-12.82-.13-.2-.2,.17-.16,.27h0Z"/><path class="cls-3" d="M582.48,435.83c1.23,9.07,8.88,15.86,14.68,22.31,6.61,7.34,13.28,14.61,20.13,21.72,.52,.54,.71-1.01,.38-1.39-6.3-7.33-12.76-14.51-19.29-21.63-3.11-3.38-6.35-6.69-9.26-10.25-1.38-1.68-2.64-3.46-3.72-5.34s-1.81-3.8-2.68-5.71c-.13-.28-.25,.18-.24,.29h0Z"/><path class="cls-3" d="M585.95,433.98c4.87,6.64,10.94,12.33,17.47,17.32,6.5,4.97,13.58,9.05,21.22,11.97,.61,.23,.66-1.3,.19-1.54-7.25-3.65-14.27-7.85-20.78-12.72s-12.2-10.5-17.74-16.36c-.5-.53-.61,.98-.36,1.32h0Z"/><path class="cls-3" d="M492.34,419.33c4.69,3.32,7.65,8.39,9.91,13.56s4.15,10.75,6.74,15.92c5.23,10.44,12.19,20.3,20.59,28.45,4.72,4.58,9.83,8.55,15.43,11.99,.46,.28,.52-1.07,.16-1.33-9.54-7.11-18.35-15.53-25.53-25.03-3.66-4.85-6.89-10.01-9.67-15.41-2.56-4.99-4.55-10.23-6.92-15.31s-5.51-10.31-10.67-13.26c-.14-.08-.15,.34-.05,.42h0Z"/><path class="cls-3" d="M512.72,432.71c6.59,13.83,16.21,26.2,27.69,36.33,3.16,2.79,6.52,5.29,10.03,7.62,.35,.23,.46-.86,.21-1.07-11.77-9.33-22.56-20.11-31-32.57-2.35-3.47-4.65-7.01-6.77-10.63-.13-.22-.2,.2-.15,.31h0Z"/><path class="cls-3" d="M527.37,434.7c9.13,12.28,20.71,22.98,32.87,32.19,.42,.32,.61-1.11,.27-1.4-5.87-4.91-11.63-10.01-17.14-15.33s-10.55-10.71-15.85-16.03c-.22-.22-.26,.42-.15,.57h0Z"/><path class="cls-3" d="M351.25,346.45c.12,.07,.25,.09,.38,.03,.06-.03,.12-.07,.17-.12,.03-.03,.05-.06,.07-.09,.06-.06,.14-.09,.2-.17,.23-.34,.13-.97,.03-1.34s-.3-.73-.54-1.05c-.08-.13-.19-.21-.35-.22-.48,.08-.88,.4-1.11,.82-.24,.45-.36,.95-.39,1.46-.04,.62,0,1.25,.18,1.85,.12,.4,.27,.75,.49,1.1,.07,.11,.15,.22,.23,.32,.1,.13,.26,.35,.39,.42,.24,.14,.61,.15,.87,.08,.72-.2,1.13-.8,1.42-1.46,.49-1.11,.49-2.49,.22-3.65-.1-.46-.29-.98-.61-1.34s-.65-.56-1.13-.65l.22,.07c-.14-.04-.26-.13-.39-.18-.19-.07-.39-.13-.59-.16l.26,.08c-.09-.03-.21-.09-.3-.1-.07,0-.21,.07-.3,.12-.06,.03-.12,.07-.18,.11-.11,.08-.21,.16-.3,.26-.37,.38-.6,.74-.81,1.23-.25,.55-.35,1.18-.41,1.78-.08,.83-.03,1.74,.2,2.54,.25,.87,.7,1.77,1.54,2.2,.55,.28,1.21,.41,1.82,.31s1.24-.38,1.67-.84c.69-.74,1.08-1.68,1.24-2.68,.23-1.54,.14-3.08-.39-4.56-.05-.15-.12-.29-.19-.43-.2-.37-.4-.87-.9-.85-.37,.02-.74,.14-1.08,.29-.85,.38-1.4,1.18-1.78,2-.14,.3-.22,.61-.27,.94-.11,.75-.17,1.48-.02,2.23,.09,.46,.26,1.19,.81,1.31,.28,.06,.41-.53,.45-.68-.05,.19-.06,.27-.17,.44,0-.01,.02-.02,.02-.03l-.16,.18s.04-.02,.06-.03l-.22,.08s.19-.06,.23-.08c.17-.11,.3-.41,.37-.57,.02-.06,.05-.12,.07-.18l-.17,.35c.11-.23,.24-.45,.34-.68l-.18,.36c.12-.24,.27-.46,.44-.65l-.22,.24c.28-.3,.62-.53,1-.68l-.25,.09c.31-.11,.62-.15,.94-.13l-.49-.32,.03,.05-.2-.37c.11,.2,.2,.42,.27,.63l-.16-.49c.02,.07,.05,.14,.06,.22,0,.04,.02,.07,.03,.11,.05,.21,.02,.07-.08-.41,.01,.07,.02,.15,.03,.22,.04,.33-.04-.8-.03-.36,0,.04,0,.08,0,.11,0,.23,0,.08,.01-.48,0,.07-.01,.15-.02,.22-.03,.31,.12-.71,.04-.31-.01,.07-.03,.14-.05,.22l.14-.5c-.05,.16-.1,.31-.17,.47l.19-.39c-.11,.23-.25,.45-.43,.64l.22-.25c-.25,.27-.55,.47-.9,.61l.25-.09c-.54,.2-1.13,.22-1.68,.05l.26,.08c-.34-.11-.64-.28-.89-.53l.24,.24c-.12-.13-.23-.27-.31-.42l.21,.38c-.04-.07-.07-.14-.09-.22l.16,.49c-.04-.12-.1-.42,0,.06,.05,.26,.06,.33,.04,.2v-.05c-.02-.07,.04,.81,.04,.49,0-.24-.03,.75-.01,.51,.02-.3-.08,.48-.07,.42,.02-.08,.03-.16,.05-.23l-.14,.5c.04-.12,.08-.24,.14-.36l-.19,.39c.09-.19,.21-.36,.34-.52l-.23,.25c.26-.29,.64-.43,.85-.76l-.23,.25c.19-.21,.4-.38,.66-.51l-.22,.08c.12-.02,.25,.01,.36,.05l-.22-.07c.17,.05,.31,.14,.44,.26l-.19-.19c.07,.07,.13,.15,.18,.24l-.17-.3c.09,.17,.12,.46-.02-.13,.01,.04,.02,.08,.03,.13-.08-.41-.1-.53-.07-.36,0,.02,0,.04,0,.07,.05,.3-.02-.58-.03-.34,0,.02,0,.05,0,.07,0,.18,0,.05,.01-.4,0,.05,0,.09-.01,.14-.02,.23,.09-.55,.04-.3,0,.04-.02,.08-.03,.12-.06,.27,.13-.41,.06-.21-.03,.09-.07,.18-.1,.27-.07,.17,.19-.35,.06-.14-.02,.04-.05,.08-.07,.12-.05,.08-.1,.15-.16,.22l.17-.19c-.15,.16-.32,.3-.52,.38l.19-.07c-.23,.08-.46,.09-.69,.03l.19,.06s-.09-.09-.14-.13l.17,.18c-.12-.12-.23-.25-.32-.39-.02-.03-.05-.07-.07-.11-.06-.11-.04-.07,.06,.11-.01-.05-.13-.34-.03-.05,.04,.14,.05,.16,.03,.06,.05,.21,.08,.42,.08,.64,0-.18,0-.08,0,.28-.01,.2-.05,.39-.11,.57,.13-.26-.14,.2-.02,.04,.04-.06,.08-.11,.13-.17l-.16,.18c.12-.13,.26-.23,.42-.29l-.18,.07c.1-.04,.23-.05,.32-.11,.12-.08,.19-.25,.28-.37,.02-.03,.04-.06,.07-.09,0-.01,.08-.1,.03-.04-.05,.05,.06-.06,.09-.08h-.2l.09,.04-.02-.25c-.11,.21-.31,.36-.55,.27-.04-.02-.04,.12-.01,.14h0Z"/><path class="cls-3" d="M344.33,342.59c-2.22,2.76-2.59,6.93-.7,9.98,.81,1.31,2.09,2.18,3.57,2.57s2.97,.08,4.18-.86c.24-.19,.19-1.36-.16-1.18-2.27,1.16-5.19,.08-6.81-1.7-2.13-2.34-1.33-5.95,0-8.49,.03-.06,.01-.43-.08-.31h0Z"/><path class="cls-3" d="M357.41,340.63c.27,.47,.44,.81,.8,1.2,.29,.32,.55,.67,.81,1.01,.48,.62,.85,1.3,1.08,2.05,.42,1.39,.34,2.87-.18,4.23-1.39,3.59-4.88,5.96-7.9,8.08-.26,.18-.24,1.46,.11,1.35,4.2-1.39,7.95-4.57,8.96-9.03,.46-2.01,.37-4.2-.3-6.16-.3-.89-.74-1.76-1.35-2.48-.28-.33-.6-.58-.97-.79-.46-.26-.56-.19-1.04,.02-.15,.07-.07,.43-.02,.53h0Z"/><path class="cls-3" d="M301.64,347.82c1.69,.47,3.22,.78,4.97,.87,1.57,.09,3.14,.17,4.71,.21,3.21,.09,6.45-.02,9.66-.13s6.29-.15,9.4-.51c3.3-.38,6.58-.88,9.86-1.4,.28-.04,.22-1.17-.03-1.16-3.21,.18-6.42,.3-9.63,.37s-6.43,.37-9.65,.49-6.27,.12-9.41,.18c-1.65,.03-3.3,.1-4.95,.12s-3.25,.24-4.93,.59c-.09,.02-.08,.34,0,.36h0Z"/><path class="cls-3" d="M355.97,344.91c5.38,.52,10.77,.65,16.14,1.38s10.68,1.63,15.97,2.74c10.64,2.24,21.14,5.19,31.87,7.02,6.01,1.03,12.03,1.73,18.13,1.9,.25,0,.26-1.2-.03-1.23-10.84-1.07-21.48-3.57-32.09-5.96s-21.11-5.07-31.87-6.27c-5.96-.67-12.21-1.12-18.13,0-.1,.02-.09,.42,.01,.43h0Z"/><path class="cls-3" d="M463.93,360.87c6.41,1.81,13.23,2.48,19.85,3.09s12.96,1,19.45,1.22c13.12,.44,26.36,.27,39.43-1.08,7.46-.77,14.87-1.79,22.23-3.27,.3-.06,.23-1.26-.03-1.23-13.06,1.41-26.15,2.61-39.28,3.1s-26.32,.2-39.43-.86c-3.72-.3-7.43-.66-11.15-1.01s-7.37-.83-11.09-.9c-.22,0-.2,.88,.02,.94h0Z"/><path class="cls-3" d="M471.74,358.5c8.53,.94,16.83-.1,25.28-1.32s16.83-2.44,25.25-3.62c17.04-2.4,34.11-4.53,51.22-6.41,33.87-3.71,67.85-6.4,101.89-8.07s68.46-2.34,102.7-1.91c34.08,.42,68.13,1.94,102.13,4.29s68.17,6.01,102.18,9.86c4.22,.48,8.44,.96,12.65,1.44,.22,.02,.28-1.32-.03-1.38-33.82-5.67-67.96-9.21-102.13-11.98-33.97-2.75-68.02-4.33-102.09-4.91-34.24-.58-68.5-.17-102.71,1.29s-68.05,3.92-101.94,7.42c-17.12,1.77-34.21,3.79-51.26,6.08s-33.61,5.61-50.5,7.33c-4.21,.43-8.42,.95-12.64,1.25-.15,.01-.14,.63,.02,.65h0Z"/><path class="cls-3" d="M544.25,375.68c12.68,2.11,25.85,1.58,38.67,1.31s26.02-.95,38.99-1.98c25.94-2.06,51.76-5.34,77.53-8.93,25.69-3.58,51.33-7.47,77.06-10.81s51.47-6.13,77.34-7.46c25.78-1.33,51.53-1.12,77.27,.91,3.21,.25,6.41,.54,9.61,.87,.2,.02,.24-1.05-.03-1.09-25.57-3.51-51.52-4.3-77.29-3.36s-51.65,3.45-77.34,6.62c-25.73,3.18-51.38,7.01-77.05,10.64-25.77,3.64-51.59,7.08-77.51,9.42s-51.72,3.66-77.63,2.95c-3.23-.09-6.43,.2-9.65,.42-.12,0-.11,.49,.01,.51h0Z"/><path class="cls-3" d="M531.61,323.66c-2.93,15.98-3.23,32.24-.89,48.32,.08,.58,.42,.15,.37-.24-2.19-15.85-1.95-32.09,.69-47.86,.02-.13-.11-.49-.17-.22h0Z"/><path class="cls-3" d="M544.38,314.03c-.59-.74-1.61-1.38-2.58-1.3-.19,.02-.26,.28-.29,.42-4.93,20.87-5.42,43.18-1.63,64.28,1.07,5.94,2.45,11.82,4.23,17.6,.24,.77,.56-.25,.46-.63-5.54-21.05-7.53-42.95-4.99-64.6,.36-3.02,.82-6.02,1.31-9.03,.24-1.49,.5-2.97,.78-4.45,.12-.61,.09-1.66,.59-2.07,.61-.5,1.54-.04,2.03,.38,.15,.13,.17-.5,.09-.6h0Z"/><path class="cls-3" d="M550.03,318.26c-5.61,7.62-3.59,18.31-2.68,27.03,1.18,11.25,2.73,22.49,4.74,33.62,1.12,6.2,2.35,12.38,3.68,18.54,.16,.75,.61-.1,.52-.52-2.09-10.48-3.9-21.03-5.46-31.6-.78-5.23-1.46-10.48-2.12-15.73s-1.34-10.19-1.63-15.31c-.3-5.38,.13-10.98,3.04-15.65,.06-.09,0-.52-.1-.37h0Z"/><path class="cls-3" d="M560.38,322.09c-1.57,17.96-1.02,36.18,2.07,53.96,.87,5.02,1.93,10.02,3.14,14.97,.18,.73,.52-.23,.44-.6-3.95-17.31-5.92-35.08-5.92-52.83,0-5.12,.19-10.23,.54-15.34,.02-.28-.24-.61-.28-.17h0Z"/><path class="cls-3" d="M772.8,341.84c-.38,9.27,.08,18.57,1.54,27.73,.06,.39,.28,.1,.24-.16-1.32-9.09-1.9-18.26-1.57-27.44,0-.22-.2-.48-.21-.13h0Z"/><path class="cls-3" d="M789.54,313.42c-5.39,5.54-4.58,14.59-4.65,21.7-.1,9.63,.12,19.25,.66,28.87,.3,5.32,.77,10.62,1.3,15.92,.07,.69,.58,.39,.54-.18-.64-9.02-1.12-18.07-1.38-27.11s-.66-17.7-.15-26.5c.25-4.29,1.04-8.68,3.85-12.08,.12-.15,.04-.84-.17-.62h0Z"/><path class="cls-3" d="M801.81,313.31c-3.36-1.65-3.56,5.28-3.73,6.87-.51,4.93-.79,9.88-.96,14.83-.33,9.92-.11,19.83,.74,29.72,.48,5.62,1.09,11.3,2.17,16.84,.18,.93,.64,.22,.58-.38-.91-9.1-1.93-18.16-2.29-27.31-.36-9.19-.35-18.37,.22-27.54,.16-2.54,.31-5.07,.51-7.61,.12-1.6,.35-5.32,2.75-5.06,.11,.01,.09-.32,.01-.36h0Z"/><path class="cls-3" d="M817.1,312.36c-4.73,15.11-6.67,31.12-5.63,46.93,.3,4.52,.87,9.03,1.63,13.49,.16,.92,.68,.23,.59-.38-2.84-19.89-1.56-40.28,3.62-59.69,.04-.13-.12-.63-.21-.35h0Z"/><path class="cls-3" d="M544.34,414.17c-.27-.41-.56-.8-.87-1.17-.41-.25-.8-.53-1.17-.85-.67-.85-.96,.58-1.03,1.09-.11,.91-.11,2.26,.55,2.99,.74,.81,1.93,1.23,2.91,1.72,.91,.46,1.82,.9,2.73,1.35,1.9,.92,3.8,1.81,5.73,2.67,3.69,1.66,7.42,3.24,11.23,4.61s7.51,2.6,11.31,3.75c1.93,.58,3.87,1.13,5.81,1.66,1.04,.28,2.07,.51,3.14,.63,1.14,.13,2.05-.13,3.13-.51,.77-.27,.58-2.42,.06-2.85-.99-.83-1.87-1.56-3.07-2.02-.9-.35-1.8-.69-2.73-.94-2.02-.54-4.03-1.11-6.04-1.71-3.91-1.17-7.8-2.45-11.64-3.84s-7.54-2.74-11.26-4.24c-1.86-.75-3.7-1.53-5.53-2.33-.99-.43-1.97-.87-2.95-1.32-.83-.38-1.81-1.1-2.73-1.01l.3,4.37c.34-.33,.88-.36,1.25-.59,.3-.19,.59-.66,.88-.9,.12-.1,.08-.46-.01-.56h0Z"/><path class="cls-3" d="M561.42,429.38c4.29,2.45,8.58,4.89,12.87,7.34,1.97,1.12,4.19,2.11,5.97,3.52,.94,.74,1.44,1.58,1.24,2.78-.18,1.06-.57,2.09-.9,3.12-2.91,9.02-5.38,18.17-6.93,27.52-.77,4.68-1.34,9.4-1.56,14.14-.11,2.36-.09,4.72-.09,7.08,0,1.77-.9,2.7-2.42,3.43-2.14,1.02-5.15,1.33-6.06,3.88-.3,.83-.34,1.74-.29,2.61,0,.16,.1,.49,.05,.65,.11-.37,.06-.05-.12,.02-.37,.14-.68,.09-1.05-.05-1.55-.6-2.59-2.09-4.27-2.4-2.08-.39-4.11,1.04-5.54,2.38-1.65,1.53-3.09,3.36-4.46,5.13-2.79,3.61-5.15,7.82-4.83,12.53,.04,.6,.65,1.82,.88,.56,.74-4.21,2.88-7.72,5.54-11,2.15-2.65,5.96-7.9,9.87-5.34,1.04,.68,2.55,2.24,3.94,1.85,.71-.2,1.09-.9,1.3-1.55,.15-.48,.19-.97,.2-1.47,0-.3,0-.57-.03-.87,0-.11-.02-1.12-.11-.66-.06,.3,.14-.19,.24-.31,.17-.21,.43-.38,.65-.53,.57-.38,1.21-.64,1.85-.87,1.25-.47,2.59-.85,3.7-1.62,1.45-.99,2.04-2.59,2.22-4.29,.28-2.55,.06-5.18,.17-7.75,.22-4.91,.75-9.8,1.57-14.64s2.02-10.05,3.31-15c1.2-4.6,2.81-9.11,3.95-13.72,.53-2.15,.73-4.63-.24-6.69s-3.46-3.05-5.43-4.11c-5.01-2.71-10.03-5.41-15.04-8.12-.53-.29-.75,2.12-.17,2.45h0Z"/><path class="cls-3" d="M517.18,412.56c-.37-.47-.74-1.13-1.2-1.52s-1.12-.66-1.65-.96c-1.16-.66-2.32-1.35-3.56-1.86-2.26-.94-4.57-1.7-6.87-2.52-1.36-.48-2.43-1.3-3.68-1.93-1.16-.58-2.42-1.17-3.65-1.55-2.38-.73-4.93-1.01-7.41-1.18s-4.97-.22-7.46-.17c-1.13,.02-2.27,.07-3.4,.14-1.21,.08-2.48,.11-3.16,1.29-1.56,2.71-.61,6.35,.61,8.98,.88,1.91,1.84,3.79,2.97,5.56s2.45,3.5,4.06,4.8,3.6,1.75,5.62,.96c.93-.36,.77-2.88,.08-3.42-2.56-2.04-5.34-4.12-7.29-6.78-.97-1.31-1.8-2.73-2.53-4.19-.34-.67-.66-1.36-.97-2.05-.15-.33-.3-.66-.44-.98-.1-.22-.19-.43-.28-.65-.61-1.63-.62-.35-.03,3.84l-.58,1.01c.43-.52,1.04-.43,1.68-.45,.91-.02,1.81-.02,2.72,0,1.82,.03,3.63,.12,5.44,.26,3.52,.28,7.04,1.03,10.57,1.17,.81,.03,1.63-.05,2.43-.07,.43,0,.9,.05,1.32,0s.85-.27,1.31-.29c1.75-.09,3.55,.53,5.22,.98s3.4,1.06,5.12,1.48c.77,.19,1.54,.39,2.3,.6,.4,.11,.84,.32,1.24,.36,.5,.05,.93-.18,1.42-.33,.15-.04,.11-.45,.04-.54h0Z"/><path class="cls-3" d="M483.29,418.98c.71,1.3,.68,2.79,1.45,4.04,.53,.86,1.08,1.69,1.6,2.56,.99,1.66,1.98,3.31,2.86,5.03,1.8,3.52,3.31,7.17,4.63,10.89,2.64,7.45,4.55,15.17,6.25,22.88,3.48,15.81,8.94,31.48,19.2,44.23,5.9,7.33,13.06,13.57,21.18,18.34l.87-7.02c-.63-.24-1.12-.48-1.8-.31-.47,.11-.72,.23-1.21,.12-1.32-.3-1.4,2-1.07,2.8,.69,1.7,1.39,3.72,3.22,4.42,1.51,.58,2.21-1.47,2.36-2.59,.19-1.47-.07-3.59-1.48-4.43-13.9-8.21-24.9-20.54-31.37-35.33-3.15-7.2-5.08-14.74-7.37-22.24s-4.21-15.17-6.78-22.62c-1.4-4.07-3.01-8.08-4.97-11.92-.99-1.95-2.05-3.88-3.23-5.72-.54-.84-1.13-1.65-1.74-2.45-.28-.38-.53-.83-1.02-.94-.15-.04-.16,.04-.31,.04-.84,.04-.57,.19-1.14-.26-.14-.11-.14,.42-.1,.49h0Z"/><path class="cls-3" d="M351.96,380.09l.05,.44c.04,.3,.2,1.55,.74,1.5,2.78-.25,5.56-.37,8.35-.36s5.54-.39,8.33-.73c.55-.07,.45-2.03-.05-2.17-2.76-.81-5.49-1.47-8.38-1.42s-5.57,.24-8.35,.56c-.53,.06-.65,1.17-.66,1.53,0,.21-.06,.45-.03,.65h0Z"/><path class="cls-3" d="M730.92,410.92c5.86,5.7,12.68,10.25,18.16,16.37,4.66,5.2,9.21,11.07,16.7,11.75,4,.36,7.69-.75,10.94-3.08,.23-.16,.15-1.26-.14-1.12-6.18,3.12-14.09,2.43-19.58-1.77-2.73-2.09-4.93-4.76-7.22-7.3-2.53-2.81-5.27-5.39-8.18-7.81-3.34-2.78-6.79-5.4-10.66-7.39-.09-.05-.08,.3-.03,.35h0Z"/><path class="cls-3" d="M743.51,411.82c6.74,8,13.98,15.6,22.34,21.92,.2,.15,.27-.86,.07-1.05-7.46-7.2-15.1-14.23-22.37-21.64-.09-.09-.18,.61-.05,.77h0Z"/><path class="cls-3" d="M759.25,414.05c2.37,4.03,5.43,7.48,9.25,10.18,3.63,2.57,7.82,4.62,12.31,4.93,.35,.02,.3-1.26-.03-1.38-4.21-1.45-8.4-3.02-12.13-5.5s-6.81-5.39-9.28-8.87c-.15-.2-.2,.49-.12,.63h0Z"/><path class="cls-3" d="M871.53,387.56c1.37,1.59,3.07,2.82,4.68,4.15s3.1,2.71,4.54,4.18,2.8,2.95,4.1,4.51c1.23,1.48,2.34,3.08,3.64,4.5,.2,.22,.22-.97,.14-1.13-1.83-3.68-4.69-7.01-7.62-9.85-1.45-1.4-2.96-2.73-4.55-3.97-1.44-1.13-3.05-2.46-4.9-2.79-.11-.02-.07,.36-.03,.41h0Z"/><path class="cls-3" d="M994.26,341.53c2.52,.45,4.92,.62,7.47,.37s4.92-.64,7.35-1.13c5-1.02,9.86-2.51,14.69-4.13,9.69-3.24,19.34-6.5,29.17-9.27,19.63-5.53,39.66-9.65,59.88-12.34,11.43-1.52,22.92-2.29,34.36-3.69,.27-.03,.24-1.23-.03-1.23-10.24-.17-20.45,.94-30.6,2.21s-20.28,2.91-30.32,4.9c-20.02,3.97-39.63,9.49-58.94,16.1-5.35,1.83-10.73,3.63-16.21,5.05-2.72,.7-5.47,1.29-8.24,1.7-1.38,.2-2.79,.28-4.17,.5-1.47,.24-2.94,.53-4.42,.75-.06,0-.05,.21,0,.22h0Z"/><path class="cls-3" d="M1152.75,313.66c-.98-.61-1.49-.74-2.62-.75s-2.29-.01-3.44,.01c-2.07,.04-4.14,.15-6.21,.33-4.19,.35-8.38,1.2-12.46,2.19-8.07,1.97-15.85,4.88-23.14,8.87-4.32,2.36-8.33,5.07-12.16,8.16-.28,.23-.12,1.64,.16,1.46,14.09-8.95,29.62-15.27,46.17-17.71,2.27-.34,4.54-.69,6.83-.92,1.21-.12,2.43-.22,3.64-.3,.56-.04,1.17,0,1.72-.1s1.02-.44,1.51-.75c.09-.06,.08-.43-.01-.49h0Z"/><path class="cls-3" d="M299.94,346.07c.65,1.2,1.23,2.28,2.22,3.21s1.93,1.79,2.91,2.65c1.93,1.7,3.92,3.34,5.96,4.91,4.08,3.14,8.37,6.03,12.81,8.63,8.85,5.2,18.47,9.06,28.39,11.69,1.34,.35,2.68,.68,4.03,.99,.85,.19,1.66,.43,2.49,.66,.58,.16,1.3,.36,1.87,.03,1.86-1.06,.79-6.53-.93-5.05-.53,.46-.78,3,.25,3.06l.07-2.33-.38,.16c-.24,.02-.46,.04-.69,.04-.51,0-1.05-.06-1.56-.14-1.15-.18-2.3-.49-3.44-.75-2.21-.52-4.41-1.11-6.59-1.76-4.29-1.29-8.51-2.84-12.62-4.62-8.2-3.55-16.06-7.92-23.28-13.2-1.99-1.46-3.94-2.98-5.83-4.57-1-.84-1.98-1.69-2.95-2.56-.35-.31-.77-.85-1.21-1.01s-.99-.29-1.47-.42c-.12-.03-.08,.32-.06,.37h0Z"/><path class="cls-3" d="M351.19,383.64c.16,.16,.32,.31,.49,.45l-.25-.69v.1c.04,.23,.09,.45,.18,.65,.02,.06,.05,.12,.1,.16,.04,.06,.09,.1,.17,.11,.27,.07,.58,.11,.85,.01,.15-.06,.3-.12,.41-.25,.2-.23,.28-.5,.33-.8,.09-.49,.07-1.03-.05-1.51-.07-.29-.17-.58-.37-.8-.12-.13-.31-.23-.49-.22-.13,0-.22,.09-.28,.2-.05,.11-.1,.22-.13,.34-.05,.18-.08,.36-.09,.55s0,.36,.02,.54c.02,.12,.04,.26,.11,.36,.04,.06,.1,.12,.15,.18l-.08-.1s.05,.06,.07,.09c.07,.1,.11,.14,.22,.17,.02,0,.04,0,.05,.01l-.11-.04c.09,.04,.17,.11,.23,.18l-.1-.12c.06,.07,.1,.14,.14,.22l-.09-.2c.05,.1,.1,.2,.14,.31l-.09-.2s.03,.07,.04,.1l-.07-.26s0,.04,.01,.06c-.05-.2-.06-.37-.07-.58,0,.14,.02-.43,0-.29,.04-.29,.05-.37,.03-.27v.03l.06-.26s-.01,.04-.02,.06l.08-.2s-.03,.06-.05,.09l.1-.13c-.08,.1-.19,.17-.3,.22l.11-.05c-.27,.11-.56,.08-.84,.02-.15-.03-.27,.31-.29,.38l-.05,.16,.23-.29c-.16,.04-.31,.06-.47,.08-.09,.01-.14,.14-.17,.22-.04,.14-.05,.28-.06,.42,0,.15,0,.31,.04,.46,.03,.12,.06,.24,.15,.33h0Z"/><path class="cls-3" d="M350.52,383.76c.82,0,1.62,.11,2.42,.32s1.62,.39,2.4,.74c1.4,.64,2.79,1.53,3.79,2.7,.16,.19,.27-.39,.27-.43,.03-.28,.04-.66-.12-.9-.48-.76-1.06-1.46-1.71-2.08s-1.36-1.06-2.16-1.42c-.73-.33-1.54-.62-2.34-.74-.85-.12-1.76-.02-2.6,.14-.4,.08-.35,1.66,.04,1.67h0Z"/><path class="cls-3" d="M351.28,385.85c.91,.73,1.59,1.12,2.69,1.45s2.21,.67,3.32,1c2.14,.64,4.27,1.28,6.41,1.92,4.27,1.27,8.54,2.53,12.83,3.76,8.64,2.48,17.28,4.92,25.93,7.33,8.57,2.39,17.16,4.74,25.75,7.07s17.33,4.97,26.05,7.25c4.78,1.25,9.57,2.49,14.36,3.72,2.47,.64,4.95,1.27,7.42,1.9s4.91,1.44,7.42,1.66c.74,.06,.68-3.59-.1-3.91-2.08-.86-4.3-1.29-6.47-1.83s-4.31-1.08-6.47-1.63c-4.31-1.09-8.62-2.18-12.92-3.29-8.59-2.2-17.19-4.33-25.8-6.45-17.25-4.24-34.36-9.17-51.45-13.97-4.75-1.33-9.5-2.68-14.25-4-2.45-.68-4.91-1.37-7.36-2.05-1.19-.33-2.37-.67-3.56-1-.55-.16-1.11-.31-1.66-.47-.81-.23-1.31-.13-2.12,.04-.4,.08-.28,1.3-.03,1.5h0Z"/></svg>