<?xml version="1.0" encoding="UTF-8"?><svg id="Layer_1" xmlns="http://www.w3.org/2000/svg" viewBox="0 0 1500 750"><defs><style>.cls-1{fill:#819099;}.cls-2{fill:#3a556b;}.cls-3{fill:#5d6e7a;}.cls-4{fill:#231f20;}</style></defs><g><path class="cls-2" d="M799.82,555.75s87,13.52,109.71,22.99c22.71,9.46,46.49,18.2,46.49,18.2l-22.44,8.41s49.6,20.95,54.11,27.33,60.68-4.66,60.68-4.66l80.59-25.89s27.09-11.2,26.44-18.77c0,0,51.55-5.86,43.82-22.32-7.72-16.46-17.26-28.12-35.94-26.85-18.68,1.26-46.11,5.69-46.11,5.69,0,0-228.51-158.29-324.37-175.66-95.85-17.36-79.47-30.83-165.17-30.3-85.7,.53-286.9,18.72-286.9,18.72,0,0-23.76-48.14-31.2-83-7.44-34.86-8.08-38.91-8.08-38.91,0,0,4.51,81.2,15.95,117.88,11.44,36.68,25.22,123.39,9.98,139.75,0,0,22.2-50.18,22.18-71.12-.02-20.94,23.37-10.28,23.37-10.28,0,0,79.07,12.27,180.67,77.02,101.6,64.76,246.22,71.76,246.22,71.76Z"/><path class="cls-2" d="M559.4,484.5c-6.04-6.2-16.01-7.04-24.28-4.47-8.27,2.58-15.31,7.96-22.35,13.01-19.24,13.81-39.81,25.77-61.31,35.69l-2.57-.31c5.37-.74,9.31-5.25,12.73-9.45l8.52-10.49c5.17-6.36,10.41-12.82,13.73-20.32s4.55-16.29,1.51-23.9c-3.05-7.64-10.15-13.69-10.99-21.88"/><path class="cls-2" d="M396.3,348.62l-5.37-1.1c10.4-7.76,11.7-22.72,10.84-35.67-.51-7.73-1.45-15.43-2.82-23.05,13.29,16.33,24.15,34.63,32.1,54.13l2.16-2.86-36.91,8.56Z"/><path class="cls-2" d="M795.07,355.19c.05-2.5,5.51,2.77-1.19,2.23-15.74,.04-39.35-84.29-52.62-129.64-11.12-38.03-28.85-74.13-52.14-106.19-1.92-2.64-6.58-4.97-7.63-1.88l7.79,1.77c-3.38-3.74-8.32-6.02-13.36-6.15,6.2,18.75,8.8,38.67,7.63,58.38-.5,8.35-.87,18.48,6.13,23.08-5.06,19.39-8.28,39.26-9.6,59.26-.78,11.8-.95,23.89-5.15,34.95-6.92,18.2-23.52,30.63-39.31,42.03l10.32,.9"/><path class="cls-2" d="M737.85,340.26c6.08,2.05,12.06,4.4,18.06,6.66,2.55,.96,5.24,1.77,7.7,2.94,1.74,.83,4.07,2.28,3.57,4.52l5.77-2.57c-6.45-2.41-12.9-4.82-19.28-7.44l-5.37,3.38c4.34,1.74,8.66,3.51,12.98,5.3l6.34,2.62c1.04,.43,2.17,.79,3.17,1.31,.3,.15,.59,.31,.82,.57,.14,.1,.23,.22,.29,.37,.09,.48,.26,.36,.51-.34l6.17-1.67c-9.2-2.63-18.54-4.9-27.81-7.29l.05,2.11c.61-.62-.51,.16-.77,.24-.99,.16-1.25,.22-.76,.18,.21-.01,.23-.02,.05,0,.63,.07,1.21,.14,1.83,.3,1.59,.42,3.16,.98,4.71,1.52,3.37,1.17,6.7,2.45,9.99,3.83,6.53,2.74,12.85,5.93,18.98,9.47,1.77,1.02,4.32,.36,6.04-.5,.95-.47,3.81-2.08,2.39-3.43-4.6-4.38-9.13-9.1-12.44-14.55l-7.26,2.87c5.4,5.06,11.3,9.92,17.72,13.63,1.73,1,4.22,.37,5.91-.47,.56-.28,4.06-2.46,2.33-3.37-3.44-1.82-6.84-3.65-10.05-5.87s-6.13-4.55-8.92-7.17c-1.04-.98-3.44-.21-4.51,.21-.64,.25-3.42,1.55-2.75,2.66,3.43,5.65,6.97,11.18,11.54,15.99l8.43-3.93c-7.58-4.1-15.46-7.65-23.56-10.59-3.91-1.42-7.88-2.76-11.89-3.86-4.32-1.18-9.61-.97-13,2.35-.65,.63-1.21,1.76,.05,2.11,9.17,2.51,18.33,5.15,27.56,7.43,1.86,.46,4.82-.25,6.17-1.67,.79-.83,1.44-1.68,.83-2.82-.49-.92-1.4-1.48-2.32-1.89-2.56-1.13-5.25-2.01-7.87-3-5.21-1.98-10.42-3.97-15.6-6.01-1.45-.57-3.58,.23-4.8,1.02-.86,.55-2.02,1.76-.57,2.36,6.48,2.66,13,5.24,19.61,7.55,1.04,.36,2.55-.16,3.46-.58,.78-.36,2.13-1.02,2.31-2,.43-2.37-1.21-4.14-3.13-5.27-2.72-1.61-5.99-2.41-8.96-3.46-6.43-2.26-12.9-4.42-19.25-6.92-1.29-.51-2.92,.25-3.96,.99-.72,.52-1.94,1.7-.54,2.17h0Z"/><path class="cls-2" d="M395.59,410.6c-1.28-.21-2.54-.46-3.83-.54-.75-.05-4.01,1.68-2.73,2.53,6.44,4.29,12.85,8.72,18.73,13.78s11.13,10.65,16.12,16.55c.92,1.08,2.82,.35,3.86-.18,.68-.34,3.18-1.87,2.44-3-5.26-8-11.49-15.31-18.53-21.8l-5.77,4.14c7.44,4.51,14.04,10.67,18.63,18.09,.81,1.31,3.41,.15,4.35-.4s3.25-2.06,2.6-3.51c-4.39-9.87-10.89-19.19-19.9-25.37l-7.59,5.07c5.16,2.96,10.5,5.64,15.75,8.44l15.78,8.42,8.71-5.82c-5.12-2.31-10.28-4.51-15.43-6.74l-8.08,6.15c8.45,2.9,16.89,5.81,25.34,8.71l7.6-6.32c-9.86-1.83-19.34,4.78-25.94,11.39-.47,.47-1.05,1.44-.73,2.15s1.42,.91,2.09,.9c2.55-.04,5.02-1.29,6.82-3.04,1.92-1.86,3.77-3.72,5.63-5.41l-6.34-.73c-4.55,4.66-9.18,9.5-12.74,14.99l9.13-1.91c.34-1.32,.68-2.63,1.06-3.94l-9.28,2.57c.07,1.63-.26,3.15-1.12,4.54-.41,.67-.63,.92-1.21,1.55-.28,.3-.58,.59-.88,.88,.57-.55-.44,.36-.57,.47-3.2,2.53-6.71,4.53-9.54,7.54-1.27,1.35-1.08,2.88,.87,3.18,2.19,.34,5.15-.71,6.79-2.15,5.05-4.43,10.06-8.9,15.07-13.37,5.34-4.76,9.93-8.9,14.76-13.89,1.1-1.13,.73-2.44-.84-2.61-1.98-.21-4.07,.89-5.58,2.05-10.51,8.1-20.31,17.15-30.19,26l7.66,1.03c.38-.41,.78-.82,1.2-1.2-.67,.61,.37-.28,.41-.32,.77-.63,1.58-1.22,2.38-1.81,1.76-1.29,3.49-2.64,5.07-4.15,2.74-2.61,5.25-6.38,5.02-10.32-.12-2-2.89-1.59-4.24-1.19-1.87,.55-4.47,1.68-5.04,3.76-.37,1.33-.77,2.65-1.17,3.97-.56,1.84,2.96,1.49,3.7,1.33,2.08-.44,4.19-1.47,5.44-3.25,3.39-4.83,6.68-9.55,10.93-13.69,1.12-1.09,.82-2.38-.74-2.59-1.84-.25-4.22,.68-5.6,1.86-2.4,2.07-4.89,4.03-7.36,6.02l6.52,1.56c1.2-.99,2.41-1.98,3.62-2.96,.64-.52,1.3-1.09,2.01-1.53-.6,.37-.36,.25,.1-.04,.35-.22,.7-.44,1.05-.65,.8-.47,.44-.02-.06,0,.24-.01,.87-.41,1.09-.52,1.04-.49-1.09,.3,.1-.04,.15-.04,1.23-.34,.47-.16s.33-.05,.49-.08c1.17-.22-.83-.03,.36-.03,.39,0,.78-.02,1.17,.02-.62-.06,.54,.12,.59,.13,2.44,.46,5.43-.81,7.24-2.41,1.3-1.16,2.69-3.11,.36-3.91-8.54-2.94-17.08-5.88-25.61-8.81-.92-.32-2.6,.15-3.42,.46-1.12,.42-2.17,.98-3.12,1.7-.73,.55-3.45,3.16-1.54,3.99,5.18,2.24,10.35,4.51,15.56,6.68,2.14,.89,4.88-.22,6.68-1.48,.78-.55,4.08-3.32,2.03-4.34l-16.31-8.07c-5.44-2.69-10.82-5.52-16.34-8.05-1.82-.84-4.3,.22-5.82,1.29-.74,.52-3.51,2.82-1.77,3.78,2.34,1.3,4.62,2.72,6.62,4.51s3.8,3.73,5.46,5.82c3.38,4.26,6.14,8.98,8.46,13.89l6.95-3.91c-5.34-7.41-11.88-13.73-19.81-18.32-1.77-1.02-7.79,2.33-5.77,4.14,6.86,6.16,12.9,13.17,18.01,20.85l6.3-3.18c-5.23-6.18-11.26-11.76-17.63-16.76-3.16-2.48-6.43-4.82-9.81-7s-6.97-4.14-10.71-5.86l-2.37,2.52c1.57-.08,3.13-.32,4.69-.52,.43-.05,2.27-1.35,1.23-1.52h0Z"/><path class="cls-2" d="M402.6,417c-2.05-1.08-4.07-2.17-6.05-3.36s-4-2.19-5.47-3.93c-1.31-1.55-5.44,1.64-4.25,2.43,3.34,2.21,6.89,4.11,10.31,6.18s6.77,4.19,10.1,6.37,6.49,4.31,9.68,6.55,6.45,4.97,9.89,7.05c1.03,.62,2.59,.2,3.62-.21,.89-.36,2.69-1.21,2.76-2.35,.14-2.13-1.13-4.21-3.02-5.16-.97-.48-4.8,.67-4.3,2.15,.25,.75,.71,1.46,.84,2.24s-.06,1.79-.2,2.55l6.38-2.56c-3.11-2.61-6.81-4.69-10.23-6.88s-6.94-4.4-10.46-6.53-6.9-4.12-10.39-6.12-7.18-4.22-10.95-5.95l-3.7,2.77c4.76,.95,9.3,3.5,13.59,5.72,.59,.31,2.35-.7,1.84-.97h0Z"/><path class="cls-2" d="M419.75,425.26c1.57,1.99,3.96,3.34,6.08,4.7s4.45,2.43,6.45,3.92l5.38-3.07c-6.66-3.54-13.55-6.62-20.41-9.74s-13.96-6.37-20.92-9.61c-1.6-.74-3.65,.05-5.06,.91-.6,.36-3.18,2.37-1.68,3.17,6.58,3.49,13.31,6.5,20.28,9.1,3.38,1.26,6.79,2.41,10.23,3.47,3.74,1.15,7.58,2.21,11.51,2.42,1.37,.07,3.03-.7,4.08-1.54,.5-.4,1.79-1.72,.79-2.3-2.95-1.7-6.55-2.48-9.79-3.47-3.51-1.08-6.99-2.26-10.45-3.51-6.74-2.44-13.41-5.23-19.92-8.25l-6.74,4.08c14.34,6.2,28.49,13.02,43.12,18.53,1.29,.48,3.22-.45,4.22-1.22,.7-.54,1.69-1.83,.31-2.22-2.56-.73-4.98-2.06-7.34-3.28s-4.72-2.8-7.29-3.74c-.71-.26-3.7,.61-2.86,1.67h0Z"/><path class="cls-2" d="M401.11,351.87c-.81-.96-1.36-1.9-1.86-3.05l-3.16,1.83c1.94,.18,4.05-.59,5.93-1.03,2.14-.51,4.28-1.02,6.42-1.54,4.2-1,8.39-2.02,12.59-3.01l-1.45-1.77c-1.38,1.05-2.78,1.72-4.5,1.96l.8,2.06c3.36-2.29,7.35-2.93,11.37-2.08l3.41-3.15c-3.74,.17-7.47,.69-11.13,1.52s-7.62,1.93-11.02,3.74c-.55,.29-2.05,1.1-1.5,1.92s2.36,.22,3.01,.02c3.01-.96,5.91-2.09,9-2.79s6.26-1.07,9.44-1.21c1.16-.05,2.65-.69,3.5-1.5,.51-.49,.92-1.43-.08-1.65-6.76-1.45-14.1,.21-19.69,4.25-.41,.3-1.26,.94-1.02,1.58s1.32,.55,1.82,.47c3.64-.59,7.15-1.99,10.04-4.31,.43-.35,1.27-1,.83-1.61s-1.72-.3-2.28-.15c-4.14,1.07-8.3,2.11-12.44,3.16-2.07,.53-4.15,1.05-6.22,1.58s-4.31,.98-6.25,1.98c-.3,.16-1.51,1.06-.84,1.46,1.17,.71,2.2,1.44,3.16,2.4,.46,.46,2.47-.64,2.11-1.08h0Z"/><path class="cls-2" d="M481.08,438.73c-2.69-2.27-7.64-.42-9.11,2.46-.11,.23-.26,.65,.06,.82,8.08,4.27,16.31,8.27,24.52,12.31,4.02,1.98,8.03,3.95,12.05,5.93s8.2,4.37,12.64,5.58c.94,.26,1.96,.09,2.82-.35,.39-.2,1.59-.93,.94-1.49-1.67-1.44-3.59-2.4-5.56-3.36-2.1-1.03-4.21-2.04-6.32-3.06-4.06-1.97-8.13-3.94-12.19-5.91-8.36-4.05-16.7-8.13-25.17-11.95l.51,.65c.08-.2,.23-.42,.38-.58,.43-.44-.02-.1,.12-.16,.6-.23,1.4,.15,1.89,.46,.66,.41,3.16-.73,2.42-1.35h0Z"/><path class="cls-2" d="M597.49,629.38c26.66-3.74,52.82-11.45,77.39-22.43,24.5-10.95,47.41-25.02,70.11-39.25,12.6-7.9,25.3-15.61,38.11-23.18l-9.13-.97c-10.09,12.97-22.85,23.64-36.61,32.52-14.12,9.11-29.36,16.35-44.8,22.9-8.67,3.68-17.37,7.26-26.12,10.73l8.53,3.26c8.29-4.13,16.4-8.64,24.6-12.95,7.76-4.07,15.48-8.2,23.17-12.4,15.3-8.36,30.46-16.98,45.47-25.86,8.44-4.99,16.76-10.16,25.15-15.24l-8.3-1.8c-15.36,10.57-30.63,21.28-45.77,32.15-4.08,2.93-8.32,5.65-12.35,8.65-1.89,1.4,.27,2.76,1.77,3.2,2.29,.68,5.47,1,7.66-.24,7.94-4.49,15.83-9.07,23.66-13.74s15.77-9.29,23.35-14.37c4.4-2.94,8.75-5.98,13.19-8.86l-9.72-1.78c-17.47,11.86-34.94,23.86-53.46,34.03-2.59,1.42-5.2,2.82-7.83,4.18-1.24,.65-2.49,1.28-3.74,1.92-.7,.35-1.39,.7-2.09,1.04-.06,.03-.65,.28-.18,.09-1.35,.55-1.11-.32,1.73,0l2.67,.51,.9,.52c.19,.22,.23,.24,.14,.06-.01,.01,0-.12,0-.26s.11-.34,.09-.46c-.07,.16-.06,.18,.02,.06,.15-.17,.07-.11-.23,.16l-1.83,.54,.19-.02-2.5,.03,.2,.03-3.41-.92,.21,.09c2.11,.91,4.68,1.38,6.93,.68,.6-.19,1.5-.53,1.57-1.26,.07-.7-.77-1.32-1.3-1.55-2.46-1.07-10.17-2.51-10.23,2.2-.02,1.8,1.75,2.74,3.23,3.26,2.76,.97,6.05,1.05,8.84,.15,1.59-.51,3.06-1.39,4.52-2.19,1.55-.84,3.09-1.7,4.63-2.56,2.93-1.65,5.84-3.34,8.73-5.06,11.3-6.75,22.43-13.79,33.4-21.07,6.19-4.11,12.35-8.27,18.5-12.43,2.08-1.4-.93-2.75-2.15-2.95-2.49-.42-5.4-.23-7.58,1.17-3.68,2.38-7.46,4.59-11.32,6.87s-7.78,4.76-11.67,7.15c-7.77,4.78-15.6,9.46-23.48,14.06-4.46,2.6-8.95,5.17-13.44,7.71l9.43,2.96c3.87-2.87,7.56-5.97,11.43-8.85,3.58-2.67,7.17-5.34,10.77-7.99,7.25-5.35,14.55-10.64,21.86-15.91,4.3-3.09,8.61-6.15,12.93-9.21,.53-.37,1.48-1.02,1.34-1.83s-1.26-1.16-1.87-1.29c-2.47-.5-5.61-.03-7.77,1.32-14.98,9.32-30.33,18.11-45.7,26.77-15.31,8.63-30.77,16.99-46.36,25.08-9.06,4.7-18.3,9.02-27.44,13.56-2.01,1,.19,2.66,1.27,3.07,2.15,.82,5.08,1.06,7.26,.19,16.78-6.7,32.56-13.09,48.64-21.33,14.88-7.63,29.3-16.49,41.92-27.52,7.26-6.35,13.9-13.41,19.71-21.12,1.03-1.36-2.14-2.04-2.73-2.09-2.08-.19-4.57,.04-6.39,1.12-11.11,6.6-21.84,13.86-32.66,20.93-10.77,7.03-21.52,14.09-32.48,20.82-21.81,13.4-44.63,25.05-69.01,33.05-14.1,4.62-28.55,8.14-43.17,10.65-.47,.08-1.63,.4-1.7,1-.07,.63,.92,.52,1.28,.47h0Z"/><path class="cls-2" d="M757.23,548.74c.74-.27,1.94-.73,1.88-1.73s-1.28-1.4-2.12-1.51c-1.57-.22-3.35-.03-4.79,.67-1.01,.49-1.92,1.22-2.83,1.86-3.84,2.69-7.54,5.57-11.21,8.49-7.22,5.72-14.29,11.62-21.3,17.6-3.93,3.35-7.87,6.68-11.77,10.06-1.7,1.48,.75,2.49,2.06,2.68,2.24,.32,5.15,.17,7.06-1.23,12.95-9.55,25.52-19.58,37.82-29.95,3.5-2.95,6.97-5.93,10.42-8.93,1.76-1.53-.56-2.68-2.03-2.97-2.43-.48-5.27-.35-7.43,.97-13.73,8.38-25.84,19.07-37.28,30.32-3.26,3.2-6.48,6.45-9.68,9.71-.51,.52-.97,1.01-.5,1.75s1.84,1.12,2.59,1.25c2.26,.42,5.59,.45,7.54-1.06,14.37-11.18,27.5-23.81,39.31-37.67,.85-1-1.02-1.86-1.62-2.05-1.73-.56-3.66-.39-5.41-.08-5.05,.88-9.18,3.61-13.14,6.72s-7.59,6-11.38,8.99c-7.53,5.94-14.98,11.99-22.33,18.15-4.17,3.49-8.33,7-12.42,10.59l10.17,1.49c14.03-14.53,28.06-29.06,41.95-43.71,1.45-1.53-.36-2.49-1.82-2.74-2.2-.38-5.3-.14-7.19,1.17-6.98,4.83-13.49,9.81-19.98,15.5-5.88,5.16-11.41,10.7-16.55,16.59-3.02,3.45-5.94,6.98-8.71,10.63-.5,.65,.13,1.41,.63,1.76,.88,.62,2.33,.87,3.35,.93,2.33,.14,5.09-.09,6.75-1.88,12.12-13.05,22.59-27.75,31.59-43.1,1.04-1.77-2.63-2.32-3.49-2.38-2.12-.14-5.16,.13-6.79,1.7-10.45,10.04-18.56,22.1-26.46,34.15l10.75,.83c5.79-10.4,10.54-21.38,14.54-32.59,.75-2.1-3.08-2.3-4.28-2.22-2.16,.13-5.26,.64-6.49,2.69-4.02,6.68-7.68,13.49-10.51,20.77l10.93-.1c1.86-8.2,3.05-16.56,3.81-24.94,.07-.76-1.34-1.33-1.81-1.46-1.06-.29-2.15-.34-3.24-.28-1.89,.11-4.82,.54-5.87,2.37-2.55,4.45-3.81,9.6-3.35,14.72,.19,2.07,4.3,2.09,5.7,1.97s5.37-.58,5.39-2.71c.06-5.28,.07-10.57,.13-15.85l-11.08,.96c.51,3.41,1.29,6.76,2.34,10.05,.6,1.86,3.32,2.02,4.94,2.02,1.17,0,2.41-.09,3.53-.47,.73-.25,2.24-.69,2.48-1.53,1.59-5.79,1.96-11.73,.97-17.67-.34-2.05-4.3-1.95-5.76-1.79-1.31,.15-2.68,.4-3.85,1.05-.62,.34-1.57,.95-1.47,1.79,.56,4.66,2.46,9.21,5.65,12.7,1.42,1.55,4.36,1.41,6.22,1.15,1.01-.14,5.07-.92,4.62-2.67-.22-.87-.18-1.54,.24-2.31,.18-.33,.49-.81,.67-.99-.01,.01,.3-.25,.39-.32,.05-.04,.62-.47,.32-.24-.27,.2,.5-.05,.03,0-.44,.04-.89,.15-.18,.08-.47,.05-.77,.05-.13,.04-.47,0-.75-.03-.12,.02,.3,.03,.61,.06,.91,.08-.5-.03-.44-.06,.03,0,.71,.1,1.41,.21,2.12,.31,5.41,.81,10.81,1.67,16.13,2.96l4.05-4.42c-7.15-.2-14.29-.46-21.43-.69-1.93-.06-4.64,.1-6.21,1.44-1.26,1.07-.35,2.34,1.04,2.71,9.49,2.49,18.82,5.54,27.95,9.13l6.48-4.06c-1.46-.17-2.9-.39-4.34-.66-.68-.13-1.36-.27-2.04-.42l-.45-.1c.33,.08,.33,.08,.03,0-.37-.1-.75-.19-1.12-.29-2.62-.72-5.5-1.69-7.81-2.71l-4.54,3.8c.71-.05,1.41-.08,2.12-.12s-.93,0,.17,0c.31,0,.63,0,.94,0,.79,0,1.57,.03,2.36,.08,.31,.02,.63,.04,.94,.06,.97,.06-.29-.05,.3,.02,1.41,.17,2.81,.34,4.2,.59,.31,.06,.62,.11,.93,.17,.2,.04,1.05,.22,.46,.09,.77,.17,1.53,.37,2.29,.57l-1.13-2.68c-.95,.85-1.9,1.71-2.86,2.56-1.83,1.62,.9,2.74,2.3,2.91,2.31,.28,5.65,.09,7.51-1.56,.95-.84,1.9-1.67,2.85-2.51,1.31-1.15,.21-2.32-1.13-2.68-7.38-1.96-14.98-2.62-22.59-2.08-1.51,.11-3.99,.47-4.97,1.79-.92,1.24,.21,1.92,1.34,2.41,6,2.62,12.41,4.33,18.91,5.09,2.28,.27,5.15,.27,7.13-1.09,.49-.33,1.15-.77,1.1-1.47-.06-.84-1.1-1.25-1.74-1.5-9.12-3.57-18.45-6.59-27.92-9.06l-5.17,4.14c7.14,.23,14.28,.44,21.41,.7,1.89,.07,5.18-.02,6.48-1.7s-1.17-2.41-2.44-2.73c-6.76-1.69-13.78-2.87-20.71-3.59-4.25-.44-9.09-.11-12.77,2.26-2.28,1.46-4.07,4.1-3.4,6.91l10.84-1.52c-2.8-3.38-4.63-7.26-5.16-11.63l-11.08,1.05c.9,5.29,.72,10.77-.67,15.96l10.94,.02c-1.06-3.4-1.85-6.87-2.37-10.4-.3-2.06-4.29-2-5.74-1.85s-5.32,.68-5.34,2.81c-.04,5.21-.11,10.42-.14,15.63l11.1-.74c-.44-4.9,.51-9.72,3.04-13.97l-10.92,.63c-.8,8.21-2.15,16.33-3.85,24.4-.16,.74,1.33,1.41,1.73,1.54,1.04,.34,2.13,.44,3.23,.43,1.17-.01,2.41-.12,3.52-.51,.79-.28,2.14-.7,2.46-1.57,2.79-7.54,6.17-14.99,10.51-21.77l-10.78,.46c-4.07,10.78-9.02,21.17-14.51,31.3-1.07,1.97,2.84,2.65,3.99,2.71,1.96,.12,5.52,.06,6.76-1.89,7.57-11.88,15.17-23.97,25.5-33.68l-10.28-.68c-9.09,15.18-19.79,29.16-31.55,42.36l10.74,.81c9.27-12.68,20.19-24.07,32.41-33.94,3.14-2.54,6.68-5.05,10.3-7.44l-9-1.57c-14.38,14.5-28.62,29.14-42.86,43.78-.57,.59,.18,1.44,.6,1.74,.77,.54,1.77,.73,2.67,.86,2.02,.3,5.23,.34,6.89-1.11,13.98-12.19,28-24.38,42.65-35.76,1.92-1.49,3.83-3.02,5.81-4.44,.88-.63,1.8-1.19,2.77-1.67,.19-.09,.37-.18,.56-.27-.74,.35,.1-.02,.27-.08s.41-.19,.59-.19c-1.12,.04,.04,.03,.33-.01l-6.53-2.73c-11.65,13.42-24.64,25.67-38.7,36.53l9.62,1.94c11.27-11.38,22.71-22.7,35.56-32.31,3.63-2.72,7.37-5.28,11.23-7.66l-9.46-1.99c-12.08,10.63-24.49,20.88-37.07,30.92-3.59,2.86-7.2,5.69-10.82,8.51l9.12,1.44c7.17-6.55,14.28-13.15,21.54-19.61,3.54-3.15,7.09-6.27,10.71-9.33,1.81-1.53,3.62-3.05,5.45-4.55,.96-.79,1.91-1.59,2.85-2.4,.46-.4,.93-.8,1.39-1.19,.18-.16,1.51-1.04,.75-.79l-2.61,.39h.35l-2.08-.39c-.06-.11-.09-.12-.09-.05l.79-.65-.18,.08c-.97,.44-1.13,1.27-.09,1.7,1.25,.52,3.03,.36,4.27-.09h0Z"/><path class="cls-2" d="M711.53,571.71c-6.36,6.47-13.04,12.61-20.39,17.96s-15.05,9.72-23.24,13.33l5.34,1.21c12.37-9.15,23.87-19.49,34.44-30.67,1.04-1.1-.53-1.71-1.48-1.83-1.46-.18-3.53,.05-4.68,1.1-14.38,13.04-29.99,24.82-46.27,35.39l7.27,.35c-.64-1.94,.88-3.4,2.25-4.56,1.51-1.28,3.06-2.52,4.63-3.72,3.16-2.42,6.37-4.76,9.58-7.09,6.32-4.6,12.68-9.29,18-15.06,3.07-3.32,5.75-6.9,7.8-10.94,.75-1.48-2.07-1.88-2.85-1.93-1.69-.11-4.25,.11-5.52,1.4-6.71,6.84-13.76,13.35-20.9,19.74s-14.33,12.32-22.03,17.8l8.74,1.4c12.22-10.86,24.16-22.02,36.21-33.07l-8.56-1c-10.27,10.75-20.68,21.47-32.26,30.82-5.75,4.64-11.78,8.86-18.11,12.68-6.07,3.66-11.86,6.66-18.31,9.01-.41,.15-.81,.29-1.22,.44-.5,.17-.54,.19-.13,.05-.27,.09-.55,.18-.82,.27-.82,.27-1.64,.52-2.47,.76-1.92,.56-3.87,1.05-5.82,1.52-1.37,.33,.92-.17-.48,.1-.56,.11-1.13,.22-1.69,.34-.99,.2-1.97,.41-2.96,.6-.42,.08-.86,.13-1.27,.23-.49,.05-.57,.07-.24,.08-.49,.05-.98,.11-1.47,.18,.62-.07-.82,.09-.73,.08-.59,.06-1.17,.11-1.76,.16l2.06,2.21c5.42-3.15,11.04-5.99,16.52-9.05s11.24-6.42,16.79-9.75c10.95-6.58,21.69-13.5,32.2-20.75,5.84-4.03,11.42-8.36,17.12-12.58,.88-.65,.72-1.43-.37-1.64-1.24-.23-2.94,.13-3.97,.89-5.2,3.86-10.62,7.42-15.94,11.11s-10.56,7.2-15.92,10.68c-10.52,6.82-21.26,13.32-32.19,19.46-6.24,3.51-12.51,7.08-19.01,10.1-.64,.3-1.81,.97-1.41,1.83s2.05,.78,2.79,.76c15.77-.4,31.06-5.51,44.84-13.02,13.43-7.31,25.19-17.44,36.2-27.95,6.34-6.05,12.44-12.35,18.58-18.61,1.47-1.5-.76-2.4-2.06-2.53-2.07-.21-4.86,.07-6.49,1.53-12.16,10.86-24.4,21.62-36.39,32.67-1.6,1.47,.69,2.51,2.01,2.7,2.22,.32,4.87,.07,6.73-1.3,7.65-5.67,14.89-11.86,21.87-18.32s13.43-13.16,20.29-19.59l-8.37-.53c-7.76,14.15-21.93,22.24-34.14,32.03-1.72,1.38-3.47,2.76-5.08,4.28s-3.45,3.78-2.61,6.13,5.79,1.34,7.27,.35c16.35-10.95,31.68-23.18,46.24-36.39l-6.17-.73c-10.5,11.12-21.94,21.26-34.11,30.51-1.06,.8,.28,1.53,1.01,1.7,1.43,.34,3.01,.11,4.33-.49,12.81-5.81,24.7-13.76,34.81-23.56,2.84-2.76,5.48-5.64,7.92-8.77,.49-.63-1.02-.95-1.29-.98-.75-.09-2.07-.1-2.65,.49h0Z"/><path class="cls-2" d="M684.31,594.82c-14.65,9.18-31.01,16.16-47.69,20.62-3.54,.95-9.26,1.39-11.07,5.17-.5,1.05,1.49,1.43,2.1,1.45,11.68,.47,22.48-3.89,33.1-8.21,10.4-4.23,20.63-8.85,30.7-13.8,5.72-2.81,11.4-5.71,16.99-8.76l-6.46-1.67c-20.51,11.94-41.29,24.15-64,31.41-6.25,2-12.61,3.58-19.09,4.65l3.06,4.07c15.87-2.77,31.44-7.17,46.43-13.07,14.58-5.74,28.67-12.74,41.95-21.07,3.65-2.29,7.23-4.67,10.75-7.15s7.3-5.13,10.54-8.21c1.41-1.34-.46-2.18-1.67-2.36-2.04-.31-4.78-.03-6.55,1.13-6.46,4.24-12.11,8.65-18.73,12.88-6.32,4.04-12.82,7.79-19.49,11.23-13.23,6.83-27.11,12.34-41.38,16.57-8.2,2.43-16.53,4.42-24.93,5.99-1.05,.2-4.76,1.13-3.55,2.91s4.96,1.45,6.61,1.16c24.63-4.38,47.52-15.39,68.96-27.94,5.88-3.44,11.71-6.98,17.53-10.53,.43-.26,1.19-.78,1.1-1.41s-.95-.94-1.43-1.07c-1.93-.53-4.37-.12-6.12,.82-9.36,5.01-18.82,9.83-28.45,14.31s-18.98,8.81-28.77,12.34c-5.3,1.91-10.74,3.4-16.4,3.37l2.89,1.48c.54-1.42,1.66-2.02,3.06-2.44,1.89-.57,3.82-1.01,5.72-1.56,4.1-1.18,8.16-2.52,12.16-4,7.85-2.9,15.46-6.38,22.77-10.44,4.06-2.26,7.97-4.76,11.85-7.32,.55-.36-.23-.71-.54-.78-.62-.15-1.43-.09-1.98,.26h0Z"/><path class="cls-2" d="M727.11,586.6c-.59,1.46-2.2,2.54-3.43,3.46s-2.47,1.79-3.75,2.64c-2.42,1.6-4.93,3.08-7.49,4.44-5.1,2.72-10.39,5.03-15.76,7.16-10.88,4.33-22.11,7.72-33,12.03-3.04,1.2-6.06,2.47-9.02,3.86s-6.05,2.59-8.36,4.71c-.78,.72-.05,1.26,.73,1.52,1.17,.38,2.59,.35,3.75-.09,2.88-1.1,5.56-2.68,8.34-4,2.58-1.23,5.2-2.38,7.83-3.47,5.42-2.25,10.94-4.24,16.47-6.22,11.07-3.97,22.3-7.84,32.55-13.69,2.73-1.56,5.39-3.28,7.93-5.14,1.33-.97,2.67-1.97,3.9-3.07,1.29-1.16,1.71-2.34,2.33-3.88,.34-.86-2.7-1.03-3.02-.25h0Z"/><path class="cls-2" d="M642.77,621.09c-3.88,.66-7.75,1.48-11.55,2.48-1.93,.51-3.85,1.07-5.76,1.66-2.04,.63-4.22,1.1-6.2,1.88l3.36,1.43c7.72-4.49,15.18-9.49,22.55-14.52,7.36-5.02,14.59-10.21,21.71-15.58,1.16-.87-.66-1.54-1.33-1.63-1.46-.18-3.05,.12-4.25,.96-13.46,9.46-27.66,17.82-42.44,25.04-4.19,2.05-8.43,4-12.71,5.86l4.78,1.69c13.23-6.31,25.99-13.65,38.24-21.7,12.39-8.14,24.24-17.06,35.37-26.86,6.11-5.38,11.97-10.97,17.4-17.04,.65-.73-.42-1.03-1-1.08-.97-.08-2.21,.17-2.95,.84-10.98,9.87-22.08,19.58-33.83,28.54s-23.78,16.97-36.45,24.25c-7.05,4.05-14.26,7.8-21.56,11.38-1.14,.56-1.09,1.49,.1,1.93,1.42,.52,3.31,.37,4.68-.24,15.16-6.77,29.76-14.68,43.72-23.66,4.14-2.66,8.22-5.41,12.24-8.25l-5.59-.67c-6.95,5.29-14.02,10.43-21.2,15.39s-14.5,9.6-21.75,14.41c-.9,.6,.28,1.23,.81,1.35,1.15,.27,2.41,.09,3.48-.39,1.57-.71,2.98-1.64,4.6-2.28s3.4-1.27,5.14-1.83c3.6-1.15,7.24-2.02,10.96-2.65,1.22-.21,.25-.82-.54-.69h0Z"/><path class="cls-2" d="M743.93,544.6c-.07-.26-.12-.52,0-.78,.04-.09,.1-.17,.17-.25,.23-.14,.22-.16-.02-.05-.34,.09-.67,.09-.99,.02,.02,.02,.05,.04,.09,.04,.06,.24,.37,.52,.45,.81,.62,2.13-.84,4.29-1.89,6.03-2.67,4.46-5.32,8.94-8.02,13.39-.62,1.02,1.48,1.41,2.02,1.48,1.21,.16,3.24,.22,4.24-.66,7.31-6.41,14.42-13.05,21.6-19.61l-7.28-.77c-7.07,7.22-13.13,15.38-17.97,24.25-.79,1.45,1.87,2.02,2.74,2.16,1.65,.27,4.53,.44,5.91-.75,7.87-6.8,14.79-14.48,20.98-22.84l-10.31-1.14c-7.99,14.67-17.94,28.2-29.61,40.15l10.53,1.54c9.24-15.32,21.18-28.82,32.98-42.19,.52-.59-.04-1.33-.5-1.68-.82-.64-2.21-.96-3.2-1.08-2.12-.26-5.06-.32-6.68,1.34-16.54,16.93-32.39,34.5-47.24,52.94-2.06,2.56-4.1,5.13-6.13,7.72s-4.17,5.26-5.82,8.24c-.96,1.73,2.47,2.38,3.5,2.48,2.01,.19,4.66,.15,6.17-1.41,4.18-4.32,7.63-9.33,11.37-14.03s7.45-9.24,11.26-13.79c7.51-8.96,15.28-17.71,23.26-26.25,4.58-4.9,9.24-9.73,13.99-14.47l-10.37-1.43c-12,13.27-23.96,26.63-33.13,42.08-1.09,1.83,2.62,2.64,3.73,2.79,2.08,.27,5.19,.42,6.8-1.25,11.61-12.08,21.55-25.74,29.4-40.54,.97-1.83-2.62-2.47-3.73-2.58-1.36-.13-2.79-.14-4.12,.2-.86,.22-1.92,.48-2.46,1.24-5.8,8.03-12.38,15.49-19.31,22.57l9.12,.97c3.91-9.04,9.36-17.31,16.13-24.45,1.03-1.09-2.16-1.75-2.64-1.79-1.54-.14-3.46-.11-4.65,1.02-6.88,6.49-13.83,12.92-20.57,19.55l6.59,.51c1.65-3.18,3.33-6.33,5-9.5,.83-1.58,1.68-3.16,2.5-4.75,.69-1.33,1.39-2.77,1.41-4.31,.03-2.95-2.67-3.96-5.22-3.79-1.51,.1-4.77,.71-4.16,2.93,.32,1.16,4.32,.61,4.09-.3h0Z"/><path class="cls-3" d="M814.59,549.62c2.52,.8,4.95,1.96,7.39,2.98s4.91,2.02,7.39,2.98c.85,.33,.76-.79,.6-1.27-.3-.85-.95-1.77-1.8-2.13-2.44-1.04-4.88-2.04-7.35-3.02s-4.94-1.81-7.28-2.95c-.9-.44-1.26,.04-1,.97s1.09,2.15,2.04,2.45h0Z"/><path class="cls-3" d="M816.78,556.72c4.92,.96,9.94,1.42,14.91,2.13s9.65,1.42,14.47,2.16c9.43,1.47,18.82,3.08,28.19,4.87,18.53,3.54,36.83,8.2,54.8,13.92,5.1,1.62,10.15,3.4,15.17,5.25,2.51,.92,5.01,1.87,7.5,2.84s5.12,2.39,7.83,2.62c1.49,.13,1.42-2.07,1.23-2.97-.37-1.68-1.29-3.82-2.79-4.79-1.19-.77-2.31-1.44-3.64-1.93-1.17-.43-2.34-.86-3.52-1.27-2.2-.79-4.41-1.55-6.63-2.31-4.5-1.53-9.02-3-13.56-4.4-9.21-2.83-18.43-5.55-27.78-7.92-18.46-4.68-37.29-8.52-56.25-10.46-5.28-.54-10.57-.98-15.87-1.24s-10.37-.67-15.5-.22c-1.52,.13,.42,3.51,1.44,3.71h0Z"/><path class="cls-3" d="M951.05,609.56c3.71,1.12,7.86,1.26,11.72,1.1s7.51-.62,11.18-1.38,7.42-1.52,11.18-2.03,7.66-.76,11.51-1.14c.33,.04,.59-.07,.78-.34l.2-.49c.65-1.57-.29-3.88-1.54-4.94-1.14-.97-1.74-1.02-3.2-.93-.96,.06-1.92,.13-2.88,.21-1.99,.17-3.97,.39-5.94,.65-3.89,.53-7.73,1.35-11.54,2.26s-7.62,1.87-11.54,2.31-7.64,.31-11.4,.82c-.69,.09-.18,1.77-.08,2.04,.28,.73,.74,1.62,1.54,1.86h0Z"/><path class="cls-3" d="M994.59,605.87c-.11,1.21-.38,2.4-.38,3.62,0,1.49,.18,2.95,.5,4.4,.68,3.11,1.99,6.21,4.02,8.7,1.86,2.28,4.37,4.68,7.43,5.05,2.37,.29,4.56-.9,5.87-2.86,1.6-2.41,2.17-5.43,2.34-8.27,.08-1.39-.49-2.91-1.4-3.95-.66-.75-1.58-1.19-2.1-.07-.22,.47-.43,.93-.64,1.4-.11,.25-.23,.49-.34,.74,.2-.41-.17,.31-.21,.38-.54,.95-1.09,1.89-1.79,2.74-.17,.21-.34,.41-.53,.6-.06,.06-.66,.55-.32,.3-.43,.31-.9,.53-1.4,.7-1.02,.35-2.31,.22-3.01-.09-.6-.27-1.17-.63-1.69-1.03,.48,.37-.32-.31-.4-.39-.24-.23-.47-.48-.7-.71-.25-.28-.22-.25,.08,.1-.65-.76-.75-.88-.32-.37-.23-.17-.43-.54-.59-.78-.09-.13-.19-.27-.28-.4-.21-.33-.18-.27,.1,.16-.19-.12-.38-.67-.48-.87-.08-.14-.5-.72-.46-.86,.2,.47,.23,.53,.08,.16-.06-.16-.12-.32-.18-.47-.12-.35-.11-.32,.03,.1-.05-.17-.1-.33-.14-.5-.09-.34-.16-.67-.24-1.01-.06-.32-.07-.34-.01-.06-.03-.17-.05-.35-.08-.53-.05-.35-.08-.7-.1-1.05s-.03-1.06,.1-1.55c.32-1.19-.32-2.81-1.08-3.69-.72-.83-1.55-.91-1.67,.36h0Z"/><path class="cls-3" d="M1006.41,608.87c.59,.43,1.36,1.23,2.03,1.78,.78,.64,1.56,1.3,2.25,2.03,.07,.08,.15,.16,.22,.24,0,0,.23,.28,.09,.1s.07,.1,.08,.11c.08,.11,.16,.24,.24,.34-.38-.47,.09,.16,.08,.16,0,0-.21-.52-.1-.24,.2,.52-.08-.01-.03-.14-.02,.04,.05,.21,.06,.25,.06,.28-.05-.26-.05-.26,0,0,.04,.37,.03,.34,0-.02,.02-.45,0-.19-.02,.17-.02,.34-.03,.51,0,.06-.05,.43-.01,.17,.03-.24-.03,.12-.04,.16-.34,1.35-1.14,2.66-2.41,3.4-.61,.36-1.39,.63-2.06,.67-.79,.05-1.55-.2-2.1-.52-.21-.12-.4-.26-.6-.41,.09,.06,.3,.25-.08-.07-.6-.5,.1,.11-.14-.12-.06-.06-.13-.12-.19-.18,0,0-.34-.4-.17-.18,.16,.2-.02-.04-.04-.07-.14-.22-.06-.1,.02,.05-.05-.1-.1-.22-.16-.32,.09,.16,.16,.29,.03,.06-.01-.02-.12-.32-.04-.08,.09,.27-.05-.22-.06-.28,.03,.19,0-.27,0-.33,0-.3,.02-.6,.05-.9,.04-.43-.62-2.71-1.36-1.97s-.83,2.05-.73,3.07c.16,1.6,.84,3.14,1.73,4.46,1.42,2.12,3.93,3.77,6.56,3.34,2.2-.36,3.78-2.33,4.51-4.31,.98-2.69,.46-5.91-.98-8.34-.87-1.46-1.98-2.62-3.31-3.67-.55-.43-1.11-.82-1.68-1.22-.28-.2-.56-.4-.84-.61-.16-.12-.33-.25-.49-.38,.09,.08-.26-.25-.12-.08-.27-.33-.75-.99-1.28-.78-.35,.13-.43,.61-.45,.93-.08,1.23,.57,2.72,1.56,3.45h0Z"/><path class="cls-3" d="M1001.29,611.71c-.23-.41-.53-.75-.93-1.01-.45-.29-.97-.37-1.42-.63-.25-.14-.47-.32-.77-.19-.18,.08-.37,.25-.52,.37-.31,.24-.56,.54-.77,.87-1.16,1.77-1.19,3.87-.67,5.88,.64,2.47,2.14,5.13,4.48,6.35,1.8,.95,3.9,1.06,5.69,.03,2.14-1.23,3.43-3.29,3.58-5.76,.07-1.08-.33-2.25-1.01-3.09-.42-.51-1.29-1.05-1.6-.1-.05,.14-.09,.28-.15,.41-.08,.17-.14,.24-.01,.04-.15,.23-.3,.45-.47,.66-.36,.45-.74,.85-1.2,1.19l.31-.23c-1.19,.86-2.63,1.31-4.09,1.42l.42-.02c-.51,.03-1.04,0-1.55-.1-.06-.01-.79-.16-.79-.23,0,0,.37,.18,0-.01-.1-.05-.2-.11-.3-.17-.13-.08-.25-.17-.37-.26-.31-.22,.37,.35,.08,.06-.08-.08-.16-.16-.24-.24-.32-.34-.02,.08,.11,.15-.1-.06-.2-.28-.27-.37-.23-.32,.25,.5,.07,.11-.05-.1-.1-.21-.15-.31,.46,.86,.19,.46,.1,.21-.05-.13-.1-.26-.14-.39-.15-.43,.18,.72,.07,.24-.03-.12-.06-.24-.08-.36-.02-.08-.03-.16-.04-.24,.06,.4,.08,.51,.05,.32,.02-.29-.04-.64-.07-.94-.03-.44-.02,.44,0-.02,0-.15,.01-.31,.03-.46s.03-.31,.06-.46c-.04,.25,.02-.08,.04-.15,.07-.27,.17-.53,.27-.79,.09-.22,.18-.46,.31-.66,.22-.34,.3-.64,.44-1.02l-.16,.2c.5-.3,1.11-.4,1.57,.03,.22,.2,.17-.24,.12-.34h0Z"/><path class="cls-3" d="M1005.65,607.33c1.52,.64,2.96,1.53,4.5,2.19,1.45,.62,2.88,1.29,4.28,2,2.83,1.44,5.57,3.02,8.27,4.7,5.19,3.24,9.93,7.11,14.1,11.59,.86,.92,1.97,.63,2.23-.56,.31-1.4-.29-3.33-1.21-4.4-.63-.73-1.28-1.42-1.91-2.15-.53-.61-1.46-1.42-2.07-.45s-.03,2.57,.45,3.43c.52,.94,1.01,1.9,1.52,2.84l1.49-4.24c-4.55-4.56-9.64-8.6-15.18-11.9-2.67-1.59-5.5-2.93-8.39-4.06-1.42-.56-2.87-1.07-4.32-1.53-.76-.24-1.5-.46-2.28-.59s-1.5-.08-2.24-.21-.58,1.1-.5,1.48c.15,.72,.54,1.56,1.25,1.85h0Z"/><path class="cls-3" d="M955.5,613.93c1.1,1.68,3.32,2.01,5.2,2.32s3.93,.67,5.88,1.06c3.89,.79,7.79,1.72,11.48,3.17s7.12,3.42,10.26,5.8,6.13,5.1,9.58,7.08c1.84,1.06,3.93,2.07,6.04,2.44,1.07,.19,2.2,.22,3.02-.58,.96-.94,.97-2.28,.97-3.54s-.83-3.94-2.29-4.42c-.83-.27-1.53-.74-2.41-.93-.84-.17-1.7-.02-2.56-.21-1.59-.34-3.09-1.13-4.48-1.94-3.21-1.86-6.08-4.23-9.25-6.14-6.63-4.01-14.47-5.62-22.1-6.37-2.11-.21-4.31-.51-6.42-.42-.76,.04-2.38-.14-2.95,.51-.47,.55-.34,1.61,.02,2.17h0Z"/><path class="cls-3" d="M994.07,627.05l.25-.03-.81-.13c1.57,.65,3.05,1.61,4.58,2.36s3.13,1.42,4.74,2.02c3.22,1.2,6.57,2.07,9.97,2.59,6.69,1.03,13.79,.51,20.24-1.52,1.75-.55,3.47-1.21,5.14-1.97,.94-.43,1.86-.86,2.7-1.48,.96-.7,1.46-1.95,1.91-3.04,.7-1.7-.7-5.47-2.68-5.82-1.15-.2-2.26-.37-3.35,.13-.95,.44-1.86,.97-2.81,1.42-1.9,.9-3.86,1.66-5.86,2.28-3.78,1.18-7.74,2.04-11.7,2.3s-8.03,.11-11.96-.6-8.28-1.74-11.48-4.07l.86,.83-.29-.35c-.39-.47-1.06-1.33-1.8-1.05s-.69,1.38-.63,1.98c.14,1.42,1.15,4.34,2.99,4.13h0Z"/><path class="cls-3" d="M1046.65,617.83c-.44-.12-.87-.23-1.31-.35-.81-.21-.79,1.16-.74,1.62,.09,.83,.44,1.81,1.21,2.22,2.44,1.29,5.37,1.58,8.09,1.69s5.4,.06,8.06-.3c5.44-.73,10.72-2.16,16-3.6,10.81-2.93,21.63-5.76,32.39-8.85,5.95-1.71,11.86-3.61,17.77-5.44,1.28-.4,1.54-2.03,1.61-3.16,.12-1.89-.36-3.8-1.16-5.5-.56-1.18-1.4-2.41-2.48-3.17-2.73-1.92-2.82,3.27-2.46,4.73,.52,2.14,1.17,4.02,2.37,5.89l-.18-9.68c-10.88,3.38-21.84,6.62-32.55,10.51-5.17,1.88-10.36,3.73-15.55,5.55s-10.22,3.67-15.45,5.09c-2.77,.76-5.59,1.43-8.43,1.82-1.44,.2-2.88,.29-4.33,.35s-2.97-.05-4.43,.21l.97,3.86c.38-.16,.76-.32,1.14-.48,.92-.39,.26-2.8-.56-3.02h0Z"/><path class="cls-3" d="M1129.25,592.45c-1.52,.48-3.17,1.61-3.9,3.04s-.38,4.8,1.29,5.48c4.25,1.74,8.4-.73,11.97-2.92,3.85-2.37,7.46-5.15,10.9-8.08,.82-.7,1.64-1.42,2.45-2.13,.46-.4,.89-.8,1.3-1.26,1.23-1.38,2.33-3.17,3.41-4.68,.43-.59,.67-.92,.44-1.61-.33-.98-1.74-1.34-2.65-1.5-1.52-.26-3.13-.08-4.59,.38l-.6,.19c-.51,.17-.97,.43-1.37,.78l-.37,.29,2.96-4.02c-.69,.17-1.16,.83-1.64,1.31-3.31,3.3-6.8,6.46-10.32,9.53-3.65,3.18-7.4,7.36-12.55,7.69l1.99,3.61c-.07-1.03,.85-2,1.94-2.38,1.2-.42,.43-4.07-.65-3.73h0Z"/><path class="cls-3" d="M1154.21,581.39c.62,.7,1.08,1.2,2.04,1.42,.77,.18,1.58,.27,2.37,.33,1.62,.11,3.27,.05,4.88-.08,3.24-.26,6.36-1.04,9.41-2.16,6.09-2.24,11.58-6.08,15.94-10.88,2.51-2.75,4.64-5.94,6.24-9.3l-1.67,1.31,.39-.05-1.06-.76c.31,.38,.58,.77,.8,1.2-.22-.44,.32,1.1,.11,.18,.02,.08,.16,.67,.11,.72,.11-.09-.09-.89-.02-.13,.06,.65,0,.11,.04-.25-.06,.68,0,.06,.08-.26-.17,.74,.14-.02,.08-.15,.05,.1-.24,.59-.28,.7,.13-.37,.23-.4,0-.02-.13,.22-.26,.44-.39,.65s-.28,.43-.43,.64c.24-.33,0,0-.12,.13-.4,.43-.8,.86-1.23,1.25-3.42,3.1-7.95,3.73-11.99,5.7-1.28,.62-1.78,2.7-1.88,3.96-.06,.72-.05,1.46,.06,2.18,.08,.5,.42,1.81,1.01,2.08,1.79,.8,3.3,1.08,5.23,.65,1.42-.31,2.81-.85,4.1-1.52,2.88-1.48,5.3-3.55,7.2-6.16,4.17-5.74,5.13-15.41-.31-20.64-.83-.8-1.93,.43-2.25,1.09-2.66,5.34-6.43,10.16-11.39,13.97s-10.79,6.63-16.89,8.38c-1.64,.47-3.32,.82-5,1.07-.92,.14-1.84,.27-2.75,.41-1.09,.17-1.64,.59-2.42,1.34-.62,.59-.55,2.39,0,3h0Z"/><path class="cls-3" d="M949.42,582.15c-.1-.67-.39-1.65-1.1-1.93-.24-.1-1.07-.14-1.27-.03-.34,.18-.32,.72-.25,1.03,.25,1.18,.78,2.43,1.85,3.1,.78,.49,1.76,.78,2.62,1.1,2.25,.85,4.55,1.59,6.82,2.38,4.43,1.55,8.88,3.07,13.37,4.45l-2.35-5.29c-.49,.84-.91,1.63-1.01,2.61-.12,1.14,.68,4.12,2.28,3.85,.78-.13,1.25-.85,1.71-1.45,.58-.74,.02-2.32-.3-3.03-.41-.92-1.04-1.94-2.04-2.26-3.74-1.17-7.52-2.24-11.3-3.26-1.84-.5-3.68-.99-5.52-1.49-.92-.25-1.84-.52-2.76-.74-.55-.13-1.93-.16-2.35-.55l.7,1.08c-.08,.38,.02,.58,.3,.6l-.53-.54,.08,.11-.4-1.11v.16c-.01,.5,.35,1.27,.78,1.55,.34,.23,.75,.21,.67-.34h0Z"/><path class="cls-3" d="M959.6,591.85c.87-1.25,3.15-1.34,4.53-1.44,2.33-.16,4.68-.2,7.01-.23,4.77-.07,9.55,0,14.31,.33,9.24,.64,18.49,2.3,27.19,5.57,2.63,.99,5.21,2.12,7.71,3.4,1.13,.58,2.25,1.18,3.35,1.82,1.17,.69,2.25,1.54,3.44,2.18,2.89,1.54,1.8-3.73,1.39-4.84-.36-.98-.84-1.96-1.48-2.8-.35-.45-1.21-1.55-1.96-1.17-.86,.44-.92,1.4-1.03,2.26l2.04-1.59c-2-1.45-4.43-2.52-6.66-3.56s-4.38-1.9-6.63-2.7c-4.49-1.6-9.14-2.77-13.84-3.55-9.6-1.6-19.42-1.91-29.11-1.14-2.67,.21-5.41,.39-8.05,.86-2.23,.4-3.88,1.92-3.86,4.28,0,.38,.95,3.31,1.64,2.32h0Z"/><path class="cls-3" d="M1042.15,588.76c-1.02-1.11-3.57-2-4.81-.87-.95,.86,.34,3.99,1.46,4.24,6.35,1.39,12.17,4.69,16.4,9.65,.89,1.04,1.85,2.5,2.71,3.94-.45-.74,.08,.16,.17,.33,.22,.42,.43,.84,.63,1.27,.11,.24,.62,1.21,.1,.18,.18,.36,.3,.77,.44,1.15s.26,.77,.39,1.16c.38,1.13-.23-1,.04,.14,.11,.45,.22,.9,.31,1.35,.05,.25,.21,1.31,.06,.21,.11,.8,.18,1.6,.23,2.4,.02,.35,.06,.71,.05,1.06,0-.92-.06,.59-.06,.74-.04,2.27,.72,4.84,2.41,6.45,1.46,1.38,2.78,.79,3.04-1.13,.31-2.33,.3-4.69,.25-7.03-.03-1.14-.67-2.54-1.42-3.35-.36-.39-1.45-1.34-1.94-.51-.88,1.5-1.67,3.04-2.16,4.71l5.28,6.19c.99-15.26-11.46-33.59-27.88-33.32l1.46,4.24c.43-.76,1.6-2.51,2.58-1.27,.36,.46,.73,.69,.96,.05,.21-.59-.33-1.58-.7-1.98h0Z"/><path class="cls-3" d="M1090.47,579.78c3.25,2.21,6.77,3.94,10.2,5.85s6.67,3.85,9.91,5.92c2.93,1.87,5.91,3.76,8.61,5.97,1.08,.88,2.08,1.83,2.96,2.91,.11,.14,.17,.19,.39,.52,.08,.11,.63,.99,.44,.67s.27,.6,.33,.72c.13,.3,.1,.23-.08-.21,.15,.49,.15,.47,.01-.07,.32,1.48,.89,3.25,2.11,4.24,.9,.73,1.72,.76,2.29-.36,1.85-3.64,.28-8.64-1.95-11.75-1.96-2.74-4.48-4.85-7.08-6.96-2.36-1.92-4.79-3.78-7.42-5.31s-5.8-3.31-8.88-3.35c-1.83-.02-.91,7.12,1.7,6.85,.93-.1,2.12,.28,3.05,.42,2.24,.34,1.11-5.3-.56-5.87-1.02-.35-2.35-.6-3.28-1.13l.34,6.56c2.27,.98,4.6,1.57,6.77,2.83s4.33,2.82,6.35,4.42c1.83,1.45,3.73,2.91,5.36,4.59,.72,.74,1.06,1.19,1.56,2.11,.24,.45-.14-.69,.03,.11-.06-.29-.11-.56-.14-.85,.04,.39-.08,.39,.05,0,.05-.14-.21,.63-.21,.64l4.12,2.73c-1.38-3.98-3.54-7.19-6.72-9.94-2.61-2.26-5.68-3.98-8.67-5.67-3.45-1.96-6.98-3.8-10.56-5.52s-7.3-3.61-11.25-4.33c-1.3-.24-.39,2.87,.19,3.27h0Z"/><path class="cls-3" d="M1130.05,552.57c-.39,.35-.83,.56-1.36,.68-.26,.06-.52,.05-.78,.1s-.5,.07-.76,.05c-.09,0-.15,.18-.15,.23-.02,.13-.02,.25,0,.38,.04,.23,.13,.54,.35,.65,.27,.13,.55,.23,.85,.29s.61,0,.89-.07c.56-.14,1.1-.42,1.52-.81,.37-.34-.16-1.86-.58-1.5h0Z"/><path class="cls-3" d="M1122.44,552.44c-1.14-.67-2.58-.32-3.45,.64-1.16,1.29-.92,3.42-.43,4.94,1.35,4.14,5.08,5.05,8.59,6.78,2.87,1.41,5.48,3.49,7.56,5.92,1.1,1.28,2.11,2.64,3.04,4.05,.33,.49,.57,.88,1.02,1.64s.89,1.54,1.31,2.31c.92,1.68,1.76,3.39,2.58,5.12-.45-.94,.17,.38,.28,.63,.2,.45,.41,.91,.61,1.37,.39,.9,.7,1.83,1.11,2.73,.51,1.11,1.42,3.24,2.92,3.19s1.79-1.89,1.81-3.05c.34-14.48-8.17-29.88-22.16-34.99l.62,8.76c5.07,1.22,9.74,3.56,13.8,6.84,2.03,1.64,3.62,3.22,5.17,5.14,.84,1.04,1.61,2.11,2.34,3.23,.68,1.04-.37-.66,.25,.4,.13,.22,.26,.44,.38,.66,.36,.63,.71,1.27,1.07,1.9,.5,.86,1.54,2.32,2.7,1.69s1.1-2.57,1.06-3.72c-.03-.91-.14-1.83-.24-2.74-.14-1.35-.72-3.23-1.91-4.06-1.06-.74-1.78,.12-2.06,1.14-.18,.67-.38,1.35-.51,2.03l4.14,1.18c-5-11.02-15.18-19.3-26.82-22.46-3.12-.84-1.87,7.77,.62,8.76,5.1,2.02,9.25,5.4,12.24,9.66,.18,.25,.35,.5,.52,.76-.45-.69,.18,.31,.21,.37,.34,.58,.66,1.16,.97,1.76,.6,1.14,.97,2.1,1.44,3.44,.35,.98-.24-.96,.05,.13,.08,.29,.16,.58,.23,.88,.03,.13,.23,1.09,.17,.76-.07-.42,.06,.5,.07,.58,.04,.35,.08,.71,.11,1.07,.02,.24,.04,1.45,.03,.15l.05,1.28c-.02-.32-.02-.27,0,.16,0,.36,0,.73-.02,1.09l4.74,.14c-3.31-7.16-7.42-14.54-13.16-20.05-2.52-2.42-5.47-4.48-8.75-5.73-1.81-.69-3.96-.87-5.63-1.86-.38-.22-.65-.52-.96-.81-.14-.28-.21-.35-.2-.22,.12,.28,.21,.24,.27-.14,.44-.38,.52-.81,1.12-1.05,.43-.17,.83-.17,1.26-.01,.81,.29,.37-2.05-.18-2.37h0Z"/><path class="cls-3" d="M841.71,522.35c1-1.06,1.43-2.49,1.39-3.92-.02-.81-.39-1.7-.98-2.26-.41-.39-.99-.66-1.24,.04-1.85,5.23-2.29,11.22-2.08,16.73,.23,6.12,1.37,12.06,3.45,17.82,.25,.7,1.08,2.12,2,1.97s.76-1.65,.55-2.27c-1.72-5.12-2.85-10.48-3.09-15.89s.46-10.53,1.35-15.8l-1.89-.9c.38,.73-.18,1.75-.79,2.41-.54,.57,.69,2.76,1.34,2.08h0Z"/><path class="cls-3" d="M833.19,506.9c-1.47-.88-2.64,.54-3,1.9-.57,2.18-.68,4.59-.95,6.82-.57,4.63-.99,9.29-1.16,13.95-.28,7.74,.74,16.59,6.94,22.01,.81,.71,1.6,.46,1.69-.65,.1-1.23-.5-2.8-1.41-3.65-4.04-3.77-4.21-9.69-4.06-15.11,.1-3.82,.41-7.63,.66-11.45,.13-1.97,.28-3.95,.46-5.92,.03-.39,.23-4.92,1.26-4.5,.78,.32,.94-.49,.88-1.11-.08-.83-.56-1.86-1.3-2.3h0Z"/><path class="cls-3" d="M847.11,548.8c2.01,.34,4.04,.28,6.08,.37s4.12,.28,6.17,.56c3.9,.52,7.77,1.22,11.58,2.2,7.88,2.03,15.53,4.91,23.07,7.95,15.17,6.09,30.03,12.87,44.81,19.85,4.14,1.96,8.27,3.95,12.37,5.98,2.09,1.04,4.17,2.08,6.25,3.14s4.05,2.36,6.17,3.14c1.86,.69,3.63,.28,3.78-2,.17-2.46-1.38-4.85-3.21-6.35-.48-.4-.99-.72-1.52-1.05-.58-.35-.65-.4-.22-.16l-.7-.48c-1.07-.73-2.83-1.46-3.72-.05s-.04,3.6,.8,4.79c.9,1.27,1.76,2.53,2.76,3.74l2.6-6.79c-1.96-1.28-4.12-2.24-6.21-3.28-1.86-.93-3.72-1.84-5.58-2.75-3.73-1.82-7.47-3.61-11.23-5.37-7.65-3.58-15.38-6.95-23.19-10.17s-15.23-6.13-22.92-9.01c-7.55-2.83-15.18-5.51-23.05-7.3-4.42-1-8.94-1.87-13.47-2.09-2.19-.1-4.38-.11-6.57,.01s-4.5,.22-6.53,1.13c-.73,.33-.28,1.7-.08,2.18,.32,.76,.89,1.67,1.77,1.82h0Z"/><path class="cls-3" d="M849.99,553.57c4.44,.75,9.05,.77,13.53,1.2s8.74,.97,13.08,1.61c8.65,1.28,17.24,3.07,25.69,5.37s16.84,5.17,24.97,8.54,16.24,7.51,24.19,11.62c4.37,2.26,8.77,4.49,13.23,6.57,2.27,1.06,4.56,2.1,6.88,3.06s4.53,1.95,6.93,2.2c.79,.08,.95-.72,.81-1.3-.22-.89-1.03-1.63-1.79-2.07-2.03-1.16-4.25-1.9-6.39-2.83s-4.26-1.83-6.36-2.81c-3.95-1.84-7.84-3.82-11.72-5.81-8.13-4.19-16.25-8.41-24.68-11.96-16.14-6.81-33.16-11.65-50.49-14.2-4.88-.72-9.78-1.24-14.7-1.56-2.37-.15-4.75-.3-7.12-.32s-4.9-.16-7.27,.24c-1.18,.2,.57,2.36,1.21,2.47h0Z"/><path class="cls-3" d="M853.3,546.64c19.13,.18,38.2,3.44,56.65,8.39,18.56,4.97,36.61,11.74,54.34,19.08,10.12,4.19,20.11,8.67,30.2,12.91,.72,.3,1.72,.35,1.7-.67s-1.17-2.01-1.99-2.39c-17.83-8.24-35.99-15.95-54.43-22.71-18.16-6.66-36.92-12.29-56.08-15.23-10.59-1.63-21.3-2.42-32.02-2.34-.77,0-.3,1.29-.13,1.61,.34,.64,.99,1.35,1.76,1.36h0Z"/><path class="cls-3" d="M700.25,526.44c-.82-.95-1.64-1.98-2.71-2.65s-2.32-1.24-3.42-1.94c-2.02-1.29-4.47-2.65-7.23-3.63-5.16-1.83-10.52-3.03-15.85-4.25-12.16-2.79-24.18-6.19-36.06-10.01-20.89-6.72-41.3-14.81-61.59-23.12s-40.88-16.05-59.83-27.2c-9.19-5.4-18.02-11.38-27.23-16.73s-18.34-9.77-27.97-13.65c-18.76-7.57-38.99-11.91-59.17-13.18-2.54-.16-5.08-.26-7.63-.32-2.09-.05,.54,3.66,2.03,3.69,20.53,.44,40.65,4.39,59.9,11.49,9.75,3.59,19.2,7.96,28.12,13.31s18.04,11.75,26.72,18.07c4.47,3.26,9.04,6.45,13.71,9.42,4.68,2.97,9.59,5.48,14.59,7.86,9.81,4.67,19.86,8.81,29.89,12.98,20.27,8.44,40.75,16.52,61.57,23.51,10.94,3.67,21.98,6.99,33.17,9.8,5.22,1.31,10.46,2.47,15.73,3.56,2.52,.52,5.01,1.11,7.52,1.69,2.66,.61,5.32,1.35,7.79,1.59,.72,.07,2.02,.42,2.98,.79,1.31,.5,2.57,.63,3.94,.87s1.88-.99,1.05-1.95h0Z"/><path class="cls-3" d="M731.55,526.01c-4.67-1.89-9.49-3.26-14.28-4.8s-9.63-3.17-14.43-4.81c-9.44-3.22-19.2-5.56-28.86-8.03-19.37-4.94-38.91-9.38-58.07-15.08-17.75-5.28-34.27-13.68-50.75-22.22-17.11-8.86-34.34-17.5-51.69-25.86-9.32-4.49-18.62-9.02-28.12-13.13-8.61-3.72-17.3-7.24-25.96-10.86-2.22-.93-4.43-1.85-6.65-2.77-1.6-.66-2.01,1.28-1.83,2.43,.27,1.71,1.36,3.53,2.96,4.28,17.77,8.4,35.25,17.39,52.99,25.85,17.45,8.32,34.74,16.99,51.92,25.86s33.39,17.8,51.36,23.89c9.13,3.09,18.48,5.44,27.85,7.71,9.63,2.33,19.25,4.72,28.87,7.05,9.72,2.36,19.44,4.9,29.25,6.9s19.27,3.15,28.86,4.94c2.35,.44,4.67,.75,7.05,.95,.61,.05,.95-.36,.87-.93-.09-.68-.77-1.13-1.34-1.36h0Z"/><path class="cls-3" d="M511.45,440.38c14.36,7.25,29.18,13.21,44.31,18.67,15.23,5.5,30.6,10.68,45.64,16.7,7.31,2.93,14.47,6.16,21.53,9.65,7.56,3.73,15.03,7.68,22.76,11.04,15.01,6.52,31.02,9.87,47.06,12.75,16.61,2.98,33.24,5.81,49.88,8.62,2.31,.39,4.59,.72,6.93,.87s2.74-2.48,2.22-4.11c-.72-2.25-2.75-4.24-5.08-4.77-1.6-.37-3.27-.52-4.89-.76-1.32-.19-2.57,.34-2.68,1.81s1.05,3.3,2.32,4.02c1.96,1.12,3.87,2.33,5.89,3.33l-.64-8.39c-4.08-1.08-8.32-1.6-12.48-2.29s-8.48-1.4-12.72-2.11c-8.3-1.38-16.6-2.77-24.91-4.15-16.07-2.67-32.03-5.66-47.48-10.92-14.99-5.1-29.16-12.34-43.94-18.01-14.84-5.69-29.99-10.46-45.1-15.37s-29.42-9.71-43.64-15.83c-1.78-.77-3.58-1.48-5.35-2.29-.71-.33-.12,1.32,.36,1.56h0Z"/><path class="cls-3" d="M547.75,465.47c3.04-1.38,6.53-.46,9.59,.46s6.08,1.84,9.08,2.88c6.14,2.11,12.15,4.57,18.12,7.12,11.95,5.1,23.87,10.22,36.02,14.84,25.28,9.6,51.16,17.59,77.46,23.85,14.07,3.35,28.32,6.23,42.77,7.19,1.41,.09,1.58-1.47,1.22-2.45-.5-1.37-1.79-2.66-3.24-3.01-13.65-3.32-27.45-5.97-41.18-8.96-12.31-2.68-24.54-5.75-36.68-9.15-13.25-3.71-26.38-7.87-39.35-12.46-11.92-4.22-23.64-8.94-35.34-13.73-6.81-2.79-13.64-5.54-20.63-7.83-6.07-1.98-13.17-4.74-19.49-2.4-1.37,.51,.24,4.3,1.63,3.67h0Z"/><path class="cls-3" d="M686.88,518.24c6.69,1.31,13.34,2.79,20.1,3.73,3.27,.45,6.54,.85,9.82,1.2s6.8,1.1,10.03,.45c.71-.14,.59-1.12,.41-1.59-.28-.74-.98-1.41-1.74-1.63-3.22-.96-6.71-.93-10.05-1.27s-6.64-.72-9.95-1.15c-6.55-.85-13.18-1.59-19.66-2.88-.85-.17-.96,.87-.79,1.44,.25,.82,.99,1.54,1.83,1.7h0Z"/><path class="cls-3" d="M698.88,529.52c.77,2.91,3.34,4.2,6.2,4.39,3.92,.26,7.94,.09,11.86-.07s7.91-.37,11.86-.69c2-.16,3.99-.35,5.99-.56s4.15-.28,5.99-1.15-.5-3.62-1.76-3.82c-3.4-.53-6.95,.16-10.35,.46s-6.92,.63-10.38,.9-6.73,.48-10.09,.77c-1.57,.13-3.16,.33-4.73,.36-.46,0-.92-.01-1.38-.09-.76-.13-.6-.37-.45,.19-.2-.77-.84-1.55-1.65-1.74-.68-.15-1.28,.29-1.09,1.03h0Z"/><path class="cls-3" d="M709.94,534.09l.08,.12-.32-1.45,1.51,.26,.68,1.51c0,.1,10.7-1.98,11.79-2.23,4.25-.97,8.5-1.94,12.75-2.91,8.26-1.88,16.5-4.05,24.82-5.64,4.63-.89,9.42-1.4,14.14-1.09,1.1,.07,1.29-1.2,1.03-1.97-.35-1.02-1.37-2.14-2.49-2.31-10.23-1.58-20.53,1.84-30.39,4.21s-20.29,4.79-30.3,7.66c-1.76,.5-5.81,1.3-3.96,4.01,.98,1.44,4.07,1.73,3.15-.68-.29-.76-1.35-1.64-2.2-1.42-.97,.25-.66,1.31-.27,1.93h0Z"/><path class="cls-3" d="M724.46,524.32c3.23,1.65,6.62,1.46,10.06,.62,3.16-.78,6.26-1.81,9.42-2.59,5.89-1.45,11.97-2.27,18.04-2.44,11.93-.33,23.93,2.04,34.92,6.64,3.07,1.29,6.08,2.76,8.97,4.4s5.57,3.69,8.58,5.02c1.42,.63,2.17-.78,1.24-1.9-2.28-2.73-5.22-4.74-8.21-6.62-2.54-1.61-5.17-3.13-7.9-4.41-5.72-2.69-11.66-4.76-17.83-6.16-11.84-2.7-24.45-2.93-36.33-.28-3.39,.76-6.65,1.79-9.9,3.01-3.6,1.36-7.64,2.85-11.52,1.98-.66-.15-.84,.51-.78,1.02,.09,.69,.62,1.4,1.23,1.71h0Z"/><path class="cls-3" d="M741.53,520.26c1.29,1.22,.07,1.47,1.02,.87,.24-.15,.48-.24,.75-.32,.72-.2,1.56-.15,2.3-.19,1.73-.1,3.45-.2,5.18-.27,3.34-.14,6.68-.21,10.02-.19,6.73,.05,13.48,.6,20.09,1.9,11.2,2.19,22.06,6.59,30.71,14.17,4.52,3.96,8.27,8.69,11.42,13.8,.36,.59,1.17,1.28,1.92,1.13s.79-.89,.56-1.5c-4.52-11.89-15.49-20.62-26.64-26.02-12.73-6.17-26.98-7.86-40.98-7.51-4.17,.1-8.34,.45-12.48,.93-1.63,.19-3.66,.14-5.03,1.16s-1.36,2.55-.3,3.81c.45,.54,1.49,1.38,2.15,.66s-.18-1.94-.69-2.42h0Z"/><path class="cls-3" d="M807.4,537.84c.91,1.73,1.76,3.48,2.61,5.24,.24,.5,.75,1.07,1.24,1.34,.37,.2,.75,.35,1.17,.31,.98-.09,1.16-1.14,.92-1.94-.54-1.77-1.07-3.54-1.55-5.34-.21-.78-.74-1.47-1.32-2.02s-1.37-.94-2.17-.87c-.62,.05-1.03,.38-1.23,.96-.27,.78-.05,1.61,.32,2.32h0Z"/><path class="cls-3" d="M607.12,627.97c.53-.47,1.13-1.2,.46-1.78-.71-.62-1.75-.28-2.52,.16-1,.57-2.24,1.65-1.75,2.91,.44,1.13,1.76,1.57,2.87,1.63,1.67,.08,3.44-.4,5.07-.67,1.87-.31,3.74-.64,5.61-.98,3.75-.7,7.49-1.53,11.2-2.41,14.78-3.5,29.31-8.1,43.45-13.61,14.95-5.83,29.49-12.69,43.68-20.16,14.29-7.52,28.2-15.78,41.67-24.68s27.58-19.01,40.83-29.27c.38-.3,.87-.56,1.19-.92l.03-.02c.81-.44-.05-.24-2.56,.58l-2.59,.6,.23,.14c.04,.07,.26,.38,.35,.53,.26,.44-.17,.3,.14-.01l1.44-1.18-.2,.11c-.72,.39-2.5,1.7-1.43,2.59s3.73,.04,4.82-.38c1.98-.76,5.08-2.09,4.82-4.71-.23-2.25-3.02-2.33-4.72-2.13-5.49,.65-9.61,4.64-13.79,7.86-5.96,4.6-12,9.1-18.11,13.49-12.32,8.87-24.92,17.32-37.88,25.23-.67,.41-1.35,.82-2.02,1.23-.79,.48,.4-.24-.4,.24s-1.61,.96-2.42,1.43c-1.61,.95-3.23,1.89-4.86,2.82-3.24,1.86-6.51,3.68-9.8,5.46-6.65,3.6-13.42,6.97-20.29,10.14-13.35,6.17-27.08,11.56-41.09,16.02-7.05,2.24-14.19,4.21-21.39,5.93-3.65,.87-7.31,1.67-10.98,2.44-1.85,.39-3.7,.75-5.56,1.1-1.14,.21-3.12,.74-4.03-.27-.09-.09-.23-.58-.28-.6,.29,.17-2.28,1.48-1.37,1.28,.14-.03,.93-.3,.41-.18-.48,.11,.56,0,.53,.05-.49,.91,.95,.23,1.22,0h0Z"/><path class="cls-3" d="M803.17,538.25c-2.38,1.65-4.72,3.29-7.01,5.06-1.96,1.52-3.88,3.09-5.8,4.65-3.79,3.07-7.59,6.13-11.5,9.06-7.8,5.84-15.78,11.4-23.98,16.66-4.08,2.61-8.19,5.16-12.36,7.63,.94-.56-.52,.3-.75,.44-.51,.3-1.01,.59-1.52,.89-1.08,.63-2.16,1.25-3.24,1.87-2.1,1.21-4.21,2.41-6.32,3.6-8.45,4.75-17,9.34-25.65,13.73-4.77,2.42-9.54,4.84-14.33,7.24s-10.18,4.78-14.75,8.02c-.62,.44-1.95,1.58-1.24,2.42s2.59,.45,3.44,.16c2.07-.7,4.02-1.39,5.98-2.32,1.44-.68,2.87-1.4,4.29-2.11,2.16-1.09,4.32-2.18,6.48-3.28,4.26-2.16,8.52-4.33,12.74-6.55,8.51-4.47,17.01-8.96,25.4-13.64,17.59-9.81,34.96-20.35,51.06-32.49,4.25-3.2,8.47-6.47,12.51-9.93,2.26-1.93,4.49-3.87,6.59-5.98,.9-.9,1.75-1.84,2.61-2.78,.77-.84,1.3-1.79,1.94-2.72,.59-.87-.44-1-1.11-.95-1.26,.09-2.45,.61-3.47,1.32h0Z"/><path class="cls-3" d="M785.81,534.82c.12-.41,.29-.75,.66-.97l-1.55,.68,.24-.08-2.46,.03c1.29,1.67,3.33,2.87,4.97,4.17,1.73,1.37,3.38,2.85,4.85,4.5s2.7,3.47,3.62,5.48c.43,.94,.77,1.91,1.07,2.9s.33,2.2,.68,3.2c.55,1.58,2.62,1.77,4.02,1.54,1.91-.31,4.52-1.55,5.37-3.44,.48-1.05-.08-2.46-.45-3.48-.39-1.09-.91-2.11-1.52-3.09-2.43-3.92-5.94-6.91-9.81-9.35-2.33-1.46-4.8-2.85-7.37-3.86-1.68-.66-3.52-.59-5.05,.46-.89,.61-1.08,1.37-.3,2.14,.53,.52,2.83-.14,3.02-.84h0Z"/><path class="cls-3" d="M802.93,551.3c.11,.02,.23,.05,.34,.07l2.35-2.19c-3.46,.85-6.83,2.36-10.1,3.77s-6.53,2.92-9.62,4.7c-6.03,3.45-11.68,7.77-15.76,13.46-1.14,1.59,.7,2.01,2.02,1.98,2.15-.05,4.9-.74,6.57-2.17,3.09-2.64,6.14-5.32,9.32-7.85,1.53-1.22,3.08-2.41,4.67-3.55,.79-.57,1.59-1.13,2.4-1.67,.46-.31,.92-.61,1.39-.92,.44-.28,.47-.3,.07-.05,.18-.11,.35-.22,.53-.33,1.64-1.01,3.31-1.96,5.02-2.83,.43-.22,.86-.42,1.28-.64,.52-.25,.49-.24-.1,.04,.19-.09,.37-.17,.56-.25,.87-.39,1.74-.75,2.63-1.09,.44-.17,.89-.33,1.33-.49,1.09-.41-1.08,.34,.34-.11,.9-.29,1.81-.54,2.72-.78,.2-.05,.39-.1,.59-.15-.38,.08-.33,.07,.15-.03,.46-.1,.93-.19,1.39-.27,.96-.17,1.93-.33,2.9-.41,1.87-.16,3.72-.55,5.4-1.41,.46-.23,2.75-1.44,2.21-2.36-2.19-3.76-4.97-7.08-8.27-9.9l-10.19,3.44c2.8,2.26,5.67,4.79,6.94,8.27,.51,1.39,.79,2.95,.67,4.43-.13,1.56-.9,2.98-1.54,4.37s2.24,1.45,2.83,1.4c2-.15,4.29-.71,5.91-1.94,1.81-1.37,3.04-2.96,3.41-5.22,.3-1.83,.22-3.7-.37-5.47-1.3-3.88-4.52-6.83-7.65-9.28-1.71-1.34-5.14-.47-6.96,.19-.75,.27-4.83,1.92-3.23,3.25,3.13,2.6,5.74,5.72,7.76,9.26l7.61-3.77c-19.62,1.03-36.71,13.02-50.31,26.34l9.64-1.4c1.44-2.37,3.29-4.51,5.31-6.41,1.63-1.54,4.48-3.62,6.15-4.66,1.23-.76,2.47-1.5,3.73-2.2,.61-.33,1.22-.66,1.83-.98,.34-.18,.67-.35,1.01-.52-.03,.01,1.01-.5,.55-.28,2.89-1.43,5.7-2.36,8.37-4.08,.38-.25,1.2-.71,.89-1.25s-1.6-.23-2-.14c-.19,.04-.38,.08-.57,.13-.76,.17-1.69,.49-2.24,1.06-.32,.33-.52,.81,.12,.94h0Z"/><path class="cls-3" d="M341.31,386.33c-.14,2.19,.48,4.34,.76,6.5,.26,2.05,.35,4.13,.27,6.2-.15,4.28-.85,8.52-1.68,12.72-1.74,8.88-3.85,17.69-5.63,26.56-.46,2.28-.97,4.57-1.2,6.89-.11,1.11-.19,2.33-.01,3.43,.15,.99,.78,1.93,1.37,2.72,.55,.72,2.09-.56,2.44-.88,.7-.66,1.56-1.67,1.41-2.71-.6-4.22,.9-8.59,1.75-12.67,.9-4.34,1.73-8.69,2.57-13.04,1.61-8.29,3.67-16.66,3.82-25.14,.04-2.24-.04-4.48-.35-6.69-.28-2.02-.61-4.95-2.25-6.35-1-.85-3.21,1.55-3.27,2.47h0Z"/><path class="cls-3" d="M347.45,387.68c1.1,1.31,2.95,2.16,4.4,3.07,1.56,.98,3.14,1.94,4.73,2.88,3.18,1.88,6.42,3.65,9.72,5.33,6.7,3.41,13.59,6.42,20.91,8.24,1.26,.31,4.7-2.77,3.13-3.59-6.38-3.33-13.03-6.12-19.5-9.28-3.24-1.58-6.45-3.25-9.62-4.97-1.62-.88-3.23-1.78-4.83-2.71s-3.16-2.15-4.89-2.69c-.97-.3-2.26,.72-2.89,1.3-.45,.42-1.75,1.69-1.15,2.41h0Z"/><path class="cls-3" d="M353.11,386.61c-.52-.64-1-1.28-1.43-1.98-.37-.6-1.68,.26-1.98,.48-.65,.48-1.32,1.13-1.39,1.97-.61,7.29-.68,14.62-.83,21.93-.03,1.24,2.13,.28,2.51,.06,1.16-.66,2.39-1.73,2.77-3.05,1.52-5.19,2.85-10.45,4.24-15.68l-5.33,3.2c-.03,2.1,.59,4.04,1.73,5.8,.52,.81,2.31-.3,2.75-.6,.93-.65,2.23-1.81,2.37-3.01,.36-3.07-1.03-5.5-3.71-6.95-1.07-.57-3.07,1.22-3.67,1.84-.68,.7-2.01,2.16-1.31,3.21,1.32,1.99,3.38,3.63,5.4,4.87,1.02,.62,2.08,1.18,3.19,1.62s2.47,.64,3.57,1.16c.51,.24,.9,.62,1.48,.78,.6,.17,1.23,.22,1.85,.29,1.38,.15,2.77,.25,4.16,.31,2.62,.12,5.26,.07,7.88,.19,4.72,.23,9.21,1.34,13.42,3.5,3.98,2.04,7.53,4.81,11.03,7.56,4.34,3.41,8.67,6.62,13.58,9.19,.63,.33,2.05-.35,2.52-.62,.92-.53,1.72-1.2,2.44-1.97,.61-.66,2.97-3.54,1.62-4.47-3.72-2.54-7.11-5.55-10.63-8.34s-7.4-5.77-11.49-8.09-8.55-3.88-13.3-4.35c-5.23-.52-10.47-.17-15.7-.48-.85-.05-1.74-.17-2.59-.05s-1.36,.15-2.21-.02c-1.42-.29-2.83-.7-4.17-1.26-2.63-1.09-4.6-2.78-6.69-4.65l-4.98,5.05c1.79,.56,3.23,2.54,3.05,4.45l5.13-3.61c-.98-1.53-1.39-3.22-1.35-5.03,.03-1.27-2.22-.21-2.58,0-1.18,.71-2.38,1.83-2.76,3.2-1.42,5.15-2.9,10.29-4.18,15.47l5.29-2.99c-.21-6.91-.31-13.83-1.04-20.7l-3.37,2.45c.6,.57,1.12,1.17,1.64,1.81,.74,.91,3.82-1.59,3.07-2.52h0Z"/><path class="cls-3" d="M417.94,449.18c-.38,1.61-1,3.09-1.27,4.74s-.27,3.22-.58,4.8c-.12,.6,.29,1.1,.92,.98,2.45-.46,4.52-2.53,6.28-4.17,1.66-1.56,3.22-3.23,4.7-4.95,1.34-1.57,2.64-3.17,3.96-4.76,.7-.85,1.41-1.69,2.14-2.52,.36-.41,.73-.82,1.1-1.23,.19-.2,.37-.4,.56-.6-.38,.39-.44,.46-.18,.2,.74-.71,1.45-1.44,2.21-2.13,.4-.36,.81-.75,1.25-1.08-1.06,.79,.38-.28,.57-.42,.77-.57,1.56-1.1,2.35-1.64,.47-.3,.46-.3-.03,0,.23-.14,.47-.28,.7-.42,.47-.27,.94-.54,1.42-.79,.96-.51,1.94-.99,2.94-1.42-.79,.34,.29-.11,.46-.18,.5-.2,1.01-.38,1.53-.56,2.44-.85,4.9-1.66,7.15-2.97,1.09-.63,5.44-4.25,2.97-5.45-1.9-.92-4.61-.04-6.44,.62-2.31,.83-4.58,1.82-6.75,2.98-4.4,2.35-8.53,5.33-12.07,8.85-3.3,3.29-6.05,7.01-8.87,10.69-1.3,1.7-2.63,3.41-4.04,5.02-.09,.1-1.09,1.19-.64,.72-.37,.39-.76,.77-1.14,1.15-.94,.94-1.9,1.84-2.61,2.97l4.21-1.91c-.56-1.13-.58-2.58-.62-3.82s-.17-2.78,.11-4c.15-.66-.68-.44-.99-.28-.58,.3-1.15,.91-1.3,1.56h0Z"/><path class="cls-3" d="M401.24,297.54c.34,.44,.4,.95,.62,1.45,.18,.4,.43,.78,.68,1.14,.58,.84,1.2,1.67,1.78,2.51,1.13,1.63,2.29,3.23,3.4,4.87,2.23,3.28,4.34,6.64,6.33,10.07,3.99,6.9,7.53,14.09,10.46,21.51,1.54,3.9,2.61,8.8,6.2,11.34,1.18,.84,4.21-1.98,3.57-3.23-1.76-3.44-2.82-7.22-4.3-10.79s-3.13-7.16-4.9-10.64c-3.54-6.99-7.64-13.68-12.21-20.03-1.31-1.82-2.64-3.65-4.08-5.39-.7-.84-1.41-1.67-2.12-2.5-.34-.39-.67-.77-1.06-1.11-.51-.45-1.22-.71-1.66-1.21-.64-.72-3.28,1.29-2.72,2.02h0Z"/><path class="cls-1" d="M504.64,452.24c9.49,9.42,20.83,17.03,32.18,24.02,5.71,3.51,11.56,6.78,17.38,10.09s11.72,6.43,17.85,9.16c12.51,5.58,25.72,9.73,38.86,13.51,13.11,3.77,26.37,7.02,39.66,10.11,7.5,1.74,15.01,3.43,22.52,5.13,3.91,.88,7.83,1.77,11.74,2.65s7.98,1.95,12.03,2.56c2.45,.36,4.25-1.92,4.9-4.09,.54-1.79,.93-5.46-1.5-6.2-3.46-1.06-7.02-1.74-10.54-2.54s-7.06-1.59-10.59-2.39c-6.82-1.54-13.65-3.07-20.46-4.64-13.29-3.05-26.55-6.22-39.69-9.86-13.07-3.62-26.06-7.68-38.77-12.41-6.34-2.36-12.72-4.62-19.03-7.04s-12.11-5.05-17.96-8.08c-6.5-3.36-12.87-6.97-19.08-10.84-6.14-3.82-12.2-7.79-18.42-11.49-.7-.42-1.58,1.86-1.08,2.35h0Z"/><path class="cls-1" d="M832.32,551.9c-.81-.12-1.72-.16-2.49-.43-.74-.25-1.28-.67-2.07-.83-1.23-.25-3.17,3.36-1.91,3.8,2.1,.75,4.37,1.1,6.54,1.62s4.47,1.04,6.69,1.7c4.34,1.28,8.75,2.34,13.14,3.42,8.92,2.2,17.77,4.64,26.66,6.97,17.89,4.7,35.47,10.52,52.62,17.44,4.68,1.89,9.28,3.93,13.9,5.98,2.2,.98,4.43,1.9,6.66,2.8s4.45,2.13,6.61,3.33c1.3,.72,2.79-1.03,3.32-1.96,.67-1.19,1.28-3.11,.3-4.32-1.41-1.74-3.04-3.06-4.63-4.6s-3.59-2.96-5.57-4.15c-3.79-2.29-8.05-3.88-12.14-5.57-8.58-3.54-17.28-6.81-26.07-9.8-17.67-6.01-35.69-11.1-54.15-13.96-5.21-.81-10.42-1.45-15.68-1.88-2.7-.22-5.41-.31-8.12-.5s-5.49-.49-8.17-.33l-1.3,3.82c.9-.17,1.65-.63,2.53-.85s1.87-.29,2.78-.43c.38-.06,1.15-1.18,.55-1.28h0Z"/><path class="cls-1" d="M354.95,398.84c3.02,2.02,6.54,3.27,9.92,4.59s6.58,2.39,9.91,3.46c6.84,2.19,13.76,3.99,20.74,5.64,13.92,3.28,27.95,6.19,41.67,10.26,25.57,7.59,50.22,18.73,72.87,32.81,6.32,3.93,12.49,8.1,18.5,12.49,6.09,4.46,12.21,8.89,18.21,13.47,.97,.74,2.38-.63,2.85-1.32,.53-.79,1.32-2.62,.43-3.47-5.02-4.78-10.18-9.41-15.76-13.53s-10.93-7.8-16.58-11.42c-11.32-7.23-23.12-13.69-35.32-19.32s-24.87-10.36-37.78-14.24c-13.54-4.06-27.37-6.9-41.19-9.82-7.91-1.67-15.81-3.43-23.66-5.35-3.94-.96-7.83-2.05-11.72-3.19s-7.79-2.7-11.79-3.58c-.81-.18-2.05,1.99-1.28,2.5h0Z"/><path class="cls-1" d="M518.94,445.82c-.41-1.35-1.54-2.49-2.93-2.78-.74-.16-1.68,1.17-1.55,1.84,1.71,8.37,10.84,12.67,17.89,15.78,10.37,4.57,20.74,9.14,31.11,13.7,20.77,9.15,41.61,18.12,62.46,27.07,11.86,5.09,23.75,10.08,35.76,14.82,1.72,.68,3.46-3.49,1.77-4.28-20.27-9.48-40.88-18.16-61.44-26.97s-41.31-17.56-62.01-26.25c-4.76-2-9.7-3.83-14.2-6.4-1.91-1.09-3.76-2.36-5.4-3.83s-2.93-3.36-4.11-5.26l-1.28,2.04c1.28-.21,2.34,.31,2.82,1.53,.22,.56,1.23-.52,1.09-1h0Z"/><path class="cls-1" d="M520.42,454.28c-1.75-.92-3.56-1.78-5.23-2.85-.83-.53-1.67-1.05-2.49-1.59s-1.4-1.44-2.25-1.91c-1.27-.71-3.58,2.46-2.39,3.23,4.16,2.71,8.57,5.09,12.9,7.54s8.57,4.78,12.92,7.05c8.77,4.57,17.66,8.94,26.63,13.1,18.01,8.34,36.41,15.86,55.1,22.52,10.63,3.79,21.43,7.17,32.31,10.16,1.1,.3,1.98-.77,2.45-1.64,.29-.54,1.06-2.63,0-2.95-19.43-6-38.74-12.45-57.67-19.89-18.11-7.12-35.88-15.11-53.25-23.87-4.8-2.42-9.6-4.88-14.37-7.37s-9.71-5.36-14.64-7.86l-2.39,3.23c.92,.4,1.87,.33,2.81,.65s1.89,.7,2.83,1.06c2,.75,3.91,1.7,5.85,2.61,.49,.23,1.32-.95,.88-1.18h0Z"/><path class="cls-1" d="M691.38,525.2c-1.46,.84-2.1,2.4-1.52,4.02,.7,1.96,2.89,2.57,4.77,2.82,2.51,.34,5.12,.19,7.65,.18,2.81,0,5.63,0,8.44,0,1,0,2.63-.28,3.36-1.08,.67-.73,.04-1.19-.7-1.44-6.46-2.18-12.96-4.25-19.44-6.35l-4.28,2.36c7.47,1.55,15,2.78,22.58,3.56,3.81,.39,7.63,.67,11.45,.85s8.12,.5,12.08-.05c.75-.11,2.58-.3,2.93-1.21s-.96-1.18-1.58-1.27c-3.65-.49-7.42-.25-11.1-.39s-7.05-.35-10.57-.67c-7.22-.66-14.42-1.69-21.52-3.19-1.45-.31-3.17-.22-4.49,.53-1.1,.63-.96,1.45,.22,1.83,6.55,2.14,13.09,4.32,19.66,6.39l2.66-2.52c-4.24,.09-8.48,.13-12.72,.29-1.6,.06-3.45,.36-4.8-.72-.89-.71-1.74-2.45-.83-3.47,.81-.91-1.87-.7-2.26-.48h0Z"/><path class="cls-1" d="M740.53,526.51c-13.54,6.45-28.1,9.12-43.05,8.77-.74-.02-2.23,.03-2.71,.74s.44,1.03,1.04,1.08c16.45,1.51,33.5-2.04,48.25-9.39,.84-.42,.81-1.04-.07-1.37-1-.38-2.5-.29-3.46,.17h0Z"/><path class="cls-1" d="M682.24,519.97c.12,1.33,1.1,1.85,2.3,2.15,1.73,.43,3.62,.39,5.39,.48,4.28,.23,8.56,.41,12.84,.6,8.42,.38,16.84,.67,25.26,.96,4.89,.17,9.79,.26,14.69,.37,.7,.02,2.36-.02,2.72-.81s-1.24-.94-1.65-.96c-10.07-.39-20.15-.73-30.22-1.08-4.97-.17-9.95-.33-14.92-.49-2.49-.08-4.98-.17-7.47-.24-1.34-.04-2.68,0-4.02-.08-.72-.04-1.72-.27-1.8-1.13s-3.19-.64-3.11,.23h0Z"/></g><g><path class="cls-4" d="M940.68,602.03c1.77-.95,3.9-1.48,5.82-2.08s3.68-1.07,5.54-1.55c3.78-.98,7.63-1.72,11.5-2.24,7.7-1.03,15.51-1.16,23.25-.47,15.61,1.4,30.94,6.14,44.57,13.88,3.65,2.08,8.73,4.7,9.2,9.42,.22,2.24-1.1,4.33-3.27,4.97-1.57,.46-3.4,.14-4.31-1.33-.07-.11-.11,.3-.06,.39,1.31,2.41,5.16,2.68,6.82,.46,1.8-2.4,1.33-6.04-.23-8.43-2.19-3.36-6.31-5.27-9.74-7.09-3.66-1.94-7.43-3.68-11.28-5.22-15.74-6.27-32.94-8.99-49.84-7.53-4.79,.41-9.54,1.16-14.22,2.26-2.28,.53-4.53,1.16-6.75,1.89-2.34,.76-4.63,1.91-7,2.54-.03,0-.02,.12,0,.11h0Z"/><path class="cls-4" d="M940.84,605.34c3.62,1.01,6.97,2.14,10.24,4.04s6.07,3.97,9.03,6.07c5.92,4.19,12.15,7.82,18.85,10.61,13.38,5.56,28,7.94,42.45,6.79,3.78-.3,7.77-.66,11.41-1.76,2.85-.86,5.96-2.19,6.19-5.52,.01-.18-.13-2.54-.69-2.03-.36,.33-.5,.91-.74,1.33-.38,.66-.85,1.24-1.4,1.76-1.1,1.04-2.62,1.58-4.06,1.98-3.21,.9-6.62,1.32-9.93,1.66-7.09,.75-14.27,.65-21.35-.27-14.14-1.84-27.61-6.82-39.47-14.73-3.26-2.17-6.46-4.45-9.89-6.34-3.19-1.76-6.94-3.54-10.64-3.63,0,0,0,.04,0,.04h0Z"/><path class="cls-4" d="M1039.92,620.57c-.11,3.12-2.82,5.86-5.93,6.03-.03,0-.03,.14,0,.13,3.15-.21,5.84-3,5.94-6.15,0-.02-.01-.04-.01-.01h0Z"/><path class="cls-4" d="M1039.68,626.1c.55-1.02,1.81-1.86,2.79-2.47,1.15-.71,2.42-1.16,3.78-1.17,2.83-.03,5.55,1.78,6.65,4.38,.02,.06,.12,.32,.24,.29,2.73-.57,5.5-.81,8.23-1.41s5.46-1.25,8.17-1.96c5.35-1.4,10.64-2.98,15.96-4.44,10.6-2.91,21.1-6.14,31.47-9.8,5.03-1.78,9.86-3.95,14.28-6.95,.76-.52,.73-2.49,.71-3.25-.02-.92-.06-2.59-.87-3.21-.76-.59-1.53-1.11-2.47-1.39-1.07-.33-1.54,.05-2.23,.82-.41,.46-.32,1.49-.12,2.02,.88,2.32,2.09,4,4.4,5.03l-.16-6.46c-3.45,3.68-8.04,5.66-12.7,7.36-5.06,1.85-10.17,3.58-15.24,5.41s-10.37,3.86-15.57,5.74c-5.18,1.87-10.42,3.52-15.7,5.09-2.94,.88-5.89,1.73-8.85,2.57-3.12,.89-6.22,2.06-9.37,2.81l.24,.29c-1.21-2.75-3.86-4.78-6.95-4.74-1.44,.02-2.94,.51-4.12,1.35-1.43,1.03-2.03,2.45-2.6,4.06,0,0,0,.05,.01,.03h0Z"/><path class="cls-4" d="M1125.35,594.31c2.56-.03,5,.74,7.2,2.04l-.03-.42c-.58,.95-1.18,1.88-1.71,2.85-.03,.05,0,.31,.05,.23,.63-.87,1.18-1.78,1.75-2.68,.05-.08,.07-.36-.03-.42-2.14-1.33-4.73-1.83-7.23-1.63-.01,0,0,.04,0,.04h0Z"/><path class="cls-4" d="M1130.8,598.43c5.12-.5,10.68-1.18,14.95-4.34,3.78-2.8,6-7.02,6.01-11.73l-.51,1.77c1.85,.7,4.07,.5,6.04,.57s4.03,.08,6.03-.06c4.04-.29,8-1.02,11.96-1.8,6.63-1.31,14.23-2.65,18.81-8.14,2.85-3.41,3.76-8.33,2.58-12.58-.09-.34-.35-.87-.75-.93-.68-.11-1.19,.05-1.83,.3-.55,.21-.37,1.57-.21,1.98,.5,1.3,1.01,2.56,1.68,3.78l-.48-4.43c-.13,.8-.12,1.6-.21,2.39,.03-.28,.11-.62-.07,0-.23,.81-.54,1.57-.92,2.32-.86,1.66-2.04,3.09-3.49,4.27-3.31,2.7-7.56,3.76-11.66,4.62-4.52,.95-9.06,1.81-13.61,2.62-2.23,.4-4.47,.8-6.72,1.09-1.12,.14-2.24,.28-3.37,.31-1.31,.04-2.57-.12-3.85,.18-.67,.16-.51,1.82-.48,2.24,.31,4.16-3.4,7.97-6.57,10.1-4.01,2.7-8.74,4.02-13.31,5.42-.01,0,0,.05,0,.04h0Z"/><path class="cls-4" d="M1108.15,540.58l25.98-3.14c8.39-1.01,16.83-2.25,25.29-2.29,13.8-.06,30.5,4.27,36.8,17.97,1.43,3.11,2.22,6.71,1.84,10.14-.2,1.78-.71,3.52-1.5,5.13-.37,.76-.77,1.53-1.36,2.14-.35,.36-.74,.69-1.23,.84-.11,.03-.27,.04-.36,.08-.07,.01-.14,.01-.21,0-.38-.08-.37,.23,.03,.91,.14-.23,.14-1.91-.26-1.66-1,.62-.45,2.64-.03,3.46,.94,1.85,2.43,1.2,3.36-.27,2-3.17,2.85-7.13,2.95-10.84,.21-7.59-2.71-15.12-8.2-20.39-13.2-12.67-33.07-10.15-49.5-7.5-11.19,1.81-22.39,3.58-33.59,5.37-.01,0,0,.05,0,.04h0Z"/><path class="cls-4" d="M1004.76,610.71c-.21-.22-.31-.54-.52-.77s-.5-.43-.79-.57c-.56-.27-1.21-.36-1.82-.35-1.25,.02-2.49,.6-3.03,1.78-1.41,3.07,1.81,6.54,4.93,6.15,4.15-.53,4.51-6,3.54-9.11-.15-.48-.29-1.08-.79-1.28-.36-.15-.74-.25-1.13-.33-.76-.16-1.5,.1-2.17,.47-1.57,.87-2.29,2.75-2.52,4.44-.32,2.37-.17,5.66,1.92,7.26,1.17,.9,2.78,.97,4.12,.48,1.63-.6,2.81-1.74,3.44-3.37,.52-1.35,.59-2.91,.43-4.34-.13-1.21-.44-2.46-1.11-3.5-1.63-2.51-6.2-4.12-8.07-.96-.88,1.5-1.07,3.49-1.02,5.19s.35,3.55,1.17,5.15c.77,1.5,2.28,2.49,3.96,2.56,.78,.03,1.59-.22,2.22-.69,.29-.21,.51-.47,.73-.75,.44-.57-.22,.22,.05-.04,.04-.04,.08-.09,.11-.13,.17-.21,.34-.43,.48-.66,.07-.11,.12-.23,.18-.36,.12-.26,.41-1,.17-.42-.25,.62,.1-.22,.18-.48,.24-.76,.36-1.63,.42-2.42,.15-1.9-.06-3.8-.61-5.63-.3-.97-.77-1.91-1.48-2.65-.52-.53-1.58-1.23-2.23-.64-.98,.89-1.48,2.32-1.78,3.56-.4,1.67-.66,3.58-.05,5.24,.24,.66,.61,1.03,1.33,.84,.63-.16,.43-2.04,.05-2.37-.14-.11-.25-.31-.38-.41-.14-.11,.07,0-.01,.04,.05-.03,.04,1.32,.08,.99l-.27,1.19,.03-.07-.35,.3c.27-.02,.47-.16,.72-.27l-.28,.12c.36-.14,.71-.23,1.06-.39l-.35,.15c.36-.15,.71-.31,1.06-.47l-.38,.16c.07-.03,.14-.06,.21-.08l-.39-.15c.26,.13,.53,.2,.81,.29l-.39-.15c.51,.2,.92,.52,1.27,.93l-.36-.43c.08,.1,.15,.21,.22,.31,.13,.17,.16,.49-.08-.23,.03,.09,.07,.19,.11,.28,.19,.44-.22-1.02-.11-.36l-.13-.78c.21,1.24,.22,1.31,.03,.2,.08,.64-.04-.62-.04-.65,.05,.77,.05-1.08,.01-.5-.04,.51,.15-1,.05-.48-.12,1.03-.14,1.23-.07,.58,.05-.38,.06-.45,.01-.23,.17-.99,.12-.5,.04-.24s-.3,.41,.04-.07c-.05,.08-.23,.48,.05,.03-.25,.39-.73,.69-1.14,.87l.31-.13c-.62,.25-1.27,.31-1.9,.09l.33,.12c-.34-.13-.65-.3-.95-.51-.16-.12-.31-.24-.46-.38-.07-.06-.13-.13-.19-.19-.31-.29,.14,.22,0,.02-.22-.32-.45-.63-.63-.98-.04-.08-.08-.16-.12-.24,.37,.64,.17,.39,.1,.2-.03-.08-.05-.17-.09-.24-.13-.29,.22,.87,.11,.37-.1-.45,.1,.61,.09,.57-.07-.5,.05,.75,.04,.68-.03-.59-.04,.9-.06,1.05-.12,1.05,.11-.35-.09,.52-.14,.58-.06,.24-.01,.11,.1-.25-.33,.62-.09,.24,.09-.15,.17-.3,.26-.45l.07-.11c.1-.14,.09-.14,0,0,.02,.1-.11,.12,.05-.04,.13-.13,.25-.26,.39-.38,.27-.23,.58-.41,.9-.56l-.32,.14c1.11-.48,2.35-.51,3.48-.1l-.29-.11c.31,.12,.6,.27,.88,.46,.12,.08,.23,.17,.34,.26,.05,.05,.1,.1,.15,.14,.14,.14,.15,.21,.03,.02,.08,.13,.16,.28,.25,.4,.15,.19-.17-.39-.08-.16,.07,.17,.12,.45-.05-.22,.05,.19,.03,.41-.05-.34,0,.03-.04-.82-.03-.4,0,.13,.05-.97,.06-.96,0,.06-.02,.11-.03,.17-.03,.17-.01,.08,.07-.28,0-.01-.08,.21-.07,.22-.06-.11,.17-.35,.04-.13-.08,.15-.16,.29-.25,.44-.04,.07-.21,.25-.02,.04-.05,.06-.1,.12-.15,.17-.13,.14-.27,.28-.41,.4-.52,.45-1.11,.78-1.71,.96-1.37,.41-2.64,.25-3.65-.68-.05-.05-.21-.25-.05-.05-.05-.07-.1-.13-.14-.2s-.08-.14-.12-.21c-.19-.3,.07,.1,.04,.11-.01,0-.07-.2-.08-.22,.21,.31,.11,.45,.05,.17-.07-.32,.1,.71,.05,.26l.04,.51c0-.2,0-.16,0,.14v.25c.02-.26,0-.16-.05,.31,.01-.05,.05-.19,.04-.24,0,.03-.16,.56-.05,.22,.03-.08,.05-.16,.07-.23,0,0,.06-.22,.08-.23-.14,.09-.14,.32,0,.05,.1-.2,.18-.4,.29-.6s.22-.38,.35-.56-.1,.13,.03-.04c.09-.1,.17-.21,.25-.32-.05,.07-.05,.07,0,0,.29-.33,.6-.64,.96-.89,.68-.49,1.41-.82,2.26-.77l-.31-.24c.19,.27,.34,.53,.42,.76,0,.02,.08,.26,.05,.15-.04-.14,.06,.26,.05,.22-.06-.31,0,.13,0,.11,0,.18-.05,.53-.12,.83-.1,.4-.26,.78-.47,1.14-.81,1.44-2.29,2.33-3.96,2.12-1.42-.17-3.07-1.15-3.4-2.64s1.13-2.57,2.29-3.03c.64-.25,1.33-.36,2.02-.21s1.56,.64,1.74,1.39c.02,.07,.05-.05,.02-.08h0Z"/><path class="cls-4" d="M1003.17,600.9c-1.67-.08-3.12-.26-4.76,.23-1.45,.44-2.79,1.2-3.94,2.17-2.23,1.89-3.65,4.56-3.89,7.47-.56,6.54,3.99,12.5,9.99,14.68,4.18,1.52,8.65,1.4,12.86,.1,.07-.02,.05-.28,0-.27-7.92,1.92-17.33,.05-21.29-7.78-2.11-4.17-1.92-9.12,1.17-12.76,2.18-2.56,6.42-5,9.87-3.74,.03,.01,.04-.11,0-.11h0Z"/><path class="cls-4" d="M996.92,600.74c1.83-.29,3.9,.02,5.71,.36,2.1,.39,4.15,1.03,6.1,1.91,3.63,1.65,7.32,4.22,7.37,8.63,.08,7.41-7.2,13.42-13.45,15.99-3.52,1.45-7.34,2.06-11.14,1.74-.08,0-.1,.39,0,.4,7.78,1.01,15.75-1.96,20.84-7.97,2.3-2.71,4.02-6.11,4.07-9.72s-1.85-6.46-5.01-8.26c-2.06-1.17-4.33-2.02-6.64-2.55-1.28-.3-2.59-.49-3.9-.59s-2.64,.03-3.96-.05c-.03,0-.02,.12,0,.11h0Z"/><path class="cls-4" d="M944.46,600.51c-3,.23-5.92,.88-8.7,2.03-.12,.05-.1,.39-.01,.45,2.96,2.28,6.46,3.56,9.99,4.66,3.91,1.22,7.78,2.44,11.52,4.13,7.39,3.33,13.63,8.07,19.72,13.34,3.34,2.89,6.76,5.65,10.7,7.69,.06,.03,.08-.22,.02-.26-6.93-3.93-12.28-10.03-18.7-14.68s-13.49-7.95-21.05-10.17c-4.25-1.25-8.58-2.45-12.17-5.16v.45c2.8-1.19,5.67-2,8.68-2.35,.03,0,.03-.14,0-.13h0Z"/><path class="cls-4" d="M977.79,627.26c8.41,7.51,20.96,8.01,31.64,7.44,6.45-.35,12.99-.68,19.29-2.21,3.05-.74,5.97-1.82,8.79-3.19s5.53-3,8.67-3.26c1.82-.15,3.4,.34,5.07,.99,1.42,.55,2.99,1.18,4.54,.86,2.72-.56,5.32-2.94,6.49-5.38,.09-.18,0-1.16-.18-.88-.7,1.09-1.82,2.13-3.07,2.56-1.15,.4-2.49,.28-3.67,.14-2.87-.35-5.34-2.15-8.26-2.21s-5.59,1.24-8.09,2.51c-2.93,1.5-5.74,3.05-8.88,4.1-6.07,2.04-12.45,2.78-18.78,3.48-5.55,.61-11.15,1.27-16.75,1-6.15-.3-12.06-1.92-16.81-5.99,0,0-.01,.03,0,.04h0Z"/><path class="cls-4" d="M933.58,605.37c7.86,0,14.97,2.93,21.65,6.87,3.42,2.02,6.67,4.28,9.93,6.53,1.58,1.09,3.19,2.16,4.79,3.23,1.77,1.19,3.43,2.5,5.13,3.79,6.68,5.04,14.45,8.46,22.69,9.99,8.86,1.64,17.84,1.5,26.72,.06,5.1-.82,10.19-1.94,15.17-3.3,2.46-.67,4.84-1.53,7.19-2.5,.67-.28,1.23-.48,1.76-.99,.59-.56,1.16-1.17,1.75-1.75,.53-.51,.98-1.06,1.55-1.51,.64-.5,1.32-.97,1.97-1.45,.31-.23,.34-2.15-.14-2.1-1.04,.11-2.08,.33-3.1,.11-.49-.11-.98-.13-1.47-.2-.67-.1-1.22-.36-1.89-.2-2.21,.53-4.4,1.48-6.54,2.24-4.42,1.56-8.8,3.13-13.37,4.2-8.8,2.05-17.96,3.05-26.97,2.08-4.35-.47-8.69-1.48-12.82-2.93-3.72-1.31-7.19-3.16-10.78-4.75-1.7-.75-3.46-1.48-5.08-2.39-1.7-.96-3.33-2.08-4.98-3.13-3.19-2.02-6.46-3.93-9.8-5.7-7.18-3.8-15.14-6.65-23.38-6.26-.01,0-.01,.04,0,.04h0Z"/><path class="cls-4" d="M967.03,590.48c12.51-2.47,25.31-3.25,38.03-2.34,0,0,.01-.04,0-.04-12.72-.92-25.51-.13-38.03,2.34-.01,0,0,.05,0,.04h0Z"/><path class="cls-4" d="M982.91,579.01c2.16-.84,4.61-1.22,6.88-1.7s4.6-.93,6.91-1.31c4.69-.78,9.41-1.35,14.15-1.72,9.35-.74,18.73-.7,28.08-.15,19.09,1.14,37.97,4.56,56.61,8.76,10.54,2.38,21.02,5.03,31.51,7.64,.02,0,.03-.12,0-.13-18.55-4.84-37.22-9.42-56.12-12.66s-37.64-5.01-56.58-3.82c-5.29,.33-10.56,.9-15.79,1.73-2.55,.4-5.09,.87-7.61,1.4-2.66,.56-5.34,1.48-8.03,1.86-.03,0-.01,.12,0,.11h0Z"/><path class="cls-4" d="M796.09,557.98c5.72-.45,11.47-.07,17.17,.49s11.44,1.6,17.1,2.76c11,2.26,21.94,4.85,32.81,7.66,11.08,2.87,21.99,6.1,32.8,9.86,5.36,1.87,10.64,3.94,15.98,5.86s10.71,3.86,16.04,5.85c5.74,2.15,11.47,4.41,17.38,6.07,2.81,.79,6.04,1.94,8.99,1.66s6.1-.65,9.13-1.04c.22-.03,.2-1.03-.03-1.07-2.92-.45-5.59-1.23-8.31-2.38-2.57-1.08-5.23-1.64-7.91-2.39-5.31-1.48-10.51-3.34-15.68-5.24-10.42-3.84-20.85-7.44-31.58-10.32-21.76-5.85-43.49-11.74-65.64-15.96-6.28-1.19-12.58-2.31-18.95-2.91s-12.89-.39-19.31,.79c-.07,.01-.06,.32,0,.31h0Z"/><path class="cls-4" d="M956.02,596.92c-8.91,1.77-17.59,5-25.77,8.92-.24,.11-.21,1.27,.09,1.31,3.78,.53,7.57,1.44,11.26,2.4s7.51,2.09,11.17,3.42,7.25,2.98,10.86,4.52,6.9,3.19,10.2,5.06c.12,.07,.18-.59,.04-.69-3.33-2.33-6.77-4.49-10.33-6.45-3.3-1.82-6.88-3.2-10.41-4.48s-7.37-2.45-11.16-3.3-7.74-1.35-11.67-1.82l.09,1.31c8.26-4.15,16.85-7.32,25.63-10.16,.01,0,0-.05,0-.04h0Z"/><path class="cls-4" d="M699.34,538.23c-1.02,1.84-2.02,3.59-2.69,5.6s-1.12,4.04-1.51,6.11c-.85,4.59-1.34,9.29-2.92,13.72-3.28,9.22-11.72,15.51-19.09,21.39-15.45,12.32-32.35,22.82-50.23,31.22-5.09,2.39-10.27,4.62-15.51,6.67-2.63,1.03-5.28,2.01-7.94,2.95s-5.21,1.6-7.64,2.8c-.1,.05-.08,.5,.04,.48,2.41-.35,4.72-1.28,7.01-2.08s4.77-1.7,7.14-2.61c4.54-1.74,9.04-3.61,13.47-5.6,9.04-4.07,17.84-8.67,26.34-13.77s16.7-10.69,24.54-16.76c3.85-2.98,7.65-6.04,11.25-9.31s6.7-6.57,8.97-10.67c2.44-4.4,3.31-9.32,4.06-14.23,.4-2.64,.79-5.28,1.42-7.88s1.56-5.73,3.3-7.93c.02-.03,0-.13-.02-.1h0Z"/><path class="cls-4" d="M586.87,632.88c2.26-.26,4.64-.05,6.91-.05,2.39,0,4.77-.03,7.16-.07,4.11-.08,8.22-.24,12.32-.5,8.02-.49,16.01-1.33,23.96-2.49,15.94-2.34,31.74-5.93,47.08-10.86,15.18-4.88,30.02-10.94,44.23-18.18,14.38-7.33,28.09-15.87,41.18-25.32,6.35-4.58,12.35-10.02,19.41-13.48,3.51-1.72,7.25-3.1,11.03-4.09,2.65-.69,7.01-.86,8.7-3.41,.91-1.36,1.09-3.42,.94-5.01,0-.07-.22-1.06-.46-.75-.27,.34-.51,.23-.88,.35-.6,.19-1.08,.75-1.63,1.05-1.35,.73-2.87,1.12-4.36,1.46-3.76,.87-7.25,2.19-10.55,4.21s-6.64,4.6-9.86,7-6.28,4.89-9.42,7.33c-12.56,9.75-26.02,18.32-40.04,25.82-14.17,7.58-28.91,14.09-44.08,19.38-15.02,5.24-30.4,9.41-46.04,12.31s-32.34,4.59-48.67,5.07c-2.27,.07-4.65,.33-6.91,.12-.03,0-.03,.12,0,.11h0Z"/><path class="cls-4" d="M704.04,536.25c2.03,.35,3.98,.95,6.05,1.14,1.95,.18,3.92,.18,5.88,.04,4.08-.28,8.1-1.15,12.06-2.18,8.21-2.15,16.18-4.92,24.6-6.2,4.31-.65,8.65-1.09,12.98-1.49,4.1-.38,8.21-.7,12.33-.65,7.7,.09,15.86,1.47,22.05,6.36,2.99,2.36,5.49,5.36,7.1,8.82,.78,1.69,1.29,3.57,1.42,5.43,.05,.73,.03,1.47-.07,2.2-.02,.14-.1,.36-.08,.5,.04,.3,.04,.02,.14-.07-.4,.39-.6,.66-.77,1.29l.42-.78c-.34,.24-.76,.24-1.13,.43-.69,.35-.42,.19-.46,.99,0-.18-.14-1.64-.5-1.07-.77,1.23-.07,3.27,.55,4.43,.39,.72,.92,1.44,1.83,1.12,1.17-.41,1.13-2.44,1.14-3.41,0-.23,.17-1.21,0-.23,.03-.17,.06-.35,.08-.53,.07-.52,.13-1.04,.17-1.56,.08-1.05,.06-2.1-.03-3.15-.14-1.8-.51-3.59-1.16-5.27-2.78-7.21-8.67-12.63-15.94-15.13-8.91-3.06-18.6-2.18-27.79-1.13-5.06,.58-10.13,1.2-15.14,2.18s-9.44,2.34-14.08,3.81c-5.14,1.63-10.27,3.34-15.58,4.34-2.59,.49-5.22,.8-7.86,.8s-5.73-.12-8.22-1.13c-.03-.01-.04,.11,0,.11h0Z"/><path class="cls-4" d="M880.29,547.43c1.69-.14,3.45,.09,5.14,.19,1.87,.1,3.74,.23,5.61,.36,3.58,.26,7.16,.59,10.73,.98,7.14,.77,14.25,1.73,21.32,2.95,14.14,2.43,28.13,5.82,41.81,10.13,7.73,2.44,15.37,5.18,22.9,8.16,.02,0,.04-.16,0-.18-26.51-10.81-54.78-17.97-83.25-21-4.03-.43-8.07-.78-12.11-1.06-2.02-.14-4.05-.25-6.07-.35s-4.1,0-6.08-.29c-.02,0-.02,.12,0,.11h0Z"/><path class="cls-4" d="M1044.68,541.41c-2.12,1.12-4.51,1.87-6.72,2.77-2.09,.86-4.18,1.72-6.26,2.59-4.09,1.72-8.17,3.46-12.23,5.25-8.14,3.57-16.19,7.31-24.19,11.18-4.58,2.22-9.14,4.48-13.68,6.79-.02,0,0,.1,0,.09,16.08-8.09,32.42-15.67,48.97-22.74,2.3-.99,4.61-1.96,6.92-2.92s4.73-2.21,7.18-2.89c.03,0,.01-.12,0-.11h0Z"/><path class="cls-4" d="M828.66,498.85c.38,.28,.6-.23,.55-.57-.12-.82-1.01-.48-1.42-.05-.59,.63-.96,1.57-1.37,2.32-.49,.91-.95,1.83-1.41,2.76-.81,1.64-1.56,3.32-2.25,5.02-3.06,7.54-4.58,15.47-4.82,23.61-.15,4.91-.23,10.22,.96,15.02,.25,1.03,1.35,2.39,1.83,.58s.62-3.56,1.17-5.27c.48-1.5,.97-3.01,1.47-4.51,.07-.2-.1-1.37-.31-.97-.6,1.14-1.18,2.3-1.81,3.42-.54,.97-1.43,1.55-2.04,2.49l1.81,2.64c-.24-4.1-.88-8.1-.87-12.22,0-3.78,.33-7.59,.92-11.33,.65-4.1,1.44-8.25,2.62-12.24,.61-2.07,1.29-4.13,2.08-6.14,.44-1.11,.9-2.21,1.39-3.3,.17-.38,.32-.79,.54-1.15,.15-.3,.36-.55,.62-.76,.67-.37,.79-.16,.34,.62,0,0-.01,.04,0,.04h0Z"/><path class="cls-4" d="M834.78,504.56c.5-1-1.32-.34-1.64,.03-.53,.61-.85,1.86-1.19,2.63-.37,.81-.72,1.63-1.11,2.43-.77,1.57-1.58,3.14-2.19,4.78-1.39,3.69-2.36,7.63-3.18,11.48s-1.38,8.05-1.49,12.14c-.13,4.79,.16,9.8,1.5,14.43,.17,.57,.52,1.8,1.33,1.57s.98-1.81,1.01-2.43c.14-2.84,.74-5.59,1.28-8.38,.05-.28-.19-1.79-.51-.99-.79,1.92-1.39,4.04-2.76,5.63l1.8,1.16c-.79-3.53-1.29-7-1.2-10.64s.65-7.59,1.42-11.31c.82-3.96,2.03-7.82,2.9-11.76,.5-2.26,1.02-4.52,1.64-6.75,.27-.99,.52-1.98,.82-2.97,.14-.47,.24-.94,.67-1.24-.04,.03,1.4-.4,.91,.1-.03,.03,0,.13,.02,.1h0Z"/><path class="cls-4" d="M840.96,509.94c-1.99-1.58-4.62,5.76-5.03,7-1.19,3.6-1.78,7.42-2.16,11.18-.76,7.49-.41,15.05,.04,22.55,.07,1.15,.15,3,1.1,3.82,.82,.71,1.47-.05,1.77-.91,.69-1.94,.75-4,.99-6.03,.21-1.78,.71-3.51,1.18-5.23,.1-.37-.21-2.06-.62-1.15-.54,1.2-1.03,2.52-1.91,3.52s-1.66,1.67-2.12,3l2.87,2.91c-.26-3.68-.51-7.37-.61-11.06-.05-1.85-.07-3.7-.02-5.55-.02,.64,.04-.9,.05-1.04,.02-.42,.04-.85,.07-1.27,.06-.91,.13-1.83,.23-2.74,.31-3.01,1.07-6.79,1.96-10.09,.53-1.96,1.29-3.89,1.76-5.86,.07-.28,.79-2.76,.43-3.04h0Z"/><path class="cls-4" d="M850.42,516.55c0-.54-.09-1.13,.01-1.66,.13-.69,.26-2.65-.68-2.9l-.15-.04c-.2,.04-.34,.15-.43,.34-1.88,2.77-2.5,6.73-3.06,9.97-.65,3.77-1.06,7.59-1.17,11.42-.12,4.27,.03,8.52,.52,12.77,.2,1.75,.46,3.5,.79,5.23,.39,2.07,.56,4.95,2.13,6.48,1.28,1.24,1.87-3.01,1.88-3.35,.02-.87-.07-4.48-1.65-4.47h-.1l.84,1.53c-.04,.42,0,.31,.11-.34,.09-.28,.19-.55,.32-.82,.09-.22,.06-2.02-.41-1.63s-.74,1.08-1.17,1.4l2.05,4.84c.1-2.45-.52-4.65-.99-7.02-.22-1.09-.55-3.16-.73-4.64-.41-3.26-.55-6.06-.48-9.66,0-.29,0-.31,0-.05l.02-.46c.02-.46,.04-.92,.06-1.38,.05-.84,.11-1.69,.18-2.53,.15-1.68,.34-3.14,.59-4.79s.61-3.44,.91-5.16c.35-2.05,.85-4.15,.65-6.23l-.61,2.47c.2-.01,.46,.56,.56,.7,0,.01,.01-.02,.01-.02h0Z"/><path class="cls-4" d="M474.37,442.4c.35,5.65,3.94,10.4,6.93,14.98,1.66,2.54,3.26,5.16,4.28,8.03,1.28,3.63,1.6,7.54,1.19,11.36-1.56,14.56-12.85,26.17-21.67,36.98-4.61,5.65-8.98,12.07-16.21,14.45-.11,.04-.11,.44,.01,.45,6.4,.12,10.84-6.39,14.42-10.81,4.87-6,9.94-11.9,14.42-18.21,4.08-5.76,7.48-12.02,8.87-19,1.26-6.35,.88-12.96-2.08-18.8-3.33-6.58-8.84-11.93-10.12-19.46-.01-.06-.04-.03-.04,.02h0Z"/><path class="cls-4" d="M451.47,528.8c1.86-.97,3.99-1.37,5.91-2.2s3.75-1.7,5.61-2.57c3.81-1.78,7.55-3.72,11.26-5.69,7.5-3.98,14.88-8.2,22.07-12.73,7.05-4.45,13.91-9.16,20.69-14.02,6.34-4.54,13.09-9.1,20.83-10.76,3.73-.8,7.63-.93,11.38-.18,1.83,.37,3.54,1.02,5.28,1.65s3.38,1.36,4.88,2.62c.13,.11,.18-.67,.05-.82-2.27-2.68-4.94-4.92-8.35-5.92s-6.8-1.18-10.21-.82c-7.66,.81-14.57,4.7-20.83,8.95-6.99,4.75-13.7,9.88-20.75,14.54s-14.57,9.35-22.07,13.66c-4.15,2.39-8.37,4.67-12.59,6.93-2.19,1.17-4.38,2.36-6.58,3.51s-4.28,2.8-6.6,3.74c-.03,.01-.01,.12,.01,.11h0Z"/><path class="cls-4" d="M552.77,480.53c-.85,.2-.96,.76-.77,1.57,.47,1.93,2.44,2.77,4,3.69,4.54,2.66,9.23,5.06,14.06,7.14,10.05,4.32,20.43,7.87,30.72,11.59,10.91,3.94,21.83,7.83,32.75,11.73s21.02,8.32,31.68,12.04c5.84,2.03,11.74,3.82,17.75,5.28,2.91,.71,5.83,1.35,8.78,1.89,1.55,.29,3.1,.56,4.66,.8,.78,.12,1.57,.2,2.34,.34s1.57,.53,2.35,.44c1.14-.12,.69-4.01,.57-4.65-.04-.2-.08-.41-.11-.61,.1,.63,0-.18-.01-.43-.03-.71-.07-1.42-.1-2.13-.02-.46-.35-1.63-.49-.52-.08,.6-.15,1.2-.23,1.79-.01,.1-.04,.71-.05,.51-.01-.19-.08,.22-.11,.3l.39-.43c-.66-.21-1.2-.03-1.88-.05-.62-.02-1.26-.15-1.87-.22-1.32-.17-2.65-.36-3.97-.57-2.48-.39-4.95-.88-7.41-1.41-5.01-1.08-9.92-2.47-14.85-3.84-9.9-2.74-19.72-5.76-29.5-8.88-10.27-3.27-20.41-6.91-30.61-10.37s-19.91-6.65-29.79-10.17c-5.23-1.86-10.38-3.9-15.51-6.03-2.73-1.14-5.43-2.35-8.07-3.67-1.23-.61-2.47-1.21-3.66-1.9-.65-.38-3.02-2.94-1.05-3.11,.03,0,.02-.12,0-.11h0Z"/><path class="cls-4" d="M388.32,416.14c-.16-.84,.08-2.82,1.22-2.02,.42,.29,.76,.8,1.12,1.16,.8,.83,1.61,1.65,2.42,2.46,1.52,1.52,3.06,3.01,4.63,4.48,3.19,2.99,6.48,5.87,9.85,8.65s6.96,5.52,10.58,8.1c.74,.52,1.51,1.02,2.21,1.6,.35,.29,.9,.73,1.07,1.17,.37,.94-.05,1.77-.44,2.6-.89,1.88-1.99,3.67-3.25,5.32-1.17,1.53-2.48,2.96-3.92,4.25-1.27,1.15-2.61,2.25-3.44,3.79-.67,1.25-.91,2.76-.56,4.15,.42,1.67,1.81,2.25,3.37,2.61,7.68,1.8,15.01-3.9,19.91-9.14,2.78-2.98,5.37-6.14,8.38-8.9,1.46-1.34,3.02-2.58,4.72-3.61,1.8-1.09,3.76-1.76,5.52-2.91,.25-.16,.25-1.43-.1-1.49-3.21-.51-6.53,2.07-8.88,4-2.75,2.26-5.14,4.94-7.51,7.59-4.94,5.5-11.06,11.87-19,12.08-1.6,.04-4.34-.05-5.47-1.37-.05-.06-.23-.27-.18-.04-.03-.14,.25-.61,.3-.7,.19-.37,.44-.73,.69-1.06,.56-.72,1.23-1.35,1.91-1.95,2.86-2.5,5.27-5.48,7.1-8.81,1.49-2.71,2.92-6.57,.17-9-1.48-1.3-3.31-2.28-4.92-3.4-1.73-1.2-3.44-2.42-5.13-3.66-7.67-5.64-14.88-11.88-21.61-18.61,0,0,0,0-.01,0-.72,.78-.97,1.67-.76,2.69,0,.03,.01-.01,.01-.02h0Z"/><path class="cls-4" d="M446.16,438.81l6.33,.02s.02-.09,0-.09l-6.33,.02s0,.04,0,.04h0Z"/><path class="cls-4" d="M355.73,406.69c20.6,.29,41.02,3.5,60.81,9.14,20,5.7,39.41,12.93,58.55,21.05,5.29,2.24,10.56,4.53,15.83,6.84,2.48,1.08,4.95,2.32,7.59,2.97s4.79,.05,6.76-1.66c.11-.09,.07-.83-.05-.79-2.06,.69-4.33,.2-6.39-.26-2.26-.52-4.38-1.49-6.49-2.41-4.69-2.06-9.38-4.09-14.09-6.09-9.53-4.03-19.11-7.91-28.82-11.49-19.27-7.1-38.96-12.84-59.3-15.88-11.42-1.7-22.88-2.49-34.41-1.95-.11,0-.1,.53,.01,.53h0Z"/><path class="cls-4" d="M357.54,404.32c-4.06-3.87-9,2.3-11.22,5.37-3.11,4.31-5.24,9.23-6.73,14.32-3.25,11.15-3.5,22.79-5.11,34.21-.48,3.42-1.08,6.84-1.95,10.18-.41,1.57-.87,3.13-1.4,4.67-.58,1.7-1.39,3.32-1.96,5.02l.76-.02c-.15-.49-.26-.97-.34-1.48-.08-.56-.32-.27-.33,.14-.01,.59-.08,1.11-.17,1.68-.04,.28,.15,3.1,.79,2.1,.75-1.16,1.2-2.61,1.67-3.9,.51-1.4,.97-2.81,1.38-4.25,.8-2.83,1.42-5.72,1.91-8.62,.97-5.77,1.46-11.6,2.01-17.42,1.03-10.85,2.45-22.02,7.7-31.75,1.44-2.66,3.15-5.26,5.23-7.47,1.74-1.85,5.13-4.23,7.74-2.75,0,0,0-.04,0-.04h0Z"/><path class="cls-4" d="M299.99,234.32c.07,16.81,1.35,33.61,3.5,50.28,2.18,16.88,5.62,33.54,9.98,49.98,4.32,16.25,9.95,32.15,13.18,48.68s4.32,32.01,4.01,48.38c-.08,4.19-.26,7.53-.52,11.73s-.64,8.25-1.09,12.37-.86,8.28-1.48,12.41-1.34,8.24-1.93,12.37c-.32,2.2-.47,4.38-.97,6.55-.13,.56,.45,1.77,.76,.77,.57-1.88,1.39-3.61,2.03-5.46s1.2-3.75,1.73-5.64c1.1-3.98,1.85-8.09,2.59-12.15,1.52-8.27,2.51-16.57,2.89-24.98,.75-16.9-.26-33.83-3.3-50.47-3.04-16.66-7.91-32.75-12.95-48.89-1.24-3.98-2.61-7.92-3.79-11.92s-2.24-8.04-3.35-12.07c-2.28-8.28-4.17-16.65-5.7-25.1-3.03-16.71-4.88-33.51-5.42-50.49-.07-2.11-.11-4.22-.15-6.33,0-.03-.02-.03-.02,0h0Z"/><path class="cls-4" d="M302.07,234.75c-1.34,3.43-.06,6.89,.81,10.3,1.19,4.69,2.42,9.37,3.65,14.05,2.41,9.17,4.83,18.34,7.3,27.5,4.39,16.3,8.92,32.7,15.67,48.2,1.89,4.34,3.96,8.61,6.22,12.77,1.12,2.05,2.28,4.08,3.51,6.07,.65,1.05,1.32,2.1,2.02,3.12,.66,.96,1.29,2.33,2.19,3.06,.85,.69,1.51,.14,1.86-.78,.41-1.09,.43-2.71-.21-3.72-.5-.81-.59-1.95-.74-2.88-.18-1.15-.36-2.3-.54-3.46s-1.08-.68-1.03,.3c.05,1.19,.1,2.38,.16,3.57,.05,.99,.17,2.14-.11,3.09l2.27-.63c-.44-.88-1.14-1.56-1.72-2.34-.63-.84-1.25-1.69-1.88-2.54-1.14-1.56-2.24-3.14-3.3-4.76-2.11-3.22-4.04-6.55-5.83-9.96-3.66-7-6.77-14.28-9.45-21.7-5.65-15.64-9.74-31.82-14.1-47.86-1.35-4.95-2.69-9.91-4.03-14.87-.67-2.47-1.35-4.94-2.02-7.4-.75-2.74-2.18-6.35-.66-9.05,.02-.03-.01-.14-.03-.09h0Z"/><path class="cls-4" d="M348.93,355.03c-2.77-.91-5.48-1.98-8.22-2.97l.03,1.16c56.42,1.45,112.12-8.29,168.04-14.26,54.99-5.87,109.87-6.1,164.74,1.23,53.44,7.14,105.67,19.93,156.04,39.26,49.85,19.13,97.4,43.76,143.3,70.93,44.82,26.53,88.08,55.66,131.14,84.93,2.67,1.82,5.31,3.95,8.13,5.53,2.24,1.26,4.78,2.15,7.12,3.19,.24,.11,.35-2.07,.02-2.37-2.62-2.4-5.16-5.02-8.05-7.08-2.66-1.9-5.43-3.67-8.14-5.49-5.43-3.66-10.87-7.32-16.31-10.97-10.89-7.31-21.81-14.58-32.78-21.79-21.92-14.4-44.03-28.51-66.5-42.03-43.82-26.36-88.82-50.8-136.01-70.63-49.7-20.88-101.61-36.15-154.84-44.78-54.5-8.84-110.27-9.95-165.22-5.11-28.32,2.49-56.5,6.38-84.71,9.88-28.22,3.5-56.39,5.88-84.75,7.74-7.08,.47-14.17,.59-21.26,.64-.27,0-.25,1.1,.03,1.16,2.73,.64,5.49,1.19,8.2,1.92,.02,0,.03-.1,0-.11h0Z"/><path class="cls-4" d="M1106.17,540.26c12.58,11.87,25.15,23.75,37.82,35.53,.01,.01,.05-.18,0-.22-12.55-11.85-25.19-23.6-37.82-35.36,0,0-.01,.03,0,.04h0Z"/><path class="cls-4" d="M1113.87,540.74c-1.98-1.12-3.79-2.64-5.64-3.96-.39-.28-.89-.57-.23-.09,.39,.29,.89,.49,1.31,.73,.93,.53,1.85,1.07,2.77,1.62,3.48,2.1,6.87,4.37,10.14,6.8,6.57,4.87,12.74,10.21,18.32,16.18,.82,.88,1.64,1.77,2.43,2.68,.52,.59,1.18,1.96,2.02,1.68,1.19-.4,1.6-1.8,1.47-2.92-.03-.31-.11-.04-.1,.12,.04,.62-.29,1.1-.75,1.46-.71,.55-1.01,.41-1.63-.16-.71-.65-1.32-1.5-1.97-2.22-1.42-1.57-2.89-3.1-4.39-4.6-2.96-2.94-6.06-5.74-9.3-8.37-6.51-5.3-13.6-9.78-21.06-13.61-.03-.02-.05,.17,0,.19,2.19,1.5,4.58,2.88,6.62,4.57,0,0,.03-.09,0-.11h0Z"/><path class="cls-4" d="M1105.39,538.66c-.11,.38-.53,.29-.68,.03l.25-.97,.34-.02c.78-.08,1.7,1.07,2.18,1.56,1.27,1.29,2.53,2.58,3.79,3.87,2.44,2.51,4.93,4.98,7.4,7.46s4.93,4.82,7.41,7.22,4.94,5.03,7.62,7.29v-2.47c-.52-.21-.37-.12-.21-.4,.21-.37,.49-.59,.91-.71,.14-.04,.12-.78-.02-.8-2.11-.27-1.78,3.52-.67,4.39,.19,.15,.48-2.02,.09-2.43-3.06-3.21-6.51-6.1-9.77-9.11s-6.63-6.03-9.98-9.01c-1.62-1.44-3.27-2.85-4.91-4.28-.86-.75-2.96-3.39-4.34-2.65-1.05,.56,.42,1.83,.61,1.07,0,0,0-.05,0-.03h0Z"/><path class="cls-4" d="M396.3,348.59c-1.81-.4-3.61-.77-5.37-1.34l.04,.5c6.15-3.74,9.09-10.84,10.46-17.62,1.62-8.06,1.18-16.41,.48-24.55-.5-5.81-1.26-11.61-2.27-17.35l-1.01,2.3c10.37,13.04,19.27,27.22,26.43,42.26,.99,2.08,1.96,4.16,2.9,6.26,.45,1.01,.9,2.03,1.33,3.05,.37,.87,.73,2.52,1.58,3.01,.43,.25,.71-.27,.82-.6,.42-1.33,1-2.43,1.72-3.61,.2-.32,0-2.13-.33-1.78-.6,.63-1.19,1.38-2.1,1.53l.87,1.65c-.25-2.13-1.39-4.19-2.23-6.15s-1.67-3.81-2.57-5.68c-1.81-3.79-3.75-7.53-5.78-11.2-4.03-7.28-8.5-14.33-13.36-21.09-2.75-3.82-5.64-7.51-8.64-11.13-1.02-1.23-.99,2.39-.92,2.77,1.6,8.78,2.84,17.76,3.08,26.7,.19,7.04-.44,14.36-3.32,20.87-1.66,3.76-4.19,7.11-7.22,9.88-.08,.07-.12,.49,.04,.5,1.81,.16,3.58,.53,5.36,.87,0,0,.01-.04,0-.04h0Z"/><path class="cls-4" d="M645.95,333.87c-1.71,0-3.47-.33-5.16-.52s-3.45-.37-5.16-.58l.04,.48c3.66-2.49,7.4-4.82,10.97-7.45s7.2-5.57,10.55-8.66c6.49-5.97,12.29-12.76,16.23-20.7,2.11-4.25,3.98-8.85,5.06-13.48,.55-2.36,1.29-4.66,1.66-7.06,.44-2.81,.74-5.23,1.02-8.14,.52-5.29,.7-10.61,1.13-15.9s1.01-10.93,1.74-16.37,1.77-11.76,2.91-17.57c1.2-6.11,2.23-12.33,3.88-18.34,.35-1.28,.47-2.57,.29-3.9-.12-.88-.33-2.2-1.12-2.76-1.55-1.11-2.98-2.68-3.73-4.24-.61-1.27-.66-1.61-1.05-2.87-.02-.08-.17-.56-.03-.1-.06-.2-.11-.41-.17-.61-.15-.56-.27-1.12-.39-1.69l-.03-.15c.07,.38,.03,.17-.11-.62,.03,.29,.01-.27,.01-.26,.03,.37-.02-.36-.02-.43-.02-.3-.03-.59-.04-.89-.04-1.18-.04-2.37-.03-3.55,.02-2.47,.16-4.94,.23-7.41,.35-12.29-.61-24.55-2.95-36.62-1.29-6.66-2.83-13.45-5.15-19.83l-.53,4.05c2.51-.04,4.94,.4,7.28,1.3,1.05,.4,2.08,.86,3.12,1.3,1.09,.46,1.97,1.15,2.85,1.95,.28,.25,.38-1.19,.18-1.43-1.7-2.16-3.61-4.29-6.04-5.62-2.3-1.26-4.91-1.98-7.51-2.23-1.11-.11-.83,3.08-.68,3.58,1.78,6.02,3.61,11.96,4.85,18.13s1.99,12,2.48,18.05,.58,12.33,.26,18.49c-.25,4.84-.68,9.59-.4,14.45,.32,5.57,2.01,11.8,7.01,14.98l-1.05-5.85c-1.3,5.27-2.88,10.48-3.98,15.8s-2.06,10.63-2.89,15.98c-1.69,10.93-2.86,21.9-3.46,32.94-.29,5.3-.65,10.6-.92,15.89s-1.09,10.57-2.97,15.48c-3.22,8.37-8.82,15.69-15.1,22-3.59,3.6-7.46,6.92-11.37,10.16s-7.96,6.61-12.05,9.74c-.09,.07-.11,.47,.04,.48,1.72,.1,3.44,.22,5.16,.33s3.48,.09,5.16,.39c.03,0,.03-.11,0-.11h0Z"/><path class="cls-4" d="M681.52,119.76c.67-2.21,3.27-1.35,4.69-.5,1.95,1.16,3.15,2.97,4.43,4.79,3.01,4.26,5.91,8.59,8.71,12.99,5.61,8.83,10.87,17.87,15.63,27.18,9.46,18.5,17.56,37.71,23.76,57.55,2.83,9.05,5.25,18.22,7.55,27.41s4.13,18.4,6.44,27.55c4.46,17.67,9.6,35.42,17.8,51.75,4.07,8.09,8.79,16.06,14.4,23.18,1.42,1.8,2.87,3.57,4.35,5.31s2.99,3.69,5.18,4.37c3.16,.98,4.42-2.36,4.44-4.93,0-.76-.1-1.58-.32-2.31-.12-.41-.32-.74-.48-1.11l-.18-.29c.3,.47,.25,.38-.16-.28-.53-.62-1.23-.61-1.93-.34-1.56,.6-1.64,2.45-1.33,3.87,.05,.25,.4,.95,.77,.66-.01,.01-.17-.1,.02,.01,.11,.07,.09,.15,.15,.23,.06,.11,.11,.22,.16,.34-.08-.21-.1-.23-.05-.05,.14,.42,.25,.84,.45,1.24l-.46-1.6c.06,.41,.05,.26-.03-.45l.18-1.92c.31-1.6,1.17-1.2,.03-1.13-.42,.03-.78-.02-1.17-.18-.94-.39-1.7-1.1-2.4-1.81-1.47-1.5-2.97-2.98-4.35-4.57-2.72-3.14-5.28-6.43-7.66-9.83-4.79-6.85-8.58-14.37-11.96-22-6.96-15.75-11.4-32.35-15.9-48.92-2.24-8.25-4.47-16.49-6.64-24.76-2.28-8.7-4.75-17.35-7.6-25.89-6.14-18.41-13.78-36.35-23.1-53.37-4.6-8.41-9.48-16.68-14.74-24.69-2.66-4.04-5.39-8.04-8.21-11.98-1.98-2.78-4.06-6.58-7.84-7.07-1.31-.17-2.12,.34-2.7,1.48-.02,.03,.01,.14,.03,.09h0Z"/><path class="cls-4" d="M461.64,434.62c1.16,.9,2.45,1.28,3.8,.47,.09-.05,.07-.3,.06-.37-.21-1.25-.42-2.32-1.56-3.04s-2.62-.88-3.95-.83c-1.78,.07-3.34,.71-4.99,1.36-2.13,.84-4.21,1.83-6.28,2.81-8.56,4.07-16.88,9.23-24.08,15.42-.19,.16-.15,1.21,.13,1.07,3.74-1.89,7.35-4.02,11.08-5.91s7.5-3.79,11.24-5.7c1.86-.95,3.74-1.87,5.63-2.77s3.67-1.87,5.56-2.63c1.3-.52,2.69-.93,4.1-.9,.85,.02,2.7,.34,2.92,1.35l.05-.44c-1.07,.85-2.7,1.05-3.72,0,0,0-.04,.09,0,.11h0Z"/><path class="cls-4" d="M451.41,435.13c-1.41,1.18-3.07,2.08-4.59,3.13-1.41,.97-2.76,2.03-4.11,3.08-2.83,2.21-5.64,4.46-8.33,6.83-5.36,4.72-10.09,10.06-14.46,15.72l.39-.15c-1.67-1.52-4.74-2.98-7.01-2.15l.28,3.91c1.54-1.07,2.85-2.66,4.01-4.11s2.24-2.97,3.13-4.63c.1-.19,.02-1.24-.22-.92-.96,1.31-2.06,2.59-3.37,3.56s-2.66,1.5-4.02,2.27c-.75,.42-.55,4.12,.28,3.91,2.51-.64,4.59-1.03,6.71,.83,.15,.13,.31-.04,.39-.15,4.42-5.85,9.31-11.37,14.41-16.64,2.53-2.61,5.14-5.16,7.9-7.53,1.34-1.15,2.72-2.24,4.07-3.36,1.46-1.2,2.89-2.57,4.54-3.5,.03-.02,0-.12-.01-.11h0Z"/><path class="cls-4" d="M358.35,405.54c-9.07,4.04-11.26,15.86-12.83,24.59-1.1,6.11-2.23,12.19-3.82,18.2s-3.58,12.24-5.83,18.2c-1.29,3.41-2.67,6.77-4.15,10.1-.75,1.69-1.53,3.37-2.34,5.04-.76,1.58-1.47,3.29-2.49,4.73l1.25,3.11c.24-1.7,.57-3.68-.78-5.01l.42,1.05c-.12-.75-.21-1.5-.31-2.25-.11-.83-.69-.86-.71,.02-.02,.75-.03,1.51-.07,2.26l.24-.91c-.96,1.49-.7,3.26-.27,4.88,.23,.87,.89,1.66,1.36,.43,1.15-3.01,2.79-5.87,4.11-8.82s2.55-5.9,3.71-8.9c2.31-5.99,4.31-12.11,5.99-18.31s3.06-12.42,4.12-18.73c.84-4.98,1.61-10,3.22-14.8,1.8-5.39,4.68-10.08,9.33-13.46,.27-.2,.2-1.58-.17-1.41h0Z"/><path class="cls-4" d="M343.48,404.17c3.18-.47,6.62-.15,9.83-.14s6.56,.09,9.83,.25c6.54,.32,13.08,.89,19.57,1.72,.05,0,.06-.21,0-.22-6.5-.97-13.01-1.61-19.58-1.88-3.19-.13-6.39-.19-9.58-.18-1.64,0-3.28,.06-4.91,.13s-3.46,.3-5.16,.22c-.03,0-.02,.12,0,.11h0Z"/><path class="cls-4" d="M344.38,387.57c21.36-9.45,45.47-9.5,68.4-10.24,23.24-.75,46.5-.86,69.74-.34,46.7,1.05,93.34,4.64,139.64,10.74,46.52,6.12,92.71,14.76,138.3,25.86s90.18,24.54,134.11,40.41c43.93,15.87,86.98,34.13,128.94,54.64,5.64,2.76,11.26,5.56,16.86,8.4,.02,.01,.04-.15,0-.17-41.44-21.13-84.03-39.96-127.54-56.42s-88.67-30.81-134.1-42.56c-45.42-11.76-91.49-21.06-137.91-27.85s-93.22-11.07-140.1-12.79c-23.44-.86-46.91-1.07-70.36-.63-11.71,.22-23.43,.58-35.13,1.14s-23.22,1.49-34.51,4.22c-5.61,1.35-11.07,3.2-16.35,5.56-.01,0,0,.05,0,.04h0Z"/><path class="cls-4" d="M527.89,444.71c2.39,.43,4.76,1.27,7.1,1.92,2.46,.68,4.93,1.36,7.39,2.04,4.83,1.33,9.67,2.66,14.5,3.99,9.67,2.65,19.35,5.25,29.03,7.83,19.27,5.13,38.56,10.18,57.88,15.14,19.41,4.99,38.84,9.89,58.29,14.71,19.45,4.82,38.93,9.55,58.42,14.2,19.49,4.65,39,9.24,58.54,13.68,2.39,.54,4.79,1.09,7.18,1.63,.01,0,.03-.13,0-.13-19.53-4.5-39.06-9.03-58.56-13.66-19.4-4.61-38.79-9.3-58.15-14.08s-38.89-9.69-58.31-14.66c-19.42-4.97-38.81-10.02-58.18-15.16-19.36-5.14-38.71-10.32-58.04-15.58-2.35-.64-4.82-1.14-7.1-1.99-.01,0-.03,.11,0,.11h0Z"/><path class="cls-4" d="M852.29,548.25c22.11,3.37,44.09,7.54,65.9,12.51,21.8,4.97,43.43,10.71,64.81,17.22,12.07,3.67,24.06,7.59,35.97,11.75,0,0,.02-.08,0-.09-21.1-7.42-42.47-14.07-64.05-19.93-21.57-5.86-43.38-10.87-65.33-15.1-12.39-2.39-24.82-4.52-37.3-6.4,0,0,0,.04,0,.04h0Z"/><path class="cls-4" d="M1043.5,593.38h-4.07s-.02,.11,0,.11h4.07s.03-.11,0-.11h0Z"/><path class="cls-4" d="M1025.57,587.75c.69-1.28-.82-3.19-2.16-2.19-.07,.05-.07,.37,.03,.38,6.71,1.1,13.09,2.83,19.2,5.9s11.24,6.81,15.87,11.42c2.77,2.76,5.01,5.83,7.38,8.93l.07-.92c-.7-.15-1.41-.3-2.11-.44-.1-.02-.1,.4-.01,.44,.7,.33,1.4,.66,2.1,.97,.3,.14,.18-.79,.12-.91-3.33-5.66-8.49-10.6-13.7-14.51-5.31-3.98-11.35-7.01-17.68-8.98-3.62-1.13-7.44-2.03-11.23-2.29l.03,.38c.95-.84,3.17,.5,2.1,1.71-.03,.03,0,.13,.02,.1h0Z"/><path class="cls-4" d="M1019.12,592.88c1.53-.19,2.78-.62,3.67-1.98,.31-.47,.53-1.02,.62-1.58,.04-.24,.02-.48,.05-.72,.08-.53-.15-.38,.37-.32,.93,.11,2.01,.82,2.87,1.21s1.71,.78,2.56,1.18c1.64,.77,3.3,1.48,4.94,2.24,6.47,2.95,13.04,6.48,18.26,11.38,2.97,2.79,5.2,5.92,6.88,9.61,.1,.22,.31,.71,.64,.7,.45-.02,.41,.33,.79-.12s.33-1.32,.29-1.86c-.06-.75-.28-1.72-1.22-1.65-.39,.03-.22,1.1-.03,1.27,.34,.3,.2,.57,.36-.3,.27-1.5,.07,.07,.62-.03,.14-.02-.29-1.45-.38-1.67-.29-.66-.7-1.29-1.09-1.9-.82-1.27-1.68-2.52-2.64-3.69-1.9-2.32-4.09-4.36-6.49-6.14-5.01-3.71-10.72-6.13-16.61-8.1-3.37-1.12-6.86-1.68-10.25-2.69-.08-.02-.05,.26-.05,.28,.42,2.22-1.7,5.16-4.15,4.76-.03,0-.03,.12,0,.11h0Z"/><path class="cls-4" d="M1028.46,602.19c.66,.35,1.21,.82,1.89,1.14,.57,.28,1.14,.57,1.7,.88,1.17,.65,2.3,1.36,3.45,2.04,2.22,1.3,4.35,2.82,6.27,4.54s3.6,3.63,5.04,5.74c.72,1.06,1.39,2.17,1.97,3.31s1.29,2.39,1.38,3.66c.03,.4,.41,2.58,1.23,1.97,1.92-1.42,3.09-3.95,4.58-5.79,1.38-1.7,2.63-3.48,3.78-5.35,.18-.29-.06-1.64-.24-1.42-1.23,1.51-2.56,2.93-4,4.24s-3.32,1.58-4.76,2.81h.51c-.39-.28-.57-1.05-.76-1.46-.25-.54-.5-1.08-.77-1.61-.6-1.16-1.28-2.29-2.02-3.37-1.51-2.17-3.29-4.17-5.28-5.91s-4.15-3.21-6.55-4.29c-1.11-.5-2.24-.83-3.43-1.07-.62-.12-1.25-.22-1.88-.3-.75-.09-1.35,.08-2.09,.13-.03,0-.02,.1,0,.11h0Z"/><path class="cls-4" d="M1126.19,578.31c-1.94,.88-4.39,1.15-6.5,1.32-1.95,.15-3.91,.12-5.86-.1-4.19-.47-8.34-1.74-11.91-4l-.15,2.32c5.56,2.36,10.92,5.45,15.61,9.26,2.3,1.87,4.44,3.94,6.38,6.18,.99,1.15,1.92,2.35,2.8,3.59,.75,1.07,1.29,2.18,2.55,2.69,.53,.22,.43-1.38,.36-1.61-.47-1.7-1.03-3.16-2.05-4.6-.86-1.22-1.79-2.4-2.76-3.53-2.02-2.38-4.28-4.56-6.72-6.51-4.76-3.8-10.17-6.53-16.13-7.83-.44-.1-.52,2.16-.05,2.36,3.82,1.56,7.74,2.63,11.88,2.77,2.09,.07,4.19-.08,6.26-.43,2.18-.38,4.17-1.2,6.29-1.75,.03,0,.02-.12,0-.11h0Z"/><path class="cls-4" d="M1129.56,599.25c1.51-.74,3.19-1.08,4.72-1.78s2.88-1.4,4.3-2.12c2.6-1.31,5.18-2.69,7.69-4.17,4.51-2.66,8.85-5.94,11.11-10.8,.22-.46,.27-1.38-.04-1.82-.78-1.08-1.72-2.04-2.55-3.09-.16-.2-.19,.52-.11,.66,.8,1.41,1.5,2.88,2.35,4.26l-.04-1.82c-2.56,4.7-6.79,7.99-11.3,10.71-2.4,1.45-4.91,2.73-7.34,4.13-1.48,.86-3,1.68-4.43,2.62s-2.84,2.2-4.38,3.11c-.02,.01-.01,.12,.01,.11h0Z"/><path class="cls-4" d="M1132.99,552.91c.13-1.41-2.09-1.23-2.4-.06-.74,2.76,3.22,4.41,4.92,5.63,5.78,4.12,11,9.31,14.64,15.44,2.02,3.41,3.42,7.18,4.38,11.02l1.31-4.26c-.14-.29-.2-.9-.55-1.04,.19,1.23,.31,1.49,.37,.79,.05-.26,.12-.52,.2-.77,.35-1.09,.99-2.03,1.79-2.84,.27-.27,.21-1.96-.2-1.72-3.2,1.92-3.7,6.56-2.92,9.85,.21,.87,.88,2.26,1.53,.83,.62-1.35,.39-3.24,0-4.61-1.96-6.7-5.88-13.02-10.7-18.04-2.44-2.55-5.26-4.76-8.39-6.4-1.47-.76-3.03-1.31-4.51-2.04-.71-.35-1.89-1-1.27-1.87,.34-.48,1.8-.88,1.8,.09,0,.02,.01,.03,.01,0h0Z"/><path class="cls-4" d="M1187.3,554.23c2.44,1.2,2.29,4.95,1.14,6.97s-3.04,3.35-4.89,4.56c-3.92,2.56-8.07,4.8-12.33,6.74-8.7,3.96-17.96,6.72-27.42,8.08-.05,0-.03,.18,0,.18,8.53-1.08,16.92-3.25,24.83-6.61,3.8-1.62,7.5-3.47,11.06-5.56,3.22-1.89,7.32-3.95,8.99-7.48,1.2-2.53,.68-5.16-1.38-6.99-.01-.01-.04,.09,0,.11h0Z"/><path class="cls-4" d="M1156.2,573.35c1.35-.37,2.79-.46,4.16-.77s2.73-.69,4.06-1.14c2.43-.82,4.78-1.86,7.01-3.1,4.8-2.67,9.09-6.27,12.5-10.59,1.37-1.74,3.19-3.87,3.04-6.23-.09-1.49-1.45-3.15-3.09-2.82-2.13,.43-1.56,3.41-1.63,4.91-.15,3.13-1.58,6.07-3.59,8.43-4.63,5.47-11.84,7.54-18.47,9.41-.06,.02-.03,.23,0,.22,5.18-1.37,10.58-2.77,14.98-5.97,3.64-2.65,6.61-6.65,7.11-11.22,.1-.87,.05-1.73,.05-2.6,0-1.73,.97-3.61,2.91-2.7,.5,.23,1.08,.69,1.3,1.19l.06,1.35c.22,.76,.14,1.46-.24,2.12-.12,.26-.26,.52-.4,.77-.72,1.25-1.63,2.42-2.54,3.54-3.11,3.83-6.93,7.09-11.17,9.61-2.48,1.47-5.11,2.69-7.83,3.63-2.51,.86-5.55,1.91-8.22,1.85-.03,0-.02,.12,0,.11h0Z"/><path class="cls-4" d="M703.2,539.28c.65-1.71,2.91-2.45,4.52-1.71,.34,.15,.39-1.27,.09-1.47-3.78-2.58-8.2,1.09-9.56,4.68-2.02,5.29-.13,11.05-1.4,16.44-2.34,9.95-11.64,16.98-19.19,23.03-17.03,13.63-35.73,25.29-55.55,34.41-5.56,2.56-11.21,4.93-16.94,7.1-1.48,.56-2.97,1.11-4.46,1.64-1.31,.47-2.7,1.13-4.08,1.34-.8,.12-1.47,.14-2.26,.35s-1.51,.4-2.26,.6c-1.53,.42-3.04,.89-4.54,1.4l.66,5.35c.83-1.16,1.45-2.48,2.61-3.37,.98-.76,2.45-.83,3.63-.7,.43,.05,.4-1.63-.04-1.78-1.4-.47-2.69-.26-4.12-.33s-2.39,.16-3.25,1.24c-.6,.75-.51,2.39-.4,3.26,.05,.4,.35,2.27,1.05,2.09,2.63-.7,5.36-1.58,7.82-2.74,.71-.33,1.31-.84,2.04-1.15,.53-.22,1.09-.39,1.63-.58,1.36-.49,2.71-.99,4.07-1.5,5.07-1.92,10.08-3.98,15.03-6.2,9.87-4.43,19.5-9.43,28.79-14.98,9.37-5.6,18.37-11.78,26.97-18.51,4.16-3.26,8.3-6.59,12.16-10.19,3.63-3.38,7.07-7.16,9.38-11.59,1.24-2.37,2.13-4.93,2.56-7.57,.51-3.13,.26-6.28,.23-9.43s.55-5.99,2.72-8.34c1.77-1.92,4.05-2.96,6.67-2.47l-.04-1.52c-2.18,.02-3.72,1.12-4.57,3.11-.01,.03,0,.14,.02,.09h0Z"/><path class="cls-4" d="M596.02,629.96c.79-1.2-.59-1.36-1.6-1.54-2.46-.44-1.46,3.17-.31,4.11,1.08,.88,2.67,1.04,4.01,1.04,2.01,0,4.04-.23,6.05-.39,4.32-.33,8.64-.71,12.95-1.16,8.54-.9,17.04-2.49,25.46-4.18,8.5-1.71,16.93-3.73,25.28-6.05,16.58-4.61,32.76-10.54,48.46-17.59s30.92-15.32,45.47-24.6c14.13-9.02,28.11-19.15,44.36-24,2.14-.64,3.82-1.61,5.64-2.88,.38-.27,.37-1.92-.14-2.05-.89-.23-1.81-.57-2.74-.54-1.05,.03-2.08,.24-3.09,.53-1.83,.53-3.64,1.13-5.43,1.79-3.59,1.32-7.1,2.89-10.52,4.6-7,3.51-13.61,7.71-20.16,11.97-13.53,8.8-27.16,17.27-41.59,24.54-14.47,7.3-29.44,13.6-44.77,18.86-15.3,5.24-30.84,9.68-46.7,12.87-7.95,1.6-15.96,2.88-23.98,4.1-4.01,.61-8.04,1.12-12.07,1.56-1.55,.17-3.16,.43-4.71,.11-.64-.13-1.34-.36-1.81-.83-.16-.16-.26-.46-.42-.6-.22-.2,.18-.35-.03-.04-.25,.38,.46-.32,.54-.38,.37-.31,.77-.49,1.25-.44,.51,.05,1.37,.6,.61,1.11-.03,.02,0,.13,.02,.1h0Z"/><path class="cls-4" d="M718.15,540.35c-.53-.53-1.88-2.51-.22-3.04,.29-.09,1.05,.13,1.37,.16,.91,.09,1.81,.14,2.72,.16,1.81,.05,3.61-.03,5.42-.17,3.55-.26,7.06-.83,10.54-1.57,7.1-1.51,14.12-3.51,21.34-4.39s14.42-1.04,21.64-.11,14.15,2.49,20.44,5.58c3.14,1.55,6.18,3.68,7.99,6.75,.75,1.26,1.46,2.79,1.53,4.28,.07,1.31-.71,2.51-1.16,3.7l1.08-.45c-.2-.43-.16-1.22-.14-1.64,.05-.98,.53-2.05,.95-2.91,.15-.31-.06-1.98-.28-1.7-2.31,2.94-2.29,6.47-1.67,10.01,.05,.26,.51,1.79,1.04,1.22,1.04-1.12,1.47-3,1.66-4.47,.25-1.91,.23-3.85-.08-5.75-.5-3.09-1.82-5.97-3.95-8.28-4.8-5.2-12.43-7.31-19.1-8.82-7.58-1.72-15.4-2.33-23.15-1.83s-15.34,2.58-22.83,4.92c-8.45,2.64-16.88,5.18-25.82,4.79-.02,0-.03,.01-.04,.03-.54,1.27-.37,2.66,.72,3.57,0,0,.01-.03,0-.04h0Z"/><path class="cls-4" d="M801.99,534.25c.6,.09,1.55,.43,1.88,.98,.15,.24,.16,.55,.36,.75s.6,.38,.85,.54c.94,.58,1.87,1.1,2.76,1.77,1.78,1.35,3.29,2.9,4.47,4.81,.98,1.59,1.83,3.75,2.03,5.28,.01,.1,.09,.81,.05,.34,.02,.26,.02,.52,.03,.78-.01-.62-.12,1.15-.05,.67-.13,.91-.2,1.3-.77,1.91l1.62,4.41c.04-1.39,.18-2.79-.17-4.16-.18-.7-.4-1.75-1-2.22l.72,1.53c-.1-.42-.09-.34,.01,.24,0-.24-.01-.49-.01-.73,.01-.41,.06-.82,.13-1.23,.18-1.09,.51-2.15,.88-3.18,.12-.34-.07-2.5-.52-1.81-.64,.98-1.11,2.01-1.51,3.1-.17,.47-.33,.93-.46,1.41-.14,.53-.27,1.25-.34,1.56l.48-.88c-.76,.72-.88,2.27-.95,3.27-.12,1.61,.11,3.24,.72,4.74,.47,1.15,1.35,1.37,1.74-.04,1.51-5.45,1.91-11.25-.57-16.64-1.74-3.77-5.55-8.27-10.09-8.23-.11,.02-.18,.09-.22,.2-.38,.74-1.3,.75-2.08,.72-.02,0-.03,.11,0,.11h0Z"/><path class="cls-4" d="M804.43,565.56c-1.41-1.58-2.67-3.22-4.25-4.64-.74-.66-1.53-1.23-2.29-1.86-.95-.78-1.77-1.63-2.78-2.32l-.03,2.1c.69,.08,1.41,.13,2.09,.25,.75,.13,1.39,.48,2.1,.72,1.32,.44,2.81,.42,4.18,.5,2.77,.17,5.54,.29,8.32,.44,5.53,.28,11.04,.75,16.54,1.38,10.85,1.25,21.62,3.09,32.27,5.53,21.71,4.97,42.9,12.03,63.64,20.08,5.8,2.25,11.57,4.59,17.32,6.99,2.87,1.2,5.73,2.41,8.58,3.63,1.43,.61,2.85,1.23,4.27,1.84s2.93,1.49,4.46,1.36l-.49-3.74c-.03,.11-.44,0-.46,.02-.06,.05-.19-.17-.22-.16,.28-.08-.56,1.66,.31,1.34,.37-.13,.32-1.79-.05-1.92-1.92-.65-.43,5.75,1.05,4.37,.7-.65,.56-3.59-.1-4.23-1.96-1.89-4.96-2.74-7.41-3.79s-5.14-2.18-7.71-3.26c-5.16-2.15-10.35-4.26-15.55-6.31-10.42-4.1-20.93-7.96-31.57-11.44-20.94-6.86-42.49-12.33-64.36-15.2-6.09-.8-12.22-1.39-18.35-1.76-3.15-.19-6.3-.36-9.46-.29-1.54,.03-3.1,0-4.62,.3-.81,.16-1.5,.58-2.3,.8s-1.71,.28-2.54,.4c-.5,.07-.38,1.97,.05,2.14,.9,.34,1.92,.57,2.77,1.01s1.58,1.05,2.3,1.6c1.55,1.2,3.15,2.59,4.27,4.21,.02,.02,.03-.08,.01-.1h0Z"/><path class="cls-4" d="M512.75,343.47c-.18-2.62-3.28-3.04-5.14-1.8-1.35,.9-2.32,2.3-3.29,3.57-1.1,1.46-2.16,2.95-3.17,4.47-4.01,6.04-7.28,12.55-9.79,19.35-4.96,13.41-6.9,27.95-5.7,42.2,.68,8.09,2.4,16.08,5.17,23.72,.03,.08,.06-.09,.04-.13-4.65-13.05-6.32-27.05-5.03-40.83s5.36-26.94,12.06-38.83c1.83-3.25,3.86-6.4,6.08-9.4,1.11-1.51,2.26-3.32,3.93-4.26s4.97-.65,4.79,1.94c0,.07,.05,.1,.04,.01h0Z"/><path class="cls-4" d="M527.99,342.39c-1.18,1.2-2.54,2.22-3.71,3.44-1.07,1.1-2.08,2.27-3.03,3.48-2.1,2.69-3.9,5.6-5.46,8.64-3.09,6.03-5.25,12.49-7.02,19.01-3.42,12.52-6.03,25.92-3.96,38.9,1.1,6.93,3.71,13.53,8.17,19,.04,.05,.06-.12,.03-.15-8.39-10.37-9.66-24.09-8.28-36.92,.71-6.6,2.1-13.12,3.79-19.53s3.68-12.68,6.51-18.63c1.5-3.16,3.25-6.2,5.3-9.03,1.13-1.56,2.36-3.05,3.68-4.45,1.2-1.27,2.5-2.71,3.99-3.63,.03-.02,0-.12-.01-.11h0Z"/><path class="cls-4" d="M750.38,376.18c-1.4,1.45-2.98,2.7-4.36,4.18-1.27,1.36-2.46,2.8-3.57,4.29-2.36,3.17-4.39,6.58-6.14,10.12-3.63,7.34-6.13,15.21-8.12,23.13-4.39,17.46-5.91,35.62-4.57,53.57,.75,10.06,2.4,20.04,4.95,29.8,.02,.08,.05-.03,.04-.07-4.49-17.48-6.2-35.61-4.99-53.62,.6-8.88,1.89-17.72,3.87-26.39,1.87-8.17,4.25-16.3,7.71-23.94,1.77-3.92,3.84-7.72,6.31-11.25,1.26-1.8,2.63-3.53,4.1-5.16s2.98-3.38,4.77-4.54c.03-.02,0-.12-.01-.11h0Z"/><path class="cls-4" d="M773.74,378.16c-7.56,3.34-12.06,10.67-15.29,17.94-3.9,8.78-6.9,18.04-9.37,27.31-5.04,18.93-7.44,38.54-7.13,58.12,.17,11.22,1.24,22.42,3.21,33.47,.02,.12,.08,.03,.07-.05-3.37-19.39-4.06-39.21-2.01-58.79,2.04-19.51,6.7-38.81,14.04-57.01,3.34-8.28,7.93-17.12,16.49-20.95,.01,0,0-.05,0-.04h0Z"/><path class="cls-4" d="M1004.18,470.89c-1.75,.17-3.54,.02-5.3,.16s-3.65,.42-5.44,.8c-3.4,.72-6.72,1.81-9.89,3.22-6.61,2.92-12.55,7.16-17.71,12.21s-9.23,10.42-12.97,16.27-7.43,12.55-9.69,19.45-3.13,14.7-.89,21.92c.03,.08,.05-.09,.04-.13-4.36-14.37,3.12-29.27,10.72-41.13,7.27-11.35,16.72-21.69,28.97-27.69,3.44-1.69,7.07-3.01,10.8-3.88,1.79-.42,3.6-.73,5.43-.92s4.04-.47,5.94-.16c.02,0,.03-.12,0-.11h0Z"/><path class="cls-4" d="M992.94,461.79c-.46-2.81-2.59-4.79-5.33-5.47-3.82-.95-7.72,.91-11.08,2.52-6.56,3.14-12.8,6.9-18.67,11.19-11.64,8.52-21.78,19.08-29.83,31.05-4.54,6.75-8.37,13.95-11.46,21.48-.02,.04,.01,.21,.05,.12,5.38-12.93,13.01-24.92,22.39-35.32s20.06-18.83,32.05-25.5c3.64-2.02,7.53-4.31,11.6-5.31,2.1-.52,4.28-.57,6.29,.29s3.84,2.68,3.96,4.97c0,.08,.05,.05,.04-.02h0Z"/><path class="cls-4" d="M335.38,364.2l5.43-2.71s0-.05,0-.04l-5.43,2.71s0,.05,0,.04h0Z"/><path class="cls-4" d="M347.7,366.53c-1.35-.69-2.6-1.65-3.86-2.48-.01,0-.02,.01-.02,.02-3.47,13.07,.33,27.83,9.91,37.44,.05,.05,.07-.12,.03-.15-4.97-5.2-8.47-11.67-10.09-18.68-.85-3.67-1.18-7.47-.97-11.23,.1-1.83,.34-3.66,.71-5.46,.07-.33,.09-.82,.25-1.12-.03-.37,.16-.53,.55-.48l.77,.49c.91,.57,1.86,1.11,2.7,1.77,.02,.02,.05-.09,0-.11h0Z"/><path class="cls-4" d="M360.15,361.35c-1.22-1.11-2.65-.27-3.59,.79-1.19,1.33-1.6,2.99-1.97,4.7-.78,3.58-.96,7.29-.6,10.94,.75,7.65,3.83,15.11,8.78,21,2.83,3.37,6.27,6.19,10.15,8.28,.05,.02,.06-.15,.02-.17-12.69-7.03-20.33-22-18.86-36.39,.21-2.1,.52-4.43,1.33-6.4,.67-1.64,2.85-4.39,4.74-2.7,0,0,.01-.03,0-.04h0Z"/><path class="cls-4" d="M495.34,460.49c.04-1.06,.14-2.11,.21-3.17,.03-.47-.06-1.1,.32-1.4,.44-.35,1.21,.02,1.75,.14,1.94,.44,3.86,.96,5.75,1.56,3.86,1.21,7.63,2.71,11.31,4.39,7.23,3.29,14.17,7.2,21.13,11.01,14.29,7.82,29.04,14.72,44.3,20.43,8.77,3.28,17.71,6.12,26.73,8.62,.02,0,.04-.16,0-.18-15.58-4.44-30.86-9.99-45.65-16.6-7.27-3.25-14.43-6.77-21.45-10.54s-13.35-7.45-20.23-10.79c-7.6-3.69-15.52-6.81-23.85-8.37,0,0,0,.02,0,.02-.11,1.61-.18,3.23-.35,4.84,0,.04,.03,.13,.03,.04h0Z"/><path class="cls-4" d="M497.16,460.16c7.05,3.07,13.91,6.56,20.88,9.81s13.61,6.22,20.48,9.18c13.71,5.9,27.66,11.33,41.75,16.27,7.93,2.79,15.91,5.43,23.93,7.95,.03,0,.05-.2,0-.22-28.55-9.25-56.61-20.12-83.97-32.47-7.7-3.48-15.28-7.26-23.06-10.56,0,0-.01,.04,0,.04h0Z"/><path class="cls-4" d="M540.3,482.02c19.4,10.14,39.93,18.2,60.55,25.47,10.39,3.67,20.78,7.36,31.27,10.74,10.44,3.36,21.07,6.18,31.69,8.88,5.92,1.5,11.86,2.93,17.82,4.28s12.22,2.91,18.38,3.79c.78,.11,.58-3.34,.57-3.54v.85c.06-.26,.13-.51,.24-.75,.16-.39,.37-.77,.61-1.13,.38-.56,.85-1.03,1.37-1.46,.18-.15,.15-1.61-.09-1.57-1.35,.18-2.73,1.08-3.18,2.42l.33-.39c-5.31-1.25-10.74-2.1-16.08-3.18-5.35-1.08-10.68-2.23-16-3.44-10.64-2.42-21.22-5.09-31.73-8s-20.84-5.53-31.07-8.91-20.49-7.04-30.6-10.91c-11.38-4.36-22.71-8.85-34.09-13.2,0,0,0,.04,0,.04h0Z"/></g></svg>