<?xml version="1.0" encoding="UTF-8"?><svg id="Layer_1" xmlns="http://www.w3.org/2000/svg" viewBox="0 0 1500 750"><defs><style>.cls-1{fill:#84746e;}.cls-2{fill:#9e8881;}.cls-3{fill:#342a28;}.cls-4{fill:#a9928b;}.cls-5{fill:#cbc0bd;}.cls-6{fill:#231f20;}</style></defs><g><path class="cls-1" d="M1076.48,376.68s9.36,9.68-3.75,13.97c-13.11,4.29-21.54,7.4-31.84,9.78-1.78,.41,9.76,17.19,6.56,20.26-2.8,2.67-6.56,4.61-14.05-1.63-7.49-6.24-33.4-14.54-21.85-21,11.55-6.47,64.93-21.37,64.93-21.37Z"/><g><path class="cls-1" d="M832.18,421.23c-3.45-.2-6.54-.38-9.36-.56,1.84,6.71,3.62,12.4,3.62,12.4,1.18,.9,52.87,85.34,65.56,97.57-.11-9.73-2.85-23.76-11.25-43.86-22.94-54.87-7.27-63.21-48.58-65.55Z"/><path class="cls-2" d="M903.24,410.93c-11.86-19.35-85.53-13.73-83.66-3.75,.75,4.01,2.01,8.98,3.24,13.49,2.81,.18,5.9,.36,9.36,.56,41.32,2.34,25.64,10.69,48.58,65.55,8.4,20.1,11.14,34.13,11.25,43.86,.77,.74,1.4,1.23,1.86,1.41,8.12,3.12,21.23-101.76,9.36-121.11Z"/></g><g><path class="cls-1" d="M451.25,322.19c78.04,13.65,251.59,38.17,282.81,40.04,31.21,1.87,60.56,7.49,206.64-9.99,146.09-17.48,207.27-.62,227.24-8.74,7.79-3.16,16.9-5.57,25.13-7.32-29.57-4.15-327.38-26.47-342.9-28.26-16.23-1.87-324.01,4.37-363.96,2.5-39.95-1.87-192.25-111.12-186.03-98.01,2.59,5.46,26.03,26.51,52.25,49.8,40.29,19.62,36.27,49.05,98.82,59.99Z"/><path class="cls-4" d="M1195.41,336.64c-.17-.11-.97-.26-2.34-.46-8.23,1.76-17.34,4.16-25.13,7.32-19.98,8.12-81.16-8.74-227.24,8.74-146.08,17.48-175.43,11.86-206.64,9.99-31.21-1.87-204.77-26.4-282.81-40.04-62.54-10.94-58.53-40.37-98.82-59.99,36.76,32.65,78.99,69.71,76.97,74.44,0,0-19.35,42.45-11.86,49.32s51.19-44.32,66.18-44.95c14.98-.62,58.06-1.25,89.9,18.1,31.84,19.35,115.49,51.82,133.6,56.81,18.1,4.99,142.34,19.35,207.89,16.86,65.55-2.5,132.35-8.12,130.48-12.49-1.87-4.37-9.99-16.23-16.86-18.1-6.87-1.87,136.1-38.71,147.33-44.32,11.24-5.62,23.1-18.73,19.35-21.23Z"/></g><path class="cls-1" d="M677.87,314.79s49.32-11.24,50.57-21.85-2.5-72.42,7.49-64.3c9.99,8.12,54.92,68.43,54.31,79.17s-107.36,12.55-112.37,6.99Z"/><path class="cls-4" d="M630.42,367.23c-.16,.42-.74,1.47-1.26,3.18-2.56,8.43-7.5,30.44-13.72,33.03-7.49,3.12,55.56-16.23,72.42-8.12,16.86,8.12-56.18-31.27-57.44-28.09Z"/><g><path class="cls-1" d="M801.17,377.22s-.31,17.17,1.56,16.54,1.25-20.6-1.56-16.54Z"/><path class="cls-1" d="M808.35,371.29s-2.5,25.42,0,26.76c2.5,1.34,4.37,5.4,3.43-1.78s1.12-14.2,.25-19.58-1.81-9.45-3.68-5.39Z"/><path class="cls-1" d="M817.4,367.05s3.05,31.87,2.15,33.35-.28,4.68,2.45,3.38,1.65-10.8,1.33-18.22,.31-11.96-.94-15.93-5.24-5.25-4.99-2.59Z"/><path class="cls-1" d="M828.95,369.64c-.33,1.02,.62,7.43,1.25,15.78,.62,8.35-4.25,15.43,0,14.98s6.24,.86,5.62-11.01c-.62-11.86-2.58-13.42-3.63-18.42s-1.67-6.11-3.23-1.34Z"/></g><path class="cls-1" d="M800.86,398.04c1.87,1.65,21.23,16.63,11.86,21-9.36,4.37-132.97,56.81-154.2,70.55-21.23,13.73,26.89-21.85,78.37-61.18s31.5-46.66,41.49-43c9.99,3.67,22.47,12.63,22.47,12.63Z"/><g><path class="cls-4" d="M983.77,360.71s-5.32,3.91-11.22-.45c-5.9-4.37-14.73-9.61-11.7-16.97s15.42-11.45,21.06-7.75c5.63,3.7,9.73,6.52,7.53,12.85-2.2,6.32-5.66,12.33-5.66,12.33Z"/><path class="cls-3" d="M970.66,359.98s17.53,.38,18.98-5.05-4.68-14.14-7.32-14.54c-2.64-.4-14.99,1.88-14.79,5.44,.2,3.56-1.84,12.29,3.13,14.15Z"/><path class="cls-5" d="M968.39,341.27c.78-2.37,6.61-4.04,11.25-2.09,4.62,1.94,7.93,8.76,5.83,13.31s-11.4,5.4-15.95,3.31c-4.55-2.09-2.71-9.77-1.14-14.53Z"/><path class="cls-3" d="M978.44,352.89c-1.37,.48-2.94,.45-4.39-.22-2.89-1.33-4.19-4.68-2.91-7.47s4.67-3.99,7.57-2.66c2.89,1.33,4.19,4.68,2.91,7.47-.64,1.4-1.81,2.4-3.18,2.88"/></g></g><g><path class="cls-6" d="M658.13,501.9c3.85-3.82,8.66-6.69,13.21-9.59s9.21-5.65,13.93-8.29c9.41-5.25,19.1-9.98,28.88-14.49,19.76-9.11,39.94-17.27,59.6-26.6,10.98-5.21,21.73-10.79,32.01-17.29,.8-.51-2.17-2.37-3.06-1.85-18.76,10.89-38.41,20.05-58.24,28.79-19.74,8.7-39.6,17.12-58.67,27.24-5.32,2.83-10.57,5.79-15.71,8.94s-10.15,6.95-15.54,9.84c-1.45,.78,2.39,4.48,3.59,3.29h0Z"/><path class="cls-6" d="M778.63,392.75c2-.18,4.09,.32,6.03,.78,1.82,.43,3.61,.99,5.36,1.66,3.74,1.44,7.24,3.46,10.37,5.95s5.86,5.71,8.16,9.12c1.23,1.82,2.37,3.7,3.52,5.57,.58,.95,1.23,1.99,1.12,3.15-.1,1.06-.8,2.03-1.91,2.1-.55,.03,.84,1.86,1.48,1.89,1.48,.06,2.58-1.22,2.61-2.66,.03-1.78-1.12-3.45-1.99-4.92-2.05-3.48-4.31-6.88-6.92-9.97-4.66-5.54-10.66-9.86-17.42-12.45-1.84-.7-3.73-1.27-5.65-1.7-2.1-.46-4.23-.6-6.33-1.01-.77-.15-.31,.77-.11,1.1,.28,.45,1.04,1.45,1.68,1.39h0Z"/><path class="cls-6" d="M773.05,391.56c1.25,10.8-7.35,19.14-15.06,25.32-8.59,6.89-17.62,13.25-26.6,19.62-17.98,12.75-36.26,25.26-52.63,40.09-4.56,4.13-8.96,8.42-13.15,12.92-2.07,2.22-4.09,4.48-5.94,6.89s-3.94,4.97-5.36,7.78c-.18,.35,.79,1.54,1.13,1.24,2.05-1.82,3.75-4,5.62-6.01s3.66-4,5.5-5.99c3.77-4.07,7.71-7.96,11.79-11.72,8.1-7.46,16.69-14.37,25.48-20.99,17.83-13.44,36.53-25.72,54.17-39.41,8.47-6.57,19.2-16.19,17.09-28.16-.11-.63-.67-1.26-1.17-1.63-.27-.2-.94-.58-.87,.06h0Z"/><path class="cls-6" d="M303.87,215.36c-1.88-.53-2.6,.93-2.44,2.63,.09,.96,.5,1.71,1,2.52,.82,1.33,1.68,2.63,2.59,3.9,3.38,4.71,7.13,9.15,11.15,13.33,8.1,8.45,17.19,15.9,26.5,22.97,9.45,7.17,19.2,13.93,28.67,21.08,10.19,7.69,19.92,15.94,28.88,25.05,5.2,5.29,10.14,10.83,14.81,16.6,2.34,2.9,4.61,5.85,6.79,8.87,.88,1.22,1.95,2.43,2.48,3.86,.28,.75,.66,2.44-.18,2.94-.56,.34-.25,.93,.14,1.23,.57,.44,1.54,.59,2.23,.43,1.03-.23,2.16-.73,2.51-1.83,.31-.99-.12-2.27-.54-3.17-.54-1.17-1.37-2.18-2.14-3.21-1.01-1.35-2.03-2.7-3.06-4.04-4.01-5.23-8.24-10.31-12.68-15.18-8.63-9.49-18.05-18.24-28.12-26.2-18.55-14.67-38.96-26.98-56.65-42.74-4.86-4.33-9.47-8.93-13.72-13.86-2.16-2.5-4.17-5.11-6.14-7.76-.87-1.17-2.07-2.37-2.57-3.76-.12-.33-.64-3.26,.31-3.03,.85,.2,1.04-.4,.18-.64h0Z"/><path class="cls-6" d="M794.11,431.62c8.43,.76,16.95,.9,25.41,1.16,8.46,.26,16.92,.5,25.38,.72,16.8,.43,33.6,.67,50.4,.87,16.53,.2,33.07,.45,49.6,.49,15.91,.04,31.93,0,47.78-1.48,15.71-1.47,31.21-4.09,46.61-7.56,1.87-.42,3.74-.87,5.6-1.35,.66-.17-.5-3.61-1.39-3.35-7.89,2.32-15.8,4.15-23.92,5.46s-16.04,2.21-24.11,2.82c-15.95,1.21-31.95,1.77-47.94,1.87-16.43,.1-32.87-.03-49.3-.26s-33.19-.54-49.78-.93c-16.58-.38-33.16-.8-49.75-1.07-2.03-.03-4.04-.05-6.07,.01-.75,.02,.71,2.52,1.48,2.59h0Z"/><path class="cls-6" d="M1029.98,405.48c-1.71,.3-3.42,.53-5.13,.84l1.87,2.15c12.12-4.51,24.11-9.25,36.44-13.2s24.61-7.55,37.06-10.84c12.46-3.3,24.99-6.34,37.52-9.33,6.22-1.49,12.46-2.9,18.69-4.37s12.09-2.72,17.99-4.57c3.3-1.03,6.55-2.23,9.59-3.89,2.62-1.43,4.93-3.18,7.21-5.1,1.13-.95,1.78-2.13,2.75-3.21s1.89-2.24,2.71-3.45c1.61-2.41,2.95-4.91,3.81-7.69,.12-.4-.89-1.49-1-1.18-.89,2.58-2.17,5.05-3.87,7.19-.74,.94-1.55,1.83-2.4,2.67-.45,.44-.9,.92-1.42,1.28-.59,.4-1.26,.67-1.84,1.09-1.05,.77-2.02,1.65-3.15,2.3-1.19,.69-2.43,1.33-3.66,1.96-2.71,1.39-5.56,2.55-8.42,3.59-5.9,2.15-12.05,3.57-18.14,5.05s-12.54,3.08-18.83,4.57c-24.68,5.84-49.53,11.6-73.63,19.57-13.34,4.41-26.88,9.07-39.42,15.46-.54,.28,1.35,2.28,2.01,2.08,1.53-.45,3.04-.99,4.57-1.45,.55-.17-.78-1.63-1.32-1.54h0Z"/><path class="cls-6" d="M1026.09,407.03c4.03,3.01,8.33,5.67,12.55,8.4,3.36,2.18,6.97,4.5,9.23,7.89l-.52-2.02c-1.33,.98-3.18,1.73-4.84,1.72-.67,0,.61,1.97,1.01,2.11,2.14,.72,4.07,.73,6-.53,.54-.35-.35-1.75-.52-2.02-2.57-4.01-6.24-6.89-10.18-9.47-4.36-2.86-8.75-5.83-13.36-8.27-.48-.25-.41,.35-.34,.63,.13,.54,.53,1.22,.98,1.56h0Z"/><path class="cls-6" d="M681.61,317.03c3.97-.43,7.94-.84,11.86-1.64s7.74-1.81,11.52-3.02c7.34-2.36,14.61-5.51,21.17-9.59,2.96-1.84,5.4-4.21,5.97-7.79,.33-2.09,.09-4.2-.07-6.29s-.35-4.33-.49-6.5c-.55-8.73-.97-17.48-1.41-26.22-.19-3.77-.77-7.76-.26-11.52,.42-3.14,2.16-6.16,5.69-6.19,4.2-.04,6.37,3.44,8.14,6.7s3.58,6.25,5.66,9.2c8.36,11.83,19.22,21.53,28.27,32.78,2.29,2.84,4.4,5.8,6.37,8.87,2.09,3.27,4.2,6.56,6.94,9.33,4.85,4.91,11.49,8.11,18.4,8.58,1.68,.11,3.26,.01,4.9-.36,1.16-.27-1.18-3.33-2.18-3.29-6.97,.28-13.8-.88-19.34-5.42-2.85-2.34-4.85-5.48-6.83-8.54s-4.16-6.14-6.46-9.06c-8.99-11.37-20.07-20.96-28.55-32.75-2.13-2.97-3.99-6.07-5.76-9.26s-3.69-6.21-6.77-7.99c-2.58-1.49-6.07-1.97-8.4,.25-2.12,2.03-2.39,5.25-2.38,8.02,0,4.13,.37,8.27,.57,12.4,.22,4.4,.4,8.81,.6,13.21s.42,8.96,.52,13.44c.05,2.03,.12,4.06,.11,6.09s-.24,4-1.33,5.7c-1.89,2.97-5.37,4.68-8.37,6.31-3.65,1.98-7.42,3.71-11.26,5.27-7.24,2.95-14.75,5.02-22.42,6.52-1.88,.37-3.75,.66-5.65,.86-.62,.06,.56,1.99,1.26,1.92h0Z"/><path class="cls-6" d="M301.95,218.05c7.2-1.32,14.11,3.11,19.91,6.79,6.48,4.11,12.98,8.18,19.51,12.2,13.06,8.03,26.24,15.84,39.55,23.45s26.78,15.06,40.41,22.16c6.87,3.58,13.83,6.97,20.81,10.34s13.79,6.82,20.62,10.4c14.3,7.48,30.25,15.52,46.88,12.32,.75-.14,1.67-.73,1.79-1.55s-.64-1.07-1.32-1.01c-15.06,1.47-29.45-3.84-42.96-9.91s-26.97-13.83-40.32-21.07c-27.08-14.68-53.92-29.79-80.33-45.65-7.4-4.45-14.77-8.96-22.1-13.52-6.68-4.15-14.03-8.31-22.19-6.77-.55,.1-1.65,.54-1.68,1.23s.95,.69,1.42,.61h0Z"/><path class="cls-6" d="M506.92,314.64l1.76-1.24-1.37,.3c2.16,.03,4.32,.06,6.49,.09l-1.6-.35c2,1.45,1.62,1.6,3.51,1.54,.81-.03,1.61-.02,2.42,0,1.42,.02,2.84,.04,4.26,.06,2.93,.04,5.85,.08,8.78,.12,5.68,.08,11.37,.15,17.05,.23,11.42,.15,22.84,.15,34.26,.19,22.62,.09,45.25,0,67.88,.25,12,.13,24.21,1.07,35.97,3.51,.77,.16,1.54-4.12,.64-4.3-5.45-1.06-10.96-1.79-16.49-2.27-5.81-.5-11.61-.59-17.43-.76-11.2-.33-22.41-.31-33.62-.33-22.66-.04-45.32-.34-67.98-.21-6.29,.04-12.58,.08-18.86,.12-3.23,.02-6.45,.04-9.68,.06-1.57,0-3.14,.02-4.72,.03-.83,0-1.66,.03-2.48,.02-1.99-.03-1.41-.15-3.51,1.5l1.6-.35c-2.16,.01-4.32,.03-6.49,.04l1.37,.3-1.76-1.25c-.67-.47-.66,3.17,0,2.7h0Z"/><path class="cls-6" d="M417.98,386.85c-.71,3.23,3.95,4.34,6.28,4.22s4.67-1.39,6.78-2.26c2.64-1.09,5.24-2.27,7.8-3.53,9.89-4.88,19.06-11.02,27.78-17.76s17.19-15.35,28.54-17.23,24.14,1.34,35.56,3.91c23.44,5.26,46.44,12.55,68.63,21.77,11.32,4.7,22.39,9.94,33.27,15.58,11.24,5.82,22.32,11.94,33.67,17.55,21.22,10.47,44.37,19.53,68.36,19.63,3.01,.01,6.03-.11,9.03-.3,.86-.06-.56-3.14-.71-3.43-.43-.81-1.33-2.6-2.46-2.49-11.51,1.08-23.4-.42-34.61-3.06-11.5-2.71-22.6-6.86-33.38-11.66-21.54-9.59-41.88-21.64-63.44-31.2-21.1-9.36-42.98-16.96-65.34-22.68-11.11-2.84-22.44-5.57-33.83-6.98-5.47-.68-11-.79-16.42,.34s-10.07,3.34-14.48,6.28-8.54,6.59-12.73,9.98-8.65,6.77-13.18,9.88-9.51,6.25-14.5,8.97c-2.39,1.3-4.82,2.53-7.29,3.68-2.34,1.09-4.76,2.31-7.24,3.04-1.44,.43-5.37,1.18-4.96-1.37,.06-.39-1.07-1.25-1.16-.85h0Z"/><path class="cls-6" d="M802.72,380.43c.68,3.5,.5,7.2-.24,10.67-.15,.7,.35,1.64,.74,2.18,.26,.36,.78,.91,.97,.23,1.08-3.9,1.03-7.93,.21-11.88-.15-.72-.54-1.69-1.17-2.11s-.57,.56-.5,.91h0Z"/><path class="cls-6" d="M814.2,372.46c-1.16,1.48-1.33,1.46-1.33,3.09,0,.81,0,1.63-.02,2.44-.03,1.71-.04,3.42-.09,5.13s-.13,3.26-.24,4.89c-.06,.81-.12,1.63-.19,2.44-.21,2.39-.08,1.93,1.57,4.84l-.21-3.6c-.85,1.46-.79,3.32-1.02,4.96-.27,1.9-.77,3.77-.1,5.64,.24,.68,1.91,3.44,2.33,1.47,.17-.8-.4-3.53-1.5-3.57-.28,0-.33,.09-.42,.34l-.05,.14c-.23,.64,.45,3.11,1.39,2.93l.11-.02-.62-.34,.08,.1-.86-2.08v.1l.12-.99,.41,.13,.79,1.45-.09-.26,.33,1.68c-.05-1.32,.31-2.75,.45-4.07,.06-.63,.12-1.26,.18-1.89,.12-1.39,.03-2.45-.08-3.89l-.36,2.26c1.74-2.38,1.86-2.11,1.95-4.37,.04-.89,.06-1.79,.08-2.68,.03-1.71,.03-3.42,0-5.13s-.08-3.43-.24-5.13c-.07-.81-.16-1.63-.25-2.44-.21-1.83-.42-2.11-1.75-3.71-.12-.15-.29,.06-.35,.13h0Z"/><path class="cls-6" d="M824.91,370.55c-.77,1.05-1.14,1.44-1.25,2.64-.06,.66-.09,1.3-.09,1.97,0,1.31-.02,2.62-.04,3.93-.04,2.7-.13,5.41-.22,8.11s-.21,5.24-.37,7.86c-.08,1.31-.17,2.62-.26,3.93-.05,.65-.1,1.31-.15,1.96-.17,2.13,.12,1.71,1.64,4.5l-.52-3.13c-.39,1.13-.39,2.46-.46,3.65-.09,1.51-.08,2.98,.11,4.49,.03,.26,.89,2.51,1.3,1.81,.58-.99,.67-2.07,.81-3.19,.23-1.87,.19-3.59,.02-5.47l-.33,2c.46-.59,1.64-1.71,1.82-2.46,.07-.3,.03-.67,.05-.98,.03-.74,.07-1.47,.1-2.21,.05-1.31,.09-2.62,.13-3.93,.07-2.78,.11-5.57,.1-8.35s-.07-5.41-.17-8.11c-.05-1.31-.11-2.62-.17-3.93-.04-.74-.07-1.48-.18-2.21-.22-1.46-.31-1.44-1.39-2.88-.17-.22-.3-.23-.47,0h0Z"/><path class="cls-6" d="M835.41,374.78c1.54,4.55,2.39,9.38,2.32,14.18s-1.12,9.31-2.64,13.74c-.22,.64-.45,1.27-.7,1.9-.3,.76-.46,.88-1.1,1.65,.36-.43-1.1,.93-.89,1.3,.48,.84,2.5,.71,3.25,.39,.31-.13,1.1-.75-.06,.12-.97,.73-.52,.36-.29-.11s.47-.94,.69-1.42c.48-1.05,.92-2.11,1.28-3.2,1.56-4.83,2.26-9.92,2.19-14.99-.07-5.51-1.03-10.9-3.15-16-.24-.59-.57-.62-.84-.02-.3,.68-.3,1.75-.06,2.45h0Z"/><path class="cls-6" d="M832.09,312.89c24.41-.97,48.94,.05,73.3,1.72,24.43,1.67,48.82,4.06,73.17,6.59,24.12,2.5,48.19,5.17,72.32,7.57s48.57,5.11,72.83,7.81c12.03,1.34,24.07,2.68,36.11,4,6.09,.67,12.18,1.26,18.28,1.82,2.98,.28,5.97,.55,8.95,.83,2.52,.24,5.24,.23,7.68,.95,.98,.29,2,.75,2.68,1.55,.3,.36,.51,.75,.65,1.19,.06,.2,.08,.43,.16,.62,.46,1.09-2.1,.61,.89-1.58-.86,.63-1.44,1.9-1.79,2.87-.06,.17-.59,2.17,.09,1.79,3.24-1.8,5.38-7.8,2.31-10.63-1.81-1.67-4.52-1.82-6.84-2.07-3.21-.35-6.42-.69-9.62-1.04-12.75-1.38-25.51-2.57-38.28-3.72-25.46-2.29-50.9-4.79-76.37-7.02-12.66-1.11-25.3-2.49-37.94-3.77s-25.63-2.39-38.45-3.6c-25.27-2.38-50.55-4.68-75.9-6.21-12.56-.76-25.14-1.35-37.72-1.74-12.61-.4-25.21-.31-37.82-.39-3.17-.02-6.35-.01-9.52,.01-.7,0,.16,2.5,.83,2.47h0Z"/><path class="cls-6" d="M960.93,353.66l1.42-.14c.05,0,.08-.06,.1-.1,.04-.08,.06-.18,.06-.27s.01-.19-.01-.27c-.01-.04-.03-.12-.08-.12l-1.39-.14c-.07,0-.12,.1-.14,.14-.05,.11-.08,.25-.09,.36s-.02,.25,.02,.37c.01,.05,.04,.17,.11,.16h0Z"/><path class="cls-6" d="M819.48,432.92c7.35,3.97,12.72,11.1,17.86,17.5,5.57,6.93,10.85,14.11,15.75,21.52s9.45,15.01,13.62,22.84c3.95,7.42,7.32,15.12,11.19,22.58,2.03,3.91,4.24,7.75,6.86,11.3s5.49,7.08,9.46,9c.29,.14,1.59,.15,1.14-.47-1.08-1.48-2.37-2.64-3.66-3.94-1.39-1.42-2.69-2.93-3.89-4.51-2.4-3.17-4.45-6.58-6.32-10.08-3.95-7.38-7.29-15.07-11.21-22.46-8.37-15.78-18.17-30.83-29.35-44.76-5.94-7.41-12.14-15.51-20.86-19.79-.37-.18-1.41-.55-1.67-.01s.73,1.1,1.07,1.28h0Z"/><path class="cls-6" d="M892.02,537.41c1.54,.58,3.02,1.29,4.51,1.98,.57,.26,1.64,.48,2.15-.04,4.27-4.44,6.57-10.65,8.13-16.51,1.76-6.62,2.91-13.49,3.76-20.29,1.81-14.43,2.47-29,1.89-43.53-.16-3.98-.42-7.95-.76-11.92-.18-2.07-.38-4.13-.61-6.2-.12-1.08-.25-2.16-.38-3.24-.16-1.3-.42-2.22-1.05-3.37-.3-.54-2.41-2.36-2.98-1.31-.46,.83-.49,1.33-.38,2.27,.1,.85,.19,1.7,.28,2.55,.2,1.96,.39,3.92,.55,5.88,.3,3.6,.53,7.21,.69,10.82,.32,7.31,.37,14.63,.12,21.94-.25,7.28-.77,14.54-1.59,21.77s-1.62,13.92-2.98,20.78c-.66,3.32-1.48,6.62-2.67,9.79s-2.96,6.32-4.98,9.23l1.73-.19c-1.45-.51-2.9-.98-4.31-1.59-.42-.18-1.48-.46-1.8,.04s.27,.97,.7,1.14h0Z"/><path class="cls-6" d="M976.09,349.57c.06,0,.06-.22,0-.22s-.06,.22,0,.22h0Z"/><path class="cls-6" d="M422.58,346.72c.92,.81,.94-1.23,.82-1.7-.14-.53-.47-1-1.06-1.08-.88-.13-1.37,1.02-1.63,1.74-1.04,2.89-1.5,6.09-2.2,9.08s-1.43,6.14-2.15,9.22c-1.47,6.31-2.94,12.61-4.42,18.92-.84,3.59-1.96,11.46,3.76,11.58,2.43,.05,4.71-1.42,6.74-2.57,2.54-1.43,5.05-2.89,7.56-4.37,4.9-2.89,9.76-5.86,14.63-8.81,9.64-5.85,19.32-11.66,29.37-16.81,5.66-2.9,11.45-5.58,17.39-7.87,2.97-1.15,5.98-2.2,9.03-3.14,1.24-.38,2.27-.73,3.57-.52,.44,.07,.89,.2,1.29,.4,.15,.07,.3,.21,.45,.27,.75,.3,.46-1.97-.28-1.4-.41,.31-.45,2.69,.19,2.53,1.54-.38,1.34-2.59,.82-3.73-.66-1.44-2.48-2.58-4.07-2.36-1.11,.15-2.24,.64-3.3,.98-1.31,.42-2.62,.86-3.92,1.33-2.39,.85-4.75,1.76-7.1,2.72-9.74,4-19.06,8.94-28.14,14.25s-17.99,10.97-26.99,16.45c-4.42,2.69-8.83,5.6-13.47,7.9-1.91,.95-5.15,1.98-6.58-.31-.46-.74-.38-1.54-.25-2.37,.21-1.37,.58-2.73,.88-4.09,1.49-6.6,2.99-13.2,4.48-19.8,.74-3.26,1.48-6.52,2.21-9.78,.39-1.72,.75-3.45,1.14-5.17,.15-.68,.31-1.23,.82-1.73,.14-.14,.31-.32,.47-.41,.72-.4,.28,.26,0,.12-.15-.07-.13,.45-.04,.53h0Z"/><path class="cls-6" d="M708.79,415.56l-.22-.28c-.07-.08-.16-.17-.2-.27-.03-.09-.07-.17-.14-.24-.04-.04-.08-.07-.11-.11l-.23-.22-.44-.43c-.14-.14-.31-.24-.48-.36-.12-.08-.16,.19-.17,.24-.02,.15-.02,.38,.07,.51,.15,.19,.29,.4,.46,.58l.45,.47,.21,.22c.07,.07,.15,.2,.25,.19,.05,0,.05,0,.1,.03l.12,.09,.24,.18c.09,.07,.13-.16,.13-.19,.01-.12,.02-.31-.06-.41h0Z"/><path class="cls-6" d="M828.96,430.18l-1.79,1.79s0,.06,0,.05l1.79-1.79s0-.06,0-.05h0Z"/><path class="cls-6" d="M735.66,367.49s.04-.16,0-.16c-.04,0-.04,.16,0,.16h0Z"/><path class="cls-6" d="M1019.06,358.42l-3.57-1.82c-.08-.04-.12,.38-.02,.43l3.58,1.82c.07,.04,.12-.38,.02-.42h0Z"/><path class="cls-6" d="M866.87,312.21c-2.39-.44-4.73-.45-7.07,.21-2.21,.63-4.34,1.59-6.31,2.76-4.15,2.45-7.8,5.75-11.24,9.11-6.85,6.7-12.78,14.3-17.55,22.62-2.67,4.67-4.99,9.52-6.93,14.54-.1,.27,.15,1.44,.3,1.07,3.59-8.68,8.31-16.82,13.97-24.32,5.58-7.38,12.2-14.65,19.9-19.87,4.4-2.98,9.57-5.23,14.96-5.35,.18,0,.17-.74-.02-.77h0Z"/><path class="cls-6" d="M930.66,315.53c-7.77,2.58-14.67,7.18-20.77,12.6-6.18,5.49-11.48,11.96-15.54,19.16-2.3,4.09-4.17,8.36-5.64,12.82-.07,.21,.09,1.16,.26,.69,5.77-15.19,16.3-28.59,29.8-37.65,3.82-2.56,7.85-4.9,11.92-7.04,.12-.06,.06-.63-.04-.59h0Z"/><path class="cls-6" d="M748.03,261c-6.76,3.23-13.37,6.68-19.88,10.39-.16,.09-.09,.83,.09,.74,6.76-3.31,13.35-6.87,19.85-10.65,.1-.06,.06-.53-.06-.48h0Z"/><path class="cls-6" d="M748.44,272.31c-4.34,5.85-10.04,10.61-16.47,14.01-.09,.04-.05,.41,.04,.37,6.56-3.25,12.18-8.11,16.51-14,.06-.08,0-.5-.09-.38h0Z"/><path class="cls-6" d="M766.25,274.05c-11.47,8.8-22.85,17.69-34.02,26.86-.15,.12-.04,.78,.08,.69,11.51-8.85,22.77-17.97,33.99-27.18,.08-.07,.02-.42-.04-.37h0Z"/><path class="cls-6" d="M619.02,324.36c3.63-.87,5.76-4.13,5.76-7.75,0-.15-.15-1.02-.42-.62-9.18,13.07-10.46,32.01-3.3,46.29,.28,.57,.41-.6,.3-.86-3.04-7.08-4.47-14.82-3.87-22.52s3.16-15.09,7.17-21.65l-.42-.62c.13,3.28-2.23,6.32-5.22,7.47-.07,.03-.05,.29,0,.27h0Z"/><path class="cls-6" d="M646.21,316.01c-5.62,10.64-8.02,23.15-8.06,35.12s2.47,24.42,7.44,35.54c2.8,6.26,6.4,12.08,10.88,17.28,.3,.35,.4-.85,.21-1.1-14.5-18.91-20.77-43.29-16.34-66.79,1.25-6.64,3.44-13.01,6.13-19.19,.09-.2-.09-1.18-.26-.86h0Z"/><path class="cls-6" d="M942,415.96c.05,0,.05-.22,0-.22-.05,0-.05,.22,0,.22h0Z"/><path class="cls-6" d="M392.68,283.77c4.42,2.96,8.98,5.7,13.3,8.82s8.32,6.43,12.16,10.02c7.73,7.22,14.58,15.42,20.32,24.3,3.22,4.97,6.14,10.12,8.65,15.48,.19,.4,.28-.45,.2-.63-8.55-19.56-22.19-36.53-39.33-49.24-4.75-3.53-9.78-6.97-15.27-9.24-.12-.05-.13,.41-.03,.48h0Z"/><path class="cls-6" d="M437.59,352.52c-1.97-.82-.24-2.85,.81-3.75,1.43-1.21,3.46-1.68,5.18-2.31,4.16-1.53,8.45-2.73,12.81-3.58,8.59-1.68,17.55-2.17,26.28-1.51,.27,.02,.29-1.16-.03-1.21-8.1-1.28-16.23-1.24-24.3,.2-4,.71-7.96,1.72-11.82,3-1.82,.61-3.63,1.25-5.39,2.03-1.43,.63-2.65,1.24-3.65,2.48s-2.54,4.91,.09,5.3c.14,.02,.14-.59,.01-.65h0Z"/></g></svg>