<?xml version="1.0" encoding="UTF-8"?><svg id="Layer_1" xmlns="http://www.w3.org/2000/svg" viewBox="0 0 1500 750"><defs><style>.cls-1{fill:#635856;}.cls-2{fill:#6d9877;}.cls-3{fill:#2d2928;}.cls-4{fill:#231f20;}</style></defs><g><path class="cls-1" d="M1192.27,263.88l7.73-4.75s-6.77-21.91-21.38-9.21c-14.6,12.7-44.29,37.99-65.77,46.45-21.47,8.46-93.7,34.76-93.7,34.76,0,0-18.14,6.99-60.71-2.61-17-3.83-26.59-5.2-32-5.47l10.99-2.75s-13.48-13.95-4-16.77c0,0,3.14-11.21,5.92-13.99,0,0-38.75-.35-67.25,22.45l-42.43-3.61c-10.96-2.02-21.98-3.81-33.05-5.18-.18-.83-.42-1.66-.8-2.29-.72-1.21-1.62-1.14-2.82-1.27-3.93-.42-7.86-.83-11.79-1.22-3.78-.37-7.57-.66-11.36-.95-1.9-.15-3.77-.29-5.68-.2-.88,.04-1.75,.09-2.61,.29-1.3,.31-2.26,1.08-3.45,1.69-1.62,.82-3.92,.22-5.67,.09-2.04-.15-4.08-.27-6.13-.39-3.79-.23-7.59-.44-11.38-.63-3.95-.2-8.5-1.05-12.38-.09-3.8-.49-7.61-.94-11.42-1.3-3.77-.36-7.61,.18-11.4,.4-.03,0-.05,0-.08,0l-25.54-2.17-14.87-7.15,6.13-3.22s-10.47-17.82-6.31-35.04c0,0-37.48,9.95-68.95,28.1-31.47,18.14-57.23,18.36-86.02,18.67-28.79,.31-83.09,8.11-106.18,13.02,0,0-13.19-1.93-33.76,3.13,0,0-25.53-15.12-62.41,15.53,0,0,11.23,15.46,45.89,24.24,34.66,8.77,59.54,18.12,67.5,21.7,7.11,3.2,58.61,23.44,92.37,30.05,0,1.09,.06,2.18,.12,3.23,.41,7.07,1.53,13.81,3.66,20.57,.55,1.75,1.16,3.49,1.78,5.21,.41,2.63,.93,5.22,1.63,7.74,1.4,5.04,3.43,9.81,6.17,14.26,.93,5.3,2.27,10.55,4.36,15.5,.14,.32,.28,.64,.42,.96,.62,1.79,1.27,3.57,1.98,5.33,1.89,4.69,3.94,9.69,7.31,13.54,1.52,1.73,3.46,3.27,5.67,4.03,.18,.06,.39,.12,.6,.17,.48,2.76,1.46,6.23,3.05,3.58,.12-.19,.22-.39,.32-.59l.08,.16c1.56,1.31,2.27-2.85,2.37-3.44,.19-1.09,.43-2.19,.69-3.28,1.42-2.38,2.17-5.25,2.77-7.84,.97-4.17,1.9-8.34,2.81-12.52,1.42,1.85,3.07,3.54,4.96,4.97,1.39,1.05,2.02-2.11,2.17-3.16,.99,.09,1.52-2.37,1.65-3.46,.1-.82,.19-1.79,.24-2.82,4.73-5.84,8.73-12.44,15.21-16.51,1.47-.92,1.28-5.78,1.23-7.12-.08-2.12-.04-5.38-1.58-7.05-1.14-1.24-2.32-2.45-3.51-3.65-.07-.09-.15-.17-.22-.23-.27-.27-.52-.56-.79-.82-1-.99-2.06-2.2-3.2-3.19-.05-.08-.08-.16-.13-.23-3.31-4.85-6.87-9.52-10.7-13.98-1.31-1.53-2.67-3.2-4.5-4.08,31.28,2.49,76.74,4.48,108.45-1.11,52.82-9.3,111.05-27.05,111.05-27.05l6.76-.7c.57,.41,1.28,.72,2.01,.98,.04,.26,.08,.52,.14,.77,.54,2.25,1.72,3.87,3.8,4.93,1.21,.62,2.74,1.03,4.08,1.23,3.02,.46,6.2,.16,9.2-.31,1.5-.23,3-.53,4.48-.87,1.31-.3,2.82-.55,3.96-1.3,1.83-1.21,2-3.44,2.16-5.46,.08-1.02,.1-2.05,.1-3.07l69.6-7.23,6.6,.16c.84,.72,1.72,1.39,2.54,2,2.21,1.63,4.59,3.12,7.03,4.38,.39,.2,.78,.38,1.18,.57,1.05,.64,2.11,1.29,3.18,1.89,2.69,1.51,5.24,3.23,7.87,4.85,.57,.35,1.06,.76,1.72,.45,.72-.34,1.17-1.33,1.59-1.98,.12-.18,.21-.38,.32-.57,2.5-.43,3.01-4.06,3.01-6.25,0-.53,.17-3.54-.46-3.8-.55-.23-.25,1.08-.5-.34-.03-.19-.11-.36-.2-.54l26.37,.63s55.93-16.95,86.09-.09c30.16,16.86,57.7,28.15,54.64,26.8-1.68-.74-6.8-8.03-11.08-14.47,.54-.65,1.07-1.31,1.61-1.96,.09,.84,.22,1.68,.48,2.46,.14,.43,.38,1.35,.91,.72,.69-.83,1.33-1.7,2-2.54,.13,.58,.29,1.15,.47,1.73,.06,.18,.45,1.49,.87,.71,1.23-2.3,2.11-4.83,3.23-7.19,.67-1.42,1.38-2.82,2.1-4.22,3.63-5.29,6.97-10.77,9.94-16.46,.4-.77,.52-1.85,.59-2.77l63.69-43.42-.54-13.7s63.79-11.52,37.11-33.44Zm-662.41,144.17s-.05,.07-.07,.11c-.15-.32-.31-.64-.48-.98,.23,.02,.46,.05,.7,.07-.05,.27-.1,.53-.14,.8Zm-1.73-.15c-.03,.2-.05,.42-.07,.63-.34,.06-.6,.47-.78,.92-.43-.88-.86-1.75-1.27-2.64,.72,.08,1.5,.17,2.32,.26-.1,.29-.17,.63-.2,.83Zm-4.36,.72c-.04,.23-.04,.46-.07,.69-.36-.96-.72-1.92-1.08-2.87,.52,.06,1.1,.13,1.72,.2-.29,.66-.49,1.53-.56,1.99Zm-9.72-3.27c-.29,1.27-.55,2.55-.77,3.84-.41-1.4-.86-2.79-1.32-4.16,.71,.12,1.41,.22,2.1,.32Zm550.26-32.02c-.22,.36-.46,.71-.67,1.07-.17-.27-.27-.43-.27-.43l.94-.64Z"/><path class="cls-3" d="M478.02,372.9c7.87-4.4,16.05-8.2,24.51-11.32,2.11-.78,4.32-.96,6.52-1.38,1-.19,2.19-.6,3.2-.42,.54,.09,1.1,.27,1.62,.42,.66,.19,1.14,.1,1.82,0,2.17-.33,4.34-.65,6.49-1.1,2.27-.47,4.5-1.25,6.75-1.83,18.01-4.63,36.38-7.26,55-7.01,4.62,.06,9.23,.29,13.83,.69,2.34,.2,4.67,.45,6.99,.74,1.06,.13,2.11,.27,3.17,.42,.56,.08,1.13,.16,1.69,.25,.7,.11,1.2,.33,1.6-.41,.35-.66,.53-1.9,.72-2.56,.14-.51,.32-1.02,.4-1.54,.11-.73,.06-1.53,.04-2.27s-.03-1.52-.15-2.26c-.09-.57-.33-1.19-.48-1.68-.26-.88-.42-2.03-.85-2.84-.55-1.03-2.06-.93-3.11-1.08-1.2-.17-2.39-.33-3.59-.48-4.58-.56-9.19-.96-13.8-1.19-18.53-.91-37.17,.87-55.21,5.2-2.29,.55-4.55,1.21-6.81,1.88s-4.45,1.22-6.54,2.11c-2.29,.97-4.48,2.14-6.64,3.35-1.19,.67-2.01,1.61-2.97,2.58s-2.35,1.63-3.56,2.35c-2.12,1.28-4.05,2.8-6.26,3.92-2.08,1.06-4.14,2.15-6.18,3.28-4.21,2.33-8.36,4.78-12.41,7.38-1.97,1.26-3.91,2.57-5.84,3.9-.16,.11,.08,.86,.02,.9h0Z"/><path class="cls-3" d="M610.89,354.12c-.65-.52-1.29-1.05-2.13-1.26-.73-.18-1.54-.11-2.28-.11-2.06,.02-4.12,.08-6.18,.2l-12.6,.7c-8.41,.47-16.89,1.13-25.16,2.82-.06,.01-.02,.76,.02,.76,8.4,.37,16.85-.34,25.2-1.22l12.33-1.3c2.15-.23,4.28-.5,6.41-.82,1.31-.2,3.43-.77,4.39,.4-.02-.03,.03-.15,0-.18h0Z"/><path class="cls-3" d="M609.92,344.6c1.34,.14,2.67,.16,4.01,0,.59-.07,1.17-.17,1.75-.31,.83-.19,1.3-.11,2.13,.05-.07-.01,.2-1.83-.05-1.95-3.92-1.93-8.69-1.86-12.98-1.87s-8.6,.17-12.9,.49-8.57,.76-12.82,1.49-8.53,2-12.68,3.44c-4.81,1.67-9.75,3.34-14.35,5.53-.19,.09,.02,1.73,.04,1.72,4.2-.37,8.37-1.09,12.57-1.49s8.5-.6,12.72-1.21c8.55-1.24,17.07-2.53,25.67-3.49,2.46-.27,4.97-.38,7.4-.8,2.56-.44,5.03-.7,7.38-1.87l-.05-1.95c-.59,.59-1.07,1.15-1.88,1.4-.64,.2-1.3,.36-1.96,.48-1.32,.24-2.66,.31-4,.25,0,0,0,.07,0,.07h0Z"/><path class="cls-3" d="M548.01,359.54l-3.07-.41c-2.02-.27-2.82-.87-3.54-3.07v5.97c.3,.86,.62,1.71,.96,2.54l.13,.21c4.89-.19,9.65-1,14.49-1.69s9.72-1.19,14.6-1.67c9.76-.96,19.58-1.39,29.38-1.26,1.45,.02,2.89,.05,4.34,.09,.64,.02,1.3,.11,1.93-.06,1.09-.31,1.46-.88,2.12-1.79,.52-.7,1.11-1.48,1.88-1.93,.7-.41,1.46-.26,2.15-.78,1.14-.86,2.84-2.25,4.29-1.39l-.03-1.12c-.48-.31-.91-.68-1.49-.77s-1.16-.06-1.71-.08c-1.14-.05-2.28-.11-3.42-.07-2.2,.06-4.39,.15-6.59,.27-4.39,.24-8.77,.72-13.13,1.31-8.68,1.19-17.27,3.26-25.84,5.07-4.89,1.03-9.78,2.11-14.66,3.21-.1,.02,.03,1.03,.03,1.03,8.66-1.42,17.32-2.79,26.03-3.85s17.31-1.77,25.96-2.75c2.43-.27,4.87-.52,7.31-.72,1.22-.1,2.44-.23,3.66-.38,.65-.08,1.3-.14,1.95-.24,.83-.13,1.25-.41,1.93-.91,.16-.12-.14-1.07-.03-1.12-1.25,.56-2.68-.61-3.64-1.36-.68-.54-1.11-1.03-1.95-1.27s-1.35-.66-1.96-1.29c-1.22-1.25-1.8-2.98-3.69-3.31-1.22-.22-2.62-.08-3.86-.1-5.06-.09-10.13-.04-15.19,.16-9.98,.39-19.9,1.39-29.75,3.04-2.77,.47-5.59,.87-8.32,1.55-1.41,.35-2.88,.71-4.25,1.19-.63,.22-1.26,.49-1.88,.74-.22,.08-.73,.21-.94,.37-.46,.33-.81,2.7-.94,3.16-.31,1.18-.14,2.6-.08,3.81,.03,.56-.05,1.33,.16,1.85,.02,.06,.1,.64,.2,.31,.64-2.16,1.44-2.55,3.4-2.5l3.06,.08s0-.07,0-.07h0Z"/><path class="cls-3" d="M616.66,342.95c.48,.39,.94,.58,1.53,.34,.07-.03-.02-.7-.02-.7-11.61,1.28-23.15,3.05-34.72,4.71-.03,0,0,.35,0,.34,11.59-1.36,23.19-2.62,34.72-4.36l-.02-.7c-.51,.34-.93,.49-1.52,.29,0,0,0,.06,0,.07h0Z"/><path class="cls-3" d="M533.31,370.49c-.28-.8-.56-1.6-.84-2.4l.03,1.76c.47,.15,.99,.4,1.48,.45,.52,.06,1.18-.11,1.71-.16,1.14-.1,2.28-.21,3.42-.31,2.21-.2,4.4-.39,6.6-.67,4.4-.56,8.81-1.06,13.23-1.52,8.58-.88,17.35-2.15,25.99-1.71,1.13,.06,2.43,.03,3.5,.4,1.19,.41,2.36,1.11,3.44,1.73s2.21,1.25,3.23,1.95,2.14,1.45,3.44,1.41c.41-.01,.2-6.01,.18-6.53-.04-1.54-.08-3.08-.21-4.61-.02-.26-.03-1.85-.29-1.9-1.13-.25-2.22-.53-3.38-.53s-2.41,0-3.61,.01c-2.32,.02-4.65,.08-6.97,.16-4.73,.17-9.44,.48-14.15,.93-9.34,.9-18.62,2.28-27.82,4.14-5.19,1.05-10.34,2.26-15.45,3.61-.28,.07-.28,2.26-.28,2.11-.07,1.69-.06,3.4-.01,5.08,.02,.58,.06,7.17,.64,7.17,17.44,0,35.08-2.93,52.39,.47,4.63,.91,9.15,2.29,13.46,4.24,.11,.05,.2-2.48,.19-2.11,.05-1.69,.02-3.4-.02-5.09s-.09-3.39-.23-5.08c-.04-.5,.06-1.73-.3-2.1-1.26-1.32-3-1.69-4.76-1.74-2.21-.06-4.44,.21-6.64,.36l-14.92,.98-29.84,1.96c-.56,.04-.29,6.61-.27,7.21,.05,1.7,.09,3.4,.26,5.09,.03,.31,.04,2.02,.37,2.1,9.88,2.46,20.17,3.27,30.25,4.54,4.97,.62,9.98,1.46,14.98,1.82,2.49,.18,4.81-.28,6.53-2.19s2.86-4.29,3.33-6.86c.2-1.08,.07-2.29,.04-3.37-.02-.59-.04-1.18-.09-1.76,0-.11-.16-.87-.14-.9-.88,1.01-2.55,.98-3.75,.85-2.06-.21-4.18-.04-6.26-.19-5.08-.36-10.17-1.22-15.22-1.85-10-1.25-20.21-2.06-30.01-4.5l.35,14.41,29.84-1.97,14.92-.99c2.2-.15,4.43-.42,6.64-.36,1.77,.05,3.5,.41,4.76,1.73l-.35-14.39c-15.81-7.16-33.52-6.1-50.42-5.2-5.14,.27-10.28,.52-15.43,.52l.35,14.37c18.16-4.8,36.75-7.63,55.5-8.71,2.56-.15,5.12-.26,7.69-.33,1.36-.04,2.72-.07,4.09-.09s2.68-.23,4.08-.52l-.32-13.05c-.9,.43-1.78,.94-2.73,1.27s-1.94,.39-2.98,.4c-2.06,.02-4.04,.32-6.1,.17-4.28-.33-8.61,.06-12.87,.43-8.81,.75-17.53,2.01-26.24,3.55-2.46,.43-4.89,.92-7.32,1.49-1.22,.28-2.44,.57-3.65,.86-.65,.15-1.3,.31-1.95,.46-.74,.17-1.31,.64-1.93,1.05-.16,.11-.1,1.67,.04,1.79l.82,.71s0-.06,0-.07h0Z"/><path class="cls-3" d="M598.06,366.61c.02-.6,.01-1.18-.1-1.77-.11-.63-.31-1.24-.59-1.82-.24-.5-.5-.92-.69-1.44-.54-1.45-.69-3.06-1.05-4.57-.12-.51-.18,.58-.17,.42-.07,.66-.05,1.33-.04,2,0,1.73,.03,3.48,.22,5.21,.35,3.11,1.07,6.15,1.49,9.25,.04,.28,.07,.55,.11,.83,.03,.21,.09,.61,.03,.17,.12,1.56,.1,.54-.06-3.07-.09-1.21-.11-2.43-.08-3.64,.08-.34,0-.05-.02,.05-.24,1.16-.42,2.28-.81,3.4l.09-.25c-1.05,2.73-2.89,4.99-5.4,6.5s-5.16,1.92-7.88,2.7c-.72,.21-1.31,.64-1.99,.94s-1.45,.5-2.19,.71c-1.59,.45-3.2,.81-4.82,1.15-3.8,.8-7.69,1.18-11.56,1.5-.13,.01-.25,3.88,.1,4,4.63,1.7,9.41,3.07,14.19,4.3,1.77,.45,3.59,.71,5.34,1.24s3.64,0,5.34-.55c3.28-1.07,6.25-3.01,8.08-5.99,2.69-4.4,2.39-9.98,2.31-14.92-.07-3.9-.18-7.85-.85-11.7-.16-.95-.35-1.89-.6-2.82-.11-.42-.37-1.5-.8-1.71l.35,8.75,.11-1.47-.08,.43,1.43-.95c.13,.26,.24,.54,.32,.82,.23,.71,.32,1.41,.26,2.19,0,.03,0,.2,0,.14h0Z"/><path class="cls-3" d="M574.59,367.38c-6.64-3.95-14.59-4.38-22.13-4.19-8.6,.22-17.2,.82-25.75,1.77-2.43,.27-4.86,.57-7.28,.9-.26,.04-5.91,1.05-5.3-.43,.04-.11-.05-.34-.02-.4-.17,.39-.18,.89,.09,1.24,1.06,1.37,3.91,.39,5.25,.21,4.76-.65,9.54-1.2,14.33-1.63s9.42-.74,14.15-.94c4.37-.19,8.77-.38,13.14-.1,4.71,.31,9.38,1.29,13.52,3.64,0,0,0-.06,0-.07h0Z"/><path class="cls-3" d="M545.2,360.16c-13.46-2.06-27.98-.89-40.5,4.73-.07,.03,0,.67,.02,.67,1.38-.11,2.65-.49,3.87-1.13,.04-.02-.02-.27,0-.28-1.26,.52-2.53,.75-3.88,.73l.02,.67c6.53-2.24,13.05-4.14,19.92-5s13.69-1.08,20.56-.34c0,0,0-.07,0-.07h0Z"/><path class="cls-3" d="M549.11,355.76c-7.13-.27-14.36-.19-21.45,.74-3.46,.45-6.91,1.01-10.33,1.72-1.72,.35-3.41,.82-5.1,1.29-1.88,.52-3.84,.99-5.51,2.03-.29,.18,.18,1.93,.05,1.98,1.24-.5,2.7-.64,4.01-.9s2.67-.47,4.02-.69c.06,0,0-.69-.02-.69-1.34,.1-2.68,.21-4.03,.25s-2.74,.26-4.03,.04l.05,1.98c1.79,.02,3.58-.63,5.3-1.07s3.41-.81,5.1-1.24c3.5-.88,7.01-1.69,10.55-2.35,7.1-1.33,14.19-2.48,21.39-3.02,0,0,0-.07,0-.07h0Z"/><path class="cls-3" d="M548.56,359.83c-2.78,.08-5.53-1.04-8.3-1.15s-5.52-.1-8.23,.12c-5.38,.43-10.93,1.52-16.06,3.19-.63,.21,.14,6.05,.15,6.05,5.85-.73,11.68-1.83,17.51-2.77l8.63-1.39,4.19-.67c1.24-.2,2.53-.5,3.68,.16l-.11-4.39c-3.01,.56-6.06,.79-9.1,1.14s-6.2,.76-9.3,1.2c-6.26,.89-12.53,2.07-18.14,5.07-.36,.19-.13,2.33-.12,2.69,0,.22,.27,2.67,.25,2.68,1-.54,1.79-1.43,2.84-1.82,.92-.34,1.92-.53,2.87-.79,.12-.03,.02-1.52-.04-1.52-.95-.04-1.94,0-2.89-.11-1.03-.13-1.9-.83-2.91-1.13l.13,5.37c6.21-.09,12.25-2.09,18.17-3.81s12.15-3.74,18.34-4.58c.19-.03,.25-4.17-.11-4.39-1.07-.67-2.24-.5-3.44-.38-1.4,.15-2.8,.31-4.2,.46l-8.89,.97c-5.84,.64-11.72,1.12-17.53,1.96l.15,6.05c5.3-1.84,10.57-3.41,16.02-4.68,2.65-.62,5.28-1.22,7.96-1.7s5.62-1.8,8.47-1.64c0,0,0-.18,0-.18h0Z"/><path class="cls-3" d="M542.36,367.1c-4.43,.07-8.84,.31-13.26,.56-2.12,.12-4.24,.28-6.35,.46s-4.7,.16-6.81,.79c-.27,.08,.03,2.93,.07,2.93,5.93-.35,12,.34,17.92,.66,2.71,.15,5.44,.2,8.14,.49,2.16,.23,4.47,.74,5.92,2.47l-.02-.8c-.43,.78-1.27,.86-2.08,.76-1.39-.18-2.8-.41-4.17-.69-2.75-.57-5.32-1.69-8.12-2.01-2.63-.3-5.24-.88-7.86-1.26-1.39-.2-2.79-.42-4.18-.64-1.29-.21-2.89-.77-4.17-.55l.33,13.62c.9-1.4,1.86-2.74,2.88-4.05,.48-.61,.86-1.96,1.5-2.22s1.25,.08,1.75,.41c2.63,1.76,6.06,2.62,9.06,3.53s5.91,1.45,8.95,1.67,6.43-.33,9.48-.89c.06-.01,.06-1.28-.03-1.31-3.07-.96-6.19-2.14-9.33-2.82s-6.1-1.21-9.19-1.62c-1.48-.2-2.94-.44-4.41-.68-1.39-.23-2.96-.57-4.36-.51-.7,.03-1.21,.1-1.8-.42-.83-.73-1.12-1.88-1.8-2.73-.44-.56-.98-1.08-1.51-1.56-.58-.51-.78-.75-1.52-.42-.26,.12-.24,2.08-.24,2-.06,1.6-.04,3.22,0,4.82s.09,3.21,.24,4.81c.03,.28,.04,1.92,.33,1.99,1.25,.29,2.88-.18,4.15-.35s2.6-.37,3.9-.57c2.8-.43,5.5-1.17,8.28-1.72s5.3-2.1,8-3.03c1.29-.45,2.6-.87,3.87-1.36,.84-.32,1.68-.54,2.07-1.4,.05-.11,.06-.7-.03-.79-1.62-1.55-3.56-2.27-5.75-2.63-2.75-.45-5.56-.63-8.33-.92-5.95-.62-12.1-.92-17.96-2.2l.07,2.93c2.24-.17,4.59-1.04,6.79-1.52s4.22-.89,6.33-1.29c4.38-.82,8.8-1.39,13.23-1.86,0,0,0-.07,0-.07h0Z"/><path class="cls-3" d="M340.23,321.5c2.21-.87,4.49-1.71,6.75-2.51s4.47-1.55,6.73-2.23c4.62-1.39,9.38-2.39,14.11-3.28,.02,0-.02-.41-.01-.41-4.82,.33-9.49,1.29-14.13,2.64-2.29,.66-4.53,1.42-6.73,2.33-2.34,.97-4.53,2.06-6.73,3.3-.02,.01,.02,.17,0,.18h0Z"/><path class="cls-3" d="M342.35,321.58c7.32-5.13,16.34-7.08,25.16-5.86,4.31,.6,8.47,1.99,12.45,3.71s7.95,4.1,11.88,6.26c2.15,1.18,4.32,2.35,6.52,3.44,1.13,.56,2.26,1.1,3.41,1.6s2.46,1.29,3.67,1.39c.5,.04-.07-3.51-.09-3.5-.03,.02-.82,.45-.82,.5,0-.12-.08-1-.12-.8-.27,1.38,.21,2.6,.96,3.74l-.03-3.44c-.91-.54-2.09-.75-3.09-1.11s-2.03-.76-3.04-1.17c-2.01-.82-4-1.72-5.97-2.64-3.93-1.84-7.87-3.62-11.84-5.38s-8.06-3.21-12.33-3.94-8.85-.56-13.18,.48c-4.93,1.18-9.55,3.41-13.56,6.5-.03,.03,.04,.19,0,.21h0Z"/><path class="cls-3" d="M363.84,313.77c3.98,1.85,8.33,2.66,12.46,4.1,3.66,1.28,7.17,3.03,10.44,5.09s6.62,4.17,9.91,6.29,6.77,3.89,10.6,4.83l-.16-6.68c-.81,.45-1.08,1.43-1.92,1.89-.6,.33-1.22,.4-1.89,.33-.1,0-.13,1.7,.05,1.86,.6,.56,1.24,1.02,1.93,1.46,.61,.38,1.29,1.32,1.99,1.14,.64-.17,.46-6.55-.16-6.68-3.62-.74-7.11-1.96-10.56-3.27s-6.53-3.11-9.87-4.55-6.76-2.9-10.41-3.57c-4.16-.76-8.38-.93-12.41-2.31,0,0,0,.06,0,.07h0Z"/><path class="cls-3" d="M348.04,321.12c2.35,3.18,4.93,6.16,8.23,8.39,2.92,1.98,6.59,3.84,10.16,4.1,3.25,.24,6.75-.04,9.7-1.54,3.22-1.63,4.58-6.01,4.81-9.4,.02-.37-.16-1.24-.11-1.44-.26,1.06-1.03,1.59-2.03,1.91-.62,.19-1.11,.25-1.68,.57-.69,.39-1.39,.78-2.12,1.1-2.94,1.3-6.15,1.54-9.32,1.42s-6.35-.23-9.52-1.14c-2.9-.84-5.87-1.98-8.12-4.05,0,0,0,.05,0,.07h0Z"/><path class="cls-3" d="M380.03,320.32c.13,.85,.02,1.46-.46,2.17-.34,.51-.8,.98-1.24,1.41-1.05,1.02-2.38,1.88-3.64,2.61-3.04,1.75-6.12,3.1-9.63,3.5-.06,0-.06,1.02,.03,1.03,3.77,.56,8.42,.31,11.59-2.06,1.51-1.13,2.67-2.86,3.21-4.65,.26-.85,.36-1.72,.36-2.61,0-.49,.04-1.12-.21-1.57,0,.01,0,.13,0,.16h0Z"/><path class="cls-3" d="M306.18,329.28c.64,.05,1.17,.29,1.79,.32,.52,.03,1.04-.02,1.56,0,1.28,.02,2.52,.2,3.78,.41,2.28,.39,4.58,.57,6.87,.94,4.62,.74,9.17,1.9,13.71,3.05s9.27,2.36,14,3.09c2.28,.35,4.58,.6,6.88,.71,2.6,.12,5.25,.57,7.85,.49,9.99-.28,19.85-1.31,29.81,.11s18.91,4.3,27.9,7.94c4.92,1.99,9.78,4.12,14.77,5.92,2.47,.89,4.98,1.7,7.53,2.35,1.21,.31,2.7,.88,3.94,.74,1.34-.15,2.7-.7,3.97-1.13,.16-.05,.12-1.98-.05-2.07-1.14-.63-2.25-1.3-3.39-1.94-1.2-.67-2.42-.85-3.75-1.17-2.26-.55-4.49-1.22-6.69-1.97-4.44-1.51-8.77-3.34-13.11-5.14-8.95-3.71-18.03-6.97-27.59-8.73-4.74-.87-9.55-1.38-14.36-1.44-5.09-.06-10.13,.41-15.2,.83-2.63,.21-5.21,.44-7.83,.77-2.46,.31-4.98,.11-7.44-.13-4.65-.45-9.24-1.4-13.8-2.38-5.14-1.11-10.26-2.33-15.47-3.03-2.5-.34-5.21-.79-7.73-.49-1.33,.16-2.65,.43-3.97,.62-.59,.09-1.18,.17-1.77,.28-.87,.15-1.39,.56-2.21,.87-.02,0,0,.18,0,.18h0Z"/><path class="cls-3" d="M448.94,346.63c.46,1.5,.86,2,1.92,3.01,.69,.65,1.45,1.37,1.61,2.35l-.16-3.38c.01-.62,.13-.3-.24-.1-.17,.09-.29,.19-.49,.26-.37,.12-.76,.07-1.13-.04l.28,4.48,.04-.49-.3,1.56c.43,.57,.62,.78,1.33,.77,.49,0,.91-.05,1.23-.43,.35-.4,.4-1.02,.47-1.52,.27-1.99,.23-4.07,.18-6.06-.05-1.72-.11-3.46-.31-5.17-.1-.8-.18-1.74-.5-2.5-.44-1.05-1.41-1.66-2.35-2.21l.35,14.11c5.41,.43,10.89,.22,16.28-.48,2.62-.34,5.22-.8,7.79-1.39,.68-.15,1.36-.32,2.04-.49,.6-.15,1.52-.22,2.02-.54,.77-.49,1.31-1.82,1.74-2.59,.74-1.36,1.11-2.8,2.13-4.01,.28-.33,.27-3.56-.09-3.73-.28-.13-.65-.24-.9-.42,.03,.02-.85-1.43-1.16-1.84-.43-.55-1.16-1.5-1.84-1.73-.54-.18-1.45,.25-2.02,.4-.68,.18-1.35,.35-2.03,.52-2.64,.64-5.32,1.14-8.02,1.52-5.4,.75-10.83,.9-16.27,.67-.66-.03-.47,6.49-.46,7.07,.05,1.66,.1,3.33,.31,4.98,.06,.46,.04,1.81,.5,2.06,.78,.42,1.47,.83,2.02,1.54l-.17-.25c.12,.3,.18,.33,.18,.08l-.38-4.09,.02,.32,.09-7.73c-.08,.75-1.33,.85-1.82,1.31-.94,.89-1.04,2.77-1.22,3.95-.22,1.46-.22,2.92-.15,4.39,.03,.58-.08,2.16,.51,2.59l-.31-2.17c.06,1.25,0,3.24,1.85,2.75,1.75-.46,1.31-3.14,1.26-4.46-.06-1.66-.27-4.02-2.34-4.36-.84-.14-1.48,.51-1.47,1.42,0,.02,0,.04,0,.06h0Z"/><path class="cls-3" d="M484.58,341.57c-6.58,1.58-12.87,4.37-19.13,6.93-6.58,2.69-13.16,5.22-19.98,7.23-.11,.03,.01,.9,.02,.9,6.74-1.21,13.54-2.71,20.03-4.89,3.3-1.11,6.48-2.47,9.57-4.05,1.54-.79,3.08-1.57,4.58-2.43,1.75-1.01,3.33-2.34,4.9-3.61,0,0,0-.07,0-.07h0Z"/><path class="cls-3" d="M334.63,346.8c1.45,.27,2.91,.88,4.35,1.28l4.34,1.22,8.45,2.37c5.63,1.58,11.26,3.14,16.89,4.7,11.3,3.15,22.58,6.39,33.86,9.61,5.48,1.56,11,3.13,16.56,4.4s10.84,1.74,16.33,1.79c10.43,.1,20.88-1.65,30.91-4.45,5.56-1.55,10.98-3.7,16.25-6.05s10.64-4.98,15.86-7.63l-.17-7.08c-1.06,1.46-1.79,3.22-2.65,4.8-.13,.24-.05,2.56,.06,2.55,.45-.03,.94-.15,1.38-.17,.54-.02,.85,.16,1.38-.11,.48-.25,.18-3.07,.17-3.55-.02-.83-.05-1.67-.14-2.5-.01-.1-.16-1.07-.21-1.03-4.52,2.98-9.12,5.67-14,8.03s-9.54,4.33-14.47,6.09-9.99,3.53-15.18,4.66-10.17,1.83-15.32,2.13-10.69,.11-15.99-.54c-5.58-.68-11.1-1.32-16.6-2.56-11.38-2.56-22.67-5.52-33.96-8.43-6.27-1.62-12.54-3.23-18.81-4.85-3.21-.83-6.43-1.65-9.65-2.47l-4.82-1.23c-1.58-.4-3.29-.64-4.82-1.17,0,0-.02,.17,0,.18h0Z"/><path class="cls-3" d="M415.1,375.22c9.83,5.2,21.12,7.99,32.23,8.35,5.37,.17,10.75-.13,16.06-.92s10.47-2.49,15.42-4.49c2.48-1.01,4.92-2.13,7.3-3.36,1.22-.64,2.38-1.33,3.52-2.1,.52-.35,1.06-.69,1.55-1.07,1.17-.91,1.15-1.97,1.52-3.37,.29-1.1,.74-2.06,.59-3.19-.53-4.22-2.03-2.91-3.9-1.95-2.38,1.23-4.72,2.55-7.13,3.72-4.86,2.36-9.95,4.27-15.16,5.71s-10.61,2.92-16.11,3.69c-12.01,1.69-24.03,1.04-35.9-1.18,0,0-.02,.16,0,.18h0Z"/><path class="cls-3" d="M493.58,364.75c-1.15,.62-2.52,.93-3.77,1.32s-2.53,.78-3.8,1.14c-2.62,.76-5.27,1.45-7.91,2.16-5.23,1.41-10.51,2.59-15.85,3.53-10.51,1.86-21.17,2.78-31.84,2.75-4.6-.01-10.54,0-13.43-4.24v1.1c3.61,3.16,8.15,4.34,12.82,4.77,5.01,.46,10.09,.73,15.12,.79,9.93,.11,20-1.65,29.46-4.59,2.35-.73,4.68-1.53,6.98-2.4,1.11-.42,2.22-.86,3.32-1.32,.63-.26,1.27-.42,1.64-1.04,.65-1.1,1.06-2.74,1.27-4.01,.27-1.62,.25-3.82-.13-5.42-.15-.63-.82-2.1-1.3-2.58-.56-.55-.95-.13-1.58,.2-2.26,1.19-4.55,2.31-6.88,3.36-9.38,4.25-19.31,7.58-29.35,9.85-5.56,1.25-11.05,2.5-16.74,2.94-4.81,.37-10.3,.79-14.64-1.69,.08,.05-.13,.96,.03,1.12,2.9,3.09,7.08,3.74,11.13,3.84,5.31,.13,10.65-.09,15.95-.48,10.79-.81,21.52-2.54,32-5.22,2.9-.74,5.76-1.59,8.6-2.55,1.5-.51,2.99-1.04,4.47-1.58s2.93-1.32,4.44-1.61c.03,0-.01-.17,0-.18h0Z"/><path class="cls-3" d="M441.17,385.16c2.02,.36,4.03,1.45,5.99,2.07s3.99,1.15,6.02,1.58c3.9,.82,7.87,1.26,11.85,1.34,7.95,.16,16.18-1.08,23.54-4.15l-.09-3.83c-1.88,.97-3.41,2.4-5.4,3.15-1.73,.65-3.51,1.19-5.31,1.61-3.73,.88-7.59,1.12-11.41,.91-7.71-.41-15.25-2.79-21.73-6.99,0,0-.11,1.54-.1,1.68,0,.39-.11,1.36,.19,1.67,1.22,1.29,2.37,2.41,3.91,3.32s3.12,1.57,4.77,2.14c3.4,1.16,6.96,1.8,10.48,2.49,8.47,1.65,16.97,3.17,25.59,3.71,4.87,.31,9.79,.03,14.67,.18,.05,0,.13-1.98-.05-2-4.38-.62-8.7-1.55-13.02-2.47s-8.47-1.43-12.71-2.03-8.6-1.13-12.89-1.76c-3.63-.53-7.3-1.01-10.86-1.94s-7.37-2.4-9.97-5l.08,3.36c6.53,3.96,14.08,6.03,21.71,6.17,3.83,.07,7.66-.39,11.4-1.19,1.8-.38,3.58-.88,5.31-1.49,.88-.31,1.67-.53,2.58-.7,1.05-.2,1.91-.49,2.86-1,.28-.15,.12-1.64,.11-1.92,0-.14-.16-1.93-.21-1.91-7.5,3.31-15.29,5.53-23.49,6.04-3.94,.25-7.91,.12-11.83-.39-2.02-.26-4.03-.62-6.01-1.09s-4.2-.85-5.98-1.75c0,0-.03,.17,0,.18h0Z"/><path class="cls-3" d="M453.64,390.87c-.08,.65-.72-.05-.33-.44,.28-.28,1.17,.21,1.45,.33,1.23,.54,2.42,1.14,3.64,1.69,2.44,1.09,4.92,2.09,7.4,3.08,5.02,2,10.17,3.47,15.41,4.77,10.35,2.56,20.9,3.92,31.36,5.95,2.67,.52,5.34,1.09,8.01,1.61,1.28,.25,2.47,.6,3.71,1.03,1.42,.49,2.83,.66,4.32,.86,5.34,.72,10.67,1.36,16.03,1.84,10.76,.96,21.6,1.23,32.4,1.44,21.6,.42,43.23-.31,64.78-1.92,21.45-1.6,42.82-4.14,64.05-7.61,10.66-1.74,21.29-3.72,31.86-5.93,5.24-1.1,10.46-2.25,15.68-3.46,4.86-1.13,9.76-2.25,14.4-4.12,2.24-.9,4.39-1.99,6.43-3.3,.21-.13,.12-2.23,.12-2.12,.02-1.7,0-3.4-.05-5.1s-.09-3.4-.2-5.1c-.01-.23-.25-2.09-.23-2.11-8.72,5.57-19.62,7.21-29.56,9.39-10.86,2.38-21.76,4.51-32.72,6.4-21.9,3.77-43.98,6.54-66.14,8.32-22.27,1.78-44.59,2.48-66.92,2.37-11.11-.05-22.2-.56-33.31-.83-5.54-.13-11.07-.23-16.61-.36-1.33-.03-2.68-.17-3.99,.03-1.45,.22-2.81,.47-4.28,.5-2.76,.04-5.52,.12-8.28,.07-10.74-.17-21.5-1.21-32.14-2.69-5.21-.73-10.45-1.59-15.61-2.61-2.56-.51-5.1-1.14-7.62-1.83-.45-.12-3.89-1.5-3.75-.24,.03,.3,.56,.65,.69,.27,.01-.04,0-.17,0-.16h0Z"/><path class="cls-3" d="M762.13,368.59c.41,1.34,.62,2.26,1.59,3.26,.63,.65,1.32,1.23,2.06,1.76,1.54,1.11,3.23,1.99,4.93,2.83,3.9,1.92,7.84,3.94,11.97,5.31,2.1,.69,4.25,1.31,6.37,1.93s4.18,1.36,6.43,1.65c2.07,.26,4.29-.06,6.37-.21,1.06-.08,2.12-.16,3.19-.19,.58-.01,1.26,.11,1.83,.01,.99-.17,1.07-.63,1.48-1.54l-.68-10.57c-.36,2.2-.44,4.44-.32,6.67,.04,.83,.07,1.72,.31,2.53,.41,1.38,2.54-8.5-.21-10.96-.85-.76-2.62-.18-3.66,0s-2.13,.39-3.18,.66c-2.5,.66-4.85,1.46-7.23,2.47-1.22,.52-2.35,1.26-3.61,1.69-1.08,.37-2.27,.67-3.41,.77-2.25,.2-4.72-.42-6.9-.96s-4.48-1.32-6.67-2.15c-1.9-.72-3.81-1.42-5.63-2.33-.88-.44-1.73-.93-2.53-1.52-.39-.28-.76-.59-1.12-.92-.65-.6-.51-.94-1.39-.35-.02,.02,0,.15,0,.17h0Z"/><path class="cls-3" d="M812.04,381c-1.94-1.4-4.61-1.75-6.97-1.99s-4.63-.34-6.93-.44c-4.61-.2-9.22-.49-13.83-.65s-9.17-.39-13.77-.36c-2.23,.01-4.46,.11-6.7,.07-1.47-.03-3.31-.15-4.21-1.5l.03,1.09c.6-1.73,1.68-2.98,3.32-3.78,.07-.03,0-.49,0-.56-.27-1.09-.67-2.23-1.1-3.27l.05,3.4c1.67,1.29,3.5,2.13,5.42,2.97,2.02,.88,4.03,1.76,6.06,2.63,4.35,1.86,9.28,2.16,13.95,2.43,2.47,.14,4.93,.18,7.4,.17s4.92,.1,7.32-.47c1.95-.46,3.8-1.5,5.36-2.74,2.04-1.62,3.23-3.72,4.11-6.14,.09-.25,.15-2.69-.1-2.71-3.31-.23-6.56-1.11-9.87-1.36-2.46-.19-4.93,.28-7.38,.52s-4.92,.48-7.38,.75c-4.57,.5-9.14,1-13.59,2.18-2.04,.54-3.87,.83-5.98,.51-1.91-.29-3.78-1.17-5.4-2.2-.06-.04-.04,3.53,.08,3.46,.45-.27,.93-.07,1.05,.42v-.56c-1.7,.8-4.35,2.93-3,5,.83,1.28,2.35,1.84,3.76,2.22,2.12,.58,4.27,1.05,6.41,1.53,8.72,1.98,17.73,2.25,26.64,2.21,2.56-.01,5.1-.21,7.65-.4s5.59-.73,7.6-2.38c0,0,0-.06,0-.07h0Z"/><path class="cls-3" d="M773.16,366.49c-1.27-.92-2.52-1.85-3.81-2.74-.05-.04-.16,1.58-.16,1.71,0,.42-.1,1.38,.24,1.7,1.16,1.1,2.57,1.91,3.96,2.69,.89,.5,1.51,1.35,2.41,1.76,.66,.3,1.38,.45,2.08,.62,3.61,.92,7.17,1.06,10.88,.91s7.04-.42,10.53-.97c1.74-.27,3.48-.58,5.21-.93,.86-.17,1.74-.33,2.59-.54,1.34-.33,1.9-.88,2.48-2.14,.32-.7,.29-1.96,.32-2.67,.06-1.48,.05-2.99-.04-4.46-.07-1.15-.11-2.33-.38-3.45-.07-.3-.16-1.04-.51-.57-.72,1.15-1.56,2.2-2.52,3.14-.18,.18-.15,2.12,.05,2.14,1.69,.18,2.18,1.99,2.43,3.43l-.28-2.55,.05,.97,.62-7.14c-.74-1.11-1.23-1.26-2.55-.97-.79,.17-1.57,.39-2.35,.58-1.73,.41-3.46,.78-5.21,1.13-3.57,.7-7.15,1.38-10.75,1.92s-7.09,1.02-10.57,2.02c-.75,.21-1.58,.36-2.29,.68-.78,.36-1.26,1.06-2.14,1.32-1.41,.41-2.77,.29-4.09-.32l.08,3.41c1.25-.16,2.49-.4,3.73-.6,0,0,0-.06,0-.07h0Z"/><path class="cls-3" d="M771.36,362.39c-.44,.19-.27,.91-.16,1.29,.57,1.88,3.02,1.05,4.4,.8,3.96-.73,7.89-1.86,11.69-3.2s7.73-2.75,11.52-4.33c1.9-.79,3.8-1.6,5.69-2.43,2.09-.91,4.34-1.94,6.06-3.45,.35-.31,.17-1.62,.16-2.04,0-.2-.29-2-.26-2.03-.57,.51-1.12,1.12-1.74,1.56s-1.33,.73-1.98,1.09c-1.23,.68-2.48,1.32-3.74,1.96-.11,.06,.03,.76,.02,.76,1.25-.35,2.5-.69,3.76-.99,.58-.14,1.18-.35,1.77-.42,.65-.08,1.35,.05,2.01,.11l-.1-4.07c-1.7,.08-3.44,.88-5.01,1.52-1.69,.69-3.35,1.46-5.03,2.17-3.3,1.39-6.61,2.8-9.93,4.15s-6.71,2.74-10.04,4.18c-1.66,.72-3.31,1.44-4.94,2.23-.89,.43-1.77,.87-2.65,1.31-.29,.15-2.01,.85-1.51-.12,0,0,0-.07,0-.07h0Z"/><path class="cls-3" d="M764.72,368.23c-.62,.22-1.78,1.21-2.36,1.01-.02,0-.21,2.09,.05,2.07,2.02-.11,4.16-1.36,6.03-2.09s3.86-1.64,5.78-2.49c4.08-1.8,8.03-3.94,12.1-5.77s8.24-3.38,12.56-4.66c2.1-.62,4.21-1.2,6.33-1.74s4.62-1.49,6.82-.58l-.34-14c-1.58,.65-2.02,3.01-2.94,4.25-.37,.5-.82,.94-1.18,1.45-.59,.84-.89,1.78-1.78,2.4-.21,.15-.08,2.07,.05,2.07,.68,0,.95,.32,1.43,.73,.52,.46,1.07,.64,1.67,.98,.96,.54,1.84,2.49,3.1,2.11,.43-.13,.5-1.98,.51-2.06,.16-1.63,.16-3.32,.11-4.96s-.1-3.31-.35-4.94c-.06-.41-.12-1.91-.61-2.04-2.3-.59-4.77,.99-6.79,1.92-2.12,.97-4.22,1.99-6.3,3.04-4.26,2.15-8.51,4.36-12.72,6.6s-8.48,4.56-12.25,7.45c-1.94,1.49-3.9,2.99-5.71,4.63-1.93,1.75-4.01,3.48-5.56,5.59l.08,2.04c.41-1.29,1.24-2.16,2.28-2.97,0,0,0-.07,0-.07h0Z"/><path class="cls-3" d="M793.42,353.54c-1.57,.84-3.5,1.23-5.17,1.86-1.57,.59-3.13,1.22-4.68,1.89-3.25,1.41-6.45,2.97-9.56,4.66-6,3.26-11.7,7.23-17.08,11.43-.39,.3-.19,1.82-.18,2.25,0,.18,.26,2.26,.29,2.24,.95-.63,1.95-1.1,2.96-1.63,1.07-.57,1.92-1.49,2.98-2.1,1.98-1.13,4.24-1.77,6.52-1.56l-.02-.68c-.84,.28-1.57-.1-2.38,.26-.28,.12-.06,2.38,.06,2.38,2.59-.14,5.09-.73,7.48-1.76l-.07-2.71c-2.23,1.13-4.48,2.23-6.71,3.35-.34,.17-.25,3.27,.08,3.38,1.76,.6,3.18-.49,3.87-2.06,.07-.16,.03-1.71-.07-1.69-.66,.17-1.31,.38-1.96,.58-.04,.01-.03,.4,.01,.41,.66,.25,1.32,.51,2,.73l-.04-1.72c-.94,1.07-2.73,1.04-3.88,.37l.08,3.38c2.2-1.41,4.41-2.76,6.69-4.03,.48-.27-.2-2.64-.07-2.71-2.36,1.14-4.86,1.84-7.47,2.1l.06,2.38c.94-.47,1.43-1.41,2.34-1.96,.07-.04,.03-.67-.02-.68-2.19-.11-4.37-.28-6.57-.35-1.03-.03-2.04-.3-3.03,.07-1.05,.39-2.05,1.11-2.95,1.75l.11,4.49c2.55-2.81,5.14-5.42,8.07-7.84s5.85-4.58,8.94-6.64,6.12-3.8,9.35-5.42c1.6-.8,3.22-1.56,4.86-2.27s3.44-1.73,5.17-1.99c.03,0,0-.17,0-.18h0Z"/><path class="cls-3" d="M885.72,368.73c-.74-.77-1.51-1.38-2.03-2.34-.02-.05-.1,.85-.09,1,0,.31-.08,1.08,.13,1.36,.84,1.15,2.37,1.78,3.6,2.49,1.29,.75,2.45,1.65,3.63,2.57,2.16,1.69,4.41,3.22,6.89,4.4,4.51,2.16,9.56,3.3,14.41,4.39l-.35-14.16c-.29,.02-.56,.03-.84,0-.5-.07-.41-.21-.81,.27-.34,.4-.3,1.58-.32,1.96-.07,1.28-.07,2.55-.05,3.83,.02,1.42,.06,2.84,.17,4.25,.07,.88-.05,2.29,.39,3.05-1.87-6.94-2.53-9.17-1.97-6.69,.1,.38,.22,.76,.34,1.13,.38,1.1,.7,2.21,1.01,3.33,.18,.67,.37,2.62,1.1,3.03,.34,.19,.98,.06,1.34,0,.31-.05,.35-2.22,.34-2.08,.1-1.66,.09-3.35,.04-5.01s-.1-3.35-.29-5c-.04-.3-.09-2.01-.45-2.06-4.79-.67-9.54-1.78-14.36-2.23-2.27-.21-4.52-.07-6.77,.22-1.21,.15-2.36,.25-3.57,.09-1.01-.14-2.68-.73-3.54-.18l.06,2.41c.33-.53,.4-.9,.97-.77,.42,.09,.84,.62,1.03,.92-.01-.02,.03-.14,0-.17h0Z"/><path class="cls-3" d="M889.69,369.87c-.8-.65-1.57-1.25-2.23-2.05l.02,1.12c.87,1.46,1.96,2.49,3.19,3.65,.97,.91,2.34,1.22,3.65,1.27,2.71,.11,5.36-.34,8.04-.7,5.32-.72,10.61-1.88,15.9-2.84,.37-.07,.44-2.16,.43-2.1,.13-1.67,.12-3.38,.08-5.05-.02-.62-.04-7.11-.86-7.11-.97,0-1.87,.33-2.4,1.18-.5,.8-.57,1.88-.64,2.8-.13,1.75-.12,3.53-.08,5.29,.02,1.01-.01,2.16,.25,3.15,0,.19,.06,.36,.18,.5,.51-.85,.7-.06,.57,2.38,.41-.13,.72-.49,1.1-.69,.44-.23,.88-.32,1.37-.35l-.35-14.26c-5.2,1.26-10.49,2.34-15.63,3.83-2.65,.77-5.25,1.51-7.8,2.59-1.19,.5-2.6,1.15-3.57,2.02-.62,.56-1.03,1.29-1.75,1.72s-1.17,.98-1.7,1.6c-.08,.09-.05,1.13,.03,1.14,.82,.11,1.49,.58,2.2,.98,0,0,0-.06,0-.07h0Z"/><path class="cls-3" d="M812.56,374.53c1.02-.86,2.28-1.49,3.42-2.19,.02-.01,0-.15,0-.17-.46-.63-1.34-1.16-2.14-1.15-.09,0-.08,1.58,.04,1.59,8.52,.17,17.01,.06,25.51-.51s16.8-1.24,25.18-2.17c2.38-.26,4.76-.54,7.14-.83,1.23-.15,2.46-.3,3.69-.45,.55-.07,1.18-.07,1.72-.22,.47-.13,.34,0,.73-.37,.46-.43,.84-1.15,1.19-1.65,.09-.13,.08-.92-.03-1.03-.37-.39-1-1.39-1.52-1.56-.34-.11-1.12,.15-1.48,.2-1.15,.15-2.3,.3-3.44,.45-2.05,.26-4.1,.52-6.15,.76-4.27,.51-8.54,.98-12.82,1.47-8.39,.97-16.81,1.62-25.19,2.61-4.86,.58-9.72,1.14-14.58,1.71l.04,1.59c.28-.32,.68-.76,1.14-.81,.55-.06,.82,.14,.58,.62-.18,.35-1.18,.78-1.52,1.01-.5,.33-.97,.68-1.52,.92-.04,.02,.02,.16,0,.18h0Z"/><path class="cls-3" d="M919.39,370.52c-.91-.52-1.69-1.31-2.57-1.89s-1.73-1.04-2.67-1.4c-1.71-.65-3.52-.64-5.25-.08-.16,.05-.09,1.85,.05,1.87,1.63,.32,3.31,.21,4.97,.21,1.82,0,3.63-.02,5.45-.1,3.47-.15,6.94-.32,10.4-.49,6.93-.35,13.86-.88,20.79-1.14s13.69-.46,20.54-.75,13.68-1,20.5-1.56c3.46-.29,6.91-.63,10.36-.99,1.64-.17,3.29-.35,4.93-.53,.81-.09,1.67-.11,2.46-.27,.51-.1,.87-.2,1.22-.58,.15-.13,.26-.28,.32-.46,.29-.91,.58-1.83,.87-2.74,.21-1.33,.18-2.93-.1-4.26-.06-.26-.9-2.38-1.05-2.57-.41-.51-.48-.47-1.04-.56-.89-.14-2.08,.24-2.96,.37-3.45,.51-6.9,1.01-10.34,1.51-13.67,1.99-27.29,4.29-40.92,6.57-7.71,1.29-15.46,2.23-23.22,3.19-3.79,.47-7.58,.93-11.37,1.38-1.98,.23-3.96,.46-5.93,.77s-4.04,.47-5.93,1.12l.05,1.87c.75-.89,1.37-1.42,2.56-1.56,.9-.1,1.8,.04,2.66,.29,1.81,.53,3.92,1.57,5.23,2.93-.02-.02,.03-.15,0-.18h0Z"/><path class="cls-3" d="M1007.88,361.44c-1.44,.17-3.72-.48-4.63-1.61l.02,.92c.88,.21,1.78,.1,2.67,.34,1.06,.28,2.11,.66,3.16,.99,2.17,.67,4.32,1.38,6.46,2.13,4.36,1.52,8.66,3.21,12.9,5.05,8.38,3.64,16.56,7.68,24.39,12.39,2.15,1.29,4.26,2.63,6.36,3.99,1.11,.73,2.27,1.4,3.36,2.16,.52,.36,.99,.94,1.61,1.13,.96,.29,1.18-.63,2.01-.96,.06-.02,.03-1.16-.03-1.24-.63-.86-.97-2.01-1.7-2.76-.43-.45-.85-.62-1.42-.84-1.04-.41-2.02-1.13-2.97-1.72-1.92-1.19-3.84-2.37-5.79-3.51-3.92-2.28-7.92-4.41-12-6.39-8.09-3.93-16.46-7.14-25.08-9.7-2.35-.7-4.71-1.34-7.08-1.94-1.22-.31-2.44-.62-3.68-.85-1.31-.25-2.39-.42-3.19,.83-.06,.09,.03,.92,.02,.92,.7-.16,1.52,.37,2.23,.53,.79,.18,1.6,.18,2.38,.34,0,0,0-.18,0-.18h0Z"/><path class="cls-3" d="M983.13,355.31l2.81,.58s.01-.17,0-.18l-2.81-.58s-.01,.17,0,.18h0Z"/><path class="cls-3" d="M986.52,355.59c1.49-.13,3.19,.33,4.67,.52s3.11,.42,4.66,.67c3.03,.48,6.05,1.05,9.05,1.71,6.09,1.33,12.1,3.01,18,5.03,11.66,4,23.22,9.06,33.51,15.89,3.06,2.03,6.07,4.13,8.69,6.72,1.45,1.43,2.98,2.9,4.23,4.51,.74,.95,1.44,1.89,2.26,2.78,.57,.62,1.32,1.85,2.21,1.95,.13,.01,.07-6.33,.06-6.84-.04-1.61-.08-3.22-.18-4.83-.03-.51,.09-1.58-.21-2l.36,1.25c-.05-.67-.28-1.25-.7-1.73-.27-.28-.66-.42-1.01-.57-.54-.24-1.12-.54-1.69-.69s-1.14-.09-1.7-.22c-.69-.16-1.39-.47-2.07-.69-2.73-.88-5.28-2.07-7.82-3.4-5.34-2.8-10.79-5.47-16.34-7.84-11.32-4.84-23.19-8.32-35.34-10.35-3.34-.56-6.7-1-10.07-1.34-1.69-.17-3.38-.31-5.07-.42-1.78-.12-3.79,.1-5.51-.28,0,0,0,.18,0,.18h0Z"/><path class="cls-3" d="M1074.39,391.58c-1.24-2.08-3.32-3.04-5.48-3.99-1.74-.77-3.48-1.51-5.22-2.25-3.5-1.5-7.07-2.91-10.71-4.05-7.16-2.24-14.37-4.37-21.55-6.55,.09,.03-.09,.92,.02,.97,7.28,2.93,14.47,6.08,21.62,9.33,3.43,1.56,6.95,2.93,10.49,4.23,1.82,.67,3.63,1.36,5.44,2.03,.89,.33,1.8,.58,2.71,.84,1.09,.31,1.78,.46,2.68-.37,.01-.01,0-.16,0-.18h0Z"/><path class="cls-3" d="M454.52,380.03c9.36,4.24,19.41,6.58,29.51,8.31,10.05,1.72,20.18,2.68,30.36,3.16,21.26,.99,42.62,.63,63.89-.08s43.28-2.04,64.9-3.43c21.75-1.4,43.46-3.16,65.18-4.89,10.82-.86,21.62-1.86,32.43-2.84,10.15-.92,20.73-1.14,30.35-4.81,1.24-.47,2.28-1.23,3.37-1.97s2.42-1.33,3.59-2.03c.26-.16-.15-2.33-.06-2.35-1.06,.22-2.26,.58-3.34,.63-1.24,.05-2.45-.23-3.7-.07-2.51,.33-5.03,.48-7.54,.8-4.92,.62-9.89,.94-14.83,1.33-10.81,.86-21.63,1.64-32.43,2.59-21.62,1.89-43.24,3.77-64.84,5.93s-43.19,4.17-64.84,5.55c-21.52,1.37-43.09,2.21-64.66,1.83-10.15-.18-20.33-.66-30.43-1.69s-19.93-2.85-29.75-5.11c-2.39-.55-4.77-1.13-7.16-1.68,.01,0-.1,.77,.02,.83h0Z"/><path class="cls-3" d="M775.42,374.52c-10.95,.25-21.73,2.1-32.51,3.88s-21.75,3.45-32.63,5.16c-21.81,3.42-43.67,6.3-65.61,8.77-21.9,2.46-43.89,4.25-65.92,5.11s-43.84,.81-65.72-.46c-19.5-1.13-39.47-3.5-57.43-11.66-2.25-1.02-4.45-2.14-6.6-3.33l.08,3.08c8.85,3.53,18.4,4.57,27.83,5.25,10.01,.72,20.03,1.27,30.05,1.75,20.45,.97,40.93,1.44,61.37,2.53,10.35,.55,20.7,1.26,31.05,1.73s20.26,.53,30.39,.58c20.44,.1,40.92-1.21,61.3-2.56,22.99-1.53,45.93-3.69,68.82-6.26,.82-.09-.38-14.42-.35-14.42-40.67,4.85-81.46,8.02-122.32,10.68-20.44,1.33-40.84,3.12-61.27,4.44-20.39,1.32-40.89,1.15-61.31,.4-11.4-.42-22.8-.97-34.19-1.66-10.66-.65-21.43-1.46-31.44-5.52,.19,.08-.45,2.79,.08,3.08,17.28,9.71,37.05,13.11,56.58,14.62,21.54,1.66,43.25,1.81,64.84,1.19,22.03-.63,44.03-2.23,65.94-4.54,21.97-2.31,43.84-5.54,65.64-9.16,10.91-1.81,21.78-3.83,32.65-5.93,10.78-2.08,21.55-4.51,32.45-5.89,2.74-.35,5.49-.61,8.25-.78v-.07h0Z"/><path class="cls-3" d="M456.31,392.23c-1.67-.73-3.24-2.52-4.4-3.88-1.41-1.65-2.59-3.48-3.43-5.48l.02,1.72c1.96,1.42,4.36,2.4,6.59,3.32s4.42,1.61,6.67,2.25c4.62,1.3,9.35,2.19,14.09,2.89,10.27,1.52,20.63,2.33,30.93,3.56,10.7,1.29,21.37,2.71,32.05,4.14,10.5,1.41,21.12,2.64,31.72,3.05,5.84,.23,11.69,.32,17.53,.12,2.99-.1,5.99-.49,8.96-.86s6.25-.59,8.91-2l-.24-9.72c-.71,.82-1.15,1.72-1.65,2.69-.44,.86-1,1.4-1.66,2.08-1.14,1.17-2.25,2.36-3.34,3.57-.06,.06,0,.76,.02,.76,1.15-.04,2.28-.15,3.42-.29,.7-.09,1.12-.27,1.72,.15s.97,.76,1.73,.75c.37,0,.21-4.47,.2-4.87-.03-1.15-.07-2.29-.18-3.43-.02-.21-.04-1.37-.26-1.42-2.56-.55-5.39-.02-7.98,.19s-5.17,.36-7.75,.46c-5.27,.2-10.52,.63-15.8,.73-10.48,.2-20.94-.06-31.41-.07-10.62-.01-21.26,.07-31.88-.31s-21.09-1.1-31.6-2.11c-5.26-.51-10.52-1.17-15.68-2.31-2.63-.58-5.22-1.3-7.76-2.16s-4.89-2.07-7.39-2.91c-.01,0-.09,1.54,.02,1.72,.94,1.52,1.94,2.97,3.19,4.26,1.41,1.45,3.11,2.34,4.65,3.59-.02-.02,.03-.16,0-.18h0Z"/><path class="cls-3" d="M454,387.27c-5.06-.68-10.28-2.89-13.61-6.87l.03,1.13c3.26,1.28,6.83,1.82,10.29,2.31s6.89,.88,10.35,1.19c6.77,.61,13.56,.91,20.35,1.06,6.96,.15,13.92,.09,20.88-.04s13.7-.14,20.53-.65c.99-.07,1.95-.17,2.93-.36,.61-.12,1.44-.21,1.87-.74,.27-.33,.47-1.36,.24-1.78-.46-.85-1.45,.42-.83,.86-.04-.03,.05-.4-.01-.48l-.09-.06-.02,.39c.2-.17,.5,.06,.62-.03,.65-.45-.54-.2-.75-.19-.61,.03-1.23-.14-1.83-.22-.81-.1-1.63-.11-2.45-.14-3.03-.11-6.03-.12-9.06-.07-5.93,.1-11.86,.21-17.79,.28-11.81,.14-23.6,.32-35.39-.52-3.29-.24-6.58-.55-9.86-.94s-6.68-1.01-10.02-.98c-.06,0-.09,1.05,.03,1.13,2.05,1.37,4.02,2.81,6.27,3.83s4.78,1.7,7.31,1.98c0,0,0-.07,0-.07h0Z"/><path class="cls-3" d="M524.41,381.2c.63-.36,.93,.68,.57,1.15-.19,.25-.54,.33-.83,.38-.89,.16-1.91-.1-2.79-.18-2.19-.21-4.39-.42-6.58-.62-4.3-.39-8.62-.65-12.93-.98,0,0,0,.07,0,.07,5.52,.5,11.04,1.04,16.57,1.44l4.08,.29c.73,.05,2.09,.32,2.55-.47,.33-.57-.05-1.12-.64-1.26-.01,0,0,.18,0,.18h0Z"/><path class="cls-3" d="M461.86,380.62l-11.19-2.98v.41c21.95,3.44,44.4,3.2,66.55,2.62,6.32-.17,12.63-.51,18.94-.85,.02,0,.01-.35,0-.34-22.22,.35-44.45,1.3-66.66-.18-6.28-.42-12.57-.97-18.82-1.65,0,0-.04,.4,.01,.41l11.19,2.64s0-.07,0-.07h0Z"/><path class="cls-3" d="M514.7,404.89c-.57-.58-1.15-.17-1.47,.46-.41,.8-.24,1.82-.21,2.67,.1,3,.29,6,.57,8.99,.57,6.13,1.5,12.22,2.73,18.25,2.51,12.2,6.78,24.07,11.9,35.4,2.97,6.56,6.34,12.92,10.13,19.05l.16-8.29c-1.91-2.31-3.63-4.83-5.31-7.32s-3.19-4.82-4.61-7.34c-2.81-4.96-5.09-10.16-6.97-15.54-.44-1.27-.86-2.55-1.25-3.83s-.8-2.78-1.03-3.73c-.32-1.31-.61-2.62-.88-3.94-.13-.66-.26-1.32-.38-1.98-.06-.33-.12-.66-.17-.99-.03-.2-.07-.39-.1-.59,.09,.56,.1,.57,0,.04-.1-.66-.19-1.31-.27-1.97-.03-.26-.06-.53-.09-.79l-.04-.4c.09,.88,.09,.82-.01-.18-.13-1.42-.39-2.97-.31-4.39,0,.14,.06,1.37,.02,.33-.01-.4-.03-.8-.04-1.21-.02-.67-.03-1.34-.04-2.01-.02-1.03-.01,.14,0,.29-.02-.4,0-.81,.01-1.21,.01-.81,.04-1.62,.08-2.43,.01-.27,.03-.54,.04-.81,.03-.57,.03-.54,0,.1,.01-.2,.03-.41,.04-.61,.05-.74,.11-1.49,.19-2.23,.19-1.77,.43-3.51,.49-5.29,.17-4.7-.47-9.2-2.82-13.08-.74-1.22-1.52,1.63-1.54,1.78-.75,3.65-.44,7.58-.23,11.29,.17,3.02,.38,6.03,.73,9.03,.67,5.89,1.7,11.7,3.07,17.46,2.43,10.22,6.07,20.21,10.8,29.59,1.3,2.58,2.69,5.12,4.17,7.61s2.96,5.14,4.91,7.37c1.39,1.59,2.15-3.79,2.18-4.05,.26-2.79,.19-6-1-8.6-.19-.41-.37-.85-.74-1.14-.61-.48-.83-.22-1.66,.06l.43,.39c-.19-.3-.38-.59-.57-.89-.39-.61-.66-.08-.8,.39-.26,.88-.23,2-.03,2.89,.09,.4,.2,1.96,.5,2.21-.14-.12,0-2.3-.06-.82-.11,2.65,.13,5.25,.87,7.8l2.07-10.9c-2.43-4.36-5.28-8.46-7.62-12.89s-4.28-8.7-6.04-13.21c-.21-.54-.41-1.08-.62-1.62-.27-.69,.21,.59-.04-.11-.1-.27-.2-.54-.29-.82-.41-1.16-.81-2.32-1.19-3.49-.76-2.34-1.46-4.7-2.09-7.07-.3-1.12-.57-2.24-.84-3.37-.25-1.02-.01,.01,.04,.18-.08-.27-.13-.57-.19-.85-.16-.71-.31-1.41-.45-2.12-.49-2.41-.92-4.83-1.27-7.27-.04-.29-.08-.57-.12-.86-.03-.23-.16-1.5-.06-.43,.09,.99,0,.03-.02-.22-.04-.36-.09-.72-.13-1.07-.16-1.36-.29-2.73-.4-4.09-.06-.72-.11-1.44-.16-2.16-.07-.94,.08,1.52,.03,.58-.02-.36-.04-.72-.05-1.08-.12-2.63-.19-5.21-.77-7.8l-.87,11.56c.47-.06,.9-.07,1.34,.13l-.62-.7c.31,.75,0-.24-.01-.34-.07-.44-.08-.9-.09-1.33,.04,1.22,.05-1.28,0-.06,0-.12,.1-1.13,0-.28-.15,1.4-.28,2.8-.4,4.21-.28,3.33-.39,6.66-.39,10,0,6.26,.57,12.49,1.57,18.67,1.81,11.24,5.43,22.19,11.23,32.02,1.51,2.57,3.15,5.09,4.97,7.46s3.78,4.27,5.81,6.33c.65,.66,.76-2.77,.77-3.02,.01-1.1-.02-2.21-.15-3.31-.07-.6-.09-1.46-.46-1.96-6.08-8.42-11.35-17.54-15.14-27.22-3.95-10.1-6.88-20.68-8.55-31.4-.47-3.03-.85-6.08-1.13-9.13-.14-1.51-.25-3.02-.34-4.53-.05-.78-.4-5.02,1.35-4.18,0,0,0-.06,0-.07h0Z"/><path class="cls-3" d="M516.46,403.12c-.04-1.24-.37-2-1.29-2.83-.11-.1-.16,.16-.17,.22-.38,2.17,.21,4.51,.12,6.71-.15,3.47,.37,7.11,.91,10.53,.91,5.77,2.15,11.49,3.74,17.12,3.04,10.77,7.28,21.21,12.61,31.06,1.16,2.14,2.43,4.24,3.96,6.14,.65,.81,1.37,1.59,2.16,2.27s2.04,1.83,3.08,1.63c1.89-.35,2.28-3.8,2.37-5.2,.19-2.77-.35-6.21-2.18-8.42-.66-.79-1.73-1.24-2.53-1.91-.89-.74-1.68-1.6-2.4-2.5-1.23-1.55-2.33-3.52-3.41-5.5-1.32-2.42-2.57-4.88-3.76-7.37s-2.24-4.87-3.26-7.35c-.45-1.1-.89-2.21-1.32-3.32-.27-.69-.53-1.38-.79-2.07-.1-.27-.21-.55-.31-.82-.31-.82,.1,.31-.22-.6-1.95-5.48-3.62-11.06-5.02-16.71-.64-2.59-1.28-5.18-1.89-7.77-.17-.72-.35-1.31-.7-1.96-.21-.4,.13,.41-.06-.08-.12-.31-.18-.65-.24-.98-.13-.64-.23-1.28-.34-1.92-.05-.32-.05-.96-.33-1.2l.04,1.6c.78-.67,1.17,.75,1.24,1.25,0,.04,.01,0,.01-.02h0Z"/><path class="cls-3" d="M521.56,408.11c-1.42-1.56-2.82-3.65-3.33-5.67-.24-.96-.55,.27-.58,.6-.27,3.34,.67,6.87,1.28,9.86s1.4,5.82,2.2,8.7c1.4,5.04,3.08,10.06,4.93,14.96,3.65,9.63,7.91,19.06,13.53,27.72,1.56,2.4,3.14,5.18,5.27,7.11,1.56,1.41,3.78,2.09,5.8,2.36,.62,.08,.74-1.83,.76-2.09,.06-1.05,0-2.22-.46-3.18l.49,2.19c-.03-.29-.06-.57-.11-.85-.07-.39-.15-.75-.29-1.12-.3-.8-.73-1.56-1.08-2.34-.68-1.5-1.46-2.94-2.2-4.41-1.32-2.62-2.88-4.97-4.61-7.33-2.64-3.6-5.24-7.87-7.45-11.98-4.62-8.58-8.24-17.7-11.45-26.89-.86-2.47-1.76-4.94-2.65-7.4-.82-2.28-1.6-4.56-3-6.55l-.24-.11-.11,.02,.34,5.63c1.8-1.31,2.09-.4,2.93,.95,.02,.03,.05-.12,.01-.16h0Z"/><path class="cls-3" d="M523.9,405.84c-1.09-1.36-2.86-3.01-3.3-4.72-.21-.83-.39,.88-.36,1.1,.36,2.55,1.59,5.1,2.5,7.49s1.83,4.77,2.79,7.14c1.93,4.75,3.93,9.46,6.08,14.11,4.13,8.91,8.93,17.74,15,25.49,3.14,4.01,6.84,7.56,11.17,10.24,.31,.19,.25-1.25,.08-1.47-6.32-8.07-12.6-16.29-17.94-25.06-5.03-8.26-9.27-17.01-13.19-25.84-1.09-2.46-2.16-4.93-3.25-7.39-.51-1.15-.98-2.31-1.52-3.44-.3-.63-.86-2.42-1.55-2.65l.11,1.77c.49-.41,3.01,2.87,3.37,3.28,0,0,.01-.05,0-.07h0Z"/><path class="cls-3" d="M531.11,406.49c-.74-1.54-1.84-2.33-3.05-3.45-.09-.08-.09,.39-.08,.43,.96,5.05,2.95,10.01,4.77,14.8s3.8,9.62,5.98,14.31,4.5,8.98,6.98,13.34c2.34,4.1,4.93,8.16,7.97,11.77,.74,.88,1.5,1.81,2.33,2.62,.5,.48,1.51,1.6,2.21,1.72,1.38,.24,1.16-2.61,.5-2.44-.32,.08-.26,1.21-.02,1.36l.09,.07-.06-.99c.06-.32-.73-1.39-.9-1.74-.28-.57-.56-1.14-.85-1.7-.57-1.14-1.21-2.24-1.84-3.34-1.15-2.02-2.36-3.99-3.53-5.99-2.16-3.68-4.44-7.29-6.61-10.96-4.15-7.02-8.06-14.26-11.56-21.63-.98-2.07-1.9-4.16-2.83-6.25-.78-1.77-1.43-3.78-2.54-5.37v.57c1.33,.26,2.46,1.84,3.04,2.94,0,.02,.02-.05,0-.06h0Z"/><path class="cls-3" d="M535.05,408.18c-1.03-1.66-2.64-2.57-3.84-4.04-.14-.17-.24,.34-.24,.36-.6,3.94,1.51,8.06,3,11.58,1.73,4.08,3.61,8.09,5.65,12.02,3.82,7.35,8.16,14.71,13.42,21.13,2.55,3.11,5.58,6.03,9.67,6.75l.08-.04c.45-.55,.84-2.38-.2-2.52-.23-.03-.13,.85-.02,.95-.14-.14-.21-.6-.35-.79-.13-.18-.35-.34-.51-.5-.34-.34-.66-.69-1-1.02-.74-.74-1.52-1.43-2.24-2.18-1.27-1.31-2.6-2.55-3.8-3.93-2.39-2.74-4.56-5.6-6.6-8.61-4.34-6.41-8.25-13.14-11.65-20.09-.95-1.95-1.87-3.91-2.74-5.9-.96-2.18-2.04-4.28-2.29-6.69l-.19,.99c1.49-.42,3.09,1.49,3.86,2.57,.01,.02,.02-.05,0-.06h0Z"/><path class="cls-3" d="M536.74,410.43c-.91-1.23-1.9-2.25-2.51-3.69-.23-.55-.54,.03-.63,.29-.21,.66-.14,1.46-.03,2.13,.93,5.41,3.69,10.45,6.19,15.28,2.27,4.39,4.84,8.69,7.59,12.8,2.66,3.99,5.35,8.04,8.46,11.7,2.57,3.03,5.6,5.87,9.27,7.47,1.27,.55,1.49-5.35,.09-5.34-.38-.01-.61-.19-.7-.55-.22-.41-.4,.13-.46,.31-.15,.45-.08,1.1,.07,1.54,.16,.5,.33,.91,.33,1.43l1.19-2.37c-2.48-4.87-5.28-9.59-8.44-14.06-2.66-3.76-5.51-7.37-8.16-11.14s-5.04-7.29-7.6-10.9c-1.23-1.73-2.4-3.51-3.66-5.22-.66-.9-1.33-1.78-2.04-2.65-.45-.55-.97-1.1-1.74-.97l.22,3.45c.89-.98,1.82-.13,2.55,.53,0,0,.01-.05,0-.06h0Z"/><path class="cls-3" d="M542.94,410.38c-1.59-.93-1.63-.84-2.37-3.33-.3-1.01-.97-1.39-1.41-.25-.53,1.37-.48,3.26-.16,4.66,2.01,8.93,7.02,17.05,12.22,24.49,2.57,3.67,5.27,7.25,8.02,10.79,1.22,1.57,2.39,3.35,3.93,4.63,.88,.73,2.94,2.23,4.16,1.75,.84-.33,.94-1.61,1.03-2.37,.15-1.39,.04-2.81-.35-4.16-1.36,.73-1.85,1.59-1.46,2.57,.08,.16,.11,.33,.07,.51l1.81-.04c0-3.17-1.55-6.26-3.03-9-1.18-2.19-2.65-4.08-4.24-5.99-2.61-3.15-5.18-6.35-7.64-9.62s-4.8-6.51-7-9.9c-1.06-1.62-2.11-3.26-3.14-4.9-.91-1.46-1.89-3.08-3.29-4.1l.62,6.02c.68-2.71,.69-2.26,2.24-1.71,0,0,.01-.06,0-.07h0Z"/><path class="cls-3" d="M544.62,407.06c-.2-.22-.39-.43-.59-.65-.49-.51-.86-1.11-1.1-1.8-.21-.54-.36-.54-.65-.11-.33,.49-.18,1.62-.07,2.15,.33,1.67,.68,3.06,1.51,4.55,.57,1.03,1.17,2.03,1.82,3.02,1.31,1.97,2.67,3.9,4.06,5.82,2.58,3.55,5.37,6.97,8.13,10.38,2.58,3.18,5.15,6.37,7.6,9.66,1.27,1.71,2.57,3.15,4.22,4.48,.61,.49,1.13,.85,1.81,1.21,.55,.29,1.13,.99,1.78,.88,.96-.17,.9-2.36,.88-3.04,0-.29-.27-3.3-1.03-2.99l-.88,.36c-.48,.2-.32,1.23-.26,1.62l.31,1.86,1.68-2.37c-.61-2.6-1.76-5.19-2.92-7.59-1.07-2.22-2.17-4.41-3.71-6.34-2.43-3.07-4.99-6.04-7.56-8.99s-5.31-5.94-8.02-8.87c-1.34-1.45-2.75-2.87-4.23-4.17-.65-.56-1.28-1.18-1.97-1.69-.31-.23-.66-.42-1-.63-.65-.41-.77-.63-1.5-.27l.85,5.71c.3-.71,.58-1.42,.84-2.14v-.02s0-.02,0-.03h0Z"/><path class="cls-3" d="M547.43,405.36c-.9-.75-1.25-1.05-1.87-2.37-.21-.46-.42,.16-.47,.34-.14,.53-.07,1.16,.07,1.68,1.21,4.39,4.25,8.22,7.04,11.72,2.64,3.31,5.49,6.42,8.27,9.61s5.2,6.16,7.7,9.32c1.08,1.37,2.26,2.67,3.31,4.07,.51,.67,1.02,1.33,1.56,1.97,.26,.31,.49,.63,.75,.93,.91,1.08-.34-.33-.02-.71-.28,.34-.46,1.89,.05,2.13,1.42,.66,1.49-1.24,1.52-2.25,.07-2.21-.68-4.29-1.45-6.33-1.48-3.9-3.61-7.54-6.13-10.84-4.24-5.56-9.58-10.42-14.6-15.27-1.33-1.29-2.62-2.62-3.96-3.89-.66-.62-1.27-1.24-2.02-1.76-.47-.32-1.24-1.01-1.82-.88l.16,2.51c.61-.46,1.29-.17,1.89,.1,.02,0,.02-.06,0-.07h0Z"/><path class="cls-3" d="M527.41,403.1c.32-.38-.04-.85-.31-1.17-1.06-1.25-1.3,.72-1.36,1.49-.34,4.66,.09,9.32,.8,13.92,.42,2.74,4.24,22.83,9.77,17.37,.26-.25,.33-1.72-.12-1.83-2.48-.6-3.74-3.43-4.44-5.62-.91-2.84-1.81-5.7-2.59-8.58-.73-2.67-1.32-5.38-1.74-8.11-.2-1.31-.4-2.63-.54-3.95-.07-.65-.16-1.3-.24-1.95-.03-.27-.12-.59-.1-.85,0-.46,.15-.82,.46-1.06,.15-.19,.29-.11,.41,.25,0,.01,0,.07,0,.07h0Z"/><path class="cls-3" d="M520.4,395.26c-1.29-.5-2.49-1.15-3.57-2.01-.43-.34-.86-.71-1.22-1.12-.4-.45-.52-1.07-1.13-1.1-1.65-.08-2.31,1.81-2.62,3.05-1.26,5.07-1.72,10.45-1.9,15.65-.21,5.83,.07,11.75,.87,17.53s1.89,11.92,3.97,17.54c.9,2.44,1.91,5.09,3.49,7.19,1.24,1.63,2.81,3.32,4.96,3.53,.5,.05,.24-1.9,.11-2.13-2.42-4.4-4.63-8.82-6.12-13.63-.72-2.34-1.41-4.68-2.07-7.04s-1.1-4.04-1.55-6.19c-1.86-8.94-2.36-18.01-1.45-27.45,.13-1.31,.19-2.68,.5-3.97,.21-.9,.65-2.66,1.6-3.05s2.31,1.34,3.05,1.82c.96,.63,2,1.09,3.09,1.45,0,0,.02-.06,0-.07h0Z"/><path class="cls-3" d="M510.18,401.48c-.54-1.13-1.08-2.26-1.6-3.4-.05-.12-.08,.17-.08,.19,.21,4.61,1.03,9.28,1.69,13.85s1.49,9.54,2.51,14.26c1.93,8.92,4.4,18.07,8.9,26.07,2.1,3.74,4.9,7.35,8.7,9.48,.19,.11,.22-.85,.06-1-6.74-6.2-10.37-15.15-13.26-23.66-3.02-8.9-4.94-18.08-6.51-27.33-.42-2.5-.84-5-1.24-7.5-.2-1.23-.69-2.68-.64-3.92-.02,.67,1.05,2.21,1.48,3.01,0,.02,.01-.05,0-.06h0Z"/><path class="cls-3" d="M879.99,312.39c-.41,.2-.82-.23-.7-.68,.1-.39,.99-.82,1.32-1.04,.87-.56,1.75-1.1,2.64-1.64,1.65-1,3.31-1.97,5-2.9,3.53-1.95,7.09-3.82,10.74-5.52,7.23-3.37,14.77-6.25,22.49-8.29,4.64-1.23,9.39-2.01,14.2-1.79l-.06-2.26c-1.01,.25-2.03,.2-3.05,.36s-2.03,.47-3.02,.72c-2.02,.5-4.01,1.09-5.99,1.74-4.03,1.32-8.01,2.81-11.92,4.45s-7.62,3.44-11.31,5.42-7.63,4.24-11.01,7.01c-.32,.26-.16,1.42-.15,1.78,0,.14,.21,1.79,.24,1.77,.55-.38,.85-.98,1.35-1.36,.45-.33,1.1-.54,1.6-.79,.97-.49,1.97-.89,2.97-1.31,.18-.08-.04-1.1-.03-1.1-.99,.33-1.97,.68-2.98,.93-.43,.11-.94,.34-1.38,.35-.56,.02-1.01-.31-1.63-.26l.09,3.55c3.72-1.76,7.22-3.95,10.84-5.91s7.61-3.93,11.5-5.71,7.74-3.37,11.7-4.82c1.99-.73,3.98-1.43,5.98-2.15,1-.36,2.02-.68,3.01-1.05,1.1-.41,2.1-1.04,3.24-1.35,.23-.06,.08-2.26-.06-2.26-9.23-.21-18.31,3.11-26.76,6.52s-16.38,7.45-23.92,12.35c-1.08,.7-2.16,1.42-3.23,2.16-.74,.51-2.02,1.09-2.46,1.93-.34,.65-.13,1.5,.73,1.35,.03,0,0-.17,0-.18h0Z"/><path class="cls-3" d="M930.22,297.9c.94,.02,1.78,.2,2.72-.04,.8-.2,1.56-.58,2.3-.91,.14-.06,.1-1.38-.03-1.42-1.76-.43-3.48-.22-5.25,.04s-3.48,.53-5.2,.91c-3.37,.75-6.72,1.63-10.03,2.62s-6.61,2.05-9.81,3.34c-1.58,.64-3.15,1.3-4.7,2-1.72,.77-3.66,1.51-5.04,2.84-.31,.3-.15,1.39-.15,1.78,0,.18,.26,1.75,.23,1.77,1.04-.96,2.37-1.29,3.68-1.73,1.22-.41,2.46-.75,3.7-1.11,.12-.03,0-.97-.02-.97-1.24,.16-2.47,.34-3.71,.44s-2.56,.37-3.73-.18l.09,3.55c1.63-.01,3.39-1.07,4.85-1.7,1.63-.7,3.27-1.37,4.92-2.01,3.26-1.27,6.5-2.55,9.81-3.68s6.65-2.14,10.02-3.05c1.66-.45,3.3-.96,4.96-1.4,1.9-.51,3.73-1,5.43-2.02l-.06-1.39c-.94,1.59-3.08,2.92-4.97,2.16,0,0-.02,.18,0,.18h0Z"/><path class="cls-3" d="M931.23,297.05c-2.49-.9-5.35-.19-7.84,.48-2.66,.71-5.31,1.47-7.92,2.34s-5.17,1.86-7.55,3.1c-1.02,.53-2.13,1.03-3.03,1.76s-1.23,1.6-1.37,2.75c-.1,.81-.09,1.64-.04,2.45,0,.14,.19,1.63,.26,1.59,1.58-.99,3.62-1.34,5.41-1.85s3.57-1.06,5.31-1.73c.13-.05-.02-.97-.02-.97-1.75,.37-3.54,.69-5.33,.81s-3.84,.2-5.47-.6l.16,4.25c1.04-1.51,3.59-1.73,5.16-2.26,2.45-.82,4.92-1.65,7.35-2.53s4.81-1.68,7.24-2.44c2.73-.85,5.57-1.75,7.76-3.63,.33-.28,.3-3.38-.09-3.52h0Z"/><path class="cls-3" d="M926.26,305.16c-3.65,.16-7.41,.68-10.89,1.75-3.01,.93-7.02,2.13-8.85,4.92-.15,.23,0,2.43,.09,2.41,3.84-.89,7.64-1.92,11.46-2.9,1.86-.48,3.74-.88,5.63-1.25s3.89-.95,5.78-.85l-.03-1.14c-1.44,.27-2.87,.25-4.31,.38s-2.95,.26-4.43,.39c-2.96,.26-5.97,.59-8.42,2.4-.34,.25-.08,3.41,.08,3.41,3.2-.09,6.31-.73,9.47-1.12,2.99-.38,6.35-.98,9.32-.23l-.03-1.38c-2.77,1.06-5.77,.93-8.69,1.03s-6.04,.11-8.88,1.13c-.36,.13-.12,3.3,.08,3.31,2.84,.06,5.74-.44,8.56-.67,3.65-.29,7.38-.54,11.01,.1,1.05,.18,2.5,.43,3.28,1.24,.26,.27,.28,.48,.42,.81-.53-1.25,.05-1.77-.39-2.7-.21-.44-.5-.84-.73-1.26-.62-1.13-2.04-1.88-3.12-2.54-.49-.3-.98-.61-1.49-.88-.59-.3-1.19-.4-1.86-.52-1.29-.22-2.6-.35-3.9-.43-2.51-.16-5.08,.02-7.54,.52-2.69,.55-5.41,1.37-7.83,2.69-1.19,.65-2.1,1.64-3.26,2.24-1.07,.56-1.7,1.34-2.52,2.22-.34,.37-.29,2.84,.08,3.17,.42,.38,.84,.81,1.31,1.14s.98,.36,1.53,.5c1.23,.31,2.31,.98,3.67,1.09,3.02,.24,6,0,9-.34s6.15-1.04,9.28-1.17c.71-.03,1.49,.05,2.17-.08s1.35-.37,2.03-.5c.62-.11,1.28-.08,1.89-.21,.44-.1,.5-.14,.87-.48,.28-.25,.56-.55,.93-.63,.12-.03,.14-.56,.14-.57,.1-1.54,.4-3.16-.86-4.19-1.16-.96-2.94-1.19-4.38-1.37-4.4-.57-8.94-.47-13.37-.43-1.65,.01-3.35,.12-5-.06l.08,3.31c5.68-2.24,12.14-.86,17.53-4.09,.14-.09,.06-1.37-.03-1.38-3.13-.18-6.18-.45-9.33-.35s-6.37,.09-9.51-.32l.08,3.41c2.62-1.43,5.49-2.22,8.41-2.77,1.47-.28,2.96-.49,4.42-.83s2.95-1.07,4.28-1.83c.16-.09-.05-1.14-.03-1.14-1.77,.53-3.72,.58-5.54,.87-1.96,.31-3.91,.68-5.87,1-3.83,.62-7.65,1.29-11.49,1.82l.06,2.45c2.07-2.81,5.81-4.33,8.96-5.54,3.5-1.34,7.02-2.67,10.7-3.48,0,0,0-.07,0-.07h0Z"/><path class="cls-3" d="M934.15,318.78c.66-.03,1.13,.15,1.63,.57l-.02-.69c-1.16-.19-2.27-.42-3.47-.41s-2.31,.18-3.45,.28c-2.4,.22-4.76,.61-7.14,.96l-6.89,1.03c-2.42,.36-5.09,.74-7.11,2.2l.13,1.45c.02-.55,.55-.87,1.02-.97,.1-.02,.08-1.01-.03-1.03-.61-.16-1.08,.06-1.18,.69-.04,.24-.18,1.69,.1,1.79,2.14,.81,4.72,.27,6.92-.14l7.13-1.32c2.3-.42,4.61-.81,6.89-1.36,2.55-.62,4.76-1.31,7.11-2.49,.07-.04,.05-.67-.02-.69-.59-.2-1.04-.18-1.61,.05,0,0,0,.07,0,.07h0Z"/><path class="cls-3" d="M653.92,254.04c-1.24-.95-2.05-.98-3.55-.7-1.17,.22-2.33,.53-3.46,.91-2.32,.78-4.63,1.6-6.93,2.44-4.7,1.71-9.31,3.64-13.88,5.66-9.07,4.01-18.01,8.44-26.5,13.58-2.43,1.47-4.84,2.97-7.23,4.49s-5.04,3.15-7.31,5.05c-.23,.19,.13,1.08,.03,1.15,1.05-.82,2.28-1.4,3.43-2.04,.07-.04-.02-.41-.01-.41-1.12,.46-2.26,1.07-3.45,1.31l.03,1.15c2.21-.91,4.25-2.15,6.35-3.28s4.27-2.28,6.42-3.39c4.41-2.27,8.81-4.56,13.28-6.72,8.91-4.3,17.9-8.34,26.99-12.25,2.58-1.11,5.17-2.18,7.77-3.23,1.31-.53,2.59-1.11,3.88-1.68,.64-.28,1.29-.52,1.95-.74,.87-.29,1.42-.63,2.19-1.13,.02-.01,.01-.16,0-.18h0Z"/><path class="cls-3" d="M651.01,260.25c1.11-.79,2.46-1.3,3.68-1.89,.05-.02,0-.37,0-.37-.53,.11-1.02,0-1.55,.02s-1.04,.17-1.54,.25c-1.02,.17-2.05,.34-3.07,.54-2.05,.4-4.08,1.02-6.09,1.58-4.04,1.13-8.07,2.35-12.02,3.79-7.92,2.9-15.68,6.27-23.21,10.08-2.15,1.09-4.28,2.21-6.4,3.37s-4.52,2.36-6.27,4.02c-.2,.19-.09,.94-.08,1.19,0,.11,.16,1.18,.14,1.19,1.24-.97,2.88-1.51,4.31-2.16l4.32-1.98c.14-.06-.04-.89-.02-.9l-4.33,1.42c-1.35,.45-2.9,1.21-4.33,1.24l.06,2.38c1.91-.49,3.77-1.84,5.5-2.78,1.86-1.01,3.7-2.06,5.58-3.04,3.75-1.98,7.55-3.84,11.41-5.6,7.72-3.51,15.66-6.59,23.68-9.33,2.3-.79,4.62-1.51,6.94-2.25,1.1-.35,2.18-.77,3.27-1.16,.58-.21,1.17-.41,1.75-.61,.7-.24,1.26-.68,1.97-.89v-.37c-1.19,.7-2.39,1.6-3.68,2.08-.04,.01,.02,.17,0,.18h0Z"/><path class="cls-3" d="M649.81,265.15c2.32-3.68,2.32-5.84,0-6.47-.3-.11-.61-.21-.92-.29-.48-.08-.87-.05-1.36,0-1.08,.11-2.1,.26-3.16,.51-1.96,.45-3.91,.9-5.82,1.53-4.08,1.34-8.14,2.77-12.16,4.28s-7.93,3.54-11.72,5.65c-2,1.11-3.9,2.46-5.76,3.77-2.05,1.45-4.1,2.7-5.56,4.78-.19,.27-.15,1.25-.16,1.5-.03,.83-.02,1.68,.03,2.51,.02,.36,.29,2.54,.46,2.26,1.07-1.65,2.83-2.27,4.51-3.06,1.46-.69,2.9-1.4,4.39-2.02l8.57-3.55c.2-.08-.04-1.31-.03-1.31-2.94,.84-5.88,1.68-8.83,2.51-1.38,.39-2.79,.68-4.19,.99-1.5,.34-3.33,1.1-4.68,.06l.16,6.51c1.88,.7,4.14-.42,6-.91s3.78-.98,5.6-1.64c4.03-1.45,8.05-2.92,11.97-4.66s7.92-3.43,11.92-5.02c2.04-.81,4.02-1.78,6.02-2.69,2.3-1.05,4.47-2.24,5.87-4.42l-.49-4.22-.69,3.32s0,.07,0,.07h0Z"/><path class="cls-3" d="M652.08,266.7c-1.73,.06-3.48,.06-5.19,.34s-3.44,.59-5.16,.92c-3.44,.66-6.83,1.76-10.15,2.85s-6.6,2.37-9.79,3.87-6.6,3-9.23,5.24c-.51,.43,.26,3.64,.09,3.71,1.59-.67,3.1-1.36,4.74-1.94s3.13-1.13,4.7-1.7c3.12-1.12,6.19-2.38,9.2-3.75,.12-.05-.05-.75-.02-.76-3.03,1.11-6.11,2.1-9.22,2.95-1.48,.41-2.97,.74-4.49,1.02-.82,.16-1.66,.34-2.49,.44s-1.67,0-2.51,.02l.09,3.71c1.58-.71,3.03-1.76,4.54-2.62s3.11-1.69,4.7-2.46c3.19-1.55,6.47-2.96,9.78-4.24s6.77-2.34,10.14-3.57c1.63-.6,3.28-1.18,4.92-1.74,1.83-.62,3.58-1.47,5.36-2.23,0,0,0-.07,0-.07h0Z"/><path class="cls-3" d="M654.42,270.34c-1.3,.6-2.84,.85-4.22,1.23s-2.82,.75-4.23,1.14c-2.84,.78-5.64,1.77-8.44,2.67l-8.21,2.63c-2.04,.65-4.22,1.44-5.38,3.37-.07,.11,.04,1.09,.04,1.08,4.07-1.4,8.19-2.6,12.32-3.83,.04-.01,0-.28,0-.28-4.1,1.05-8.19,2.12-12.34,3l.03,1.1c1.21-1.86,3.4-2.35,5.37-3.02l8.44-2.87c2.73-.93,5.51-1.77,8.2-2.83l3.98-1.56c1.44-.56,2.94-1.35,4.45-1.65,.03,0-.01-.17,0-.18h0Z"/><path class="cls-3" d="M656.67,274.36c-10,1.94-19.87,4.79-29.01,9.35-.11,.05-.07,1.06,.03,1.13,1.28,.87,3.03-.14,4.15-.85,.07-.05-.04-.4-.01-.41-1.4,.73-2.84,1.26-4.17,.14l.03,1.13c9.54-3.82,19.08-7.61,28.98-10.41,0,0,0-.07,0-.07h0Z"/><path class="cls-3" d="M657.21,277.11c-5.02,.53-9.81,1.55-14.6,3.13-2.34,.77-4.65,1.62-6.91,2.59s-4.83,2.07-6.87,3.56c-.17,.12,.04,1.41,.03,1.41,1.74-.4,3.5-.59,5.26-.82,.04,0,.02-.48-.01-.48-1.77,0-3.52,.06-5.29-.11l.03,1.41c2.28-.81,4.47-2.09,6.67-3.1,2.34-1.07,4.7-2.08,7.11-2.98,4.75-1.77,9.66-3.28,14.56-4.54,0,0,0-.07,0-.07h0Z"/><path class="cls-3" d="M656.71,279.51c-.92,.21-1.9,.25-2.84,.44s-1.89,.43-2.82,.7c-1.88,.55-3.74,1.13-5.6,1.75-3.72,1.23-7.42,2.56-10.99,4.18-.24,.11,.08,1.63,.04,1.64,5.43-1.56,10.77-3.65,15.78-6.27,.06-.03-.03-.34,0-.34-5.07,2.36-10.3,4.03-15.82,4.97l.04,1.64c3.66-1.45,7.29-2.98,10.99-4.36,1.85-.69,3.72-1.35,5.59-1.98,.95-.32,1.88-.66,2.82-1.02s1.87-.87,2.82-1.18c.02,0,0-.18,0-.18h0Z"/><path class="cls-3" d="M657.3,281.35c-6.28,1.55-12.25,3.81-17.91,6.95-.15,.09,.04,1.24,.03,1.24l7.11-1.39s0-.42-.01-.41l-7.13,.57,.03,1.24c5.68-3.24,11.69-6.02,17.89-8.12,0,0,0-.07,0-.07h0Z"/><path class="cls-3" d="M660.6,283.81c-.76,.42-1.72,.56-2.55,.81s-1.68,.53-2.52,.82c-1.56,.54-3.1,1.14-4.61,1.8-3.15,1.36-6.4,2.95-8.99,5.24-.12,.1,.02,1.08,.03,1.08,.95-.22,1.89-.39,2.85-.53,.03,0,.01-.41-.01-.41-.97,0-1.91-.05-2.87-.14l.03,1.08c1.57-.77,3.03-1.79,4.55-2.66s2.93-1.77,4.44-2.6,3.04-1.59,4.6-2.31c.83-.38,1.67-.75,2.51-1.1,.79-.33,1.69-.83,2.55-.91,.03,0,0-.17,0-.18h0Z"/><path class="cls-3" d="M659.4,285.35c-11.32,4.34-22.65,10.12-34.88,11.26-.05,0-.02,.62,.02,.62,6.18,.04,12.14-1.14,17.93-3.25s11.51-5.27,16.94-8.56c.01,0,0-.07,0-.07h0Z"/><path class="cls-3" d="M634.42,264.51c.39-.31,.51-.7,.43-1.18-.35-2.29-3.24-1.32-4.66-.88-4.67,1.43-9.25,3.1-13.8,4.85-9.2,3.53-18.24,7.48-27.08,11.82-5.03,2.47-10.1,4.95-14.84,7.94-.06,.04,.03,.33,0,.34,3.96-1.91,7.8-4.07,11.72-6.05s7.94-3.91,11.96-5.75c7.98-3.64,16.1-6.96,24.35-9.95,2.34-.85,4.69-1.7,7.03-2.55,1.07-.39,2.25-.97,3.4-1,.47-.01,.96,.06,1.34,.36,.57,.46,.72,1.49,.14,1.99-.01,.01,0,.06,0,.07h0Z"/><path class="cls-3" d="M616.2,268.65c.2-.31,.45-.5,.84-.51,.86,0,.21,.27-.2,.44-1.19,.48-2.42,.87-3.63,1.31-2.28,.83-4.54,1.67-6.79,2.57-4.74,1.9-9.47,3.83-14.18,5.79-9.35,3.9-18.64,7.94-27.88,12.11l.05,1.22c.2-.75,.79-1.19,1.56-1.06,0,0,.11-.85-.02-.9-.73-.26-1.39,.01-1.6,.76-.03,.12,.02,1.23,.05,1.22,17.61-8.15,35.51-15.58,53.36-23.17,.01,0,0-.17,0-.18-.56-.42-1.2-.26-1.55,.32-.01,.02,.01,.06,0,.07h0Z"/><path class="cls-3" d="M815.29,368.68c.62,.29,1.23,.66,1.91,.78,.61,.1,1.28,.06,1.9,.05,1.37-.02,2.68-.19,4.03-.38,2.61-.36,5.22-.67,7.86-.75s5.12-.04,7.67-.21,5.29-.32,7.93-.44c10.54-.44,21.09-.45,31.64-.77,2.89-.09,5.77-.19,8.66-.35,1.46-.08,2.93-.17,4.38-.36,.63-.08,1.49-.08,2.04-.43,.19-.12,.39-.39,.53-.57,.66-.87,.84-1.81,1.63-2.64,.14-.15,.16-1.51-.04-1.59-.85-.33-1.13-1.21-1.83-1.74-.57-.44-1.17-.18-1.82-.07-1.29,.22-2.6,.36-3.91,.46-2.62,.21-5.25,.35-7.88,.49-5.23,.27-10.46,.45-15.7,.64s-10.46,.41-15.69,.73-10.61,.67-15.83,1.72c-2.85,.57-5.7,1.1-8.56,1.64-1.52,.29-3.04,.54-4.49,1.05-.72,.25-1.42,.52-2.11,.84-.93,.44-1.58,1.11-2.32,1.81,0,0,0,.07,0,.07h0Z"/><path class="cls-3" d="M921.76,360.84c-.81-.09-1.52-.53-2.34-.66,0,0-.03,.32,0,.35,1.73,1.21,3.69,1.12,5.75,1.04,2.37-.09,4.75-.25,7.12-.37,6.52-.33,13.01-.86,19.51-1.46s12.65-1.06,18.95-1.82,12.44-1.77,18.69-2.48c3.41-.39,6.86-.75,10.29-.79,1.67-.02,3.31,.25,4.97,.46,1.8,.23,3.72,.63,5.31-.39,.23-.15,.08-1.42,.07-1.67,0-.16-.2-1.63-.15-1.67-.52,.37-1,.78-1.49,1.18-.08,.07-.06,.9,.02,.97,.5,.42,1,.82,1.55,1.18l-.08-3.34c-1.46-.71-3.06-.65-4.66-.87-1.5-.2-3.01-.42-4.53-.47-3-.1-6.07,.32-9.05,.66-6.26,.73-12.46,1.83-18.69,2.75-12.72,1.87-25.58,2.71-38.32,4.46-2.95,.4-5.79,.84-8.68,1.55-1.24,.31-2.49,.61-3.75,.75-.8,.09-2.1,.35-2.83-.04v.35c.81,0,1.59,.2,2.34,.49,0,0,.02-.17,0-.18h0Z"/><path class="cls-3" d="M1191.42,269.72c.67-.32,.19-1.46-.25-1.75v.02c-.7,1.41-.48,3.06-.45,4.58,.05,2.47-.91,3.69-2.94,4.88-1.5,.88-3.17,1.47-4.78,2.11-2.06,.82-4.09,1.69-6.15,2.53s-4.15,1.77-6.3,2.3c-1.98,.49-4,.74-6.03,.95-4.42,.47-8.84,1.24-13.22,2l.54,13.94c1.26-1.72,1.24-3.97,2.43-5.7,.38-.56,.14-2.12,.12-2.73-.01-.37,.09-1.96-.3-2.15-1.41-.66-1.23-2.77-2.78-3.36-.45-.17-.59,6.6-.58,7.12s.41,7.24,.93,7.08c4.73-1.43,9.33-3.42,13.56-5.98,2.24-1.36,4.44-2.85,6.8-4,2.11-1.03,4.19-2.1,6.25-3.23s4.11-2.43,6.09-3.81c1.66-1.16,3.41-2.4,4.67-4.02,1.06-1.36,1.78-3,1.94-4.72,.09-.99,.07-2,.02-3-.03-.52-.09-1.04-.1-1.56-.21-.91-.04-1.67,.53-2.27,.3,.1,.31,.33,.01,.7,0,0,0,.07,0,.07h0Z"/><path class="cls-3" d="M1149.74,297.86c-.06-.54-.05-.64,.03-.3,.11,.39,.22,.78,.32,1.17,.07,.28,.15,.55,.24,.82,.21,.7,.43,1.4,.61,2.11,.33,1.28,.61,2.58,.84,3.88,.19,1.07,.35,2.15,.49,3.23,.03,.23,.06,.47,.08,.7,0,.04,.07,.66,.03,.3,.03,.31,.06,.63,.09,.94,.02,.19,.02,.21,0,.05,.01,.12,.02,.24,.03,.36,0,.07,.17,1.24,.24,.59,.38-3.4,.08-7.03-.61-10.37-.24-1.15-.6-2.28-1.05-3.37-.38-.91-.75-1.76-1.45-2.47,.01,.01-.07,.76-.07,.85,0,.12-.04,.79,.11,.85,.02,.22,.03,.44,.03,.67,0,.13,.02,.07,.02-.02h0Z"/><path class="cls-3" d="M1151.28,306.96c-1.27-.2-2.45,.51-3.63,.98-1.33,.52-2.66,.99-4.01,1.43-2.43,.78-4.8,1.77-7.18,2.71-2.55,1-5.1,1.95-7.51,3.25s-4.73,2.66-7.03,4.13c-9.75,6.23-19.09,13.27-28.25,20.32-5.25,4.04-10.44,8.15-15.58,12.33-.55,.45-.6,1.53-.68,2.13-.21,1.67-.23,3.43-.18,5.11s.11,3.42,.43,5.09c.04,.22,.43,2.3,.78,2.09,.94-.54,1.08-1.47,1.41-2.46,.45-1.34,.8-2.69,1.44-3.96,.38-.75,.25-1.97,.21-2.77-.03-.53,.06-1.83-.44-2.17-.61-.42-1.6-2.23-2.29-3.04l-.28-.25-.41,.23,.35,14.42c9.07-7.37,18.31-14.52,27.67-21.51,9.71-7.25,19.76-13.99,28.61-22.3,2.74-2.57,5.55-5.07,8.25-7.67,1.31-1.26,2.59-2.54,3.95-3.74,1.53-1.35,3.2-2.59,4.36-4.27,0,0,0-.07,0-.07h0Z"/><path class="cls-3" d="M1081.61,359.02c.52,.12,.38-.89-.14-.98l-.02,.02c-.31,.38-.06,1.53,.23,1.86v-1.87c-.3,.12-.5,.31-.81,.4-.29,.09-.65,0-.91,.07-.69,.18-1.27,1.1-1.64,1.69-1.33,2.09-2.39,4.4-3.43,6.64-1.11,2.38-2.23,4.76-3.38,7.12-.57,1.19-1.41,2.46-1.72,3.74-.55,2.29-.45,4.84-.34,7.17,.08,1.79,.15,3.72,.71,5.45,.04,.12,.41,1.5,.8,.71,.55-1.14,.64-2.42,.72-3.67,.13-2.04,.08-4.12-.09-6.16-.09-1.1-.1-2.58-.75-3.51-.08-.14-.15-.14-.22,0-.18,.23-.24,.11-.19-.35,.05-.48-.03-.59-.21-.33-.13,.13-.26,.26-.38,.39l.89,13.87c2.12-4.33,4.1-8.78,5.93-13.23,.98-2.39,1.94-4.79,2.72-7.26,1.14-3.57,1.66-7.3,2.41-10.97,.03-.16,.05-1.83-.12-1.77-.08,.07-.15,.07-.21,0l.11,.36c.2,.2,.22,.38,.04,.54,0,0,0,.07,0,.07h0Z"/><path class="cls-3" d="M474.12,321.06c.02-1.9-.89-3.02-2-4.49,.01,.02-.19,.84-.03,1.09,1.15,1.75,2.64,2.94,4.22,4.31,1.33,1.15,2.62,2.34,3.87,3.57,2.6,2.55,5,5.29,7.23,8.16s4.24,5.75,6.12,8.77c2.29,3.68,3.63,8.07,5.15,12.11l.22-12.41c-1.45,1.01-2.65,2.29-3.95,3.49l.28-.26c-1.68,1.53-3.41,3-5.2,4.4-1.96,1.53-3.58,3.4-5.22,5.27-3.43,3.91-7.65,7.32-11.74,10.5-.53,.41-.3,4.28,.1,4.21,2.44-.46,4.86-1.02,7.25-1.69,1.17-.33,2.33-.7,3.48-1.11s2.31-.59,3.38-1.06c2.41-1.05,4.27-2.74,6.22-4.48,2.14-1.92,4.33-3.85,5.99-6.21,.44-.62,.41-1.68,.48-2.4,.13-1.34,.16-2.69,.12-4.04-.04-1.12-.1-2.24-.22-3.35-.08-.74-.19-2.35-.69-3.04-1.57-2.18-3.75-3.88-5.27-6.06-1.94-2.77-4.06-5.39-6.38-7.84s-4.81-4.75-7.4-6.92c-1.31-1.1-2.67-2.16-4.05-3.18-.55-.41-1.12-.79-1.69-1.16-.31-.2-.64-.47-.98-.63-.49-.23-.8-.12-1.31-.07l.03,1.13c1.45-.03,2.06,2.29,1.97,3.32,0,.06,.03,.21,.03,.07h0Z"/><path class="cls-3" d="M339.83,350.42c8.44,2.45,16.97,4.59,25.58,6.41,4.34,.92,8.69,1.75,13.06,2.51s8.59,1.71,12.91,2.47c2.23,.39,4.47,.77,6.72,1.12,1.04,.16,2.08,.32,3.12,.47,.51,.07,1,.25,1.44,0s.65-.94,.73-1.42c.04-.23,.03-.49,0-.72-.09-.49-.33-1.19-.73-1.51-.43-.35-.72-.29-1.28-.31-2.24-.07-4.47-.16-6.7-.27-4.3-.22-8.6-.51-12.89-.89s-8.73-1.12-13.06-1.84c-9.7-1.62-19.33-3.66-28.87-6.09,0,0-.01,.07,0,.07h0Z"/><path class="cls-3" d="M364.06,356.02c-.67,.44-.92-1.17,.18-1.24,.61-.04,1.24,.37,1.76,.63,1.25,.62,2.5,1.22,3.78,1.77,2.54,1.11,5.14,2.08,7.79,2.91,5.37,1.68,10.92,2.61,16.44,3.6s11.21,2.01,16.62,3.81,10.07,4.11,14.76,6.84c2.86,1.66,5.75,3.52,8.12,5.85,2.55,2.5,4.84,5.33,7.73,7.46,.33,.24,.68-2.46,.64-2.09,.2-1.64,.21-3.36,.16-5.01s-.11-3.36-.41-4.99c-.11-.58-.15-1.74-.74-2.05l1.1,4.73c-.12-.89-.24-1.78-.36-2.68-.1-.51-.16-1.39-.47-1.81-.37-.5-1.23-.71-1.78-.9-1.31-.45-2.63-.71-3.99-.96-2.72-.51-5.23-1.38-7.76-2.51-5.43-2.43-10.85-4.73-16.67-6.07-6.12-1.4-12.41-1.71-18.66-2.15s-12.31-1.36-18.25-3.13c-1.73-.51-3.44-1.09-5.13-1.73-.7-.27-1.4-.54-2.09-.83s-1.61-.87-2.4-.87c-1.06,0-1.51,1.35-.36,1.59,.03,0,0-.18,0-.18h0Z"/><path class="cls-3" d="M408.09,366.89c5.25,4.14,10.27,8.69,16.4,11.54,2.8,1.3,5.74,2.3,8.52,3.67,1.3,.64,2.58,1.24,3.97,1.62,1.31,.35,2.72,.62,3.95,1.19,0,0,.18-1.19,0-1.36-2.5-2.27-4.49-5.08-7.63-6.53-2.83-1.31-5.82-2.21-8.71-3.36s-5.54-2.14-8.23-3.42-5.56-2.24-8.26-3.53c0,0-.03,.15,0,.18h0Z"/><path class="cls-3" d="M450.65,383.88c-.48-.47-.89-1.01-1.31-1.53v1.16c1.12,.62,2.58,.75,3.82,1.01,1.11,.24,2.23,.5,3.35,.68,2.38,.4,4.8,.63,7.2,.87,4.82,.49,9.65,.76,14.5,.85,.03,0,.05-.55-.01-.55-4.86-.41-9.7-1-14.52-1.75-2.41-.38-4.8-.87-7.21-1.28-1.11-.19-2.23-.33-3.34-.51-1.19-.19-2.61-.68-3.8-.5-.12,.02-.11,1.13,.03,1.18,.46,.16,.89,.29,1.31,.54,0,0,.03-.15,0-.17h0Z"/><path class="cls-3" d="M498.21,371.13c-.68-2.14,.44-3.73,1.33-5.41,.02-.04,.03-.3-.01-.33-.86-.47-.8-1.86-.86-2.76-.08-1.14-.24-2.25-.45-3.37l-.39,10.29c.3,1.41,.68,2.42,1.5,3.58,.53,.76,1.08,1.5,1.65,2.24,1.12,1.45,2.29,2.85,3.52,4.21,2.52,2.78,5.3,5.31,8.28,7.59,5.76,4.41,12.55,8.31,19.6,10.24,.65,.18,.68-6.67,.66-7.21-.05-1.69-.1-3.41-.37-5.08-.04-.22-.33-2.24-.65-2.09l-.31,.14c-.45,.2-.5,1.81-.52,2.01-.12,1.3-.14,2.61-.12,3.92,.01,1.45,.05,2.9,.2,4.34,.1,.98,.09,2.23,.56,3.12-1.12-5.28-1.39-6.65-.81-4.11,.21,.78,.34,1.57,.41,2.37,.14,.85,.31,1.58,.71,2.35l-.12-14.13c-5.91-2.16-11.5-4.6-16.73-8.15s-9.75-7.71-13.72-12.47l.21,.25c-1.16-1.4-2.25-2.85-3.29-4.34l-.2-.25-.21,.05c-.86,.19-.56,5.32-.55,5.77,.02,2.37-.04,4.99,.68,7.26h0Z"/><path class="cls-3" d="M478.25,382.75c-.42-.49-1.47-1.33-1.49-2.03l-.64,6.44c4.23-1.2,8.28-3.03,12.32-4.78l12.3-5.36-.35-14.23c-4.21,1.88-8.29,4.01-12.22,6.42-1.66,1.02-3.73,2.03-4.84,3.71-.84,1.28-.84,3.13-.91,4.57-.17,3.48-.08,7.11,.64,10.52,.01,.41,.17,.73,.47,.97,6.75-2.09,13.51-4.18,20.26-6.28l-.35-14.42c-4.22,2.96-8.43,5.94-12.1,9.57-1.37,1.35-.62,14.55,.35,14.42,4.82-.63,9.41-2.24,13.56-4.76,.49-.3,.53-1.79,.56-2.13,.17-1.68,.18-3.42,.13-5.1-.02-.52-.44-7.39-1.04-7.19-5.81,1.89-11.91,3.26-18.02,3.58-5.35,.28-10.92-.44-15.34-3.69l.35,14.42c9.81-.05,19.55,1.74,28.69,5.29,2.14,.83,4.25,1.74,6.37,2.63,1.12,.47,2.07,.37,3.27,.3,1.09-.07,2,.04,3.08,.2,4.44,.66,9.01,.81,13.34-.54,.47-.15,.31-4.75-.12-4.83-4.7-.88-9.07-2.62-13.26-4.91-1.23-.67-2.27-1.34-3.34-2.24s-2.02-1.86-3.32-2.4c-2.12-.89-4.23-1.79-6.37-2.63-9.14-3.55-18.88-5.34-28.69-5.29-1.27,0-1.15,13.32,.35,14.42,4.42,3.25,9.99,3.97,15.34,3.69,6.11-.32,12.21-1.69,18.02-3.58l-.35-14.42c-4.15,2.52-8.75,4.14-13.56,4.76l.35,14.42c3.67-3.63,7.89-6.61,12.1-9.57,.5-.35,.53-1.71,.58-2.13,.18-1.68,.19-3.42,.14-5.1-.02-.52-.41-7.39-1.07-7.19-6.75,2.09-13.51,4.18-20.26,6.28l.47,.97-.07-.34,.59,6.22v-.33l-.3,6.24c-.1,.19-.07,.12,.09-.21,.11-.21,.24-.4,.39-.59l-.23,.26c1-1.15,2.34-1.91,3.61-2.72,1.37-.87,2.75-1.7,4.16-2.51,2.88-1.65,5.83-3.15,8.85-4.53,.48-.22,.53-1.87,.56-2.1,.17-1.66,.18-3.38,.13-5.04s-.1-3.37-.37-5.03c-.04-.22-.33-2.21-.66-2.07l-12.98,5.79c-2.14,.96-4.26,1.95-6.37,2.97-1.06,.51-2.15,.97-3.19,1.53-.55,.29-1.06,.66-1.59,.99-1.05,.65-.92,1.61-1.14,2.84-.35,1.9-.24,3.96-.09,5.88,.03,.4,.34,3.24,.74,2.71l2.47-2.65s0-.06,0-.07h0Z"/><path class="cls-3" d="M377.47,318.57c1.51,1.63,3.65,2.6,5.54,3.77s3.79,2.35,5.66,3.57c2.06,1.35,4.12,2.7,6.19,4.03l2.89,1.86,1.65,1.06,.82,.53c.61,.87,1.06,1.82,1.35,2.83,.61,1.75,.91-1.67,.92-2.06,.07-1.61,.26-4.24-.59-5.73l-.4-.71-.2-.16c-.77,.06-1.27,.75-1.99,1.07s-.92,.25-1.61,0c-.09-.03-.29,2.23,0,2.51,.79,.73,1.25,1.48,1.82,2.41,.66,1.07,1.06,2.28,1.8,3.28l.2,.16,.4-.2-.39-8.35c-1.25,1.73-1.47,1.14-2.65,.42l-1.44-.88c-1.03-.63-2.06-1.27-3.09-1.9-1.92-1.17-3.85-2.32-5.77-3.48-1.74-1.05-3.47-2.17-5.28-3.09-.85-.43-1.76-.75-2.67-1.04-.51-.16-1.05-.37-1.57-.44-.68-.1-1.02,.11-1.6,.41-.02,.01-.02,.12,0,.14h0Z"/><path class="cls-3" d="M375.69,331.91c.91,.3,1.97,.05,2.93,0s1.96-.07,2.93-.06c1.83,.01,3.64,.16,5.45,.33s3.61,.41,5.4,.76c1.9,.37,3.79,1.14,5.69,1.39l-.04-1.44c-.87,.3-1.73,.62-2.61,.89-.07,.02-.04,.48,.01,.48,.88,0,1.76,.04,2.63,.07,.16,0,.17-1.34-.04-1.44-1.7-.83-3.84-1.13-5.69-1.47s-3.59-.58-5.4-.69-3.64-.07-5.45,.05c-.98,.06-1.96,.15-2.93,.27s-2.05,.15-2.91,.68c-.03,.02-.03,.17,0,.18h0Z"/><path class="cls-3" d="M380.24,329.78c-.49-.12-.28-.29,.02-.26s.58,.15,.88,.21c.72,.16,1.45,.24,2.18,.41,1.4,.32,2.79,.72,4.16,1.15s2.69,.98,4.01,1.53c.67,.28,1.33,.59,1.98,.92,.55,.28,1.27,.9,1.9,.63l-.15-3.17c-.64,.76-2.27,.51-3.14,.49-.09,0-.11,.78,.02,.83,1.08,.4,2.53,.77,3.2,1.8,.19,.3,.31-1.07,.31-1.13,.01-.57,.08-1.46-.24-1.98-.53-.85-1.35-1.2-2.23-1.61-.81-.38-1.65-.73-2.5-1.01-1.6-.52-3.42-.87-5.1-.92-.85-.02-1.7,.02-2.55,.08s-1.84,.04-2.56,.46c-.45,.26-.67,.73-.61,1.25,.03,.27,.11,.49,.43,.4,.01,0,0-.07,0-.07h0Z"/><path class="cls-3" d="M381.67,326.49c.85,.48,1.56,.81,2.53,.97,.89,.15,1.76,.35,2.62,.61,1.68,.5,3.29,1.21,4.8,2.11,2.55,1.53,5.61,4.41,8.52,1.95,.09-.07,0-.63-.02-.62-1.51,.58-2.92-.14-4.27-.79-1.5-.72-2.81-1.78-4.28-2.57s-3.03-1.39-4.64-1.8c-.86-.22-1.74-.38-2.62-.48-1.05-.12-1.73,.07-2.65,.57-.01,0,0,.06,0,.07h0Z"/><path class="cls-3" d="M392.57,327.33c5.23,2.61,10.12,5.75,15.16,8.68,2.43,1.41,4.81,2.95,7.3,4.25s5.25,2.54,7.91,3.74c0,0,.09-.48-.01-.55-2.56-1.77-5.11-3.53-7.73-5.2-2.42-1.53-5-2.84-7.51-4.22-4.83-2.64-9.96-4.86-15.12-6.76,0,0-.01,.06,0,.07h0Z"/><path class="cls-2" d="M357.27,324.65c.25,.88,.65,1.72,1.45,2.21,.38,.24,.95,.34,1.38,.5l-.56-.21c.63,.25,1.29,.4,1.98,.46,.5,.04,1,.05,1.49,.12,.43,.06,.88,.13,1.29,.27,.24,.08,.31,.07,.54-.03,.31-.13,.7-.21,.94-.44,.44-.43,.69-1.11,.86-1.68,.37-1.2,.45-2.48,.47-3.72,.02-1.12-.05-2.23-.22-3.34-.05-.48-.15-.96-.3-1.42-.12-.58-.33-1.13-.62-1.65l1.18,5.87-.09-1.37c-.06-.47-.14-.93-.23-1.39l.3,2.69c-.06-1.6-.17-3.28-.72-4.8-.17-.48-.38-1.01-.7-1.42-.29-.39-.56-.83-.94-1.13-.23-.18-.63-.26-.93-.29-.74-.09-1.53-.03-2.28,.06-.99,.12-1.99,.59-2.77,1.18s-1.3,1.48-1.58,2.37c-.25,.79-.39,1.85-.44,2.67-.11,1.54,.08,3.02,.5,4.49h0Z"/><path class="cls-2" d="M346.85,320.48s.04-.18,0-.18c-.04,0-.04,.18,0,.18h0Z"/><path class="cls-2" d="M359.97,321.81c-.32,.16-.8,.04-1.14,.03l-.99-.05v.16c1.48-.13,2.97-.19,4.45-.27s2.97-.08,4.45-.02c.04,0,.05-.2,0-.21-1.48-.11-2.97-.16-4.46-.14s-2.96,.22-4.44,.47c-.04,0-.03,.16,0,.16l.99-.02c.34,0,.84-.1,1.15,.06,.05,.02,.05-.19,0-.17h0Z"/><path class="cls-2" d="M348.37,320.84c.18,.04,.37,.35,.49,.48,.14,.15,.28,.3,.43,.45,.29,.29,.59,.55,.91,.79,.63,.48,1.3,.9,2.01,1.26,1.38,.71,2.85,1.11,4.39,1.24,.03,0,.04-.16,0-.17-1.55-.22-3.09-.72-4.49-1.42-.66-.33-1.3-.72-1.89-1.17-.31-.23-.61-.47-.91-.71s-.75-.55-.92-.92c-.02-.04-.08,.15,0,.16h0Z"/><path class="cls-2" d="M348.38,320.61c-.45-.17-.87-.6-1.24-.9-.35-.28-.71-.54-1.04-.84l-.02,.95c1.06,.11,2.18-.24,3.2-.5,1.08-.28,2.14-.55,3.19-.93l6.38-2.26c.11-.04,.07-.47-.01-.46l-6.53,1.19c-1.09,.2-2.13,.5-3.2,.8s-2.18,.6-3.1,1.2c-.17,.11-.16,.89,.06,.95,.7,.19,1.73,.51,2.29,.96,.02,.01,.06-.15,0-.17h0Z"/><path class="cls-2" d="M349.13,319.77l.75-.38s.02-.19-.02-.17l-.75,.38s-.02,.19,.02,.17h0Z"/><path class="cls-2" d="M350.58,318.85c.56-.25,1.26-.25,1.87-.33l1.87-.24c1.21-.16,2.4-.34,3.59-.57l7.32-1.37c.06-.01,.04-.26,0-.25l-7.33,1.17c-1.21,.19-2.4,.42-3.59,.68l-1.72,.38c-.64,.14-1.36,.41-2.01,.35-.05,0-.02,.19,0,.18h0Z"/><path class="cls-2" d="M358.74,318.17l-.61-1.11v.22c6.68,.56,13.25,1.95,19.87,2.97,.09,.01,.1-.45,0-.49-3.12-1.32-6.3-2.26-9.69-2.59s-6.8-.39-10.22-.13c-.06,0-.03,.19-.01,.22l.64,.94s0-.03,0-.04h0Z"/></g><g><path class="cls-4" d="M465.14,376.27c.97-.93,2.24-1.62,3.36-2.36,1.19-.78,2.38-1.55,3.58-2.3,2.36-1.48,4.73-2.96,7.14-4.37,4.71-2.76,9.53-5.33,14.44-7.69,9.98-4.8,20.34-8.8,30.95-11.95,21.26-6.32,43.55-9.22,65.71-8.49,12.46,.41,24.88,1.96,37.05,4.66l-.05-2.05c-5.17,1.46-10.37,3.28-14.69,6.57-.05,.04-.03,.59,.02,.62,4.13,2.94,8.72,4.85,13.78,5.34l-.03-1.13c-5.03,1.38-10.06,2.73-15.09,4.13-3.63,1.01-8.61,1.68-9.99,5.8-1,2.99-.2,6.5,.29,9.51,.41,2.49,.51,4.79-.45,7.17-.75,1.86-1.95,3.53-3.37,4.94-6.6,6.52-16.36,6.09-24.94,5.58s-17.4-1-25.95-2.59c-9.61-1.79-18.87-5.19-26.37-11.63,.03,.02-.16,2.09-.16,2.32,.01,.42-.15,2.03,.27,2.31,14.35,9.39,32.06,11.34,48.81,11.85,8.64,.26,18.54,1.1,26-4.16,2.97-2.09,5.46-5.12,6.33-8.71,.79-3.29,.14-6.69-.39-9.95-.46-2.79-.59-5.69,1.68-7.73,1.74-1.57,4.21-2.07,6.39-2.7,5.66-1.63,11.31-3.32,16.96-4.99,.09-.03,.02-1.13-.03-1.13-4.9-.37-9.77-1.95-13.77-4.83l.02,.62c5-1.42,9.71-3.71,14.72-5.14,.13-.04,.07-2.02-.05-2.05-21.7-4.76-44.12-5.69-66.17-3.08s-43.75,8.72-63.82,18.24c-5.59,2.65-11.05,5.55-16.37,8.7-2.72,1.61-5.43,3.27-8.04,5.04-1.26,.86-2.52,1.73-3.76,2.61s-2.61,2.17-4.04,2.86c-.04,.02,.02,.16,0,.18h0Z"/><path class="cls-4" d="M491.7,377.2c.51-.18,1.17-.07,1.72-.09,.57-.02,1.14-.06,1.71-.11,1.06-.11,2.12-.28,3.16-.52,2.16-.5,4.24-1.28,6.2-2.31,.03-.01-.01-.13,0-.14-1.96,1.05-4.03,1.85-6.19,2.37-1.04,.25-2.1,.44-3.16,.55-.53,.06-1.06,.1-1.6,.13-.57,.03-1.3,.15-1.83-.07,0,0,0,.18,0,.18h0Z"/><path class="cls-4" d="M301.61,326.66c1.23-1.44,3.01-2.58,4.55-3.67s3.09-2.08,4.7-3c3.3-1.89,6.77-3.46,10.34-4.77,7.29-2.66,15.01-4.09,22.75-4.42,16.85-.71,33.49,3.95,48.69,10.93,4.36,2,8.54,4.33,12.82,6.49,1.75,.88,4.46,1.62,5.63-.56,.41-.77,.5-1.64,.29-2.48,.03,.1-.02,.33,0,.47,.19,.85-.72,1.54-1.37,1.89-.82,.45-1.73,.46-2.63,.25-1.88-.45-3.59-1.67-5.27-2.57-3.65-1.95-7.37-3.77-11.16-5.42-7.48-3.26-15.25-5.91-23.23-7.64-14.82-3.21-30.42-3.05-44.83,1.94-3.88,1.34-7.62,3.05-11.17,5.11-1.8,1.04-3.56,2.18-5.24,3.4-.82,.59-1.62,1.21-2.41,1.84s-1.58,1.48-2.47,2.02c-.03,.02,.02,.15,0,.18h0Z"/><path class="cls-4" d="M347.64,313.51c1.32-.4,2.81-.43,4.18-.59l4.42-.53c2.87-.34,5.74-.66,8.6-1.04,5.56-.72,11.12-1.77,16.71-2.2,4.54-.35,8.76,.47,12.61,2.94,3.35,2.14,6.13,5.04,8.89,7.87,3.13,3.2,6.3,6.43,10.2,8.7l-.03-1.36c-4.09,1.69-8.76,2.28-13.14,1.58,.02,0-.05,.6,.02,.62,4.48,1.22,8.88,.97,13.15-.85,.07-.03,.04-1.31-.03-1.36-6.95-3.95-11.41-10.89-17.86-15.47-3.5-2.49-7.41-3.83-11.73-3.74-2.77,.06-5.51,.53-8.25,.94l-8.6,1.27c-3.12,.46-6.22,.99-9.33,1.5l-4.91,.81c-1.59,.26-3.3,.75-4.91,.72,0,0,0,.18,0,.18h0Z"/><path class="cls-4" d="M363.33,319.93c-.7-.33-.52-1.41,0-1.85,.03-.03,.02-.43-.01-.44-3.56-.82-7.31,.84-9.3,3.87-.09,.13-.1,1.16,.03,1.24,2.57,1.62,5.53,2.51,8.57,2.57,1.47,.03,2.95-.13,4.38-.48s2.75-1.11,4.18-1.48c.25-.07,.05-2.26-.03-2.51-.52-1.57-1.34-2.65-2.82-3.4-1.34-.68-2.82-1.04-4.29-1.32-.84-.16-1.63-.29-2.48-.08s-1.4,.96-1.73,1.77-.64,2.53-.06,3.36c-.12-.17,.09-.77-.01-1.02-.12-.37-.16-.31-.1,.17,.05-.07,.11-.13,.19-.19,.21-.05,.38-.21,.61-.26,.55-.1,1.2-.12,1.76-.07,1.22,.12,2.46,.32,3.66,.59,1.09,.25,2.18,.58,3.15,1.15,.76,.44,1.68,1.05,2.16,1.8l-.06-2.56c-2.11,2.05-5.69,2.77-8.54,2.84s-5.96-.64-8.56-2.14l.03,1.24c1.96-3.16,5.6-4.86,9.28-4.68v-.44c-.74,.8-.55,1.68,.01,2.46-.02-.02,.03-.16,0-.18h0Z"/><path class="cls-4" d="M362.74,324.28c-.35-.15-.63-.52-.95-.75-.28-.21-.57-.4-.88-.58-.7-.4-1.46-.69-2.24-.88s-1.51-.17-2.27-.28c-.17-.02-.36-.02-.52-.06-.24-.07-.38-.2-.62-.24-.37-.06-.85,.01-1.2,.11-.16,.05-.08,1.72,.05,1.87,1.6,1.8,4.02,2.55,6.38,2.48,1.31-.04,2.61-.33,3.86-.73,.69-.22,1.36-.48,2.03-.75,.31-.13,.63-.26,.94-.4,.15-.06,.31-.16,.47-.19,.23-.04,.35,0,.59-.09,.19-.07,.08-1.26,.08-1.43,0-.11-.11-1.44-.15-1.43-1,.38-2.06,.6-3.12,.72-.45,.05-.9,.04-1.35,.07-.17,.01-.86,.22-.91,.01l.06,1.61c.03-.19,.55-.96,.75-.48l-.04-.88v.11c-.01,.23-.05,.51,.01,.73,.04,.13,.04,.22,.06,0,.03-.45,.16-1.14-.41-1.21-.8-.1-.51,1.02-.47,1.55,.03,.41,.13,.81,.36,1.16,.37,.55,.9,.58,1.51,.54,1.29-.08,2.47-.48,3.61-1.08l-.07-2.86c-.34,.18-.57,.45-.93,.63-.31,.15-.62,.3-.94,.44-.67,.3-1.34,.59-2.02,.85-1.28,.48-2.61,.84-3.98,.94-2.32,.17-4.75-.45-6.37-2.19l.05,1.87c.37-.17,.72-.37,1.09-.55,.41-.2,.66-.49,1.12-.62,.73-.21,1.53-.12,2.27,0,1.39,.24,3.34,.91,4.16,2.16,0,0,.03-.16,0-.17h0Z"/><path class="cls-4" d="M368.01,314.71c-1.35-.26-2.59-.8-3.99-.98s-2.7-.26-4.04-.17c-2.54,.17-5.09,.81-7.44,1.78-1.18,.49-2.32,1.07-3.41,1.75-.93,.58-2.21,1.27-2.74,2.29-.69,1.34-.07,3.04,.73,4.15,3.01,4.19,8.11,6.37,13.12,6.9,3.07,.33,6.17,.1,9.2-.4,2.59-.42,5.52-.84,7.83-2.17,1.87-1.08,2.87-2.75,2.84-4.88-.02-1.76-.55-3.02-2.18-3.83,0,0,0,.71,0,.78,.28,3.3-1.24,7.07-4.5,8.35-2.15,.84-4.7,.51-6.22-1.33,.05,.06-.05,.31,0,.41,1.83,2.96,6.38,3.06,8.66,.57,2.1-2.29,2.47-5.76,2.07-8.72v.85c2.24,.42,2.4,3.46,1.27,4.98-1.21,1.62-3.3,2.37-5.18,2.85-4.67,1.2-9.72,1.86-14.53,1.19-4.02-.56-8.01-2.21-10.92-5.09-.7-.69-1.87-1.79-2.14-2.75-.15-.53-.04-.7,.4-1.21,.32-.37,.74-.66,1.13-.94,1.75-1.27,3.68-2.28,5.71-3.02,2.3-.84,4.68-1.26,7.11-1.48,1.14-.1,2.29-.14,3.43-.08s2.64,.03,3.77,.39c0,0,.02-.17,0-.18h0Z"/><path class="cls-4" d="M375.86,320.27c-2.34,3.86-7.35,5.81-11.71,4.73,0,0-.02,.2,0,.21,4.49,1.24,9.37-.86,11.7-4.87,.01-.02-.01-.05,0-.07h0Z"/><path class="cls-4" d="M305.31,327.25c1.91-.87,4.52-.88,6.59-.9,2.22-.02,4.43,.19,6.62,.49,4.6,.63,9.08,1.88,13.54,3.14s8.9,2.55,13.47,3.32c4.92,.83,9.87,.82,14.83,.32,9.87-.99,19.51-3.17,29.48-2.15,9.26,.95,18.17,3.83,26.86,7.05,9.91,3.67,19.64,7.87,29.93,10.39-.02,0,.03-.33,0-.34-17.96-5.12-34.8-14.47-53.4-17.29-4.64-.7-9.34-.92-14.03-.59-5.06,.36-10.06,1.23-15.09,1.9s-9.99,1.1-14.99,.62c-4.66-.44-9.22-1.6-13.72-2.84-4.97-1.37-9.93-2.9-15.02-3.78-2.47-.42-4.94-.65-7.45-.59-1.24,.03-2.48,.14-3.71,.32-1.3,.19-2.61,.67-3.91,.77-.02,0,0,.17,0,.18h0Z"/><path class="cls-4" d="M306.32,332.12s0-.18,0-.18c0,0,0,.18,0,.18h0Z"/><path class="cls-4" d="M300.88,329.98c20.45,20.85,51.51,22.9,78.06,30.81,16.14,4.81,31.46,11.87,46.57,19.21,15.3,7.43,31,14.18,47.42,18.74s33.96,7.44,51.13,9.78,33.89,3.9,50.93,4.73c33.71,1.64,67.62,.32,101.04-4.48,16.65-2.39,33.18-5.66,49.48-9.85,8.28-2.13,16.51-4.49,24.65-7.09,3.94-1.26,7.86-2.58,11.76-3.95,2.89-1.02,7.18-1.82,7.79-5.45,.21-1.26,.37-3.65-.48-4.67,.48,.58-.32,2.43,.08,3.17l.07-.85c.23-.94,.16-1.11-.21-.49-.17,.06-.44,.38-.59,.49-.53,.4-1.2,.68-1.8,.95-1.87,.84-3.86,1.47-5.79,2.16-3.9,1.4-7.83,2.75-11.77,4.04-7.74,2.53-15.55,4.85-23.42,6.93-15.87,4.21-31.96,7.53-48.19,10.03-32.68,5.03-65.83,6.7-98.86,5.42-16.47-.64-32.9-2-49.25-4.03-16.69-2.07-33.39-4.64-49.75-8.57-16.2-3.9-31.61-9.65-46.91-16.19-14.9-6.36-29.74-13.17-45.08-18.39-26.09-8.88-55.94-9.94-79.11-26.12-2.77-1.93-5.36-4.09-7.77-6.45,.02,.02-.02,.11,0,.14h0Z"/><path class="cls-4" d="M759.58,373.94l-2.47,1.72s-.01,.11,0,.11c1.07,.28,1.17,1.4,1.16,2.34-.01,.89-.13,1.79-.05,2.68,.06,.69,.26,1.43,.91,1.79,.46,.26,1.03,.31,1.54,.4,.36,.07,1.29,.2,1.23,.73,0,.04,.02,.3,.04,.19,.08-.69-.29-.97-.95-1.11-.81-.18-1.84-.14-2.37-.9s-.41-1.83-.36-2.69c.03-.7,.09-1.41,0-2.1s-.41-1.27-1.13-1.45v.11l2.47-1.76s0-.07,0-.07h0Z"/><path class="cls-4" d="M759.6,376.24c-.18,.56-.66,.69-1.15,.59-1.16-.22-1.07-1.82-.72-2.67,.45-1.09,1.12-2.14,1.79-3.1,1.46-2.09,3.26-3.92,5.2-5.56,3.84-3.25,8.21-5.96,12.59-8.42,9-5.06,18.76-8.75,28.85-10.93,2.82-.61,5.67-1.1,8.54-1.48,1.43-.19,2.87-.34,4.31-.47,.68-.06,1.49-.23,2.16-.15,.87,.11,1.53,.96,2.41,.92l-.08-3.32c-4.31,4.57-8.98,8.78-13.96,12.61-.43,.33-.32,3.44,.09,3.76,1.66,1.28,3.69,1.68,5.71,1.14,.78-.21,1.55-.48,2.36-.55,.35-.03,.73-.05,1.07,.05,.75,.23,.7,1.03,.66-.53l.12-1.86c-.29,1.12-1.04,2.13-1.56,3.15-.57,1.1-1.09,2.23-1.56,3.37-.88,2.15-1.59,4.38-2.13,6.64s-.89,4.5-1.07,6.79,0,4.79-1.72,6.43c-1.6,1.53-4.35,1.93-6.44,2.3-2.27,.41-4.59,.58-6.9,.55-4.9-.07-9.63-1.08-14.26-2.64-5.25-1.77-10.34-4-15.26-6.54l.13,5.24c1.16,.09,2.28-1.33,3.24-1.88s1.74-1.26,2.43-2.1c.22-.27-.17-1.47-.07-1.56-.78,.62-1.64,1.04-2.61,1.26-.7,.16-.93,.03-1.54-.33-.54-.32-.95-.58-1.58-.63-.3-.02-.54,4.9,.13,5.24,10.93,5.5,23.57,9.87,35.97,7.67,2.48-.44,5.87-.93,7.46-3.11s1.27-5.07,1.48-7.49c.28-3.19,.96-6.35,1.96-9.39,.46-1.4,1-2.77,1.59-4.11,.66-1.48,1.54-2.85,2.22-4.32,.64-1.36,.6-3.35,.25-4.79-.26-1.07-1.06-1.35-2.1-1.25-1.32,.12-2.52,.76-3.84,.82-1.54,.08-3-.42-4.22-1.34l.09,3.76c4.99-3.98,9.64-8.34,13.95-13.05,.27-.29,.1-3.33-.08-3.32-.85,.05-1.37,.86-2.14,1.17-.58,.23-1.54,.15-2.16,.21-1.51,.14-3.02,.32-4.53,.53-2.87,.4-5.71,.92-8.54,1.56-5.72,1.29-11.33,3.07-16.75,5.3s-10.53,4.86-15.45,7.93c-4.57,2.85-9.18,6.07-12.7,10.19-1.06,1.24-2.01,2.57-2.79,3.99-.44,.8-.98,1.71-1.05,2.64-.04,.55,.02,1.18,.5,1.53,.59,.44,1.49,.32,1.72-.41,0-.01,0-.07,0-.06h0Z"/><path class="cls-4" d="M816.69,374.06c-.4,.22,.02-.47,.19-.59,.31-.25,.83-.1,1.18-.07,1.06,.08,2.13,.15,3.19,.22,2.13,.13,4.25,.25,6.38,.33,4.25,.18,8.51,.17,12.76,.1,8.57-.14,17.18-.58,25.71-1.55,2.36-.27,4.71-.58,7.06-.91,1.13-.16,2.27-.33,3.4-.5,1.27-.19,2.73-.24,3.87-.86,.03-.02,.01-.41-.01-.41-1.1-.24-2.3,.11-3.4,.27-1.21,.18-2.43,.34-3.64,.5-2.35,.31-4.71,.59-7.06,.85-4.72,.51-9.44,1-14.18,1.33-9.47,.66-18.96,.81-28.45,.67-1.31-.02-2.61-.05-3.92-.08-.81-.02-2.46-.44-3.08,.23-.28,.3-.36,.49,0,.66,0,0,0-.18,0-.18h0Z"/><path class="cls-4" d="M873.59,365.42c.23-.32,.58-.7,.49-1.13-.06-.27-.41-.74-.74-.47-.84,.69,1.47,1.92,1.76,2.12,4.7,3.29,9.58,6.33,14.62,9.09s10.2,5.26,15.5,7.47c2.52,1.05,5.1,2.23,7.73,2.97,.64,.18,1.98,.42,2.56-.08,.48-.41,.51-1.16,.57-1.74,.07-.68,.07-1.38,.07-2.07,0-.25-.04-3.15-.04-1.34,0,1.2,.08-.4,.13-.71,.1-.65,.25-1.29,.43-1.92,.68-2.42,1.65-4.74,3.08-6.82,.74-1.08,1.59-2.07,2.33-3.14,1.04-1.49,.9-3.13,.81-4.9-.02-.51-.25-3.64,.04-.87-.06-.58-.19-1.33-.55-1.8-.74-.97-1.97,.95-2.38,1.52-3.36,4.59-4.45,9.97-4.47,15.57,0,.88,.01,1.76,.04,2.64,.02,.55,.04,1.09,.08,1.64,.02,.33,.17,.34,.02,.15-.59-.7,.15-2.03-.06-.95-.08,.41-.15,.8-.29,1.19-.24,.68-.68,1.55-1.46,1.67-1.12,.17-2.59-.62-3.63-.96-1.41-.47-2.81-.96-4.2-1.47-5.85-2.14-11.57-4.64-17.11-7.49-2.77-1.43-5.49-2.94-8.16-4.53-1.4-.83-2.79-1.69-4.16-2.57-.62-.4-1.24-.8-1.86-1.21-.27-.18-.71-.37-.92-.62-.24-.09-.32-.29-.26-.57,.55-.03,.56,.37,.04,1.17-.04,.04,.03,.15,0,.18h0Z"/><path class="cls-4" d="M892.32,364.13c-.63,.46-.89-.59-.38-1.01,.39-.32,1.1-.36,1.57-.45,1.47-.31,2.95-.56,4.43-.82,3.05-.53,6.14-.87,9.23-1.02s6.05-.11,9.06,.11c2.45,.18,4.67,.5,6.54,2.21l-.05-1.47c-.37,.83-1.78,.74-.97,.04,.06-.06-.03-.47-.01-.48-1.32,.56,.12,3.35,1.04,1.92,.14-.22,.13-1.3-.04-1.5-1.82-2.29-5.59-2.08-8.2-2.13-3.66-.07-7.32,.13-10.95,.59s-7.32,1.09-10.77,2.3c-.58,.2-1.33,.48-1.31,1.21,.02,.49,.33,.73,.82,.69,.02,0-.01-.17,0-.18h0Z"/><path class="cls-4" d="M919.84,377.73c.69-2.11-.84-4.89-3.27-4.71-.12,0-.08,1.74,.04,1.74,4.1,.06,8.32-.83,12.39-1.32s8.09-.98,12.14-1.51l24.52-3.21c8.03-1.05,16.06-2.13,24.09-3.15,7.28-.92,14.92-1.64,21.99,.82s12.69,7.59,20.3,6.42c.05,0,0-.9-.02-.9-6.64-.27-12.38-4.67-18.3-7.21-6.92-2.96-14.43-2.74-21.76-1.89-16.08,1.85-32.11,4.18-48.16,6.28-4.46,.58-8.92,1.19-13.37,1.81l-6.93,.97c-2.32,.32-4.67,.53-6.93,1.16l.04,1.74c1.59-.59,4.17,.71,3.22,2.8-.02,.05,.02,.14,0,.17h0Z"/><path class="cls-4" d="M1029.09,373.07c12.04,9.11,25.32,16.39,39.52,21.55,4.01,1.46,8.08,2.75,12.2,3.87-.03,0,.06-1.04-.03-1.16-1.04-1.49-1.92-3.09-2.96-4.58-.98-1.4-2.14-2.66-3.38-3.85-2.33-2.25-4.95-4.4-7.81-5.96l.12,4.98,11.19,1.26s.22-4.76-.13-5.22l-2.75-3.54,.13,5.31c4.97-2.86,7.85-7.86,10.35-12.84,2.71-5.38,5.12-10.98,9.56-15.2,2.73-2.59,5.88-4.71,8.93-6.9l10.36-7.46,20.72-14.92c7.79-5.61,15.57-11.24,23.36-16.86,.24-.17,.04-1.94,.03-2.16-.02-.85,.1-1.9-.13-2.73-1.09-3.93-2.18-7.86-3.27-11.8l.12,4.89c6.17-.28,12.07-1.51,17.75-3.96s11.11-5.7,15.94-9.59c.26-.21-.25-1.44-.04-1.59-4.93,3.32-10.27,5.81-16,7.38s-11.8,2.63-17.77,2.86c-.12,0,0,4.47,.12,4.89,1.07,3.9,2.15,7.81,3.22,11.71l-.1-4.9c-13.82,9.85-27.64,19.7-41.44,29.57l-10.16,7.26c-3.23,2.31-6.54,4.53-9.64,7-4.98,3.97-7.97,9.13-10.71,14.78s-5.65,11.83-11.33,15.23c-.33,.2-.09,2.3-.08,2.66,.02,.63-.21,2.12,.21,2.65l2.74,3.45-.13-5.22-11.19-1.02c.12,.01-.38,4.72,.12,4.98,2.74,1.43,5.36,2.91,7.78,4.85,1.1,.88,2.12,1.86,3.22,2.75s2.24,1.83,3.06,2.99l-.03-1.16c-14.45-3.78-28.31-9.68-41.11-17.36-3.62-2.17-7.14-4.5-10.57-6.97,0,0-.01,.06,0,.07h0Z"/><path class="cls-4" d="M1182.2,294.59s0-.18,0-.18c0,0,0,.18,0,.18h0Z"/><path class="cls-4" d="M1184.4,287.14c5.75-.37,10.99-4.57,12.08-10.32,.96-5.08-.5-10.71-4.24-14.33l.07,2.78c2.33-1.95,4.91-3.34,7.74-4.45,.3-.12,.16-3.14-.08-3.39-2.5-2.5-3.78-5.88-5.43-8.94-1.31-2.42-3.04-5.18-6.02-5.56-2.28-.29-4.27,.92-6.04,2.21-2.04,1.49-4,3.08-5.95,4.69-3.84,3.19-7.54,6.54-11.23,9.89-7.41,6.73-14.75,13.6-22.91,19.42s-17.87,10.62-27.47,14.63c-10.21,4.26-20.58,8.14-30.89,12.16l-32.1,12.53c-10.11,3.95-20.21,8.04-30.72,10.82-10.33,2.74-20.82,3.8-31.48,3.06-21.05-1.44-41.33-8.31-62.42-9.35-2.56-.13-5.12-.16-7.67-.09l.09,3.66c1.59-.71,2.88-1.95,4.24-3.04,.14-.12,.04-1.39-.03-1.38-1.48,.14-2.93,.15-4.3,.76-.42,.19-.11,3.66,.09,3.66,21.2-.54,41.61,6.05,62.48,8.63,10.49,1.3,21.03,1.4,31.44-.6s20.77-5.77,30.8-9.66c21.17-8.22,42.33-16.47,63.45-24.84,9.73-3.86,19.43-7.95,28.37-13.43s16.24-11.87,23.68-18.62c7.34-6.66,14.56-13.56,22.61-19.37,3.08-2.22,6.75-3.29,9.65-.26,2.33,2.44,3.46,5.85,5.13,8.73,.76,1.32,1.62,2.57,2.71,3.65l-.08-3.39c-2.88,1.16-5.46,2.95-7.72,5.06-.26,.24-.19,2.55,.07,2.78,4.21,3.68,5.45,9.52,2.69,14.46-2.17,3.89-6.18,6.58-10.61,7.07-.02,0,0,.35,0,.34h0Z"/><path class="cls-4" d="M919.22,323.19c.82-.31,1.75-.42,2.61-.67s1.76-.48,2.65-.68c1.86-.42,3.74-.72,5.63-.91,3.73-.37,7.48-.27,11.19,.24,0,0,.09-.99-.03-1.07-1.99-1.37-3.42-3.37-5.24-4.97-1.63-1.44-3.34-2.78-4.97-4.22-.81-.71-1.61-1.43-2.39-2.18-.34-.33-.7-.66-.98-1.05-.2-.26-.35-.54-.45-.85l.08,2.52c.1-.03,.66-1.11,.88-1.31,.26-.25,.56-.46,.86-.64,.8-.48,1.7-.72,2.58-1.01,1.62-.53,2.97-1.26,3.64-2.9s.6-3.43,.94-5.11c.77-3.79,2.94-7.15,5.96-9.53,.39-.3-.05-4.16-.1-4.15-20.73,1.54-41.01,8.07-58.73,18.94-2.47,1.51-4.85,3.15-7.24,4.78-1.15,.78-2.42,1.59-3.86,1.62-.32,0-2.82-.58-2.8-.62,.13-.41-.17-1.32-.08-1.53-.61,1.5-.09,3.84,.88,5.05,1.91,2.4,5.03,.07,6.84-1.19,4.63-3.21,9.47-6.12,14.48-8.71,10.02-5.17,20.72-9.03,31.73-11.46,6.22-1.37,12.53-2.28,18.88-2.73l-.1-4.15c-2.55,2-4.48,4.69-5.53,7.77-.5,1.48-.71,2.99-.9,4.53-.21,1.67-.6,3.31-2.07,4.32-2.3,1.58-6.28,1.49-6.58,5.02-.12,1.44-.26,3.48,.45,4.8s2.22,2.35,3.35,3.33c1.64,1.42,3.31,2.88,5.13,4.07,.84,.55,1.59,1.06,2.56,1.34,1.07,.32,1.86,.67,2.8,1.29l-.03-1.07c-3.72-.43-7.47-.43-11.18,.03-1.82,.23-3.63,.56-5.41,1-.89,.22-1.78,.47-2.65,.74-1,.31-1.85,.8-2.82,1.15-.03,.01,0,.17,0,.18h0Z"/><path class="cls-4" d="M397.92,309.65c2.29-.82,4.96-1.02,7.35-1.47s4.74-.94,7.1-1.42c4.82-.99,9.66-1.96,14.49-2.88,9.67-1.84,19.37-3.48,29.13-4.73s19.52-2.11,29.33-2.37,19.85,.35,29.78,.69c9.24,.31,18.47,.15,27.59-1.48,7.76-1.39,15.35-3.68,22.72-6.46,15.01-5.67,29.13-13.37,43.46-20.53,14.25-7.13,28.87-13.87,44.47-17.43,1.9-.43,3.82-.82,5.74-1.15l-.04-1.24c-1.78,5.79-2.14,11.95-1.3,17.94,.95,6.8,3.69,12.87,7.65,18.42l-.04-1.44c-2.09,.95-4.1,2.01-6.13,3.07-.13,.07-.08,1.68,.04,1.74,4.53,2.3,9.19,4.34,13.95,6.11-.12-.04,.24-1.69-.04-1.79-4.76-1.75-9.42-3.78-13.95-6.06l.04,1.74c2.07-1.09,4.12-2.18,6.12-3.37,.14-.08,.07-1.31-.04-1.44-7.61-9.15-9.71-22.5-6.26-33.71,.03-.11,0-1.25-.04-1.24-15.76,2.78-30.59,9.03-44.9,16.02-14.43,7.05-28.5,14.9-43.35,21.07-7.22,3-14.64,5.6-22.25,7.42-8.59,2.05-17.31,2.94-26.13,2.96-9.97,.02-19.92-.79-29.89-.78s-19.62,.65-29.37,1.74-19.5,2.62-29.17,4.4-19.4,3.65-28.98,5.92c-2.29,.54-4.74,1.43-7.08,1.6-.02,0,0,.18,0,.18h0Z"/><path class="cls-4" d="M674.12,295.27c1.5-.24,3.16-.02,4.67,.02s3.11,.08,4.67,.13c3.11,.09,6.23,.2,9.34,.27,6.31,.15,12.61,.35,18.91,.61,12.53,.51,25.04,1.25,37.54,2.21,24.85,1.9,49.63,4.67,74.29,8.3,6.98,1.03,13.94,2.13,20.9,3.29,3.4,.57,6.79,1.16,10.18,1.76,1.78,.32,3.55,.64,5.33,.96,.81,.15,1.61,.3,2.42,.45,.43,.08,.78,.17,1.21,.11,.56-.08,1.14-.37,1.67-.55,.08-.03,.07-1.79-.05-1.86-.8-.54-1.52-1.14-2.44-1.39-.7-.19-1.46-.25-2.18-.36-1.53-.25-3.07-.51-4.6-.75-3.07-.5-6.14-.98-9.21-1.45-6.22-.95-12.46-1.84-18.7-2.68-12.4-1.67-24.83-3.11-37.28-4.34-24.75-2.44-49.59-4.01-74.46-4.71-7.04-.2-14.08-.33-21.11-.38-3.44-.03-6.87-.02-10.31,.04-1.8,.03-3.6,.07-5.4,.11s-3.68,.31-5.4,.05c0,0,0,.18,0,.18h0Z"/><path class="cls-4" d="M448.13,346.07c-.17,.23-.63,.17-.88,.13-.27-.04-.53-.14-.77-.27-.61-.33-.93-.88-1.13-1.53v.83c.34-.06,.64-.24,.94-.37s.64-.26,.97-.35c.61-.17,1.26-.25,1.88-.1,.51,.12,1.01,.39,1.38,.77,.19,.2,.35,.44,.44,.7,.04,.12,.05,.32,.05-.03,0-.4,.01-.19,0-.13-.03,.08-.04,.16-.07,.24-.25,.65-.89,1.05-1.49,1.34-.72,.36-1.49,.62-2.22,.98-.41,.2-.76,.42-1.07,.76-.14,.16-.28,.32-.39,.5-.14,.24-.22,.57-.3,.84-.03,.1,.04,.44,.03,.47,.05-.07,.09-.16,.17-.21,.01,0,.06,.02,.07,.01,.04-.02,.06-.05,.1-.08,.15-.11,.27-.24,.43-.34,.37-.23,.74-.47,1.12-.67,.79-.41,1.64-.71,2.41-1.17,.67-.4,1.2-.94,1.31-1.74,.08-.59,.08-1.29-.12-1.86-.18-.52-.6-.93-1.08-1.19-.65-.35-1.37-.4-2.08-.27-.44,.08-.86,.23-1.27,.4s-.87,.36-1.21,.65c-.11,.09-.06,.72,0,.83,.1,.19,.25,.31,.42,.44,.22,.16,.42,.33,.67,.45s.53,.18,.81,.2c.15,0,.3,0,.45-.02,.16-.02,.3-.12,.44-.03,0,0,0-.19,0-.17h0Z"/><path class="cls-4" d="M452.65,350.79l2.25-1.5s0-.07,0-.07l-2.25,1.5s0,.07,0,.07h0Z"/><path class="cls-4" d="M453.18,343.97c-.94-1.13,.61-1.88,1.56-1.86,1.12,.02,2.26,.37,3.37,.51,2.38,.3,4.82,.42,7.21,.2s4.63-.63,6.87-1.27c1.12-.31,2.25-.66,3.32-1.1s1.44-1.94,1.94-2.96c.05-.09-.04-.36-.02-.4-.35,.54-.68,1.26-1.12,1.73-.56,.58-1.52,.8-2.26,1.05-1.38,.47-2.79,.85-4.21,1.16-2.77,.59-5.63,.89-8.47,.92-1.38,.02-2.76-.04-4.14-.17-1.14-.11-2.89-.68-3.87,.16-.56,.48-.81,1.6-.18,2.11,0,0,0-.06,0-.07h0Z"/><path class="cls-4" d="M466.18,316.18c-.77-.54-1.43-1.27-2.11-1.92v.35c12.19,7.22,26.13,15.41,29.72,30.24,0,.04,.03-.28,.01-.36-3.34-14.92-17.3-23.41-29.73-30.23,.02,.01-.05,.3,0,.35,.71,.57,1.48,1.1,2.11,1.76-.02-.02,.04-.15,0-.18h0Z"/><path class="cls-4" d="M460.13,361.85c-.57,.34-1.18,.56-1.79,.81-.02,0,0,.13,0,.13,9.82-2.35,18.79-6.94,26.62-13.31,.07-.05-.04-.32,0-.34-4.13,3.13-8.57,5.89-13.22,8.16-2.28,1.11-4.63,2.11-6.99,3.07-1.22,.5-2.45,.97-3.7,1.4-.62,.22-1.25,.42-1.87,.63-1.17,.39,.74-.31,.96-.37,.04-.01,0-.17,0-.18h0Z"/><path class="cls-4" d="M504.38,334.94c-.51,.77-.66,1.81-.79,2.71-.24,1.68-.23,3.42-.12,5.11,.03,.43,.04,.91,.14,1.34,.02,.09,.06,.42,.18,.22,1.12-1.88,1.05-4.2,.95-6.31-.02-.41-.05-.81-.11-1.22,0-.05-.05-.5-.15-.5-.22,0-.18,1.62-.18,1.73,0,1.38-.02,2.78,.19,4.15l-.05-.61v.22c.01,.14-.02,.44,.06,.57,.06,.1,.06-.05,.06-.13,0-.04,.07-.2,.08-.26,.02-.09,.03-.18,.05-.27,.09-.61,.07-1.25,.09-1.87l-.44-.55c-.03-.48-.08-1.02,0-1.5,0,.07,0,.13-.02,.2,.02-.2,.02-.22,0-.07-.02,.13-.04,.26-.07,.39,.02-.1-.06,.21-.07,.25-.14,.51-.35,1-.61,1.46l.28,1.02c.05,.66,.02,.28,.01,.12,.01,.42,.02,.51,.01,.28v.38c0-.05,0-.1,0-.16,0-.16,0-.07,0,.27,0-.1,0-.21,.01-.32-.01,.51,0,.12,0,.02s.02-.21,.03-.32c.03-.36-.04,.27,.01-.1,.01-.11,.03-.22,.04-.33,.13-.93,.37-1.84,.58-2.75,.15-.65,.1-1.38,.07-2.04-.02-.33-.03-.67-.1-.99-.02-.08-.04-.3-.13-.16h0Z"/><path class="cls-4" d="M843.65,314.7c-.17-.77-.3-1.55-.44-2.33-.11-.62-.43-1.19,.37-.99s1.57,1.12,2.03,1.73c1.18,1.57,1.78,3.49,2.31,5.35,1.38,4.78,2.33,9.69,2.85,14.64,1.07,10.11,.28,20.38-2.18,30.24-.01,.05,.02,.27,.03,.24,3.76-14.6,3.59-30.18-.43-44.71-.84-3.02-1.82-7.01-5.26-7.98-.02,0,0,.21,0,.22,.24,1.24,.5,2.48,.7,3.73,.01,.07,.02-.11,.01-.14h0Z"/><path class="cls-4" d="M853.47,315.46c-.29-.22-.51-.49-.67-.81-.13-1.51-.06-1.84,.2-.97,.21,.38,.32,.87,.47,1.28,.33,.93,.64,1.86,.93,2.8,.65,2.09,1.21,4.2,1.69,6.33,.93,4.18,1.54,8.44,1.78,12.72,.49,8.69-.52,17.43-2.83,25.82-.03,.11,.04,.34,.02,.4,4.83-16.41,3.94-34.57-2.38-50.46,0,0,0,0,0,0-.35,1.11-.14,2.19,.8,2.96,0,0,.01-.06,0-.07h0Z"/><path class="cls-4" d="M968.46,335.76c2.49,7.98,1.92,16.39-1.38,24.04-.03,.07,.03,.24,.02,.27,3.53-7.54,3.94-16.48,1.36-24.37,0,0,0,.05,0,.06h0Z"/><path class="cls-4" d="M973.13,334.99c1.64,3.65,2.1,8.2,2.08,12.15-.02,3.74-.64,7.46-1.77,11.03-.01,.04,.01,.21,.02,.18,1.26-3.81,1.85-7.78,1.79-11.79s-.99-7.83-2.11-11.73c0-.02-.02,.12,0,.16h0Z"/><path class="cls-4" d="M982.06,336.53c2.82,8.44,1.41,18.3-2.5,26.15-.03,.07,.03,.25,.02,.27,2.19-4.23,3.49-8.84,3.85-13.59,.34-4.45-.26-8.68-1.35-12.98,0-.02-.02,.12,0,.15h0Z"/><path class="cls-4" d="M691.33,302.68c-.69-.47-.55-.96-.56-1.76,0-.44-.15-1.56,.52-1.84,.31-.12,.97,.17,1.27,.28,1.13,.42,2.04,1.26,2.76,2.2,1.47,1.92,2.24,4.27,3.02,6.52,1.94,5.62,3.46,11.38,4.59,17.22,2.31,11.9,3.04,24.06,2.95,36.17-.05,6.69-.34,13.38-.76,20.05,0,.05,.03,.31,.04,.14,.86-13.24,1.19-26.55,.09-39.78-.53-6.37-1.4-12.71-2.71-18.96s-2.9-12.72-5.51-18.57c-.55-1.25-1.23-2.47-2.16-3.48-.74-.81-2.08-1.92-3.27-1.84-.76,.05-1.04,.99-1.07,1.72-.04,.82,.32,1.44,.78,2.11,0-.01,.04-.15,0-.17h0Z"/><path class="cls-4" d="M701.77,302.71c1.2,1.83,2.05,4,2.95,6s1.75,3.99,2.54,6.01c1.66,4.21,3.13,8.5,4.36,12.86,2.6,9.27,4.13,18.9,3.97,28.54-.09,5.48-.73,10.93-1.97,16.27-.01,.05,.02,.27,.03,.24,4.33-18.36,1.27-37.79-5.22-55.26-.9-2.43-1.89-4.82-2.96-7.19-1.16-2.58-2.58-5.05-3.71-7.63,0,.02-.03,.12,0,.17h0Z"/><path class="cls-4" d="M714.81,305.7c7.29,16.09,10.21,34.09,8.2,51.65-.55,4.82-1.47,9.59-2.72,14.28-.01,.04,.01,.2,.02,.18,4.62-16.86,4.52-35.07-.21-51.9-1.37-4.89-3.15-9.66-5.29-14.27,0,0,0,.05,0,.07h0Z"/><path class="cls-4" d="M726.17,301.88c9.48,17.98,13.73,38.62,12.12,58.88-.45,5.7-1.38,11.36-2.74,16.92-.01,.05,.02,.27,.03,.24,4.86-19.7,3.98-40.76-2.46-60-1.86-5.55-4.19-10.94-6.94-16.1,0,0,0,.05,0,.07h0Z"/><path class="cls-4" d="M301.74,328.14c-.52-.33-1.22-.89-1.75-.19-.07,.09-.04,.52,0,.62,2.97,6.34,8.16,11.33,14.6,14.09-.03-.01,.05-.32,0-.34-6.28-2.95-11.52-8.13-14.59-14.36v.62c.36-.49,1.34-1.02,1.74-.27,0-.02,.03-.15,0-.17h0Z"/><path class="cls-4" d="M319.2,336.41c1.16,.33,2.28,1.02,3.37,1.53s2.26,1.05,3.4,1.55c2.28,1.02,4.57,1.99,6.89,2.92,4.62,1.86,9.31,3.52,14.07,4.99,9.72,3.01,19.64,5.09,29.63,6.96s19.92,4.06,29.67,7.22,18.89,5.85,28.89,6.46c10.95,.67,22.24-.68,32.59-4.42,.03,0-.02-.2,0-.21-9.33,2.93-18.92,4.58-28.71,4.41-10.06-.17-19.65-2.4-29.18-5.47-4.8-1.55-9.59-3.15-14.47-4.42s-9.98-2.3-15.01-3.26c-9.95-1.9-19.88-3.73-29.62-6.55-5.36-1.55-10.66-3.33-15.9-5.27-2.61-.97-5.2-1.99-7.77-3.06-1.28-.54-2.56-1.09-3.84-1.65s-2.81-1.1-4.01-1.92c.01,0-.03,.17,0,.18h0Z"/><path class="cls-4" d="M470.8,362.9c-1.54,1.29-3.68,2.13-5.5,2.96s-3.81,1.63-5.77,2.29c-3.93,1.33-8,2.27-12.11,2.82-.01,0,0,.14,0,.14,4.13-.51,8.18-1.43,12.11-2.81,1.96-.69,3.89-1.48,5.77-2.36,.88-.41,1.75-.85,2.6-1.3,.95-.5,1.89-1.2,2.9-1.56,.03-.01-.02-.16,0-.18h0Z"/><path class="cls-4" d="M411.67,313.06c1.67,1.08,3.12,3,4.43,4.48s2.49,2.93,3.64,4.47c2.34,3.14,4.43,6.47,6.23,9.94,3.67,7.07,6.23,14.68,7.44,22.55,.76,4.97,.96,10,.64,15.01,0,.04,.02,.23,.03,.1,1.14-16.17-3.55-32.7-12.94-45.9-1.37-1.92-2.83-3.77-4.38-5.54s-3.55-3.41-5.09-5.28c0,0-.04,.15,0,.17h0Z"/><path class="cls-4" d="M420.44,314.69c-.66-.65-1.23-1.37-1.66-2.19-.29-.56-.59-1.21-.69-1.84v-.45c-.08-.51-.05-.59,.09-.23,.21,.19,.42,.85,.53,1.09,1.03,2.1,2.04,4.22,3.02,6.34,1.99,4.29,3.92,8.6,5.75,12.96,3.69,8.78,7.31,17.74,9.7,26.97,1.47,5.7,2.37,11.54,2.15,17.43,0,.12,.05,.33,.05,.09,.35-8.58-1.57-17-4.25-25.1-2.97-8.97-6.57-17.76-10.41-26.38-2.16-4.83-4.47-9.59-6.88-14.3,0,0-.02,.13-.02,.15,.15,2.14,1.02,4.04,2.59,5.52,0,0,.01-.05,0-.07h0Z"/><path class="cls-4" d="M326.21,317.52c5.76,7.82,8.51,17.53,7.73,27.21,0,.02,.01,.15,.02,.1,.84-9.71-1.94-19.54-7.74-27.37,0,0-.01,.05,0,.07h0Z"/><path class="cls-4" d="M329.58,316.92c-.68-.67,.25-.76,.48-.75,.36,.02,.65,.41,.86,.66,.45,.53,.86,1.12,1.27,1.69,.82,1.14,1.6,2.31,2.34,3.52,1.5,2.47,2.8,5.05,3.9,7.72,2.35,5.74,3.72,11.86,4.02,18.05,0,.14,.03,.01,.03-.06-.32-6.91-1.92-13.71-4.79-20-1.51-3.3-3.34-6.44-5.48-9.36-.28-.39-1.97-3.19-2.7-2.08-.16,.25-.11,.48,.09,.67,0,0,.01-.05,0-.07h0Z"/><path class="cls-4" d="M393.01,336.43c.35,.04,.61-.48,.33-.77-.54-.57-1.07,.68-1.15,1.02-.32,1.28-.44,2.64-.7,3.94-1.09,5.5-2.69,10.91-4.72,16.13-.02,.05,.02,.18,.01,.2,1.46-3.69,2.69-7.46,3.65-11.31,.48-1.94,.9-3.9,1.26-5.87,.18-1,.26-2.05,.51-3.04,.08-.34,.36-1.25,.9-1.15,.58,.11,.22,1.27-.09,.67,0,0-.04,.17,0,.17h0Z"/><path class="cls-4" d="M400.67,336.84c.15-1.04-1.18-1.39-1.74-.5-.52,.83-.5,2.08-.69,3.01-.27,1.38-.6,2.74-.98,4.1-1.53,5.44-3.93,10.62-6.94,15.4-.04,.06,.03,.25,.02,.27,2.54-3.78,4.53-7.85,6.01-12.15,.68-1.98,1.24-4,1.69-6.05,.24-1.08,.39-2.18,.62-3.26,.12-.55,.29-1.32,.86-1.58,.32-.14,1.4-.12,1.15,.61-.01,.04,0,.21,.02,.15h0Z"/><path class="cls-4" d="M405.21,338.01c-.75,9.02-3.37,17.65-7.82,25.54-.04,.08,.03,.31,.02,.33,4.74-7.76,7.44-16.75,7.81-25.84,0-.01,0-.08,0-.03h0Z"/><path class="cls-4" d="M412.63,341.79c-.8,9.43-4.62,18.32-11.06,25.29-.05,.06,.03,.33,.02,.33,6.72-6.77,10.74-16.04,11.05-25.59,0-.01,0-.07,0-.03h0Z"/><path class="cls-4" d="M460.99,361.92c-.1-.2,.03-1.72,.52-1.69,.29,.02,0,.86-.03,.99-.15,.62-.31,1.24-.47,1.86-.34,1.32-.69,2.63-1.04,3.94-.78,2.85-1.62,5.69-2.48,8.52-.81,2.63-1.65,5.24-2.54,7.84-.44,1.3-.9,2.59-1.36,3.89-.14,.4-.34,1.56-.66,1.82s-.17-.16-.18-.46l-.04-1.05c0-.16-.05-.16-.04,0l.08,2.11s.02,.15,.03,.14c3.61-9.72,6.61-19.63,9.01-29.72,0,0,0-.05,0-.04-.85,.45-1,1.19-.78,2.03,0,.01,.03-.12,0-.16h0Z"/><path class="cls-4" d="M473.55,362.67c-2.12,6.28-4.06,12.68-6.63,18.8-1.22,2.91-2.63,5.76-4.35,8.41-1.36,2.09-3.88,6.37-6.94,5.2,0,0-.03,.19,0,.21,2.89,1.34,5.26-2.47,6.6-4.45,1.81-2.67,3.27-5.56,4.54-8.52,2.71-6.34,4.64-13.02,6.78-19.57,0-.02,0-.06,0-.07h0Z"/><path class="cls-4" d="M584.76,410.11c-.44,.17-.57,.58-.47,1.02,.41,1.76,3.66,.3,4.69,0,4.26-1.26,8.44-2.79,12.5-4.59s7.87-3.79,11.61-6.05,7.58-4.68,10.7-7.67c2.2-2.11,4.18-5.06,2.94-8.16,.01,.03-.02,.14,0,.2,1.96,4.99-4.44,9.05-7.8,11.41-3.58,2.51-7.31,4.82-11.16,6.89s-7.85,3.91-11.94,5.48c-2.04,.79-4.11,1.51-6.21,2.16-.97,.3-1.95,.62-2.94,.87-.49,.12-1.09,.32-1.6,.15-.66-.22-1.24-1.25-.3-1.64,.01,0,0-.07,0-.07h0Z"/><path class="cls-4" d="M599.76,413.14c12.49-5.27,25.58-10.9,35.18-20.8,2.62-2.7,4.88-5.73,6.73-9.01,.03-.05-.02-.18-.01-.2-6.89,11.96-19.02,19.4-31.17,25.16-3.54,1.68-7.13,3.24-10.73,4.78-.01,0,0,.07,0,.07h0Z"/><path class="cls-4" d="M620.67,410.53c15.83-5.52,29.36-16.27,38.59-30.24,.03-.05-.02-.19-.01-.2-9.18,13.88-22.99,24.61-38.58,30.37-.01,0,0,.07,0,.07h0Z"/><path class="cls-4" d="M507.34,403.3c.73,14.69,3.44,29.1,7.61,43.2,4.22,14.3,10.46,28.08,18.36,40.73,4.42,7.08,9.36,13.82,14.75,20.19,.42,.49,.74-.92,.76-1.02,.15-.82,.13-1.84-.17-2.63-.99-2.53-.73-4.96-.04-7.53,.83-3.06,2.03-6.01,3.1-8.99s2.06-6.18,2.17-9.48c.1-2.83-.37-5.53-1.51-8.13l-.07,.48c1.71,3.83,2.72,7.93,3.22,12.1,.06,.48,.22,.08,.2-.19-.31-4.34-1.5-8.46-3.35-12.39-.06-.13-.13,.37-.07,.48,1.46,3.14,.76,5.9-.1,9.04s-1.98,5.84-3.06,8.74c-2.21,5.97-3.89,12.8-1.39,18.96l.59-3.64c-9.32-10.84-17.23-22.92-23.57-35.73s-11.14-26.04-14.06-39.85c-1.7-8.04-2.82-16.18-3.32-24.38,0-.12-.04-.05-.04,.03h0Z"/><path class="cls-4" d="M555.4,468.8c.12-.18,.14-.53-.17-.6-.51-.11-.34,.81-.28,1.04,.21,.84,.75,1.63,1.14,2.4,.47,.92,.98,1.8,1.51,2.69,1.1,1.86,2.21,3.72,3.31,5.58,.29,.5,.5-.26,.55-.48,.11-.53,.08-1.3-.19-1.79-1.25-2.21,.08-4.69,1.21-6.69s2.27-3.78,3.47-5.62c2.61-4,5.46-7.84,8.51-11.51,1.48-1.77,3-3.51,4.57-5.2,1.33-1.43,2.86-2.71,3.13-4.75,.53-4.04-2.75-7.16-5.81-9.21-.14-.09-.2,.73-.05,.87,1.84,1.73,3.3,3.85,4.36,6.14,.13,.28,.25,.56,.37,.84,.18,.54,.24,.59,.19,.15-.1,.51-.69,1.02-1.03,1.39-.69,.76-1.41,1.48-2.1,2.24-3.12,3.4-6.05,6.98-8.78,10.7s-5.26,7.38-7.4,11.33c-1.85,3.42-3.27,8-1.02,11.57l.36-2.27c-1.09-1.66-2.17-3.31-3.25-4.97-.45-.69-.88-1.4-1.38-2.05-.25-.34-.52-.66-.79-1-.2-.26-.87-.73-.47-.98-.05,.03,0,.2,.02,.16h0Z"/><path class="cls-4" d="M558.45,411.42c.54-.71-.99-1.19-.84,.08,.08,.66,.79,1.46,1.1,1.93,.69,1.06,1.39,2.12,2.08,3.19,1.28,1.96,2.63,3.87,3.99,5.77,5.6,7.8,11.5,15.37,17.35,22.98l-.1-4.06c-.74,.58-1.43,1.39-2.47,1.13-.27-.07-.12,1.05-.06,1.16,.48,.98,1.78,2.53,2.97,1.76,.46-.3,.42-1.6,.41-2.04-.02-.67-.08-1.47-.51-2.02-4.17-5.27-8.35-10.53-12.54-15.79-1.99-2.49-4.06-4.92-6.13-7.35-1.04-1.22-2.12-2.38-3.23-3.54-.51-.54-1.03-1.07-1.54-1.61-.21-.22-.65-.52-.77-.81l-.08-1.49c.35,0,.47,.18,.38,.51-.06,0,0,.19,.01,.17h0Z"/><path class="cls-4" d="M920.31,374.94c.85,.16,1.6,.33,2.46,.27,.65-.05,1.31-.18,1.96-.27,1.63-.23,3.26-.45,4.9-.68,3.02-.42,6.04-.83,9.06-1.24,6.12-.83,12.25-1.63,18.39-2.37,12.08-1.47,24.29-3.08,36.47-3.34,5.82-.12,11.66,.24,17.36,1.48,4.69,1.02,9.25,2.58,13.67,4.45,9.1,3.85,17.59,8.98,26.17,13.84,9.59,5.42,19.44,10.58,30.2,13.23-.25-.06,.33-3.6-.09-3.73-2.46-.73-4.61-2.2-6.22-4.19-.73-.91-1.4-1.91-1.92-2.96-.22-.45-.42-.92-.57-1.4-.12-.37-.21-.74-.27-1.12-.03-.19-.05-1-.07-.22,0-.43-.06-1.06-.05-1.39-.14,3.02,.23,6.14,1.59,8.87,1.5,3.01,4.38,5.25,7.6,6.13l-.09-3.73c-19.27-4.53-35.2-16.98-52.97-25.05-9.48-4.31-19.34-6.98-29.8-7.16-6.1-.11-12.18,.44-18.23,1.08s-12.29,1.39-18.43,2.2c-6.87,.9-13.74,1.87-20.59,2.89-3.35,.49-6.69,1-10.04,1.51-1.71,.26-3.43,.52-5.14,.78-.82,.12-1.63,.25-2.45,.38-1.11,.17-1.92,.57-2.92,1.06-.06,.03-.03,.68,.02,.69h0Z"/><path class="cls-4" d="M813.7,374.54c.97,.46,1.95,.41,3,.44,1.17,.04,2.32,.04,3.49,0,2.16-.07,4.32-.14,6.48-.22,4.32-.15,8.64-.32,12.96-.51,8.55-.37,17.1-.78,25.65-1.24,4.9-.26,9.79-.54,14.68-.83,.09,0,.17-3.53-.09-3.79l-.2-.2c.1,.1,0,.98,.01,1.16,.08,.76,.14,1.52,.2,2.28v-3.24c-17.16,1.6-34.33,2.99-51.51,4.27-2.41,.18-4.81,.35-7.22,.53-1.16,.08-2.33,.14-3.48,.3-1.33,.18-2.8,.18-3.97,.87-.02,0-.01,.17,0,.18h0Z"/><path class="cls-4" d="M870.49,365.58c3.4,2.46,7.18,4.5,10.85,6.54s7.38,3.89,11.17,5.65,7.59,3.41,11.46,4.95c1.86,.74,3.73,1.46,5.61,2.15,1.05,.39,2.04,.82,3.05,1.3,.44,.21,.87,.41,1.31,.61,2.13,.99,1.31,.59,2.87,4,.18,.39,.17-.07,.21-.29,.12-.73,.09-1.57,.1-2.29,.02-2.25,0-4.53-.22-6.77-.15-1.62-.35-3.23-.54-4.85,0-.08-.09-.86-.06-.55,.04,.44-.04-.95,0,.02,.07,1.13,.1,2.27,.07,3.4,0,3.16,.02,4.12,.06,2.9,0-.22,0-.25,0-.08-.01,.25,0,.14,.03-.34,.28-3.69,.74-7.29,2.2-10.72,.17-.4-.16-3.49-.09-3.52-.48,.17-.92,.41-1.4,.56-.35,.11-.59,.13-.87,.39-.33,.31-.41,.64-.47,1.09-.19,1.3-.2,2.63-.22,3.94-.07,4.11,.03,8.25,.4,12.34,.11,1.18,.24,2.36,.45,3.52,.07,.36,.1,1.26,.46,1.43l-.46-5.58,.02,1,.04-1.59c-2.02-.4-4.13-.71-6.09-1.34s-4.05-1.43-6.04-2.19c-3.86-1.47-7.69-3.04-11.46-4.72s-7.48-3.48-11.17-5.3-7.43-4.06-11.24-5.86c.02,0-.02,.16,0,.18h0Z"/><path class="cls-4" d="M756.57,374.06c.18-.23,.44-.35,.58-.63,.09-.18,.13-.38,.14-.59,.02-.43-.05-.85-.28-1.21h0c-.89,.14-1,1.11-.94,1.84,.09,1.07,1.01,1.68,1.92,2.07,1.3,.57,2.71,.9,4.13,1.01s3.03-.07,4.3-.71c.04-.02,0-.41-.01-.41-.66,.03-1.3,.17-1.96,.2s-1.33,.03-1.99,.02c-1.36-.02-2.71-.24-3.99-.67-.54-.18-1.09-.39-1.55-.72-.36-.26-.84-.72-.76-1.19,.06-.32,.58-1.12,.94-.8,.37,.33,.03,1.66-.52,1.62-.02,0,0,.17,0,.18h0Z"/><path class="cls-4" d="M757.42,377.11c.12-.06,.21,.05,.32,.12l.28,.18,.6,.39,1.13,.73c.77,.5,1.53,.99,2.33,1.43-.04-.02,.07-.37-.01-.41-.74-.47-1.51-.87-2.29-1.28l-1.12-.59-.56-.3c-.22-.12-.54-.22-.68-.44,0,0,0,.18,0,.17h0Z"/><path class="cls-4" d="M755.66,380.34c.27,.34,.54,.7,.87,1,.29,.26,.67,.45,1.01,.61,.69,.33,1.43,.56,2.18,.68s1.48,.13,2.22,.03c.81-.1,1.54-.43,2.23-.85,.06-.04-.03-.41-.01-.41-1.38,.52-3,.72-4.46,.5-.73-.11-1.45-.32-2.13-.63-.35-.16-.67-.39-1.02-.56-.3-.15-.61-.27-.9-.44,0,0,0,.06,0,.07h0Z"/></g></svg>