<?xml version="1.0" encoding="UTF-8"?><svg id="Layer_1" xmlns="http://www.w3.org/2000/svg" viewBox="0 0 1500 750"><defs><style>.cls-1{fill:#e8eaee;}.cls-2{fill:#b0b4c3;}.cls-3{fill:#231f20;}</style></defs><g><path class="cls-2" d="M536.8,437.88s138.02,1.14,179.72-17.12l32.14,10.78s21.67-12.19,17.41-11.51-15.97-5.5-15.97-5.5c0,0,69.09-5.73,87.36,2.68,18.27,8.42,32.4,14.27,32.4,14.27l1.6-11.17,25.72-10.15-13.64-6.61,74.64-.16s44.68,52.79,53.21,54.98c8.53,2.2,17.69-12.15,10.92-22.44-6.77-10.29-13.66-28.67,1.68-36.56,15.34-7.89,104.63-36.69,102.38-51.53l30.88,1.56s5.1-11.19,8.93-14.46c3.83-3.26,33.03-23.21,33.03-23.21,0,0-14-9.02-57.49,4.39-43.48,13.41-179.18,54.13-179.18,54.13,0,0-244.58-51.3-278.67-52.17s-144.87-4.05-184.95,8.86c-40.08,12.91-130.04,17.18-133.91,17.8-3.87,.62-71.11,7.11-59.82,15.35,11.29,8.23,59,27.53,59,27.53,0,0,6.89,5.55,17.87,11.5s52.43,25.94,96.77,21.6,57.96,17.14,57.96,17.14Z"/><path class="cls-2" d="M546.05,324.23c3.31-.98,51.64-32.91,64.89-50.94,13.25-18.03,47.56-25.26,47.56-25.26,0,0-15.93,37.84,21.36,63.62,37.28,25.78,29.22,32.81,29.22,32.81l-163.03-20.23Z"/><path class="cls-2" d="M469.08,401.16s19,42.81,22.61,53.33c3.61,10.52,20.17,45.06,29.72,43.44,9.54-1.62,5.65-9.76,11.91-59.21l19.98-15.98-84.22-21.59Z"/><path class="cls-1" d="M548.78,429.16c2.41,.09,4.77,.11,7.18-.04,2.59-.16,5.18-.5,7.76-.75,5.27-.52,10.54-1.07,15.81-1.58,10.45-1.01,20.9-2.06,31.33-3.23,21.01-2.35,41.97-5.06,62.84-8.43,5.1-.82,10.2-1.66,15.28-2.6s10.23-1.87,14.51-4.59c2.23-1.41,4.69-2.76,6.69-4.5,.44-.38,1.55-1.33,1.19-2.03-.3-.58-1.5-.16-1.93-.03-.64,.19-1.24,.47-1.82,.79-1.82,.99,2.63-.91,.56-.45-1.48,.33-2.8,.62-4.22,1.14-1.11,.4-2.23,.76-3.36,1.09-4.7,1.34-9.55,2.13-14.35,3-20.94,3.76-42.01,6.83-63.11,9.57-10.5,1.36-21.01,2.64-31.52,3.9-5.28,.63-10.56,1.25-15.84,1.83-5.3,.58-10.64,1-15.91,1.73-2.84,.4-5.61,.97-8.41,1.58-.95,.21-1.86,1.16-2.4,1.91-.17,.24-1.11,1.68-.29,1.71h0Z"/><path class="cls-1" d="M711.89,407.78c-17.09,4.76-34.44,8.7-51.82,12.23s-35.27,6.76-53.05,9.28c-9.92,1.4-19.86,2.72-29.83,3.74-2.37,.24-4.91,1.55-6.72,3.03-.72,.59-2.58,2.77-.31,2.72,15.86-.34,31.7-2.17,47.49-3.5s30.84-2.63,46.26-3.93c4.32-.36,8.63-.73,12.95-1.09,2.16-.18,4.32-.36,6.48-.54,2.52-.21,5.21-.18,7.61-.99s5.15-2.8,6.88-4.79c.41-.47,3.02-3.73,1.06-3.87-.73-.05-1.47-.12-2.2-.2-2.24-.24-4.5,1.03-6.31,2.22-.94,.62-1.96,1.33-2.68,2.21-.38,.47-1.23,1.37-.82,2.03,.5,.81,1.01,1.6,1.53,2.4l10.48-8.66c-1.09-.23-2.24,.02-3.34,.14-.99,.11-1.98,.22-2.97,.33-1.98,.22-3.96,.44-5.95,.66-3.8,.42-7.6,.85-11.4,1.27-7.77,.87-15.54,1.73-23.31,2.6-16.24,1.81-32.49,3.6-48.73,5.37-8.66,.94-17.31,2.03-26,2.58l-6.08,5.7c18-2.38,35.95-5.01,53.82-8.22,18.38-3.3,36.68-7.13,54.83-11.52,9.87-2.39,19.7-4.97,29.53-7.54,1.51-.39,3.79-1.4,4.61-2.81s-1.25-1.07-2.01-.85h0Z"/><path class="cls-1" d="M303.19,362.67c2.1,1.19,4.4,1.93,6.66,2.78s4.61,1.62,6.93,2.4c4.67,1.57,9.35,3.08,14.04,4.57l14.11,4.48,7.05,2.24c2.34,.74,4.81,1.92,7.27,1.79,1.36-.07,2.59-1.69,3.25-2.69,.46-.7,1.73-2.64,.83-3.42-1.04-.9-2.19-1.12-3.49-1.47-1.12-.31-2.25-.61-3.37-.92-2.41-.66-4.82-1.32-7.23-1.98-4.82-1.32-9.64-2.64-14.46-3.96s-9.66-2.62-14.5-3.86-9.86-2.78-14.87-3.22c-.79-.07-3.04,2.81-2.21,3.28h0Z"/><path class="cls-1" d="M314.51,366.66c3.35,.03,6.71-.42,10.04-.74s6.77-.67,10.16-1.03c6.96-.74,13.96-1.56,20.85-2.84l-.92-.08,.19,.15,.99-3.13c-1.53,2.07-2.55,4.12-2.43,6.75,.09,2,.83,3.91,1.78,5.65,2.01,3.66,5.15,6.21,8.96,7.83,.55,.23,1.82-.59,2.17-.83,.94-.63,1.88-1.53,2.55-2.43,.63-.84,2.3-3.1,.7-3.74-2.95-1.17-5.61-3.33-7.49-5.87-.94-1.27-1.72-2.64-2.1-4.18-.17-.69-.29-1.42-.27-2.14,0-.29,.04-.55,.1-.83,.11-.53,.53-1.17-.21-.14,.58-.8,2.21-3.51,.03-3.24-7.56,.95-15.09,2.36-22.61,3.58-6.57,1.07-13.27,1.73-19.77,3.14-1.03,.22-2.01,1.37-2.54,2.2-.19,.3-1.11,1.92-.17,1.93h0Z"/><path class="cls-1" d="M367.61,359.55c1.06,2.08,1.43,4.83,1,6.98-.12,.62-.31,1.22-.51,1.82-.07,.21-.07,.18,.01,0-.07,.17-.15,.34-.23,.51-.12,.25-.29,.49-.4,.74-.13,.32,.34-.49,.05-.07-.09,.12-.18,.25-.27,.38-.31,.45-.03-.02,.15-.16-.1,.09-.21,.24-.3,.34-.43,.5,.2-.12,.24-.23-.04,.11-.25,.22-.33,.3-.33,.31,.77-.58,.27-.22-.2,.15-.73,.51,.15-.07-1.31,.86-3,2.11-3.4,3.74s1.51,.82,2.21,.47c2.89-1.45,5.35-3.96,6.95-6.75,.58-1.01,1.04-2.15,1.29-3.29s.48-2.3-.25-3.24c-.51-.66-2.11,.39-2.51,.67-.87,.63-2.14,1.64-2.37,2.76-.12,.58-.26,1.14-.31,1.74-.02,.21-.04,.42-.06,.62-.04,.39,.03-.05-.04,.31-.08,.39-.16,.78-.28,1.17-.06,.19-.13,.38-.2,.57,.19-.55-.06,.12-.12,.24-.09,.18-.19,.35-.28,.53-.11,.19-.06,.12,.15-.23-.05,.08-.11,.17-.17,.25-.07,.1-.53,.68-.14,.22s-.1,.09-.18,.18c-.26,.3,.71-.71,.12-.13-.28,.27,.8-.61,.14-.12-.62,.46,.37-.2,.08-.05-.21,.11-.41,.23-.62,.34l-1.19,4.21c3.38-2.23,6.47-5.54,7.16-9.68,.49-2.94-.04-5.92-2.21-8.07-.58-.58-1.98,.6-2.37,.98-.5,.47-1.6,1.48-1.2,2.27h0Z"/><path class="cls-1" d="M373.13,356.98c2.68,1.39,4.2,4.44,4.41,7.37,.25,3.61-1.62,7.13-2.97,10.38-.25,.6-.17,1.11,.6,.87,.85-.26,1.71-1.06,2.18-1.79,2.37-3.71,4.77-7.85,4.36-12.43-.31-3.41-2.33-6.6-5.88-7.21-.8-.14-3.43,2.43-2.69,2.82h0Z"/><path class="cls-1" d="M332.93,372.65c1.14,.42,2.42,.15,3.6,0,1.29-.16,2.57-.32,3.86-.48,2.59-.32,5.17-.68,7.75-1.01l3.29-5.12c-3.72,1.27-7.6,1.56-11.48,.92l-3.97,5.58c4.97-1.41,9.93-2.84,14.89-4.27,1.65-.47,3.11-1.82,4.05-3.21,.51-.75,1.32-2.5-.31-2.27-3.25,.46-6.52,.8-9.8,1.09l1.02,.5c-.39-1.89-1.58,3.12-3.04,2.8,.26,.06,.51-.04,.81,.05,.82,.25,1.43,.93,1.95,1.58,1.11,1.41,2.02,2.93,3.25,4.24,2.7,2.89,5.99,4.88,9.81,5.9,1.91,.51,6.88-5.14,4.84-5.9-4.85-1.8-8.68-4.9-11.79-8.97-1.43-1.87-3.21-3.22-5.63-2.38-1.75,.6-3.26,1.86-4.45,3.25-.91,1.06-1.93,2.58-1.6,4.05,.12,.55,.54,.55,1.02,.5,3.3-.34,6.59-.77,9.88-1.23l3.75-5.48c-5.05,1.41-10.11,2.8-15.16,4.22-1.46,.41-2.77,1.73-3.61,2.94-.32,.47-1.61,2.46-.36,2.64,4.53,.63,8.95-.04,13.21-1.63,1.31-.49,2.62-1.95,3.25-3.15,.37-.7,.8-2.01-.52-1.76-2.65,.49-5.3,.96-7.94,1.46-2.85,.54-5.82,.84-8.45,2.13-.48,.24-3.41,2.54-2.1,3.02h0Z"/><path class="cls-1" d="M354.02,380.68c1.16,1.36,2.42,2.54,3.97,3.44s3.18,1.63,4.88,2.19,3.34,.91,5.07,1.05c.95,.08,1.91,.1,2.86,.08,1.19-.02,2.31-.39,3.41-.82s2.05-1.23,2.72-2.13c.3-.41,1.01-1.47,.22-1.75-1.49-.52-3.06-.21-4.61-.3-1.77-.1-3.56-.34-5.29-.74-3.41-.79-6.74-2.31-9.81-3.98-.87-.47-4.16,2.1-3.42,2.95h0Z"/><path class="cls-1" d="M358.6,379.3c.23,.98,1.25,1.03,2.11,1.32,1.01,.34,2,.61,3.03,.85,2,.47,3.99,1.01,5.95,1.63s3.93,1.28,5.84,2.06c.95,.39,1.88,.82,2.81,1.25,.62,.29,1.15,.6,1.86,.52,1-.11,2.1-.79,2.9-1.35,1.38-.96,4.67-4.33,1.41-5.31-.91-.27-1.83-.52-2.74-.78-2.08-.6-4.16-1.18-6.28-1.66s-4.25-.89-6.4-1.22c-1.2-.19-2.38-.3-3.6-.32-1.35-.03-2.64-.13-3.93,.33-.74,.27-1.41,.67-2,1.2-.29,.26-1.09,.99-.98,1.48h0Z"/><path class="cls-1" d="M360.65,380.73c2.7,1.22,5.46,2.4,8.28,3.29s5.78,1.43,8.79,1.64c1.38,.1,2.78-.84,3.76-1.76,.25-.24,2.22-2.38,.99-2.54-2.94-.38-5.91-.98-8.78-1.76s-5.69-1.84-8.33-3.36c-.38-.22-1.38,.24-1.66,.38-.75,.36-1.53,.91-2.12,1.5-.46,.46-2.08,2.1-.93,2.62h0Z"/><path class="cls-1" d="M385,375.74c-.27,.88-.07,1.83,0,2.74s.18,1.79,.32,2.69c.07,.43,.14,.87,.21,1.3,.05,.34-.04,.95,.08,1.24,.01,.03-.05,.21,0,.21,.03,0,1.02-1.07,.99-.92,.13-.08,.13-.08,0,0-.13,.06-.14,.07-.04,.02,.21-.09-.38,.13-.37,.13-1.3,.42-2.66,.55-4.07,.51-.76-.02-1.51-.08-2.27-.15s-1.64-.07-2.33-.45c-.6-.33-1.97,.67-2.37,1-.34,.28-.65,.57-.93,.91-.16,.19-.67,.85-.58,1.17,.26,.93,.93,1.6,1.6,2.28s1.37,1.21,2.15,1.71c1.62,1.04,3.62,2.31,5.6,1.86,1.05-.24,2.04-.89,2.79-1.67,.48-.51,1.31-1.34,.98-2.1-.35-.8-1.49-.92-2.24-1.18-.85-.3-1.67-.66-2.46-1.08s-1.51-.88-2.24-1.36c-.76-.51-1.44-1.21-2.29-1.54l-3.22,3.48c.92-.01,1.88,.41,2.78,.61s1.81,.28,2.73,.31c2.3,.09,4.39-.51,6.37-1.66,1.29-.74,2.56-1.73,3.38-2.99,.65-.99,.65-1.93,.31-3.02-.31-.99-.61-2.02-1.02-2.97-.21-.49-.44-.98-.67-1.47s-.33-.93-.82-1.21c-.33-.18-1.05,.3-1.27,.45-.38,.26-.94,.67-1.08,1.13h0Z"/><path class="cls-1" d="M369.71,390.69c.53,.67,1.46,1.09,2.19,1.53s1.42,.87,2.16,1.25c1.55,.79,3.19,1.44,4.82,2.06s3.19,1.18,4.83,1.59c.45,.11,.96,.25,1.43,.26,.73,0,1.46-.33,2.11-.64,1.35-.65,3.36-2.15,3.13-3.88-.02-.3-.18-.49-.47-.57-2.72-.76-5.46-1.41-8.13-2.36-1.32-.47-2.6-1.01-3.92-1.49-1.41-.51-2.83-1.3-4.29-1.63-.95-.21-2.18,.93-2.76,1.51-.43,.43-1.66,1.68-1.11,2.37h0Z"/><path class="cls-1" d="M370.38,394.15c.51-.2,1.43,.24,1.9,.44,.84,.36,1.69,.69,2.54,1.01,2.03,.76,4.05,1.57,6.1,2.27,4.19,1.43,8.32,2.99,12.67,3.81,1.36,.26,6.03-3.3,4.3-4.13-4.38-2.1-9.28-3.33-13.97-4.55-2.45-.64-4.9-1.43-7.38-1.9-2.19-.42-4.09-.17-5.87,1.27-.35,.28-1.11,.92-1.09,1.43,.02,.45,.36,.52,.79,.35h0Z"/><path class="cls-1" d="M376.19,391.26c.18,.89,.16,1.12,.85,1.7,.54,.45,1.05,.84,1.65,1.22,1.28,.8,2.57,1.57,3.89,2.3,2.57,1.44,5.21,2.73,7.9,3.92,5.3,2.36,10.75,4.27,16.33,5.88s11.41,3.11,17.22,4.31,12.01,1.94,18.01,2.87c3.83,.59,7.66,1.19,11.48,1.78s7.63,1.36,11.47,1.74l7.68-9.07c-1.49,.12-2.96,.47-4.42,.74-2.16,.4-4.5,2.01-5.92,3.6-.69,.77-2.11,2.9-.51,3.63,1.05,.48,2.04,.85,3.18,1.1,1.3,.29,3.3-.45,4.42-.94,1.59-.7,3.38-1.82,4.57-3.11,1.51-1.63,3.08-4.34-.02-5.05-3.27-.74-6.62-1.16-9.92-1.73-3.65-.63-7.3-1.25-10.95-1.89-6.19-1.08-12.39-2.36-18.61-3.2-11.88-1.61-23.76-3.26-35.35-6.41-3.19-.87-6.34-1.88-9.45-3.02-1.63-.6-3.25-1.22-4.85-1.9-.78-.33-1.54-.67-2.34-.94-.29-.1-.6-.22-.9-.3-.74-.2-1.31-.12-2.08-.08s-1.6,.67-2.13,1.13c-.37,.32-1.3,1.12-1.18,1.71h0Z"/><path class="cls-1" d="M394.1,401.12c1.89,1.17,3.48,2.93,5.28,4.25s3.68,2.35,5.6,3.36c3.96,2.08,8.14,3.65,12.41,4.95,8.9,2.71,18.17,3.87,27.39,4.95,3.14,.37,6.3,.64,9.44,.99s6.47,.94,9.63,.46c1.9-.29,3.96-1.29,5.34-2.66,.65-.65,2.19-2.36,.84-3.1-1.2-.65-2.52-.72-3.85-.86-1.51-.16-3.02-.33-4.53-.46-2.75-.24-5.5-.58-8.25-.75-4.62-.29-9.24-.72-13.84-1.25-9.24-1.06-18.46-2.6-27.27-5.63-2.46-.85-4.88-1.83-7.22-2.97-1.12-.55-2.26-1.07-3.37-1.64-1.23-.64-2.69-1.26-3.68-2.23-1.16-1.12-4.9,1.98-3.9,2.6h0Z"/><path class="cls-1" d="M370.53,379.31c9.32,3.77,19.63,4.97,29.6,5.61s20.44,.37,30.57-.96c2.75-.36,5.5-.8,8.23-1.32,3.53-.67,7.05-1.27,10.34-2.74l-1.84-2.91c-.99,.76-2.49,1.62-2.85,2.89-.32,1.13,.83,1.21,1.7,1.06,.65-.11,1.35-.36,1.94-.65,.16-.08-3.41,.7-2.53,.72,1.25,.03,2.47-.61,3.58-1.11,1.48-.67,3.26-1.93,4.09-3.34,.52-.88,.63-1.89-.73-1.88-2.68,.02-5.46,1.1-8.07,1.67s-5.08,1.03-7.64,1.45c-5.02,.82-10.08,1.4-15.16,1.74-10.12,.68-20.28,.4-30.34-.89-5.85-.75-11.68-1.65-17.53-2.42-.98-.13-2,.61-2.69,1.24-.31,.29-1.51,1.51-.68,1.84h0Z"/><path class="cls-1" d="M376.31,393.62c4.72,1.61,9.63,2.44,14.58,3.02,5.12,.6,10.23,1,15.39,1.07,10.86,.16,21.59-1.03,32.24-3.13,6.6-1.3,13.78-2.64,19.59-6.14,1.46-.88,4.46-2.52,4.98-4.37,.37-1.32-.54-1.66-1.76-1.58-.76,.04-2.56,1.04-1.31-.19,1-.98,.02-.46-.63-.33-.82,.17-1.62,.42-2.42,.65-2.57,.75-5.16,1.44-7.76,2.07s-5.21,1.21-7.83,1.75c-.31,.06-.61,.13-.92,.19,.15-.03-1.37,.27-.81,.16,.45-.09-.5,.09-.58,.11-.31,.06-.62,.11-.93,.17-1.32,.23-2.65,.44-3.97,.64-5.32,.81-10.69,1.43-16.05,1.92-6.12,.56-12.32,.86-18.47,.86s-12.74-.29-19.1-.38c-1.2-.02-2.52,.77-3.4,1.52-.31,.26-1.78,1.64-.82,1.97h0Z"/><path class="cls-1" d="M455.57,384c-16.19,5.23-33.74,6.91-50.69,5.97-4.87-.27-9.78-.68-14.57-1.59l-5.57,4.46c4.02,.67,8.19,1.29,12.27,1.4,4.37,.11,8.74-.04,13.1-.35,8.62-.62,17.2-2.32,25.62-4.16,2.44-.53,4.88-1.09,7.31-1.66,3.09-.72,6.42-1.24,9.19-2.86,1.83-1.07,3.71-2.26,5-3.99,.55-.75,1.49-2.23,.18-2.79-1.22-.52-2.74,.09-3.96,.41-1.03,.27-2.05,.56-3.07,.84-2.13,.58-4.26,1.16-6.4,1.72-4.2,1.1-8.41,2.14-12.65,3.08-8.46,1.86-17.11,3.37-25.76,3.89-5.1,.31-10.15,.44-15.25,0-1.79-.15-3.83,.92-5.18,2.01-.69,.57-2.18,2.26-.39,2.45,8.97,.94,17.87,1.67,26.89,1.38s17.86-1.26,26.63-3.02c5.05-1.01,10.04-2.27,15.02-3.6,1.41-.38,3.5-1.26,4.22-2.63s-1.12-1.23-1.94-.97h0Z"/><path class="cls-1" d="M420.08,406.81c4.09,1.08,8.05,.48,12.07-.6,2.46-.66,4.9-1.24,7.35-1.96,1.99-.59,3.97-1.19,5.94-1.82,7.94-2.54,15.76-5.42,23.7-7.97l-.83-4.85c-4.18,3.24-8.36,6.36-12.87,9.13-4.13,2.54-8.36,4.94-12.58,7.34-1.09,.62-4.83,3.31-3.26,4.89s5.73-.35,7.28-1.05c10.98-4.92,21.97-9.79,32.94-14.72l-6.58-1.96c-2.54,2.89-5.22,5.64-8.05,8.24-.17,.15-.33,.31-.5,.46,.51-.46,.6-.54,.28-.26-.4,.34-.79,.7-1.19,1.04-.68,.59-1.38,1.17-2.08,1.74s-1.4,1.14-2.12,1.69c-.23,.19-.48,.37-.72,.54l.69-.48c-.84,.59-1.69,1.18-2.52,1.78-1,.74-3.43,3.12-1.62,4.27,.6,.38,1.53,.33,2.2,.31,1.59-.05,3.54-.76,4.93-1.46,3.69-1.86,7.38-3.72,11.07-5.57l-6.63-2.12-4.84,5.71c-.51,.61-1.5,1.75-1.06,2.68s1.97,.95,2.75,.88c1.7-.14,3.42-.68,4.94-1.43s3.15-1.62,4.24-2.91l4.84-5.73c.93-1.1,1.9-2.7,.03-3.39-1.97-.73-4.95,.4-6.66,1.27-3.69,1.86-7.39,3.72-11.08,5.58l5.52,3.12c6.7-4.93,12.9-10.7,18.37-16.95,.93-1.06,1.88-2.68,.03-3.32-2.04-.71-4.82,.56-6.61,1.36-10.99,4.93-21.95,9.9-32.94,14.84l4.02,3.84c4.35-2.49,8.69-4.98,12.91-7.71,4.78-3.09,9.68-6.34,13.81-10.28,.78-.75,2.91-2.7,1.65-3.83s-4.12,.11-5.38,.61c1.43-.57,0,0-.33,.12-.47,.18-.94,.35-1.41,.53-1.02,.38-2.04,.76-3.06,1.14-1.88,.7-3.77,1.4-5.65,2.09-3.85,1.42-7.7,2.82-11.57,4.18s-8.2,2.67-12.13,4.36c.55-.24-.69,.26-.8,.3-.47,.16-.95,.33-1.42,.49-.93,.32-1.86,.62-2.8,.9-1.98,.61-3.94,.93-5.99,.46-1.63-.38-3.45,.61-4.74,1.53-.35,.25-2.98,2.53-1.53,2.91h0Z"/><path class="cls-1" d="M464.56,412.24h-.24l-.5-.14c.66,.27,1.14,.69,1.66,1.17l-.3-.29c.81,1.03,1.39,2.16,1.89,3.36,.53,1.27,1.09,2.47,1.31,3.84l-.09-.61c.06,.54,.09,1.08,.08,1.63l9.19-5.16c-1.8-.37-3.96-.03-5.72,.3-2.51,.47-5.28,1.38-7.41,2.79-.77,.48-1.46,1.05-2.07,1.72-.46,.47-.75,1.02-.89,1.66-.09,1.32,1.4,1.63,2.43,1.53,1.84-.18,3.71-.17,5.56-.24,1.12-.05,2.21-.39,3.24-.81,1.11-.45,2.25-1.04,3.16-1.83,.55-.48,1.11-1.02,1.47-1.67,.25-.35,.33-.72,.22-1.11,.01-.36-.16-.64-.51-.83-.7-.68-1.67-.98-2.49-1.51s-1.66-1.03-2.54-1.48c-1.38-.71-3.36,.12-4.58,.79-.68,.37-1.42,.83-1.91,1.43-.36,.45-.79,1.01-.55,1.62,.31,.8,.67,1.54,1.09,2.3,.19,.35,.35,.69,.48,1.07,.17,.48,.32,.82,.66,1.2l8.05-5.75c-1.73,0-3.45,0-5.18,0l1.05,.05h-.19l-5.79,6.6c.52-.12,1.05-.26,1.55-.43,.2-.07,2.68-1.11,1.09-.45-1.19,.49-.22,.1,.08,0,.15-.05,.31-.1,.46-.15,.66-.23-.87,.24-.83,.23,.29-.06,.57-.14,.85-.2,.25-.05,.51-.09,.77-.14,.49-.09-1.37,.16-.57,.08,.13-.01,.26-.03,.39-.04,.6-.05,1.2-.05,1.8-.1,2.12-.19,4.17-1.07,5.87-2.32,.66-.49,1.26-1.01,1.74-1.69,.36-.51,.77-1.22,.46-1.87-.9-1.9-1.94-3.87-3.55-5.26-.79-.69-1.66-1.29-2.57-1.81s-1.89-.95-2.74-1.58l.29,.29c-.02-.09-.04-.18-.05-.27-.2-.29-.48-.44-.85-.46-.52-.04-1.04,0-1.54,.15-1.17,.28-2.27,.84-3.23,1.54-.6,.44-1.55,1.12-1.62,1.95-.08,.93,.98,.91,1.61,.89h0Z"/><path class="cls-1" d="M419.49,396.9c-.39,.04-.78,.08-1.17,.1l.56,.19c-.07-.25-.15-.35-.37-.48-.88-.55-2.52,.22-3.3,.65-.29,.16-2.17,1.42-1.25,1.85,1.71,.79,3.88,1.05,5.74,1.14,2.16,.11,4.33,.07,6.48-.13,4.38-.4,8.73-1.39,12.95-2.63,8.52-2.51,16.88-5.51,25.08-8.93l-3.08-2.96c-.76,.67-1.4,1.32-2,2.14-.91,1.25,.35,1.91,1.47,1.91,2.02,.01,4.04-1.04,5.73-2.03-4.53,1.84-5.44,2.3-2.73,1.37,.72-.26,1.41-.6,2.06-1,.89-.51,1.72-1.05,2.53-1.69,.75-.59,2.56-2.24,1.55-3.24s-3.59-.18-4.63,.28c-7.64,3.35-15.45,6.37-23.36,9.02-.45,.15-.91,.3-1.37,.45,.98-.32-1.03,.33-1.37,.44,.63-.2-.79,.25-.95,.29-.55,.17-1.1,.33-1.65,.49-2.03,.58-4.08,1.11-6.16,1.53-4.19,.86-8.32,.83-12.57,.91l-1.08,2.29c.14-.06,1.12-.54,.86-.44-.09,.03,.71-.15,.8-.17,.48-.09,1.28-.34,1.56-.79,.21-.34,.17-.62-.35-.57h0Z"/><path class="cls-1" d="M435.21,354.69c1.85,3.39,4.79,5.92,7.64,8.44s5.58,5.37,7.38,8.92c1.88,3.73,2.47,7.52,2.36,11.66-.05,1.9,.44,3.9,2.59,4.27,2.84,.49,6.49-1.33,8.12-3.58,.92-1.28-.96-1.38-1.73-1.26-1.63,.26-3.56,1.11-4.69,2.34l.2-.17,2.76-1.48,.46-.14,1.57-.15c-1.44,0-1.71-1.86-1.87-3.06-.22-1.64-.5-3.24-.93-4.84-.9-3.3-2.48-6.49-4.59-9.18-4.15-5.28-10.81-8.06-14.43-13.78-.75-1.18-5.39,.97-4.83,2h0Z"/><path class="cls-1" d="M447.05,350.04c.27-.45,.2-.65,.14-1.12-.04-.31-.77-.2-.93-.18-1.29,.15-3.22,.89-3.5,2.35-.3,1.62,2,3.36,2.95,4.37,3.24,3.48,6.48,6.94,9.82,10.33,2.83,2.88,6.06,5.67,8.22,9.11,.95,1.52,1.63,3.19,1.52,5.01-.12,1.97-.97,3.91,.03,5.78,.77,1.45,5.95-.9,5.62-2.49-.41-1.96,.2-3.88,.19-5.84,0-1.66-.47-3.29-1.27-4.74-1.82-3.3-5.05-5.75-7.78-8.26-3.08-2.82-6.18-5.62-9.34-8.36-1.63-1.41-3.28-2.79-4.88-4.23-.65-.58-.96-1.13-1.31-1.89,.06-.68-.31-.59-1.11,.26l.42-.13c.58-.24,.54-.22-.13,.06,.18,.05,.33,.14,.45,.28,.19,.18,.78-.14,.89-.32h0Z"/><path class="cls-1" d="M455.64,349.57c.53-.34,.79-.75,.2-1.17-.42-.3-1.42,.17-1.77,.36-1.34,.72-1.58,1.66-.49,2.76,1.26,1.26,2.57,2.45,3.86,3.67,2.65,2.51,5.17,5.16,7.57,7.92s4.75,5.36,6.72,8.28c.91,1.35,1.72,2.86,1.87,4.5s-.44,2.83-1.08,4.22c-.29,.62,1.04,.53,1.23,.51,.91-.13,1.89-.53,2.63-1.09,6.61-4.96-.57-12.73-4.43-16.82-2.54-2.7-5.21-5.28-7.99-7.73-1.3-1.15-2.63-2.27-3.98-3.36-.72-.58-1.47-1.11-2.23-1.64-.41-.29-1.78-.89-1.81-1.49l-1.84,1.23v-.07c-.42,.69,1.37,.01,1.54-.09h0Z"/><path class="cls-1" d="M484.18,390.11c-.35-.41-.37-.89-.5-1.38l-5.83,3.68c4.59,3.15,10.16,5.28,15.44,6.96,5.62,1.79,11.48,3.23,17.42,2.98,1.54-.07,3.08-.84,4.26-1.8,.33-.27,2.3-2.06,1.09-2.4-5.37-1.52-10.96-2.01-16.34-3.51-5.65-1.58-10.9-3.91-16.3-6.14-1.13-.47-2.9,.56-3.78,1.13-.39,.25-2.75,1.86-2.05,2.55,.36,.35,.77,.63,.95,1.13,.55,1.54,6.71-1.95,5.65-3.2h0Z"/><path class="cls-1" d="M465.04,405.31c6.99-1.55,13.9-2.72,21.09-2.54s14.66,1.34,21.63,3.66,13.43,6.09,19.7,9.95c6.19,3.81,12.43,7.55,19.12,10.43,3.99,1.72,8.19,3.01,12.46,3.82,2.06,.39,4.14,.64,6.23,.75,1.33,.07,2.66,.14,3.99,.02,1.88-.16,3.71-.71,5.5-1.27s3.54-1.33,4.86-2.58c.44-.41,1.75-1.89,.57-2.4-.65-.28-1.32-.68-2.02-.81-1-.18-2.08-.09-3.1-.13-1.97-.08-3.95-.36-5.88-.72-3.66-.68-7.2-1.81-10.7-3.08-7.39-2.68-14.31-6.45-21.34-9.94s-14.04-6.89-21.48-9.32c-7.28-2.38-14.94-3.68-22.6-3.66-8.95,.02-18.03,1.46-26.35,4.8-.91,.36-2.31,1.17-2.75,2.12-.37,.8,.33,1.05,1.05,.89h0Z"/><path class="cls-1" d="M541.34,434.8c1.74,.69,3.71,.59,5.56,.64,2,.06,3.97,.3,5.97,.28,4.24-.04,8.48-.1,12.71-.32,8.6-.44,17.19-1.01,25.77-1.79,17.7-1.61,35.34-3.86,52.89-6.67,10.38-1.66,20.64-3.87,30.8-6.52,1.54-.4,3.72-1.38,4.69-2.74,.81-1.13-.35-1.65-1.43-1.51-17.04,2.13-33.95,5.18-50.97,7.45s-34.38,4.1-51.63,5.51c-5.04,.41-10.08,.84-15.13,1.28-2.58,.22-5.13,.6-7.7,.88-2.86,.32-5.74,.48-8.54,1.17-.9,.22-1.81,.53-2.54,1.13-.2,.16-1.09,.97-.47,1.21h0Z"/><path class="cls-1" d="M664.58,418.94c-10.72,.46-21.44,1-32.16,1.53-10.54,.53-21.09,1.22-31.63,1.49-5.49,.14-11.05,0-16.42-1.24l-6.37,3.36c16.51,1.69,33.83,1.03,49.96-3.01,1.26-.31,3.53-.8,4.23-2.07,.65-1.19-1.27-1.19-2.01-1.08-7.59,1.08-15.2,2.12-22.85,2.63s-15.79,.49-23.7,.04c-1.9-.11-4.03,.34-5.7,1.26-.64,.36-2.46,1.77-.67,2.1,10.94,2.01,21.98,1.07,33,.37,11.05-.7,22.1-1.38,33.15-2.06,6.46-.4,12.91-.83,19.36-1.27,.82-.06,2.72-.36,3.19-1.17s-.76-.91-1.36-.89h0Z"/><path class="cls-1" d="M475.86,385.36c11.24,1.35,22.61,2.11,33.9,2.93s23.12,1.63,34.69,2.33c23.15,1.41,46.3,2.63,69.46,3.67,47.08,2.1,94.19,3.53,141.3,4.67,12.98,.31,25.96,.63,38.94,.79,6.44,.08,12.86,.05,19.3-.19,3.6-.13,7.2-.3,10.8-.53,1.63-.1,3.24-.22,4.85-.45,3.65-.53,6.9-2.22,10.53-2.91,1.82-.35,4.91-.95,6.16-2.47,1.08-1.32-.66-1.83-1.87-1.87-3.5-.12-6.98-.22-10.48-.28-1.86-.03-4.24,.28-5.89,1.15-.88,.46-1.71,1.29-.27,1.79,1.63,.57,3.23,1.13,4.9,1.57l-1.11-.81v1.42l13.1-5.12c-1.23-.54-2.44-1.22-3.8-1.33-.75-.06-1.52,0-2.28-.01-1.52-.01-3.04,.06-4.56,.12-3.32,.15-6.64,.23-9.96,.28-5.75,.08-11.5,.09-17.25,.1-11.69,.02-23.38-.14-35.08-.27-23.73-.26-47.46-.67-71.18-1.2-46.54-1.03-93.08-2.51-139.61-4.13-13.12-.46-26.24-.88-39.37-1.31s-27.2-1.02-40.78-1.07c-1.39,0-3.05,.7-4.15,1.51-.5,.37-1.63,1.47-.3,1.63h0Z"/><path class="cls-1" d="M460.57,386.1c4.78,1.82,9.69,3.41,14.7,4.43s10.5,1.87,15.78,2.6c10.83,1.5,21.71,2.68,32.58,3.86,21.99,2.38,44.02,4.42,66.07,6.18,44.21,3.52,88.55,5.66,132.89,6.36,12.48,.2,24.97,.28,37.46,.26,6.34-.01,12.69,.04,19.03-.15,3.11-.09,6.23-.18,9.34-.3,5.53-.22,11.02-1.8,16.56-2.28l2.97-4.7c-5.27,.65-10.67,.65-15.97,.88s-10.31,.42-15.46,.59c-10.31,.33-20.63,.55-30.94,.65-2.47,.02-4.93,.04-7.4,.05-1.12,0-2.24,0-3.36,.01-.67,0-1.35,0-2.02,0-.23,0-2.7,0-1.63,0-5.16-.01-10.32-.05-15.47-.12-10.09-.13-20.18-.37-30.27-.74-40.87-1.49-81.68-4.75-121.88-9.82-22.94-2.89-45.92-6.18-68.61-10.67-2.94-.58-6.63,.23-9.33,1.38-1.41,.6-3.83,2.09-1.35,3.16,20.34,8.81,42.42,11.07,64.3,12.92,23.25,1.97,46.51,3.88,69.75,5.98,13.09,1.19,26.19,2.37,39.28,3.54l9.51-8.3c-10.98,1.04-21.93,2.18-32.94,2.76-11.09,.58-22.21,.79-33.32,.63-22.19-.33-44.42-2.03-66.36-5.41-12.41-1.91-24.75-4.3-36.97-7.17l-10.5,4.99c29.33,5.61,58.54,11.81,87.8,17.8,8.58,1.76,17.08,3.83,25.67,5.53l10.2-7.43c-11.36-.37-22.7-1.33-33.96-2.93-11.14-1.58-22.2-3.25-33.17-5.77-6.16-1.41-12.19-3.22-18.3-4.79-3.08-.8-6.93,.01-9.77,1.33-1.33,.62-4.8,2.68-1.81,3.7,16.78,5.72,33.49,11.58,50.18,17.56,1.16,.42,3.33-.01,4.42-.28,1.53-.36,3-.87,4.41-1.55,.88-.43,5.03-2.66,3.09-3.96-4.64-3.11-9.58-6.1-14.8-8.11s-10.87-3.64-16.45-4.93c-2.87-.66-6.29,.32-8.9,1.45-.77,.33-5.26,2.59-3.26,3.82,10.62,6.49,22.61,10.21,35,11.18,3.21,.25,7.14-.89,9.79-2.71,.63-.43,1.84-1.25,1.58-2.18s-1.79-1-2.47-1.05c-10.9-.86-21.53-4.44-30.88-10.16l-12.16,5.27c5.49,1.27,10.69,3.18,15.79,5.58,4.79,2.26,9.5,4.47,13.99,7.3l11.92-5.8c-16.6-5.37-33.14-10.84-49.65-16.47l-11.58,5.03c10.77,4.04,22.16,6.93,33.37,9.44s22.68,4.34,34.23,5.36c6.39,.56,12.8,.92,19.21,1.09,3.17,.08,6.75-1.58,9.23-3.48,1.35-1.03,3.95-3.37,.98-3.94-7.15-1.38-14.37-2.38-21.54-3.71s-14.51-2.7-21.77-4.04c-15.36-2.83-30.73-5.64-46.09-8.49-8.34-1.55-16.65-3.24-24.96-4.9-2.9-.58-6.68,.45-9.28,1.68-1.12,.53-4.02,2.62-1.22,3.31,21.88,5.41,44.11,9.4,66.49,12.01s44.81,3.58,67.26,3.1c12.67-.27,25.44-.81,38.02-2.36,3.23-.4,6.5-2.05,8.9-4.25,1.17-1.08,3.7-3.84,.61-4.05-22.64-1.49-45.29-2.92-67.93-4.52-12.29-.87-24.57-1.73-36.86-2.61-10.68-.77-21.38-1.49-31.99-2.99-11.59-1.64-23.26-4.11-34.21-8.31l-10.68,4.54c20.56,3.23,41.08,6.63,61.73,9.3,20.73,2.68,41.52,4.97,62.35,6.76,41.47,3.57,83.09,5.16,124.7,5,23.33-.09,46.66-.77,69.95-2.08,2.09-.12,4.15-.42,6.12-1.13,.69-.25,2.78-.9,2.58-1.99l-.11-.62c-.15-.84-1.84-.97-2.35-1.03-3.65-.46-7.35-1.49-11.03-1.54-3-.04-6.02,.02-9.02,.03-5.82,0-11.63,.13-17.44,.21-11.23,.15-22.46,.21-33.69,.2-22.26,0-44.53-.26-66.78-.9-44.66-1.29-89.28-3.67-133.8-7.43-12.5-1.06-24.97-2.29-37.46-3.44-12.16-1.12-24.48-2.48-36.34-5.47-.98-.25-2.36,.32-3.19,.77-.21,.11-1.88,1.16-1.08,1.47h0Z"/><path class="cls-1" d="M524.6,386.86c1.93,.29,3.82,.79,5.75,1.03,2.24,.28,4.48,.56,6.73,.83,4.15,.5,8.31,.97,12.47,1.43,8.55,.96,17.11,1.87,25.68,2.67,17.1,1.61,34.22,3.04,51.35,4.18,35.25,2.34,70.54,3.85,105.86,4.73,9.69,.24,19.39,.41,29.09,.53s20.24,.27,30.33-.61c2.25-.2,4.65-1.96,6.29-3.37,.36-.31,3.35-3.3,1.64-3.48-8.32-.86-16.71-.57-25.07-.46s-17.38,.18-26.07,.2c-17.25,.04-34.51-.02-51.76-.5-36.2-.99-72.38-2.62-108.52-4.97-9.93-.65-19.87-1.33-29.8-2.05-4.91-.35-9.82-.74-14.73-1.11-2.56-.2-5.12-.39-7.67-.58-2.71-.21-5.41-.19-8.12-.36-1.2-.08-2.61,.1-3.67,.73-.83,.5-.77,1.01,.23,1.16h0Z"/><path class="cls-1" d="M499.69,375.45c-2.06-.5-4.21-.9-6.2-1.65l-5.18,2.42c51.81,6.93,104,9.72,156.23,11.15,26.3,.72,52.61,1.1,78.92,1.42,26.26,.32,52.51,1.05,78.76,1.55,14.96,.28,29.89,1.29,44.84,1.79,7.57,.25,15.13,.5,22.7,.84,7.69,.34,15.39,.79,23.08,.6,1.8-.05,3.3-7.1,1.83-7.3-12.97-1.82-26.23-1.83-39.3-2.34-12.65-.49-25.33-.5-37.99-.45-12.93,.05-25.86-.34-38.8-.33s-26.73,.09-40.1,.03c-52.22-.25-104.44-.5-156.61-2.93-29.61-1.38-59.26-3.44-88.74-6.58-1.49-.16-3.18,.3-4.43,1.09-.94,.6-1.39,1.5,.14,1.51,2.9,.02,5.81,.26,8.71,.47,.5,.03,3.14-1.04,2.16-1.28h0Z"/><path class="cls-1" d="M652.68,393.65c-2.88-.4-5.8-.72-8.66-1.24l-1.98,1.18c12.31,0,24.62-.54,36.93-.85,12.42-.31,24.84-.58,37.26-.79,24.66-.42,49.33-.63,74-.65,49.58-.03,99.16,.8,148.71,2.69,14.06,.53,28.13,.96,42.18,1.8s28.53,1.45,42.8,1.9c1.33,.04,3.75-4.73,2.69-4.8-24.44-1.63-48.96-2.13-73.45-2.73-24.89-.61-49.79-.96-74.69-1.26-50.18-.6-100.38-.44-150.55,.64-13.99,.3-27.98,.65-41.97,1.09s-28.51,.75-42.72,1.75c-.43,.03-3.23,1.01-1.56,1.17,2.95,.28,5.89,.75,8.82,1.14,.63,.08,1.77,.09,2.29-.34,.38-.31,.64-.61-.11-.71h0Z"/><path class="cls-1" d="M898.55,397.55c-33.25-1.72-66.57-.85-99.81,.82-33.59,1.69-67.15,4.06-100.78,4.87-18.65,.45-37.34,.51-55.97-.58-1.13-.07-2.53,.09-3.57,.6-.43,.21-1.28,.89-.33,1.13,23.5,5.91,47.77,6.87,71.9,6.81,24.87-.06,49.76-.52,74.63-1.2,14-.38,27.99-1.02,41.99-1.58l5.83-4.13c-24.46,.84-48.89,2.31-73.35,3.19s-47.14,1.27-70.71,.73c-6.73-.15-13.45-.38-20.17-.68-6.91-.31-13.8-.92-20.71-1.23l-4.67,4.64c1.97-.13,3.93-.31,5.9-.4,1.59-.08,3.41-.5,4.9-1.05,.72-.27,2.32-.86,2.74-1.67,1.03-2-4.32-1.63-4.88-1.61,1.54-.08-.06-.02-.29-.02-.39,.01-.77,.02-1.16,.03-.85,.02-1.7,.05-2.54,.07-2.95,.09-6.21,.51-8.8,2.05-.46,.27-1.38,.81-1.27,1.49,.14,.84,1.7,1.04,2.26,1.1,.33,.03,.66,.06,.99,.08l1.46,.08c-.52-.03-.58-.03-.18,0,.68,.04,1.36,.08,2.05,.11,1.93,.11,3.87,.21,5.8,.3,3.07,.15,6.14,.29,9.21,.42,5.97,.26,11.94,.45,17.92,.59,11.97,.28,23.94,.31,35.91,.27,24.24-.09,48.47-.9,72.69-2.01,13.7-.63,27.39-1.37,41.07-2.36,2.23-.16,4.66-.88,6.48-2.21,.38-.28,1.21-.85,1.01-1.42s-1.27-.53-1.67-.5c-24.66,1.64-49.42,2.27-74.12,2.97-12.88,.36-25.76,.7-38.64,.94s-24.72,.28-37.06-.36c-13.43-.7-26.85-2.22-40-5.1l-3.41,1.84c33.98,1.14,67.89,.14,101.83-1.69s66.53-4.17,99.85-5c18.94-.47,37.89-.44,56.82,.56,.32,.02,1.9,.07,2.01-.36,.11-.49-.84-.51-1.16-.53h0Z"/><path class="cls-1" d="M592.93,412.96c22.41,2.37,44.96,.75,67.26-2.02,3.4-.42,6.8-.86,10.2-1.32,.81-.11,1.63-.22,2.44-.33,1.09-.15,.19-.03-.02,0,.82-.11,1.64-.22,2.46-.33,1.62-.23,3.24-.45,4.86-.67l2.33-4.4c-28.33,5.44-56.67,10.87-85.04,16.14-1.94,.36-3.88,.73-5.82,1.08-.96,.17-1.92,.34-2.89,.5-.48,.08-.96,.15-1.45,.23-1.65,.26,1.39-.17-.26,.04-.97,.12-1.93,.24-2.9,.33-.48,.05-.97,.09-1.45,.12-.39,.03-1.47,.08-.47,.04-.97,.03-1.93,.04-2.9,.01-.48-.01-.97-.04-1.45-.07-.32-.02-.64-.05-.97-.07,.38,.04,.29,.03-.27-.04l-6.84,5.18c8.97-2.01,17.99-3.76,27.06-5.24,1.04-.17,2.09-.34,3.13-.5,.56-.09,1.13-.17,1.69-.26,.23-.03,1.28-.2,.36-.05s.18-.02,.36-.05c2.26-.33,4.51-.64,6.77-.93,4.6-.6,9.21-1.13,13.83-1.58,5.18-.51,10.37-.97,15.56-1.33l5.88-5.65c-18.93,2.17-37.88,4.27-56.81,6.39-5.44,.61-10.87,1.22-16.31,1.83l2.37,2.84c.24-.16,.48-.31,.72-.46,1-.66-.16,.13-.19,.09,0,0,1.41-.75,1.5-.79,.25-.12,.53-.22,.77-.37-.12,.08-1.47,.61-.41,.19,.59-.23,1.19-.47,1.78-.7,.88-.34-1.49,.49-.59,.21,.2-.06,.41-.13,.61-.2,.54-.17,1.09-.34,1.64-.49,.26-.07,.57-.13,.83-.23-1.65,.64-1.11,.28-.6,.16,.63-.15,1.25-.3,1.88-.44,4.97-1.12,10-2,15.01-2.93,5.28-.98,10.57-1.94,15.87-2.86,.93-.16-1.17,.2-.23,.04,.33-.06,.65-.11,.98-.17,.65-.11,1.3-.22,1.96-.34,1.39-.24,2.77-.47,4.16-.71,2.61-.44,5.22-.87,7.83-1.29,6.04-.98,12.09-1.92,18.14-2.83l5.78-5.73c-17.98,2.79-35.86,6.09-53.69,9.7-5,1.01-10,2.06-14.99,3.14-1.72,.37-3.64,1.05-5.18,1.9-.86,.48-1.95,1.01-2.48,1.86-1.29,2.12,2.53,1.71,3.6,1.6,5.7-.55,11.4-1.1,17.1-1.63,1.4-.13,2.81-.26,4.21-.39,.35-.03,2.16-.2,1-.09,.83-.07,1.65-.15,2.48-.22,2.81-.25,5.62-.49,8.43-.72,11.4-.94,22.81-1.76,34.23-2.26,6.45-.28,12.91-.47,19.37-.54l7.23-5.9c-20.96,3.13-41.86,6.75-62.67,10.78-5.67,1.1-11.34,2.22-16.99,3.39-1.74,.36-3.65,.97-5.23,1.8-.87,.45-1.97,.96-2.52,1.8-1.34,2.07,2.51,1.73,3.56,1.63,28.95-2.84,57.86-6,86.71-9.64,8.13-1.03,16.25-2.14,24.37-3.28l4.32-5.1c-18.48,4.01-37.08,7.97-54.46,15.64-.76,.33-3.69,1.58-2.84,2.78s4.3,.6,5.39,.4c10.63-1.93,21.27-3.81,31.91-5.71,3.82-.68,7.63-1.37,11.45-2.05,.57-.1,1.15-.2,1.72-.31,.32-.06,.66-.14,.98-.17-2.43,.29,.68-.12,.98-.17,1.39-.25,2.78-.52,4.16-.78,5.31-1,10.61-2,15.92-3,7.43-1.4,14.89-2.63,22.32-4.03,.7-.13,6.41-1.27,4.74-2.91-.75-.74-2.49-.79-3.4-.83-1.86-.09-3.68,.1-5.52,.36-1.14,.16-2.29,.33-3.43,.5-.25,.04-.49,.07-.74,.11-.81,.13,.67-.08,.66-.08-.62-.03-1.34,.19-1.96,.28-3.74,.53-7.48,1.06-11.21,1.61-4.58,.67-9.15,1.37-13.72,2.08-2.29,.36-4.57,.72-6.85,1.08-.57,.09-1.14,.18-1.71,.27-.24,.04-.49,.08-.73,.12,.22-.03,.98-.15-.07,0-1.14,.18-2.28,.36-3.43,.53-5.04,.79-10.06,1.62-15.09,2.49s-10.42,1.82-15.62,2.77c-.84,.15-5.71,1.26-4.79,2.87,.35,.61,1.55,.8,2.11,.87,1.68,.21,3.44,.15,5.11-.11,4.1-.63,8.18-1.34,12.26-2.06-2.44,.43,.94-.17,1.41-.26s.94-.19,1.41-.29c.86-.18,1.72-.36,2.57-.55,1.79-.39,3.58-.81,5.36-1.24,7.69-1.87,15.3-4.09,22.78-6.69,.84-.29,3.81-1.33,3.05-2.64-.8-1.38-4.17-1-5.36-.95-15.91,.66-31.8,3.13-47.19,7.19-.83,.22-5.66,1.5-4.67,3.1,.37,.6,1.58,.74,2.15,.79,1.68,.15,3.45,.03,5.1-.32,8.8-1.83,17.61-3.63,26.41-5.44,1.43-.29,2.84-.68,4.19-1.27,.72-.31,1.94-.8,2.32-1.54,.87-1.72-2.95-1.7-3.68-1.66-20.27,.89-40.54,1.91-60.81,2.87-1.75,.08-3.6,.46-5.27,.98-1.23,.38-2.85,.93-3.85,1.8-2.27,1.95,1.91,2.15,3.03,2.1,20.16-.95,40.32-1.84,60.47-2.86l2.82-4.47c-8.78,1.84-17.56,3.69-26.35,5.51l2.59,3.58c1.71-.45,3.43-.87,5.15-1.28,.86-.2,1.73-.39,2.59-.59s-1.55,.33-.22,.05c.47-.1,.94-.2,1.42-.29,3.47-.71,6.96-1.32,10.46-1.84,.8-.12,1.59-.23,2.39-.34,.34-.05,1.46-.19,.5-.07,.48-.06,.96-.12,1.44-.17,1.76-.21,3.52-.37,5.29-.52,3.53-.3,7.06-.5,10.6-.63l-2.31-3.59c-3.32,1.11-6.66,2.16-10.02,3.15-.46,.14-.92,.27-1.38,.4-1.21,.35,.86-.24,.05-.01s-1.69,.47-2.53,.7c-1.69,.46-3.39,.9-5.09,1.32-3.4,.84-6.82,1.58-10.25,2.31-1.64,.35-3.27,.69-4.92,1-.39,.07-.78,.15-1.17,.22-.36,.07-1.43,.26-.47,.09-.94,.17-1.88,.33-2.83,.47l2.43,3.63c23.87-4.3,47.82-8.29,71.88-11.42l-2.29-3.64c-10.76,1.87-21.49,3.88-32.25,5.75-2.96,.51-5.91,1.02-8.86,1.57l-3.69,.68-1.97,.36-2.21,.41c-.36,.07-2.12,.39-.09,.02-5.24,.97-10.49,1.92-15.73,2.88-5.9,1.08-11.8,2.17-17.7,3.24l2.55,3.18c1.85-.82,3.71-1.59,5.59-2.35,.54-.21,.58-.23,.13-.05,.29-.11,.58-.22,.87-.33,.44-.16,.87-.32,1.31-.48,.88-.31,1.76-.62,2.64-.92,1.03-.35,2.06-.69,3.1-1.02,.44-.14,.89-.28,1.33-.42,.3-.09,.59-.18,.89-.27l-.93,.28c1.01-.09,2.15-.63,3.14-.9s1.95-.54,2.93-.8c1.96-.52,3.92-1.01,5.89-1.49,.98-.24,1.97-.47,2.96-.7,1.52-.36-1.11,.25,.42-.1,.53-.12,1.06-.24,1.6-.36,4.03-.9,8.07-1.74,12.12-2.56,1.76-.36,3.65-.88,5.27-1.68,.88-.43,2-.91,2.56-1.73,1.38-2-2.46-1.82-3.51-1.69-28.88,3.68-57.77,7.2-86.72,10.26-8.16,.86-16.33,1.7-24.5,2.5l-4.19,5.22c9.96-2.01,19.93-3.95,29.93-5.76,.57-.1,1.14-.21,1.71-.31,.33-.06,.65-.12,.98-.18-1.49,.26-.56,.1-.23,.04,1.46-.26,2.93-.52,4.39-.78,2.52-.44,5.05-.88,7.57-1.3,4.97-.84,9.94-1.66,14.92-2.43,5.71-.89,11.43-1.76,17.15-2.59,2.97-.43,6.27-1.42,8.63-3.35,.43-.35,1.28-1.04,1.06-1.73-.27-.86-1.86-.83-2.47-.83-23.47,.18-46.88,2.06-70.24,4.28-6.52,.62-13.03,1.27-19.55,1.92l-4.06,5.37c16.88-3.7,33.85-6.93,50.89-9.82,4.79-.81,9.58-1.59,14.37-2.34,1.82-.29,3.62-.74,5.33-1.44,1.22-.5,2.85-1.23,3.78-2.23,2.1-2.24-2.08-2.25-3.34-2.06-11.85,1.78-23.67,3.72-35.47,5.78-10.74,1.88-21.59,3.6-32.22,6.08-7.11,1.65-14.16,3.95-20.31,7.98-.74,.48-1.97,1.35-1.36,2.31s2.85,.63,3.73,.53c18.93-2.14,37.85-4.27,56.78-6.41,5.43-.61,10.87-1.22,16.3-1.82,1.81-.2,3.66-.67,5.36-1.33,1.23-.48,2.87-1.18,3.83-2.16,2.18-2.25-2.07-2.25-3.3-2.17-18.99,1.23-37.91,3.72-56.6,7.32-5.2,1-10.37,2.1-15.53,3.28-2.41,.55-4.94,1.23-6.95,2.74-.95,.72-1.81,2.22,.11,2.44,8.29,.97,16.48-.2,24.63-1.73,7.26-1.36,14.51-2.75,21.76-4.14,14.61-2.8,29.22-5.65,43.81-8.53,8.17-1.61,16.34-3.23,24.5-4.88,1.59-.32,3.2-.74,4.68-1.43,.68-.32,2.19-1.02,2.53-1.84,.83-2.02-4.35-1.21-4.88-1.13-5.49,.82-10.98,1.65-16.48,2.43-2.79,.4-5.58,.78-8.38,1.15-.53,.07-1.07,.14-1.6,.21-.33,.04-.66,.08-.99,.12-.42,.05-2.27,.3-1.43,.18,.58-.08-.45,.06-.57,.08-.33,.04-.66,.08-1,.12-.75,.09-1.5,.18-2.24,.27-10.98,1.29-22.03,2.2-33.09,2.36-6.37,.09-12.74-.12-19.09-.64-1.64-.14-3.65,.4-5.04,1.26-1.17,.73-.96,1.38,.38,1.53h0Z"/><path class="cls-1" d="M525.69,393.8c20.53,1,41.02,2.38,61.57,3.05,21.12,.69,42.23,1.18,63.36,1.4,11.76,.13,23.51,.21,35.27,.2,3.06,0,6.5-1.75,8.87-3.61,1.12-.88,3.91-3.43,.94-3.71-4.73-.44-9.55-.46-14.3-.52-5.53-.08-11.07,.04-16.59,.21-4.83,.15-9.65,.38-14.47,.68-1.46,.09-2.92,.17-4.37,.28-.09,0-.89,.06-.23,.02,.72-.05-.31,.02-.48,.03-1.71,.09-3.42,.19-5.13,.29-2.44,.14-4.88,.3-7.32,.46-19.54,1.32-39.03,3.26-58.59,4.31-11.07,.59-22.15,.94-33.23,.63l-.65,3.62s.76-.31,.76-.34c-.03,.22-1.38,.44-.44,.17-1.91,.55-1.03,.25-.6,.17-.21,.04-1.14,.1-.16,.05,.8-.04,.06-.33-.37,.02,.08-.07,.83-.04,.86-.05,.25,0,.65-.07,.87-.02h-.52c.22,0,.44,0,.66,.01,2.46,.1,4.9,.46,7.33,.83,5.18,.78,10.38,1.4,15.59,1.89,10.6,.99,21.24,1.38,31.88,1.36,21.3-.04,42.54-1.6,63.79-2.82,12.3-.71,24.62-1.18,36.91-1.95,2.29-.14,4.8-1.28,6.64-2.61,.76-.55,2.61-2.39,.47-2.52-11.12-.65-22.29-.03-33.4,.61-10.94,.63-21.88,1.41-32.82,2.1-21.87,1.37-43.84,2.38-65.73,.75-3-.22-6-.49-8.99-.83-1.52-.18-3.04-.37-4.56-.57-.72-.1-1.44-.2-2.16-.3-.28-.04-.56-.08-.84-.12-.46-.07-.56-.08-.3-.04,.48,.08,.16,.03-.95-.15-7.31-1.15-14.99-.86-21.79,2.34-.8,.38-2.9,1.13-2.96,2.29s1.44,1.31,2.31,1.32c20.43,.36,40.81-.87,61.18-2.42,9.87-.75,19.73-1.56,29.6-2.24,2.53-.17,5.05-.34,7.58-.49,1.14-.07,2.28-.14,3.42-.2,.33-.02,.65-.04,.98-.05-.22,.01-1.1,.06,0,0,.65-.03,1.3-.07,1.96-.1,5.01-.25,10.04-.29,15.06-.31,5.7-.03,11.41,.1,17.1,.35s11.46,.8,17.2,1.19l9.8-7.31c-21.1,.32-42.19,.53-63.29,.49-22.08-.03-44.15-.27-66.23-.38-12.08-.06-24.17-.08-36.25-.43-1.58-.05-3.43,.5-4.7,1.43-1.04,.76-.85,1.49,.47,1.55h0Z"/><path class="cls-1" d="M817.33,399.65c-1.22,.21-2.43,.41-3.65,.62-1.32,.22-2.8,.71-3.86,1.57-.61,.5-1.04,1.22-.03,1.5,.9,.25,1.94,.14,2.87,.16,1.03,.02,2.06,.01,3.08,.03,1.9,.02,3.81,.18,5.71,.12,4.09-.13,8.17-.3,12.26-.47,8.27-.35,16.53-.87,24.79-1.32,16.63-.9,33.25-1.91,49.87-2.88,4.61-.27,9.21-.54,13.82-.83,5-.31,10.18-.3,15.13-1.12l6.99-5.62c-21.27,2.31-42.61,3.8-63.93,5.49s-41.52,3.25-62.29,4.65c-2.64,.18-5.29,.34-7.94,.47-1.41,.07-2.81,.13-4.22,.17-.66,.02-1.32,.04-1.99,.06-.33,0-.66,.01-.99,.02-.95,.02,1.17-.01,.23,0-2.73,.01-5.46,.02-8.2-.09-.52-.02-1.22,.06-1.72-.09,.99,.3,.59,.05,.19,0-.28-.04-.57-.07-.86-.11s-.57-.09-.85-.14c.64,.12,.02,0-.29-.09-.45-.13-1.04-.3-1.39-.48l-8.31,3.88c28.1-1.39,56.27-2.18,84.4-2.35s55.36,.32,83.02,1.39c7.78,.3,15.56,.65,23.34,1.05,3.81,.2,7.61,.4,11.42,.63,2.34,.14,4.68,.25,7.03,.34,1.01,.04,2.02,.02,3.04,0,.34,0,.68,0,1.01-.01s3.35,.07,2.03-.02c1.5,.1,3.24-.23,4.69-.55s3.14-.78,4.47-1.5c.49-.27,1.8-.84,1.64-1.57s-1.72-.69-2.15-.72c.59,.04-.94-.21-.82-.19-.64-.1-1.28-.2-1.91-.29-.88-.14-1.76-.22-2.65-.29-2.02-.16-4.03-.32-6.06-.44-3.47-.21-6.94-.4-10.42-.59-7.03-.38-14.06-.71-21.09-1.01-13.9-.58-27.8-.99-41.71-1.24-28.64-.52-57.3-.35-85.93,.43-16.75,.46-33.47,1.33-50.2,2.34-2.44,.15-5.17,.66-7.32,1.87-.46,.26-1.13,.62-1.24,1.2-.13,.72,.42,.91,1.04,1.21,4.54,2.16,10.01,1.88,14.91,1.9,5.53,.02,11.05-.16,16.57-.48,11.04-.64,22.07-1.62,33.09-2.47,19.86-1.52,39.72-3.05,59.59-4.51,5.67-.42,11.33-.85,17-1.22,6.13-.4,12.24-.67,18.38-.88,1.58-.05,3.33-.55,4.81-1.07s3.17-1.21,4.42-2.16c.52-.39,1.73-1.18,1.45-1.98s-1.83-.66-2.37-.65c-8.46,.18-16.95,.95-25.39,1.52-8.52,.57-17.04,1.13-25.56,1.7-16.91,1.13-33.82,2.28-50.73,3.47-4.83,.34-9.65,.78-14.48,1.13-2.66,.19-5.3,.47-7.96,.71-2.46,.21-5.01,.05-7.45,.47l-.91,2.61c1.3-.43,2.6-.87,3.89-1.3,.53-.18,1.96-.71,2.08-1.41s-1.02-.58-1.42-.51h0Z"/><path class="cls-1" d="M783.64,400.29c.13-1.03,.25-2.06,.38-3.1l-3.38,1.3c26.73-1.13,53.43-2.98,80.16-4.2,13.1-.6,26.22-1.01,39.33-1.02,13.21-.01,26.37,.7,39.52,1.93,7.98,.74,15.92,1.63,23.92,2.23,8.37,.62,16.73,1.34,25.09,2l1.87-3.36c-15.08-.71-30.16-1.42-45.24-2.13l1.66,3.55c2.2-.04,4.39-.04,6.59-.02,.24,0,.49,.01,.73,0,0,0-1.4-.03-.61,0,.57,.01,1.14,.02,1.71,.03,1.14,.03,2.28,.06,3.41,.1,4.39,.16,8.77,.44,13.14,.83,.27,.02,1.44,.14,.59,.05,.49,.05,.97,.1,1.46,.15,1.13,.12,2.26,.24,3.39,.37,2.18,.25,4.36,.54,6.53,.85,4.3,.61,8.55,1.44,12.84,2.1,3.53,.55,7.07,.85,10.63,.94s7.09-.03,10.44-1.08c2.7-.84-1.19-2.35-2.06-2.59-5.74-1.56-12.36-2.51-17.89,.24-1.47,.73,2.93,2.13,3.01,2.15,1.19,.3,2.42,.51,3.64,.58,1.07,.06,2.43,.21,3.44-.2,2.36-.97,4.72-1.94,7.15-2.72,1.56-.5,.28-1.44-.61-1.79-1.96-.78-4.27-1.14-6.37-1.03-4.39,.22-8.69,.95-12.88,2.29-1.92,.61-3.81,1.36-5.63,2.22-1.57,.74-3.49,1.49-4.54,2.95-1.27,1.75-.73,3.51,.06,5.36,.84,1.96,1.86,3.86,2.79,5.78,1.86,3.86,3.73,7.73,5.64,11.57l13.15-1.06c-10.53-6.46-20.11-14.15-28.43-23.28-.79-.87-2.09-1.29-3.18-1.59-1.72-.47-3.7-.71-5.49-.68-.88,.02-6.59,.27-5.22,2.3,5.57,8.25,11.67,16.47,18.82,23.44,.84,.82,2.24,1.12,3.33,1.31,1.76,.3,3.77,.33,5.54,.1,.74-.1,6.75-1.22,4.94-2.98-6.96-6.78-13.43-13.73-18.75-21.9l-13.88,.03c8.6,9.82,18.57,18.3,29.85,24.88,2.53,1.47,6.06,1.6,8.88,1.37,1.16-.09,5.29-.45,4.27-2.43-1.69-3.3-3.41-6.58-5.14-9.86-.91-1.72-1.81-3.43-2.72-5.15-.74-1.4-2.16-3.11-1.77-4.78,.3-1.28,1.8-2.03,2.84-2.65,1.3-.77,2.65-1.42,4.05-1.97,3.09-1.22,6.28-1.96,9.59-2.27l-8.08-2.74c-2.52,.96-5.11,1.72-7.69,2.49l9.48,2.8c.86-.32,1.83-.6,2.5-.66,1.18-.1-.45-.04-.52-.04,.7,.05,.57,.04-.39-.05-2.58-.77-3.29-.92-2.13-.47l-.76-2.15c-1.09,.31-1.51,.4-2.56,.56-.21,.03-.49,.12-.69,.1,.06,0,.91-.06,.27-.03-.73,.03,.48,0,.5,0-1.58,0,1.12,.13,.22,.02-.21-.03-.48-.07-.7-.06,0,0,1.46,.19,.68,.07-.54-.08-1.09-.14-1.63-.23-.47-.07-.93-.15-1.39-.23-.15-.03-.95-.17-.11-.02s-.17-.03-.33-.07c-4.68-.9-9.37-1.69-14.09-2.34-9-1.24-18.06-2.03-27.14-2.36-5.41-.19-10.82-.23-16.23-.13-.73,.01-5.55,.13-4.99,1.71,.22,.6,1.36,.96,1.83,1.1,1.56,.46,3.2,.66,4.81,.74,15.11,.69,30.21,1.38,45.32,2.07,1.48,.07,3.31,0,4.76-.39,.55-.15,1.67-.33,1.87-.95,.51-1.58-4.06-1.96-4.77-2.02-3.36-.26-6.73-.5-10.08-.89-1.7-.2-3.4-.44-5.1-.65-.08-.01-1.71-.26-.62-.09-.33-.05-.66-.1-.99-.15-1.33-.2-2.65-.39-3.98-.59-6.64-.98-13.29-1.67-19.97-2.32-13.75-1.34-27.52-2.16-41.34-2.18-13.56-.02-27.07,.69-40.6,1.45s-28.18,1.69-42.26,2.61c-15.17,.99-30.34,2.01-45.48,3.34-.63,.06-3.3,.26-3.38,1.3-.08,.94-.15,1.87-.22,2.81s5.21,.82,5.38-.53h0Z"/><path class="cls-1" d="M982.73,405.62l3.38,3.93c1.28,1.49,2.6,3,4.32,4,.42,.24,.94,.34,1.41,.42,.64,.11,1.3,.17,1.94,.14s1.93,0,2.23-.71c.07-.16,.17-.32,.18-.49,.01-.15-.04-.35-.06-.51-.04-.31-.14-.6-.23-.89-.22-.76-.53-1.48-.84-2.21l-1.67-3.98c-.27-.27-.59-.47-.96-.58-.48-.23-.99-.39-1.53-.48-1.35-.3-2.86-.43-4.24-.37l-1.32,.09c-.69,.06-1.36,.22-2,.47-.43,.23-1.11,.61-.61,1.18h0Z"/><path class="cls-1" d="M955.79,393.82c7.96,1.08,15.86,.54,23.78-.62,7.22-1.06,14.38-2.54,21.46-4.33,13.94-3.54,27.55-8.24,40.91-13.53,14.31-5.67,28.33-12.04,42.43-18.21s27.96-12.05,42.25-17.3c8.31-3.05,16.72-5.84,25.25-8.21,1.7-.47,3.39-.97,5.08-1.43,.82-.22,1.63-.43,2.45-.65,.41-.11,.82-.21,1.23-.31,.49-.13,0,0-.08,.02,.27-.07,.55-.14,.82-.2,3.49-.85,7-1.63,10.53-2.32,1.78-.35,3.57-.62,5.36-.88l-5.93-2.91c-7.1,1.66-14.12,3.75-21.15,5.69s-13.58,3.84-20.34,5.86c-14.15,4.23-28.22,8.7-42.14,13.64s-26.87,10.1-40.02,15.9c-12.32,5.43-24.63,11.2-36.66,15.81-3.53,1.35-7.08,2.64-10.68,3.81-1.75,.57-3.51,1.11-5.28,1.63-.88,.26-1.77,.52-2.66,.76,1.17-.32-.31,.07-.45,.11-.52,.14-1.04,.27-1.56,.4-1.88,.47-3.76,.91-5.65,1.31-.31,.07-.63,.13-.94,.2-.34,.07-2.45,.57-.7,.14-1.08,.26-2.22,.41-3.32,.59-1.91,.32-3.83,.6-5.75,.85-.97,.12-1.93,.24-2.9,.36-.15,.02-1.77,.21-.51,.07-.66,.07-1.32,.14-1.97,.21-3.09,.32-6.67,1.46-8.93,3.7-.56,.55-1.56,1.46-1.19,2.36,.35,.85,1.81,.9,2.51,.83,30.53-3.22,58.8-15.53,86.57-27.87,12.37-5.49,24.8-10.78,37.5-15.47,15.89-5.86,32.07-10.9,48.34-15.6,7.49-2.16,15-4.22,22.5-6.34s15.11-3.95,22.52-6.33c.42-.13,1.7-.55,1.7-1.24,0-.6-.84-.86-1.27-1.03-2.23-.89-5.24-.81-7.54-.35-7.24,1.45-14.45,3.02-21.58,4.96s-13.68,4.11-20.4,6.55c-13.81,5.02-27.25,10.95-40.67,16.92-6.64,2.96-13.27,5.96-19.91,8.91-3.33,1.48-6.69,2.91-10.03,4.36-1.63,.7-3.26,1.4-4.9,2.1-.78,.33-1.57,.67-2.35,1-.39,.17-.78,.33-1.18,.49-.2,.08-.39,.16-.59,.25-.09,.04-.93,.39-.38,.16s-.12,.05-.19,.08c-.33,.14-.66,.27-.99,.41s-.66,.28-.99,.41c.06-.03,.73-.3,.2-.09-.86,.35-1.71,.71-2.57,1.06-1.65,.67-3.29,1.34-4.94,2-3.3,1.31-6.61,2.59-9.94,3.82-6.7,2.48-13.47,4.8-20.32,6.86-.54,.16-.14,.04-.68,.2-.41,.12-.82,.24-1.23,.36-.89,.26-1.78,.51-2.67,.75-1.71,.47-3.43,.93-5.15,1.37-3.45,.88-6.91,1.67-10.39,2.39-7.99,1.67-15.98,2.74-24.13,3.19-2.18,.12-4.36,.14-6.54,.07-.98-.03-2.02,.41-2.78,1.01-.38,.3-1.2,1.16-.24,1.29h0Z"/><path class="cls-1" d="M966.74,398.14c4.37-.4,8.64-1.18,12.85-2.42s7.99-2.83,11.88-4.47c1.88-.79,3.76-1.6,5.65-2.39,1-.42,2.01-.83,3.02-1.24,.38-.15,.76-.3,1.14-.45,.13-.05,1.51-.57,.93-.36,1.89-.69,3.81-1.31,5.75-1.84,.44-.12,.52-.14,.23-.06,.26-.07,.52-.13,.77-.19,.52-.12,1.04-.24,1.56-.34,.83-.17,1.51-.21,2.53-.3l3.03-3.91c-10.24,3.44-20.06,8.98-27.67,16.73-.8,.81-.46,1.52,.4,1.89,1.23,.54,3.1,0,4.29-.34,5.42-1.57,10.71-3.57,15.79-6.03,4.58-2.22,8.85-4.89,13.11-7.65,1.04-.68,3.85-2.79,1.56-3.74s-5.91,.63-7.98,1.55c-4.65,2.06-9.08,5.14-12.74,8.66-.49,.47-1.65,1.43-1.32,2.32,.27,.73,1.28,.81,1.92,.85,3,.2,6.12-1.09,8.65-2.56,1.73-1,3.45-1.99,5.17-3,.75-.44,1.68-1.22,2.52-1.46l-.73,.41c-1.38,.74-2.81,1.12-4.32,1.14-1.06,.06-1.05-.13-.42,.45l-.46-.52c.31,.38,.48,.7,.56,1.18v-.7c.03,.22,0,.44-.09,.65l13.21-4.14c0-.96-.69-1.82-1.55-2.23-2.34-1.11-5.68,.09-7.86,1.01-1.23,.51-2.57,1.13-3.57,2.02-.49,.44-1.83,1.54-1.34,2.33,.8,1.3,1.52,2.68,1.54,4.24v-.7c0,.11-.21,1-.19,1.02-.09-.11,1.07-.89,1.13-.92-.07,.04,1.35-.68,.71-.37-.19,.09-.37,.18-.55,.27-.52,.26-1.04,.52-1.56,.78-2.01,1-4,2.04-5.96,3.13-3.84,2.14-7.43,4.73-10.47,7.92-4.62,4.86-7.63,12.04-5.02,18.62,.67,1.69,1.7,3.07,2.97,4.35,1.63,1.63,3.82,2.16,5.96,2.54,2.43,.43,5.37-.95,7.34-2.22,.77-.5,4.01-2.92,2.12-3.91-1.39-.73-1.94-1.62-3.15-2.84l.51,.53c-2.1-2.28-3.31-5.26-3.42-8.35l.02,.73c-.02-1.62,.25-3.23,.77-4.77,.57-1.69,1-2.47,1.92-3.79,.48-.69,1.01-1.36,1.57-1.99,.26-.29,.53-.58,.8-.86-.74,.78,.08-.06,.26-.22,.67-.61,1.38-1.18,2.1-1.73,1.21-.9-.62,.37,.36-.27,.36-.23,.72-.47,1.09-.7,.74-.46,1.48-.91,2.24-1.34,.24-.14,.85-.64,1.14-.64-.87,.46-.99,.52-.35,.19,.19-.1,.39-.2,.58-.3,1.94-1.01,3.96-1.91,5.85-3.01s4.29-2.84,4.48-5.26c.14-1.84-.61-3.42-1.56-4.95l-12.77,5.36c.32,.15,.5,.29,.74,.55l-.46-.52c.25,.39,.35,.7,.36,1.16,.01,.85,2.2,.92,2.53,.91,1.38-.04,2.72-.35,4.03-.76,1.41-.44,2.87-1,4.11-1.81,.91-.59,2.23-1.37,2.54-2.48,.49-1.78-.59-3.18-2.22-3.8-2.86-1.09-6.56-.03-9.27,1.03-4.22,1.64-8.11,4.32-12,6.62l9.25,.62c.76-.74,1.53-1.46,2.34-2.14,.38-.32,.76-.63,1.15-.93l.34-.26c.5-.37,.45-.34-.16,.1,.48-.58,1.49-1,2.12-1.39,.24-.15,.48-.29,.73-.43l-.71,.39c.24-.32,1.12-.6,1.48-.79l-7.57-1.36c-.22,.17-.43,.34-.65,.51,.55-.39,.58-.41,.07-.06-.37,.24-.73,.5-1.1,.74-.86,.57-1.73,1.12-2.61,1.65-.5,.31-1.01,.61-1.52,.9-.25,.15-.51,.29-.77,.44l.61-.34c-.88,.62-1.98,1.06-2.94,1.53s-1.86,.89-2.8,1.32c-.46,.2-.27,.12,.56-.25-.27,.12-.54,.23-.81,.35-.48,.2-.95,.4-1.43,.6-.96,.39-1.93,.76-2.9,1.11-.42,.15-1.89,.89-.28,.11-.52,.25-1.15,.37-1.7,.54l4.68,1.55c.68-.73,1.34-1.48,2.04-2.2,.2-.2,.19-.19-.03,.03,.19-.19,.38-.37,.58-.56,.39-.37,.78-.73,1.18-1.09,.7-.62,1.42-1.23,2.15-1.81,.31-.25,.63-.49,.95-.74,.41-.31,.43-.32,.05-.04,.22-.16,.44-.31,.66-.47,.78-.54,1.57-1.06,2.38-1.56,.23-.14,.46-.28,.69-.42q-.47,.27,0,0c.36-.2,.72-.4,1.09-.59,.49-.26,.97-.51,1.47-.75,.3-.15,1.13-.52,.36-.18,1.02-.45,2.06-.87,3.11-1.26,.93-.35,3.32-1.39,3.52-2.63s-1.87-.84-2.51-.75c-8.61,1.25-16.67,4.63-24.59,8.08-6.96,3.03-14.39,6.59-22.1,6.7-1.48,.02-3.29,.91-4.35,1.93-.88,.85-.63,1.64,.68,1.52h0Z"/><path class="cls-1" d="M1019.09,397.82c2.09,.38,4.14-.25,6-1.2,.27-.14,1.74-1.15,.96-1.55-2.59-1.33-6.07,.49-8.22,1.99-1.83,1.28-3.52,2.82-5.14,4.36-3.26,3.1-6.24,6.67-8.67,10.45-4.48,6.96-9.46,17.08-2.76,24.32,1.11,1.2,3.5,.24,4.72-.37,.79-.39,4.02-2.05,3.28-3.42-3.49-6.44-.45-14.42,2.74-20.35,1.55-2.89,3.32-5.69,5.36-8.27,.97-1.22,1.99-2.41,3.03-3.57,.51-.57,1.03-1.12,1.57-1.67,.36-.36,.72-.72,1.09-1.07,1.3-1.24,.22,.14-1.46,.07l-.83-1.08-.15,.18,1.49-.95-.63,.24,2.69-.57v.04c-1.28-.54-2.93-.04-4.11,.53-.39,.19-2.52,1.57-.94,1.85h0Z"/><path class="cls-1" d="M976.37,408.74c-.2,.56-.56,1.11-.68,1.7-.11,.55-.01,1.19,.03,1.74,.09,1.12,.26,2.24,.55,3.32,.53,2.02,1.53,3.94,2.61,5.72,2.4,3.98,5.57,7.5,8.71,10.9s6.76,6.84,10.41,9.99,7.56,6.48,11.9,8.89c1.33,.74,5.98-2.61,4.87-4.05-2.83-3.66-6.47-6.61-9.88-9.7s-6.71-6.09-9.97-9.24-6.24-6.18-8.91-9.65c-1.26-1.63-2.35-3.36-3.22-5.23-.44-.94-.86-1.88-1.16-2.88-.15-.49-.21-1.01-.36-1.5s-.55-.85-.35-1.36c.36-.91-1.74-.51-2.02-.43-.9,.26-2.17,.8-2.52,1.76h0Z"/><path class="cls-1" d="M994.52,426.16c2.89,2.92,5.33,6.22,7.55,9.67,1.03,1.59,1.99,3.23,3.05,4.8s2.26,2.63,4.13,2.85c1.18,.14,2.61-.66,3.51-1.29,.8-.56,1.97-1.43,2.07-2.51,.2-2.36-.51-4.59-1.31-6.78-.87-2.39-1.58-4.75-1.85-7.29-.49-4.71,.2-9.65,2.21-13.96,.36-.77,.12-1.21-.69-1.4-2.53-.59-5.83,1.25-7.38,3.17-1.11,1.37-1.4,2.88-1.55,4.59-.37,4.22-.22,8.51,.33,12.71s1.33,8.38,2.8,12.26c1.15,3.05,4.76,2,7,.77,2.47-1.35,4.16-3.4,4.62-6.18,.59-3.53-1.7-6.55-4.94-7.63-1.47-.49-3.79,.82-4.87,1.66-.58,.45-2.53,2.18-1.19,2.89s2.3,1.98,2.74,3.51c.2,.7,.27,1.43,.22,2.15-.01,.23-.12,.86-.13,.88-.27,.82-.69,.73,.53-.13l2.22-1.22-.31,.14,2.09-.55,.78,.16-.18-.27c-.02-.18-.2-.43-.26-.6-.21-.54-.38-1.1-.57-1.65-.38-1.15-.73-2.31-1.05-3.48-.65-2.42-1.16-4.87-1.53-7.35s-.64-4.94-.75-7.43c-.06-1.34-.1-2.68-.08-4.02,0-.45,.04-.88,.13-1.33,.36-1.74,1.23-.45-2.39,.87l-1.71,.38c-.27-.05-.23-.04,.1,.05l-.69-1.4c-2,4.85-2.9,9.98-2.3,15.21,.28,2.42,.87,4.79,1.7,7.08s1.89,4.64,1.74,7.19l5.58-3.79c-1.45-.1-2.38-1.57-3.12-2.67-1.05-1.55-2.12-3.07-3.31-4.52-2.39-2.93-5.03-5.65-7.64-8.38-1.37-1.43-6.25,1.9-5.32,2.84h0Z"/><path class="cls-1" d="M1013.81,398.94c.15,1.01,.3,1.99,.3,3.01,0,1.13-.62,2-.79,3.09-.19,1.18,2.15,.46,2.54,.34,3.49-1.07,6.32-3.44,8.6-6.21,1.93-2.35,3.87-4.65,6.02-6.8,4.4-4.37,9.42-8.07,14.67-11.37,11.14-7.01,23.4-12.02,35.27-17.63,7.21-3.41,14.34-7.05,20.83-11.72,.69-.5,.81-1.12-.15-1.27-1.12-.17-2.59,.26-3.55,.82-11.93,6.97-24.56,12.43-37.01,18.38-11.37,5.43-22.52,11.53-32.02,19.89-2.61,2.29-5.07,4.73-7.32,7.38-1.03,1.22-1.99,2.5-3.03,3.72-.49,.58-1.01,1.15-1.54,1.68-.43,.43-.05,.1-.52,.48-.08,.07-.6,.38-.45,.3l3.26-.29c-.21-.95-.86-1.47-.89-2.53-.02-.91,.1-1.81,.19-2.72,.13-1.23-4.63-.1-4.4,1.45h0Z"/><path class="cls-1" d="M1019.2,386.85c4.86-.81,9.37-2.99,13.91-4.83s8.81-3.58,13.21-5.37c9.64-3.93,19.27-7.87,28.92-11.76,.71-.28,3.37-1.47,2.98-2.66s-3.24-.56-3.98-.36c-21.62,6.07-42.03,15.73-60.59,28.36-4.87,3.31-9.57,6.79-14.01,10.66-.47,.41-1.51,1.29-1.23,2.09,.23,.67,1.13,.78,1.72,.84,2.53,.25,5.77-.69,7.86-2.1,22.1-14.93,46.17-26.93,70.87-36.92,3.06-1.24,6.13-2.42,9.17-3.71,1.36-.58,2.72-1.14,4.09-1.67,1.93-.75,3.9-1.39,5.55-2.69,.42-.33,1.39-.83,1.21-1.46-.27-.97-2.39-.43-2.92-.44,.7,.01-.27-.07-.38-.07-.52,.03-1.04,.09-1.56,.17-1.28,.21-2.52,.66-3.75,1.06-3.86,1.24-7.7,2.45-11.49,3.89-13.06,4.93-25.81,10.72-38.23,17.1-13.67,7.02-26.87,14.88-39.81,23.17l8.35,.83c7.91-6.25,15.86-12.39,24.46-17.68,.97-.6,1.94-1.18,2.92-1.76,.55-.33,1.11-.65,1.66-.97,.25-.14,.5-.28,.74-.42,.42-.24-.4,.22,.3-.17,2.19-1.21,4.4-2.39,6.64-3.52s4.49-2.21,6.77-3.24c.52-.24,1.05-.47,1.57-.7,.28-.12,1.71-.74,.79-.35,1.19-.51,2.39-1,3.58-1.48,1.27-.51,2.55-1.01,3.83-1.5,.67-.25,1.35-.5,2.03-.75,.81-.31-1.22,.38,.12-.03,.41-.13,.83-.26,1.24-.4,2.75-.89,5.49-1.82,8.26-2.64l-2.28-2.66c-9.13,3.93-18.29,7.82-27.44,11.72-4.53,1.93-9.05,3.86-13.58,5.8-2.26,.97-4.52,1.94-6.79,2.9-2.09,.89-4.03,1.81-5.72,3.33-.61,.54,.87,.42,1,.4h0Z"/><path class="cls-1" d="M1062.61,362.82c-17.78,6.49-34.86,15.21-50.03,26.58-4.34,3.25-8.54,6.67-12.59,10.27-1.04,.92,.93,1.08,1.44,1.04,1.38-.1,2.93-.57,3.99-1.48,13.54-11.66,28.69-21.61,44.87-29.2,4.61-2.17,9.31-4.14,14.1-5.89,.47-.17,2.2-.69,1.63-1.45-.51-.68-2.85-.06-3.41,.15h0Z"/><path class="cls-1" d="M484.19,378.23c-1.96-.39-3.64-1.06-5.39-2.01l-4.98,3.82c1.1,.23,2.32,.07,3.43,.05,1.19-.02,2.39-.03,3.58-.04,2.39-.01,4.78,0,7.17,.03,4.89,.07,9.79,.23,14.67,.48,9.86,.52,19.71,1.37,29.52,2.47,5.71,.64,11.44,1.15,17.14,1.88,1.55,.2,3.41-.82,4.57-1.77,.72-.59,1.84-1.88,.33-2.19-9.41-1.92-18.87-3.39-28.44-4.18-10.22-.84-20.47-1.19-30.71-1.17-2.85,0-5.7,.05-8.54,.11s-5.96-.12-8.78,.43c-1.44,.28-2.93,.97-3.96,2.04-.47,.48-1.37,1.85,.02,1.86,2.6,.02,5.1,.11,7.65,.63,1.03,.21,4.21-2.15,2.72-2.45h0Z"/></g><g><path class="cls-3" d="M954.62,372.73c1.95-1.04,4.28-1.58,6.37-2.32,1.92-.68,3.82-1.42,5.73-2.12,3.9-1.42,7.82-2.81,11.76-4.15,7.94-2.71,15.94-5.26,23.96-7.69,15.93-4.83,31.99-9.21,48.07-13.51,16.17-4.33,32.35-8.6,48.47-13.1,16.09-4.49,32.06-9.37,47.91-14.66,14.95-4.99,31.17-10.06,46.83-4.96,1.88,.61,3.7,1.38,5.46,2.28l-.04-1.48c-7.77,9-19.41,12.68-28.8,19.54-4.28,3.13-8.27,7.01-10.53,11.89-.55,1.19-.97,2.43-1.33,3.69-.49,1.67-1.19,2.67-3.07,2.56-3.39-.2-6.81-.87-10.17-1.31l-24.27-3.16c-.46-.06-.44,1.94,.05,2.12,1.96,.74,3.89,1.32,5.91,1.86,.24,.06,.29-1.22,.03-1.36-1.98-.97-3.93-1.85-5.99-2.63l.05,2.12,21.8,2.81,10.65,1.37c1.22,.16,2.76,.58,3.89-.11,.98-.59,1.33-1.8,1.63-2.83,3.37-11.5,14.35-17.76,24.16-23.22,5.86-3.27,11.7-6.75,16.15-11.86,.2-.23,.29-1.32-.04-1.48-14.43-7.46-31.18-4.3-45.92,.41-8.03,2.56-15.92,5.52-23.93,8.15s-16.2,5.13-24.35,7.54c-16.15,4.76-32.41,9.11-48.66,13.49s-32.47,8.79-48.58,13.62c-8.04,2.41-16.06,4.92-24.02,7.59s-15.84,5.24-23.51,8.43c-1.85,.77-3.75,1.83-5.7,2.34-.05,.01-.02,.16,.01,.14h0Z"/><path class="cls-3" d="M1124.38,348.23c.1-.42,.3-.73,.27-1.19-.02-.38-.14-.76-.33-1.09-.23-.41-.56-.78-.97-1.02-.2-.11-.4-.16-.6-.24-.14-.06-.23-.16-.37-.22-.12-.05-.25-.08-.37-.1-.19-.03-.13,.7-.02,.79,.4,.32,.78,.68,1.21,.96,.4,.26,.8,.5,1.18,.79,.72,.54,1.46,1.2,1.93,1.97,.16,.26,.29,.56,.35,.84,.04,.19,.06,.3,.07,.39,.01,.12,.02,.1,0,.29-.07,.78-.49,1.49-1.09,1.97-.09,.07-.07,.6,.04,.56,1.94-.67,1.88-3.45,1.3-5.02-.37-1.01-1.07-1.85-1.97-2.43-.47-.3-.97-.55-1.48-.77s-1-.26-1.52-.33l.06,.79c.16-.09,.32-.16,.49-.23,.24-.1,.39-.04,.63,.06,.29,.13,.56,.33,.78,.56,.26,.28,.46,.61,.58,.98,.08,.25,.12,.52,.11,.78,0,.15-.07,.76-.28,.8-.06,.01,0,.19,.02,.13h0Z"/><path class="cls-3" d="M1123.4,348c1.59-.11,1.09,1.99,.66,2.79-.63,1.21-1.89,1.98-2.93,2.8-2.35,1.84-4.76,3.6-7.24,5.27-4.84,3.27-9.93,6.17-15.14,8.81-10.64,5.4-21.78,9.74-32.85,14.17-11.04,4.41-22.09,8.91-32.51,14.68-8.86,4.91-20.96,12.1-19.94,23.89,.58,6.65,5.9,10.74,8.52,16.49,1.56,3.44,1.75,7.19,1.29,10.89s-1.78,7.26-2.07,10.99c0,.11,.09,.85,.3,.54,.77-1.14,1.06-2.24,1.39-3.57,.43-1.72,.82-3.45,1.09-5.2,.51-3.19,.73-6.44,.31-9.65-.4-3.03-1.4-5.86-3.01-8.46s-3.47-4.74-4.98-7.26-2.4-5.42-1.59-8.42c.77-2.84,2.55-5.36,4.54-7.47,4.16-4.42,9.53-7.51,14.8-10.41,21.66-11.96,45.63-18.91,67.39-30.64,5.97-3.22,11.82-6.79,17.18-10.96,1.38-1.08,2.74-2.2,4.06-3.35,.93-.81,1.61-1.61,1.99-2.8,.26-.81,.47-1.92,.18-2.74-.27-.78-.77-.66-1.47-.53-.04,0-.03,.15,0,.15h0Z"/><path class="cls-3" d="M952.09,407.31l.32-.9c.38,.07,.73,.22,1.04,.45,.24,.14,.46,.31,.69,.47,.56,.4,1.11,.83,1.65,1.27,1.14,.96,2.27,1.93,3.32,2.99,2,2.01,3.76,4.25,5.46,6.51,3.52,4.68,7,9.35,10.94,13.7,7.77,8.58,16.64,16.14,26.34,22.45,2.7,1.76,5.47,3.43,8.3,4.98,3.02,1.66,6.27,3.57,9.82,3.45,.29-.01,.48-.42,.55-.63,.5-1.53,.52-3.09,.97-4.63,.07-.23-.14-1.59-.36-1.12-.27,.56-.47,.92-.91,1.3-.48,.41-.66,.91-.91,1.49l.55-.63c-3.56,.9-6.75-.7-9.84-2.31-2.71-1.41-5.37-2.92-7.97-4.52-5.32-3.27-10.38-6.94-15.16-10.96-4.85-4.08-9.4-8.51-13.59-13.27s-7.52-9.7-11.58-14.31c-2.11-2.39-4.41-4.67-7.21-6.25-.64-.36-2.31-1.49-2.79-.34-.17,.41-.01,.73,.34,.93,.04,.02,.05-.15,0-.14h0Z"/><path class="cls-3" d="M881.78,406.07c-.44,.02-1.92-.68-.56-1.48,.18-.1,.73-.1,.93-.11,.64-.04,1.27,.06,1.91,.15,2,.27,3.98,.41,5.99,.52,3.82,.21,7.64,.5,11.46,.61,7.55,.23,15.11,.55,22.66,.7,15.09,.31,30.22,.8,45.3,.61,8.55-.1,17.07-.85,25.59-1.46,.16-.01,.15-.73-.02-.75-8.3-.85-16.6-1.85-24.94-2.21-8.29-.35-16.6-.39-24.9-.5-16.42-.23-32.86-.59-49.27-.16l-6.96,.18c-2.13,.06-4.45,0-6.52,.54-1.04,.27-1.83,1.13-1.83,2.24,0,.69,.36,1.46,1.16,1.28,.04,0,.03-.17,0-.17h0Z"/><path class="cls-3" d="M881.87,405.36c2.53,.11,5.31,1.14,7.68,2,2.61,.95,5.16,2.04,7.59,3.38l.02-1.17c-8.69,3.31-17.48,6.47-26.05,10.07-1.22,.51-2.17,1.22-2.37,2.59-.15,1.06,.11,2.1,.57,3.05,.52,1.07,1.52,2.12,1.81,3.28,.48,1.95-3.33,1.6-4.4,1.49-7.59-.8-13.85-6.1-20.17-9.89-3.4-2.04-6.96-3.73-10.8-4.74-4.15-1.09-8.42-1.64-12.69-2.03-9.8-.88-20.24-1.86-29.84,.8-.12,.03-.08,.48,.01,.46,8.73-1.93,17.72-.7,26.48,.37s17.22,2.4,24.95,6.54c6.37,3.41,12.28,8.25,19.48,9.81,2.22,.48,7.11,1.55,7.63-1.74,.16-.98-.1-1.96-.52-2.83-.54-1.11-1.59-2.19-1.88-3.4s.96-1.82,1.94-2.23c1.19-.51,2.41-.96,3.61-1.44l7.35-2.93c4.99-1.99,9.95-4.03,14.92-6.05,.26-.11,.27-1.04,.02-1.17-2.31-1.21-4.73-2.29-7.26-2.98-1.28-.35-2.58-.64-3.89-.86-1.39-.24-2.83-.25-4.2-.53-.03,0-.04,.15,0,.15h0Z"/><path class="cls-3" d="M752.68,415.5c-.83-.23-1.63-.67-2.41-1.03v.61c6.45,.76,13.07,.64,19.57,.51s13.04-.28,19.55-.63,12.85-.75,19.27-1.24,13.02-.93,19.48-1.74c7.35-.93,14.61-2.1,21.87-3.6,.15-.03,.12-.64-.02-.63-6.5,.31-12.97,.68-19.46,1.19-6.5,.51-12.98,1.18-19.48,1.71-12.91,1.05-25.86,1.84-38.8,2.43-7.32,.33-14.74,.4-22.01,1.39-.15,.02-.13,.59,.02,.62,.81,.16,1.66,.27,2.43,.57,.02,0,.04-.13,0-.15h0Z"/><path class="cls-3" d="M750.98,416.18c3.04,.8,6.09,2.45,8.88,3.88s5.41,2.92,7.99,4.57l.02-.91c-4.42,.14-9.16,.47-13.13,2.62-1.9,1.03-3.48,2.53-4.51,4.45-.59,1.1-1.08,2.26-2.23,2.89-1.08,.58-2.38,.55-3.54,.31-2.74-.55-5.19-2.42-7.57-3.78-2.76-1.58-5.52-3.17-8.3-4.71-5.21-2.88-10.67-5.56-16.57-6.63-2.97-.54-6.03-.67-9.02-.25s-5.94,1.98-8.34,3.77c-.18,.14-.11,1.06,.11,.94,2.52-1.35,5.1-1.85,7.88-2.3s5.46-.47,8.19-.12c6.03,.77,11.66,3.32,17,6.12,2.78,1.46,5.52,2.99,8.27,4.49,2.32,1.27,4.61,2.67,7.18,3.39,1.93,.54,4.19,.78,5.72-.79,.78-.8,1.13-1.88,1.69-2.82,.59-1.01,1.37-1.91,2.28-2.66,4.05-3.35,9.88-3.77,14.9-3.99,.23,0,.17-.81,.02-.91-2.65-1.65-5.37-3.15-8.22-4.42-1.31-.59-2.65-1.14-3.99-1.65-1.55-.59-3.19-1-4.72-1.64-.03-.01-.05,.13,0,.14h0Z"/><path class="cls-3" d="M541.43,441.23c1.44-.17,2.96,.01,4.41,.05,1.55,.04,3.1,.07,4.66,.1,3.02,.06,6.04,.01,9.06-.02,5.96-.06,11.92-.19,17.88-.37,12-.37,23.98-.98,35.95-1.83,23.85-1.7,47.64-4.36,71.28-7.97,6.61-1.01,13.22-2.1,19.81-3.25,3.23-.57,6.48-1,9.72-1.49,1.12-.17,1.77-.48,2.11-1.62,.23-.78,.34-2.06-.32-2.65-.28-.26-.25,1.22-.21,1.35-.36-1.05,.44-.82-.17-.62-.21,.07-.35,.24-.51,.37-.57,.46-1.04,.7-1.75,.91-1.41,.4-2.89,.64-4.33,.96-2.8,.61-5.61,1.16-8.43,1.67-5.71,1.03-11.43,2-17.15,2.92-11.29,1.81-22.62,3.4-33.97,4.77-22.94,2.77-46,4.65-69.09,5.64-6.44,.27-12.89,.48-19.34,.61-3.26,.07-6.53,.07-9.8,.17-1.55,.04-3.1,.09-4.65,.13-1.68,.04-3.48,.26-5.14,.04-.03,0-.03,.15,0,.15h0Z"/><path class="cls-3" d="M541.55,438.61c-.65-1.14-2.5-1.63-3.15-.2-.06,.13-.13,.65,.08,.69,6.03,1.11,12.26,1.25,18.39,1.47s12.26,.29,18.39,.3c12.1,.02,24.2-.33,36.28-1.03,24.32-1.4,48.55-4.2,72.53-8.46,6.67-1.18,13.3-2.52,19.94-3.82,3.07-.6,6.38-.97,9.33-2.01,.94-.33,2.09-.81,2.69-1.65s.74-2.13,.71-3.16c0-.2-.19-1.09-.38-.5s-1.31,1.33-1.84,1.65c-1.14,.7-2.44,1.02-3.72,1.34-2.91,.72-5.82,1.41-8.74,2.09-5.82,1.34-11.7,2.44-17.57,3.52-11.59,2.12-23.24,3.91-34.93,5.36-23.54,2.92-47.24,4.46-70.96,4.61-6.61,.04-13.23-.02-19.84-.2-6.74-.18-13.57-.69-20.29-.26l.1,.63c.38-1.16,2.49-1.67,2.96-.26,.02,.06,.05-.08,.03-.12h0Z"/><path class="cls-3" d="M546.05,431.76c-3.12-4.11-8.69,.66-10.7,3.54-2.91,4.16-3.94,9.42-4.31,14.39-.91,12.27,2.61,24.4,1.65,36.67-.26,3.29-.83,6.57-1.91,9.69-.52,1.49-1.14,2.93-1.89,4.32-.19,.35-.85,1.92-1.25,2.07-.61,.23-1.52-.87-1.94-1.22-.08-.07-.11,.31-.05,.37,.6,.67,1.19,1.35,1.78,2.03,.07,.08,.13,.08,.19,0,5.71-8.36,6.13-18.94,5.35-28.71-.49-6.15-1.42-12.26-1.63-18.42-.2-5.75,.14-11.87,2.48-17.22,1.09-2.5,2.68-4.84,4.88-6.48,1.88-1.39,5.29-2.8,7.35-.97,.01,0,.01-.04,0-.05h0Z"/><path class="cls-3" d="M474.01,406.02c7.25,13.6,11.36,28.53,15.84,43.19s9.42,28.94,18,41.52c4.29,6.29,10.49,12.62,18.63,12.59,.83,0,.59-1.92,.5-2.34-.37-1.8-.53-3.6-.68-5.44-.04-.49-.36-.26-.35,.12,.04,1.92,.05,3.8-.14,5.71l.59-1.15c-7.2,.29-13.26-4.68-17.53-10.01-4.6-5.73-8.05-12.38-10.92-19.12-5.85-13.76-9.39-28.34-14.18-42.47-2.65-7.8-5.71-15.44-9.74-22.64-.02-.03-.02,.03-.02,.04h0Z"/><path class="cls-3" d="M472.04,406.4c-.99-.05-2-.37-2.97-.58v.32c8.47-1.28,16.83-2.86,25.41-1.62,7.76,1.13,14.96,4.28,21.75,8.12,3.78,2.14,7.51,4.37,11.21,6.65,.08,.05,.11-.28,.03-.33-6.57-4.41-13.19-8.76-20.53-11.81-3.4-1.42-6.93-2.55-10.55-3.22-4.17-.78-8.45-.8-12.67-.44-4.91,.43-9.83,1.29-14.65,2.34-.09,.02-.09,.31,0,.32,.97,.11,2.02,.14,2.96,.41,.03,0,.05-.14,0-.15h0Z"/><path class="cls-3" d="M530.66,425.27c-1.09-.25-2.18-1.28-2.94-2.05-.39-.4-.75-.83-1.07-1.28-.14-.2-1.1-1.57-.98-1.7,.22-.23,2.89,1.1,3.24,1.24,1.18,.5,2.35,1.01,3.51,1.55,2.27,1.05,4.5,2.18,6.69,3.38,1.07,.59,2.13,1.21,3.18,1.85s2,1.36,3.15,1.72c.1,.03,.06-.35,.01-.4-1.34-1.27-3.07-2.03-4.69-2.89s-3.32-1.74-5.01-2.55c-3.33-1.58-6.75-2.99-10.22-4.22-.06-.02-.04,.14-.03,.16,.52,1.15,1.21,2.2,2.1,3.11s2.03,1.45,3.06,2.22c.03,.02,.06-.13,0-.14h0Z"/><path class="cls-3" d="M429.93,351.72c.04-.4-.46-.51-.68-.18-.43,.64,1.32,1.77,1.6,2.03,3.79,3.44,7.66,6.81,11.26,10.45,1.57,1.59,3.27,3.13,4.64,4.91,.67,.87,1.3,1.84,1.55,2.93,.27,1.17,.08,2.42,.04,3.61-.07,2.12,.15,4.21,1.1,6.13,.4,.81,.88,1.7,1.57,2.31,.58,.51,1.17,.4,1.87,.14,.27-.1,.17-.78,.08-.96-.33-.69-.62-1.46-1-2.11s-.98-1.25-1.37-1.94c-.85-1.5-.86-3.06-.9-4.74-.07-3.22-.91-5.72-3.34-7.89-2.69-2.4-5.72-4.41-8.45-6.78-1.42-1.24-2.84-2.48-4.26-3.72l-2.22-1.94-1.11-.97-.56-.49c-.48-1.15-.44-1.44,.14-.87-.04,.07,.03,.2,.04,.08h0Z"/><path class="cls-3" d="M436.76,350.7c.79,.38,1.5,1.6,2.11,2.24,.73,.78,1.48,1.55,2.23,2.32,1.5,1.53,3.04,3.02,4.6,4.48,3.05,2.84,6.27,5.42,9.49,8.05,.71,.59,1.42,1.22,1.93,2,.81,1.22,.44,2.35,.1,3.63-.47,1.78-.62,3.57-.51,5.41,.11,1.96,.44,3.9,1.01,5.78,.45,1.48,.97,3.65,2.3,4.6,.6,.43,.64-1.35,.61-1.56-.03-.57,.09-1.09,.36-1.56,.06-.13,0-1.15-.25-.91-.75,.69-1,1.5-1.13,2.5l.95-.32c-.53-1.94-1.56-3.69-2.07-5.64s-.65-3.86-.72-5.85c-.04-1.07-.02-2.15,.11-3.21,.07-.6,.18-1.13,.08-1.73-.25-1.47-1.34-2.6-2.43-3.52-3.18-2.7-6.52-5.21-9.63-8-1.57-1.41-3.11-2.86-4.62-4.34s-2.91-3.11-4.51-4.48c-.02-.02-.06,.12-.01,.14h0Z"/><path class="cls-3" d="M448.32,351.21c-.66-.15-1.45-.59-1.62-1.33,.04,.16,.24,.46,.32,.59,.36,.65,.77,1.27,1.2,1.87,.8,1.13,1.7,2.18,2.67,3.16,1.95,1.97,4.1,3.71,6.24,5.47,4.2,3.45,9.74,7.74,10.62,13.51l.08-.58c-1.83,2.54-2.45,5.66-2.3,8.75,.08,1.64,.34,3.28,.85,4.85,.39,1.19,1.03,3.21,2.2,3.85,.08,.05,.16,.05,.24,0,.55-.41,1.1-.86,1.46-1.45,.14-.22,.05-1.31-.27-.94-.29,.47-.7,.6-1.25,.39l.28,.47c-.63-1.85-1.7-3.49-2.13-5.43s-.39-3.87-.01-5.75c.22-1.07,.5-2.14,.89-3.16,.23-.6,.41-.92,.29-1.54-.28-1.33-.87-2.68-1.52-3.87-2.94-5.35-8.35-8.8-12.87-12.67-2.72-2.33-5.33-4.89-7.06-8.05-.06-.1-.09,.15-.09,.18,.16,.98,.78,1.62,1.78,1.74,.01,0,.02-.05,0-.06h0Z"/><path class="cls-3" d="M456.42,346.89c-.7-.56-1.36-.88-2.24-.51-.06,.03-.04,.2,0,.23,4.16,3.53,8.12,7.31,11.82,11.32,1.75,1.9,3.44,3.85,5.07,5.85s3.6,4.25,4.94,6.59l.03-1.17c-.62,.6-1.37,1.13-1.89,1.82-.56,.75-.99,1.64-1.38,2.49-.93,2.02-1.34,4.38-1.46,6.58-.13,2.32,.02,4.76,.71,7,.44,1.45,2.04,2.97,3.25,1.28,.18-.25,.33-1.79-.24-1.71-2.23,.3-1.97-5.95-1.82-7.24,.17-1.45,.56-2.92,1.03-4.3,.55-1.6,1.16-3.32,2.03-4.77,.16-.26,.2-.86-.03-1.1-.98-1.03-1.77-2.28-2.66-3.4s-1.73-2.16-2.63-3.22c-1.84-2.17-3.75-4.28-5.73-6.31-1.84-1.89-3.73-3.72-5.7-5.48-1.08-.96-2.18-1.91-3.3-2.83-.39-.32-1.32-.79-1.52-1.24-.37-.82,1.4-.16,1.68,.24,.03,.04,.07-.1,.02-.13h0Z"/><path class="cls-3" d="M481.54,375.72l-.38-.11c-.1,.01-.17,.07-.22,.16-.41,.64-.6,1.41-.74,2.15-.2,1.06-.19,2.12-.09,3.18,.13,1.45,.52,3.13,1.76,4.04,.33,.24,.3-.83,.27-.94-.17-.7-.34-1.42-.44-2.14-.05-.35-.1-.7-.15-1.05-.02-.17-.05-.34-.08-.51-.01-.09-.04-.62-.02-.19,0-.15-.01-.29-.02-.44,0-.1,0-.2,0-.29-.01,.32,0,.22,0-.29,0-.15,0-.29,0-.44,0,.36,.02-.26,.02-.33,.03-.39,.08-.69,.13-1.06,.02-.16,.04-.31,.05-.47,.03-.41-.13-.83-.07-1.23,0,0,0-.05-.01-.04h0Z"/><path class="cls-3" d="M385.21,388.89s.03-.15,0-.15c-.03,0-.03,.15,0,.15h0Z"/><path class="cls-3" d="M387.7,388.11c-1.96-.08-3.89-.6-5.87-.64-1.83-.04-3.66,.09-5.46,.39-3.62,.6-7.09,1.93-10.23,3.81-.09,.05-.08,.42,.01,.47,14.07,8.1,28.97,14.75,44.37,19.89,7.8,2.6,15.74,4.8,23.77,6.58s15.97,3.55,24.1,4.72c4.59,.66,9.2,1.06,13.84,1.31,1.73,.1,3.62,.36,5.26-.35,1.49-.65,1.77-2.3,1.6-3.79-.01-.1-.19-.9-.39-.49-.12,.23-.83,.52-1.06,.65-.61,.36-1.33,.51-2.03,.59-1.79,.2-3.69-.05-5.48-.14-3.87-.21-7.73-.49-11.59-.78-7.83-.58-15.68-1.48-23.4-2.92-15.43-2.87-30.7-7.84-45.12-13.98-8.16-3.47-16.11-7.41-23.83-11.77v.47c3.27-1.98,6.86-3.31,10.62-3.99,1.8-.33,3.63-.49,5.47-.49s3.8,0,5.45,.6c.02,0,.04-.15,0-.15h0Z"/><path class="cls-3" d="M369.18,387.96c-11.9-3.04-23.72-7.64-35.08-12.25-5.46-2.21-10.86-4.56-16.19-7.05-2.58-1.2-5.14-2.43-7.69-3.69-1.46-.72-2.91-1.45-4.35-2.19-.64-.33-4.17-1.67-4.32-2.24-.49-1.9,10.81-6.3,12.63-7.01,4.81-1.88,9.81-3.27,14.87-4.32,10.57-2.19,21.38-2.91,32.15-3.44,23.96-1.19,47.55-3.44,71.21-7.51s49.16-9.6,73.82-13.94,49.05-7.29,73.88-8.23c24.26-.91,48.57-.14,72.76,1.84,49.09,4,97.57,12.97,145.79,22.76,48.55,9.86,96.96,20.62,145.9,28.43,6.01,.96,12.02,1.87,18.05,2.73,.44,.06,.63-3.01-.08-3.1-44.21-5.82-87.96-14.44-131.66-23.18-43.65-8.72-87.33-17.38-131.46-23.4s-87.77-9.06-131.78-6.31c-44.91,2.8-88.55,13.42-132.73,21.17-21.69,3.81-43.44,6.55-65.44,7.58-19.05,.9-38.89,1.34-56.76,8.77-4.31,1.79-8.4,4-12.28,6.6-.14,.1-.14,.64,.02,.72,10.93,5.79,22.16,11,33.64,15.6,11.55,4.62,23.3,8.07,35.13,11.81,.02,0,.04-.14,0-.15h0Z"/><path class="cls-3" d="M305.21,360.19c1.26-.09,2.56,.11,3.83,.16s2.55,.08,3.82,.08c2.55,0,5.1-.07,7.64-.24,5.03-.34,10.03-.98,15.03-1.63,10.04-1.3,20.1-2.72,30.25-2.56,19.35,.29,38.12,5.64,57.04,9.09,10.67,1.94,21.47,3.29,32.33,2.75,.05,0,.04-.23,0-.23-19.44,.72-38.37-4.17-57.28-7.94-9.39-1.87-18.88-3.48-28.46-3.93-10.08-.48-20.09,.65-30.07,1.94-5.64,.73-11.27,1.49-16.94,1.97-2.86,.24-5.72,.46-8.59,.56-1.35,.05-2.71,.07-4.06,.06-1.48,0-3.09,.09-4.54-.21-.03,0-.04,.15,0,.15h0Z"/><path class="cls-3" d="M457.67,364.1c1.93-.04,3.96,.43,5.87,.67s3.92,.48,5.88,.71c3.92,.47,7.84,.91,11.77,1.34,7.68,.84,15.38,1.57,23.08,2.22,15.56,1.32,31.15,2.32,46.75,3.02,31.04,1.39,62.13,1.56,93.18,.5,17.41-.59,34.83-1.5,52.19-2.99,.03,0,.02-.12,0-.11-31.17,2.19-62.36,3.58-93.61,3.54-31.07-.04-62.14-1.3-93.11-3.79-8.68-.7-17.36-1.5-26.03-2.35-4.25-.42-8.5-.86-12.75-1.32-2.12-.23-4.25-.47-6.37-.71-2.24-.26-4.68-.29-6.85-.88-.02,0-.04,.15,0,.15h0Z"/><path class="cls-3" d="M524.67,360.01c14.01,5.21,29.45,5.61,44.19,6.83s30.89,2.56,46.33,3.81c31.21,2.54,62.43,4.98,93.67,7.2,62.12,4.41,124.32,7.91,186.59,9.39,35.06,.83,70.17,1.18,105.23,.25,.05,0,.04-.23,0-.23-62.6,.66-125.13-.44-187.67-3.5-62.23-3.04-124.37-7.61-186.47-12.6-17.34-1.39-34.67-2.82-52.01-4.25-8.62-.71-17.25-1.29-25.85-2.12-8.16-.78-16.27-2.03-24-4.84,0,0-.01,.05,0,.06h0Z"/><path class="cls-3" d="M1060,346.36c-1.43,3.3-4.47,6.14-7.31,8.23-3.06,2.25-6.48,3.94-9.99,5.38-8.04,3.3-16.54,5.57-24.85,8.08-18.7,5.66-37.49,10.99-56.37,15.99-10.67,2.83-21.37,5.58-32.08,8.27-.04,.01-.02,.18,0,.17,19.32-4.58,38.52-9.67,57.63-15.07,9.52-2.69,19.01-5.47,28.48-8.33,8.56-2.59,17.29-4.95,25.63-8.19,3.68-1.43,7.29-3.16,10.54-5.41,1.67-1.16,3.24-2.47,4.64-3.95,1.47-1.55,2.46-3.32,3.7-5.02,.03-.04,0-.16-.02-.13h0Z"/><path class="cls-3" d="M564.68,315.5c14.7-5.34,25.47-17.2,35.3-28.87s19.86-24.39,33.47-32.47c7.71-4.58,16.42-7.36,25.45-6.83l-.13-.78c-7.52,20.76-1.71,45.8,14.41,60.96,2.57,2.41,5.42,4.49,8.23,6.61,1.48,1.11,2.93,2.24,4.32,3.47,.74,.66,1.47,1.34,2.16,2.05,.62,.64,1.3,1.07,2.03,1.59,.38,.28,.28-1.25,.18-1.42-.84-1.48-1.66-2.57-2.92-3.71-1.14-1.03-2.34-1.98-3.55-2.92-2.46-1.9-5.02-3.67-7.44-5.62-4.17-3.34-7.77-7.31-10.73-11.76-6-9.03-9.37-19.68-9.48-30.54-.06-6.14,.94-12.29,3.02-18.07,.05-.13,.1-.76-.13-.78-16.01-.87-30.04,8.49-41.04,19.22s-20.19,24.56-31.77,35.5c-6.25,5.91-13.36,11.04-21.39,14.24-.03,.01-.01,.12,0,.11h0Z"/><path class="cls-3" d="M365.91,363.84c-.01,.08-.13,.14-.17,.21-.07,.11-.09,.25-.1,.38,0,.3,.07,.61,.21,.87,.12,.23,.31,.44,.54,.56,.1,.05,.25,.11,.36,.09,.13-.02,.29-.16,.38-.25,1.03-.89,1-2.71,.04-3.63-.5-.48-1.26-.71-1.94-.53-.13,.04-.17,.17-.19,.29-.39,1.73-.09,3.6,.78,5.14,.04,.08,.14,.12,.21,.07,.65-.44,1.26-.99,1.62-1.69,.45-.88,.54-1.98,.17-2.9-.14-.35-.38-.64-.58-.95s-.49-.61-.8-.8-.71-.11-1.03,.04c-.35,.17-.56,.56-.71,.91-.22,.51-.28,1.11-.27,1.67s.11,1.14,.31,1.68c.25,.66,.71,1.25,1.42,1.42,.61,.15,1.16-.21,1.5-.68,.59-.81,.67-2,.54-2.96-.08-.57-.25-1.18-.67-1.6-.14-.15-.32-.31-.54-.32-.19,0-.39,.08-.55,.16-.41,.2-.64,.66-.78,1.07-.27,.77-.36,1.72-.13,2.51,.04,.18,.11,.35,.22,.5,.07,.11,.16,.17,.29,.19,.11-.04,.22-.07,.33-.11,.32-.11,.23-.75,.14-.98-.03-.07-.01-.04-.04-.12-.01-.06-.01-.04,.01,.06,0-.03,0-.07-.01-.1l-.07,.91c.1-.26,.15-.52,.18-.79,.02-.19-.06,.35-.03,.21,.03-.12-.11,.34-.05,.17,.07-.21-.13,.2-.03,.05,.04-.06,.08-.12,.13-.18l-.15,.17c.16-.17,.35-.34,.57-.43l-.17,.06c.09-.03,.17-.05,.26-.06l-.17-.05c.11,.05,.21,.11,.3,.19l-.16-.16s.08,.11,.13,.16c.07,.09-.14-.28-.07-.14,.05,.1,.07,.26-.06-.18,.02,.07,.05,.21-.01-.08-.03-.16-.04-.23-.05-.46,0,.15-.05,.26,.01-.26,0,.03,0,.07,0,.1,0,.13,.07-.44,.03-.24-.01,.06-.05,.2,.01-.04,.09-.32-.04,.06-.04,.08,0-.02,.14-.27,.05-.11-.02,.03-.03,.06-.05,.09-.04,.07-.09,.14-.15,.2l.14-.16c-.14,.15-.3,.27-.49,.35l.16-.06c-.23,.08-.47,.08-.71,.01l.16,.05c-.19-.06-.36-.17-.51-.31l.14,.15c-.07-.07-.14-.15-.19-.23-.06-.09-.08-.24,.01,.04-.01-.04-.04-.08-.06-.12-.1-.25,.07,.26,.02,.08-.03-.11-.03-.28,.03,.16,0-.07-.03-.3,0,0s.01,.07,0,0c.02,.5,0,.32,0,.19-.04,.26-.05,.33-.03,.2,0-.03,.01-.06,.02-.09-.06,.33-.06,.21-.02,.11,.09-.23-.1,.15,0,.01,.03-.04,.05-.08,.08-.12,.02-.03,.04-.05,.06-.07-.08,.08-.09,.09-.02,.04,.1-.06,.19-.12,.3-.17l-.14,.05c.2-.06,.39-.04,.59-.08,.18-.03,.36-.04,.54,0,.09,.02,.17,.04,.26,.06l-.06-.05s.05,.05,.07,.08c.03,.04,.06,.08,.09,.12s.06,.09,.08,.13c-.05-.09,0,.02,.02,.05,.02,.05,.03,.18,.01,.03,.02,.15-.02-.16,0,0,.02,.18,0-.22,0,0,0-.27-.02,.12,0-.09,0,.06-.02,.13-.04,.19,.03-.11-.03,.08-.03,.08-.08,.22-.19,.42-.33,.63-.31,.45-.73,.83-1.17,1.16l.21,.07c-.16-.27-.3-.55-.41-.84-.09-.24-.18-.56-.22-.77-.11-.6-.11-1.09,.01-1.72l-.19,.29c.57-.19,1.18-.11,1.67,.23,.22,.15,.41,.35,.52,.59,.1,.21,.1,.36,.06,.57-.06,.27-.19,.53-.37,.74-.08,.1-.18,.19-.29,.27-.14,.1-.23,.12-.39,.07-.22-.08-.4-.25-.51-.45-.05-.09-.07-.18-.08-.28,0-.05-.05-.48,.05-.46,.07,.01,0-.24-.03-.11h0Z"/><path class="cls-3" d="M364.59,355.52c-.46,.13-.93,.09-1.39,.26s-.84,.4-1.19,.71c-.71,.6-1.23,1.4-1.62,2.24-.81,1.74-1.04,3.72-.92,5.63,.24,3.6,1.95,7.7,5.66,8.88,4.37,1.4,8.52-2.3,9.7-6.3,.63-2.12,.47-4.25-.09-6.37-.62-2.31-1.61-4.56-3.63-5.95s-4.47-1.68-6.73-.92c-2.46,.83-3.86,3.07-4.3,5.55-.02,.1,.09,1.06,.29,.7,.72-1.26,2.26-2.03,3.54-2.59,1.53-.66,3.19-.94,4.83-.55s3.16,1.58,4.31,2.81c1.31,1.39,1.85,3.22,1.74,5.11-.23,3.89-3.67,7.92-7.7,8.06-3.76,.13-6.3-3.06-7.13-6.43-.52-2.12-.54-4.48,.13-6.57,.34-1.04,.85-2.07,1.6-2.88,.65-.71,1.86-1.58,2.88-1.25,.06,.02,.04-.15,0-.14h0Z"/><path class="cls-3" d="M354.92,366.32c-.01,3.26,1.42,6.47,3.9,8.6,2.78,2.39,6.81,3.09,10.27,1.93,.09-.03,.06-.31,0-.29-3.25,.93-6.72,.39-9.53-1.5s-4.58-5.29-4.61-8.74c0-.03-.02-.03-.02,0h0Z"/><path class="cls-3" d="M372.04,351.44c.53,.93,1.36,1.5,2.1,2.28,.65,.68,1.29,1.37,1.84,2.13,1.12,1.54,1.97,3.28,2.48,5.11,1.08,3.83,.67,7.99-1.1,11.55-.06,.12,0,.74,.14,.54,2.4-3.58,2.76-8.1,1.77-12.22-.5-2.09-1.37-4.1-2.59-5.87-.59-.85-1.26-1.69-2.04-2.39-.39-.35-.83-.65-1.27-.93-.54-.34-.72-.53-1.32-.34-.05,.02-.03,.11-.01,.14h0Z"/><path class="cls-3" d="M338.96,371.94v-.04h0l.09,.1s.05,.06,.11,.05l.21-.05-.06-.04,.15,.26s.04,.06,.08,.08c.02,0,.03,.02,.05,.03,.05,.04,.11,.04,.16,0,.07-.05,.1-.12,.13-.19s.06-.13,.08-.21c.03-.11,.04-.23,.05-.35l-.12,.36,.33-.36c.08-.09,.08-.24,.07-.35,0-.06-.01-.13-.04-.18-.02-.04-.04-.09-.08-.09l-.34-.02,.13,.14c-.06-.11-.1-.23-.2-.31-.01-.01-.03-.03-.04-.03-.05-.03-.09-.03-.14,0-.07,.03-.12,.11-.15,.18-.11,.2-.12,.43-.13,.65l.08-.24-.25,.19c-.05,.04-.08,.08-.11,.14-.03,.07-.05,.14-.08,.2h.01s-.02-.05-.04-.03c-.02,.01-.02,.05-.01,.07,0,.02,.03,.11,.05,.05h0Z"/><path class="cls-3" d="M382.07,399.21c1.86-.37,3.89-.27,5.79-.4s3.85-.29,5.78-.48c3.93-.38,7.84-.87,11.74-1.48,7.72-1.22,15.38-2.85,22.93-4.86,.05-.01,.03-.18,0-.17-7.56,1.97-15.21,3.57-22.94,4.76-3.82,.59-7.66,1.11-11.5,1.54-1.92,.22-3.85,.41-5.78,.58s-4.08,.55-6.03,.37c-.04,0-.03,.15,0,.15h0Z"/><path class="cls-3" d="M408.97,405.98c1.61-.35,3.36-.3,5-.48,1.51-.16,3.02-.36,4.52-.59,3.23-.5,6.44-1.16,9.61-1.97,6.08-1.56,12.16-3.64,17.77-6.47,.03-.01,.02-.12-.01-.11-5.93,2.65-11.91,4.98-18.21,6.6-3.02,.78-6.08,1.41-9.16,1.9-1.5,.24-3.01,.44-4.52,.61-1.61,.18-3.39,.51-5,.36-.04,0-.03,.15,0,.15h0Z"/><path class="cls-3" d="M413.36,411.65c13.11-1.26,25.94-5.11,37.49-11.46,.04-.02,.02-.19-.02-.17-11.63,6.25-24.33,10.24-37.48,11.57-.01,0-.01,.06,0,.06h0Z"/><path class="cls-3" d="M419.59,417.07c13.53-1.95,26.44-6.98,37.61-14.87,.04-.03,.01-.19-.02-.17-11.25,7.66-24.14,12.87-37.59,14.98-.02,0-.01,.06,0,.06h0Z"/><path class="cls-3" d="M469.02,336.21c1.81,.55,3.56,2.12,4.94,3.38,1.49,1.36,2.82,2.91,4,4.55,2.29,3.18,4.06,6.7,5.54,10.32,3.7,9.05,6.02,18.96,4.29,28.73,0,.05,.04,.19,.06,.09,1.36-7.35,.36-14.86-1.78-21.96-1.94-6.47-4.61-13.11-8.88-18.43-1.06-1.32-2.22-2.55-3.5-3.65-1.45-1.25-3.13-2.06-4.67-3.16-.02-.02-.06,.13,0,.14h0Z"/><path class="cls-3" d="M478.69,335.77c8.28,13,15.09,27.79,13.66,43.58-.42,4.56-1.56,9.02-3.48,13.18-.01,.03,0,.13,.02,.1,6.85-14.5,3.48-31.15-3.34-44.98-2.03-4.12-4.37-8.07-6.85-11.94,0-.02-.02,.04,0,.05h0Z"/><path class="cls-3" d="M487.16,333.77c10.21,13.15,15.06,30.09,13.73,46.66-.38,4.73-1.28,9.4-2.68,13.93-.01,.04,.02,.2,.05,.12,5.02-15.95,3.58-33.63-3.6-48.7-2.04-4.28-4.55-8.32-7.48-12.05-.01-.01-.02,.04,0,.05h0Z"/><path class="cls-3" d="M462.17,408.45c1.63-1.14,3.91-1.74,5.81-2.27,1.75-.48,3.55-.83,5.35-1.04,3.74-.43,7.56-.25,11.26,.44,.02,0,.03-.11,0-.11-3.78-.81-7.62-.96-11.45-.45-1.87,.25-3.72,.65-5.53,1.19-.87,.26-1.74,.56-2.59,.89-.95,.37-1.88,.92-2.86,1.2-.05,.02-.02,.16,.01,.14h0Z"/><path class="cls-3" d="M472.47,407.84c.67,.77,1.12,1.7,1.69,2.54s1.14,1.73,1.67,2.62c1.04,1.75,1.98,3.55,2.84,5.4,1.68,3.64,3.04,7.43,4.22,11.25,2.37,7.65,4,15.5,6.01,23.25s4.4,15.59,8.25,22.66c1.03,1.9,2.16,3.75,3.38,5.54s2.61,3.32,3.76,5.07c2.48,3.77,5.32,7.08,8.84,9.92,1.85,1.5,3.77,3.01,5.86,4.17,1.89,1.05,4.61,2.24,6.78,1.58,.96-.29,1.87-.76,2.5-1.55,.96-1.2,1.15-2.46,1.43-3.93,.37-2,.8-4.26-.39-6.09-.31-.48-.56,.1-.64,.4-.17,.62-.11,1.36,.09,1.96,.14-.42,.16-.51,.05-.27-.08,.14-.18,.28-.28,.41l.41-.34c-.2,0-.38-.21-.58-.24-.38-.05-.65,.17-.99,.36-.64,.36-1.23,.81-1.95,1.01-1.9,.54-3.76,.32-5.55-.49-3.5-1.57-6.45-4.18-9.39-6.58-1.36-1.11-2.79-2.12-4.15-3.23-.64-.52-1.37-.99-1.94-1.58-.68-.7-1.28-1.5-1.89-2.26-2.37-3-4.46-6.21-6.23-9.6-6.77-12.99-8.62-27.65-13.04-41.46-1.2-3.74-2.6-7.4-4.35-10.91-.85-1.71-1.77-3.37-2.79-4.99-.5-.8-1.03-1.58-1.58-2.35-.61-.85-1.38-1.56-2-2.4-.03-.04-.05,.1-.02,.13h0Z"/><path class="cls-3" d="M523.82,499.65c3.9-.87,6.76-4.07,7.79-7.84,1.48-5.41,.07-11.06-.66-16.46-.8-5.88-1.16-11.86-.99-17.8,.15-5.38,.88-10.99,3.53-15.76s6.93-8.41,12.28-9.28c.94-.15,.69-3.46-.08-3.33-10.12,1.65-15.2,11.88-16.47,21.09-.77,5.6-.72,11.35-.31,16.98,.22,2.99,.55,5.98,1.01,8.95,.43,2.8,1.01,5.6,1.23,8.43,.44,5.61-1.34,12.96-7.32,14.97-.02,0-.01,.06,0,.06h0Z"/><path class="cls-3" d="M534.65,443.81c0,.06,0,.12,.04,.17,.03,.04,.09,.07,.14,.08,.1,.02,.24,0,.32-.08,.04-.05,.05-.13,.04-.19,0,0,0-.02-.01,0,0,0,0,.03,0,.04,.02,.1-.07,.16-.15,.18-.09,.02-.21,.02-.29-.04-.04-.03-.06-.07-.05-.12,0,0,0-.03,0-.04s-.01,0-.01,.01h0Z"/><path class="cls-3" d="M533.3,438.8c.53,.24,.69,.73,1.16,1.02,.32,.19,.85,.29,1.22,.37,.76,.17,1.57,.23,2.35,.33,1.69,.22,3.39,.41,5.09,.58,3.43,.33,6.8,.02,10.19-.53,.21-.03,.19-.88-.02-.92-3.33-.59-6.65-1.17-10.04-1.31-1.63-.07-3.26-.16-4.89-.28-.78-.06-1.56-.15-2.34-.19-.39-.02-.78-.03-1.17,.01-.68,.08-.83,.63-1.54,.77-.03,0-.03,.13,0,.14h0Z"/><path class="cls-3" d="M536.8,437.95c.59,.62,1.17,1.66,1.93,2.04,.58,.29,1.42,.42,2.05,.54,1.45,.28,2.95,.44,4.42,.58,2.94,.26,5.88,.49,8.83,.68,5.8,.38,11.6,.53,17.42,.55,11.62,.04,23.24-.39,34.83-1.26s23.39-2.13,35.03-3.64c2.89-.38,5.68-1.29,8.54-1.84s5.68-1.07,8.55-1.51c5.86-.9,11.72-1.85,17.57-2.83,6.5-1.09,12.99-2.22,19.48-3.35,3.16-.55,6.33-1.09,9.48-1.74,3.33-.68,6.71-1.25,9.93-2.35,.44-.15,.4-2.13-.05-2.13-2.94,.04-5.84,.56-8.75,.99s-5.84,.92-8.75,1.42c-5.76,.99-11.52,1.98-17.28,2.91s-11.54,1.83-17.32,2.69-11.54,1.74-17.37,1.82-11.62,1.19-17.39,1.82-11.75,1.21-17.64,1.69c-11.59,.94-23.2,1.55-34.82,1.68-6.54,.07-13.08-.05-19.62-.21-3.19-.08-6.37-.19-9.56-.36-1.63-.08-3.26-.14-4.9-.17-.8-.02-1.66-.08-2.44,.12-.93,.23-1.47,1.11-2.16,1.73-.03,.02-.02,.12,0,.14h0Z"/><path class="cls-3" d="M696.28,422.46c2.65-2.27,7.09-2.01,10.31-1.57,3.81,.52,7.6,1.44,11.31,2.4,7.85,2.04,15.49,4.7,22.93,7.94,.05,.02,.06-.2,.01-.22-7.29-3.37-14.93-6.07-22.73-7.99-3.79-.93-7.65-1.81-11.54-2.29-1.75-.21-3.54-.31-5.3-.1-1.88,.22-3.31,.96-5.01,1.69-.05,.02,0,.16,0,.14h0Z"/><path class="cls-3" d="M695.55,421.18c1.08-2.46,4.57-2.21,6.79-2.13,2.89,.11,5.76,.51,8.58,1.19,5.85,1.42,11.42,3.92,16.62,6.92,2.54,1.47,5,3.05,7.44,4.67,2.22,1.47,4.36,3.04,6.78,4.17,.99,.46,2.11,.88,3.22,.87,.54,0,1.04-.13,1.54-.34s.89-.27,1.35-.41c1-.3,1.52-1.62,2.18-2.35,.73-.81,1.58-1.46,2.49-2.05,2.12-1.38,4.53-2.13,7.01-2.56,1.38-.24,2.53-.95,3.84-1.4s2.74-1.21,4.14-1.42c.32-.05,.28-1.43-.04-1.49-1.22-.26-2.31-.92-3.5-1.27s-2.6-1.03-3.91-1.09c-2.12-.1-4.63,.53-6.58,1.31s-3.79,2.08-5.03,3.9c-.43,.64-.81,1.26-1.05,1.99-.31,.89-.46,1.83-1.19,2.48-.97,.89-2.48,1.07-3.74,.94-2.7-.28-4.95-2.06-7.21-3.42-2.5-1.5-5.05-2.93-7.66-4.24-5.07-2.56-10.33-4.79-15.9-5.99-3.23-.7-6.54-1.08-9.84-.95-2.22,.09-5.38,.19-6.35,2.62,0,.01,0,.06,.01,.05h0Z"/><path class="cls-3" d="M750.1,414.45c-.46-.07-.88-.2-1.32-.33-.21-.07-1.13-.48-1.33-.41,.45-.18,1.54,.08,2.03,.11,1.81,.08,3.62,.16,5.44,.23,3.62,.14,7.25,.26,10.88,.35,7.25,.18,14.5,.08,21.75-.07,14.42-.29,28.82-.98,43.18-2.21,8.14-.69,16.24-1.61,24.34-2.7,.1-.01,.08-.47-.01-.46-28.04,2.56-56.17,4.42-84.34,4.53-7.9,.03-15.8,.17-23.71,.08-.03,0-.03,.12,0,.12,1.02,.27,2.12,.48,3.09,.9,.03,.01,.05-.14,0-.14h0Z"/><path class="cls-3" d="M807.74,414.44c5.13-.74,10.35-.96,15.51-.42s10.41,2.15,15.28,4.34,9.3,4.71,13.94,7.08c2.4,1.23,4.81,2.45,7.21,3.68,2.18,1.11,4.39,2.51,6.74,3.26,2.13,.67,4.45,.3,5.2-2.03,.38-1.18,.7-3.32-.6-4.06-.17-.1-.12,.67-.04,.78,.61,.84,.15,1.2-.5,1.81-.77,.73-1.82,.89-2.85,.77-2.29-.27-4.46-1.74-6.48-2.76-4.29-2.18-8.57-4.37-12.88-6.5-7.99-3.93-16.05-7.74-25.06-8.4-5.28-.39-10.52,.35-15.46,2.23-.05,.02-.04,.24,0,.23h0Z"/><path class="cls-3" d="M867.48,422.39c.22,.58,.34,1.27,.49,1.88,.13,.55,.27,1.08,.45,1.61l1.03,3.16c.14,.42,.3,.84,.4,1.27,.07,.31-.1,.6-.33,.81s-1.4,.7-1.46,.06c-.02-.17-.11-.17-.11,0-.03,.72,.46,1.27,1.19,1.31,1.2,.06,1.25-1.51,1.18-2.37-.12-1.36-.73-2.67-1.19-3.94-.24-.66-.44-1.36-.73-2.01s-.68-1.24-.88-1.9c-.02-.06-.04,.07-.03,.1h0Z"/><path class="cls-3" d="M950.71,406.83c.93-.36,1.85,0,2.73,.31,1.06,.38,2.04,.77,2.98,1.41,1.87,1.28,3.3,3.02,4.77,4.71,3.26,3.76,6.6,7.45,10.05,11.04,6.85,7.14,14,13.96,21.37,20.56,3.59,3.22,7.18,6.46,10.97,9.44,3.53,2.78,7.22,4.82,11.73,5.36,1.05,.13,1.88,.41,2.95,.35,.45-.02,.94,.13,1.37,0,.48-.13,.9-.56,1.24-.91,1.47-1.47,2.25-3.61,2.74-5.59,1.27-5.19,.65-10.8-.72-15.9s-3.92-9.13-6.18-13.56c-1.13-2.22-2.02-4.46-2.65-6.87-.24-.93-.53-1.88-.68-2.83-.22-1.45,.11-2.91,.54-4.29,.13-.41,.17-.92,.06-1.34-.04-.15-.18-.73-.35-.34-4.05,8.88,.53,18.83,4.38,26.92,.9,1.9,1.77,3.81,2.46,5.8,.33,.95,.65,1.91,.92,2.88,.07,.25,.14,.5,.21,.76,.15,.62-.07-.35,.06,.27,.05,.25,.1,.51,.15,.76,.13,.69-.08-.88,.05,.33,.03,.26,.05,.51,.07,.77,0-.07-.03-.67-.02-.17,.01,.67,.05-.65,0,.01,0,.09-.06,.87-.02,.43,.06-.54-.17,.93-.08,.49-.09,.44-.21,.88-.37,1.3-.34,.91-.81,1.82-1.31,2.65-.69,1.16-1.55,2.65-2.75,3.28-1.03,.54-1.8,.89-2.99,.82-1.08-.06-2.14-.25-3.18-.54-2.18-.61-4.2-1.68-6.1-2.92-3.86-2.51-7.33-5.7-10.8-8.7-7.4-6.4-14.48-13.19-21.31-20.21-3.74-3.85-7.43-7.76-11.05-11.72-1.68-1.84-3.28-3.82-5.4-5.18-.87-.56-1.91-1.13-2.98-1.13s-2,.78-2.87,1.38c-.03,.02-.01,.15,0,.14h0Z"/><path class="cls-3" d="M1011.69,417.5c-1.4-4.63,1.82-9.38,5-12.4s6.99-5.18,10.84-7.22c8.69-4.6,17.81-8.34,27.04-11.72,18.23-6.68,36.99-12.11,54.75-20,4.46-1.98,9.1-4.4,12.02-8.44,1.39-1.92,2.37-4.12,2.79-6.46,.36-2.05,.83-4.95-.5-6.71-.52-.68-.57,1.18-.56,1.38,.05,.57,0,1.16,.07,1.73,.06,.48,.24,.9,.25,1.37,.02,1.16-.44,2.44-.89,3.5-.9,2.12-2.28,3.98-3.95,5.55-3.45,3.24-7.84,5.16-12.13,7-8.96,3.83-18.14,7.11-27.33,10.32-18.35,6.41-36.8,12.77-53.61,22.69-4.03,2.38-7.98,5.09-10.88,8.83-1.18,1.52-2.17,3.22-2.72,5.07s-.48,3.64-.24,5.57c.01,.11,.07,0,.05-.06h0Z"/><path class="cls-3" d="M1120.62,346.08c3.11,1,4.05,4.83,3.03,7.64-1.22,3.4-4.64,5.51-7.55,7.33-.06,.04-.03,.31,.03,.28,3.22-1.88,7.29-4.26,8-8.28,.49-2.76-.49-6.28-3.52-7.03-.01,0-.01,.05,0,.06h0Z"/><path class="cls-3" d="M1011.94,416.27c.14-4.63,3.46-8.84,6.74-11.8s7.3-5.45,11.22-7.67c8.27-4.69,17.13-8.2,26.12-11.24,17.82-6.04,36.43-9.82,53.41-18.18,4.47-2.2,9.05-4.91,11.61-9.35,1.16-2.01,1.85-4.31,1.99-6.63,.11-1.82,.2-4.67-1.37-5.92-.28-.22-.25,.89-.23,.98,.51,2.26,.91,4.3,.22,6.57s-1.96,4.16-3.57,5.8c-3.23,3.3-7.47,5.41-11.59,7.38-8.47,4.05-17.34,7.26-26.22,10.27-17.31,5.86-35.31,10.59-51.21,19.87-4.19,2.44-8.35,5.13-11.73,8.63-1.54,1.6-2.92,3.38-3.92,5.37s-1.3,3.78-1.54,5.88c0,.07,.06,.14,.06,.04h0Z"/><path class="cls-3" d="M1117.54,346.06c1.63,.16,3.24,.83,4.87,1.09s3.24,.39,4.85,.61c3.28,.46,6.61,.65,9.9,1.06,6.5,.82,12.95,1.83,19.36,3.18,.14-.03,.23-.11,.28-.25,2.43-3.36,1.97-7.88,4.36-11.32,2.14-3.07,5.45-5.16,8.7-6.87,3.59-1.88,7.37-3.36,10.96-5.23,4.3-2.25,8.38-4.92,12.17-7.96,1.03-.83,2.05-1.68,3.02-2.57,.77-.7,1-1.44,1.1-2.48,.07-.64,.21-3.29-1.09-2.39-.13,.09-.14,.77,.05,.79,.29,.03,.55-.13,.43,.21l.24-.33c-.91,.4-1.69,1.4-2.44,2.04-1.34,1.14-2.72,2.24-4.14,3.28-2.6,1.92-5.33,3.66-8.16,5.22-4.88,2.69-10.21,4.52-14.98,7.42-2.16,1.31-4.21,2.87-5.79,4.86s-2.53,4.29-3.1,6.79c-.32,1.4-.56,2.87-1.19,4.17-.07,.15-.22,.53-.36,.67-.43,.43-.45,.3-1.1,.18-.95-.17-1.9-.38-2.85-.56-3.65-.68-7.31-1.26-10.99-1.74-3.92-.5-7.85-.81-11.8-1.01-2.01-.1-4.02-.02-6.03,.07-.98,.04-1.93,.15-2.89,.31-1.15,.19-2.22,.59-3.37,.68-.01,0-.01,.06,0,.06h0Z"/><path class="cls-3" d="M958.19,370.53c16.57,.02,32.33-5.86,47.94-10.76,16.36-5.13,32.66-10.45,48.96-15.78s32.43-10.65,48.62-16.02,31.22-10.36,47.26-13.97c7.95-1.79,16-3.18,24.12-3.97,6.78-.66,14.13-.95,20.51,1.86,1.55,.68,2.99,1.55,4.32,2.59l-.06-2.55c-1.43,1.29-2.66,2.6-3.88,4.11-.17,.21-.17,1.63,.15,1.44,1.49-.89,2.71-1.84,3.99-3,.44-.4,.41-2.18-.06-2.55-5.44-4.21-12.45-5.12-19.14-4.93-7.8,.22-15.63,1.48-23.28,2.96-16.14,3.13-31.85,8.08-47.45,13.22-16.27,5.37-32.52,10.78-48.8,16.12-16.31,5.35-32.66,10.6-48.94,16.02-8.09,2.69-16.16,5.45-24.28,8.02s-15.76,4.69-23.85,5.89c-2.04,.3-4.09,.52-6.15,.67-.16,.01-.14,.63,.02,.63h0Z"/><path class="cls-3" d="M871.72,355.86c8.95-3.98,18.35-7.04,27.94-9.03l-.13-.27c.51,4.12,2.65,8.09,5.45,11.13,1.55,1.68,7.7,7.58,9.73,3.89,.04-.08,.07-.66-.09-.58-1.63,.89-3.51-.04-4.94-.91-1.65-1.01-3.16-2.25-4.48-3.66-2.77-2.96-4.31-6.41-5.46-10.24,0-.02-.05-.12-.09-.11-9.69,2.11-19.02,5.32-27.94,9.66-.03,.01-.02,.12,.01,.11h0Z"/><path class="cls-3" d="M325.42,349.96c.71,.5,1.28,1.35,1.8,2.04s.96,1.33,1.39,2.03c.89,1.43,1.64,2.95,2.24,4.53,1.25,3.27,1.84,6.77,1.74,10.27,0,.07,.06,.12,.07,.02,.13-3.36-.39-6.69-1.54-9.85-.59-1.62-1.35-3.19-2.25-4.66-.48-.78-.99-1.53-1.55-2.26-.59-.77-1.32-1.46-1.88-2.25-.03-.04-.07,.1-.02,.13h0Z"/><path class="cls-3" d="M328.99,349.29c8.16,5.26,8.2,15.89,7.92,24.52,0,.1,.09,.22,.09,.06,.34-8.65,.34-19.46-8.01-24.63-.01,0-.02,.05,0,.06h0Z"/><path class="cls-3" d="M365.84,391.77c5.14-1.69,10.47-3.37,15.94-3.21,1.29,.04,2.58,.15,3.84,.42,1.08,.23,2.16,.82,3.26,.86,.71,.03,1.91-.41,1.33-1.31-.06-.09-.08,.14-.07,.16,.2,1.39-4.4-.25-4.95-.35-2.14-.41-4.29-.41-6.45-.15-4.44,.52-8.71,2.01-12.9,3.52-.02,0,0,.06,0,.06h0Z"/><path class="cls-3" d="M389.59,387.54c-.14-.38-.18-.47-.11-.25,.01,.06,.04,.12,.07,.17,.04,.07,.08,.13,.13,.19,.08,.1,.15,.2,.22,.31,.03,.05,.07,.11,.1,.16,0,.01,.09,.16,.04,.07,.06,.11,.11,.23,.15,.35,.02,.05,.04,.1,.05,.14,.08,.23-.03-.12,0,.02,.03,.12,.07,.23,.1,.35,0,.01,.03,.17,.04,.17-.02,0-.04-.28,0-.04,0,.04,0,.14,.02,.18-.04-.07,0-.28,0-.07,0,.05-.01,.14,0,.18-.01-.04,.02-.27,0-.1,0,.06-.02,.12-.01,.18,0,.13,.04-.23,0-.03-.05,.25-.08,.5-.14,.75,.03-.12,0,.01-.02,.06-.02,.06-.04,.13-.06,.19-.04,.11-.08,.21-.13,.31-.13,.3-.23,.6-.38,.9-.05,.1-.14,.84,.1,.8,.2-.03,.44-.08,.59-.21,.18-.17,.34-.4,.46-.62,.38-.69,.46-1.51,.46-2.29,0-1.36-.35-2.81-1.45-3.69-.27-.22-.4,.47-.42,.58-.05,.35-.06,.93,.18,1.22h0Z"/><path class="cls-3" d="M364.44,391.63c2-1.14,4.62-1.63,6.86-2.05s4.6-.64,6.92-.65,4.49,.22,6.72,.57c1.89,.3,4.44,.55,5.33,2.54,.06,.14,.08-.14,.08-.18-.29-1.54-1.73-2.16-3.12-2.53-2.49-.65-5.1-.86-7.66-.87s-5.1,.25-7.6,.75c-1.25,.25-2.49,.57-3.71,.94s-2.52,1.01-3.81,1.33c-.05,.01-.02,.16,.01,.14h0Z"/><path class="cls-3" d="M387.66,385.76c1.39,1.66,1.89,4,1.22,6.07-.02,.06,.03,.34,.08,.2,.73-2.16,.26-4.64-1.29-6.32,0,0-.02,.04,0,.05h0Z"/><path class="cls-3" d="M364.59,392.7c1.84,.75,3.53,2,5.29,2.92,1.64,.86,3.29,1.7,4.94,2.52,3.18,1.59,6.33,3.23,9.58,4.68,6.33,2.82,12.76,5.44,19.27,7.82,13.38,4.91,27.1,8.78,41.06,11.66,4,.82,8.01,1.63,12.07,2.09,4.27,.49,8.72,.02,12.83-1.2,.21-.06,.15-1-.02-.98-3.88,.55-7.58,.14-11.43-.32-3.63-.43-7.21-1.04-10.8-1.72-6.9-1.3-13.76-2.84-20.55-4.62-13.69-3.59-27.18-7.99-40.28-13.36-3.75-1.54-7.55-3.03-11.25-4.69-1.73-.77-3.45-1.56-5.16-2.37-1.81-.85-3.84-1.52-5.53-2.59-.02-.01-.05,.13,0,.14h0Z"/><path class="cls-3" d="M300,360.99c1.6,1.48,2.99,2.92,4.9,4.04,1.77,1.04,3.66,1.84,5.58,2.56,4.74,1.79,9.53,3.44,14.27,5.23s9.85,3.92,14.78,5.89,10.26,4.01,15.22,6.36c2.66,1.26,5.33,2.49,8.03,3.68,1.41,.62,2.82,1.26,4.24,1.87,.57,.24,1.29,.66,1.92,.64,.24,0,.63-.25,.85-.29,.44-.08,.86-.02,1.3,.06,.23,.04,.26-1.29,.02-1.41-1.21-.58-1.89-1.69-3.11-2.24s-2.41-.96-3.61-1.44c-2.36-.96-4.72-1.94-7.13-2.78-4.9-1.71-9.74-3.59-14.61-5.39-9.75-3.6-19.68-6.84-29.59-9.99-2.34-.74-4.68-1.5-6.92-2.52s-4.71-2.39-6.12-4.42c-.02-.03-.05,.1-.01,.13h0Z"/><path class="cls-3" d="M300.26,362.03c.81-2.64,3.23-4.81,5.46-6.29,2.41-1.6,5.11-2.69,7.84-3.61,6.23-2.1,12.68-3.4,19.19-4.23,13.27-1.7,26.69-1.33,40.04-1.51,7.51-.1,15-.39,22.45-1.39,.05,0,.04-.23,0-.23-13.67,1.34-27.41,.99-41.12,1.21-13.54,.22-27.23,1.12-40.14,5.5-2.84,.96-5.65,2.08-8.16,3.74-1.25,.82-2.44,1.78-3.42,2.93s-1.53,2.44-2.18,3.77c-.02,.04,.01,.18,.03,.11h0Z"/><path class="cls-3" d="M390.21,345.01l-.62-.62s-.03,.05-.03,.05c0,.03,0,.07,.02,.09l.62,.62s.03-.05,.03-.05c0-.03,0-.07-.02-.09h0Z"/><path class="cls-3" d="M383.35,344.81c9.39-1.41,18.96-1.9,28.38-3.16s18.86-2.69,28.26-4.2c18.82-3.02,37.59-6.37,56.39-9.51,37.68-6.3,75.66-11.85,113.94-11.94s77.72,3.44,116.19,9.13c38.07,5.63,75.75,13.43,112.97,23.16,18.22,4.76,36.38,9.8,54.71,14.13,18.29,4.31,36.69,7.58,55.34,9.87,4.76,.58,9.52,1.05,14.3,1.41,.61,.05,.69-3.71-.09-3.73-37.56-1.24-74.21-11.23-110.39-20.62-37.12-9.63-74.44-18.12-112.32-24.2s-77.11-10.82-115.89-10.99-76.52,4-114.41,10.28c-37.64,6.24-75.06,13.54-112.9,18.55-4.79,.63-9.65,1.47-14.48,1.68-.04,0-.03,.15,0,.15h0Z"/><path class="cls-3" d="M561.6,315.77c13.7-5.96,23.28-17.73,32.98-28.61,5.06-5.67,10.3-11.15,16.19-15.97s12.69-9.31,19.67-12.93c4.02-2.08,8.11-3.89,12.42-5.29s8.54-2.29,12.87-3.34l-.51-2.41c-1.19,5.85-2.02,11.77-2.41,17.73-.36,5.42-.48,10.92,.46,16.29s2.94,9.95,6.33,13.97c3.79,4.5,8.52,8.24,12.84,12.22,5.1,4.7,10.31,9.31,15.74,13.63,.87,.69,1.17-1.79,1.2-2.16,.08-1.09,.09-2.91-.8-3.73-4.23-3.89-8.6-7.68-13.1-11.25-4.18-3.31-8.44-6.56-12.47-10.06-1.85-1.61-3.64-3.27-5.08-5.27s-2.3-4.15-2.92-6.41c-1.29-4.76-1.28-9.75-1.06-14.64,.28-6.29,1.03-12.54,2.21-18.73,.05-.26,.13-2.58-.51-2.41-7.61,1.97-14.98,5.52-22.02,8.97s-13.94,7.74-20.22,12.64-11.65,10.25-16.84,16.05-9.8,11.41-15.07,16.78c-5.84,5.94-12.31,11.35-19.91,14.88-.01,0,0,.06,0,.06h0Z"/><path class="cls-3" d="M606.02,327.44c1.87,1.72,3.25,4.44,4.36,6.69,1.16,2.36,2.07,4.83,2.79,7.36,1.42,4.99,2.09,10.17,2.42,15.34,.73,11.52-.15,23.13-2.53,34.42-1.34,6.38-3.18,12.64-5.48,18.75-.01,.03,.01,.14,.04,.08,4.21-11.11,6.87-22.78,7.85-34.63,.9-10.88,.81-22.39-2-33.01-.71-2.67-1.62-5.29-2.81-7.79-1.27-2.67-3.01-4.89-4.61-7.34-.02-.04-.06,.1-.02,.13h0Z"/><path class="cls-3" d="M612.38,322.82c1.5,1.77,2.62,4.09,3.72,6.12,1.21,2.23,2.33,4.52,3.34,6.85,1.97,4.53,3.55,9.23,4.75,14.03,2.4,9.64,3.2,19.68,2.36,29.58-.48,5.68-1.53,11.29-3.11,16.76,0,.01,0,.07,.02,.04,5.56-19.03,4.37-39.8-3.04-58.17-1.05-2.61-2.23-5.16-3.53-7.65-1.37-2.63-3.1-5.06-4.47-7.67-.03-.07-.06,.08-.03,.12h0Z"/><path class="cls-3" d="M779.44,342.68c1.34,1.41,2.36,3.34,3.32,5.02s1.91,3.57,2.71,5.43c1.49,3.47,2.63,7.09,3.39,10.79,1.6,7.78,1.54,15.83-.28,23.56,0,.03,.02,.13,.04,.06,1.8-7.57,1.94-15.5,.42-23.14-.77-3.89-1.96-7.71-3.55-11.35-.75-1.73-1.59-3.41-2.52-5.05-1.07-1.89-2.42-3.6-3.51-5.46-.02-.03-.05,.1-.02,.13h0Z"/><path class="cls-3" d="M785.5,345.87c8.64,14.23,11.67,31.59,8.34,47.91-.01,.05,.04,.19,.06,.09,3.41-16.38,.38-33.79-8.39-48.04-.01-.02-.02,.04,0,.05h0Z"/><path class="cls-3" d="M795.08,351.99c.7,3.26,1.6,6.32,2.82,9.43,1.33,3.37,2.67,6.73,3.44,10.29,1.65,7.71,1.08,15.77-1.62,23.18,0,.03,.01,.14,.03,.08,2.5-6.73,3.27-14.09,2.12-21.19-.57-3.54-1.69-6.9-3.02-10.22-1.49-3.7-3.4-7.59-3.72-11.62,0-.11-.07,0-.05,.06h0Z"/><path class="cls-3" d="M801.2,355.04c.07-.2,.37-1.52,.55-1.58,.43-.15,.56,.47,.7,.76,.45,.9,.87,1.82,1.28,2.74,.81,1.85,1.53,3.73,2.17,5.64,1.31,3.94,2.25,7.99,2.81,12.1,1.13,8.23,.77,16.6-1.16,24.69-.01,.05,.03,.19,.06,.09,3.78-15.59,1.74-32.28-5.73-46.48,0-.01-.02,0-.02,0l-.67,2s0,.07,.02,.04h0Z"/></g></svg>