<?xml version="1.0" encoding="UTF-8"?><svg id="Layer_1" xmlns="http://www.w3.org/2000/svg" viewBox="0 0 1500 750"><defs><style>.cls-1{fill:#b6a6a5;}.cls-2{fill:#7b6764;}.cls-3{fill:#5a4b48;}.cls-4{fill:#231f20;}</style></defs><g><g><path class="cls-2" d="M539.25,411.57l.58,.03c-.14-.61-.37-1.2-.73-1.74,.05,.57,.1,1.14,.15,1.71Z"/><path class="cls-2" d="M499.64,334.24l35.82-12-.12-.42c-.29-.97-.58-1.95-1.15-2.78-.79-1.16-2.02-1.92-3.22-2.65-8.41-5.1-16.82-10.21-25.24-15.32-1.62,2.61-.79,5.96-.34,9,1.23,8.36-1.08,17.17-6.21,23.88,.21-.03,.42,.04,.47,.27Z"/><path class="cls-2" d="M499.17,333.96c-.34,.04-.69,.34-.5,.66,.17-.21,.33-.44,.5-.66Z"/><path class="cls-2" d="M1198.12,451.41c-.12-1.34-.24-2.89-.97-4.07-.18-.29-.4-.51-.73-.63-.43-.15-.59,.03-.86,.34-.22,.24-.42,.4-.66,.61-.13,.11-.23,.25-.33,.38-.01-.02-.03-.05-.04-.07-.05-1.61-.24-3.42-.78-4.75,.23-.53,.42-1.08,.55-1.65,.66-2.91,.63-6.12,.2-9.06-.17-1.16-.43-2.26-.85-3.3-.25-1.48-.61-2.93-1.14-4.31-.25-.67-.49-.73-.7,.02-.1,.35-.16,.72-.2,1.1-.32-.38-.64-.77-.94-1.17-.02-.07-.05-.14-.07-.21-.16-.62-.34-1.24-.57-1.82-.32-.82-.78-1.55-1.37-2.19-.05-3.52-.37-7.03-2.03-10.19-1.11-2.13-2.68-4.01-4.47-5.62-1.95-3.04-5.11-5.18-8.56-6.29-.67-.22-1.35-.39-2.04-.54-.19-.83-.38-1.67-.6-2.5-.56-2.1-1.12-4.26-2.34-6.09-.95-1.42-2.81-3.36-4.68-3.27-.47,.02-1.03,.21-1.32,.59-.41-.53-.85-1.03-1.36-1.47-1.1-.95-2.41-1.55-3.81-1.92-1.9-.84-3.98-1.33-6.02-1.6-3.65-.5-7.41-.67-11.09-.43-1.81,.12-3.64,.39-5.41,.75-2,.41-4.29,.97-5.37,2.82-.03,.06-.06,.12-.08,.2-1.75-.02-3.5,0-5.25,.09-5.98,.31-11.9,1.3-17.66,2.93-.11,.03-.19,.15-.25,.31-3,1.33-5.39,3.88-6.47,7.05-.05,.16-.1,.64-.14,1.28-7.15-2.81-50.45-20.04-68.11-31.87-19.29-12.92-126.67-43-142.15-65.33-.19-.27-.41-.53-.63-.79-6.03-24.72-12.5-49.6-24.84-71.81-5.02-9.04-10.96-17.54-17.17-25.8-17.21-22.89-36.61-44.14-57.85-63.35-1.32-1.2-2.96-2.47-4.7-2.06-1.2,.28-2.07,1.31-2.77,2.33-8.23,11.96-5.18,27.98-2.74,42.29,3.63,21.25,5.16,43.28,.06,64.23-3.63,14.91-11,29.25-21.76,40.01-29.51,1.43-58.03,4.32-78.5,7.89-61.44,10.74-143.12,30.22-161.49,36.2-7.92,2.58-19.32,6.78-29.73,10.73-3.8,.2-7.44,1.67-10.95,3.18-4.18,1.11-8.37,2.23-12.55,3.37-1.48,.4-2.98,.79-4.47,1.18-6.61-6.3-27.32-24.58-57.14-37.23-36.53-15.5-100.18-78.78-100.18-78.78,0,0,20.51,39.42,58.33,78.97,37.82,39.55,61.38,73.31,63.06,82.31,1.68,9,4.24,52.79,3.38,62.59-.86,9.81,0,24.78,0,24.78,0,0,28.53-19.93,40.33-84.78,0,0,37.42,2.35,60.82,10.76,8.58,3.08,21.6,5.23,35.36,6.97l-23.48-1.09c.57,2.55-.67,5.5-2.7,7.3-2.52,2.23-5.92,3.13-9.18,3.96,13.12,4.43,28.55,1.14,38.72-8.25,.25-.23,.52-.55,.41-.88-.03-.08-.09-.13-.16-.15,.19-.12,.37-.25,.56-.37,16.43,1.97,33.39,3.46,44.73,5.35,.08,.58,.17,1.23,.5,1.7,.06,.08,.11,.17,.17,.25,.01,.48,.04,.95,.09,1.43l-1.02-.31c.25-.05,.04-.96-.39-.69-.49,.31-.31,1.06-.06,1.59,4.1,8.49,10.93,16.07,11.8,25.46,.75,8.19-3.23,15.98-7.09,23.24,5.41,.86,10.88-1.41,15.38-4.54,4.5-3.12,8.35-7.1,12.78-10.33,8.09-5.91,18.09-9.17,28.11-9.18,5.34,0,11.16,.77,15.61-2.18l-.32-.1c.86-.03,1.71-.07,2.57-.12,2.03-.13,4.06-.32,6.08-.59,.3-.04,.62-.07,.95-.11,8.38,2.5,13.94,4.14,13.94,4.14,13.18,3.5,28.85,6.88,45.56,10.02,2.28,.97,4.79,1.61,7.09,2.31,12.98,3.95,26.14,7.3,39.43,10.04,13.35,2.75,26.97,5.44,40.65,5.53,2.01,.01,4.02-.03,6.04-.1,0,.23,.02,.48,.05,.74l-5.41-.38c7.69,5.78,8.55,16.88,7.89,26.47-.43,6.32-1.24,12.61-2.39,18.84-.66,1.88-1.31,3.75-1.97,5.63-.87,1.72-1.76,3.43-2.64,5.14-2.12,4.12-3.97,8.39-5.43,12.79-1.25,3.78-2.32,7.61-3.46,11.43-.71,1.49-1.45,2.98-2.23,4.45-2.34,4.41-4.79,8.84-6.29,13.63-.95,3.03-1.44,6.18-1.55,9.35-.02,.49-.06,2.06,0,3.8-2.4,8.69-3.1,18-.13,26.46,30.32-13.34,54.75-37.23,75.84-62.77,5.31-6.44,10.48-13.03,14.82-20.16,5.33-8.74,9.44-18.3,15.89-26.25,3.22-3.97,7.02-7.46,11.21-10.38,5.6-1.27,51.6-11.24,91.2-4.86,42.24,6.81,58.87-10.21,58.87-10.21,0,0-.25,22.38-2.95,23.5,0,0,.13-.03,.36-.08-.54,.34-1.05,.73-1.47,1.19-.07-.31-.16-.51-.26-.54-1.08-.29-1.71-.11-2.71,.34-.86,.38-1.61,.94-2.36,1.5-1.6,1.18-3.1,2.49-4.47,3.92-.27,.29-.28,.94-.31,1.27-.03,.35-.04,.7-.05,1.05-.16,.33-.17,.79-.2,1.08-.1,1.01-.1,2.05-.07,3.06,.03,1.02,.07,2.04,.22,3.05,.02,.12,.24,1.35,.38,1.26,7.81-5.18,17.52-5.5,26.5-4.06,5,.81,9.9,2.1,14.81,3.33,2.49,.62,4.99,1.25,7.48,1.87,1.25,.31,2.49,.62,3.74,.94,1.2,.3,2.77,1,3.99,.79,.09-.01,.15-.15,.2-.37,5.29-.59,10.27-2.55,14.53-5.56,.93-.48,1.86-.99,2.78-1.53,.04,.11,.09,.17,.13,.15,4.64-2.34,8.42-6.03,10.97-10.49,.34-.56,.67-1.14,.96-1.73,10.78,12.66,2.33-1.79,2.33-1.79,0,0,.31-.51,.84-1.42,.04,.05,.08,.08,.13,.09,1.92,.41,3.44-1.05,4.69-2.3,1.4-1.41,2.77-2.86,4.01-4.41,.21-.26,.4-.52,.6-.79,.14,.07,.28,.13,.41,.21,.16,.1,.31,.31,.5,.35,.3,.05,.71-.39,.94-.6,1.25-1.19,1.91-3.01,2.63-4.54,.82-1.76,1.59-3.58,2.09-5.46,.34-1.28,.58-2.6,.66-3.93,.03-.42,.04-.84,.06-1.26,.06-.06,.13-.12,.19-.18,1.69-1.67,3.26-3.46,4.62-5.37,2.63-1.9,4.55-4.57,5.24-8.06,.78-1.84,1.27-3.79,1.52-5.77,.29-2.32,.33-4.7,.12-7.03Zm-575.44-26.5c-.08-.53-.17-1.06-.37-1.56,1.22,.94,2.66,1.61,4.01,2.34,.5,.27,1.01,.54,1.51,.8l-5.15-1.58Zm34.89,7.19c.12,.04,.24,.07,.37,.11-.12-.04-.24-.07-.37-.11Zm268.09,47.43c2.36,.88,4.42,1.89,6.24,2.94l-8.31-.58c.7-.78,1.38-1.58,2.07-2.36Zm270.96-25.72c-.05,.17-.09,.35-.14,.52-.05-.22-.08-.45-.14-.66-.02-.21-.06-.41-.09-.62,.13,.25,.25,.51,.36,.76Zm-6.14-1.61c.02-.12,.05-.18,0,0h0Zm-31.02-56.3c.05,.1,.11,.24,.17,.38-.57-.36-1.18-.66-1.78-.9,.1-.53,.17-1.08,.21-1.63,.58,.63,1.02,1.35,1.4,2.15Zm34.09,60.63c.05,.07,.1,.15,.14,.22-.02,.03-.04,.06-.06,.08-.1,.14-.2,.28-.3,.42,.07-.24,.15-.48,.21-.72Zm-31.96-58.84c.02-.22,.03-.4,.02-.36,.03-.37,.02-.74,.04-1.11,.28,.22,.55,.44,.83,.66,.27,.22,.52,.44,.78,.67-.56,.03-1.11,.08-1.67,.13Zm-13.98,99.83v-.09c.31,.02,.63,.04,.94,.06-.31,.01-.63,.02-.94,.03Zm-37.06-100.33c0,.06,0,.12,0,.18,0,.1,.04,.53,.1,1.07-.7-.1-1.38-.2-2.02-.29,.61-.36,1.25-.69,1.91-.96Zm50.24,103.13s0-.07-.01-.11c0-.05-.04-.24-.09-.46,.14,.05,.27,.11,.41,.16-.1,.14-.2,.27-.31,.41Zm-1.68-.13c-.03-.35-.06-.68-.09-.99,.3,.09,.59,.18,.88,.28-.26,.24-.52,.49-.79,.72Zm31.03-47.88c.05,.11,.12,.3,.2,.52-.08,.44-.15,.89-.26,1.32-.18,.71-.41,1.4-.68,2.08-.05,.09-.1,.18-.16,.26-.09,.15-.19,.29-.28,.43,.43-1.54,.82-3.08,1.17-4.61Zm1.73-16.34c.02,.12,.02,.23,.03,.35-.03,.08-.06,.15-.09,.23-.04-.66-.09-1.31-.17-1.94,.03,.04,.07,.09,.1,.13,.04,.41,.07,.83,.12,1.24Zm-53.57,77.57s0,.07,0,.1c-.71,.22-1.42,.43-2.13,.65-.09,.03-.16,.13-.22,.27-.44-.17-.91-.3-1.39-.41,1.25-.2,2.49-.4,3.74-.61Z"/></g><path class="cls-1" d="M1082.71,514.18c.41,.09,.65,.21,1.05,.13s.88-.48,1.23-.71c.71-.46,1.42-.9,2.14-1.33,1.51-.9,3.06-1.73,4.64-2.49,3.1-1.5,6.34-2.77,9.63-3.78,6.65-2.03,13.75-2.92,20.66-3.58,.03,0,.03-.44-.01-.45-3.5-.62-7.04-.89-10.58-.46s-6.96,1.19-10.33,2.22-6.66,2.36-9.81,3.98c-1.51,.78-2.99,1.62-4.44,2.52-.72,.45-1.45,.9-2.14,1.4-1.02,.74-1.44,1.38-2.06,2.46,0,0,0,.1,0,.1h0Z"/><path class="cls-1" d="M1085.34,510.97c2.18-.17,4.38-.93,6.54-1.33,2.28-.43,4.62-.59,6.93-.79,4.72-.41,9.34-1.41,14.01-2.16,9.39-1.51,18.98-1.76,28.43-.7,2.64,.3,5.26,.7,7.87,1.2,1.37,.26,2.72,.56,4.08,.87,.44,.1,1.69,.62,2.12,.41,.17-.08,.42-.62,.52-.79,.54-.9,.62-1.8,1.75-2.04,.1-.02,.09-1.47-.04-1.55-.6-.42-1.04-1-1.4-1.64-.26-.47-.45-1.72-.95-2.19-.39-.37-.98-.45-1.51-.57-1.23-.29-2.46-.56-3.7-.81-2.38-.48-4.79-.87-7.2-1.18-4.75-.6-9.55-.88-14.34-.82s-9.43,.43-14.1,1.12-9.76,1.6-14.02,3.78c-2.57,1.31-5.04,2.78-7.51,4.27s-5.27,2.91-7.5,4.83c0,0,0,.1,0,.1h0Z"/><path class="cls-1" d="M1157.53,510.43c.49-.1,.99-.12,1.49-.16l-.04-1.75c-1.12,.27-2.14,1.05-3.22,1.49-1.19,.49-2.43,.47-3.65,.92-1.35,.49-2.61,1.24-3.95,1.78s-2.77,.98-4.19,1.31c-2.88,.67-5.79,.84-8.74,.7-.71-.03-1.4-.08-2.08,.16-.65,.22-1.23,.45-1.91,.56-.88,.13-2.46,.5-3.18-.15,.11,.1-.08,1.34,.02,1.61,.63,1.68,1.54,3.09,2.97,4.2,1.18,.92,2.51,1.95,4.02,2.15,2.91,.39,6.1-.06,8.93-.75s5.94-1.64,8.16-3.4c1.44-1.15,2.43-2.64,3.59-4.04,1.23-1.49,2.43-3.05,3.29-4.77,.2-.41-.26-1.48-.04-1.75-.48,.61-.94,1.23-1.45,1.81,0,.01,0,.1,0,.1h0Z"/><path class="cls-1" d="M1126.08,510.67c.06,.16,.27,.27,.36,.41,.28,.48,.24,1.18,.46,1.71,.15,.37,.38,.7,.61,1.03,.51,.72,1.1,1.47,1.71,2.11,1.02,1.07,2.43,1.74,3.79,2.25,.65,.24,1.24,.39,1.93,.3s1.32-.38,1.94-.68c1.39-.66,2.69-1.54,3.99-2.36,.16-.1,.07-1.86-.05-1.88-1.34-.29-2.54-.84-3.74-1.49s-2.42-1.47-3.83-1.68c-1.17-.17-2.34-.42-3.49-.71-.58-.14-1.04-.02-1.61,0-.26,0-.51-.06-.76-.05-.68,.03-.84,.46-1.32,1,0,0,0,.03,0,.04h0Z"/><path class="cls-1" d="M1131.33,517.52c-1.08-.64-2.06-1.56-3.02-2.37-1.04-.88-2.13-1.69-3.11-2.63-1.06-1.01-1.92-2.31-3.2-3.08-.84-.51-1.88-.83-2.81-1.12-4.18-1.29-8.49-2.15-12.85-2.56-4.35-.41-8.74-.34-13.08,.19-2.1,.26-4.18,.62-6.24,1.09-1.06,.24-2.3,.42-3.3,.85-.61,.27-.96,.65-1.38,1.18-.56,.71-1.01,2.25-2.04,2.4-.11,.02-.13,1.86,.05,1.96,1.37,.78,1.77,3.14,3.58,3.01,1.06-.08,2.25-.61,3.3-.85,2.06-.47,4.14-.84,6.24-1.09,4.33-.53,8.73-.6,13.08-.25s8.66,1.15,12.84,2.39c.89,.26,1.88,.64,2.8,.73,.51,.05,1.07-.12,1.57-.2,.54-.09,1.01-.35,1.54-.44,.99-.18,2.08,.02,3.05,.15s2.08,.3,2.98,.76c-.01,0,.02-.09,0-.1h0Z"/><path class="cls-1" d="M1182.94,476.88c-.08,.06-.11,.05-.21,.04l-.02,.03c-.3,.75-.56,1.56-1.15,2.14-.22,.21-.47,.3-.69,.55-.29,.33-.53,.7-.77,1.07-1.26,1.9-2.47,3.79-4.01,5.49-3.13,3.45-7.08,6.13-11.46,7.71l.49,3.13-.02-.38c-.05-.84-.08-1.72-.26-2.55-.14-.66-.16-.62-.39-.21-.31,.57-.16,1.63-.17,2.26-.02,1.27,.03,2.53,.11,3.8l.03,.38s.19,2.19,.42,2.11c4.72-1.72,8.87-4.7,12.07-8.58,1.64-1.98,3.09-4.16,3.95-6.6,.58-1.65,.92-3.39,1.27-5.1s.68-3.42,.83-5.19c0-.01,0-.1,0-.1h0Z"/><path class="cls-1" d="M1160.55,462.97c1.76,.96,3.9,1.37,5.78,2.09s3.55,1.44,5.26,2.29c3.57,1.78,6.85,4.03,10.24,6.13,0,0,.07-1.31,.07-1.44,0-.24,.1-1.28-.14-1.43-.92-.6-.91-1.31-.48-2.26,.08-.17-.11-.55-.02-.68-1.02,1.64-.41,4.33,.58,5.81l-.07-2.87c-3.12-2.14-6.66-3.58-10.21-4.86-1.73-.62-3.47-1.21-5.25-1.71s-3.91-1.32-5.76-1.18c0,0,0,.1,0,.1h0Z"/><path class="cls-1" d="M1168.02,430.33c-.61,.1-1.22,.12-1.84,.16-.05,0-.06,.89,.02,.96,2.89,2.09,6.01,3.85,8.93,5.9,1.36,.96,2.77,1.87,4.06,2.92,1.45,1.17,2.74,2.52,4.1,3.79,1.26,1.18,2.54,2.32,3.75,3.55,1.28,1.31,2.39,2.77,3.7,4.06,2.25,2.21,4.53,4.8,5.25,7.96,.37,1.61,.48-1.3,.48-1.54,.05-1.87,.14-3.97-.28-5.81l-.03-.14,.04,3.32c.14-.6,.29-1.19,.44-1.79,.05-.19,.14-1.97-.07-2.01-.26-.04-.4,.05-.67,.11-.35,.07-.25,2.23-.25,2.35-.02,1.39,.04,2.78,.17,4.16l.06,.68,.3-6.69c-.74-3.2-2.51-5.74-4.78-8.06s-4.95-3.85-7.57-5.54c-1.28-.83-2.67-1.45-4.03-2.15-1.49-.76-2.9-1.66-4.39-2.42-2.86-1.47-6.06-3.03-9.24-3.61l.02,.96c.6-.35,1.19-.72,1.82-1.01,.01,0,0-.1,0-.1h0Z"/><path class="cls-1" d="M1194.62,451.3c-.02,.41,0,.07,0-.14,0,.21-.02,.29,0,.03-.04,.35-.09,.7-.14,1.05-.1,.6-.24,1.19-.41,1.77-.37,1.29-.88,2.54-1.51,3.73s-1.37,2.27-2.22,3.28c-.43,.51-.89,1-1.38,1.47-.55,.53-1.15,.95-1.55,1.62l.6,6.75c.15-1.91,.43-3.69,.89-5.55,.08-.33,.06-.7,.04-1.03,0-.09-.08-.65-.12-.58-.32,.57-.18,.52-1.29,.27-.36-.08-.35,3.75-.34,4.05,.03,.95,.06,1.91,.2,2.86,.03,.19,.09,1.16,.34,1.18,.58,.04,1.23-.81,1.62-1.19,.54-.53,1.04-1.1,1.51-1.69,.9-1.14,1.69-2.38,2.33-3.69,1.55-3.13,2.12-6.55,2.24-10.02,.06-1.84,.11-3.82-.29-5.62-.05-.24-.07-.68-.33-.41-.29,.32-.19,1.56-.2,1.9h0Z"/><path class="cls-1" d="M1163.15,419.92c.57,1.21,.4,1.03,1.49,1.48,.49,.21,.98,.42,1.47,.64,1.03,.46,2.08,.83,3.18,1.09,2.17,.53,4.39,.93,6.59,1.32,3.54,.63,7.44,1.29,10.36,3.53,2.4,1.84,3.98,4.39,5.07,7.18,.56,1.43,.99,2.91,1.35,4.4,.22,.9,.41,1.8,.57,2.7,.12,.64,.1,1.5,.48,2.03l-.35-7.45-.12,1.24,.12-.42c-.16,.18-.87,1.33-1.05,.78l.1,1.78c.07-.12,.13-.25,.2-.37,.13-.24-.15-1.76-.06-1.81-.55,.31-.34,1.37-.32,1.89,.08,1.56,.67,2.84,1.39,4.22,.22,.41,.33-1.79,.33-1.85,.04-1.62-.03-3.24-.17-4.85-.33-3.62-1.24-7.47-2.6-10.84-1.22-3.02-3.1-5.96-5.98-7.63-3.83-2.22-8.63-1.8-12.88-1.59-2.51,.12-4.82,.33-7.26,1-.58,.16-2.44,.38-1.91,1.52h0Z"/><path class="cls-1" d="M1144.75,395.07c2.5,1.05,5.26,1.65,7.87,2.33,2.44,.64,4.9,1.17,7.36,1.75,4,.95,8.15,1.94,11.87,3.72,.98,.47,1.91,1.07,2.8,1.69,.45,.31,.9,.64,1.33,.98,.86,.67,1.07,.88,1.54,2.04,.35,.87,.34,.91,.99,1.49,.3,.27,.59,.54,.88,.83,.78,.78,1.49,1.62,2.14,2.5,2.69,3.64,4.33,7.91,5.94,12.1l-.11-8.39c-.31-.23-.76-.16-1.18-.04l-.07-.17c0,1.53,.04,1.85,.16,.95,.08-.49,.04-1.04,0-1.53,0-.13-.13-.78-.15-.71-.34,1.29-.25,2.71-.14,4.03,.07,.87,.22,1.72,.43,2.57,.28,1.18,.45,2.46,1.15,3.46,.06,.09,.25-1.5,.24-1.26,.06-.82,.05-1.64,.04-2.46-.02-1.44,.15-3.32-.39-4.68-1.56-3.99-3.17-8.06-5.66-11.58-.62-.88-1.3-1.72-2.05-2.51-.28-.3-.57-.58-.87-.86-.24-.22-.86-.97-1.18-1.02-.34,.84-.74,1.05-1.2,.63-.21-.12-.42-.23-.64-.34-.43-.22-.87-.43-1.32-.62-.91-.39-1.86-.69-2.79-1.03-3.85-1.39-7.79-2.14-11.85-2.66-2.44-.31-4.88-.61-7.33-.83s-5.26-.61-7.83-.42c0,0,0,.04,0,.04h0Z"/><path class="cls-1" d="M1119.25,387.35c2.29,.46,4.45,.79,6.79,.67s4.67-.46,7.01-.68c4.73-.45,9.52-.85,14.27-.85,2.28,0,4.79,.57,6.88,1.49,1.13,.49,2.34,.81,3.46,1.33,.91,.43,1.69,1.07,2.56,1.57,1.69,.99,3.39,1.78,4.89,3.08s2.63,2.86,3.61,4.58c.2,.35,.22-.29,.25-.41,.14-.75,.1-1.66,.09-2.41,0-1.56,.13-3.43-.35-4.94,.39,4.16,.53,5.27,.4,3.32-.03-.49-.08-.99-.12-1.48-.09-.79-.16-1.57-.43-2.32-.34-.95-.92-1.81-1.55-2.6-1.25-1.58-2.84-2.87-4.58-3.87-.86-.49-1.76-1.01-2.76-1.14s-1.94-.11-2.91-.19c-2.51-.22-4.91,.38-7.38,.77s-5.08,.55-7.6,.91-5.21,.84-7.79,1.39-4.98,1.2-7.5,1.68c-2.32,.43-4.96,.8-7.24-.01,0,0-.01,.1,0,.1h0Z"/><path class="cls-1" d="M944.14,487.57c.47,.95,.9,1.86,1.29,2.85l.12,.14c9.12-3.32,18.81-5.26,28.51-5.62s20.01,1.14,29.88,2.84,19.82,3.36,29.89,4.02,19.9,.62,29.79-.31c4.88-.46,9.76-1.22,14.47-2.61,2.32-.68,4.6-1.52,6.8-2.54,1.11-.52,2.27-1.06,3.3-1.73,1.6-1.05,2.09-2.57,2.78-4.29,.23-.57,.1-1.46,.08-2.04-.01-.37,.09-1.34-.22-1.61-.35-.31-.93-1.08-1.43-1.11-.38-.02-1.09,.35-1.42,.51-1.05,.53-2.05,1.14-3.11,1.64-2,.95-4.07,1.74-6.19,2.39-4.35,1.35-8.86,2.15-13.38,2.66-10.16,1.14-20.5,1.19-30.7,.58-10.56-.64-20.93-2.37-31.34-4.16-10.26-1.76-20.6-3.25-31.03-2.67-5.59,.31-11.18,1.12-16.61,2.49-2.8,.7-5.57,1.58-8.28,2.56-.59,.21-1.48,.37-1.98,.74-.34,.26-.72,2.4-.48,1.57-.23,.77-.67,1.69-.77,2.46-.04,.34-.12,.91,.04,1.23h0Z"/><path class="cls-1" d="M1085.32,478.92c-1.14,.08-2.26-.17-3.4-.24-1.2-.07-2.41-.02-3.61-.09-.55-.03-1.17,0-1.71-.11-.61-.12-1.14-.5-1.72-.73-1.14-.45-2.42-.76-3.65-.8-4.71-.14-9.43,.12-14.15,.04-9.54-.16-19.06-1.05-28.54-2.11-18.83-2.1-37.73-4.99-56.73-4.17-10.42,.45-20.78,2.11-30.65,5.55l.33,8.39c.6-1.39,.54-2.95,1.09-4.36,.35-.88,.78-1.74,1.19-2.6,.23-.49,.1-1.29,.07-1.81,0-.15-.13-1.17-.23-1.02-.22,.31-.47,.76-.74,1.03l-.25,.32c-.67-.5-1.16-.48-1.46,.06-.27,.32-.27,.88-.31,1.26-.09,1-.1,2.03-.07,3.02,0,.31,.28,4.37,.59,4.26,17.79-6.21,36.79-6.42,55.38-4.9,19.05,1.56,37.96,4.81,57.09,5.46,5.18,.18,10.51,.35,15.66-.34,1.4-.19,2.73-.39,4.04-.97s2.4-1.63,3.79-2.07c1.26-.4,2.55-.76,3.8-1.19,1.44-.49,2.75-1.31,4.2-1.78,.01,0,0-.1,0-.1h0Z"/><path class="cls-1" d="M464.12,392.36c1.09,.6,2.66,.2,3.87,.12,1.29-.08,2.58-.11,3.88-.15,2.59-.06,5.18-.24,7.77-.26,5.16-.03,10.42,.73,15.46,1.78,1.19,.25,2.54,.49,3.65,1,.61,.28,1.16,.69,1.77,.97s1.17,.58,1.76,.89c2.16,1.14,4.66,1.74,6.98,2.44s4.63,1.52,6.99,1.9c.52,.08,1.24,.19,1.76,.06,.56-.14,1.19-.54,1.75-.74,.7-.25,1.12-.64,1.76-1,.51-.29,1.22-.4,1.78-.57,.12-.03,.09-1.99-.05-2.04-.6-.23-1.28-.46-1.82-.82-.66-.45-1.08-1.06-1.82-1.43-.7-.35-1.16-.91-1.8-1.32-.49-.31-1.21-.49-1.77-.64-2.32-.63-4.67-1.12-6.99-1.79s-4.61-1.58-6.96-1.65c-.58-.02-1.16,0-1.74-.04s-1.15,.11-1.75,.11c-1.19,0-2.46-.3-3.64-.43-5.17-.57-10.26,.04-15.4,.59-2.6,.28-5.18,.58-7.75,1.08-1.29,.25-2.57,.52-3.86,.77s-2.83,.27-3.84,1.11v.04h0Z"/><path class="cls-1" d="M468.87,390.7c2.67-.56,5.71-.14,8.4,.09s5.27,.58,7.9,1.01c5.46,.88,10.82,2.26,16.09,3.93s10.62,4.46,15.99,6.59,10.47,3.7,15.71,5.4c10.95,3.55,22.04,6.24,33.44,7.87s23.67,2.52,35.53,3.39l20.31,1.49,10.4,.77c.84,.06,1.64,.12,2.47,.03,.96-.1,1.58-.52,2.45-.88,1.75-.73,3.54-.86,5.41-1.07,.08,0,.13-3.14-.08-3.19-1.53-.39-3.09-.67-4.48-1.41-.77-.41-1.48-.89-2.26-1.27-.84-.42-1.8-.59-2.74-.68-2.96-.32-5.95-.44-8.91-.65l-18.32-1.34c-11.83-.87-23.68-1.62-35.46-3.1-11.5-1.44-22.8-3.73-33.88-7.16-5.33-1.65-10.62-3.43-15.92-5.16s-10.49-2.67-15.89-3.47c-2.96-.44-5.88-1.14-8.85-1.58s-5.91-.8-8.89-1-6.12-.18-9.17,.04c-1.47,.11-2.94,.29-4.39,.51-1.61,.24-3.23,.68-4.86,.75,0,0,0,.11,0,.1h0Z"/><path class="cls-1" d="M501.67,391.37c8.09,1.52,16.14,3.31,24.16,5.22s16.14,3.94,24.06,6.5c7.87,2.54,15.49,5.8,23.3,8.5,7.75,2.68,15.52,5.03,23.62,6.4s16.17,2.18,24.24,3.34c7.84,1.13,15.56,2.76,23.18,4.93,14.77,4.2,29.01,10.01,43.43,15.24,7.21,2.62,14.48,5.09,21.88,7.15,3.88,1.08,7.79,2.06,11.75,2.78,2,.36,3.89,.62,5.92,.45s4.16-.5,6.15-1.09,3.96-1.3,5.89-2.08c.1-.04-.03-1.84-.05-1.84-4.14-.49-8.19-1.67-12.19-2.77s-7.9-1.52-11.81-2.46c-7.58-1.82-15.03-4.2-22.38-6.76-14.49-5.06-28.7-10.94-43.36-15.51-7.35-2.29-14.82-4.23-22.41-5.56-8.11-1.42-16.31-2.25-24.47-3.3-15.89-2.05-31.36-6.03-46.99-9.45-7.89-1.73-15.75-3.63-23.66-5.3-8.02-1.69-16.14-2.88-24.28-3.8-2-.23-3.99-.43-5.99-.63,0,0,0,.04,0,.04h0Z"/><path class="cls-1" d="M639.46,417.81c13.8,6.58,28,12.18,42.3,17.54,7.2,2.7,14.52,5.35,21.94,7.38s14.69,3.87,21.92,6.16c14.37,4.54,28.26,10.48,42.68,14.85s29.11,6.84,43.97,8.46c8.36,.91,16.74,1.55,25.13,2.09,4.11,.27,8.23,.51,12.34,.75,1.55,.09,3.42,.38,4.95-.01,1.15-.29,1.73-1.54,2.41-2.42,.26-.34,.67-.63,.94-.99,.42-.56,.78-1.15,1.12-1.75,.1-.19-.08-2.08-.05-2.09-.6,.04-1.21,.02-1.8-.13l-.33,.05c-.18-.24-.41-.41-.69-.5-.3-.19-.74-.5-1.07-.61-.6-.21-1.2-.04-1.84,0-.87,.05-1.75,.03-2.63-.01-3.73-.17-7.45-.43-11.18-.66-7.44-.46-14.88-.99-22.3-1.7-14.79-1.41-29.55-3.57-43.91-7.45-14.55-3.93-28.42-9.88-42.7-14.63-7.19-2.39-14.57-4.36-21.99-5.92s-14.64-2.57-21.97-3.85c-3.95-.69-7.95-1.37-11.84-2.38s-8.12-2.23-12.14-3.48c-7.94-2.47-15.65-5.39-23.27-8.72,0,0,0,.04,0,.04h0Z"/><path class="cls-1" d="M822.63,472.18l-1.39-.71s-.02,.1,0,.1l1.39,.71s.02-.1,0-.1h0Z"/><path class="cls-1" d="M472.46,389.97c.66-.63,.01-1.94-.96-1.68-.54,.15-.66,.73-.67,1.2,0,.85,.46,1.6,1.23,1.97,1.34,.65,3.17,.26,4.58,.22,1.94-.06,3.89-.04,5.83-.05,3.89,0,7.78,.17,11.66,.5,7.63,.65,15.21,1.64,22.75,3.01s15.41,3.8,23.07,5.9c15.21,4.17,30.5,8.12,45.92,11.44l46.37,9.99c4.23,.91,8.46,1.83,12.69,2.73s8.56,1.95,12.92,2.45c3.92,.45,7.9,.61,11.79,1.3,1.05,.18,2.08,.42,3.13,.59,.88,.15,1.77,.11,2.65,.25,2.05,.31,4.11,1.01,6.09,1.62-.12-.04,.16-1.36-.04-1.47-1.58-.85-3.17-1.67-4.8-2.43s-3.2-1.76-4.9-2.45-3.32-1.23-4.97-1.88-3.31-1.48-5.03-2.07c-3.45-1.18-6.91-2.28-10.48-3.04s-7.16-1.53-10.74-2.3l-43.19-9.19c-7.15-1.52-14.3-3.04-21.47-4.46-7.13-1.41-14.28-2.64-21.46-3.84s-14.18-2.39-21.31-3.31-14.1-2.15-21.15-3.19c-7.87-1.17-15.77-1.95-23.73-1.88-4.07,.04-8.1,.29-12.13,.83-1.37,.19-3.46,.87-4.67-.13-.65-.54-.83-2.08,.24-2.16,.59-.04,1.58,1.04,.75,1.41-.02,0,.01,.09,0,.1h0Z"/><path class="cls-1" d="M470.37,381.34c2.21,2.8,5.53,4.15,8.87,5.12,4.19,1.22,8.46,2.2,12.71,3.16,8.69,1.97,17.47,3.56,26.28,4.85,17.96,2.61,36.08,3.81,54.13,5.5s34.53,3.96,51.57,7.57c16.57,3.5,32.94,7.99,48.96,13.48s31.64,11.8,46.92,18.86c1.89,.88,3.78,1.77,5.66,2.67-.05-.03,.05-.38-.01-.41-15.07-7.96-30.58-14.89-46.64-20.59s-32.23-10.35-48.75-13.96c-16.83-3.67-33.85-6.19-50.99-7.84-18.05-1.74-36.16-2.74-54.17-4.93-8.86-1.08-17.68-2.47-26.44-4.21-4.44-.88-8.87-1.84-13.28-2.87-3.65-.86-7.52-1.56-10.88-3.29-1.53-.79-2.87-1.82-3.95-3.16,0,0,0,.03,0,.04h0Z"/><path class="cls-1" d="M559.28,405.65c.88-3.98,7.5-1.71,9.93-1.17,4.96,1.09,9.92,2.2,14.87,3.33,10,2.28,19.99,4.61,29.95,7.06,19.94,4.91,39.8,10.1,59.6,15.56,9.92,2.74,19.85,5.5,29.64,8.67,9.72,3.15,19.41,6.39,29.12,9.56,19.2,6.27,38.66,11.83,58.52,15.6,9.77,1.85,19.65,3.35,29.56,4.18,9.85,.82,19.98-.54,29.68-2.21,2.46-.42,4.92-.83,7.37-1.29,.06-.01-.03-1.31-.03-1.31-10.05-.17-19.93-1.49-29.87-2.9-4.97-.7-9.99-.97-14.97-1.53s-9.96-1.25-14.92-2.05c-19.86-3.22-39.31-8.26-58.85-12.92s-39.07-9.38-58.52-14.4c-19.86-5.13-39.79-9.94-59.8-14.46-9.96-2.25-19.93-4.46-29.92-6.59-5.04-1.08-10.09-2.14-15.14-3.18-2.48-.51-4.96-1.02-7.44-1.52-1.92-.39-3.9-.95-5.88-.67-1.36,.19-2.49,.79-2.91,2.16,0,.03,0,.08,0,.1h0Z"/><path class="cls-1" d="M558.99,401.32c21.08,2.86,42.07,6.54,62.89,10.95,10.32,2.19,20.6,4.82,30.74,7.72,10,2.85,19.68,6.29,29.33,10.15,9.57,3.83,18.89,8.22,28.35,12.32s19.12,7.67,29.1,10.39,20.01,4.75,30.11,6.63,20.75,3.8,31.15,5.56,20.98,3.36,31.54,4.52c2.53,.28,5.07,.59,7.61,.74s5.26-.02,7.9-.21c5.28-.38,10.57-.86,15.82-1.53,2.63-.34,5.29-.49,7.93-.76,.04,0,0-1.43-.04-1.43-5.37-.24-10.63-.81-15.93-1.71s-10.56-2.24-15.9-2.88c-10.45-1.24-20.87-2.34-31.27-3.98-10.48-1.65-20.92-3.54-31.36-5.43s-20.24-3.68-30.24-6.08c-10.07-2.41-19.9-5.48-29.53-9.26s-18.76-8.03-28.28-11.73c-18.96-7.38-39.27-10.89-59.26-14.26-20.85-3.51-41.7-6.71-62.73-8.95-2.64-.28-5.29-.55-7.93-.81v.04h0Z"/><path class="cls-1" d="M678.64,441.09c18.67,4.32,37.43,8.22,56.27,11.68,18.84,3.46,37.76,6.5,56.74,9.1s37.82,4.74,56.8,6.46c19.07,1.73,38.18,3.02,57.31,3.87s38.26,1.28,57.42,.85c2.37-.05,4.74-.12,7.11-.18,0,0,0-.37,0-.37-19.14-.2-38.31-.57-57.44-1.23-19.13-.66-38.25-1.76-57.33-3.3-18.98-1.53-37.93-3.49-56.83-5.86-18.99-2.39-37.92-5.21-56.78-8.46s-37.64-6.94-56.33-11.05c-2.31-.51-4.62-1.03-6.93-1.55,0,0,0,.04,0,.04h0Z"/><path class="cls-1" d="M957.69,476.58c.98,.18-.06,1.26-.52,1.52-.96,.53-2.34,.24-3.38,.22-2.55-.06-5.1-.12-7.65-.2-5.18-.16-10.36-.29-15.54-.49-10.27-.4-20.54-.98-30.8-1.73-20.59-1.51-41.14-3.69-61.58-6.58-5.2-.73-10.53-1.26-15.64-2.48-3.83-.92-7.76-2.58-9.59-6.3l.03,1.06c21.27,5.01,43.16,7.05,64.81,9.75,22.21,2.77,44.42,5.47,66.61,8.34l18.57,2.4c3.06,.4,6.11,.85,9.18,1.14,1.41,.13,2.82,.22,4.24,.22,.88,0,1.53-.05,2.33-.45s1.54-.83,2.29-1.29c.11-.07,0-1.75-.04-1.76-1.23-.25-2.5-.8-3.75-.79-1.41,0-2.81,.08-4.23,0-2.72-.13-5.43-.45-8.14-.73l-16.33-1.64c-11.06-1.11-22.11-2.28-33.17-3.43-22.09-2.31-44.22-4.39-66.28-6.97-12.12-1.42-24.24-3.08-36.13-5.85,.05,.01-.03,.95,.03,1.06,1.69,3.43,5.19,5.12,8.74,6.06,4.56,1.22,9.38,1.65,14.04,2.32,10.66,1.51,21.36,2.83,32.07,3.96,21.5,2.26,43.1,3.66,64.71,4.3,6.08,.18,12.16,.29,18.25,.28,1.48,0,2.96,0,4.44-.01,1.02,0,1.98-.02,2.63-.94,.3-.42,.46-.91-.21-1.02v.04h0Z"/><path class="cls-1" d="M966.24,480.84c-3.4-1.25-6.95-1.34-10.53-1.53-3.8-.2-7.6-.42-11.4-.58l-22.79-.92s0,.24,0,.25l22.79,1.25c3.8,.21,7.6,.35,11.39,.51,3.51,.14,7.09,.23,10.52,1.07,0,0,0-.04,0-.04h0Z"/><path class="cls-1" d="M616.64,471.28c1.37-.39,2.77-.57,4.14-1.01s2.6-.92,3.88-1.42c2.42-.95,4.7-2.55,6.95-3.86s4.65-1.84,6.8-3.22c2.51-1.61,5.11-2.96,7.74-4.34,5.41-2.84,11.23-4.88,17.22-6.06,3.04-.6,6.12-.94,9.2-1.17,2.62-.2,5.24-.12,7.86-.24s5.56-.38,8.17-1.3c.6-.21,1.26-.43,1.79-.77,.64-.4,1.07-1.1,1.48-1.73,1.02-1.55,1.85-3.42,2.57-5.13,.11-.25-.14-2.01-.07-2.05-.35,.19-.8,.55-1.17,.59-.4,.04-.85-.25-1.24-.31-.41-.06-1.1-.15-1.5-.07-.53,.11-1.11,.55-1.62,.75-2.3,.9-4.76,1.28-7.2,1.49-5.47,.46-10.93,.13-16.37,1.06-6.11,1.04-12.06,2.98-17.61,5.74-2.76,1.37-5.37,3.06-7.81,4.94-1.12,.86-2.26,1.71-3.24,2.72-1.24,1.28-2.28,2.72-3.5,4.01-2.37,2.54-5.05,4.61-7.83,6.66-2.55,1.87-5.47,4-8.66,4.61-.01,0,0,.1,0,.1h0Z"/><path class="cls-1" d="M531.62,424.12c3.57,.31,6.96,.34,10.52-.18,3.37-.49,6.56-1.68,9.87-2.44,1.54-.35,3.06-.82,4.6-1.16,1.64-.36,3.12-1.2,4.54-2.07s2.89-1.99,4.25-3.09c.66-.53,1.24-1.03,1.62-1.8,.48-.98,.62-2.09,1.08-3.09,.32-.69,.74-1.35,1.15-1.99,.14-.22-.1-1.73-.04-1.76-.31,.13-.7,.31-1.04,.28-.67-.06-.86-1.05-1.57-1.02-.65,.02-1.54,1.1-2.04,1.5-1.28,1.04-2.63,2-3.95,2.99-3.04,2.26-5.89,4.79-9.09,6.83-2.96,1.89-6.35,2.97-9.65,4.08-3.32,1.12-6.82,2.15-10.26,2.81,0,0,0,.1,0,.1h0Z"/><path class="cls-1" d="M946.9,487.17c-1.99,.53-3.92,1.1-5.93,1.53-.51,.11-.87,.11-1.29,.4s-.85,.79-1.23,1.16c-.94,.92-1.85,1.87-2.72,2.84-3.15,3.52-5.8,7.51-8.21,11.56-5.09,8.54-9.15,17.65-13.86,26.39-2.31,4.29-4.8,8.5-7.67,12.44-3.61,4.97-7.87,9.44-12.41,13.56-9.49,8.6-19.99,16.19-30.32,23.74-5.95,4.35-11.95,8.62-18.01,12.81-3.03,2.09-6.08,4.16-9.14,6.21-1.6,1.07-3.2,2.13-4.8,3.19-.82,.54-1.62,1.08-2.41,1.67-1.12,.84-1.48,2.46-2.01,3.7-.24,.56-.12,1.46-.1,2.04,.02,.38-.08,1.33,.24,1.61,.36,.31,.83,.89,1.25,1.09,.55,.26,.38,.06,.82-.08,.71-.22,1.39-.82,2.01-1.23,1.47-.97,2.94-1.95,4.4-2.92,2.8-1.87,5.58-3.76,8.35-5.66,5.41-3.72,10.78-7.51,16.1-11.36,10.47-7.58,20.99-15.25,30.8-23.66,4.61-3.95,9.01-8.17,12.89-12.85,3.26-3.95,6.08-8.24,8.63-12.68,4.98-8.63,8.94-17.79,13.78-26.49,2.6-4.67,5.44-9.24,8.84-13.38,.88-1.07,1.77-2.13,2.7-3.15,.84-.92,1.88-1.75,2.66-2.72,.57-.71,.95-1.64,1.48-2.39s1.05-1.44,1.56-2.18c1.04-1.52,2.32-2.83,3.62-4.13,.11-.11,0-1.07-.03-1.06h0Z"/><path class="cls-1" d="M337.76,273.21c6.33,7.7,13.47,14.74,20.98,21.28,7.69,6.71,15.57,13.2,23.49,19.62,4.08,3.31,7.9,6.85,12.24,9.83,4.07,2.78,8.14,5.56,12.19,8.38,8.1,5.64,16.11,11.43,23.72,17.72,8.45,6.99,16.37,14.55,23.29,23.07,.86,1.06,1.33-2.78,1.34-3.02,.06-1.58,.15-3.92-.93-5.24l1.01,3.85c-.06-.43-.12-.85-.18-1.28-.07-.5-.14-1-.3-1.49-.25-.8-.74-1.34-1.26-1.98-.81-.98-1.64-1.96-2.49-2.92-1.6-1.82-3.25-3.6-4.94-5.34-3.46-3.55-7.06-6.96-10.79-10.22-7.53-6.58-15.58-12.55-23.75-18.3s-16.12-11.53-24.83-16.11-16.85-9.57-24.48-15.4c-8.8-6.73-17.05-14.13-24.3-22.52,0,0,0,.03,0,.04h0Z"/><path class="cls-1" d="M466.75,388.84c1.3-.13,2.63-.01,3.94-.05s2.63-.08,3.94-.11c2.63-.06,5.26-.21,7.89-.3,5.26-.18,10.54-.31,15.8-.34,10.63-.07,21.25,.36,31.84,1.15,10.44,.78,20.85,2.03,31.22,3.48s20.68,3.21,31.05,4.54c11.72,1.51,23.46,2.82,35.26,3.56,0,0,.02-.49-.01-.49-10.43-1.16-20.81-2.75-31.17-4.43s-20.85-3.3-31.3-4.81c-20.82-3-41.68-5.08-62.74-4.97-5.93,.03-11.86,.19-17.77,.58-2.96,.2-5.93,.36-8.87,.72-1.48,.18-2.95,.38-4.43,.59-1.56,.22-3.11,.63-4.67,.78,0,0,0,.1,0,.1h0Z"/><path class="cls-1" d="M484.32,388.7c7.66,.11,15.42,.91,23.06,1.53s15.34,1.23,23,2.07c15.51,1.71,30.9,3.79,46.15,7.19,15.18,3.38,30.08,7.67,45.07,11.77,14.98,4.09,29.8,8.72,44.55,13.57,29.35,9.65,58.54,19.99,88.81,26.47,30.88,6.62,62.44,10.13,93.85,13.08,15.78,1.48,31.58,2.68,47.4,3.61,7.94,.47,15.77,.68,23.72,.41,7.91-.27,15.81-.77,23.71-1.05,4.03-.15,8.07-.33,12.1-.53,.04,0,.03-1.83-.05-1.84-7.94-.63-15.88-1.31-23.8-2.15s-15.84-2.07-23.79-2.71c-15.95-1.29-31.95-1.88-47.89-3.24-31.49-2.67-63.1-5.98-94.17-11.82s-59.94-15.37-89.36-25.16c-14.56-4.84-29.13-9.78-43.93-13.82s-29.94-7.05-45.22-9.36-30.32-4.17-45.51-5.76c-15.27-1.6-30.6-2.49-45.95-2.54-3.91-.01-7.83,.22-11.74,.18,0,0,0,.1,0,.1h0Z"/><path class="cls-1" d="M852.56,462.16c23.78,3.04,47.64,5.43,71.52,7.44s47.8,3.58,71.74,4.75c13.51,.66,27.09,1.51,40.62,1.16,0,0,0-.33,0-.33-12.03-.9-24.12-1.01-36.18-1.49s-23.77-1.04-35.64-1.75c-23.91-1.42-47.8-3.29-71.65-5.59-13.48-1.3-26.95-2.74-40.41-4.23v.04h0Z"/><path class="cls-1" d="M936.16,466.57l-8.01-1.16v.26c21.37,.52,42.73,1.23,64.07,2.27,21.34,1.04,42.66,2.49,63.94,4.34,6.02,.52,12.04,1.08,18.06,1.67,2.97,.29,5.93,.59,8.9,.89s6.07,.76,9.13,.62c0,0,.01-.36,0-.37-2.6-.68-5.24-.91-7.91-1.19s-5.44-.56-8.16-.82c-5.27-.52-10.55-1.02-15.83-1.49-10.64-.95-21.29-1.8-31.94-2.54-21.31-1.49-42.65-2.6-64-3.17-12.08-.33-24.16-.52-36.25-.48,0,0-.01,.26,0,.26l8.01,.94v-.04h0Z"/><path class="cls-1" d="M1079.18,479.62c-2.55-.53-5.03-1.49-7.58-2.08s-4.95-1.07-7.44-1.49c-5.07-.87-10.18-1.44-15.31-1.83-10.36-.78-20.76-.99-31.14-1.24-21.55-.52-43.09-.91-64.64-1.3-5.99-.11-11.98-.19-17.97-.22-6.11-.03-12.36,0-18.44,.67,0,0,0,.61,.02,.61,5.37,.76,10.84,.94,16.24,1.21,5.4,.27,10.82,.35,16.23,.44l32.19,.53c10.73,.18,21.46,.32,32.19,.43s21.05,.02,31.57,.33c5.67,.16,11.34,.47,16.98,1.07,2.88,.3,5.76,.69,8.61,1.19s5.82,.84,8.49,1.79c0,0,0-.1,0-.1h0Z"/><path class="cls-1" d="M470.52,391.14c-.39-.27-.7-.64-1.11-.9-.34-.22-.71-.41-1.08-.57-.79-.34-1.65-.49-2.51-.52-1.7-.05-3.41,.48-4.72,1.59-2.2,1.85-3.16,5.08-2.37,7.84-.01-.04,.02-.16,0-.22-.71-3.15,.94-6.6,3.87-8,1.26-.6,2.7-.8,4.08-.63,.67,.08,1.34,.25,1.97,.48s1.41,.55,1.87,1.03c-.01-.01,.02-.09,0-.1h0Z"/><path class="cls-1" d="M450.85,376.74c.05-1.45,.18-1.13,.37,.97v-5.68c-.34,2.75-.28,5.62,.05,8.37,.18,1.49,.54,2.95,1.25,4.28,1.51,2.8,4.15,4.65,6.99,5.94,3.2,1.45,6.59,2.51,9.89,3.7,1.84,.67,3.31,.41,5.21,.28,1.78-.13,3.45-.28,4.92-1.4,.18-.14,.01-1.76-.04-1.76-3.2,.29-5.61-2.95-8.01-4.56-1.31-.88-2.87-1.3-4.34-1.83s-2.84-1.01-4.25-1.52c-2.45-.89-4.95-1.83-7.08-3.36-1.01-.73-1.94-1.58-2.65-2.6-.36-.51-.68-1.06-.94-1.64-.1-.23-.2-.46-.28-.69-.69-1.96,.58-1.56-.11,3.97,.25-2,.18-4.11-.03-6.1-.04-.35,.01-1.33-.31-1.56-.28-.2-.31,1.07-.32,1.15-.09,1.08-.47,2.77-.32,4.09,0,.02,0-.02,0-.02h0Z"/><path class="cls-1" d="M849.13,466.57c1.03,.28,1.92,.68,2.98,.82,.99,.12,1.98,.26,2.97,.36,1.97,.2,3.96,.32,5.93,.47,4.04,.32,8.07,.65,12.11,.97l11.86,.96c1.98,.16,3.96,.39,5.94,.61,2.14,.23,4.11,.6,6.2,1.15l-.11-4.46c-1.14-.29-1.9-1.16-2.99-1.51-1.01-.32-2.17-.39-3.22-.5-1.98-.21-3.95-.33-5.93-.41-4.04-.17-8.07-.26-12.11-.25-8.07,.02-16.15,.27-24.21,.76-.48,.03-.15,7.61,.13,8.33,.92,2.35,4.83,1.51,6.76,1.48,3.27-.05,6.55-.07,9.82-.06,6.71,.02,13.42,.17,20.13,.45,13.25,.55,26.48,1.59,39.65,3.14,3.74,.44,7.48,.92,11.21,1.44,1.78,.25,3.57,.51,5.35,.77,.83,.12,1.81,.42,2.65,.36,.96-.07,1.04-.95,1.09-1.77,.08-1.23,0-2.49-.04-3.72,0-.32-.31-2.84-.14-2.94-.29,.09-.51,.27-.65,.53-.26,.33,0,1.79,.02,2.21,0,.36-.2,1.96,.09,2.21,.59,.51,.55,.89,.62,1.83l-.13-6.79c-.53-.2-.86-.09-1.43-.12-.76-.05-1.54-.23-2.29-.34-1.62-.24-3.24-.47-4.86-.7-3.24-.45-6.49-.87-9.74-1.26-6.5-.78-13.02-1.44-19.54-1.98-13.05-1.08-26.15-1.67-39.24-1.78-3.6-.03-7.2-.02-10.8,.02-1.8,.02-3.6,.09-5.4,.1-1.09,0-2.7-.05-3.17-1.25l.13,8.33c8.06-.49,16.13-.76,24.21-.78,3.95,0,7.91,0,11.86,.06,1.98,.02,3.95,.05,5.92,0,1.05-.02,2.16,.01,3.2-.18,1.15-.21,1.99-1.05,3.17-1.22,.34-.05-.09-4.46-.11-4.46-2.01,.27-3.89,.39-5.91,.34s-3.95-.07-5.92-.17c-4.03-.21-8.07-.42-12.1-.62s-7.9-.41-11.86-.61c-1.98-.1-3.95-.23-5.93-.31-.99-.04-1.97-.03-2.96-.04-1.15,0-2.07,.26-3.2,.42,0,0,0,.1,0,.1h0Z"/><path class="cls-1" d="M920.13,470.43c-2.88-.4-5.66-1.38-8.58-1.7s-5.62-.04-8.48,.61c-.03,0,0,.44,.01,.44,8.84,1.05,17.76,1.32,26.64,1.84s17.76,1.27,26.63,2.1c17.66,1.64,35.28,3.51,52.95,4.99,2.48,.21,4.96,.46,7.45,.55,1.24,.05,2.48,.12,3.72,.13s2.48-.21,3.71-.34c5.02-.55,10.02-.99,15.07-1.24-.01,0,.04-1.66-.04-1.68-4.51-.98-8.96-2.14-13.45-3.22-2.16-.52-4.26-1.23-6.48-1.48s-4.46-.5-6.7-.63c-8.85-.52-17.69-.92-26.55-1.19-17.62-.54-35.26-.13-52.88-.42-10.01-.16-20.07-.54-30.07,.14v.44c2.64-1.07,5.7-1.11,8.49-.87s5.9,.68,8.57,1.61c0,0,0-.1,0-.1h0Z"/><path class="cls-1" d="M1124.19,507.06c.43-.37,.88-.7,1.34-1.02,.57-.39,.71-.28,1.36-.27,.11,0,.03-1.76-.04-1.75-.68,.1-1.28-.15-1.95-.15-.7,0-1.46,.24-2.16,.36-1.41,.24-2.72,.64-4.09,1.06-.53,.16-.25,3.67-.24,4.14,0,.3,.23,4.18,.44,4.12,4.46-1.25,8.86-2.8,13.26-4.23,.56-.18,.26-3.78,.25-4.28,0-.31-.21-4.32-.46-4.26-3.9,.93-7.67,2.26-11.28,3.99-.21,.1-.22,1.23-.22,1.26-.06,1-.06,2.02-.03,3.02,0,.31,.19,4.32,.46,4.26,3.58-.78,6.98-2.07,10.18-3.85,.22-.12,.22-1.2,.22-1.26,.06-1,.06-2.02,.03-3.02s-.07-2.02-.18-3.02c-.03-.24-.03-1.14-.28-1.25-2.06-.82-4.76-.01-6.87,.29-2.36,.35-4.72,.74-7.07,1.19-4.96,.95-10.81,1.5-14.36,5.46-.42,.47-.15,2.01-.13,2.55,.02,.48,.02,.99,.11,1.46,.02,.09,.06,.64,.18,.4,.26-.72,.7-1.28,1.32-1.66,.15-.11,.09-1.73-.04-1.76-.76-.16-.94-.36-1.43-.99l.11,4.49c2.4,1.23,4.95,.69,7.45,.09,2.33-.55,4.66-1.05,7.01-1.5s4.7-.85,7.07-1.19c2.11-.31,4.81-1.11,6.87-.29l-.21-8.54c-3.2,1.78-6.61,3.07-10.18,3.85l.21,8.54c3.61-1.73,7.38-3.06,11.28-3.99l-.21-8.54c-4.42,1.48-8.9,2.86-13.25,4.52l.2,8.26c1.38-1.12,2.74-2.24,4.03-3.47,.63-.6,1.3-1.17,1.9-1.79,.77-.79,1.31-1.76,2.1-2.53l-.04-1.75c-.43,.69-.71,1.3-1.32,1.84-.43,.38-.87,.75-1.34,1.09-.02,.01,.02,.09,0,.1h0Z"/><path class="cls-1" d="M1091.43,507.73c-3.11-.1-6.29,.18-9.02,1.78s-4.89,3.97-6.37,6.64c-.12,.21-.07,2.41,.09,2.39,2.32-.27,4.58-.82,6.71-1.76,2.26-.99,4.25-2.7,5.95-4.47,.08-.09-.05-.59-.02-.61-1.93,1.06-3.95,1.8-5.99,2.62-2.16,.86-4.41,1.48-6.71,1.79l.09,2.39c1.58-2.88,3.83-5.03,6.5-6.88s5.59-3.42,8.77-3.84v-.04h0Z"/><path class="cls-1" d="M1078.73,515.07c9.68,.6,19.4,.3,29.08-.09,.02,0,.01-.33,0-.33-9.69-.23-19.41-.38-29.08,.38v.04h0Z"/><path class="cls-1" d="M1110.51,514.65c-.17-.37-.33-.74-.51-1.11v.25c.86-1.36,4.12,.95,5.05,1.39,2.09,.99,4.22,1.89,6.39,2.7s4.31,1.48,6.53,2.02c1.03,.25,2.2,.36,3.19,.72,1.34,.49,2.58,1.81,3.73,2.67,.03,.02,.1-1.24,.1-1.06,.02-.85,0-1.7-.01-2.55s-.05-1.7-.11-2.55c-.02-.21,.02-.93-.15-1.05-1.58-1.11-3.94-1.31-5.81-1.68l-5.79-1.14c-3.91-.77-7.82-1.56-11.74-2.28s-7.62-1.26-11.48-1.47c-1.86-.1-3.9-.3-5.73,.09-.71,.15-.86,.45-1.41,.88-.43,.34-.91,.54-1.41,.78-1.07,.52-2.02,1.21-3.04,1.82-.24,.14-.09,2.87,.07,2.9,.97,.19,1.9,.52,2.86,.75,.43,.1,1.03,.13,1.44,.34,.33,.25,.66,.51,.97,.79l.48,.05c.9,.23,1.95,.06,2.87,.05s1.91,.02,2.87,.07c3.93,.2,7.84,.77,11.72,1.45s7.67,1.41,11.5,2.13l5.79,1.09c.96,.18,1.92,.37,2.89,.5,1.04,.14,2.11,.43,3.12,.09l-.18-7.22c-1.26,.63-2.65,1.66-4.08,1.48s-2.89-.47-4.32-.76c-2.76-.56-5.51-1.12-8.24-1.82-1.31-.34-2.62-.71-3.91-1.11-.98-.31-2.26-1.04-3.32-.9-1.35,.17-.74,1.03-.34,1.72,0,0,0-.03,0-.04h0Z"/><path class="cls-1" d="M1146.76,502.26c2.34-.5,5.01-.29,7.38-.01,1.23,.14,2.44,.36,3.65,.64,.58,.14,1.24,.24,1.79,.47,.85,.35,1.28,.91,1.79,1.69-.07-.11,.06-.98,.06-1.13,0-.4,.08-1.06-.1-1.42-.75-1.54-1.57-2.89-3.01-3.87-.94-.63-1.95-1.12-2.98-1.6-2.08-.97-4.29-1.72-6.51-2.31-4.73-1.24-9.34-1.01-14.1-.02s-9.61,2.19-14.41,3.29c-4.32,.99-9.29,1.55-13.07,4.02-.23,.15-.23,1.15-.24,1.26-.07,1-.07,2.02-.04,3.02,0,.31,.3,4.33,.49,4.26,2.58-.94,5.21-1.7,7.82-2.57s5.32-1.93,7.97-2.9c5.24-1.93,10.77-3.05,16.26-4.01,.14-.02,.07-2.03-.05-2.04-5.46-.55-10.89-.43-16.36-.31-2.64,.06-5.2,.25-7.79,.81-2.74,.59-5.42,1.54-8.05,2.49l.21,8.54c3.73-2.43,8.57-2.98,12.83-3.96,4.8-1.11,9.6-2.28,14.42-3.3s9.21-1.25,13.89-.21c2.24,.5,4.36,1.28,6.52,2.03,.98,.34,1.97,.73,2.97,1,1.45,.39,2.35,.1,3.29-1.08l-.06-2.59c-1.14,1.05-2.18,.45-3.53,.16-1.2-.25-2.42-.43-3.65-.55-2.49-.23-4.9,.06-7.38,.09,0,0,0,.11,0,.1h0Z"/><path class="cls-1" d="M1088.77,507.59c.14,.08-.18,.25-.27,.17-.31-.27,.63-.74,.74-.8,.85-.45,1.72-.86,2.6-1.26,1.64-.74,3.28-1.46,4.97-2.09,3.38-1.26,6.89-2.2,10.42-2.93,7.15-1.48,14.47-1.96,21.76-2,4.19-.03,8.38-.03,12.57-.14,.01,0,.02-.32,0-.33-8.78-.9-17.67-.87-26.44,.14-8.6,.98-17.3,3.09-24.78,7.59-.23,.14-2.51,1.22-1.94,1.84,.22,.24,.55-.04,.37-.3,0,0-.02,.09,0,.1h0Z"/><path class="cls-1" d="M1087.59,507.32c2.23-1.12,4.8-1.8,7.18-2.55s4.86-1.44,7.31-2.11c4.92-1.34,9.91-2.41,14.94-3.21,10.13-1.6,20.37-1.73,30.58-.91,2.84,.23,5.7,.57,8.46,1.28,1.23,.31,2.43,.83,3.48,1.55,1.11,.76,2.46,2.22,2.54,3.65l-.04-3.64c-.1,1.21-2.59,1.91-3.45,2.29-.79,.35-1.6,.65-2.35,1.07-1.15,.63-1.35,1.33-1.47,2.58-.13,1.43-.06,2.92,.02,4.35,.03,.54,.01,1.14,.13,1.66,.02,.11,.05,.66,.18,.35,.67-1.63,1.35-3.94,0-5.45l.2,1.86-.04-1.16-.11,5.08c1.62-1.68,4.19-2.02,5.77-3.77,.8-.88,1.21-2.04,1.33-3.21,.2-1.88,.21-4.02-.1-5.88-.42-2.55-3.18-3.39-5.36-3.81-3.23-.62-6.44-1.02-9.73-1.15-6.51-.25-13.03,.14-19.49,.94s-12.88,1.72-19.22,3.24c-3.47,.83-6.91,1.78-10.29,2.93-1.77,.6-3.53,1.23-5.27,1.9s-3.43,1.52-5.2,2.06c-.02,0,0,.1,0,.1h0Z"/><path class="cls-1" d="M1155.14,508.35c1.32,.8,3.29-.06,4.53-.67,1.31-.65,2.6-1.5,3.62-2.55l-.08-2.4c-.74,2.55-2.15,4.9-4.04,6.77-.99,.98-2.13,1.79-3.15,2.73-.3,.27-.63,.51-.91,.8-.31,.32-.51,.69-.88,.96-.29,.21-1.13,.75-1.41,.26,.05,.09-.05,.6,0,.79,.16,.59,.68,.85,1.27,.9,.3,.03,.57,.02,.87,.06,.35,.05,.68-.1,1.01-.22,1.36-.48,2.36-1.51,3.3-2.58,2.03-2.31,3.42-5.11,4.05-8.11,.09-.42,.04-.91,.02-1.34,0-.23-.02-.47-.04-.7,0-.05-.07-.34-.07-.36-.96,1.43-2.11,2.65-3.6,3.53-.7,.41-1.43,.72-2.18,1.02s-1.65,.53-2.31,1.08v.04h0Z"/><path class="cls-1" d="M1082.09,477.61c.08,.07,.16,.12,.26,.17,0,0,.01-.35,.01-.35-.1-3.34-3.08-4.75-5.87-5.66-3.18-1.04-6.55-1.57-9.86-1.99-6.77-.85-13.6-1.03-20.41-.53-1.61,.12-3.21,.38-4.72,1-.79,.33-1.57,.72-2.34,1.09-.9,.44-2.12,.95-2.78,1.73-.48,.56-.6,1.63-.44,2.35,.36,1.61,2.98,1.72,4.31,1.98,1.58,.3,3.13,.53,4.75,.46,1.74-.07,3.48-.29,5.21-.37,3.4-.16,6.81-.16,10.21-.04,3.8,.14,7.56,.58,11.33,.98,1.87,.2,3.72,.47,5.6,.63,.91,.08,1.86,.2,2.77,0,.31-.07,.89-.19,1.14-.38,.45-.34,.51-.61,.99-.86l-.06-1.49c.06-.65-.13,.86-.1,1.22,0,.01,0,.03,0,.04h0Z"/><path class="cls-1" d="M1084.82,479.05c-14.53-3.4-29.4-4.73-44.25-5.84-14.75-1.11-29.58-1.04-44.36-.97-8.34,.04-16.71-.07-24.95-1.46l.05,2.1c29.96-.37,60.01-.72,89.82,2.81,4.18,.5,8.34,1.06,12.49,1.72,2.08,.33,4.15,.68,6.22,1.05,.95,.17,1.91,.38,2.87,.53s1.92,.04,2.91-.03c-.04,0,.04-1.27-.03-1.31-.8-.37-1.61-.83-2.46-1.06s-1.76-.32-2.63-.47c-1.91-.33-3.82-.65-5.74-.95-3.67-.57-7.35-1.07-11.04-1.51-7.46-.89-14.95-1.54-22.45-2-14.88-.91-29.8-1.15-44.71-1.11-8.43,.02-16.86,.13-25.29,.23-.04,0-.11,2.07,.05,2.1,7.36,1.24,14.82,1.46,22.27,1.46s14.78-.11,22.17-.05c14.76,.11,29.57,.44,44.27,1.83,8.28,.78,16.56,1.84,24.8,2.99v-.04h0Z"/><path class="cls-1" d="M1071.29,476.44c-20.12-4.77-40.93-5.94-61.49-7.33-21-1.42-42.03-2.35-63.06-2.96-5.89-.17-11.81-.33-17.71-.27s-11.95,.36-17.93,.87c-.01,0-.01,.37,0,.37,21.05,1.81,42.25,1.36,63.36,1.97,20.87,.61,41.78,1.4,62.61,2.89,11.49,.82,22.96,2.07,34.22,4.51,0,0,0-.04,0-.04h0Z"/><path class="cls-3" d="M848.57,478.12c6.78-.54,13.55-1.07,20.34-1.43,3.47-.18,6.96-.26,10.43-.29s6.62,.18,9.94,.28,6.67,.27,9.99,.67c3.08,.36,6.05,1.12,9.08,1.79s5.92,1.99,8.79,3.1,5.99,2.03,9.03,2.97c3.24,1.01,6.44,2.19,9.55,3.54,1.49,.65,2.96,1.34,4.41,2.07,1.57,.79,3.07,1.78,4.68,2.48l-.21-8.44c-.26,.28-1.65,1.81-2.04,1.39,.12,.13-.06,1.62-.04,1.88,.14,1.91,.7,3.96,2.29,5.17,.1,.08,.23-1.48,.22-1.24,.06-.99,.06-2,.03-2.99s-.06-1.99-.18-2.98c-.03-.3-.01-1.04-.28-1.23-2.47-1.77-5.5-3.02-8.28-4.22s-5.45-2.21-8.25-3.12-5.92-1.95-8.95-2.21-5.79-.22-8.68-.12c-1.47,.05-2.92-.1-4.39-.12-1.54-.02-3.09,.12-4.63,.05-3.23-.14-6.48-.22-9.71-.27-6.78-.11-13.59,.42-20.35,.93-7.62,.58-15.21,1.29-22.81,2.06-.03,0,0,.29,0,.29h0Z"/><path class="cls-3" d="M937.93,492.81c-1.18-1.97-1.49-4.48-2.95-6.25-.94-1.14-2.19-2.06-3.37-2.93-2.14-1.58-4.52-2.89-6.98-3.9-5.63-2.3-11.88-2.92-17.84-3.91-6.3-1.05-12.61-2.08-18.91-3.11s-12.51-2-18.86-1.97c-7.08,.03-14.17,.9-21.21-.19l.33,8.39c.51-1.25,.56-2.59,1.14-3.83,.37-.8,.8-1.59,1.22-2.37,.2-.38,.09-1.15,.07-1.55,0-.13-.18-1.22-.18-1.22-.26,.24-.54,.54-.84,.72-.65,.39-1.04-.42-1.73-.15-.26,.1-.28,1.19-.29,1.26-.09,1-.09,2.03-.06,3.02,.01,.47-.09,4.16,.56,4.26,6.16,.96,12.36,.42,18.55,.24s12.44,.47,18.63,1.46,12.27,2.01,18.41,3,12.19,1.59,18.03,3.27c2.98,.85,5.79,2.13,8.42,3.77,1.29,.8,2.52,1.68,3.79,2.51,.51,.33,1.03,.77,1.63,.88,.94,.18,1.21-1.5,2.44-1.31,0,0,0-.09,0-.1h0Z"/><path class="cls-3" d="M850.04,477.66c.64,1.33,1.4,2.6,1.98,3.95,.72,1.69,1.06,3.51,1.69,5.23,.88,2.43,1.89,4.82,2.56,7.32,.58,2.17,1,4.39,1.17,6.63-.02-.3,.07,1.34,.04,.6,.01,.3,.02,.61,.02,.91,0-.17,0-.72,0,.09,0,.26,0,.51,0,.77,0,.1-.02,.76,0,.13-.01,.51-.04,1.02-.06,1.53-.41,7.6-2.64,15.92-5.33,23.38-5.71,15.78-13.94,30.51-19.55,46.34-1.59,4.49-2.95,9.07-3.9,13.74-.47,2.3-.86,4.63-1.15,6.96-.45,3.61-.91,7.33-.27,10.94l.57-6.55-.12-.23,.33,1.5c-.06-.6-.1-1.19-.15-1.79-.01-.15-.06-1.24-.36-1.24s-.29,1.11-.3,1.25c0,.3,0,.6,0,.9,0,.68,0,.68,.02,0-.43,1.35-.35,3.03-.24,4.42,.02,.23,.44,3.1,.79,2.85,.42-.3,.49-.8,.57-1.28,.11-.62,.13-1.26,.16-1.89,.04-.79,.01-.3,0-.13,.07-1.15,.16-2.29,.29-3.43,.19-1.7,.66-4.34,1.11-6.36,.93-4.11,2.09-8.16,3.47-12.14,2.87-8.32,6.61-16.32,10.23-24.33,7.21-15.96,14.27-32.18,14.85-49.96,.21-6.51-.06-13.17-1.57-19.52-.62-2.62-1.42-5.18-2.78-7.51-.53-.91-.8-.86-1.69-1.17-.58-.21-.95-.82-1.37-1.24-.33-.34-.59-.47-1.03-.71,0,0,0,.04,0,.04h0Z"/><path class="cls-3" d="M1078.16,470.72c-.86,.6-1.86,.36-2.69-.16l.05,2.12c.64,.19,1.29,.21,1.94,.37s1.12,.39,1.7,.64c1.12,.49,2.33,.75,3.39,1.35,2.13,1.2,4.58,1.56,6.92,2.16,3.45,.88,7.15,1.66,10.03,3.91,1.45,1.13,2.11,2.43,2.83,4.06,.1-3.86,.03-4.95-.2-3.27-.06,.31-.12,.62-.2,.92-.1,.44-.22,.88-.34,1.32-.27,1-.57,2-.9,2.98-1.36,4.11-3.18,8.03-5.42,11.73l.45,8.23c.81-2.25,1.21-4.56,1.78-6.88s1.24-4.4,1.79-6.62c.12-.48,.08-1.02,.05-1.51,0-.14-.12-.96-.18-.85-.72,1.27-1.21,2.67-1.94,3.95-.29,.52-.69,.94-1.02,1.42-.44,.66-.68,1.51-.94,2.26-.55,1.56-.3,3.64-.2,5.26,.05,.83,.04,1.75,.28,2.55,.05,.18,.14,.82,.37,.42,4.31-7.27,7.49-15.49,7.28-24.03-.1-4.11-.45-8.04-4-10.6-2.66-1.92-6.09-2.87-9.28-3.45-2.19-.4-4.95-1.04-7.11-.2-1.09,.42-2.22,.49-3.33,.84-.65,.21-1.24,.48-1.91,.6s-1.28,.14-1.92,.33c-.25,.07-.03,2.13,.05,2.12,1.22-.11,2.08-.88,2.64-1.92,0,0,0-.04,0-.04h0Z"/><path class="cls-3" d="M1098.39,480.46c-.58-.82-1.1-1.67-1.62-2.52-.1-.16-.13,.48-.14,.53-.04,.54-.01,1.09,.03,1.63,.01,.17,.1,2.03,.08,1,.01,.89,.01,1.11,0,.65,0,.17,0,.33,0,.5,0,.09,0,.12,0,.2-.03,.36-.05,.72-.09,1.08-.19,1.67-.53,3.31-1.02,4.92-1.04,3.4-2.69,6.57-4.84,9.4-.26,.34-.23,1.64-.24,1.97-.03,.91-.03,1.82,0,2.72,.01,.31,.3,3.8,.57,3.69,.43-.17,1.01-.32,1.38-.59s.69-.73,1-1.08c.66-.77,1.38-1.49,2.07-2.24,1.27-1.4,2.49-2.82,3.59-4.37,.24-.33,.1-1.25,.08-1.62,0-.11-.16-1.3-.2-1.27-1.16,.78-2.41,1.47-3.76,1.84-.66,.18-1.27,.31-1.96,.26-.32-.02-.7-.12-1.02-.06-.44,.08-.96,.43-1.38,.6l.33,8.38c2.83-3.75,4.65-8.09,5.55-12.69,.53-2.71,.71-5.49,.69-8.24-.01-2.33,.13-4.98-.72-7.19l.03,2.88c.51-.14,1.06-.25,1.59-.25,0,0,0-.1,0-.1h0Z"/><path class="cls-3" d="M1161.69,463.11c-.22-.31-.43-.5-.79-.66-1.01-.46-.86-.1-1.8-1.27,.04,.06-.12,1.36-.12,1.47,0,.56-.06,1.33,.16,1.86,.36,.84,.62,1.68,1.49,2.08,.56,.26,1.2,.41,1.8,.53,1.12,.24,2.23,.49,3.35,.75,2.34,.53,4.63,1.3,6.82,2.28,4.34,1.94,8.25,4.71,11.54,8.14l.11-.16c.54-1.73,.72-3.57,1.21-5.33,.3-1.07,.55-2.16,.75-3.25,.07-.41,.04-.87,0-1.28,0-.1-.11-.67-.13-.59-.17,.56-.36,1.12-.63,1.64-.08,.19-.18,.36-.31,.51-.11,.29-.3,.3-.57,.01-.46-.04-.59-.18-.92-.4-.52-.34-.97-.97-1.43-1.39-.49-.45-.99-.88-1.51-1.3-2.06-1.67-4.31-3.11-6.69-4.29s-4.77-2.05-7.28-2.69c-1.3-.33-2.58-.55-3.91-.65-.68-.05-1.3-.07-1.98,.06-1.19,.23-1.34,.89-1.78,2.02l.2,3.1c.23-1.54,1.36-2.53,2.43-1.19,0,0,0-.03,0-.04h0Z"/><path class="cls-3" d="M1167.83,428.52c-.21-.69,.3,1,.2,.66,.22,.73,.1,.69,.69,1.04s1.21,.56,1.8,.83c1.24,.58,2.46,1.14,3.73,1.66,2.5,1.03,4.95,2.2,7.31,3.51s4.5,2.71,6.6,4.28c1.05,.79,2.08,1.61,3.07,2.47s1.92,1.99,3.04,2.66c.1,.06,.26-3.01,.26-3.03-.06-.79-.02-1.57,.12-2.34,.07-.45-.18-1.42-.1-1.68,.14-.45-.89-1.72-1.23-2.06-.19-.19-.4-.38-.6-.57-.45-.42-.92-.83-1.38-1.24-.94-.81-1.9-1.59-2.89-2.34-2.03-1.54-4.16-2.94-6.38-4.2s-4.37-2.32-6.69-3.2c-2.18-.83-4.85-1.83-7.23-1.55l-.08,.12c-.46,1.53-.72,3.41-.24,4.98h0Z"/><path class="cls-3" d="M1154.08,411.91c2.9,1.2,5.96,1.72,8.73,3.25s5.64,2.73,8.65,3.61c2.73,.8,5.46,1.62,8.12,2.62s5.34,2.49,8.03,3.72c.18,.08,.31-3.08,.31-3.09,0-1.53,.07-3.23-.3-4.73l.1,.79v3c.11-.91,.34-1.78,.55-2.67,.07-.3-.13-2.59-.1-2.61-1.08,.67-1.03,1.87-1.07,3.01l.29-2.08c-2.33-1.65-5.17-2.75-7.83-3.73s-5.48-1.76-8.32-2.28-5.64-.44-8.34,.22c-2.93,.72-5.88,.39-8.84,.83,0,0,0,.12,0,.12h0Z"/><path class="cls-3" d="M1139.54,391.5c.7,.3,1.37,.7,2.1,.9,.62,.18,1.26,.29,1.89,.44,1.33,.31,2.65,.57,3.99,.84,2.71,.54,5.3,1.26,7.89,2.22s4.99,1.71,7.36,2.85c1.26,.6,2.42,1.34,3.58,2.12,1.04,.69,2.35,1.82,3.56,2.11l.08-.13c.52-1.98,1.4-3.87,1.5-5.93,.02-.4,.05-.84-.02-1.23-.01-.08-.06-.57-.1-.24-.04,.3-.12,.62-.31,.87-.07,.15-.17,.28-.31,.38l-1-.82c-.55-.53-1.08-.89-1.76-1.26-1.17-.64-2.38-.99-3.66-1.36-2.62-.76-5.29-1.7-8.02-1.92s-5.49-.28-8.23-.42c-1.39-.07-2.78-.13-4.18-.08-.69,.03-1.39,.04-2.08,.09-.79,.05-1.51,.34-2.27,.54v.04h0Z"/><path class="cls-3" d="M704.99,309.12c-3.01,.96-6.42,1.23-9.55,1.58s-6.96,1.15-9.7-.49l.07,2.74c5.41-1.07,10.88-1.81,16.31-2.78s10.96-1.85,16.46-2.66c10.86-1.6,21.84-2.75,32.79-3.57s22.31-1.49,33.5-1.54,22.21,.38,33.28,1.27c6.2,.5,12.39,1.15,18.56,1.94,3.12,.4,6.24,.85,9.36,1.33,1.48,.23,2.96,.47,4.43,.71s3.62,1.1,4.87,.23c.13-.09,.09-1.09,.09-1.07,.02-.86,0-1.73-.01-2.59,0-.32-.36-3.6-.26-3.66-.85,.44-1.39,.56-2.34,.54-.78-.02-1.57,0-2.35,.02,0,0-.12,2.14,.06,2.29,1.72,1.43,3.44,2.69,4.82,4.47l-.18-7.32c-1.09-1.11-2.73-1.09-4.2-1.34-1.4-.24-2.8-.46-4.2-.68-2.72-.43-5.45-.83-8.18-1.19-5.54-.75-11.1-1.37-16.67-1.88-10.98-1-22-1.51-33.03-1.55-11.18-.05-22.38,.34-33.51,1.3s-22.1,2.74-33.03,4.93c-6.15,1.23-12.24,2.64-18.31,4.23s-12.26,3.75-18.32,5.83c-.5,.17,.27,2.6,.07,2.74,.76-.51,1.5-.91,2.4-1.07,.79-.14,1.62-.19,2.42-.29,1.61-.21,3.22-.37,4.82-.59s3.04-.46,4.56-.75c1.66-.31,3.32-.8,4.99-1.02,.01,0,0-.1,0-.1h0Z"/><path class="cls-3" d="M744.83,292.17c-.02-.59,1.69,.29,.12,.47s-3.26,.33-4.89,.49c-3.18,.32-6.36,.67-9.54,.94-6.45,.55-12.9,1.1-19.34,1.69l.06,2.26c1.56-.26,3.11,.35,4.62,.06s3.07-.59,4.61-.88c3.15-.59,6.31-1.17,9.47-1.72,6.24-1.09,12.5-2.12,18.77-2.98,.18-.02,.16-4.26-.11-4.31-5.69-1.04-11.29-1.31-17.03-.46-.39,.06,.13,5.16,.13,5.17,.96-.13,1.71-.24,2.65,.01,.89,.23,1.75,.55,2.66,.52,1.77-.06,3.54-.39,5.29-.65,.65-.1-.21-8.31-.2-8.31-26.96,4.05-53.86,8.53-80.79,12.84-26.58,4.26-53.25,8.21-79.63,13.64-6.95,1.43-13.91,2.9-20.74,4.85-3.31,.95-6.59,2.02-9.8,3.28-1.47,.58-3.27,1.08-4.53,2.03-.85,.64-1.59,1.42-2.4,2.11-.75,.64-1.59,1.2-2.37,1.83-.6,.48,.26,5.26,.13,5.3,1.26-.32,2.44-1.18,3.58-1.81,.14-.08,.09-1.6-.04-1.68-1.17-.63-2.38-1.49-3.67-1.81l.13,5.3c1.35-.41,2.62-.71,4.02-.85,1.62-.17,3.02-.97,4.52-1.58,2.78-1.12,5.61-2.1,8.47-2.97,5.93-1.81,11.99-3.18,18.06-4.48,13.22-2.83,26.53-5.22,39.86-7.45,26.66-4.46,53.39-8.6,80.08-12.88,15.11-2.42,30.23-4.78,45.32-7.35l-.2-8.31c-1.76,.3-3.56,.55-5.28,1.04-.87,.25-1.6,.76-2.38,1.22-.97,.57-1.76,.8-2.87,1l.13,5.17c5.55-1.05,11.42-1.31,17.01-.4l-.11-4.31c-6.26,.98-12.53,1.96-18.77,3.06-3.08,.54-6.16,1.1-9.23,1.68-1.54,.29-3.07,.59-4.61,.89-1.72,.34-3.1,1.53-4.82,1.94-.21,.05,.08,2.26,.06,2.26,8.07-1.27,16.12-2.67,24.19-3.87l6.11-.91c.48-.07,4.16-.36,4.17-.8,0-.41-.87-.9-.87-.31,0,.05,0,.12,0,.03h0Z"/><path class="cls-3" d="M742.05,297.12c-2-.77-3.71-.51-5.79-.18-2.21,.35-4.4,.77-6.6,1.17l-13.69,2.48c-8.97,1.63-17.93,3.26-26.88,4.93-5.14,.96-10.31,1.82-15.39,3.06-.03,0,0,.29,0,.29,9.09-1.13,18.13-3.1,27.13-4.75s17.92-3.36,26.88-5.03c2.52-.47,5.06-.92,7.58-1.42,2.03-.4,4.76-1.42,6.75-.44-.01,0,.01-.1,0-.1h0Z"/><path class="cls-3" d="M725.31,299.18c1.6-.74,3.37-1.21,5.04-1.79,.01,0,0-.12,0-.12-16.67,1.11-33.3,2.78-49.88,4.79-16.66,2.02-33.28,4.36-49.83,7.11-16.48,2.74-32.87,5.94-49.19,9.52s-32.71,7.57-48.92,11.92-32.22,9.14-48.07,14.53c-2,.68-3.97,1.43-5.96,2.16-.1,.04,.03,.73,.02,.74,16.33-4.67,32.55-9.71,48.93-14.2,16.52-4.52,33.1-8.76,49.8-12.56s33.33-7.13,50.09-10.2c16.77-3.07,33.61-5.76,50.51-7.99,16.98-2.24,34-4.01,51.06-5.57,.08,0,.98-.1,.98-.09,0,.04-1.26,.46-1.37,.51-1.06,.39-2.11,.85-3.21,1.13-.01,0,0,.1,0,.1h0Z"/><path class="cls-3" d="M465.16,347.9c1.8-.61,3.73-.96,5.56-1.45s3.72-1,5.57-1.51c3.71-1.04,7.43-2.06,11.16-3.07,7.45-2.01,14.91-3.95,22.4-5.82,14.97-3.75,30.02-7.2,45.1-10.46,30.07-6.5,60.36-11.66,90.75-16.38,17.2-2.67,34.46-4.98,51.76-6.95,.04,0,0-.57-.01-.57-30.77,2.71-61.44,6.52-91.85,11.96-30.3,5.43-60.38,11.95-90.17,19.72-8.43,2.2-16.83,4.48-25.21,6.85-4.19,1.19-8.37,2.39-12.55,3.62-2.02,.59-4.03,1.2-6.03,1.83-2.15,.68-4.3,1.57-6.48,2.12-.02,0,0,.1,0,.1h0Z"/><path class="cls-3" d="M613.1,422.05c.11-.64,.38-1.1,.89-1.5,.57-.45,.81-.22,1.45,.05,1.3,.55,2.58,1.16,3.86,1.75,2.41,1.11,4.84,2.13,7.29,3.14,1.24,.51,2.45,1.09,3.66,1.67,1.28,.61,2.74,1.1,3.9,1.91s2.38,1.68,3.69,2.24c1.2,.51,2.44,.92,3.68,1.35,2.6,.89,5.02,2.28,7.62,3.11,2.46,.78,4.93,1.54,7.41,2.29,5.02,1.51,10.06,2.92,15.13,4.26,2.25,.6,4.63,1.33,6.98,1.33,1.74,0,2.11-1.61,3.36-2.5,1.04-.75,2.06-1.55,2.89-2.53,.29-.35-.25-2.21-.06-2.33-.74,.44-1.55,.8-2.42,.74-.59-.04-.93-.16-1.38-.5-.65-.48-1.01-1.14-1.84-1.34-.96-.23-2.02-.17-3-.32-1.06-.17-2.1-.41-3.14-.68-5.2-1.34-10.38-2.8-15.55-4.26-2.55-.72-5.1-1.45-7.64-2.2s-5.09-.95-7.59-1.67-4.89-1.56-7.56-1.54c-2.45,.02-5.14-.71-7.52-1.37-2.88-.8-5.74-1.66-8.63-2.44-.68-.18-1.36-.36-2.04-.55-.42-.12-1.63-.75-2.04-.65-.87,.22-1.3,1.76-1.42,2.48,0,.02,0,.1,0,.09h0Z"/><path class="cls-3" d="M538.52,411.92c1.86,.75,3.79,1.31,5.77,1.66,.96,.16,1.92,.28,2.89,.34,.48,.03,.96,.05,1.45,.05,.2,0,.46-.05,.67,0,.35,.07,.58,.34,.9,.5l-.08-3.21c-1.17,.12-2.12,1.01-3.04,1.68-1.01,.74-2.02,1.48-3.02,2.22s-2.01,1.48-3.01,2.23c-1.06,.78-2.33,1.5-2.99,2.66l.2,2.96c.03-1.03,.8-2.01,1.76-2.33,.12-.04,0-1.23-.03-1.23-.36,.02-.7,.11-1.03,.25-.12,.05-.24,.11-.35,.18-.26,.18-.18,.28-.54,.16-.07-.02-.1,1.83-.1,1.97,0,.2-.04,1.92,.2,1.96,.59,.11,1.08-.42,1.51-.76,.5-.39,1-.79,1.5-1.18,1-.79,2.01-1.57,3.01-2.36s2.01-1.57,3.02-2.35c1.12-.87,2.18-1.69,3.01-2.86,.24-.34,.1-1.21,.09-1.61s-.02-.76-.07-1.14c0-.05-.08-.49-.1-.47-.25,.2-.47,.51-.76,.65-.23,.11-.52,.12-.77,.15-.44,.06-.88,.12-1.33,.16-.99,.09-1.99,.14-2.99,.12-1.94-.03-3.86-.28-5.74-.73,.01,0-.04,.31,0,.33h0Z"/><path class="cls-3" d="M459.9,399.72c1.51-1.02,.56-3.85,.31-5.21-.1-.51-.37-1.89-.66-.64-4.86,21-12.42,41.41-22.37,60.53-2.84,5.46-5.87,10.81-9.1,16.05l.63,8.23c10.79-19.39,20.7-39.48,27.02-60.81,1.78-6.01,3.22-12.13,4.32-18.3,.31-1.74,.25-3.59,.1-5.34-.03-.34-.35-2.99-.74-2.46-.59,.82-1.38,.92-2.22,1.31-.37,.17-.75,.29-1.12,.44-1.11-.18-1.12,.73-.02,2.72,.1-.4,.24-.78,.42-1.15,.24-.53,.14-1.34,.12-1.89,0-.13-.2-1.53-.26-1.48-.65,.48-.89,1.1-.99,1.89-.22,1.67-.13,3.5,.16,5.16,.2,1.15,.71,2.13,1.9,2.55,.98,.35,1.99-.58,2.53-1.32l-.63-7.8c-3.92,21.69-12.42,42.21-22.4,61.76-2.83,5.55-5.81,11.03-8.81,16.49-.79,1.43-.56,3.7-.43,5.27,.07,.81,.08,1.8,.43,2.54,.09,.2,.34,.88,.62,.42,11.47-18.81,20.61-39.05,26.95-60.16,.91-3.03,1.77-6.07,2.57-9.13,.9-3.42,1.96-6.91,2.25-10.44h-.44l-.13,.66s0,.1,0,.1h0Z"/><path class="cls-3" d="M385.58,331.28c1.75,1.93,3.26,4.08,4.99,6.03s3.66,3.86,5.27,5.95c3.47,4.54,7.01,9,10.75,13.3,6.66,7.66,13.62,14.98,18.5,23.98,4.54,8.38,7.49,17.58,8.84,27.01,.17,1.16,.3,2.33,.42,3.49,.03,.27,.05,.53,.08,.8,0,.08,.06,.75,.02,.18,.06,.67,.11,1.33,.15,2,.04,.53,.06,1.07,.09,1.6,.07,1.29,0-.51,.01,.27,0,.27,.02,.54,.03,.81,.02,.6,.03,1.21,.04,1.82,0,.27,0,.54,.01,.81,.02,1.33,0-.85,0,.48-.03,4.57-.27,8.82-.83,13.56-1.28,10.89-3.86,21.59-7.15,32.03-.57,1.81-.44,4-.17,5.85,.08,.54,.66,3.18,1.22,1.5,6.26-18.69,13.29-37.14,21.15-55.22,2.24-5.15,4.54-10.26,6.91-15.35,.7-1.51,.51-3.65,.38-5.27-.07-.82-.07-1.79-.4-2.55-.07-.16-.32-.9-.57-.42-7.66,15.13-14.36,30.7-20.2,46.62-1.66,4.52-3.29,9.06-4.78,13.64-.54,1.67-.46,3.63-.26,5.34,.08,.63,.14,1.46,.44,2.03,.1,.19,.47,.93,.75,.41,8.18-15.61,15.56-31.59,22.18-47.93,.62-1.52,.36-3.77,.2-5.34-.03-.3-.5-3.19-1.01-2.45-8.96,13.18-14.38,28.31-19.72,43.21-.57,1.6-.4,3.7-.22,5.34,.03,.29,.59,3.24,1.07,2.45,9.85-16.2,17.52-33.52,23.01-51.66,.5-1.65,.36-3.66,.19-5.34-.06-.64-.1-1.45-.37-2.04-.07-.16-.37-.92-.61-.42-8.79,17.97-16.5,36.46-23.27,55.28l1.39,6.68c1.58-8.73,2.92-17.5,4.36-26.25,.3-1.82,.28-3.8-.07-5.61-.1-.54-.62-2.6-1.12-1.07-1.13,3.4-2.27,6.8-3.42,10.2l1.25,5.82c1.46-15.88-.07-32.09-4.82-47.33-.31-1-.7-.31-.86,.36-.34,1.43-.27,3.04-.17,4.5,1.37,18.73,1.52,37.16,.25,56.13-.09,1.41-.03,3.15,.47,4.48,.23,.62,.76,1.4,1.12,.31,4.26-12.67,8.38-25.4,12.42-38.14l-1.1-6.69c-.52,3.38-1.18,6.75-1.69,10.13-.25,1.64-.21,3.39,0,5.03,.04,.27,.34,2.52,.89,1.89,1.3-1.5,2.54-3.1,3.93-4.52,.29-.3,.34-1.37,.36-1.69,.08-.93,.07-1.89,0-2.82-.03-.35-.33-3.12-.9-2.54-1.24,1.26-2.67,2.39-3.99,3.57l.9,6.92c.64-3.31,1.12-6.65,1.74-9.96,.33-1.78,.24-3.83-.08-5.61-.1-.55-.52-2.56-1.03-1.08-4.32,12.68-8.56,25.4-12.65,38.15l1.6,4.79c.18-4.51,.26-9.88,.36-14.84s.12-10.33,.06-15.5c-.11-10.12-.51-20.23-1.23-30.32l-1.02,4.85c1.88,6.04,3.2,12.24,3.87,18.53,.31,2.92,.43,5.39,.47,8.44v.47c0-.27,0-.26,0,.04,0,.39,0,.79-.01,1.18-.01,.79-.04,1.57-.07,2.36-.06,1.41-.18,3.01-.33,4.63s-.12,3.52,.25,5.17c.14,.61,.58,1.88,.99,.64,1.15-3.4,2.3-6.8,3.46-10.2l-1.2-6.68c-1.55,8.75-3.18,17.48-4.58,26.25-.29,1.84-.35,3.78,.06,5.61,.13,.56,.79,2.64,1.33,1.07,6.4-18.6,14.04-36.74,22.68-54.41l-.79-7.79c-5.38,17.78-13.08,34.91-22.7,50.79l.85,7.79c5.18-14.65,10.49-29.41,19.31-42.34l-.81-7.79c-6.53,16.02-13.86,31.74-21.9,47.06l.93,7.79c5.18-15.9,11.18-31.46,18.23-46.62,1.99-4.29,4.06-8.54,6.2-12.76l-.59-8.23c-8.43,18.18-16.12,36.71-22.97,55.55-1.92,5.28-3.77,10.57-5.56,15.89l1.06,7.36c6.53-20.68,9.67-42.6,7.68-64.26-.93-10.2-3.17-20.33-7.23-29.76s-10.35-17.91-17.5-25.48c-3.69-3.9-8.22-7.18-12.62-10.18-1.2-.82-2.47-1.59-3.53-2.58-1-.92-1.97-1.87-2.93-2.82-2.09-2.08-4.37-4.15-6.15-6.5,0,0-.02,.08,0,.1h0Z"/><path class="cls-3" d="M463.31,397.54c.6-.61-.62-3.75-.53-3.21,.01,.06-.19-1.06-.42-.98-.71,.24-.95,.9-1.24,1.54-.46,1-.88,2.03-1.31,3.04-.88,2.09-1.73,4.21-2.58,6.32-1.69,4.16-3.35,8.32-4.99,12.5s-3.37,8.69-5.03,13.05c-1.74,4.58-4.02,9.23-4.53,14.13-.12,1.17-.09,2.51,.18,3.66,.08,.36,.46,1.4,.68,.46,.47-2,1.09-3.84,1.85-5.75,.12-.3-.12-1.7-.17-1.64-.6,.78-.66,1.29-1.94,.75l.18,7.14,.18,.04,.19-.15c.96-2.01,1.63-4.16,2.4-6.25s1.62-4.32,2.44-6.48c1.57-4.14,3.17-8.28,4.78-12.41s3.24-8.3,4.89-12.44c.86-2.17,1.74-4.33,2.58-6.51,.43-1.11,.83-2.22,1.24-3.33,.13-.36,.38-.67,.52-1.01,.12-.28,.2-.57,.23-.88,.43-2.29,.56-2.83,.41-1.63,0,0,0,.04,0,.04h0Z"/><path class="cls-3" d="M437.77,436.84l-2.03-2.09v6.82c1.3-1.05,2.2-2.56,3.11-3.94,.96-1.45,1.92-2.91,2.86-4.37,2.04-3.14,4-6.33,5.94-9.54,3.84-6.36,7.53-12.81,11.07-19.34,.78-1.43,.54-3.71,.4-5.27-.07-.82-.08-1.79-.41-2.54-.07-.15-.37-.93-.6-.42-.34,.75-.51,1.54-.94,2.24s-.65,.67-1.41,.57c-.21-.02-.15,1.57,0,1.73,.36,.38,.75,.63,1.13,.97,.71,.63,.91,1.92,1.42,2.73l-.2-8.24c-3.62,6.7-7.38,13.31-11.31,19.84-1.95,3.24-3.94,6.45-5.94,9.65-1.03,1.65-2.08,3.28-3.11,4.92-1.24,1.97-2.41,3.81-2.71,6.15-.1,.82-.11,1.65-.05,2.47,.03,.42,0,1.17,.24,1.51,.19,.26,.07,.37,.34,.25,.31-.14,.25-1.54,.26-1.78,.04-.95,1.29-1.71,1.94-2.28,0,0,0-.04,0-.04h0Z"/><path class="cls-3" d="M322.5,256.98c5.48,6.78,10.97,13.61,15.96,20.77,1.37,1.96,2.59,4.02,3.8,6.08s2.74,3.81,4.14,5.64c2.47,3.23,5.07,6.36,7.66,9.5,10.51,12.7,21.07,25.37,31.66,38.01,5.34,6.38,10.65,12.78,15.97,19.17,4.92,5.91,9.99,11.71,14.57,17.89,4.31,5.81,8.11,11.98,10.79,18.72s4,12.93,5,19.72c.26,1.77,.45,3.25,.62,5.34,.08,1,.16,1.99,.22,2.99-.05-.86,.03,.55,.03,.58,.02,.43,.04,.86,.06,1.29,.17,4.32,.08,7.02-.1,11.39-.17,4.04-.42,8.08-.79,12.11-.15,1.62-.33,3.42-.56,5.42-.11,1-.24,1.99-.35,2.99-.03,.3-.02,2.37-.13,2.58,0-.3,.03-.59,.08-.88-.08,.24-.16,.48-.24,.72l.35-.72c-.13,.09-.41,.2-.49,.29-.15,.15,.04,3.33,.2,3.38,.42,.15,.99-3.66-.1-4.05-1.31-.47-1.17,2.38-1.12,3.07,.1,1.2,.46,3.32,2.14,2.81,1.55-.47,1.58-2.96,1.73-4.22,.24-2.12,.45-4.25,.66-6.37,.76-7.92,1.18-15.86,.99-23.82s-.61-16.35-2.29-24.28-4.1-15.97-7.76-23.37-8.38-13.78-13.48-20.05c-5.43-6.67-10.99-13.22-16.5-19.82-11.41-13.66-22.78-27.36-34.23-40.99-5.62-6.7-11.15-13.46-17.15-19.82-1.24-1.32-2.69-2.24-4.08-3.4-1.62-1.35-3-2.97-4.45-4.5-2.88-3.04-5.75-6.05-8.5-9.22-1.44-1.66-2.89-3.32-4.32-4.98,0,0,0,.03,0,.04h0Z"/><path class="cls-3" d="M508.67,312.63c.02-.26,.75,.44,.72,.42,.47,.69,.59,.22,.34-1.4-.05,.09-.1,.18-.16,.27-.24,.48-.38,1.06-.53,1.59-.49,1.71-.94,3.42-1.51,5.1-1.22,3.63-2.88,7.09-4.92,10.33-.27,.44-.27,1.51-.29,1.95-.04,.9-.04,1.8,0,2.7,.01,.31,.31,3.79,.65,3.65,4.89-2.03,9.91-3.78,15.01-5.19,2.48-.69,4.98-1.29,7.5-1.82,1.3-.27,2.6-.52,3.91-.75,.69-.12,1.38-.24,2.08-.34,.88-.14,1.13-.2,1.73-.87,.56-.62,.34-7.46-.31-7.43l-.66,.04c-.17,0-.07,1.24-.06,1.36,.12,1.13,.31,2.27,.37,3.41l.35-4.8c-.96-.75-2.8-.06-3.94,.14-1.23,.22-2.45,.45-3.68,.71-2.6,.54-5.17,1.17-7.73,1.88-5.04,1.4-9.97,3.15-14.78,5.21l.35,8.3c2.34-3.8,4.23-7.91,5.42-12.21,.68-2.44,1.13-4.88,1.38-7.4,.13-1.27,.19-2.55,.19-3.82,0-.77,.07-1.8-.3-2.5l-.05-.05c-.65,0-1.3,.89-1.09,1.54,0,0,0,0,0,0h0Z"/><path class="cls-3" d="M783.64,138.51c-1.49,4.34-2.83,8.74-3.13,13.34-.41,6.28,.01,12.65,.69,18.89,1.29,11.86,3.6,23.58,4.76,35.46,.27,2.79,.47,5.36,.61,8.19,.11,2.11,.17,5.44,.16,7.67-.04,5.55-.33,11.07-1.16,16.67-1.43,9.72-4.22,19.24-8.57,28.06-4.83,9.78-11.56,18.6-20.28,25.22l.59,7.95c.41-1.11,.88-2.22,1.21-3.36,.45-1.58,.65-3.23,1.11-4.81,.75-2.58,1.6-5.14,2.37-7.71,.19-.63,.14-1.4,.07-2.05-.01-.11-.24-1.21-.37-.94-.91,1.98-1.7,4.03-2.67,5.98-.37,.75-.88,1.22-1.32,1.88-.67,1.01-.98,2.5-1.39,3.64-.5,1.4-.37,3.38-.24,4.83,.02,.25,.5,3.37,.83,3.12,15.51-11.79,24.78-30.15,28.52-48.99,4.86-24.42,2.02-49.52-1.8-73.96-.96-6.12-1.89-12.29-2.14-18.49,.03,.61,0-.35-.01-.49-.01-.46-.03-.92-.04-1.38-.02-.76,0,.48,0-.28,0-.46,.02-.93,.02-1.39,.03-1.7,.09-3.4,.14-5.1,.11-3.96,.81-8.08,2.03-11.86,0-.03-.01-.09,0-.1h0Z"/><path class="cls-3" d="M786.18,232.48c-1.01,2.16-1.81,4.43-2.97,6.5s-1.89,4.55-2.58,6.93c-1.51,5.17-3.16,10.26-5.52,15.11-4.36,8.95-10.6,16.97-18.18,23.42-2.05,1.74-4.19,3.37-6.42,4.87-1.17,.79-2.36,1.54-3.57,2.25s-2.59,1.29-3.7,2.16l.82,4.13c0-.43,0-.54,0-1.2,0-.72-.02-.53-.02,.57,.04-.29,.09-.57,.16-.86,.26-1.15,.77-2.2,1.3-3.24,.21-.41-.04-2.69-.19-2.56-.47,.44-.81,.91-1.15,1.45-.11,.19-.58,1.16-.8,1.13l-.16,.13c-.35,.81-.43,1.63-.52,2.52-.05,.47-.07,6.44,.77,6.23,1.18-.29,2.32-1.1,3.37-1.71,1.11-.64,2.19-1.32,3.26-2.02,2.03-1.34,3.99-2.77,5.87-4.31,3.83-3.12,7.34-6.63,10.47-10.45,6.65-8.11,11.25-17.45,14.05-27.53,1.01-3.65,1.9-7.33,2.57-11.06,.77-4.24,1.66-8.35,3.14-12.41,0-.01,0-.04,0-.04h0Z"/></g><g><path class="cls-4" d="M471.8,394c-2.42,.68-3.83,2.77-4.77,4.98-1.24,2.89-2.04,6-3.04,8.98-2.32,6.91-4.77,13.77-7.35,20.59s-5.39,13.75-8.34,20.53c-2.36,5.43-4.78,10.87-7.93,15.91-1.68,2.69-3.57,5.25-5.76,7.54-1.1,1.15-2.28,2.23-3.54,3.22-1.32,1.03-2.89,1.33-4.31,2.11l.27,.55c-1.81-8.69-.28-17.67,.53-26.38,.83-8.85,.9-17.74,.42-26.62s-1.42-17.69-2.77-26.45c-1.26-8.18-3.42-15.94-7.63-23.11-3.94-6.7-9.1-12.48-14.21-18.29-5.8-6.6-11.61-13.2-17.41-19.8-11.6-13.18-23-26.53-34.29-39.97s-22.4-26.85-33.31-40.51c-1.3-1.63-2.65-3.19-4.04-4.75,.02,.02-.25,1.23-.03,1.54,5.09,7.33,10.83,14.25,16.35,21.27s10.92,13.76,16.47,20.57c11.09,13.63,22.39,27.08,33.83,40.43,5.67,6.62,11.37,13.22,17.2,19.7,5.33,5.93,10.74,11.78,15.47,18.21s8.44,13.9,10.13,22.06,2.65,17.31,3.28,25.98,.72,17.59-.05,26.35-2.13,17.44-1.31,26.2c.2,2.1,.5,4.18,.93,6.25,0-.04,.14,.62,.27,.55,1.23-.7,2.19-1.78,3.21-2.75,1.1-1.04,2.32-1.96,3.4-3.04,2.07-2.07,3.88-4.38,5.49-6.81,3.27-4.94,5.75-10.36,8.06-15.81,5.64-13.35,10.87-26.88,15.56-40.59,1.3-3.79,2.5-7.61,3.77-11.4,.96-2.87,2.33-6.15,5.47-7.14,.02,0,0-.08,0-.08h0Z"/><path class="cls-4" d="M300,231.11c8.74,13.56,18.21,26.65,28.44,39.12,0,0,.03-.09,0-.12-10.08-12.57-19.61-25.57-28.45-39.04,0,0,0,.03,0,.04h0Z"/><path class="cls-4" d="M300.72,229.91c2.75,2.21,5.2,4.97,7.75,7.42s4.97,4.77,7.46,7.15c4.97,4.73,10.02,9.38,15.11,13.98,10.26,9.28,20.76,18.4,31.74,26.82s22.32,16.15,34.3,22.94c10.91,6.19,22.42,11.26,33.25,17.59,5.89,3.44,11.67,7.17,16.95,11.5,2.67,2.19,5.16,4.59,7.55,7.1,1.16,1.22,2.28,2.48,3.34,3.79,.56,.68,1.02,1.52,1.61,2.16l.19,.3c.34-1.3,.17-1.78-.49-1.44-.13,.02-.26,.02-.39,0-.49-.29-.51,.06-.05,1.06,.31-.28,.03-1.67-.17-1.49l-.15,.12c-.22,.06-.25,.5-.26,.67-.03,.85,.16,1.79,.97,2.25,1.36,.77,1.58-1.39,1.59-2.25,.01-3.4-2.86-6.02-5.01-8.36-4.22-4.59-9.24-8.46-14.44-11.89-10.7-7.05-22.62-12.15-34.05-17.88-25.62-12.85-48.8-29.89-70.43-48.59-6.15-5.32-12.2-10.76-18.19-16.25-3.04-2.79-6.09-5.56-9.12-8.35-1.51-1.39-3.03-2.79-4.54-4.18s-3.14-2.72-4.52-4.24c0,0-.03,.08,0,.1h0Z"/><path class="cls-4" d="M461.61,349.29c-1.61,1.77-4.31,1.15-5.85-.34l.02,.9c18.99-6.9,38.17-13.22,57.47-19.19,19.33-5.97,38.84-11.4,58.47-16.28s39.41-9.22,59.29-12.99c19.87-3.78,39.87-6.88,59.93-9.46,10.03-1.29,20.08-2.52,30.15-3.45,5.03-.46,10.07-.89,15.11-1.29s10.1-.23,15.15-.16c2.49,.04,4.95,.03,7.44-.1,.38-.02,.06-6.23-.15-6.21-5.08,.45-10.09,1.44-15.11,2.32s-10.05,1.32-15.1,1.88c-10.06,1.12-20.12,2.29-30.16,3.6-20.09,2.62-40.07,5.9-59.99,9.58-19.91,3.68-39.71,7.91-59.38,12.69-19.67,4.78-39.21,10.11-58.58,15.98s-38.59,12.44-57.59,19.53c-2.33,.87-4.66,1.75-6.99,2.64-.11,.04-.06,.82,.02,.9,1.73,1.67,4.23,1,5.83-.45,.02-.02-.01-.09,0-.1h0Z"/><path class="cls-4" d="M467,394.86c3.65-.05,7.42,.24,11.07,.46s7.61,.72,11.37,1.38c7.34,1.29,14.55,3.12,21.71,5.16,14.96,4.26,29.71,8.91,45.21,10.79,16.03,1.94,32.27,2.05,48.17,5.07,15.62,2.97,30.62,8.44,45.54,13.8,30.24,10.88,61.12,19.42,92.35,26.95,15.81,3.82,31.64,7.67,47.52,11.16s31.76,6,48,6.21c16.25,.21,32.5-1.1,48.74-.33,15.66,.75,31.42,3.15,46.22,8.49,1.74,.63,3.44,1.4,5.06,2.29,1.81,.99,3.88,1.57,5.82,2.3-.65-.25,.61-5.54-.14-5.85-1.76-.71-3.55-1.57-5.4-1.98s-3.64-.62-5.45-1.1c-3.82-1.01-7.66-1.97-11.53-2.81-7.49-1.62-15.1-2.83-22.72-3.64-16.17-1.72-32.36-.95-48.58-.6-16.28,.35-32.31-.62-48.36-3.47s-31.82-6.73-47.64-10.46c-31.3-7.38-62.55-15.22-92.96-25.76-15-5.2-29.8-11.07-45.19-15.05-15.64-4.05-31.55-5.04-47.59-6.29-8.08-.63-16.17-1.43-24.13-2.98-7.35-1.43-14.58-3.41-21.78-5.46-14.51-4.14-29.12-8.74-44.31-9.29-3.82-.14-7.28,.29-11.03,.9,0,0,0,.1,0,.1h0Z"/><path class="cls-4" d="M539.26,411.55c-.03-.45-.06-.9-.09-1.35l.11,.48c.16,.34,.3,.68,.41,1.03,.31,1.03,.14,2.04-.23,3.03-.54,1.43-1.47,2.69-2.66,3.65-2.52,2.04-5.8,2.83-8.87,3.61-.16,.04-.13,1.68,.04,1.73,7.07,2.36,14.73,2.58,21.95,.77,3.57-.89,7.01-2.27,10.2-4.1,1.59-.91,3.11-1.94,4.55-3.07,.68-.53,1.44-1.08,2.02-1.72,.49-.53,.48-.9,.48-1.61,0-.09,.05-1.21-.12-1.26-.84-.26-.65,1.27-.57,1.64,0,.03,0,.06,.03,.08,.44-.44,.93-.77,1.43-1.13,.14-.1-.09-.77-.02-.82-.1,.06-1.41,.82-1.42,.76v1.08c.24-.15,.46,.11,.58,.35l-.09-1.47c0,.49-1.66,1.55-2.08,1.89-.69,.56-1.4,1.1-2.12,1.62-1.45,1.03-2.98,1.95-4.56,2.76-3.05,1.56-6.31,2.73-9.66,3.47-6.83,1.51-14,1.23-20.65-.96l.04,1.73c3.96-1.02,8.49-2.27,10.78-5.99,1.32-2.14,2.14-6.18,.34-8.33,.05,.06-.03,.65-.01,.78,.06,.48,.12,.95,.17,1.43,0,.04,0-.05,0-.06h0Z"/><path class="cls-4" d="M611.8,421.62c.77,.06-.54-1.72-.55,.02,0,1.23,1.02,2.64,1.56,3.7,.95,1.86,1.97,3.69,3,5.51,2.03,3.59,4.21,7.1,5.72,10.96,.77,1.97,1.38,4.02,1.64,6.12,.34,2.74-.13,5.52-.85,8.17-1.35,4.92-3.74,9.49-6.13,13.97-.12,.22-.12,2.28,.06,2.31,11.16,1.61,19.15-7.92,27.09-14.03,8.2-6.3,18.4-9.87,28.75-9.96,2.72-.03,5.45,.18,8.17,.04,1.39-.07,2.77-.23,4.12-.58,1.6-.41,2.64-.94,3.74-2.19,.11-.12-.03-1.31-.03-1.31-1.15,.17-2.09,.59-3.2,.93s-2.3,.54-3.48,.65c-2.43,.24-4.88,.11-7.32,.07-5.14-.1-10.23,.51-15.16,1.98s-9.65,3.73-13.86,6.69c-4.36,3.07-8.11,6.9-12.39,10.06-4.73,3.49-10.45,6.19-16.46,5.34l.06,2.31c3.71-6.99,7.32-14.22,7.25-22.33-.06-7.26-3.21-13.39-6.97-19.42-1.03-1.65-2.12-3.25-3.13-4.91-.6-.98-1.18-1.98-1.71-3-.19-.36-.59-1.63-.04-1.76,.46-.11,.45,.78,.15,.56,0,0-.01,.1,0,.1h0Z"/><path class="cls-4" d="M690.67,445.54l-.67,.67s0,.04,0,.05c0,0,0,.05,0,.05l.67-.67s0-.04,0-.05c0,0,0-.05,0-.05h0Z"/><path class="cls-4" d="M499.64,334.18c-.39-.56-1.13-.11-.98,.48,0,0,0,.01,0,0,1.3-1.54,2.61-3,3.6-4.77s1.74-3.58,2.3-5.51c1.15-3.95,1.54-8.11,1.27-12.21-.14-2.19-.67-4.32-.83-6.5-.06-.72,0-1.43,.21-2.12s.35-1.16,1.18-.87c1.22,.44,2.47,1.5,3.58,2.17l13.46,8.17c2.45,1.49,4.91,2.98,7.36,4.47,1.08,.66,2.2,1.31,3.02,2.28,.73,.86,1.02,1.96,1.64,2.88,.02,.03,.07-.65,.05-.75-.25-1.43-.46-2.86-1.29-4.08-.7-1.03-1.75-1.74-2.79-2.39-2.81-1.75-5.65-3.43-8.48-5.15-5.75-3.49-11.49-6.98-17.25-10.46l-.05,.05c-1.34,2.33-1.21,5.21-.89,7.79,.4,3.23,.93,6.28,.59,9.56s-1.26,6.49-2.5,9.54c-.61,1.5-1.35,2.93-2.08,4.36-.42,.82-.85,1.62-1.36,2.38l-.24,.36c-.25,.42-.31,.47-.18,.16,.16,.19,.39-.37,.65,.24,0,.01,.02-.07,0-.1h0Z"/><path class="cls-4" d="M746.62,294.72c-.77,1.82-3.17,1.77-4.32,.43v1.05c.56-.16,1.12-.32,1.67-.49,.63-.2,1.19-.5,1.79-.83,1.19-.67,2.33-1.37,3.44-2.15,2.11-1.48,4.13-3.08,6.04-4.82,3.89-3.54,7.31-7.54,10.39-11.8s5.53-8.59,7.92-13.09,4-9.7,5.28-14.68c3.46-13.48,4.14-27.56,3.47-41.42-.33-6.81-1.04-13.59-1.99-20.34-.84-6.02-2.02-11.99-2.9-18.01-.75-5.13-1.24-10.32-.52-15.48,.39-2.78,1.13-5.51,2.27-8.07,.53-1.19,1.14-2.34,1.83-3.45,.74-1.18,1.59-2.63,2.97-3.13,2.92-1.05,5.77,2.59,7.64,4.31,2.35,2.17,4.68,4.36,6.99,6.57,4.62,4.43,9.15,8.96,13.57,13.58,8.95,9.36,17.5,19.1,25.61,29.19,8.15,10.14,16.05,20.57,22.84,31.68,13.64,22.33,20.7,47.75,26.75,72.98,.36,1.51,.73,3.01,1.08,4.52,.39,1.69,.6,3.49,1.16,5.13,.46,1.35,.74-.6,.79-1.05,.18-1.71,.13-3.54-.18-5.23l-.5-2.71c-.1-.55-.24-1.19-.58-.45-.41,.9-.2,2.41-.13,3.35l.26,3.72,.96-3.9c-.57-3.14-1.61-6.25-2.4-9.35s-1.6-6.22-2.43-9.32c-1.62-6.07-3.32-12.11-5.2-18.1-3.82-12.16-8.29-24.13-14.23-35.43-6.15-11.71-13.84-22.51-21.88-32.99s-16.12-20.09-24.8-29.59c-8.69-9.5-17.77-18.64-27.24-27.36-1.13-1.04-2.25-2.1-3.41-3.1-1.07-.93-2.35-1.95-3.84-1.91-2.62,.07-4.26,3.55-5.28,5.54-2.49,4.87-3.49,10.37-3.73,15.79-.58,12.56,2.42,24.81,4.11,37.16,1.8,13.14,2.45,26.48,.64,39.66-.82,6.01-2.14,11.95-4.02,17.72-1.75,5.36-3.71,10.78-6.3,15.8-5.05,9.78-12.13,18.48-20.91,25.14-1.02,.78-2.06,1.54-3.11,2.29-.53,.38-1.09,.72-1.61,1.11-.79,.59-1.52,1.3-2.29,1.93-.14,.12-.14,.98,.03,1.07,1.6,.89,3.48,.11,4.33-1.38,.02-.03-.01-.09,0-.1h0Z"/><path class="cls-4" d="M741.25,299c-13.61,3.5-27.19,7.09-40.78,10.67v.56c19.53-5.97,39.67-9.98,59.99-11.91s40.87-1.8,61.17,.43c11.37,1.25,22.62,3.27,33.85,5.43-.02,0,.03-.32,0-.33-19.69-5.22-40.39-7.31-60.72-7.68s-40.89,1.34-60.96,5.11c-11.27,2.12-22.38,4.95-33.32,8.4-.07,.02,.03,.55,.01,.56,13.59-3.71,27.19-7.4,40.77-11.18,0,0,0-.04,0-.04h0Z"/><path class="cls-4" d="M872.23,306.46c10.47,3.31,20.91,6.77,31.22,10.53-.02,0,.02-.19,0-.2-10.24-3.99-20.61-7.5-31.22-10.37,0,0,0,.04,0,.04h0Z"/><path class="cls-4" d="M888.07,298.33c12.84,11.55,28.23,19.9,43.87,27.02,17.05,7.76,34.39,14.93,51.63,22.25,8.86,3.76,17.75,7.47,26.79,10.78s17.65,6.06,26.2,9.81c16.58,7.29,31.37,18.07,48.17,24.92,8.75,3.57,17.74,6.45,26.76,9.26s18.59,5.75,27.9,8.57c1.06,.32,2.12,.64,3.18,.96,1.2,.37,2.4,.37,3.65,.43-.04,0,.21-2.87-.07-3.03-1.12-.61-2.22-1.31-3.44-1.7s-2.45-.73-3.67-1.1l-6.85-2.05c-4.64-1.39-9.29-2.76-13.94-4.11-9-2.61-18.06-5.05-26.96-7.97s-17.02-6.68-25.09-11-15.6-8.93-23.65-12.93-17.03-7.22-25.76-10.3-17.9-6.63-26.72-10.31c-17.42-7.27-34.84-14.6-52.17-22.09-15.67-6.77-31.09-13.98-44.95-24.06-1.66-1.2-3.28-2.46-4.87-3.75,.06,.05-.05,.31,0,.37h0Z"/><path class="cls-4" d="M1102.32,400.82c-.7-1.4-1.49-3-1.62-4.59-.11-1.34,.39-2.81,.98-4,1.3-2.64,3.61-4.32,6.51-4.75,1.91-.28,3.86-.21,5.78-.36,2.05-.16,4.09-.43,6.12-.76,3.99-.66,7.94-1.57,11.91-2.37,7.78-1.56,16.08-2.73,23.83-.43,6.03,1.79,11.8,5.84,14.25,11.81,.45,1.09,.86,2.01,2.27,1.68,1.17-.28,1.3-1.18,1.3-2.22,0-.95,.06-2.13-.96-2.57-1.22-.52-2.23,.65-2.39,1.79-.03,.22,.07,.65,.03,.79,.14-.51,.45-.56,.9-.52s1.08,.08,1.51,.27c.2,.09,.33,.25,.52,.34,.3,.16,.21,1.08,.2-.41s.09-.57-.17-.39c-.45,.32-.73,.59-1.32,.64-1.5,.12-1.67-1.22-2.19-2.32-.62-1.33-1.41-2.59-2.34-3.73-4.27-5.26-10.92-7.95-17.53-8.57-8.28-.78-16.45,1.25-24.49,2.91-4.04,.84-8.09,1.63-12.21,1.93-3.34,.24-6.88-.02-9.52,2.39-2.01,1.83-3.02,4.46-3.16,7.13-.11,1.95-.16,5.23,1.79,6.34,0,0,0-.03,0-.04h0Z"/><path class="cls-4" d="M1141.02,394.05c-.49-.39-.94-.83-1.4-1.26v.28c1.29,.05,2.56,.29,3.85,.37s2.56,.1,3.83,.19c2.4,.16,4.78,.42,7.16,.77,4.58,.67,9.18,1.65,13.59,3.09,4.09,1.34,8.06,3.2,11.45,5.88,1.53,1.21,2.94,2.59,4.16,4.11,.65,.81,1.24,1.66,1.77,2.56,.26,.45,.51,.9,.74,1.36,.11,.23,.22,.47,.33,.7,.33,2.59,.45,2.07,.35-1.57l.03,2.66c.08-.74,.29-1.3,.85-1.78,.16-.14-.03-1.96-.05-1.96-.95,.02-.95,.74-.96,1.5-.02,1.41,0,2.84,.47,4.18,.09,.26,.1-.26,.1-.26,.1-.45,.03-1.1,.02-1.55-.01-1.05,0-2.14-.17-3.18-.09-.51-.18-1.01-.27-1.52l-.05-.12c-1.14,.04-.95-.13-1.45-.98-.26-.44-.54-.87-.84-1.29-.52-.74-1.08-1.44-1.68-2.11-1.29-1.45-2.76-2.74-4.34-3.86-3.41-2.42-7.35-4.03-11.35-5.18-4.31-1.24-8.75-2-13.2-2.45-2.38-.24-4.76-.37-7.15-.41-1.11-.02-2.24-.04-3.35,.03-1.3,.08-2.53,.38-3.82,.53-.01,0-.02,.26,0,.28,.47,.35,.95,.69,1.39,1.08-.01-.01,.02-.09,0-.1h0Z"/><path class="cls-4" d="M1158.9,418.26c.09-1,.18-2,.27-2.99,0,0,0-.11,0-.11-.46,.07-.91,.12-1.38,.08-.21-.02-.98-.16-.92-.09,.24,.26,1.12,.42,1.5,.54,.63,.19,1.28,.36,1.92,.51,2.15,.5,4.31,.96,6.49,1.35,3.82,.68,7.67,1.29,11.45,2.19,6.73,1.6,13.59,4.55,16.79,11.12,.5,1.04,.89,2.13,1.17,3.24,.14,.58,.23,1.16,.33,1.74,.13,.74,0,.04,.01-.11-.04,.33-.07,.66-.12,.99-.15,.93-.39,1.74-1,2.48-.25,.31-1.58,1.49-1.83,.99l.07,.35v-.1l.09,4.09c.06-1.21,.19-2.3,1.2-3.02,.08-.06,0-1.1-.03-1.1-.61-.08-.62-.03-1.34-.29-.03-.01-.07,1.16-.07,1.18,0,1.48-.02,2.99,.25,4.45l.04,.1c1.69-.92,2.24-2.85,2.62-4.61,.43-2.02,.38-4.14,.3-6.19-.16-3.89-1.18-7.59-3.76-10.59-4.86-5.65-13.18-6.95-20.16-7.89-2.66-.36-5.32-.77-7.98-1.04-1.36-.14-2.72-.26-4.07-.38-1.43-.13-2.9,.02-4.31-.18,0,0-.01,.18,0,.18,.38,.11,.76,.21,1.15,.24s1.05-.16,1.36,.09c.4,.33,0,2.22-.05,2.76,0,.01,0,.03,0,.04h0Z"/><path class="cls-4" d="M1162.19,426.89c-.54-1.52-.98-3.08-1.47-4.62v.37c1.35,2.06,2.84,3.95,4.66,5.62,1.72,1.57,3.74,2.85,5.75,4.02,4.05,2.37,8.36,4.25,12.48,6.48,4.72,2.55,8.86,5.61,12.32,9.74,.84,.99,1.64,2.02,2.27,3.16,.83,1.49,1.22,3.01,1.63,4.64,.27,1.07,.21-2.4,0-1-.04,.23-.06,.47-.11,.7-.12,.64-.3,1.26-.53,1.86-.37,.97-1.08,1.88-1.62,2.77-1.59,2.59-3.62,4.84-5.89,6.86-1.21,1.07-2.46,2.08-3.74,3.07-.53,.41-1.22,1.14-1.83,1.41-.21,.09-.42,.08-.65,.19-.48,.24-.9,.68-1.29,1.06-.23,.22-.06,2.07,.06,2.37,.35,.9,.68,1.81,1.05,2.71,.13,.32,.68,2.08,1.04,2.18,.24,.07,1.45-1.14,1.67-1.31,1.22-.97,2.43-1.95,3.59-2.99,2.28-2.04,4.5-4.33,6-7.02s2.31-6.25,2.5-9.4c.18-2.92,.31-6.33-.65-9.14-.86-2.5-2.85-4.53-4.72-6.32-2.08-2-4.35-3.81-6.8-5.34-4.44-2.76-9.31-4.72-13.99-7.02s-10.02-5.26-13.18-9.67c.05,.07-.02,.28,0,.37,.49,1.45,1.02,2.9,1.47,4.36,0-.02,0-.07,0-.1h0Z"/><path class="cls-4" d="M1154.31,464.42c2.28-.09,4.66,.56,6.83,1.18s4.33,1.18,6.44,1.96c4.25,1.58,8.35,3.64,12.06,6.27,1.64,1.16,3.22,2.45,4.44,4.06,.57,.74,1.05,1.56,1.39,2.43,.47,1.24,.36,2.08-.12,3.34-.76,2.01-2.07,3.78-3.43,5.42-1.22,1.47-2.53,3.05-4.11,4.14-1.72,1.19-3.59,2.3-5.45,3.27-1,.52-2.03,1-3.07,1.42s-2.54,.64-3.22,1.63l.28,4.69c0-.6-.01-1.2-.01-1.79,.01-.49-.19-1.62-.1-1.91-1.07,3.57-1.56,7.59,.75,6.47,.31-.15,.61-.39,.9-.58,.48-.31,.95-.64,1.41-.97,1.11-.79,2.19-1.64,3.22-2.53,1.94-1.66,3.67-3.44,5.24-5.45,3.01-3.84,6.93-7.88,8-12.82,.77-3.55-.08-7.16-2.6-9.8-3.25-3.4-7.9-5.83-12.21-7.57-2.62-1.06-5.39-1.81-8.16-2.35s-5.68-.25-8.49-.63c0,0,0,.1,0,.1h0Z"/><path class="cls-4" d="M1115.48,500.19c-1.54-2.39,4.99-2.85,5.87-2.97,2.72-.36,5.45-.66,8.19-.86,5.33-.4,10.67-.48,16-.11,4.98,.35,10.68,.52,15.03,3.26,1.83,1.16,3.33,2.9,4.26,4.85,.28,.58,.5,1.17,.66,1.79,.07,.26,.11,.52,.17,.78,.3,1.28,.21-3.23-.08-2.02-.25,1.05-.57,2.01-1.12,2.94-2.2,3.74-6.44,6.24-10.08,8.38-4.15,2.44-9.03,4.13-13.83,4.54-2.48,.21-4.95,.26-7.43,.33s-5.11-.25-7.65-.78c-5.09-1.06-10.01-2.74-15.1-3.81-11.37-2.4-23.62-1.52-34.74,1.72l.04,1.64c2.04-5.67,6.06-10.55,11.24-13.63,2.9-1.72,6.12-2.8,9.41-3.49,3.52-.74,7.15-.82,10.63-1.68,.06-.01,0-1.1-.03-1.1-3.54-.25-7.19,.32-10.65,1.04-3.29,.68-6.51,1.74-9.41,3.46-5.24,3.1-9.21,8.04-11.24,13.77-.06,.18,.06,1.63,.04,1.64,5.52-1.65,11.19-2.59,16.95-2.76,5.73-.17,11.54,.55,17.13,1.77s11.15,3.16,16.7,4.82c2.78,.83,5.54,1.87,8.37,2.48s5.57,.6,8.36,.12c5.3-.91,10.2-3.75,14.64-6.67,3.71-2.44,7.59-5.86,8-10.57,.19-2.22,.28-4.91-.35-7.08s-2.21-3.62-4.02-4.75c-4.67-2.91-10.64-2.69-15.94-2.64-6.63,.07-13.27,.44-19.84,1.34-1.69,.23-3.37,.49-5.04,.8-1.41,.27-3.01,.38-4.23,1.2-.91,.6-1.39,1.4-.9,2.36-.01-.03,.02-.08,0-.1h0Z"/><path class="cls-4" d="M1057.13,471.81c7.92-.32,15.98,.61,23.67,2.51,3.9,.96,7.73,2.19,11.46,3.66,.49,.19,1,.32,1.36,.71s.4,.85,.51,1.37c.22,1.07,.39,2.15,.51,3.23,.03,.32,.06,.63,.09,.95,.17,1.64,.11-1.3,.01-.54-.05,.36-.04,.73-.07,1.09-.07,.8-.19,1.6-.33,2.4-.34,1.89-.86,3.74-1.56,5.53-.78,1.96-2.21,3.8-2.73,5.81l.11,.99-.04-.77,.02,1.38,.22-.42c.09-.17-.13-1.26-.03-1.31-1.24,.57-.65,3.08-.56,4.15,.03,.28,.17,2.73,.57,2.77,.27,.03,.68-.89,.84-1.16,.62-1.11,1.12-2.29,1.57-3.48,1.81-4.77,2.34-9.74,2.28-14.82-.03-2.38-.09-4.78-.5-7.13-.16-.92-.32-1.95-.67-2.81-.23-.57-.37-.51-1-.71-.73-.23-1.46-.45-2.2-.66-5.03-1.45-10.19-2.42-15.4-2.93-6.06-.59-12.07-.49-18.11,.08,0,0,0,.1,0,.1h0Z"/><path class="cls-4" d="M1141.06,510.28c.04-.29,.1-.52-.03-.81-.17-.38-.57-.61-.96-.73-.1-.03-.21-.06-.31-.07-.13-.02-.23-.07-.35-.12-.19-.07-.45-.13-.66-.09-.43,.08-.76,.42-.95,.8-.33,.64-.25,1.43-.23,2.12,.02,.81,.03,1.62,.32,2.39,.38,1.02,1.21,1.96,2.31,2.18,1.04,.21,2.2-.18,2.78-1.1,.32-.51,.45-1.08,.47-1.68,.04-1.24,.03-2.52-.1-3.75-.04-.34-.1-.66-.24-.97-.8-1.79-3.75-2.06-4.83-.38-.14,.21-.22,.45-.28,.69-.04,.17-.05,.35-.06,.53-.04,.7-.01,1.41,0,2.11s.03,1.42,.1,2.12c.02,.2,.04,.39,.09,.58,.07,.27,.17,.54,.31,.78s.31,.48,.52,.67c.18,.17,.4,.36,.65,.41,.14,.03,.22-.07,.34-.14,.12-.07,.26-.13,.38-.21s.24-.14,.36-.23c.13-.09,.28-.15,.42-.23,.28-.17,.52-.38,.73-.61,.11-.12-.06-1.55-.04-1.55-.36,.02-.81-.05-1.12-.23-.22-.13-.41-.36-.58-.54-.21-.22-.34-.51-.56-.72-.29-.29-.63-.5-.91-.81-.26-.29-.47-.62-.59-.99l.02,.08c-.02-.07-.04-.14-.05-.21-.01-.06-.03-.24,0,0,.12,1.21,.15,2.43,.09,3.64,0,.07,0,.07,0,0,.02-.08,.03-.16,.05-.24l-.02,.08c.3-1.16,1.39-1.81,2.54-1.86s2.27,.47,2.63,1.58l-.02-.07c.02,.07,.04,.15,.06,.23,0,.04,.01,.08,.02,.11-.13-1.03-.16-2.06-.09-3.11,0-.09,0-.1,0-.01,0,.04-.01,.08-.02,.12-.01,.08-.03,.16-.05,.25l.02-.07c-.26,1-.96,1.97-1.85,2.49s-1.84,.46-2.63-.13c-.35-.26-.62-.61-.82-1-.1-.2-.18-.41-.24-.63-.02-.09-.04-.18-.05-.27-.12-.76-.04,2.12,.04,1.27,.05-.54,.22-1.1,.54-1.56,.25-.36,.65-.63,1.01-.85,.21-.13,.39-.26,.64-.28,.21-.01,.43,0,.63,.06,.16,.04,.31,.11,.44,.23,.06,.05,.11,.11,.14,.18s.1,.46,0,.47c0,0,0,.1,0,.1h0Z"/><path class="cls-4" d="M1139.69,512.81c-.07,.06-.11,.14-.13,.23-.01,.06-.02,.12-.02,.18,0,.18,0,.37,.02,.55,.02,.23,.1,.45,.26,.62,.06,.06,.18,.09,.26,.1,.11,0,.21-.02,.3-.07,.2-.11,.33-.32,.39-.53,.06-.2,.04-.41,.03-.61,0-.11-.03-.22-.1-.31,0,0,0,.05,0,.05,0,.04,0,.08,0,.12s0,.08,0,.12c0,.01,0,.04,0,.05,.04,.07,.07,.15,.08,.23v.03s0,.19,0-.13v-.14h0v.03s-.01,.06-.02,.09c-.04,.12-.12,.22-.22,.3-.11,.08-.24,.12-.37,.11-.07,0-.14-.03-.2-.06s-.11-.08-.17-.12c-.11-.09-.19-.18-.24-.32h0s0-.02-.01-.04c0,0-.01-.06,0-.03,.07,.38,0,.56,.01,.39,0-.02,0-.05,.01-.07,.02-.09,.06-.18,.12-.25,0-.01,0-.07,0-.07,0-.06,0-.12,0-.17s0-.12,0-.17c0,0-.01-.07,0-.07h0Z"/><path class="cls-4" d="M1126.7,510.67c.96-.26,1.88-.44,2.83-.78,1.06-.37,2.1-.73,3.2-.97,2.15-.48,4.35-.78,6.56-.72,4.44,.11,8.8,1.5,12.44,4.06l-.06-2.5c-1.63,4.49-6.68,5.66-10.96,5.34-2.44-.18-4.88-.67-7.25-1.3-1.26-.34-2.52-.71-3.75-1.12-1.16-.39-2.41-1.13-3.63-1.18l.05,2.06c.49-.35,.97-.69,1.49-.99,.03-.02,0-.49-.01-.49-.53-.16-1.02-.36-1.53-.58,.23,.1-.22,1.83,.05,2.06,.98,.82,2.25,1.23,3.43,1.67s2.48,.87,3.75,1.2c2.44,.64,4.95,1.13,7.47,1.29,4.31,.29,9.34-.95,10.95-5.45,.1-.29,.16-2.35-.06-2.5-3.66-2.53-8-3.84-12.44-3.87-2.14-.01-4.33,.23-6.37,.9-1.09,.35-2.19,.78-3.2,1.33-1.19,.65-2.03,1.48-2.96,2.45,0,.01,0,.1,0,.1h0Z"/><path class="cls-4" d="M1136.98,506.32c1.13-.28,1.82-.92,1.73-2.1,0,0,0,0,0-.01-4.32,.25-8.51,1.92-12.01,4.44-1.69,1.22-3.48,2.71-4.64,4.47-.22,.33-.71,2.01,.19,1.87,.01,0,0-.25,0-.25-1.14,.06,.06-1.5,.33-1.8,.64-.71,1.31-1.4,2.01-2.05,1.52-1.4,3.21-2.6,5.03-3.58s3.67-1.7,5.62-2.2c.47-.12,.94-.22,1.41-.33s1.07-.33,1.56-.3c.22-.12,.34-.06,.36,.19,.13,.14,.14,.29,.03,.45-.05,.21-.24,.43-.39,.58-.32,.33-.75,.58-1.22,.51v.1h0Z"/><path class="cls-4" d="M1144.96,505.86c.38-.21,1.07-.07,1.49,0,.49,.07,.97,.21,1.45,.37,.95,.32,1.82,.84,2.58,1.5,1.65,1.42,2.86,3.6,2.71,5.82,0,.07,.01,.18,0,.24,.15-2.07-.57-4.06-1.97-5.59-.78-.84-1.73-1.53-2.79-1.97-.53-.22-1.07-.37-1.64-.44-.3-.04-.6-.05-.91-.05-.29,0-.65,.11-.92,.03v.1h0Z"/><path class="cls-4" d="M990.31,449.89c-.21,2.52-.83,4.97-.99,7.51-.23,3.64-.26,7.29-.07,10.93,.17,3.16,.44,6.4,1.39,9.44,.37,1.19,.85,2.33,1.46,3.42,.35,.63,1.84,3.34,2.59,3.01l-.26-7.61c-.06,.19-1.05,2.54-1.57,1.27l.08,1.92,.04-.78c.02-.4-.15-1.22-.09-1.47-.15,.73-.14,1.51-.06,2.26,.17,1.57,1.22,2.84,1.78,4.28,.15,.39,.19-.39,.19-.4,.11-.74,.07-1.58,.06-2.32,0-.99-.03-1.99-.1-2.98-.04-.54,.02-1.28-.2-1.78-.45-1.03-1.3-1.76-1.94-2.68s-1.2-2.01-1.63-3.11c-.39-1-.69-2.03-.9-3.08-.2-.96-.1-1.95-.35-2.64,.06,.17,.02,.43,.03,.61-.04-.8,.09,.27,0-.21-.11-.56,0,.42,0-.15,0-.06,.02-.81,0-.51,.03-1.17,.11-2.33,.17-3.49,.2-3.8,.12-7.62,.35-11.42,0,0,0-.04,0-.03h0Z"/><path class="cls-4" d="M972.73,443.99c.26-.16,.24-.36,.14-.63-.71-1.82-1.81,1.72-1.92,2.07-1.01,3.37-1.64,6.79-1.8,10.31-.22,4.66,.05,9.38,.74,13.99,.32,2.11,.78,4.21,1.38,6.26,.29,.98,.62,1.95,.98,2.91,.19,.51,.61,2.31,1.17,2.41l-.19-7.64c-1.1,.26-.88,.33-1.33-.4,.06,.09-.06,.85-.06,.98,0,.38-.04,.87,.09,1.23,.62,1.76,1,3.47,1.32,5.32,.09,.5,.05,.46,.25,.38,.27-.11,.15-1.95,.15-2.22,.02-1.67,.06-3.51-.33-5.15-.32-1.35-.99-2.62-1.46-3.93s-.84-2.51-1.18-3.79c-.57-2.12-1.05-4.34-1.12-6.55-.09-2.6,.24-5.26,.66-7.82,.26-1.57,.6-3.12,1.03-4.65,.2-.72,.39-1.44,.59-2.16,.07-.26,.13-.53,.25-.77,.1-.29,.28-.5,.53-.63,.19-.15,.23-.02,.11,.37-.02,0,0,.1,0,.1h0Z"/><path class="cls-4" d="M949.39,446.9c.4-1.12-.06-2.2-1.02-2.92-.02-.01-.03,.17-.03,.14-.47,6.7,0,13.73,1.31,20.31,.65,3.26,1.54,6.47,2.66,9.61,.56,1.55,1.17,3.07,1.84,4.57,.34,.75,.69,1.5,1.05,2.23,.21,.44,.59,1.68,1.11,1.73l-.19-7.67c-1.18,.83-1.07,1.03-1.98,.28,.03,.02-.06,1-.06,1.11,0,.31-.06,.83,.11,1.1,1.01,1.57,1.58,3.25,2.03,5.05,.12,.5,.25-.55,.22-.39,.13-.72,.09-1.58,.08-2.3,0-1.52,.08-3.23-.33-4.72-.38-1.39-1.17-2.65-1.77-3.96s-1.13-2.56-1.63-3.86c-.98-2.52-1.8-5.11-2.48-7.72-1.28-4.95-1.98-9.8-1.89-14.91l-.04,.35c.92,.04,1.5,.83,.99,1.87-.01,.03,.01,.08,0,.1h0Z"/><path class="cls-4" d="M936.06,444.05c-1.16,5.05-1,10.37-.29,15.47,.41,2.89,1.02,5.77,1.95,8.54,1.1,3.29,2.12,6.51,3.94,9.48l-.2-8.33c-.53-.16-1.16,.51-1.79,.36-.7-.16-1.5-.74-2.15-1.05,.17,.08-.23,1.75,.05,2,.73,.67,1.48,1.39,2.03,2.22,.94,1.41,1.31,3.11,1.98,4.65,.17,.39,.2-.31,.22-.43,.15-.99,.08-2.05,.07-3.05s-.05-2.05-.13-3.08c-.04-.51,0-1.19-.27-1.64-1-1.58-2.05-3.15-2.98-4.77s-1.5-3.67-2-5.53c-1.27-4.76-1.14-9.65-.4-14.49,.02-.11-.04-.31-.02-.37h0Z"/><path class="cls-4" d="M921.51,443.47c2.25,9.74,5.23,19.46,9.79,28.39l-.13-5.43c-.11,.3-.61,1.06-.92,1.09l.18,2.87,.08-.97-.05,.28c.09-.19,.22-.33,.41-.42,.12-.08,.08-1.35-.03-1.39l-.59-.36s-.07,2.81,0,3.14c.09,.44,.23,1.13,.62,1.42,.44,.33,.55-.05,.65-.49,.22-.99,.11-2.19,.05-3.19-.04-.82-.07-1.6-.47-2.33-1.25-2.3-2.7-4.47-3.88-6.81-2.5-4.98-4.47-10.44-5.71-15.87,0,0,0,.07,0,.09h0Z"/><path class="cls-4" d="M930.12,509.7c9.21-18.71,31.71-25.82,51.17-26.07,12.17-.16,24.21,1.83,36.19,3.74,12.17,1.94,24.31,3.62,36.66,3.25,6.46-.19,12.9-.93,19.24-2.18,3.17-.63,6.25-1.5,9.37-2.29,1.57-.39,3.22-.96,4.82-1.19,.71-.1,1.46-.09,2.17-.13,.48-.02,.7,0,1.08-.24,.56-.35,1.05-1.22,1.47-1.73,.2-.24,.08-3.46-.09-3.52-.36-.12-.72-.27-1.09-.37-.58-.16-.57-.19-1.08,.21-.62,.49-1.28,.94-1.92,1.4-1.25,.89-2.72,1.45-4.12,2.06-2.72,1.17-5.58,2.01-8.43,2.79-5.68,1.56-11.46,2.63-17.32,3.2-12.19,1.19-24.41-.33-36.45-2.18-22.45-3.45-47.38-8.68-68.93,1.38-9.75,4.55-18.14,11.98-22.74,21.82,0,.01,0,.03,0,.04h0Z"/><path class="cls-4" d="M938.66,487.84c.43,.14,.64,.64,1.06,.78,.36,.12,.69,.23,1.02,.43,.64,.41,1.15,1.01,1.51,1.67,.19,.36,.33,.74,.42,1.14,.02,.1,.03,.22,.06,.32,.02,.17,.03,.11,.02-.17,0-.34,0-.34,0-.02-.02,.22-.05,.44-.08,.65-.17,1.06-.54,2.05-.82,3.08l.06,1.87c.29-1.48,.55-2.96,.85-4.44,.03-.14-.05-.31-.01-.44-.28,1.01-.6,2.01-.89,3.01-.08,.28-.02,.66-.01,.96,0,.22,.01,.45,.03,.67,0,.06,.05,.23,.03,.28,.46-1.14,.78-2.44,.9-3.67s.14-2.62-.14-3.83c-.2-.9-.7-1.74-1.39-2.35-.34-.3-.73-.54-1.16-.69-.27-.09-.47-.17-.71,0-.27,.19-.46,.47-.73,.64,0,0,0,.1,0,.1h0Z"/><path class="cls-4" d="M942.15,488.23c-.14-.44-.2-.91-.28-1.36-.09-.53-.22-1.07-.27-1.6v2.07c.11,.32,.09,.32,.32,.5,.09,.07,.18,.15,.28,.23,.2,.16,.41,.3,.59,.47,.37,.34,.7,.74,.97,1.17s.51,.93,.68,1.43c.08,.24,.15,.49,.2,.75,.03,.13,.04,.26,.07,.38,.1,.58-.11-1.04-.03-1.59-.05,.35-.13,.87-.3,1.27-.09,.21-.19,.4-.31,.59-.06,.1-.12,.19-.19,.28-.12,.15-.12,.18-.21,.04-.11-.16-.13-.52-.18-.72-.09-.29,.03,.04,0,.53,.02-.23,.02-.46,.04-.69,.08-.88,.25-1.74,.5-2.59,.05-.16,.01-.38,0-.54,0-.1-.07-.34-.04-.42-.41,1.01-.59,2.07-.62,3.16-.03,.85,0,1.7,.06,2.55s.1,1.81,.33,2.67l.03,.07c.53-.84,.86-1.8,.99-2.79,.09-.7,.09-1.41,.08-2.12-.01-.92-.03-1.87-.18-2.78-.27-1.66-1.29-3.71-3.01-4.27-.03,0-.04,.48-.04,.41-.02,.6-.11,1.32,.04,1.91,.04,.16,.11,.3,.2,.43,.16,.23,.22,.39,.29,.69,0-.02,0-.07,0-.1h0Z"/><path class="cls-4" d="M844.73,476.58c6.81,5.31,8.18,14.5,7.99,22.62-.24,9.95-1.89,20.01-4.18,29.68-2.3,9.72-5.49,19.24-9.49,28.4s-8.73,17.83-11.8,27.26c-3.26,10.06-4.29,21.25-.84,31.4,.02,.11,.07,.2,.17,.24,23.38-10.14,43.44-27.01,60.72-45.47,9.12-9.74,18-19.98,25.67-30.92,3.96-5.65,7.26-11.66,10.57-17.7s6.48-11.73,10.86-16.78c4.42-5.11,9.78-9.37,15.73-12.56s12.76-5.71,19.48-7.01c.12-.02,.02-1.27-.03-1.27-5.17,.26-10.27,1.16-15.06,3.17s-9.29,4.71-13.36,7.95c-8.64,6.88-14.08,16.14-19.29,25.69-2.88,5.28-5.89,10.45-9.37,15.37-3.46,4.88-7.21,9.55-11.04,14.15-7.01,8.44-14.34,16.62-22.15,24.33-7.85,7.76-16.2,15.04-25.16,21.49-4.38,3.15-8.9,6.11-13.58,8.81-2.4,1.38-4.83,2.69-7.3,3.94-1.11,.56-2.24,1.11-3.36,1.64-.63,.3-1.26,.59-1.89,.88-.24,.11-.51,.27-.76,.35-.7,.23-.72,.25-.95-.48-3.81-12.01,.45-25.11,5.28-36.19,2.43-5.57,5.14-11.02,7.56-16.59s4.49-11.17,6.28-16.91c3.6-11.57,5.95-23.53,6.99-35.61,.73-8.46,1.23-18.32-3.56-25.79-1.11-1.73-2.5-3.22-4.14-4.46,.04,.03-.07,.31,0,.37h0Z"/><path class="cls-4" d="M940.6,498.03c1.95-1.64,4.46-2.91,6.71-4.07s4.62-2.17,7.03-3.03,5.03-1.61,7.6-2.2,5.09-.79,7.68-1.14c11.14-1.48,22.43-.8,33.54,.61,12.35,1.57,24.57,4.15,36.96,5.4,5.47,.55,11.02,.92,16.53,.86,2.69-.03,5.38-.23,8.07-.37s5.43-.28,8.14-.79c5.8-1.09,11.47-3.23,16.68-5.96,1.15-.6,2.44-1.29,2.71-2.69,.14-.74,.06-1.58,.04-2.32-.01-.43,.15-1.55-.14-1.91-.44-.53-1.07,.62-1.13,1s-.17,1.6,.12,1.87c-.12-.11,.02-1.43-.03-1.69l-.05-.28,.03,1.93c.44-.33,1.03,.79,1.09,1l-.12-3.62v.2l.05-.29c-.38,.61-1.7,.96-2.33,1.31-1.18,.66-2.34,1.33-3.55,1.92-2.15,1.03-4.36,1.94-6.61,2.71-2.39,.82-4.84,1.48-7.29,2.1s-4.69,1.28-7.07,1.74c-10,1.91-20.48,1.33-30.54,.24-5.64-.61-11.28-1.29-16.89-2.14s-11.24-1.7-16.89-2.34c-10.15-1.16-20.39-1.6-30.54-.17-2.73,.39-5.41,1.13-8.08,1.82-2.51,.64-5,1.41-7.42,2.33s-5.03,2.09-7.42,3.39c-1.2,.65-2.37,1.35-3.52,2.09s-2.2,1.67-3.37,2.41c-.02,.01,.01,.1,0,.1h0Z"/><path class="cls-4" d="M467.13,395.02c5.93-.35,12.17,.74,18.01,1.69s12.1,2.39,18.05,3.96c11.8,3.11,23.41,6.87,35.22,9.92,12.43,3.21,24.94,5,37.72,6.02s25.72,2.12,38.4,4.62c24.89,4.9,48.72,13.86,72.63,22.1,24.36,8.39,49.08,15.72,74.25,21.27,12.67,2.79,25.42,5.16,38.22,7.25,6.34,1.03,12.7,1.97,19.08,2.81,3.25,.43,6.5,.83,9.75,1.21s6.25,1.08,9.41,1.45,6.53,.8,9.79,1.45c-.08-.02,.16-5.49-.13-5.48-3.29,.14-6.48,0-9.76-.23s-6.25-.13-9.39-.45c-6.5-.65-12.99-1.41-19.47-2.26-12.72-1.68-25.37-3.79-37.96-6.29-25.24-5.03-50.25-11.43-74.7-19.48-24.03-7.91-47.7-17.09-72.38-22.85-12.6-2.94-25.27-4.65-38.17-5.49-12.83-.84-25.66-1.75-38.26-4.42-23.78-5.04-46.67-14.78-71.1-16.57-3.07-.23-6.15-.13-9.22-.34,0,0,0,.11,0,.1h0Z"/><path class="cls-4" d="M844.79,476.38c3.1,3.29,5.08,7.89,6.17,12.22,1.26,5.02,1.42,10.26,.94,15.4-.96,10.3-4.23,20.38-7.71,30.07-3.67,10.23-7.9,20.23-11.91,30.33-3.69,9.29-7.82,18.51-8.86,28.56-.69,6.64-.42,13.99,1.96,20.3,.45,1.18,.95,2.41,1.67,3.44,.32,.46,.73,.95,1.28,1.13,.66,.22,.89-.42,1.15-.94,.44-.87,1.53-6.97,.11-6.72-.24,.04-.1,2.78,.07,3.03l.21-1.34,.12-1.57c-.29,.48-1.16-.66-1.38-.79-.49-.29-.89-.29-1.32-.73s-.72-.99-.99-1.54c-.99-2.01-1.73-4.17-2.07-6.38-.04-.27-.07-.53-.1-.8,.04,.46-.01-.22-.01-.26-.04-.84-.01-.34,0-.16,0-.28-.02-.56-.01-.84,0,.77,.03-.4,.04-.59,.04-.6,.09-1.21,.16-1.81,.3-2.59,.82-5.16,1.41-7.7,2.47-10.59,6.57-20.82,10.47-30.94,3.85-9.97,7.8-19.91,10.9-30.15,2.64-8.72,4.91-17.69,5.15-26.84,.11-4.19-.18-8.43-1.2-12.5-.53-2.12-1.27-4.18-2.24-6.14-1.08-2.17-2.48-3.97-3.99-5.84,0,0-.02,.08,0,.1h0Z"/><path class="cls-4" d="M367.67,303.3c3.49-1.56,8,1.36,11.06,2.86,3.28,1.61,6.5,3.33,9.68,5.13,6.4,3.62,12.56,7.66,18.45,12.07,11.67,8.73,22.24,18.92,31.39,30.27,5.28,6.55,10.06,13.48,14.35,20.71,0-.01,.02-.09,0-.12-7.33-12.53-16.31-24.09-26.55-34.38-10.42-10.47-22.17-19.63-34.89-27.16-3.59-2.12-7.26-4.1-11-5.94-1.87-.92-3.74-1.83-5.66-2.64-2.31-.98-4.36-1.4-6.83-.9-.01,0,0,.1,0,.1h0Z"/><path class="cls-4" d="M457.38,373.3c3.63,3.94,8.82,5.29,14,5.66,6.37,.45,12.87-.13,19.23-.55,14.47-.96,28.87-2.71,43.28-4.33,28.38-3.21,56.84-5.54,85.38-6.8s57.03-1.51,85.54-.76,56.99,2.5,85.38,5.26c28.24,2.74,56.39,6.47,84.38,11.13,3.57,.59,7.13,1.2,10.69,1.83,0,0,0-.12,0-.12-28.08-5.04-56.33-9.07-84.7-12.06-28.36-2.99-56.83-4.99-85.33-5.98-28.5-.99-57.04-.98-85.54,.04-28.5,1.02-56.97,3.04-85.33,6.07-14.27,1.53-28.52,3.33-42.81,4.63-7.15,.65-14.31,1.19-21.48,1.5-5.41,.23-11.07,.46-16.26-1.36-2.48-.87-4.65-2.25-6.43-4.17,0,0,0,.03,0,.04h0Z"/><path class="cls-4" d="M640.01,400.1c25.77,5.45,51.64,10.38,77.6,14.84s51.98,8.47,78.07,12.03c26.09,3.56,52.24,6.67,78.44,9.32s52.44,4.85,78.71,6.59c26.27,1.74,52.58,3.06,78.89,3.83,3.27,.1,6.55,.19,9.82,.27,0,0,0-.12,0-.12-26.32-.77-52.63-1.93-78.91-3.56-26.28-1.63-52.53-3.72-78.74-6.26s-52.37-5.54-78.48-8.99c-26.1-3.45-52.15-7.35-78.12-11.7-25.96-4.35-51.85-9.18-77.66-14.34-3.21-.64-6.42-1.29-9.62-1.94,0,0,0,.04,0,.04h0Z"/><path class="cls-4" d="M1064.22,474.89c-22.92,2.39-46.04,1.68-68.97-.15-23.07-1.84-46.07-4.57-69.06-7.23-45.88-5.31-91.71-11.18-137.5-17.24-25.81-3.42-51.6-6.92-77.38-10.52,0,0,0,.12,0,.12,45.99,6.42,92.02,12.58,138.08,18.44,45.75,5.82,91.56,11.76,137.49,15.94,25.71,2.34,51.6,3.51,77.32,.68v-.04h0Z"/><path class="cls-4" d="M891.36,347.91c-3.13,1.1-5.02,3.9-6.5,6.72-1.86,3.56-3.51,7.25-5.09,10.93-3.19,7.46-5.92,15.12-8.2,22.9-4.52,15.44-7.24,31.4-8.1,47.47-.48,9.01-.37,18.04,.35,27.03,0,.06,.02,0,.02-.02-1.24-16.23-.6-32.57,1.97-48.65s6.86-31.27,12.93-46.04c1.66-4.04,3.44-8.03,5.35-11.95,1.63-3.34,3.55-7.02,7.27-8.35,0,0,0-.04,0-.04h0Z"/><path class="cls-4" d="M892.54,366.04c-.65-1.2-1.91-.43-2.63,.31-1.26,1.29-1.55,3.26-2.05,4.92-1.31,4.33-2.58,8.68-3.76,13.05-2.36,8.68-4.4,17.45-5.88,26.33-2.76,16.54-3.5,33.52-.62,50.1,1.6,9.2,4.32,18.23,8.38,26.66,.01,.02,.02-.08,.01-.11-7.05-14.9-10.08-31.3-10.2-47.71-.12-17.3,2.96-34.46,7.28-51.16,1.18-4.56,2.44-9.1,3.77-13.62,.67-2.29,1.2-4.73,2.11-6.93,.44-1.06,2.57-3.65,3.58-1.79,0,0,0-.03,0-.04h0Z"/><path class="cls-4" d="M724.94,320.35c-1.38,1.74-2.78,3.38-3.93,5.29s-2.1,3.87-2.97,5.9c-1.75,4.1-3.17,8.35-4.5,12.61-2.81,9.02-4.92,18.26-6.32,27.6-2.74,18.25-2.78,36.92-.08,55.17,1.28,8.7,2.8,18.48,9.47,24.85,.01,.01,.05-.16,0-.2-5.98-5.84-7.73-14.41-9.01-22.35-1.47-9.08-2.26-18.27-2.36-27.46-.21-18.5,2.33-37.05,7.53-54.81,1.4-4.77,2.94-9.53,4.79-14.14,.91-2.25,1.92-4.47,3.13-6.58s2.51-4.22,4.26-5.78c.02-.02,0-.1,0-.1h0Z"/><path class="cls-4" d="M730.58,338.74c-4.23,5.25-6.1,11.81-7.34,18.33-1.47,7.71-2.46,15.53-3.12,23.34-1.32,15.64-1.14,31.41,.53,47.02,.94,8.84,2.37,17.62,4.26,26.3,.01,.05,.02-.07,.02-.09-6.64-30.63-7.42-62.47-2.22-93.38,1.27-7.56,2.98-15.37,7.88-21.49,0,0,0-.04,0-.04h0Z"/><path class="cls-4" d="M603.87,310.04c-5.96,.25-8.29,7.64-10.02,12.25-2.47,6.58-4.41,13.36-5.83,20.24-2.81,13.65-3.55,27.74-2.14,41.61,.69,6.8,1.79,13.94,6.07,19.5,0,0,.03-.12,0-.16-3.96-5.19-5.18-11.71-5.89-18.05-.78-6.96-1.01-13.98-.71-20.98,.59-13.57,3.22-27.03,7.73-39.84,1.14-3.23,2.25-6.6,4-9.55,1.5-2.52,3.67-4.83,6.77-4.99,0,0,0-.04,0-.04h0Z"/><path class="cls-4" d="M609.89,311.34c-1,.53-1.95,.96-2.79,1.73-.98,.91-1.74,2.03-2.36,3.22-1.22,2.35-1.88,4.94-2.5,7.5-1.67,6.79-2.94,13.67-3.82,20.6-1.71,13.45-1.99,27.07-.81,40.58,.67,7.68,1.82,15.31,3.44,22.85,.01,.05,.02-.07,.02-.09-5.61-26.61-5.48-54.27,.49-80.81,.68-3.01,1.31-6.09,2.47-8.96,1.02-2.53,2.93-5.9,5.87-6.5,.03,0,0-.11,0-.1h0Z"/><path class="cls-4" d="M492.09,337.35c-3.3,17.94,4.08,35.49,11.12,51.6,0,.01,.01-.05,0-.07-6.99-16.1-14.4-33.59-11.12-51.5,0,0,0-.05,0-.03h0Z"/><path class="cls-4" d="M500.72,337.3c-2.93,.21-2.58,4.03-2.47,6.14,.2,4.06,.66,8.11,1.35,12.11,1.44,8.35,3.92,16.52,7.35,24.27,1.93,4.36,4.18,8.57,6.71,12.61,0,0,.02-.09,0-.12-8.03-13.04-13.2-27.77-14.89-43-.21-1.89-1.99-12.99,1.95-11.91,0,0,.02-.11,0-.1h0Z"/><path class="cls-4" d="M929.37,505.61c1.53-6.52-7.17-8.9-11.82-10.3-7.97-2.4-16.28-3.67-24.6-3.79-4.74-.07-9.47,.26-14.16,.93,0,0,0,.08,0,.08,9.31-1.32,18.8-1.19,28.06,.42,4.6,.8,9.11,1.96,13.53,3.46,2.01,.68,4.1,1.33,5.88,2.5,2.09,1.38,3.94,3.92,3.09,6.58-.01,.03,.01,.07,0,.1h0Z"/><path class="cls-4" d="M927.47,506.97c-.07-3.09-4.25-4.09-6.56-4.94-4.61-1.71-9.31-3.24-14.09-4.39-9.4-2.26-19.15-3.18-28.74-1.59,0,0,0,.12,0,.12,8.89-1.44,17.93-.75,26.69,1.19,4.42,.98,8.77,2.23,13.06,3.68,2.02,.68,4.05,1.36,6.02,2.17,1.63,.67,3.59,1.72,3.62,3.73,0,.03,0,.12,0,.04h0Z"/><path class="cls-4" d="M888.94,559.26c-1.6-.5-3.13-1.26-4.73-1.77-1.48-.47-2.98-.87-4.5-1.18-3.24-.68-6.56-.99-9.87-.96-6.58,.07-13.07,1.56-18.99,4.42-.02,0,.02,.12,0,.12,5.93-2.82,12.43-4.34,18.99-4.44,3.24-.05,6.49,.24,9.67,.87s6.66,1.45,9.44,3.05c-.01,0,.01-.1,0-.1h0Z"/><path class="cls-4" d="M883.42,566.13c.43-.24,.69-.53,.7-1.03,.03-1.5-2.05-1.69-3.12-1.91-4.46-.89-8.97-1.47-13.52-1.7-9.01-.46-18.03,.34-26.83,2.3,0,0,0,.12,0,.12,7.62-1.7,15.44-2.49,23.25-2.36,3.82,.07,7.64,.35,11.44,.83,1.89,.24,3.78,.53,5.66,.88,.81,.15,1.79,.23,2.48,.72,.63,.45,.95,1.91-.07,2.04,0,0,0,.1,0,.1h0Z"/><path class="cls-4" d="M874.6,260.73c-2.98,4.83-9.21,7.08-14.42,8.38-6.79,1.69-13.79,2.7-20.71,3.69-14.81,2.11-29.75,3.29-44.71,3.51-8.45,.13-16.91-.05-25.35-.53,0,0,0,.08,0,.08,15.1,.87,30.25,.78,45.34-.28,7.46-.53,14.91-1.29,22.32-2.28s14.16-1.99,21.11-3.52c3.16-.7,6.32-1.63,9.22-3.07,1.41-.7,2.76-1.52,3.98-2.51s2.19-2.18,3.23-3.37c.02-.02-.02-.08,0-.1h0Z"/><path class="cls-4" d="M875.94,268.04c-2.48,4.47-7.98,6.53-12.7,7.49-5.92,1.21-12.1,1.3-18.11,1.69-14.47,.92-28.95,1.67-43.43,2.26-8.11,.33-16.23,.61-24.34,.83v.08c14.49-.38,28.98-.93,43.46-1.64,7.2-.35,14.4-.75,21.59-1.19,6.33-.38,12.8-.48,19.06-1.55,2.79-.48,5.57-1.19,8.12-2.44,2.68-1.31,4.53-3.14,6.36-5.44,.02-.02-.02-.08,0-.1h0Z"/><path class="cls-4" d="M1183.21,436.89c1.31,7.88-.5,16.02-4.97,22.64-.01,.02,0,.07,0,.08,4.52-6.62,6.29-14.85,4.97-22.75,0-.02,0,.02,0,.03h0Z"/><path class="cls-4" d="M1187.14,439.52c3.12,4.11,.34,10.23-1.6,14.27-1.78,3.73-3.98,7.24-6.51,10.5-.01,.02,0,.08,0,.08,3.39-4.32,6.31-9.16,8.21-14.33,1.31-3.59,1.82-7.2-.1-10.63,0,0-.02,.08,0,.1h0Z"/><path class="cls-4" d="M1157.62,466.96c.63,.02,2.47-.24,2.82,.38,.15,.26,.06,.94,.07,1.24,.01,.36,.02,.73,.01,1.09,0,.62-.04,1.25-.09,1.87-.16,1.93-.54,3.84-1.12,5.68-1.05,3.32-2.76,6.4-4.98,9.07-.01,.02,0,.08,0,.08,4.56-5.32,6.71-12.43,6.07-19.38h0l-2.79-.07s0,.04,0,.04h0Z"/><path class="cls-4" d="M1164.65,467.57c.96,7.95-2.35,16.06-8.51,21.16-.03,.02,.01,.12,0,.12,6.26-5.09,9.49-13.31,8.51-21.3,0-.03,0,.01,0,.02h0Z"/><path class="cls-4" d="M1158.2,393.63c6.45,4.77,13.69,10.36,15.24,18.73,0,.03,0-.05,0-.06-1.55-8.37-8.79-13.96-15.25-18.71,0,0,0,.03,0,.04h0Z"/><path class="cls-4" d="M1165.11,394.7c2.06,.98,3.95,2.85,5.52,4.48s2.98,3.44,4.18,5.36c2.59,4.16,4.2,8.87,4.68,13.74,0,.08,.02-.04,.01-.06-.44-4.59-1.88-9.03-4.23-13-1.24-2.1-2.71-4.06-4.4-5.83-1.77-1.86-3.8-3.2-5.77-4.8,0,0-.02,.09,0,.1h0Z"/></g></svg>