<?xml version="1.0" encoding="UTF-8"?><svg id="Layer_1" xmlns="http://www.w3.org/2000/svg" viewBox="0 0 1500 750"><defs><style>.cls-1{fill:#cbd3ce;}.cls-2{fill:#c4a181;}.cls-3{fill:#231f20;}.cls-4{fill:#84958a;}</style></defs><g><path class="cls-2" d="M613.99,469.64c-.52-1.48,2.09-5.04-.51-5.99-.88-.33-2.1-.26-3.04-.34-2.14-.19-4.32-.12-6.46-.12-4.41,0-8.81,.22-13.21,.5-.46,.03-.59,10.16,.25,10.31,11.29,1.92,22.54,4.11,33.71,6.63l-.26-10.46c-14.05-1.98-28.75-4.16-40.62-12.54l.26,10.46c5.05,1.91,10.32,3.13,15.7,3.59,2.56,.22,5.47,.47,7.92-.42,2.83-1.03,5.38-2.49,8.08-3.77,.35-.16,.09-3.82-.09-3.83-2.67-.22-5.34-1.02-7.93-1.67s-5.49-.53-8.23-.77c-5.38-.46-10.65-1.68-15.7-3.59-.21-.08-.33,4.85-.32,5.24,.03,1.23,.08,2.47,.22,3.7,.04,.37,.02,1.29,.35,1.52,11.87,8.38,26.57,10.57,40.62,12.54,.36,.05,.3-4.84,.29-5.24-.02-.56,.15-5.06-.54-5.22-11.16-2.53-22.4-4.71-33.71-6.47l.25,10.31c4.29-.34,8.6-.58,12.9-.86,2.04-.13,4.11-.14,6.15-.33,1.09-.1,2.17-.27,3.26-.39,.4-.05,1.28-.34,1.6-.07l-.32-6.02c-.05,1.43-.35,2.07-.61,3.27,0,0,0,.03,0,.03h0Z"/><path class="cls-4" d="M1198.41,265.27s-13.86,10.48-28.12,21.62c-14.26,11.14-109.3,61.44-111.56,60.55-2.26-.89-65.47,28.1-65.47,28.1,0,0-64.61-8.13-117.31-13.85-.15-.11-.29-.21-.45-.31-1.08-.69-2.47-1.14-3.66-1.64-2.2-.92-4.21-2.13-6.23-3.38-2.67-1.66-5.31-3.43-7.73-5.45-.65-1.35-1.42-2.63-2.27-3.85-2.12-4.55-3.84-9.28-5.11-14.15,.04-.13,.07-.26,.11-.39,.02-.02,.04-.04,.06-.07,.22-.27,.28-.73,.3-1.13,.35-1.1,.74-2.18,1.14-3.26,.73-1.99,1.07-3.66,1.06-5.78,0,0,0,.05,0,.02,0-.19-.73-5.66-.81-5.55-.11,.15-.18,.38-.26,.55-.18,.4-.34,.81-.5,1.21,.02-.73,.02-1.35-.06-1.27-.23,.25-.34,.73-.46,1.03-.24,.6-.45,1.22-.65,1.83-.25,.76-.45,1.53-.64,2.3-.33,.22-.66,.45-.98,.68,.32-1.42,.65-2.84,1.01-4.25,.45-1.76,.18-3.95,.12-5.74-.03-1-.08-2-.17-3-.02-.22-.33-1.45-.29-1.52-1.8,2.99-3.38,6.09-4.75,9.26-2.24,.33-4.36,1.36-6.36,2.67-1.76,.96-3.36,2.29-4.95,3.48-4.43,3.32-8.65,6.91-12.69,10.68-.73,.64-1.46,1.28-2.19,1.92-4.43,3.95-8.77,8.02-13.07,12.12-2.04,1.94-4.13,3.84-6.1,5.86-.4,.41-.78,.83-1.13,1.25-.44-.01-.87-.02-1.32-.04-13.34-1.41-26.75-2.15-40.17-2.36-13.9-.22-27.88,.09-41.75,1.14-4.57,.35-9.12,.8-13.65,1.32-45.31,1.1-89.42,3.64-114.84,7.77-10.57,1.72-23.44,4.2-37.51,7.13-5.15-.86-10.64,.1-15.72,.89-7.33,1.14-14.6,2.57-21.83,4.22-6.25,1.43-12.46,3.03-18.64,4.74-.69-.85-1.28-1-2.35-1.05-1.92-.09-3.79,.38-5.64,.82-4.8,1.16-9.55,2.53-14.24,4.09-7.96,2.66-15.72,5.9-23.22,9.66-27.24,6.65-49.45,12.31-58.22,14.58-7.09,1.84-18.47,5.67-30.74,10.28-.37,.05-.74,.1-1.11,.16-8.92,1.43-17.68,3.87-26.05,7.25-6.49,2.62-12.73,5.83-18.66,9.55-3.11,1.08-6.59,2.39-7.89,5.46-.29,.67-.37,1.55-.37,2.45-2.85,2.09-4.14,3.77-3.23,4.84,5.3,6.25,25.06,15.16,33.84,16.22,8.78,1.06,33,6.46,33,6.46,0,0-13.89,3.98-.73,7.31,13.15,3.33,37.48,7.48,61.79,5.3,24.31-2.19,52.44,3.69,71.83-5.39,8.69-4.07,31.29-8.96,53.57-13.11,.55,.17,1.11,.33,1.66,.49,3.33,2.06,6.85,3.63,10.49,4.84,.04,.31,.12,.59,.28,.7,8.19,5.43,18.15,5.74,27.65,5.72,.04,0,.09,0,.13,0,3.32,.67,6.64,1.35,9.96,2,6.3,1.25,12.61,2.47,18.91,3.67,3.05,.58,6.11,1.16,9.16,1.73,3.14,.59,6.57,1.67,9.77,1.6,.13-.2,.19-.43,.17-.69,.14-1.2,.17-2.41,.15-3.62,.5-.07,1-.14,1.49-.24,.22-.04,.29-.86,.31-1.84,.15,.13,.29,.26,.44,.38,.43,1.68,1.19,3.3,1.97,4.77l.14,.18c.52-.56,1-1.16,1.5-1.75,.29-.35,.28-1.16,.31-1.54,.09-1.22,.09-2.48,.05-3.7-.04-1.23-.08-2.47-.23-3.69-.05-.43-.04-1.21-.38-1.52-4.89-4.45-10.06-8.59-15.47-12.39-2.65-1.86-5.38-3.6-8.18-5.25-1.09-.65-2.2-1.27-3.32-1.85,23.02-3.46,70.61-8.3,83.92-10.72,4.25-.77,9.93-2.1,16.43-3.72,.3,0,.59-.01,.88-.03,.27-.01,.55-.05,.82-.06,3.66,1.89,7.29,3.38,11.26,3.82,.93,1.03,1.85,2.07,2.78,3.09,1.87,2.03,3.57,2.48,6.25,1.68,3.63-1.08,7.2-2.41,10.73-3.81,1.58,.41,3.17,.79,4.78,1.11,.12,.02,.18-.88,.21-1.93,6.84-1.3,13.41-3.86,19.15-7.87,1.3-.9,2.54-1.92,3.78-2.96,1.27-.44,2.55-.88,3.82-1.32,.26-.09,.37-.82,.39-1.71,1.58-.79,3.17-1.57,4.75-2.36,.05-.03,.09-.12,.12-.25,1.26-.68,2.52-1.36,3.75-2.1,.23-.14,.21-1.51,.21-1.53,.01-.23,0-.47,.01-.7,23.91-3.67,60.19-9.5,76.77-5.52,.03,.73,.08,1.33,.08,1.52,.01,.38,.19,5.27,.47,5.22,1.43-.23,2.93-.69,4.21-1.46,1.9-.66,3.8-1.32,5.71-1.98l.6,.19c.59,.47,1.1,1,1.4,1.59,.02,.26,.03,.51,.06,.77,.01,.14,.22,1.52,.28,1.49,1.1-.76,2.21-1.48,3.33-2.2q2.43,.79,2.44,.79s23.88-10.7,23.89-10.7c0,0-2.81-.16-6.85-.38,1.72-.73,3.46-1.42,5.2-2.08,2.35-.82,4.7-1.63,7.05-2.45,.39-.13,.36-2.12,.29-3.62,19.68-2.62,41.31-4.11,52.99-.06,24.6,8.52,61.11,57.99,61.77,38.63,.66-19.35-13.57-19.69,10.6-39.96,24.18-20.27,80.28-61.95,104.92-72.18,24.64-10.23,35.35-3.72,33.3-8.04-2.04-4.32,5.79-19.82,10.14-38.15l4.35-18.32Zm-355.52,75.81c.38-.39,.76-.78,1.14-1.18-.09,.96-.16,1.92-.23,2.88-.4,.76-.82,1.51-1.27,2.24-.06,.1-.14,.2-.2,.3,.22-1.41,.41-2.83,.56-4.24Zm-11.05,14.96c.21-.03,.42-.05,.63-.08-.02,.48-.03,.96-.03,1.44-.5-.04-1.01-.07-1.52-.11,.3-.42,.61-.84,.92-1.25Zm9.85,1.23c.17-.25,.33-.51,.5-.76,.55,.12,1.1,.26,1.64,.4h0c1.3,.36,2.58,.78,3.84,1.26,.04,.2,.08,.4,.13,.6-2.33-.23-4.59-.44-6.77-.64,.21-.29,.45-.57,.65-.86Zm39.62,52.6h-.02l.07-.02-.05,.02Zm-31.18-69.02c-.27-.69-.51-1.39-.7-2.11-.03-.13-.06-.25-.08-.38,.18-1.09,.38-2.18,.62-3.25,0,.22,0,.44,0,.66-.03,1.69,0,3.39,.18,5.08Zm-252.03,117.21c.48,.38,.96,.76,1.44,1.12h-.03c-.94-.33-1.89-.62-2.85-.9,.49-.08,.97-.15,1.44-.23Z"/><path class="cls-1" d="M303.29,450.29c1.95,1.31,4.49,2.05,6.69,2.83s4.55,1.51,6.86,2.13c4.64,1.25,9.37,2.16,14.13,2.84,9.57,1.37,19.27,1.74,28.92,1.69,.02,0,.02-.39,0-.39-9.65-.71-19.32-1.05-28.94-2.22-4.75-.58-9.47-1.38-14.12-2.53-2.31-.57-4.6-1.22-6.86-1.98-1.13-.38-2.25-.78-3.37-1.2s-2.17-1-3.31-1.24c0,0,0,.05,0,.05h0Z"/><path class="cls-1" d="M302.7,449.74c-.18-.43-.31-.9-.51-1.32-.5-1.04-.09,.32,.06,.6,.36,.69,1.07,1.18,1.73,1.55,1.46,.83,3.14,1.19,4.76,1.53,4.4,.94,8.82,1.78,13.24,2.59,8.68,1.59,17.37,3.63,26.14,4.69,4.89,.59,9.82,.8,14.69,.04,.33-.05,.06-4.23-.1-4.22-.56,.02-.9,.14-1.48,.05-.5-.08-.99-.16-1.49-.27,0,0-.05,.67,.02,.74,1.11,1.19,2.07,2.42,3.05,3.71l-.1-4.22c-8.34,1.35-16.81-.18-25.1-1.26s-16.83-2.5-25.26-3.67c-2.08-.29-4.22-.48-6.27-.96-.79-.19-1.59-.43-2.31-.81-.4-.21-1.62-1.41-1.94-1.25-.07,.04-.04,.7,.02,.76,.42,.43,.64,1.3,.84,1.85,0-.02,.01-.09,0-.12h0Z"/><path class="cls-1" d="M355.76,443.26c-.59-.63-.98-1.44-1.58-2.05-.24-.24-.32-.39-.69-.28-.21,.07-.36,.18-.49,.36-.36,.51-.24,1.4-.19,1.99,.2,2.35,2.14,4.27,3.95,5.59,4.1,3,11.15,4.09,15,.05,2.2-2.31,2.6-5.38,2.04-8.37v1.87c.06,.37,.14,.74,.21,1.11,.04,.23,.1,1.07,.1,.09s-.03-.12-.08,.12c-.03,.16-.07,.33-.11,.49-.23,.86-.6,1.7-1.09,2.45-.91,1.41-2.26,2.51-3.85,3.04-2.82,.95-6.97,.99-9.17-1.32,.12,.13-.11,.77,.02,.98,1.28,2.04,3.24,3.97,5.68,4.48,2.2,.46,4.36-.17,6.02-1.69,1.57-1.43,2.46-3.41,2.72-5.5,.16-1.3,.14-2.63,.05-3.94-.04-.52,0-2.02-.54-2.32,.22,.12-.32,1.81,.05,2.04,.98,.61-1.25,2.81-1.68,3.16-1.05,.83-2.17,1.54-3.4,2.08-2.4,1.07-5.06,1.27-7.64,.84-2.44-.41-4.78-1.48-6.56-3.21-.76-.74-1.89-1.88-1.58-3.05,.13-.49,.62-1.19,1.12-.93,.28,.15,.58,.68,.79,.92,.31,.37,.63,.72,.9,1.12-.02-.03,.02-.1,0-.13h0Z"/><path class="cls-1" d="M355.78,440.21c.16-.32,.38-.6,.59-.89,.17-.24,.33-.6,.59-.72,.05-.02,.02-.63-.02-.63-.27-.05-.41-.07-.61,.12s-.35,.46-.46,.7c-.28,.59-.38,1.28-.42,1.93-.14,1.98-.11,4.21,.61,6.09,.54,1.41,1.5,2.61,2.85,3.3s2.85,.72,4.27,.18c1.74-.66,3.2-1.99,4.11-3.6,.07-.12,.03-.36,.02-.49,0-.06-.07-.46-.05-.49-1.68,1.73-4.43,1.81-6.62,1.19-1.26-.36-2.38-.75-3.32-1.72-.85-.86-1.45-1.95-1.67-3.15-.15-.84,0,1.11,0,1.08,.03-.16,.03-.33,.05-.49,.05-.39,.15-.77,.25-1.14,.27-.98,.66-1.93,1-2.88l-.03-.61c-.25,.69-.7,1.54-1.17,2.11-.02,.03,.02,.1,0,.13h0Z"/><path class="cls-1" d="M312.49,454.88c25.83,3.04,51.8,4.95,77.8,5.7,25.98,.76,52.01,.87,77.99-.24,7.23-.31,14.45-.71,21.67-1.2,3.69-.25,7.38-.52,11.06-.82,1.8-.14,3.6-.29,5.4-.45,.9-.08,1.81-.1,2.7-.23,1-.14,1.97-.51,2.93-.8l-.16-4.91c-.42,1.15-1.49,1.8-2.68,1.86-.48,.02-.97-.04-1.41-.24-.18-.08-.36-.18-.51-.31-.35-.31-.45-1.05-.42,.04,0-.07-.06-1.2-.1-1.19-.68,.19-1.31,.46-1.97,.67-.57,.19-1.38,.12-1.98,.17-1.49,.12-2.97,.25-4.46,.36-2.72,.22-5.45,.43-8.17,.63-5.45,.4-10.9,.77-16.36,1.1-10.99,.67-21.99,1.2-33,1.58-22.01,.77-44.04,.98-66.07,.63-12.42-.2-24.83-.58-37.24-1.14-.01,0-.1,1.2,.03,1.24,19.06,6.3,38.99,9.84,58.98,11.38s40.33,1.19,60.46,.13c11.39-.6,22.79-1.28,34.15-2.26,.2-.02,0-4.32-.11-4.32-18.72,.55-37.45,.78-56.18,.67-9.32-.05-18.64-.19-27.96-.41-8.79-.21-17.6-.41-26.36-1.19-9.74-.87-19.54-2.41-28.73-5.86-.02,0-.08,1.99-.07,2.15,0,.26-.1,2.04,.18,2.14,9.7,3.75,19.97,4.73,30.26,5.4,10.96,.7,21.92,1.47,32.9,1.63,22.36,.32,44.73,.38,67.09,.18,6.23-.06,12.47-.14,18.7-.29,3.16-.08,6.32-.16,9.47-.25s6.35,0,9.47-.33l-.24-9.93c-2.98,3.04-8.08,3.28-12.04,4.05-4.91,.95-9.83,1.89-14.75,2.8-2.44,.45-4.97,.76-7.38,1.35s-4.96,.63-7.39,.89c-4.93,.52-9.87,1.01-14.8,1.49-19.75,1.9-39.52,3.45-59.32,4.66-5.6,.34-11.26,.63-16.82,1.35-2.69,.35-5.45,.42-8.17,.62-2.9,.21-5.76,.39-8.67,.36-.07,0-.1,2.64,.06,2.64,3.12,.16,6.27,.44,9.39,.45s6.25,.02,9.38,0c6.25-.02,12.5-.09,18.75-.21l-.1-3.87c-12.37,1.41-25.31,1.42-37.51-1.25,.19,.04-.49,4.46,.12,4.78,4.48,2.34,9.47,3.67,14.43,4.55,1.18,.21,2.37,.35,3.55,.55,1.33,.23,2.63,.29,3.99,.34,2.62,.09,5.24,.15,7.86,.22,11.16,.26,22.34,.46,33.5,.15,22.32-.6,44.62-1.86,66.86-3.78,12.52-1.08,25.03-2.34,37.5-3.86,.53-.06-.37-10.25-.25-10.27-22.17,2.7-44.4,4.87-66.69,6.32-11.14,.73-22.29,1.29-33.45,1.68-11.16,.4-22.31,.87-33.47,1.18-3.14,.08-6.28,.16-9.42,.21-1.32,.02-2.65,.05-3.97,.05-1.49,0-2.92,.15-4.42,.21-5.55,.2-10.95-.24-16.14-2.34l.12,4.78c6.22,.68,12.45,1.32,18.71,1.41,6.28,.09,12.55-.28,18.78-1.08,.25-.03,.03-3.87-.1-3.87-6.25,.21-12.49,.36-18.74,.47-3.04,.05-6.08,.09-9.13,.12-3.2,.02-6.41,.28-9.61,.4l.06,2.64c9.88-.83,19.84-.18,29.73-.69,9.9-.51,19.8-1.12,29.69-1.82s19.78-1.47,29.65-2.34c4.94-.43,9.87-.89,14.81-1.36,2.47-.24,4.93-.48,7.4-.73s4.92-.33,7.4-.42c5.59-.19,11.19-.41,16.78-.66,2.62-.12,5.25-.2,7.87-.37,2.2-.14,4.43-.47,6.19-1.9,.19-.15,.14-1.43,.14-1.46,.03-1.17,.02-2.34-.01-3.51-.01-.4-.02-4.94-.37-4.96-2.81-.12-5.67,.13-8.48,.22s-5.65,.17-8.47,.24c-5.48,.15-10.97,.3-16.45,.47-11.13,.33-22.27,.6-33.4,.8-11.22,.2-22.44,.34-33.66,.41-5.57,.04-11.13,.05-16.7,.26s-10.98,.41-16.47,.57c-11.41,.34-23.21-.08-34.13-3.69l.11,4.3c16.75,5.36,34.13,6.32,51.59,6.81,18.64,.52,37.29,.71,55.94,.57,10.57-.08,21.14-.27,31.71-.56l-.11-4.32c-20.23,1.7-40.39,3.84-60.7,4.51-20.01,.66-40.12,.13-59.93-2.87-11.17-1.7-22.15-4.26-32.88-7.82l.03,1.24c22,1.01,44.03,1.46,66.06,1.34,22.03-.12,44.05-.8,66.04-2.05,6.12-.35,12.23-.74,18.34-1.17,3.14-.22,6.28-.46,9.41-.7,1.49-.12,2.97-.24,4.46-.36,.82-.07,1.66-.2,2.48-.21s1.65,.21,2.49,.29l-.11-1.51c0,1.62,.09,3.13,1.56,4.11,1.09,.73,3,1.13,3.77-.24,.25-.44,.12-4.99-.12-5-1.71-.12-3.22-.09-4.92,.13s-3.27,.42-4.91,.62c-3.27,.41-6.55,.79-9.82,1.16-6.39,.72-12.78,1.37-19.18,1.95-12.95,1.18-25.94,2.07-38.93,2.68-25.98,1.22-51.97,.83-77.94-.66-14.61-.84-29.2-2.04-43.76-3.6-.02,0-.06,.73,.02,.74h0Z"/><path class="cls-1" d="M510.43,468.92c-.84-.78-1.09-2.14-.76-3.22,.26-.87,.49-.63,1.19-.61,.46,.01,.91,.01,1.37,.01,1.9-.01,3.8-.14,5.69-.38,3.7-.47,7.32-1.39,10.8-2.71,.03-.01,0-.35,0-.35-7.34-.09-14.69-.2-22.03-.29-.02,0-.03,.72,.02,.72,6.6,.34,13.18-.24,19.7-1.3,.08-.01,.03-1.3-.03-1.41-.84-1.42-2.24-2.24-3.9-2.21-.05,0-.07,1.71,.05,1.86,1.45,1.9,2.92,3.52,4.88,4.92,1.83,1.3,3.82,2.32,5.95,3.04,4.23,1.43,8.89,.89,13.1-.35,.08-.02-.05-.88-.02-.88-4.47,.84-8.91-.18-13.15-1.62-3.99-1.35-8.02-3.76-10.8-6.97l.05,1.86c1.57-.19,3.01,.43,3.89,1.76l-.03-1.41c-6.42,1.69-13.05,2.22-19.68,2l.02,.72c7.34-.03,14.68-.06,22.02-.07v-.35c-4.7,1.84-9.64,2.97-14.67,3.27-1.19,.07-2.47-.08-3.65,.08-.52,.07-.58,.13-.73,.65-.07,.23-.11,.47-.13,.71-.08,1.02,.32,1.87,.89,2.69-.02-.02,.02-.1,0-.13h0Z"/><path class="cls-1" d="M608.88,445.58l2.96-.45c.79-.12,1.67-.38,2.47-.22,.49,.1,1.03,.23,1.49,.39,.59,.2,.86,.19,1.49,.16,1-.05,1.97-.09,2.96-.21,3.79-.46,7.56-1.05,11.34-1.64,7.4-1.16,14.79-2.42,22.17-3.68l44.84-7.65,89.67-15.3,25.13-4.29,12.32-2.1c4.27-.73,8.59-1.31,12.81-2.28l-.09-3.6c-1.99,.55-3.82,1.51-5.74,2.24s-4.05,1.02-6,1.52c-3.92,.99-7.83,1.97-11.76,2.92-.05,.01,.02,.44,.01,.44,3.92-.75,7.85-1.47,11.78-2.17,1.91-.34,3.85-.83,5.77-1.04s4.03,0,6.03-.31c.28-.04-.05-3.6-.09-3.6-3.8,.42-7.57,1.19-11.33,1.83l-11.33,1.92-22.17,3.76-44.84,7.59-89.67,15.19c-8.38,1.42-16.77,2.8-25.13,4.33-4.11,.75-8.23,1.45-12.31,2.34-.98,.22-1.98,.39-2.95,.67-.49,.14-.98,.3-1.47,.45-.79,.24-1.25,.53-1.96,.96-1.03,.63-1.76,.89-2.94,1.12l-3.45,.65s0,.05,0,.05h0Z"/><path class="cls-1" d="M635.55,449.78c0,.63-.77,.52-1.07,.23-.78-.75,.27-.78,.74-.65,.31,.09,.67,.38,.97,.43,.38,.06,1.07-.2,1.45-.26,.97-.17,1.94-.34,2.9-.52,3.56-.67,7.09-1.49,10.64-2.22,7.34-1.51,14.7-2.96,22.05-4.43,14.56-2.91,29.15-5.63,43.78-8.18,29.35-5.11,58.83-9.5,88.39-13.19,16.55-2.06,33.13-3.88,49.71-5.59,.24-.03,.03-4.43-.11-4.43-2.12,.05-4.26,.43-6.36,.68s-4.24,.76-6.34,1.45c-.03,.01-.02,.58,.01,.59,2.13,.62,4.2,1.05,6.41,1.24s4.27,.5,6.39,.47l-.11-4.43c-31.06,2.89-62.04,6.84-92.89,11.47-30.68,4.6-61.25,9.97-91.65,16.13-8.58,1.74-17.13,3.65-25.66,5.58-2.1,.48-4.2,.96-6.28,1.51-.48,.13-.97,.26-1.45,.38-.75,.2-1.07,.33-1.59,.92s-1.02,1.21-1.22,1.98c-.07,.29-.18,.62-.03,.9,.25,.49,1.3,.69,1.34-.01,0-.03-.01-.17-.01-.06h0Z"/><path class="cls-1" d="M625.92,437.86c-1.74-.17-3.47-.33-5.21-.5-1.83-.18-3.42-1.07-5.23-1.3l.05,2.22c9.65,.16,19.23-2.06,28.65-3.87,9.69-1.86,19.38-3.67,29.09-5.42,19.22-3.46,38.49-6.68,57.78-9.75,19.39-3.09,38.83-5.94,58.29-8.57s38.76-5,58.18-7.16c9.81-1.09,19.62-2.12,29.44-3.1s19.47-1.71,29.18-2.74c2.45-.26,4.9-.43,7.29-1.01,.31-.07-.1-3.04-.07-3.04-2.59,.44-5.19,.85-7.79,1.27-.04,0-.02,.73,.02,.74,2.62,.34,5.24,.67,7.84,1.03l-.07-3.04c-4.82-.33-9.81,.45-14.61,.88s-9.73,.9-14.59,1.36c-9.82,.95-19.64,1.95-29.45,3.02-19.43,2.11-38.83,4.44-58.2,7s-38.91,5.38-58.31,8.41c-19.31,3.02-38.58,6.32-57.81,9.85-9.71,1.78-19.41,3.62-29.1,5.52-9.52,1.86-19.01,4.17-28.62,5.45-2.4,.32-4.79,.68-7.2,.94-.17,.02-.08,2.22,.05,2.22,1.76,.01,3.39-.66,5.18-.58s3.47,.15,5.2,.22c0,0,0-.05,0-.05h0Z"/><path class="cls-1" d="M872.72,405.5c-33.16,4.74-66.36,9.22-99.59,13.42-4.65,.59-9.29,1.17-13.94,1.74-4.8,.6-9.65,1.41-14.48,1.61l.04,1.59c6.89-1.8,13.7-3.87,20.66-5.42,7.01-1.55,14.06-2.89,21.15-4.02,14.56-2.32,29.21-4.12,43.85-5.93,29.84-3.69,59.84-6.35,89.81-8.69,8.48-.66,16.96-1.28,25.45-1.86,4.2-.28,8.4-.56,12.6-.82s8.67-.93,12.88-.4l-.17-6.85c-1.99,.49-2.74,1.95-2.84,3.86s-.03,4,.07,5.99c.04,.84-.03,1.83,.46,2.56l-.15-6.06c-.53,.24-1.05,.48-1.58,.72s-1.07,.69-1.58,.89c-.38,.15-1.19,0-1.6,0-.53,0-1.06,0-1.6,0-2.31,0-4.61,.02-6.92,.04-4.44,.04-8.87,.1-13.31,.17-8.87,.16-17.74,.41-26.6,.77-17.55,.72-35.08,1.75-52.6,3.11-35.03,2.7-69.93,6.72-104.66,12.07-9.65,1.49-19.32,3.15-28.88,5.11-4.89,1-9.78,2.03-14.66,3.09s-9.72,2.56-14.62,3.53c-.16,.03,.04,1.57,.04,1.57,4.3-.84,8.75-1.18,13.09-1.84s8.73-1.33,13.1-1.97c8.76-1.29,17.5-2.72,26.26-4.01,17.38-2.55,34.74-5.16,52.19-7.29,34.89-4.27,69.88-7.52,104.98-9.38,9.75-.52,19.5-.95,29.25-1.32,4.96-.19,9.93-.35,14.9-.49,2.48-.07,4.97-.13,7.45-.19,1.19-.03,2.55-.25,3.73-.08s2.58,1.03,3.76,1.54c-.04-.02,.05-2.53,.04-2.63-.02-1.05,.1-2.29-.16-3.32-.09-.32-.16-.65-.22-.98-.58,5.55-.52,7.34,.2,5.39,.21-.52,.3-1.09,.54-1.6,.47-.99,1.18-1.8,2.08-2.41,.43-.3,.1-2.94,.09-3.43,0-.25-.2-3.43-.26-3.42-3.63,.97-7.51,.99-11.25,1.31s-7.5,.65-11.25,.98c-7.5,.67-15,1.38-22.49,2.12-14.99,1.48-29.97,3.09-44.93,4.84s-29.91,3.7-44.85,5.65c-14.72,1.92-29.45,3.74-44.13,5.98-8.03,1.22-16.04,2.61-23.98,4.37-7.92,1.76-15.95,3.84-23.38,7.14-.2,.09,.06,1.58,.04,1.59,4.23-.9,8.58-1.3,12.86-1.87s8.22-1.1,12.33-1.65c8.22-1.11,16.43-2.24,24.65-3.38,16.61-2.31,33.2-4.7,49.79-7.15,9.45-1.4,18.9-2.82,28.35-4.26,0,0,0-.05,0-.05h0Z"/><path class="cls-1" d="M706.91,424c4.27-.85,8.77-1.05,13.1-1.52s8.74-.95,13.11-1.44c8.5-.94,17-1.85,25.5-2.72,17.25-1.77,34.52-3.4,51.79-4.88,34.56-2.96,69.17-5.37,103.8-7.2,19.52-1.03,39.04-1.88,58.57-2.56,.05,0,.02-1.9-.05-1.9-24.13-.51-48.26-.43-72.38,.24-24,.67-47.98,1.91-71.92,3.71-24.06,1.81-48.08,4.19-72.03,7.11-23.83,2.9-47.59,6.35-71.27,10.34-23.79,4.01-47.49,8.54-71.07,13.64-.59,.13-1.6,.17-2.11,.51l-.35,.09-.47,2.24s.32-.27,.4-.28c.88-.06,1.58-.58,1.92,.7l-.08-2.51c-.17,2.73-3.55,1.8-4.85,.75-1.81-1.46-2.65-3.68-4.8-4.81-.02-.01-.16,2.93-.16,3.19,.02,.73-.23,2.59,.31,3.18,3.27,3.51,8.25,5.71,12.75,7.31,2.13,.76,4.41,1.46,6.66,1.79,1.24,.18,2.46-.05,3.69-.25s2.58-.78,3.72-.75c.18,0,.22-4.56-.11-4.57-1.21-.03-2.6-.77-3.77-1.19s-2.25-.97-3.42-1.24c-2.34-.55-4.66-.96-6.96-1.68-2.17-.68-4.29-1.52-6.33-2.51-2.17-1.05-4.16-2.5-6.38-3.29l.16,6.37c2.71-.2,4.15,2.22,6.6,2.57s3.1-1.78,3.06-3.7c-.01-.53,.05-1.36-.23-1.85-.42-.76-1.59-.95-2.24-.3-.77,.78-.48,3.17-.11,4.09l.03,.06c11.81-2.07,23.5-4.99,35.26-7.32s23.11-4.46,34.71-6.5c23.42-4.12,46.93-7.72,70.51-10.77,46.91-6.08,94.11-10,141.38-11.7,26.63-.96,53.29-1.22,79.93-.77l-.05-1.9c-34.67,1.36-69.31,3.32-103.91,5.85-34.61,2.54-69.17,5.66-103.67,9.37-9.72,1.04-19.43,2.13-29.14,3.27-4.73,.55-9.47,1.12-14.19,1.72s-9.96,1.65-14.91,1.88c-.01,0,0,.13,0,.13h0Z"/><path class="cls-1" d="M609.87,439.13c-.85-1.09-1.73-2.75-2.99-3.37l.16,6.47c3.86,1.38,8.24,.67,12.26,.41s7.82-.76,11.71-1.22c7.8-.91,15.58-2.04,23.33-3.28,15.69-2.51,31.31-5.47,46.89-8.59,8.84-1.77,17.66-3.59,26.49-5.41l-.25-10.22c-6.67,1.77-13.35,3.51-20.04,5.22s-13.44,3.22-20.08,5.06-13.38,4.48-20.08,6.63c-6.78,2.18-13.49,4.5-20.36,6.41-7.63,2.12-15.17,4.54-22.81,6.66-.08,.02,.02,.69,.02,.69,3.37-.57,6.74-1.22,10.12-1.69s6.76-.92,10.11-1.54c6.71-1.24,13.43-2.4,20.2-3.31s13.47-1.92,20.17-3.08,13.6-3.2,20.33-4.92c7.56-1.94,15.12-3.91,22.67-5.92,.58-.15,.26-4.59,.24-5.12-.01-.37-.23-5.16-.49-5.1-31.14,6.47-62.29,12.66-93.79,17.15-4.38,.62-8.77,1.17-13.16,1.73-2.28,.29-4.56,.64-6.83,.99-2.41,.37-4.66,.82-6.82,1.98-.45,.24-.17,2.79-.16,3.24,0,.24,.25,3.25,.31,3.23,1.19-.47,2.05-2.08,2.83-3.06,0,0,0-.04,0-.05h0Z"/><path class="cls-1" d="M631.49,444.99c.64-.42,1.34-.74,2.02-1.08h0c-8.38,1.55-16.77,3.02-25.18,4.39-4.12,.67-8.25,1.31-12.38,1.95-2.11,.33-4.21,.65-6.32,.97-1.05,.16-2.11,.31-3.16,.47-.48,.07-.98,.12-1.46,.21-.87,.18-.34,.1,.17-.11l13.48-5.47s0-.18,0-.18c-5.09,.62-10.18,1.21-15.27,1.87,0,0,0,.1,0,.1,2.63-.29,5.25-.6,7.88-.91l3.45-.41,1.97-.23c.34-.04,1.24-.29,1.51-.23-.35-.09-1.48,.6-1.83,.74l-1.83,.74-3.2,1.29-7.31,2.95s0,.22,0,.22c8.6-1.23,17.19-2.57,25.75-4.03,4.2-.72,8.4-1.46,12.6-2.22,2.1-.38,4.19-.77,6.29-1.17,1.13-.21,2.26-.43,3.38-.64,.18-.03,.91-.29,1.04-.09,0,.01-1.48,.71-1.62,.76-.02,0,.01,.12,0,.13h0Z"/><path class="cls-1" d="M515.99,456.1c-1.52,.08-2.9-.82-3.26-2.35v.57c1.85,.17,3.44-.66,5.15-1.25,1.89-.64,3.8-1.23,5.71-1.79,3.56-1.03,7.18-1.86,10.81-2.58,7.72-1.53,15.52-2.72,23.31-3.81,15.92-2.22,31.93-3.74,47.98-4.53,4.16-.21,8.35-.48,12.52-.43,3.75,.04,7.55,.57,10.74,2.69l-.08-2.42c-.15,.97-.95,1.57-1.88,1.77-.58,.13-2.02,.13-1.97-.82,0-.07-.02-.53-.03-.35-.06,.94,.22,1.66,1.01,2.24,.91,.67,2.74,1.02,2.97-.47,.05-.36,.25-2.19-.08-2.42-5.81-3.91-13.7-2.78-20.31-2.48-8.03,.36-16.05,.91-24.05,1.63-15.89,1.43-31.77,3.49-47.46,6.41-4.1,.76-8.19,1.63-12.21,2.74-2.09,.57-4.15,1.21-6.17,1.97-2.21,.83-4.29,1.57-5.98,3.28-.07,.07-.04,.54,.02,.61,.86,1.16,1.68,1.99,3.26,1.83,0,0,0-.05,0-.05h0Z"/><path class="cls-1" d="M522.56,459.21c-1.14-.86-2.29-1.7-3.42-2.57-1.34-1.02-2.31-2.26-3.45-3.48,0,0-.08,.8-.08,.82,0,.41,0,.85,.08,1.25,1.13,5.31,5.12,9.19,10.12,11.05,6.27,2.34,13.43,1.39,19.91,.62,.06,0,.02-.74-.02-.74-6.49,.33-13.13,.62-19.26-1.91-4.75-1.95-9.41-5.78-10.69-10.95v2.07c.52,.2,1.07,.24,1.59,.45,.65,.26,1.23,.63,1.8,1.03,1.15,.79,2.28,1.6,3.42,2.4,0,0,0-.04,0-.05h0Z"/><path class="cls-1" d="M713.13,437.56c-2.32-.09-4.73-.74-7.02-1.12l-3.39-.57c-1.21-.2-2.73-.26-3.64-1.11l.03,1.4c1,.49,2.54,.17,3.66,.18s2.13,0,3.2,0c2.14,.02,4.27,.14,6.4,.34,4.4,.41,8.79,1.19,13.08,2.27s7.9,2.64,11.89,3.91c1.52,.48,3.19,.94,4.81,.84,.99-.06,1.42-.59,2.14-1.18,.77-.63,1.42-1.16,1.97-2.01,.09-.14-.1-.66-.02-.74-.51,.45-1.28,.98-2,.98-.3,0-.62-.17-.9-.24-.45-.11-.81-.11-1.28-.1-1.64,.01-3.24-.31-4.8-.8-3.99-1.23-7.82-2.81-11.89-3.8-4.29-1.04-8.66-1.65-13.07-1.89-2.13-.11-4.26-.14-6.39-.08-1.07,.03-2.13,.08-3.2,.19-1.14,.12-2.69,.06-3.64,.72-.25,.17,.18,1.3,.03,1.4,.9-.59,2.33-.17,3.37-.02l3.63,.51c2.3,.32,4.78,.44,7.01,1.05,0,0,.01-.13,0-.13h0Z"/><path class="cls-1" d="M750.09,440.08l4-1.61s0-.05,0-.05l-4,1.61s0,.05,0,.05h0Z"/><path class="cls-1" d="M843.87,411.16c-1.05,.18-2.09,.22-3.15,.07-.45-.06-1.04-.11-1.45-.32-.61-.31-1.04-.94-1.6-1.33l.04,1.82c2.12,.7,4.6,.79,6.82,1.07,2.1,.26,4.21,.49,6.31,.76,4.45,.57,8.88,1.21,13.31,1.93,3.82,.62,7.74,1.25,11.34,2.73,1.66,.69,3.94,1.61,4.99,3.13,.8,1.17,1.19,2.22,2.43,3,.9,.57,1.74,.7,2.59-.03,.58-.5-.12-6.23-.15-6.22-.57,.07-.52,.08-.91-.26-.16-.14-.3-.4-.42-.57,.15,.2-.07,1.09,.02,1.4,.53,1.74,1.03,3.43,1.34,5.24l-.03-5.8c-.8-.52-1.71-.72-2.62-1-.34-.1-.85-.36-1.21-.34-.4,.02-.68,.33-1.15,.32-.85-.02-1.7-.82-2.47-1.2s-1.52-.7-2.3-1c-3.71-1.4-7.62-2-11.53-2.54-4.34-.61-8.7-1.14-13.06-1.61-2.18-.23-4.36-.48-6.55-.64s-4.64-.54-6.79-.19c-.1,.02-.08,1.8,.04,1.82,.57,.11,1-.16,1.56-.16,.46,0,.98,.19,1.45,.23,1.07,.09,2.11-.02,3.15-.27,0,0,0-.05,0-.05h0Z"/><path class="cls-1" d="M882.68,419.27l-1.21-5.36,.03,.11c.02,.07,.04,.15,.06,.22,.05,.19,.09,.39,.16,.57,.16,.45,.28,.89,.4,1.35l-.08-.68c.05,.8,.04,1.69,.25,2.47,.1,.39,.17,.88,.34,1.24s.45,.7,.73,.97c.49,.46,1.01,.77,1.65,.97,.56,.18,1.18,.3,1.76,.24,.07,0,.14,0,.21-.03,.14-.04,.12-.04,.2-.15,.17-.21,.28-.52,.39-.77,.29-.67,.58-1.33,.77-2.04l-.05,.1c.1-.19,.21-.37,.29-.57,.14-.31,.15-.63,.25-.94,.12-.35,.35-.68,.51-1.02,.06-.12,.03-.41,.04-.52,0-.24,0-.48,0-.72,0-.09-.1-.98-.1-.98-.08,.05-.19,.12-.28,.13,.32-.06-.65-.56-.75-.66-.14-.13-.23-.38-.35-.54-.06-.09-.13-.18-.2-.27-.14-.19-.28-.39-.41-.58-.07-.11-.28-.48-.42-.52-.09-.02-.32,.07-.42,.09-.28,.05-.57,.1-.86,.13-.56,.04-1.1-.02-1.64-.13-.49-.1-.99-.16-1.48-.23-.23-.03-.19,3.75-.18,4.06,.03,.95,.05,1.91,.15,2.86,.04,.37,.02,.86,.23,1.18h0Z"/><path class="cls-1" d="M955.3,396.06c2.14,.73,4.13,.09,5.48-1.73,1.02-1.38,1.22-2.97,1.12-4.64-.24-3.66-3.83-6.43-7.49-5.44-3.86,1.04-3.93,5.85-3.22,9.03,.35,1.57,1.31,3.39,2.87,4.07,1.09,.47,2.72,.32,3.91,.39,1.52,.09,3.03,.15,4.55,.19,22.98,.58,45.83-5.86,66.99-14.31,3.07-1.23,6.13-2.5,9.16-3.82s5.86-2.75,8.85-3.96c5.92-2.4,12.02-4.36,17.85-7.01l-.19-7.88c-1.72,1.03-3.45,2.04-5.19,3.01s-3.57,1.68-5.3,2.61c-3.5,1.88-7.07,3.62-10.68,5.26-7.36,3.33-14.81,6.38-22.51,8.87-15.3,4.94-31.25,7.99-47.3,8.96-2.25,.14-4.51,.23-6.77,.28-1.17,.03-2.33,.04-3.5,.05-1.09,0-2.32-.24-3.25,.38-.99,.67-1.88,1.57-2.91,2.17-.49,.28-1.06,.46-1.57,.7-.54,.26-1.03,.67-1.55,.92-.41,.2-1.07,.16-1.52,.26-.49,.11-.98,.24-1.46,.41-.96,.33-1.83,.81-2.65,1.41-.27,.2-.07,2.73,.07,2.73,10.28-.17,20.35,.86,30.38,3.12,4.94,1.11,9.82,2.54,14.58,4.27s9.31,3.85,13.92,5.92c5.08,2.28,10.01,4.75,14.74,7.7-.12-.07,.15-.85-.02-.98-4.17-3.37-8.54-6.47-13.09-9.29s-9.06-4.74-13.83-6.52c-9.49-3.54-19.37-5.83-29.46-6.73-5.74-.51-11.54-.64-17.29-.23l.07,2.73c1.42-1.14,3.08-1.87,4.86-2.26,.9-.2,1.67,.21,2.55,.5,1.18,.38,2.02,.9,3.02,1.62,.85,.61,1.62,1.42,2.7,1.42,1.02,0,2.04,0,3.06-.01,2.04-.03,4.08-.08,6.12-.18,8.08-.37,16.13-1.27,24.09-2.67,15.87-2.81,31.36-7.7,45.99-14.46,4.13-1.91,8.15-4.07,12.1-6.33,2.04-1.16,3.9-2.54,5.87-3.82s3.98-2.6,5.93-3.95c.19-.13,.17-1.09,.18-1.16,.05-.93,.04-1.86,.02-2.79,0-.32-.39-3.93-.39-3.94-4.73,2.55-9.31,5.35-14.02,7.94s-9.43,4.62-14.31,6.65c-9.53,3.96-19.24,7.48-29.13,10.43-9.8,2.92-19.82,5.11-29.95,6.51-5.1,.71-10.21,1.08-15.35,1.34-2.54,.12-5.19,.34-7.73,.16-1.82-.13-2.76-1.78-3.39-3.3-.38-.91,.2,.51-.11,.32-.09-.05,.16-.84,.18-.9,.12-.41,.28-.82,.5-1.19,.53-.91,1.36-1.63,2.33-2.03,1.65-.68,3.61-.48,5.15,.38,.84,.47,1.57,1.15,2.01,2.01,.56,1.09,.21,2.08-.37,3.1-1.11,1.95-3.42,3.56-5.7,3.62,0,0,0,.05,0,.05h0Z"/><path class="cls-1" d="M842.21,326.76c.18-.12,.43-.1,.64-.13,.19-.03,.39-.06,.58-.1,.38-.08,.76-.18,1.12-.3,.74-.25,1.45-.59,2.1-1.01,1.23-.79,2.37-1.93,2.99-3.27l-.1-2.08c-1,2.33-1.22,4.87-1.04,7.38,.02,.27,.04,.54,.08,.81,.02,.15,.02,.71,.13,.82,.21,.22,.62-.29,.72-.45,.17-.28,.25-.56,.25-.89,0-.25,.03-.57-.2-.73,.05,.04-.07,.49,.01,.59,.12,.13,.12,.29,.12,0,0-.35,0-.13-.07-.05-.06,.06-.16,.1-.24,.11-.28,.05-.45-.14-.61-.33l.04,.12c-.04-.27-.07-.53-.08-.8,0-.07,0-.14,0-.24,0-.44,.06-.88,.13-1.32,.16-1.01,.46-2,.86-2.94,.05-.13,.04-.37,.04-.5,0-.28,0-.56-.01-.83-.01-.21,0-.44-.06-.65,0-.04-.03-.21-.07-.11-.75,1.63-1.68,3.09-3.01,4.32-.63,.58-1.32,1.09-2.05,1.52-.35,.2-.7,.38-1.07,.55-.3,.14-.89,.48-1.22,.39-.01,0,0,.13,0,.13h0Z"/><path class="cls-1" d="M850.3,318.31l2.27-1.74c.11-.08-.07-.72-.02-.74-4.13,1.83-8.01,4.29-11.86,6.63s-7.62,4.84-11.34,7.4c-7.67,5.28-15.06,11.01-21.79,17.46-.11,.1,.07,.6,.02,.64,7.33-5.24,14.47-10.74,21.82-15.96,3.73-2.64,7.52-5.19,11.33-7.72s8-4.99,11.84-7.72l-.02-.74-2.25,2.43s0,.04,0,.05h0Z"/><path class="cls-1" d="M377.36,437.69c-.7-.02-1.3-.51-1.71-1.05-.46-.6-1.25-2.46-.49-2.82,.82-.4,2.57,1.11,3.18,1.64,2.06,1.81,3.32,4.46,3.73,7.14,1.02,6.7-4.25,12.96-8.57,17.42-.09,.1,.06,.45,.01,.49,4.39-4.18,8.67-9.31,8.83-15.67,.12-4.68-1.95-10.59-7.07-11.71h0c-.91,2.05,.12,3.87,2.1,4.68,0,0,.02-.13,0-.13h0Z"/><path class="cls-1" d="M470.59,429.51l1.77-2.47-.47-.52c-1.07-1.17-.79-.98-1.17-3.75-.11-.77-.39-1.38-.57-.25-.22,1.39-.16,2.94,0,4.33,.27,2.43,1.16,4.56,1.86,6.88,.51,1.72,.98,3.46,1.32,5.22,.16,.81,.28,1.64,.38,2.46-.07-.59,.06,.63,.06,.61,.05,.54,.05,.54,0,.01,.02,.2,.03,.4,.04,.6,.08,1.36,0-.58,.02,.47,.03,1.36,.03-1.09,0,.27,0,.27,0,.54-.01,.8,.01-.47,.01-.54,0-.2-.01,.14-.09,1.41-.04,.78-.56,7.04-2.99,13.87-6.73,19.84-.34,.54-.34,1.82-.37,2.36-.06,1.09-.05,2.18,0,3.27,.04,.98,.1,1.97,.27,2.94,.02,.14,.37,1.64,.54,1.49,.94-.86,2.07-1.72,2.87-2.71,1.09-1.35,1.96-3.01,2.83-4.51,1.69-2.88,3.44-5.73,5.42-8.42,.23-.32,.11-1.09,.09-1.45,0-.12-.08-.97-.23-.82-1.62,1.62-3.46,2.92-5.58,3.79-.88,.36-1.79,.74-2.64,1.18-1.12,.58-2.08,1.83-3.02,2.69l.44,10.06c4.64-7.49,6.87-16.06,7.37-24.81,.31-5.48,.11-11.07-.79-16.48-.65-3.97-1.6-8.11-3.58-11.65-.24-.43-.37,.35-.4,.43-.2,.74-.18,1.73-.18,2.48,0,1.65-.06,3.5,.49,5.08h0Z"/><path class="cls-1" d="M493.69,431.2l-1.51-1.39c-1.38-1.27-1.57-1.96-1.99-4.22-.07-.36-.08-1.05-.49-.86-.25,.12-.24,1.42-.25,1.57-.1,1.55-.22,3.53,.41,4.98,1.25,2.89,2.83,5.59,3.38,8.71,.15,.87-.01-.26,.07,.54,.14,1.28-.04-.94,.03,.35s.01-1.1,0,.23,.05-1.1,0,.24c-.02,.57-.04,1.14-.09,1.75-.01,.15-.09,1.15-.06,.86s-.06,.7-.08,.85c-.73,7.56-1.61,15.1-2.42,22.65-.24,2.22-.2,4.52,.11,6.73,.08,.55,.56,3.11,1.01,1.3,1.01-4.1,1.52-8.31,2.28-12.46,.72-3.9,1.54-7.79,2.37-11.67,.1-.46,.09-.99,.02-1.45-.02-.12-.11-.77-.22-.37-.85,3.04-1.71,6.07-2.71,9.06-.9,2.72-2.04,5.26-2.72,8.05l1.11,8.03c.93-8.96,2.13-17.93,2.7-26.92,.31-4.9,.31-9.96-.56-14.81-.33-1.86-.81-3.69-1.57-5.43-.5-1.14-1.27-2.84-2.7-2.9l.17,6.79c2-1.8,1.3-2.02,2.56-1.03l1.13,.89s0-.04,0-.05h0Z"/><path class="cls-1" d="M504.04,432.96c.79,.57,1.08,1.66,1.32,2.53,.3,1.1,.64,2.19,.99,3.28,.54,1.66,1.02,3.34,1.41,5.04,.35,1.54,.63,3.08,.77,4.47,.02,.15,.12,1.38,.06,.6,.03,.36,.04,.72,.07,1.08,.02,.36,.02,.29,0-.21,0,.22,.02,.43,.02,.65,0,.22,.01,.43,.01,.65,0-.5,0-.57,0-.21,0,.36,0,.72,0,1.08,0,.16-.04,1.34-.01,.56-.04,.87-.09,1.74-.15,2.61-.04,.53-.1,1.17-.19,2.03-.08,.8-.18,1.59-.28,2.39-.43,3.42-1,6.82-1.59,10.22l1.13,7.99c.48-3.96,.72-7.9,1.47-11.82,.7-3.68,1.83-7.19,2.93-10.77,.09-.3-.15-1.3-.12-1.34-1.43,2.63-2.39,5.62-3.36,8.44s-1.86,5.46-2.18,8.31c-.27,2.36-.26,4.87,.18,7.21,.05,.27,.19,1.49,.58,1.48s.49-1.39,.51-1.51c1.41-8.42,2.53-16.84,2.46-25.4-.04-4.37-.34-8.76-1.19-13.05-.36-1.81-.82-3.56-1.45-5.3-.41-1.13-.92-2.81-2.01-3.47l-.09,.1c-.58,.67-1.21,1.04-1.33,1.92-.01,.11-.03,.39,.04,.44h0Z"/><path class="cls-1" d="M516.07,439.37l1.44,.19-.2-.38c.66,2.66,1.74,5.2,2.48,7.83,.56,1.97,1.1,4.42,1.28,6.15,.03,.29,.06,.58,.09,.87-.04-.43-.04-.38,0,.15q.03,.58,0,0c0,.29,.02,.58,.02,.86-.01-1.57-.08,1.32-.01,.06-.01,.28-.03,.57-.05,.85-.04,.48-.04,.57-.02,.26-.27,2.81-1.05,5.48-1.09,8.32l.57-3.29c-1.14,.61-1,.76-1.81,.13-.32-.25-.63-.52-.95-.79-.09-.07-.22,1.83-.04,2.18,1.15,2.27,2.15,4.41,2.73,6.91,.2,.86,.59,.77,.77-.02,1.54-6.83,1.69-14.03,.92-20.98-.33-2.93-.83-5.87-1.71-8.69-.4-1.27-.84-2.52-1.41-3.73-.29-.62-.88-2.33-1.7-2.39-.18-.01-.25,.87-.25,.84-.19,1.59-.54,3.02-1.06,4.53,0,.02,0,.13,0,.12h0Z"/><path class="cls-1" d="M531.15,454.67c-.91-1.1-1.69-2.11-2.34-3.39v1.46l.46,.98c.25,.75,.56,1.47,.93,2.17,.28,.27,.68,.39,1.04,.55,.93,.42,1.87,.82,2.83,1.2,2.03,.81,4.06,1.67,6.12,2.41,3.74,1.35,7.49,2.68,11.28,3.91,7.53,2.44,15,5.03,22.47,7.64,14.58,5.09,29.61,8.7,45.1,9.13,4.21,.12,8.6,.31,12.79-.18,2.13-.25,4.89-.4,6.58-1.81,.45-.38,.89-.58,1.4-.87,.67-.38,1.18-.92,1.86-1.26,1.09-.54,2.07-.97,3.27-1.23,.05-.01,0-.44-.01-.44-1,.09-1.85,.05-2.83-.16s-1.9-.69-2.86-1.05-1.76-.97-2.86-1.06c-.94-.08-1.9-.03-2.84-.06-3.79-.1-7.58,.15-11.37,.08-7.57-.14-15.17-1.04-22.62-2.4s-14.55-3.57-21.7-5.92-14.95-4.82-22.34-7.46c-8.33-2.97-16.72-6-25.36-7.95l-.09,.13c-.47,.71-.81,1.47-1.27,2.19-.09,.14-.12,1.44,.06,1.49,1.03,.31,1.61,1.18,2.33,1.95,0,0,0-.04,0-.05h0Z"/><path class="cls-1" d="M651.52,477.85s0-.13,0-.13c0,0,0,.13,0,.13h0Z"/><path class="cls-1" d="M720.41,431.43c-1-.3-2.28-.46-3.01-1.21,.08,.08-.08,.7,0,.87,.91,1.82,3.15,2.75,4.85,3.75s3.53,2.03,5.33,3c3.65,1.96,7.39,3.76,11.2,5.41,3.54,1.54,7.18,3.17,10.94,4.06,1.7,.4,3.46,.67,5.21,.59,.35-.02,1.05,.04,1.35-.17,.43-.3,.79-1.3,1.09-1.72,.61-.87,1.62-1.4,2.42-2.08,.17-.15-.11-1.19-.03-1.23-.78,.35-1.69,.77-2.47,.25-.4-.27-.76-1.03-1.16-1.19-.21-.08-.93,.11-1.16,.13-1.74,.16-3.5-.04-5.2-.38-3.68-.74-7.33-1.85-10.9-3s-7.37-2.55-10.97-4.07c-1.79-.75-3.57-1.55-5.33-2.38-.81-.38-1.62-.77-2.42-1.17-.4-.2-.79-.43-1.2-.6-.63-.26-1.04-.53-1.57-.05l.02,.88c.78-.4,2.14,.18,2.99,.37,0,0,0-.05,0-.05h0Z"/></g><g><path class="cls-3" d="M303.24,443.49c.46-.05,.78-.55,.52-1-.76-1.28-2.24,.94-2.54,1.56-1.2,2.49-.75,5.49,.46,7.88,1.76,3.47,5.2,5.51,8.76,6.76,4.45,1.57,9.21,2.4,13.81,3.45,10.04,2.29,20.14,4.42,30.36,5.72s20.51,1.74,30.79,1.73c11.63-.01,23.22-.62,34.82-1.36,.02,0,.02-.1,0-.1-17.79,.69-35.63,1.67-53.43,.51s-34.9-4.84-52-9c-4.01-.98-8.36-2.27-11.27-5.38-1.48-1.58-2.55-3.63-2.85-5.78-.2-1.4-.08-2.87,.5-4.17,.21-.47,.47-.94,.8-1.34,.23-.28,.43-.47,.78-.59,.2-.17,.4-.2,.62-.08,.57,.05,.53,.41-.12,1.08-.02-.01-.03,.13,0,.12h0Z"/><path class="cls-3" d="M372.21,471.55c-1.4-.65-2.66-1.17-4.25-.77-1.36,.35-2.5,1.23-3.21,2.43-.06,.11-.05,.34,.03,.43,3.78,4.29,9.36,5.96,14.85,6.74,6.66,.95,13.47,1.12,20.18,1.44,14.64,.71,29.3,.95,43.95,.72,29.46-.47,58.88-2.67,88.05-6.83,4.11-.59,8.21-1.24,12.3-1.93,2.01-.34,4.01-.69,6.02-1.05,1.75-.31,3.78-.43,5.43-1.16,1.02-.46,1.64-1.2,1.72-2.34,.05-.65,.03-1.7-.68-2.01-1.25-.53-2.25,1.21-1.45,2.12,.04,.05,.18-.56,.04-.71l-.08,.3c.1-.06,.21-.09,.32-.09,.09,.02,.24,0,.34,.02,.12,.01,.9,.37,.94,.34v-.58c-.1,.23-.26,.42-.46,.58-.21,.18-.48,.33-.74,.45-.65,.3-1.36,.42-2.06,.54-3.36,.61-6.73,1.19-10.11,1.74-6.59,1.08-13.19,2.12-19.8,3.06-13.38,1.91-26.83,3.42-40.3,4.54-27.02,2.24-54.16,2.77-81.26,1.68-7.06-.28-14.21-.45-21.23-1.26-5.83-.67-11.9-2.21-15.94-6.75l.03,.43c1.3-2.22,5.13-3.75,7.37-1.95,.02,.01,.04-.1,0-.12h0Z"/><path class="cls-3" d="M561.41,446.98c-1.49,.24-3.07,.19-4.58,.28-1.69,.11-3.37,.25-5.05,.42-3.04,.31-6.07,.73-9.08,1.24s-6.16,1.17-9.2,1.93c-1.97,.49-4.95,.82-6.18,2.68-2.66,4.02,3.56,7.1,6.27,8.39,5.36,2.56,10.96,4.49,16.59,6.35,11.82,3.92,23.8,7.45,35.88,10.5s24.2,5.27,36.47,7.06c6.84,1,13.79,1.72,20.71,1.8,1.75,.02,3.51-.02,5.26-.08,1.26-.04,2.65,.03,3.63-.87,1.22-1.1,1.48-2.71,1.44-4.29-.02-.64,.04-2.69-1.02-2.42-.56,.15-.32,1.85-.2,2.23l.03-.24,.35-1.96c.13-.21-.28,.06-.42,.14-.33,.18-.64,.37-.99,.54-.47,.23-.89,.56-1.4,.72-.65,.21-1.39,.2-2.06,.25-2.7,.22-5.4,.37-8.11,.5-5.53,.27-11.09,.21-16.62-.08-11.12-.59-22.14-2.76-32.95-5.3s-21.73-5.63-32.49-8.81c-5.25-1.55-10.55-2.96-15.82-4.43-2.57-.72-5.13-1.49-7.64-2.4-2.3-.83-4.75-1.74-6.34-3.7-.8-.99-1.19-2.46-.28-3.55,.44-.52,1.04-.89,1.65-1.16,1.26-.57,2.68-.87,4.01-1.22,2.96-.78,5.95-1.48,8.95-2.07,3.16-.63,6.35-1.14,9.54-1.54,1.6-.2,3.2-.37,4.8-.52s3.24-.4,4.82-.28c.03,0,.02-.13,0-.13h0Z"/><path class="cls-3" d="M579.71,447.57c-.18-.71-.82-2.2-.11-2.72,.55-.4,1.92-.45,2.59-.6,1.89-.42,3.79-.8,5.69-1.17,3.54-.7,7.19-1.47,10.8-1.71,3.94-.26,6.81,1.74,10,3.76,2.97,1.88,5.94,3.76,8.9,5.67,11.8,7.61,23.47,15.56,34,24.88,.69,.61,1.37,1.22,2.05,1.84,.91,.83,1.85,1.71,.65,2.8s-2.66,2.03-4.04,2.89c-2.75,1.73-6.41,3.39-9.58,1.82-.11-.05-.14,.49-.03,.57,2.41,1.84,5.42,1.89,8.09,.55,1.45-.73,2.8-1.64,3.98-2.75,.97-.91,2.33-1.99,2.62-3.37,.18-.86-.02-1.7-.55-2.39-1.1-1.44-2.81-2.6-4.18-3.77-2.77-2.36-5.61-4.65-8.51-6.86-6.05-4.62-12.33-8.93-18.7-13.08-3.06-2-6.15-3.96-9.25-5.91s-6.32-4.25-9.67-5.95c-3.84-1.95-8.02-.92-12.05-.21-4.48,.79-8.9,1.81-13.28,3.02-.02,0-.01,.05-.01,.07,.2,.9,.41,1.79,.56,2.69,.01,.08,.04-.03,.03-.06h0Z"/><path class="cls-3" d="M623.03,453.59c-2.14-.1-4.36-.73-6.47-1.11v.32c1.82-.14,3.65-.15,5.47-.29s3.64-.29,5.46-.44c3.64-.29,7.28-.59,10.92-.88,7.28-.6,14.55-1.48,21.82-2.24,14.54-1.53,29.08-3.12,43.61-4.75,4.13-.46,8.26-.92,12.38-1.4,1.98-.23,3.96-.46,5.94-.7s4.15-.25,6-1.18c.32-.16,.26-1.59-.11-1.69-1.79-.45-3.64,0-5.46,.22s-3.63,.44-5.45,.67c-3.63,.44-7.26,.9-10.89,1.35-7.26,.89-14.53,1.77-21.79,2.64-14.45,1.73-28.9,3.41-43.36,5.04-4.05,.46-8.1,1.04-12.14,1.58-1.98,.26-3.96,.52-5.95,.78-2.15,.28-4.29,.7-6.44,.98-.08,0-.07,.31,0,.32,2.12,.28,4.41,.37,6.47,.92,.02,0,.03-.12,0-.13h0Z"/><path class="cls-3" d="M710.47,438.7c-1.04-.46-2.01-1.13-3.01-1.69v.49c7.56,.64,15.01,2.22,22.2,4.69,6.74,2.32,13.28,6.06,20.47,6.75,7.43,.71,13.97-3.16,20.43-6.28,7.02-3.39,14.01-6.84,20.99-10.32l6.25-3.12c1.32-.66,3.53-1.24,4.14-2.72,.25-.6,.59-3.1-.41-3.28-.81-.15-1.27,.67-1.24,1.32,0,.1,.11,.56,.2,.26,.14-.5,.88,.6,.92,.73l-.14-1.3c.08-1.05,.09-.43-.32-.05-.15,.14-.36,.25-.54,.35-.66,.39-1.38,.7-2.07,1.04-1.64,.82-3.27,1.63-4.91,2.45-3.12,1.56-6.25,3.12-9.37,4.68-6.26,3.12-12.45,6.35-18.68,9.54-2.85,1.46-5.74,2.91-8.87,3.7s-6.06,.75-9.09,.25c-6.31-1.02-12.15-3.9-18.25-5.7-7.06-2.08-14.38-3.21-21.73-3.47-.11,0-.1,.45,0,.49,1,.44,2.07,.79,3.03,1.32,.02,.01,.04-.11,0-.12h0Z"/><path class="cls-3" d="M741.72,430.76c-3.72,.28-7.44,.57-11.16,.84l.02,.64c2.64-.22,5.28-.84,7.9-1.27s5.28-.93,7.92-1.38c5.29-.9,10.59-1.71,15.9-2.45,10.64-1.47,21.31-2.64,31.99-3.8,5.99-.65,11.99-1.23,18-1.73,.1,0,.09-.44-.01-.44-10.73,.17-21.45,.66-32.11,1.86s-21.3,2.78-31.87,4.71c-2.88,.53-5.77,1.04-8.64,1.65-3.02,.64-6.16,1.21-9.08,2.19-.15,.05-.12,.66,.02,.64,3.72-.48,7.43-.95,11.15-1.43,.01,0,0-.05,0-.05h0Z"/><path class="cls-3" d="M783.37,424.25c-1,1.1-2.83,1.19-4.12,.59-.23-.1-.66-.29-.8-.5-.31-.45,0-.28,.53-.37,1.14-.19,2.31-.26,3.46-.39,4.11-.46,8.23-.9,12.34-1.38,8.23-.96,16.45-1.99,24.68-2.99s16.11-1.97,24.17-2.9c7.89-.91,16-1.81,23.86-.16,7.08,1.48,14.19,5.24,17.96,11.62,.06,.11,.17,.23,.3,.12,5.79-4.87,12.26-8.89,19.31-11.65,3.48-1.36,7.08-2.42,10.75-3.17,1.76-.36,3.54-.65,5.33-.86,1.95-.23,3.86-.89,5.78-1.28,.26-.05,.24-1.19-.03-1.23-1.89-.27-3.92-.66-5.82-.43s-3.84,.56-5.74,.96c-3.66,.79-7.25,1.89-10.73,3.28-7.01,2.82-13.56,6.79-19.11,11.93l.3,.12c-3.24-5.07-8.21-8.45-13.88-10.31-6.78-2.23-14.04-2.07-21.05-1.32-7.69,.82-15.36,2.05-23.03,3.08l-23.68,3.19c-8.72,1.17-17.43,2.42-26.14,3.68-.06,0-.03,.16,0,.19,1.57,1.65,3.62,1.36,5.4,.29,.04-.02,0-.13-.01-.12h0Z"/><path class="cls-3" d="M886.73,411.82c-2.8-.21-5.69-1.13-8.43-1.7v.3c14.57-.92,29.14-1.88,43.69-2.95s28.66-2.25,43-3.15c3.09-.19,6.23-.27,9.29,.26,1.52,.26,3.03,.68,4.43,1.34,1.22,.57,2.28,1.51,3.62,1.6,.14,0,.06-.49,.03-.55-.7-1.38-1.51-2.29-2.88-3.05-1.12-.62-2.39-1.04-3.63-1.34-2.69-.65-5.49-.72-8.25-.6-6.95,.29-13.91,1.16-20.84,1.78-14.55,1.3-29.12,2.52-43.66,3.93-8.27,.8-16.54,1.6-24.8,2.42-.07,0-.06,.29,0,.3,2.76,.48,5.75,.71,8.43,1.53,.02,0,.03-.12,0-.13h0Z"/><path class="cls-3" d="M978.91,405.43c2.08,1.3,3.99,3.04,5.94,4.53s3.96,3.04,5.94,4.55c3.96,3.04,7.92,6.07,11.88,9.11,7.79,5.97,15.51,12.05,23.38,17.92,1.35,1.01,2.83,1.89,4.44,2.41,1.44,.46,2.94,.99,4.38,.26s1.99-2.16,2.28-3.59c.45-2.19-.08-4.93-.47-7.34-.07-.42-.11-.84-.17-1.26-.06-.5-.04-.23-.06-.87,0-.2-.01-.4-.02-.61,.02,.88,0-.85,0-.81,0-.27,0-.54,0-.81,0,.44,0,.11,0-.14,.08-1.6,.27-3.22,.65-4.94,.87-3.97,2.47-7.82,4.39-11.39,8.56-15.89,24.81-25.12,39.34-34.8,16.57-11.03,33.16-22.03,49.74-33.05,7.83-5.2,15.52-10.78,23.7-15.42,7.12-4.04,15.23-7.69,23.62-6.33,2.03,.33,4.05,.94,5.86,1.92,1.44,.78,.93-4.75,.77-5.3-1.28-4.4-1.11-9.24,.56-13.5,.21-.55,.24-1.25,.1-1.82-.06-.22-.29-.99-.55-.46-1.34,2.71-2.5,5.87-2.71,8.91-.27,3.81,.19,7.76,1.41,11.37l.77-5.3c-3.68-1.66-7.43-2.46-11.48-2.14s-8.17,1.57-11.96,3.13c-8.35,3.45-15.76,8.95-23.25,13.92-16.58,11.01-33.15,22.04-49.75,33.03-7.84,5.19-15.77,10.27-23.46,15.68-6.97,4.91-13.89,10.3-19.41,16.84s-9.25,14.13-10.44,22.49c-.67,4.71-.6,9.48,.37,14.15,.19,.94,.47,1.86,.65,2.81,.07,.38,.1,.76,.17,1.14,.05,.31,.09,.71,.23,.99-.73-1.52,.1-1.26-.29-.78-.63,.78-.93,1.51-1.89,1.98-.73,.36-1.66,.54-2.48,.46-1.75-.16-3.53-1.18-4.96-2.15-1.97-1.34-3.85-2.83-5.76-4.25-3.97-2.93-7.93-5.87-11.9-8.8-7.87-5.82-15.74-11.64-23.6-17.46-1.97-1.46-4.12-2.8-5.95-4.42-.01-.01-.04,.1,0,.12h0Z"/><path class="cls-3" d="M992.26,375.57c4.79-1.84,9.46-4,14.16-6.06,4.94-2.16,9.88-4.33,14.82-6.49,9.8-4.3,19.64-8.52,29.42-12.88,17.85-7.96,35.78-15.76,53.49-24.02,16.3-7.6,32.4-15.7,47.66-25.24s29.21-20.31,41.46-33.19c.71-.74,1.37-1.61,2.13-2.28,.58-.51,.87-.54,1.58-.14,.42,.24,.8,.55,1.13,.89,1.74,1.83,1.74,4.11,.94,6.37-.86,2.4-2.24,4.62-3.46,6.85s-2.51,4.6-3.77,6.9c-2.5,4.58-5.03,9.15-7.5,13.74-2.04,3.78-3.98,7.94-4,12.33,0,2.02,.38,3.95,1.45,5.67,.24,.39,.33-.89,.24-1.09-1.8-4.19-.41-8.41,1.46-12.31s4.18-7.84,6.3-11.74,4.31-7.92,6.46-11.88c1.84-3.38,4-6.81,4.1-10.77,.08-3.16-1.18-6.85-4.53-7.76l-.09,.04c-9.52,10.42-20.28,19.55-31.74,27.77s-23.79,15.53-36.33,22.18c-12.63,6.69-25.58,12.77-38.58,18.7-14.82,6.76-29.72,13.35-44.52,20.17s-30.93,14.23-46.4,21.34c-1.99,.91-3.95,1.85-5.9,2.86-.01,0,0,.05,0,.05h0Z"/><path class="cls-3" d="M304.99,439.14c10.86-4.98,22.36-8.89,33.56-13,11.26-4.14,22.58-8.15,33.95-11.97,22.76-7.64,45.76-14.57,68.95-20.78,46.19-12.37,93.13-21.82,140.5-28.38s95.13-10.3,142.96-11.2c48.03-.9,96.13,1.09,143.9,6.19,23.9,2.55,47.71,5.86,71.4,9.92,11.61,1.99,23.45,3.73,34.84,6.79,2.85,.76,5.69,1.54,8.54,2.33,2.15,.59,5.62,2.23,7.91,1.66,2.78-.69,3.57-5.1,2.41-7.4s-3.22-1.62-3.57,.59c-.12,.73,.43,3.52,.74,1.57l.08-.51-.33,.79c.43-.15,2.17,.33,2.2,.69l.23-2.89c-.81,1.76-4.7,1.17-6.15,.98-3.04-.4-6.07-.84-9.11-1.25-5.52-.73-10.97-1.68-16.45-2.67-11.19-2.04-22.42-3.91-33.67-5.61-22.71-3.44-45.52-6.22-68.39-8.34-45.56-4.21-91.35-5.88-137.1-4.83s-91.46,4.81-136.77,11.24c-45.32,6.44-90.28,15.51-134.56,27.09-44.09,11.53-87.54,25.6-129.91,42.39-5.38,2.13-10.7,4.53-16.15,6.48-.04,.01,0,.13,0,.13h0Z"/><path class="cls-3" d="M801.5,353.5s.24,.6-.27,.52c-.17-.03-.02-.98,.02-1.06,.19-.39,.69-.77,.98-1.09,.72-.8,1.45-1.59,2.19-2.37,1.43-1.51,2.88-3,4.36-4.46,2.97-2.92,6.04-5.74,9.21-8.45,6.34-5.43,12.93-10.51,19.95-15.05,3.6-2.33,7.26-4.7,11.25-6.33,1.88-.77,3.9-1.45,5.92-1.71,.74-.09,1.79-.17,2.25,.54,.51,.78,.07,2.59-.02,3.52-.46,4.52-2.07,8.8-2.65,13.29-.49,3.77-.14,7.59,1.16,11.17s3.62,7.04,6.21,10.02c1.42,1.63,2.93,3.18,4.51,4.67,.76,.72,1.54,1.42,2.32,2.12,.35,.31,.73,.8,1.17,.97s.72-.02,1.15-.17c.25-.09,.18-.66,.1-.84-.47-1.14-.82-1.95-1.74-2.76-.83-.73-1.66-1.48-2.47-2.24-1.58-1.48-3.12-3.01-4.55-4.63-2.78-3.15-5.31-6.8-6.43-10.9-1.3-4.74,.26-9.26,1.3-13.88,.55-2.44,.91-4.92,1.07-7.42,.11-1.79,.56-4.76-.97-6.11-1.4-1.24-4.02-.24-5.54,.22-2.2,.67-4.31,1.62-6.34,2.69-4.18,2.22-8.14,4.9-12.01,7.63-7.79,5.5-15.12,11.61-21.84,18.39-1.93,1.94-3.8,3.93-5.64,5.96-1.69,1.87-3.51,3.74-5,5.78-.29,.39-1.49,3.2-.08,3.06,.51-.05,1.03-.93,.44-1.2-.03-.01-.04,.12,0,.12h0Z"/><path class="cls-3" d="M850.66,311.96c-8.55,3.76-15.8,10.13-20.51,18.19-.03,.05,0,.28,.05,.21,4.8-8.01,11.96-14.49,20.47-18.36,.01,0,0-.05,0-.05h0Z"/><path class="cls-3" d="M855.65,314.12c.32-.21,.38-.52,.28-.87-.24-.79-1.07-.8-1.74-.58-1.08,.36-2.11,1.05-3.08,1.62-1.16,.69-2.3,1.41-3.41,2.18-4.4,3.03-8.37,6.63-11.83,10.7-.09,.11-.13,.53,.02,.61,1.98,1.1,4.49,.51,5.94-1.17,.04-.05,0-.27-.03-.24-1.54,1.64-3.94,1.88-5.87,.8l.02,.61c2.72-3.25,5.76-6.23,9.09-8.85,1.64-1.29,3.35-2.5,5.11-3.62,.86-.54,1.74-1.05,2.62-1.56,.54-.32,1.12-.75,1.73-.92,.19-.05,.4-.1,.59-.09,.48,.03,1.41,.72,.56,1.34-.01,0,0,.05,0,.05h0Z"/><path class="cls-3" d="M855.49,315.97c-.92,.5-2.03,.75-3,1.15-.81,.33-1.6,.7-2.38,1.09-1.77,.89-3.47,1.93-5.08,3.11-3.12,2.28-5.82,5.04-8.01,8.22-.05,.07-.07,.42,.05,.43,1.81,.17,3.51-.48,4.79-1.76,.05-.05,0-.27-.03-.24-1.31,1.21-3.01,1.73-4.77,1.53l.05,.43c2.25-3.18,4.98-6.04,8.08-8.4,1.48-1.13,3.05-2.14,4.68-3.04,.86-.47,1.74-.9,2.63-1.3s2-.99,3-1.11c.04,0,.02-.14,0-.12h0Z"/><path class="cls-3" d="M857,315.06c-3.62,2.02-6.95,4.48-9.99,7.3s-5.8,5.8-7.98,9.19c-.07,.11-.1,.56,.07,.6,1.17,.29,2.28-.38,2.71-1.47,.02-.05-.03-.31-.07-.23-.48,1.03-1.62,1.43-2.66,1.05l.07,.6c2.52-3.37,5.06-6.59,8.13-9.48s6.27-5.31,9.73-7.51c.01,0,0-.05,0-.05h0Z"/><path class="cls-3" d="M857.86,317.56c-3.05,1.47-5.88,3.37-8.39,5.65-1.23,1.12-2.4,2.32-3.45,3.61s-1.95,2.76-2.81,4.24c-.04,.07,0,.39,.07,.3,3.54-5.72,8.64-10.59,14.58-13.75,.01,0,0-.05,0-.05h0Z"/><path class="cls-3" d="M854.58,322.22c-1.22,.83-2.57,1.44-3.75,2.34s-2.33,2.05-3.32,3.23c-1.81,2.16-3.23,4.65-4.14,7.32-.02,.07-.05,.72,.11,.66,4.52-1.76,8.5-4.72,11.54-8.49,.03-.04,.05-.32-.02-.29-5.15,1.91-8.94,6.44-10.02,11.81-.02,.1,0,.91,.22,.75,3.68-2.81,7.44-5.48,11.21-8.17,.09-.06,.05-.52-.03-.48-4.32,1.77-7.86,5.11-9.26,9.63-.05,.17-.12,1.29,.25,1.13,2.38-1.01,4.44-2.38,6.36-4.11,.09-.08,.06-.6-.06-.53-3.58,2.13-3.08,8.47,.78,10.03v-.67c-.69-.01-1.4,.02-2.11,.03-.08,0-.08,.33,0,.34,.71,.11,1.42,.23,2.13,.31,.15,.02,.15-.62,.01-.67-3.6-1.42-4.06-6.83-.76-8.84l-.06-.53c-1.8,1.64-4.02,2.76-6.39,3.3l.19,1.16c1.76-4.29,4.74-8.02,8.94-10.11l-.06-.47c-3.74,2.59-7.45,5.19-11.27,7.66l.19,.85c1.15-4.8,4.19-8.96,8.46-11.46,.21-.12,.44-.22,.64-.35,.34-.23,.39-.38,.25-.16-.33,.52-.87,1.01-1.29,1.45-.85,.88-1.76,1.72-2.74,2.45-2.15,1.6-4.58,2.81-7.12,3.65l.11,.66c.99-2.84,2.42-5.46,4.37-7.76,.9-1.06,1.89-2.03,2.94-2.93s2.36-2.07,3.72-2.62c.04-.02,.01-.14,0-.12h0Z"/><path class="cls-3" d="M838.06,316.95c-.42,1.57-1.02,3.11-1.48,4.67-.43,1.45-.82,2.91-1.17,4.39-.74,3.07-1.3,6.18-1.7,9.31,0,.07,.06,.24,.08,.09,.41-3,.94-6,1.6-8.95,.36-1.6,.76-3.18,1.21-4.76s.82-3.19,1.48-4.65c.02-.04-.02-.15-.03-.1h0Z"/><path class="cls-3" d="M845.93,316.69c.52,.01,.34-.94-.29-.78-.78,.2-1.28,1.88-1.58,2.48-.62,1.23-1.2,2.47-1.75,3.73-2.17,4.95-3.78,10.2-4.83,15.49-.01,.07,.05,.28,.08,.12,.86-3.8,1.9-7.55,3.24-11.21,.7-1.93,1.48-3.84,2.3-5.73,.38-.86,.77-1.72,1.18-2.57,.23-.48,.44-1,.71-1.45,.11-.24,.26-.45,.46-.64,.49-.35,.66-.18,.49,.5-.01,0-.01,.05,0,.05h0Z"/><path class="cls-3" d="M852.03,311.72c-4.12,3.55-7.23,8.24-8.84,13.43-.79,2.53-1.24,5.17-1.32,7.82-.02,.75-.12,1.54,.28,2.2,.3,.51,1.01,1.12,1.38,.38,.03-.06,0-.34-.06-.25-.14,.24-.56,.17-.74,.07-.46-.24-.61-1.15-.66-1.58-.07-.56,.03-1.22,.07-1.78,.08-1.15,.24-2.3,.46-3.43,.44-2.23,1.13-4.42,2.04-6.5,1.72-3.92,4.24-7.43,7.41-10.31,.01,0,0-.05,0-.05h0Z"/><path class="cls-3" d="M854.92,312.31c-6.88,6.99-11,16.56-11.52,26.34,0,.05,0,.23,.07,.24,.72,.09,1.01-.81,.59-1.29-.06-.07-.08,.17-.04,.21-.05-.06-.12,1.05-.46,.53-.12-.19,.1-.97,.12-1.17,.07-.58,.15-1.17,.25-1.75,.19-1.14,.39-2.27,.65-3.4,.59-2.55,1.42-5.04,2.46-7.44,1.94-4.46,4.65-8.6,7.87-12.24,0,0,0-.05,0-.05h0Z"/><path class="cls-3" d="M854.12,314.85c-1.26,2.05-2.65,3.94-3.74,6.11s-1.95,4.28-2.68,6.51c-1.42,4.35-2.2,8.93-2.18,13.5,0,.12,.1,.21,.11,.04,.26-4.66,1-9.24,2.44-13.68,.71-2.18,1.57-4.3,2.59-6.36s2.08-4.25,3.49-6.01c.02-.03,0-.14-.03-.11h0Z"/><path class="cls-3" d="M856.97,314.58c-2.15-.14-2.79,2.01-3.32,3.73-.99,3.22-1.92,6.45-2.86,9.68-1.88,6.44-3.77,12.88-5.58,19.34-.02,.07,.04,.4,.09,.24,1.77-5.82,3.46-11.67,5.15-17.51,.83-2.86,1.66-5.71,2.49-8.57,.41-1.43,1.39-7.91,4.03-6.78,.03,.01,.04-.12,0-.12h0Z"/><path class="cls-3" d="M853.95,328.92c-.26-1.06-.43-2.14-.63-3.21-.02-.08-.08-.15-.12-.04-2.45,7.51-4.1,15.42-4.77,23.29,0,.11,.1,.43,.15,.17,.7-4.21,1.37-8.44,2.24-12.62,.45-2.17,.95-4.33,1.49-6.47,.23-.92,.44-1.85,.67-2.77,.34-1.39,.32-.85,.52-.04,.14,.59,.29,1.17,.4,1.76,.01,.08,.05-.03,.04-.06h0Z"/><path class="cls-3" d="M854.37,336.72c-2.17,2.94-2.91,7.07-2.19,10.63,.01,.05,.11,.34,.21,.23,1.57-1.68,2.75-3.44,3.16-5.74,0-.05-.03-.49-.12-.39-1.93,2.38-2.14,5.96-.49,8.55,.01,.03,.03,.04,.06,.04,1.15-.39,2.06-1.14,2.67-2.18l-.11-.47c-.57,1.34-.8,2.76-.64,4.21l.07-.39c-.71,.41-1.5,.41-2.19-.02-.06-.04-.08,.24-.02,.28,.68,.54,1.49,.66,2.29,.33,.07-.03,.08-.25,.07-.3-.08-1.28,.09-2.5,.56-3.7,.03-.09-.03-.59-.13-.42-.44,.73-1.05,1.32-1.81,1.7s-.89,.11-1.18-.56c-.18-.42-.32-.86-.4-1.31-.35-1.87,.18-3.79,1.35-5.27l-.14-.36c-.33,1.91-1.38,4.01-3.11,5.03l.23,.35c-.29-3.58,.35-6.93,1.88-10.18,0,0,0-.06-.01-.04h0Z"/><path class="cls-3" d="M747.31,437.09c-.78,.87-1.94,1.36-3.09,1.51-.27,.03-1.1,.09-1.08,0,.03-.15,1.67-.48,1.87-.54,2.5-.72,5-1.43,7.5-2.15,4.85-1.41,9.72-2.77,14.6-4.06,9.93-2.64,19.94-4.96,29.94-7.3,.05-.01,.03-.2,0-.2-9.19,1.82-18.29,4.05-27.34,6.42-9.08,2.37-18.11,4.91-27.03,7.81-.04,.01-.04,.16,0,.16,1.87,.17,3.16-.49,4.65-1.52,.03-.02,0-.13-.01-.12h0Z"/><path class="cls-3" d="M751.34,441.14c-.45-.09-2.66-.31-2.75-.71-.02-.08,2.8-1.07,3.11-1.19,2.08-.78,4.17-1.53,6.26-2.29,4.05-1.47,8.1-2.91,12.2-4.25,8.34-2.74,16.79-5.15,25.28-7.38,.07-.02,.04-.26,0-.25-16.16,3.77-32,8.96-47.3,15.39-.03,.01-.03,.14,0,.14l3.19,.58s.01-.05,0-.05h0Z"/><path class="cls-3" d="M457.95,415.41c-3.56,1.99-7.8,3.05-11.83,3.5-1.84,.21-3.7,.28-5.55,.2-.4-.02-1.64,.07-1.67-.27,0-.1,3.3-.84,3.54-.9,7.81-1.97,15.66-3.8,23.52-5.56,15.99-3.58,32.09-6.68,48.26-9.35,32.03-5.3,64.33-8.92,96.71-11.25,32.66-2.36,65.41-3.41,98.16-3.59,32.87-.18,65.74,.52,98.59,1.69,32.68,1.16,65.35,2.7,98.01,4.28,4.11,.2,8.22,.4,12.33,.6,.05,0,.06-.29,0-.29-31.42-1.73-62.85-3.46-94.29-4.69-31.48-1.23-62.98-2.08-94.49-2.2-31.41-.12-62.83,.48-94.19,2.18-31.23,1.69-62.41,4.48-93.4,8.73-30.97,4.24-61.78,9.89-92.12,17.47-3.84,.96-7.68,1.95-11.51,2.97-.04,0-.03,.15,0,.16,7.12,.68,13.39-.89,19.93-3.53,.04-.01,.01-.14,0-.12h0Z"/><path class="cls-3" d="M668.28,400.13c1.34-1.61,3.37-1.93,5.35-2.15,2.82-.33,5.65-.59,8.48-.86,5.43-.52,10.87-.98,16.31-1.41,10.88-.85,21.77-1.49,32.67-1.95,21.82-.93,43.66-1.16,65.5-1.06,43.54,.19,87.06,1.69,130.6,1.63,24.48-.03,48.97-.52,73.4-2.13,.04,0,.03-.2,0-.2-21.82,1.27-43.68,1.88-65.53,2.01-21.88,.13-43.76-.17-65.63-.55-21.98-.38-43.97-.83-65.96-.99s-43.69-.03-65.52,.76c-10.9,.39-21.8,.95-32.69,1.72s-21.63,1.53-32.33,3.02c-1.77,.25-3.48,.68-4.66,2.11,0,.01,0,.05,0,.05h0Z"/><path class="cls-3" d="M1103.05,332.77c-1.98,1.58-4.4,2.78-6.56,4.1s-4.41,2.67-6.62,3.99c-4.39,2.62-8.79,5.22-13.22,7.76-8.88,5.09-17.91,9.93-27.13,14.38-18.38,8.87-37.61,16.22-57.61,20.47-11.12,2.36-22.46,3.76-33.82,4.01-.03,0-.03,.15,0,.15,20.39-.23,40.46-4.42,59.69-11.06s37.67-15.65,55.42-25.64c5.04-2.84,10.05-5.75,14.99-8.77,2.47-1.51,4.93-3.04,7.38-4.58,1.25-.79,2.51-1.58,3.76-2.37s2.43-1.71,3.74-2.32c.03-.02,0-.13-.01-.12h0Z"/><path class="cls-3" d="M1163.61,302.64c-11.79,9.03-23.57,18.08-35.39,27.09-11.53,8.79-23.1,17.54-35.1,25.7-22.46,15.28-46.22,28.63-70.93,39.89-14.01,6.38-28.33,12.12-42.85,17.23-.05,.02-.03,.21,0,.2,25.74-8.68,50.64-19.74,74.46-32.8,11.91-6.53,23.54-13.57,34.86-21.08,11.97-7.96,23.54-16.5,34.97-25.22,13.4-10.22,26.66-20.62,39.98-30.95,.01,0,0-.05,0-.05h0Z"/><path class="cls-3" d="M986.99,407.38c1.92-.26,3.95-.09,5.89-.2,1.81-.1,3.62-.25,5.42-.45,3.75-.42,7.48-1.07,11.15-1.94,7.23-1.71,14.2-4.28,20.8-7.67,.03-.02,.01-.16-.02-.14-6.75,3.38-13.89,6.01-21.23,7.76-3.53,.84-7.11,1.48-10.71,1.91-1.8,.22-3.61,.38-5.42,.49-1.91,.12-4,.37-5.89,.11-.03,0-.03,.13,0,.13h0Z"/><path class="cls-3" d="M1033.42,392.9c1.39-.17,2.65-.19,3.95-.79s2.29-1.42,3.14-2.49c.02-.03,0-.17-.02-.15-6.01,5.16-11.37,11.1-15.76,17.7-3.7,5.57-8.15,12.74-5.63,19.66,.05,.13,.08-.15,.06-.21-1.67-4.9,.3-9.93,2.71-14.21,2.12-3.76,4.62-7.35,7.28-10.75s5.43-6.46,8.48-9.39c.73-.7,1.52-1.36,2.24-2.08,.55-.55,.41-.41,.04,0-.3,.32-.61,.61-.96,.88-1.44,1.12-3.66,2.08-5.53,1.71-.02,0-.03,.13,0,.13h0Z"/><path class="cls-3" d="M463.86,419.44c1.44,4.38,2.98,8.66,3.92,13.2s1.4,8.97,1.41,13.51c.02,8.8-1.42,17.56-4.42,25.83l1.09,1.55c.47-3.79,.7-7.61,1.15-11.41,.03-.23-.22-.81-.3-.31-.61,3.51-1.43,6.99-2.02,10.5-.1,.61-.17,1.55,.21,2.08,.3,.42,.62,.41,.82-.15,4.9-13.99,5.47-29.17,2-43.56-.92-3.8-2-7.82-3.84-11.29,0-.02-.01,.03-.01,.04h0Z"/><path class="cls-3" d="M476.41,421.09c-.75-1.12-1.37-2.34-2.04-3.51-.17-.29-.24,.62-.19,.76,3.18,8.4,5.2,17.14,5.59,26.13s-.72,17.32-2.98,25.75l1.07,.73c-.36-2.01-.09-3.59,1.05-5.33,.11-.16,0-1.01-.15-.85-1.75,1.88-2.49,4.59-2.09,7.11,.08,.51,.71,1.99,1.07,.73,5.09-17.73,3.91-37.97-3.33-54.95l-.19,.76c.73,.92,1.52,1.81,2.17,2.79,.02,.03,.04-.08,.02-.11h0Z"/><path class="cls-3" d="M486.05,423.3c-.6,0-1.24-.42-1.54-.94-.1-.18-.66-2.35-.27-.89,.28,1.05,.56,2.09,.81,3.14,.49,2.06,.9,4.14,1.24,6.23,.67,4.19,1.02,8.43,1.04,12.67,.06,8.47-1.25,16.86-3.71,24.96l.86,.56c-.43-2.99,.09-5.79,1.52-8.44,.06-.11,0-.63-.12-.46-1.87,2.88-2.64,6.23-2.36,9.63,.04,.45,.57,1.51,.86,.56,2.46-8.24,3.64-16.85,3.59-25.44-.02-4.2-.35-8.4-.97-12.56-.3-2.01-.68-4-1.12-5.99s-.8-4.34-1.7-6.16c-.09-.18-.16,.02-.17,.12-.2,1.61,.49,2.62,2.03,3.13,.04,.01,.04-.12,0-.12h0Z"/><path class="cls-3" d="M494.06,425.14c-.02-1.77-.45-3.29-1.63-4.65-.06-.07-.06,.14-.06,.16,1.08,4,2.4,7.89,3.17,11.98s1.21,8.4,1.28,12.64c.14,7.98-.85,16.02-3.34,23.62l1.68,2.43c.05-1.39-.23-2.77-.1-4.15,.15-1.61,.8-3.2,1.57-4.6,.13-.23,.01-1.44-.26-1.05-2.01,2.79-3.48,6.38-3.08,9.85,.05,.44,.21,1.54,.72,1.75s.8-.23,.92-.68c2.57-9.45,3.73-19.17,2.97-28.95-.35-4.54-1.1-9.06-2.24-13.47-.56-2.16-1.2-4.31-1.93-6.42-.29-.84-.51-2.12-1.13-2.78,1,1.06,1.55,2.87,1.41,4.3,0,.07,.05,.11,.05,.02h0Z"/><path class="cls-3" d="M502.79,424.81l.1-.03s.03-.05,.03-.07c.01-.3-.29-.78-.63-.67-.12,.04-.14,.23-.14,.33-.08,1.49,.69,3.09,1.09,4.5,.47,1.67,.9,3.34,1.23,5.04,.69,3.51,.99,7.1,.83,10.67-.3,6.99-2.04,13.93-5.13,20.21l1.5,4.88c.62-1.84,.78-3.67,1.1-5.58s.81-3.77,1.3-5.63c.06-.21-.08-1.29-.3-.76-.56,1.38-1.08,2.84-1.91,4.08-.27,.42-.63,.78-.92,1.19-.49,.7-.73,1.5-.99,2.31-.41,1.27-.41,2.85,.01,4.11,.18,.55,.94,1.94,1.49,.77,3.55-7.53,5.33-15.66,5.4-23.98,.03-3.94-.35-7.91-1.08-11.78-.35-1.87-.81-3.72-1.36-5.54-.26-.84-.54-1.67-.86-2.49-.17-.43-.31-.9-.53-1.3-.16-.29-.52-.6-.62-.9v.69s.5-.3,.38-.09c0,0,0,.05,0,.05h0Z"/><path class="cls-3" d="M511.74,431.36c-.76-.39-1.93-1.86-.81-2.45l-.41-.61c.5,2.99,1.67,5.84,2.17,8.85s.69,5.84,.64,8.76c-.05,2.65-.33,5.32-.84,7.92-.27,1.4-.61,2.78-1.02,4.14-.47,1.54-1.17,3.05-1.48,4.63l2.28,2.4c.2-2.56,.54-4.97,1.11-7.48,.07-.29-.22-1.71-.5-.94-.37,1.01-.71,2.03-1.19,2.99-.34,.7-.84,1.25-1.3,1.87-.82,1.09-.65,3.14-.33,4.37,.21,.83,.85,2.19,1.69,1.1,1-1.29,1.35-3.43,1.78-4.98,.46-1.71,.86-3.42,1.16-5.17,.61-3.61,.88-7.26,.75-10.92-.12-3.41-.57-6.79-1.37-10.12-.39-1.61-.85-3.2-1.39-4.77-.43-1.26-.8-2.84-1.79-3.77-.15-.14-.27,.15-.3,.23-.49,1.38-.37,3.31,1.15,3.96,.01,0,.02-.04,0-.05h0Z"/><path class="cls-3" d="M519.01,432.32c-.05-.43-.06-.89-.16-1.31-.18-.76-.21-.29-.15,.01,.16,.8,.59,1.6,.88,2.36,.61,1.61,1.1,3.25,1.5,4.92,.71,3.02,1.21,6.06,1.31,9.17,.09,2.81-.17,5.67-.83,8.5-.33,1.44-.77,2.88-1.4,4.22-.26,.56-.65,.91-.98,1.42-.94,1.42-.88,3.77-.63,5.34l1.73-4.9-.43-.35,.38,.72-.08-.37c-.26-1.16-.98-.51-1,.37,1.41,5.16,2.33,6.63,2.76,4.4l.11-.46c.09-.31,.19-.61,.28-.92,.29-.97,.54-1.95,.8-2.92,.41-1.58,.78-3.16,1.04-4.78,.56-3.48,.78-7.02,.59-10.55s-.7-6.72-1.71-9.92c-.84-2.66-2.08-5.55-3.8-7.76-.05-.08-.11-.13-.21-.14l-.37,.11c-.12,.03-.09,.29-.07,.38,.21,.8,.3,1.64,.43,2.46,0,.03,.02,0,.02-.01h0Z"/><path class="cls-3" d="M543.75,448.45h.8s.03-.13,0-.13h-.8s-.03,.13,0,.13h0Z"/><path class="cls-3" d="M548.56,448.44c.66-.37,1.47-.9,2.21-.66,.16,.05,.18-.78,.02-.89-1.75-1.15-4.6-.84-6.6-.73-2.3,.13-4.6,.34-6.88,.65s-4.64,.96-6.88,1.82c-.93,.36-1.85,.75-2.77,1.15-1.03,.46-2.45,.89-3.24,1.71-.92,.95-1.01,2.57-.97,3.82,.03,1.36,.31,2.8,1.17,3.88,1.25,1.59,3.33,2.61,5.11,3.51,4.02,2.04,8.39,3.37,12.68,4.72,2.64,.83,5.38,1.17,8.11,1.55s5.6,.94,8.42,1.28c.37,.05,.35-1.57-.04-1.72-3.25-1.23-6.51-2.39-9.7-3.78-2.98-1.3-5.93-2.49-9.01-3.54-2.77-.94-5.56-1.86-8.22-3.08-1.29-.59-2.52-1.25-3.69-2.05-.59-.4-1.15-.82-1.7-1.28-.27-.23-.56-.45-.81-.7-.99-1.01,.04-.9-.22,1.68l-.44,1.89c.35-.84,2.05-1.31,2.83-1.67,1.01-.47,2.03-.91,3.06-1.33,2.21-.91,4.43-1.79,6.65-2.68s4.36-1.59,6.62-2.17c1.12-.29,2.25-.5,3.36-.83s2.29-.52,3.17-1.23l-.14-.82c-.48,.67-1.38,1.09-2.13,1.37-.04,.01-.02,.14,0,.12h0Z"/><path class="cls-3" d="M535.71,463.74c1.53,.28,3.04,1,4.56,1.38s3,.66,4.53,.87c3.1,.41,6.25,.37,9.36,0,.02,0,.02-.1,0-.1-3.06,.32-6.13,.28-9.19-.06-1.47-.16-2.92-.4-4.36-.73-1.59-.36-3.46-.7-4.89-1.5-.02-.01-.04,.12,0,.12h0Z"/><path class="cls-3" d="M367.5,474.89c.91-.73,1-1.83,.24-2.77-1.46-1.8-3.47,.2-3.67,1.89-.24,2.04,1.23,3.69,2.78,4.8,2.49,1.78,5.47,2.83,8.45,3.47,6.63,1.42,13.66,1.38,20.4,1.68,7.47,.33,14.94,.6,22.42,.74,14.64,.28,29.24,.4,43.87-.31,7.46-.36,14.91-.88,22.36-1.46,7.27-.57,14.53-1.55,21.81-2.01,4.03-.26,8.07-.5,12.09-.88s8.37-1.12,12.52-1.81,8-1.33,12-1.96c2.06-.33,4.19-.56,6.23-1.04,2.3-.55,4.01-1.77,5.79-3.29,.45-.38,.43-2.41-.17-2.65-1.6-.65-3.07-1.21-4.83-1.05s-3.52,.65-5.26,1.03c-3.19,.69-6.38,1.32-9.59,1.91-6.57,1.22-13.19,2.13-19.73,3.48-3.21,.67-6.43,1.31-9.65,1.93s-6.61,.97-9.92,1.39c-6.54,.83-13.08,1.57-19.64,2.18-13.27,1.24-26.58,2.01-39.9,2.68s-26.31,.74-39.46,.28c-3.73-.13-7.47-.3-11.2-.49-3.27-.17-6.55-.36-9.76-.99s-6.46-1.69-9.1-3.65c-1.73-1.28-3.37-3.66-1.46-5.58,.52-.52,1.32-.86,2.04-.54,.96,.43,1.67,2.55,.32,2.9-.04,.01,0,.14,0,.12h0Z"/><path class="cls-3" d="M618.16,457.29c-.56-.53,.29-.49,.63-.63,.71-.28,1.25-.39,2.02-.45,1.79-.15,3.59-.31,5.38-.47,3.43-.31,6.85-.64,10.27-1.05,6.84-.82,13.67-1.69,20.5-2.62,13.65-1.86,27.27-4.01,40.85-6.36,3.72-.64,7.43-1.3,11.15-1.98,1.94-.35,3.87-.71,5.81-1.07,.97-.18,1.93-.36,2.9-.55,.31-.06,.65-.15,.97-.18,.72-.07,1.25,.29,1.94,.07l-.26-3.9c-.28,.28-.54,.44-.94,.42-.21,0-.63-.29-.58,.07,0-.07-.16-.75-.33-.4-.62,1.35,.29,4.16,2.11,3.81,.93-.18,.74-4.03-.1-3.97-.7,.05-.49,.07-1.11,.45-.58,.36-1.14,.42-1.78,.55-.81,.15-1.61,.31-2.42,.46-1.93,.37-3.87,.73-5.81,1.08-3.63,.67-7.27,1.32-10.9,1.96-7.35,1.29-14.72,2.51-22.1,3.66-14.6,2.28-29.24,4.2-43.88,6.16-4.07,.55-8.15,1.09-12.22,1.71-1.32,.2-2.24,.75-2.55,2.14-.13,.56-.14,1.02,.44,1.22,.02,0,.02-.11,0-.12h0Z"/><path class="cls-3" d="M700.46,439.4c.91,.86,1.38,1.15,2.61,1.21,1.09,.06,2.19,.08,3.28,.16,2.12,.16,4.22,.43,6.32,.75,4.2,.66,8.32,1.41,12.39,2.68,7.48,2.32,14.79,6.58,22.81,6.51,4.22-.04,7.64-2.36,10.48-5.31,.15-.15,.07-1.06-.1-.95-2.77,1.93-6.3,1.68-9.53,1.86-3.77,.2-7.47-.65-11.02-1.85-3.83-1.29-7.53-2.96-11.4-4.12s-8-2.02-12.1-2.5c-2.31-.27-4.66-.27-6.99-.21-1.17,.03-2.34,.1-3.51,.19-.58,.04-1.33,.02-1.87,.24-.57,.23-.98,.85-1.37,1.29,0,0,0,.04,0,.05h0Z"/><path class="cls-3" d="M745.68,428.16c-1.89,.84-4.02,1.31-6,1.92l-5.54,1.72c-.06,.02-.04,.23,0,.22,21.1-4.51,42.4-8.1,63.84-10.5,10.66-1.19,21.3-2,32.02-2.4,10.37-.39,20.8-.81,31.18-.57,4.48,.1,8.93,.54,13.24,1.79,2.07,.6,4.07,1.41,5.89,2.58,.83,.54,1.63,1.14,2.35,1.82,.4,.37,.74,.86,1.16,1.2,.32,.25,.74,.42,1.09,.64,.32,.21,.19-1.21,.13-1.35-.47-1.09-.92-2.04-1.75-2.89-.7-.72-1.47-1.37-2.28-1.95-1.59-1.13-3.36-1.99-5.19-2.65-4-1.44-8.35-1.78-12.56-1.85-5.18-.09-10.38,.23-15.55,.47-5.76,.27-11.51,.64-17.26,1.13-23.22,1.98-46.4,4.64-69.34,8.75-6.4,1.15-12.77,2.4-19.12,3.79-1.59,.35-3.18,.7-4.76,1.06-.72,.16-1.72,.23-2.38,.55-.28,.13-.41,.18-.01,.16,.44-.02,.97-.32,1.38-.46l4.62-1.52c1.58-.52,3.21-1.22,4.85-1.53,.04,0,.02-.14,0-.12h0Z"/><path class="cls-3" d="M825.16,418.97c1.81-1.2,4.14-1.9,6.2-2.53s4.05-1.07,6.11-1.38c4.09-.63,8.27-.72,12.39-.35,8.94,.8,17.26,4.16,25.32,7.92,1.98,.93,3.93,2.2,6,2.9,.66,.22,1.52,.48,2.11,.02s1-1.07,1.18-1.8c.02-.07-.03-.73-.12-.61-.51,.63-1,.21-1.62,.09-.7-.14-1.38-.18-2.06-.45-1.97-.79-3.84-1.86-5.78-2.72-3.81-1.69-7.77-3-11.82-4-8.04-2-16.55-2.87-24.76-1.52-2.22,.36-4.41,.89-6.55,1.58-2.29,.74-4.37,1.92-6.62,2.74-.04,.01-.01,.14,0,.12h0Z"/><path class="cls-3" d="M886.79,412.98c-2.15,.75-5.74-.41-6.65-2.61l-.15,.95c.79,.58,1.59,.27,2.54,.17l2.73-.28,5.95-.62,11.4-1.19c7.69-.8,15.36-1.6,23.06-2.26,13.28-1.14,26.7-3.11,40.04-1.63,3.57,.4,7.12,1.06,10.56,2.1,1.71,.51,3.35,1.23,5.05,1.77,.74,.24,1.48,.53,2.25,.43,.37-.05,.73-.2,1.1-.25,.24-.2,.48-.2,.73-.01,.24,.08,.49,.17,.73,.25,.17,.06,.18-.98,.02-1.11-.85-.68-1.48-1.43-2.15-2.28s-1.3-1.32-2.21-1.85c-1.38-.8-2.93-1.31-4.45-1.8-3.02-.99-6.12-1.68-9.26-2.14-6.44-.95-12.95-.96-19.43-.45-14.56,1.13-28.92,4.08-43.37,6.04-4.3,.58-8.59,1.21-12.88,1.82l-6.19,.88-3.22,.46c-1.08,.15-2.23,.05-3.01,.85-.14,.14-.22,1.1,.07,1.11,.61,.02,1.17,.69,1.69,.98,.43,.25,.89,.44,1.37,.59,1.26,.4,2.4,.25,3.69,.19,.04,0,.02-.13,0-.13h0Z"/><path class="cls-3" d="M974.94,406.53c4.46,.69,7.84,4.03,11.13,6.86,3.85,3.31,7.87,6.44,11.79,9.67s7.71,6.04,11.62,8.97c3.68,2.76,7.33,5.59,11.11,8.21,1.94,1.34,3.93,2.62,6,3.76,1.1,.6,2.22,1.13,3.35,1.68,.99,.48,2.19,1.39,3.28,1.48,.47,.04,.63-1.15,.66-1.4,.14-1.26,.32-2.21,1.29-3.12,.18-.17,.25-1.46-.09-1.45-.59,.02-1.37,.3-1.91,.16-.19,.05-.32,.18-.38,.37l-.1,.25,.61-.3c-.8-.48-1.79-.56-2.68-.87-1.17-.4-2.27-.95-3.36-1.52-1.88-.98-3.7-2.07-5.47-3.24-3.78-2.47-7.39-5.21-11.03-7.87-3.85-2.81-7.69-5.68-11.66-8.32s-7.86-5.39-11.89-7.89c-2.07-1.28-4.09-2.69-6.21-3.88-1.87-1.05-3.87-1.85-6.05-1.6-.01,0,0,.05,0,.05h0Z"/><path class="cls-3" d="M1030.24,439.52c-1.02,1.11-2.95,1.12-3.99,.02,0,0-.02,.08,0,.09,1.05,1.09,2.99,1.05,4-.07,0,0,0-.05,0-.05h0Z"/><path class="cls-3" d="M561.83,446.31c-1.8-2.22-4.64-2.69-6.94-4.18-1.57-1.02-3.45-2.79-2.77-4.9,.5-1.55,2.13-2.68,3.39-3.58,5.12-3.63,11.46-5.04,17.48-6.38,.05-.01,.03-.2,0-.2-6.77,1.36-14.46,2.85-19.62,7.83-1.9,1.83-2.06,4.28-.26,6.26,2.36,2.61,6.38,2.52,8.7,5.19,.01,.01,.02-.03,0-.04h0Z"/><path class="cls-3" d="M551.22,433.81c1.51-.62,3.21-.92,4.79-1.32,1.67-.42,3.35-.83,5.03-1.23,3.2-.76,6.42-1.46,9.64-2.12,6.53-1.33,13.08-2.52,19.66-3.53,13.03-2,26.16-3.36,39.3-4.35,26.62-2.01,53.32-2.51,79.99-3.64,14.98-.64,29.97-1.44,44.89-2.94,.02,0,.02-.1,0-.1-26.61,2.35-53.29,3.15-79.98,4.13-26.58,.98-53.2,2.25-79.56,5.98-7.29,1.03-14.56,2.24-21.77,3.71-3.69,.75-7.37,1.59-11.03,2.48-1.83,.45-3.66,.91-5.49,1.39s-3.64,1.17-5.47,1.43c-.04,0-.01,.13,0,.13h0Z"/><path class="cls-3" d="M723.84,425.19c1.26-1.83,4.6-.81,6.38-.6l7.83,.93c5.21,.62,10.43,1.15,15.65,1.7,.03,0,.03-.14,0-.15-5.54-.65-11.08-1.31-16.63-1.9l-8.07-.85c-1.61-.17-4.07-.8-5.17,.82,0,0,0,.05,0,.04h0Z"/><path class="cls-3" d="M301.58,446.04c.61,1.02,1.95,1.08,3.02,1.27,1.7,.3,3.43,.49,5.15,.6,3.71,.24,7.42,.14,11.13,.04,7.63-.2,15.26-.49,22.88-.74,.02,0,.02-.1,0-.1-7.22,.2-14.44,.37-21.66,.62-3.49,.12-6.98,.28-10.47,.18-1.65-.05-3.3-.15-4.94-.34-1.26-.15-4.6-.13-5.09-1.63-.02-.05-.05,.06-.02,.1h0Z"/><path class="cls-3" d="M340.8,446.62c2.38,2.42,4.8,4.62,8.15,5.51,3.62,.97,7.59,1.04,11.32,1.17,7.99,.28,15.99-.06,23.98-.4,.02,0,.02-.1,0-.1-7.83,.28-15.66,.57-23.49,.27-3.7-.14-7.54-.15-11.17-.94s-6.2-2.99-8.78-5.57c0,0-.01,.04,0,.05h0Z"/><path class="cls-3" d="M387.05,449.18c21.76-1.51,43.62-1.65,65.39-.22,6.16,.41,12.3,1.09,18.45,1.56,.04,0,.04-.19,0-.2-10.73-1.45-21.7-1.94-32.51-2.33-10.94-.39-21.9-.39-32.84,0-6.17,.22-12.34,.63-18.49,1.13-.01,0,0,.05,0,.05h0Z"/><path class="cls-3" d="M363.29,436.12c.38-.31,1.1-.33,1.58-.35s.98,.02,1.46,.12c.97,.19,1.9,.61,2.72,1.17,.86,.6,1.59,1.37,2.11,2.27s1.02,2.4,.52,3.45c-.44,.93-1.67,1.55-2.61,1.82-1.14,.33-2.35,.47-3.53,.31-2.13-.29-4.45-1.85-4.81-4.07-.03-.2-.04-.22,0-.43,.04-.23,.11-.46,.2-.67,.24-.56,.6-1.03,1.02-1.46,.98-1.02,2.01-1.69,3.4-2.03,.15-.04,.14-.52,.01-.58-1.12-.54-2.58-.48-3.63,.24-1.15,.79-1.73,2.31-1.89,3.64-.38,3.1,.91,6.51,3.95,7.74,2.6,1.05,6.61,.67,7.88-2.21,1.03-2.35,.57-5.25-1.15-7.14-.86-.94-1.98-1.64-3.2-2.01-.65-.2-1.34-.3-2.02-.28-.34,0-.68,.04-1.02,.11s-.68,.25-1,.23c-.04,0-.02,.14,0,.12h0Z"/><path class="cls-3" d="M368.22,437.94c-.28-.3-.57-.61-.85-.92-.17-.19-.15,.4-.12,.47,.86,2.41-.35,5.15-2.59,6.32-.21,.11-.16,1.09,.08,1.03,3.34-.74,4.45-4.49,3.82-7.48-.05-.23-.26-.77-.55-.46s-.26,.99-.21,1.38c.09,.73,.24,1.46,.32,2.19,.06,.51,.07,.95-.04,1.37-.02,.07-.14,.41-.2,.54-.12,.24-.26,.48-.42,.68-.31,.38-.75,.72-1.21,.9l.24,3.28c1.77-1.33,3.03-3.28,3.6-5.41l-1.17-.83c.05,.45,0-.31,0-.04,0,.3-.03,.14,.01-.05,0,.02-.03,.4-.03,.4-.03-.01,.06-.37,0-.07-.03,.13-.05,.26-.08,.39,.03-.14,.05-.17,0-.01-.04,.13-.08,.26-.13,.38-.01,.03-.14,.33-.08,.21,.05-.1-.11,.21-.1,.21-.05,.1-.11,.2-.16,.29-.11,.19-.24,.38-.37,.56-.25,.34-.56,.63-.89,.9-.62,.51-.56,1.81-.46,2.51,.05,.32,.33,1.85,.95,1.4,3.27-2.37,3.7-7.19,2.52-10.76l-1.03,3.1c.33,.85,.79,1.62,1.23,2.4,.23,.4,.29,.5,.43,.88,.03,.09,.07,.18,.09,.27-.06-.19-.06-.2-.01,0-.04-.26-.04-.29-.01-.07-.02-.32-.02-.36-.01-.13,0-.16,0-.32,.02-.48,.05-.19,.05-.19,0,0,.15-.19-.17,.25-.06,.1-.19,.24-.47,.46-.69,.66-.24,.22-.55,.35-.79,.56-.27,.23-.34,.45-.71,.27-.46-.22-.35,1.28-.19,1.49,.14,.18,.3,.32,.46,.48s.29,.38,.45,.55c.28,.3,.76,.36,1.15,.33,1.1-.08,1.56-1.66,1.72-2.53,.29-1.55,.08-3.24-.48-4.71-.24-.63-.57-1.22-.88-1.81-.13-.23-.25-.47-.38-.7,0,0-.2-.41-.11-.23-.06-.14-.12-.28-.18-.43-.08-.2-.28-.63-.57-.62s-.47,.45-.54,.65c-.31,.97-.25,2.12,.08,3.07,.06,.18,.05,.16-.02-.08,.02,.08,.04,.16,.06,.24,.01,.06,.03,.12,.04,.18,.03,.15,.02,.08-.04-.21,.01,.08,.02,.16,.03,.25,.02,.23,.02,.16-.01-.2-.02,.1,0,.27,0,.37,.01-.36,.01-.42,0-.19,0,.08-.01,.17-.02,.25-.06-.05,.08-.47,0-.01,0,.05-.11,.53-.05,.28s-.07,.22-.09,.27c-.36,1.08-1.01,1.93-1.89,2.61l.49,3.91c2.3-2.01,3.01-5.21,2.64-8.15-.04-.35-.17-1.28-.61-1.38s-.59,.64-.66,.94c.07-.28-.01,.04-.03,.1-.03,.12-.07,.23-.11,.35-.07,.23-.16,.46-.25,.68-.14,.33-.39,.82-.63,1.2-.51,.83-1.13,1.55-1.86,2.2-.5,.44-.47,1.47-.38,2.07,.05,.36,.22,1.42,.79,1.15,1.48-.7,2.27-2.34,2.57-3.88,.39-2.02,.11-4.3-.58-6.23l-.47,1.84c.2,.38,.19,.61,.11,1.04-.11,.58-.33,1.12-.64,1.62-.63,1.03-1.61,1.84-2.78,2.17l.08,1.03c2.57-1.52,3.67-5,2.61-7.76l-.1,.5c.31,.14,.61,.28,.92,.42,.01,0,.01-.04,0-.05h0Z"/><path class="cls-3" d="M358.89,435.46c.57-.53,1.28-.87,1.88-1.37,.25-.21,.53-.49,.56-.83,.08-.74-.64-.59-1.14-.4-2.11,.77-4.25,2.02-5.44,3.98-1.33,2.17-1.24,4.91-.86,7.33,.33,2.09,.87,4.56,2.68,5.89,1.69,1.24,4.25,.83,4.98-1.27,.02-.06-.03-.37-.08-.27-.84,1.72-3.58,1.59-4.9,.56-1.91-1.49-2.32-4.36-2.54-6.61-.27-2.87,.53-5.39,2.8-7.23,.86-.7,1.83-1.24,2.82-1.74,.22-.11,.98-.61,1.18-.56l.33,.56c-.1,.18-.24,.34-.4,.47-.56,.49-1.22,1.03-1.87,1.38-.04,.02,0,.14,.01,.12h0Z"/><path class="cls-3" d="M348.08,441.49c.68,0,1.32-.44,1.89-.78,.7-.43,1.41-.86,2.13-1.28,1.39-.81,2.8-1.59,4.2-2.4,2.88-1.66,5.83-3.25,8.8-4.74,.08-.04,.04-.41-.03-.39-3.02,1.12-5.93,2.39-8.78,3.89-1.49,.78-2.91,1.65-4.33,2.55s-2.97,1.69-3.9,3.03c-.01,.02-.02,.12,.01,.12h0Z"/><path class="cls-3" d="M362.19,432.63c-.61-.2,.48-.81,.57-.84,.25-.08,.53-.07,.79-.08,.6-.04,1.2-.05,1.81-.05,1.21,.01,2.41,.11,3.61,.3,2.44,.38,4.92,1.09,7.11,2.25,1.92,1.02,3.5,2.62,3.54,4.92,.04,1.98-1,3.92-2.69,4.96-.04,.03-.02,.21,.02,.19,2.74-1.47,3.6-5.34,2.06-7.97-1.07-1.84-3.17-2.73-5.09-3.4-2.51-.87-5.16-1.33-7.81-1.36-.5,0-4.88-.15-3.92,1.2,.02,.03,.06-.1,0-.12h0Z"/><path class="cls-3" d="M376.79,435.4c2.94,3.07,4.21,7.62,2.09,11.54-1.82,3.37-5.71,5.35-9.49,5.12-.06,0-.06,.24,0,.25,4.34,.56,8.74-2.17,10.18-6.32,1.23-3.55,.3-8.28-2.78-10.64,0,0-.01,.04,0,.05h0Z"/><path class="cls-3" d="M363.73,432.08c1.05-.44,2.35-.53,3.47-.68s2.15-.23,3.23-.25c2.2-.04,4.43,.19,6.51,.93,4.79,1.7,8.06,6.28,7.71,11.43,0,.12,.08,.28,.1,.08,.35-4.68-2.11-9.13-6.38-11.17-2.17-1.03-4.6-1.4-6.98-1.41-1.24,0-2.48,.09-3.71,.26-1.3,.17-2.66,.64-3.96,.68-.04,0-.03,.14,0,.12h0Z"/><path class="cls-3" d="M378.94,433.35c2.27,1.27,4,3.43,4.67,5.96,.74,2.84,0,5.9-1.79,8.19-.03,.04,.01,.2,.03,.18,3.7-4.61,2.34-11.58-2.91-14.37-.01,0-.01,.04,0,.05h0Z"/><path class="cls-3" d="M354.53,447.63c2.78,5.45,9.41,8.83,15.42,7.15s9.8-7.27,9.93-13.23c0-.02-.02-.13-.04-.07-.84,3.57-2.4,7.17-5.15,9.68-2.59,2.36-6.17,3.62-9.65,2.96-.04,0-.05,.18,0,.2,3.69,.86,7.47-.55,10.11-3.18,1.28-1.27,2.32-2.81,3.09-4.44,.35-.75,.65-1.54,.9-2.33,.17-.52,.32-1.05,.45-1.59,.05-.19,.16-1.16,.22-.55,.19,1.86-.91,4.23-1.83,5.78s-2.18,2.95-3.63,4.05c-2.91,2.2-6.56,3-10.14,2.39-4.07-.7-7.72-3.21-9.68-6.86,0-.01-.01,.03,0,.04h0Z"/><path class="cls-3" d="M358.71,435.34c-.81-.04-1.33,0-1.97,.56-.54,.48-.91,1.1-1.19,1.75-.61,1.4-.96,2.91-1.08,4.43-.24,3.14,.56,6.28,2.3,8.91,.04,.05,.06-.13,.03-.17-1.62-2.53-2.42-5.54-2.25-8.55,.08-1.47,.39-2.93,.93-4.3,.41-1.04,1.76-3.42,3.23-2.52,.03,.02,.04-.12,0-.12h0Z"/><path class="cls-3" d="M349.32,441.84c-1.02,.33,.41-.81,.5-.87,.38-.27,.77-.54,1.15-.81,.9-.63,1.81-1.24,2.71-1.87,1.56-1.09,3.13-2.19,4.79-3.13,1.84-1.04,3.81-1.9,5.91-2.25s4.18-.18,6.23,.09c3.62,.48,7.28,1.8,9.12,5.18s1.43,7.43-.8,10.43c-.03,.05,0,.26,.04,.22,3.06-3.49,2.77-9.24-.16-12.74-2.12-2.53-5.48-3.44-8.63-3.8-3.77-.44-7.23-.09-10.65,1.64-3.92,1.99-7.45,4.8-10.89,7.5-.07,.06-.05,.23-.02,.3,.16,.4,.34,.4,.72,.22,.03-.01,.01-.13,0-.12h0Z"/><path class="cls-3" d="M374.53,434.35c3.36,2.79,5.34,7.47,4.14,11.78-.52,1.85-1.56,3.55-2.93,4.89-.66,.65-1.39,1.22-2.18,1.7-.5,.3-2.51,1.55-2.95,.85l.02,.78c.37-.77,.76-1.52,1.17-2.27,.03-.06,0-.34-.06-.25-.4,.58-.8,1.15-1.25,1.7-.15,.19-.14,.54-.05,.75,.16,.4,.34,.87,.84,.94,.43,.06,1.05-.33,1.43-.52,1.14-.56,2.19-1.32,3.1-2.23,1.65-1.65,2.82-3.74,3.33-6.02,1.02-4.54-.72-9.52-4.59-12.16,0,0-.01,.04,0,.05h0Z"/><path class="cls-3" d="M379.7,434.52c-.12-.24-.08-.29,.12-.16,.1,.02,.18,.06,.25,.13,.14,.1,.25,.23,.37,.35,.28,.28,.54,.58,.78,.89,.39,.5,.73,1.05,1.02,1.61,.64,1.24,1.03,2.61,1.15,3.99,.11,1.23-.03,2.48-.43,3.66-.2,.59-.44,1.22-.86,1.68-.16,.18-.34,.33-.52,.49-.23,.21-.75,.76-.62,1.1l.04,.63h.02c.12-.12,.18-.79-.06-.82-.33-.04-.33,.46-.32,.68,.02,.51,.28,.91,.67,1.22,.08,.06,.16,.06,.23,0,.43-.22,.63-.91,.82-1.33,.21-.48,.43-.97,.63-1.45,.34-.82,.58-1.69,.73-2.57,.29-1.76,.23-3.62-.26-5.34-.45-1.59-1.27-3.08-2.45-4.24-.2-.19-1.4-1.4-1.6-.73-.06,.19,.12,.37,.31,.3,.06-.02,0-.16-.02-.11h0Z"/><path class="cls-3" d="M304.43,441.94c-2.75,.78-3.97,3.87-3.46,6.52,.78,3.97,4.72,6.57,8.08,8.22,4.29,2.11,8.98,3.2,13.6,4.3,5.2,1.24,10.41,2.43,15.64,3.55,10.46,2.23,21,4.13,31.61,5.43,10.52,1.28,21.2,2.19,31.81,1.94,2.89-.07,5.78-.2,8.67-.41,1.53-.11,3.05-.24,4.57-.39,1.21-.12,2.72-.06,3.86-.51,.77-.3,1.05-.95,1.09-1.74,.02-.4,.04-1.41-.46-1.58-.96-.33-1.42,1.54-.75,1.97,.25,.16,.19-.99,.11-1.13l-.1-.16,.11,.75v-.1l-.13,.49c.49-.37,.58,.72,.58-.54,0-.9-.21-.4-.81-.24-1.05,.29-2.25,.31-3.32,.43-2.16,.24-4.33,.44-6.49,.59-4.41,.32-8.83,.46-13.25,.52-8.86,.13-17.69-.36-26.49-1.33-8.83-.98-17.62-2.37-26.35-4.02-8.56-1.62-17.18-3.3-25.61-5.51-4.3-1.13-8.77-2.63-12.3-5.43-1.89-1.5-3.63-3.61-3.74-6.13-.1-2.34,1.2-4.74,3.51-5.44,.01,0,0-.05,0-.05h0Z"/><path class="cls-3" d="M367.91,471.34c-1.13,.07-1.99,.14-2.85,.99-.65,.64-1.09,1.5-1.25,2.39-.4,2.19,.84,3.72,2.85,4.48,3.57,1.36,7.46,2.14,11.2,2.9,4.02,.81,8.08,1.42,12.16,1.89,8.14,.93,16.34,1.19,24.52,1.4s17.02,.29,25.53,.3c9.58,0,19.17-.42,28.74-.68,.09,0,.08-.44-.01-.44-15.53-.15-31.07-.23-46.61-.47s-29.78-.39-44.36-2.98c-2.01-.36-4.01-.76-5.99-1.23s-4.05-.81-5.85-1.65c-1.96-.91-2.6-2.82-1.53-4.76,.62-1.14,2.05-2.44,3.46-1.99,.02,0,.03-.13,0-.13h0Z"/><path class="cls-3" d="M300.01,442.99c4.36-3.39,9.64-5.93,14.51-8.49s9.84-4.9,14.91-7.04c10.56-4.47,21.45-8.1,32.46-11.27,21.67-6.25,43.79-10.78,65.59-16.54,24.72-6.53,48.94-14.78,73.68-21.25,24.49-6.41,49.41-11.02,74.46-14.65,25.21-3.66,50.54-6.25,75.86-9.04,3.12-.34,6.24-.68,9.36-1.03,.08,0,.06-.35,0-.34-25.35,2.34-50.68,4.89-75.91,8.33s-50.28,7.74-74.99,13.77c-24.87,6.07-49.15,14.24-73.79,21.14-22.13,6.2-44.65,10.86-66.81,16.94s-43.15,13.17-62.31,24.88c-2.36,1.44-4.61,3.14-7.02,4.48-.03,.02,0,.14,.02,.12h0Z"/><path class="cls-3" d="M539.88,375.23c1.59,.78,2.95,2.4,4,3.8,1.13,1.51,2.05,3.17,2.81,4.89,1.61,3.62,2.59,7.49,3.47,11.34,2.08,9.01,3.19,18.23,3.35,27.47,0,.06,.04,.06,.04,0-.14-9.43-1.28-18.82-3.45-28-.9-3.8-1.9-7.64-3.55-11.2-.74-1.59-1.61-3.12-2.66-4.52-1.17-1.54-2.58-2.62-4-3.9-.02-.02-.05,.1-.01,.12h0Z"/><path class="cls-3" d="M546.72,370.26c9.88,14.23,14.03,32.12,11.4,49.25,0,.07,.05,.14,.06,.04,2.07-13.35,.06-27.19-5.7-39.41-1.63-3.47-3.56-6.78-5.76-9.92-.01-.02-.02,.03,0,.04h0Z"/><path class="cls-3" d="M776.61,359.25c6.52,15.15,9.05,31.82,7.42,48.23,0,.04,.03,.09,.04,.03,1.72-16.42-.89-33.14-7.44-48.29-.01-.02-.02,.02-.01,.04h0Z"/><path class="cls-3" d="M786.48,357.9c1.93,3.63,3.1,7.88,4.16,11.83s1.87,8.17,2.36,12.33c1,8.46,.76,17.04-.73,25.43,0,.03,.03,.11,.04,.05,1.5-8.27,1.79-16.74,.82-25.09-.48-4.16-1.26-8.29-2.34-12.34s-2.82-8.19-4.27-12.3c-.02-.06-.05,.05-.04,.09h0Z"/><path class="cls-3" d="M939.49,371.36c.37-.55,1.11-.65,1.67-.31,.9,.55,.97,1.95,1.09,2.89,.18,1.38,.32,2.77,.4,4.16,.18,2.78,.17,5.57-.01,8.35-.37,5.49-1.46,10.92-3.17,16.15-.01,.04,.02,.17,.04,.1,2.06-6.14,3.18-12.55,3.31-19.02,.07-3.26-.11-6.53-.55-9.77-.12-.89-.17-2.1-.9-2.76-.58-.53-1.47-.51-1.91,.16,0,.01,0,.06,.01,.04h0Z"/><path class="cls-3" d="M947.2,372.11c4.8,9.72,4.81,21.37,.09,31.12-.02,.03,.01,.17,.03,.13,4.82-9.76,4.76-21.55-.11-31.28-.01-.02-.02,.02-.01,.04h0Z"/><path class="cls-3" d="M955.45,371.51c1.18,5.69,.92,11.99,.15,17.72s-2.28,11.36-4.51,16.71c-.01,.03,.01,.17,.04,.1,2.3-5.42,3.87-11.13,4.59-16.97,.35-2.85,.51-5.72,.48-8.59-.03-3.04-.43-6-.71-9.01,0-.09-.06,0-.05,.05h0Z"/><path class="cls-3" d="M403.46,405.87c4.29,.44,6.53,4.75,8.12,8.25,1.95,4.28,3.57,8.7,4.87,13.22,2.63,9.17,3.89,18.72,3.75,28.26,0,.06,.04,.06,.04,0,.13-7.6-.62-15.19-2.28-22.61-.86-3.84-1.95-7.63-3.28-11.34-1.23-3.45-2.57-6.97-4.36-10.17-1.49-2.68-3.62-5.32-6.87-5.64-.01,0-.01,.05,0,.05h0Z"/><path class="cls-3" d="M409.75,404.25c1.48-1.83,3.56,2.82,4.06,3.76,.91,1.71,1.76,3.44,2.58,5.2,1.68,3.64,3.16,7.38,4.43,11.19,2.51,7.55,4.18,15.36,5.01,23.27,.47,4.5,.65,9.03,.55,13.56,0,.06,.04,.06,.04,0,.41-16.98-3.23-33.97-10.58-49.28-.5-1.04-4.27-10.01-6.1-7.73,0,.01,0,.06,.01,.04h0Z"/><path class="cls-3" d="M322.56,429.13c5.87,6.56,9.01,15.25,8.66,24.05,0,.02,.02,.05,.02,.01,.35-8.82-2.78-17.53-8.67-24.11-.01-.01-.02,.03,0,.04h0Z"/><path class="cls-3" d="M326.74,430.86c1.46-2.12,3.74,2.3,4.21,3.2,1.01,1.93,1.89,3.92,2.64,5.95,1.57,4.26,2.56,8.72,2.97,13.24,0,.07,.04,.02,.04-.03-.45-4.93-1.59-9.77-3.41-14.37-.9-2.26-1.95-4.48-3.17-6.57-.54-.92-2.29-2.92-3.28-1.46,0,.01,0,.06,.01,.04h0Z"/><path class="cls-3" d="M332.75,427.12c5.45,7.5,7.99,16.81,7.13,26.04,0,.04,.03,.09,.04,.03,.91-9.25-1.67-18.61-7.16-26.11-.01-.01-.02,.03,0,.04h0Z"/></g></svg>