<?xml version="1.0" encoding="UTF-8"?><svg id="Layer_1" xmlns="http://www.w3.org/2000/svg" viewBox="0 0 1500 750"><defs><style>.cls-1{fill:#807a77;}.cls-2{fill:#b9b4b2;}.cls-3{fill:#231f20;}</style></defs><g><g><path class="cls-1" d="M1069.32,390.54c24.13,9.54,14.33,3.39-2.82-5.8,.89,3.16,1.99,5.47,2.82,5.8Z"/><path class="cls-1" d="M1013.92,333.95s-33.39-1.57-74.68-3.83c-.32-.07-.63-.15-.95-.23,.06,.07,.13,.13,.2,.19-27.95-1.53-59.43-3.38-86.61-5.26l82.88,3.94c-6.83-2.68-12.71-7.82-16.05-14.37-4.2-8.22-4.34-18.4-.36-26.73-21.35,5.18-41.69,14.48-59.58,27.23-4.94,3.52-9.82,7.35-15.54,9.31-21.63-1.57-39.75-3.15-49.89-4.58-15.49-2.19-50.39-7.96-92.05-13.7-.26-.17-.51-.33-.77-.49,.04,.14,.09,.28,.16,.41-14.77-2.03-30.37-4.06-46.26-5.93l44.03,4.07c-21.78-15.96-31.57-46.98-22.18-72.42-19.77-.53-39,7.13-55.74,17.68-16.73,10.55-31.43,23.95-46.78,36.43-3.76,3.06-8.16,6.23-12.96,5.59l17.2,1.59c-34-2.06-64.97-2.08-86.84,1.69-75.65,13.04-189.15,62.41-189.15,62.41l8.45,9.51s48.88,9.21,59.12,12.39c8.03,2.49,80.51,12.14,122.27,15.02,3.1,10.29,8.43,19.9,15.57,27.93,6.66,7.49,14.74,13.53,22.77,19.53,16.46,12.29,34.65,25.15,55.18,24.58-12.18-6.14-23.37-15.08-29.72-27.15-6.35-12.07-7.16-27.54,.16-39.05l-40.57-5.13c.81-.04,1.55-.1,2.2-.17,22.36-2.47,129.45,14.02,159.02,11,8.03-.82,33.96-4.74,68.27-9.96,3.84,1.56,7.83,2.7,11.82,3.82,9.41,2.65,18.82,5.3,28.24,7.96-4.83-4.73-4.16-13.55,.74-17.98,29.99-4.54,62.83-9.44,94.29-13.92-.05,.49,.25,.96,.57,1.35,4.7,5.8,11.8,9.01,18.64,12.02,6.75,2.97,13.49,5.94,20.24,8.91,4.72,2.08,9.71,4.2,14.85,3.69-5.21-5.31-4.74-14.33-.91-20.71,3.81-6.34,10.16-10.64,16.4-14.62,30.75-3.79,55.19-6.15,66.75-5.83,.18,1.29,.56,2.53,1.15,3.67,.03,.16,.04,.33,.07,.49,.73,3.85,2.08,7.7,5.09,10.36,1.55,1.37,4.35,3.38,6.7,3.74,1.39,2.27,2.96,4.41,4.99,6.12,3.51,2.97,7.93,4.72,12.25,6.13,5.08,1.66,10.28,2.87,15.55,3.7,1.81,.28,1.73-7.08,1.69-8-.01-.4-.03-.81-.06-1.22,.04-.02,.09-.02,.13-.05,.49-.27,.95-.6,1.36-.99h0c.41,.22,.83,.44,1.23,.65-2.41-8.57-3.2-23.37,7.71-21.78,14.93,2.17,45.81-9.04,53.26-19.46s25.59-1.06,25.59-1.06c0,0,35.15-39.05,43.49-40.23,0,0-81.94-5.99-182.64,31.74Zm-264.9,61.83c-.75-.34-1.56-.55-2.38-.63,6.41-.97,13.09-1.99,20-3.04l-17.63,3.67Zm161.19-24.68c10.62-1.45,20.89-2.81,30.63-4.04l-30.63,4.04Zm106.48-10.28c-.07-.21-.14-.44-.2-.69,.17,0,.32,.01,.49,.02,.07,.67,.19,1.33,.28,1.99-.22-.43-.42-.87-.57-1.33Zm47.19,23.22c-.06,0-.12,.02-.19,.04-.03-.29-.06-.58-.09-.87,.37,.2,.74,.4,1.11,.59-.28,.09-.55,.2-.84,.24Z"/><path class="cls-1" d="M700.85,304.2l-2.39-.22c.68,.5,1.37,.98,2.07,1.45-.11-.45-.05-.91,.33-1.23Z"/><path class="cls-1" d="M937.92,328.91l-3.15-.15c1.15,.45,2.33,.83,3.53,1.13-.24-.27-.4-.61-.38-.98Z"/></g><path class="cls-2" d="M609.66,397.6c19.14-1.55,38.25-3.33,57.35-5.24s38.21-3.89,57.3-5.95c19.09-2.07,38.17-4.21,57.24-6.44,19.08-2.23,38.13-4.64,57.18-7.09,9.48-1.22,18.95-2.46,28.42-3.72,4.66-.62,9.32-1.21,13.97-1.88,3.93-.57,7.89-1.3,11.57-2.82,1.82-.75,3.53-1.7,5.12-2.87,.26-.19-.1-2.21-.05-2.22-9.17,2.09-18.34,4.2-27.6,5.9s-18.65,3.33-27.96,5.04c-18.57,3.4-37.17,6.57-55.85,9.28s-37.4,5.23-56.1,7.78c-18.74,2.55-37.51,4.9-56.3,7.05-9.28,1.07-18.57,2.11-27.88,3.02-4.37,.43-8.77,.77-13.16,.61-2.13-.08-4.25-.29-6.34-.66-1-.18-1.99-.4-2.97-.66s-2.14-.89-3.15-.94c-.51-.03-2.79,.97-3.06-.09l.25,4.33c-.02,1.59-.16,.04,.57,.06,.18,0,.24-4.44-.11-4.45-.64-.02-.6-.45-.86,.21-.39,1.02-.09,2.69-.04,3.76,.1,1.94,.37,3.95,1.58,5.53,.77,1.01,1.68,1.96,2.9,2.34,1.04,.32,2.1,.6,3.17,.82,2.15,.45,4.34,.69,6.53,.8,9.22,.46,18.53-1.15,27.66-2.28,19.47-2.4,38.9-5.05,58.28-8.06,19.43-3.02,38.77-6.35,58.05-10.21,19.29-3.86,38.56-7.86,57.78-12.01s38.29-9,57.48-13.32c2.39-.54,4.78-1.08,7.17-1.63l-.05-2.22c-6.69,4.9-15.33,5.53-23.28,6.61-9.57,1.29-19.13,2.56-28.7,3.81-19.05,2.48-38.1,4.89-57.17,7.21s-38.14,4.68-57.23,6.9c-19.08,2.22-38.18,4.36-57.28,6.41-19.11,2.06-38.22,4-57.33,6.08-2.38,.26-4.75,.52-7.13,.77-.04,0-.01,.46,.01,.46h0Z"/><path class="cls-2" d="M601.41,389.36c14.5-.12,29.04-1.25,43.52-1.97,14.22-.7,28.43-1.46,42.65-2.23,28.72-1.57,57.44-2.96,86.17-4.29,56.87-2.64,113.83-5.06,170.53-10.3,15.69-1.45,31.32-3.35,46.8-6.27,15.98-3.02,31.72-7.59,47.28-12.25,.18-.05-.08-2.3-.06-2.3-14.13,1-28.27,1.67-42.41,2.44s-27.82,2.57-41.71,4.01c-28.18,2.91-56.37,5.61-84.58,8.09-28.54,2.51-57.09,4.89-85.61,7.54-28.69,2.67-57.37,5.35-86.08,7.78-15.94,1.35-31.89,2.68-47.83,4.12-16.21,1.46-32.55,2.44-48.69,4.56-.08,.01-.03,1.08,.03,1.08h0Z"/><path class="cls-2" d="M1045.69,351.1c-3.99,.11-8.03-.22-12.05-.17-4.35,.06-8.69,.13-13.04,.27-8.19,.27-16.38,.53-24.57,.84-16.54,.62-33.08,1.54-49.61,2.37-32.74,1.63-65.47,3.39-98.19,5.27-65.45,3.77-130.87,8.07-196.24,13.02-36.71,2.78-73.37,6.28-110.02,9.72-.05,0,0,.77,.02,.77,65.71-4.69,131.44-9.08,197.16-13.55,65.41-4.44,130.85-8.38,196.33-11.81,18.37-.96,36.75-1.89,55.12-2.77,9.02-.43,18.04-1,27.06-1.51,4.68-.26,9.35-.55,14.03-.9,2.34-.17,4.67-.35,7.01-.52s4.66-.7,7-.84c0,0,0-.2,0-.2h0Z"/><path class="cls-2" d="M721.47,387.99c-34.79-1.29-69.56-3.18-104.31-5.18-34.54-1.99-69.08-4.25-103.6-6.59-19.53-1.32-39.05-2.81-58.56-4.44,0,0-.04,.61,.02,.61,34.61,3.76,69.3,7.33,104.04,9.68,34.51,2.34,69.08,4.14,103.67,4.97,19.58,.47,39.17,.83,58.75,1.03,0,0,0-.08,0-.08h0Z"/><path class="cls-2" d="M305.15,360.08c.56,.36,1.06,.87,1.54,1.32,.28,.27,.78,.67,.97,1.01,.32,.58,.41,1.33,.69,1.94,.65,1.42,2.28,2.29,3.6,3.02,2.41,1.33,4.94,2.38,7.6,3.07s5.15,.88,7.83,.43c2.85-.49,5.58-1.33,8.22-2.49,.1-.04-.07-1.54-.04-1.54-2.65,0-5.31-.26-7.91-.8s-5.39-1.11-8.07-1.74-5.06-1.42-7.43-2.51c-.99-.45-2.32-1.47-3.43-1.53-.83-.05-.92,1.4-1.89,.89-.6-.31-1.24-.79-1.7-1.27,.03,.03-.03,.17,0,.2h0Z"/><path class="cls-2" d="M310.8,362.49c-1.5-.7-1.67,1.35-1.54,2.3,.2,1.4,1.04,2.09,2.38,2.34,1.82,.34,3.75,.34,5.59,.48,3.51,.28,6.99,.8,10.5,1.05l10.99,.78c14.39,1.03,28.82,1.4,43.2,2.45s28.8,2.03,43.21,2.85,28.8,1.4,43.2,2.06c8.06,.37,16.15,1.01,24.22,1.06,2,.01,3.99,.05,5.98-.03,1.62-.06,3.23-.28,4.84-.3,1.22-.02,2.37,.17,3.54,.48,.46,.12,1.65,.24,1.92,.74l-.06-.26-.09-1.85c-.03,.46-.02,.93,0,1.39,0,.14,.14,.82,.09,.9,.45-.6,.11-2.38,.08-3.02-.07-1.32-.23-2.62-.84-3.8-1.15-2.26-3.48-3.37-5.83-4.05-3.14-.91-6.68-.85-9.92-1.07-3.57-.24-7.16-.26-10.73-.35l-42.67-1.15c-14.13-.38-28.27-.61-42.41-.62s-28.27-.09-42.41-.41c-7.99-.18-15.96-.31-23.95-.33-3.99,0-7.97,.19-11.96,.27-1.94,.04-3.9,.08-5.85,.03-.65-.02-1.32-.05-1.93-.3-.35-.14-1.08-.16-1.15-.61l.02,.89c.04-.87,.44-2.17,1.56-1.82,0,0,0-.07,0-.08h0Z"/><path class="cls-2" d="M338.02,362.19c-1.27,.94-2.76,1.6-4.09,2.45-.05,.03,.03,.78,.02,.78,43.36,2.97,86.74,5.63,130.07,8.99,21.46,1.67,42.93,3.01,64.39,4.66,21.66,1.66,43.33,3.09,65.03,4.2,11.44,.58,22.93,1.23,34.39,.91,5.39-.15,10.76-.24,16.15,.02,5.12,.24,10.47,.48,15.39,1.96-.22-.07,.23-2.13-.06-2.3-4.52-2.72-8.96-5.48-13.83-7.54s-9.53-3.47-14.46-4.74c-9.83-2.52-20.06-2.91-30.16-3.22-21.65-.68-43.3-1.24-64.96-1.35s-42.86-.54-64.29-.64c-21.65-.1-43.29-.34-64.94-.53-24.25-.21-48.5-.87-72.75-1.2l.02,.78c1.38-.97,2.64-2.16,4.08-3.03,.03-.02-.03-.18,0-.2h0Z"/><path class="cls-2" d="M657.95,385.54c-9.07-.43-18.15-.93-27.22-1.24s-18.15-.35-27.23-.38c-18.19-.07-36.37,.22-54.56-.14s-36.27-.98-54.39-2.19c-18.11-1.2-36.17-2.91-54.23-4.64-20.42-1.95-40.82-4.1-61.2-6.44,.17,.02-.39,6.58,.16,6.68,22.65,4.14,45.43,7.54,68.04,11.94,11.38,2.21,22.75,4.43,34.21,6.14s22.83,3.31,34.28,4.7c22.95,2.79,46.04,4.44,69.11,5.9,23.15,1.47,46.35,2.31,69.53,3.05,11.49,.37,22.97,.68,34.46,.98,1.41,.04,2.82,.07,4.23,.11s3.09,.26,4.55,.05c2.57-.38,6.01-.98,7.79-2.98,1.9-2.14,1.11-5.9,1.01-8.49-.02-.52,.2-1.42-.38-1.52-.68-.11-1.19,.89-1.28,1.35-.22,1.22-.22,3.19,.15,4.37-.39-1.23,.3-2.82-.1-4.07l-.07-.22,.1,4.07c.04-.21,.69,.39,.9,.59,.42,.39,.65,.83,.76,1.39l-.18-7.44c-.21,.47-1.31-.09-1.58-.22-1.22-.61-2.26-1.2-3.6-1.58s-2.6-.85-3.93-1.1-2.85-.13-4.23-.16c-5.42-.12-10.84-.25-16.26-.39-10.84-.27-21.67-.57-32.51-.92-21.66-.7-43.32-1.64-64.97-2.74s-43.23-2.75-64.84-4.3c-10.67-.76-21.33-1.54-31.99-2.45-10.63-.91-21.27-1.59-31.9-2.46-21.38-1.75-42.47-5.06-63.58-8.84-2.64-.47-5.28-.95-7.92-1.44l.16,6.68c36.08,4.13,72.1,8.56,108.34,11.1,18.09,1.27,36.22,2.15,54.35,2.45s36.37-.13,54.53-.77c10.26-.36,20.54-.82,30.77-1.62s20.46-1.79,30.68-2.72v-.08h0Z"/><path class="cls-2" d="M683.88,391.75c-35.95-1.29-71.9-2.78-107.84-4.46-35.48-1.66-71.04-3.26-106.27-8.1-9.24-1.27-18.45-2.75-27.53-4.9-4.46-1.05-8.88-2.26-13.24-3.68-2.3-.75-4.57-1.55-6.83-2.42-1.18-.45-2.24-.8-3.2-1.64-1.19-1.05-2.37-2.11-3.54-3.19,.11,.1-.13,2.49-.13,2.81,.01,.6-.21,2.33,.26,2.8,1.32,1.28,2.39,2.21,4.04,3.01,1.47,.71,2.95,1.38,4.45,2.02,2.87,1.23,5.77,2.4,8.77,3.29,5.95,1.76,12.03,3.04,18.15,4.04,12.91,2.1,26.03,3.22,39.06,4.35,27.41,2.38,54.91,2.85,82.41,2.66s55.57-.57,83.35-1.27c27.67-.7,55.34-1.58,82.99-2.66,27.65-1.07,55.33-2.12,82.95-3.79,1.66-.1,3.32-.24,4.97-.37,2.11-.16,3.48-.73,5.35-1.72,.44-.23-.12-5.85-.14-6.51-.04-1.53-.08-3.07-.12-4.6,0-.22,.05-1.86-.06-1.91-1.46-.56-3.08-.6-4.58-.24-.82,.2-1.62,.49-2.39,.85-1.04,.49-1.99,1.65-2.99,1.91-.17,.04,.21,2.19,.05,2.23,.86-.22,1.92,.6,2.76,1.03,.98,.49,1.9,1.1,2.76,1.78,1.92,1.54,3.44,3.33,4.71,5.46l-.32-13.01c-1.76-.71-3.1-1.2-5.01-1.14-1.8,.06-3.6,.1-5.39,.18-3.46,.16-6.91,.38-10.36,.56-6.91,.37-13.82,.73-20.73,1.07-13.82,.69-27.65,1.33-41.47,1.93-27.65,1.19-55.32,2.19-82.98,3.01-27.8,.82-55.6,1.56-83.41,2.1s-54.9,.87-82.36,.68c-25.37-.17-51.78-.4-76.17-8.24-1.38-.44-2.74-.93-4.1-1.45-.65-.25-1.35-.65-2.02-.81-.73-.17-1.53-.07-2.31-.07l.14,5.6c1.96-.06,3.72-.38,5.57,.33,2.01,.77,4.04,1.5,6.08,2.18,3.97,1.32,8.01,2.46,12.07,3.46,7.92,1.94,15.96,3.34,24.03,4.5,17.55,2.51,35.23,4.11,52.91,5.34,35.58,2.47,71.27,3.61,106.9,4.95,20.24,.76,40.49,1.46,60.74,2.1v-.08h0Z"/><path class="cls-2" d="M810.15,371.91c-2.22,.7-4.76,.79-7.07,1.11-2.56,.36-5.11,.71-7.67,1.04-4.92,.65-9.84,1.28-14.77,1.86-9.66,1.13-19.35,2.09-29.04,2.92-19.41,1.65-38.89,2.55-58.36,3.05-39,1.01-78.05,2.16-117.05,.81-21.94-.76-43.85-2.2-65.42-6.51l.39,15.93c39.53,3.4,79.2,5.15,118.87,5.36,19.84,.1,39.67-.19,59.5-.88,9.81-.34,19.62-.78,29.42-1.31,9.98-.54,20.05-.93,29.99-2.01,5.4-.58,10.8-1.53,16.15-2.44s11.23-1.76,16.72-3.13c2.77-.69,5.61-1.27,8.34-2.12s5.6-1.1,8.35-1.62,5.57-1.05,8.35-1.59c1.42-.27,2.79-.59,4.17-1.02s2.8-1.13,4.16-1.3c.12-.01-.09-2.38-.06-2.38-1.13,.13-2.44-.18-3.6-.26s-2.39-.18-3.6-.14c-2.59,.09-5.19,.18-7.78,.26-2.4,.07-4.79,.14-7.19,.2-2.61,.07-5.19-.11-7.8-.25-9.78-.52-19.61-.33-29.41-.2s-19.99,.94-30,1.53-19.61,1.07-29.42,1.46c-39.64,1.58-79.34,1.58-118.99,0-22.22-.88-44.42-2.27-66.59-4.11-.32-.03-.2,7.38-.18,7.97,.05,1.88,.1,3.76,.25,5.63,.02,.3,.04,2.27,.33,2.33,38.32,7.53,77.85,6.87,116.71,5.53,19.54-.67,39.05-2.46,58.49-4.58,19.52-2.13,38.89-5.5,58.25-8.71,10.87-1.8,21.73-3.7,32.55-5.77,5.51-1.06,11.02-2.09,16.52-3.18,2.75-.55,5.5-1.1,8.25-1.67s5.52-1.5,8.24-1.63c.01,0-.01-.19,0-.2h0Z"/><path class="cls-2" d="M769.1,381.42l-42.61,1.67v.08l42.61-1.67v-.08h0Z"/><path class="cls-2" d="M337.2,363.43c1.46-.23,3.02,.1,4.5,.1s3,0,4.5,.01c3,0,6,.02,8.99,.03,6,.03,11.99,.06,17.99,.09,11.99,.06,23.98,.17,35.98,.31,11.91,.14,23.82,.29,35.73,.5s23.83,.38,35.72,.16c6.67-.12,13.3-.33,19.96-.73s13.63-.89,20.44-1.38c.06,0,.04-1.53-.04-1.54-11.99-.93-23.99-1.92-36.01-2.1-11.99-.18-23.97,.08-35.96,.31-23.8,.45-47.59,1.48-71.38,2.34-6.66,.24-13.31,.49-19.96,.76-3.41,.14-6.82,.28-10.23,.42-1.66,.07-3.33,.14-4.99,.21s-3.55,.5-5.24,.31v.2h0Z"/><path class="cls-2" d="M379.02,359.61c73.98,1.79,147.97,3.36,221.95,4.98s145.2,3.43,217.75,.52c40.76-1.63,81.54-5.23,121.89-11.19,.02,0-.03-.46-.01-.46-72.23,9.28-145.19,11.71-217.96,11.62-73.07-.08-146.16-2.05-219.22-3.39-41.47-.76-82.94-1.49-124.41-2.15,0,0,0,.08,0,.08h0Z"/><path class="cls-2" d="M937.86,353.7c-54.73-.04-109.46,1-164.15,3.15-54.36,2.14-108.61,5.63-162.86,9.64-30.44,2.25-61.05,3.83-91.53,1.27,0,0-.02,.3,0,.31,27.16,2.62,54.46,1.7,81.64-.05s54.12-4.02,81.2-5.77c54.34-3.51,108.75-5.92,163.19-7.26,30.83-.76,61.66-1.16,92.5-1.22v-.08h0Z"/><path class="cls-2" d="M482.57,359.02c16.24,4.58,33.12,5.58,49.9,5.71s34.56-.16,51.83-.42c35.41-.52,70.82-1.45,106.21-2.69,70.44-2.47,140.83-6.41,211.18-10.7,39.65-2.42,79.28-5.16,118.9-7.97,.02,0-.01-.54-.01-.54-70.72,4.15-141.42,8.76-212.16,12.57-70.37,3.79-140.8,6.89-211.26,8.47-19.54,.44-39.09,.81-58.64,.93s-37.75-.41-55.96-5.45c0,0,0,.07,0,.08h0Z"/><path class="cls-2" d="M1018.94,354.4c14.36-.81,28.61-2.54,42.8-4.84,11.84-1.92,23.75-4.3,34.81-9.11,6.12-2.66,11.87-6.1,16.9-10.49l-.03-1.3c-.54,.56-.97,.57-1.69,.76-.63,.16-1.19,.55-1.79,.87-1.35,.71-2.72,1.2-4.2,1.56-1.27,.31-2.57,.42-3.84,.72-1.59,.38-3.17,.78-4.78,1.09-3.07,.6-6.14,.61-9.23,.94-3.43,.36-6.86,.92-10.29,1.32-7.82,.92-15.61,2.09-23.43,2.98s-15.67,1.82-23.52,2.57c-2.35,.22-4.58,.91-6.85,1.51-2.12,.56-4.24,1.12-6.36,1.66-4.68,1.2-9.27,2.99-13.68,4.98-.28,.13-.14,4,.1,4.07,1.97,.61,3.95,1.08,5.95,1.53,2.14,.48,4.25,1.01,6.44,1.2,3.94,.33,7.89,.7,11.84,.88,1.82,.09,3.6-.2,5.4-.41,2.13-.25,4.25-.51,6.37-.77,3.92-.49,7.85-.98,11.75-1.59,7.82-1.23,15.64-2.53,23.42-4.02,3.64-.7,7.26-1.56,10.86-2.43,3.23-.78,6.17-2.1,9.23-3.35,1.77-.73,3.51-1.5,5.2-2.39s3.12-1.92,4.57-3.12c1.57-1.3,3.07-2.7,4.54-4.12,.69-.67,1.53-1.37,2.09-2.16,.69-.98,1.09-2.11,1.93-2.99,.22-.23-.21-1.14-.03-1.3-9.02,8.01-20.24,12.76-31.77,15.87-12.6,3.39-25.66,5.26-38.59,6.95-8.02,1.05-16.07,2-24.12,2.85,0,0,0,.08,0,.08h0Z"/><path class="cls-2" d="M305.33,362.39c21.15,4.34,42.89,4.95,64.25,1.86,6.06-.88,11.97-2.14,17.86-3.78,.05-.01,0-.38,0-.38-10.46,2.19-21.08,3.91-31.75,4.66s-21.61,.58-32.36-.42c-6.04-.56-12.05-1.42-18-2.55,.02,0-.05,.6,.02,.61h0Z"/><path class="cls-2" d="M363.97,350.57c1.13,1.87,2.56,3.47,3.79,5.27,1.12,1.64,2.21,3.39,2.99,5.22,.09,.22,.14,.48,.24,.7,.06,.28,.08,.28,.06,0-.02,.14-.06,.28-.11,.41-.14,.41-.36,.79-.64,1.11-.52,.62-1.16,1.14-1.89,1.49-1.87,.9-4.04,.61-6.02,.34-.01,0-.05,.44,.01,.46,2.15,.61,4.69,1.34,6.81,.21,1.71-.92,2.15-2.67,1.97-4.49-.1-1.04-.53-1.94-1.01-2.85-.56-1.05-1.16-2.07-1.82-3.06-.61-.93-1.27-1.83-1.96-2.69s-1.36-1.72-2.43-2.18c0,0,0,.07,0,.08h0Z"/><path class="cls-2" d="M331.41,365.5l-1.89-1.83,.03,1.13c3.37,.97,7.06,1.16,10.54,1.38s7.03-.07,10.5-.42c6.96-.69,13.8-2.14,20.45-4.32,.43-.14,.24-2.29,.24-2.64-.02-.67,.14-2.09-.36-2.62-1.08-1.15-2.14-2.44-2.88-3.84-.64-1.2-.92-2.7-1.3-4-.31-1.06-.45-1.98-1.22-2.78l.38,15.68,4.06,2.87,1.83,1.29c.66,.47,1.4,1.19,2.22,1.28s.66-7.05,.65-7.68c-.05-1.8-.11-3.63-.38-5.41-.03-.21-.48-2.38-.64-2.23l-3.45,3.22-.37-.24c-.32-.13-.63-.41-.92-.6-1.03-.67-1.45-1.39-1.99-2.49-.1-.2-.2,.93-.2,.98-.02,.7,0,1.41,.13,2.1,.27,1.52,.79,2.9,1.73,4.14,.85,1.12,1.8,2.17,2.51,3.39,.15,.25,.28,.5,.4,.76,.77,1.68-.97-.6,.12-2.38-.35,.58-.53,1.1-1.01,1.63-.63,.69-1.45,1.31-2.42,1.12-.07-.01-.11,1.5,.02,1.66,.8,.97,2.14,1.56,3.28,.76,.39-.27,.63-.5,.77-.93,.46-1.4,.19-3.33,.08-4.77-.16-2.12-.54-3.84-2.04-5.4-.61-.63-1.29-1.19-1.9-1.81-.33-.33-1.05-1.25-1.52-1.3l.08,3.37c.86-.28,1.04-.07,1.64,.57,.68,.73,1.37,1.44,2.02,2.2,1.67,1.95,3.21,3.71,3.88,6.27l.32-8.05c-.3-1.77-.43-3.88-1.98-5.04-.78-.59-1.62-1.1-2.43-1.65l-4.87-3.31c-.3-.2-.59,2.74-.55,2.31-.17,1.83-.17,3.72-.12,5.55s.11,3.71,.39,5.54c.11,.73,.12,1.73,.66,2.28,1.15,1.16,1.34-2.14,2.69-1.69,.28,.09,.58,.28,.81,.45,.59,.42,1.13,.93,1.64,1.44l-.13-5.26c-6.6,2.5-13.45,4.36-20.42,5.49-3.4,.55-6.83,.8-10.25,1.19s-7.18,.34-10.72,.81c-.1,.01-.1,1.08,.03,1.13l1.87,.78s0-.07,0-.08h0Z"/><path class="cls-2" d="M345.54,364.98c-1.55,.23-3.28-.1-4.84-.23-1.69-.14-3.39-.3-5.08-.48-3.3-.36-6.6-.8-9.88-1.33s-6.38-1.13-9.56-1.7-6.78-1.04-9.93-2.11l.03,1.1c3.52,.71,7.16,1.07,10.73,1.42s7.34,.64,11.02,.72,7.19,.03,10.79-.12c1.8-.07,3.59-.17,5.38-.3,.88-.06,1.84-.04,2.68-.32,.98-.33,1.94-.71,2.91-1.07,.06-.02,.03-.53-.01-.54-.97-.15-1.97-.4-2.95-.48-.82-.07-1.63,.05-2.44,.12-1.79,.15-3.59,.27-5.38,.37-3.67,.2-7.35,.28-11.03,.25s-7.18-.08-10.77-.26-7.3-.62-10.96-.88c-.06,0-.11,1.08,.03,1.1,3.25,.49,6.47,1.54,9.7,2.2s6.51,1.11,9.79,1.49,6.41,.64,9.62,.83c1.69,.1,3.38,.18,5.07,.24s3.47-.14,5.08,.2c.01,0,.02-.2,0-.2h0Z"/><path class="cls-2" d="M340.75,356.38c.5,1.57,1.2,2.87,2.36,4.05,1.01,1.03,2.2,1.89,3.49,2.54,1.21,.61,2.72,1.23,4.1,1.23s2.96-.27,4.23-.9c.06-.03,.02-.54-.01-.54-1.46,.03-2.83,0-4.26-.33s-2.71-.53-4.01-1.12-2.43-1.34-3.44-2.29c-.51-.48-.94-1.03-1.4-1.56-.21-.25-.42-.49-.61-.75-.17-.24-.28-.23-.45-.42,0,0,0,.06,0,.08h0Z"/><path class="cls-2" d="M350.27,352.22c-.1-.18-.21-.3-.34-.46-1.47-1.1-2.31-2.71-2.53-4.84-.04-.15-.13-.22-.26-.23l-.16,.23c-.18,.28-.2,.61-.25,.94-.22,1.33-.21,2.74-.21,4.09,0,2.41,.04,4.86,.37,7.25,.24,1.78,.62,3.42,1.63,4.92,1.19,1.78,3.21,3.02,5.26,3.55,.96,.25,2.06,.41,3.04,.23,1.44-.26,2.29-1.44,3.11-2.56,1.96-2.69,3.02-5.87,3.99-9.02,.18-.58,.11-1.31,.09-1.9-.01-.33-.03-.66-.08-.99,0-.05-.12-.53-.14-.5-.05,.06-.19,.27-.27,.3-.13,.05-.17-.05-.31-.03-.24,.04-.47,.23-.72,.24-.28,.01-.55-.17-.85-.25-.34-.09-.62-.26-.95-.35-.73-.19-1.43-.41-2.15-.65-.8-.26-1.63-.22-2.46-.15-3.29,.26-6.41-1.19-8.44-3.79l.2,.26c-.26-.37-.46-.76-.6-1.19l.34,1.76-.02-.15,.33,6.54-.13,2.9c.04-.24,.07-.48,.1-.72,.07-.57,.12-1.14,.17-1.71l-.19,1.3c.2-.88,.27-1.71,.33-2.61,.08-1.05,.03-1.85,.82-2.55,.42-.37,.94-.26,1.3,.2,0,0,0-.06,0-.07h0Z"/><path class="cls-2" d="M361.31,351.41c.83,.59,1.57,1.39,1.9,2.36,.07,.21,.12,.43,.17,.65,.04,.19,0,.03,0-.07,0-.05,.02-.62,0-.66-.05-.06,0,.06,0,.05-.08,.46-.18,.89-.36,1.31-.42,.98-1.12,1.74-2.05,2.26-1.25,.69-2.51,1.15-3.92,1.37-.79,.12-1.58,.26-2.38,.33-.4,.03-.79,.06-1.19,.08s-.86-.02-1.25,.09c-.08,.02-.06,.8,.02,.84,.36,.19,.79,.27,1.19,.37,.45,.12,.9,.23,1.35,.33,.8,.18,1.64,.36,2.47,.36,1.58,.01,3.19-.24,4.44-1.27,.88-.73,1.46-1.79,1.72-2.89,.18-.73,.23-1.48,.23-2.23,0-.85-.01-1.73-.21-2.56-.13-.52-.35-1.01-.71-1.41-.41-.45-.84-.58-1.44-.54-.08,0-.08,1.15,.03,1.23h0Z"/><path class="cls-2" d="M337.19,373.89c-.6-.87-1.08-1.77-1.79-2.57-1-1.12-2.43-1.85-3.07-3.25-.05-.11-.11,.78-.11,.86,0,.48-.03,1.04,.11,1.51,.58,1.94,1.19,3.49,3.09,4.43,1.15,.57,2.38,1.01,3.61,1.4,2.48,.77,5.04,1.25,7.6,1.66,5.86,.95,11.71,1.97,17.57,2.89,5.9,.92,11.87,1.52,17.8,2.15,2.96,.32,5.93,.63,8.91,.83s5.97-.13,8.88-.6c3.31-.53,6.64-1.51,9.83-2.52,1.71-.55,3.39-1.13,5.16-1.46s3.45-.66,5.17-1c.2-.04,.15-2.72-.07-2.76-3.02-.59-6.04-1.11-8.96-2.1s-5.78-1.87-8.72-2.7-5.77-1.46-8.69-1.76-5.93-.2-8.89-.17c-5.84,.04-11.67,.02-17.51-.07s-11.65,.05-17.47-.08c-2.91-.06-5.85-.18-8.74-.56-1.31-.17-2.62-.41-3.9-.75-1.41-.37-2.55-.99-4.02-.65-.38,.09-.19,2.76-.18,3.08,.02,.72,.04,1.45,.13,2.17,.01,.1,.19,.91,.2,.9,1.48-1.85,.97-2.25,2.01-1.33,.23,.2,.45,.42,.65,.64,.56,.6,1.06,1.25,1.4,2-.01-.03,.03-.14,0-.19h0Z"/><path class="cls-2" d="M754.97,386.23c-1.39-.48-3.24-.78-4.18-1.97,.2,.25-.31,1.32,.04,1.56,3.16,2.17,6.73,3.7,10.24,5.21,1.7,.73,3.4,1.41,5.15,1.99,.84,.28,1.72,.66,2.6,.82,.99,.18,1.82-.12,2.78-.17,.02,0,.05-.8-.02-.84-.91-.59-1.67-1.34-2.64-1.85-.81-.42-1.75-.65-2.6-.97-1.77-.65-3.55-1.27-5.33-1.91-3.42-1.23-6.72-2.83-10.2-3.84l.04,1.56c1-.71,3.03,.21,4.15,.48,0,0,0-.07,0-.08h0Z"/><path class="cls-2" d="M771.27,394.29c.31-.22,.64,.63,.66,.79l-.02-1.43c-.02,.08-.22,.07-.26,.05-.26-.07-.34-.56-.44-.77-.23-.5-.54-.78-.94-1.14-.8-.73-1.72-1.1-2.7-1.53-.83-.36-1.75-.83-2.68-.83-.41,0-.95,.06-1.33,.21-.52,.2-.9,.64-1.31,1.01l.25,7.87c.17-.53,.28-1.06,.41-1.6l-.04,.1c.53-1.17,1.27-2.28,2.17-3.2,.73-.75,1.6-1.38,2.45-1.98,.14-.1,.04-.92,.03-1.08,0-.08-.08-1.08-.09-1.07-.83,.29-1.61,.68-2.41,1.04-.34,.16-.69,.32-1.06,.4-.19,.04-.38,.09-.57,.14-.08,.02-.17,.06-.25,.07-.23,.02-.72-.54-.91-.7-.05-.04-.14,1.39-.13,1.18-.03,.94-.02,1.89,0,2.84s.05,1.89,.14,2.83c.02,.28-.02,.97,.19,1.17,.31,.3,.62,.67,.97,.92,.28,.2,.62,.29,.96,.36,.71,.14,1.28,.16,2,0,.65-.15,1.26-.41,1.89-.64,.71-.26,1.39-.49,1.97-.99,.26-.22,.61-.45,.8-.74,.3-.46,.32-1.03,.56-1.51,.11-.22,.27-.38,.34-.62,.05-.21,.05-.43,.05-.64,0-.24,.12-1.1-.14-1.23-.29-.15-.53,.2-.58,.43,0,.04,.03,.29,0,.3h0Z"/><path class="cls-2" d="M890.24,370.6l-4.68-1.61-2.11-.72c-1.55-.53-2.32-.62-3.05-2.44,0,0-.11,1.23-.1,1.51,0,.54-.11,1.54,.16,2.05,1.16,2.21,4.1,3.42,6.33,4.36,2.11,.89,4.26,1.68,6.43,2.39,4.21,1.39,8.68,1.99,13.07,2.43,9.09,.93,18.26,1.29,27.39,1.62l-.39-15.98c-2.5,.24-4.99,.6-7.44,1.13-1.23,.26-2.45,.56-3.66,.89-.61,.17-1.21,.34-1.81,.53-.87,.27-1.25,.29-1.78,1.09-.32,.48-.25,1.78-.26,2.21-.07,1.77-.05,3.55,0,5.32s.1,3.55,.26,5.31c.03,.33,.45,2.06,.37,2.19,.71-1.18,.97-2.45,2.08-3.3,.8-.61,1.6-1.21,2.35-1.88,1.35-1.2,2.91-1.98,4.49-2.85,.26-.15,0-3.22-.08-3.23-1.58-.12-3.09-.13-4.58-.73-.71-.29-1.44-.49-2.18-.7-.29-.08-.71-.12-.97-.27-.51-.3-1.06-1.62-1.49-2.09l.37,15.04c.25,.39,.55,.46,.91,.2,.3-.1,.6-.19,.9-.29,.6-.19,1.2-.37,1.81-.54,1.21-.34,2.43-.64,3.66-.91,2.46-.54,4.94-.91,7.44-1.16,.87-.09,.31-15.97-.39-15.98-9.12-.14-18.24-.06-27.35,.17-4.33,.11-8.68,.12-13,.38-2.12,.13-4.25,.18-6.37,.13-.98-.02-1.93-.05-2.91-.02-.52,.01-1.04,0-1.55,.06-.82,.1-1.24,.14-1.74,.83l.09,3.63c.43-.91,.43-1.17,1.37-1.07,.31,.03,.64,.18,.93,.26,.86,.24,1.71,.48,2.57,.72l4.91,1.38s0-.07,0-.08h0Z"/><path class="cls-2" d="M933.54,373.57c-.43-.1-.67-.3-1.07-.47-.37-.16-.68-.1-1.06,0-.24,.06,.01,2.79,.07,2.79,1.4-.08,2.65-1.57,3.59-2.52s1.74-2.17,2.29-3.43c.04-.09-.06-.57-.02-.6-.27,.18-.56,.46-.85,.59-.28,.12-.57,.09-.86,.14-.51,.08-1.01,.31-1.51,.48-1.16,.4-2.23,1-3.32,1.55s-2.22,1.01-3.21,1.66c-.53,.35-1.09,.71-1.6,1.1-.63,.49-1.37,1.11-1.69,1.84-.23,.51-.09,1.36-.07,1.91,.01,.45,.03,.9,.07,1.35,0,.1,.12,.5,.1,.56,.33-.69,.68-1.1,1.27-1.56l1.29-1.02c.17-.14-.1-1.44-.04-1.46l-1.3,.38c-.59,.17-.83,.29-1.32-.16l.09,3.82c.12,.2,.27,.22,.44,.08l.43-.19c.29-.13,.59-.24,.86-.4,.52-.3,1.01-.68,1.49-1.03,1.17-.83,2.21-1.87,3.29-2.82s2.18-1.86,3.18-2.89c.53-.55,1.12-1.08,1.58-1.69,.27-.35,.51-.74,.84-1.04,.25-.22,.58-.4,.85-.59l-.02-.6c-.53,1.19-1.35,2.11-2.45,2.8-.49,.31-.99,.46-1.56,.56-.3,.05-.6,.09-.9,.11-.4,.03-.65,.13-1.02,.28l.07,2.79c.92-.56,1.35-1.46,2.06-2.24,0,0,0-.08,0-.08h0Z"/><path class="cls-2" d="M549.89,400.15c-.26,.15-.52,.04-.81,.11-.26,.06-.53,.23-.77,.36-.54,.29-.98,.58-1.42,1.01-.91,.9-1.82,1.93-2.44,3.06-1.39,2.56-2.27,5.46-2.35,8.38,0,.06,.08,.52,.1,.47,.37-.89,.6-1.84,.94-2.75,.44-1.19,1.04-2.27,1.69-3.36,.69-1.16,1.39-2.29,2.24-3.34,.46-.56,.88-1.15,1.32-1.72,.24-.31,.51-.61,.74-.94,.26-.36,.43-.79,.76-1.09,.03-.03,0-.19,0-.19h0Z"/><path class="cls-2" d="M554.46,391.76c-.31-.83-.53-1.97-1.63-1.39-.55,.29-1.02,.88-1.43,1.33-.92,1.02-1.73,2.13-2.46,3.29-1.45,2.33-2.54,4.94-3.29,7.58-2.22,7.85-2.2,16.5-1.02,24.51,.99,6.74,3.03,13.1,6.43,19.01,.69,1.2,1.43,2.38,2.2,3.53,.82,1.21,1.65,2.63,2.71,3.64,.74,.7,1.89,1.08,2.78,1.64,1.08,.68,2.06,1.54,3.1,2.28,2.17,1.54,4.41,2.98,6.73,4.29,2.56,1.44,5.44,2.36,8.4,1.98,.18-.02,.17-1.4-.04-1.46-6.08-1.75-9.87-7.73-13.39-12.56-1.99-2.73-3.95-5.48-5.58-8.45-.76-1.39-1.35-2.8-2.31-4.07s-1.81-2.48-2.64-3.77c-1.38-2.13-2.75-4.52-3.72-6.7-.53-1.2-1.01-2.42-1.43-3.67-.2-.6-.39-1.21-.57-1.82-.06-.21-.2-.54-.2-.74,0,1.1,.03,.1-.03-.25s-.09-.79-.21-1.13c.04,.11,.21,1.53,.09,.48l-.05-.38c-.06-.51-.06-.51,0,0l.04,.38c-.02-.25-.04-.51-.05-.77,.25,2.41,.06,1.56,.05,.98v-.38c-.02-.84-.02-.51-.01,.99,.04-.63,.05-1.28,.05-1.91,0,2.15-.06,1.14-.01,.58,.04-.45,.26-1.36-.05,.29,.12-.62,.19-1.26,.3-1.88,.05-.27,.05-.87-.03,.14,.02-.3,.15-.63,.23-.92,.18-.67,.38-1.34,.6-1.99,.75-2.2,2.13-4.72,3.77-6.81,1.05-1.34,2.3-2.31,2.94-3.92,.8-2.01,.9-4.36,.85-6.49-.02-.92-.09-1.85-.2-2.77-.08-.67-.21-1.32-.41-1.96-.05-.35-.22-.6-.52-.74h0Z"/><path class="cls-2" d="M782.08,390.76c-.1-.08-1.1-1.64-1.77-1.46-.14,.04-.29,.16-.41,.23-.22,.14-.43,.3-.62,.47-.57,.52-.87,1.15-1.1,1.88-.37,1.2-.5,2.47-.58,3.71-.16,2.48-.09,5.03,.36,7.47,.17,.92,.38,2.11,1.25,2.68,.28,.18,.5,.21,.77,.02,.35-.25,.64-.56,.9-.89,.3-.39,.55-.8,.87-1.17,.26-.3,.46-.64,.61-1.01,.37-.87,.36-1.89,.2-2.81-.12-.71-.27,.23-.28,.45,0-.68,.11-.29-.29-.22-.18,.03-.45,0-.61-.07-.59-.28-1.12-1.22-1.42-1.78-.21-.37-.43-.73-.64-1.11-.08-.14-.15-.29-.23-.43-.18-.36,0,.1-.09-.26-.05-.19-.1-.38-.15-.57-.14-.56,.12,.7,.03,.13l.1,.68c.07,.89,.1,1.15,.07,.78-.03-.41-.01-.11,.04,.89,0-.33,0-.22,0,.31,0,.1-.07,1.84-.02,1.11-.07,.65-.08,.82-.05,.53,.01-.09,.02-.18,.04-.27-.01,.71-.05,.28,0,.03,.03-.15,.07-.29,.11-.44,.18-.74,.36-1.47,.61-2.19,.29-.82,.75-1.6,1.01-2.43,.09-.29,.19-.47,.31-.74,.16-.37,.16-.78,.31-1.16,.27-.71,.4-1.46,.68-2.16,.01-.04,.03-.17,0-.19h0Z"/><path class="cls-2" d="M939.49,365.43c-.63,.43-1.38,.66-2.13,.81-.45,.1-.73,.2-1.17,.02-1.01-.41-1.12-2.15-2.28-2.31-1.26-.17-2.44,.53-3.42,1.26-2.27,1.7-3.86,4.51-4.94,7.07-1.55,3.68-2.27,7.58-2.59,11.55-.26,3.26-.24,6.57-.03,9.83,.18,2.77,.32,5.92,1.47,8.49,.42,.94,.91-.78,.91-.79l1.77-5.37c.26-.4-.09-2.35-.16-2.29l-1.79-1.08,.56,3.02-.04-.92,.02,4.11c.24-2.81,.08-5.67-.24-8.46-.05-.47-.32-3.15-.26-1.88,.06,.42,.06,.41,0-.03,.08,.95,.1,1.2,.07,.73-.04-.65-.02-.22,.06,1.28-.02-.82-.02-.45,0,1.11,.02-1.24-.13,1.87-.03,.55,.09-1.13-.19,1.47-.03,.26,.04-.34,.08-.67,.13-1.01-.1,.6,.07-.29,.09-.42,.07-.33,.15-.67,.23-1s.17-.67,.27-1c0,.02,.3-.94,.16-.53,.46-1.37,1.04-2.71,1.7-3.99,1.44-2.79,3.06-5.48,4.83-8.07,.53-.77,.96-1.59,1.44-2.38,.64-1.08,.93-2.2,1.29-3.41,.6-1.98,1.82-4.5,4.11-4.97,.04,0,0-.19,0-.2h0Z"/><path class="cls-2" d="M927.55,378.7c-1.2,1.33-1.49,3.37-.74,4.99,.86,1.88,3.1,2.89,5.09,2.43,.03,0,0-.16,0-.15-1.67,.4-3.53-.23-4.6-1.59-1.28-1.64-1.1-4.07,.26-5.6,.01-.01,0-.07,0-.07h0Z"/><path class="cls-2" d="M1018.18,365.41c.19,.05,.38,.09,.58,.14,.19-.15,.37-.31,.56-.46,.28-.23,.57-.47,.84-.71,.36-.32,.53-.67,.8-1.07,.31-.45,.7-.84,1.07-1.24l-.21,.19c.76-.69,1.63-1.51,2.53-2.02s1.82-.84,2.69-1.33c1.71-.98,3.44-1.84,5.23-2.67,.43-.2,.25-3.23-.08-3.23-.95,0-1.91,.06-2.86,.01s-1.91-.23-2.87-.29c-.89-.06-1.86,.1-2.72-.14-1.08-.31-2.07-.67-3.04-1.23l.25,.2c-.52-.44-.9-.95-1.56-1.19-.24-.09-.48-.17-.72-.25-.4-.14-.52,.07-.85,.31-.6,.44-.68,1.59-.76,2.21-.24,1.72-.26,3.56-.21,5.3s.12,3.56,.47,5.28c.11,.53,.22,2.01,.87,2.17h0Z"/><path class="cls-2" d="M1134.99,330.51l-2.5-.85s-.03,.18,0,.2l2.5,.85s.03-.18,0-.2h0Z"/><path class="cls-2" d="M1106.37,332.26c-.84,.34-1.8,.5-2.69,.44-.95-.06-1.75-.27-2.71-.16-1.96,.22-3.92,.43-5.87,.64-3.66,.41-7.31,1.54-10.88,2.42-7.32,1.81-14.71,3.45-21.96,5.53-14.91,4.27-29.86,8.34-45.05,11.5-8.53,1.77-17.23,2.96-25.88,3.94-.2,.02-.1,1.77,.04,1.77,15.22-.9,30.47-2.14,45.6-4.02,7.62-.95,15.22-2.03,22.74-3.56s14.81-3.63,21.97-6.14c4.1-1.43,8.26-2.85,12.21-4.68,2.15-1,4.21-2.29,6.26-3.47,1.13-.65,2.12-1.31,3.11-2.17,.92-.79,1.94-1.48,3.11-1.84,.03-.01,0-.2,0-.2h0Z"/><path class="cls-2" d="M1032.69,329.15c.12-.47,0-.81-.57-.84-.95-.05-1.43,.7-1.3,1.54,.25,1.7,2.4,1.44,3.6,1.07,2.53-.79,4.99-1.88,7.5-2.74,10.56-3.64,21.45-6.4,32.4-8.6,22.25-4.48,44.93-6.71,67.47-9.13,6.74-.72,13.48-1.45,20.23-2.17,3.29-.35,6.58-.72,9.86-1.13s6.99-.63,10.35-1.45l-.1-1.82c-.01,2.32-2.22,4.39-4.43,4.62-.02,0-.02,.53,.01,.54,2.45,.41,4.5-1.24,4.55-3.7,0-.19,.04-2.06-.1-2.06-2.79-.08-5.62,.36-8.39,.61s-5.6,.5-8.39,.8c-5.43,.59-10.85,1.19-16.28,1.78-10.6,1.16-21.21,2.28-31.8,3.54-20.61,2.45-41.34,5.61-61.19,11.81-5.54,1.73-11.02,3.67-16.4,5.85-1.37,.55-2.73,1.13-4.08,1.71-.98,.43-2.05,.94-3.15,.9-.44-.02-.86-.12-1.21-.39-.14-.12-.42-.74-.39-.35,.02,.24,.2-.24,.31-.36,.24-.26,1.67-1.08,1.48-.11,0,.02,0,.06,0,.07h0Z"/></g><g><path class="cls-3" d="M304.65,364.67c12.57,3.61,24.8,7.87,37.57,10.84s25.99,5.4,39.11,7.36c25.98,3.9,52.09,6.54,78.15,9.69,13.27,1.6,26.66,2.2,39.99,3.25,13.41,1.06,26.79,2.31,40.17,3.71,27.38,2.87,54.73,6.16,82.22,7.79,27.63,1.65,55.19,1.16,82.71-1.8,27.34-2.94,54.43-7.76,81.52-12.42,54.42-9.36,109.08-17.13,163.96-23.22,26.59-2.95,53.23-5.22,79.86-7.72,11.95-1.12,23.36-3.05,34.88-6.46,10.94-3.23,21.83-5.95,32.11-11.06,5.07-2.52,9.87-5.48,14.42-8.84,.17-.13-.15-.9-.02-1-9.07,6.62-19.3,11.65-30.05,14.89-5.34,1.61-10.96,3.15-16.51,3.76-5.9,.65-11.82,.85-17.73,1.36-25.54,2.17-51.1,4.37-76.61,6.96-54.96,5.57-109.74,12.93-164.24,21.97-54.37,9.02-108.48,19.94-163.87,18.59-27.51-.67-54.91-3.51-82.26-6.45s-53.99-5.47-81.07-7.42c-26.07-1.88-52.24-2.03-78.28-4.54-26.07-2.52-52.12-6.94-77.39-13.85-6.23-1.7-12.64-3.24-18.66-5.59,.01,0-.03,.19,0,.2h0Z"/><path class="cls-3" d="M555.8,399.61c-1.18,2.42-2.57,4.6-3.44,7.18-.8,2.35-1.33,4.8-1.61,7.27-.59,5.07-.23,10.29,.96,15.25,2.58,10.79,9.42,20.32,17.6,27.65,2.42,2.17,4.99,4.18,7.67,6.03s5.58,3.34,8.28,5.16l.07-4.55c-3.97-.49-7.86-.76-11.77-1.66s-7.71-2.06-11.4-3.61c-7.47-3.13-14.42-7.41-21.07-12.01-6.83-4.72-13.52-9.7-20.02-14.87s-12.74-10.94-17.75-17.7c-2.74-3.7-5.13-7.66-7.13-11.81-1.85-3.84-3.01-7.96-4.86-11.79-.22-.45-.37,0-.44,.26-.17,.6-.11,1.35,0,1.96,1.3,8.2,5,16.01,9.43,22.97,4.6,7.23,10.47,13.39,17,18.88,6.56,5.51,13.52,10.6,20.49,15.57s13.79,9.41,21.35,12.92c4.1,1.9,8.35,3.5,12.75,4.58s9.19,1.69,13.56,.94c1.08-.19,.85-4.3-.11-4.63-2.36-.81-4.64-2.22-6.79-3.47s-4.24-2.58-6.26-4.03c-3.92-2.81-7.81-6.04-10.89-9.78-6.67-8.09-10.9-18.34-10.64-28.93,.08-3.11,.54-6.23,1.39-9.22,.4-1.41,.89-2.8,1.47-4.16s1.23-3.05,2.22-4.2c.04-.05-.02-.18-.02-.19h0Z"/><path class="cls-3" d="M749.02,395.68c-1.64-.5-2.93-1.08-4.7-.96-.16,.01-.14,1.06,.03,1.13,6.35,2.78,13.24,4.38,19.88,6.31s13.73,4.1,20.59,6.16c.15,.04,.22-1.95,0-2.18-.66-.68-1.01-1.72-1.48-2.55-.44-.77-.78-1.59-1.04-2.44-.41-1.3-.48-2.24-.22-3.57,.7-3.69,2.51-7.08,5.63-9.25,.2-.14,.02-1.25-.03-1.23-3.81,1.46-6.03,4.99-6.43,8.94-.26,2.52-.16,5.16,.46,7.63,.24,.97,.61,1.91,1.12,2.77,.21,.36,.46,.83,.78,1.12,.35,.32,.84,.39,1.18,.72v-2.18c-6.86-1.8-13.73-3.57-20.57-5.44s-13.41-3.48-19.87-5.96l.03,1.13c1.44-.45,3.29-.72,4.68,.02,0,0,.04-.18,0-.2h0Z"/><path class="cls-3" d="M881,374.91c-.56-1-1.32-.02-1.24,.75,.15,1.44,1.81,2.83,2.77,3.79,2.88,2.9,6.31,5.05,9.93,6.91,8.61,4.41,17.69,7.86,26.38,12.1,4.81,2.34,9.83,4.81,15.31,4.59,.53-.02,.3-3.11,0-3.44-1.76-1.95-3.32-5.61-3.37-8.08-.06-2.98,1.29-6.15,2.83-8.63,1.98-3.18,4.6-5.94,7.25-8.57,2.78-2.76,5.8-5.4,8.9-7.78,.22-.17-.04-1.37-.07-1.36-5.69,2.9-11.45,5.41-15.36,10.71-4.01,5.44-5.24,12.32-4.33,18.94,.23,1.65,.57,3.33,1.31,4.83,.68,1.38,1.67,2.25,2.75,3.3v-3.44c-4.09,.53-8.06-.5-11.88-1.89-4.04-1.47-7.99-3.18-11.94-4.88s-7.99-3.44-11.97-5.16c-3.31-1.43-6.62-2.91-9.73-4.75-1.84-1.09-3.63-2.27-5.26-3.65-.74-.62-1.45-1.29-2.11-1.99-.29-.31-.68-.65-.9-1.03-.23-.4-.44-.93,.02-1.2,.25-.15,.44-.27,.7,0,0,0,0-.06,0-.07h0Z"/><path class="cls-3" d="M310.45,366.08l-8.45-9.62,.02,.97c26.14-13.32,53.78-23.03,81.44-32.62s56.82-19.62,86.23-25.78c58.74-12.3,119.14-8.45,178.17-.39,60.39,8.24,120.22,19.85,180.81,26.78,30.57,3.5,61.23,6.18,91.94,8.04,15.35,.93,30.72,1.66,46.09,2.19,7.68,.26,15.37,.47,23.06,.63,3.55,.07,7.1,.14,10.64,.19s7.79,.63,11.28-.52c13.53-4.49,26.62-10.12,40.32-14.22,13.67-4.09,27.55-7.48,41.57-10.16,28.02-5.36,56.6-7.9,85.13-7.45,7.13,.11,14.26,.42,21.38,.89l-.13-5.15c-13.05,5.11-24.85,13.01-34.45,23.24-2.23,2.38-4.33,4.87-6.3,7.47-.79,1.04-5.45,9.23-6.18,9.22-.39,0-2.08-2.38-2.65-2.81-1-.76-2.12-1.35-3.3-1.79-2.83-1.05-5.98-1.16-8.95-.76-14.26,1.91-22.25,16.16-35.63,20.26-12.1,3.71-31.42,.61-38.27,14.27-3.56,7.1-1.47,22,8.51,22.14l-.13-5.18c-22.49,7.06-48.59-4.85-59.1-25.74,.42,.83-.71,4.05,0,5.48,10.79,21.48,36.26,31.86,59.22,25.44,.46-.13,.12-5.17-.13-5.18-5.24-.24-10.47-5.45-8.64-10.92,1.82-5.43,8.04-8.83,13.08-10.51,6.22-2.07,12.81-2.2,19.23-3.22,6.77-1.07,12.54-3.52,18.04-7.59,8.75-6.47,17.22-15.37,29.11-13.99,2.35,.27,4.67,.98,6.63,2.34,.88,.61,1.54,1.63,2.4,2.18,1.12,.71-.12,.95,1.03,.29,.52-.3,1.12-1.88,1.45-2.41,3.21-5.15,6.97-9.94,11.15-14.34,9.51-10,21.13-17.71,33.97-22.74,.31-.12-.13-5.15-.13-5.15-56.87-3.73-114.69,3.85-168.43,23-6.71,2.39-13.23,5.55-19.98,7.76-3.26,1.07-6.93,.64-10.39,.63-4.14-.02-8.28-.04-12.41-.08-15.07-.14-30.14-.48-45.21-1.02-30.71-1.09-61.39-3-92-5.73-60.84-5.42-120.84-15.67-181.22-24.54-58.93-8.66-119.17-14.73-178.49-6.12-29.78,4.32-58.63,12.87-87.08,22.48-27.89,9.43-56.03,18.73-82.97,30.66-6.7,2.97-13.29,6.16-19.77,9.58-.05,.02-.02,.92,.02,.97l8.45,9.41c-.12-.14,.11-.62-.02-.77h0Z"/><path class="cls-3" d="M560.8,291.35c.94-.1,1.88,.05,2.83-.08,1-.13,1.98-.42,2.91-.79,1.88-.74,3.6-1.83,5.23-3.01,3.56-2.58,6.95-5.42,10.33-8.22,6.83-5.65,13.63-11.35,20.66-16.76,13.78-10.62,28.51-20.27,45.15-25.76,9.15-3.02,18.73-4.68,28.38-4.44l-.05-1.44c-3.81,10.41-4.48,21.8-2.61,32.68,2.04,11.91,7.13,22.93,14.25,32.64,2,2.73,4.19,5.32,6.56,7.74,1.25,1.28,2.55,2.52,3.9,3.69,.64,.56,1.29,1.13,1.98,1.62,.62,.44,1.39,1.14,2.18,1.07l-.18-7.31c-.32,.32-.73,.64-1.22,.6-.15-.01-.28-.1-.41-.12l-.14-.13c-.28,2.69-.15,3.48,.38,2.38,.18-.32-.04-3.12-.12-3.09-1.12,.39-.56,3.32-.45,4.18,.17,1.32,.71,3.06,2.14,3.48,.27,.08,.31-3.1,.3-3.18,0-.78-.03-1.56-.1-2.33-.04-.45,0-1.31-.27-1.67-.85-1.1-2.11-1.76-3.3-2.45-1.12-.65-2.22-1.35-3.28-2.08-2.02-1.39-3.95-2.93-5.75-4.6-3.67-3.39-6.67-7.29-9.18-11.6-5.49-9.43-8.35-20.62-8.1-31.52,.14-6.34,1.33-12.64,3.51-18.6,.05-.13,.08-1.44-.05-1.44-17.18-.39-33.85,5.29-48.72,13.57-15.57,8.67-29.23,20.22-42.8,31.67-3.88,3.28-7.72,6.61-11.64,9.84-1.76,1.45-3.59,2.85-5.62,3.89-1.85,.95-4.6,2.05-6.68,1.36,0,0-.02,.2,0,.2h0Z"/><path class="cls-3" d="M842.74,324.48c1.13-.58,2.44-.87,3.62-1.39,1.3-.58,2.57-1.24,3.8-1.95,2.36-1.36,4.61-2.91,6.85-4.46,4.4-3.05,8.9-5.94,13.55-8.59,9.55-5.44,19.57-10.05,29.95-13.64,5.86-2.03,11.83-3.73,17.88-5.12l-.12-3.28c-3.43,7.21-3.83,15.84-2.02,23.58s6.26,13.77,12.48,18.28c3.34,2.42,7.34,4.78,11.5,5.34l-.14-5.79c-.15,.07-2,1.1-2.14,.53-.1-.43-.16,.57-.16,.65,0,.9,.03,1.85,.35,2.7,.27,.73,1.16,2.21,2.09,1.92,.56-.17,.39-5.66-.14-5.79-3.07-.75-6.05-1.39-8.93-2.78s-5.24-3.21-7.4-5.42c-4.57-4.67-8-11.35-8.11-17.99-.07-4.02,1.11-8.36,2.78-12,.14-.31,0-3.31-.12-3.28-21.53,5.57-41.87,15.22-59.73,28.48-2.49,1.85-4.94,3.77-7.51,5.5-1.28,.86-2.59,1.68-3.94,2.41s-2.91,1.68-4.39,1.9c-.03,0,0,.2,0,.2h0Z"/><path class="cls-3" d="M355.38,350.46c.11-.09,.13-.27,.04-.39-.07-.09-.2-.12-.31-.14-.08-.01-.16-.02-.24-.01-.24,.02-.17,.06-.49-.09-.04,.03-.05,.07-.05,.12-.11,.41-.11,.86-.1,1.28,.01,.47,.04,.97,.17,1.43,.16,.54,.48,.98,.89,1.35,.77,.68,1.93,1.09,2.94,.79,1.62-.49,1.66-2.4,1.57-3.79s-.53-2.8-1.77-3.65c-.87-.59-2.22-.9-3.09-.12-.39,.35-.65,.84-.8,1.34-.33,1.09-.32,2.29-.25,3.42,.08,1.37,.3,2.97,1.54,3.8,1.01,.68,2.48,.5,3.36-.32,.65-.6,.79-1.4,.83-2.25,.05-.95,.05-1.97-.19-2.9-.07-.29-.19-.56-.38-.78-.73-.88-2.02-.24-2.57,.53-.19,.27-.3,.57-.38,.89-.04,.18-.03,.39-.01,.58,0,.04,.03,.32,.08,.27,.26-.29,.73-.19,1.05-.07,.49,.19,.98,.55,1.37,.91l-.06-.06c.29,.28,.59,.59,.75,.96-.07-.15,0,.07-.03-.12-.15-.74-.17-1.5-.07-2.27l.02-.15s-.06,.2-.02,.1c.03-.09-.03,.08-.04,.09-.1,.23-.24,.42-.4,.61l.06-.07c-1,1.04-2.76,1.17-3.82,.17l.07,.06c-.26-.26-.46-.56-.61-.89-.04-.08-.07-.16-.1-.25,.05,.15-.02-.09-.03-.14-.03-.11-.02-.08,0,.01,0-.04-.01-.08-.02-.12,.03,.25,.04,.32,.03,.21,0-.08,0-.04,0,.12,.02,.28,.03,.57,.03,.86,0-.21,0,.25,0,.24,0-.22-.03,.31-.01,.15,.02-.23-.05,.22,0-.05,0-.04,.02-.08,.03-.12,0,0,.05-.18,.02-.08s.03-.08,.03-.08c.01-.04,.03-.08,.04-.11,.13-.35,.33-.67,.58-.94l-.06,.06c.08-.08,.15-.16,.22-.24l-.06,.06c.75-.78,1.87-1.11,2.85-.57,.46,.25,.84,.62,1.12,1.05,.14,.21,.26,.44,.35,.69-.02-.07,.04,.13,.03,.11,.02,.06,.01,.21,.02,.04,0,.24-.02-.32-.02-.27,0-.12-.08-.71,.01-.9-.05,.1-.04,.21-.08,.31s-.09,.2-.14,.3c-.14,.24-.31,.46-.53,.63-.37,.29-.83,.44-1.29,.46-.94,.05-1.97-.36-2.59-1.08-.17-.2-.31-.42-.4-.66-.02-.06-.04-.15-.07-.22,.01,.03,.03,.94,.04,.94,0,0,.04-.39,.04-.38,.01-.24,0-.41,.22-.59,.1-.08,.21-.15,.33-.19,.08-.03,.2-.07,.29-.05,.13,.02,.1,.03,.04,.12,0,.01,0,.07,0,.08h0Z"/><path class="cls-3" d="M354.08,346.62c.66-1.05,.96-1.89,.54-3.1h0c-5.15-.89-8.57,4.33-7.95,8.98,.72,5.41,6.09,8.86,11.3,8.32,3.47-.36,6.47-2.12,8.89-4.58,.08-.08-.05-.43-.02-.45-4.85,4.13-12.45,5.77-17.44,.95-1.1-1.06-1.97-2.38-2.41-3.84-.55-1.85-.08-3.7,.93-5.3,.79-1.25,1.94-2.32,3.26-3.01,.65-.34,1.35-.59,2.08-.7,.29-.04,.81-.16,1.1-.06,.97,.33,.31,2.22-.27,2.6-.05,.03,.02,.18,0,.19h0Z"/><path class="cls-3" d="M354.78,344.93c3.24,0,7.68,.23,9.69,3.23,1.59,2.37,.5,5.04-1.1,7.06-1.42,1.79-3.26,3.47-5.15,4.76-1.76,1.2-4.72,1.94-6.02-.33,.01,.02-.05,.22,0,.3,1.24,2.22,4.1,1.76,5.92,.61,2.15-1.35,4.22-3.24,5.68-5.32,1.12-1.6,1.82-3.48,1.49-5.45s-1.64-3.33-3.37-4.11c-2.21-.99-4.76-1.1-7.14-1.06-.03,0-.02,.31,0,.31h0Z"/><path class="cls-3" d="M366.47,345.51c-.32-.27-.6-.57-.73-.97-.18-.32-.15-.65,.08-1,.13,.09,.26,.19,.39,.29,.43,.35,.83,.75,1.18,1.18,.62,.76,1.14,1.6,1.5,2.51,.97,2.44,.82,5.2-.46,7.5-2.17,3.89-6.82,6.03-11.17,5.92-.03,0-.03,.3,0,.31,5.03,.41,10.44-2.23,11.95-7.32,1.14-3.86,.06-8.78-3.61-10.87,0,0-.01,.01-.01,.02-.19,.97,.03,1.91,.88,2.51,0,0,.01-.06,0-.08h0Z"/><path class="cls-3" d="M434.91,360.37c.46,.27,.42-.36,.38-.66-.08-.65-.58-1.21-1.24-.72-.7,.52-.84,2.09-1,2.88-.29,1.42-.42,2.87-.46,4.32-.1,3.44,.28,6.93,1.14,10.26,.74,2.88,1.95,6.03,3.9,8.32l.18,.13,.2-.14c.75-.53,.54-2.52,.52-3.32s.12-2.78-.68-3.29l-.18-.11,.18,.39c-.16-.73-.27-1.47-.39-2.21-.1-.63-.18,.22-.17,.42,.04,.51,.08,1.02,.11,1.53,.02,.27,.03,.54,.04,.81,.02,.5,.02,.55,0,.15l.72-.53c-.52-1.83-2-3.39-2.85-5.1-.67-1.35-1.22-2.82-1.55-4.29-.28-1.27-.36-2.51-.27-3.8,.07-1.02,.23-2.03,.42-3.04,.12-.59,.16-1.39,.52-1.89,.45-.63,.9-.29,.46-.17-.01,0,0,.07,0,.08h0Z"/><path class="cls-3" d="M445.08,359.44c-.14-.28-.5,.14-.56,.24-.09,.16-.1,.46-.13,.64-.08,.43-.16,.85-.23,1.28-.16,1.17-.24,2.35-.29,3.52-.11,2.67,.03,5.34,.32,7.99,.27,2.5,.74,4.97,1.41,7.4,.6,2.19,1.28,4.62,2.57,6.51,.16,.23,.31,.23,.45-.01,1.3-1.97,1.38-4.83,1.23-7.1-.02-.23-.02-1.41-.37-1.49-.12-.02-.27-.22-.36-.29-.12-.09-.18,1.51-.04,1.78-1.11-2.18,.48-1.9-.91-2.55l.44,.66c-1.34-3.24-3.02-6.55-3.53-9.89-.22-1.46-.22-2.7-.12-4.42,.07-1.16,.22-2.31,.17-3.48,0-.19,.03-.63-.06-.8h0Z"/><path class="cls-3" d="M456.32,357.96c-.51-.1-.76,5.57-.77,5.77-.04,2.49,.09,4.98,.36,7.46,.41,3.73,1.24,7.58,2.76,11.02,.81,1.84,1.18-1.25,1.22-1.83,.1-1.28,.11-2.58,0-3.86-.08-.97-.12-2.07-.5-2.98,.5,3.38,.63,3.98,.38,1.79-.05-.48-.14-.94-.27-1.4-.11-.43-.28-.82-.44-1.22-.28-.69-.55-1.38-.79-2.09-.48-1.4-.69-2.28-.97-3.71-.02-.11-.19-1.04-.13-.67,.05,.34-.1-.74-.11-.86-.11-.86,.05,.65-.03-.31s0,.75-.02-.28c0-.35-.01-.71-.02-1.06,0-.14-.01-1.09-.01-.45,0-1.15,.06-2.29-.04-3.44-.04-.47-.06-1.16-.25-1.61l-.12-.27c-.09-.13-.17-.12-.25,0h0Z"/><path class="cls-3" d="M468.35,360.93c.3,.1,.29-.1,.31-.33,.07-.64-.69-1.17-1.03-1.53-.06-.08-.11-.08-.16,0-.39,.56-.39,1.55-.44,2.2-.09,1.15-.12,2.31-.1,3.46,.05,2.28,.32,4.55,.73,6.79,.37,2.05,.9,4.07,1.48,6.06,.29,1,.6,1.99,.92,2.97,.16,.5,.4,2.12,.97,2.24l-.12-4.93c-.36,.01-.4,.2-.12,.55,.01-.08-.03-.88-.08-.85-.38,.24-.36,.74-.39,1.15-.06,1.14,.12,2.26,.39,3.37,.14,.58,.38,1.02,.57,.18,.22-1,.17-2.17,.03-3.18-.26-1.9-1.01-3.69-1.58-5.52-.48-1.56-.94-3.13-1.28-4.73-.3-1.36-.54-2.74-.62-4.13-.05-.82-.03-1.64,0-2.46,.01-.31,.02-.67,.07-.98-.06-.51,.09-.79,.44-.83,.28,.06,.28,.19,0,.4-.01,0,0,.07,0,.08h0Z"/><path class="cls-3" d="M479.36,357.1l.69,2.92c-.01-.78-.05-1.63-.25-2.39-.03-.12-.23-.94-.44-.54-.4,.77-.51,1.87-.61,2.71-.15,1.24-.21,2.49-.24,3.74-.06,2.55,.07,5.12,.43,7.65,.31,2.14,.75,4.27,1.44,6.32,.31,.93,.68,1.85,1.08,2.75,.16,.37,.32,.76,.51,1.12,.33-4.57,.18-5.82-.46-3.76-.15,.24-.33,.44-.56,.61-.48,.39-.39,2.84,0,3.28q-.1-.22,0,0c.45,.5,.9,.99,1.36,1.48,.49,.54,.65-.94,.67-1.11,.38-2.91,.36-6.27-.91-8.98-.69-1.48-1.3-2.94-1.74-4.51-.19-.67-.33-1.36-.44-2.05-.04-.22-.04-.23,0-.03-.03-.23-.06-.46-.08-.69-.04-.44-.05-.46,0-.06-.02-.41-.03-.46-.02-.16,.05,.73-.14-1.33-.01-.19,.01-.42,.01-.47,0-.15,0-.18,.02-.36,.03-.54,.06-.99,.17-1.98,.23-2.98,.07-1.12,.06-2.28-.12-3.39-.01-.09-.29-1.56-.54-1.08h0Z"/><path class="cls-3" d="M530.34,302.03c-.16-.71-.34-1.48-.4-2.21-.09-1.16,.48,.05,.77,.47,.75,1.12,1.47,2.27,2.16,3.43,1.37,2.31,2.61,4.69,3.72,7.14,2.24,4.92,3.98,10.07,5.27,15.32,2.66,10.85,3.4,22.1,2.95,33.24-.25,6.27-.91,12.52-1.81,18.73,0,.02,.01,.17,.02,.11,3.2-20.92,3.26-43.48-4.62-63.43-2.23-5.64-5.1-11-8.62-15.94,0,0,0,.04,0,.04,.18,1.07,.39,2.14,.53,3.21,.02,.12,.03-.08,.02-.12h0Z"/><path class="cls-3" d="M540.36,296.25c9.05,19.49,13.68,40.99,13.4,62.48-.08,6.18-.59,12.33-1.43,18.45,0,.04,.02,.26,.04,.16,3.24-21.31,1.29-43.48-5.25-64-1.87-5.87-4.13-11.6-6.75-17.17,0,0-.01,.05,0,.07h0Z"/><path class="cls-3" d="M555.24,305.51c6.99,18.74,10.75,38.66,11.01,58.67,.08,5.79-.2,11.55-.64,17.32,0,.03,.02,.17,.03,.08,1.95-19.83,.05-40.19-5.04-59.43-1.5-5.66-3.29-11.23-5.35-16.7,0-.01-.01,.05,0,.07h0Z"/><path class="cls-3" d="M718.3,320.24c3.56,2.21,5.01,6.5,6.37,10.24,1.51,4.17,2.74,8.43,3.69,12.76,1.99,9.05,2.71,18.37,2.11,27.62-.34,5.23-1.12,10.42-2.25,15.54-.01,.06,.03,.31,.04,.26,4.21-18,3.15-37.35-2.96-54.8-1.45-4.15-2.99-9.31-7-11.7,0,0-.01,.07,0,.08h0Z"/><path class="cls-3" d="M728.67,325.6c-.3-.97-.61-1.93-.91-2.9-.09-.27-.34-1.05-.32-1.03,.27,.27,.47,.87,.66,1.21,.9,1.63,1.73,3.29,2.5,4.99,1.59,3.49,2.9,7.1,3.95,10.79,2.19,7.65,3.14,15.66,2.74,23.61-.23,4.5-.86,8.97-1.87,13.36-.02,.08,.03,.39,.04,.33,3.56-14.15,2.6-29.63-2.56-43.27-1.52-4.02-3.42-7.89-5.65-11.56,0,0-.03,.2-.01,.25,.47,1.43,.94,2.86,1.41,4.29,0,.01,.01-.05,0-.07h0Z"/><path class="cls-3" d="M736.14,321.67c8.52,11.62,13.14,26.04,12.96,40.45-.05,4.25-.53,8.48-1.41,12.63-.01,.06,.03,.3,.03,.26,3.02-14.1,1.28-29.12-4.83-42.18-1.86-3.97-4.12-7.73-6.75-11.24,0,0-.01,.06,0,.07h0Z"/><path class="cls-3" d="M892.64,335.32c-.6-.08-.4-1.42,.5-1.24,.64,.13,1.06,.83,1.37,1.34,.69,1.16,1.28,2.39,1.83,3.62,1.21,2.72,2.13,5.55,2.71,8.47,1.22,6.21,.84,12.61-.98,18.66-.02,.06,.02,.3,.03,.26,2.14-6.76,2.29-14.1,.63-20.98-.87-3.61-2.2-7.56-4.39-10.6-.51-.71-1.98-1.63-2.18-.2-.05,.38,.05,.72,.48,.75,0,0,0-.08,0-.08h0Z"/><path class="cls-3" d="M900.21,334.73c-.44-.61-.89-1.21-1.3-1.83,.02,.03-.06,.3,0,.39,2.95,4.89,5.06,10.03,5.81,15.73,.8,6.11,.03,12.27-2.13,18.04-.04,.1,.04,.33,.02,.37,2.29-5.66,2.99-11.9,2.33-17.96-.33-3.02-1.02-6.01-2.07-8.87-.59-1.61-1.29-3.18-2.11-4.68-.38-.7-.78-1.38-1.2-2.05-.13-.2-.73-.99-.4-.3,.21,.43,.73,.87,1.04,1.24,0,0,.01-.06,0-.07h0Z"/><path class="cls-3" d="M907.27,334.53c6.69,9.77,8.96,21.95,6.2,33.47-.01,.04,.02,.23,.02,.2,3-11.42,.65-24.16-6.23-33.74,0,0-.01,.06,0,.07h0Z"/><path class="cls-3" d="M304.61,361.55s0-.2,0-.2c-.01,0,0,.2,0,.2h0Z"/><path class="cls-3" d="M303.59,363.09c11.9-1.79,24.3-2.05,36.31-2.81,12.12-.78,24.25-1.35,36.39-1.71,23.79-.71,47.6-.64,71.39,.24,47.83,1.75,95.32,7.74,143.07,10.72,48.1,3,96.17,1.15,144.21-2.1,48.15-3.26,96.27-6.99,144.39-10.51,54.55-4,109.09-7.95,163.62-12.18,0,0,0-.23,0-.23-96.81,6.68-193.57,14.16-290.36,21.13-48.01,3.46-96.17,6.35-144.31,4.3-47.83-2.04-95.36-8.31-143.16-10.83-26.68-1.41-53.41-1.81-80.11-1.23-13.6,.3-27.19,.86-40.76,1.67-6.79,.41-13.57,.88-20.35,1.42s-13.54,1.63-20.32,1.94c-.02,0,0,.2,0,.2h0Z"/><path class="cls-3" d="M300,360.94c.93,1.06,1.74,2.13,2.8,3.08s2.11,1.7,3.26,2.42c2.34,1.47,4.89,2.57,7.5,3.47,5.74,1.98,11.78,3.07,17.69,4.36,13.97,3.05,28.04,5.67,42.18,7.81,3.87,.59,7.75,1.13,11.64,1.63s8.09,.63,12.15,.75c.02,0,.05-.6-.02-.61-3.57-.59-7.13-1.35-10.72-1.8s-7.12-.94-10.67-1.46c-7.03-1.04-14.03-2.24-21.02-3.51s-13.95-2.65-20.93-3.91c-6.17-1.11-12.44-2.02-18.5-3.66-5.5-1.49-11.88-3.97-15.37-8.76,.03,.04-.03,.16,0,.2h0Z"/></g></svg>