<?xml version="1.0" encoding="UTF-8"?><svg id="Layer_1" xmlns="http://www.w3.org/2000/svg" viewBox="0 0 1500 750"><defs><style>.cls-1{fill:#e5d490;}.cls-2{fill:#ccb654;}.cls-3{fill:#231f20;}</style></defs><g><path class="cls-2" d="M897.85,531.13s137.01-2.84,182.41,9.05c45.4,11.9,38.91-2.58,38.91-2.58,0,0,84.2-18.22,80.73-23.21-3.46-4.99-10.48-14.35-27.07-20.69-16.59-6.34-37.71-21.11-37.71-21.11,0,0-138.08-117.11-354-172.75,0,0-105.01-29.99-333.26,36.16l-63.44,16.97s-25.72-43-49.16-52.24c-23.44-9.23-29.47-28.68-29.47-28.68,0,0,4.85,44.22-5.78,43.06l15.75-2.06s16.77,40.03,31.34,59.12c14.57,19.09,26.09,43.31,20.26,88.76,0,0,14.52-34.7,17.83-39.62,3.31-4.92,8.12-21.68,8.12-21.68,0,0,153.87,57.12,189.55,66.88,35.69,9.76,217.91,67.08,314.98,64.62Z"/><path class="cls-2" d="M920.63,500.82s7.12,38.75-208.64,56.23c0,0,66.53-24.76,75.72-37.72s76.97-48.98,132.91-18.51Z"/><path class="cls-2" d="M623.72,305.4s2.18-12.4,12.03-20.3c9.86-7.9,38.6-35.31,32.93-95.04,0,0,99.78,70.31,112.43,109.78,12.65,39.47-93.71,39.77-93.71,39.77l-63.68-34.2Z"/><path class="cls-2" d="M414.18,356.15s7.73-24.58,11.69-38.43c3.97-13.85,5.26-65.25,5.26-65.25,0,0,25.78,39.22,32.24,43.05,6.46,3.84,28.51,18.19,33.89,27.13,5.39,8.93-83.08,33.5-83.08,33.5Z"/><path class="cls-2" d="M557.06,422.42s-77.72,10.86-72.96,19.93c4.76,9.07,10.12,21.44-4.65,33.38-14.77,11.94-18.58,16.89-18.58,16.89l137.19-46.08-41-24.12Z"/><path class="cls-2" d="M432.14,414.23c.84,5.69,2.03,11.47,1.07,17.23l3.79,4.58c.2-4.91-.38-9.88-1.43-14.67s-2.74-9.99-4.95-14.53c-.41-.84-1.66-2.86-2.91-2.4s-.9,2.8-.65,3.71c1.86,6.86,3.7,13.72,5.55,20.58l4.39-.22c-2.71-6.77-5.2-13.62-7.4-20.58l-3.07,3.78c1.72,2.88,3.33,5.83,4.82,8.84,.76,1.55,1.5,3.11,2.2,4.68,.32,.72,.64,1.43,.93,2.16-.44-1.1,.12,.35,.16,.46,.17,.44,.34,.87,.51,1.31,.42,1.08,2.6,5.91,4.53,3.9,3.48-3.61,7.73-7.44,12.45-9.33l-4.38-10.75c-3,2.93-5.38,6.38-6.84,10.32l6.26,9.66c.57-1.85,1.12-3.7,1.7-5.54,.82-2.64-.2-5.89-1.48-8.2-.8-1.44-2.64-4.14-4.46-2.55-2.07,1.81-3.82,3.84-5.17,6.24l6.29,6.99c-.4-1.68-.81-3.34-1.1-5.04-.07-.39-.13-.77-.18-1.16-.19-1.27,.19-.19,0,.02,.21-.22-.23-2.47-.25-2.82-.19-2.85-1.24-6.14-3.38-8.12-.55-.51-1.34-1.1-2.17-.84-1.04,.33-1.23,1.65-1.41,2.54,.13-.63-.2,.8-.24,.96l-.33,1.43c-.24,1.03-.48,2.06-.72,3.09-.57,2.44-1.16,4.82-1.31,7.32-.17,2.83,.55,5.78,2.22,8.1,1.11,1.54,2.86,2.71,3.98,.51s1.4-4.59,1.89-6.9c.39-1.81,.75-3.64,1.19-5.44l-6.71-7.62c.19,4.77,.92,9.5,2.21,14.1,.57,2.03,4.24,8.58,6.29,4.29,.87-1.83,2.61-4.29,4.4-6.05l-5.94-10.75c-.51,1.93-1.05,3.85-1.57,5.78-.76,2.81,.21,6.34,1.84,8.7,.97,1.39,3.48,3.78,4.42,.96,1.21-3.63,2.91-6.8,5.54-9.65,2.25-2.44-1.59-12.91-4.96-10.33-2.2,1.69-4.56,3.14-6.69,4.92s-4.11,3.72-5.94,5.8l3.99,2.58c-3.07-7.11-6.62-14.03-10.65-20.64-.54-.89-2.11-2.52-3.14-1.34-1.1,1.26-.37,3.77,.07,5.12,2.25,6.94,4.75,13.81,7.57,20.55,.49,1.18,1.66,4.05,3.36,3.83s1.34-2.98,1.04-4.05c-1.98-6.9-3.97-13.79-5.94-20.7l-3.56,1.31c.37,.73,.73,1.43,1.15,2.14-.32-.55,.35,.56,.06,.02,.49,.91,.82,1.99,1.17,2.96,.66,1.82,1.05,3.13,1.52,5.12,.89,3.77,1.26,7.61,1.33,11.49,.03,1.67,.57,3.53,1.79,4.74,1.02,1,1.99,.63,2.1-.8,.56-6.99-.79-14.03-2.45-20.79-.18-.75-.71-2.15-1.56-2.39s-.95,.73-.86,1.37h0Z"/><path class="cls-2" d="M426.02,409.29c-.2,1.89,.22,3.66,.54,5.51,.28,1.58,.55,3.16,.81,4.74,.29,1.75,.56,3.5,.8,5.25s.34,2.6,.53,4.39c.73,6.78,1,13.61,1.09,20.42,.03,1.97,.96,4.45,2.33,5.9,.99,1.06,2.25,1.38,2.95-.11,6.31-13.42,15.59-25.1,26.78-34.77l-4.11-9.59c-4.27,6.57-9.34,12.74-14.22,18.86-2.4,3-4.82,5.98-7.29,8.93-1.23,1.48-2.47,2.95-3.72,4.42-.63,.73-1.25,1.47-1.88,2.2-.89,1.03-1.4,2.06-1.91,3.33-.79,2,.15,5.1,1.11,6.89,.44,.81,.94,1.61,1.58,2.28,.47,.5,1.64,1.41,2.45,1.01,.95-.46,1.66-.95,2.31-1.8s1.23-1.62,1.85-2.44c1.14-1.51,2.26-3.02,3.38-4.53,2.29-3.1,4.55-6.24,6.77-9.39,4.68-6.65,9.01-13.53,13.69-20.17,1.39-1.97,.96-4.98,.14-7.11-.47-1.22-2.02-4.64-3.8-3.16-12.1,10-21.65,22.97-28.18,37.2l5.28,5.79c-.15-7.4-.93-14.77-1.98-22.09-.49-3.38-1.07-6.75-1.73-10.1-.79-3.97-1.43-8.3-3.4-11.87-.61-1.11-1.98-1.7-2.16,.01h0Z"/><path class="cls-1" d="M915.79,521.13c-.32-2.31-2.15-.81-2.72,.44-.64,1.41-1.36,6.41,1.59,5.72,1-.23,1.88-.96,2.74-1.5,1.06-.67,2.12-1.33,3.17-2.01,2.12-1.39,4.22-2.79,6.34-4.18l.07-7.74c-2.08,2.68-3.75,5.64-5.12,8.74l3.57,.88c.04-1.75,.06-3.49,.09-5.24l-4.62,7.83c3.26,2.42,7.09,3.73,11.11,4.19,4.35,.49,8.7,.85,13.06,1.11,9.68,.56,19.43,.47,29.13,.49h-.87c9.14,.03,18.28-.15,27.42-.45,4.38-.14,8.77-.31,13.15-.5,2.19-.09,4.38-.2,6.57-.3,1.14-.06,2.27-.11,3.41-.17,.46-.02,1.01,0,1.46-.08,1.07-.19,2.01-1.01,2.88-1.62,2.12-1.48,3.57-3.65,4.67-5.97,.52-1.09,.94-2.2,1.2-3.38,.17-.77,.53-2.32,.02-3.03-.33-.45-.65-1.02-1.09-1.36-.54-.42-1.05-.45-1.74-.42-1.11,.05-2.21,.1-3.32,.14-2.13,.09-4.25,.17-6.38,.26-4.25,.16-8.5,.31-12.76,.44-8.59,.26-17.18,.4-25.77,.67-5.2,.16-10.41,.29-15.61,.41l.85-.02c-8,.16-15.99,.28-23.98,.58-1.91,.07-3.8,.34-5.7,.41-1.58,.06-3.17-.03-4.75-.1-3.31-.14-6.57-.8-9.47-2.47-1.19-.68-2.69,2.55-2.9,3.03-.88,2.04-1.26,4.19-1.16,6.4,.07,1.66,.14,3.31,.22,4.97,.04,.88,.52,2.28,1.66,1.9,1.25-.41,2-2.39,2.39-3.46,.13-.37,.27-.74,.41-1.11,.03-.08,.37-.96,.19-.5-.21,.54,.27-.62,.31-.72,.16-.37,.33-.73,.51-1.09,.6-1.25,1.21-2.5,1.9-3.7,.98-1.71,1.63-3.76,1.46-5.76-.1-1.18-.52-2.68-1.9-1.63-2.37,1.79-4.76,3.56-7.1,5.37-1.09,.84-2.16,1.69-3.24,2.54-.46,.36-.91,.77-1.44,1.04-.24,.12-1.14,.4-1.13,.41l.34,.84-.02-.11-.27,2.78c.34-.97-.3,1.47-.71,1.05l-.31-.77,.04,.16c.24,.97,.84,1.15,1.43,.29,.69-1.01,.91-2.53,.74-3.72h0Z"/><path class="cls-1" d="M936.29,518.83c.59-1.47,1.07-3.7-.87-4.23-2.37-.64-2.88,4.28-2.59,5.77,.48,2.46,2.71,2.4,4.72,2.33,2.63-.08,5.26-.42,7.88-.65,11.44-.99,22.92-1.7,34.39-2.18,21.47-.89,42.95-.73,64.41,.48,5.97,.34,11.94,.76,17.89,1.28,3.06,.26,6.12,.56,9.17,.87,1.45,.15,2.89,.3,4.34,.46,1.8,.2,3.41,.04,5.2-.2,1.88-.25,3.44-2.79,4.26-4.23,.42-.74,2.33-4.26,.92-4.89-1.09-.49-2.18-1.02-3.37-1.21s-2.48-.28-3.71-.41c-2.48-.26-4.96-.5-7.44-.73-5.05-.46-10.1-.87-15.16-1.2-9.95-.66-19.92-1.05-29.89-1.16-20.03-.22-40.15,.45-60.07,2.57-5.66,.6-11.3,1.33-16.94,2.11-2.73,.38-5.46,.78-8.18,1.2-1.42,.22-2.82,.71-4.24,.88-.37,.04-.8,.02-1.15-.13-.49-.21-.39-.38-.75-.78l.31,.91-.02-.12-.17,2.16c-.91,1.16-1.08,1.65-.5,1.49,.08-.02,.17-.04,.25-.07,.33-.32,.37,.8,.16-.33l.1-1.45-.04,.19c-.08,.41-.36,1.64,.1,1.98s.85-.35,.99-.71h0Z"/><path class="cls-1" d="M998.68,524.62c1.24,1.06,2.38,1.07,3.97,1.19,1.5,.12,3,.28,4.5,.35,3.15,.15,6.31,.1,9.46,.2,6.16,.2,12.26,.35,18.37,1.25,11.87,1.75,23.55,5.14,35.64,5,2.73-.03,5.44-.4,8.18-.44,1.12-.02,2.2,.05,3.27,.37,.46,.14,.9,.33,1.3,.6,.61,.41,1,.42,1.73,.48,.91,.07,2.04-1.55,2.43-2.11,.68-.98,1.41-2.22,1.46-3.45,.03-.7,.08-1.51-.27-2.13-.24-.42-.64-.83-.99-1.14-.8-.7-1.73-1.04-2.75-1.25-2.37-.5-4.68-.2-7.07-.06-6.09,.36-12.14-.28-18.15-1.21s-12.4-2.2-18.64-3.1-12.42-1.26-18.69-1.23c-3.68,.01-7.37,.29-11.05,.51-1.86,.11-3.71,.31-5.56,.53-2.05,.24-3.94,.28-5.74,1.37-.67,.41-1.04,1.22-1.27,1.95-.16,.48-.62,1.91-.14,2.32h0Z"/><path class="cls-1" d="M1020.48,527.35c6.03-.32,12.05,.04,18.06,.55s11.83,1.22,17.71,2.13c11.72,1.81,23.24,4.65,34.78,7.34,3.66,.85,7.32,1.71,10.99,2.52,1.59,.35,3.18,.72,4.77,1.07,.77,.17,1.54,.34,2.32,.49,.37,.08,.78,.21,1.16,.23,.76,.03,1.45-.4,2.14-.72,1.34-.61,2.4-2.13,3.13-3.33,.51-.84,1.64-2.69,1.15-3.75-.15-.33-.27-.77-.53-1.03-.33-.34-.66-.33-1.13-.41-.61-.11-1.22-.22-1.82-.33-1.54-.29-3.07-.61-4.6-.92-3.14-.64-6.27-1.29-9.41-1.91-6.1-1.2-12.2-2.44-18.31-3.59-12.18-2.31-24.44-4.02-36.83-4.61-7.11-.34-14.23-.2-21.34-.37-2.21-.05-3.99,6.75-2.22,6.65h0Z"/><path class="cls-1" d="M1052.1,527.47c2.14-.15,4.13,.45,6.27,.53,2.44,.1,4.94-.09,7.38-.13,4.3-.07,8.64-.51,12.94-.82,8.54-.62,17.09-1.26,25.63-1.9,17.42-1.31,34.83-3.06,52.19-4.93,4.91-.53,9.81-1.05,14.72-1.58,5.17-.56,10.26-1.47,15.37-2.43,1.54-.29,2.72-2.45,3.33-3.73,.3-.62,1.45-3.22,.01-3.24-4.26-.06-8.47-.03-12.73,.2s-8.75,.66-13.11,1c-8.89,.69-17.76,1.43-26.64,2.24-17.95,1.66-35.87,3.47-53.78,5.46-4.97,.55-9.95,1.09-14.91,1.73-2.56,.33-5.11,.82-7.66,1.24-2.75,.45-5.27,1.62-8.04,1.94-1.2,.14-2.34,4.51-.97,4.41h0Z"/><path class="cls-1" d="M1192.01,510.53c-1.34,.65-2.8,1.07-4.2,1.59-1.55,.58-3.12,1.09-4.7,1.54-3.17,.91-6.34,1.74-9.57,2.45-6.68,1.48-13.49,2.3-20.29,2.99-15.05,1.53-30.21,2.33-45.34,2.37-8.73,.03-17.56-.57-26.25,.39-1.3,.14-3.55,5.6-2.15,5.94,7.45,1.82,15.39,1.69,23.02,1.66,7.59-.03,15.17-.26,22.75-.7,7.61-.44,15.2-1.2,22.76-2.13,7.1-.87,14.21-1.84,21.19-3.44,3.79-.87,7.58-1.98,11.16-3.49,1.76-.74,3.49-1.57,5.18-2.45,1.93-1,3.67-2.22,5.49-3.39,.73-.47,1.22-1.5,1.43-2.31,.12-.47,.26-1.41-.5-1.04h0Z"/><path class="cls-1" d="M1076.53,519.59c-.43-.4-1.52-1.11-1.66-1.71l-2.14,3.6c1.43,.64,3.37,.04,4.88-.12,1.61-.17,3.22-.32,4.82-.56,3.5-.53,7-1.06,10.5-1.59,7.05-1.06,14.33-1.89,21.15-4.05,1.04-.33,3.62-4.82,2.04-4.86-3.4-.08-6.75,.5-10.11,.95-3.57,.48-7.11,1.14-10.66,1.76s-6.96,1.22-10.44,1.83c-1.77,.31-3.53,.72-5.29,1.1-1.88,.41-3.77,.65-5.46,1.62-.82,.47-1.36,1.77-1.57,2.64-.13,.56-.25,1.59,.6,1.18,.57-.28,1.76,.12,2.39,.21,.58,.08,1.36-1.58,.94-1.98h0Z"/><path class="cls-1" d="M1109.32,491.62c-3.42,1.61-5.53,5.23-6.45,8.79s-.57,7.03,2.13,9.62c2.35,2.26,5.84,3.16,9.01,3.37,4.51,.3,9.07-.24,13.35-1.67,1.5-.5,2.52-2.16,3.17-3.52,.22-.46,1.35-3.28-.01-3.09-3.69,.52-7.42,.98-11.15,.95-2.78-.02-5.67-.26-8.23-1.41-2.26-1.02-4.31-2.92-4.78-5.46-.07-.37-.1-.86-.08-1.19,.01-.27,.07-.56,.13-.83-.05,.25,.29-.35,.02,0-.41,.52,.26-.35-.05,.09-.16,.22,.29-.36,.34-.41,.44-.5,.88-.81,1.48-1.11,.92-.47,1.52-1.91,1.77-2.84,.16-.6,.3-1.74-.63-1.3h0Z"/><path class="cls-1" d="M1121.57,494.25c-.73-.43-1.48-.59-2.32-.46-.35,.05-.69,.15-1.02,.29-.23,.1-.46,.21-.68,.33-.06,.03-.37,.22-.04,.04-.15,.08-.34,.16-.48,.23-1.11,.57-1.93,1.83-2.56,2.86-.97,1.58-1.62,3.37-1.91,5.19-.19,1.19-.13,2.37,.29,3.51,.29,.8,.81,1.45,1.41,2.05,1.17,1.16,2.71,1.66,4.33,1.73,1.78,.07,3.5-.94,4.67-2.21,1.75-1.9,2.9-4.27,3.61-6.73,.37-1.31,.59-2.83,.33-4.18-.23-1.21-.66-2.15-1.56-3.01-.56-.53-1.29-.85-2.05-.95-1.15-.15-2.03,.02-3.06,.53-1.46,.71-2.54,2.2-3.33,3.56-.86,1.48-1.52,3.09-1.83,4.78-.14,.77-.25,1.58-.11,2.35,.23,1.24,.73,2.1,1.63,2.97,.61,.59,1.43,1.16,2.27,1.35,1.04,.24,2.26,.12,3.25-.27,.73-.29,1.25-.84,1.72-1.47,.67-.89,1.26-2.01,1.62-3.06,.28-.83,.65-1.85,.5-2.73-.09-.52-.25-1-.89-.92-.25,.03-.5,.04-.75,.02l.46,.03c-.78-.07-1.49-.37-2.21-.66s-1.39-.74-1.94-1.3l.33,.35c-.44-.47-.78-1-.95-1.62l.16,.62c-.07-.26-.1-.53-.1-.8l-.02,.83c0-.07,0-.14,.01-.2,.05-.37,0-.14-.13,.7,.1-.41,.02-.14-.26,.82,.16-.44,.04-.14-.37,.89-.54,.97-.69,1.25-.45,.85-.57,.81-.72,1.05-.46,.71-.56,.63-.7,.81-.44,.54,.05-.05,.1-.1,.16-.14l-.63,.54c.22-.18,.46-.33,.72-.46l-.57,.27c.64-.29,1.33-.39,2.03-.34l-.48-.03c.85,.08,1.64,.4,2.26,1l-.32-.34c.46,.49,.77,1.06,.95,1.71l-.15-.6c.06,.24,.1,.48,.12,.73,0,.09-.03,.3,.02,.37-.04-.06,.04-.88,0-.36-.02,.18-.11,.7,.03-.04s.04-.28,0-.11c-.13,.61,.38-1.18,.18-.59,.54-1.53,.44-1.06,.27-.67,.02-.05,.67-1.33,.33-.64,0,0,.74-1.08,.36-.56-.25,.34,.71-.77,.36-.43-.07,.07-.15,.15-.23,.22,.64-.67,.51-.42,.28-.24-.08,.06-.17,.12-.25,.18-.17,.11-.35,.21-.54,.3l.54-.25c-.98,.46-2.1,.62-3.18,.54l.43,.03c-1.37-.12-2.72-.63-3.69-1.64l.28,.29c-.47-.51-.81-1.1-.99-1.77l.12,.5c-.06-.27-.13-.54-.2-.81l.12,.49c-.03-.15-.06-.31-.08-.47,0-.09,0-.17-.02-.26-.03-.33,.01,.32-.01,.32,0,0,.02-.24,.02-.26,.02-.24,.18-.47-.07,.36,.2-.65-.27,.75-.07,.21,.1-.27,.31-.52-.19,.45,.03-.06,.09-.15,.1-.22-.01,.06-.47,.85-.2,.39,.06-.1,.25-.38-.04,.05-.32,.48,.08-.09,.17-.21,.13-.17,.32-.37,.42-.56-.07,.14-.32,.27-.09,.11,.27-.19-.16,.12,.01-.02,.16-.13,.32-.25,.48-.37,.29-.2,.66-.42,.88-.52,.76-.33,1.62-.56,2.44-.62,.23-.02,.54-.41,.64-.56,.21-.29,.38-.61,.52-.95s.56-1.31,.12-1.57h0Z"/><path class="cls-1" d="M1128.64,498.45c.1,.46,.17,.9,.19,1.37,.02,.37,.01,.72,0,.95-.03,.44-.11,.86-.18,1.29-.03,.16-.03,.13,.02-.09-.03,.13-.06,.26-.1,.38l-.05,.19c-.09,.29-.08,.25,.04-.1-.09,.11-.16,.42-.21,.55-.23,.61,.28-.55,.02-.02-.05,.1-.47,.8-.15,.33s-.13,.21-.19,.3c-.08,.12-.31,.35-.32,.48,.24-.35,.3-.43,.17-.24-.06,.08-.11,.16-.17,.23-.12,.15-.24,.3-.36,.45-.34,.42,.35-.37-.13,.13-.29,.3-.59,.58-.9,.86,.29-.25-.05,.04-.16,.12-.15,.12-.31,.23-.46,.34-.64,.44-1.37,.85-1.93,1.08-.8,.32-1.63,.57-2.45,.86-.88,.31-1.78,.51-2.71,.62s-1.61,1.68-1.91,2.34c-.16,.37-.97,2.26-.25,2.48,.94,.29,1.93,.43,2.91,.42s2.03-.55,2.91-.99c2.02-1.02,3.73-2.58,5.16-4.32,3.03-3.68,5.04-8.8,4.01-13.58-.22-1.03-1.1-.24-1.5,.28s-.74,1.11-.97,1.73c-.17,.45-.43,1.07-.33,1.56h0Z"/><path class="cls-1" d="M913.15,448.5c-.15,4.24,1.92,8.29,2.95,12.35,.96,3.74,1.58,7.26,1.9,10.9,.08,.89,.14,1.78,.19,2.67,.03,.52,.05,1.04,.07,1.56,0,.17,.03,1.65,.03,.81,.02,1.93-.05,3.86-.18,5.78-.03,.44-.07,.89-.11,1.33,.09-1.2-.03,.27-.05,.41-.12,1.03-.25,2.05-.41,3.07-.07,.44-.14,.87-.22,1.31-.03,.16-.26,1.63-.07,.37-.16,1.01-.46,2.02-.74,3-.5,1.73-.81,4.38,.08,6.08,.77,1.46,1.99,.67,2.66-.45,1.63-2.71,2.74-5.82,3.58-8.85,.29-1.04,.41-2.29,.14-3.35-.1-.39-.56-1.55-1.21-1.07-1.86,1.36-3.34,3.35-4.36,5.4l3.02,4.25c1.59-8.69,2.38-17.41,1.47-26.23-.44-4.25-1.17-8.48-2.3-12.61-.57-2.08-1.22-4.14-1.95-6.17-.41-1.15-1.44-4.63-3.08-4.25-1.33,.31-1.38,2.68-1.41,3.69h0Z"/><path class="cls-1" d="M936.15,441.07c-.25-.31-.82-.91-.82-1.34l-.61,2.45c.25-.45,.47-.92,.64-1.41l-2.78-.42c.39,4.94,1.16,9.85,1.48,14.8,.16,2.49,.24,4.99,.27,7.49,.02,1.32,.06,2.63,.08,3.95,0,.23,0,2.31,0,.98,0,.57,0,1.14-.01,1.71-.05,4.88-.3,9.76-.73,14.63-.11,1.22-.24,2.43-.36,3.65-.09,.78-.07,.65,.05-.4-.04,.32-.08,.64-.12,.96-.07,.56-.15,1.12-.23,1.68-.07,.45-.15,.9-.23,1.35-.16,.76-.09,.5,.18-.79-.06,.24-.12,.48-.19,.71,.29-.79,.32-.91,.1-.36,.48-.91,.56-1.08,.23-.52-.14,.19-.27,.39-.4,.59,.46-.58,.49-.65,.11-.22l3.47,1.81,.1,.78-.21,3.48c.13-.71,.08-.53-.15,.53,.07-.27,.15-.55,.23-.82-.28,.77-.31,.84-.07,.22,.11-.27,.23-.54,.35-.81-.41,.89,.42-.69,.52-.85,.33-.53,.67-1.05,1.03-1.56,1.1-1.53,1.54-4.16,1.37-6.02-.07-.77-.5-3.5-1.9-2.7-1.54,.88-2.61,2.02-3.65,3.44-.39,.53-.72,1.08-1.03,1.67-.33,.62-.68,1.25-.93,1.91-.36,.92,.43-.62,.04-.02-1.78,2.75-2.36,6.74-1.94,9.93,.24,1.82,1.45,4.81,3.58,2.62,4-4.09,4.61-10.44,5.07-15.85,.35-4.15,.62-8.31,.72-12.47,.21-8.7-.17-17.32-1.2-25.96-.3-2.54-.64-5.08-1.05-7.61-.37-2.27-.65-4.64-1.28-6.85-.36-1.27-1.12-1.98-2.07-.66-1.05,1.47-1.41,3.8-1.26,5.56l.03,.3c.05,.61,.15,2.14,1.02,2.27,.53,.08,1.18,1.58,1.55,2.01,.52,.6,1.06-1.02,1.13-1.28,.19-.73,.38-1.92-.15-2.57h0Z"/><path class="cls-1" d="M951.38,445.15c-.47-1.43-.86-2.83-1.11-4.31l-.06,1.26c.11-.57,.22-1.13,.32-1.7,.14-.81,.65-5.55-1.38-4.28-.79,.49-1.19,1.73-1.44,2.55-.42,1.37-.55,2.76-.42,4.18,.24,2.5,.32,4.67,.54,7.14,0-.02,.07,.78,.03,.37-.04-.46,.04,.51,.04,.6,.04,.48,.07,.95,.1,1.43,.08,1.19,.14,2.38,.19,3.58,.09,2.21,.17,4.41,.18,6.62,0,1.02,0,2.05-.02,3.07,0,.55-.02,1.1-.04,1.65,0,.24-.02,.47-.02,.71-.03,.93,.06-1.26,.01-.34-.24,4.32-.51,8.61-1.08,12.9-.07,.53-.14,1.07-.22,1.6-.02,.09,.28-1.81,.13-.94-.04,.23-.07,.45-.11,.68-.18,1.13-.37,2.26-.59,3.39-.4,2.1-.86,4.19-1.37,6.27-.05,.22-.09,.46-.17,.67,.08-.21,.5-1.95,.21-.83-.15,.59-.31,1.17-.47,1.76-.32,1.17-.66,2.34-1.02,3.5-.18,.58-.37,1.16-.55,1.74,0,0-.23,.71-.09,.31,.12-.34-.17,.44-.2,.52-.9,2.31-1.79,4.57-2.31,7.01l5.06-7.65-.12-.04,.83,.47-.05-.06,1.22,4.03v-.15l-.35,4,.06-.23-1.18,3.72c-.7,1.25-.6,1.07,.29-.55-1.14,1.69-1.2,1.88-.2,.57,1.13-1.64,1.65-3.82,1.81-5.77,.13-1.59,.07-4.41-1.27-5.61-.98-.88-2.14-.52-3.03,.28-1.26,1.12-2,3.06-2.51,4.62-.71,2.2-.87,4.36-.92,6.65-.03,1.36,.35,4.36,2.12,4.71,1.89,.38,3.09-2.32,3.76-3.54,1.34-2.45,1.82-5.36,2.58-8.03s1.5-5.6,2.15-8.42c1.15-5,1.95-10.09,2.58-15.17,1.2-9.7,1.25-19.45,.24-29.17-.52-4.99-1.55-9.72-3.04-14.33l-1.9,7.64,.99-.23-.42-.25c.56,1.14,.93,2.29,1.3,3.51,.17,.57,.64-.11,.74-.33,.24-.51,.36-1.24,.18-1.79h0Z"/><path class="cls-1" d="M932.05,508.2c-.46-.16-.72-.34-.97-.76-.18-.31-.08-.1-.13-.31-.06-.23-.14,.22,0-.23l-.27,1.3,.27-1.05c.15-.65-.18,.53-.23,.66-.14,.43-.36,.81-.67,1.15l.15-.15,.17-.14c-.19,.14-.16,.14,.09,0l-1.33-4.78-.48,2.67c-.07,.4-.15,.81-.22,1.21-.04,.22-.35,1.6-.08,.59l3.8-1.54c-.73-3.06-1.68-5.99-2.95-8.87-.99-2.24-2.8,.05-3.39,1.33-1.04,2.28-1.7,5.25-.88,7.7s2.38,4.63,4.35,6.19c1.09,.87,2.41,1.73,3.73,2.18s2.91,.55,4.32,.68c2.94,.27,5.87,.35,8.79,.82s5.98,1.23,8.87,2.21l3.23-16.58c-5.03,1.66-10.11,3.23-15.26,4.51-2.55,.64-5.11,1.21-7.68,1.73-1.25,.25-2.5,.48-3.75,.7-1.45,.25-3,.34-4.3,1.09l2.24,1.43c-.12-.3-.25-.59-.39-.89-.45-.94-.79-1.2-1.65-1.68l1.09,1.94c-.24-2.18-.56-4.35-.94-6.52-.13-.73-.4-1.84-1.39-1.55-1.05,.31-1.62,1.9-1.97,2.76-.09,.21-.24,.57-.06,.16-.11,.26-.23,.51-.35,.76-.27,.57-.55,1.14-.85,1.69-.6,1.14-.79,1.46-1.54,2.57-1.26,1.87-2.66,3.66-4.21,5.29s-2.3,4.08-2.27,6.26c.01,.98,.56,3.96,2.12,2.32,4.37-4.59,7.63-9.97,9.91-15.88l-3.37,1.21c.12,2.36,.08,4.74-.02,7.1l1.98-6.5c-1.42,2.07-2.02,4.38-2.63,6.77-.45,1.79-.83,4.12-.51,5.98,.19,1.11,.44,2.5,1.65,2.94,1.35,.5,3.01-.01,4.39-.26s2.66-.49,3.99-.75c2.65-.54,5.29-1.14,7.91-1.8,5.27-1.34,10.47-2.93,15.55-4.89,1.29-.5,2.35-2.21,2.91-3.34,.81-1.66,1.36-3.41,1.72-5.22,.31-1.59,.58-3.39,.3-5.01-.19-1.07-.44-2.67-1.69-3.02-5.62-1.54-11.45-2.22-17.27-1.9-2.67,.15-5.42,.19-8.08-.17-1.02-.14-2.06-.38-2.99-.82-.39-.18-.58-.35-.9-.66-.41-.39-.59-.62-.73-.91l-4.27,9.03c1.26,2.17,2.23,4.49,2.99,6.88,.33,1.04,1.3,1.13,2.02,.43,1.67-1.64,2.1-4.06,2.31-6.29,.15-1.53,.38-3.06,.57-4.59,.07-.55,.05-4.52-1.51-3.57-2.92,1.77-4.22,6.38-3.62,9.61,.3,1.62,2.03,2.49,3.56,2.72,1.11,.16,1.87-3.57,.79-3.95h0Z"/><path class="cls-1" d="M571.92,458.9c3.25,.39,6.41,1.04,9.63,1.57s6.15,.82,9.22,1.28c6.32,.95,12.6,2.14,18.86,3.42,12.32,2.52,24.61,5.15,36.92,7.71s24.69,4.71,37.06,6.98c12.26,2.24,24.36,4.91,36.32,8.42,6.53,1.92,13.02,3.54,19.86,3.7,7.17,.16,14.32-.72,21.5-.53l-1-.03c9.46,.32,18.97,4.15,28.44,2.02,2.07-.47,4.02-1.23,5.97-2.06,.99-.42,1.99-.85,2.97-1.29,.23-.1,2.47-1.17,1.6-.75,.47-.22,.93-.44,1.41-.66,4.05-1.85,8.1-3.56,12.59-3.91,.73-.06,1.64-1.25,1.96-1.75,.6-.91,1.05-1.9,1.39-2.94,.42-1.28,1.2-3.92-.26-4.83-4.32-2.7-9.65-2.31-14.43-.94-5.28,1.52-10.34,3.3-15.91,3.12l.99,.03c-7.13-.32-14.03-2.4-21.18-2.61s-14.39,.67-21.6,.6h.97c-11.07-.17-21.52-4.21-32.23-6.6s-21.88-4.17-32.89-5.78c-11.52-1.69-23.01-3.43-34.56-4.89-11.41-1.44-22.82-2.96-34.25-4.23-6.32-.7-12.64-1.31-18.99-1.68-3.12-.18-6.29-.41-9.42-.26-3.34,.16-6.72,.58-10.04,.94-1.68,.18-2.58,5.74-.88,5.94h0Z"/><path class="cls-1" d="M599.15,465.42c2.35,1.02,4.65,1.98,7.09,2.75s4.92,1.56,7.38,2.34c4.75,1.5,9.54,2.81,14.34,4.13,9.64,2.65,19.3,5.23,28.92,7.96,19.12,5.42,38.25,10.85,57.37,16.27,5.25,1.49,10.53,2.89,15.8,4.32,2.82,.76,5.76,1.67,8.69,1.84,3.14,.18,6.33,.08,9.43-.49,1.38-.25,2.47-2.63,2.88-3.74,.27-.75,.5-1.52,.62-2.3,.07-.45,.23-1.99-.24-2.41-1.85-1.62-3.91-3.14-6.1-4.26s-4.69-1.83-7.17-2.4c-4.98-1.14-9.96-2.28-14.93-3.42-10.01-2.29-20.07-4.38-30.11-6.55-19.9-4.3-39.78-8.69-59.64-13.16-5.48-1.23-10.94-2.57-16.46-3.6-2.8-.52-5.59-1.03-8.39-1.55-1.38-.26-2.79-.62-4.19-.78-1.49-.17-3.01-.21-4.5-.32s-2.16,4.79-.8,5.38h0Z"/><path class="cls-1" d="M639.4,480.55c1.75,.77,3.35,1.98,4.99,2.96s3.35,1.73,5.06,2.53c3.36,1.57,6.74,3.17,10.2,4.5,6.76,2.59,13.61,4.94,20.53,7.06,13.76,4.22,27.88,7.31,42.11,9.48,7.99,1.22,16.03,2.2,24.11,2.39,1.82,.04,2.88-2.62,3.33-4.07,.23-.73,1.41-5.07-.25-5.25-7.35-.8-14.72-1.42-22.06-2.33-7.31-.91-14.6-2.06-21.84-3.45-14.25-2.74-28.39-6.31-42.21-10.76-3.82-1.23-7.66-2.41-11.49-3.63-1.9-.6-3.77-1.29-5.68-1.86-2.05-.62-4.33-.79-6.28-1.63-1.15-.5-1.57,3.62-.53,4.08h0Z"/><path class="cls-1" d="M712.61,496.07c2.32,.71,4.5,1.83,6.71,2.82s4.5,2,6.76,2.96c4.32,1.82,8.7,3.52,13.12,5.1s8.86,3.02,13.37,4.29c2.2,.62,4.42,1.31,6.67,1.72,2.41,.44,4.84,.79,7.27,1.14,1.36,.19,2.04-2.53,2.21-3.45s.62-3.63-.72-4.03c-2.42-.72-4.81-1.5-7.22-2.25-2.24-.71-4.55-1.21-6.81-1.84-4.6-1.28-9.18-2.63-13.71-4.11s-9.02-3.08-13.45-4.81-9.26-3.4-13.31-6.03c-1.61-1.05-2.24,2.71-2.32,3.5-.14,1.32-.28,4.47,1.44,5h0Z"/><path class="cls-1" d="M589.3,448.17c10.28,6.39,21.76,10.34,33.32,13.71,12.12,3.53,24.39,6.47,36.77,8.93,24.6,4.89,49.55,7.92,74.56,9.61,25.14,1.69,50.35,2.07,75.54,1.53s50.5-1.94,75.72-3.63c25.62-1.71,51.43-3.51,76.95,.34,3.3,.5,6.6,.74,9.93,.96,.86,.05,3.27-2.96,2.45-3.29-5.75-2.26-11.7-3.07-17.82-3.74s-12.68-1.09-19.04-1.27c-12.82-.35-25.65,.15-38.45,.83-25.53,1.35-51.03,2.99-76.59,3.64-25.36,.64-50.77,.6-76.12-.69-25.46-1.29-50.89-3.89-76.02-8.27-12.43-2.17-24.75-4.82-37-7.83s-23.82-5.91-34.86-11.07c-2.86-1.33-5.57-2.96-8.19-4.71-1.23-.82-2.39,4.16-1.15,4.94h0Z"/><path class="cls-1" d="M737.35,505.97c21.56-5.25,43.57-8.71,65.54-11.73,21.95-3.01,44.02-4.94,66.14-6.12,12.56-.67,25.14-1.16,37.71-1.48,1.36-.03,3.16-4.9,1.62-4.94-11.23-.34-22.42-.35-33.66,.07-11.17,.42-22.32,1.16-33.46,2.17-22.32,2.01-44.51,5.03-66.52,9.18-12.45,2.35-24.8,5.12-37.17,7.86-1.31,.29-1.71,5.36-.22,4.99h0Z"/><path class="cls-1" d="M940.61,513.12c19.76-2.6,39.59-4.57,59.48-5.86,19.81-1.28,39.67-1.84,59.52-1.98,11.27-.08,22.54,.05,33.81,.39,1.36,.04,3.38-4.9,1.94-4.97-19.98-.95-40-1.29-60-.72-19.97,.58-39.92,1.82-59.8,3.73-11.25,1.08-22.49,2.37-33.69,3.88-1.49,.2-2.78,5.74-1.25,5.54h0Z"/><path class="cls-1" d="M1055.01,510.49c5.25-.24,10.62,.45,15.87,.78s10.36,.64,15.54,.96c5.12,.32,10.23,.57,15.35,.83,5.4,.27,10.69,.51,16.07-.18,.5-.06,1.89-2.19,1.35-2.35-4.93-1.41-9.99-1.66-15.09-1.99s-10.28-.68-15.43-.95-10.33-.56-15.49-.83c-2.66-.14-5.33-.28-7.99-.43s-5.47-.19-8.17-.64c-1.68-.28-3.18,4.86-2.01,4.8h0Z"/><path class="cls-1" d="M1143.3,516.49c2.22,.1,4.45,.79,6.65,1.16,2.04,.34,4.09,.62,6.14,.84s4.12,.38,6.19,.42c2.37,.05,4.68-.28,7.02-.63,1.13-.17,3.82-4.44,2.5-4.55-1.97-.18-3.92-.46-5.9-.53-2.16-.07-4.32-.16-6.47-.34s-4.14-.41-6.2-.71-4.48-.5-6.44-1.4c-1.11-.51-2.65,2.01-3.03,2.64-.23,.37-1.77,3.05-.47,3.11h0Z"/><path class="cls-1" d="M770.72,493.39c-.02-.62-.05-1.25-.07-1.87-.01-.32-.05-1.13-.5-1.26-6.81-1.9-14.45,.2-20.29,3.89-1.38,.87-2.08,3.24-2.35,4.72-.12,.67-.44,3.33,.97,2.91,1.3-.39,2.64-.59,3.94-.99s2.66-.82,4-1.23c2.65-.81,5.31-1.63,7.95-2.47,2.31-.73,5.03-9.67,2.09-9.28-6.63,.89-12.94,3.48-18.37,7.38-1.82,1.31-2.81,3.94-3.25,6.03-.21,1.03-.69,4.13,1.19,3.84,4.94-.77,9.58-2.88,13.91-5.34,1.74-.99,2.93-4.01,3.38-5.84,.21-.86,.38-1.75,.39-2.64,0-.36-.13-2.16-.89-2.19-5.13-.24-10.19,.17-15.16,1.47-1.8,.47-3.12,3.31-3.68,4.84-.35,.96-.64,1.95-.81,2.96-.09,.56-.32,2.57,.28,3.09,5.49,4.79,11.58,8.7,18.33,11.47,.8,.33,1.83-.6,2.27-1.09,.82-.92,1.42-1.99,1.92-3.12,.88-1.96,1.97-4.97,.84-7.04-1.95-3.58-3.76-7.24-5.7-10.83-.45-.84-1.51-.47-2.09-.09-1.06,.69-1.98,2.16-2.52,3.24-1.18,2.39-2.37,5.59-1.24,8.2,1.48,3.41,3.6,7.9,7.67,8.7,6.15,1.2,9.95-4.84,11.34-10.03l-5.51,7.04c4.94,2.69,10.72-1.31,14.08-4.74,1.77-1.8,3.3-3.83,5.12-5.57,.15-.15,.83-.73,.18-.19,.21-.17,.42-.34,.64-.5,.5-.37,1.01-.7,1.55-1,.86-.48,2.07-.9,3.22-1.23,2.72-.77,5.53-1.2,8.3-1.73,3.08-.58,6.16-1.17,9.24-1.76,6.07-1.15,12.15-2.3,18.22-3.47,6.87-1.32,13.82-2.42,20.51-4.5,2.36-.74,4.06-3.34,5.02-5.5,.39-.87,2.11-5.01-.11-4.9-6.3,.32-12.52,1.6-18.72,2.68s-12.23,2.13-18.34,3.2-12.1,1.97-18.1,3.2c-2.63,.54-5.18,1.32-7.54,2.63-2.47,1.38-4.53,3.48-6.39,5.57-.91,1.02-1.8,2.06-2.76,3.04-.24,.24-.5,.47-.73,.71-.25,.23-.2,.19,.16-.13-.14,.12-.29,.24-.44,.35-.55,.43-1.14,.79-1.75,1.13-.35,.2-.56,.28-1.24,.49-.58,.18-1.18,.32-1.78,.38-1.16,.13-2.29-.19-3.4-.77s-2.37,1.03-2.92,1.72c-1.22,1.55-2.11,3.41-2.6,5.32,.38-1.47,1.07-3.07,2.13-4.18,.86-.89,.31-.31,.02-.1-.56,.42,.45-.06-.2,.08-.29,.06-.56,.17-.86,.22s-.59,.09-.89,.1c-.56,.02,.05,.05-.46-.04-.64-.1-1.26-.29-1.83-.59-2.57-1.35-3.86-4.48-4.99-6.99l-5.84,11.35c1.95,3.46,4.03,6.84,5.98,10.29l5.04-11.25c-6.55-2.53-12.62-6.13-17.99-10.66l-3.71,11.32c4.78-1.29,9.67-1.9,14.62-1.78l2.23-10.69c-4,2.36-8.32,3.98-12.69,5.49l-2.06,9.86c5.22-3.95,11.23-6.5,17.67-7.63l2.09-9.28c-2.68,.95-5.36,1.92-8.04,2.9-1.25,.46-2.51,.91-3.76,1.37-1.46,.53-2.84,1.24-4.29,1.78l-1.38,7.64c5.72-3.95,12.28-5,19.1-4.88l-.81-.68c.09,.54,.17,1.08,.26,1.61,.2,1.26,1.36,.32,1.77-.2,.81-1.04,1.48-2.63,1.43-3.97h0Z"/><path class="cls-1" d="M857.38,482.21c-9.43,1.34-19,1.87-28.5,2.48s-18.97,1.02-28.46,1.49c-19.11,.95-38.23,1.29-57.36,1.54-10.96,.14-21.93,.17-32.87,.88-1.35,.09-2.56,4.76-1.36,4.9,9.38,1.09,18.77,1.28,28.21,1.42,9.59,.14,19.2-.08,28.79-.36,19.09-.56,38.13-1.63,57.16-3.31,10.68-.94,21.36-2.32,32.06-2.97,1.26-.08,2.26-2.32,2.63-3.3,.19-.51,.95-2.96-.32-2.78h0Z"/><path class="cls-1" d="M475.62,421.62l-.04,.13,1.46-1.97c.08,0,.14,.03,.19,.12l-.17,2.2,.05-.15-1.51,2.03h.15l-.58-.2c.26,.49,1.34,.78,1.86,1.03,.87,.41,1.79,.71,2.7,1.03,1.88,.67,3.77,1.26,5.71,1.72,3.8,.89,7.95,2,11.79,.97,1.07-.29,1.68-1.79,1.95-2.72,.21-.76,.6-2.36-.33-2.82-2.57-1.26-5.42-1.28-8.2-1.73s-5.61-1.03-8.37-1.68c-1.34-.32-2.68-.79-4.05-.97-.53-.07-1.07-.13-1.54,.16-.59,.37-1.08,1.26-1.38,1.88-.42,.89-1.15,3.2,.19,3.72s2.1-1.86,2.26-2.73c.1-.54,.29-1.92-.54-1.99s-1.44,1.39-1.6,1.96h0Z"/><path class="cls-1" d="M392.29,393.89c-1.03-.63-2.19-1.19-3.31-1.66s-2.24-.63-3.35-.96c-1.66-.49-2.79,4.65-1.57,4.72,2.21,.14,4.41,.09,6.61,.31s4.15,.61,6.2,1.08c4.13,.94,8.13,2.29,12.04,3.91,7.78,3.23,15.11,7.52,23.02,10.44,4.63,1.71,9.29,2.96,14.25,2.74,1.12-.05,2.05-1.59,2.46-2.44,.24-.49,1.14-2.62,.18-2.92-3.96-1.27-7.98-2.43-11.9-3.83s-8.08-3.13-12.05-4.88c-8.02-3.54-16.03-7.32-24.67-9.1-4.7-.97-10.21-1.4-14.87-.03l-.66,4.57c2.2-1.13,4.84-.91,6.94,.28,.52,.3,1.33-1.83,.68-2.23h0Z"/><path class="cls-1" d="M406.34,399.16c.49-.47,.58-.31,.27,.49l-.79,1.55,.1-.11-.98,.74c.87-.22,1.69,.38,2.47,.72,.98,.43,1.97,.87,2.93,1.34,1.99,.98,3.96,2.02,5.86,3.15,3.7,2.2,7.32,4.79,10.62,7.56,1.19,1,4-4.31,2.83-5.5-4.37-4.43-9.55-8.07-15.41-10.27-1.43-.53-2.88-1.02-4.35-1.43-1.32-.36-2.89-.87-4.02,.16-.86,.78-2.33,3.22-1.3,4.31s1.99-.4,2.39-1.2c.3-.6,.49-2.41-.61-1.53h0Z"/><path class="cls-1" d="M422.96,407.54v.16l1.53-3.25-.06,.05,.67-.32s.06-.05,.07-.09l.02,1.35,.03-.17-1.25,2.34,.14-.14-1.21,.78c.95-.03,1.79,.34,2.7,.58,1.24,.32,2.5,.58,3.74,.9,2.42,.64,4.8,1.4,7.19,2.14,4.74,1.47,9.37,3.31,13.83,5.48,8.98,4.38,17.23,10.42,27.02,12.94,2.61,.67,5.26,1.14,7.95,1.22,1.41,.04,2.8-.03,4.19-.25,1.75-.28,3.14-.82,4.72-1.62,1.3-.66,2.41-2.46,2.86-3.8,.26-.76,.63-2.5-.62-2.58-2.63-.18-5.26,.3-7.91,.17-2.92-.14-5.81-.68-8.6-1.52-5.51-1.66-10.69-4.26-15.78-6.88s-10.09-5.12-15.41-7.09-10.72-3.44-16.31-4.33c-1.61-.26-3.24-.54-4.87-.61s-2.81-.2-3.96,1.08c-.62,.69-2.39,3.5-1.1,4.31,1.07,.67,2.29-1.04,2.67-1.74,.22-.41,.87-1.79,.4-2.28l-.08-.08c-1.21-1.24-2.64,2.41-2.57,3.24h0Z"/><path class="cls-1" d="M488.35,421.24c1.58,1.09,3.24,2.04,4.98,2.84,.88,.4,1.76,.79,2.69,1.03s1.91,.45,2.88,.62c.42,.07,.74-.45,.9-.77,.11-.21,.45-1.03,.08-1.18-.88-.38-1.74-.78-2.59-1.23s-1.73-.84-2.59-1.29c-1.72-.9-3.35-1.95-4.88-3.13-.68-.52-2.44,2.47-1.48,3.13h0Z"/><path class="cls-1" d="M471.57,486.64c1.58-1.1,3.43-1.74,5.21-2.47,1.87-.77,3.75-1.51,5.64-2.24,3.48-1.34,6.99-2.62,10.52-3.83,7.52-2.57,15.14-4.88,22.82-6.88s14.83-3.29,22.19-5.14,13.77-4.31,19.87-8.36c3.39-2.25,6.49-4.87,9.32-7.78,1.58-1.63,3.01-3.44,3.76-5.61,.57-1.65,.88-3.75-1.3-4.02-.83-.1-1.81,1.13-2.21,1.69-.5,.72-1.09,1.75-.85,2.65,.09,.33,0,.68,.08,1-.03-.13,0,.55,.05,.21,.09-.64-.13,.51-.01-.01,.06-.25,.59-.6,.04-.14-.96,.8-2.23,2.13-3.35,3.09-2.31,1.98-4.86,3.71-7.5,5.22-5.92,3.37-12.51,5.26-19.11,6.76-6.95,1.58-13.9,3.08-20.78,4.96s-13.74,4.03-20.48,6.46c-3.75,1.35-7.48,2.78-11.17,4.28-1.92,.78-3.83,1.58-5.74,2.4s-3.72,1.96-5.66,2.27c-1.34,.21-2.18,2.33-2.43,3.4-.13,.57-.28,3.04,1.1,2.08h0Z"/><path class="cls-1" d="M541.52,430.24c-.65-1.39-1.89-2.47-3.26-3.14-1.21-.59-2.79-.38-3.78-1.28-.8-.72-2.28,1.63-2.53,2.1s-1.37,2.94-.34,3.27c7.4,2.39,15.58,3.63,21.79,8.67,3.29,2.67,5.6,6.23,7.83,9.78,1.08,1.71,2.48,3.58,2.76,5.63,.04,.27,.02,.55,.02,.82,0,.2,0,.41-.02,.61-.01-.16,.01-.31,.08-.46-.21,.46-.16,.37,.15-.26,.32-.58,.73-1.07,1.23-1.48,.28-.17,.23-.15-.14,.06-.14,.01-.27,.05-.4,.11-1.31,.36-2.47,1.75-3.14,2.86-.29,.48-1.45,2.71-.48,3.08,1.85,.71,3.5-.03,4.98-1.27,2.31-1.93,4.15-4.72,4.79-7.68,.95-4.37-1.94-7.92-4.4-11.19s-5.26-6.68-8.81-9.05c-3.14-2.09-6.82-3.61-10.51-4.4-4.37-.93-8.75-1.31-13.21-1.26l-.41,4.02c.28-.36,.28-.37,0-.03l.35-.25c.38-.14,.71-.31,1.11-.37,.73-.11,1.54,0,2.23,.2,1.37,.39,2.33,1.33,2.93,2.6,.24,.5,1.44-1.11,1.17-1.69h0Z"/><path class="cls-1" d="M548.32,432.54h0l-.12,1.65,.06-.19-1.2,2.15-.43,.37c-.53,.28-.6,.41-.23,.38,.12,.07,.48,.03,.62,.04,.48,.04,.96,.08,1.44,.13,.89,.09,1.78,.22,2.67,.35,1.89,.28,3.78,.51,5.65,.91,3.66,.77,7.23,1.96,10.65,3.49s6.79,3.36,9.9,5.52,5.78,4.47,8.72,6.64c1.6,1.18,3.22,2.23,5.03,3.06,.96,.44,1.94,.85,2.95,1.14,.5,.14,1.1,.37,1.61,.37,.68,0,1.43-.36,2.07-.54,1.04-.28,1.96-1.5,2.48-2.34,.38-.62,1.25-2.1,.78-2.87-.28-.45-.47-1.11-.88-1.47-.32-.28-.86-.48-1.23-.68-.89-.5-1.8-.96-2.66-1.5-1.74-1.09-3.47-2.25-5.15-3.42-3.48-2.44-6.79-5.11-10.44-7.29-7.52-4.48-16.25-6.97-24.98-7.47-1.19-.07-2.38-.02-3.56,.04s-2.49,.04-3.64,.36c-1.34,.38-2.39,1.54-3.11,2.69-.57,.91-1.67,3.05-.41,3.86,1.53,.99,4.95-4.28,3.4-5.37h0Z"/><path class="cls-1" d="M571.33,443.96c5.44,5.9,8.24,13.91,8.02,21.9-.04,1.32,1.27,1.1,2.03,.62,1.31-.83,2.4-2.38,2.9-3.83,1.02-2.93,2.18-5.9,2.89-8.94,.67-2.85,1.09-5.99,.24-8.85-1.4-4.7-6-8.55-11.03-7.36-1.16,.27-2.24,1.78-2.76,2.75-.4,.74-1.05,2.15-.29,2.86,.93,.87,2.15,1.48,3.18,2.24,1.15,.86,2.41,1.55,3.66,2.27,2.35,1.37,4.73,2.69,7.13,3.96,4.78,2.54,9.66,4.91,14.6,7.13,9.95,4.46,20.33,8.05,30.71,11.35,20.82,6.63,42.17,11.48,63.45,16.35,12.12,2.77,24.29,5.4,36.34,8.49,2.4,.62,7.9-5.5,5.24-6.35-10.41-3.34-20.9-6.44-31.49-9.16-10.72-2.76-21.47-5.4-32.22-8.02-21.2-5.16-42.46-10.74-62.83-18.64-5.69-2.21-11.36-4.46-16.92-6.99-2.85-1.29-5.67-2.64-8.46-4.04-1.36-.69-2.69-1.46-4.07-2.11s-2.92-1.54-4.4-2.05l-2.5,5.35c3.82-2.12,7.97,2.33,9.03,5.64,1.67,5.21-1.61,10.41-3.73,14.93l4.54-2.33c.38-8.63-3.42-16.76-9.89-22.38-1.23-1.07-4.44,4.02-3.35,5.2h0Z"/><path class="cls-1" d="M576.41,439.26c10.3,3.97,20.63,7.86,31.12,11.27,10.49,3.41,21.03,6.68,31.65,9.69,21.31,6.04,42.81,11.39,64.46,16.03,6.01,1.29,12.03,2.53,18.09,3.6,3.08,.54,6.18,1.19,9.29,1.56,3.28,.38,6.58,.71,9.86,1.04,1.41,.14,4.85-3.72,3.14-4.16-5.35-1.37-10.67-2.72-16.07-3.85s-10.69-2.21-16.04-3.33c-10.88-2.29-21.73-4.69-32.54-7.29-21.65-5.21-43.15-11.09-64.46-17.53-12.07-3.65-24.17-7.25-36.19-11.07-1.38-.44-3.46,3.61-2.3,4.06h0Z"/><path class="cls-1" d="M371.97,372.98c-.33-.33-.65-.65-.98-.98l.34,.72c-.09-.35-.17-.7-.22-1.06-.2-1.12-1.09-1.59-1.99-.82-1.09,.92-1.49,2.56-1.53,3.92-.1,3.41,1.36,6.99,3.12,9.85s3.86,5.26,6.66,7.04,6.2,3.09,9.67,3.39c3.73,.32,7.1-.35,10.54-1.8,1.55-.66,2.32-3.25,2.48-4.71,.1-.88-.03-3.61-1.63-3.1-5.8,1.82-12.53,1.32-17.8-1.81-2.32-1.38-4.43-3.3-6.08-5.42-.78-1.01-1.43-2.1-1.97-3.25-.59-1.25-.94-2.67-1.62-3.86l-1.51,5.4c.29-.14,.94,.32,1.17,.44,1.28,.67,2.17-3.16,1.38-3.94h0Z"/><path class="cls-1" d="M371.2,372.37c.48,6.56,4.78,11.98,9.79,15.93,5.41,4.26,11.79,6.97,18.19,9.37,6.76,2.53,13.56,4.93,20.23,7.67,6.76,2.78,13.36,5.86,19.98,8.95,7.46,3.48,14.73,7.28,22.31,10.5,1.46,.62,2.85-1.39,3.36-2.47,.6-1.26,1.08-3.2-.22-4.17-11.59-8.61-25.02-14.65-38.32-20.12-6.67-2.74-13.42-5.33-20.27-7.59-6.45-2.14-13-4.1-18.91-7.52-2.86-1.65-5.49-3.72-7.74-6.14-1.11-1.19-2.15-2.49-3.09-3.82s-1.65-2.75-2.65-4.01c-.5-.63-1.37,.13-1.68,.52-.59,.74-1.06,1.93-.99,2.9h0Z"/><path class="cls-1" d="M370.06,370.63c7.09,8.58,14.12,17.2,21.15,25.83,.81,1,2.35-2.16,1.62-3.11-6.92-8.97-13.83-17.96-20.68-26.98-.97-1.28-3.18,2.93-2.08,4.26h0Z"/><path class="cls-1" d="M420.43,404.24c8.8,5.26,18.4,8.94,27.88,12.76,10.05,4.06,20.11,8.11,30.16,12.16,2.76,1.11,5.52,2.23,8.28,3.34,1.47,.59,2.93,1.21,4.42,1.78,.71,.27,1.44,.55,2.18,.75,.87,.24,1.68,.03,2.54-.11,1.79-.29,2.22-3.36,1.25-4.53-.45-.55-.84-1.11-1.44-1.5-.56-.35-1.2-.59-1.8-.85-1.2-.52-2.44-.96-3.67-1.42-2.58-.97-5.16-1.94-7.74-2.91-5.08-1.91-10.15-3.82-15.23-5.72-9.94-3.73-19.86-7.5-29.81-11.2-5.32-1.98-10.54-4.11-15.43-7.03-1.74-1.04-3.07,3.6-1.6,4.47h0Z"/><path class="cls-1" d="M491.78,430.29c.1-.07,.21-.13,.32-.18l-.41,.19c.21-.09,.43-.16,.66-.17h-.39c.2,.04,.39,.09,.58,.17l-.36-.16c.08,.04,.15,.07,.22,.12,.14,.08,.28,.19,.44,.19,.04,0,.08,0,.12,0,.07,0,.14,.01,.22,.02,.06,.01,.13,.04,.19,.04,.24,.04,.45-.02,.65-.16,.24-.17,.43-.39,.57-.64,.36-.62,.48-1.35,.41-2.05-.3,1.61-.36,2.14-.2,1.61l.14-.51c.05-.21,.06-.11,.08-.59,.01-.4-.05-.73-.16-1.11-.04-.13-.08-.26-.14-.39-.17-.37-.31-.77-.69-.98-.21-.12-.44-.22-.67-.31-.11-.04-.23-.07-.35-.09s-.23-.06-.35-.08-.24-.03-.36-.03c-.25,0-.5,0-.74,.06-.53,.13-.88,.59-1.15,1.03-.23,.4-.39,.83-.47,1.29-.08,.34-.1,.69-.07,1.04,0,.31,.04,.61,.15,.91,.07,.26,.19,.47,.38,.64,.13,.19,.31,.3,.54,.34,.31,.05,.59-.02,.84-.21h0Z"/><path class="cls-1" d="M426.03,409.95c-1.12-1.03-2.54-2.3-2.75-3.89l-.31,2.18,.03-.08-2.63,1.02c.46,1.18,1.61,1.91,2.46,2.79,.81,.83,1.51,1.73,2.21,2.66,1.33,1.77,2.36,3.73,3.22,5.77,1.78,4.23,3.04,8.74,4.31,13.14,.41,1.4,1.94,.65,2.57-.04,1-1.1,1.66-2.88,1.41-4.37-.86-5.16-1.93-10.23-4.28-14.95-1.08-2.17-2.39-4.25-3.96-6.1-.75-.88-1.66-1.65-2.59-2.33-.98-.73-2.26-1.8-3.55-1.48s-1.85,1.96-2,3.08c-.08,.59,.03,2.92,1.24,2.44,.93-.37,2.86,2.08,3.51,2.62,.86,.71,1.78-1.81,1.08-2.46h0Z"/><path class="cls-1" d="M435.15,443.4c-.45-.09-.9-.13-1.35-.15-.13,0-.26,.04-.39,.04-.1,0-.79-.14-.26-.06-2.11-.32-3.24,2.63-3.61,4.22-.31,1.31-.08,4.52,2.13,3.43,1.81-.9,3.08-3.38,4.27-4.99s2.39-3.15,3.65-4.67c2.49-2.99,5.17-5.8,8.04-8.43s5.95-5.15,9.17-7.43c1.21-.85,2.59-1.65,4.32-2.13,.61-.17,1.26-.24,1.94-.26,.87-.03,1.63,.3,2.5,.38,1.12,.1,2.2-1.51,2.61-2.28,.53-1,1.16-2.7,.64-3.84-2.22-4.79-8.16-2.28-11.39-.21-3.66,2.35-7.1,5.14-10.31,8.06s-6.41,6.23-9.28,9.65c-1.37,1.63-2.69,3.3-3.93,5.03-1.64,2.26-3.77,4.92-4.34,7.69l3.83-4.05c.23,.1,.38,.28,.46,.52l-.18,2.63c-.15,.24-.13,.22,.05-.06l-1.01,1.06c.28-.16,.25-.18,.45,.13,.68,1.06,2-.84,2.22-1.28,.25-.52,.93-2.77-.2-2.99h0Z"/><path class="cls-1" d="M370.12,439.06c1.4-3.75,3.24-7.38,5.21-10.42,2.29-3.53,5.03-6.72,7.6-10.04,2.8-3.63,5.28-7.51,6.91-11.82,.91-2.4,1.46-4.87,1.63-7.42,.09-1.49,.07-4.99-1.77-5.57s-2.94,2.07-3.3,3.36c-.56,2.01-.31,4.51-.62,6.3-.08,.43-.16,.86-.25,1.29-.06,.28-.12,.56-.19,.84,.1-.34,.08-.26-.06,.22-.13,.42-.27,.83-.42,1.24-.04,.11-.5,1.25-.2,.56-.4,.94-.89,1.84-1.4,2.73-.26,.45-.29,.5-.09,.16-.12,.19-.24,.38-.36,.57-.28,.44-.57,.87-.87,1.3-1.14,1.66-2.38,3.25-3.61,4.84-5.2,6.7-9.51,13.77-11.76,22.02-.24,.87-.54,2.86,.87,2.87s2.32-2.02,2.71-3.05h0Z"/><path class="cls-1" d="M304.3,290.73c4.96,6.65,10.67,12.89,16.38,18.91s11.77,12.17,17.89,18.02,12.09,11.3,18.32,16.74c5.17,4.51,10.6,9.01,14.3,14.87,1.04,1.65,1.94,3.4,2.62,5.23,.16,.43,.31,.86,.45,1.29,.1,.31,.34,1.14,.33,1.12-.08-.31,.07,.27,.07,.26,.06,.24,.12,.47,.18,.71,.12,.47,.24,.95,.37,1.42,.49,1.86,.98,3.75,1.81,5.49,.4,.85,.99,1.9,1.74,2.5,.79,.63,1.99,.87,2.97,1.06,1.6,.31,3.51-1.72,4.28-2.86,.87-1.29,2.03-3.41,1.25-4.99-.37-.74-.61-1.54-.96-2.29s-.85-1.4-1.24-2.11c-.73-1.36-1.24-2.83-1.71-4.29-1.02-3.19-1.99-6.29-3.75-9.16-3.73-6.1-9.38-10.76-14.92-15.13-12.9-10.17-25.46-20.73-37.52-31.88-3.42-3.16-6.85-6.31-10.23-9.5s-6.62-6.44-10.1-9.48c-1.08-.94-3.28,3.06-2.52,4.08h0Z"/></g><g><path class="cls-3" d="M875.01,483.62c-1.58-.32-3.01-.95-4.64-1.14s-3.24-.18-4.85-.04c-3.18,.26-6.31,.98-9.42,1.65-6.96,1.51-13.91,3.07-20.87,4.63-13.83,3.11-27.66,6.22-41.49,9.32l-23.57,5.3c-.19,.04-.1,.54-.04,.65,5.91,10.99,20.73,15.46,31.55,9.1,.1-.06,.05-.53-.05-.48-10.61,5.62-25.66,1.4-31.4-9.23l-.04,.65c27.67-6.29,55.39-12.38,83-18.9,3.64-.86,7.28-1.84,10.99-2.36,1.69-.24,3.39-.37,5.09-.29,1.84,.08,4.13,.31,5.73,1.31,.03,.02,.06-.17,0-.18h0Z"/><path class="cls-3" d="M794.42,515.15c-1.35,1.15-3.11,1.96-4.64,2.85-1.62,.95-3.25,1.89-4.88,2.81-3.15,1.78-6.3,3.57-9.48,5.3-6.44,3.5-12.98,6.81-19.6,9.94-13.25,6.24-26.85,11.72-40.73,16.4-7.73,2.61-15.55,4.96-23.43,7.07-.2,.05-.17,.84,.02,.83,31.65-1.52,63.09-6.02,94.26-11.58,15.6-2.78,31.16-5.81,46.73-8.82,14.89-2.88,29.92-5.6,44.31-10.53,7.42-2.55,14.6-5.76,21.41-9.66,3.38-1.93,6.66-4.03,9.83-6.28,1.64-1.17,3.26-2.37,4.84-3.62,.79-.62,1.56-1.17,2.14-2,.7-1.01,1.4-2.03,2.08-3.06,.1-.15,.14-1.41-.15-1.31-.66,.22-1.33,.44-2,.65-.79,.25-1.22,.61-1.85,1.14-1.46,1.22-2.94,2.42-4.45,3.57-2.79,2.13-5.66,4.15-8.62,6.04-6.01,3.85-12.35,7.18-18.94,9.93-13.93,5.82-28.7,8.98-43.41,12.07-30.89,6.47-61.83,12.82-93.09,17.29-17.62,2.52-35.34,4.39-53.12,5.32l.02,.83c28.04-7.63,55.2-18.43,80.8-32.18,3.6-1.93,7.19-3.9,10.7-5.98,1.83-1.09,3.65-2.19,5.46-3.31,.91-.56,1.81-1.12,2.71-1.69,.99-.62,2-1.43,3.08-1.87,.06-.02,0-.19-.01-.18h0Z"/><path class="cls-3" d="M912.12,456.15c-.97-2.64-1.72-5.58-2.22-8.34l-.28,.47c.79,3.35,2.02,6.58,2.73,9.97s1.2,6.97,1.4,10.49,.15,6.71-.13,10.05c-.29,3.53-.98,6.94-1.65,10.4-.08,.42,.25,2.66,.74,1.47,1.06-2.59,2.17-5.16,3.3-7.73,.05-.12-.05-.76-.17-.55-1.21,2.14-2.43,4.26-3.72,6.36l.59,1.92c1.97-7.08,2.35-14.87,1.83-22.17-.26-3.61-.77-7.21-1.55-10.74-.4-1.82-.88-3.63-1.42-5.42-.48-1.58-.91-3.26-1.75-4.69-.16-.28-.25,.59-.18,.73,1.05,2.45,1.85,5.28,2.42,7.88,.02,.11,.07-.06,.05-.11h0Z"/><path class="cls-3" d="M922.14,442.48c.18,1.96,.84,3.91,1.24,5.83,.44,2.13,.82,4.27,1.18,6.41,.67,4.06,1.2,8.15,1.5,12.25,.61,8.16,.39,16.27-.47,24.4-.06,.61-.06,1.85,.4,2.36,.4,.44,.72,.19,.88-.35,1.05-3.53,2.01-7.06,3.14-10.56,.05-.16-.09-.99-.22-.72-.63,1.41-1.25,2.82-1.9,4.22-.6,1.3-1.36,2.51-1.99,3.79l1.14,2.34c.96-8.65,.97-17.5,.12-26.16-.41-4.2-1.02-8.4-1.86-12.53-.43-2.08-.94-4.15-1.5-6.21-.25-.92-.51-1.83-.77-2.74-.23-.79-.38-1.71-.86-2.39-.01-.02-.02,.03-.02,.04h0Z"/><path class="cls-3" d="M943.6,434.3c-.95-.29-1.87-.91-2.75-1.38-.08-.04-.07,.18-.07,.21,3.05,18.53,3.36,37.79,.5,56.35-.8,5.21-1.8,10.41-3.18,15.5l1.24,.83c-.45-4.12-.02-8.09,1.79-11.86,.12-.26-.04-1.49-.27-1.09-2.48,4.23-3.63,9.16-2.9,14.02,.06,.37,.18,1.29,.64,1.39s.63-.63,.7-.95c4.49-19.79,6.28-40.06,3.97-60.28-.32-2.83-.77-5.64-1.29-8.44-.25-1.35-.52-2.7-.79-4.04-.05-.25-.25-.67-.18-.91-.12-.22-.06-.31,.19-.26l.4,.16c.66,.19,1.4,.54,1.97,.9,.03,.02,.07-.16,0-.18h0Z"/><path class="cls-3" d="M959.26,446.52c-.2-1.71-.41-3.42-.61-5.13l-.29-2.44c-.12-.97-.46-2.29-.27-3.24l-.48-.37c.08,2.27,.69,4.5,1.11,6.73s.8,4.65,1.1,6.99c.61,4.65,.97,9.33,1.07,14.02,.2,8.93-.3,18.01-2.11,26.77-.49,2.38-1.06,4.75-1.7,7.1-.27,.97-.49,2-.91,2.92-.34,.73-.73,1.39-.93,2.19-.25,1.04-.33,2.11-.44,3.17l1.78-3.05c-.55-.34-1.07-.19-1.57-.51-.38-.24-.7-.68-1-1.01s-.55,.6-.57,.7c-.12,.57-.08,1.25,.13,1.8,.31,.82,.62,1.64,.88,2.48,.27,.89,.31,1.93,.58,2.9s1.02,3.06,2.1,1.49c.88-1.27,1.09-2.67,1.3-4.17,.18-1.31,.47-2.58,.74-3.87,.53-2.49,.98-5,1.38-7.51,.78-4.95,1.44-9.92,1.8-14.92,.71-9.92,.4-19.9-1.01-29.75-.39-2.72-.86-5.42-1.41-8.11-.26-1.27-.54-2.53-.83-3.78-.25-1.07-.44-2.34-1.12-3.24-.29-.38-.47,1.02-.22,1.32,.46,.57,.4,2.06,.49,2.79l.34,2.67c.22,1.7,.44,3.4,.66,5.09,0,.05,.03,0,.02-.02h0Z"/><path class="cls-3" d="M960.45,513.53c1.15-.41,2.43-.5,3.63-.71,1.37-.23,2.75-.46,4.12-.69,2.51-.41,5.02-.82,7.53-1.2,5.02-.76,10.05-1.43,15.11-1.92,9.91-.97,19.83-1.05,29.77-.63,19.53,.82,39.02,3.29,58.6,2.93,10.94-.2,21.86-1.37,32.44-4.2,.05-.01,.03-.22,0-.21-18.91,5.05-38.63,4.61-58,3.32s-39.23-3.4-58.89-1.75c-5.72,.48-11.41,1.22-17.08,2.08-2.84,.43-5.67,.9-8.5,1.38-1.46,.25-2.91,.5-4.36,.75s-2.93,.69-4.36,.67c-.05,0-.02,.19,0,.18h0Z"/><path class="cls-3" d="M1121.53,507.93c-1.75,1.27-4.28,1.19-5.94-.19,0,0-.02,.06,0,.07,1.67,1.38,4.2,1.46,5.96,.19,.01-.01,0-.07,0-.07h0Z"/><path class="cls-3" d="M1116.32,499.51c.03,.16,0,.34,.02,.51,.02,.18,.06,.35,.11,.52,.05,.16,.11,.32,.19,.47,.11,.23,.2,.46,.29,.7,.14,.35,.54,.63,.86,.81,.14,.08,.29,.15,.44,.2,.16,.06,.41,.16,.59,.14,.25-.03,.53-.24,.71-.41,.2-.19,.36-.43,.48-.68,.31-.68,.34-1.46,.22-2.18-.11-.68-.44-1.36-1.05-1.73-.04-.03-.07-.03-.11,0-.6,.44-1.01,1.07-1.25,1.77-.13,.39-.2,.82-.22,1.23-.02,.49,0,1.01,.24,1.44,.15,.27,.22-.37,.22-.43,0-.03,0-.26,0-.11,0-.03,0-.06,0-.1-.02,.15-.01,.12,.01-.1,0-.12,0-.25,0-.38,0-.09,0-.08,0,.03,0-.04,0-.08,0-.11,0-.08,0-.08,0,0,0-.04,0-.08,.02-.11,0-.06,.02-.11,.03-.17-.02,.1,.03-.11,.04-.13,.02-.07,.04-.15,.07-.22,.19-.52,.55-1.01,.99-1.37h-.11c.2,.11,.39,.24,.53,.42,.06,.08,.11,.16,.16,.25,.06,.12,.06,.12,.1,.25,.03,.08,0,.02,0,0,0,.03,.01,.05,.02,.08,0,0,.03,.14,.01,.05-.01-.07,0,.01,0,.03,0,.03,0,.05,0,.08,.01,.08,0-.11,0-.03,0,.03,0,.06,0,.08,0,.07,0-.12,0,0,0,.03,0,.06,0,.08,0-.11,0-.03,0,0,0,.03-.01,.07-.02,.1,0,.01-.02,.1,0,.05,0-.02-.03,.1-.03,.13-.01,.04-.04,.12-.04,.13-.16,.43-.47,.8-.88,1.01-.26,.13-.61,.02-.87-.08-.29-.11-.56-.27-.79-.48-.12-.1-.19-.21-.35-.23-.17-.02-.24-.17-.32-.31-.08-.15-.15-.32-.2-.49s-.16-.52-.06-.69c.01-.02,.03-.15-.01-.17-.04-.01-.03,.11-.03,.13h0Z"/><path class="cls-3" d="M1118.02,493.63c.04-.95-.36-1.71-1.27-2.14-1.22-.57-2.52,.07-3.39,.95-1.54,1.54-2.23,3.76-2.26,5.9-.05,4.37,2.55,9.07,6.91,10.37,5.04,1.5,10.29-2.5,11.45-7.35,.56-2.33,.31-4.97-.98-7.03-1.16-1.86-3.03-3.15-5.11-3.81-2.24-.71-4.93-.76-7.02,.42-.98,.55-2.25,1.53-2.58,2.67s.51,2.43,1.72,2.41c.12,0,.12-.54-.01-.56-.47-.11-1.37-.6-1.34-1.2l-.13,.47c2.35-2.37,6.07-3.14,9.24-2.32,3.45,.89,6.66,3.92,5.91,7.76-.8,4.08-4.71,7.62-8.89,7.81-3.92,.18-7.17-2.71-8.42-6.26-.8-2.25-.81-4.79,.19-6.98,.51-1.11,1.27-2.25,2.35-2.88,.58-.34,1.28-.56,1.95-.41,.84,.19,2.01,1.08,1.65,2.1-.03,.07,.04,.23,.05,.09h0Z"/><path class="cls-3" d="M1119.33,500.36c.42,.35,1.01,.49,1.5,.21,.55-.31,.79-.9,.84-1.51,.02-.32,0-.64-.05-.95-.02-.1-.04-.19-.07-.29-.04-.15-.09-.41-.22-.51-.16-.12-.48-.21-.69-.21-.4,0-.81,.26-1.07,.55-.42,.47-.61,1.13-.7,1.74-.15,.95-.12,2.05,.23,2.95,.2,.52,.51,.99,1.03,1.22,.17,.08,.31,.07,.49,.04,.15-.02,.3-.06,.44-.11,.3-.11,.59-.27,.84-.47,.59-.48,.99-1.21,1.18-1.94,.17-.66,.23-1.35,.2-2.04-.03-.73-.12-1.48-.39-2.17-.05-.11-.2-.58-.43-.55-.27,.04-.53,.14-.78,.25-.29,.12-.57,.25-.84,.39-.46,.25-.88,.56-1.19,.99-.73,1.01-.85,2.33-.72,3.55,.06,.57,.19,1.14,.44,1.66,.11,.23,.25,.48,.48,.6s.43,.2,.69,.14c.21-.05,.52-.14,.67-.31l-.1,.05c.13-.05,.19-.12,.28-.21,.06-.06,.13-.1,.19-.16,.16-.15,.28-.34,.36-.54,.14-.33,.13-.72,.08-1.06-.01-.08-.14-.68-.31-.48-.04,.05-.09,.09-.14,.13-.06,.04-.04,.03-.12,.05-.03,0-.06,.01-.09,.01-.06,0,.03,.03-.04,0-.09-.05-.15-.11-.26-.14l.1,.04c-.09-.1-.21-.17-.31-.26-.11-.11-.21-.23-.31-.35l.12,.16c-.14-.18-.28-.36-.42-.55l.14,.18c-.12-.16-.21-.34-.32-.51-.04-.07-.09-.13-.13-.21-.02-.04-.04-.07-.05-.11,.2,.38,.11,.26,.07,.14-.04-.13-.01-.02,.08,.31-.02-.1-.01-.05,.02,.16,.03,.21,.04,.27,.03,.16,.03,.23,.04,.45,.03,.68,0,.24,0,.3,0,.19-.05,.4-.06,.53-.04,.38,.02-.16-.12,.5-.04,.23,.07-.24-.1,.25-.05,.12,.02-.05,.04-.09,.06-.14,.05-.1,.1-.19,.16-.28l-.14,.2c.41-.6,1.05-.99,1.7-1.29l-.16,.07c.37-.17,.75-.29,1.11-.49l-.46-.18c.05,.08,.09,.16,.14,.25-.18-.36-.1-.23-.06-.13,.09,.26-.08-.37-.04-.16,.05,.29-.04,.39-.07-.66,0,.05,0,.09,0,.14,0-.38,.01-.49,0-.32,0,.03,0,.06,0,.09,0-.04,.06-.48,.02-.22-.02,.11-.08,.28,.04-.16-.01,.05-.03,.11-.04,.16s-.04,.11-.05,.16c.09-.32,.07-.17,.03-.09-.09,.21-.2,.41-.33,.59l.12-.17c-.29,.4-.65,.74-1.1,.96l.13-.06c-.27,.13-.66,.28-.95,.17l.13,.05c-.21-.09-.4-.23-.54-.41l.12,.15c-.04-.06-.09-.12-.12-.19-.02-.03-.03-.06-.04-.08-.07-.13,.09,.26,.05,.12-.01-.04-.02-.07-.04-.11-.04-.11,.09,.38,.04,.16-.03-.12-.01-.27,.03,.23,0-.03,0-.07-.01-.1-.03-.2,.02,.46,.02,.26,0-.07,0-.27,0,.06s0,.13,0,.06c0-.18-.05,.4-.02,.21,0-.04,.01-.07,.02-.11,.03-.23-.06,.25-.03,.14,.02-.08,.04-.15,.06-.23s.09-.19-.04,.09c.01-.03,.03-.07,.04-.1,.03-.08,.07-.16,.11-.24,.03-.07,.07-.14,.11-.2,.02-.04,.05-.08,.07-.11,.08-.14-.08,.1,0,0,.2-.24,.4-.45,.69-.59l-.1,.05c.1-.04,.19-.09,.29-.13l-.09,.04c.11-.05,.23-.09,.36-.11,.01,0,.08,0,.09-.01-.02,.03-.12-.16-.04-.03,.05,.09-.04-.11-.01-.04,.03,.08-.04-.18-.01-.06l-.02-.13c0-.15-.01-.19,0-.12,0,.1,0-.2,0-.06,.01-.2,0-.04,0,0,.02-.08,0-.02-.01,.03,0,.03-.04,.11-.07,.17-.04,.08-.08,.16-.13,.24-.18,.27-.43,.52-.7,.7s-.58,.29-.9,.25c-.02,0-.01,.06,0,.07h0Z"/><path class="cls-3" d="M1074.55,497.18c6.53,2.42,13.56,3.19,20.46,2.24,.03,0,.02-.15,0-.14-6.89,.97-13.92,.23-20.45-2.17,0,0-.02,.06,0,.07h0Z"/><path class="cls-3" d="M1124.41,511.45c-.26-.67-1.24-.31-1.42,.26-.21,.66,.53,1.17,1.06,1.36,.98,.36,2.16,.31,3.19,.4,1.31,.11,2.63,.21,3.94,.3,2.71,.19,5.42,.35,8.13,.48,10.52,.51,21.05,.51,31.57,.03,6-.27,11.99-.7,17.97-1.26,.11-.01,.08-.5-.01-.49-17.84,1.64-35.83,2.01-53.72,1.24-2.46-.11-4.93-.23-7.39-.39-1.09-.07-2.32,0-3.38-.29-.74-.2-1.04-.32-1.08-1.1-.03-.58-.14-.62,.33-.8,.26-.1,.76-.29,.78,.32,0,.17,.08,.03,.04-.07h0Z"/><path class="cls-3" d="M1070.81,529.53c-1.43-1.63,1.41-3.01,2.42-3.34,1.21-.4,2.38-.39,3.64-.31,3.53,.22,7.05,.5,10.58,.81,6.88,.6,13.75,1.34,20.64,1.95,13.32,1.17,26.72,2.06,40.09,1.19,12.59-.82,24.91-3.3,36.62-8.05,4.54-1.84,8.92-4.11,11.36-8.54,1.08-1.96,1.03-4.57,.57-6.7s-1.82-4.09-3.49-5.55c-2.05-1.8-4.51-3.04-7.03-4.05-3.32-1.34-6.7-2.62-10.09-3.77-7.38-2.51-14.85-4.78-22.27-7.2-.13-.04-.22,.88-.02,.97,6.49,2.85,12.97,5.71,19.45,8.58,5.48,2.43,11.37,4.13,16.64,7,2.01,1.09,4.06,2.5,5.28,4.49,1.4,2.27,.88,4.68-.69,6.75-3.29,4.33-8.99,6.67-13.92,8.52-24.39,9.16-51,7.55-76.46,5.38-7.61-.65-15.22-1.26-22.84-1.69-2.85-.16-6.13-.82-8.81,.45-1.51,.72-2.3,1.71-1.7,3.28,.03,.07,.07-.1,.02-.15h0Z"/><path class="cls-3" d="M1124.2,533.22c.18,1.76,.39,3.52,.65,5.27,.12,.8,.25,1.6,.38,2.4,.04,.21,.33,1.23,.25,1.43-.19,.46-.79,.41-1.19,.44-3.49,.27-6.91-.98-10.01-2.47s-6.33-3.32-9.48-4.98c-1.59-.84-3.17-1.67-4.76-2.51s-3.13-1.84-4.78-2.45c-.06-.02-.08,.37,0,.42,2.38,1.65,5.22,2.85,7.78,4.21s5.18,2.78,7.79,4.13c4.55,2.35,9.52,4.77,14.78,3.76,.06-.01,.04-.17,.03-.21-.61-3.13-1.08-6.28-1.42-9.45,0-.05-.02,0-.02,.02h0Z"/><path class="cls-3" d="M1126.43,546.34c-1.88,.21-3.99-.23-5.87-.43-2.12-.22-4.23-.48-6.34-.77-3.9-.53-7.79-1.15-11.67-1.81-7.79-1.32-15.58-2.62-23.33-4.14-3.9-.77-7.8-1.52-11.71-2.25s-7.81-1.15-11.72-1.67c-7.81-1.03-15.64-1.93-23.48-2.74-31.5-3.24-63.15-5.06-94.82-5.44-8.86-.11-17.72,.03-26.58-.02s-18.05,.02-27.07,.25l.47,4.15c1.59-3.09,2.55-6.46,4.01-9.61,.15-.32-.05-1.92-.31-1.46-1.4,2.5-3.25,4.67-4.53,7.23-.29,.57-.7,4.22,.47,4.15,15.91-.85,31.79-1.4,47.72-1.32,15.75,.08,31.5,.51,47.23,1.3s31.77,1.95,47.61,3.46,31.25,3.63,46.91,5.06c8.8,.8,17.49,2.03,26.23,3.3,4.45,.65,8.9,1.26,13.36,1.77,2.19,.25,4.38,.47,6.58,.65s4.68,.03,6.85,.52c.03,0,.04-.19,0-.18h0Z"/><path class="cls-3" d="M551.05,460.57c1.77-.38,3.86-.09,5.65,.03s3.76,.32,5.62,.58c3.75,.53,7.46,1.32,11.14,2.24,7.42,1.85,14.67,4.33,21.92,6.73,14.88,4.92,29.8,9.7,44.78,14.31,15.01,4.63,30,9.34,45.06,13.8,15.02,4.45,30.04,9.01,45.22,12.88,8.38,2.14,16.83,4.1,25.4,5.37,4.29,.64,8.62,1.16,12.94,1.49,2.09,.16,4.16,.23,6.25,.2,.42,0,1.04,.08,1.44-.03,.56-.15,1.14-.6,1.63-.88,1.08-.62,2.14-1.27,3.2-1.92,.39-.24,.28-2.03-.13-2.22-1.82-.82-3.82-2.27-5.84-2.24s-3.85,.02-5.77,.02c-3.85,0-7.68-.22-11.5-.66-7.68-.9-15.29-2.39-22.83-4.1-15.01-3.41-29.99-7.04-44.93-10.79-30.16-7.58-60.09-15.91-89.83-25-8.07-2.47-16.1-5.13-24.29-7.16-4.12-1.02-8.27-1.85-12.49-2.35-2.02-.24-4.04-.4-6.08-.48-1.1-.04-2.19-.06-3.29-.04s-2.23,.18-3.3,.04c-.04,0-.03,.19,0,.18h0Z"/><path class="cls-3" d="M523.77,429.64c-7.82,.23-15.68,1.07-23.33,2.76-3.68,.81-7.45,1.76-11,3.06-2.7,.99-4.33,2.85-4.4,5.78s1.23,5.42,2.78,7.82c.97,1.5,2,2.99,2.59,4.68,.69,2,.65,4.08,.07,6.1-1.99,6.89-8.19,11.91-13.22,16.62-6.59,6.17-13.18,12.34-19.78,18.51-.2,.19-.29,1.65,.11,1.56,16.06-3.58,31.34-9.88,46.36-16.49s30.62-13.76,46.98-17.43c4.52-1.01,9.4-1.74,13.25-4.51,3.22-2.32,5.17-6.57,4.92-10.51-.05-.86-.46-.86-.47,.01-.05,3.68-3.53,6.46-6.51,8.06-3.67,1.97-7.9,2.58-11.92,3.51-7.77,1.8-15.35,4.35-22.77,7.28-14.97,5.89-29.19,13.44-43.97,19.76-8.42,3.6-16.97,6.71-25.91,8.72l.11,1.56c5.87-5.52,11.73-11.04,17.6-16.56,5.07-4.77,10.91-9.44,14.19-15.71,1.29-2.46,2.06-5.18,1.93-7.98-.15-3.05-1.51-5.56-3.14-8.07-1.94-2.97-4.63-7.59-.81-10.32,1.32-.95,3-1.35,4.53-1.82,1.97-.6,3.96-1.16,5.96-1.67,8.5-2.16,17.09-3.74,25.85-4.36,.08,0,.07-.36,0-.35h0Z"/><path class="cls-3" d="M531.8,425.13c5.07,2.03,10.06,4.29,14.96,6.7,4.63,2.28,9.28,4.53,13.76,7.09,3.86,2.2,8.15,4.43,10.96,7.98,.89,1.13,2.38,3.09,1.43,4.52s-2.82,2.29-4.23,3.11c-2.08,1.22-4.16,2.63-6.49,3.32-1.2,.36-2.43,.37-3.6,.73-.71,.22-2.35,.5-2.56-.51s-.57,.03-.56,.51c.04,2.46,1.41,5.3,3.49,6.69,2.2,1.48,5.61-.81,7.51-1.89,2.33-1.32,4.41-2.8,5.87-5.09s2.2-5.02,2.17-7.66c-.06-5.19-3.47-8.69-7.59-11.37-4.98-3.23-10.41-5.92-15.8-8.37-6.16-2.81-12.74-4.7-19.33-6.21-.07-.02-.09,.38,.01,.42h0Z"/><path class="cls-3" d="M396.24,399.77c1.67-.05,3.64,.76,5.23,1.26,1.72,.54,3.4,1.17,5.06,1.87,3.26,1.4,6.36,3.12,9.31,5.08,5.93,3.92,11,8.98,15.02,14.83,.06,.09,.09-.24,.05-.31-3.87-5.94-8.99-11.01-14.87-14.96-2.97-1.99-6.17-3.63-9.49-4.95-1.54-.61-3.12-1.16-4.71-1.62-.8-.23-1.6-.45-2.4-.64-1.03-.25-2.2-.34-3.18-.75-.05-.02-.05,.18,0,.18h0Z"/><path class="cls-3" d="M415.73,407.64c6.24,3.57,10.36,9.78,12.4,16.57,2.42,8.06,1.56,16.53-.57,24.55-.61,2.31-1.32,4.59-2.07,6.86-.79,2.38-1.47,4.98-2.59,7.24-.37,.75-.35,1.78-.21,2.58,.05,.3,.28,1.56,.82,1.18,2.1-1.49,3.87-3.33,5.7-5.14s3.65-3.62,5.47-5.43c3.68-3.65,7.54-7.13,11.13-10.87,5.93-6.2,12.3-12.4,19.99-16.37,2.06-1.06,4.22-1.71,6.39-2.48,2.44-.86,4.66-2.17,7.13-2.97,.61-.2,.58-2.5,.05-2.78-1.82-.94-4.19-2.25-6.27-2.3s-4.05,.57-5.97,1.3c-4.12,1.57-7.79,3.89-11.17,6.7-7.7,6.38-13.95,14.23-20.49,21.73-4.24,4.87-8.9,9.54-12.57,14.86l.89,3.22c.6-2.5,1.56-4.94,2.31-7.4s1.4-4.77,1.99-7.19c1.15-4.71,1.98-9.52,2.12-14.38,.21-7.43-1.31-15.08-5.46-21.35-2.28-3.45-5.33-6.3-9.02-8.19-.01,0-.02,.06,0,.07h0Z"/><path class="cls-3" d="M469.61,421.21c-1.07,.23-2.26,.15-3.36,.17-.01,0-.01,.06,0,.07,18.46,3.55,37.51,5.02,56.27,3.38,.08,0,.07-.36,0-.35-9.9,.42-19.8,.56-29.69-.08-4.86-.31-9.71-.7-14.54-1.27-2.41-.29-4.82-.61-7.23-.97-1.28-.19-2.58-.34-3.84-.61-1.17-.25,.18-.15,.48-.16,.65-.03,1.28-.09,1.92,0,.04,0,.03-.19,0-.18h0Z"/><path class="cls-3" d="M384.18,402.31c8.51,0,17.01,1.01,25.28,3.06,6.68,1.66,13.77,3.79,19.29,8.08,2.98,2.32,5.31,5.34,6.24,9.05,.04,.18,.09-.07,.07-.14-1.51-6.25-6.75-10.47-12.33-13.12-3.2-1.52-6.63-2.56-10.05-3.48-4.37-1.17-8.81-2.06-13.29-2.64-5.04-.66-10.12-.94-15.2-.86-.02,0-.02,.07,0,.07h0Z"/><path class="cls-3" d="M393.27,403.41c-1.41-.53-2.67-1.42-4.1-1.95s-2.91-.9-4.42-1.12-3.01-.28-4.52-.18c-.82,.06-1.63,.16-2.44,.31-.66,.12-2.09,.64-2.65,.11-.29-.27-1.08,2.3-.06,2.55,.92,.23,1.98-.07,2.92-.17s1.95-.2,2.92-.27c1.95-.16,3.91-.26,5.86-.31,3.92-.1,7.84,.02,11.74,.35,4.92,.42,12.1,.53,14.72,5.59,.13,.25,.21-.54,.16-.67-2.15-5.71-8.46-7.54-13.99-8.08-4.05-.4-8.16-.44-12.22-.31-2.12,.07-4.24,.2-6.35,.39-.98,.09-1.95,.19-2.92,.31-1.02,.12-2.11,.13-3.03,.62l.41,2.36c.74-1.43,3.51-1.67,4.94-1.87s2.87-.24,4.31-.14c2.8,.19,6.46,.83,8.7,2.65,.02,.02,.07-.15,.01-.17h0Z"/><path class="cls-3" d="M390.08,406.83c.63-1.53,.36-3.27-1.12-4.24-.07-.05-.11,0-.15,.06-4.48,6.18-2.51,14.78-6.26,21.24-1.9,3.27-5.25,5.4-7.18,8.67-2.3,3.9-2.45,8.75-2.97,13.13-.65,5.48-1.46,10.99-1.42,16.51,0,.41,.32,1.06,.51,.34,1.18-4.53,1.52-9.29,2.02-13.93,.47-4.39,.36-9.54,2.76-13.41,1.07-1.74,2.56-3.13,3.82-4.72s2.32-3.09,3.1-4.88c1.52-3.45,2.09-7.13,2.63-10.84,.32-2.21,.64-4.44,1.27-6.58,.31-1.07,.7-2.13,1.2-3.13,.21-.43,.47-1.23,.99-1.15,1.08,.17,1,2.4,.77,2.77-.03,.05,.02,.2,.03,.16h0Z"/><path class="cls-3" d="M305.16,284.29c.24-2.94-.88-4.97-3.38-6.53-.12-.07-.12,.27-.11,.31,.4,3.41,1.17,6.81,1.79,10.19s1.25,6.73,1.85,10.09,1.18,6.79,.1,10.02c-.85,2.53-2.81,4.58-5.44,5.23-.86,.21-.71,3.12,.07,3.01,2.62-.37,5.2-.97,7.83-1.3s5.27-.55,7.92-.66l-.6-2.39c-1.49,6.09,.32,13.1,6,16.35,.26,.15,.25-.8,.08-.96-3.7-3.35-6.17-8.81-4.95-13.81,.1-.41,.19-2.43-.6-2.39-5.2,.25-10.74,.67-15.75,2.16l.23,2.95c6.07-2.47,6.93-10.22,6.12-15.83-.53-3.69-1.37-7.36-2.09-11.02-.77-3.93-1.34-7.97-2.39-11.83l-.08,.38c2.31,.56,4.01,3.74,3.34,5.95-.02,.08,.05,.23,.06,.09h0Z"/><path class="cls-3" d="M315.7,316.65c-.04-.24-.27-1.92-.14-.78,.05,.42,.15,.84,.24,1.25,.28,1.28,.62,2.56,.98,3.82,.65,2.29,1.41,4.55,2.26,6.77,1.69,4.43,3.76,8.71,6.06,12.85,4.85,8.74,10.76,16.84,16.79,24.8,3.05,4.03,6.13,8.03,9.15,12.07s5.86,8.53,8.6,12.92c2.86,4.58,5.89,9.09,7.15,14.42,1.39,5.84,.67,12.14,.44,18.08l-.79,20.65c-.13,3.48-.26,6.97-.4,10.45s-.55,7.22-.22,10.77c.11,1.17,1.14,1.9,1.5,.41,.4-1.66,1.01-3.23,1.6-4.83,.08-.21-.07-1.45-.37-.99-.69,1.07-1.3,2.23-2.22,3.12l.99,2.7c.55-3.04,.42-6.24,.53-9.32s.23-6.3,.35-9.46l.69-18.42c.23-6.17,.8-12.45,.36-18.61-.41-5.67-2.05-10.85-4.82-15.79-2.5-4.47-5.57-8.53-8.79-12.51s-6.09-7.8-9.13-11.7c-6.11-7.83-12.26-15.65-17.65-24-3-4.64-5.74-9.46-8.02-14.49s-3.99-10.41-5.32-15.86c-.04-.16-.11,.03-.1,.11,.08,.53,.17,1.06,.21,1.6,0,.13,.09,.08,.07-.03h0Z"/><path class="cls-3" d="M303.74,274.86c1.95,.35,3.93,2.31,5.26,3.66s2.61,2.97,3.86,4.51c2.61,3.23,5.48,6.19,8.61,8.91,6.4,5.56,13.75,9.9,20.68,14.75s13.03,10.11,18.75,16.14,10.67,12.49,15.43,19.26c2.6,3.69,5.02,7.51,7.23,11.45,1.13,2.02,2.21,4.06,3.23,6.13,.94,1.9,1.65,4.41,3.12,5.97l.46-4.97c-1.95,.11-3.16-1.15-3.2-3.1-.01-.59-.49-.95-.59-.16-.39,3.02,1.18,6.19,3.33,8.23,.61,.58,1.08,.24,1.39-.45,.45-.99,.32-2.2,.1-3.23-.46-2.13-1.53-4.08-2.5-6.01s-1.93-3.72-2.95-5.54c-2.03-3.63-4.21-7.17-6.54-10.61-4.5-6.64-9.87-12.72-15.61-18.32s-12-10.7-18.51-15.33c-6.93-4.94-14.24-9.32-21.16-14.28-3.86-2.77-7.48-5.81-10.7-9.32-1.37-1.5-2.72-3.03-4.22-4.4-.77-.71-1.59-1.37-2.47-1.94-.95-.62-2.03-.96-2.99-1.53-.04-.03-.08,.16,0,.18h0Z"/><path class="cls-3" d="M384.4,352.88c-1.22,1.58-4.46,2.78-6.26,1.64l-.02,1.02c1.75,.47,4.06-.23,5.84-.53,1.95-.32,3.89-.72,5.83-1.08,3.81-.71,7.62-1.43,11.42-2.23s7.61-1.56,11.41-2.38c3.2-.7,6.83-1.59,8.78-4.45,.1-.14,.05-1.06-.15-.9-1.24,.98-2.86,.82-4.34,.92-1.79,.11-3.61,.53-5.35,.93l-11.41,2.62c-3.73,.86-7.44,1.8-11.16,2.74-1.86,.47-3.74,.89-5.58,1.43s-3.86,.8-5.37,1.91c-.18,.13-.14,1.09,.07,1.02,1.16-.4,2.4-.3,3.58-.75,1.07-.41,1.81-1.12,2.73-1.74,.05-.03,0-.21-.03-.16h0Z"/><path class="cls-3" d="M419.91,344.37c-.3,.51-.83,.75-1.42,.64-1.28-.24-1.77-1.69-1.66-2.83,.14-1.56,.83-3.2,1.36-4.67,1.05-2.91,2.27-5.76,3.57-8.57,2.63-5.69,5.27-11.32,7.04-17.35,3.59-12.3,4.34-25.11,4.13-37.86-.12-7.28-.49-14.57-1.05-21.84l-1.09,2.42c7.02,10.27,13.98,20.59,21.13,30.76,3.02,4.3,6.29,8.54,10.45,11.81,4.38,3.45,9.64,5.44,14.46,8.15,2.39,1.35,4.68,2.91,6.64,4.84,1.85,1.83,3.62,3.77,4.59,6.2,.25,.62,.44-.46,.41-.66-.17-1.17-.41-2.29-.87-3.39-.52-1.26-.94-2.61-1.74-3.73-1.44-2.01-3.35-3.69-5.35-5.12-4.47-3.2-9.7-5.11-14.39-7.94s-8.66-7.12-12.01-11.69c-3.54-4.83-6.83-9.85-10.21-14.79-4.14-6.04-8.27-12.09-12.42-18.12-.8-1.17-1.15,1.48-1.14,1.85,.67,13.68,1.71,27.33,.24,41.01-.73,6.82-1.96,13.61-4.1,20.14s-5.3,12.61-7.72,19.01c-.67,1.78-1.25,3.59-1.73,5.43-.39,1.51-.86,3.1-.78,4.67,.05,.95,.27,2.07,1.26,2.43,.88,.32,1.98,.13,2.42-.74,0-.01,0-.08-.02-.06h0Z"/><path class="cls-3" d="M454.12,333.85c-1.9,.86-4.24,1.14-6.27,1.64l.02,1c3.78-1.14,7.46-2.71,11.18-4.03s7.34-2.57,11.03-3.79c7.53-2.51,15.11-4.89,22.73-7.12,15.1-4.43,30.36-8.27,45.76-11.52,15.47-3.27,31.07-5.94,46.75-8s31.3-3.27,47.02-3.94,31.64-.72,47.46-.07c.86,.04,1.96,.17,2.8-.04,.92-.23,1.8-1.08,2.58-1.6,.25-.17,.2-1.2-.03-1.36-.75-.54-1.57-1.35-2.43-1.68s-2.12-.23-3.04-.24c-2.02,0-4.05,.06-6.07,.1-3.89,.08-7.79,.07-11.69,.15-7.95,.16-15.89,.49-23.83,.98-15.82,.97-31.55,2.67-47.26,4.7s-31.32,4.65-46.82,7.88-30.88,7.06-46.08,11.48c-15.22,4.42-30.25,9.47-45.06,15.12-1.7,.65-3.42,1.25-5.07,2.02-.22,.1-.07,1.04,.07,.98,1.99-.81,4.15-2.03,6.26-2.46,.06-.01,.03-.2-.01-.18h0Z"/><path class="cls-3" d="M628.97,292.11c4.02-5.8,10.04-9.38,15.44-13.73s10.07-9.65,13.69-15.67c7.87-13.11,10.68-28.74,11.46-43.81,.5-9.62,.2-19.25-.12-28.87l-.89,2.11c17.42,12.29,34.8,24.72,51.07,38.53s30.89,28.39,42.86,45.56c6.73,9.65,12.53,19.91,16.95,30.83,.64,1.59,1.25-.28,1.3-1.06,.13-1.94,.34-3.79,.7-5.7,.06-.31,.11-.97-.11-1.23-.17-.19-.33-.3-.42,.08-.36,1.5-.75,2.84-1.39,4.24l.97,.34c-8.04-19.42-20.01-36.76-34.18-52.2s-30.97-29.46-48-42.3c-9.67-7.29-19.54-14.3-29.44-21.28-.79-.55-.9,1.9-.89,2.11,.54,16.17,1.19,32.7-2.53,48.58-3.24,13.83-9.73,27.11-20.36,36.73-5.71,5.16-12.08,9.96-16.09,16.67,0,.01,0,.08,.01,.06h0Z"/><path class="cls-3" d="M781.41,304.26c-.6-.47-4.13-3.05-3.93-3.32,.13-.17,2.39,.29,2.55,.31,1.09,.14,2.18,.29,3.28,.44,3.75,.54,7.49,1.14,11.22,1.8,7.58,1.36,15.09,3.07,22.54,5.03,14.39,3.78,28.56,8.37,42.63,13.18,26.5,9.05,52.56,19.33,78.12,30.77s50.98,24.3,75.58,38.14c24.53,13.8,48.44,28.7,71.64,44.64,23.12,15.89,45.52,32.86,67.1,50.78,1.27,1.05,2.49,2.28,3.85,3.21,1.1,.76,2.49,1.2,3.7,1.75,.22,.1,.16-1.35,.02-1.53-1.21-1.49-2.34-3.18-3.77-4.46s-2.91-2.39-4.37-3.57c-2.66-2.16-5.33-4.31-8.02-6.44-5.37-4.27-10.79-8.47-16.25-12.61-11.02-8.36-22.23-16.46-33.61-24.32-22.78-15.72-46.25-30.45-70.33-44.1-23.91-13.56-48.43-26.06-73.44-37.45-25.12-11.44-50.71-21.83-76.73-31.08-13.42-4.77-26.95-9.28-40.61-13.36-14.59-4.36-29.47-8.3-44.58-10.35-3.74-.51-7.5-.87-11.27-1.15-.05,0-.04,.25,0,.28,1.56,1.16,3.11,2.31,4.67,3.47,0,0,.02-.06,0-.07h0Z"/><path class="cls-3" d="M592.25,454.36c-1.46,.19-.48-1.73,.11-2.26s1.41-1,2.23-1.12c1.06-.16,2.23,.09,3.29,.18,1.27,.11,2.54,.24,3.81,.39,5.06,.58,10.11,1.29,15.12,2.18,10.16,1.81,20.19,4.24,30.22,6.62,19.98,4.75,40.11,8.8,60.42,11.86,20.2,3.05,40.54,5.2,60.94,6.46,20.49,1.27,41.04,1.63,61.56,1.08,20.54-.55,41.01-2.13,61.4-4.63,2.54-.31,5.07-.64,7.6-.98,.08-.01,.06-.36,0-.35-21.05,2.56-42.23,4.13-63.42,4.9s-42.44,.57-63.62-.6c-21.28-1.17-42.51-3.32-63.59-6.43-21-3.1-41.79-7.28-62.44-12.16-10.32-2.44-20.64-4.9-31.1-6.65-5.21-.87-10.45-1.57-15.73-1.92-1.84-.12-4.05-.62-5.73,.34-.72,.41-1.86,1.29-1.96,2.22-.06,.66,.32,.76,.89,1.03,.05,.02,.05-.18,0-.18h0Z"/><path class="cls-3" d="M855.67,485.84c-1.37,.32-2.92,.21-4.33,.26-1.6,.06-3.21,.11-4.81,.15-3.05,.09-6.1,.15-9.15,.19-6.02,.08-12.04,.07-18.06-.03-12.12-.2-24.24-.75-36.33-1.62-24.02-1.72-47.93-4.84-71.59-9.36-13.4-2.56-26.72-5.57-39.92-9.01-.02,0-.03,.13,0,.14,23.45,6.15,47.27,10.93,71.28,14.28,23.85,3.33,47.89,5.28,71.98,5.71,6.74,.12,13.48,.13,20.23,.03,3.45-.05,6.9-.13,10.35-.24,1.68-.05,3.37-.11,5.05-.18s3.6-.38,5.3-.15c.04,0,.03-.19,0-.18h0Z"/><path class="cls-3" d="M383.57,387.12c34.4-9.98,69.65-17.05,105.2-21.34,35.64-4.31,71.59-5.86,107.47-5.08,35.88,.78,71.69,3.93,107.22,8.96,35.91,5.09,71.53,12.12,106.78,20.59,35.31,8.49,70.17,18.57,104.86,29.3,4.3,1.33,8.6,2.68,12.9,4.04,.02,0,.05-.19,0-.21-34.49-11.38-69.38-21.54-104.61-30.38-35.18-8.82-70.71-16.26-106.56-21.82-35.5-5.51-71.29-9.18-107.2-10.54-35.87-1.36-71.85-.42-107.57,3.21s-71.06,9.91-105.62,19.47c-4.3,1.19-8.6,2.43-12.87,3.71-.02,0,0,.07,0,.07h0Z"/><path class="cls-3" d="M576.53,326.09c4.13-.79,8.56-.79,12.75-1.07s8.79-.56,13.19-.78c8.66-.43,17.32-.71,25.99-.84,17.19-.25,34.39,.1,51.55,1.04,34.48,1.89,68.83,6.16,102.73,12.71,34.05,6.59,67.66,15.48,100.51,26.6,32.98,11.16,65.19,24.57,96.34,40.14s60.65,33.05,89.16,52.54c3.51,2.4,7,4.84,10.47,7.3,.02,.02,.05-.17,0-.2-28.17-20.24-57.83-38.36-88.61-54.36-30.51-15.86-62.11-29.61-94.49-41.19-32.65-11.68-66.09-21.14-100.02-28.3-33.92-7.16-68.33-12.02-102.91-14.5-34.58-2.48-69.33-2.56-103.92-.18-4.21,.29-8.54,.99-12.76,.9-.04,0-.03,.19,0,.18h0Z"/><path class="cls-3" d="M669.09,191.65c.55,9.15,.51,18.32-.16,27.46s-1.56,17.75-4.06,26.22c-4.15,14.05-13.1,25.75-24.75,34.47-1.6,1.2-3.24,2.34-4.93,3.41s-3.46,1.72-4.99,2.88c-1.64,1.25-2.51,2.91-2.74,4.95-.2,1.74-.24,5.3,1.51,6.39,.19,.13,.38,.12,.57-.01,.19-.13,.38-.26,.56-.4,.62-.48,.53-1.98,.34-2.61s-.16-1.37-.21-2.01c-.08-.96-.77-.93-.81,.02-.03,.65,.03,1.39-.14,2.02l1.05-.38c-.17-.44-.26-.89-.43-1.33-.08-.2-.22-.63-.38-.79-.11-.11,.1-.16,0,.12-.02,.06-.22,1.54,.06,1.01,.22-.41,.34-.78,.62-1.17,1.05-1.42,2.67-2.4,4.07-3.44,2.89-2.15,5.79-4.24,8.46-6.66,5.21-4.73,9.88-10.15,13.7-16.06s6.99-12.93,8.86-20.03c2.11-7.99,3.12-16.22,3.73-24.44,.73-9.86,.75-19.76,.07-29.62,0-.04-.03-.04-.02,0h0Z"/><path class="cls-3" d="M761.3,276.35c4.26,4.28,8.09,8.96,11.41,14s6.06,10.7,8.51,16.42l.09-.63c-1.13,.16-2.19-.39-2.51-1.56-.07-.27-.17,.1-.14,.22,.3,1.28,1.33,2.15,2.67,2.08,.21-.01,.13-.52,.09-.63-2.09-5.54-5.13-10.9-8.41-15.82-3.4-5.1-7.33-9.83-11.7-14.13-.02-.02-.03,.05-.01,.06h0Z"/><path class="cls-3" d="M526.11,429.06c-1.15,.1-2.26-.14-3.42,0s-2.28,.25-3.41,.42c-2.28,.35-4.54,.85-6.8,1.27-4.45,.84-8.9,1.74-13.34,2.64-2.26,.46-4.52,.92-6.78,1.39-1.99,.41-4.19,.64-6.09,1.4-3.27,1.32-3.36,5.29-2.43,8.21,1.03,3.26,3.6,5.72,4.77,8.9,1.08,2.94,.43,6.07-.73,8.89-2.77,6.73-8.23,11.42-13.88,15.7-6.2,4.7-12.8,9.42-16.28,16.61-.4,.83-.45,1.8-.27,2.69,.09,.44,.34,1.57,1,1.22,14.46-7.58,29.31-14.4,44.52-20.33s30.59-10.96,46.29-15.15c3.84-1.02,7.76-1.86,11.48-3.25,1.82-.68,3.5-1.41,4.95-2.73s2.74-2.84,3.9-4.38c.26-.34-.06-1.92-.28-1.67-1.14,1.27-2.3,1.95-3.87,2.57-1.49,.59-2.95,1.25-4.44,1.83-3.33,1.28-6.83,2.06-10.28,2.97-7.78,2.04-15.5,4.29-23.16,6.76-15.31,4.93-30.35,10.7-45.03,17.28-8.33,3.73-16.54,7.72-24.62,11.97l.73,3.92c3.04-6.37,8.67-10.77,14.15-14.97s10.96-8.47,14.45-14.65c3.3-5.84,4.68-13.31,1.63-19.55-.72-1.47-1.7-2.8-2.56-4.19-.42-.68-.83-1.37-1.17-2.09-.15-.31-.23-.83-.44-1.11,.01,.02-.08-.34-.06-.19,.05,.28-.2,.32,.06,.03,.62-.68,.92-1.21,1.83-1.62s2-.62,3.01-.88c2.18-.55,4.35-1.1,6.53-1.64,5-1.24,10.01-2.44,15.02-3.67,2.42-.59,4.85-1.18,7.28-1.76,1.31-.31,2.59-.72,3.88-1.1,1.36-.4,2.53-1.12,3.87-1.56,.04-.01,.04-.18,0-.18h0Z"/><path class="cls-3" d="M548.98,431.01c.79,.73,1.88,1.15,2.82,1.66s1.89,1.03,2.82,1.58c1.84,1.07,3.67,2.2,5.38,3.47,3.19,2.36,6.26,5.4,7.71,9.17,1,2.6,1.22,5.62-.07,8.17-.66,1.31-1.64,2.53-2.76,3.48-.62,.52-1.29,1.06-1.98,1.5-.4,.26-.76,.36-1.23,.42-.17-.01-.33,0-.5,.02-.34,.04-.37,.26-.08,.68,.05-.13,.07-1.18-.23-1-.91,.55-.24,2.3,.25,2.91,1.12,1.39,2.9,.99,4.2,.14,2.77-1.81,3.98-5.35,4.42-8.48,.5-3.49,.2-7.23-1.18-10.5-1.45-3.44-4.21-6.11-7.29-8.13-1.9-1.24-3.92-2.25-6.02-3.09-.96-.38-1.93-.74-2.9-1.08s-2.31-1.05-3.37-.97c-.02,0-.01,.06,0,.07h0Z"/><path class="cls-3" d="M558.79,462.01c.85,.94,1.47,2.32,2.54,2.99,.81,.51,1.6,1.02,2.5,1.34,1.93,.68,3.83,1.19,5.83,1.58,3.72,.72,7.43,1.51,11.13,2.36,7.25,1.66,14.43,3.57,21.59,5.58,14.49,4.08,28.79,8.79,43.05,13.59,28.5,9.58,56.98,19.63,86.48,25.73,8.52,1.76,17.12,3.25,25.8,4.02,4.45,.39,9,.73,13.47,.48,2.32-.13,4.45-.42,6.7-1.02s4.23-2.09,6.23-3.39c.38-.25,.32-2.13-.14-2.29-1.9-.64-3.79-1.63-5.8-1.85-2.1-.23-4.14-.37-6.26-.4-4.01-.05-8.02-.09-12.03-.38-7.82-.56-15.59-1.76-23.29-3.23-14.76-2.81-29.3-6.67-43.67-11.01-28.67-8.65-56.73-19.25-85.52-27.54-8-2.3-16.05-4.39-24.18-6.21-4.13-.92-8.28-1.78-12.44-2.55-2.07-.38-4.15-.81-6.25-.74-1.13,.03-2.03,.21-3.12,.53s-1.73,1.51-2.64,2.25c-.04,.03-.02,.14,0,.17h0Z"/><path class="cls-3" d="M872.83,481.52c-1.57,.6-3.44,.77-5.09,1.06-1.78,.32-3.58,.48-5.34,.85l-10.19,2.15c-6.88,1.45-13.74,3.03-20.61,4.56-13.62,3.04-27.16,6.44-40.72,9.72-7.75,1.87-15.51,3.74-23.27,5.61-1,.24-.59,3.31-.06,3.84,3.99,4.03,9.1,7.13,14.48,8.9,2.75,.9,5.49,1.26,8.34,1.6s5.56,.91,8.48,.78c.69-.03,1.04-1.24,1.17-1.68,.36-1.24,.45-2.73,.4-4s-.16-2.71-.6-3.98c-.2-.57-.52-1.57-1.25-1.62-.91-.07-1.6-.08-2.52,.08-.82,.15-1.64,.32-2.45,.51-1.7,.4-3.33,1.04-4.94,1.72-3.27,1.38-6.37,3.02-9.37,4.92-5.94,3.77-11.59,8.01-17.35,12.05s-12.25,8.18-18.99,11.19c-7.09,3.17-14.59,5.25-22.16,6.88-4.28,.92-8.57,1.77-12.86,2.67-2.13,.45-4.33,.88-6.34,1.72-2.24,.93-4.42,1.72-6.76,2.37-1.8,.5-1.27,7.53,.18,7.28,4.12-.7,8.42-.68,12.6-.95s8.4-.57,12.59-.88c8.39-.62,16.79-1.16,25.17-1.81,16.77-1.3,33.52-2.91,50.23-4.83s32.09-3.84,48.04-6.33c13.37-2.09,26.58-4.83,39.43-9.12,6.2-2.07,12.25-4.59,18.13-7.45,2.89-1.41,5.7-2.96,8.42-4.67,1.38-.87,2.7-1.83,4.06-2.71,1.24-.8,2.64-1.4,3.8-2.28,1.23-.93,2.78-1.97,3.71-3.19,1.39-1.83,1.26-4.94,1-7.1-.11-.92-.53-4.91-2.16-3.96l-2.04,1.19-.91,.53c-.29,.17-1.13,.8-1.35,.81-1.27,.02-1.18,6.16,.15,6.14,.28,0,.88,.51,1.16,.65l1.16,.63,2.1,1.14-.27-11.08c-1.32,.94-2.35,2.51-3.52,3.65-1.33,1.28-2.42,2.82-3.78,4.07-2.41,2.22-5.15,4.17-7.86,6.02-5.69,3.88-11.71,7-18.1,9.56-12.47,5-25.77,7.85-38.98,10.12-15.49,2.67-31.1,4.72-46.7,6.6-16.62,2.01-33.28,3.71-49.96,5.1-16.69,1.4-33.38,2.36-50.12,2.89-2.07,.07-4.12,.17-6.19,0l.18,7.28c.95-.02,1.9-.01,2.85-.05s1.91,.16,2.87,.26c2.04,.22,3.91,.14,5.95-.05,3.86-.35,7.79-1.01,11.59-1.81,7.56-1.59,15-3.75,22.23-6.47s13.56-6.09,19.77-10.25c5.86-3.92,11.44-8.28,17.47-11.94,3.22-1.96,6.56-3.81,9.98-5.39,3.62-1.67,7.54-2.71,11.12-4.39l-.73-11.07c-2.35,1.43-5.17,2.99-7.92,3.45s-5.51,.2-8.13-.22c-5.49-.88-10.36-3.27-14.3-7.2l-.06,3.84c13.73-3.43,27.46-6.86,41.2-10.28,13.59-3.39,27.24-6.71,40.7-10.61,3.86-1.12,7.75-2.17,11.62-3.25,1.96-.55,3.87-1.2,5.81-1.86,1.82-.62,3.9-1.47,5.81-1.68,.05,0,.02-.19,0-.18h0Z"/><path class="cls-3" d="M914.6,509.05c-15.86,12.65-34.94,21.89-54.81,26.05-5.72,1.2-11.52,1.96-17.35,2.28-.18,0-.15,.78,.02,.78,20.63-.54,40.94-6.58,58.21-17.91,5-3.28,9.59-7.04,13.93-11.13,.01-.01,0-.08,0-.07h0Z"/><path class="cls-3" d="M897.85,531.22c1.95-.53,4.23-.42,6.25-.56s4.01-.28,6.01-.4c4.17-.26,8.35-.47,12.52-.65,8.28-.35,16.56-.53,24.84-.55,16.5-.04,33.02,.53,49.48,1.6s33.07,2.78,49.51,5.02c16.44,2.24,32.8,5.09,49.01,8.65,6.33,1.39,12.44,3.84,19,3.8,2.55-.02,5.15-.3,7.54-1.2,1.1-.41,2.15-.96,3.1-1.66,1.18-.87,1.7-1.99,2.19-3.36,.56-1.59,.88-3.24,1.05-4.92,.01-.12,0-1.12-.2-.98-.49,.35-1.16,.57-1.73,.75-1.06,.33-1.69,1.14-2.62,1.74-2.06,1.34-4.59,1.95-7,2.25-5.81,.71-11.73-.24-17.46-1.15-4.03-.64-8.03-1.58-12.05-2.33s-8.06-1.48-12.1-2.17c-8-1.36-16.03-2.57-24.07-3.62-16.26-2.13-32.59-3.58-48.97-4.38s-32.78-.9-49.19-.3c-16.41,.6-32.8,1.8-49.12,3.62-1.93,.22-4.07,.74-6,.61-.05,0-.03,.19,0,.18h0Z"/><path class="cls-3" d="M1126.08,530.98c.65,.93,.63,2.47,.33,3.52-.21,.75-.59,1.43-1.02,2.06-1.06,1.54-2.35,2.87-3.82,4.03-1.55,1.23-3.24,2.24-5,3.16-.96,.5-1.95,.93-3.06,.78-.74-.1-2.04-.69-1.63-1.63,.06-.15-.07-.74-.09-.71-.8,1.26-.01,3.15,1.09,3.95,1.82,1.33,4.23-.27,5.81-1.28,3.29-2.11,6.78-4.97,7.84-8.9,.24-.88,.35-1.79,.28-2.7s-.42-1.61-.71-2.45c0-.02-.04,.12-.01,.17h0Z"/><path class="cls-3" d="M1087.81,531.96c-1.8,.06-3.59-.15-5.32-.69-1.05-.32-1.85-.83-2.66-1.58-.91-.84-1.41-1.93-2.4-2.66l-.06,3.84c8.2-1,16.67,1.43,24.2,4.52,4,1.64,7.81,3.86,11.96,5.12,1.85,.57,4.14,1.15,6.04,.43,.68-.26,1.49-.76,1.88-1.37s.51-3.84,1.34-3.75c.35,.04,.45-.89,.48-1.06,.12-.92,.11-1.82,.03-2.74-.04-.41-.11-1.66-.68-1.77-4.09-.79-8.23-1.08-12.34-1.74-1.94-.31-3.89-.27-5.85-.41-1.01-.08-2.07-.19-3.08-.02s-1.95,.75-3,.76c-.58,0-.42,2.58-.03,2.85,1.09,.76,1.89,1.81,2.96,2.62,.86,.64,1.9,1.09,2.9,1.47,1.96,.73,3.99,1.46,6.09,1.57,4.31,.22,8.57-.39,12.47-2.24l-.49-.7c-.11-1.12-.14-.92-.1,.59l.14-.76-1.09-.76c-.16-.15-.32-.15-.47,.01-3.29,1.93-7.17,.46-10.55-.34-3.65-.87-7.29-1.81-10.84-3-7.11-2.37-14.52-4.29-22.05-3.18-.89,.13-.63,3.43-.06,3.84,.48,.34,.61,.52,1.17,.44,.45-.07,.58-.13,1.06-.1,.96,.07,1.73,.11,2.65,.37,1.86,.52,3.78,.67,5.71,.51,.01,0,.01-.07,0-.07h0Z"/><path class="cls-3" d="M1145.71,483.79c1.36,.54,2.63,1.53,3.89,2.26s2.64,1.48,3.99,2.18c2.43,1.26,4.9,2.4,7.43,3.44,5.31,2.19,10.78,3.9,16.37,5.2,5.27,1.22,10.89,2.36,14.97,6.18,1.75,1.64,3.29,3.79,3.7,6.2,.45,2.69-.97,5.68-2.77,7.62s-4.25,3.26-6.55,4.26c-2.49,1.08-5.13,1.78-7.74,2.53-5.6,1.6-11.31,2.8-17.07,3.66-11.64,1.74-23.45,2.11-35.2,1.77-3.3-.1-6.59-.25-9.89-.44-1.74-.1-3.46-.19-5.18-.44-1.57-.23-3.14-.52-4.72-.67-3.37-.31-6.74-.59-10.1-.92-1.64-.16-3.28-.32-4.92-.49-.78-.08-1.56-.16-2.34-.24-1.1-.11-1.75-.16-2.79,.28l.28,4.3c.67-.85,1.35-1.71,2.02-2.56,.17-.22,.35-1.73-.11-1.73h-2.19c-.98,0-.74,3.89-.07,4.3,1.41,.88,2.77,.88,4.4,1.03s3.12,.28,4.68,.42c3.13,.27,6.26,.54,9.39,.77s6.27,.05,9.4,.24,6.43,.35,9.65,.45c12.46,.41,24.98,.07,37.32-1.8,6.15-.93,12.24-2.25,18.2-4.02,2.74-.81,5.44-1.84,7.95-3.21s4.58-3.23,6.32-5.61c2.79-3.82,3.7-8.99,1.64-13.36-2.18-4.63-7-7.12-11.72-8.42-3.19-.88-6.47-1.37-9.7-2.1s-6.66-1.69-9.91-2.78-6.42-2.35-9.54-3.74c-1.49-.66-2.97-1.37-4.43-2.1-1.55-.78-3.34-1.53-4.7-2.63-.02-.01-.06,.15,0,.18h0Z"/><path class="cls-3" d="M1122.36,491.88c-3.88-2.89-9.68-.92-11.63,3.32-2.13,4.62-.33,10.23,3.24,13.58,2.46,2.31,5.47,3.57,8.75,4.19,.07,.01,.08-.33,0-.35-6.1-1.87-12.72-6.3-12.56-13.44,.07-3.15,1.75-6.02,4.57-7.46,2.41-1.23,5.37-1.34,7.65,.23,.01,0,.02-.06,0-.07h0Z"/><path class="cls-3" d="M1124.69,494.59c-.73-.68,.53-1.76,1.14-1.8,.41-.03,1.26,.43,1.56,.68,.93,.75,1.37,2.02,1.62,3.14,.56,2.44,.07,5.06-1.21,7.19-2.4,3.99-7.18,5.45-11.59,4.8-.07-.01-.07,.32,0,.35,4.28,1.68,9.36-.43,11.68-4.27,1.12-1.86,1.65-4.06,1.6-6.22-.05-1.85-.47-4.23-1.9-5.55-.35-.33-.84-.64-1.31-.56s-1.08,.42-1.4,.8c-.44,.52-.43,.99-.22,1.59,.02,.07,.07-.11,.02-.15h0Z"/><path class="cls-3" d="M1118.68,499.99c-.47,.19-.5,.78-.46,1.21,.05,.65,.28,1.34,.77,1.79s1.1,.48,1.66,.18c.72-.38,.97-1.18,1.02-1.95,.02-.35,.05-1.25-.38-1.42s-.71-.06-1.11,.1c-.12,.05-.22,.04-.35,.07-.05,0-.11,.02-.16,.04-.04,.01-.08,.04-.13,.05-.17,.07-.09,0-.02,0-.15,.03-.25,.12-.31,.27-.36,.81-.49,1.68-.46,2.56s.13,1.9,.66,2.63c.15,.2,.3,.38,.52,.5s.29,.13,.52,.02c.15-.07,.29-.14,.43-.23,.56-.35,.98-.84,1.34-1.39,.44-.67,.69-1.46,.84-2.24,.24-1.24,.28-2.73-.12-3.93-.24-.72-.92-.96-1.62-1-.56-.03-.98-.21-1.5,.11-1.73,1.06-1.71,3.77-1.44,5.48,.21,1.29,.72,2.75,2.23,2.85,.9,.06,1.84-.42,2.27-1.22,.61-1.12,.63-2.67,.47-3.89-.12-.93-.31-2.03-1.05-2.69s-1.84-.42-2.48,.24c-.74,.75-.93,1.84-1,2.85s0,2.22,.35,3.22c.16,.44,.36,.82,.7,1.14l.26,.1c.3-.1,.63-.24,.9-.4,.33-.2,.45-.61,.73-.85,.22-.19,.53-.33,.77-.48s.51-.33,.77-.48c.49-.3,1.05-.52,1.57-.76l1.57-.75c.35-.16,.29-1.97-.13-1.94l-2.42,.15c-.82,.05-1.61-.05-2.43-.1l.19,.07c-.26-.19-.55-.42-.86-.5-.24-.06-.56-.01-.81,.03l.26,.1s-.07-.07-.1-.1l.24,.3s-.07-.13-.11-.16c.16,.29,.25,.61,.28,.94,.23,.88,.26,1.78,.09,2.7l-.11,.51c-.16,.39-.2,.5-.12,.33,.03-.05,.06-.1,.09-.15l-.22,.31c.19-.26,.45-.44,.74-.58l-.26,.12c.21-.09,.42-.2,.62-.29l-.25,.11c.32-.13,.67-.21,1-.08l-.25-.1s.16,.12,.18,.12c-.16-.21-.19-.26-.11-.14,.09,.16,.05,.07-.11-.26,.07,.21,.04,.09-.1-.37-.17-.83-.19-1.66-.07-2.48,.03-.28,.11-.54,.23-.79-.01,.03-.03,.06-.04,.08-.15,.25,.23-.21,.05-.06-.06,.06-.12,.13-.18,.18-.14,.12-.3,.21-.46,.29l.24-.11c-.51,.22-1.09,.28-1.62,.09l.24,.09c-.12-.05-.23-.11-.34-.19-.01-.01-.13-.13-.14-.13,.09-.02,.2,.29,.06,.06-.08-.16-.05-.08,.1,.24l.1,.39c.16,.72,.16,1.48,.05,2.21-.1,.42-.13,.53-.07,.32l-.11,.28c.04-.06,.12-.19,.14-.26,.05-.08,.03-.05-.08,.1,.03-.03,.05-.07,.08-.1,.06-.06,.12-.13,.18-.19,.13-.12,.28-.21,.42-.32,.33-.25,.6-.52,.99-.7l-.19,.09c.28-.04,.57,0,.84,.09l-.2-.08c.14,.05,.26,.12,.38,.2l-.55-1.57c.05,.42-.03-.48-.01-.22,.01,.27,.04-.59,0-.22,.01-.12,.05-.5,0-.16-.03,.22,.12-.39,.02-.08-.03,.09-.06,.18-.08,.26-.06,.19,.15-.31,0,0-.08,.17-.16,.33-.26,.49-.04,.06-.08,.12-.12,.18,.1-.14-.1,.12-.1,.12-.11,.13-.22,.25-.34,.36-.28,.26-.6,.48-.95,.65h.37c-.16-.08-.27-.18-.41-.27-.16-.1,.12,.19,0-.02-.05-.1-.03-.03,.08,.19-.06-.16-.04-.08,.06,.24-.07-.32,.02,.2,.03,.26,.05,.37,.08,.64-.02,1.08,.03-.11,.06-.4-.03,.09,.05-.15,.08-.31,.11-.47,.06-.51,.07-.62,.04-.33-.02,.17-.02,.18,0,.05-.05,.2-.05,.22-.01,.07,.03-.09,.05-.19,.09-.28-.04,.11,.08-.2,.1-.23,0,0,.11-.07,.12-.08,.26-.18,.58-.19,.88-.12l-.38-1.42c0,.26,.02-.08,.02-.08-.01,0-.11,.21-.13,.24-.1,.14-.24,.25-.37,.35-.3,.21-.72,.31-1.09,.26-.29-.04-.56-.21-.71-.47-.06-.11-.11-.25-.13-.38,.02,.16,.03-.15,.03-.13,.02-.14,.07-.27,.12-.4,0,0,0-.07,0-.06h0Z"/><path class="cls-3" d="M1109.52,489.03c-1.37,.71-2.63,1.1-3.78,2.22-1,.97-1.77,2.2-2.3,3.49-1.07,2.6-1.25,5.57-.53,8.28,1.74,6.56,8.58,10.86,15.21,10.5,4.31-.23,8.64-2.46,11.87-5.22,.13-.11,.05-.76-.08-.68-6.61,4.4-16.05,5.78-22.53,.34-2.96-2.49-4.93-6.22-4.27-10.15,.32-1.91,1.13-3.71,2.29-5.25,.96-1.28,2.5-2.96,4.13-3.36,.05-.01,.02-.2-.01-.18h0Z"/><path class="cls-3" d="M1131.35,492.86c1.13,.24,2.16,1.96,2.66,2.88,.65,1.22,.96,2.6,.97,3.98,.02,2.58-.97,5.14-2.71,7.04-4.12,4.51-11.16,5.11-16.87,4.63-.1,0-.11,.48,.01,.49,5.33,.8,11.2,.57,15.63-2.89,3.31-2.58,4.78-7.13,3.95-11.21-.21-1.01-.57-2-1.13-2.86-.28-.44-.63-.83-1.02-1.17-.46-.41-1.06-.65-1.49-1.07-.02-.02-.07,.16,0,.18h0Z"/><path class="cls-3" d="M470.81,406.87c24.93-3.44,53.08-5.7,74.41,10.42,5.34,4.03,10.46,9.31,11.8,16.1,.04,.22,.11-.09,.1-.18-1.07-5.51-4.61-10.06-8.69-13.75-4.48-4.05-9.7-7.2-15.26-9.55-11.93-5.04-25.02-6.26-37.85-5.7-8.22,.36-16.38,1.42-24.51,2.59-.02,0-.01,.07,0,.07h0Z"/><path class="cls-3" d="M544.26,394.81c4.89,6.96,7,15.61,5.83,24.04,0,.04,.03,.16,.04,.07,1.17-8.47-.92-17.17-5.86-24.17-.01-.02-.02,.05-.01,.06h0Z"/><path class="cls-3" d="M465.15,334.14c-.98,2.19-2.36,4.21-3.39,6.39s-1.92,4.39-2.7,6.65c-1.48,4.29-2.53,8.72-3.15,13.22-1.26,9.08-.77,18.41,1.48,27.31,1.3,5.11,3.21,10.04,5.69,14.69,.05,.1,.08-.1,.06-.15-8.61-16.45-10.13-36.22-4.43-53.87,.78-2.41,1.69-4.78,2.73-7.09,.55-1.22,1.14-2.41,1.76-3.59s1.17-2.44,2-3.41c.04-.05,0-.22-.05-.14h0Z"/><path class="cls-3" d="M481.97,336.36c-4.99-.03-8.02,4.74-9.68,8.87-2.37,5.89-3.66,12.38-4.35,18.67-1.19,10.95-.66,23.11,4.59,33.05,2.57,4.86,6.41,8.98,11.56,11.09,.06,.03,.07-.18,.02-.2-9.34-3.91-13.83-13.95-15.5-23.36-2.15-12.12-.85-25.08,2.92-36.75,1.55-4.81,4.53-11.27,10.45-11.29,.02,0,.02-.07,0-.07h0Z"/><path class="cls-3" d="M309.62,278.14c-.59-2.73-1.67-4.55-3.81-6.38-.07-.06-.12,.1-.13,.14-1.54,6.34-1.41,12.99,.33,19.28,.85,3.06,2.03,6.03,3.7,8.75,1.14,1.85,3.77,4.58,5.98,2.63,.13-.11,.08-.72-.08-.61-3.01,2.07-5.69-3.2-6.64-5.24-1.47-3.15-2.64-6.38-3.26-9.81s-.78-6.79-.49-10.18c.08-.96,.2-1.91,.36-2.86,.14-.86,.15-1.74,1.11-1,1.57,1.2,2.81,3.34,2.87,5.33,0,.15,.09,.06,.07-.05h0Z"/><path class="cls-3" d="M306.87,272.46c2.93,4.67,6.31,9.09,9.61,13.51s6.67,8.55,10.11,12.73c.1,.13,.15-.28,.08-.37-3.4-4.31-6.7-8.7-10.04-13.05s-6.35-8.71-9.74-12.88c-.02-.02-.02,.05-.01,.06h0Z"/><path class="cls-3" d="M303.65,313.36c1.15,.13,2.04,.44,3.21,.41l3.2-.08,6.41-.17-.4-.7c.77,5.08,1.68,10.02,3.14,14.97s3.06,9.37,5.01,13.89c3.94,9.15,9.04,17.83,15.13,25.72,3.06,3.96,6.37,7.73,9.92,11.27s7.52,7.12,10.36,11.45c3.03,4.63,4.02,10.34,4.82,15.72,.87,5.89,1.55,11.81,2.06,17.75,.57,6.65,.89,13.32,.95,20s-.3,13.38-.04,20.07c.04,.97,.78,1.53,.98,.27,.97-5.92,.98-11.95,.94-17.93s-.26-12.09-.68-18.11-1.01-11.92-1.81-17.85c-.74-5.53-1.42-11.24-3.34-16.5-3.64-9.94-12.63-16.29-19.34-24.04s-12.15-16.02-16.61-25.01c-2.5-5.03-4.66-10.24-6.4-15.58-.89-2.73-1.68-5.49-2.37-8.27s-1.46-5.51-1.96-8.32c-.03-.17-.12-.72-.4-.7l-6.4,.55-2.95,.25c-.48,.04-1,.03-1.48,.13-.68,.14-1.28,.5-1.96,.66-.05,.01-.05,.17,0,.18h0Z"/><path class="cls-3" d="M367.37,460.93c.55-4.9,1.72-9.74,3.48-14.35,1.63-4.27,4.06-8.11,6.98-11.62,2.57-3.1,5.45-5.99,7.88-9.2,2.59-3.42,5.01-6.95,6.85-10.84,1.05-2.21,2.06-4.47,2.51-6.89,.25-1.37,.44-2.73,.5-4.12,.1-2.43,.22-5.52-1.74-7.29-.35-.21-.7-.2-1.05,.03-1.27,1.12-1.44,3.03-1.54,4.62-.03,.48-.09,.96-.14,1.45-.11,1.02,0-.18,.04-.17,0,0-.19,1.01-.2,1.06-.18,.92-.36,1.83-.61,2.73-.03,.09-.25,.84-.12,.41s-.11,.33-.14,.42c-.18,.53-.4,1.05-.63,1.57-1.63,3.63-4.14,7.07-6.46,10.5-2.61,3.86-5.16,7.84-7.33,11.97-2.34,4.45-4.14,9.18-5.64,13.97-1.6,5.12-2.47,10.39-2.65,15.75,0,.03,.03,.05,.03,0h0Z"/><path class="cls-3" d="M380.7,400.72c-.39-.51-.7-.91-1.32-1.15-.58-.22-1.49,.15-1.94-.12-.31-.19-.3,.88-.1,1.07,.73,.67,1.87,.58,2.83,.63,1.06,.06,2.12,.12,3.18,.14,2.13,.03,4.24,.16,6.36,.32,4.32,.31,8.6,.78,12.85,1.61s8.33,2.34,12.44,3.71,8.1,3.01,11.97,4.93c2.1,1.04,4.16,2.15,6.17,3.34,1.04,.61,2.06,1.25,3.08,1.9,.93,.6,1.92,1.52,3.04,1,1-.46,.92-4.63-.36-4.54l-.25,.02,.4,.39c-.12-.23-.24-.47-.36-.7-.48-.96-.75,.69-.69,1.05,0,.53,.04,.67,.1,.41l1.47-.5c-.98-2.09-3.27-3.15-5.19-4.28s-3.8-2.15-5.76-3.12c-3.85-1.91-7.85-3.55-11.93-4.91s-8.32-2.07-12.58-2.79-8.51-1.24-12.81-1.41c-2.4-.1-4.8,0-7.2,.15-1.29,.09-2.54,.23-3.8,.46-1.08,.2-2.33,.3-3.05,1.18l.31,.86c.52-1.35,2.7-.53,3.09,.49,.03,.08,.09-.09,.04-.14h0Z"/><path class="cls-3" d="M416.67,406.87l-1.11-3.36-.26,.67c5.05,5.58,9.08,12.12,11.26,19.35s2.33,14.21,.96,21.27c-.83,4.29-2.3,8.45-4.36,12.3-.17,.31,0,1.86,.36,1.33,9.09-13.22,8.5-32.19,.39-45.75-2.2-3.68-4.96-6.9-8.47-9.39-.27-.19-.23,.7-.18,.81l1.4,2.81s.03-.03,.02-.04h0Z"/><path class="cls-3" d="M402.75,356.28c-1.49,15.43,2.95,31.39,12.5,43.64,.05,.06,.07-.14,.04-.18-9.35-12.39-13.96-27.95-12.51-43.44,0-.03-.02-.07-.03-.02h0Z"/><path class="cls-3" d="M414.16,356.07c-.84,.97-1.55,1.73-1.89,3.01-.32,1.18-.35,2.42-.29,3.64,.18,3.2,.86,6.42,1.61,9.52,1.62,6.7,4.28,13.17,7.73,19.14,2.03,3.51,4.35,6.83,6.96,9.94,.07,.08,.1-.19,.05-.25-5.11-6.37-9.24-13.46-12.08-21.12-1.45-3.9-2.6-7.92-3.39-12-.37-1.89-.74-3.83-.82-5.77s.17-5.05,2.16-5.95c.06-.03,.01-.22-.03-.16h0Z"/><path class="cls-3" d="M852,326.19c.38-1.32-.34-2.54-1.52-3.19-2.04-1.12-4.34,.23-6.01,1.4-3.81,2.65-7.36,5.71-10.62,9.01-6.38,6.48-11.6,14.01-15.79,22.06-8.59,16.51-13.02,34.99-15.01,53.41-1.1,10.16-1.88,21.82,4.59,30.48,.05,.06,.07-.14,.04-.18-5.82-8.07-5.63-18.49-4.72-27.95,.83-8.64,2.22-17.24,4.27-25.68,4.06-16.68,10.84-32.96,21.75-46.36,3-3.68,6.31-7.12,9.9-10.23,1.8-1.55,3.67-3.04,5.61-4.41,1.14-.81,2.41-1.63,3.83-1.81,1.86-.23,4.3,1.14,3.66,3.4,0,.02,.01,.08,.02,.05h0Z"/><path class="cls-3" d="M861.6,330.84c-7.94,2.17-14.16,7.79-18.93,14.31-5.33,7.27-9.17,15.62-12.67,23.88-7.84,18.53-12.98,38.19-15.26,58.17-1.28,11.24-1.63,22.57-1.07,33.86,0,.08,.06,.08,.06,0-.94-20,.97-40.11,5.66-59.57,2.33-9.66,5.35-19.16,9.02-28.39,3.41-8.56,7.2-17.17,12.24-24.9s11.8-14.78,20.95-17.3c.02,0,.01-.07,0-.07h0Z"/><path class="cls-3" d="M691.09,420.83c-.94,.14-1.58,.11-2.26,.88-.58,.66-.91,1.52-1.13,2.36-.72,2.76-.27,5.89-.16,8.7,.27,7.15,.93,14.29,1.95,21.38s2.46,14.11,4.24,21.03c1.6,6.22,3.38,12.58,6.93,18.01s8.93,9.62,15.42,10.2c.06,0,.06-.21,0-.21-5.56-.51-10.4-3.78-13.82-8.07-3.9-4.89-5.94-10.95-7.57-16.9-3.51-12.79-5.75-25.96-6.72-39.18-.27-3.68-.44-7.37-.51-11.06-.03-1.62-.04-3.2,.55-4.74,.42-1.11,1.63-2.94,3.09-2.2,.06,.03,.06-.19,0-.18h0Z"/><path class="cls-3" d="M705.22,424.65c-.84,1.05-1.71,1.91-2.29,3.16s-.88,2.51-1.07,3.81c-.39,2.67-.24,5.4-.08,8.08,.39,6.27,1.29,12.5,2.66,18.63,2.8,12.52,7.59,24.56,14.15,35.58,3.77,6.34,8.12,12.3,12.98,17.85,.05,.06,.08-.14,.04-.18-16.3-18.6-26.67-42.32-29.34-66.91-.36-3.33-.68-6.71-.61-10.06,.04-1.84,.22-3.7,.78-5.45,.47-1.49,1.38-3.57,2.82-4.35,.06-.03,0-.22-.03-.16h0Z"/><path class="cls-3" d="M1087.82,440.24c-1,.31-2.04,.37-3.03,.74s-1.91,.85-2.79,1.42c-1.79,1.16-3.37,2.63-4.83,4.17-3,3.16-5.69,6.62-8.01,10.3-4.71,7.46-7.96,15.8-9.54,24.48-.87,4.79-1.22,9.67-1.06,14.53,0,.12,.08,.12,.08,0-.55-17.44,5.81-34.98,17.44-48,1.52-1.71,3.12-3.37,4.96-4.74s4.48-3.04,6.8-2.71c.05,0,.04-.19,0-.18h0Z"/><path class="cls-3" d="M1107.14,451.63c.13-1.5-.64-2.7-2.1-3.24-2.02-.74-4.1,.57-5.67,1.71-3.65,2.66-6.99,5.77-9.97,9.16-5.87,6.69-10.3,14.62-13.01,23.1-1.51,4.72-2.47,9.6-2.87,14.54,0,.12,.09,.27,.11,.07,1.33-16.28,9.08-31.83,21.1-42.86,1.68-1.55,3.44-3.06,5.33-4.36,1.05-.72,2.23-1.39,3.53-1.48,1.59-.11,4.16,1.18,3.49,3.27-.03,.08,.05,.23,.06,.09h0Z"/><path class="cls-3" d="M1164.13,504.23c-.76,9.05,.63,18.23,4.22,26.58,.03,.07,.05-.07,.04-.1-3.45-8.39-4.96-17.41-4.24-26.46,0-.03-.02-.07-.03-.02h0Z"/><path class="cls-3" d="M1175.69,507.77c-.79-.6-1.45-1.51-2.11-2.25,0,0-.01,0-.01,0-2.63,8.55,1.82,18.58,10.04,22.19,.08,.03,.09-.24,.02-.27-4.12-1.9-7.39-5.42-9.19-9.57-.96-2.21-1.51-4.61-1.57-7.02-.03-1.29,.09-2.57,.35-3.83,.05-.26,.07-.65,.21-.87,.28-.46,.31-.3,.68,0,.57,.46,1.16,1.19,1.57,1.79,.03,.04,.08-.12,.02-.17h0Z"/></g></svg>