<?xml version="1.0" encoding="UTF-8"?><svg id="Layer_1" xmlns="http://www.w3.org/2000/svg" viewBox="0 0 1500 750"><defs><style>.cls-1{fill:#cacdbe;}.cls-2{fill:#231f20;}.cls-3{fill:#838874;}</style></defs><path class="cls-3" d="M1067.52,380.81s-268.02,79.52-294.38,70.47l-136.33,25.36s-192.13,11.52-198.78,9.7c-6.65-1.81-24.98-6.13-11.58-8.84,0,0-157.55,3.4-120.93-20.32,36.62-23.73,331.8-170.19,461.02-178.22,129.22-8.02,299.47,72.5,299.47,72.5,0,0-4.86-15.05,5.67-25.04,10.53-9.99,128.31-92.47,128.31-92.47l-14.93,37.75c-4.72,.06-82.01,109.11-82.01,109.11,0,0-7.3-15.26,3.23,69.42,0,0-38.7-20.67-38.77-69.42Z"/><path class="cls-3" d="M780.25,429.51s-31.99,17.75,39.74,69.68c71.73,51.93,74.92,59.33,41.85,53.36-33.07-5.97-208-77.16-216.28-97.86-8.28-20.7,91.24-41.52,134.69-25.18Z"/><path class="cls-3" d="M756.35,286.49s67.67-97.47,78.85-92.13c11.18,5.34,4.66,50.37,4.68,71.99,.02,21.61,38.58,39.26,38.58,39.26l-95.37-7.94-26.73-11.18Z"/><path class="cls-3" d="M971.32,409.01c-1.3-.06-2.75,.04-3.9,.71-1.43,.83-1.86,4.12-.87,5.42,1.77,2.34,3.54,4.69,5.32,7.03,.81,1.07,1.69,.26,2.15-.68,.66-1.36,.79-3.11,.34-4.55-.89-2.86-2.42-5.35-4.51-7.48l-1.74,7.35c3.81,3.23,7.82,6.25,11.72,9.36,1.06,.84,2.09-.91,2.38-1.67,.55-1.48,.9-3.56,.26-5.07-1.15-2.74-2.31-5.47-3.46-8.21l-2.77,6.99c2.26,1.56,5.08,.96,7.06-.76,1.35-1.17,2.18-2.87,2.64-4.57,.3-1.13,.46-2.32,.44-3.49-.01-.95-.4-2.03-.36-2.97l-.29,2.42c-.31,1.49-1.33,1.44-.64,1.59l-.56-8.02c-3.23,6.41-4.55,13.68-3.33,20.81,.15,.86,.44,2.43,1.56,2.58s1.89-1.27,2.18-2.08c.98-2.73,1.97-5.45,2.95-8.18l1.44-3.98,.76-2.1c.09-.26,.27-.57,.3-.84,.25-.51,.05-.37-.58,.42-.23,.61-.56,.8-1,.56l-.77-1.34,.04,.11-.24-2.1v.15l.35-2.4-.05,.16,.82-1.88-.08,.13,1.06-.99,.35-.07c-1.19-.46-2.19,2.18-2.36,2.85-.42,1.63-.53,3.4,.19,4.96,.61,1.33,1.87,1,2.64,.06,1.47-1.81,1.93-4.9,1.3-7.11-.41-1.42-1.51-2.33-2.87-1.42-1.18,.79-1.72,2.18-2.19,3.46-1.72,4.77-3.44,9.54-5.17,14.3l3.74,.49c-.1-.58-.19-1.16-.25-1.75,0-.08-.08-.9-.04-.4s0-.32,0-.41c-.01-.54-.1-1.23,.02-1.77-.09,.38-.06,.63,0,.09,.04-.33,.07-.65,.12-.98,.02-.11,.14-.96,.04-.35s.05-.23,.07-.34c.13-.58,.27-1.15,.43-1.72,.1-.36,.16-.45,0-.04,.09-.25,.18-.5,.27-.74,.28-.74,.62-1.46,.97-2.17,.66-1.32,.78-3.19,.56-4.64-.14-.9-.48-2.31-1.57-2.5-2.39-.42-3.67,2.57-4.17,4.39-.44,1.59-.44,3.36-.16,4.98,.04,.25,.22,1.83,.24,.69,.01-.79,.23-1.43,.46-2.17,.19-.59-.54,.56,.02-.03-.18,.19-.35,.37-.55,.54-.53,.45,.3-.13-.31,.2-.27,.14-.53,.27-.82,.37-.84,.3-1.91,.25-2.66-.23-1.37-.88-2.33,1.26-2.63,2.23-.57,1.81-.59,3.74,.19,5.49,1.1,2.43,2.19,4.86,3.29,7.28l2.64-6.74c-3.96-2.94-7.85-6-11.9-8.8-1.34-.92-2.28,1.56-2.47,2.47-.31,1.43-.54,3.8,.74,4.88,1.53,1.3,2.75,2.91,3.49,4.79l2.15-5.62c-1.86-2.06-3.73-4.12-5.59-6.19l-.22,5.49c.68-.76,1.55-1.09,2.45-.52,1.19,.76,1.82-1.58,1.93-2.28s.29-3.41-1-3.47h0Z"/><path class="cls-3" d="M971.81,415.97c3.25-1.59,6.55-2.96,9.95-4.21s6.78-2.71,10.17-4.06c1.41-.56,2.24-5.54,.24-5.19-3.43,.59-6.78,1.26-10.09,2.35s-6.6,2.25-9.91,3.36c-1.54,.52-2.07,3.25-2.1,4.62-.02,.75,.2,3.89,1.74,3.13h0Z"/><path class="cls-3" d="M1028.43,390.38c-.2-.88-.98-1.9-1.98-1.52-1.25,.48-1.71,2.16-1.87,3.34-.38,2.83,1.1,5.54,2.49,7.9,2.49,4.25,5.86,7.84,9.88,10.69l1.79-7.58c-5.08-2.34-9.03-6.66-12.79-10.67-.94-1-2.19,.83-2.49,1.49-.72,1.56-.98,3.35-.64,5.04,1.43,7.17,6.75,13.28,13.82,15.33,1.28,.37,2.28-2.05,2.52-2.86,.43-1.47,.84-3.7-.05-5.09-1.48-2.32-3.17-5.09-4.06-7.4-.26-.67-.47-1.37-.65-2.06-.09-.34-.17-.69-.24-1.04,.12,.63-.02-.26-.04-.43-.02-.24,0-1.25-.04-.28,0-.14,.06-1.13,0-.42-.08,.94,.26-1.08,.03-.16s.51-1.27,.01-.04l-3.11,1.12c1.11,2.1,2,4.11,2.67,6.25,.34,1.09,.64,2.2,.89,3.32,.07,.31,.13,.62,.2,.93,.02,.1,.16,.91,.07,.35,.1,.63,.19,1.26,.26,1.89,.11,.92,.44,2.64,1.69,2.51s1.96-1.91,2.28-2.92c1.75-5.45,2-11.48,.34-16.98-.44-1.46-1.53-2.09-2.66-.82-1.26,1.41-1.76,3.88-1.54,5.71,.78,6.49,1.45,12.99,2.6,19.42,.26,1.43,1.49,1.81,2.43,.75,1.2-1.34,1.52-3.5,1.41-5.22-.43-6.31-1.31-12.59-2.07-18.87l-4.2,4.89c.15,.49,.29,.99,.4,1.49,.01,.06,.22,1.15,.12,.55,.08,.51,.13,1.02,.17,1.53,.02,.26,.03,.51,.04,.77,0-.4,0-.45,0-.15-.03,.45-.04,.9-.05,1.35-.05,.53-.04,.51,.02-.06-.02,.19-.05,.38-.08,.57-.04,.22-.32,1.61-.06,.52-.12,.5-.27,.99-.43,1.48l3.97-.42c-.67-5.66-2.3-11.18-5.02-16.21-.96-1.77-2.63-.08-3.11,1.12-1.79,4.46-2.17,9.34-.77,13.97,1.11,3.66,3.05,7.02,5.16,10.19l2.47-7.95c-2.93-.81-5.46-2.38-7.59-4.56-1.04-1.06-1.81-2.1-2.53-3.39-.37-.67-.69-1.35-.97-2.06,.16,.4-.2-.61-.23-.72-.11-.39-.21-.79-.3-1.18l-3.13,6.53c4.17,4.23,8.43,8.33,13.96,10.74,.52,.23,1.26-.62,1.46-.93,.43-.66,.7-1.39,.87-2.16,.19-.81,.32-1.7,.21-2.52-.07-.58-.18-1.67-.76-1.98-2.93-1.57-5.56-3.67-7.83-6.09-1.09-1.16-2.06-2.41-2.93-3.75-.41-.64-.8-1.29-1.18-1.94-.11-.18-.22-.36-.31-.55-1.12,2-1.22,2.78-.31,2.33,.1-.04,.42-.38,.6-.27,1.14,.75,1.31-2.28,1.2-2.78h0Z"/><path class="cls-3" d="M1025.61,337.11c-.07,.02-.37-.02-.37-.02-.04,.38-.15,.73-.36,1.06-.33,.56-.38,.72-.17,.47,.3-.15,.6-.51,.86-.72,.82-.66,1.64-1.33,2.45-1.99,1.64-1.33,3.28-2.65,4.91-3.99,1.04-.85,1.61-2.33,1.71-3.66,.06-.88-.17-2.17-1.3-1.55-3.58,2-7.16,4-10.71,6.05l-.48,5.71c4.54-2.99,8.8-6.33,12.83-9.96l-1.94-.68c.05,1.65,.07,3.27,.3,4.91,.25,1.76,.58,3.5,1.03,5.22,.85,3.25,2.12,6.35,3.7,9.31,.27,.51,.99,.28,1.33,.06,.63-.4,1.18-1.26,1.49-1.91,.66-1.39,1.33-3.39,.51-4.85-2.83-5-4.62-10.86-4.85-16.58-.02-.41-.18-1.11-.64-1.27-.5-.18-.97,.3-1.3,.6-3.75,3.45-7.78,6.59-11.99,9.44-1.19,.8-1.79,2.64-1.89,4-.07,.92,.19,2.43,1.42,1.7,3.61-2.15,7.19-4.35,10.78-6.55l.41-5.2c-2.34,2.06-4.68,4.12-7.01,6.19-1.13,.99-2.27,1.91-2.92,3.31-.42,.91-1.36,3.95,.45,3.82l-.4-.13c.61,.46,1.03,.61,1.72,.24,.65-.35,1.4-3.32,.42-3.02h0Z"/><path class="cls-3" d="M1030.68,333.27c-.01,.32,.03,.65,0,.97,.04-.32-.06,.38-.07,.45-.03,.64,.07,1.24,.2,1.87,.2,.95,.53,1.83,.98,2.69,.84,1.6,2.09,2.86,3.7,3.68,.37,.19,.85-.19,1.09-.41,.46-.42,.83-.96,1.09-1.53,.54-1.18,.96-2.62,.61-3.91-.43-1.63-1.22-3.12-2.28-4.42l-3.09,6.37c1.07,1.22,2.06,2.5,2.96,3.85s1.74,2.61,2.56,3.94c.26,.43,.88,.28,1.2,.06,.49-.34,.84-.84,1.13-1.35,.37-.64,.68-1.37,.83-2.1,.14-.66,.32-1.53,.05-2.18-.7-1.68-1.48-3.27-2.53-4.76-.95-1.35-1.99-2.62-3.11-3.82-1.01-1.08-2.31,1.02-2.66,1.77-.39,.84-.72,1.77-.77,2.71-.03,.6-.08,1.4,.34,1.89,.46,.53,.88,1.09,1.23,1.7,.16,.27,.31,.55,.46,.83,.02,.03,.26,.55,.11,.19,.07,.17,.15,.33,.22,.5l2.79-5.85c-.84-.24-1.61-.62-2.31-1.13l.31,.23c-.8-.6-1.5-1.28-2.03-2.13-.05-.09-.1-.17-.15-.26,.11,.2-.04-.09-.06-.13-.09-.21-.18-.42-.25-.64-.1-.3-.23-.54-.36-.83,.03,.07,.07,.13,.07,.21,0-.15-.02-.32-.02-.48-.01-.74-.57-1.03-1.12-.55-.67,.59-1.08,1.72-1.11,2.59h0Z"/><path class="cls-1" d="M302.01,466.45c.79,.88,1.45,1.21,2.58,1.59s2.29,.74,3.45,1.03c2.36,.58,4.77,1.08,7.18,1.4,4.87,.64,9.8,.88,14.71,1.03,10.28,.3,20.58,.17,30.87,.13,20.86-.07,41.73-.19,62.59-.35,5.84-.05,11.68-.1,17.52-.15,2.96-.03,5.92-.06,8.87-.09,3.15-.03,6.25,.07,9.36-.56,1.69-.34,3.39-1.21,4.67-2.36,.38-.34,2.11-2.17,.85-2.52-2.59-.72-5.26-.49-7.92-.45s-5.23,.06-7.84,.08c-5.31,.06-10.62,.13-15.93,.2-10.53,.13-21.06,.27-31.58,.42-20.96,.29-41.91,.76-62.87,1.15-5.87,.11-11.75,.11-17.61-.33-2.84-.21-5.68-.42-8.5-.77-3.01-.37-5.98-1.02-9-.79-.32,.03-1.79,.9-1.4,1.34h0Z"/><path class="cls-1" d="M434.73,476.56c.23-1.22-.78-1.18-1.73-.92l-.63,.21c-1.05,.45-.89,.41,.48-.14-.82,.2-1.63,.6-2.33,1.05-.82,.51-1.67,1.22-1.96,2.19-.97,3.21,5.07,3.04,6.79,3.19,7.67,.7,15.39,.91,23.09,.95,15.82,.07,31.61-.76,47.37-2.12,31.56-2.71,62.87-7.64,94.23-11.96,9.54-1.31,19.04-2.71,28.53-4.39,2.24-.4,4.53-.68,6.74-1.26s4.59-1.42,6.51-2.76c.83-.58,2.11-1.55,2-2.73-.2-2.17-4.8-1.31-5.98-1.09-1.98,.38-4.17,1.05-5.87,2.2-.39,.26-1.11,.76-1.3,1.26-.03,.21-.06,.41-.09,.62,.4,.43,.45,.52,.16,.27,.77,1.64,4.77,.52,6,.16,1.3-.38,2.64-.83,3.78-1.58,.41-.27,1.59-1.01,1.29-1.65-.09,.18-.21,.34-.35,.49l-1.86,1.2,.15-.07-4.34,1.43,.16-.03-2.66,.28c-1.25-.4-1.62-.45-1.11-.16-.15-.22-.17-.23-.06-.01,.05,.19,.07,.24,.06,.15,.17-.12,.32-.25,.46-.39l2.48-1.33c3.44-1.61,4.44-1.06,2.52-.85-.41,.05-.83,.09-1.24,.13-1.19,.12-2.38,.23-3.57,.35-1.78,.18-3.56,.37-5.34,.56-3.41,.36-6.81,.87-10.2,1.35-6.58,.93-13.16,1.92-19.75,2.85-13.3,1.89-26.6,3.81-39.92,5.6-26.52,3.56-53.13,6.49-79.87,7.69-7.54,.34-15.09,.46-22.63,.52-3.91,.03-7.81-.04-11.72-.06-1.9,0-3.81,0-5.71-.06-.64-.02-1.26-.03-1.85-.29-.16-.07-.43-.18-.56-.31-.25-.23-.19-.62-.41-.39l-2.64,1.04,.28,.09c.69,.22,2.43-.52,2.58-1.3h0Z"/><path class="cls-1" d="M451.89,468.74c-1,2.74-3.24,4.67-5.73,6.09l1.26-.5c-.14,.02-.28,0-.42-.02-1.01-.15-2.42,.61-3.24,1.12-.44,.27-1.88,1.16-1.55,1.84,.43,.89,2.95,.69,3.85,.78,1.71,.16,3.42,.17,5.13,.21,3.2,.07,6.4,.13,9.61,.16,6.63,.06,13.25,.11,19.88,.16,13.48,.1,26.96-.06,40.43-.13,27-.15,54-.63,81.01-.99,7.92-.11,15.87-.17,23.75-.89,3.58-.33,7.16-.72,10.72-1.23,6.34-.91,12.5-2.33,18.77-3.66,1.66-.35,3.3-.9,4.83-1.63,.83-.4,2.23-1.01,2.64-1.91,.96-2.08-3.47-1.91-4.36-1.88-8.83,.25-17.65,.69-26.47,1.06-1.99,.08-4.09,.51-5.98,1.1-1.39,.44-3.23,1.08-4.36,2.08-2.56,2.27,2.15,2.52,3.46,2.49,8.68-.22,17.37-.38,26.05-.71l3.11-5.42c-.48,.11-.96,.21-1.44,.31l4.18-.64c-1.89,.2-3.73,.37-5.61,.58-.08,0-.89,.1-.25,.03-.82,.09-1.64,.18-2.45,.26-1.63,.18-3.26,.35-4.9,.49-3.41,.3-6.83,.46-10.25,.55-6.57,.17-13.14,.53-19.71,.69-13.37,.33-26.74,.63-40.11,.93-27.01,.6-54.01,1.37-81.02,2.08-7.68,.2-15.35,.52-23.03,.77-3.87,.13-7.74,.27-11.6,.44-1.98,.08-3.98,.11-5.95,.3-2.35,.22-4.68,.29-6.93,1.06l1.93,.87c.2-.2,.37-.44,.57-.65,.14-.19,.09-.14-.13,.15,.23-.13,.45-.27,.68-.41,.95-.61,1.86-1.28,2.72-2.01,1.63-1.38,3.1-3.04,4.48-4.66,.64-.75-.86-.61-1.19-.54-.65,.13-2.08,.54-2.35,1.28h0Z"/><path class="cls-1" d="M339.22,465.94c20.83-1.27,41.63-2.91,62.41-4.75s41.72-3.81,62.56-6c11.99-1.26,23.94-2.78,35.89-4.32,.93-.12,1.86-.66,2.52-1.31,.26-.25,1.06-1.27,.13-1.18-20.81,2.06-41.6,4.22-62.4,6.36s-42.27,4.16-63.41,6.09c-11.91,1.09-23.82,2.19-35.74,3.29-.65,.06-1.47,.52-1.92,.98-.19,.19-.72,.86-.04,.82h0Z"/><path class="cls-1" d="M441.38,451.06c-1.01-1.01-3.13-.16-4.18,.34-1.2,.57-2.32,1.4-2.91,2.62-.91,1.93,.47,3.93,2.2,4.77,2.36,1.15,5.19,1.07,7.67,.39,2.9-.79,6.04-2.35,7.4-5.19,.82-1.71,.87-4-.36-5.53s-3.26-2.14-5.22-2.05c-3.12,.14-6.59,1.36-8.77,3.67-1.48,1.57-2.04,3.71-1.8,5.83,.61,5.42,6.43,7.72,11.25,7.38,1.71-.12,3.71-.74,4.99-1.92,.31-.29,.89-.77,.7-1.26-.18-.47-.99-.5-1.37-.47-.35,.03-.7,.05-1.06,.04-.02,0-.58-.03-.22,0-.17-.01-.35-.04-.52-.06-.34-.05-.67-.11-1.01-.18-.18-.04-.36-.09-.54-.14-.07-.02-.54-.17-.38-.11,.2,.07-.24-.1-.28-.11-.17-.07-.34-.15-.5-.23-.33-.16-.65-.34-.96-.54-.62-.4-1.17-.87-1.67-1.41l.24,.27c-1.2-1.37-1.84-3.12-1.82-4.94v.35c.02-1.01,.26-2.02,.77-2.9-.16,.27,.04-.04,.08-.1,.07-.09,.14-.18,.21-.27,.04-.04,.26-.22,.25-.28,0,.07-.41,.33-.12,.13,.07-.05,.48-.35,.04-.05-.52,.36,.04-.04,.06-.02,.01,0-.8,.39-.37,.2-.09,.04-.96,.36-.4,.17,.39-.13-.88,.25-.48,.15,.34-.08-.9,.13-.33,.07,.09-.01,.21-.01,.3-.04-.17,.05-.69,.02-.22,.03,.1,0,.2,0,.3,0,.28-.02-.49-.07-.08,0,.22,.04,.44,.07,.65,.12,.09,.02,.19,.05,.28,.08,.19,.05-.24-.12,.05,.02,.19,.1,.39,.18,.58,.29,.39,.23,.74,.53,1.04,.87l-.22-.25c.71,.86,1.03,1.91,1.02,3.03v-.33c-.02,.77-.19,1.51-.52,2.2-.08,.18-.17,.36-.28,.52,.15-.23-.12,.15-.15,.18-.1,.13-.22,.25-.33,.38-.17,.17-.16,.16,.04-.03-.09,.08-.19,.16-.29,.23-.41,.34,.46-.27-.04,.01,.78-.45,.21-.13,.04-.04,.52-.21,.61-.25,.28-.13,.5-.15,.62-.19,.38-.12-.74,.16,.53-.06-.08,.02-.53,.07,.49,0-.1,.02-.19,0-.39,0-.58,.01-.24,0-.26,0-.04,0-.13-.01-.26-.02-.39-.04-.19-.02-.38-.05-.57-.09-1.25-.24-2.83-.95-3.54-2.2-.33-.59-.45-1.2-.2-1.84,.04-.09,.08-.18,.12-.27,.07-.14,.09-.17,.06-.09l.09-.11c.13-.14,.13-.14,0-.01,.21-.15,.15-.12-.18,.09-.34,.23-.71,.39-1.11,.48-.13,.03-.61,.01-.17,.09,.79,.13,1.76-.22,2.44-.59,.33-.18,1.28-.67,.83-1.12h0Z"/><path class="cls-1" d="M406.83,464.61c-.69-.06-1.6,.02-2.17-.41l-3.33,2.08c1.46,.23,3.07-.01,4.54-.12,1.79-.13,3.58-.26,5.37-.38,3.37-.24,6.73-.49,10.1-.78,6.87-.58,13.74-1.15,20.62-1.73,13.6-1.14,27.2-2.24,40.79-3.46,7.84-.71,15.69-1.41,23.53-2.12,1.3-.12,2.84-.77,3.78-1.68,.77-.74,.59-1.3-.54-1.21-27.36,2.2-54.71,4.55-82.06,6.93-3.85,.33-7.69,.67-11.54,1.05-4.07,.41-8.34,.49-12.32,1.42-.77,.18-2.18,.63-2.56,1.41s.55,.71,1.09,.58c1-.23,2-.22,3.02-.26,.53-.02,1.21-.32,1.6-.67,.19-.17,.61-.61,.08-.66h0Z"/><path class="cls-1" d="M449.95,470.09c-1.64-.84-3.58-.46-5.25,.1-2.06,.7-4.14,1.76-5.39,3.61-.64,.94,.16,1.26,1.08,1.24,7.94-.22,15.88-1.09,23.8-1.73s16.08-1.3,24.11-1.97c16.12-1.35,32.25-2.71,48.37-4.06,9.05-.76,18.1-1.51,27.15-2.29,2.77-.24,5.57-1.15,7.91-2.67,1.17-.76,2.98-2.33,.7-2.91-7.87-2.02-16.17-.82-23.98,.92-7.1,1.59-14.04,3.8-21.12,5.47s-14.62,3.13-22.02,4.22c-3.65,.53-7.3,.99-10.97,1.36-1.76,.18-3.52,.34-5.28,.48-.09,0-1.67,.13-.58,.05-.48,.03-.96,.07-1.44,.1-.96,.06-1.92,.12-2.89,.18-8.51,.49-17.04,.54-25.55,.22l-6.26,5.64c1.5-.16,2.99-.32,4.49-.48,.3-.03,2.02-.21,1.15-.12,.82-.08,1.63-.16,2.45-.24,3.26-.32,6.53-.64,9.79-.95,5.85-.57,11.71-1.06,17.55-1.65,11.67-1.16,23.32-2.39,34.97-3.7,24.11-2.7,48.22-5.42,72.23-8.91,16.66-2.42,33.23-5.82,49.7-9.31l-5.41-4.32c-4.12,.96-8.24,1.87-12.38,2.72-2.07,.43-4.14,.84-6.21,1.24-.48,.09-.96,.18-1.44,.28,1.45-.27,1.83-.35,1.13-.22-.24,.05-.48,.09-.72,.13-1.04,.19-2.08,.38-3.12,.57-8.24,1.48-16.47,2.91-24.76,4.05-1.8,.25-3.86,.73-5.51,1.54-.56,.27-2.22,1.09-2.07,2.04s1.91,1.26,2.58,1.35c1.91,.26,3.82,.09,5.72-.13,17.57-2.06,34.98-5.16,52.19-9.26,1.59-.38,3.72-.94,5.07-1.97,.64-.49,1.49-1.39,.59-2.13-1.08-.88-3-.94-4.27-.95-2.29-.03-4.57,.25-6.81,.74-.72,.16-1.44,.31-2.15,.47-.4,.09-.84,.13-1.22,.27,.1-.04,2.27-.45,.81-.17s-2.97,.59-4.46,.87c-2.97,.58-5.95,1.09-8.93,1.6-6,1.04-12.04,1.78-18.06,2.72s-11.53,1.74-17.31,2.5c-2.94,.39-5.87,.78-8.81,1.16-1.39,.18-2.77,.36-4.16,.54-1.21,.16,.07,0,.27-.03-.33,.04-.65,.08-.98,.12-.82,.1-1.63,.2-2.45,.31-23.71,2.94-47.49,5.34-71.2,8.32-14.45,1.81-28.88,3.76-43.34,5.49-2.61,.31-5.67,1.51-7.63,3.27-.39,.35-1.11,1-.88,1.63,.28,.8,1.67,.72,2.26,.73,15.13,.36,30.26-.55,45.27-2.46,8.15-1.04,16.25-2.43,24.28-4.16,7.01-1.51,13.9-3.43,20.83-5.25,1.07-.28,2.14-.55,3.21-.81,.31-.07,.61-.15,.92-.22,.28-.06,2.32-.52,.77-.18,.99-.22,2-.39,3.01-.56,.39-.06,.77-.12,1.16-.18,.19-.03,2.09-.25,.98-.14,4.03-.4,7.28-.27,11.33,.73l8.6-5.58c-32.47,2.98-65.15,6-97.44,9.15-9.93,.97-19.94,1.68-29.82,3.08l2.14,.75c.07-.17,.83-1.22,.82-1.24,.17,.28-1.39,.83-1.46,.88-.18,.02-.15,.03,.07,.01,.18-.01,.37,0,.55,.03,.94,.11,1.97-.23,2.79-.67,.23-.12,1.61-.94,.95-1.28h0Z"/><path class="cls-1" d="M463.98,470.92c-3.28-4.07-7.58-6.48-12.9-5.93-1.54,.16-3.09,.65-4.41,1.47-.29,.18-2.19,1.55-1.15,1.92,3.59,1.29,7.84,1.24,11.61,1.24,4.13,0,8.28-.48,12.37-1.02,7.98-1.06,15.86-2.73,23.83-3.87,4.61-.66,9.04-1.26,13.62-1.43,1.85-.07,3.9-.77,5.42-1.82,.57-.39,2.23-1.96,.45-2.07-4.15-.24-8.26-.23-12.39,.24s-7.9,1.11-11.82,1.83c-7.84,1.44-15.74,3.12-23.41,3.63-2.32,.15-4.64,.26-6.96,.23s-4.77-.29-7.16-.34l-2.76,3.24c1.94-.55,4.67-.37,6.88,.11,2.57,.57,4.93,1.63,6.86,3.42,.35,.33,2.15-.57,1.93-.84h0Z"/><path class="cls-1" d="M391.86,466.56c.54,.28,1.1,.71,1.69,.82,1.2,.23,2.61,.05,3.84,.04,2.09-.03,4.18-.06,6.27-.09,4.25-.06,8.5-.22,12.75-.35,8.73-.27,17.45-.67,26.18-1.04,16.79-.71,33.58-1.45,50.36-2.42s34.21-2.08,51.27-3.71,33.56-3.55,50.21-6.21c4.99-.8,9.95-1.79,14.91-2.74,4.63-.89,9.29-1.78,13.87-2.93,6.74-1.69,13.78-2.55,20.37-4.81,1.8-.62,3.52-1.31,5.37-1.75,2.08-.49,4.15-1.02,6.23-1.51,2.43-.57,4.86-1.15,7.27-1.78l-6.83-2.23c-1.59,.54-3.13,1.14-4.67,1.83-.42,.19-1.59,.67-1.56,1.35,.03,.57,.97,.73,1.37,.83,2.36,.6,5.25,.14,7.54-.51,1.83-.51,3.62-1.06,5.41-1.71,.46-.17,1.75-.76,1.71-1.48-.03-.62-1.07-.8-1.51-.89-2.67-.59-5.71-.13-8.3,.59-1.91,.53-3.82,1.09-5.73,1.62-.64,.18-1.29,.35-1.94,.52-1.62,.42,1.06-.26-.57,.15-1.14,.29-2.32,.51-3.45,.86-1.56,.49,1.16-.1-.46,.12-.5,.07-1.01,.13-1.51,.2-.84,.11-1.68,.21-2.52,.32-2.76,.36-5.49,.89-8.21,1.48-4.4,.97-8.94,1.51-13.4,2.28-4.73,.82-9.49,1.49-14.24,2.22-16.42,2.53-32.86,4.8-49.39,6.54-33.29,3.51-66.57,5.59-99.92,7.63-9.72,.6-19.46,1.13-29.17,1.83-4.87,.35-9.74,.65-14.61,1.07-2.56,.22-5.12,.44-7.67,.66-1.27,.11-2.53,.23-3.79,.37-1.86,.21-3.59,.8-5.39,1.3-.21,.06-2.55,1.13-1.79,1.53h0Z"/><path class="cls-1" d="M646.58,440.29c-10.43,2.24-20.89,4.32-31.38,6.24-.32,.06-.65,.12-.97,.18,.22-.04,.9-.16-.12,.02-.8,.14-1.61,.29-2.41,.43-1.29,.23-2.57,.45-3.86,.68-2.65,.46-5.31,.91-7.97,1.36-5.23,.87-10.48,1.7-15.72,2.51-20.71,3.21-41.5,5.77-62.53,7.72-1.46,.14-2.92,.27-4.38,.4-.73,.06-1.46,.13-2.19,.19-.88,.08,.92-.08,.04,0-.41,.03-.81,.07-1.22,.1-3.08,.26-6.17,.5-9.25,.73-6.01,.45-12.02,.84-18.03,1.2-2.74,.16-6.39,.75-8.52,2.64s1.76,2.1,2.86,2.05c18.86-.93,37.73-1.58,56.6-2.49s38.88-1.86,58.32-2.9c2.64-.14,5.27-.28,7.91-.43,1.32-.07,2.63-.15,3.95-.23,.87-.05,1.74-.1,2.61-.16,1.93-.12,.49-.05,.1,0,.41-.05,.83-.05,1.24-.07,5.79-.32,11.58-.62,17.36-.99,2.14-.14,4.56-.84,6.56-1.57,1.44-.52,3.6-1.33,4.74-2.47,2.62-2.64-2.45-2.44-3.91-2.35-15.67,1-31.12,4.44-46.31,8.25-6.58,1.65-13.14,3.38-19.74,4.96-3.21,.77-6.43,1.51-9.67,2.18-.88,.18-1.76,.36-2.64,.54-.67,.13-3.52,.64-.33,.07-1.76,.31-3.53,.63-5.3,.91-1.91,.3-3.83,.57-5.76,.8-.3,.04-.59,.07-.89,.1-.3,.03-.59,.07-.89,.1,1.38-.14,1.64-.17,.79-.09-.89,.08-1.78,.17-2.67,.24-1.93,.15-3.87,.26-5.8,.32-.45,.01-.9,.02-1.34,.04-1.38,.04,1.54,.01,.04,0-1.05,0-2.1-.03-3.15-.06l-7.51,5.94c12.32-1.9,24.61-3.9,36.98-5.5,6.18-.8,12.37-1.53,18.56-2.2,1.47-.16,2.93-.31,4.4-.46,.54-.06,3.5-.32,.81-.08,.82-.07,1.63-.16,2.45-.24,3.1-.3,6.2-.58,9.31-.85,7.02-.6,14.05-1.07,21.08-1.62l7.81-6.16c-.5,.05-.99,.1-1.49,.15l-2.13,.22c1.3-.13,1.51-.16,.64-.08-.83,.07-1.66,.14-2.48,.21l-5.96,.5-10.93,.92c-7.37,.62-14.74,1.25-22.11,1.87-14.82,1.25-29.65,2.51-44.47,3.76-8.28,.7-16.56,1.41-24.85,2.1l-5.69,5.99c7.39-.98,14.76-2.11,22.09-3.41,4.24-.75,8.5-1.48,12.7-2.44,1.76-.4,3.51-.81,5.26-1.22,.96-.23,1.91-.46,2.87-.69,.48-.12,.95-.23,1.43-.35,.95-.24,4.09-.95,1.43-.36,1.7-.38,3.59-.94,5.12-1.82,.49-.28,2.03-1.15,1.84-2.03s-1.91-1.02-2.53-1.05c-1.81-.1-3.65,.15-5.41,.55,2.69-.6-.91,.18-1.45,.28-.48,.09-.97,.19-1.45,.28-.8,.15-1.61,.3-2.42,.45-1.78,.33,1.99-.36,.25-.05-.47,.08-.94,.17-1.42,.25-.79,.14-1.57,.28-2.36,.42-2.38,.41-4.74,.85-7.11,1.31-.96,.19-1.93,.37-2.9,.55-1.54,.29,1.75-.32,.64-.12-.48,.09-.97,.18-1.45,.26-7.17,1.29-14.37,2.42-21.59,3.41-2.19,.3-4.61,.87-6.64,1.75-1.18,.51-2.4,1.03-3.29,1.97-2.16,2.27,3.28,2.35,4.25,2.27,29.64-2.57,59.29-5.08,88.94-7.62,8.28-.71,16.56-1.51,24.85-2.09,2.27-.16,4.57-.58,6.74-1.26,1.48-.46,3.73-1.17,4.93-2.28,.58-.53,1.45-1.4,.45-2.07-1.15-.77-3.05-.62-4.31-.56-13.16,.62-26.3,1.88-39.4,3.25-12.56,1.31-25.09,2.89-37.58,4.74-7.75,1.15-15.49,2.38-23.19,3.85-2.44,.47-5.81,1.42-7.57,3.27-1.55,1.62,1.13,2.24,2.38,2.25,15.63,.14,30.98-2.18,46.18-5.67,13.66-3.14,27.12-7.08,40.85-9.91,.88-.18,1.78-.33,2.66-.53-2.1,.48-.53,.11-.09,.03,.59-.11,1.19-.21,1.78-.31,1.93-.33,3.87-.63,5.81-.89-.09,.01-2.09,.26-.76,.11,.6-.07,1.2-.14,1.8-.21,.98-.11,1.96-.22,2.94-.31s1.96-.17,2.94-.25c1.61-.14-1.61,.08,0,0,.6-.03,1.21-.07,1.81-.09l10.99-6.61c-19.26,.9-38.51,2.03-57.76,3.12-20.37,1.15-40.75,2.41-61.11,3.76-10.91,.72-21.82,1.55-32.73,2.19l-5.66,4.69c22-1.53,43.99-3.68,65.87-6.49,22.48-2.88,44.87-6.41,67.14-10.62,11.79-2.23,23.55-4.65,35.27-7.24,.54-.12,3.84-.8,2.88-1.9-.41-.47-1.6-.48-2.11-.49-1.13-.04-2.29,.05-3.4,.29h0Z"/><path class="cls-1" d="M520.28,475.6c-2.66,.54-5.32,.9-8.03,1.04-1.19,.06-2.38,.08-3.58,.07-1.02,0-2.64,.23-3.6-.15l-6.58,2.41c1.53,.56,3.25,.47,4.86,.48,1.88,.01,3.77,.02,5.65,.03,3.61,.02,7.22,.03,10.84,.01,7.25-.02,14.5-.14,21.74-.39,14.99-.52,29.92-1.71,44.76-3.95,8.69-1.31,17.68-2.86,25.88-6.06,.59-.23,2.51-.84,2.53-1.67s-1.7-.61-2.15-.56c-7.11,.78-14.14,2.42-21.19,3.61-1.73,.29-3.47,.58-5.21,.83,1.33-.19-.26,.04-.44,.06-.32,.05-.64,.09-.95,.13-1.03,.14-2.07,.28-3.1,.42-3.58,.47-7.17,.87-10.76,1.23-14.4,1.42-28.26,2.04-42.51,2.44-4.08,.11-8.17,.21-12.25,.3-4.54,.1-9.27-.18-13.75,.63-.89,.16-1.84,.45-2.66,.85-.29,.14-1.33,.63-1.43,1.06-.28,1.18,2.32,.67,2.79,.6,1.53-.25,3.14-.22,4.69-.37,1.63-.16,3.25-.36,4.87-.6,3.08-.46,6.16-1.04,9.2-1.71,.27-.06,1.14-.22,1.21-.56s-.68-.2-.82-.17h0Z"/><path class="cls-1" d="M601.83,472.58c-13.38,1.34-26.85,1.96-40.29,2.37-13.26,.4-26.57,.69-39.84,.38-7.05-.16-14.08-.79-20.79-3.11l-7.39,3.01c14.13,1.9,28.25,3.2,42.51,3.42s29.02-.44,43.44-1.99c8.34-.89,16.65-2.02,24.81-3.96,1.16-.28,2.34-.64,3.41-1.17,.55-.28,1.31-.62,1.65-1.15,.84-1.33-1.61-1.08-2.3-1-6.77,.78-13.5,1.89-20.26,2.73s-13.88,1.51-20.85,1.96c-13.99,.9-28.01,.86-42,.09-7.94-.44-15.88-1.02-23.77-2.03-1.85-.24-4.22,.4-5.86,1.21-.82,.4-2.39,1.34-.78,1.89,6.27,2.14,12.92,2.91,19.51,3.17,6.93,.27,13.88,.15,20.81,.07,14.05-.17,28.12-.82,42.14-1.72,7.74-.5,15.48-1.06,23.22-1.57,1.48-.1,4.44-.33,5.45-1.63s-2.34-1.02-2.83-.97h0Z"/><path class="cls-1" d="M490.71,482.89c7.41,.81,14.97,.7,22.41,.75s15.22-.13,22.82-.41c15.1-.55,30.19-1.66,45.22-3.26,9.13-.97,18.29-2.01,27.28-3.93,.64-.14,2.9-.67,3.13-1.53s-1.36-.72-1.84-.68c-7.76,.56-15.48,1.74-23.22,2.61s-14.92,1.56-22.4,2.15c-14.83,1.17-29.67,1.77-44.53,2.1-8.61,.19-17.24,0-25.85,.33-1.11,.04-2.49,.25-3.44,.89-.74,.51-.43,.89,.41,.98h0Z"/><path class="cls-1" d="M583.41,474.01c8.98-1.12,17.96-2.16,26.95-3.21,8.98-1.05,17.96-2.25,26.95-3.15,.82-.08,4.21-.46,4.4-1.62s-2.96-.95-3.47-.93c-7.67,.27-15.33,.79-22.99,1.21l.27,2.6c4.73-.86,9.44-1.88,14.09-3.12,2.36-.63,4.71-1.31,7.05-2.02,2.01-.61,4.07-1.17,5.76-2.47,1.29-.99,2.1-2.38,1.04-3.86-.49-.68-1.22-1.02-1.11-1.97,.1-.89,.92-1.72,1.45-2.39,2.26-2.86,4.92-5.44,7.86-7.6,1.58-1.17,3.28-2.19,5.03-3.09,1.97-1.02,3.39-1.61,5.39-2.26l-8.77-1.47c-5.81,2.75-10.92,6.75-15,11.71-3.91,4.75-7.5,10.71-8.38,16.88-.18,1.25,4.32,1.02,4.73,.99,1.12-.07,2.28-.19,3.36-.51,.62-.18,2.08-.46,2.34-1.12,2.28-5.68,4.65-11.09,8.61-15.84s8.62-8.36,13.97-10.98c1.9-.93-.66-1.72-1.5-1.86-2.3-.39-5.05-.36-7.27,.39-7.08,2.39-13.62,6.41-18.66,11.97-1.19,1.32-2.44,2.73-3.34,4.26-.43,.74-.86,1.65-.57,2.51s1.06,1.17,1.46,1.87c.33,.59,.18,1.19-.2,1.67-.19,.23-.4,.44-.64,.6-.15,.1-.31,.18-.46,.27-.5,.28,.37-.13-.13,.07-1.74,.67-4.13,1.36-5.46,1.75-2.37,.69-4.75,1.32-7.14,1.9-1.16,.28-2.32,.54-3.49,.8,.7-.16-.66,.14-.88,.18-.7,.14-1.41,.28-2.11,.41-.61,.12-3.77,.57-3.65,1.69s3.31,.94,3.92,.91c7.77-.46,15.55-.83,23.31-1.43l.93-2.55c-8.96,1.28-17.97,2.27-26.95,3.41s-17.96,2.29-26.95,3.36c-.68,.08-3.63,.51-3.55,1.57s3.46,.52,3.86,.47h0Z"/><path class="cls-1" d="M631.58,448.39c-7.1,1.37-14.21,2.71-21.32,4.03-7.13,1.32-14.26,2.85-21.44,3.91-.62,.09-3.47,.62-3.03,1.71s3.71,.75,4.45,.67c5.23-.51,10.46-1.49,15.64-2.39,5.04-.87,10.06-1.82,15.07-2.84,10.21-2.09,20.52-4.25,30.43-7.51,.34-.11,1.25-.52,1.24-1.04-.01-.45-.74-.59-1.05-.68-1.87-.53-4.05-.17-5.89,.25-4.97,1.11-9.9,2.41-14.85,3.61-2.35,.57-4.7,1.12-7.05,1.66-1.81,.41-4.03,.9-6.4,1.4-4.74,1-9.49,1.92-14.26,2.78s-9.56,1.46-14.3,2.38l3.64,1.99c6.42-1.6,13.44-2.84,20.1-4.22s13.85-2.85,20.78-4.23c.49-.1,2.47-.4,1.98-1.24-.44-.76-3.14-.34-3.73-.23h0Z"/><path class="cls-1" d="M682.48,432.32c4.72,1.22,9.67,1.27,14.54,1.39,5.23,.13,10.46,.21,15.69,.25,10.75,.08,21.51-.19,32.24-.57,21.6-.76,43.19-2.49,64.68-4.85,21.36-2.35,42.64-5.43,63.78-9.24s42.69-8.46,63.79-13.77,42.4-11.17,63-18.48c2.55-.91,5.1-1.82,7.64-2.74,1.05-.38,4.15-1.46,4.26-2.84s-2.71-.4-3.24-.23c-20.33,6.25-40.72,12.36-61.3,17.71s-41.29,9.99-62.16,13.93-42.2,7.24-63.45,9.81c-21.21,2.56-42.5,4.41-63.83,5.53-21.69,1.14-43.37,1.41-65.08,1.88-2.92,.06-5.77,.34-8.66,.7-.33,.04-2.54,1.37-1.88,1.54h0Z"/><path class="cls-1" d="M1049.76,372.04c-35.9,10.92-71.8,21.83-107.7,32.72-35.51,10.77-71.05,21.59-106.82,31.45-2.55,.7-4.87,1.31-6.98,1.78-2.62,.58-3.84,.84-6.49,1.15-4.35,.52-8.24,.4-12.75,.36-10.1-.09-20.13,1.09-28.96,6.4-.59,.35-2.44,1.38-2.09,2.38s2.45,.64,3.13,.52c18.69-3.42,37.33-7,55.92-10.95,19.18-4.08,38.3-8.46,57.35-13.15,18.61-4.58,37.15-9.48,55.61-14.63s37.04-10.64,55.44-16.37c22.06-6.87,44.07-13.95,66.04-21.1,3.72-1.21,7.57-2.09,11.26-3.39,.57-.2,2.57-.79,2.54-1.81s-2.05-1.54-2.63-1.68c-3.88-.95-8.66-.9-12.5,.31-24.91,7.85-49.78,15.79-74.67,23.7-25.55,8.12-51.12,16.22-76.65,24.39-13.83,4.43-27.6,9.07-41.46,13.42-1.16,.36-5.52,2.4-2.31,3.41s7.5,.21,10.64-.77c25.25-7.94,50.66-15.41,75.93-23.29,26.24-8.19,52.5-16.34,78.75-24.5,14.12-4.39,28.25-8.77,42.37-13.19l-12.58-3.17c-2.64,.93-5.19,2.14-7.8,3.16-2.81,1.1-5.64,2.13-8.47,3.15-4.36,1.57-8.72,3.14-13.1,4.65-9.06,3.12-18.17,6.07-27.31,8.96-18.17,5.75-36.45,11.15-54.79,16.35s-36.73,10.12-55.18,14.84-37.2,9.22-55.88,13.5c-9.31,2.14-18.63,4.21-27.96,6.21-1.11,.24-2.22,.48-3.33,.71-.04,0-.96,.2-.35,.07s-.31,.07-.35,.07c-.65,.14-1.3,.28-1.95,.41-2.32,.49-4.65,.98-6.97,1.46-4.82,1-10.33,2.13-14.72,3.07-1.7,.36-4.49,.92-6.61,1.33l1.04,2.9c.4-.25,.81-.49,1.22-.72-.96,.55,.37-.18,.48-.23,.19-.09,1.64-.62,.36-.17,.44-.16,.88-.32,1.32-.46-1.28,.42,.21-.04,.4-.09,.3-.08,.61-.15,.91-.23-1.04,.25,.47-.09,.56-.11,.62-.12,1.23-.23,1.86-.32,4.2-.64,7.6-.72,11.85-.89,4.64-.19,9.24-.35,13.85-.98,5.55-.75,11.04-2.03,16.44-3.49,17.5-4.72,34.84-10.1,52.21-15.28,35.51-10.6,70.96-21.42,106.31-32.54,19.43-6.11,38.85-12.28,58.27-18.45,.61-.2,1.58-.53,.78-1.08-.74-.51-2.7-.06-3.47,.17h0Z"/><path class="cls-1" d="M744.51,437.46c-.8-.17-1.53-.42-2.3-.72-1.01-.4-2.3,0-3.25,.37-.35,.14-2.51,1.01-2.11,1.67,2,3.25,6.72,3.8,10.14,4.1,5.01,.44,10.03,.78,15.05,1.17,10.29,.79,20.59,1.63,30.91,1.93,1.68,.05,3.75-.78,5.11-1.72,.58-.4,2.07-1.78,.42-1.95-9.93-1.02-19.93-1.44-29.9-1.95-5.04-.26-10.08-.51-15.12-.78-1.89-.1-3.78-.27-5.64-.64-2.06-.41-3.78-1.21-5.61-2.19l-4.34,2.4c1.05,.05,2.08,.11,3.13,.26s2.18-.23,3.05-.73c.39-.23,1.44-.99,.46-1.2h0Z"/><path class="cls-1" d="M761.87,436.95c-1.32-.05-2.65-.11-3.97-.17-.72-.03-3.05,.19-3.27-.58-.15-.51-1.11-.51-1.45-.53l-.48-.04c-1.73-.13-3.91,.62-5.36,1.51-.59,.36-2.25,1.73-.55,1.96,12.36,1.63,24.71-.17,36.93-2.06,12.75-1.98,25.49-4.07,38.22-6.17,24.75-4.09,49.45-8.48,74-13.62,14.63-3.06,29.15-6.49,43.59-10.35,1.68-.45,3.57-1.14,5.05-2.09,.49-.32,1.98-1.28,1.73-2.16s-1.96-.96-2.6-.96c-1.84-.02-3.62,.37-5.41,.8-1.43,.34-2.87,.67-4.3,1.02,2.55-.62-.29,.07-.81,.18-.79,.18-1.58,.36-2.37,.54-3.15,.72-6.31,1.42-9.48,2.12-6.08,1.34-12.13,2.77-18.21,4.09-12.08,2.63-24.2,5.08-36.35,7.4-24.42,4.66-48.91,8.91-73.41,13.08-3.4,.58-6.79,1.17-10.19,1.76-.81,.14-1.62,.28-2.43,.41-.4,.07-.81,.14-1.21,.2-.17,.03-1.71,.27-.94,.15,.9-.14-.71,.11-.71,.11-.49,.08-.98,.14-1.47,.22l-.75,.12c-.92,.15-1,.16-.25,.04-.09,.16-1.23,.19-1.5,.23-7.11,1.07-14.1,1.71-21.25,1.48l-5.2,3.53c1.23,.02,2.35-.23,3.55-.5,.95-.22,1.97-.16,2.94-.12,1.74,.08,3.48,.16,5.22,.24,.95,.05,2.19-.31,2.94-.89,.62-.48,.56-.91-.29-.94h0Z"/><path class="cls-1" d="M797.86,437.23c-4.59-2.22-9.88-1.7-14.33,.62-.44,.23-1.56,.65-1.58,1.3s.79,.7,1.28,.72c8.64,.44,17.51-.79,26-2.32,8.99-1.62,17.94-3.5,26.88-5.36,17.38-3.61,34.76-7.28,52.09-11.13,9.74-2.16,19.5-4.29,29.18-6.71l-1.11-4.71c-17.87,4.53-35.89,8.48-53.83,12.72-16.49,3.9-32.95,7.93-49.49,11.59-.54,.12-1.08,.24-1.63,.35-.36,.07-2.22,.43-.79,.17s-.43,.06-.79,.12c-.23,.03-.47,.07-.7,.1-.23,.03-.47,.06-.7,.09l1.03-.11c-.48,.15-1.16,.07-1.66,.08-.22,0-.49-.03-.71,.01h-.85c-.89-.01-1.78-.02-2.66-.01-2.94,.02-5.92,.37-8.77,1.1-3.47,.89-7.17,2.13-9.85,4.61s2.18,2.77,3.64,2.65c14.93-1.26,29.82-2.78,44.64-4.94,14.4-2.1,28.71-4.69,42.96-7.67,3.66-.76,7.29-1.56,10.91-2.52,2.34-.62,4.69-1.2,6.97-1.99,.28-.1,.56-.2,.84-.29,.64-.22,1.28-.45,1.92-.69-.79,.3-.86,.33-.22,.11,.87-.26,1.72-.58,2.58-.87,.69-.23,3.78-1.11,3.5-2.35s-3.45-.73-4.17-.63-1.5,.22-2.24,.32c-.1,.01-1.5,.34-.55,.1,1.25-.31-1.19,.13-1.68,.19-1.53,.18-3.04,.4-4.55,.68-3.74,.69-7.47,1.38-11.19,2.16-1.44,.3-2.87,.6-4.31,.89-1.58,.32,.94-.18-.64,.12-.32,.06-.64,.13-.96,.19-.88,.17-1.76,.34-2.63,.51-3.12,.6-6.24,1.18-9.37,1.75-14.24,2.58-28.56,4.73-42.93,6.5-7.27,.9-14.56,1.7-21.86,2.31l3.64,2.65c.23-.2,1.23-.94,.02-.08l.31-.17c-.65,.38-1.34,.69-2.06,.91l-1.41,.39c.83-.19,.47-.12-1.08,.2,1.43-.22-1.95,.1-.5,.04,1.64-.07,3.28-.03,4.91-.1,5.07-.22,10.13-1.18,15.06-2.33,7.95-1.85,15.88-3.79,23.83-5.66,17.31-4.07,34.64-8.09,51.96-12.13,9.06-2.11,18.07-4.38,27.17-6.35,1.83-.4,3.91-1.08,5.54-2.04,.52-.31,2.19-1.27,1.97-2.22s-2.09-1.08-2.76-1.11c-1.98-.09-3.94,.24-5.87,.66-17.04,3.67-33.99,7.77-50.99,11.63s-33.72,7.65-50.62,11.24c-.55,.12-1.11,.23-1.66,.35-1.15,.24,.02,.02,.2-.04-.3,.1-.64,.13-.96,.19-.56,.11-1.12,.22-1.68,.33-.24,.05-.48,.09-.72,.14l-1.6,.33c.71-.15,.84-.17,.39-.08-2.34,.47-4.68,.92-7.02,1.32-1.21,.21-2.43,.4-3.64,.58-.57,.08-1.14,.16-1.7,.24-.24,.03-.49,.06-.73,.1-.28,.04-.32,.04-.13,.02,.51-.06,.15-.02-1.08,.12-1.18,.17-1.87,.26-2.88,.37-1.37,.16-2.75,.28-4.12,.41l1.75,1.26c.32-.24,.88-.5,.07-.17,.2-.08,2.32-.84,1.14-.39-.84,.33-.15,.06,.09,.03,1.41-.17,2.71,.19,3.98,.81,.7,.34,1.7,.08,2.4-.17,.15-.05,1.71-.76,1.12-1.05h0Z"/><path class="cls-1" d="M895.03,424.22c-3.22,.83-6.53,1.36-9.79,2.04-1.45,.3-2.91,.59-4.36,.89-.8,.16-1.6,.33-2.4,.49-.4,.08-.8,.16-1.2,.24-.31,.06-.32,.06-.03,0-.24,.05-.47,.09-.71,.14-.95,.18-1.9,.38-2.85,.57,.84-.17-.72,.14-.7,.14-.32,.06-.63,.12-.95,.18-1.58,.3-3.17,.6-4.75,.89-3.17,.57-6.35,1.12-9.53,1.63-12.37,2.01-24.8,3.55-37.25,4.94-7.12,.79-14.25,1.51-21.39,2.2-1.34,.13-2.86,.47-4.11,.99-.69,.29-1.57,.6-2.04,1.21-1.14,1.48,1.72,1.64,2.6,1.58,27.31-1.73,54.7-5.08,81.54-10.46,7.43-1.49,14.84-3.1,22.21-4.87,1.25-.3,2.61-.68,3.73-1.33,.41-.24,1.44-.83,1.34-1.49-.24-1.57-5.14-.52-5.79-.39-25.63,5.36-51.47,9.74-77.51,12.64-7.31,.81-14.64,1.49-21.97,2.12l-2.24,3.68c26.47-3.17,52.99-6.09,79.12-11.5,3.42-.71,6.81-1.51,10.19-2.39s6.87-2.07,10.33-3.01c.4-.11,2.04-.43,1.6-1.1-.39-.6-2.63-.15-3.11-.03h0Z"/><path class="cls-1" d="M810.53,425.09c17.57,1.05,34.95-2.25,52.02-6.11,17.63-3.99,35.22-8.12,52.82-12.23,17.64-4.12,35.27-8.29,52.9-12.49,18.24-4.35,36.47-8.71,54.68-13.17,17.68-4.32,35.34-8.77,52.94-13.42,2.19-.58,4.38-1.16,6.57-1.74,.88-.23,3.51-.96,3.69-2.07s-2.21-.48-2.65-.38c-35.14,8.23-70.17,16.9-105.25,25.37-35.01,8.46-70.06,16.77-105.15,24.91-19.38,4.5-39.03,9.17-59.05,9.01-1.09,0-2.22,.38-3.13,.99-.34,.23-1.46,1.25-.38,1.31h0Z"/><path class="cls-1" d="M1081.24,359.95c-3.51,1.47-7.28,2.44-10.88,3.68s-7.2,2.48-10.8,3.73c-7.1,2.47-14.2,4.96-21.27,7.51-14.01,5.03-27.99,10.15-41.86,15.55-7.69,2.99-15.35,6.05-22.99,9.16-.81,.33-.74,.77,.09,.95,1.07,.23,2.39,.04,3.41-.34,28.29-10.29,56.54-20.7,84.88-30.86,3.83-1.37,7.66-2.74,11.5-4.1,1.99-.71,4-1.39,5.99-2.11s3.81-1.53,5.77-2.1c.74-.21,2.29-.83,.77-1.33-1.3-.43-3.38-.27-4.63,.25h0Z"/><path class="cls-1" d="M718.25,429.15c-5.08-.63-10.36-.99-15.35-2.14l-2.31,1.52c5.63,.28,11.34-.27,16.96-.74,5.99-.5,11.98-1.11,17.95-1.81,12.14-1.42,24.23-3.28,36.28-5.32,23.72-4.02,47.29-8.91,70.84-13.78,23.67-4.89,47.32-9.89,70.95-14.97,23.75-5.11,47.48-10.3,71.18-15.64,23.79-5.36,47.54-10.82,71.23-16.63,2.95-.72,5.89-1.45,8.84-2.17,.45-.11,2.47-.64,2.44-1.3-.03-.72-1.27-.4-1.72-.3-23.5,5.2-46.98,10.46-70.46,15.71-23.47,5.25-46.96,10.46-70.46,15.55-23.63,5.12-47.28,10.15-70.95,15.08-23.38,4.87-46.77,9.81-70.26,14.11s-47.76,7.74-71.89,9.78c-3.1,.26-6.16,.51-9.24,.92-.54,.07-3.38,1.48-1.67,1.51,5.47,.1,10.98,.84,16.42,1.36,.37,.04,1.72-.68,1.24-.73h0Z"/><path class="cls-1" d="M1036.55,371.18c-20.98,5.25-42.11,9.94-63.25,14.51-21.03,4.55-42.11,8.88-63.23,12.99-21.23,4.13-42.5,8.03-63.82,11.7s-42.73,7.15-64.15,10.39c-21.51,3.25-43.06,6.37-64.65,9-2.61,.32-5.24,.55-7.86,.77-1.19,.1-3.3,.45-4.2,1.39-.76,.8-.04,1.21,.88,1.29,32.9,2.9,65.97,2.14,98.86-.59,33.26-2.76,66.32-7.54,99.23-13.08,18.34-3.09,36.65-6.32,54.93-9.74,2.04-.38,4.73-.93,6.34-2.39,1.29-1.18-.19-1.78-1.41-1.8-22.36-.26-44.61,2.34-66.64,5.95-9.83,1.61-19.62,3.42-29.42,5.17-4.9,.88-9.79,1.75-14.7,2.58-1.02,.17-2.04,.34-3.06,.51l-.61,.1c.86-.14,.45-.07-1.23,.2-.61,.1-1.22,.2-1.83,.3-2,.33,1.11-.17-.9,.15-.61,.1-1.23,.2-1.84,.29-1.43,.22-2.87,.44-4.3,.65-10.99,1.62-21.97,3.11-32.81,3.51-1.06,.04-2.19,.21-3.2,.52-.35,.11-1.64,.48-1.83,.95-.51,1.27,2.57,1.13,3.1,1.11,10.12-.38,20.16-.99,30.22-2.23s19.96-2.83,29.89-4.54,19.63-3.53,29.46-5.21c2.25-.39,4.5-.76,6.75-1.13-1.22,.2,.8-.13,.84-.13,.61-.1,1.23-.2,1.84-.29,1.43-.22,2.86-.44,4.3-.66,4.7-.7,9.41-1.36,14.13-1.92,11.38-1.35,22.83-1.95,34.29-1.49l4.93-4.19c-32.46,5.74-64.86,11.8-97.5,16.49-32.25,4.64-64.71,8.04-97.3,8.97-18.47,.52-36.98,.32-55.43-.79l-2.3,2.53c11.11-1.84,22.31-3.15,33.46-4.71s21.48-3.05,32.21-4.65c21.46-3.21,42.89-6.65,64.28-10.32,21.62-3.71,43.2-7.67,64.73-11.86,21.38-4.16,42.72-8.55,64.01-13.17,21.14-4.59,42.23-9.41,63.28-14.41,2.65-.63,5.3-1.22,7.95-1.83,.59-.14,1.41-.47,.73-.98s-2.42-.11-3.13,.07h0Z"/><path class="cls-1" d="M758.58,431.2c-1.9-.69-3.84-1.16-5.84-1.42-1.69-.21-3.49-.14-5.15-.46l-3.43,2.42c3.48-.55,6.97-.83,10.11-1.29,3.48-.51,6.95-1.04,10.43-1.54,6.82-.98,13.61-2.05,20.42-3.11,13.8-2.15,27.56-4.47,41.34-6.77,28.84-4.8,57.68-9.57,86.5-14.45,7.59-1.28,15.19-2.54,22.76-3.92,11.2-2.03,22.29-4.47,33.44-6.74,.55-.11,2.54-.71,2.55-1.66,0-.85-1.24-1.24-1.84-1.46-3.38-1.24-7.65-1.31-11.16-.73-6.62,1.1-13.12,2.95-19.69,4.32s-13.34,2.76-20,4.13c-12.58,2.59-25.16,5.18-37.74,7.78-25,5.15-49.99,10.38-74.98,15.57-7.43,1.54-14.85,3.12-22.27,4.71-1.68,.36-3.37,.73-5.05,1.09-.96,.21-1.92,.41-2.89,.62-.32,.07-.64,.15-.96,.21,1.38-.23-1.14,.25-1.44,.31-3.54,.78-7.08,1.56-10.62,2.34-.68,.15-4.83,.89-3.65,2.31,.49,.6,1.99,.65,2.62,.69,1.42,.08,2.86,0,4.26-.26,26.25-4.93,52.44-10.18,78.64-15.36,25.5-5.04,50.97-10.18,76.46-15.29,7.18-1.44,14.36-2.88,21.54-4.32,1.83-.37,3.65-.73,5.48-1.1,.41-.08,.82-.17,1.22-.24,.44-.09,.33-.06-.33,.07l1-.18c1.84-.34,3.68-.68,5.52-1.01,4.62-.85,9.29-1.56,13.86-2.67l-12.27-3.41c-1.78,.57-3.56,1.19-5.36,1.68-.79,.21-1.58,.4-2.37,.6-.53,.13-1.78,.39,.37-.08-.48,.1-.96,.22-1.44,.33-3.44,.77-6.89,1.49-10.35,2.18-.19,.04-1.23,.25-.42,.09-.4,.08-.81,.15-1.21,.22-.81,.15-1.62,.3-2.43,.44-1.78,.32-3.56,.64-5.33,.95-3.38,.59-6.77,1.16-10.15,1.74-13.86,2.36-27.71,4.79-41.58,7.14-13.78,2.34-27.55,4.72-41.33,7.1-7.4,1.28-14.8,2.56-22.21,3.84-1.65,.28-3.29,.57-4.94,.85-1.28,.22-2.56,.44-3.84,.67,2-.36,.27-.05-.11,.02l-1.48,.26c-1.65,.29-3.3,.58-4.95,.87-.82,.15-1.65,.29-2.47,.44-.49,.09-.99,.17-1.48,.26-.41,.07-3.58,.66-1.49,.27-1.99,.37-3.97,.73-5.96,1.09-.41,.08-.83,.15-1.24,.23-.61,.11-3.8,.64-1.74,.31-.99,.16-1.98,.36-2.98,.54-4.14,.75-8.3,1.47-12.42,2.31-.49,.1-.98,.2-1.47,.3,1.73-.35-2.22,.44-.55,.11-1,.2-1.99,.38-2.99,.57-1.99,.38-3.99,.76-5.98,1.14-4.15,.79-7.98,1.76-12.04,2.49-.5,.09-4.39,.85-4.01,2.02s3.82,.17,4.49-.06c1.45-.51,3.31-.35,4.84-.2,1.87,.18,3.7,.58,5.5,1.12,.58,.17,1.4-.08,1.93-.32,.28-.13,.92-.49,.35-.7h0Z"/><path class="cls-1" d="M705.1,433.2c6.02,.86,12.14,1.05,18.2,1.41,6.21,.36,12.43,.68,18.64,.95,12.64,.55,25.27,1.1,37.91,1.65,7.41,.32,14.77,.62,22.19,.26,1.6-.08,3.35-.66,4.66-1.57,.57-.4,1.85-1.54,.39-1.76-6.14-.93-12.32-1.09-18.52-1.29s-12.69-.39-19.03-.59c-12.81-.4-25.61-.89-38.43-1.11-7.46-.13-14.94-.4-22.4-.08-1.13,.05-2.32,.33-3.29,.93-.37,.23-1.37,1.07-.33,1.22h0Z"/><path class="cls-1" d="M790.97,436.6c-7.99,1.75-16.52,.29-24.57-.39-8.73-.73-17.47-1.4-26.21-2.06-1.92-.14-4.28,.62-5.9,1.6-.7,.42-2.45,1.82-.62,2.15,15.5,2.76,31.08,4.81,46.77,6.2l6.91-4.77c-20.47-.46-40.74-4.38-60.93-7.46-5.38-.82-10.79-1.6-15.92-3.49l-8.67,4.64c16.88,2.42,34.04,5.65,50.94,8.88,4.91,.93,9.81,1.91,14.7,2.91,2.43,.5,5.4-.27,7.56-1.41,.91-.48,3.72-2.39,1.27-2.95-16.9-3.82-33.89-7.03-51-9.78-4.93-.79-9.86-1.53-14.8-2.28-2.73-.42-5.75,.15-8.23,1.37-1.24,.61-3.88,2.2-1.46,3.12,4.62,1.74,9.48,2.62,14.33,3.4,5.14,.82,10.29,1.63,15.44,2.42,10.5,1.63,21,3.3,31.57,4.39,6.09,.62,12.17,1,18.29,1.02,2.58,0,5.53-.81,7.65-2.32,.48-.34,1.43-1,1.21-1.7s-1.44-.71-1.96-.74c-15.51-1.04-31.01-2.75-46.37-5.09l-6.52,3.74c9.55,.51,19.11,1,28.67,1.43s19.15,1.51,28.16-1.7c.29-.1,1.32-.47,1.23-.94-.09-.45-1.3-.23-1.54-.17h0Z"/><path class="cls-1" d="M782.24,434.09c-7.89-.24-15.83-.3-23.7,.3-2.04,.15-4.79,.67-6.33,2.15s1.34,1.61,2.2,1.56c15.73-.97,31.47-2.18,47.21-2.85,2.34-.1,5.28-.68,7.21-2.1,.37-.27,1.11-.73,.98-1.32-.16-.72-1.44-.77-1.93-.84-9.17-1.18-19.27,.92-27.55,4.93-.7,.34-3.24,1.36-2.48,2.49s3.67,.63,4.7,.52c-.7,.07-.73,.07-.07,0,.66-.07,1.32-.13,1.98-.2,.48-.05,.95-.1,1.43-.15,1.11-.12,2.23-.24,3.34-.37,2.22-.26,4.45-.53,6.66-.84,4.45-.63,8.89-1.36,13.32-2.17,9.37-1.72,18.61-3.84,27.85-6.15,1.7-.42,3.67-.97,5.18-1.91,.61-.38,1.74-.96,1.77-1.77,.08-2.13-4.98-1.3-5.98-1.17-7.46,.97-14.89,2.13-22.35,3.14-3.58,.49-7.17,.96-10.75,1.41-1.8,.23-3.59,.45-5.39,.66-.49,.06-.98,.11-1.47,.17-1.75,.2,1.77-.2,.02,0-.98,.11-1.96,.22-2.94,.32-7.34,.78-14.7,1.4-22.07,1.79-3.75,.2-7.52,.36-11.28,.4,1.77-.02,.09,0-.23,0-.41,0-.82,0-1.22,.01-.9,0-1.8,0-2.69,0-1.96,0-3.92-.02-5.88-.08-8.36-.28-16.74-.89-25.04-1.99l-4.55,5.71c.64-.14,1.28-.26,1.91-.41-2.53,.61-.56,.12,.02,0,1.2-.24,2.4-.47,3.6-.7,2.24-.42,4.49-.81,6.75-1.16s4.51-.69,6.78-.98c.59-.08,1.35-.31,1.94-.25-1.04,.13-1.28,.16-.72,.09,.24-.03,.49-.06,.73-.09,1.22-.14,2.44-.29,3.67-.42,4.65-.51,9.32-.89,13.99-1.14,1.15-.06,2.29-.12,3.44-.17,.82-.03,1.64-.06,2.46-.09,1.66-.06-1.27,.02,.39-.01,2.47-.05,4.94-.08,7.41-.07,3.36,.01,7.32-.84,10.11-2.8,.62-.44,1.92-1.22,1.66-2.16s-1.88-.99-2.53-1c-21.18-.39-42.18,1.85-62.87,6.33-2.26,.49-5.39,1.53-6.89,3.38-1.38,1.7,1.1,2.17,2.34,2.33,30.92,4.11,62.48,1.2,93.22-3.1,8.5-1.19,16.99-2.43,25.45-3.88l-1.02-4.3c-.54,.16-2.67,.52-.34,.11-.47,.08-.94,.25-1.4,.38-1.09,.29-2.19,.57-3.28,.85-2.03,.52-4.07,1.02-6.11,1.5-4.32,1.02-8.66,1.95-13.02,2.8-1.84,.36,1.15-.21-.3,.06-.48,.09-.96,.18-1.44,.27-1.12,.21-2.24,.41-3.35,.6-2.16,.38-4.32,.72-6.48,1.07-4.43,.7-8.86,1.36-13.31,1.88l3.38,2.44c-.87,.43,.06-.02,.24-.1,.34-.15,.68-.3,1.02-.44,.15-.06,1.32-.53,.54-.23s.4-.14,.56-.19c.35-.12,.71-.22,1.06-.33,.75-.25-.99,.22,.36-.09,.36-.08,.73-.15,1.09-.24,.83-.21-1.51,.23-.05,0,.73-.11,1.48-.29,2.22-.3-.46,0-.73,.06-.1,.02,.37-.02,.75-.05,1.12-.06s.75-.02,1.12-.03c-.84,.03,.17,0,.33,0,.85,.02,1.7,.06,2.55,.12l6.25-4.25c-16.01,1.4-32.09,2.29-48.12,3.4l-4.13,3.71c7.78-.64,15.54-1.19,23.35-1.13,1.65,.01,3.52-.44,4.91-1.36,1.07-.71,.96-1.48-.42-1.52h0Z"/><path class="cls-1" d="M1080,361.42c.18,.13,.36,.27,.52,.43l-.06-.63c-.23,.4-.42,.72-.13,1.12,.18,.25,.34,.52,.47,.81,.23,.51,.43,1.12,.48,1.68s-.02,1.11-.17,1.64c-.03,.12-.07,.23-.11,.35-.02,.07-.05,.14-.08,.21,.05-.11,.05-.11,0-.02-.12,.25-.26,.49-.41,.72-.07,.11-.14,.21-.22,.32-.13,.18-.19,.22-.01,.02-.21,.24-.43,.47-.65,.7-.32,.32,.29-.25,.05-.05-.1,.09-.21,.18-.31,.27-.13,.11-.26,.21-.39,.31-.42,.33,.55-.37,.07-.05s-.98,.64-1.47,.95c-.44,.27,.07-.03,.22-.13-.14,.09-.28,.17-.42,.25-.28,.16-.56,.31-.84,.46-.58,.31-1.27,.75-1.7,1.25-.2,.24-.52,.57-.44,.91,.21,.87,1.96,.21,2.41,0,3.23-1.49,6.59-3.39,8.66-6.38,.73-1.04,1.2-2.31,1.12-3.59-.05-.77-.2-1.49-.64-2.13-.19-.29-.42-.55-.66-.79-.12-.12-.29-.33-.45-.42-.36-.19-.92-.09-1.3-.06l.66,.06c-.18-.14-.37-.27-.57-.38-.94-.56-4.53,1.5-3.62,2.16h0Z"/><path class="cls-1" d="M1065.18,371.01c5.69,.83,11.8-1.01,16.81-3.64,2.6-1.36,5.87-3.06,7.25-5.79,1.03-2.04,.23-4.91-2.39-4.97-1.32-.03-2.77,.57-3.85,1.29-.67,.44-2.04,1.29-1.79,2.26,.48,1.83,.37,3.77-.23,5.57-.28,.83-.7,1.58-1.2,2.29-.15,.22-.49,.69-.75,1.03-.08,.11-.31,.34-.41,.42-.39,.32-1.36,1.15-.67,1.63s2.25-.26,2.83-.58c2.77-1.53,5.08-3.46,6.34-6.43,.97-2.29,1.17-4.75,.45-7.14l-5.64,3.55c1.37,0,1.76,2.02,1.19,3.04-.04,.07-.26,.38-.25,.36-.23,.3-.07,.09-.24,.23-.04,.04-.52,.39-.27,.22,.29-.2-.39,.25-.45,.29-.24,.15-.48,.3-.73,.44-.49,.29,.4-.21-.11,.06s-1.01,.53-1.52,.77c-.05,.02-.63,.28-.38,.17,.31-.13-.48,.2-.55,.23-.48,.2-.97,.39-1.45,.57-.79,.28-1.83,.58-2.8,.81-2.16,.51-4.43,.8-6.63,1-.87,.08-1.87,.59-2.49,1.19-.35,.33-.85,1-.04,1.12h0Z"/><path class="cls-1" d="M1086.03,365.96c.82-.39,1.84-.91,2.15-1.85,.19-.57,.17-1.46-.3-1.89-.81-.75-2.3-.26-3.21,.04-1.72,.57-3.28,1.62-4.45,2.99-3.07,3.59-5.06,8.38-6.38,12.87-2.52,8.63-2.57,18.02-.69,26.78,.52,2.43,1.21,4.82,2.06,7.16s1.76,5.63,3.86,7.13c1.45,1.03,4.85-.62,6.06-1.33,.9-.52,1.77-1.11,2.56-1.8,.45-.4,1.91-1.83,1.77-2.64-.17-1.01-.12-2.02-1.17-2.5-1.99-.91-5.11,1.22-6.47,2.4s-2.09,2.4-3.11,3.93l10.75-3.83c-.11-1.95-1.43-3.65-2.23-5.4-.75-1.62-1.4-3.28-1.97-4.97-1.12-3.36-1.93-6.83-2.35-10.35-.82-6.9-.18-14.05,1.64-20.75,.48-1.76,.89-3.53,1.44-5.27,.27-.85,.53-1.71,.81-2.56,.04-.13,.12-.28,.14-.41,0-.08,.04-.14,.1-.18l-3.55,1.74s.33,.21,.34,.21c.47,.05-.39,.66,.37-.07-1.27,1.24,1.25,.83,1.82,.56h0Z"/><path class="cls-1" d="M1095.55,350.47c.16-.11,.89,.19,.29-.22-.22-.15-.5-.19-.74-.3-.66-.3-1.25-.72-1.54-1.39-.65-1.52-1.12-2.75-.75-4.43,.88-4.02,4.52-6.6,7.37-9.26,7.04-6.57,14.09-13.11,21.28-19.52,14.34-12.78,28.97-25.24,43.96-37.25,4.24-3.4,8.5-6.76,12.79-10.1,2.11-1.64,4.24-3.28,6.36-4.9,1.06-.81,2.13-1.62,3.19-2.44,.5-.38,1-.76,1.5-1.15,.75-.58,1.16-1.19,1.69-1.96,.68-.99-1.71-1.15-2.02-1.15-1.67,0-3.43,.49-4.92,1.23-2.58,1.3-4.75,3.05-7.03,4.82-2.05,1.59-4.1,3.19-6.14,4.8-4.02,3.17-8.02,6.37-12,9.6-8.01,6.52-15.93,13.15-23.74,19.9s-15.39,13.51-22.92,20.46-15.08,13.73-22.06,21.11c-2.77,2.92-6.75,7.82-3.65,11.86,1.04,1.36,3.41,2.45,5.13,2.58,1.89,.14,4.38-.87,5.56-2.4,.52-.67-1.43-.03-1.61,.1h0Z"/><path class="cls-1" d="M631.65,406.87c-.55,.46-1.18,1.01-1.38,1.73-.15,.55,.06,1.28,.15,1.83,.21,1.33,.37,2.66,.5,3.99,.25,2.58,.53,5.13,.52,7.72-.03,5.26-.89,10.29-2.09,15.4-.47,1.99,3.36,1.36,4.25,1.12,2.01-.55,4.5-1.55,5.38-3.59,.51-1.19,.78-2.36,.67-3.66-.09-.99-2.51-.6-2.9-.52-1.38,.28-3.06,.89-4.06,1.94-1.17,1.24-2.23,2.57-3.04,4.07l9.32-1.83c1.36-5.4,1.52-11.3,.97-16.82-.27-2.73-.71-5.44-1.52-8.07-.37-1.2-.69-3.19-1.8-3.9-1.42-.9-3.74-.44-4.98,.59h0Z"/><path class="cls-1" d="M652.07,409.51c-.45-.7-1.3-1.97-1.01-2.86,.44-1.33-2.25-1.05-2.84-.94-1.32,.25-3.21,.86-3.82,2.2-.54,1.19-.18,2.64-.03,3.9s.26,2.54,.32,3.82c.12,2.48,.06,4.97-.12,7.44s-.52,4.97-1.01,7.42c-.24,1.23-.53,2.45-.85,3.66s-.85,2.38-.97,3.58l9.65-2.64c-.05-.93-.11-1.87-.16-2.8-.04-.6-1.31-.79-1.64-.81-.87-.07-1.75,.1-2.59,.33-1.43,.39-3.72,1.19-4.24,2.77-.34,1.05-.68,2.1-1.02,3.15-.63,1.95,3.33,1.48,4.17,1.29,2.01-.46,4.53-1.35,5.48-3.35,1.04-2.19,1.26-5.09,1.56-7.47,.32-2.52,.48-5.06,.47-7.6s-.15-4.96-.48-7.42c-.17-1.27-.38-2.54-.63-3.8s-.43-2.64-1.49-3.43l-5.78,2.91c.86,.27,1.66,1.3,2.13,2.02,.91,1.37,5.48-.41,4.88-1.35h0Z"/><path class="cls-1" d="M656.94,407c-.61,.4-1.46,.91-1.62,1.66-.13,.61,.06,1.37,.08,2.01,.05,1.37,.03,2.74,.11,4.11,.15,2.71,.06,5.41-.23,8.11s-.72,5.23-1.38,7.8-1.45,5.37-2.75,7.73l9.33-2.1c-.05-1.85,.45-3.6,1.33-5.2,.53-.97-.1-1.43-1.09-1.5-1.38-.11-3.08,.37-4.22,1.15-2.81,1.94-5.17,4.83-5.68,8.29-.29,1.98,3.12,1.49,4.19,1.23,1.78-.43,4.81-1.38,5.47-3.39,.9-2.72,1.93-5.35,2.54-8.16s1-5.89,1.04-8.86c.03-2.8-.03-5.87-.76-8.59-.19-.7-.43-1.39-.67-2.08-.21-.6-.4-1.51-.79-2.02-.96-1.25-3.73-.95-4.9-.18h0Z"/><path class="cls-1" d="M669.11,404.4c.29,2.08,.85,4.13,1.21,6.2s.57,4.24,.63,6.38,0,4.33-.24,6.46-.49,4.27-1.22,6.19l11.44-2.74c-.34-.46-.52-.96-.68-1.5-.07-.23-.13-.43-.16-.66-.01-.11,.08-.72,0-.31,.48-2.87-5.95-.9-7.01-.38-2.48,1.2-5.41,4.08-3.3,6.86,.53,.69,2.38,.78,3.07,.77,1.31-.02,2.59-.25,3.85-.62,1.71-.51,4.49-1.46,4.58-3.57s.55-4.32,.58-6.51-.13-4.25-.47-6.36c-.66-4.14-1.81-8.57-4.22-12.06-.34-.49-1.6-.63-2.08-.65-.9-.04-1.8,.06-2.68,.26s-3.51,.87-3.32,2.23h0Z"/><path class="cls-1" d="M658.16,456.79c.36,.42,.73,1.15,1.17,1.44,.64,.43,1.76,.64,2.5,.88,1.72,.57,3.44,1.15,5.18,1.66,3.35,.98,6.68,2.03,9.99,3.13,6.55,2.19,13.05,4.58,19.44,7.22,13.16,5.45,26.06,11.69,38.39,18.83,12.45,7.21,24.34,15.37,35.68,24.22,5.98,4.67,11.7,9.68,17.83,14.15,3.08,2.25,6.2,4.3,9.66,5.91,3.9,1.81,8.02,3.19,12.16,4.37,7.56,2.14,15.15,4.12,22.78,5.97,8.24,1.99,16.41,4.23,24.71,5.97,2.33,.49,4.6,.87,6.97,1.04,1.77,.13,4.05-.89,5.32-2.1,.68-.65,2.23-2.58,.81-3.35-3.48-1.9-7.49-3.03-11.3-4.1-4.02-1.13-8.06-2.17-12.08-3.27-7.35-2-14.81-3.96-21.93-6.69-3.49-1.34-5.83-2.45-9.28-4.46-3.14-1.83-6.14-3.9-9.2-5.85-6.38-4.07-12.2-8.94-18.14-13.61-11.46-9.01-23.58-16.99-36.32-24.07-12.78-7.1-26.1-13.33-39.89-18.24-7.29-2.6-14.66-4.95-22.11-7s-14.53-3.8-21.92-4.87c-.93-.13-1.86-.25-2.8-.33-1.25-.12-2.54,.17-3.79,.32-1.01,.12-1.98,.52-2.79,1.14-.29,.23-1.48,1.18-1.03,1.7h0Z"/><path class="cls-1" d="M665.38,461.38c-1.03-.83-1.98-1.72-2.95-2.62-.9-.85-2.24-1.78-2.81-2.89l-4.75,2.39c.64,1.83,2.87,2.63,4.48,3.54,1.75,.99,3.49,1.98,5.22,3.01s3.51,1.96,5.31,2.87,3.44,2.02,5.28,2.83c7.85,3.43,15.79,6.54,23.89,9.35,16.23,5.64,32.59,11.41,47.82,19.45,4.24,2.24,8.39,4.64,12.4,7.26,2.13,1.39,4.41,2.45,6.66,3.62,2.41,1.26,4.77,2.55,7.22,3.73,2.27,1.09,5.18-.03,7.21-1.15,1.06-.58,2.23-1.31,2.98-2.28,.49-.62,1.38-1.79,.83-2.62-2.3-3.44-5.35-6.72-8.51-9.41-1.6-1.36-3.58-2.41-5.37-3.51s-3.67-2.2-5.55-3.24c-7.58-4.21-15.48-7.83-23.51-11.09-16.86-6.84-34.3-12.2-51.77-17.2-2.51-.72-4.98-1.48-7.55-1.96s-5.05-1.37-7.58-2-5.08-1.3-7.58-2.08c-1.19-.37-2.39-.73-3.57-1.13-1.58-.53-2.93-.73-4.6-.72-1.09,0-2.41,.73-3.15,1.49-.49,.51-.99,1.34,.03,1.58,1.48,.34,2.97,1.25,4.34,1.9s2.66,1.25,3.96,1.96c.46,.25,2.14-.64,1.62-1.06h0Z"/><g><path class="cls-2" d="M327.31,471.15c-7.02,1.95-17.32,2.11-21.58-4.89-1.41-2.31-2.1-5.4-.77-7.91,.95-1.79,2.63-2.94,4.35-3.92,3.76-2.15,7.62-4.14,11.44-6.19,15.1-8.08,30.3-15.94,45.62-23.59,30.76-15.37,61.95-29.89,93.52-43.53,31.95-13.8,64.29-26.69,96.97-38.66,32.29-11.83,64.91-22.75,97.82-32.75,32.9-10,66.08-19.1,99.5-27.18,4.16-1.01,8.28-2.05,12.38-3.28,.13-.04,.09-.59-.01-.57-8.76,1.53-17.37,3.89-25.99,6.08s-17.27,4.45-25.89,6.77c-17.23,4.62-34.39,9.5-51.47,14.62-34.17,10.25-68.04,21.49-101.56,33.7-33.53,12.22-66.71,25.41-99.48,39.54-32.89,14.19-65.37,29.33-97.36,45.43-15.94,8.02-31.76,16.27-47.46,24.75-3.52,1.9-7.88,3.56-10.83,6.3-1.7,1.58-2.54,3.69-2.41,6.01,.34,5.79,5.39,9.68,10.79,10.47,4.28,.62,8.24-.64,12.44-1.01,.06,0,.03-.19,0-.18h0Z"/><path class="cls-2" d="M756.37,286.57c.85-1.63,2.04-3.15,3.04-4.69,1.06-1.64,2.13-3.27,3.2-4.9,2.11-3.19,4.26-6.35,6.45-9.5,4.38-6.3,8.9-12.52,13.5-18.65,9.28-12.37,19.11-24.33,29.46-35.82,2.58-2.86,5.19-5.7,7.83-8.51,2.44-2.59,4.81-5.36,7.65-7.52,2.41-1.83,5.53-3.64,8.68-3.19,3.76,.54,5.28,4.12,5.46,7.51,.21,3.92-.19,7.93-.33,11.85-.16,4.22-.31,8.44-.47,12.65-.31,8.42-.66,16.83-1.01,25.25-.33,7.75-1.26,15.79,.43,23.44,.73,3.33,2.03,6.48,4.18,9.15,1.75,2.17,4.34,4.67,7.16,5.3,1.52,.34,2.92,.05,4.36-.48,.38-.14,.46-1.47,.04-1.61-1.55-.53-2.98-1.31-4.46-2-1.38-.65-2.67-1.28-3.88-2.24-2.58-2.05-4.43-4.82-5.62-7.88-1.39-3.59-1.69-7.47-1.77-11.28-.08-4.12,.15-8.26,.27-12.38,.26-8.54,.54-17.09,.84-25.63,.15-4.22,.3-8.44,.45-12.66,.14-3.81,.5-7.69,.29-11.49-.14-2.6-.66-5.45-2.64-7.31-2.19-2.05-5.21-1.97-7.84-.9-2.99,1.21-5.54,3.34-7.75,5.63-2.68,2.78-5.32,5.59-7.93,8.43-10.52,11.44-20.53,23.35-29.99,35.68-9.49,12.37-18.31,25.23-26.56,38.47-1.04,1.67-1.94,3.54-3.1,5.11-.04,.05,.01,.21,.04,.16h0Z"/><path class="cls-2" d="M853.19,293.79c.99-.03,2,.26,2.98,.39s1.99,.28,2.98,.43c1.99,.29,3.98,.58,5.96,.89,3.97,.61,7.94,1.27,11.91,1.9,7.93,1.26,15.83,2.64,23.72,4.15,15.77,3.01,31.48,6.44,47,10.54s30.96,8.75,46.28,13.67c15.28,4.91,30.42,10.3,45.37,16.14,14.95,5.85,29.72,12.16,44.28,18.94,.91,.43,1.73,.54,2.71,.71,.93,.16,1.82,.55,2.71,.87,.08,.03,.2-1.01,0-1.12-.92-.53-1.87-1.02-2.71-1.67-.78-.6-1.49-1.25-2.38-1.66-1.82-.84-3.64-1.67-5.47-2.49-3.65-1.64-7.32-3.26-10.99-4.85-7.35-3.18-14.76-6.24-22.21-9.18-14.97-5.92-30.13-11.36-45.44-16.34s-30.62-9.26-46.15-13.1-31.32-7.39-47.13-10.39-31.56-5.48-47.48-7.32c-.92-.11-1.83-.21-2.75-.31-1.06-.12-2.19-.09-3.21-.37-.03,0-.05,.18,0,.18h0Z"/><path class="cls-2" d="M1073.49,345.05c-1.94-1.66-2.91-4.9-3.27-7.32s-.32-4.79,.29-7.08c1.31-4.92,5.2-8.41,9.18-11.3,9.46-6.87,19.26-13.31,28.87-19.97,19.52-13.53,39.03-27.08,58.51-40.69,11.04-7.72,22.08-15.43,33.12-23.15l-.48-3.01c-6.82,11.87-11.9,24.66-15.04,37.98l.51-.45c-5.54-2.96-10.21,4.79-12.85,8.42-4.34,5.98-8.69,11.95-13.04,17.93-8.74,12.01-17.46,24.03-26.18,36.05s-17.39,23.89-26.07,35.85c-3.75,5.17-8.36,10.4-9.83,16.78-.8,3.45-.58,7.08-.1,10.56,.5,3.66,1.11,7.3,1.68,10.95,2.57,16.46,4.66,32.98,7.14,49.45l1.83-4.57c-2.72-1.66-5.17-3.72-7.51-5.88s-4.5-4.29-6.58-6.38c-4.17-4.19-8.04-9.15-11.28-14.2-.35-.54-.69-1.1-1.03-1.64l-.2-.33c.45,.76,.32,.54-.4-.67-.2-.32-.4-.64-.6-.96s-.39-.65-.59-.97c-.67-1.1,.5,.89-.13-.22-.37-.66-.75-1.32-1.11-1.99-1.44-2.67-2.74-5.41-3.88-8.22-.52-1.27-1.03-2.55-1.5-3.84-.13-.35-.25-.7-.38-1.06-.44-1.26,.41,1.29,.02,.02-.22-.71-.44-1.43-.65-2.14-.4-1.37-.76-2.75-1.09-4.13-.16-.66-.31-1.32-.45-1.98-.09-.44-.23-1.72,.03,.2-.07-.49-.18-.98-.27-1.46-.28-1.59-.5-3.19-.68-4.79-.04-.37-.07-.74-.11-1.11-.12-1.19,.12,1.75,0-.11-.05-.71,0-1.48-.11-2.17l-.04,1.11c.01-.21,.03-.42,.06-.63-.17,1.01-.19,1.2-.07,.58,.04-.21,.1-.43,.15-.64l-.2,.68c.06-.21,.14-.41,.23-.6,.11-.32,.24-.66,.33-.98,.25-.93-.45,.52,.09-.23,.1-.17,.22-.34,.34-.5-.22,.21-.2,.19,.06-.04,.6-.47,.86-.39,1.62-.71l-1.04,.03,.27,.09c1.75,.61,2.24-2.15,2.33-3.37s.06-2.48-.29-3.65c-.19-.64-.51-1.9-1.22-2.15-.64-.22-1.1-.63-1.82-.74-.68-.11-1.33,.09-1.95,.36-1.45,.64-2.41,2.16-2.95,3.57-1.5,3.89-1.45,8.08-1.16,12.18,.53,7.46,1.83,14.79,4.12,21.92,4.16,12.95,11.26,24.73,21.4,33.86,2.55,2.3,5.25,4.58,8.23,6.27s6.23,3.14,9.34,4.73c1.93,.98,1.97-3.74,1.83-4.57-2.4-13.91-5.2-27.74-7.52-41.67-.6-3.58-1.19-7.16-1.8-10.74-.56-3.32-1.28-6.68-1.49-10.04-.42-6.85,3.87-12.1,7.67-17.34,16.77-23.12,33.51-46.27,50.26-69.4,4.67-6.45,9.34-12.91,14.01-19.37,2.24-3.1,4.32-6.51,6.95-9.3,1.99-2.1,5.01-4.4,7.97-2.82,.3,.16,.46-.21,.51-.45,3.1-13.15,8.08-25.81,14.82-37.51,.24-.42,.22-3.51-.48-3.01-20.59,14.44-41.21,28.85-61.75,43.36-10.22,7.22-20.43,14.45-30.65,21.67-5.11,3.62-10.22,7.24-15.32,10.87-4.77,3.39-9.74,6.63-14.3,10.3-4.25,3.42-7.59,7.66-8.32,13.19-.33,2.46-.17,4.89,.61,7.25,.36,1.08,.82,2.14,1.35,3.14,.58,1.1,1.39,2.02,2.05,3.06,.03,.04,.08-.12,.02-.17h0Z"/><path class="cls-2" d="M775.54,458.4c.82-2.93-.09-6.64-2.28-8.74l-.07,3.31c20.14-1.15,40.21-3.38,60.13-6.55s39.51-7.15,59.06-11.71,39.28-9.76,58.77-15.23c19.53-5.48,38.93-11.4,58.42-17.05,9.61-2.79,19.36-4.98,29.04-7.53,4.82-1.27,9.67-2.43,14.52-3.58s9.87-2.67,14.78-4.07c1.06-.3,2.28-.48,3.29-.93,1.4-.62,2.43-2.52,3.38-3.7,.51-.64,.75-3.15-.09-3.64-.96-.56-2.12-1.59-3.23-1.72s-2.75,.69-3.83,1.02c-2.37,.72-4.74,1.44-7.11,2.16-4.89,1.49-9.68,3.24-14.49,4.98s-9.86,3.31-14.76,5.07-9.63,3.57-14.48,5.23c-9.57,3.27-19.34,6.01-29.03,8.91s-19.37,5.76-29.08,8.56c-19.47,5.61-39.02,10.94-58.71,15.74-19.61,4.78-39.36,9.03-59.25,12.46-19.88,3.43-39.9,6.1-60.01,7.69-2.46,.19-4.92,.37-7.39,.53-.95,.06-.52,2.89-.07,3.31,1.66,1.57,2.65,3.04,2.48,5.45,0,0,.01,.07,.02,.03h0Z"/><path class="cls-2" d="M778.06,435.39c-4.41,7.25-14.72,6.38-22.01,6.33-10.37-.07-20.74-.14-31.05-1.33-5.03-.58-10.04-1.41-14.96-2.61s-9.9-3.17-14.89-4.76c-2.39-.77-4.86-1.29-7.39-1.17s-5.01,.79-7.38,1.67c-4.15,1.54-8.13,3.6-11.86,5.97-8.38,5.32-15.53,12.47-20.88,20.83-.09,.14-.11,.66,.08,.73,2.4,.81,4.87-.35,6.02-2.55,.04-.07,0-.4-.07-.31-1.21,2.03-3.78,2.82-5.98,2.08l.08,.73c4.86-7.61,11.23-14.21,18.66-19.35,3.77-2.6,7.8-4.84,12.02-6.62,4.85-2.04,9.76-3.14,14.96-1.8,2.44,.63,4.78,1.59,7.15,2.44s4.81,1.6,7.26,2.25c5.04,1.34,10.18,2.28,15.35,2.94,10.21,1.3,20.52,1.5,30.8,1.52,7.79,.02,19.46,.97,24.09-6.91,0-.01,0-.08-.01-.06h0Z"/><path class="cls-2" d="M649.41,462.82c1.01,.02,2.07,.44,3.05,.71,1.08,.29,2.15,.59,3.22,.9,2.02,.58,4.03,1.19,6.03,1.82,4.07,1.29,8.1,2.69,12.09,4.19,8.11,3.04,16.11,6.36,23.98,9.96,15.61,7.14,30.74,15.27,45.86,23.41,15.09,8.13,30.22,16.24,45.75,23.53,15.14,7.11,30.58,13.53,46.68,18.16,8.08,2.32,16.29,4.18,24.6,5.41,4.01,.59,8.02,1.95,12.08,1.99,1.5,.01,3.62,.16,4.92-.77,.66-.48,1.12-1.65,1.41-2.39,.58-1.47,.78-2.59,.76-4.18-.02-1.2,.02-3.41-1.51-3.69-.58-.11-.33,2.18-.23,2.44,.52,1.53-.41-1.1,.42-1.61,.31-.19-.1,.11-.21,.34l.46-.45c-.32,.02-.78,.32-1.11,.41-.91,.24-1.4,.94-2.15,1.51-1.45,1.1-2.98,1.92-4.81,2.13-3.91,.44-7.98,.21-11.87-.26-7.94-.95-15.85-2.43-23.59-4.43-15.68-4.05-30.88-9.88-45.55-16.69s-29.58-14.72-44.18-22.45c-14.56-7.71-29.22-15.32-44.23-22.12-14.75-6.69-29.88-12.49-45.6-16.47-.95-.24-1.89-.47-2.84-.7-1.1-.26-2.39-.4-3.42-.87-.04-.02-.05,.18,0,.18h0Z"/><path class="cls-2" d="M771.72,443.94c1.46-.18,3.03,.09,4.5,.18l-.02-.31c-2.95,2.23-3.87,6.1-3.51,9.64,.44,4.28,2.87,7.93,5.77,10.98,3.81,4.01,8.22,7.51,12.37,11.16,4.48,3.93,8.99,7.82,13.52,11.68,18.07,15.41,36.85,29.98,55.16,45.1,5.07,4.19,10.43,8.03,15.56,12.15,1.02,.82,2.05,1.7,2.8,2.78,.12,.17,.87,1.25,.71,1.42l-.03-.55v.06s-.3,.65-.27,.61c-.48,.84-1.52,1.58-2.5,1.64-.5,.03-1.01-.07-1.44-.32-.14-.08-.26-.17-.38-.28-.1-.08-.19-.18-.26-.29-.19-.2-.12-.3,.22-.3,.16-.24,.09-1.73-.16-1.51-2.49,2.15,1.09,8.74,4.21,6.5,1.82-1.31,2.07-4.12,1.98-6.15-.11-2.61-1.12-4.85-3.02-6.65-2.05-1.94-4.52-3.51-6.78-5.19-2.44-1.82-4.88-3.64-7.32-5.47-4.96-3.73-10.02-7.34-14.97-11.09-19.72-14.92-38.77-30.75-57.86-46.46-2.64-2.17-5.28-4.34-7.88-6.56-2.23-1.9-4.44-3.9-6.19-6.27-3.55-4.81-4.73-12.05,.3-16.33,.04-.04,.06-.31-.02-.31-1.47,.02-3.05,.2-4.5-.04-.04,0-.04,.19,0,.18h0Z"/><path class="cls-2" d="M310.16,473.34c1.28-.21,2.69-.03,3.99,0l3.99,.09,7.98,.19c5.32,.13,10.63,.23,15.95,.31l32.15,.45,63.8,.89c5.98,.08,11.96,.15,17.94,.22l8.97,.1c3.05,.03,6.2,.31,9.21-.18,.08-.01,.07-.34,0-.36-2.62-.49-5.32-.35-7.98-.39l-7.98-.11c-5.32-.07-10.63-.15-15.95-.2l-32.15-.32-63.8-.64c-5.98-.06-11.96-.12-17.94-.12h-13.45c-1.54,0-3.23,.18-4.74-.1-.04,0-.04,.19,0,.18h0Z"/><path class="cls-2" d="M423.72,482.11c7.83,2.94,16.18,3.79,24.48,4.09s17.32,.36,25.98,.5c17.61,.28,35.22,.4,52.83,.24,17.68-.16,35.33-.73,52.99-1.4s35.04-1.82,52.5-3.75c4.36-.48,8.71-1,13.06-1.56s8.68-1.4,13.03-1.74c1.05-.08,2.09-.19,3.14-.25,1.15-.07,2.27,.24,3.39,.19,2.16-.11,4.37-.35,6.51-.63,.93-.12,1.32-.49,1.76-1.32s.79-1.78,1.03-2.71c.05-.18,.28-1.26,.12-.67,.1-.37,.23-.72,.3-1.1,.16-.85,.21-1.72,.08-2.58-.06-.4-.12-1.1-.49-1.36-.42-.3-.61,.03-1.01,.11-.67,.13-.4,2.87,.07,2.78,.17-.03,.49,.26,.57,.23s-.12-2.44-.05-2.41c.01,0-.17,.12-.18,.11-.37-.13-.78-.16-1.16-.29-.73-.25-1.25,.03-2.01,.23-1.12,.28-2.24,.56-3.36,.84-.94,.23-1.98,.36-2.88,.69-1.15,.41-2.15,1.02-3.35,1.32-2.08,.51-4.14,.97-6.26,1.3-8.28,1.3-16.58,2.44-24.89,3.45-16.71,2.02-33.5,3.63-50.29,4.87-16.89,1.25-33.85,1.75-50.77,2.16-16.86,.41-33.74,.57-50.6,.79-8.42,.11-16.84,.21-25.25,.28-7.89,.06-15.87-.03-23.61-1.76-1.93-.43-3.84-.98-5.71-1.63-.13-.04-.25,.9,.02,1h0Z"/><path class="cls-2" d="M433.95,476.56c-1.32-.16-2.42-.42-3.77-.29-1.25,.11-2.51,.19-3.75,.34s-2.94,.58-3.43,1.95-.03,2.98,1.22,3.69c1.81,1.02,4.16,1.47,6.15,2.02,9.56,2.64,19.34,3.37,29.2,2.39,.17-.02,.15-.72-.02-.71-8.21,.27-16.49-.63-24.5-2.45-1.97-.45-3.92-.96-5.85-1.54-1.04-.31-2.07-.65-3.1-1-.77-.26-1.73-.48-2.32-1.08-.36,.09-.36,0,0-.3,.1-.1,.21-.19,.33-.27,.34-.27,.75-.44,1.16-.59,.69-.24,1.42-.32,2.15-.42,1.09-.15,2.19-.3,3.28-.46,1.19-.18,2.15-.69,3.26-1.09,.04-.01,.04-.18,0-.18h0Z"/><path class="cls-2" d="M440.11,457.33c.18-.17,.65-.15,.89-.22s.48-.18,.69-.31c.23-.14,.41-.31,.61-.48,.15-.13,.35-.19,.51-.31,.2-.16,.23-1.48-.1-1.43-.72,.11-.72,1.29-.7,1.83,.03,.8,.22,1.77,.89,2.29,.51,.39,1.25,.36,1.84,.21,.7-.18,1.36-.57,1.85-1.11,1.32-1.47,1.41-3.94,.59-5.67-.55-1.16-1.9-2.22-3.24-2.12-1.57,.12-2.33,1.55-2.54,2.96-.16,1.11-.1,2.3,.25,3.37,.2,.63,.57,1.27,1.13,1.64,1.14,.76,2.45-.3,2.93-1.35s.54-2.2,.41-3.3c-.07-.57-.2-1.14-.48-1.64-.17-.32-.39-.62-.77-.63-1.44-.05-2.05,1.68-2.21,2.83-.17,1.23-.11,2.6,.43,3.74,.28,.58,.71,.97,1.33,1.13,.15-.03,.25-.12,.3-.27,.2-.35,.4-.68,.5-1.08s.14-.77,.28-1.14l.81-2.1c.11-.28,.12-.6,.07-.89-.01-.07-.13-.58-.28-.41l-1,1.17c-.05,.06-.1,.14-.17,.17-.12,.06-.24,.04-.36,.12-.26,.16-.41,.6-.55,.86l.3-.27s-.26-.08-.14-.03c-.07-.03-.14-.07-.21-.12s-.12-.1-.18-.15c-.03-.03-.05-.06-.08-.08,.06,.06,.1,.15,.03,.03-.03-.05-.15-.31-.06-.09,.13,.31-.1-.36,.02,.05,.07,.26,.03,.11,.02,.04-.03-.17,.06,.36,.05,.29-.03-.26,.02,.35,.02,.31-.01-.16,.03-.43,0,.24,.01-.26-.08,.5-.01,.12,.04-.23-.12,.39-.01,.06,.01-.04,.03-.08,.04-.12,.04-.18,0,.14-.04,.11-.01-.01,.1-.21,.11-.23,.04-.08,.16-.23,.03-.07,.05-.06,.1-.13,.16-.19,.12-.12,.25-.23,.4-.31,.09-.05-.09,.03,0,0,.04-.01,.07-.03,.11-.04,.08-.02,.16-.04,.24-.05,.07,0,.19-.03,.25,0,.1,.04-.08-.01,.03,.03,.06,.02-.04-.09,.02,.03,0-.01,.07,.13,.07,.13,0,0-.13-.28-.04-.08,.04,.09,.05,.27-.04-.15-.04-.2-.06-.41-.06-.62,0,.14-.03,.3,0-.25,0,0,.06-.46,.02-.2-.02,.16-.08,.03,.03-.14-.03,.05-.04,.13-.06,.19-.04,.15,.1-.19,.02-.06-.03,.04-.04,.1-.07,.14-.04,.08-.09,.16-.14,.24,.08-.13-.07,.09-.11,.13-.09,.1-.18,.19-.28,.27-.3,.25-.62,.37-1.02,.37-.21,0-.32-.04-.5-.16-.08-.06-.16-.12-.23-.19-.04-.03-.07-.07-.1-.1-.11-.1,.02,.05-.03-.03-.06-.08-.11-.17-.16-.25-.14-.24,.06,.18-.03-.08-.11-.3,.04,.24,0,.02-.05-.24,.02,.17,.02,.18,0-.04,0-.08-.01-.12-.01-.14,0-.05,.02,.26,0-.12,.02-.31,0,.22,0-.12,.06-.21-.02,.17,.01-.05,.02-.11,.02-.16,.02-.16,.07-.01-.03,.11,.03-.03,.16-.39,.02-.1,.04-.09,.08-.19,.13-.28,.02-.03,.18-.27,.09-.15,.06-.08,.13-.16,.21-.23,.15-.15,.33-.28,.52-.38,.82-.39,1.89-.22,2.63,.28,.18,.12,.34,.26,.49,.42,.06,.06,.09,.11,.15,.19,.03,.05,.06,.1,.09,.14,0,.02,.13,.26,.05,.08,.03,.08,.12,.4,.05,.12,.01,.05,.02,.18,0,0,0-.12-.02-.24-.02-.36-.01-.29-.02,.18,0-.06s-.03,.15,0-.02c.03-.15-.11,.31-.06,.21-.46,1.12-1.62,1.93-2.82,2-.44,.02-.83-.03-1.1-.39-.07-.09-.11-.2-.18-.29,.03,.05,0,.11,0,0,0,.09,.04,.19,.05,.28,0,.12-.02,.24-.01,.36,0,.09,0,.01,0-.03,.07-.15,.12-.31,.2-.46l-.34-.99c-.13,.64-.42,1.12-.92,1.54-.19,.16-.4,.31-.63,.43-.19,.1-.66,.39-.89,.24-.05-.03-.03,.21,0,.18h0Z"/><path class="cls-2" d="M443.87,447.34c-.59-.07-1.18-.45-1.77-.57s-1.24-.15-1.86-.1c-1.22,.1-2.41,.53-3.46,1.17-2.05,1.26-3.42,3.33-3.63,5.74-.49,5.51,4.11,10.24,9.45,10.7,3.54,.31,7.05-.94,9.73-3.23,.07-.06,.03-.39-.04-.34-4.31,3.02-10.43,4.41-14.97,1.07-2.12-1.56-3.71-4-3.99-6.64s1.04-5.23,3.19-6.8c1.06-.77,2.31-1.31,3.61-1.5,1.13-.16,2.86-.14,3.74,.68,.02,.02,.07-.17,0-.18h0Z"/><path class="cls-2" d="M441.45,446.7c.91-.63,2.58-.36,3.57-.08,1.13,.32,2.17,.92,3.06,1.67,1.96,1.66,3.35,4.14,3.68,6.7,.7,5.53-4.36,9.56-9.29,10.55-2.76,.56-5.63,.38-8.26-.6-.04-.01-.07,.25,0,.28,5.05,1.97,11.52,1.12,15.29-3.01,3.45-3.78,3.15-9.41-.25-13.14-.94-1.03-2.09-1.87-3.4-2.36-.67-.25-1.37-.4-2.09-.43-.77-.03-1.58,.3-2.31,.23-.05,0-.03,.21,.01,.18h0Z"/><path class="cls-2" d="M310.12,459.98c.13,3.66,4.35,4.33,7.34,4.18,3.18-.17,6.4-.86,9.55-1.31l9.88-1.41c13.59-1.95,27.17-4.03,40.75-6.05,27-4.02,54-8.04,81-12.05,15.23-2.27,30.47-4.5,45.69-6.87,.05,0,.04-.22,0-.21-26.2,3.71-52.36,7.72-78.54,11.62-26.26,3.91-52.52,7.82-78.78,11.72-7.33,1.09-14.65,2.22-21.98,3.35-2.96,.46-6.07,1.27-9.08,1.13-2.13-.1-6.38-.98-5.77-4.04,.02-.1-.06-.2-.06-.04h0Z"/><path class="cls-2" d="M480.23,431.86c1.96-.54,4.24-.46,6.27-.64s4.18-.38,6.27-.58c4.26-.41,8.51-.83,12.77-1.28,8.43-.89,16.84-1.85,25.25-2.94,16.73-2.16,33.42-4.65,50.05-7.46s33.37-5.97,49.96-9.45c16.51-3.46,32.95-7.24,49.31-11.33,8.22-2.06,16.42-4.2,24.6-6.42,1.76-.48,3.67-.8,5.33-1.57,.91-.42,1.7-1.05,1.85-2.08,.09-.6,0-1.27-.59-1.59-.5-.27-1.46-.23-1.79,.3-.19,.32-.1,.7,.05,1.02,.04,.1,.1-.28,.06-.37-.2-.45,.74-.44,.95-.42,.77,.1,1.37,.47,.78,1.4-.82,1.3-3.21,1.6-4.55,1.96-3.74,1.03-7.48,2.04-11.22,3.03-7.65,2.03-15.31,3.99-23,5.88-15.37,3.78-30.8,7.28-46.29,10.5-30.83,6.4-61.89,11.68-93.09,15.83-8.8,1.17-17.62,2.28-26.44,3.31-4.33,.5-8.67,.99-13,1.45-2.25,.24-4.5,.47-6.75,.7s-4.59,.77-6.75,.57c-.05,0-.03,.19,0,.18h0Z"/><path class="cls-2" d="M692.84,395c-.91-2.17,2.21-3.49,3.77-3.07s2.6,1.74,3.35,3.03c1.75,3.01,2.73,6.61,3.19,10.04,.93,6.91-.47,14.04-3.92,20.09-.02,.04,0,.24,.04,.18,4.02-6.88,5.22-15.2,3.48-22.96-.42-1.86-1.01-3.68-1.76-5.42-.71-1.63-1.58-3.41-3.11-4.43-2.15-1.44-5.55-.18-5.08,2.66,.02,.11,.06-.06,.04-.11h0Z"/><path class="cls-2" d="M719.37,427.55c23.43,4.47,47.4,2.27,70.75-1.66,23.81-4.02,47.46-9.17,71.04-14.31,23.57-5.13,47.08-10.55,70.54-16.16,23.47-5.61,46.88-11.43,70.28-17.3,23.52-5.91,47.08-11.71,70.48-18.08,2.88-.78,5.75-1.56,8.63-2.35,.09-.02,.05-.37,0-.36-23.43,5.72-46.76,11.86-70.13,17.84-23.5,6.01-47.03,11.89-70.6,17.6-23.45,5.68-46.95,11.19-70.5,16.42s-47.06,10.3-70.71,14.76-47.36,7.77-71.13,4.87c-2.89-.35-5.77-.81-8.64-1.34-.01,0-.02,.07,0,.07h0Z"/><path class="cls-2" d="M744.76,383c23.55-4.08,47.22-7.55,70.95-10.44s47.31-5.14,71.05-6.77c23.86-1.64,47.76-2.65,71.66-3.02,23.79-.37,47.59-.12,71.37,.76,23.9,.89,47.77,2.41,71.58,4.56,2.96,.27,5.92,.55,8.88,.83,.08,0,.1-.49-.01-.5-23.8-2.3-47.66-3.97-71.55-5s-47.57-1.43-71.36-1.2-47.82,1.09-71.68,2.58c-23.75,1.48-47.46,3.59-71.09,6.33-23.76,2.75-47.44,6.17-71.01,10.24-2.93,.51-5.86,1.02-8.79,1.55-.02,0-.01,.07,0,.07h0Z"/><path class="cls-2" d="M421.51,431.14c9.97-5.34,20.99-9.3,31.45-13.58,10.2-4.17,20.46-8.16,30.79-11.99,20.84-7.73,41.94-14.76,63.24-21.1,42.43-12.63,85.67-22.55,129.36-29.68s87.47-11.43,131.52-12.97,88.59-.27,132.67,3.85c44.08,4.13,87.89,11.1,131.05,20.97,5.37,1.23,10.73,2.46,16.08,3.75,.02,0,.03-.13,0-.14-42.93-10.77-86.7-18.35-130.69-23.18s-88.33-6.81-132.59-5.97c-44.47,.85-88.88,4.54-132.88,11.06s-87.19,15.73-129.79,27.8c-42.23,11.96-83.69,26.63-124.01,43.97-5.39,2.32-10.71,5.04-16.21,7.05-.06,.02-.03,.2,.01,.18h0Z"/><path class="cls-2" d="M622.58,414.67c-.07-1.39,.03-2.81,.06-4.2,0-.38,.27-1.95,.01-2.24,.21,.25,.31,1.56,.39,1.84,.8,2.85,1.37,5.76,1.7,8.71s.46,5.63,.35,8.46-.31,5.89-1.16,8.63l1.01-.02c-.34-.88-.3-1.86-1.08-2.5l.3,.57c-.15-.63,.27-1.48,.52-2.05,.08-.18-.05-1.17-.27-.83-1.5,2.33-1.84,5.54-.26,7.88,.63,.94,.98-.87,1.02-1.19,.32-2.7,.77-5.37,.92-8.09s.11-5.29-.09-7.93-.58-5.02-1.12-7.48c-.29-1.32-.63-2.63-1.02-3.93-.3-1-.54-1.98-1.18-2.81-.08-.11-.11,.14-.11,.18,.09,2.28,.12,4.7-.06,6.98,0,.1,.07,.16,.06,.02h0Z"/><path class="cls-2" d="M634.54,403.13c0-.34,.12-.44,.35-.32,.34,.05,.56,.28,.66,.68,.15,.31,.19,.72,.27,1.05,.18,.8,.33,1.6,.48,2.4,.29,1.62,.55,3.25,.74,4.89,.34,2.97,.44,5.99,.37,8.99s-.38,5.85-.92,8.73-1.7,5.6-2.64,8.36c-.74,2.18-.72,5.02,.18,7.16,.23,.56,.65,1.47,1.38,1.45s1.09-1,1.31-1.52c.87-2.04,.88-4.37,1.44-6.5,.51-1.96,1-3.91,1.58-5.85,.16-.55,.2-1.24,0-1.78-.1-.27-.39-.81-.67-.33-.77,1.31-1.57,2.54-2.46,3.76-.33,.45-.73,.75-1.13,1.14-.75,.74-1.21,1.45-1.62,2.46l2.87,7.09c1.57-4.83,2.22-10.03,2.73-15.06,.47-4.67,.54-9.44,.02-14.11-.47-4.21-1.31-8.42-2.68-12.44-.27-.79-1.07-2.93-2.21-1.67-.39,.43-.58,1.22-.05,1.58,.04,.02,.06-.15,.01-.18h0Z"/><path class="cls-2" d="M648.04,399.23c.56,1.12,.33,2.38,.61,3.57,.19,.8,.44,1.59,.65,2.39,.4,1.53,.75,3.08,1.01,4.64s.43,3.09,.5,4.65c.03,.71,.05,1.42,.06,2.14,0,.43,0,.86,0,1.29,0-.03-.02,1.15,0,.71-.18,5.72-1.23,11.21-3.59,16.69l.88-.71-.71-.05,2.42,4.75-.18-1.69-.05,2.18c.26-1.27,.54-2.53,.83-3.79,.08-.34-.15-3.14-.84-2.13-.35,.52-.69,1.05-1.08,1.54l.69-.26-1.78-.61c-1.19-.41-1.88,2.78-1.98,3.29-.43,2.19-.27,4.44,.16,6.61l.05,.24c.15,.73,.56,2.26,1.44,2.47s1.33-.76,1.56-1.48c.6-1.96,1.48-3.84,2.08-5.81s1.12-4.02,1.54-6.05c.89-4.27,1.24-8.62,1.19-12.98-.05-4.03-.59-7.99-1.44-11.92-.38-1.75-.85-3.48-1.4-5.19-.29-.89-.58-1.8-.96-2.65-.12-.27-.27-.67-.45-.9-.36-.47-.93-.45-1.16-1.1-.03-.08-.06,.1-.03,.14h0Z"/><path class="cls-2" d="M664.55,393.48c.97,1.55,1.57,3.47,2.15,5.2,.54,1.61,1.05,3.23,1.44,4.88,.33,1.39,.62,2.81,.82,4.22,.24,1.72,.3,2.42,.33,4.03,0,.33,0,.66,0,.99-.01-.9-.02,.34-.02,.42-.04,.71-.08,1.41-.14,2.12-.01,.13-.12,1.3-.07,.78,.06-.56-.07,.47-.08,.57-.12,.76-.26,1.51-.42,2.25-.04,.17-.31,1.24-.1,.44-.08,.3-.17,.61-.25,.91-.2,.66-.41,1.32-.65,1.97-.13,.36-.27,.71-.41,1.06-.41,1.06,.29-.47-.22,.48-.17,.31-.35,.62-.5,.94-.25,.52,.11,.04-.25,.28l2.1,11.62c1.81-2.69,1.62-6.14,1.24-9.21l-.07,2.9c.24-1.32,.46-2.62,.87-3.9,.29-.91,.61-1.81,.82-2.74,.05-.23-.04-2.21-.55-1.77-.82,.71-1.32,1.79-2.07,2.58h.53l-1.19-.55c-1.35-.6-1.83,.7-2.29,1.73-.16,.32-.29,.65-.38,.99-.96,2.86-.9,6.82,.47,9.52,.38,.75,.85,1.48,1.77,1.21,1.11-.33,1.45-2.16,1.64-3.09,.12-.58,.13-.63,.03-.14,.07-.2,.15-.4,.21-.6,.16-.47,.31-.95,.47-1.42,.26-.79,.51-1.57,.73-2.37,.53-1.94,.99-3.9,1.29-5.89,.64-4.27,.79-8.57,.32-12.87-.39-3.53-1.14-7.14-2.59-10.4-.59-1.34-1.25-2.69-2.09-3.89s-1.99-2.23-2.83-3.44c-.04-.05-.05,.12-.03,.16h0Z"/><path class="cls-2" d="M677.11,390.78c.87,1.74,1.29,3.79,1.93,5.63,.61,1.74,1.2,3.44,1.61,5.24,.74,3.25,1.35,6.47,1.73,9.78,.04,.35,.08,.71,.11,1.06,.01,.14,.1,1.31,.05,.56,.06,.84,.09,1.68,.1,2.52,0,.42,0,.84,0,1.26,0,1.38,.06-.9-.01,.46-.04,.82-.1,1.65-.17,2.47-.04,.41-.08,.82-.13,1.23,.1-.79-.03,.18-.07,.44-.12,.79-.28,1.58-.47,2.36,.2-.83-.08,.58,.13-.21-.11,.42-.93,1.91-.27,.77s-.3,.31-.49,.63c-.55,.94-.8,1.98-.98,3.04l4.48,1.48c-.09-.6-.2-1.21-.32-1.8l.03,.74c.15-.05,.18-1.23,.21-1.43,.15-1.14,.23-2.28,.31-3.43,.02-.27-.27-2.41-.78-1.55-.71,1.2-1.24,2.44-1.8,3.72l.8-.96c-.31-.01-.62-.05-.92-.12-1.28-.27-1.89,2.69-2.02,3.35-.38,1.95-.33,3.99,.02,5.94,.21,1.18,.52,3.12,1.67,3.82,1.29,.79,1.93-.88,2.32-1.77,.52-1.19,.64-2.51,.73-3.79l.03-.45c.03-1.97,.04-2.28,.05-.92-.04-.05,.04-1.54-.02-.48,.05-.86,.23-1.73,.33-2.59,.21-1.85,.4-3.7,.47-5.55,.18-4.22,.06-8.47-.55-12.66-.53-3.7-1.43-7.49-2.99-10.9-.66-1.45-1.41-2.9-2.17-4.3-.39-.72-.84-1.45-1.37-2.08s-1.13-.97-1.59-1.64c-.04-.05-.05,.12-.04,.14h0Z"/><path class="cls-2" d="M766.69,441.11c-2.31-.14-4.5-.42-6.77-.86s-4.51-.92-6.78-1.2-4.5-.14-6.75-.15-4.5-.04-6.75-.11c-8.92-.26-17.83-1.03-26.66-2.25-8.9-1.23-17.73-2.81-26.48-4.83-4.11-.95-8.22-1.36-12.32-.14-3.69,1.1-7.13,3-10.36,5.05-1.8,1.14-3.64,2.31-5.3,3.64-1.82,1.45-3.47,3.18-5.1,4.84-3.24,3.31-6.54,6.87-9.08,10.76-.85,1.3-.75,3.63-.65,5.06,.05,.81,.16,1.6,.38,2.38,.12,.44,.4,1.6,.89,1.79,5.37,2.12,10.66,4.46,16.11,6.38,2.73,.96,5.49,1.82,8.29,2.57,1.38,.37,2.76,.76,4.2,.7,1.58-.07,2.94-.99,4.41-1.52,1.04-.37,.89-3.64,.09-4.21-.75-.53-1.52-.98-2.16-1.63-.58-.59-1.21-1.01-1.94-1.39-1.32-.68-2.73-1.03-4.17-1.36-2.79-.64-5.56-1.38-8.3-2.23s-5.31-1.78-7.9-2.87c-2.83-1.19-5.41-2.58-8-4.22l.24,9.75c2.63-3.05,5-6.28,7.79-9.21s5.88-5.77,8.83-8.62,6.16-5.77,9.88-7.51,7.86-2.2,12.01-1.64,8.59,1.79,12.88,2.69,8.68,1.71,13.07,2.32c8.75,1.22,17.56,1.98,26.39,2.29,4.93,.17,10.02,.48,14.94,.11,2.54-.19,4.99-1.06,7.43-1.73,2.56-.71,5.06-1.45,7.66-2.02,.15-.03,.13-.63-.02-.64h0Z"/><path class="cls-2" d="M661.23,469.39c.33,.07,.67,.39,.94,.56,.24,.15,.48,.29,.72,.42,.46,.25,.94,.47,1.42,.66,1.12,.45,2.31,.77,3.52,.87,2.32,.19,4.64-.21,6.75-1.18,.05-.02,.01-.22-.01-.21-2.09,.91-4.38,1.27-6.64,1.06-1.09-.1-2.18-.28-3.23-.6-.62-.19-1.22-.42-1.8-.7-.55-.26-1.27-.57-1.66-1.05-.04-.05-.08,.16-.01,.17h0Z"/><path class="cls-2" d="M657.72,469.79c1.85,1.13,3.65,2.41,5.65,3.26s3.87,1.66,5.81,2.49c4.02,1.74,8.03,3.52,12.04,5.29s7.62,3.57,11.51,5.16,7.8,3.23,11.69,4.87c16.41,6.95,32.68,14.27,48.78,21.92,15.42,7.33,30.67,14.98,45.78,22.93,14.01,7.37,28.13,14.8,43.22,19.74,7.36,2.41,14.95,4.21,22.67,4.97,3.82,.38,7.83,.64,11.63-.05,2.81-.51,5.4-3.25,5.46-6.12,.02-.94,.06-2.3-1.07-2.54-.33-.07-.21,1.89-.01,2.1,.1,.11,.23,.35,.33,.43,.84,.65-.49-1.62,.06-1.53-.06,0-.4,.35-.46,.4-.54,.4-1.21,.68-1.89,.72s-1.27-.19-1.93-.33c-.99-.21-2.1-.19-3.11-.23-3.8-.13-7.61-.33-11.38-.79-7.56-.92-14.98-2.81-22.18-5.26-14.66-4.99-28.43-12.22-42.13-19.36-14.42-7.52-28.95-14.8-43.68-21.69-14.84-6.95-29.84-13.55-44.99-19.79-7.58-3.12-15.15-6.26-22.92-8.9-7.67-2.6-15.37-5.12-23.09-7.55-1.87-.59-3.83-.7-5.78-.92-.15-.02-.13,.7-.01,.77h0Z"/><path class="cls-2" d="M774.14,447.39c-1.18-.63-2.22-1.73-3.26-2.57-.03-.02-.04,.03-.05,.04-2.47,7.1-2.53,14.98-.41,22.18,.04,.13,.07-.15,.06-.2-1.18-4.23-1.64-8.65-1.3-13.03,.16-2.16,.52-4.3,1.06-6.4,.12-.46,.19-1.13,.44-1.54,.29-.51,.24-.52,.85-.26,.87,.38,1.95,1.3,2.61,1.97,.01,.01,.06-.15,.01-.18h0Z"/><path class="cls-2" d="M303.94,461.94c.1,3.44,2.88,5.5,5.86,6.64,4.64,1.78,9.93,1.85,14.82,2.37,12.31,1.32,24.65,2.42,37,3.28,24.7,1.72,49.46,2.48,74.21,2.84,13.86,.2,27.73,.24,41.58-.32,.76-.03,.43-2.8,.05-3.15-1-.94-2.31-1.32-3.43-2.15-.16-.12-.22,.92-.06,1.1,1.18,1.33,2.02,2.94,3.32,4.15l.05-3.15c-23.91,.97-47.8,1.97-71.74,1.48-23.91-.49-47.8-1.81-71.64-3.78-6.47-.54-13.03-.89-19.46-1.81-4.17-.6-10.36-2.34-10.52-7.49,0-.08-.05-.08-.04,0h0Z"/><path class="cls-2" d="M424.34,477.75l-3.76-.06c-.1,0-.06,.32-.05,.36,.49,3.04,2.9,4.83,5.64,5.87,3.96,1.5,8.42,1.72,12.59,2.19,5.16,.58,10.32,.92,15.51,1.1s10.38,.36,15.53,.06c5.92-.34,11.82-.86,17.71-1.55,.16-.02,.13-.72-.02-.71-9.84,.46-19.73,.45-29.58,.27-4.93-.09-9.85-.38-14.77-.61-4.53-.21-9.18-.32-13.67-1.01-3.48-.53-8.03-1.89-8.82-5.86l-.05,.36,3.75-.35s.01-.07,0-.07h0Z"/><path class="cls-2" d="M311.2,470.09c-1.19,.39-2.73-.39-3.66-1.12-1.14-.89-1.98-2.17-2.49-3.52-1.39-3.68-.3-7.33,2.18-10.24,2.16-2.53,5.03-4.36,7.87-6.04,3.41-2.03,6.85-4,10.29-5.98,14.02-8.11,28.2-15.93,42.57-23.4s28.77-14.54,43.4-21.3,29.83-13.37,44.97-19.53c14.93-6.07,30.01-11.76,45.19-17.19,1.9-.68,3.8-1.35,5.7-2.02,.06-.02,.03-.22,0-.21-15.97,5.48-31.78,11.41-47.45,17.71s-30.91,12.85-46.13,19.83c-15.28,7.01-30.39,14.39-45.31,22.12-14.99,7.77-29.84,15.85-44.39,24.41-3.52,2.07-7.07,4.1-10.51,6.3-2.77,1.78-5.52,3.83-7.33,6.64-2.5,3.89-2.41,9.93,1.79,12.72,1.1,.73,2.12,.68,3.33,1.02,.05,.01,.04-.2,0-.18h0Z"/><path class="cls-2" d="M531.9,351.51c29.06-12.09,58.54-23.25,88.4-33.2,29.75-9.91,59.88-18.65,90.32-26.18,8.57-2.12,17.15-4.15,25.76-6.08,4.31-.96,8.62-1.91,12.93-2.82s8.71-1.7,12.95-3.01c.11-.03,.09-.51-.01-.5-3.92,.38-7.74,1.27-11.58,2.09s-7.7,1.67-11.55,2.53c-7.69,1.73-15.37,3.53-23.02,5.41-15.31,3.76-30.55,7.82-45.7,12.18-30.15,8.68-59.96,18.55-89.34,29.58-16.56,6.22-32.94,12.87-49.17,19.93-.02,0,0,.08,0,.07h0Z"/><path class="cls-2" d="M842.99,282.18c1.72,.97,3.26,2.49,4.88,3.64s3.38,2.3,5.13,3.36c3.32,2.01,6.79,3.86,10.38,5.33,7.7,3.15,15.8,5.21,23.94,6.85s16.35,2.94,24.52,4.47,16.51,3.19,24.72,4.96c16.5,3.55,32.93,7.58,49.16,12.22s32.38,9.85,48.31,15.53,31.56,11.78,47.04,18.4c.93,.4,1.86,.79,2.82,1.12s1.97,.12,3,.01c.34-.03,.2-1.5,.01-1.68-.82-.79-1.62-1.8-2.62-2.36-.91-.51-1.92-.92-2.89-1.32-1.95-.81-3.91-1.61-5.87-2.4-3.85-1.55-7.7-3.07-11.57-4.57-7.81-3.01-15.67-5.9-23.58-8.65-15.89-5.53-31.95-10.56-48.16-15.08s-32.42-8.61-48.81-12.17-32.8-6.31-49.3-9.02-32.28-6.4-46.21-15.34c-1.63-1.05-3.52-2.11-4.89-3.49-.01-.01-.06,.15,0,.18h0Z"/><path class="cls-2" d="M1067.04,332.71c.42,.48,.6-.32,.57-.64-.08-.9-.99-1.08-1.58-.47-.91,.94-1.7,2.21-2.35,3.34-.72,1.26-1.33,2.59-1.71,4-1.03,3.91-.4,11.83,5.24,11.48,2.23-.14,4.36-1.39,4.96-3.64,.05-.19-.08-1.17-.25-.7-.62,1.72-2.68,2.43-4.37,2.16-1.94-.31-3.61-1.78-4.45-3.53-.89-1.87-.49-3.85,.24-5.7,.48-1.23,1.13-2.39,1.75-3.55,.34-.65,.69-1.3,1.06-1.94,.15-.25,.33-.58,.53-.79,.14-.18,.32-.29,.54-.34,.01,.24-.05,.32-.21,.25-.02,0,0,.06,0,.07h0Z"/><path class="cls-2" d="M516.62,362.61c2,.06,4.38,1.47,6.08,2.47s3.37,2.25,4.87,3.61c3.3,2.99,5.94,6.6,8.09,10.48,2.32,4.18,4.08,8.63,5.74,13.1,1.74,4.7,3.52,9.41,4.82,14.25,1.58,5.84,2.37,11.92,1.13,17.91-.01,.06,.05,.24,.08,.11,2.07-9.96-1.36-19.86-4.72-29.14s-6.61-18.13-13.3-25.06c-1.72-1.78-3.62-3.39-5.71-4.71-1.09-.69-2.23-1.31-3.41-1.83s-2.52-.78-3.66-1.36c-.05-.02-.06,.18,0,.18h0Z"/><path class="cls-2" d="M528.04,354.82c13.19,15.66,22.9,34.12,28.44,53.83,1.58,5.6,2.8,11.29,3.67,17.04,.02,.14,.09,.03,.08-.06-3.03-20.2-10.44-39.63-21.61-56.72-3.22-4.93-6.76-9.65-10.57-14.15-.02-.02-.02,.05-.01,.06h0Z"/><path class="cls-2" d="M749.72,305.69c1.74,.47,3.56,1.95,5.05,2.94s2.98,2.11,4.4,3.27c2.88,2.35,5.55,4.96,7.99,7.76,4.91,5.63,8.91,12.01,12.11,18.75,7.29,15.38,10.51,32.7,10.17,49.67-.21,10.47-1.83,20.88-4.8,30.92-.01,.05,.03,.25,.06,.15,5.19-17.5,6.25-36.16,3.04-54.14-2.76-15.52-8.65-30.78-18.61-43.13-2.61-3.24-5.5-6.25-8.66-8.95-1.62-1.39-3.32-2.69-5.08-3.9-.88-.61-1.78-1.19-2.7-1.74-.97-.59-2.09-1.06-2.97-1.77-.03-.02-.08,.16,0,.18h0Z"/><path class="cls-2" d="M770.17,310.18c7.3,14.18,16.18,27.51,23.19,41.84,6.68,13.66,11.53,28.53,11.13,43.89-.22,8.6-2.22,17.12-6.38,24.68-.03,.05,.01,.25,.05,.18,7.11-12.84,7.73-28.03,4.88-42.17-3.16-15.62-10.75-29.82-18.67-43.49-4.8-8.29-9.77-16.48-14.18-24.99-.02-.03-.03,.03-.02,.05h0Z"/><path class="cls-2" d="M965.23,333.14c9,18.29,11.61,39.5,7.51,59.45-1.14,5.54-2.81,10.95-4.93,16.2-.02,.05,.02,.25,.06,.15,7.78-18.71,8.86-40.1,3.54-59.61-1.53-5.6-3.6-11.03-6.17-16.23-.02-.03-.02,.04-.02,.05h0Z"/><path class="cls-2" d="M981.96,336.23s-.82,.62-.02-.23c.47-.5,.48-.26,.79,.3,.28,.49,.42,1.08,.59,1.63,.32,1.01,.61,2.03,.9,3.06,.55,1.97,1.03,3.97,1.45,5.97,.87,4.14,1.48,8.33,1.83,12.55,.7,8.51,.36,17.13-1.07,25.55-.81,4.77-1.98,9.48-3.42,14.11-.03,.08,.05,.42,.11,.25,6.52-19.39,6.59-40.95,.6-60.48-.28-.92-.49-2.21-1.1-3-.24-.3-.9-.81-1.19-.29-.18,.32,.27,1.17,.56,.66,0-.02,0-.08-.02-.06h0Z"/><path class="cls-2" d="M994.11,335.69c8.23,12.04,10.95,27.5,7.69,41.69-.93,4.06-2.36,7.98-4.26,11.68-.02,.05,.01,.25,.05,.18,6.75-13.07,7.47-28.88,2.31-42.62-1.46-3.89-3.4-7.59-5.77-11-.01-.02-.02,.05-.01,.06h0Z"/><path class="cls-2" d="M1005.41,334.3c-1.29,8.3,.72,16.54,1.68,24.77s.18,17.15-2.97,25.24c-1.66,4.27-3.9,8.29-6.65,11.95-.04,.06,0,.33,.06,.25,4.68-6.2,7.9-13.39,9.36-21.02,.72-3.79,1.03-7.67,.84-11.52-.21-4.38-.97-8.7-1.63-13.03-.83-5.5-1.48-11.05-.66-16.59,0-.02-.02-.08-.02-.04h0Z"/><path class="cls-2" d="M1023.3,404.7c-1.88-1.38-3.76-2.76-5.64-4.14l.11,.47c.14-1.21,.28-2.43,.42-3.64l-.26,.41c4.62,4.19,9.23,8.39,13.89,12.54,3.65,3.24,7.96,6.97,13.21,6.37,.55-.06,.27-1.45,.13-1.73-.36-.71-.5-1.68-.78-2.44-.36-1-.68-2-.94-3.03-.45-1.79-.85-3.61-1.05-5.45-.18-1.63-.2-3.27-.06-4.91,.16-1.79,.65-3.49,.97-5.25,.2-1.11,.34-2.21,.21-3.33-.05-.4-.03-.95-.36-1.22-1.46-1.22-2.33,3.83-2.46,4.54-.7,3.97-.81,8.12-.18,12.11,.34,2.16,.81,4.29,1.69,6.31,.36,.84,.77,1.66,1.22,2.46,.2,.36,.4,.76,.66,1.09,.22,.29,.6,.43,.78,.73l.13-1.73c-5.33,.66-9.67-3.22-13.4-6.49-4.49-3.93-9.04-7.79-13.57-11.68-.17-.15-.26,.35-.26,.41-.09,1.25-.19,2.49-.28,3.74,0,.12-.01,.39,.11,.47,1.9,1.16,3.8,2.32,5.7,3.47,.02,0,.02-.06,0-.07h0Z"/><path class="cls-2" d="M1019.67,334.1c-1.62-.51-3.19-1.58-4.69-2.37v.3c6.75-.14,13.09-2.38,18.34-6.68,.61-.5,1.2-1.03,1.77-1.58,.28-.27,.54-.59,.84-.84,.48-.41,.55-.33,.85,.24,.92,1.74,1.37,3.68,1.76,5.6,.65,3.21,1.13,6.48,2.82,9.34,.8,1.36,1.91,2.61,3.24,3.47,.63,.4,1.36,.75,2.09,.91,.86,.18,1.49-.22,2.2-.68,.17-.11,.18-.88-.02-.96-.82-.34-1.55-.72-2.4-.97-.99-.29-1.88-.86-2.65-1.54-1.54-1.35-2.71-3.22-3.39-5.14-1.43-4.07-1.54-8.49-3.94-12.21-.03-.05-.13-.15-.2-.07-5.34,6.13-13.2,10.16-21.33,10.81-.08,0-.07,.28,0,.3,1.54,.71,3.3,1.3,4.71,2.25,.03,.02,.07-.16,0-.18h0Z"/><path class="cls-2" d="M966.02,416.86c-.83-.07-2.03-1.42-1.69-2.31l-.33,.26c4.13,2.88,8.59,5.36,12.87,8.01s8.58,5.31,12.87,7.96c.72,.44,.54-1.95,.43-2.21-.77-1.86-.86-4.2-.85-6.2,0-1.51,.22-3.49,.74-5.22,.59-1.95,1.44-3.79,2.58-5.48,1.48-2.22,2.32-4.72,4.09-6.77,.23-.26,.35-1.94-.21-1.72-.99,.4-2.03,.73-3.01,1.15-1.18,.51-1.79,1.32-2.47,2.38-1.5,2.37-2.52,4.99-3.2,7.71-.73,2.92-.89,5.92-.61,8.91,.12,1.29,.4,2.57,.79,3.81,.36,1.17,1.02,2.17,1.5,3.28l.43-2.21c-4.3-2.56-8.6-5.12-12.9-7.68s-8.49-5.34-12.9-7.63c-.18-.1-.29,.11-.33,.26-.27,.87-.37,1.93,.06,2.77,.47,.92,1.23,.98,2.15,1.09,.04,0,.05-.18,0-.18h0Z"/></g></svg>