<?xml version="1.0" encoding="UTF-8"?><svg id="Layer_1" xmlns="http://www.w3.org/2000/svg" viewBox="0 0 1500 750"><defs><style>.cls-1{fill:#7397aa;}.cls-2{fill:#273b45;}.cls-3{fill:#182b34;}.cls-4{fill:#5a7887;}.cls-5{fill:#8fbacc;}.cls-6{fill:#d7eef0;}.cls-7{fill:#231f20;}.cls-8{fill:#7fa6bb;}</style></defs><g><path class="cls-8" d="M986.67,386.16c20.54,28.47,43.67,60.15,38.17,27.74-5.5-32.41-16.23-31.94,8.97-47.81,24.46-15.4,133.93-73.98,136.38-85.31-48.19,6.96-128.27,52.17-147.58,62.87-25.21,13.98-41.55,7.03-41.55,7.03-213.33-18.21-338.9,41.08-362.24,45.28-23.34,4.2,59.75-.93,73.29,0,13.54,.93-123.7,25.67-129.3,24.27-5.6-1.4-5.05-9.91-23.34-6.33-18.29,3.58-24.27,7.73-23.34,11.94s-80.29,14.94-86.82,20.02c-6.54,5.08,14.47,8.51,14.47,8.51,0,0-22.41,.42-31.74,3.42-9.34,3-15.19-2.41-20.54-1.84-4.77,.51-46.35,2.53-86.75,1.59,.4,.18,.84,.35,1.33,.51,35.48,11.2,91.49,9.8,91.49,12.14s-12.14,7.94,20.54,7.94,214.26-14.47,342.16-56.02c115.88-37.64,193.06-48.46,211.06-48.77,.97-2.68,4.33-2.43,15.34,12.83Z"/><path class="cls-4" d="M391.5,455.94c5.35-.57,11.2,4.84,20.54,1.84,9.34-3,31.74-3.42,31.74-3.42,0,0-21.01-3.43-14.47-8.51,6.54-5.08,87.76-15.82,86.82-20.02s5.05-8.36,23.34-11.94c18.29-3.58,17.74,4.93,23.34,6.33,5.6,1.4,142.84-23.34,129.3-24.27-13.54-.93-96.63,4.2-73.29,0,23.34-4.2,148.91-63.48,362.24-45.28,0,0,16.34,6.95,41.55-7.03,19.31-10.7,99.39-55.92,147.58-62.87,.07-.34,.06-.65-.07-.9-1.47-2.91-4.08-5.73-6.88-8.19-10.71,1.88-24.23,4.78-41.2,8.98-56.48,14-127.44,53.22-140.51,59.75-13.07,6.54-144.24-32.21-254.41-31.28,0,0-4.95-1.45-11.19-4.23-30.5-6.57-29.72-26.95-30.35-38.71-.7-12.95-11.2-22.41-24.51-31.16-2.09-1.38-3.73-2.68-5.01-3.92-6.47,6.45-13.64,15.68-20.43,27.15-14.94,25.21-25.67,56.95-30.34,58.35-4.67,1.4-75.15,29.06-100.83,38.11-25.32,8.92-228.12,89.84-199.72,102.83,40.4,.93,81.98-1.08,86.75-1.59Zm4.26-6.5c-.68,1.2-.66,2.76,.04,3.95-.22-1.57,.01-3.19,.66-4.63-.85,2.11-.7,4.6,.39,6.6,.05-.25,.03-.5-.03-.74-.11-.18-.21-.36-.28-.55,.13,.16,.23,.35,.28,.55,.1,.16,.22,.32,.35,.46-.02-.54-.11-1.08-.27-1.6,.26,.85,.62,1.68,1.05,2.46-.44-.78-.79-1.6-1.05-2.46,.16,.52,.25,1.05,.27,1.6-.13-.14-.25-.29-.35-.46,.07,.24,.09,.5,.03,.74-1.09-2-1.24-4.49-.39-6.6-.65,1.44-.88,3.07-.66,4.63-.7-1.19-.71-2.75-.04-3.95Z"/><path class="cls-6" d="M843.13,412.53c-1.32,.44-2.55,.93-3.59,1.37,.03,.01,.06,.02,.09,.03,12.6,5.25,8.4,1.72,10.5-5.97s9.1-10.49,7-16.79c-.02-.07-.06-.12-.1-.19-8.53,1.09-10.45,20.39-13.91,21.54Z"/><path class="cls-4" d="M792.37,409.73s34.51-1.04,47.18,4.17c1.04-.44,2.26-.93,3.59-1.37,3.46-1.15,5.37-20.45,13.91-21.54-3.41-5.75-69.52,11.46-64.67,18.74Z"/><path class="cls-4" d="M887.24,330.61s29.88-20.54,35.48-16.8,30.81,25.67,31.28,29.41-55.55-17.74-66.75-12.6Z"/><path class="cls-5" d="M505.29,423.03c2.56,3.2,8.4-3.04,10.5,12.31,2.1,15.35,5.95,23.05,7.7,19.9s2.45-11.9,3.85-9.1-1.05,9.79,2.1,9.8c3.15,0,28.36-1.05,29.06-10.15,.7-9.1,9.45-25.56,5.6-29.41s-7.7-8.75-12.95-8.4-50.06,9.8-45.86,15.05Z"/><path class="cls-6" d="M1199.07,271.32c-1.09-2.45-7.91-3.62-24.58-1.41,5.91,2.91,8.83,7.51,7.54,9.22-2.1,2.8-96.98,61.27-126.39,79.82-29.41,18.56-22.06,25.21-18.56,36.76,3.5,11.55,.35,36.41-1.4,42.01-.74,2.36-5.45,2.54-10.84,1.87,9.86,8.96,20.59,19.66,22.51,15.17,2.8-6.54-12.14-55.55-7.94-68.62,4.2-13.07,109.23-85.42,120.9-89.63,11.67-4.2,40.61-21.01,38.74-25.21Z"/><path class="cls-6" d="M690.72,508.46c-18.67-15.87-53.68-37.81-56.02-42.95-2.33-5.13,1.4-14.47,5.13-16.8,.15-.09,.16-.21,.06-.34-8.27-2.88-8.24,7.92-7.53,18.43,.91,13.41,53.92,40.61,50.76,44.46-2.3,2.81-8.14,5.99-8.95,9.96,4.61,1.71,8.32,2.76,10.47,2.65,8.87-.47,24.74,.47,6.07-15.4Z"/><path class="cls-6" d="M661.08,235.03c13.3,8.75,23.81,18.21,24.51,31.16,.64,11.76-.15,32.15,30.35,38.71-10.81-4.82-25.51-13.68-25.22-26.11,.47-19.61-9.34-55.55-16.34-57.88-3.82-1.27-10.55,2.46-18.31,10.2,1.28,1.24,2.92,2.55,5.01,3.92Z"/><path class="cls-4" d="M683.14,511.26c3.15-3.85-49.85-31.05-50.76-44.46-.71-10.5-.74-21.3,7.53-18.43-2.34-3.12-72.99-16.3-75.68-12.27-2.8,4.2-26.23,20.09-21.47,22.87,5.6,3.27,62.55,36.88,80.29,41.55,13.43,3.53,36.76,15.36,51.15,20.69,.81-3.96,6.65-7.15,8.95-9.96Z"/><g><path class="cls-8" d="M389.58,442.09s1.75-4.71,5.69-3.48c3.93,1.23,9.54,2.1,9.71,8.58s-3.37,12.32-7.03,11.5c-3.65-.82-8.02-.12-8.37-5.55s0-11.05,0-11.05Z"/><path class="cls-3" d="M387.63,443.16s-8.38,1.23-7.51,6.3,9.37,9.98,11.74,9.3,9.55-3.53,8.01-6.42-7.36-9.54-12.24-9.19Z"/><path class="cls-2" d="M400.09,451.25c.23,2.02-3.52,5.24-7.62,5.37-4.08,.13-8.84-3.78-8.84-7.87s6.6-7.87,10.68-7.87,5.33,6.31,5.78,10.36Z"/><ellipse class="cls-1" cx="393.58" cy="445.53" rx="2.95" ry="2.37"/></g><path class="cls-8" d="M396.82,454.62c-.06-.2-.15-.39-.28-.55,.08,.19,.17,.38,.28,.55Z"/><path class="cls-4" d="M1033.82,366.08c-25.21,15.87-14.47,15.4-8.97,47.81,5.5,32.41-17.63,.73-38.17-27.74-11.01-15.26-14.37-15.5-15.34-12.83,1.87-.03,3.1,.05,3.67,.22,0,0,27.54,50.88,37.81,56.48,3.22,1.75,7.53,5.48,12.03,9.57,5.39,.68,10.1,.49,10.84-1.87,1.75-5.6,4.9-30.46,1.4-42.01-3.5-11.55-10.85-18.21,18.56-36.76,28.06-17.7,115.71-71.74,125.52-79.09-3.42,.03-7.09,.34-10.97,.9-2.45,11.33-111.91,69.9-136.38,85.31Z"/><path class="cls-4" d="M1174.48,269.92c-3.34,.44-7.08,1.03-11.24,1.76,2.8,2.46,5.41,5.28,6.88,8.19,.13,.25,.14,.56,.07,.9,3.88-.56,7.55-.88,10.97-.9,.47-.35,.77-.6,.86-.73,1.29-1.72-1.63-6.32-7.54-9.22Z"/><path class="cls-4" d="M1200.08,451.32c2.71,0,2.6-6.15-.15-6.15s-2.6,6.15,.15,6.15h0Z"/></g><g><path class="cls-7" d="M393.17,472.54c-1.6-.41-3.29-.45-4.93-.57-1.83-.14-3.65-.22-5.48-.26-3.5-.07-6.99-.15-10.49-.27-6.78-.22-13.54-.74-20.3-1.3-13.11-1.09-26.18-2.89-38.9-6.31-2.04-.55-4.08-1.14-6.09-1.78-1.48-.47-3.07-.87-4.45-1.58-.55-.29-1.5-.8-1.63-1.5-.01-.07,.34-.81,.5-1.09,.82-1.39,1.91-2.72,3-3.9,.33-.35,.41-2.52-.35-2.13-2.48,1.27-4.35,3.21-4.84,6.05-.53,3.13,.86,5.66,3.79,6.8,6.6,2.57,13.69,4.29,20.62,5.72s14.29,2.51,21.5,3.26c3.63,.38,7.27,.68,10.91,.9s7.61,.26,11.42,.41c4.3,.17,8.61,.29,12.91,.38,2.16,.05,4.31,.08,6.47,.01s4.17-.04,6.18-.47c.67-.14,.86-2.2,.14-2.38h0Z"/><path class="cls-7" d="M302.09,454.57c2.13-1.9,4.43-3.48,6.7-5.19,2.04-1.54,4.12-3.03,6.23-4.46,4.17-2.84,8.45-5.55,12.79-8.13,8.88-5.3,18.06-10.1,27.23-14.88,18.95-9.9,38.12-19.37,57.48-28.43,19.65-9.2,39.52-17.95,59.59-26.2,19.83-8.14,39.84-15.83,60.03-23.04s40.21-13.65,60.56-19.76c2.54-.76,5.08-1.52,7.62-2.27,1.26-.37,2.35-1.67,2.95-2.8,.31-.59,.8-2.19-.48-1.81-20.98,6.27-41.78,13.2-62.46,20.38-20.45,7.11-40.74,14.7-60.83,22.76s-39.86,16.51-59.49,25.46c-19.84,9.04-39.44,18.58-58.8,28.62-18.68,9.69-37.65,19.4-53.92,32.92-1.95,1.62-3.73,3.47-5.62,5.16-.42,.37-.22,2.24,.4,1.68h0Z"/><path class="cls-7" d="M601.9,322.17c1.04-2.45,2.93-4.52,4.38-6.77,1.34-2.07,2.6-4.18,3.77-6.35,2.42-4.46,4.6-9.04,6.75-13.64,4.53-9.68,9.18-19.2,14.81-28.3s11.44-18.79,18.51-27.1c3.41-4.01,7.15-7.75,11.18-11.13,1.73-1.45,3.94-3.23,6.36-2.82s3.59,2.77,4.56,4.67c5.39,10.57,8.98,22.14,10.65,33.88,.09,.62,.32,2.03,1.26,1.69,.85-.31,.98-2.13,.9-2.82-1.37-11.22-4.46-22.09-9.27-32.32-1.68-3.57-3.97-10.08-8.86-9.96-2.54,.06-4.69,1.82-6.52,3.39-2.06,1.77-4.05,3.62-5.96,5.54-8.03,8.09-14.05,17.62-20.09,27.23s-11.58,19.5-16.35,29.86c-2.51,5.45-4.95,10.93-7.64,16.29-1.35,2.67-2.76,5.32-4.23,7.93-.75,1.33-1.53,2.64-2.33,3.93-.86,1.37-1.54,2.87-2.91,3.76-.76,.49-.69,2-.41,2.73s1.02,1.31,1.45,.3h0Z"/><path class="cls-7" d="M683.44,263.3c-1.59,9.37,.48,19.03,5.4,27.14s12.59,14.48,21.15,18.83c2.45,1.24,4.97,2.34,7.53,3.31s5.07,1.58,7.78,2.02c1.33,.21,1.33-3.05,.28-3.47-2.13-.86-4.23-1.74-6.4-2.51s-4.24-1.6-6.3-2.54c-4.04-1.84-7.91-4.05-11.47-6.7-7.05-5.26-12.85-12.37-15.54-20.82-1.49-4.67-1.99-9.66-1.05-14.5,.08-.43,.04-1.58-.5-1.76-.59-.19-.81,.55-.89,1h0Z"/><path class="cls-7" d="M391.58,474.46c.64,.05,1.24-.29,1.88-.24,.21,.02,.44,.13,.6,.28,.06,.05,.11,.13,.14,.18v.06c.06-.41,.22-.73,.49-.96,.06,0-.07,.02-.05,.01-.64,.1-1.26,.29-1.88,.46-.69,.19-1.38,.36-2.08,.54-.5,.13-.82,.62-1.02,1.06-.13,.27-.44,1.04-.04,1.25,.9,.46,1.81,.89,2.75,1.26,.48,.19,.99,.26,1.49,.35,.54,.09,1.06,.16,1.61,.18,.32,0,.6-.51,.71-.74,.09-.2,.3-.71,.03-.86-.42-.24-.84-.45-1.27-.67-.45-.23-.88-.48-1.35-.65-.94-.34-1.85-.72-2.75-1.14l-.89,2.26c.89-.26,1.76-.55,2.64-.84,.96-.31,1.99-.62,2.5-1.57,.22-.41,.41-.94,.21-1.39-.13-.28-.4-.52-.69-.63-.34-.13-.68-.1-1.02-.05-.17,.03-.36,.09-.53,.06-.2-.03-.39-.13-.55-.25-.14-.1-.36,.05-.46,.13-.26,.2-.44,.49-.57,.78-.12,.25-.42,1.08,.1,1.12h0Z"/><path class="cls-7" d="M389.05,482.24c5.19,.03,10.37,.21,15.56,.13s10.43-.18,15.63-.38c10.28-.4,20.56-.94,30.83-1.65,20.92-1.43,41.81-3.46,62.61-6.11,5.77-.73,11.54-1.52,17.29-2.34,2.92-.42,5.84-.85,8.75-1.3s5.88-1.09,8.83-1.44c.86-.1,3.15-3.11,1.93-3.22-.3-.03-.59-.05-.89-.08-.82-.07-1.66,.95-2.04,1.56-.17,.27-.93,1.76-.1,1.76,.27,0,.55,0,.82,0l1.93-3.22c-2.53,.52-5.16,.75-7.72,1.13s-5.21,.77-7.81,1.14c-5.13,.73-10.26,1.42-15.4,2.07-10.42,1.33-20.87,2.5-31.33,3.51-20.76,2.02-41.58,3.38-62.42,4.15-5.87,.22-11.73,.44-17.6,.6-2.98,.08-5.95,.15-8.93,.21s-6,.34-9.01,.4c-.95,.02-2.04,3.05-.94,3.06h0Z"/><path class="cls-7" d="M559.84,441.92c-3.5,1.52-7,3.06-10.5,4.59-2.86,1.25-6.05,2.29-8.59,4.14-2.4,1.74-4.45,4.6-4.18,7.69s2.66,5.65,4.8,7.74c9.83,9.59,22.19,16.01,34.19,22.42,25.77,13.74,52.1,26.74,79.93,35.79,3.95,1.28,7.92,2.49,11.91,3.61s7.77,2.2,11.76,2.81,7.8,.82,11.76-.25c3.34-.9,7.76-3.4,7.8-7.36,0-1.05-1.9,.05-2.19,.25-.84,.6-1.82,1.56-1.85,2.66l-.04,.31c-.14,.34-.06,.27,.26-.21,0,0-.09,.04-.09,.04-.19-.01-1.01,.4-1.23,.47-.35,.11-.7,.2-1.06,.28-1.58,.36-3.22,.49-4.84,.49-3.44-.01-6.72-.6-10.04-1.42-6.49-1.61-12.92-3.53-19.28-5.6-12.68-4.13-25.08-9.09-37.24-14.57s-24.27-11.54-36.16-17.79c-11.29-5.93-22.98-11.65-33.29-19.23-2.78-2.04-5.46-4.24-7.95-6.63-1.21-1.16-2.42-2.4-3.25-3.88-.61-1.09-1.51-3.12-.72-4.32,.6-.92,2.05-1.48,2.99-1.96,1.7-.86,3.42-1.68,5.14-2.52,3.67-1.8,7.35-3.59,11.01-5.4,.55-.27,1.01-.78,1.24-1.35,.1-.25,.28-1.06-.29-.81h0Z"/><path class="cls-7" d="M630.34,459.05c-2.88,6.02-.32,12.37,4.03,16.9,4.63,4.82,10.7,8.27,16.41,11.65,11.79,6.97,24.12,13.18,34.67,22.03,2.77,2.32,5.57,5.14,6.37,8.79,.48,2.2-.02,5.08-2.48,5.63-.91,.2-1.72,1.09-2.1,1.91-.26,.56-.43,1.52,.49,1.4,2.94-.39,5.38-2.84,6.62-5.41,1.32-2.74,1.43-5.88,.18-8.67-1.37-3.07-3.85-5.45-6.3-7.67-2.65-2.39-5.45-4.59-8.41-6.6-11.98-8.1-25.21-14.1-37.47-21.74-3.23-2.01-6.45-4.27-8.63-7.45s-3.33-7.61-1.52-11.2c.22-.43,.38-1.01-.27-.99-.59,.01-1.37,.95-1.59,1.42h0Z"/><path class="cls-7" d="M563.54,441.62c20.22-.38,40.27,2.91,59.4,9.43,2.65,.9,5.26,1.89,7.87,2.91,.65,.26,3.39,.9,3.16,1.87-.11,.46-.92,1.07-1.26,1.39-.63,.59-1.27,1.16-1.86,1.8-.38,.42-.98,1.72,.17,1.29,1.25-.46,2.28-1.22,3.24-2.12,1.1-1.02,2.41-2.22,3.06-3.6,.48-1.03,.31-1.82-.69-2.38-1.19-.66-2.54-1.15-3.79-1.67-5.17-2.16-10.47-4.09-15.86-5.62-10.73-3.05-21.77-5.02-32.89-5.86-6.36-.48-12.76-.49-19.13-.18-.92,.05-2.31,2.77-1.43,2.75h0Z"/><path class="cls-7" d="M633.62,456.06c5.16-.4,10.34-1.71,15.4-2.74,5.18-1.06,10.35-2.16,15.51-3.29,10.27-2.26,20.49-4.68,30.69-7.25,20.47-5.14,40.83-10.71,61.15-16.39,5.93-1.66,11.86-3.32,17.79-5,5.46-1.54,11.19-2.81,16.16-5.63,.89-.51,2.26-1.48,2.46-2.57s-.97-.72-1.56-.38c-2.14,1.23-4.35,2.31-6.69,3.07s-4.95,1.45-7.43,2.14c-5.16,1.44-10.33,2.87-15.49,4.31-10.19,2.82-20.38,5.62-30.59,8.37-20.32,5.46-40.72,10.65-61.21,15.43-5.75,1.34-11.51,2.64-17.28,3.89s-11.96,2.25-17.75,3.94c-.56,.16-2.34,2.21-1.15,2.12h0Z"/><path class="cls-7" d="M800.04,405.47c-5.98,.12-11.46,4.07-15.04,8.62-.12,.15-.57,.85-.27,1.05,3.23,2.16,7.55,.86,11.1,.43,4.73-.57,9.47-.86,14.23-.98s9.31-.03,13.93,.36c4.01,.34,7.48,1.39,10.46,4.18,1.32,1.24,2.54,2.62,3.98,3.73,1.69,1.3,3.55,1.77,5.66,1.54,.71-.08,1.39-.49,1.9-.97,.16-.15,.98-1.01,.41-1.15-3.02-.72-5.39-3.55-7.52-5.62-2.75-2.66-5.75-4.26-9.56-4.87-4.4-.7-8.97-.69-13.42-.68s-9.28,.29-13.9,.79c-2.68,.29-5.36,.63-8.01,1.1-2.18,.38-4.59,.87-6.58-.38l-.27,1.05c2.8-3.65,7.01-5.35,11.38-6.26,.53-.11,1.04-.59,1.34-1,.08-.12,.63-.96,.16-.95h0Z"/><path class="cls-7" d="M793.39,408.41c15.1-5.34,30.42-9.88,46.17-12.87,4.57-.86,9.16-1.57,13.71-2.5,.8-.16,1.58-.92,2.01-1.58,.27-.41,.64-1.19-.15-1.13-8.06,.6-16.11,2.44-23.96,4.29s-15.64,4.05-23.29,6.62c-4.47,1.5-8.91,3.11-13.27,4.91-.61,.25-1.14,.79-1.44,1.38-.13,.26-.41,1.1,.22,.88h0Z"/><path class="cls-7" d="M852.44,392.34c-1.14,1.48-1.51,.77-.44,1.1,.36,.11,.71,.3,1.01,.53,.52,.39,.9,.94,1.2,1.52,.71,1.37,.87,3.11,.39,4.58s-1.55,2.33-2.64,3.27c-1.2,1.04-2.36,2.11-3.42,3.29-2.09,2.34-3.79,5.01-4.99,7.91-.57,1.37-1,2.78-1.34,4.22-.15,.64-.28,1.29-.49,1.92-.12,.37-.26,.73-.45,1.07-.32,.56-.75,.53,.36-.18-.46,.29-2.54,2.34-.74,1.97,4.69-.96,4.8-6.06,6.06-9.64s3.4-6.97,6.27-9.56c2.74-2.47,5.93-5.39,4.89-9.48-.42-1.64-1.44-3.16-3.1-3.74-1.76-.62-3.38,.3-4.69,1.44-.35,.3-1.34,1.38-.34,1.44,.91,.05,1.97-1.03,2.46-1.66h0Z"/><path class="cls-7" d="M856.82,398.4c27.48-8.42,55.89-13.01,84.12-18.07,3.93-.7,7.85-1.49,11.81-2.02,2.01-.27,4.09-.56,6.11-.31s3.95,.39,5.93,.67c.71,.1,3.04-1.79,2.26-2.04-3.43-1.14-7.09-.63-10.61-.3s-7.06,.93-10.58,1.4c-7.19,.94-14.36,2-21.53,3.14-14.3,2.26-28.53,4.91-42.61,8.3-8,1.93-15.94,4.09-23.8,6.54-.67,.21-1.25,1.09-1.49,1.71-.15,.4-.32,1.2,.38,.99h0Z"/><path class="cls-7" d="M967.37,381.36c4.59-1.52,8.08,3.16,10.03,6.65s3.93,7.41,6,11.06c4.14,7.31,8.6,14.43,13.44,21.31,9.6,13.65,20.89,26.52,33.83,37.11,1.82,1.49,3.68,2.93,5.57,4.33,1.56,1.16,3.15,2.51,4.88,3.4s3.9,.97,5.34-.6c1.37-1.48,1.68-4.02,.43-5.68-1.38-1.82-2.62,1.42-1.71,2.67,.46,.63-.27-.46,.11-.48,.01,0-.14,.28-.13,.27-.24,.15-.39,.51-.66,.68-.84,.52-1.96,.25-2.81-.1-1.81-.76-3.34-2.18-4.86-3.4-3.09-2.46-6.1-5.03-9.05-7.66-5.9-5.26-11.45-10.91-16.64-16.86-10.44-11.97-19.58-25.09-27.46-38.86-2.09-3.66-3.92-7.5-6.17-11.06s-5.94-6.58-10.42-7.14c-1.54-.2-1.57,4.99,.29,4.38h0Z"/><path class="cls-7" d="M1046.92,460.84c-.08-1.91,.37-3.86,.57-5.75,.23-2.08,.42-4.16,.58-6.24,.29-3.95,.45-7.9,.45-11.86-.01-8-.75-16.03-2.08-23.92-1.18-7.03-3.4-14.54-1.85-21.68,1.25-5.75,5.29-10.19,9.73-13.8,5.23-4.25,11.04-7.71,15.97-12.35,.84-.8,.67-4.7-.7-3.53-8.77,7.48-21.06,12.33-25.69,23.69-3.09,7.58-1.98,15.81-.55,23.62s2.55,15.66,2.86,23.62c.18,4.51,.22,9.02,.03,13.54-.09,2.25-.23,4.51-.45,6.75s-.21,4.75-1,6.82c-.29,.76-.31,2.8,.68,3.2,1.09,.44,1.48-1.38,1.45-2.1h0Z"/><path class="cls-7" d="M1065.67,365.68c4.6-3.94,9.71-7.36,14.6-10.92s9.68-7.03,14.55-10.49c9.73-6.93,19.55-13.75,29.54-20.32,9.95-6.54,20.08-12.81,30.44-18.67,5.19-2.94,10.44-5.77,15.76-8.47,5.04-2.56,10.17-4.95,15.07-7.77,2.87-1.66,5.63-3.49,8.22-5.56s5.28-4.32,6.26-7.46c.36-1.15,.43-2.51-.59-3.35s-2.8-.99-4.01-1.19c-3.33-.55-6.8-.25-10.09,.41-.82,.17-1.64,1.28-2.02,1.94-.12,.2-.84,1.71-.09,1.6,2.88-.43,5.72-.39,8.6,.04,.98,.15,6.01,.61,4.95,2.59-.17,.31-.74,.66-1,.89-.49,.43-.98,.84-1.49,1.25-1.1,.88-2.25,1.69-3.42,2.46-2.17,1.44-4.43,2.73-6.74,3.94-4.86,2.56-9.86,4.84-14.75,7.33s-10.15,5.3-15.14,8.11c-20,11.26-39.03,24.18-57.61,37.65-5.15,3.73-10.27,7.51-15.37,11.31s-10.17,8.02-15.61,11.42c-.78,.49-1.21,1.77-1.2,2.63s.45,1.24,1.16,.63h0Z"/><path class="cls-7" d="M954.37,343.73c7.67,1.22,15.17-.72,22.19-3.74s14.14-7.19,21.2-10.8c14.25-7.3,28.87-13.95,43.71-19.95,14.87-6.01,30.02-11.32,45.39-15.92s30.92-8.43,46.64-11.53,31.37-5.45,47.21-7.06c2-.2,4-.4,6-.58,1.22-.11,2.53-1.33,3.27-2.23,.41-.51,1.2-1.78-.03-1.67-16.07,1.39-32.07,3.54-47.93,6.45s-31.66,6.61-47.22,11-30.74,9.44-45.73,15.23-29.73,12.3-44.07,19.58c-7.15,3.63-14.13,7.56-21.23,11.27s-14.54,7.06-22.55,7.62c-1.98,.14-3.97,.07-5.94-.18-.86-.11-1.61,2.4-.9,2.51h0Z"/><path class="cls-7" d="M721.6,312.09c9.99,3.8,21.07,4.27,31.61,5.15,11.25,.94,22.52,1.73,33.79,2.5,22.79,1.56,45.6,3.04,68.3,5.66,6.25,.72,12.49,1.51,18.71,2.46,5.43,.83,11.14,1.79,15.82,4.84,1.07,.7,4.63-2.48,3.43-3.14-4.43-2.42-9.24-3.55-14.2-4.29-5.51-.82-11.05-1.51-16.58-2.17-11.28-1.36-22.59-2.45-33.91-3.43-22.62-1.96-45.29-3.35-67.92-5.24-6.28-.52-12.57-1.03-18.84-1.65s-12.28-1.46-18.09-3.58c-1.07-.39-2.88,2.6-2.13,2.88h0Z"/><path class="cls-7" d="M891.62,330.83c1.22-.38,2.44-.6,3.66-1.03,1.37-.49,2.72-1.03,4.07-1.57,2.58-1.02,5.16-2.03,7.73-3.05s5.31-2.15,7.97-3.24c1.05-.43,2.19-1.04,3.35-1.13,1.4-.11,2.66,.61,3.83,1.28,4.41,2.51,8.48,5.59,12.11,9.13s6.68,7.18,10.81,9.83c2.13,1.37,4.5,2.46,6.99,2.95,1.3,.26,2.63,.35,3.95,.28,1.51-.09,2.77-.57,4.11-1.26,.4-.2,2.76-2.62,1.23-2.49-2.19,.19-4.31,.39-6.48-.1-2.33-.53-4.54-1.54-6.52-2.87-4.09-2.75-7.31-6.55-10.84-9.95s-7.77-6.63-12.19-9.16c-1.03-.59-2.12-1.21-3.31-1.43s-2.47,.09-3.63,.52c-2.61,.97-5.19,2.03-7.77,3.08-2.94,1.19-5.87,2.42-8.81,3.63-1.47,.61-2.96,1.19-4.41,1.84-1.67,.74-3.22,1.63-4.86,2.43-.59,.29-1.08,.84-1.33,1.45-.14,.33-.3,1.06,.32,.87h0Z"/><path class="cls-7" d="M509.06,422.84c1.58,.37,3.17,1.71,4.34,2.79s2.14,2.29,2.98,3.6c1.83,2.86,3.07,6.09,4.13,9.31,2.43,7.41,3.26,15.02,2.66,22.79-.06,.74,.76,.4,1.1,.17,.6-.4,1.18-1.14,1.28-1.87,1.17-7.96,.25-16.37-2.5-23.92-1.17-3.2-2.59-6.39-4.57-9.18-.91-1.28-1.94-2.47-3.13-3.49-1.41-1.21-3.04-1.84-4.57-2.83-.95-.62-2.76,2.38-1.73,2.63h0Z"/><path class="cls-7" d="M521.33,422.39c2.02-.62,3.78,1.43,4.58,3.01,1.14,2.23,2.1,4.56,2.88,6.94,1.53,4.64,2.57,9.53,2.83,14.42,.07,1.38,2.39-.94,2.41-1.81,.14-5.67-.76-11.21-2.89-16.48-1.27-3.14-4.41-11.56-9.19-8.47-.44,.29-1.84,2.77-.63,2.39h0Z"/><path class="cls-7" d="M530.77,416.98l-.04-.16-.45,.92,.08-.09-.68,.34c.31,.29,.79,.26,1.18,.47,.58,.3,1.01,.84,1.46,1.3,1.23,1.28,2.34,2.65,3.41,4.07,2.15,2.83,3.95,5.86,5.23,9.19,2.27,5.91,2.88,12.44,1.56,18.64-.13,.63,.15,.89,.75,.62,.67-.31,1.28-1.14,1.5-1.83,2.34-7.55,1.47-15.53-2.07-22.56-1.8-3.58-4.17-6.85-7.09-9.59-1.18-1.11-2.46-2.7-4.26-2.32-.82,.17-2.14,1.34-1.72,2.3,.21,.47,1.37-.81,1.15-1.3h0Z"/><path class="cls-7" d="M539.93,415.57c7.09,5.09,13.23,12.81,13.39,21.92,.01,.8,.82,.4,1.2,.11,.59-.45,1.3-1.34,1.32-2.12,.13-4.54-1.03-8.92-3.5-12.74-2.66-4.11-6.28-7.45-10.6-9.74-.81-.43-2.54,2.05-1.81,2.57h0Z"/><path class="cls-7" d="M628.32,399.29c7.88-1.98,15.59-4.66,23.37-7,7.95-2.39,15.89-4.77,23.89-6.99,16.08-4.47,32.29-8.47,48.61-11.98s32.57-6.55,48.98-9.14,33.83-4.82,50.83-6.46c16.64-1.6,33.3-2.77,49.99-3.68,2.1-.11,4.21-.22,6.31-.32,.67-.03,1.25-.64,1.62-1.15,.12-.16,.8-1.33,.18-1.32-16.71,.2-33.42,1.06-50.06,2.5s-33.2,3.44-49.7,5.88c-16.66,2.47-33.24,5.43-49.71,8.92s-32.84,7.47-49.07,11.93-32.74,9.36-48.68,15.28c-2.05,.76-4.07,1.55-6.08,2.41-.27,.11-1.02,1.24-.47,1.11h0Z"/><path class="cls-7" d="M387.81,452.22c.21,.26,.53,.54,.68,.83l-.18-1.02c0,.64,.11,1.57,.64,2.03,.28,.24,.63,.43,.94,.64l1.82,1.23c.13,.09,.26,.09,.38,0,1.23-.93,1.7-2.6,1.75-4.08,.06-1.81-.25-3.83-1.66-5.11-.13-.1-.26-.09-.39,0-.27,.11,.04,.08,.07,.04,.02-.03-.61-.13-.27-.1-.15-.01-.32,.1-.45,.18-.25,.17-.45,.43-.62,.67-.51,.74-.69,1.74-.75,2.62-.07,1.11-.01,2.27,.29,3.34,.21,.76,.48,1.52,.99,2.13,.44,.52,.89,.86,1.55,1.03,.37,.1,.62,.08,.95-.15,.37-.26,.65-.6,.92-.96,.71-.96,.97-2.17,1.1-3.33,.08-.76,.06-1.56-.04-2.32-.09-.71-.23-2.17-1.15-2.32-.45-.08-.79,.4-.96,.75-.5,1.02-.57,2.26-.43,3.38,.08,.67,.25,1.94,1.12,2.04,.72,.08,1.04-.64,1.23-1.2l-.21,.37c.2-.24,.47-.44,.7-.67,.25-.25,.24-.75,.21-1.07-.02-.24-.05-.77-.35-.83-.21-.04-.46-.07-.63-.19l.23,.36c-.12-.27-.22-.52-.42-.75-.14-.16-.28-.28-.44-.42-.15-.13,.11,.08-.05-.06-.37-.58-.37,.03-.01,1.81,.41,.8,.4,1.45-.05,1.95-.11,.17,.02,0,.12-.06l-.25,.1c.11-.04,.21-.08,.33-.04l-.26-.09c.11,.07,.08,.02-.09-.15l-.37-.97c-.07-.47-.09-.58-.06-.33-.03-.55-.04-.68-.03-.4,.02-.55,.02-.68,0-.4,.06-.47,.08-.58,.03-.33-.07,.4,.18-.51,.03-.13-.02,.07-.05,.14-.07,.21,.11-.26,.13-.31,.05-.13-.28,.48-.51,.76-1.01,1.08l.25-.1c-.22,0-.44-.04-.65-.11l.26,.09c-.22-.08-.43-.19-.61-.34-.08-.07-.16-.14-.24-.21-.18-.17,.07,.03,.07,.08,0-.04-.09-.11-.11-.14-.06-.09-.12-.18-.17-.27-.22-.34,.15,.4,.01,.03-.02-.06-.04-.12-.06-.17-.09-.22,.15,.59,.09,.29-.01-.06-.02-.12-.04-.18-.07-.22,.12,.73,.07,.38-.08-.49,.03,.74,.02,.29,0-.29-.03,.79,0,.44,0-.11,.04-.38-.02,.09-.06,.53,.01,.02,.03-.1,.02-.18-.17,.55-.06,.26,.02-.05,.03-.1,.05-.15,.08-.27-.15,.28-.06,.14,.03-.05,.06-.12,.09-.17s.07-.11,.1-.16c.12-.19,0,.05-.03,.03,.02,.02,.37-.45,.38-.45,.04-.07,.06-.18,.12-.24-.12,.12,0,.06,.09,.03h-.39s.25,.25,.18,.17,.12,.16,.15,.19c.05,.08,.1,.16,.15,.24,.16,.26-.09-.27,0,.02,.03,.08,.05,.19,.1,.27-.08-.26-.09-.31-.05-.14,.03,.14,.03,.12,0-.05-.03-.18-.03-.2-.01-.05,.02,.21,.02,.13-.02-.25v.1c0,.21,0,.13,.01-.25,0,.05,0,.1-.01,.15-.01,.15,0,.06,.03-.24-.01,.06-.02,.13-.04,.19l.06-.22c-.05,.08-.07,.23-.1,.32-.1,.32,.1-.14-.04,.08-.27,.45-.28,.5-.69,.83h.38c-.92-.6-1.84-1.19-2.76-1.78-.13-.09-.25-.09-.37,0-.1,.05-.18,.1-.27,.17-.07,.11-.17,.14-.28,.1-.12,0-.25-.03-.37-.04-.23-.03-.29,.55-.3,.67-.02,.3-.02,.76,.17,1.01h0Z"/><path class="cls-7" d="M385.11,442.95l-1.53-1.09-.17,.12c-.11,.06-.23,.17-.33,.25-.23,.18-.42,.38-.61,.6-.41,.48-.79,.98-1.12,1.51-.66,1.07-1.16,2.26-1.48,3.47-.78,2.92-.84,6.14-.05,9.07,.7,2.6,2.05,4.98,4.24,6.62,1.94,1.45,4.4,2.26,6.82,2.35s4.91-.56,6.9-1.95,3.53-3.73,4.28-6.13c.99-3.18,1.11-6.45,.51-9.71-.52-2.84-1.77-5.81-4.02-7.7-.95-.8-2.12-1.4-3.31-1.71-1.29-.34-2.33-.26-3.54,.29s-2.23,1.21-2.94,2.31-1.27,2.55-1.5,3.88c-.12,.65-.12,1.52,.2,2.12,.27,.5,.56,.34,.75-.15,.24-.62,.61-.71,1.22-.79,.74-.1,1.47-.28,2.22-.22,.9,.07,1.81,.33,2.71,.46,.8,.12,1.65,.31,2.4,.63,.79,.34,1.53,.82,2.14,1.43,.31,.3,.45,.5,.73,.91,.14,.21,.28,.41,.41,.63,.05,.09,.11,.18,.16,.28,.02,.04,.21,.42,.11,.2s.04,.09,.05,.12c.05,.13,.11,.27,.16,.4,.08,.23,.17,.6,.06,.14,.06,.25,.11,.5,.17,.75,.09,.32-.04-.21-.04-.23,0,.15,.04,.3,.06,.45,.08,.61,.01-.12-.01-.15,.04,.06,.01,.27,.01,.35,0,.12,0,.23,0,.35,0-.11,.05-.66,0-.1-.02,.17-.07,.71-.01,.25-.02,.12-.14,.87-.08,.61-1.99,8.45-15.48,9.21-18.92,1.45-.12-.27-.23-.56-.32-.84-.08-.24-.01-.05,0,0-.04-.15-.07-.29-.11-.44-.12-.45-.04-.14-.02-.03-.03-.15-.04-.3-.06-.45,0-.05-.05-.43-.02-.1,.04,.37,0-.25-.01-.33,0-.05-.01-.43,0-.1s0-.15,.01-.21c0-.11,.02-.23,.03-.34,.05-.72-.05,.26,.02-.16,.1-.62,.16-.91,.3-1.39,.34-1.08,.85-2.09,1.52-3.01,.34-.46,.69-.92,1.06-1.36,.27-.32,.45-.58,.56-1,.17-.62-.06-1.57,.44-2.04,.03-.03,.04-.26-.02-.24h0Z"/><path class="cls-7" d="M417.44,448.74c4.45,.86,9.17,.9,13.69,1.07s9.14,.2,13.71,.06c9.05-.28,18.13-1.01,27.06-2.52,5.18-.87,10.29-1.96,15.36-3.3,.3-.08,.22-1.16-.03-1.11-17.93,3.19-36.02,5.08-54.24,4.8-2.57-.04-5.13-.12-7.69-.25s-5.28-.43-7.91-.39c-.41,0-.38,1.56,.04,1.65h0Z"/><path class="cls-7" d="M436.57,441.49c1.07,.03,2.16,.17,3.21-.02s2.13-.39,3.19-.58c2.21-.4,4.42-.81,6.63-1.23,4.25-.8,8.5-1.61,12.75-2.45,8.66-1.7,17.3-3.47,25.92-5.31,17.17-3.66,34.28-7.62,51.32-11.87s33.85-8.74,50.66-13.53,33.7-9.9,50.42-15.26c16.75-5.37,33.38-11.17,49.88-17.28,2.04-.75,4.07-1.51,6.11-2.28,.31-.12,.15-1.22-.03-1.16-16.54,5.78-33.17,11.27-49.83,16.69-16.7,5.43-33.49,10.59-50.36,15.47s-33.66,9.43-50.6,13.73c-17.02,4.32-34.12,8.37-51.27,12.14-17.15,3.78-34.37,7.27-51.64,10.48-.98,.18-1.96,.36-2.95,.54-1.21,.22-2.28,.73-3.43,1.18-.17,.07-.19,.72,.02,.73h0Z"/><path class="cls-7" d="M515.41,346.49c5.91,1.5,11.73,3.38,17.15,6.22s10.02,6.16,14.41,10.05c9.64,8.55,17.08,19.23,23.42,30.37,3.71,6.51,7.16,13.15,10.59,19.8,.21,.41,.34-.42,.24-.62-11.18-22.93-23.66-47.39-46.97-60.12-5.8-3.17-12.19-5.63-18.85-5.99-.08,0-.07,.27,0,.29h0Z"/><path class="cls-7" d="M630.14,335.54c9.99,9.82,18.86,20.69,26.08,32.7,7.23,12.04,12.63,25.02,16.36,38.55,2.1,7.61,3.56,15.39,4.41,23.24,.06,.53,.34,.12,.31-.21-1.26-14.08-4.61-27.89-9.88-41.01-5.26-13.1-12.33-25.5-21.06-36.6-4.87-6.2-10.2-11.97-16.14-17.16-.1-.09-.17,.4-.07,.49h0Z"/><path class="cls-7" d="M786.24,321.73c1.48,2.36,3.62,4.36,5.39,6.52,1.65,2.01,3.23,4.09,4.73,6.22,3.11,4.42,5.94,9.02,8.38,13.84,4.8,9.49,8.13,19.64,10.01,30.1,1.07,5.97,1.54,11.99,1.64,18.05,0,.38,.34,.66,.36,.11,.61-21.75-6.46-43.73-18.68-61.63-1.75-2.57-3.65-5.03-5.65-7.42-.95-1.14-1.93-2.26-2.94-3.36-.93-1.02-1.95-2.24-3.18-2.88-.15-.08-.1,.39-.06,.44h0Z"/><path class="cls-7" d="M827.94,366.53c-1.18-.69,.03-1.57,.73-2.05,1.1-.74,2.21-.87,3.5-1.06,2.9-.43,5.81-.82,8.71-1.26,5.89-.88,11.8-1.69,17.71-2.43,11.83-1.48,23.69-2.68,35.58-3.59,23.61-1.81,47.3-2.45,70.97-2.12,13.38,.19,26.75,.78,40.11,1.38,.21,0,.22-.94-.02-.97-24.93-2.47-50.13-2.87-75.16-2.13-25.06,.74-50.07,2.74-74.93,6-6.88,.9-13.76,1.87-20.6,3.06-2.41,.42-5.45,.4-6.92,2.69-.56,.88-1.06,2.49,.3,2.85,.07,.02,.08-.34,0-.38h0Z"/><path class="cls-7" d="M977.12,356.33c23.7-14.17,48.56-26.49,74.18-36.78s52.53-18.54,79.73-24.38c15.23-3.27,30.64-5.73,46.03-8.07,.27-.04,.21-1.08-.03-1.07-27.7,2.29-55.18,8.49-81.79,16.41s-52.41,18.05-77.2,30.43c-14.07,7.02-27.7,14.82-40.94,23.3-.03,.02-.02,.16,.02,.14h0Z"/><path class="cls-7" d="M866.36,394.19c-.21-.57-.94-.28-1.16,.18-.25,.53,.15,1.2,.56,1.52,1.39,1.07,3.42,.31,4.93-.02,1.9-.41,3.8-.84,5.69-1.28,7.91-1.85,15.75-3.95,23.61-5.96,15.41-3.95,31.03-7.66,46.98-8.32,4.46-.19,8.94-.13,13.4,.22,4.14,.33,8.85,1.2,12.77-.63,.65-.31,.36-3.38-.22-3.22-1.33,.37-2.6,1-3.92,1.43-.41,.13-.38,1.8,.04,1.79,1.31-.03,2.67,.15,3.96,.06l-.08-3.28c-3.57,1.03-6.91,1.03-10.59,.74s-7.05-.44-10.59-.4c-7.23,.08-14.44,.84-21.56,2.03-14.31,2.38-28.27,6.41-42.27,10.15-3.93,1.05-7.86,2.08-11.81,3.04-1.97,.48-3.94,.95-5.91,1.39-.95,.21-1.93,.35-2.83,.74-.34,.15-.87,.55-1.26,.45-.41,.1-.56-.12-.45-.68,.26-.25,.5-.22,.71,.09,0,.02,.01-.02,.01-.03h0Z"/><path class="cls-7" d="M969.25,384.75c5.3,4.74,9.63,10.44,11.5,17.39,.19,.7,.39-.28,.32-.57-1.62-7.09-5.55-14.22-11.72-18.32-.3-.2-.38,1.25-.1,1.5h0Z"/><path class="cls-7" d="M783.78,409.44c-.37,.12-.73,.03-1.06-.27-.14-.1-.24,.03-.32,.13-1.28,1.78-1.12,4.7,.17,6.43,1.68,2.26,5.06,2.86,7.68,2.98,6.98,.33,13.34-3.34,19.07-6.89,.32-.2,.2-1.67-.18-1.49-5.15,2.45-10.58,5.07-16.34,5.62-2.58,.25-5.48,.08-7.85-1.06-.91-.44-2.59-1.45-2.51-2.61,.03-.42,.38-.72,.51-1.09,.22-.66,.18-1.18,.84-1.56,.03-.02,.03-.2-.01-.19h0Z"/><path class="cls-7" d="M978.44,386.84c-.43-.5-.9-.97-1.4-1.39-.25-.21-.52-.41-.79-.6-.16-.11-.28-.25-.43-.37-.12-.1-.3-.15-.45-.21-.56-.21-1.15-.38-1.74-.48-.31-.06-.65-.13-.97-.12s-.66,.07-.97,.13c-.27,.05-.24,.96,.02,1.02,.31,.07,.62,.16,.93,.24,.28,.07,.58,.11,.86,.17,.62,.15,1.22,.36,1.8,.62,.12,.06,.26,.15,.39,.18s.27,0,.41,.04c.28,.08,.55,.22,.81,.35,.52,.25,1.01,.56,1.46,.91,.11,.08,.13-.41,.06-.49h0Z"/><path class="cls-7" d="M970.38,380.16c-1.04-.34-1.97-1.07-1.99-2.29l-.77,1.29c.88,1.51,2.4,2.54,3.67,3.73s2.39,2.33,3.49,3.58c2.19,2.5,4.14,5.22,5.81,8.09,3.29,5.64,5.69,11.83,6.73,18.29,.23,1.42,.79,.27,.71-.57-.66-7.23-2.77-14.36-6.36-20.69-1.73-3.05-3.77-5.93-6.08-8.57-1.17-1.34-2.4-2.63-3.7-3.85-1-.94-2.62-2.84-4.06-2.77-.79,.04-.53,2.38-.2,2.75,.63,.71,1.84,1.19,2.77,1.29,.07,0,.07-.27,0-.29h0Z"/><path class="cls-7" d="M383.93,483.78l1.75-1.89c.55-.6,1.24-1.03,1.78-1.64,1.17-1.34,2.52-2.63,3.37-4.2,.05-.08,.07-.71-.1-.62-.73,.41-1.24,1.1-1.77,1.72-.58,.68-1.16,1.36-1.74,2.04s-.98,1.5-1.54,2.2l-1.77,2.2s0,.21,.02,.19h0Z"/><path class="cls-7" d="M390.67,475.14l-.18,.24c-.14,.19-.1,.22-.42,.11-.11,.02-.19,.09-.23,.2l-1.2,2.4c-.23,.46-.49,.93-.65,1.42-.1,.29-.16,.61-.21,.91-.07,.41-.1,.97,.1,1.35,.29,.56,.76-.2,.91-.47,.22-.38,.4-.79,.6-1.19l.6-1.2,.29-.58c.29-.58,.3-1.17,.29-1.81l-.06,.57c.12-.35,.25-.69,.37-1.04,.07-.2,.06-.47,.01-.68-.01-.05-.12-.38-.21-.25h0Z"/><path class="cls-7" d="M637.43,459.11c-.95-1.02-1.86-1.65-3.23-1.94-.9-.18-1.75-.12-2.63,.1-1.51,.39-2.65,1.3-3.57,2.56-1.15,1.6-1.48,3.97-1.56,5.89-.11,2.57,.33,5.09,1.41,7.42,1.89,4.09,5.67,6.85,9.28,9.34,4.31,2.96,9,5.62,13.78,7.73,2.5,1.1,5.08,2.18,7.72,2.9s5.65,1.24,8.48,1.71c.62,.1,.67-3.06,.06-3.33-4.26-1.92-8.41-4.09-12.58-6.18s-8.13-3.95-12.06-6.18c-3.54-2.01-7.29-4.01-10.32-6.76-1.37-1.24-2.64-2.66-3.44-4.34-.29-.6-.41-1.14-.49-1.43,.02,.08,.03,.26,.01,.35,0,0,.08-.5,.02-.23,.07-.32,.13-.62,.23-.93,.59-1.76,1.46-3.31,2.9-4.52,1.75-1.47,3.92-.81,5.97-1.03,.31-.03,.16-1,.02-1.14h0Z"/><path class="cls-7" d="M578.32,328.91c3.17-.06,6.25-1,9.33-1.72s5.92-1.36,8.89-2c6.09-1.32,12.2-2.53,18.34-3.64,12.19-2.21,24.45-4.05,36.75-5.49,24.62-2.86,49.42-4.1,74.2-3.69,13.97,.23,27.94,.98,41.89,1.77,.23,.01,.26-1.17-.03-1.21-24.75-3.09-49.86-3.34-74.76-2.26-24.83,1.08-49.63,3.75-74.09,8.17-6.85,1.24-13.67,2.6-20.47,4.1-3.44,.76-6.87,1.54-10.29,2.36s-6.72,1.46-9.8,2.99c-.11,.06-.1,.62,.04,.62h0Z"/><path class="cls-7" d="M971.7,338.62l-4.03-.02c-.07,0-.07,.29,0,.29l4.03-.02c.06,0,.06-.24,0-.24h0Z"/></g></svg>