<?xml version="1.0" encoding="UTF-8"?><svg id="Layer_1" xmlns="http://www.w3.org/2000/svg" viewBox="0 0 1500 750"><defs><style>.cls-1{fill:#70a4ad;}.cls-2{fill:#d0dcdc;}.cls-3{fill:#231f20;}</style></defs><g><path class="cls-1" d="M980.87,379.92c13.37,5.17,51.27,40.54,60.22,39.35,8.94-1.19-9.54-21.46,0-25.04,9.54-3.58,82.28-18.32,84.66-20.79s11.92,19,17.29,17.21c5.37-1.79,20.27-22.06,31-25.04s8.94-3.58,11.92-5.96,12.52-4.17,12.52-4.17c0,0,5.96-13.71-62-12.52-67.97,1.19-131.76,.6-145.47,8.94-13.71,8.35-185.42-23.85-249.81-26.23-64.39-2.38-160.38-5.37-212.25,0-51.87,5.37-85.85,8.35-108.51,10.14-22.66,1.79-116.26,3.58-115.66,10.14s25.64,24.01,45.31,27.51c19.67,3.5,17.29,7.07,17.29,10.06s52.47,17.89,67.97,20.87c15.5,2.98,172.9,17.29,270.08,1.19,97.18-16.1,256.96-32.79,275.44-25.64Z"/><path class="cls-1" d="M478.27,397.21s5.96,62.6,28.02,86.45c22.06,23.85,23.25,17.29,23.25,17.29,0,0-14.9-53.66,4.17-68.56,19.08-14.9,11.92-13.09,11.92-13.09,0,0-33.98-21.49-41.14-22.09-7.15-.6-26.76-4.63-26.23,0Z"/><path class="cls-1" d="M549.81,407.94s-19.67,56.64-11.92,85.26c7.75,28.62-44.68-49.5-39.95-66.18,4.73-16.68,33.39-28.62,51.87-19.08Z"/><path class="cls-1" d="M518.13,323.42s36.96-10.14,51.27-31c14.31-20.87,72.84-50.35,76.42-38.42,3.58,11.92-25.13,42.1-12.63,52.14,12.5,10.04,31.6,18.48,29.21,17.29s-144.28,0-144.28,0Z"/><path class="cls-1" d="M793.14,331.29c1.79,.6,48.29-2.38,52.47-8.35s49.43-26.59,57.18-24.8c7.75,1.79-13.42,20.65-8.65,25.41,4.77,4.77,18.24,25.02,18.24,25.02l-119.24-17.29Z"/><path class="cls-1" d="M852.82,386.03s42.19,25.49,46.96,23.1-10.14-17.29,0-19.08c10.14-1.79,22.77-10.22,22.77-10.22,0,0-23.37-9.29-32.31-6.39-8.94,2.9-39.07,6.77-37.42,12.59Z"/><path class="cls-1" d="M701.93,406.12s30.91,31.04,36.28,27.46c5.37-3.58,3.64-9.54,7.78-9.54s2.95-17.51,12.49-19.49c9.54-1.98-34.58-6.74-38.75-5.55-4.17,1.19-24.13,.97-17.8,7.12Z"/><path class="cls-2" d="M306.93,343.9c-1.18-.81-2.32-1.68-3.42-2.59-.98-.77-.23,4.23,.18,4.82,6.37,9.36,19.28,16.17,29.85,19.33,1.86,.56,.9-7.48-1.26-8.15-5.41-1.67-10.6-3.61-15.53-6.43s-8.54-7.1-13.24-9.58l.68,5.09c.95-.42,1.92-.76,2.93-1.02,.41-.12,.05-1.31-.19-1.48h0Z"/><path class="cls-2" d="M329.43,357.17l-.05-.28,1.42,3.73-.02-.34-.98,2.55c2.75,2.26,7,3.27,10.36,4.31s7.7,3.07,10.77,1.15c1.64-1.03,.12-5.82-1.06-6.78-3.19-2.59-6.85-2.82-10.75-3.83-3.19-.82-6.4-2.35-9.69-2.6-.33,.12-.53,.36-.62,.71-.67,2.03-.7,3.92,.17,5.93,.17,.39,.56,1.49,1.19,1.39l.38-.06c.39-.06,.5-.72,.56-.99l.07-.32c.14-.64-.52-5.64-1.75-4.56h0Z"/><path class="cls-2" d="M313.86,349.05c5.93,6.78,15.83,11.02,24.28,13.62,4,1.23,8.09,2.14,12.23,2.77,2.28,.35,4.57,.6,6.87,.76,2.77,.19,4.04,.72,5.84-1.49,1.14-1.4-.11-5.31-1.41-6.26-3.48-2.56-8.33-1.65-12.56-2.21-4.89-.65-9.64-1.81-14.34-3.29-3.72-1.18-7.36-2.54-10.89-4.21s-6.67-3.99-10.31-4.81c-1.21-.27-.14,4.62,.29,5.12h0Z"/><path class="cls-2" d="M365.63,359.86c-2.25-.17-4.51-.1-6.77-.18-5.44-.18-3.78,.1-10.28,4.31-1.92,1.24,1.41,1.97,2.13,1.98,3.08,.03,5.33,.64,8.05,2.06l8.51-2.21c-2.19-.93-4.21-1.08-6.57-1.08-.59,0-6.08,.32-5.54,1.87,1.19,3.4,3.16,5.77,5.88,8.08,5,4.26,9.95,8.34,14.68,12.82,.3,.42,.7,.62,1.2,.62l.51-.31c1.3-.79,1.2-3.16,1.01-4.46-.52-3.55-1.54-5.5-3.91-8.01-2.89-3.06-6.67-5.39-8.48-9.23l-5.34,2.36-1.09-.07c2.06,.79,5.02,.79,7.11,.14,.9-.28,3.38-1.37,1.39-2.35-3.58-1.76-7.41-2.15-11-3.54l-8.26,3.01c4.56,2.43,5.93,3.61,10.74,3,2.48-.32,4.95-.77,7.29-1.66,1.71-.64,.54-7-1.24-7.14h0Z"/><path class="cls-2" d="M365.4,371.6c4.46,4.01,8.35,8.7,13.8,11.39,2.47,1.22,2.53-8.27,.91-9.75-4.31-3.94-9.5-6.87-13.61-11.04-1.26-1.28-2.03,2.87-2.09,3.36-.19,1.63-.42,4.77,.99,6.04h0Z"/><path class="cls-2" d="M373.33,382.7c1.27,.23,1.77,.09,3,.68,1.68,.82,3.26,1.91,4.99,2.7,3.85,1.77,7.79,3.33,11.77,4.76,8.24,2.97,16.66,5.23,25.22,7.04s16.62,3.17,24.99,4.31c4.17,.57,8.35,1.03,12.54,1.5,3.44,.39,9.11,2.62,10.87-1.19,.98-2.12,.24-12.68-3.33-12.41-9.41,.69-19.32-1.5-28.68-2.75-8.82-1.18-17.62-2.61-26.31-4.56-8.58-1.92-17.09-4.17-25.35-7.21-2.55-.94-7.86-4.33-10.63-2.82-2.12,1.15-1.27,4.57-.91,6.38,.15,.75,.78,3.37,1.84,3.56h0Z"/><path class="cls-2" d="M471.02,394.39c-6.68,.54-13.51,.98-20.22,1.19-2.21,.07-2.32,8.92-.43,8.84,7.17-.31,13.61-1.29,20.49-3.21,1.62-.45,1.63-6.94,.17-6.83h0Z"/><path class="cls-2" d="M491.49,382.74c-2.13-.53-3.86-.98-6.04-.97-1.9,0-.3,8.53,1.8,8.79,12.66,1.58,25.72,1.18,38.45,.88s25.87-.9,38.8-1.59c26.84-1.44,53.65-3.19,80.47-4.96,52.46-3.46,104.93-6.87,157.38-10.39,28.42-1.91,56.85-3.23,85.04-7.35,1.62-.24-2.08-12.04-5.46-10.84-13.05,4.62-26.58,5.47-40.3,6.23-12.48,.69-24.96,1.39-37.43,2.09-25.6,1.44-51.2,2.89-76.8,4.37-51.97,2.99-103.96,5.82-155.9,9.23-14.35,.94-28.71,1.84-43.09,2.4-14.28,.56-28.71,.09-42.95,1.13l2.27,8.84c1.93-.82,3.27-1.92,4.94-3.22,.89-.69-.13-4.39-1.17-4.65h0Z"/><path class="cls-2" d="M483.35,384.63c-1.54-.91-2.8-1.09-4.53-1.32-1.4-.18-.54,6.19,.89,6.72,12.01,4.44,25.7,4.8,38.23,7.25,13,2.54,25.79,6.21,38.34,10.43,2.23,.75,.07-8.24-2.11-9.32-11.71-5.81-24.12-9.05-36.94-11.41-12.07-2.22-26.16-5.59-38.41-3.68l1.53,6.61c1.09-.99,2.27-1.28,3.55-.85,1.05,.16,.18-4.01-.55-4.44h0Z"/><path class="cls-2" d="M499.32,396.73l5.28-1.72-6.81-.36c4.26,2.95,5.47,3.8,9.74,5.02,1.7,.49,3.41,.96,5.09,1.5,3.64,1.17,7.25,2.5,10.77,3.98,6.82,2.86,13.33,6.42,19.39,10.66l-2.45-9.64-.94,1.11c-1.33,1.58,.52,5.84,1.78,7.02l1.6,1.5c1.77,1.66,1.99-1.57,1.93-2.62-.12-1.97-1.01-5.69-2.81-6.92-11.97-8.18-27.27-16.3-42.2-15.81-1.16,.04-1.3,2.68-1.36,3.35-.15,1.66,.3,2.09,.97,2.93h0Z"/><path class="cls-2" d="M535.78,408.21c8.65,.81,17.51-.42,26.16-.99s17.3-1.38,25.95-2.1c17.29-1.45,34.58-2.95,51.87-4.5,35.01-3.14,69.99-6.6,104.95-10.28,19.52-2.06,39.03-4.17,58.53-6.4,2.99-.34-2.5-10.9-5.41-11.06-4.55-.26-9.16-.63-13.69-.02-1.85,.25,2.59,8.92,4.5,9.33,4.79,1.03,9.72,1.39,14.6,1.76l-5.41-11.06c-68.59,7.09-137.23,13.78-205.93,19.76-9.54,.83-19.08,1.62-28.62,2.45s-19.99,1.03-29.4,3.54c-2.45,.65-.51,9.36,1.91,9.59h0Z"/><path class="cls-2" d="M553.41,384.41c-3.72-.71-6.95,.19-8.9,3.59-.78,1.36-2.17,7.87,.25,8.41,8.43,1.85,17.86,.82,26.44,.65,8.84-.17,17.68-.39,26.52-.64,17.38-.5,34.75-1.39,52.11-2.41,34.48-2.02,69.42-3.7,103.38-10.2,1.49-.29-1.49-7.89-3.32-7.86-34.09,.52-68.08,4.14-102.12,6.13-17.04,1-34.09,1.75-51.14,2.54-8.4,.39-16.79,.73-25.19,1.02-8.53,.3-17.87-.34-26.16,1.79l.88,6.83c.69-2.6,3.53-3.8,5.93-3.24,1.52,.36,2.92-6.31,1.32-6.61h0Z"/><path class="cls-2" d="M686.36,390.87c-8.03,2.43-17.98,5.4-26.38,3.51-1.73-.39-2.3,7.62-.22,8.43,6.81,2.67,14.84,2.34,22.02,2s14.55-.68,21.82-1.02c7.24-.34,14.48-.67,21.71-1.07,6.68-.37,15.43,.56,21.6-2.13,2.23-.97-.81-8.98-2.69-9.49-6.19-1.66-13.49-.17-19.82,.23-7.38,.46-14.76,.97-22.14,1.49s-14.05,1.06-21.09,1.49-14.11,0-21.2,.06l.16,8.29c8.09-3.27,17.46-4.03,25.84-6.59,1.49-.46,1.11-5.43,.38-5.21h0Z"/><path class="cls-2" d="M751.59,386.48c7.8-1.52,16.2-1.36,24.13-2.07s16.47-1.5,24.7-2.28c16.32-1.54,32.61-3.3,48.91-5.08,32.1-3.51,64.73-5.96,96.4-12.42,1.21-.25-1.69-7.01-3.35-6.94-31.66,1.36-63.23,6.15-94.71,9.61-15.69,1.73-31.39,3.37-47.07,5.15-7.6,.86-15.2,1.74-22.8,2.59-8.29,.93-17.04,2.92-25.36,2.88-2.61-.01-2.33,8.84-.84,8.56h0Z"/><path class="cls-2" d="M857.35,370.71c11.64-1.97,23.75-2.76,35.52-3.71s22.64-1.42,33.98-1.71c22.98-.58,45.94,.68,68.89,1.82,1.35,.07,.32-8.53-1.99-8.88-22.15-3.41-44.55-3.93-66.93-3.12-11.16,.4-22.3,1.34-33.4,2.61s-22.83,3.66-34.28,5.54c-1.89,.31-3.46,7.74-1.78,7.46h0Z"/><path class="cls-2" d="M929.78,368.29c9.21-1.04,18.42-1.5,27.68-1.57,1.37-.01,2.29-5.06,1.54-5.08-9.12-.3-18.23,.05-27.32,.89-1.75,.16-2.41,5.82-1.9,5.76h0Z"/><path class="cls-2" d="M992.63,370.24c2.85,4.45,7.53,8.04,11.28,11.73s7.66,7.69,11.08,11.91c5.05,6.24,10.06,17.54,18.48,19.72,2.89,.75,5.64-13.44,2.12-14.76-.38-.26-.78-.28-1.2-.05-2.5,.62-2.79,6.02-2.69,8,.07,1.51,.2,2.92,.44,4.42l4.04-12.01c-3.33-2.27-6.43-4.37-9.09-7.47-3.17-3.71-5.91-7.7-9.28-11.25-3.55-3.74-7.4-7.22-11.42-10.44-2.77-2.22-7.79-7.6-11.68-7.2-.78,.08-1.19,1.14-1.41,1.76-.54,1.48-1.63,4.13-.66,5.65h0Z"/><path class="cls-2" d="M1017.55,382.53c6.38,6.98,12.22,14.42,18.56,21.42,1.08,1.19,3.13-6.11,2.03-7.73-5.19-7.64-11.66-14.26-18.47-20.46-1.12-1.02-3.32,5.47-2.12,6.77h0Z"/><path class="cls-2" d="M1038.14,389.21c-5.3-1.81-10.3-3.54-14.75-7.1-1.92-1.54-3.66-3.27-5.21-5.18-.77-.96-1.51-1.95-2.16-3-.56-.87-1.05-1.77-1.48-2.7-.56-1.5-.83-.84-.83,1.98,.25,.15,2.73-.65,3.27-.73,1.89-.29,3.84-.44,5.73-.7,3.23-.44,6.45-.86,9.68-1.25,6.82-.84,13.65-1.58,20.48-2.3,13.36-1.41,26.75-2.56,40.16-3.42,6.54-.42,13.09-.78,19.64-1.06,3.63-.16,7.25-.3,10.88-.41,1.65-.05,3.31-.14,4.96-.15,5.64-.04,4.1-.64,13.15-4.55l-11.71-.47c3,2.45,6.37,4.65,9.32,6.94,.6,.46,1.17,.83,1.64,1.44,1.76,2.34,1.38-3.97,1.28-4.54-2.66-15.46-16.22-11.52-26.92-10.97-8.41,.43-16.81,.97-25.2,1.63-17.12,1.34-34.21,3.14-51.22,5.51-4.18,.58-8.36,1.2-12.54,1.82-3.49,.52-7.69,.67-10.95,2.17-4.8,2.21-5.91,8.81-4.95,13.58,2.22,11,16.47,20.39,27.26,19.7,1.45-.09,1.81-5.76,.46-6.22h0Z"/><path class="cls-2" d="M1013.14,376.22l.29,.09c.23-.03,.39-.15,.49-.37l.18-.3c.82-1.35,1.26-4.19,.34-5.59-1.35-2.06-4.89-2.32-7.06-3.09-3.39-1.2-6.29-2.84-7.63-6.38l-2.29,9.43c2.08,.5,4.32,.36,6.45,.45,1.43,.06,4.69-.5,5.54,.96l-.62-2.91,.03,.59,.93-6.05,.27-.79c-1.2,1.46-3.18,9.17-.68,10.14l.39,.15c.44-.04,.76-.25,.98-.66,1.83-2.36,3.75-10.11,.97-12.47-1.29-1.09-3.58-.52-5.08-.4-2.49,.19-5.11,.15-7.53,.72s-3.38,8.21-2.01,10.01c1.47,1.93,3.81,3.3,6.06,4.16,1.59,.61,3.27,.94,4.94,1.24,.71,.12,4.87,.29,5.28,.71l.34-5.59v-.1c-1.06-.25-1.99,5.59-.58,6.04h0Z"/><path class="cls-2" d="M1015.33,371.63c-3.09-1.74-4.97-4.32-6.01-7.69l-1.69,7.7c4.86-.88,9.54-2.31,14.46-2.94,5.43-.7,10.92-.99,16.38-1.39,11.5-.84,23.01-1.46,34.54-1.85s22.36-.56,33.55-.5c11.61,.06,24.29-.5,35.67,2.04l-1.14-12.28c-20.71-.15-41.86,2.39-62.31,5.42-10.29,1.52-20.53,3.38-30.69,5.56-5.25,1.13-10.46,2.41-15.69,3.6s-9.25,1.51-12.61,5.67c-1.34,1.65-5.71,8.52-3.9,10.77l1.02,1.27c.23,.42,.57,.52,1,.32,2.38-.46,3.4-1.24,4.66-3.31,1.66-2.73,2.1-7.06,1.58-10.11-.39-2.27-1.74-4.32-2.98-1-.48,1.28-1.69,3.01-2.33,4.15l3.24,1.03-.24,.14-3.42,5.7c1.44-1.57,5.07-1.88,7.03-2.41,2.48-.67,4.97-1.29,7.48-1.86,5.04-1.15,10.09-2.22,15.17-3.22,10.15-1.99,20.35-3.68,30.6-5.07,21.15-2.86,42.25-3.78,63.55-4.36,2.1-.06,1.53-12.09-1.14-12.28-10.95-.76-21.68-1.65-32.67-1.54-11.71,.11-23.43,.49-35.13,1.1s-22.82,1.41-34.2,2.45c-10.05,.92-21.63,1.79-30.66,6.67-1.73,.94-2.22,6.63-1.1,8.06,2.07,2.65,4.34,4.28,7.48,5.47,.79,.3,1.67-4.63,.52-5.28h0Z"/><path class="cls-2" d="M485.92,375.97l.05,3.78-.99,2.09c91.18-3.31,182.44-5.36,273.66-7.64,25.57-.64,51.13-1.56,76.69-2.62,1.95-.08-2.7-8.11-5.29-8.14-90.57-1.33-181.21,1.09-271.74,3.83-25.45,.77-50.87,1.94-76.31,2.81-.73,.02-.98,1.71-.99,2.09l-.02,1.18c-.05,2.44,.61,9.41,3.97,9.68,1.07,.08,1.74-.97,2.31-1.69,1-1.25-.2-4.55-1.34-5.36h0Z"/><path class="cls-2" d="M509.9,367.1c110.63-9.08,222.14-11.44,333.1-9.63,31.2,.51,62.38,1.05,93.56,2.17,.95,.03-1.67-5.03-3.36-5.11-110.48-5.47-221.16-5.23-331.63,.52-31.09,1.62-62.16,3.71-93.23,5.83-1.21,.08-.18,6.36,1.56,6.21h0Z"/><path class="cls-2" d="M668.88,367.78c39.19-2.24,78.24-5.51,117.51-6.23,39.11-.71,78.15,.73,117.23,1.69,.76,.02-1.03-7.04-2.88-7.23-38.48-4-77.33-4.39-115.98-3.44-38.34,.95-77.03,2.86-114.94,8.87-1.61,.25-2.05,6.4-.94,6.34h0Z"/><path class="cls-2" d="M890.27,360.54c-81.48-2.91-162.83-3.4-244.29,.54l-3.7,5.95c5.28-1.16,9.93,.34,14.26,3.37,.94,.66,4.32-5.28,3.03-6.4-3.83-3.31-8.73-3.95-13.59-2.92-1.55,.33-4.9,6.01-3.7,5.95,82-3.52,164.37-4.76,246.41-1.69,1.26,.05,2.15-4.78,1.59-4.8h0Z"/><path class="cls-2" d="M782.4,385.87c-11.35,2.73-22.42,5.17-33.28,9.63-1.58,.65-2.04,8.92-.31,8.83,8.2-.44,15.69-2.37,23.32-5.33,1.32-.51,1.51-6.63,.53-6.44-7.62,1.45-15.43,2.25-23.16,2.8l-.31,8.83c10.45-4.43,21.85-8.44,33.22-9.48,2.28-.21,1.36-9.18,0-8.85h0Z"/><path class="cls-2" d="M783.4,388.62c-8.26,2.24-20.49,5.04-26.02,11.89-.56,.7-1.36,5.63,.04,5.75,3.66,.32,8.56-3.72,11.8-5.35,4.48-2.26,9.1-4.2,13.81-5.92,1.4-.51,1.15-6.58,.37-6.37h0Z"/><path class="cls-2" d="M783.88,391.25c-12.6,2.97-24.53,6.84-36.02,12.88-1.32,.69-1.5,6.94-.11,6.44,11.94-4.28,23.76-8.93,35.76-13.04,1.36-.46,1.2-6.48,.37-6.29h0Z"/><path class="cls-2" d="M746.29,395.42c-3.21-.06-6.67,1.33-9.71,2.33-1.47,.48-2.93,1.02-4.37,1.57-3.98,1.53-3.18,1.65-7.1,6.09-.16,.26-.12,.48,.12,.67,4.11,2.61,3.48,3.79,6.48,2.77,1.27-.43,2.35-1.46,3.48-2.16,.93-.57,1.22-6.07-.04-5.97-1.35,.11-2.67,.23-4,.43-1.1,.17-1.33,4.63-.24,4.88,1.34,.31,2.68,.53,4.04,.75l.2-6.07c-2.16,.72-4.85,.73-7.11,.66l.29,8.25,4.68-4.62-6.59,1.42c7.27,1.06,5.68,1.74,9.88-.02,1.28-.54,2.56-1.07,3.85-1.59,2.55-1.03,5.4-1.73,7.7-3.22,1.24-.79-.05-6.18-1.56-6.21h0Z"/><path class="cls-2" d="M891.9,385.87c8.56-.01,17.13-.13,25.64-1.11,1.5-.17,2.19-6.51,.74-6.78-3.45-.63-6.83-1.76-10.01,0-1.04,.57-2.44,6.42-.9,6.73,3.33,.69,6.71-.56,10.17,.05l.74-6.78c-8.44,.55-16.81,.9-25.26,.3-1.83-.13-2.5,7.59-1.13,7.59h0Z"/><path class="cls-2" d="M901.82,377.72c-7.72-1.28-15.55-1.65-23.28-.28-1.39,.25-1.83,5.8-.85,5.75,7.81-.35,15.54-.72,23.36-.22,1.13,.07,1.85-5.07,.78-5.25h0Z"/><path class="cls-2" d="M527.37,409.21c-1.99-3.2-4.45-5.55-7.06-8.24-1.4-1.45-1.56,1.47-1.49,2.18,.19,1.82,1.05,4.23,2.5,5.46,5.55,4.67,13.43,7.65,20.05,10.54,1.78,.78,1.15-3.46,1.02-4.06-.42-2-1.33-4.41-3.16-5.51-3.43-2.04-6.85-3.9-10.47-5.57-2.97-1.37-6.07-3.3-9.39-3.35l2.89,8.25c1.87-.77,3.73,.81,4.7,2.29,1.22,1.87,.91-1.19,.41-2h0Z"/><path class="cls-2" d="M544.67,421.5c1.01-.29,1.95-.18,2.82,.34l-1.1-4.3c-.09,1.65-6.84,5.25-8.3,6.48-2.89,2.44-5.45,5.14-7.71,8.17-4.09,5.49-7.35,11.7-9.52,18.19s-3.42,13.82-3.54,20.8,.19,15.86,3.85,22.13c.93,1.6,3.55,4.22,3.83,.74,.29-3.67-1.21-7.46-1.6-11.12-.49-4.54-.41-9.21,.2-13.73,1.17-8.68,4.31-17.32,8.77-24.84,2.1-3.55,4.55-6.92,7.17-10.1s5.98-5.68,8.71-8.76c1.81-2.04,1.63-4.56,.66-7.03-1.27-3.21-3.47-3.96-6.38-5.39-1.73-.85-.97,9.37,2.13,8.44h0Z"/><path class="cls-2" d="M547.26,422.38c-6.39-.71-9.5,7.27-12.15,11.97-3.54,6.27-6.68,12.84-9.05,19.64s-4.04,14.36-4.5,21.71c-.38,6.1-1.1,17.45,5.59,20.72,1.29,.63,2.58,.6,3.01-1.07l.19-.73c.91-3.56-.99-9.86-4.76-11.22l2.2,2.47,1.55,5.45c-1.6-11.43,.24-22.46,3.96-33.29,1.84-5.35,4.07-10.53,6.47-15.65,1.26-2.67,4.59-13.48,8.87-13.02,2.02,.22,.51-6.76-1.38-6.97h0Z"/><path class="cls-2" d="M635.92,286.05c.2-.81,.4-1.62,.59-2.44,.1-.43-.24-1.04-.49-1.36-.17-.22-.53-.55-.64-.12-.2,.78-.4,1.57-.6,2.35-.11,.45,.22,1.08,.48,1.43,.17,.23,.55,.6,.66,.14h0Z"/><path class="cls-2" d="M640.91,263.61c-3.89-.57-5.71,9.41-6.66,12.23-2.01,5.94-4.42,12.26-4.72,18.59-.24,5,1,10.05,3.05,14.59,1.85,4.1,5.2,10.91,9.89,12.22,3.1,.86-.91-7.54-1.32-8.14-1.94-2.78-4.51-4.68-5.5-8.05-1.23-4.17-.44-8.63,.39-12.79,.73-3.67,1.62-7.31,2.53-10.94,.81-3.22,1.28-10.96,4.39-12.45,1.31-.63-.92-5.09-2.04-5.25h0Z"/><path class="cls-2" d="M899.09,295.68c-6.17,5.85-9.79,11.92-9.67,20.7,.1,7.59,2.63,17.37,8.39,22.69,.58,.53,1.19,.73,1.78,.15,1.29-1.25,.88-3.45,.61-5.03-.1-.58-2.32-7.51-3.77-5.34l-.18,.27c-1.37,2.05,.22,5.73,1.33,7.52-1.39-2.25,.2-6.54-1.02-9.09-.48-1-1.22-1.87-1.68-2.9-1.26-2.82-1.36-5.68-.82-8.71,.89-4.96,3.38-10.33,7.16-13.73,1.39-1.25-.93-7.64-2.11-6.52h0Z"/><path class="cls-2" d="M898.77,303c-4.49,6.3-6.3,15.24-6.23,22.89,.03,3.57,1.71,19.24,8.47,15.92,1.44-.71,1.05-3.33,.88-4.56-.21-1.5-.43-3.24-1.36-4.5-1.71-2.32-3.53-1.01-3.22-4.85,.46-5.58,1.37-12.55,4.06-17.51,.93-1.72-1.57-8.84-2.61-7.39h0Z"/></g><g><path class="cls-3" d="M336.56,361.74l3.22,5,.2-2.67c-14.54-4.84-28.16-12.27-39.88-22.15l-.06,2.7c17.04-1.77,34.1-3.28,51.14-5.06,17.06-1.78,34.12-3.62,51.17-5.53,16.96-1.9,33.92-3.86,50.87-5.89,17.03-2.04,34.06-4.14,51.07-6.31,8.35-1.06,16.7-2.1,25.03-3.25,3.71-.51,7.41-1.08,11.07-1.89s7.28-1.66,10.53-3.29c1.71-.85,3.36-1.81,4.95-2.86,.35-.23,.09-1.9-.12-1.81-6.73,3.14-14.08,5.04-21.39,6.23-7.99,1.31-16.06,2.2-24.08,3.22-17.01,2.18-34.04,4.29-51.07,6.34s-33.9,4.01-50.86,5.92-33.93,3.76-50.91,5.54-34.1,3.53-51.16,5.24c-2.1,.21-4.21,.44-6.31,.63-.78,.07-.47,2.35-.06,2.7,11.74,10.03,25.39,17.76,40.14,22.36,.71,.22,.39-2.38,.2-2.67l-3.24-4.9c-.34-.51-.61,.23-.68,.51-.12,.56-.1,1.37,.23,1.87h0Z"/><path class="cls-3" d="M538.29,315.69c16.69-5.46,30.69-16.16,43.94-27.35,13.47-11.38,26.58-23.57,42.09-32.18,4.2-2.33,8.7-4.79,13.41-5.91,3.95-.95,9.22-1.1,11.5,2.94l.04-2.68c-9.12,12.81-9.09,29.28-7.68,44.3,.36,3.83,.72,7.68,1.36,11.47,.53,3.13,1.31,6.37,3.02,9.09,1.97,3.14,4.95,4.79,8.58,5.28,4.51,.62,9.19,.53,13.73,.73,39.08,1.74,78.17,3.44,117.25,5.24,11.02,.51,22.04,1.02,33.05,1.52,5.38,.25,10.76,.51,16.15,.43,2.69-.04,5.38-.16,8.05-.4,1.4-.13,2.87-.21,4.26-.5s2.84-.89,4.21-1.38c.58-.21,.52-2.86-.07-2.84-2.26,.06-4.43,.13-6.67,.4-2.46,.3-4.93,.48-7.4,.58-4.55,.19-9.11,.1-13.66-.06-9.35-.32-18.69-.72-28.04-1.08-18.71-.73-37.42-1.47-56.12-2.23l-55.5-2.25c-9.22-.37-18.51-.47-27.72-1.15-3.93-.29-7.52-1.52-9.69-4.99-1.75-2.79-2.38-6.12-2.81-9.34-2.2-16.48-4.18-35.65,6.01-50.02,.46-.66,.44-1.98,.04-2.68-4.2-7.44-14.94-2.61-20.56,.12-7.98,3.88-15.4,8.85-22.4,14.29-14.26,11.07-27.04,23.96-41.7,34.52-8.26,5.95-17.1,11.15-26.73,14.54-.45,.16-.25,1.67,.04,1.58h0Z"/><path class="cls-3" d="M844.54,325.6c16.15-7.66,30.16-19.35,46.81-25.99,4.05-1.62,8.25-2.9,12.55-3.69,.97-.18,2.06-.49,3.05-.44,.34,.01,.44,.07,.8,.21-.34-.14,.44-.63-.21,0-.37,.36-.68,1.01-.97,1.43-1.33,1.93-2.51,3.97-3.57,6.06-4.15,8.22-6.11,17.65-5.48,26.84,.32,4.59,1.57,9.44,5.57,12.19,3.62,2.48,8.76,3.08,13.01,2.29,.43-.08,.36-1.57-.04-1.69-4-1.13-8.29-1.24-11.98-3.38-4.22-2.44-5.38-6.88-5.49-11.47-.23-9.45,2.53-19.05,7.58-27.02,1.04-1.65,2.52-3.19,2.61-5.24,.03-.75-.03-1.72-.51-2.35-.57-.74-1.44-.67-2.26-.55-4.27,.6-8.46,1.75-12.5,3.24-8.23,3.02-15.85,7.42-23.28,12.01-8.56,5.29-16.91,10.98-25.93,15.48-.48,.24-.27,2.32,.25,2.08h0Z"/><path class="cls-3" d="M911.94,339.27c17.23,7.62,36.02,10.19,54.73,10.12s38.3-2.57,57.36-4.69c20.72-2.3,41.48-3.62,62.33-3.88,21.2-.27,42.39,.31,63.57,1.31,8.86,.42,17.88,.5,26.65,2,7.09,1.21,14.49,3.5,19.64,8.78,1.28,1.31,2.36,2.78,3.26,4.38l.19-3.48c-16.74,2.51-32.76,9.37-46.14,19.73-3.82,2.95-7.12,6.4-10.78,9.52l.64,4.13c1.6-3.63,1.06-8.4-1-11.76s-5.52-5.6-9.44-6.22c-4.79-.76-9.76,.87-14.32,2.14s-9.46,2.05-14.07,.59c-.51-.16-.83,3.31-.06,3.62,7.58,3.12,15.59,.12,23.38-.15,3.65-.13,7.66,0,10.79,2.13,1.25,.85,2.38,1.93,3.16,3.23,.34,.56,.61,1.12,.81,1.74,.09,.28,.15-.78,.03,.16-.05,.39-.05,.41-.22,.97-.25,.83-.23,1.9-.04,2.75,.04,.19,.41,1.52,.81,1.02,2.64-3.3,6-6.13,9.27-8.79s6.72-5.12,10.31-7.35c7.19-4.47,14.95-8.02,23.04-10.52,4.56-1.41,9.21-2.48,13.92-3.22,.91-.14,.47-2.98,.19-3.48-7.79-13.65-25.99-14.32-39.86-15.02-21.36-1.08-42.74-1.84-64.13-1.76s-42.3,1.08-63.32,3.34c-19.27,2.07-38.48,4.94-57.86,5.76s-37.84-.37-55.73-6.46c-2.36-.81-4.69-1.7-6.99-2.67-.44-.19-.58,1.83-.12,2.04h0Z"/><path class="cls-3" d="M1123.38,372.31c-1.08-.08-2.16-.29-3.23-.17-1.15,.13-2.31,.26-3.46,.39-2.22,.25-4.45,.5-6.67,.77l-13.34,1.63c-8.83,1.08-17.63,2.19-26.43,3.49-8.51,1.26-17.18,2.14-25.56,4.1-2,.47-3.97,1.02-5.9,1.71-1.45,.51-3.66,1.01-4.47,2.47-.93,1.67-.62,4.23,.24,5.87,.77,1.48,2.04,2.8,3.23,3.97,2.93,2.89,6.45,5.16,9.18,8.24,1.29,1.45,2.39,3.15,3.05,4.98s.36,2.7-.21,4.42l.49-.66c-1.4-.32-2.75-.9-4.1-1.38-.44-.16-.46,2.28-.05,2.59,1.37,1.03,2.78,2.02,4.07,3.16,.13,.1,.26,.1,.38,0,2.06-2.77,1.62-7.42,.7-10.53s-2.96-6.08-5.41-8.4c-2.65-2.51-5.69-4.58-8.24-7.19-.64-.65-1.24-1.33-1.79-2.06-.1-.13-.55-.99-.67-1.01,.64,.09-.66,1.75,.23,1.54,.23-.05,.54-.36,.78-.48,1.8-.9,3.8-1.51,5.73-2.07,8.18-2.39,16.82-3.27,25.21-4.59,8.83-1.38,17.62-2.83,26.41-4.46,4.93-.92,9.87-1.8,14.8-2.69,2.47-.45,4.94-.91,7.4-1.38l3.7-.71c1.4-.27,2.61-.78,3.93-1.29,.06-.02,.06-.26,0-.26h0Z"/><path class="cls-3" d="M994.21,375.82s.01-.05,0-.05c-.01,0-.01,.05,0,.05h0Z"/><path class="cls-3" d="M988.39,376.16c.64,2.35,2.76,4.06,4.37,5.82,1.8,1.96,3.61,3.9,5.42,5.85,3.37,3.64,6.81,7.23,10.3,10.75s6.77,6.62,10.52,9.51,7.81,5.18,12.09,7.24c2.32,1.12,4.74,2.05,7.22,2.72,2.27,.61,5.39,1.52,7.73,.9,1.27-.33,1.12-5.7-.14-5.71-1.44-.01-2.95-.55-4.07-1.46-.56-.46-.67,2.72-.33,3.19,1.21,1.67,2.52,2.86,4.31,3.88l.09-5.61c-1.03-.18-2.19-.03-3.24-.01-1.14,.01-2.28-.03-3.42-.13-2.19-.2-4.35-.62-6.46-1.21-4.48-1.26-8.54-3.68-12.29-6.39-7.64-5.51-13.97-12.56-20.56-19.23-1.97-1.99-3.98-3.95-5.96-5.93-1.01-1.01-2.04-2-3.07-2.99-.64-.61-1.56-2.17-2.47-1.42-.05,.04-.04,.18-.02,.23h0Z"/><path class="cls-3" d="M332.8,364.71c.39-1.37,2.21-2.05,3.48-1.85,1.65,.26,3.3,1.13,4.84,1.76,3.19,1.31,6.34,2.72,9.45,4.22s6.03,3.05,8.97,4.7c1.47,.83,2.93,1.68,4.37,2.56,.76,.46,1.55,.91,2.28,1.42,.32,.23,.65,.47,.92,.75l.27,.28c.36,.69,.46,.6,.32-.29l.34-.46c-1.92-.38-3.74,0-5.41,1-.64,.38-.43,2.63,.07,3.05,3.03,2.56,6.93,3.8,10.84,2.59,.39-.12,.37-1.63-.04-1.69-3.78-.5-7.54-1.59-10.6-3.96l.07,3.05c1.55-1.03,3.33-1.32,5.14-.97,.18,.03,.31-.38,.34-.46,.47-1.48,.33-3.26-.63-4.51-1.19-1.54-3.25-2.45-4.89-3.41-3.76-2.2-7.61-4.25-11.53-6.13s-7.8-3.55-11.8-5.09c-1.55-.6-3.43-1.61-5.11-.97-1.56,.6-2.05,2.13-2.15,3.67-.01,.2,.26,1.46,.47,.73h0Z"/><path class="cls-3" d="M365.73,387.4c.02,.39-.58,.22-.64,.04-.27-.82,1.08-.28,1.13-.25,.84,.38,1.42,1.05,2.3,1.4,1.77,.71,3.54,1.4,5.32,2.07,3.5,1.32,7.03,2.57,10.58,3.75,7.1,2.35,14.29,4.41,21.55,6.16,14.52,3.51,29.33,5.85,44.22,6.98,4.19,.32,8.38,.54,12.58,.67,2.18,.07,4.35,.11,6.53,.12,1.09,0,2.18,0,3.27,0s2.16-.27,3.25-.52c.45-.1,.41-1.86-.05-1.95-4.12-.77-8.42-.39-12.61-.49s-8.24-.29-12.35-.57c-8.3-.57-16.57-1.51-24.79-2.82-16.34-2.61-32.45-6.67-48.08-12.1-2.2-.76-4.39-1.56-6.57-2.38-1.15-.43-2.49-1.21-3.69-1.42-.61-.11-1.79-.16-2.36,.17-.43,.25-.77,.83-.4,1.27,.3,.36,.87,.36,.83-.16,0-.06-.03-.03-.03,.01h0Z"/><path class="cls-3" d="M473.42,395.37c.44,7.08,2.35,14.21,4.21,21.04s4.16,13.74,6.79,20.41c5.25,13.28,11.94,25.99,19.91,37.84,4,5.94,8.35,11.65,12.99,17.11,2.13,2.51,4.32,4.96,6.57,7.35,1.8,1.91,4.41,4.01,7.21,3.96,3.27-.06,4.11-3.55,4.14-6.22,.06-4.21-.06-8.43-.26-12.63-.38-8.21-.84-16.41,0-24.61,1.3-12.64,6.48-25.36,16.94-33.1,1.28-.95,2.63-1.8,4.04-2.56,.78-.42,.73-2.66,.72-3.33-.02-.89-.05-2.72-.88-3.29-3.14-2.16-6.61-3.8-10.27-4.86-1.82-.53-3.68-.92-5.56-1.14-2-.23-3.92,.1-5.88,.48l.3,4.49c5.36-2.65,11.05-4.3,16.77-5.97,.55-.16,.51-2.42-.06-2.42-5.87,0-11.63,1.67-17.02,3.9-.99,.41-1.05,4.41,.11,4.58,7.58,1.09,14.92,3,21.18,7.58l-.16-6.63c-11.69,5.8-18.13,18.24-21.05,30.45-3.76,15.69-1.69,32.28-.86,48.19,.08,1.45,.49,2.8-1.01,3.63-1.19,.66-2.81,.19-3.96-.34-2.85-1.31-4.86-3.82-6.92-6.1-4.78-5.28-9.26-10.84-13.41-16.63-8.18-11.4-15.15-23.66-20.69-36.55s-9.73-26.43-12.36-40.24c-.31-1.61-.65-3.16-1.1-4.74-.2-.69-.48-.03-.45,.36h0Z"/><path class="cls-3" d="M474.84,398.65c-1.48-.35-3.3-2.53-2.48-4.1,1.23-2.32,5.08-.9,6.98-.49,5.64,1.21,11.24,2.6,16.79,4.17,5.55,1.57,11.05,3.32,16.49,5.24,2.68,.95,5.35,1.93,8,2.95,1.58,.61,3.16,1.24,4.73,1.88,1.19,.48,2.38,1.12,3.61,1.47,.91,.26,1.78,.14,2.08-.85,.16-.53,.23-1.95-.32-2.35-1.13-.81-1.69,1.42-.97,2.03,.28,.24,.22-1.13,.19-1.24l-.06-.2,.03,1.15,.02-.07-.18,.26c.52-.19,.73,.83,.63-.13l.14-1.43c-.72,1.12-2.68-.13-3.49-.46-1.31-.54-2.63-1.08-3.95-1.6-2.24-.89-4.48-1.74-6.74-2.57-5.1-1.87-10.28-3.54-15.5-5.07s-10.48-2.9-15.78-4.11c-2.67-.61-5.35-1.26-8.06-1.68-1.75-.28-3.96-.35-4.97,1.4-.7,1.22-.68,2.89-.26,4.19,.49,1.52,1.42,2.37,3.06,2.02,.11-.02,.1-.4-.01-.42h0Z"/><path class="cls-3" d="M549.37,412.53c.81,.22,1.65,.54,2.49,.61s1.67-.02,2.48-.03c1.65-.02,3.3-.04,4.96-.07,3.3-.05,6.61-.11,9.91-.17,6.61-.13,13.21-.32,19.81-.57,13.2-.49,26.4-1.11,39.6-1.86,26.22-1.49,52.41-3.49,78.55-6.01,7.4-.71,14.79-1.47,22.18-2.26,7.39-.8,14.78-1.42,22.16-2.26,.95-.11,.52-3.12,.06-3.57-1.88-1.87-3.77-3.75-5.65-5.62l-.06,3.66c5.76-.97,11.42-2.4,17.03-3.98,.39-.11,.32-1.76-.04-1.74-5.72,.4-11.43,.97-17.08,1.99-.96,.17-.55,3.18-.06,3.66,1.89,1.84,3.77,3.69,5.65,5.53l.06-3.57c-6.57,.83-13.1,1.81-19.68,2.55-6.57,.74-13.14,1.44-19.71,2.11-13.15,1.34-26.31,2.56-39.48,3.64-26.18,2.15-52.4,3.79-78.64,4.91-7.43,.32-14.85,.59-22.28,.88-3.63,.14-7.26,.27-10.9,.39-1.82,.06-3.63,.12-5.45,.17-.99,.03-1.98,.03-2.97,.09s-1.97,.42-2.96,.72c-.19,.06-.17,.74,.02,.79h0Z"/><path class="cls-3" d="M755.63,390.22c-1.33-.36-2.65-.74-3.95-1.19l.03,1.24c1.98,.14,4-.15,5.97-.3l6.47-.48c3.98-.3,7.96-.66,11.94-1.02l24.37-2.2c16.08-1.45,32.16-2.96,48.24-4.48,32.32-3.05,64.65-6.11,96.97-9.16,8.57-.81,17.16-1.74,25.78-1.93,4.23-.09,8.47,0,12.69,.4s8.56,1.58,12.88,1.81c.4,.02,.35-1.75,.03-1.92-1.71-.87-3.23-1.42-5.11-1.8-1.99-.4-4-.71-6.01-.95-3.73-.44-7.49-.61-11.25-.62-7.74,0-15.45,.71-23.14,1.45-16.07,1.55-32.14,3.1-48.21,4.65-32.32,3.12-64.65,6.16-96.96,9.41l-27.35,2.75c-4.48,.45-8.96,.86-13.42,1.38l-6.96,.81c-2.3,.27-4.71,.37-6.95,.96-.28,.07-.25,1.24,.03,1.24,1.32,0,2.61,.11,3.93,.21,.05,0,.06-.25,0-.26h0Z"/><path class="cls-3" d="M706.16,406.98c2.51,2.55,5.55,4.71,8.37,6.93l8.39,6.61,8.19,6.46c2.03,1.6,4.43,4.04,7.21,4.09s3.57-2.6,4.55-4.63c1.18-2.43,2.63-4.75,4.32-6.86,3.18-3.97,7.15-7.3,11.59-9.79,5.17-2.9,10.89-4.66,16.82-4.99,.85-.05,.74-3.27-.09-3.48-.22-.04-.4-.15-.52-.34l.2,1.08s.67-.52,.79-.58c.73-.37,1.59-.5,2.38-.65,1.84-.35,3.72-.52,5.6-.52,.94,0,1.88,.05,2.81,.14,.78,.08,1.78,.43,2.55,.36,1.2-.11,1.09-2.19,.88-3.07-.26-1.07-.98-1.45-1.85-2.02-.17-.11-.49-.43-.68-.5-.26-.33-.32-.21-.17,.37-.07,.64,0,.73,.2,.25,.45-.5,.92-1.06,1.32-1.61,.79-1.07,1.98-5.77-.38-5.68-.57,.02-.37,2.02-.04,2.28,.21,.28,.32,.24,.3-.12,.09-.35,.1-.4,.02-.16-.16,.18-.23,.5-.38,.71-.34,.45-.78,.82-1.13,1.27-.7,.92-1.03,1.95-1.01,3.11,.01,1.01,.22,2.03,.96,2.75,.34,.33,.74,.58,1.14,.84,.18,.12,.37,.27,.56,.38,.27,.15,.4,.6,.24-.05l-.04-1.73c.15-1.11-6.02-.97-6.8-.94-2.01,.09-4.19,.26-6.1,.93-1.51,.53-2.29,1.58-2.42,3.16-.11,1.34,.09,3.41,1.64,3.81l-.09-3.48c-10.21,.51-19.91,5.28-26.8,12.79-1.7,1.85-3.23,3.86-4.55,5.99-.67,1.09-1.29,2.21-1.85,3.36-.59,1.21-.92,2.6-1.61,3.74-1.93,3.19-5.63,.53-7.69-1.07-2.73-2.12-5.47-4.25-8.2-6.38l-9.17-7.14c-1.55-1.21-3.12-2.4-4.69-3.59s-3.02-2.44-4.7-3.38c-.31-.17-.29,1.12-.09,1.32h0Z"/><path class="cls-3" d="M859.98,382.15c2.32,2.4,5.21,4.12,7.99,5.94s5.41,3.5,8.13,5.21c5.46,3.42,10.98,6.74,16.56,9.94,1.25,.72,2.5,1.47,3.78,2.15,.89,.47,2.06,1.02,3.07,.61,2.14-.87,1.05-5.06,.96-6.72-.14-2.89,.04-6.12,1.08-8.85s4.34-1.56,6.68-1.69c2.65-.16,5.25-1.01,7.54-2.35,1.17-.69,2.26-1.52,3.24-2.46,1.29-1.25,1.92-2.26,2.21-4.06,.06-.34,.13-1.37-.24-1.62-.12-.08-.25-.17-.37-.25-.11-.09-.22-.09-.33,0-.9,.58-1.57,1.68-2.4,2.39-.93,.79-1.96,1.47-3.05,2.03-2.17,1.11-4.63,1.71-7.07,1.74-2.2,.03-4.86-.93-6.4,1.17s-1.85,5.22-2.14,7.67c-.37,3.1-.35,6.3,.27,9.37,.04,.18,.3,.85,.21,.98,.28-.43-.54,.01-.43,0-.84,.05-1.17,.18-2.03-.16-1.38-.56-2.69-1.43-3.99-2.15-5.31-2.95-10.57-5.99-15.77-9.14-3.01-1.82-6-3.67-8.97-5.56-2.72-1.73-5.43-3.92-8.52-4.92-.16-.05-.09,.64-.01,.72h0Z"/><path class="cls-3" d="M437.37,365.13c1.39-.72,1.36-3.75-.32-4.07-.27-.05-.49,.45-.55,.6-2.11,5.21-3.33,10.73-3.87,16.31s-.6,11.17,.71,16.47c.36,1.45,1.18,.6,1.26-.46,.06-.83,.12-1.63,.29-2.45,.07-.33,.12-1.01-.13-1.29-.19-.21-.39-.3-.51,.09-.19,.62-.41,1.11-.71,1.66l1.09,1.51c-.41-5.37-.8-10.61-.13-15.99,.32-2.61,.85-5.21,1.55-7.74s2.1-5.19,1.78-7.84l-.47,1.26c.85,.33,.6,1.26,0,1.79-.03,.03-.03,.18,.02,.15h0Z"/><path class="cls-3" d="M446.9,361.85c-.62,.35-.61,1.03-.73,1.68-.16,.9-.3,1.79-.41,2.7-.21,1.75-.37,3.5-.49,5.26-.26,3.75-.34,7.53-.19,11.29,.07,1.85,.21,3.7,.38,5.54,.15,1.65,.25,3.41,.72,5,.27,.92,1.06,2.06,2.13,1.37,.86-.55,.87-1.83,.56-2.68-.24-.65-.56,.12-.59,.41l-.03,.22,.27-.72c-1.17,1.11-1.35-1.45-1.4-1.97-.12-1.28-.26-2.56-.36-3.84-.21-2.72-.31-5.45-.32-8.18s.09-5.33,.31-7.98c.1-1.29,.25-2.57,.38-3.85,.14-1.36,.37-2.67,.02-4-.02-.1-.1-.3-.23-.22h0Z"/><path class="cls-3" d="M459.02,360.02c-.61-.12-.92,8.12-.97,8.91-.18,2.69-.42,5.38-.71,8.07s-.63,5.24-1,7.85-.98,5.26-.86,7.94c0,.14,.18,1.12,.47,.67,1.26-1.94,1.3-4.81,1.65-7.05,.42-2.74,.75-5.49,1.04-8.25,.57-5.52,1.02-11.11,.96-16.66,0-.33-.05-1.26-.45-1.44-.04-.02-.08-.03-.13-.05h0Z"/><path class="cls-3" d="M468.47,360.38c-.48,1.26-.14,2.88-.12,4.2,.03,1.68,0,3.35-.08,5.03-.17,3.31-.55,6.6-1.14,9.85-.28,1.55-.61,3.09-.95,4.63-.27,1.21-.81,2.95-.33,4.18,.33,.83,.85,.49,1.17-.17s.34-1.58-.04-2.24c-.31-.55-.49,.84-.46,.99-.2-1.07-.08-.51-.09-.52l.22,1.78c.08-.38,.43-.87,.54-1.28,.17-.6,.31-1.21,.45-1.82,.29-1.24,.51-2.49,.72-3.74,.39-2.42,.69-4.85,.88-7.29s.27-4.87,.25-7.3c0-1.26-.05-2.53-.12-3.79-.05-.86,.02-1.92-.49-2.67-.17-.24-.35-.04-.42,.15h0Z"/><path class="cls-3" d="M360.9,348.13c.23,1.86,2.37,2.8,4.04,2.69,.76-.05,1.57-.31,2.15-.83,.87-.77,1.17-1.97,1.16-3.1-.02-2.19-1.35-4.1-3.49-4.68-.85-.23-1.75-.16-2.51,.31-1.24,.76-1.62,2.36-1.62,3.72s.47,3.44,2.21,3.19c1.38-.2,2-1.55,1.86-2.83-.01-.12-.07-.52-.26-.52s-.22,.41-.24,.53l.03-.15-.02,.05s.09-.11-.02,0c.02-.02-.06,.06-.08,.08-.11,.09-.23,.13-.36,.16-.35,.08-.69,.12-1.04,.05-.14-.03-.28-.09-.41-.16-.08-.05-.17-.11-.24-.17-.04-.03-.08-.07-.11-.1,.06,.07-.01-.02-.03-.05-.07-.11-.13-.21-.2-.32-.03-.06-.05-.16,0,.01-.01-.04-.03-.08-.05-.12-.05-.12,.08,.47,.05,.22,.04,.43,.01,.24,.01,.14v.23c0-.12,0-.12-.01,0-.07,.19,0,.02,.01-.04,.02-.14-.01,.09-.02,.09-.01,0,.15-.4,.06-.19,.08-.18,.24-.43,.32-.54,.22-.27,.52-.48,.84-.63,.56-.26,1.36-.25,2-.09s1.29,.54,1.78,1.02c.14,.13,.12,.11,.26,.3,.05,.06,.09,.13,.13,.2,.04,.06,.16,.31,.07,.11,.03,.07,.06,.14,.09,.21,.09,.23-.02-.19,.01,.05,.03,.26-.03-.23,0-.02,.01,.09,0,.25-.01-.15,0,.22,.02-.27,0-.11-.02,.26,.05-.21,0,0-.01,.05-.02,.09-.03,.14,0-.03,.07-.22,.01-.06-.03,.07-.05,.14-.08,.21-.04,.09,.02-.05,.03-.06-.02,.05-.05,.09-.07,.14-.04,.07-.09,.14-.13,.21-.02,.03-.14,.18-.06,.09-.1,.12-.23,.24-.35,.34-.5,.4-1.08,.6-1.71,.68-.69,.08-1.42,0-2.06-.27-.32-.14-.63-.33-.89-.57-.1-.1-.16-.15-.27-.31-.05-.07-.09-.13-.13-.2,.11,.18-.05-.1-.06-.11-.07-.09-.13-.13-.24-.15-.41-.1-.36,1.23-.35,1.35h0Z"/><path class="cls-3" d="M353.47,348.35c-.61,3.8,.74,8.01,4.04,10.22s7.73,1.47,10.48-1.3c.22-.22,.14-1.43-.16-1.22-2.59,1.91-6.36,2.14-9.25,.77-2.67-1.27-4.82-4.36-4.36-7.4,.06-.41,.13-1.14-.19-1.47s-.51,.09-.56,.4h0Z"/><path class="cls-3" d="M368.54,343.14c.58,.42,1.1,.89,1.64,1.37,.47,.41,1.06,.69,1.55,1.08s.88,.8,1.23,1.29c.28,.38,.49,.89,.63,1.24,0-.06,0-.04,.01,.08,0-.12,0-.11,0,.03,0-.22,0,.09-.01,.14,.03-.21-.06,.24-.03,.15-.03,.11-.07,.22-.11,.32-.18,.47-.44,.92-.78,1.29-.73,.78-1.57,1.23-2.66,1.08-.32-.04-.22,1.01-.03,1.14,.79,.53,1.75,.51,2.57,.06s1.43-1.43,1.69-2.32c.7-2.44-.18-4.99-2.25-6.46-.45-.32-1.09-.79-1.65-.88s-1.22,0-1.79,.03c-.11,0-.07,.32,0,.36h0Z"/><path class="cls-3" d="M537.66,322.57c6.4,.18,12.77-.67,19.15-1.22s12.79-1.04,19.2-1.43c12.67-.77,25.4-.99,38.07-.11,7.15,.5,14.24,1.58,21.37,2.24,.21,.02,.23-1.04-.03-1.11-6.19-1.69-12.59-2.37-18.98-2.88s-12.73-.72-19.11-.72c-12.74,0-25.47,.84-38.14,2.11-7.2,.73-14.51,1.25-21.54,2.95-.04,0-.03,.16,0,.16h0Z"/><path class="cls-3" d="M828.3,329.65c2.5,1.01,5.5,.77,8.16,.95s5.42,.4,8.13,.65c5.33,.49,10.66,1.01,15.97,1.72,10.69,1.41,21.31,3.39,31.8,5.91,5.85,1.41,11.64,3.08,17.56,4.18,.16,.03,.18-.86-.02-.95-5.09-2.12-10.38-3.56-15.73-4.86s-10.43-2.39-15.68-3.38c-10.58-2-21.29-3.51-32.03-4.33-2.94-.22-5.89-.36-8.84-.48-1.51-.06-3.03-.11-4.55-.15-1.63-.04-3.22-.13-4.78,.43-.08,.03-.06,.29,0,.32h0Z"/><path class="cls-3" d="M525.18,347.31c6.95,.12,13.83-.49,20.75-1l20.74-1.54c13.92-1.03,27.84-2.08,41.76-3.04,27.62-1.91,55.25-3.45,82.94-4.03,55.1-1.17,110.35,.47,165.33,4.18,15.15,1.02,30.28,2.35,45.33,4.33,7.51,.99,15,2.15,22.46,3.51,7.42,1.36,14.78,3.04,22.22,4.25,.19,.03,.26-1.27-.03-1.37-12.83-4.21-26.53-6.2-39.87-8.08-13.42-1.89-26.91-3.22-40.42-4.26-27.26-2.08-54.62-3.26-81.94-4.13-55.39-1.76-110.73-.98-166.02,2.82-15.61,1.07-31.22,2.29-46.82,3.49l-23.23,1.79c-7.77,.6-15.53,1.03-23.21,2.33-.16,.03-.14,.73,.02,.74h0Z"/><path class="cls-3" d="M500.6,362.14c0,.1-.94-.48-.91-.47l-.11-.14c-.05,.58,.06,.71,.33,.4,.16,.01,.58-.23,.74-.28,1.31-.36,2.81-.3,4.16-.4l9.21-.74c5.98-.48,11.95-.96,17.93-1.47l36.35-3.11c24.11-2.06,48.24-4.54,72.42-5.64,6.76-.31,13.53-.48,20.3-.46s13.52,.41,20.27,.26c.24,0,.24-1.17-.03-1.21-6.53-1.07-13.19-1.17-19.8-1.21-6.44-.03-12.88,.12-19.31,.39-13.05,.56-26.07,1.62-39.08,2.73-26.21,2.23-52.44,4.36-78.64,6.73l-21.9,1.99c-1.03,.09-2.38,.05-3.07,.98-.39,.53-.59,1.65-.21,2.25,.61,.98,1.8,.11,1.51-.88-.08-.27-.15,.22-.14,.29h0Z"/><path class="cls-3" d="M509.83,372.13c5.6-.16,11.23-1.28,16.79-1.98s11.22-1.33,16.85-1.85c11.09-1.02,22.23-1.75,33.36-2.14,6.39-.22,12.77-.49,19.16-.57,.24,0,.23-1.1-.03-1.11-22.5-.61-44.89,.79-67.19,3.8-6.29,.85-12.87,1.5-18.95,3.37-.11,.03-.09,.48,.01,.47h0Z"/><path class="cls-3" d="M578.93,327.85c-3.3,.13-4.1,4.45-4.84,6.95-1.27,4.25-2.33,8.56-3.23,12.9-1.86,8.93-2.96,17.98-3.36,27.09-.02,.4,.33,.89,.36,.24,.48-8.45,1.56-16.88,3.22-25.19,.81-4.08,1.8-8.12,2.87-12.14,.8-3,1.49-8.31,5-9.44,.11-.03,.11-.43-.01-.42h0Z"/><path class="cls-3" d="M575.31,324.47c.91-.7-.58-2.76-1.71-1.2-.79,1.08-1.23,2.53-1.75,3.75-.66,1.55-1.28,3.11-1.87,4.69-2.26,6.03-4.05,12.23-5.35,18.54-2.58,12.47-3.25,25.31-2.03,37.98,.68,7.13,2.05,14.26,4.13,21.12,.19,.63,.41-.22,.34-.51-5.59-22.21-5.68-45.51,.81-67.56,.87-2.95,1.85-5.88,2.94-8.76,.57-1.51,1.17-3.01,1.8-4.49,.29-.68,.59-1.34,.88-2.02,.16-.36,.28-.74,.47-1.09,.1-.27,.26-.51,.49-.7,.22-.32,.48-.33,.8-.04-.02,.04-.03,.35,.05,.29h0Z"/><path class="cls-3" d="M560.11,324.45c-.89-.93-1.92-1.84-3.01-2.53-.17-.11-.26,.11-.31,.23-8.11,18.26-11.41,38.81-9.46,58.7,.55,5.63,1.48,11.23,2.91,16.71,.18,.7,.45-.25,.38-.57-4.2-19.24-4.05-39.24,1.26-58.25,1.46-5.25,3.26-10.39,5.41-15.4l-.31,.23c.95,.58,2.05,1.05,3.13,1.31,.12,.03,.06-.37,.01-.41h0Z"/><path class="cls-3" d="M524.05,326.34c-.27-1.35-1.83-2.29-3.18-1.92-1.95,.53-2.68,3.23-3.29,4.85-1.87,5.01-3.38,10.15-4.54,15.37-2.31,10.4-3.19,21.23-2.51,31.87,.38,5.93,1.21,11.81,2.49,17.61,.17,.76,.58-.12,.5-.52-3.81-18.95-2.91-38.84,2.78-57.33,.79-2.55,1.6-5.14,2.64-7.6,.47-1.12,1.06-2.23,2.18-2.81,.96-.5,2.42-.56,2.84,.67,.05,.16,.1-.14,.09-.19h0Z"/><path class="cls-3" d="M421.07,341.84c12.3,1.24,24.58,3.05,36.71,5.45,3.03,.6,6.05,1.24,9.07,1.93,1.43,.32,2.86,.65,4.28,1,1.25,.31,2.58,.64,3.59,1.48,1.14,.94,1.21,2.26,1.43,3.62,.19,1.15,.54,2.18,1.26,3.12,.67,.88,1.53,1.6,2.15,2.52,.87,1.28,1.13,2.77,1.01,4.3-.24,3.04-1.51,6.12-2.73,8.89-1.32,2.97-3,5.7-4.82,8.38-.13,.18,.03,1.06,.16,.91,3.58-4.11,6.34-9.4,7.62-14.7,.58-2.38,.8-4.96,.1-7.35-.34-1.14-.9-2.12-1.67-3.02-1-1.16-2.13-2.12-2.45-3.7-.24-1.22-.26-2.46-.84-3.58s-1.53-1.75-2.64-2.2c-2.77-1.12-5.95-1.55-8.86-2.19-6.75-1.47-13.55-2.73-20.38-3.78-7.62-1.17-15.31-1.92-23-2.45-.31-.02-.34,1.33,.03,1.37h0Z"/><path class="cls-3" d="M433.95,339.93c1.61,7.31,2.06,14.85,1.21,22.3-.02,.18,.18,.66,.23,.26,.96-7.62,.57-15.32-1.32-22.77-.07-.26-.15,.1-.12,.22h0Z"/><path class="cls-3" d="M1042.48,395.58c-.35-.37-.67-.92-1.06-1.2-.31-.22-.76-.35-1.1-.53-.7-.37-1.4-.8-2.02-1.3s-1.25-1.16-1.5-1.95c-.29-.89,.34-1.53,1.09-1.95,1.55-.86,3.71-.95,5.43-1.29,2.07-.4,4.14-.8,6.22-1.18,7.82-1.45,15.69-2.59,23.55-3.75,15.9-2.34,31.95-4.02,48.02-4.49,4.25-.13,8.64-.48,12.84,.35,.99,.2,2.09,.41,2.99,.88s1.54,1.43,2.21,2.18c.57,.63,1.16,1.17,1.59,1.92,.06,.11,.32,.62,.32,.63-.05-.21-.08-.42-.1-.63-.08-.59-.08-1.19,0-1.79-.25,1.79-.25,3.84,.36,5.57,.28,.8,1.15,2.02,1.76,.68,.78-1.72,1.21-3.47,2.16-5.13,.34-.59,.24-4.77-.64-4.13-.38,.28-.78,.65-1.28,.71-.46,.06-.75-.19-1.18-.02l1.41,6.89c.55-2.94,.34-6.29-.82-9.07-.62-1.5-1.72-3.45-3.28-4.14-.72-.32-1.47-.32-2.22-.49-1.03-.24-1.98-.62-3.04-.76-1.98-.27-4.01-.09-5.99,0-9.32,.41-18.64,1.21-27.91,2.28-18.51,2.15-36.74,5.68-54.91,9.77-2.34,.53-4.96,.83-7.18,1.76-1.7,.72-2.37,2.23-2.47,4-.08,1.64,.32,3.4,1.43,4.65,.67,.76,1.53,1.31,2.47,1.69,.39,.16,.79,.29,1.19,.41,.69,.22,.97-.03,1.66-.28,.09-.03,.06-.26,0-.31h0Z"/><path class="cls-3" d="M1150,384.88c-1.29-.98-2.14-1.96-3.05-3.3l-.06,2.78c1.69-1.16,3.23-2.63,4.81-3.93s3.35-2.65,5.09-3.88c3.45-2.43,7.09-4.64,10.84-6.6,7.67-4,15.86-6.67,24.4-8.05,1.2-.19,2.41-.36,3.62-.5,.54-.06,1.08-.12,1.62-.17,.27-.03,.54-.05,.81-.08,.67-.06,.72-.18,1.19,.38,2.13,2.55,2.45-4.05,2.37-5.12-.07-1.02-.22-3.56-1.31-4.2s-1.44,1.11-1.86,1.7l.62-.54c-15.4,2.45-30.66,8.95-42.86,18.69-3.51,2.81-7.18,5.87-9.84,9.53-.27,.38-.45,2.94,.35,2.83,1.34-.19,2.04,.01,3.25,.62,.04,.02,.04-.13,.01-.15h0Z"/><path class="cls-3" d="M774.26,403.08c.06-.09,.11-.17,.22-.15,.08-.02,.13-.06,.16-.13,.85-1.62,2.63-2.82,4.46-2.94,1.72-.11,3.42,.51,5.14,.6s3.16-.38,3.7-2.12c.27-.86,.24-1.98-.19-2.78-.23-.42-.47-.8-.59-1.27-.23-.86-.1-1.67,.19-2.5l-.21,.38c.29-.28,.51-.66,.71-1.01l-.92-2.54c-.19,1.29-.3,2.59-.27,3.89,.01,.73,.05,1.48,.19,2.2,.04,.21,.09,.43,.15,.64,.04,.23,.12,.45,.23,.65,.07,.07,.13,.14,.18,.23,.08,.24,.21,.4,.42,.22,.22-.18,.22-.81,.21-1.04-.08,.34-.09,.38-.03,.1,.05-.2,.09-.41,.09-.63,.02-.29,0-.58,0-.87,0-.56-.03-.89-.05-1.4-.03-.89-.02-1.67,.06-2.56,.06-.61,.01-1.41-.27-1.97-.16-.3-.48-.6-.7-.13-.41,.86-.58,1.79-.79,2.72-.18,.82-.26,1.65-.28,2.49-.04,1.77,.3,3.59,1.01,5.21l.06-2.79c-.62,1.09-1.93,1.22-3.06,1.19-1.42-.04-2.82-.29-4.24-.2-1.55,.1-3.01,.83-4.08,1.95-.56,.59-.97,1.26-1.27,2.01-.32,.79-.35,1.52-.35,2.36,0,.04,.05,.33,.13,.2h0Z"/><path class="cls-3" d="M518.69,492.01c1.49,3,2.72,6.42,5.82,8.15,1.13,.63,2.71,.8,3.98,.56,1.75-.34,2.93-1.43,3.8-2.94,1.85-3.17,2.36-7.29,2.71-10.88s.32-7.49,.25-11.23c-.13-6.61-.33-12.6,1.03-19.09,1.27-6.06,3.25-12,6.07-17.53,1.62-3.18,3.48-6.24,5.55-9.14,1.04-1.45,2.12-2.87,3.26-4.25,.55-.66,1.2-1.28,1.58-2.05,.52-1.05,.96-2.14,1.45-3.2,.16-.36,.29-2.76-.52-2.55-.58,.15-1.15,.3-1.71,.5-.66,.24-.98,.62-1.44,1.16-1.07,1.25-2.09,2.55-3.07,3.88-1.78,2.44-3.42,4.98-4.91,7.61-3.03,5.37-5.46,11.07-7.24,16.98s-2.79,12.09-3.29,18.23c-.56,6.99,.19,14.09-.95,21.03-.43,2.59-.84,6.45-4.17,6.66-2.89,.18-5.77-1.49-7.69-3.53-.66-.7-.7,1.3-.54,1.63h0Z"/><path class="cls-3" d="M473.28,402.03c-3-2.63,.92-5.15,3.43-5.46,3.25-.41,6.68-.05,9.92,.27,6.91,.68,13.89,1.91,20.67,3.38,.34,.07,.34-1.21,.04-1.35-4.02-1.82-8.09-3.23-12.4-4.18s-8.88-1.29-13.33-1.39c-3.13-.07-7.66-.23-9.38,3.03-.95,1.8-1.43,5.47,.99,6.36,.23,.09,.18-.56,.06-.66h0Z"/><path class="cls-3" d="M362.91,348.54c.08-.38,.07-.77-.02-1.15-.04-.18-.12-.39-.24-.54-.16-.2-.35-.29-.6-.34-.3-.06-.68,0-.91,.21l.16-.06h0c-.19,.04-.29,.17-.37,.34-.13,.25-.17,.52-.2,.8h0l.05-.35c-.13,.68-.09,1.4,.16,2.06,.11,.27,.27,.51,.52,.67l-.17-.16c.03,.05,.07,.1,.11,.16,.03,.04,.15,.17,.19,.19s.17,.05,.21,.06c.02,0,.05,.01,.07,.02,.09,.01,.18,.01,.26-.01,.16-.04,.3-.09,.42-.2,.12-.12,.26-.26,.35-.41,.38-.68,.51-1.46,.48-2.23-.02-.56-.1-1.14-.34-1.66-.14-.31-.29-.51-.53-.73-.14-.13-.32-.17-.5-.22-.1-.02-.21-.02-.31,0l.45,.28-.31-.47c-.11-.2-.26-.31-.47-.35-.17-.09-.33-.06-.49,.07h-.02l.33-.11c-.17,.03-.35,.08-.5,.18-.02,.01-.04,.03-.05,.04-.03,.03-.3,.31-.32,.35l-.13,.26c-.11,.19-.19,.39-.23,.61-.14,.48-.14,.53-.22,1.15v.07c-.03,.2-.04,.71-.04,.91v.06c.02,.3,.04,.64,.08,.94,.02,.15,.12,.66,.16,.81,0,.02,0,.04,.01,.05v.03c.06,.15,.18,.54,.25,.69,.01,.03,.02,.05,.03,.08l.15,.26c.07,.17,.17,.32,.32,.43l.17,.17,.37,.11s.08,.01,.12,.02c.13,.01,.27,0,.4-.02,.06-.01,.12-.03,.18-.05,.18-.06,.36-.12,.53-.2,.12-.06,.22-.13,.32-.21,.17-.14,.31-.32,.45-.48,.04-.05,.09-.1,.12-.15,.19-.27,.33-.57,.45-.88,0-.03,.02-.05,.03-.08,.08-.26,.16-.53,.23-.79,0-.03,.01-.06,.02-.08,.05-.31,.1-.63,.14-.94,0-.03,0-.07,0-.1,.01-.23,.03-.73,.03-.96,0-.17-.05-.79-.07-.96l-.08-.42c-.03-.27-.1-.53-.21-.78-.14-.4-.16-.53-.44-.92-.02-.02-.03-.04-.05-.06-.13-.16-.29-.31-.45-.45-.04-.03-.08-.07-.12-.09-.08-.05-.17-.09-.26-.13-.21-.07-.44-.15-.67-.17-.19-.02-.4,0-.58,.06-.32,.1-.67,.2-.91,.45-.13,.14-.33,.31-.44,.5-.12,.2-.22,.43-.32,.64-.01,.03-.02,.05-.03,.08s-.02,.05-.03,.08c-.08,.27-.18,.55-.24,.82-.03,.17-.06,.37-.08,.51-.02,.17-.06,.36-.07,.54l2.78-.96s0-.03,0-.04l.18,.89s0-.04,0-.06l.08,.99s0-.05,0-.08l-.03,1s0-.04,0-.06l-.13,.9s0-.05,.02-.08l-.22,.76s.03-.09,.05-.13l-.3,.59c.03-.07,.08-.12,.13-.18l-.36,.39c.12-.12,.26-.21,.42-.27l-.4,.14c.18-.06,.38-.08,.57-.02l-.41-.12c.1,.03,.18,.08,.26,.15l-.38-.37s.08,.09,.11,.14l-.33-.58s.03,.07,.05,.1l-.26-.76s.02,.05,.02,.08l-.18-.89s0,.06,.01,.08l-.08-1s0,.04,0,.06l.03-1s0,.06,0,.08l.13-.9s-.01,.07-.02,.1l.22-.77s-.03,.09-.06,.14l.3-.6c-.13,.25-.24,.5-.37,.75l.29-.59c-.1,.19-.22,.39-.37,.55l.33-.36c-.07,.08-.16,.14-.24,.2-.04,.03-.07,.07-.11,.1-.07,.06-.26,.27-.32,.34,0,0-.02,.02-.02,.03-.03,.04-.24,.46-.26,.52,0,.02-.01,.03-.02,.05l-.02,.05-.09,.31c-.08,.22-.13,.44-.14,.68-.06,.39-.09,.78-.08,1.18s.06,.79,.14,1.17l.07,.36-.21-1.55c0,.11,.05,.69,.06,.8,.04,.26,.1,.52,.16,.78,0,.03,.01,.05,.02,.08l.11,.32c.05,.21,.13,.4,.25,.57-.04-.07,.1,.2,.16,.27,.1,.13,.24,.25,.36,.36,.02,.02,.04,.04,.07,.06,.08,.06,.21,.08,.3,.11,.1,.03,.21,.07,.31,.08,.08,.01,.16,.01,.25,0,.04,0,.08-.01,.11-.02,.05-.01,.37-.12,.41-.15l.02-.02s.04-.03,.05-.04c.03-.02,.06-.05,.08-.08,.08-.08,.29-.31,.36-.39,0,0,.01-.01,.02-.02l.02-.03v-.02l.31-.6s.03-.08,.05-.12c.08-.25,.17-.56,.23-.81,0-.02,.01-.05,.02-.07,.03-.19,.11-.72,.13-.91v-.03c.02-.18,.02-.38,.02-.55,0-.19,.02-.37,.01-.55,0-.17-.06-.84-.08-1.01v-.04c-.09-.58-.17-.88-.34-1.38-.04-.11-.09-.29-.15-.43-.09-.22-.23-.43-.35-.63-.02-.04-.05-.08-.07-.11-.01-.02-.03-.03-.04-.05-.13-.14-.27-.28-.41-.4-.07-.05-.14-.09-.22-.11-.2-.07-.42-.16-.64-.15-.09,0-.18,.02-.27,.04-.21,.06-.44,.13-.63,.24-.09,.05-.17,.11-.24,.18-.15,.15-.31,.31-.44,.48-.03,.04-.05,.08-.07,.12-.11,.21-.23,.43-.32,.65-.06,.14-.1,.32-.13,.44-.04,.14-.09,.29-.12,.44v.03c-.04,.17-.13,.74-.14,.92v.03c-.02,.25-.04,.76-.03,1.02,0,.19,.02,.35,.04,.56,.01,.17,.02,.38,.05,.56,.02,.15,.09,.43,.09,.47,.03,.15,.06,.33,.1,.49l.26,.75,.32,.58,.38,.37c.21,.15,.41,.17,.61,.05,.17-.02,.3-.11,.38-.27,.15-.13,.26-.29,.33-.49,.13-.21,.21-.44,.26-.68,.14-.41,.22-.84,.24-1.28,0-.04,0-.07,0-.11l-.13,.9s.01-.07,.02-.1l-.22,.76c.02-.05,.04-.11,.06-.16l-.3,.59c.06-.12,.13-.22,.22-.32l-.35,.38c.17-.18,.37-.31,.6-.39l-.39,.14c.23-.08,.49-.08,.72-.01l-.39-.12c.14,.04,.26,.12,.37,.22l-.36-.35s.05,.05,.07,.08l-.8-3.06s0,.06,0,.09l.03-.95s0,.1-.01,.15l.13-.85c-.01,.07-.02,.14-.04,.2l.21-.72c-.03,.1-.06,.19-.11,.28l.28-.56c-.07,.14-.17,.27-.27,.39l.33-.36c-.2,.21-.44,.38-.71,.49l.37-.13c-.15,.05-.3,.08-.46,.08l.71,.44s-.02-.02-.02-.04l.29,.52s-.03-.06-.04-.09l.23,.68s-.01-.04-.02-.06l.16,.8s0-.04,0-.06l.07,.89s0-.05,0-.08l-.03,.89c.04-.64,.05-1.18-.04-1.82-.06-.51-.19-1-.39-1.47-.07-.19-.16-.37-.29-.52l.74,2.85s0-.05,0-.08l-.03,.87s0-.08,.01-.12l-.11,.77c0-.06,.02-.12,.04-.18l-.18,.63s.02-.07,.04-.11l-.24,.48c.04-.09,.09-.18,.13-.26,.15-.27,.25-.55,.3-.86,.12-.59,.14-1.19,.12-1.79l-.59,2.08s.08-.04,.12-.05l-.23,.08c.13-.04,.27-.06,.41-.02l-.23-.07c.08,.03,.15,.07,.22,.13l-.21-.21s.06,.07,.09,.11l-.18-.32s.03,.06,.04,.09l-.14-.42s.02,.05,.02,.08l-.1-.49s0,.05,.01,.08l-.04-.55s0,.04,0,.06l.02-.55s0,.07,0,.11l.07-.49s-.01,.07-.02,.11l.12-.42c-.02,.07-.04,.13-.07,.19l.16-.32c-.05,.1-.11,.19-.18,.27l.19-.21c-.11,.11-.21,.23-.32,.35l.19-.2c-.09,.1-.19,.18-.32,.23l.2-.07h-.02c-.13,.02-.22,.07-.29,.17-.06,.06-.08,.09-.12,.14-.02,.03-.05,.06-.08,.09l.34-.24s-.08,0-.12,0l.18,.05s-.06-.04-.09-.06l.16,.16s-.03-.03-.04-.06l.14,.24s-.01-.03-.02-.04l.11,.31v-.02l.07,.37v-.03l.03,.41s0-.02,0-.02v.41c.02-.26,0-.58-.03-.82-.04-.22-.08-.47-.18-.68l.21,1.06s0-.02,0-.02v.4s0-.04,0-.06l-.05,.35v-.05l-.08,.29s.02-.05,.03-.07l-.11,.22c.04-.09,.1-.16,.17-.24l-.13,.14c.14-.15,.31-.28,.51-.35l-.12,.04c.1-.03,.21-.06,.31-.03l-.11-.03s.06,.03,.09,.05l-.1-.1s.03,.03,.04,.05l-.08-.15c.06,.11-.05-.17-.04-.13,.02,.08-.05-.27-.04-.18,.01,.08,.01,.18-.01-.19,.01,.19,.03,.37,.09,.56,.03,.1,.1,.28,.2,.33,.25,.12,.37-.25,.41-.43h0Z"/><path class="cls-3" d="M348.9,350.6c.05,4.53,2.9,8.97,7.38,10.21s9.09-1.55,10.84-5.62c.1-.23-.07-1.46-.35-1.03-2.05,3.23-5.96,4.83-9.71,4.28s-7.18-3.99-7.27-7.87c0-.26-.07-1.1-.47-1.09s-.42,.89-.42,1.12h0Z"/><path class="cls-3" d="M366.39,342.76c.33,.17,.35,.49,.58,.74,.14,.15,.32,.26,.48,.37,.29,.19,.59,.37,.88,.56,.6,.41,1.23,.83,1.75,1.34,.47,.46,.9,1.02,1.21,1.6,.29,.54,.49,1.23,.53,1.6-.02-.18,0,.33,0,.06,0,0-.05,.49-.03,.33-.04,.29-.12,.58-.21,.86-.22,.68-.58,1.27-.96,1.88-.87,1.36-2.14,2.58-3.65,3.17-.39,.15-.32,1.75,.13,1.7,1.73-.19,3.33-.83,4.44-2.21,1.31-1.62,1.77-3.84,1.69-5.87s-.77-4.16-2.17-5.72c-.58-.65-1.31-1.36-2.13-1.69-.35-.14-.77-.28-1.14-.32-.18-.02-.47-.05-.64,.02-.33,.13-.39,.51-.75,.59-.28,.06-.26,.87-.03,.98h0Z"/><path class="cls-3" d="M352.74,347.81c-1.33,.56-1.58,2.38-1.58,3.64,0,1.72,.57,3.41,1.55,4.82,2.22,3.15,6.17,3.89,9.61,2.4,2.31-1,4.14-2.68,5.66-4.66,.15-.19,.02-1.21-.2-1.01-1.61,1.5-3.64,2.77-5.76,3.41-1.94,.59-4.26,.86-6.18,.04-1.55-.67-2.82-1.97-3.47-3.52-.71-1.67-.31-3.14,.45-4.73,.03-.07,.04-.45-.1-.39h0Z"/><path class="cls-3" d="M372.51,346.48c.34,3.57-1.49,7.09-4.27,9.27-1.45,1.13-3.15,1.9-4.95,2.25-.93,.18-1.88,.36-2.82,.44s-1.9,.15-2.79,.32c-.39,.08-.28,1.06-.04,1.24,3.62,2.67,8.89,.72,11.78-2.11,3.1-3.03,4.39-7.68,3.79-11.92-.04-.25-.13-.74-.47-.63-.31,.1-.25,.93-.23,1.14h0Z"/><path class="cls-3" d="M341.42,365.61l-.18,.1h.14l-.17-.1c-.07-.05-.15-.04-.22,0l-.18,.13h.24l-.17-.11c-.11-.07-.22-.07-.33,0-.19,.17-.38,.33-.55,.51-.2,.21-.36,.46-.53,.69l-.45,.6c-.13,.17-.26,.33-.34,.54-.09,.23-.18,.49-.21,.73-.06,.43-.08,.84,0,1.26,.05,.25,.13,.68,.4,.81,.06,.03,.13,.06,.2,.07l.06-.02c.09,0,.21-.05,.28-.1,.15-.11,.25-.3,.36-.44l.53-.71c.19-.25,.37-.49,.52-.76l.22-.41c.11-.2,.19-.39,.24-.6,.1-.39,.08-.82,.02-1.21l-.09,1.11c.06-.12,.11-.23,.17-.35,.14-.29,.15-.63,.13-.94l-.07,.49c.06-.15,.12-.31,.19-.46,.07-.18,.07-.42,.02-.61-.03-.1-.1-.3-.24-.22h0Z"/><path class="cls-3" d="M347.11,367.42l-.3-.18-.24,.09s-.05,.02-.08,.04c-.05,.02-.1,.04-.14,.08-.09,.07-.18,.2-.25,.29-.02,.03-.05,.06-.07,.09l-.13,.16-.12,.15c-.1,.12-.14,.22-.21,.37-.25,.54-.37,1.11-.42,1.7-.03,.31-.03,.61,0,.92,.01,.29,.05,.57,.13,.85,.1,.37,.23,.82,.56,1.05l.07,.04c.13,.1,.26,.11,.38,.03,.1-.04,.12-.04,.19-.09,.14-.09,.25-.22,.34-.36s.17-.3,.26-.46c.15-.26,.29-.53,.38-.81,.08-.24,.15-.47,.21-.72,.15-.61,.12-1.26,.05-1.88l-.04,1.48,.06-.33c.1-.56,.1-1.15-.04-1.7-.08-.31-.22-.76-.59-.82h0Z"/><path class="cls-3" d="M349.06,373.66v-.06l.09-.54,.02-.6c0-.29-.03-.58-.1-.87,0-.1-.03-.19-.05-.28-.06-.29-.17-.55-.33-.8-.07-.15-.18-.23-.32-.26-.11-.06-.23-.05-.34,.05-.17,.16-.3,.36-.36,.59-.03,.08-.05,.16-.06,.24-.08,.25-.12,.51-.13,.77l-.02,.6c0,.29,.03,.58,.1,.87,.02,.11,.04,.22,.06,.33,.06,.28,.17,.54,.32,.79,.1,.17,.24,.27,.43,.29,.19-.03,.33-.14,.42-.31,.14-.25,.23-.52,.28-.8h0Z"/><path class="cls-3" d="M434.26,364.39c.35-.84,.38-1.72,1.63-1.53s1.53-5.09-.13-5.21c-1.24-.09-2.09,2.31-2.52,3.2-.7,1.43-1.28,2.91-1.76,4.42-1.06,3.31-1.73,6.71-2.01,10.17s-.19,7.3,.31,10.9,1.29,7.5,2.85,10.76l.64-7.37c-.24,.1-.12,.2-.19,.19-.18-.02-.34-.12-.52-.14l.85,.79c-.28-.55-.04,.24,0,.31v.19c.07-.2,.16-.38,.29-.55,.3-.48,.51-3.05-.55-2.68-1.28,.45-1.67,1.91-1.77,3.13-.05,.59-.03,1.19,.04,1.78l.04,.29c.17,.92,.18,.85,.01-.2-.16,.18,.2,1.57,.28,1.85,.15,.55,.36,1.09,.63,1.59l-.52-2.58c.07,1.54,.4,2.77,1.17,4.08s1.89,.11,2.24-.74c.64-1.55,.71-3.76,.16-5.34s-1-2.56-1.41-3.89c-.2-.66-.38-1.32-.54-1.99-.1-.4-.19-.8-.27-1.2,.08,.41,0-.04-.03-.2-.11-.68-.22-1.36-.3-2.04-.05-.41-.09-.82-.13-1.23,.04,.45,.01,.12,0-.14-.03-.69-.06-1.38-.07-2.08,0,0,.01-1.3,0-.59,0-.35,.03-.7,.05-1.04,.17-2.69,.52-4.86,1.28-7.56,.84-2.96,2.52-5.75,2.86-8.82l-2.02,.05c.18,1.32-.21,2.17-.62,3.3-.01,.04,.02,.19,.05,.11h0Z"/><path class="cls-3" d="M447.13,365.16c-.09-1-.14-1.82,0-2.85,.07-.56-.1-3.94-1.37-3.21-1.07,.61-1.35,2.38-1.67,3.47-.43,1.48-.82,2.98-1.12,4.49-.67,3.38-.94,6.8-.96,10.24-.02,3.24,.27,6.52,.79,9.71,.29,1.77,.64,3.55,1.07,5.29s.78,4.17,2.33,5.37c1.26,.98,2.12-1.7,2.25-2.37,.37-1.88,.44-4.35-.47-6.1-.29-.55-.35-.81-.93-.8l1.59,3.92-.11-1.42c-.09-.66-.25-1.32-.44-1.96-.38-1.29-.79-2.56-1.11-3.87-.09-.36-.17-.72-.25-1.08-.02-.11-.25-1.27-.15-.69,.09,.5-.06-.4-.08-.48-.06-.37-.12-.74-.17-1.11-.1-.67-.18-1.33-.25-2-.04-.37-.08-.74-.11-1.12,.06,.74,.02,.17,0-.25-.07-1.36-.12-2.71-.1-4.07,0-.28,.03-1.02,0-.36,.01-.31,.03-.61,.05-.92,.04-.77,.08-1.55,.14-2.32,.24-3.02,1.17-6.04,1.09-9.07l-.98,2.66,.54-.16-.24-.33c.18,.52,.36,1.04,.55,1.57,.06,.18,.12-.13,.12-.18h0Z"/><path class="cls-3" d="M458.12,360.56c-.54,2.61-.69,5.34-.95,7.99-.23,2.39-.54,4.76-.87,7.14-.09,.64-.17,1.28-.26,1.92q-.09,.64,0,0c-.05,.32-.1,.63-.15,.95-.18,1.11-.36,2.21-.56,3.32-.46,2.53-1.04,5.03-1.56,7.55-.42,2.05-.41,4.28,.15,6.3,.28,1,.93,3.07,2.32,3.04s1.94-2.14,2.17-3.15c.46-2.01,.41-4.32-.15-6.3l-.46-1.59-.28,3.27c.13-.24,.27-.48,.43-.7,.44-.66,.67-4.48-.78-3.88l-1.24-.13,2.48,9.34c1.28-5.45,2.05-11.1,2.62-16.66,.26-2.61,.41-5.24,.51-7.86,.13-3.17,.25-6.45-.22-9.6-.13-.88-.46-2.77-1.52-3.01s-1.53,1.31-1.69,2.08h0Z"/><path class="cls-3" d="M465.08,360.13c-.09,1.55-.13,3.11-.17,4.66,0,.33-.02,.66-.02,.99,.03-.89,.02-.56-.03,.99-.02,.66-.02,1.32-.04,1.98,0,.33-.02,.66-.02,.99q.02-.65,0,0c-.02,.49-.03,.97-.05,1.46-.05,1.3-.11,2.6-.16,3.9-.1,2.45-.24,4.9-.41,7.35-.21,2.98-.68,6.03-.52,9.01l.26-2.98c-.35,1.84-.49,2.74-.13,4.54,.24,1.2,.61,3.85,2.12,4.17s2.08-1.78,2.35-2.87c.69-2.81,.64-5.88,.75-8.76s.2-6.01,.24-9.02c.07-5.49-.03-11.05-.66-16.5-.1-.85-.55-3.3-1.83-3.27s-1.62,2.49-1.67,3.35h0Z"/><path class="cls-3" d="M847.54,325.75s.03-.16,0-.16c-.04,0-.03,.16,0,.16h0Z"/><path class="cls-3" d="M842.35,325.4c-3.37,.57-6.62,.36-9.44-1.75l-.05,2.11c2.48,.87,5.82-.22,8.18-1.05s4.73-1.92,7.04-2.98c4.66-2.13,9.22-4.48,13.77-6.84,9.12-4.73,18.26-9.55,27.94-13.07,5.42-1.97,11.01-3.47,16.72-4.28l-.4-3.52c-1.62,3.42-3.46,6.69-4.91,10.19s-2.79,7.19-3.72,10.92-1.55,7.78-1.62,11.75,.2,8.41,1.79,12.15c.63,1.49,1.65,3.58,3.21,4.28s3.63,.67,5.17,.17c.63-.2,.6-2.78-.07-2.79-.92-.01-1.96-.17-2.77-.65-.89-.53-1.53-1.4-2.22-2.15-1.31-1.42-2.26-2.75-2.74-4.66-.93-3.65-.67-7.66-.05-11.34,.7-4.2,2-8.28,3.51-12.25s3.23-8.35,5.12-12.37c.21-.44,.56-3.66-.4-3.52-20.4,2.97-37.99,14.6-55.98,23.82-2.58,1.32-5.18,2.63-7.84,3.8-1.61,.71-3.27,1.35-4.98,1.76-1.62,.38-3.2,.25-4.81,.47-.54,.08-.47,2.15,.05,2.15,3.18-.02,6.33,.49,9.49-.1,.07-.01,.05-.27,0-.26h0Z"/></g></svg>