<?xml version="1.0" encoding="UTF-8"?><svg id="Layer_1" xmlns="http://www.w3.org/2000/svg" viewBox="0 0 1500 750"><defs><style>.cls-1{fill:#937f77;}.cls-2{fill:#231f20;}.cls-3{fill:#dccfca;}</style></defs><g><path class="cls-1" d="M861.88,476.67s137.11,15.92,209.07,5.8l27.83-1.22s100.22-3.82,101.21-21.88c1-18.05-99.59-72.58-124.07-79.78-24.48-7.2-221.38-101.41-302.35-95.49-80.97,5.92-275.01,31.95-339.3,61.04,0,0-82.13-36.2-134.28-91.16,0,0,89.04,109.1,88.81,128.12-.23,19.03-3.28,54.62-3.28,54.62l30.86-49.32s105.06,21.48,175.01,50.71c69.95,29.23,270.48,38.55,270.48,38.55Z"/><path class="cls-1" d="M748.42,454.01s.16,50.27-17.71,68.03c-17.86,17.76-24.14,33.41-24.14,33.41,0,0,155.05-51.17,165.72-94.87,10.67-43.71-123.87-6.57-123.87-6.57Z"/><path class="cls-1" d="M482.79,390.45s53.5,34.17,34.93,80.57l112.37-33.75s-118.61-45.62-147.31-46.81Z"/><path class="cls-1" d="M435.72,385.76s28.53,17.91,27.46,49.76l57.39-49.76h-84.85Z"/><path class="cls-1" d="M461.81,344.24s22.91-24.63,3.59-60.39c-19.32-35.75,84.5,41.95,84.5,41.95l-88.09,18.43Z"/><path class="cls-1" d="M646.34,302.28s45.09-20.17,45.57-72.72,14.59-39.45,46.08-12.44c31.49,27.01,78.27,79.34,78.27,79.34,0,0-112.45,31.95-119.16,27.33s-50.76-21.51-50.76-21.51Z"/><path class="cls-3" d="M1111.31,459.86c-12.51,.47-25.05,1.81-37.4,3.82-1.19,.19-2.7,4.4-1.44,4.29,10.76-.86,21.49-2.09,32.27-2.83,10.76-.74,21.54-1.14,32.32-1.22,6.04-.04,12.09,.03,18.13,.19l2.25-5.49c-26.07,1.9-52.15,3.66-78.24,5.23-7.44,.45-14.88,.86-22.32,1.37-1.98,.14-4.43,6.77-2.56,6.66,27.08-1.62,54.19-2.98,81.25-4.88,7.48-.53,14.96-1.15,22.44-1.61l3.6-6.78c-9.9,.98-19.81,1.95-29.71,2.93-9.68,.95-19.45,2.29-29.19,2.34-5.58,.03-11.14-.37-16.59-1.61l-3.18,7.59c18.42,.69,36.85,1.1,55.28,1.48,5.12,.1,10.24,.2,15.36,.3l4.05-7.9c-18.95,.39-37.92,.51-56.88,.74-5.57,.07-11.13,.13-16.7,0-.64-.02-1.59,1.16-1.88,1.54-.61,.82-1.1,1.72-1.49,2.67-.25,.6-1.58,4.26-.23,4.48,25.23,4.02,50.61,1.12,75.51-3.67,7.06-1.36,14.11-2.81,21.13-4.34,2.06-.45,3.66-2.5,4.6-4.29,.34-.64,2.02-4.33,.07-4.2-12.27,.82-24.54,1.61-36.81,2.38l-4.54,8.79c5.88-.93,11.76-1.86,17.64-2.79,2.06-.32,3.73-2.95,4.55-4.67,.4-.83,1.94-4.28-.03-4.32-15.98-.32-31.96-.1-47.93,.69l-4.3,9.38c2.14-.62,4.29-1.24,6.43-1.86s3.64-3.06,4.46-4.98c.48-1.12,1.76-4.13-.21-4.42-4.25-.61-8.53-.29-12.64,.95-2.1,.63-3.59,3.12-4.4,5.03-.4,.95-1.77,4.33,.21,4.4,5.53,.18,9.7-5.44,11.48-10.04,1.6-4.14,1.38-9.15-2.6-11.85-1.08-.73-2.97,1.75-3.38,2.35-1.1,1.58-2.07,3.43-2.15,5.38-.02,.47,.01,.14-.03,.41-.03,.24-.09,.47-.13,.71-.09,.6,.29-.83-.06,.19-.18,.52-.1,.19,.06-.12-.08,.16-.29,.48-.31,.66,.31-.59,.37-.71,.18-.38-.06,.11-.12,.21-.19,.32-.33,.61,.55-.72,.11-.18-.19,.24-.37,.5-.56,.75,.24-.32,.37-.43,.03-.06-.21,.24-.42,.48-.64,.71-.18,.19-.35,.37-.53,.55s-.63,.61-.21,.22c-.85,.79-1.74,1.55-2.64,2.28-1.63,1.33-3.15,2.77-5.13,3.4-1.07,.34-2.12,.39-3.12-.15-.39-.21-.81-.47-1.09-.82-.13-.16-.18-.39-.31-.54-.31-.37,.23-.76-.23,.46,.36-.95,.61-3.26-1.09-2.48s-2.92,3.12-3.56,4.81c-.67,1.77-.88,3.81,.26,5.43,.9,1.28,2.15,2.04,3.71,2.18,3.43,.32,6.77-2.86,9.23-4.87,6.16-5.02,11.82-11.89,12.21-20.16l-5.53,7.73c.94,.68,1.62,1.49,2.09,2.56,.19,.43,.37,.9,.45,1.37,.06,.34,.07,.71,.07,1.06,0,.57,0,0-.05,.34-.06,.48,.24-.73,.24-.73l.86-1.5c.41-.48,.49-.58,.25-.31-.38,.4,.76-.48-.09,.07,.41-.26-.1,.06-.27,.16-.98,.55-2.05,.71-3.18,.68l-4.18,9.43c4.09-1.25,8.33-1.58,12.56-.98l4.26-9.4c-2.13,.63-4.26,1.25-6.39,1.88s-3.65,3.02-4.49,4.95c-.35,.82-1.83,4.53,.19,4.42,15.88-.84,31.8-1.21,47.71-1.08l4.52-8.99c-5.87,1-11.74,1.98-17.62,2.98-2.06,.35-3.71,2.77-4.57,4.51-.34,.69-1.94,4.43,.03,4.28,12.22-.91,24.45-1.82,36.67-2.69l4.68-8.49c-24.99,4.78-50.2,9.86-75.77,9.6-7.2-.07-14.34-.61-21.45-1.73l-3.59,8.68c9.24-.6,18.52-.57,27.78-.74s19.01-.34,28.52-.54c5.44-.11,10.89-.21,16.33-.26,1.74-.02,3.4-2.75,4.05-4.09,.36-.73,1.74-3.77,0-3.81-18.79-.51-37.59-.92-56.39-1.27-5.18-.1-10.36-.19-15.55-.23-1.93-.01-4.91,7.24-3.18,7.59,9.54,1.92,19.29,1.34,28.91,.4,9.93-.97,19.85-2.06,29.77-3.1,5.61-.58,11.21-1.17,16.82-1.75,1.58-.16,2.88-2.22,3.55-3.48,.27-.52,1.55-3.39,.05-3.29-13.8,.89-27.61,1.53-41.4,2.43-13.46,.88-26.92,1.77-40.38,2.66-7.65,.51-15.29,1.01-22.94,1.51l-2.56,6.66c26.16-1.95,52.29-4.22,78.45-6.19,7.47-.57,14.94-1.06,22.42-1.58,1.56-.11,3.95-5.45,2.25-5.49-21.79-.5-43.64,.3-65.32,2.54-6.1,.63-12.17,1.4-18.2,2.51l-1.44,4.29c6.26-1.66,12.59-2.98,18.98-4.03s12.64-1.49,18.98-1.79c.68-.03,1.54-2.31,.88-2.29h0Z"/><path class="cls-3" d="M1115.07,454.45c-1.25-.58-1.42-1.95-1.72-3.15l-4.22,6.66c9.16,1.2,18.35,2.24,27.55,3.09s18.39,1.83,27.59,2.41l5.1-9.01c-9.85-.14-19.67-1.05-29.4-2.61-2.42-.39-4.84-.82-7.24-1.28-2.15-.42-4.62-.64-6.59-1.66-1.79-.92-2.46-2.79-3.87-4.12-1.65-1.56-3.82-1.4-5.55-.07-1.42,1.09-2.58,2.84-3.2,4.5-.29,.77-.9,2.65,.41,2.76,9.44,.74,18.84,2.17,28.18,3.66s18.68,3.3,27.94,5.38l5.04-8.06c-15.56,2.17-30.76-4.06-44.49-10.64l-4.63,7.92c10.36,1.59,20.7,3.25,31.05,4.88,5.11,.81,10.22,1.62,15.33,2.42,2.38,.37,4.97,.51,7.27,1.25,.91,.29,1.83,.8,2.42,1.58,.25,.34,.29,.7,.49,1.05,.34,.58-.11,.11,.69-.98l1.66-2.03c.31-.41,.7-.68,1.16-.8-.16,.07-.32,.13-.48,.18-.38,.13-.77,.23-1.16,.33-.95,.24-1.9,.49-2.85,.74-1.98,.51-3.97,1.01-5.96,1.5-4.06,1-8.12,1.96-12.2,2.88-8.27,1.86-16.54,3.74-24.83,5.55-1.65,.36-3.16,2.56-3.9,3.9-.25,.45-1.55,3.43-.02,3.2,7.84-1.16,15.65-2.54,23.38-4.29,3.83-.87,7.64-1.78,11.45-2.72s7.82-1.79,11.6-3.04c2.21-.73,4.04-2.11,5.54-3.88s3.16-4.33,2.68-6.85c-.67-3.53-4.49-4.23-7.47-4.7-8.14-1.29-16.27-2.57-24.41-3.86-9.08-1.43-18.17-2.84-27.24-4.31-.61-.1-1.69,.92-2.01,1.25-.7,.72-1.28,1.52-1.79,2.38-.4,.68-2.07,3.67-.83,4.28,13.81,6.81,28.85,12.99,44.54,10.88,2.02-.27,3.73-2.32,4.72-3.97,.54-.9,2.15-3.69,.32-4.09-9.41-2.07-18.89-3.85-28.41-5.34s-19.13-2.43-28.73-3.49l-2.79,7.26c-.48,.17-.5,.22-.05,.13,.18-.01,.37,0,.54,.05,.45,.1,.9,.4,1.26,.68,.66,.52,1.08,1.23,1.55,1.92,1.13,1.66,2.29,2.75,4.26,3.33,4.42,1.31,9.08,2.1,13.61,2.9,9.22,1.64,18.57,2.62,27.92,3.1,2.86,.15,7.98-8.73,5.1-9.01-9.41-.93-18.89-1.45-28.33-2.12-9.44-.67-18.91-1.13-28.37-1.45-1.17-.04-2.53,1.93-3.03,2.75-.63,1.03-1.61,2.66-1.19,3.92,.65,1.9,3.34,1.36,4.73,.65,.56-.29,3.01-3.21,1.88-3.74h0Z"/><path class="cls-3" d="M1120.87,475.75c1.45-.16,2.92,.11,4.37,.29s2.94,.35,4.41,.48c2.79,.25,5.58,.4,8.38,.45,5.67,.11,11.35-.18,16.98-.89s11.3-1.87,16.8-3.4c4.47-1.24,8.98-2.76,12.93-5.25,2.41-1.52,4.69-3.36,6.46-5.6,1.41-1.79,3.6-4.53,3.07-6.96-.24-1.08-2.16,1.1-2.31,1.33-.56,.83-1.16,1.62-1.69,2.47-.35,.57-.17,.27-.07,.13-.13,.18-.28,.35-.42,.53-.44,.56-.15,.16-.04,.05-.23,.24-.47,.48-.7,.71-.16,.16-.32,.32-.49,.47,.05-.05,.34-.29,.03-.03-.35,.29-.71,.58-1.08,.85-.57,.43-1.34,.92-2.17,1.38-3.63,2.03-7.68,3.21-11.67,4.29-10.06,2.71-20.5,4.12-30.92,4.21-2.91,.02-5.82-.05-8.73-.24-1.41-.09-2.82-.2-4.23-.34s-3.31-.11-4.57-.8-3.12,1.55-3.73,2.37c-.14,.19-2.24,3.68-.6,3.49h0Z"/><path class="cls-3" d="M1193.89,453.87c-4,2.36-7.97,4.68-12.35,6.28-4.61,1.69-9.44,2.62-14.35,2.8-.98,.03-1.87,1.23-2.34,1.98-.18,.29-1.11,2.04-.18,2.02,10.5-.22,21.35-3.9,28.98-11.28,.33-.32,1.59-2.6,.24-1.8h0Z"/><path class="cls-3" d="M1070.95,438.63c-.44,1.09-.74,2.08-.69,3.26,.04,.99,.2,1.94,.52,2.88,.6,1.76,1.68,3.42,3.11,4.63,3,2.54,7.63,2.65,10.95,.74,1.01-.58,1.78-1.66,2.21-2.73,.18-.46,.52-1.98-.51-1.44-3.14,1.63-6.92,1.37-9.88-.52-1.39-.89-2.51-2.14-3.23-3.62-.36-.73-.62-1.51-.82-2.29-.08-.34-.09-.72-.19-1.06-.07-.26-.3-.51-.44-.75-.25-.46-.97,.74-1.04,.91h0Z"/><path class="cls-3" d="M1085.03,435.74c2.2,1.14,3.66,2.74,4.5,5.08s.94,4.89,.19,7.22c-.68,2.13-2.7,3.75-4.52,5-2.62,1.81-5.61,3.13-8.48,4.5-1.02,.48-1.79,1.68-2.19,2.7-.21,.54-.51,1.86,.52,1.44,7.06-2.9,14.5-7.11,17.25-14.73,1.77-4.9,.53-13.14-5.97-13.53-.55-.03-1.9,2.01-1.31,2.31h0Z"/><path class="cls-3" d="M1071.97,445.43c-.01,3.8,3.17,6.72,6.77,7.32,4.82,.8,9.28-2.44,12.9-5.17,.55-.42,1.01-1.15,1.19-1.8,.09-.32,.18-1.06-.4-.76-3.43,1.81-7.26,4.07-11.29,3.74-3.04-.24-6.8-2.2-6.97-5.61-.04-.77-.79-.22-1.09,.07-.52,.52-1.12,1.42-1.12,2.2h0Z"/><path class="cls-3" d="M1093.08,435.71c2.32,.53,3.7,2.91,4.11,5.11,.43,2.34-.58,4.42-2.23,6.03-4.13,4.05-9.87,6.68-15.38,8.23-.69,.19-1.32,1.2-1.6,1.79-.1,.2-.62,1.48,.02,1.37,7-1.17,13.93-4.92,18.46-10.47,2.13-2.61,4.08-6,3.51-9.5-.45-2.78-2.55-5-5.43-5.13-.73-.03-2.31,2.38-1.46,2.57h0Z"/><path class="cls-3" d="M869.89,469.2c1.03,1.02,2.52,1.24,3.86,.77,1.21-.43,1.94-1.3,2.58-2.15l-1.03,.53c.82,1.36,1.83,2.1,3.37,2.53,1.64,.46,3.33,.68,5.01,.94,3.23,.49,6.46,.92,9.7,1.31,6.54,.78,13.11,1.09,19.69,1.32,13.46,.46,26.94,.27,40.41,.27,27.05,0,54.1-.11,81.14-.02,7.64,.03,15.27,.06,22.91,.09,3.78,.01,7.56,.03,11.34,.05,4.15,.02,8.17,.02,12.29-.6,1.05-.16,2.44-1.29,3.16-1.95,.96-.89,1.81-1.86,2.53-2.96,.58-.89,2.39-3.97,.37-4.33-3.4-.61-6.76-.47-10.2-.43s-6.72,.09-10.08,.12c-6.9,.08-13.8,.16-20.7,.24-13.76,.15-27.52,.26-41.28,.35-27.38,.18-54.77,.28-82.15,.59-7.63,.09-15.24-.07-22.86-.18-3.75-.06-7.51-.17-11.26-.42-1.91-.12-3.85-.4-5.77-.45-2.32-.06-4.33,.27-6.45,1.26-.5,.23-1.55,1.69-1.16,2.28-.03-.05-.61,.34-.87,.48-.48,.25-1,.39-1.53,.43-.97,.08-1.86-.2-2.59-.84-.14-.12-.6,.59-.42,.78h0Z"/><path class="cls-3" d="M1084.75,469.06c-3.31-.31-6.61-.59-9.94-.6s-6.55-.02-9.83-.04c-6.75-.03-13.51,.04-20.26,.07-13.4,.06-26.8,.16-40.2,.36-27.07,.39-54.14,.9-81.21,1.38-13.56,.24-27.56,.23-40.19-5.38l-3.77,7.35c12.25,.8,24.48,1.8,36.73,2.5,12.21,.7,24.41,1.35,36.63,1.85,24.46,1,48.94,1.72,73.42,1.68,13.81-.03,27.61-.2,41.41-.56,2.92-.08,5.73-2.93,7.36-5.12,.46-.62,3.84-5.88,1.14-5.8-25.13,.72-50.27,1.07-75.42,1.17s-50.33-.33-75.48-1.19c-14.15-.48-28.33-.99-42.46-1.95-.56-.04-1.45,.91-1.73,1.24-.59,.68-1.07,1.44-1.49,2.24-.32,.63-1.68,3.38-.56,3.88,11.14,4.93,23.54,5.52,35.55,5.37,13.33-.16,26.66-.64,39.99-.98,27.29-.69,54.59-1.4,81.87-2.46,7.7-.3,15.42-.5,23.12-.9,3.79-.2,7.58-.35,11.37-.53,4.12-.19,8.18-.62,12.27-1.12,.67-.08,2.47-2.38,1.65-2.46h0Z"/><path class="cls-3" d="M1080.26,474.7c-5.66-.01-11.33-.11-16.99,.07-5.8,.19-11.6,.39-17.4,.59-11.67,.4-23.34,.77-35.01,1.05-23.25,.55-46.53,.51-69.77-.65-13.2-.66-26.38-1.69-39.51-3.22l-3.92,8.27c9.91,.51,19.83,.79,29.74,1.16s19.81,.7,29.71,.95c19.91,.5,39.82,.8,59.74,.92,11.31,.07,22.64,.25,33.93-.26,2.02-.09,3.93-1.92,5.12-3.42,.36-.45,2.75-3.85,.93-3.92-10.05-.41-20.12-.29-30.18-.36s-20.1-.21-30.14-.38c-20.18-.34-40.37-.86-60.55-1.54-11.46-.38-22.92-.97-34.38-1.42-2.39-.09-6.49,8-3.92,8.27,23.17,2.48,46.48,3.56,69.79,3.58s46.54-.8,69.77-2.21c6.64-.4,13.28-.83,19.92-1.32s13.55-1.27,20.33-2c1.05-.11,1.96-1.24,2.5-2.06,.19-.29,1.24-2.1,.29-2.1h0Z"/><path class="cls-3" d="M413.48,385.15c-.33-.26-.42-.56-.56-.93-.06-.16,0-.1-.02-.13-.06,.29-.2,.53-.4,.73,.07-.06,.14-.11,.22-.15l.03-2.52c-1.37,2.14-2.55,4.39-3.77,6.61s-2.4,4.38-3.61,6.61c-.33,.61-.9,2.15-.39,2.78,.55,.67,1.32-.83,1.48-1.13,2.35-4.36,4.85-8.7,6.9-13.21,.24-.53,.51-1.18,.43-1.78-.04-.31-.25-.72-.61-.38-1.3,1.23-2.69,4.48-.53,5.63,.49,.26,1.31-1.76,.83-2.14h0Z"/><path class="cls-3" d="M413.45,381.23c-.8-1.33-1.98-2.77-3.55-3.15-1.24-.3-2.12,2.82-2.1,3.65,.18,6.19-.15,12.27-1.03,18.4l3.1-2.8c.39-4.21-.3-8.42-1.82-12.35s-4.08-7.36-6.98-10.34c-1.37-1.41-3.98,4.12-3.13,5.48,1.83,2.91,4.39,5.43,7.01,7.62,1.27,1.06,2.61,2.05,4.01,2.95,1.55,1,3.05,1.67,4.82,2.21,1.16,.36,2.26-1.76,2.63-2.56,.34-.74,1.37-3.03,.32-3.66-2.86-1.69-5.83-3.26-8.5-5.25s-4.89-4.36-7.15-6.8l-2.88,5.72c1.65,1.13,2.94,2.36,4.1,3.99s2.09,3.3,2.83,5.1c1.49,3.58,1.98,7.48,1.57,11.33-.11,.99,.51,1.47,1.3,.8,.96-.82,1.62-2.37,1.8-3.59,.95-6.4,1.09-13.01,.39-19.43l-1.54,3.92c1.32-.75,3.13-.72,3.71,.88,.16,.45,.77-.5,.83-.61,.19-.37,.5-1.12,.25-1.53h0Z"/><path class="cls-3" d="M410.55,381.38c.85-.9,1.89-2.63,1.35-3.92-.49-1.15-1.54-.95-2.45-1.17-.69-.17-1.22,.55-1.61,1-1.45,1.7-2.69,4.73-1.37,6.83s3.98,2.21,6.16,2.39c7.27,.58,14.55,.96,21.81,1.64,14.57,1.37,29.11,3.2,43.54,5.66,28.59,4.88,56.59,12.18,84.1,21.36,26.77,8.94,53.06,19.31,80.02,27.7,27.46,8.54,55.58,14.12,84.25,16.46,14.73,1.2,29.5,1.74,44.26,2.42,14.99,.69,29.98,1.38,44.97,2.07,3.75,.17,7.5,.35,11.24,.52,2.98,.14,6.1-2.51,8-4.57,.5-.54,4.54-5.57,1.86-5.71-29.37-1.54-58.8-2.67-88.13-4.86-14.79-1.1-29.54-2.61-44.19-5-13.67-2.22-27.19-5.28-40.57-8.83-27.1-7.17-53.95-15.11-80.72-23.42-26.59-8.26-53.34-15.91-80.64-21.48-28.36-5.78-57.39-9.77-86.34-10.71-1.34-.04-2.68,.02-4-.29-.46-.11-2.71-.73-2.59-1.53l-.69,2.22c-.03,.05-.78,1.35-.89,1.24-.01-.01,.77-.34,.82-.36,.17-.04,.51-.03,.65-.11,.1-.02,.19-.01,.28,.02,.48,.14,.63-.25,.43-1.17-.26,.49-.6,2.72,.46,1.6h0Z"/><path class="cls-3" d="M510.5,399.84c5.53,2.21,10.59,5.71,15.75,8.66s10.42,5.87,15.69,8.7c10.52,5.66,21.32,10.82,32.23,15.66,22,9.76,44.76,17.6,68.41,22.24,6.52,1.28,13.08,2.32,19.67,3.1,3.28,.39,6.56,.65,9.87,.75,3.67,.11,7.42-.3,11.08-.52,1.67-.1,3.16-1.67,4.13-2.91,.38-.49,2.15-3.02,.68-3.24-2.78-.41-5.5-.97-8.26-1.5s-5.87-.79-8.79-1.1c-5.84-.63-11.65-1.47-17.43-2.48-11.71-2.04-23.25-4.88-34.68-8.14-23.57-6.71-46.45-15.69-68.68-25.96-6.16-2.85-12.33-5.68-18.44-8.64-3.01-1.46-6.01-2.93-9-4.43s-6.1-2.99-8.85-5c-1.31-.96-4.49,4.37-3.39,4.81h0Z"/><path class="cls-3" d="M574.77,412.04c-2.34,1.92-3.29,4.92-1.44,7.45s5.05,3.67,7.78,5.02c6.41,3.19,13.01,5.9,19.7,8.43,13.4,5.06,27.12,9.16,41.07,12.41,3.91,.91,7.83,1.8,11.78,2.48,2.01,.35,4.03,.65,6.05,.91,2.15,.27,4.37,.16,6.54,.18,1.44,.01,5.83-4.59,3.92-5.25-1.51-.52-3.01-1.16-4.53-1.61-1.61-.47-3.32-.77-4.96-1.11-3.22-.66-6.44-1.32-9.66-1.99-6.61-1.39-13.19-2.97-19.71-4.72-13.08-3.52-26.02-7.64-38.67-12.47-3.55-1.35-7.16-2.55-10.72-3.88-1.57-.59-3.27-1.06-4.68-2.01-.65-.44-2.34-1.69-2.05-2.69l-.65,1.45-.15,.12c.54-.6,1.23-1.5,1.26-2.34,.02-.65-.32-.82-.88-.37h0Z"/><path class="cls-3" d="M620.45,436.01c8.55,1.78,16.99,4.26,25.48,6.31,8.03,1.94,16.11,3.68,24.19,5.41,16.14,3.46,32.44,6.41,48.88,8.1,4.63,.47,9.29,.88,13.94,1.07s9.74,.42,14.54-.32c1.46-.22,2.97-1.67,3.84-2.76,.34-.42,1.82-2.37,.58-2.61-4.02-.75-8.2-.6-12.28-.83s-8.35-.49-12.52-.86c-8.43-.75-16.83-1.83-25.19-3.14-16.83-2.63-33.47-6.28-50.24-9.25-4.75-.84-9.5-1.7-14.27-2.48s-9.88-1.5-14.76-2.52c-1.11-.23-3.4,3.61-2.2,3.86h0Z"/><path class="cls-3" d="M608.37,420.54c2.06,1.22,4.01,2.65,6.17,3.67s4.23,1.98,6.36,2.93c4.34,1.95,8.78,3.7,13.23,5.39,8.84,3.35,17.83,6.36,26.95,8.85,17.87,4.88,36.13,8.13,54.48,10.57,18.17,2.41,36.44,4.06,54.67,5.88,18.21,1.82,36.42,3.76,54.48,6.81s35.57,7.24,52.64,13.39c2.13,.77,4.25,1.54,6.38,2.27,1.66,.57,4.31-1.52,5.44-2.51,.58-.51,3.19-2.82,1.64-3.48-8.46-3.64-17.49-6.18-26.38-8.53s-17.83-4.25-26.85-5.9c-18.19-3.33-36.58-5.45-54.97-7.25s-36.98-3.31-55.43-5.45c-18.41-2.13-36.78-4.89-54.82-9.2-18.83-4.5-37.24-10.5-55.21-17.67-2.26-.9-4.66-1.43-6.96-2.23-.75-.26-2.46,2.08-1.82,2.46h0Z"/><path class="cls-3" d="M651.74,436.53c16.36,3.96,33.05,6.79,49.81,8.3,16.87,1.52,33.8,2.16,50.72,2.76,16.3,.58,32.62,1.14,48.88,2.48,15.77,1.29,31.51,3.29,46.98,6.68,15.27,3.34,30.26,8.03,44.42,14.69,1.81,.85,3.61,1.72,5.4,2.59,1.61,.77,7.07-3.88,5.58-4.69-13.88-7.49-29.26-12.52-44.54-16.24s-31.23-6.03-47.05-7.52-32.72-2.19-49.11-2.74c-17.17-.57-34.35-1.03-51.49-2.26s-34.41-2.77-51.18-6.55c-2.03-.46-4.06-.94-6.08-1.45-1.3-.32-3.08,3.76-2.36,3.93h0Z"/><path class="cls-3" d="M658.56,444.16c31.44,2.82,62.83,6.13,94.21,9.48,31.25,3.34,62.5,6.69,93.74,10.19,12.43,1.4,27.34,2.29,35.61,13.09,.72,.94,5.08-1.94,4.5-3.01-5.63-10.31-18.9-12.62-29.51-13.93-15.61-1.93-31.25-3.67-46.89-5.45-31.67-3.61-63.36-7.03-95.07-10.3-17.7-1.82-35.4-3.65-53.09-5.54-1.2-.13-2.61,1.93-3.15,2.78-.28,.44-1.55,2.58-.37,2.68h0Z"/><path class="cls-3" d="M823.42,457.9c18.82,5.22,38.12,9.76,57.66,11.1,.89,.06,1.9-.96,2.45-1.56,.2-.21,1.39-1.6,.62-1.73-19.13-3.12-38.12-6.54-56.51-12.82-.39-.13-1.3,.49-1.54,.66-.7,.48-1.37,1.12-1.92,1.77-.36,.43-1.87,2.27-.76,2.58h0Z"/><path class="cls-3" d="M871.96,464.53c3.48,.18,6.96,.56,10.45,.78s7.02,.45,10.53,.6c6.91,.3,13.83,.61,20.75,.8,13.98,.38,27.97,.65,41.96,.81,28.08,.32,56.19,.35,84.26-.5,15.88-.48,31.75-1.07,47.62-1.92,.85-.05,1.65-.84,2.17-1.44,.13-.14,1.21-1.61,.5-1.59-28.07,.72-56.14,1.34-84.21,1.6s-56.5,.14-84.74-.43c-7.86-.16-15.72-.28-23.58-.45-4.04-.09-8.08-.13-12.13-.18s-8.16,.06-12.24-.06c-.65-.02-1.84,1.95-1.35,1.98h0Z"/><path class="cls-3" d="M907.79,463.18c-3.43,.6-6.85,1.15-10.29,1.66-1.66,.24-3.32,.49-4.98,.73-.76,.11-1.6,.35-2.36,.33-.84-.02-1.64-.33-2.47-.23s-2.59,2.96-1.74,3c7.69,.43,15.4,.4,23.1,.37s15.18-.05,22.77-.16c15.23-.21,30.45-.57,45.67-1.01,30.6-.88,61.21-2.05,91.77-3.88,17.51-1.05,34.99-2.36,52.46-4.03,.8-.08,1.72-.99,2.2-1.55,.12-.13,1.1-1.43,.44-1.4-30.6,1.31-61.18,3.13-91.78,4.48-30.84,1.37-61.69,2.34-92.55,2.93-8.69,.17-17.39,.36-26.08,.51-8.76,.15-17.52,.21-26.26,.73l-1.74,3c.91-.2,1.74-.61,2.61-.93,1.03-.38,2.08-.56,3.15-.77,1.71-.33,3.42-.66,5.13-.99,3.47-.67,6.93-1.3,10.42-1.87,.31-.05,.7-.96,.54-.93h0Z"/><path class="cls-3" d="M918.81,460.71c4.88,.51,9.91,.08,14.81-.05s10.06-.29,15.1-.46c10.09-.34,20.17-.68,30.26-1.01,20.25-.68,40.5-1.43,60.74-2.34,11.54-.52,23.07-1.03,34.61-1.61,.96-.05,1.88-.98,2.47-1.65,.14-.16,1.38-1.82,.59-1.8-20.24,.54-40.48,1.22-60.72,2.02-20.39,.8-40.77,1.66-61.16,2.55-5.78,.25-11.56,.51-17.34,.79s-11.84,.32-17.65,1.22c-.59,.09-2.4,2.28-1.7,2.35h0Z"/><path class="cls-3" d="M1119.12,453.7c-5.75,.56-11.56,.73-17.32,1.1-5.58,.35-11.17,.73-16.75,1.13-11.33,.81-22.65,1.72-33.96,2.73-22.67,2.02-45.29,4.47-67.87,7.31-12.85,1.62-25.67,3.47-38.47,5.39-.77,.12-1.58,.85-2.05,1.43-.23,.28-.8,1.11-.03,1,22.43-3.16,44.92-5.98,67.44-8.48s45.31-4.71,68.02-6.5c6.42-.51,12.85-.98,19.27-1.43s12.81-1.08,19.21-1.16c.84-.01,1.85-.85,2.4-1.42,.26-.28,.99-1.19,.11-1.11h0Z"/><path class="cls-3" d="M870.88,420.91c.42,12.59,.07,25.22,.17,37.81,0,1,1,.38,1.43,0,.69-.59,1.67-1.78,1.67-2.76,.1-12.75-.23-25.54,.17-38.28,.04-1.16-1.18-.36-1.61,.04-.75,.69-1.87,2.08-1.83,3.19h0Z"/><path class="cls-3" d="M891.34,416.36c-1.28,4.85-1.89,9.96-2.43,14.94s-.82,9.63-.92,14.47c-.19,9.53,.59,19.08,2.12,28.49,.16,.99,1.81-.62,1.99-.83,.66-.76,1.48-1.93,1.32-3.01-1.42-9.47-2-19.04-1.9-28.62,.05-4.64,.3-9.28,.74-13.9s1.31-9.35,1.78-14.03c.09-.9-.87-.33-1.18-.06-.73,.66-1.29,1.6-1.54,2.54h0Z"/><path class="cls-3" d="M905.24,419.51c-1-1.68-1.69-3.39-2.37-5.22-.4-1.06-2.19,1.62-2.31,1.96-1.32,3.96-1.91,8.2-2.48,12.32s-.97,8.45-1.09,12.69c-.24,8.24,.34,16.51,1.69,24.64,.77,4.63,1.98,9.18,3.39,13.65,.32,1,1.85-.49,2.13-.8,.63-.69,1.73-2.08,1.44-3.12-4.29-15.56-6-31.76-4.54-47.86,.2-2.21,.46-4.42,.79-6.62s.85-4.39,1.02-6.61l-2.37,2.86c1.24,1.2,2.34,2.37,3.3,3.81,.36,.54,1.72-1.21,1.41-1.72h0Z"/><path class="cls-3" d="M916.47,419.01c-1.09-1.19-1.65-2.42-2.26-3.88-.46-1.1-2.35,1.9-2.42,2.35-.45,2.65-.47,5.4-.62,8.08-.14,2.51-.2,5.02-.25,7.53-.12,5-.18,10-.18,15s-.11,9.54,.19,14.28c.21,3.31,.82,8.36,4.21,9.96,1.07,.5,3.3-2.49,2.83-3.44-.85-1.7-1.8-3.33-2.31-5.17-.54-1.98-.68-4.04-.79-6.08-.25-4.64-.35-9.29-.44-13.94s-.13-9.53-.12-14.3c0-2.45,.04-4.9,.03-7.35-.01-2.28,.2-4.66-.13-6.92l-2.32,3.11c1.18,.96,2.04,1.83,2.8,3.18,.39,.7,2.48-1.66,1.79-2.41h0Z"/><path class="cls-3" d="M917.97,417.2c-.03-1.54-.19-3.13,.12-4.64,.22-1.04-.41-1.1-1.15-.53-.85,.65-1.58,1.78-1.73,2.84-.62,4.63-.46,9.45-.55,14.11s-.11,9.39-.1,14.09,.04,9.2,.1,13.79c.03,2.16-.02,4.34,.17,6.49,.14,1.63,.51,3.37,1.75,4.54,1.15,1.09,2.92,1.03,4.29,.42,2.23-1,3.95-3.29,4.44-5.65,.24-1.17-1.15-.59-1.59-.28-1.01,.72-1.94,1.9-2.31,3.1,.54-.8,1.15-1.54,1.81-2.23-.1,.04-.21,.05-.32,.04-.34-.03-.64-.03-.97-.13-.65-.19-1.24-.56-1.66-1.09-1.2-1.51-1.11-3.76-1.17-5.58-.16-5.04-.3-10.09-.39-15.14s-.14-9.91-.22-14.86c-.04-2.46-.08-4.91-.1-7.37s.08-4.88-.27-7.25l-2.88,3.3c.43,1.29,.12,2.87,.07,4.21-.03,.85,.86,.35,1.22,.07,.57-.45,1.44-1.46,1.43-2.26h0Z"/><path class="cls-3" d="M916.13,424.72c2.05,17.51,6.08,34.64,12.2,51.17,.35,.94,3.05-1.94,2.65-3.06-5.87-16.45-10.11-33.57-12.46-50.88-.1-.72-1.32,.45-1.45,.59-.5,.57-1.03,1.38-.94,2.17h0Z"/><path class="cls-3" d="M332.29,288.22c.59,1.5,1.76,2.57,2.88,3.71,1.2,1.22,2.42,2.42,3.6,3.65,2.26,2.34,4.48,4.73,6.65,7.16,4.32,4.84,8.44,9.85,12.37,15.01,7.76,10.2,14.84,20.89,21.02,32.12,1.7,3.09,3.39,6.19,5.05,9.31s3.23,6.4,5.11,9.47c.75,1.23,3.09-2.09,2.76-3.12-2.04-6.37-5.18-12.41-8.33-18.3s-6.41-11.13-9.92-16.49c-7.1-10.81-15.05-21.01-23.77-30.56-2.4-2.63-4.85-5.2-7.36-7.72-1.3-1.31-2.62-2.61-3.96-3.89-1.26-1.21-2.62-2.83-4.36-3.22-1.04-.23-2.05,2.07-1.74,2.87h0Z"/><path class="cls-3" d="M356.84,315.32c11.57,8.25,20.16,19.78,27.61,31.7,2.1,3.37,4,6.86,5.82,10.39,.47,.91,2.42-1.76,2.1-2.63-5.05-13.6-13.71-25.57-24.09-35.61-2.93-2.84-6.03-5.5-9.13-8.16-.83-.72-3.58,3.39-2.3,4.3h0Z"/><path class="cls-3" d="M860.97,477.16c-8.4,4.72-16.65,9.7-25.13,14.3s-17.2,9.04-25.97,13.22c-17.56,8.37-35.51,15.84-53.85,22.33-10.63,3.76-21.38,7.19-32.22,10.31-1.08,.31-2.04,1.18-2.71,2.05-.32,.42-1.2,1.56-.38,1.88,4.5,1.74,9.14,1.36,13.72,.08s9.38-3.36,13.98-5.22c9.7-3.93,19.37-7.93,29.02-11.97s19.13-8.07,28.68-12.15c9.21-3.93,18.47-7.76,27.6-11.86,9.84-4.42,19.52-9.74,26.64-18.05,.64-.74,1.18-2.02-.39-1.49-5.15,1.72-10.25,3.55-15.35,5.4-1,.36-2.11,1.01-2.72,1.92-.47,.69-.27,1.15,.62,.88,5.03-1.54,10.03-3.11,15.02-4.78l-.39-1.49c-1.38,1.42-2.89,2.65-4.15,3.63s-3.13,2.28-4.62,3.2c-3.49,2.15-7.15,4-10.87,5.71-8.7,3.99-17.56,7.63-26.35,11.4-18.65,7.99-37.32,15.93-56.1,23.61-5.1,2.09-10.17,4.33-15.36,6.18-4.89,1.75-10.5,2.98-15.53,1.04l-3.09,3.93c19.22-5.67,38.12-12.38,56.66-19.99,18.41-7.56,36.42-16.07,53.94-25.51,9.9-5.34,19.83-10.81,29.21-17.05,.4-.27,1.69-1.06,1.55-1.67s-1.19,.02-1.46,.17h0Z"/><path class="cls-3" d="M532.51,460.47c-.85,.38-1.7,.76-2.58,1.07-.8,.28-1.75,.84-2.61,.76-1.34-.13-2.88,1.31-3.61,2.3-.65,.88-.9,2.14,.65,1.64,20.67-6.79,41.59-12.74,62.77-17.68,6.05-1.41,12.11-2.74,18.19-3.99,1.44-.3,2.83-1.63,3.7-2.74,.37-.47,1.7-2.24,.52-2.54-13.47-3.45-27.47-1.05-40.55,2.89-6.39,1.93-12.68,4.2-18.94,6.52-5.49,2.04-10.97,4.19-16.08,7.08-6.24,3.54-11.8,8-15.88,13.95-.37,.54-1.04,2.05,.15,2s2.49-1.49,3.18-2.34c1.31-1.63,3.25-3.59,5.2-5.15,.63-.51,.46-.38,1.11-.84,.52-.38,1.05-.74,1.58-1.09,.99-.65,1.95-1.24,2.96-1.81,4.68-2.6,9.67-4.61,14.68-6.48,11.87-4.43,23.96-8.88,36.6-10.47,7.11-.9,14.33-.68,21.3,1.05l4.22-5.28c-21.85,4.6-43.46,10.35-64.75,17.09-5.99,1.9-11.93,3.93-17.86,6.03l-.36,2.7c1.7-1.39,3.85-2.37,5.82-3.32,.32-.15,.94-.61,1-.99,.05-.3,0-.53-.41-.34h0Z"/><path class="cls-3" d="M468.44,426.75c-.45,.91-.91,1.82-1.36,2.73-.5,1-1.15,1.87-1.67,2.84-.3,.57-.12,.94,.52,.84,.74-.12,1.61-.88,2-1.47,3.84-5.81,8.47-10.84,13.84-15.27s11.23-8.17,17.02-12c.72-.47,2.45-1.87,2.2-2.9-.26-1.09-1.97,.03-2.41,.31-15.66,9.93-28.97,22.98-38.99,38.61-1.25,1.95-2.64,3.95-3.59,6.06-.75,1.67-1.46,4.33,.84,5.04,1.38,.43,6.1-3.47,4.79-4.36-1.12-.76-.83-2.16-.32-3.22,.88-1.83,2.04-3.57,3.13-5.29,2.09-3.31,4.39-6.5,6.83-9.57,4.93-6.22,10.44-11.71,16.52-16.73,3.49-2.88,7.17-5.56,11.01-7.95l-.2-2.59c-6.41,4.16-12.78,8.49-18.62,13.44s-11.08,10.41-14.56,17.05l2.74-.98c.36-.86,.53-1.72,.92-2.57s.82-1.79,1.23-2.68c.22-.47,0-.64-.46-.54-.52,.12-1.15,.72-1.39,1.2h0Z"/><path class="cls-3" d="M616.57,368.29c21.92-4.12,43.99-7.46,66.15-10.01,22.05-2.54,44.18-4.3,66.36-5.26,22.27-.97,44.57-1.15,66.86-.54,22.18,.6,44.33,1.99,66.42,4.13,22.37,2.17,44.68,5.15,66.86,8.8,2.73,.45,5.45,.91,8.17,1.38,.73,.13,1.54-.36,2.1-.78,.13-.1,1.32-1.15,.7-1.27-21.96-4.04-44.04-7.22-66.24-9.56-22.23-2.35-44.54-3.9-66.88-4.65-22.38-.76-44.78-.72-67.15,.1s-44.7,2.42-66.95,4.81-44.62,5.59-66.75,9.58c-2.71,.49-5.42,.99-8.13,1.5-.55,.1-1.2,.52-1.53,.99-.13,.19-.6,.9,0,.78h0Z"/><path class="cls-3" d="M718.29,389.7c44.84-3.96,89.94-5.45,134.95-5.11,44.99,.34,89.97,2.67,134.75,7.04,25.25,2.46,50.44,5.5,75.54,9.19,.75,.11,1.78-.34,2.38-.77,.29-.21,1.1-.84,.31-.96-44.57-6.68-89.43-11.32-134.42-13.94-45.03-2.62-90.18-3.22-135.27-1.81-25.34,.79-50.65,2.3-75.93,4.2-.77,.06-1.66,.59-2.18,1.14-.22,.22-.93,1.09-.12,1.01h0Z"/><path class="cls-3" d="M973.17,414.45c29.34,1.22,58.63,4.47,87.62,9.07,28.89,4.58,57.49,10.71,85.8,18.05,16.09,4.18,32.06,8.83,47.88,13.95,.68,.22,1.73-.18,2.33-.5,.35-.19,1.07-.65,.38-.88-27.76-9.44-55.99-17.4-84.62-23.73-28.63-6.33-57.62-11.04-86.75-14.27-16.43-1.82-32.92-3.09-49.43-4.11-.99-.06-2.17,.59-2.92,1.18-.34,.27-1.3,1.2-.29,1.25h0Z"/><path class="cls-3" d="M984.64,444.14c4.47-.53,9.05-.53,13.55-.67s8.63-.2,12.94-.21c8.54-.04,17.07,.12,25.6,.47,17.07,.69,34.07,2.22,51.02,4.35,9.57,1.2,19.12,2.65,28.62,4.33,.83,.15,1.91-.34,2.59-.77,.34-.21,1.2-.87,.36-1.02-16.95-3.09-34.02-5.4-51.19-6.88s-34.67-2.21-52.04-2.15c-4.83,.02-9.66,.1-14.48,.22-4.81,.12-9.69,.58-14.5,.45-.91-.03-1.98,.45-2.67,1-.54,.43-.77,1,.18,.89h0Z"/><path class="cls-3" d="M1108.72,440.64c17.91,.77,35.55,3.63,53.01,7.62,4.98,1.14,9.93,2.41,14.85,3.8,.69,.19,1.6-.04,2.24-.32,.29-.13,1.11-.58,.43-.79-17.23-5.3-34.96-8.71-52.89-10.52-5.08-.51-10.18-.91-15.28-1.2-.82-.05-1.85,.18-2.54,.64-.53,.36-.54,.74,.19,.77h0Z"/></g><g><path class="cls-2" d="M1076.43,390.84l-.25-2.51c-.01-.13-.09-.41-.27-.4s-.23,.29-.25,.42l-.26,2.52c-.04,.35-.01,.77,.16,1.08,.08,.14,.19,.32,.38,.32,.18,0,.3-.2,.37-.34,.16-.34,.15-.73,.11-1.09h0Z"/><path class="cls-2" d="M833.44,465.76c-2.77-1.59-5.59-2.96-8.73-3.68s-6.37-.92-9.54-.82-6.23,.54-9.22,1.4-6.07,2.26-9.2,3.09c-6.65,1.76-13.62,.52-20.36,.09-3.49-.22-6.98-.34-10.47-.36-1.79-.01-3.57,0-5.36,.05-1.58,.04-3.37-.11-4.89,.42-2.85,.99-3.31,4.72-3.99,7.22-1.1,4.05-2.15,8.12-3.1,12.21-.06,.28,.14,1.79,.37,1.07,1.01-3.17,1.96-6.36,2.83-9.58,.43-1.59,.84-3.19,1.3-4.77,.36-1.24,.85-2.57,2.01-3.28,1.35-.83,3.28-.66,4.79-.7,1.71-.05,3.41-.07,5.12-.08,3.41,0,6.82,.09,10.23,.28,6.53,.36,13.27,1.6,19.78,.37,3.22-.61,6.22-1.95,9.31-2.98,2.9-.97,5.91-1.65,8.95-1.96,3.39-.35,6.83-.28,10.2,.23s6.74,1.04,9.96,2.06c.05,.02,.06-.26,0-.29h0Z"/><path class="cls-2" d="M752.56,475.72c-4.46,11.92-10.24,23.26-17.33,33.84-3.54,5.28-7.42,10.29-11.58,15.1-3.78,4.38-7.68,8.67-11.02,13.4-3.71,5.25-6.59,11.11-7.5,17.52-.06,.43-.23,2.83,.65,2.77,23.27-1.75,44.85-12.63,65.54-22.61,10.78-5.2,21.54-10.47,32.25-15.83s21.35-11.27,31.83-17.23c5.8-3.3,11.58-6.64,17.31-10.06,2.24-1.33,4.45-2.76,6.35-4.56,.98-.93,1.86-1.95,2.62-3.07,.07-.1,.25-.49,.37-.58-.16,.12,.1,0,.18-.04,.34-.17,.68-.17,1.02-.42,.69-.5,.99-2.13,1.1-2.83,.23-1.56,.26-3.14,.08-4.71s-.41-3.55-1.55-4.74c-.78-.82-1.29,1.56-1.34,1.79,.42-1.09,.51-1.43,.28-.99,.31-.38,.37-.49,.19-.32-.24-.31-1.19,2.89-1.19,2.89-.16,1.02-.22,2.05-.19,3.09,.01,.21,.02,.43,.02,.64,.02-.83,.01-.93-.03-.31,.04-.38,.02-.3-.05,.22l.41-1.39c-.82,1.99-2.67,3.6-4.3,4.94-1.89,1.55-3.97,2.83-6.05,4.11-5.05,3.12-10.12,6.19-15.22,9.23-10.07,5.99-20.29,11.68-30.46,17.5-10.34,5.91-20.77,11.59-31.42,16.94s-20.48,10.26-31.01,14.71c-11.77,4.98-24.06,8.89-36.86,9.93l.65,2.77c1.58-11.68,10.25-20.69,17.59-29.26,8.22-9.59,15.28-19.99,20.9-31.31,3.19-6.43,5.88-13.05,8.06-19.89,.09-.29-.18-1.64-.33-1.24h0Z"/><path class="cls-2" d="M842.06,469.46c-.99-.09-1.71-.6-2.62-.91l.07,2.71c1.91,.37,3.96,.08,5.9,.29s3.9,.61,5.79,1.18c3.68,1.12,7.32,2.92,10.62,4.88,.41,.24,.41-1.58,.12-1.87-1.54-1.56-3.14-2.89-5.04-3.98-1.71-.97-3.55-1.69-5.43-2.25s-3.82-.96-5.77-1.16-4.37-.5-6.25,.21c-.76,.28-.4,2.93,.18,2.66,.87-.41,1.48-.96,2.45-1.16,.14-.03,.12-.58-.01-.59h0Z"/><path class="cls-2" d="M877.69,490.18l1.95-1.89s.04-.16,.04-.22c0-.02-.03-.17-.07-.12l-1.95,1.89s-.04,.16-.04,.22c0,.02,.03,.17,.07,.12h0Z"/><path class="cls-2" d="M879.43,486.33c-1.94,.16-3.82-.12-5.66-.73-2.23-.73-3.89-1.9-5.24-3.83l-.14,2.2c1.71,.5,3.64,.54,5.41,.76,1.88,.23,3.77,.46,5.65,.68,3.69,.43,7.37,.86,11.07,1.21,7.22,.69,14.44,1.3,21.67,1.84,14.46,1.07,28.94,1.85,43.42,2.32,29.15,.95,58.29,.87,87.42-.64,16.44-.85,32.86-2.09,49.24-3.71,.67-.07,.76-1.66,.78-2.08,.06-.96,.07-2.32-.48-3.16-2.94-4.46-8.29-7.18-13.53-5.4-.98,.33-.9,4.56,.11,4.53,4.74-.14,9.96,1.66,12.67,5.73l.31-5.23c-29,3.15-58.09,4.95-87.24,5.83-29.14,.87-58.28,.41-87.38-1.29-8.22-.48-16.42-1.06-24.63-1.73-4.1-.34-8.2-.66-12.29-1-1.97-.16-3.93-.33-5.89-.51-2.07-.18-4.31-.65-6.38-.51-.59,.04-.41,2.06-.04,2.32,3.39,2.34,6.95,3.98,11.16,3.34,.23-.04,.18-.96-.02-.94h0Z"/><path class="cls-2" d="M1037.74,481.15c-1.14-.05-2.24-.07-3.36-.32-.21-.05-.32,1.27,.03,1.35,1.13,.26,2.35,.11,3.5,.08l3.99-.1,7.48-.19c4.9-.13,9.81-.33,14.71-.52l29.66-1.2c5.66-.23,11.32-.39,16.94-1.19,.3-.04,.27-1.33-.03-1.35-5-.3-9.97-.09-14.97,.12l-14.71,.61c-9.89,.41-19.78,.72-29.66,1.28l-8.47,.48-3.99,.23c-1.46,.08-3.09-.03-4.48,.42l.03,1.35c1.1-.37,2.19-.51,3.33-.68,.08-.01,.07-.35,0-.35h0Z"/><path class="cls-2" d="M1085.74,480.12c4.83,1.13,9.85,1.05,14.79,1.23s9.9,.31,14.85,.36c9.85,.09,19.73-.39,29.51-1.47s19.24-2.81,28.56-5.56c4.56-1.35,9.07-2.92,13.46-4.73,3.99-1.65,8.65-3.29,11.55-6.64,.7-.8,1.35-1.34,1.72-2.36,.48-1.32,.6-2.73,.52-4.13-.14-2.71-1.22-4.87-3.37-6.53s-4.49-2.97-7.01-3.99c-1.18-.48-2.41-.99-3.65-1.31-1.35-.36-2.79-.47-4.17-.66-.55-.07-.56,2.7-.05,2.95,4.35,2.08,8.48,4.61,12.62,7.07,.88,.52,1.78,1.06,2.59,1.69,.35,.28,.7,.58,.99,.92,.18,.21,.31,.45,.47,.67,.6,.83-.78,.03,.1-.72-.16,.14-.28,.7-.36,.91-.24,.59-.43,1.11-.83,1.61-.64,.81-1.45,1.5-2.27,2.13-1.69,1.29-3.62,2.21-5.53,3.14-2.18,1.06-4.4,2.04-6.64,2.96-4.16,1.7-8.42,3.13-12.74,4.36-17.61,5-35.8,6.28-54.01,6.9-5.17,.17-10.34,.25-15.5,.27s-10.5-.38-15.63,.54c-.1,.02-.09,.39,.01,.41h0Z"/><path class="cls-2" d="M430.04,347.27c51.73-13.59,103.53-26.75,155.96-37.4,52.63-10.69,106.01-20.65,159.85-21.8s103.07,8.68,152.54,25.09c49.49,16.41,97.51,37.44,145.37,58.04,24.13,10.39,48.23,20.88,72.15,31.77,22.54,10.26,44.86,21.29,65.34,35.3,5.06,3.46,10,7.09,14.82,10.86,.35,.27,1.03-3.56,.18-4.26-18.79-15.24-40.13-27.03-61.84-37.54-23.05-11.15-46.62-21.27-70.1-31.49-48.3-21.02-96.77-42.22-146.34-60.08-48.78-17.57-99.18-30.46-151.25-31.63-53.92-1.21-107.48,7.89-160.2,18.2-52.81,10.33-105.26,22.6-157.03,37.26-6.53,1.85-13.01,3.86-19.5,5.86-.49,.15-.29,1.91,.04,1.82h0Z"/><path class="cls-2" d="M986.89,427.07c25.47-.33,51.02,.59,76.41,2.65s50.4,5.3,75.31,9.84c14.07,2.57,28.1,5.42,42.1,8.36,.1,.02,.16-.71-.02-.76-24.62-6.84-49.79-11.4-75.1-14.83-25.06-3.4-50.37-5.48-75.66-6.02-14.34-.31-28.71-.03-43.04,.59-.04,0-.03,.18,0,.18h0Z"/><path class="cls-2" d="M1190.3,449.34c-4.5-1.54-8.99-3.11-13.52-4.58-.03-.01-.08,.32,0,.35,4.49,1.55,9.01,2.99,13.52,4.47,.02,0,.05-.21,0-.24h0Z"/><path class="cls-2" d="M1086.78,441.49c.12,.03,.25,.03,.37,.06,.05-.01,.08-.04,.1-.09,.46-1.15-.08-2.51-1.08-3.16-.47-.3-1.03-.53-1.59-.56s-1.03,.2-1.48,.53c-2.21,1.61-2.6,5.03-1.99,7.5,.3,1.23,.9,2.44,1.98,3.17,.93,.63,2.09,.83,3.19,.64s2.16-.72,2.92-1.52c1.06-1.11,1.43-2.6,1.42-4.11s-.39-2.91-1.39-4.01c-.71-.79-1.73-1.32-2.76-1.54s-2.12-.08-3.01,.5c-1.2,.78-1.64,2.27-1.74,3.62-.19,2.66,.86,6.3,3.84,6.97,.99,.22,2.11-.12,2.8-.87,.91-1,1.17-2.41,1.27-3.71,.14-1.76-.12-3.58-.85-5.2-.46-1.02-1.2-1.84-2.28-2.19-1.43-.47-2.82,.3-3.6,1.5s-.86,2.79-.84,4.15,.25,3.04,1.22,4.12c.4,.45,1.12,.36,1.61,.13l-.21,.1c.37,0,.8-.28,1.09-.5,.36-.28,.65-.68,.85-1.09,.27-.54,.27-1.31,.19-1.9-.02-.17-.19-1.36-.54-1.22-.52,.21-.93,0-1.34-.28-.28-.18-.49-.43-.72-.68,.2,.22,.03,.04-.01-.03-.05-.08-.1-.17-.15-.24-.14-.21-.32-.39-.48-.59l.24,.32s-.18-.3-.18-.3c.01,0,.2,.52,.12,.25,.26,.79,.28,1.62,.24,2.44,.02,.29-.01,.58-.09,.86-.06,.23-.07,.29-.04,.17,.08-.24-.2,.42-.08,.2,.08-.15,.14-.29,.24-.43l-.23,.33c.38-.54,.91-.91,1.49-1.2l-.25,.12c.69-.31,1.43-.41,2.15-.14l-.24-.1c.28,.12,.52,.28,.75,.47,.1,.09,.19,.18,.28,.27,.15,.16-.01,.05-.04-.06,.02,.07,.11,.16,.15,.22,.07,.11,.12,.25,.19,.36-.07-.1-.15-.4-.07-.14,.03,.08,.05,.16,.08,.23,.04,.11-.12-.55-.06-.22,0,.05,.02,.1,.03,.14,.04,.16-.05-.42-.06-.39-.01,.04,.01,.18,.02,.22,.02,.05-.02-.63-.03-.43,0,.05,0,.11,0,.15-.01-.16,0-.38,.02-.53,.05-.41,0-.09,0,0,0,.17,.07-.29,.06-.27-.02,.05-.02,.1-.04,.15-.03,.08-.06,.17-.08,.25s.15-.32,.02-.07c-.03,.07-.06,.14-.1,.2s-.07,.13-.11,.19c-.13,.21,.11-.12-.05,.07-.49,.55-.96,.83-1.66,.9-.77,.08-1.43-.15-2.03-.59-.14-.11-.28-.22-.41-.35-.07-.06-.13-.13-.19-.19-.04-.04-.2-.23-.16-.17,.05,.06-.11-.16-.14-.19-.05-.08-.1-.15-.15-.23s-.09-.16-.13-.24c-.02-.04-.04-.08-.06-.12-.09-.15,.08,.23,.03,.07-.03-.09-.06-.17-.09-.26-.01-.04-.02-.1-.04-.13,0-.01,.09,.36,.05,.19-.02-.09-.03-.21-.07-.3-.01-.03,.07,.45,.04,.26-.01-.08-.03-.31,0,.04s0,.16,0,.08c0-.05,0,.49,0,.28,0-.34-.01,.2-.01,.09,0-.02,.04-.12,.02-.14,0,0-.07,.29-.03,.15,.04-.13-.03,.07-.03,.07,.03-.07,.06-.14,.09-.21,.15-.3,.31-.52,.62-.78,.26-.22,.55-.41,.88-.53,1.39-.5,3.01-.13,4.14,.78,.15,.12,.28,.24,.41,.38,.15,.15,.2,.22,.27,.32,.09,.14,.18,.28,.26,.44,.02,.04,.04,.08,.05,.11,0,0-.07-.18-.03-.06,.02,.05,.03,.11,.06,.16,.07,.15-.06-.26-.02-.09,.07,.29-.01-.15,0-.05,.02,.18,0-.25-.01-.22,0,.04,0,.09,0,.14,0,.19,0-.23,0-.2,0,.05,0,.22,0-.01s.01-.06,0-.01c-.06,.15,0,.01,.02-.06-.03,.1-.06,.21-.09,.31-.04,.12,.01-.03,.02-.04-.02,.04-.03,.08-.05,.13-.09,.18-.18,.35-.29,.52-.82,1.24-2.48,2.04-4.01,2.02-.8,0-1.55-.24-2.19-.73-.28-.22-.53-.47-.72-.75-.11-.16-.2-.33-.29-.51-.05-.1,0,0,0,.02-.02-.04-.03-.08-.05-.13-.04-.1-.07-.2-.1-.3-.07-.21,.03,.16-.02-.06-.01-.07-.05-.38-.04-.19s0-.1-.01-.15c-.02-.15,.02,.15,0,.15,.01,0,0-.17,0-.19,0-.27-.02,.28,0,0,.01-.14,.03-.25,0-.04,.02-.11,.03-.22,.05-.33,.02-.13-.01,.04-.01,.06,.01-.06,.03-.12,.05-.19,.17-.64,.51-1.33,1.05-1.89s1.25-1.05,2.05-1.09c.68-.03,1.42,.19,1.92,.66,.02,.02,.06,.07,.09,.09,.18,.08-.03,.04,.02,.02-.05,.02,.02-.65-.04-.5-.08,.24-.09,.47-.2,.71-.02,.05-.05,.25,.03,.27h0Z"/><path class="cls-2" d="M1082.76,431.77c.81-.28,.24-1.59-.09-2.05-.95-1.31-2.76-1.37-4.23-1.26-3.29,.26-6.36,2.5-8.05,5.26-3.77,6.14-1.22,15.12,4.64,18.95,3.72,2.43,8.18,2.84,12.43,1.75,.41-.1,.3-1.75-.04-1.7-7.31,.99-16.14-2.68-17.71-10.57-.72-3.62,1.05-7.14,3.93-9.31,1.39-1.05,2.98-1.72,4.69-2.04,.51-.1,4.87-.37,4.39,.58-.02,.04-.04,.41,.04,.38h0Z"/><path class="cls-2" d="M1084.42,432.16c.58-.07,1.14,.05,1.72,.06s1.18-.01,1.77,.03c1.28,.1,2.49,.53,3.62,1.13,2.2,1.18,4.1,3.22,4.79,5.65,.77,2.71-.56,5.61-2.15,7.76-1.74,2.36-4.26,4.29-6.93,5.49-.3,.13-.2,1.35,.03,1.29,4.96-1.32,8.88-5.33,9.78-10.44,.84-4.76-1.13-9.77-5.63-11.93-1.06-.51-2.25-.8-3.43-.81-.67,0-1.28,.06-1.89,.34-.7,.32-1.13,.8-1.69,1.31-.01,.01-.02,.12,0,.12h0Z"/><path class="cls-2" d="M1080.72,440.12c.34-.6,.67-1.21,1-1.81,.17-.31,.23-1.26-.1-1.5-.55-.4-1.15-.72-1.84-.69s-1.38,.26-1.99,.6c-1.19,.66-2.03,1.81-2.35,3.13-.77,3.19,.78,6.83,4,7.9,1.52,.5,3.16,.21,4.55-.54,1.28-.69,2.67-1.98,3.1-3.41,.5-1.64-.27-3.71-1.36-4.95-.88-1.01-2.2-1.72-3.55-1.79-3.33-.17-4.23,3.36-4.01,6.03,.18,2.08,1.55,5.43,4.26,4.55s3.16-5.05,2.42-7.4c-.38-1.2-1.27-2.18-2.6-2.22s-2.55,.94-3.19,2.06c-1.07,1.84-1,4.57-.06,6.44,.73,1.44,2.2,2.36,3.79,2.57,3.92,.52,6.23-3.48,6.75-6.81,.09-.61,.09-1.23-.01-1.84-.05-.32-.12-1-.45-1.19-1.4-.79-2.89,.25-3.6,1.5-.24,.43-.2,1.12-.12,1.58,.03,.17,.16,.96,.48,.72,.88-.66,2.14-.33,3,.19l-.46-3.03c-.08,.49-.35,1.26-.67,1.84-.39,.7-.88,1.33-1.5,1.84-1.16,.96-2.63,1.33-4.1,.98-.7-.16-1.34-.49-1.87-.97-.22-.2-.41-.41-.56-.67-.05-.08-.09-.24-.14-.28-.13-.11,.03-.07,0,0-.02,.04,0,1.01,.02,1.03,.03,.04-.12,.16,0,0,.04-.06,.05-.17,.07-.24,.03-.08,.11-.2,.16-.29,.17-.29,.39-.55,.64-.77,.52-.47,1.15-.78,1.85-.8,.57-.01,1.17,.18,1.56,.63,.02,.03,.09,.13,.13,.19,.12,.18,0-.08,.06,.13,0-.01-.06-.27-.03-.1,.04,.19-.03-.16-.03-.16-.01-.13-.01-.26-.02-.39-.01-.42-.01,.24,0-.1,.01-.28-.01,.03-.01,.03-.02-.04,.11-.31,0,0-.01,.04-.12,.33-.06,.19-.1,.24-.23,.48-.39,.69-.28,.38-.69,.73-1.13,.9-1.01,.38-2.17-.05-2.76-.92-.16-.23-.21-.35-.28-.54-.03-.06-.04-.13-.06-.19,0,.03,.07,.19,.01,.03-.06-.16,.02,.05,0,.09,.05-.17,.01-.1,0,.06,0-.04,0-.28,0-.04,0,.25,.02-.02,0-.04,0,.02-.04,.26,0,.08,.03-.16,0,0-.01,.02,.08-.28,.12-.42,.26-.67,.73-1.29,2.36-1.63,3.71-1.3,.77,.19,1.47,.6,2.05,1.13,.27,.25,.5,.53,.7,.84,.08,.13,.16,.26,.22,.4,.01,.03,.12,.4,.1,.26l.18-1.75c-1.65,3.5-6.43,5.24-9.34,2.15-.44-.46-1.04-1.25-1.04-1.93s.56-1.36,.99-1.8c1.15-1.18,2.93-1.67,4.54-1.38l-.22-1.4c-.25,.94-.49,1.88-.73,2.82-.01,.05,.01,.38,.07,.28h0Z"/><path class="cls-2" d="M1078.98,440.87c-.27-.21-.47-.47-.54-.81v.75c.04-.19,.04-.37,.07-.56-.03,.19,0,.07,.04-.06,.1-.29,.23-.55,.45-.77,.44-.46,1.09-.75,1.69-.95,1.3-.43,2.8-.32,4.06,.22,.65,.28,1.26,.67,1.77,1.16,.42,.4,.85,1,1.02,1.42,.03,.09,.06,.18,.09,.26,.02,.05,.09,.28,.03,.09,.02,.05,.05,.28,.01,.01,.01,.09,.02,.17,.03,.26-.04-.5-.04,.19-.01-.12s-.05,.33,0-.09c-.01,.08-.02,.17-.04,.25,.04-.22-.04,.16-.05,.17-.19,.67-.62,1.35-1.11,1.91-.6,.69-1.32,1.2-2.13,1.61-.43,.21-.84,.42-1.28,.61-.46,.2-.94,.32-1.4,.51-.36,.15-.3,1.29-.03,1.5,.8,.61,2.03,.84,2.98,.48s1.8-1.02,2.43-1.79c1.65-2.04,2.03-4.98,1.27-7.46-.55-1.79-1.91-3.1-3.64-3.75-1.58-.59-3.6-.61-5.04,.39-.92,.64-1.52,1.6-1.71,2.71-.14,.85-.23,2.55,1.03,2.47,.1,0,.06-.36,0-.4h0Z"/><path class="cls-2" d="M1082.04,439.36c1.82-.57,4.05,.2,5.21,1.69,.26,.33,.48,.72,.6,1.13,0,.03,.03,.1,.05,.22-.03-.19,0,.16-.01-.07-.02-.21,0-.05,0,.01,0-.02,.02-.15,0-.02-.02,.17-.01,.12-.06,.29-.28,.95-.98,1.78-1.75,2.38-.96,.76-2.04,1.26-3.29,1.16-.29-.02-.26,1.25,.03,1.35,1.12,.4,2.41,.32,3.46-.27s1.85-1.74,2.16-2.94c.68-2.65-.21-5.69-2.84-6.85-.56-.25-1.2-.45-1.82-.42-.65,.03-1.28,.24-1.85,.55-.34,.19-.17,1.88,.12,1.79h0Z"/><path class="cls-2" d="M1099.22,434.13c.35,.48,.62,.92,1.11,1.27,.44,.32,.85,.68,1.26,1.04,.83,.74,1.56,1.55,2.14,2.51,1.12,1.82,1.77,4.01,1.3,6.14-.9,4.14-4.78,7.45-8.85,8.25-.31,.06-.25,1.37,.03,1.35,5.07-.29,8.97-4.46,9.52-9.42,.27-2.45-.14-4.98-1.26-7.18-.55-1.09-1.28-2.09-2.15-2.95-.47-.46-.97-.84-1.54-1.16-.64-.36-.85-.41-1.55-.12-.07,.03-.05,.23-.02,.27h0Z"/><path class="cls-2" d="M1075.04,424.87c-11.9,.44-16.2,17.76-7.2,24.81,.15,.12,.21-.8,.06-.97-3.54-3.89-5.5-9.37-3.41-14.46,1.82-4.43,6.07-7.75,10.56-9.2,.04-.01,.04-.18,0-.18h0Z"/><path class="cls-2" d="M605.16,342.27l24.94-1.92s.03-.18,0-.18l-24.94,1.92s-.03,.18,0,.18h0Z"/><path class="cls-2" d="M771.1,338.62c28.63,2.44,57.16,6.04,85.5,10.79,28.17,4.71,56.16,10.57,83.89,17.41,15.54,3.83,31.03,7.94,46.42,12.37,.11,.03,.24-.98-.03-1.06-27.48-8.44-55.34-15.66-83.49-21.49-27.94-5.78-56.12-10.45-84.45-13.91-15.91-1.95-31.87-3.53-47.86-4.75-.12,0-.14,.63,.02,.65h0Z"/><path class="cls-2" d="M961,391.71c-24.07-.2-48.1,.87-72,3.75-6.72,.81-13.4,1.88-20.07,3.01-.2,.03-.14,.9,.02,.88,23.8-3.25,47.8-5.66,71.8-6.79,6.75-.32,13.5-.49,20.25-.56,.06,0,.05-.29,0-.29h0Z"/><path class="cls-2" d="M848.81,404.8c19.21-1.62,38.39-.92,57.56,.81,.11,.01,.14-.63-.02-.65-19.02-2.68-38.49-2.33-57.54-.22-.01,0-.01,.06,0,.06h0Z"/><path class="cls-2" d="M863.58,417.96c.11,.96-.04,1.87,.16,2.83,.21,1.02,.42,2.05,.63,3.07,.38,1.85,.75,3.71,1.12,5.57,.7,3.48,1.41,6.97,2.12,10.45s1.42,6.94,2.09,10.42c.35,1.78,.68,3.56,1.01,5.34s.34,3.7,.66,5.54l1.73-1.72c-.47-1.41-1.25-2.57-1.94-3.87-.49-.92-.83,.62-.74,1.02,.35,1.69,.51,3.44,1.07,5.09,.19,.55,.57,1.38,1.23,.86s.62-1.91,.5-2.58c-.32-1.83-.97-3.57-1.32-5.39s-.69-3.55-1.04-5.33c-.72-3.58-1.46-7.15-2.22-10.72s-1.52-7.07-2.28-10.6c-.38-1.77-.77-3.53-1.15-5.3-.21-.96-.39-1.93-.62-2.89-.17-.72-.62-1.25-.84-1.94-.08-.24-.17,.05-.16,.16h0Z"/><path class="cls-2" d="M885.17,410.58c-3.28-.91-3.7,5.15-3.88,7.16-.41,4.78-.62,9.59-.58,14.39,.09,9.54,.81,19.37,2.87,28.7,.32,1.46,1.36,.62,1.42-.46,.07-1.28,.59-2.37,1.37-3.37,.19-.24,.21-1.73-.31-1.44-1.39,.77-2.13,1.96-2.53,3.47l1.44,.39c-.67-4.3-1.44-8.55-1.9-12.88s-.71-8.33-.81-12.52-.07-8.4,.14-12.59c.09-1.85,.1-3.76,.44-5.58,.31-1.69,1.09-2.92,2.42-4.01,.27-.22,.29-1.16-.1-1.27h0Z"/><path class="cls-2" d="M896.71,410.09c.36-.64-.07-1.49-.55-1.95-1.16-1.12-2.04,.68-2.33,1.65-1.19,4.03-1.76,8.39-2.23,12.55-1.01,8.83-1.23,17.74-.64,26.61,.33,4.99,.64,10.21,1.78,15.08,.11,.49,.48,1.23,1.07,1.1s.81-1.24,.83-1.71c.06-1.26,.25-2.49,.63-3.7,.07-.24-.07-1.99-.57-1.54-1.1,.97-1.66,2.06-2.01,3.47l1.93,.52c-.45-4.44-1.26-8.81-1.57-13.27s-.42-9.16-.34-13.75,.36-8.93,.85-13.38c.25-2.27,.48-4.53,.78-6.79,.15-1.13,.31-2.26,.48-3.39,.08-.54,.15-1.05,.61-1.42,.12-.1,1.22-.67,1.2-.25,0,.03,.04,.26,.09,.16h0Z"/><path class="cls-2" d="M907.05,408.04c-1.05,1.38-1.05,3.78-1.3,5.43-.35,2.28-.61,4.58-.86,6.87-.48,4.41-.91,8.81-1.14,13.24-.26,4.83-.37,9.66-.22,14.5,.07,2.29,.25,4.56,.44,6.84,.26,3.17,.4,6.43,1.15,9.53,.37,1.55,1.85,4.12,3.6,2.51s1.82-5.38,1.46-7.53c-.2-1.2-.45-2.36-.97-3.47l.58,2.76c.05-1.58,.24-3.16,.36-4.74,.05-.68,.04-1.8-.49-2.35-.45-.46-.91-.19-1.14,.35-.53,1.23-.99,2.52-1.62,3.69l1.15-1.12c-.51,.13-1,.26-1.46,.5l3.74,6.03c-.06-2.68-.58-5.36-.87-8.02-.25-2.26-.45-4.52-.67-6.78-.05-.48-.09-.96-.14-1.44-.02-.16-.18-1.97-.1-1.14,.04,.46,.03,.4-.02-.19-.05-.68-.11-1.35-.17-2.03-.04-.47-.09-.95-.14-1.42-.06-.63-.12-1.26-.18-1.89-.11-1.15,.05,.76-.05-.54-.09-1.14-.17-2.28-.24-3.43-.28-4.39-.48-8.81-.46-13.21,.01-2.28,.08-4.56,.14-6.84,.05-1.99,.31-4.07-.15-6.03-.02-.1-.12-.27-.23-.13h0Z"/><path class="cls-2" d="M925.44,413.01c1.21-.44-.7-4.56-2.03-1.75-.75,1.58-.75,3.72-.98,5.43-.26,1.97-.44,3.94-.58,5.92-.62,8.42-.29,16.92,.49,25.31,.22,2.34,.49,4.67,.8,7s.52,4.94,1.24,7.26l2.32-4.31c-.15-.36-.31-.73-.47-1.09-.12-.28-.57-.99-1.01-.9l-.11,.02,.61,.35c-.35-.33-.59-.76-.87-1.15-.58-.84-.94,.94-.93,1.24,.02,.45,.02,.91,.06,1.36,.09,1.23,.16-1.02,.01,.15s.02,2.32,.2,3.5c.13,.8,.57,2.8,1.76,2.47s1.32-2.61,1.26-3.48c-.32-4.34-1.32-8.64-1.8-12.97-.44-3.94-.72-7.9-.85-11.86s-.15-8.24-.1-12.37c.02-2.1,.08-4.19,.14-6.29,.03-.94,.04-1.88,.11-2.81,.03-.37,.05-.8,.36-1.06,.13-.03,.26-.07,.39-.12,.2-.09,.17-.16-.1-.22-.05,.07-.06,.43,.08,.37h0Z"/><path class="cls-2" d="M923.31,414.79c.02,2.23,2.89,4.11,4.69,2.3,.99-.99,.94-2.96,.42-4.16s-1.68-1.87-2.94-1.89c-1.38-.02-2.34,.93-2.56,2.26-.42,2.48-.29,5.19-.34,7.7-.1,5.18,.02,10.37,.36,15.54,.39,5.95,1.05,11.89,1.98,17.78l.06-1.9c-.15,.71-.27,1.41-.37,2.13l.39-1.74c-.81,2.6-.38,5.28-.06,7.94l3-5.72c-.58-.82,.07,.31-.35-.57-.05-.1-.5-1.02-.26-.49s-.23-.5-.14-.53c-.01,0,.17,1.08,.02-.02-.04-.31-.07-.62-.12-.93-.18-1.27,.04,1.22-.02-.09-.03-.63-.05-1.26-.06-1.89-.07-3.46-.2-6.91-.32-10.37s-.13-6.75-.19-10.12c-.03-1.73-.09-3.46-.17-5.18s-.4-3.45-.58-5.18c-.09-.87-.65-.76-.77,.02-.27,1.85-.65,3.64-.8,5.5-.15,1.76-.24,3.53-.34,5.29-.2,3.78-.39,7.56-.67,11.34s-.63,7.52-.59,11.27c.04,3.94,.84,8.42,3.94,11.12,1.06,.92,2.02-1.26,2.2-1.85,.53-1.74,.53-3.81,.03-5.56-.25-.86-.5-1.72-.75-2.57-.2-.68-.36-1.41-.82-1.98l-.45-.43c.29,.29,.18,.18-.33-.32l.52,1.46c-1.65-9.45-2.56-19.01-2.73-28.6-.04-2.35-.04-4.7,0-7.04,.01-.65,.03-1.29,.04-1.94,.12-.52,.1-.66-.08-.4,.06-.12,.15-.23,.27-.3,.45-.31,.94-.41,1.49-.37,.61,.04,.95,.39,1.47,.57,.08,.08,.15,.16,.21,.26,.09-.89,.05-1.12-.1-.67-.19,.07-.46,.49-.68,.62-.8,.46-2.86,.65-3.18-.5-.12-.43-.32-.02-.31,.22h0Z"/><path class="cls-2" d="M898,407.55c-.76,.55-.95,.99-1.32,1.91-.41,1.02-.81,2.04-1.17,3.08-.72,2.11-1.31,4.29-1.77,6.47-.99,4.64-1.59,9.36-1.9,14.09-.65,10.04,.39,20.09,2.66,29.88l3.17-4.44c-.31-1.16-.78-2.13-1.29-3.19-.4-.82-.98-1.47-1.34-2.26-.23-.51-.67-.74-1.07-.28-.48,.54-.43,1.58-.35,2.23,.15,1.25,.11,2.53,.22,3.8,.13,1.42,.3,2.75,.65,4.14,.3,1.16,1.49,3,2.63,1.49s.98-4.18,.54-5.92c-2.16-8.54-2.78-16.25-2.59-24.94,.08-3.67,.52-8.11,1.15-12.04,.36-2.22,.74-4.44,1.13-6.66,.2-1.13,.42-2.26,.66-3.39s.3-2.18,.33-3.35c0-.09-.09-.8-.35-.62h0Z"/><path class="cls-2" d="M885.23,412.46c-2.59-1.59-3,5.89-3.12,6.96-.48,4.52-.71,9.09-.79,13.64-.17,9.19,.25,18.39,1.25,27.53,.06,.56,.36,1.7,1.11,1.56s.79-1.69,.79-2.19c-.02-2.96-1.07-6.04-3.59-7.78-.59-.41-.43,1.49-.28,1.73,1.21,1.89,1.9,3.86,1.92,6.1l1.9-.64c-.91-8.02-1.41-16.07-1.44-24.14-.01-4.02,.05-8.05,.22-12.06,.09-1.99,.15-3.98,.28-5.97,.05-.73,.13-1.45,.38-2.14,.3-.85,.9-1.47,1.39-2.21,.06-.08,.07-.31-.03-.38h0Z"/><path class="cls-2" d="M862.88,420.89c0,1.1-.05,2.11,.22,3.18,.2,.79,.46,1.56,.68,2.34,.44,1.57,.84,3.14,1.21,4.72,.74,3.1,1.42,6.19,1.92,9.34s.95,6.2,1.22,9.33c.11,1.33,.2,2.8,.27,4.19,.1,2-.01,3.96,.73,5.86,.51,1.31,1.54,1.03,2.07-.05,.4-.81,.88-1.33,1.02-2.28,.1-.7,.07-1.46-.25-2.1-.21-.41-.64-.51-.81,.02,.11-.34,.16-.07-.28-.26l.49,.62-.29-.72,.12,4.72c.69-1.98,.47-4.06,.36-6.12-.1-1.8-.26-3.59-.45-5.39-.36-3.43-.88-6.86-1.61-10.23-.68-3.11-1.47-6.23-2.47-9.25-.52-1.57-1.1-3.13-1.71-4.67-.27-.68-.53-1.37-.83-2.04-.4-.89-.58-1.15-1.53-1.39-.06-.02-.07,.16-.07,.18h0Z"/><path class="cls-2" d="M410.56,389.67c26.25,1.8,52.39,5.54,78.04,11.38,25.59,5.82,50.71,13.69,75.04,23.52,13.61,5.5,26.88,11.77,40.31,17.67,.14,.06,.32-1.33,.02-1.5-11.4-6.67-23.36-12.14-35.56-17.17-12.18-5.03-24.57-9.56-37.12-13.59-24.96-8.01-50.56-14.01-76.48-17.93-14.69-2.22-29.46-3.72-44.3-4.5-.41-.02-.45,2.08,.05,2.12h0Z"/><path class="cls-2" d="M580.86,433.34c11.23,4.07,22.74,7.3,34.26,10.4,11.33,3.05,22.71,5.87,34.15,8.46,23.01,5.22,46.26,9.38,69.62,12.65,6.52,.91,13.04,1.75,19.58,2.51,3.35,.39,6.7,.76,10.05,1.12,1.6,.17,3.19,.33,4.79,.49,.8,.08,1.6,.16,2.4,.24,1.08,.11,1.82-.12,2.86-.43,.38-.11,.36-1.75,.02-1.91-.63-.3-1.32-.74-2.01-.92-.59-.15-1.3-.13-1.92-.19-1.6-.16-3.19-.32-4.79-.48-2.87-.3-5.74-.61-8.61-.94-5.9-.67-11.79-1.4-17.68-2.19-11.69-1.57-23.35-3.37-34.97-5.41-23.29-4.08-46.46-9-69.37-14.84-12.85-3.27-25.57-7.02-38.42-10.27-.24-.06-.37,1.55,.04,1.7h0Z"/><path class="cls-2" d="M502.03,403.73c-.94,1.15-.78,2.92-.03,4.13,1.25,1.98,3.4,3.04,5.22,4.39,3.78,2.79,6.26,6.89,7.87,11.24,1.69,4.57,2.57,9.38,3.28,14.18,.82,5.59,1.59,11.22,1.69,16.89,.06,3.19-.12,6.39-.65,9.54-.57,3.41-1.66,6.6-2.87,9.83-.09,.24,.06,1.73,.37,1.24,2.87-4.44,3.78-10.32,4.07-15.5,.32-5.77-.18-11.55-.93-17.27-1.2-9.24-2.26-19.68-7.83-27.49-1.41-1.98-3.13-3.73-5.15-5.09-1.52-1.02-6.23-3.27-4.97-5.61,.05-.09-.02-.55-.08-.48h0Z"/><path class="cls-2" d="M516.61,467.78c-2.84,1.68-2.57,6.55-.28,8.57,.08,.05,.15,.05,.22,0,11.13-7.37,22.97-13.63,35.46-18.38s25.63-8.01,38.93-9.86c3.72-.52,7.45-.91,11.2-1.18s7.92,0,11.67-.91c.53-.13,.47-2.11-.05-2.23-3.5-.82-7.27-.36-10.83-.14s-7.2,.57-10.78,1.02c-7.17,.91-14.26,2.33-21.25,4.17-13.75,3.62-27.06,8.92-39.52,15.76-3.55,1.95-7.06,4-10.43,6.24-.85,.56-1.69,1.13-2.53,1.71-.36,.25-.72,.5-1.08,.75-.55,.38-.81,.78-1.36,.26-1.28-1.22-.25-3.18,.83-4.08,.33-.27,.21-1.95-.21-1.7h0Z"/><path class="cls-2" d="M593.63,442.28c.4,.43,.87,.78,1.39,1.05,.49,.25,.99,.31,1.54,.29,1.09-.04,2.17-.45,2.96-1.21,.13-.12,.07-.84-.08-.74-.85,.58-1.87,.85-2.9,.78-.5-.04-1-.16-1.49-.26s-.95-.29-1.37-.58c-.14-.09-.15,.57-.04,.68h0Z"/><path class="cls-2" d="M440.23,396.71c-.98-2.23-2.47-4.16-4.44-5.59l-.04,2.01c3.69,.5,7.03,1.26,10.28,3.17s5.88,4.31,8.17,7.11c5.25,6.44,7.87,14.34,9.78,22.31,.58,2.43,1.11,4.88,1.64,7.32,.49,2.25,.84,4.67,1.79,6.79,.37,.83,.56-.64,.53-.9-.25-2.25-.83-4.46-1.32-6.67s-1-4.6-1.53-6.89c-1.03-4.43-2.21-8.84-3.9-13.06-2.82-7.09-7.31-13.67-13.89-17.77-3.34-2.08-7.6-3.77-11.6-3.45-.49,.04-.42,1.83-.04,2.01,1.89,.89,3.41,2.15,4.5,3.94,.07,.12,.1-.26,.08-.33h0Z"/><path class="cls-2" d="M471.63,435.41c2.46-3.01,4.65-6.22,7.15-9.19s5.27-5.88,8.18-8.54,6.02-5.15,9.24-7.46,7.05-4.39,10.24-7.01c.18-.15,.19-1.28-.09-1.21-3.7,.93-7.05,3.36-10.12,5.52-3.38,2.38-6.55,5.03-9.55,7.88-5.87,5.59-11.59,12.05-15.16,19.38-.05,.11,.01,.76,.11,.64h0Z"/><path class="cls-2" d="M306.36,262.22c.52,1.01,.98,1.83,1.72,2.69,.79,.93,1.62,1.82,2.43,2.73,1.51,1.71,3.02,3.44,4.51,5.17,2.98,3.46,5.93,6.96,8.82,10.5,5.73,6.99,11.35,14.08,16.77,21.32,10.84,14.47,20.98,29.46,30.36,44.9,2.67,4.4,5.45,8.79,7.76,13.39,2.49,4.94,3.96,9.92,2.78,15.44-.04,.21,.12,1.22,.37,.67,1.67-3.72,1-8.25-.22-12-1.4-4.3-3.7-8.22-5.98-12.1-4.8-8.19-9.82-16.26-15.03-24.19-10.39-15.8-21.57-31.1-33.52-45.76-3.3-4.05-6.69-8.03-10.12-11.97-1.74-2-3.49-3.99-5.26-5.96-.91-1.02-1.82-2.03-2.74-3.04-.4-.44-.81-.87-1.23-1.29s-.78-.54-1.37-.78c-.11-.05-.09,.25-.06,.3h0Z"/><path class="cls-2" d="M383.25,371.27c.44,2.13,1.37,4.09,2.01,6.17s1.12,4,1.53,6.03c.84,4.17,1.3,8.42,1.54,12.67,.48,8.46,.19,16.94,.48,25.41,.16,4.76,.51,9.52,1.26,14.23,.08,.51,.52,1.38,.9,.53,3.78-8.25,7.84-16.37,12.14-24.37,2.1-3.91,4.25-7.78,6.47-11.62s4.86-7.86,7.07-11.91c.25-.46,.29-1.12,.13-1.61-.09-.28-.34-.84-.66-.41-2.65,3.67-4.86,7.75-7.14,11.66s-4.55,7.95-6.72,11.99c-4.31,8.03-8.32,16.21-12.09,24.51l.9,.53c-2.76-17.16,.09-34.78-3.42-51.85-.48-2.35-1.09-4.67-1.85-6.94-.58-1.74-1.08-4.08-2.47-5.33-.1-.09-.09,.28-.09,.3h0Z"/><path class="cls-2" d="M299.92,254.35c3.47,3.33,7.61,5.95,11.39,8.93s7.55,6.16,11.26,9.32c7.46,6.35,14.7,12.95,22.04,19.44,13.85,12.24,28.21,24.16,44.57,32.93,8.85,4.74,18.36,8.63,28.33,10.21,.33,.05,.34-1.19-.03-1.29-8.85-2.51-17.45-5.73-25.66-9.91s-15.54-8.94-22.75-14.25c-15.31-11.25-29.01-24.46-43.36-36.88-4.06-3.51-8.19-6.92-12.43-10.22-2.14-1.66-4.31-3.3-6.51-4.88s-4.25-3.15-6.75-4.15c-.27-.11-.24,.64-.12,.76h0Z"/><path class="cls-2" d="M414.2,335.82c4.68,3.04,10.31,4.98,15.71,6.31s11.26,2.23,17,1.84c.27-.02,.25-.97-.02-1-5.55-.51-11.13-1.05-16.57-2.33-2.75-.65-5.48-1.4-8.15-2.31s-5.25-2.04-7.92-2.96c-.14-.05-.13,.39-.04,.45h0Z"/><path class="cls-2" d="M396.04,359.46c8.55-2.56,16.87-5.9,25.29-8.84,8.52-2.98,17.16-5.63,25.65-8.71,.23-.08,.15-.92-.02-.88-8.79,2.18-17.36,5.19-25.89,8.22s-17,6.06-25.03,10.1c-.02,.01-.02,.12,0,.12h0Z"/><path class="cls-2" d="M396.05,365.1c-1.38,6.06,2.3,13.63,8.65,15,.21,.05,.24-.9,.02-.98-5.52-2.11-9.69-7.73-8.52-13.78,.03-.13-.09-.53-.15-.23h0Z"/><path class="cls-2" d="M357.27,314.84c6.27,5.45,13.08,10.38,19.75,15.33s13.2,9.73,19.86,14.52c.18,.13,.28-.75,.07-.91-6.59-5.05-13.2-10.06-19.82-15.05-3.28-2.47-6.6-4.9-9.91-7.33s-6.49-4.88-9.92-7.07c-.13-.08-.14,.42-.04,.51h0Z"/><path class="cls-2" d="M466.52,337.92c.18,.07,.34,.17,.49,.29,.07,.04,.13,.04,.2,0,3.37-2.91,4.76-7.16,5.39-11.45,.69-4.73,.67-9.6,.66-14.37-.02-9.83-1.05-20.5-6.89-28.76-.83-1.17-1.84-2.24-2.53-3.5-.45-.83-.58-1.39-.02-2.19,.35-.51,.84-.91,1.36-1.23,2.7-1.66,6.27-.49,9.05,.34,.37,.11,.4-1.54,.05-1.73-2.45-1.35-5.18-2.81-8.04-1.89-2.02,.64-3.52,2.22-3.84,4.33-.4,2.57,.78,4.69,2.3,6.66,1.73,2.23,3.2,4.58,4.3,7.2,2.03,4.86,2.79,10.1,3.1,15.32s.32,10.46-.01,15.64c-.17,2.73-.52,5.49-1.45,8.07-.45,1.27-1.03,2.48-1.78,3.6-.4,.59-.85,1.15-1.35,1.67-.58,.6-.69,.91-.99,1.73-.02,.06-.04,.26,.04,.29h0Z"/><path class="cls-2" d="M469.99,276.77c5.08-.11,10,.56,14.76,2.39s9.04,4.42,13.16,7.27c4.35,3,8.49,6.27,12.65,9.53,4.68,3.66,9.37,7.32,14.01,11.03,5.31,4.25,10.54,8.64,15.96,12.74l.26-3.38c-.47-.28-1.3-.71-1.4-1.31-.15-.85-.67-.92-.72,.02-.09,1.7,.33,3.7,1.86,4.67,.76,.48,.96-2.81,.26-3.38-4.64-3.71-9.49-7.19-14.23-10.76s-9.5-7.22-14.22-10.87c-8.24-6.36-16.46-13.24-26.28-17.05-5.08-1.97-10.69-3.17-16.1-2.07-.32,.06-.29,1.18,.03,1.18h0Z"/><path class="cls-2" d="M655.46,293.9c6.85-2.3,12.78-7.06,17.54-12.4,5-5.61,8.79-12.2,11.64-19.13,7.02-17.06,7.97-35.77,10.42-53.83,.48-3.55,1.05-7.53,3.48-10.34,2.68-3.11,6.81-3.4,10.5-2.17,4.1,1.36,7.59,4.11,11.01,6.66s7.01,5.31,10.46,8.05c13.78,10.94,26.96,22.69,39.24,35.29,12.48,12.81,24.23,26.35,35.05,40.59,1.38,1.81,2.67,3.71,3.91,5.62,.58,.89,1.08-.4,1.15-.9,.28-2.1,.45-4.21,.62-6.32,.03-.34-.39-2.39-.75-1.21-.52,1.69-1.02,3.38-1.41,5.1l1.15-.9c-5.69-6.55-10.88-13.54-16.52-20.15s-11.65-13.22-17.78-19.55c-12.36-12.75-25.41-24.85-39.16-36.07-3.46-2.82-6.96-5.59-10.51-8.31s-6.83-5.35-10.46-7.68c-3.25-2.08-7.22-4.1-11.21-3.65-3.59,.41-6.19,2.92-7.61,6.1-1.57,3.5-1.95,7.4-2.43,11.16-.6,4.69-1.13,9.39-1.7,14.09-1.18,9.61-2.58,19.26-5.37,28.56-4.38,14.6-12.89,29.09-26.41,36.89-1.63,.94-3.31,1.81-5,2.62-.45,.22-.26,2.04,.15,1.9h0Z"/><path class="cls-2" d="M418.02,372.83c21.79-9.81,44.55-17.05,67.76-22.67s48.06-10.4,72.3-14.25c24.4-3.88,48.93-6.75,73.57-8.58s49.56-2.73,74.37-2.65,49.39,.99,74,2.81c3.1,.23,6.21,.45,9.32,.68,.19,.01,.21-.98-.02-1-24.69-2.47-49.52-3.71-74.34-3.93-24.81-.21-49.63,.53-74.39,2.24-24.86,1.71-49.69,4.36-74.36,7.85-24.42,3.46-48.7,7.85-72.75,13.33-11.68,2.66-23.34,5.56-34.75,9.18s-22.21,7.38-32.66,12.47c-2.72,1.32-5.41,2.7-8.09,4.12-.09,.05-.05,.44,.05,.4h0Z"/><path class="cls-2" d="M552.39,351.94c19.52-3.79,39.22-6.87,58.95-9.33,5.61-.7,11.23-1.34,16.85-1.91,.17-.02,.13-.72-.02-.71-19.83,1.89-39.56,4.53-59.14,8.15-5.56,1.03-11.12,2.12-16.66,3.27-.14,.03-.09,.55,.01,.53h0Z"/><path class="cls-2" d="M922.64,357.8c23.1,4.83,46.09,10.19,68.95,16.09,6.45,1.66,12.88,3.35,19.32,5.07,.08,.02,.16-.66-.02-.71-22.75-6.21-45.69-11.74-68.72-16.78-6.5-1.42-13.01-2.8-19.53-4.14-.07-.01-.11,.45,.01,.47h0Z"/><path class="cls-2" d="M767.28,323.97c26.8,3.24,53.53,7.3,80.1,12.07,26.53,4.76,52.96,10.31,79.17,16.62,14.73,3.54,29.41,7.24,44.02,11.24,.1,.03,.21-.87-.02-.94-25.93-7.61-52.11-14.29-78.51-20.04-13.24-2.89-26.58-5.4-39.92-7.75-13.19-2.33-26.41-4.53-39.68-6.32-15.02-2.02-30.08-3.77-45.16-5.23-.06,0-.08,.34,0,.35h0Z"/><path class="cls-2" d="M1090.5,407.58c.05,0,.05-.35,0-.35-.05,0-.05,.35,0,.35h0Z"/><path class="cls-2" d="M1121.32,425.9c-14.39-4.6-29.04-8.26-43.74-11.72s-29.02-6.55-43.62-9.44c-29.15-5.77-58.56-10.49-88.07-13.9-16.68-1.93-33.4-3.52-50.14-4.78-.16-.01-.19,.98,.02,1,29.79,2.7,59.5,6.46,89.06,11.06s58.6,10.13,87.6,16.67c16.33,3.68,32.55,7.84,48.9,11.45,.04,0,.07-.33,0-.35h0Z"/><path class="cls-2" d="M540.62,382.2c20.55-3.83,41.18-7.43,61.87-10.45,20.72-3.02,41.53-5.45,62.39-7.27,20.87-1.82,41.78-3.04,62.72-3.66s42.1-.62,63.14-.1c20.92,.53,41.85,1.59,62.73,3.13,2.58,.19,5.16,.39,7.75,.6,.22,.02,.26-1.2-.03-1.23-20.86-2.13-41.76-3.61-62.72-4.33-20.94-.72-41.89-.79-62.83-.22s-41.86,1.73-62.74,3.49c-20.98,1.78-41.91,4.16-62.75,7.15s-41.45,6.45-61.92,11c-2.54,.56-5.08,1.14-7.62,1.72-.04,.01-.03,.18,0,.18h0Z"/><path class="cls-2" d="M790.11,325.58c-12.27,17.21-18.15,38.8-16.59,59.86,.44,5.91,1.46,11.73,3.1,17.42,.16,.55,.37-.19,.3-.45-5.26-20.22-3.63-41.96,4.76-61.12,2.34-5.35,5.21-10.46,8.54-15.26,.08-.11,0-.61-.11-.45h0Z"/><path class="cls-2" d="M807.68,302.14c-11.32,4.53-17.36,15.93-22.14,26.44-5.99,13.19-10.64,26.95-14.25,40.97-2.06,8-3.75,16.08-5.15,24.22-.04,.25,.2,.93,.3,.41,2.55-14.14,5.95-28.14,10.5-41.78,2.26-6.77,4.8-13.45,7.62-20.01,2.48-5.77,5.12-11.52,8.62-16.75,3.69-5.51,8.41-10.45,14.52-13.22,.07-.03,.05-.32-.04-.28h0Z"/><path class="cls-2" d="M791.24,376.74s.02-.06,0-.06-.02,.06,0,.06h0Z"/><path class="cls-2" d="M801.68,330.5c-6.11,17.47-10.28,35.61-12.22,54.02-.56,5.35-.95,10.71-1.16,16.09-.01,.3,.27,.66,.29,.18,.84-18.42,3.7-36.78,8.52-54.57,1.4-5.18,2.98-10.31,4.72-15.39,.04-.11-.06-.56-.14-.33h0Z"/><path class="cls-2" d="M824.68,300.48c-9.39,1.13-13.84,12-17.14,19.54-4.61,10.53-8.11,21.51-10.49,32.76-1.33,6.29-2.32,12.65-2.92,19.05-.04,.38,.29,.83,.35,.23,1.25-11.05,3.46-21.97,6.78-32.59,1.62-5.2,3.43-10.33,5.51-15.36,1.91-4.64,3.91-9.33,6.54-13.61s6.35-8.23,11.38-9.66c.1-.03,.09-.36,0-.35h0Z"/><path class="cls-2" d="M807.51,365.11c-1.87,11.23-1.62,22.71,.75,33.84,.08,.37,.25-.12,.21-.3-2.36-10.96-2.63-22.28-.81-33.34,.02-.13-.11-.46-.15-.2h0Z"/><path class="cls-2" d="M834.58,313.01c-2.16-1.54-4.79-.39-6.6,1.15-1.95,1.65-3.68,3.62-5.23,5.64-3.32,4.33-5.77,9.29-7.7,14.37-4.35,11.43-6.69,23.79-8.03,35.91-.81,7.3-1.17,14.64-1.06,21.98,0,.63,.45,.62,.45-.01,.08-12.53,1.35-25.03,3.89-37.31,2.2-10.68,5.12-21.5,11.02-30.8,1.58-2.49,3.37-4.84,5.41-6.96,1.84-1.91,4.92-4.97,7.8-3.52,.14,.07,.15-.38,.04-.45h0Z"/><path class="cls-2" d="M624.23,309.19c-3.21-4.05-7.42,3.3-8.71,5.56-2.62,4.6-4.89,9.41-6.77,14.37-3.8,9.97-6.06,20.5-6.67,31.16-.34,5.9-.17,11.8,.54,17.67,.11,.88,.57,.2,.51-.36-1.85-19.94,1.93-40.33,11.19-58.12,1.24-2.39,2.5-4.87,4-7.1,1.09-1.62,3.76-4.32,5.86-2.86,.09,.07,.09-.27,.05-.32h0Z"/><path class="cls-2" d="M630.64,311.11c-11.6,18.4-16.9,40.51-15.63,62.19,.36,6.07,1.25,12.09,2.67,18,.15,.63,.42-.21,.36-.51-4.56-20.82-2.88-42.92,4.82-62.8,2.22-5.72,4.79-11.27,7.87-16.58,.05-.08-.01-.42-.08-.3h0Z"/><path class="cls-2" d="M1049.97,406.33c1.67-1.75,1.3-4.64-.15-6.42-.12-.15-.25-.15-.37,0-2.4,3.27-4.15,7.23-5.53,11.02s-2.42,8.02-2.94,12.16c-1.03,8.2-.31,16.57,2.42,24.38,.22,.62,.47-.53,.4-.79-2.41-8.15-3.01-16.77-1.59-25.16,.68-4.04,1.81-8,3.38-11.78,.81-1.97,1.75-3.89,2.8-5.74,.2-.36,.41-.71,.62-1.06,.24-.4,.43-1.14,.93-.97,.41,.14,.62,1.26,.65,1.61,.1,.92-.2,1.76-.66,2.53-.02,.04,0,.26,.04,.21h0Z"/><path class="cls-2" d="M1063.65,406.18c-.72-1.05-1.93-1.42-3.14-.99-1.3,.46-2.03,1.73-2.45,2.97-1.19,3.5-1.67,7.38-2.05,11.05-.82,8.04-.19,16.16,1.83,23.98,.19,.74,.47-.27,.39-.6-1.56-6.96-2.12-14.13-1.65-21.25,.23-3.48,.73-6.94,1.48-10.34,.34-1.53,.73-3.33,2-4.38,.96-.8,2.59-1.09,3.54-.15,.05,.05,.07-.22,.04-.27h0Z"/><path class="cls-2" d="M409.52,391.69c24.72,.14,49.08,3.38,73.09,9.24,24.17,5.89,47.57,14.31,70.77,23.22,23.18,8.9,46.2,18.23,69.65,26.38,23.45,8.15,47.39,14.73,71.96,18.46,12.65,1.92,25.38,3.21,38.13,4.3,3.13,.27,6.27,.52,9.4,.78,2.95,.24,6.12,.84,9.08,.65,2.73-.17,3.23-2.47,3.24-4.88,0-1.27-.16-5.31-2.49-3.92-1.51,.9-1.13,4.11-.48,5.45,.44,.92,.79-.54,.84-.86,.15-.98,.14-2.29-.31-3.21l-.1-.21,.1,4.06c-.19,.39,.17,.14,.44,.35s.49,.29,.63,.62l-.47-2,.02,.24,.16-3.37c.29-.88,.11-.26-.34-.1-.49,.17-.92,.28-1.43,.31-1.33,.08-2.72-.15-4.04-.25-3.02-.24-6.04-.48-9.06-.73-5.93-.49-11.86-1-17.78-1.59-11.94-1.19-23.87-2.67-35.68-4.81-22.72-4.11-45-10.59-66.91-17.82-21.93-7.24-43.52-15.43-65.3-23.1-21.82-7.69-43.88-14.86-66.33-20.46-22.29-5.56-45.09-9.19-68.11-9.36-2.92-.02-5.83,.11-8.75,.26-.52,.03-.47,2.35,.06,2.35h0Z"/><path class="cls-2" d="M829.35,462.96c-.54-.78-1.02-1.41-1.88-1.85-.71-.37-1.51-.6-2.28-.78-1.71-.4-3.48-.46-5.23-.33-3.77,.29-7.42,1.44-11.02,2.55-8.08,2.5-16.38,4.14-24.81,4.86-8.42,.71-16.86,.41-25.22-.8-2.79-.4-5.9-.73-8.59,.32s-3.88,3.44-3.89,6.22c0,1.82,.48,3.54,1.15,5.21,.63,1.55,1.69,3.31,1.75,5.01s-1.37,3.59-2.27,5.02c-.99,1.56-1.79,3.09-2.13,4.93-.05,.26,.19,1.76,.43,.99,.9-2.9,3.56-4.86,4.52-7.74s.12-6.11-1.04-8.9c-.52-1.24-1.46-2.85-1.43-4.24,.03-1.28,1.17-2.42,2.21-3.02,2.41-1.38,5.63-1.14,8.27-.81,3.86,.48,7.68,1.02,11.56,1.23,4.13,.22,8.27,.21,12.4-.04,8.21-.5,16.3-1.99,24.16-4.41,3.97-1.22,7.87-2.74,11.98-3.47,1.94-.34,3.94-.51,5.91-.28,1.82,.21,3.57,1.28,5.37,1.11,.2-.02,.12-.66,.05-.77h0Z"/><path class="cls-2" d="M749.39,471.52c-.85,13.22-5.05,26.39-11.61,37.87-3.26,5.7-7.14,11.05-11.57,15.9s-9.4,8.56-13.78,13.18c-2.22,2.34-4.26,4.92-5.52,7.91-1.36,3.2-1.59,6.68-.9,10.07,.04,.2,.26,1.03,.62,.95,11.43-2.63,22.58-6.07,33.72-9.7,11.04-3.6,21.81-7.82,32.44-12.5s21.16-9.81,31.52-15.16,20.45-11.08,30.87-16.21c5.81-2.86,11.44-6.06,17.02-9.34,2.86-1.68,5.7-3.36,8.64-4.89,1.34-.7,2.73-1.34,4.01-2.14,.47-.29,.82-.51,1.33-.67,.18-.05,.36-.09,.54-.16,.19-.08,.38-.16,.56-.25,.26-.14,.24-.13-.05,.02,.75,.03,1.26-1.41,1.38-1.86,.85-3.34,.9-6.93-.02-10.27-.48-1.73-1.22-3.38-2.7-4.48-2.28-1.71-5.71-2.45-8.46-2.9-1.73-.28-3.38-.33-5.12-.11s-3.41,.56-5.16,.59c-3.66,.07-7.33,.89-10.88,1.72-1.16,.27-1.05,4.79,.12,5,3.07,.53,6.06,1.29,9.08,2.02,1.56,.38,3.07,.59,4.55,1.22s2.93,1.26,4.39,1.88c2.63,1.12,5.56,1.44,8.27,2.33,.89,.29,1.75,.72,2.49,1.31,.2,.16,.38,.34,.57,.52,.07,.07,.14,.15,.2,.22,.16,.2,.13,.15-.1-.15l.14,.22-.72-6.59c-.3,1.03-.2,2.39-.19,3.47l.19-2.99c.11-.65,.04-.11-.07,.18-.08,.21-.23,.61-.38,.81-.33,.44-.9,.78-1.34,1.1-1.13,.82-2.33,1.56-3.49,2.34-2.5,1.65-5.05,3.18-7.64,4.7-5.07,2.97-10.23,5.89-15.15,9.11-9.77,6.4-19.96,12.13-30.25,17.64-20.39,10.93-41.45,20.64-63.06,28.88-12.14,4.63-24.68,8.28-37.34,11.2l.62,.95c-1.15-5.52,4.19-10.88,7.77-14.31,4.59-4.41,9.44-8.41,13.59-13.27,8.29-9.73,14.42-21.25,18.02-33.5,2.05-6.98,3.1-14.12,3.42-21.38,.03-.7-.47-1.73-.56-.47h0Z"/><path class="cls-2" d="M859.96,474.67c.49,.73,.79,1.19,1.51,1.65,.64,.41,1.3,.79,1.98,1.14,.58,.3,1.19,.56,1.77,.86,.76,.4,1.43,.98,2.2,1.35,2.53,1.21,5.26,2.08,7.94,2.87,5.43,1.6,10.96,2.79,16.52,3.81,11.08,2.04,22.35,3.38,33.63,3.14,6.48-.14,12.86-1.16,19.21-2.37,.59-.11,.52-2.61-.06-2.65-5.66-.33-11.31-.86-16.96-1.34s-11.27-.86-16.91-1.36c-11.21-.99-22.13-3.09-33.1-5.5-3.02-.66-6.02-1.35-9.05-1.93-1.49-.29-2.96-.18-4.47-.41-.74-.11-1.47-.21-2.22-.25-.94-.05-1.23,0-1.99,.6-.08,.06-.05,.3,0,.38h0Z"/><path class="cls-2" d="M863.01,477.54c7.3,2.49,15.07,3.66,22.64,5.04s14.81,2.21,22.22,3.11c14.99,1.83,30.05,3.13,45.12,4.03,29.93,1.78,60.12,2.12,90.06,.18,8.43-.55,16.84-1.26,25.25-2.05,4.2-.39,8.41-.79,12.6-1.24s8.51-1.08,12.56-2.46c.62-.21,.59-2.93-.07-3-7.54-.73-15.28,.69-22.79,1.37s-14.89,1.14-22.34,1.55c-15.08,.82-30.17,1.41-45.26,1.51-30.05,.21-60.05-1.41-89.93-4.49-8.39-.87-16.74-2.04-25.13-3-4.17-.48-8.34-.89-12.51-1.39s-8.3-1.01-12.47-1.04c-.42,0-.36,1.74,.05,1.88h0Z"/><path class="cls-2" d="M1191.68,447.57c.63,.78,1.07,1.56,1.9,2.12,.65,.44,1.24,.96,1.77,1.54,1.06,1.16,1.88,2.57,2.37,4.06,.91,2.76,.25,5.52-1.74,7.65-2.99,3.2-7.68,4.74-11.69,6.21-4.43,1.62-9.04,3.1-13.68,3.97-4.67,.88-9.36,1.52-14.09,1.88s-9.88,1.18-14.84,1.6c-10.06,.85-20.13,1.33-30.23,1.19-11.39-.16-22.77-1.03-34.05-2.58l.16,6.53c1.09-.35,1.96-1.08,2.89-1.73,1.03-.72,2.23-1.14,3.38-1.63,.87-.37,.64-3.98-.09-3.82-1.02,.22-2.11,.57-3.16,.59s-2.13-.28-3.17,.06-.97,2.44-.94,3.29c.02,.72,.06,3.09,1.1,3.24,21.46,2.96,43.45,3.6,65.01,1.22,5.33-.59,10.71-1.18,15.92-2.41,5-1.18,9.95-2.49,14.91-3.82s9.89-2.97,14.63-5c3.74-1.61,7.89-3.45,9.87-7.25,1.74-3.35,1.71-7.77,.55-11.29-.55-1.67-1.42-3.24-2.65-4.52-.58-.61-1.24-1.14-1.96-1.57-.3-.18-.63-.41-.96-.39s-.93,.45-1.22,.59c-.06,.03-.03,.24,0,.28h0Z"/><path class="cls-2" d="M303.99,259.5c13.7,22.79,31.99,42.15,48.14,63.14,15.47,20.11,29.45,42.37,34.25,67.67,1.27,6.69,1.92,13.53,1.6,20.33s-1.94,13.69-3.51,20.51c-.1,.42,.25,2.32,.76,1.26,2.64-5.49,3.56-11.98,4.06-17.99,.52-6.32,.32-12.69-.49-18.98-1.64-12.63-5.69-24.92-11.12-36.41-11.46-24.23-29.46-44.29-46.34-64.82-9.61-11.68-19.05-23.54-26.97-36.46-.25-.4-.51,.17-.56,.37-.12,.43-.05,.98,.18,1.36h0Z"/><path class="cls-2" d="M388.01,412.75c-.78,1.26-.79,3.1-1.01,4.52-.34,2.14-.57,4.3-.84,6.45-.48,3.89-1.04,7.71-1.77,11.56-.21,1.13-.23,2.47,.29,3.53,.34,.7,.97,1.13,1.57,.42,6.09-7.32,10.97-15.57,16.3-23.46,2.64-3.9,5.48-7.67,8.04-11.62,1.35-2.08,2.71-4.15,4.06-6.23,.63-.97,1.28-1.93,1.9-2.91,.46-.74,.9-1.49,1.24-2.3,.76-1.8,.62-3.85,.53-5.75l-.32,2.13c.22-.52,.44-1.04,.66-1.56,.39-.92,.36-2.19,.09-3.14-.1-.35-.67-1.74-1.25-1.16l-.29,.29h.61l-1.34-.42c-.91-.27-1.22-.1-1.85,.63-1.58,1.81-2.72,4.23-3.98,6.27s-2.46,3.99-3.69,5.98c-1.29,2.09-2.37,4.32-3.63,6.43s-2.55,4.28-3.82,6.42c-2.48,4.17-4.98,8.32-7.53,12.44-2.7,4.36-5.13,8.78-7.4,13.38l2.22,2.79c.16-4.22,.43-8.39,.83-12.6,.19-1.98,.42-3.97,.55-5.96s.48-4.02,.1-5.93c-.01-.08-.13-.45-.27-.24h0Z"/><path class="cls-2" d="M435.1,392.35c.2,.02,.42,.01,.61,.07,.35,.09,.57,.35,.9,.47,.35,.12,.76,.13,1.13,.19,.79,.14,1.57,.34,2.34,.57,1.64,.5,3.23,1.13,4.73,1.97,2.86,1.59,5.38,3.77,7.46,6.28,4.69,5.66,6.97,12.75,7.9,19.95,.28,2.19,.45,4.38,.58,6.58,.13,2.05,.07,4.35,.74,6.31,.1,.31,.43,.73,.61,.18,.59-1.84,.49-3.94,.45-5.85-.04-2.23-.21-4.45-.46-6.67-.47-4.25-1.3-8.47-2.68-12.53-2.31-6.77-6.67-13.05-12.91-16.72-1.65-.97-3.42-1.73-5.27-2.25-.92-.26-1.88-.4-2.83-.49-.49-.04-1.03-.13-1.52-.07-.62,.08-1.2,.51-1.82,.71-.33,.11-.35,1.26,.03,1.29h0Z"/><path class="cls-2" d="M466.08,443.07c.1,0,.09-.35,0-.35s-.09,.35,0,.35h0Z"/><path class="cls-2" d="M464.2,437.98c-.36-.46-.56-1.12-.46-1.7s.21-1.67-.27-2.11-.74,.08-.84,.58c-.16,.83-.19,1.75-.44,2.55l.64-.69c-.42,.14-.62,.29-.88,.66-.83,1.17-.76,3.19-.48,4.51,.15,.72,.64,2.68,1.76,2.04,1.84-1.06,3.25-3.12,4.67-4.66,1.57-1.7,3.18-3.37,4.82-5.01,3.23-3.22,6.6-6.3,10.09-9.23s7.1-5.72,10.83-8.34c1.89-1.33,3.81-2.62,5.76-3.88,2.17-1.39,4.28-2.23,4.74-5.03,.26-1.57,.26-3.42-.35-4.92-.29-.73-1.2-1.79-1.77-.59s-1.03,2.09-.93,3.49c.04,.56,.1,1.61,.69,1.89,1.1,.52,.78-2.93,.6-3.36l-.08-.19,.07,2.95-.26,.52-.42-.31c.11,.14,.2,.29,.27,.46l-.57-2.51v.6l.63-3.52c-.38,.64-1.56,1.08-2.19,1.47-.99,.62-1.96,1.24-2.94,1.88-1.82,1.2-3.61,2.43-5.38,3.7-3.65,2.62-7.2,5.4-10.62,8.32s-6.72,5.98-9.88,9.17c-1.53,1.55-3.03,3.12-4.5,4.73-1.65,1.81-3.44,3.64-4.57,5.83l2.01,1.24c-.08-.32-.16-.65-.3-.95l-.28-.5c.28,.96,.41,1.16,.39,.61,.19-.59,.03-1.56,.03-2.17l-1.24,.03v.36c.01,.31,.07,1.27,.48,1.41s.76,.66,1.13,.91c.06,.04,.06-.18,.03-.22h0Z"/><path class="cls-2" d="M499.76,405.21c-.45-.84-.97-1.68-1.32-2.57l-.38,1.49c.59,1.08,1.65,1.79,2.54,2.63s1.77,1.71,2.61,2.61c1.68,1.79,3.3,3.64,4.79,5.6,2.9,3.83,5.35,8.01,7.27,12.41,3.68,8.46,5.43,17.75,4.81,26.97-.18,2.63-.54,5.24-1.1,7.82-.61,2.81-1.45,5.67-1.73,8.53-.02,.18,.11,1.87,.63,1.43,.77-.64,1.15-1.72,1.56-2.62,.53-1.17,.91-2.43,1.21-3.68,.62-2.57,1.03-5.2,1.3-7.82,.55-5.35,.38-10.79-.42-16.11-1.53-10.13-5.35-20.01-11.43-28.29-1.64-2.23-3.43-4.37-5.39-6.32-.97-.97-2.02-1.88-3.08-2.75-.78-.64-2.35-2.34-3.44-2.19-.5,.07-.42,1.66-.05,1.86,.6,.31,1.08,.94,1.56,1.41,.09,.09,.09-.37,.06-.43h0Z"/><path class="cls-2" d="M516.71,477.36c.61-.99-.21-2.46-1.42-2.28l.02,.67c.54-.06,.67,.3,1.1,.41,.29,.07,.81-.07,1.1-.13,.57-.12,1.2-.23,1.74-.43,1.58-.58,3.07-1.63,4.55-2.43,2.84-1.53,5.73-3.01,8.63-4.41,5.9-2.85,11.98-5.29,18.12-7.58,12.9-4.8,26.06-9.6,39.79-11.3,3.81-.47,7.65-.69,11.48-.59,1.83,.05,3.67,.31,5.5,.19,.92-.06,1.84,.09,2.73-.16,.98-.27,1.93-.73,2.85-1.17,.75-.36,.43-2.95-.08-3.4-.84-.75-1.7-1.43-2.64-2.05-.66-.44-1.37-.57-2.13-.77-.85-.22-1.65-.51-2.53-.59-.99-.08-1.99-.14-2.98-.18-3.37-.12-6.75,0-10.1,.34-6.97,.7-13.83,2.27-20.53,4.26-6.75,2-13.34,4.46-19.88,7.06-6.09,2.42-12.16,4.92-18.06,7.78-3.37,1.64-6.67,3.37-9.82,5.4-1.67,1.08-3.32,2.17-4.85,3.45-.81,.67-1.44,1.47-2.11,2.28-.29,.36-.56,.72-.82,1.1-.5,.72-.66,1.56-1.15,2.29-.05,.08-.08,.67,.08,.62,.76-.23,1.86,.39,1.36,1.41-.02,.05,0,.27,.05,.2h0Z"/><path class="cls-2" d="M496.63,402.86c1.79,3.02,3.54,6.07,5.65,8.88,.17,.23,.21-.61,.12-.76-.88-1.53-1.86-3-2.82-4.49-.88-1.37-1.94-2.66-2.9-3.98-.08-.11-.1,.28-.06,.36h0Z"/><path class="cls-2" d="M614.73,436.57c-1.69,6.63-7.73,12.1-14.38,13.48-.29,.06-.22,1.2,.03,1.18,7.3-.81,13.12-6.33,14.77-13.42,.09-.37,.14-.89-.03-1.25-.13-.26-.3-.36-.39,0h0Z"/><path class="cls-2" d="M608.31,431.23c1.27,1.26,2.52,2.91,3.26,4.54,.67,1.47,1.05,3.04,.72,4.65-.7,3.33-3.29,6.02-6.3,7.43-.25,.11-.16,1.32,.09,1.27,4.04-.86,6.68-4.53,7.1-8.51,.22-2.11-.08-4.36-.97-6.3-.39-.85-.91-1.63-1.53-2.33-.67-.76-1.42-1.05-2.35-1.37-.14-.05-.09,.56-.01,.64h0Z"/><path class="cls-2" d="M576.4,429.28c-1.02-.83-2.01-1.59-2.87-2.6l-.13,1.96c.77,.49,1.63,.56,2.52,.75l3.15,.66c1.93,.4,3.88,.76,5.82,1.11l11.88,2.19c7.12,1.31,14.3,2.5,21.15,4.9,.22,.08,.22-1.07,.02-1.21-5.91-4.51-13.67-5.21-20.76-6.49l-11.64-2.1c-1.94-.35-3.87-.72-5.82-1.03-1.05-.16-2.1-.33-3.15-.49-.97-.15-2.2-.55-3.15-.28-.47,.13-.45,1.98,.05,2.03,1.03,.1,1.94,.59,2.88,1,.1,.04,.1-.34,.03-.4h0Z"/><path class="cls-2" d="M464.16,279.87s.01-.06,0-.06-.01,.06,0,.06h0Z"/><path class="cls-2" d="M464.14,279.81l-.41-.47c-.07-.08-.14-.15-.21-.23-.09-.12-.1-.24-.18-.36-.1-.15-.28-.28-.4-.41l-.46-.46c-.28-.28-.55-.58-.86-.84s-.6-.51-.9-.77c-.23-.19-.35,.41-.36,.5-.04,.29-.06,.81,.15,1.05l1.11,1.22c.38,.42,.75,.86,1.17,1.24,.76,.69,1.49,1.42,2.29,2.06,.16,.13,.24-.28,.25-.35,.03-.22,.03-.55-.11-.73-.7-.91-1.47-1.78-2.21-2.66-.7-.83-1.52-1.56-2.29-2.33l-.13,1.62c.43,.33,.85,.67,1.31,.96l1.32,.83s.07,.02,.1,0c.13-.12,.66,.24,.8,.3,.05,.02,.04-.14,.02-.16h0Z"/><path class="cls-2" d="M460.12,281.84c.06,.56,.52,1.03,1.14,.82,.79-.26,.62-1.49,.51-2.12s-.58-1.24-.67-1.88c-.03-.24-.26,.32,.1-.29,.2-.34,.48-.64,.79-.88,1.36-1.1,3.26-.93,4.87-.58,6.56,1.42,12.97,4.2,19.01,7.08,12.16,5.8,23.24,13.57,33.81,21.86,2.96,2.32,5.89,4.67,8.82,7.02,1.46,1.17,2.91,2.35,4.37,3.52,.81,.65,1.61,1.32,2.43,1.96s1.31,.77,2.33,.7c.58-.04,.29-2.12,.12-2.41-.54-.92-1.06-1.91-1.85-2.64-.55-.51-1.2-.93-1.78-1.39-1.34-1.05-2.68-2.09-4.03-3.13-2.59-2.01-5.17-4.01-7.79-5.98-5.23-3.93-10.55-7.75-15.98-11.39-10.71-7.17-22.13-13.4-34.58-16.95-2.92-.83-7.37-2.67-10.04-.39-1.16,.99-1.61,2.51-1.53,4,.03,.61,.13,1.25,.38,1.81-.01-.03,.44,.74,.44,.7-.02,.26-.59,.89-.81,.4-.04-.09-.06,.15-.06,.17h0Z"/><path class="cls-2" d="M462.25,279.43c-1.23-1.4-2.72,.17-3.04,1.56-.45,1.93,.42,3.75,1.57,5.25,2.77,3.6,5.31,7.26,7.28,11.37,3.89,8.11,5.74,17.26,4.92,26.24-.21,2.33-.58,4.7-1.22,6.95-.3,1.08-.71,2.16-1.32,3.1-.67,1.03-1.6,1.35-2.62,1.96l.83,4.14c.53-1.98,1.06-3.58,2.38-5.19,.34-.41,.16-2.83-.27-2.49-1.37,1.07-2.68,2.53-3.25,4.19-.15,.44-.21,4.58,.63,4.23,1.7-.7,2.95-2.87,3.67-4.51,.82-1.9,1.25-3.95,1.61-5.97,.79-4.43,1.02-8.98,.74-13.47-.54-8.75-3.02-17.39-7.5-24.95-1.23-2.06-2.61-4.02-4.13-5.87-.75-.91-1.9-1.86-2.39-2.94-.75-1.68,.66-2.43,2.11-2.68,.25-.04,.13-.8,.02-.92h0Z"/></g></svg>