<?xml version="1.0" encoding="UTF-8"?><svg id="Layer_1" xmlns="http://www.w3.org/2000/svg" viewBox="0 0 1500 750"><defs><style>.cls-1{fill:#acbbba;}.cls-2{fill:#dce7e6;}.cls-3{fill:#231f20;}</style></defs><g><g><path class="cls-1" d="M604.85,444.09c.13,1.1,1.11,1.67,0,0h0Z"/><path class="cls-1" d="M659.94,413.98s-.06,.01-.09,.02c.08,0,.11,0,.09-.02Z"/><path class="cls-1" d="M564.1,412.29c-1.11-.37-1.23-.11,0,0h0Z"/><path class="cls-1" d="M1190.03,346.98c-3.67-2.11-21.19-3.87-48.98-8.45-27.79-4.58-87.42-13.02-141.12-17.75-18.25-1.61-54.27-.71-95.63,1.35-.05-.21-.11-.34-.19-.36-4.08-.9-8.04-1.9-11.91-3.5-.6-.25-1.2-.52-1.79-.79-.03-.05-.05-.08-.09-.09-.13-.04-.26-.09-.39-.13-2.74-1.26-5.41-2.68-8.06-4.11-5.5-2.96-11.07-5.95-17.1-7.55-1.28-.64-2.56-1.28-3.83-1.92-2.53-1.29-5.07-2.57-7.6-3.86-2.01-1.31-4.04-2.61-6.03-3.96-6.27-4.26-12.41-8.71-18.42-13.34-3.05-2.35-6.03-4.79-9.05-7.19-2.44-1.93-5.08-3.85-8.07-4.81-1.54-1.87-4.32-1.1-6.77-.82-.08-1.43-.21-2.63-.38-2.9-.87-1.36-1.95-1.2-3.41-.86-.95,.22-1.87,.59-2.72,1.06-1.97,1.09-3.61,2.74-4.8,4.64-2.19,3.49-2.89,7.37-3.27,11.33-1.44,1.5-2.9,2.99-4.36,4.47-4.55,4.19-9.3,8.19-14.34,11.78-.36,.26-.38,1.35-.4,1.64-.02,.2-.02,.41-.03,.62-3.94,3.45-8.13,6.57-12.08,10-.67,.58,.07,5.14,.15,5.92v.13c3.55-1.12,7.16-1.52,10.88-1.51,1.76,0,3.54,.03,5.3,.08,.66,.02,1.28,0,1.91-.07,2.68,1.11,5.26,2.49,7.62,4.16,3.28,2.33,6.24,4.99,9.02,7.83,.03,.39,.08,.78,.12,1.18-44.98,3.38-83.7,6.82-100.18,8.62l-123.39,16.98s-20.31-2.73-31.03-5.53c-10.72-2.8-18.81-13.31-30.28-18.05-11.47-4.74-7.93,7.1-10.55,13.66-2.63,6.56-14.26,12-16.39,16.09s18.56,3.06,18.56,3.06c0,0-57.21,9.53-56.08,12.33,1.14,2.8-45.03-27.88-62.88-34.97-17.85-7.09-78.72-46.98-78.72-46.98-7.88,36.41,9.98,65.98,9.98,65.98,0,0,5.35-2.27,18.9-5.52,13.54-3.25,35.96,35.37,48.81,54.29,12.85,18.93,1.83,33.29,7.23,32.02,5.4-1.26,70.29-42.21,71.2-42.7,.9-.5,55.96,4.75,73.03,5.27,17.07,.52,97.2-4.17,97.2-4.17-8.49,7.22-57.41,12.39-63.51,12.72-.89,.05-1.53,.02-2-.02,1.38,.46,4.26,1.9,7.95,5.89,7.79,8.42,29.66,21.5,32.53,25.5,.11,.15,.2,.28,.28,.41-.12-1.01,.46-2.47,4-3.08,7.58-1.31,49.13-26.62,51-27.01-2.19-.04-42.47-6.44,2.34-.67,46.34,5.97,254.05,7.84,254.05,7.84,12.1,18.94,24.06,60.73,26.04,63.07,1.97,2.34,58.56-72.78,63.89-75.07,5.34-2.29,65.84-9.62,81.45-13.74,15.61-4.12,26.97-9.65,26.97-9.65,0,0,7.91-1.58,17.65-2.29,9.74-.71,41.82-19.29,59.52-30.46,17.7-11.18,1.94-3.94-1.73-6.05Zm-424.9-31.58h0Zm12.87-8.5v.13c-.06,0-.13,0-.2,0,.07-.04,.13-.09,.2-.13Zm6.12-.88c-.1,.54-.17,1.09-.2,1.66-.4-.07-.79-.15-1.19-.21,.47-.48,.93-.96,1.39-1.45Zm13.71,4.01c-.35,.87-.65,1.75-.98,2.63-.22-.13-.44-.26-.65-.39,.56-.74,1.11-1.48,1.63-2.24Zm7.92,18.3c-.08-.26-.16-.52-.24-.77,.05-.28,.1-.56,.15-.84,.43,.5,.85,1.01,1.25,1.53-.39,.03-.77,.06-1.16,.08Zm5.18-.38c-.3-.67-.64-1.32-1-1.97,7.74-.5,15.5-.62,23.25-.33,2.04,.08,4.08,.2,6.12,.33-9.54,.64-19.04,1.3-28.36,1.97Z"/></g><path class="cls-2" d="M1029.21,392.28l-4.06,.38s0,.19,0,.18c18.79-1.28,37.55-3.02,56.32-4.6,5.38-.45,10.75-.91,16.13-1.35v-.53c-.36,.46-1.96,.35-1.69-.38,.02-.05-.01-.54-.02-.54-20.25,6.04-41.16,9.93-62.22,11.53-5.97,.45-11.95,.74-17.94,.87l.08,3.31c2.77-.25,5.56-.21,8.33-.44s5.54-.48,8.3-.74c5.56-.54,11.1-1.24,16.65-1.89,11.26-1.33,22.48-2.97,33.7-4.61l9.34-1.37c3.14-.46,6.43-1.29,9.6-1.1,.34,.02,.23-4.57,.22-4.96-.01-.46,.06-4.88-.46-4.94-.58-.07-1.16-.22-1.74-.22s-1.16,.11-1.73,.16c-1.32,.12-2.63,.24-3.95,.37-2.47,.23-4.93,.48-7.4,.72-4.93,.5-9.86,1.01-14.78,1.58s-9.87,1.05-14.76,1.81c-2.47,.39-4.95,.73-7.36,1.36s-4.9,1.28-7.35,1.93c-5.61,1.49-11.11,3.35-16.61,5.19-.25,.08-.03,2.84,.07,2.84,9.82,.27,19.76,.77,29.55-.19s19.69-2.4,29.54-3.5c2.79-.31,5.59-.62,8.38-.91,1.32-.14,2.63-.28,3.95-.41,.74-.08,1.48-.15,2.22-.23,.78-.08,1.46-.36,2.21-.6l-.24-9.9c-2.64,1.02-5.56,1.28-8.35,1.77l-8.36,1.47-16.71,2.95c-11.23,1.98-22.44,4.24-33.58,6.66-3.08,.67-6.16,1.33-9.25,1.95s-6.33,1.49-9.52,1.95c-.28,.04-.03,3.32,.08,3.31,21.12-1.59,42.23-5.07,62.75-10.31,5.82-1.48,11.6-3.11,17.34-4.85l-.02-.54c-.37,1.02,.82,2.64,1.71,1.45,.04-.05,0-.54-.01-.53-19.84,1.72-39.69,3.38-59.54,5.07-2.81,.24-5.62,.5-8.43,.79l-1.98,.2c-.32,.03-1.76-.04-1.98,.2-.29,.31,.34,.11,.41,.12,.36,.03,.77-.1,1.13-.14l2.03-.26s0-.05,0-.05h0Z"/><path class="cls-2" d="M1178.54,355.32c-10.41,1.09-20.8,2.25-31.19,3.53-5.12,.63-10.23,1.31-15.34,1.99s-10.69,1.07-15.83,2.43c-.19,.05,.06,1.51,.04,1.52,4.4-1.14,9.07-1.6,13.57-2.18s9.19-1.26,13.78-2c8.82-1.43,17.73-2.95,26.39-5.16,4.21-1.07,8.35-2.59,11.66-5.5l-.02-.46c-.33,.97-1.25,1.26-2.14,1.55-1.18,.39-2.36,.77-3.54,1.15l-7.07,2.3c-4.8,1.56-9.6,3.12-14.38,4.72l-28.52,9.54c-5.35,1.79-10.73,3.52-16.03,5.47-.11,.04,.03,.74,.02,.74l5.06-1.41c.05-.02,0-.42-.01-.42l-5.07,1.08,.02,.74c9.66-2.92,19.19-6.34,28.76-9.55s19.19-6.43,28.76-9.73l8.25-2.84c1.33-.46,2.68-.89,4.01-1.38,.82-.3,1.61-.64,1.91-1.53,.03-.08-.05-.43-.02-.46-2.88,2.55-6.41,4.05-10.07,5.11-4.13,1.19-8.39,2-12.6,2.86-9.02,1.83-18.1,3.38-27.22,4.63-5.08,.7-10.4,1.5-15.54,1.2l.04,1.52c5.29-.07,10.61-1.18,15.84-1.94s10.23-1.46,15.33-2.25c10.4-1.59,20.78-3.3,31.15-5.07,.02,0,0-.21,0-.21h0Z"/><path class="cls-2" d="M1178.72,356.82c-2.07,.06-4.18,.85-6.18,1.35s-3.96,1.06-5.94,1.6c-4.12,1.13-8.24,2.24-12.35,3.37-8.09,2.23-16.15,4.57-24.22,6.86l-6.89,1.95c-2.35,.67-4.85,1.17-7.12,2.07-.35,.14-.15,2.2-.15,2.51,0,.19,.21,2.53,.27,2.5,2.38-1.03,4.76-2.07,7.13-3.11s4.92-1.83,7.38-2.71c4.83-1.73,9.67-3.42,14.54-5.06,.11-.04-.03-.79-.02-.79-4.85,1.29-9.7,2.52-14.57,3.71-2.38,.58-4.76,1.28-7.17,1.7s-4.95,.82-7.42,1.24l.12,5.02c2.09-.49,4.14-1.38,6.17-2.08l5.93-2.05,12.33-4.26c8.07-2.79,16.14-5.6,24.18-8.46,2.29-.81,4.59-1.6,6.87-2.45s4.96-1.58,7.1-2.88c0,0,0-.05,0-.05h0Z"/><path class="cls-2" d="M1164.63,361.84c.17,.88-2.24,1.73-2.85,1.91-1.58,.49-3.3,.77-4.95,.96-1.85,.22-3.71,.98-5.52,1.48s-3.56,1-5.35,1.47c-7.34,1.92-14.77,3.4-22.29,4.4l.26,10.49c4.19-.98,8.11-3.02,12.1-4.61,2.04-.82,4.07-1.66,6.11-2.5,.95-.4,1.93-.73,2.83-1.23,1.09-.61,2.08-1.24,3.31-1.49l-.06-2.46c-7.95,4.32-17.12,5.7-26.06,6.25-4.51,.28-9.04,.27-13.55,.13s-9.33-.74-14-.85l.14,5.55c7.47-.24,15.05-.94,22.37-2.5,3.66-.78,7.29-1.8,10.86-2.9s7.29-2.68,10.85-4.27c.26-.12-.09-1.87-.05-1.88-1.34,.37-2.79,.42-4.17,.59l-4.17,.52c-2.86,.36-5.72,.69-8.59,1.01-5.65,.64-11.28,1.47-16.92,2.24-11.15,1.51-22.23,3.4-33.33,5.26-3.1,.52-6.21,1.04-9.31,1.56s-6.65,.89-9.8,1.79c-.39,.11-.17,2.97-.16,3.32,0,.24,.18,3.34,.32,3.31,5.18-1.36,10.36-2.76,15.47-4.35s10.15-3.02,15.12-4.92c.22-.08-.11-1.61-.04-1.63-4.93,1.49-10.03,2.92-15.15,3.59s-10.37,.93-15.56,.68l.16,6.63c2.77-.2,5.59-.94,8.33-1.43s5.71-1.07,8.57-1.61l16.9-3.18c11.15-2.1,22.22-4.62,33.28-7.1,3.11-.7,6.19-1.49,9.29-2.21l4.89-1.13c1.6-.37,3.26-.92,4.89-1.06l-.05-1.88c-7.16,1.81-14.47,3.19-21.78,4.23s-14.86,1.77-22.39,1.77c-.27,0-.32,5.53,.14,5.55,4.63,.26,9.34,0,13.98-.12s9.04-.37,13.53-.91c9.08-1.08,17.76-3.7,26.02-7.59,.29-.14-.04-2.46-.06-2.46-1.19,.17-2.17-.12-3.35-.27-.95-.12-1.9-.1-2.86-.1-2.06,0-4.1,.06-6.16,.22-4.07,.32-8.3,.53-12.16,1.97-.26,.1-.28,1.54-.28,1.54-.08,1.23-.08,2.48-.04,3.71,.01,.38,.29,5.31,.58,5.23,8.68-2.35,17.23-5.17,25.56-8.54,2.08-.84,4.13-1.77,6.17-2.69,1.08-.49,2.04-1.22,3.05-1.85,.94-.59,1.92-1.14,2.84-1.76,1.92-1.3,4.15-3.92,3.07-6.45,.03,.07-.03,.44,0,.58h0Z"/><path class="cls-2" d="M1135.63,370.06c1.31-.46,2.68-.69,4.04-.45-.02,0,.15-1.37-.04-1.43-1.34-.41-3-.25-4.4-.3-1.55-.06-3.09-.1-4.64-.13-2.93-.06-5.86-.1-8.79-.1-5.94,0-11.86,.15-17.79,.44-11.85,.58-23.61,1.66-35.36,3.34-3.21,.46-6.42,.96-9.61,1.52-1.6,.28-3.2,.57-4.79,.88-1.73,.33-3.59,.54-5.26,1.09-.47,.16-.2,3.33-.19,3.76,0,.27,.23,3.79,.38,3.75,17.85-5.23,36.33-8.25,54.64-11.43,.11-.02,0-1.16-.03-1.16-18.17,2.33-36.46,4.9-54.8,5.07l.18,7.51c1.44-.12,2.89-.55,4.3-.84,1.51-.31,3.03-.61,4.55-.9,2.88-.55,5.76-1.08,8.64-1.6,5.85-1.05,11.72-1.98,17.61-2.8,11.8-1.64,23.59-3.14,35.43-4.46,3.24-.36,6.49-.71,9.73-1.05,1.62-.17,3.25-.33,4.87-.5s3.76-.09,5.35-.68l-.04-1.43c-1.18,.87-2.55,1.46-4,1.74-.02,0,0,.13,0,.13h0Z"/><path class="cls-2" d="M1115.03,369.03c-1.56,.36-3.26,.34-4.86,.44s-3.25,.19-4.88,.25c-3.18,.12-6.36,.15-9.54,.1s-6.38-.19-9.56-.4-6.53-.76-9.79-.91l.09,3.65c12.19-2.88,24.36-5.83,36.59-8.57,.11-.02-.01-1.08-.03-1.08-3.21,.41-6.52,.39-9.75,.63s-6.32,.53-9.47,.94c-6.38,.84-12.71,1.92-19.03,3.11l.09,3.52c3.18-.83,6.32-1.79,9.49-2.62s6.35-1.46,9.55-2.09,6.22-1.2,9.35-1.68c1.6-.24,3.21-.48,4.81-.7s3.38-.59,5.06-.61c.03,0,.03-.77-.02-.78-5.75-.26-11.53-.87-17.27-.65s-11.33,.34-16.95,.87c-11.44,1.07-22.67,3.41-33.88,5.87-3.19,.7-6.37,1.42-9.55,2.17-1.51,.35-3.02,.71-4.53,1.08-1.6,.39-3.53,.6-4.99,1.37l.19,7.8c1.91-1.07,3.78-2.01,5.82-2.82,1.88-.75,3.7-1.71,5.63-2.29,3.84-1.15,7.67-2.16,11.6-2.97s7.61-1.43,11.46-1.92,8-1.12,12.01-1.09v-.59c-16.73,1.92-33.27,5.23-49.83,8.18-4.7,.84-9.47,1.11-14.17,1.98-.3,.06-.18,4.77,.12,4.81,1.69,.25,3.09-.34,4.66-.88,1.11-.38,2.22-.98,3.39-1.16,.55-.08,1.04-.18,1.47,.14,.87,.64,.71,1.63,.6,2.58-.1,.83-.16,1.65-.14,2.48,.1,4.59,2.37,8.65,6.35,10.99-.05-.03,.08-.42-.01-.47-2.19-1.28-3.92-3.28-5.01-5.56-.57-1.19-.97-2.46-1.16-3.76-.24-1.62,.24-3.11,.24-4.7,0-1.93-.92-3.23-2.57-4.24-1.18-.72-2.15-.95-3.49-.69-1.47,.28-2.95,.66-4.45,.46l.12,4.81c4.19-.83,8.29-1.99,12.43-3.07s8.3-1.74,12.44-2.58c8.31-1.7,16.6-3.44,24.88-5.27,4.74-1.05,9.45-2.19,14.13-3.45,.06-.02-.01-.59-.01-.59-3.89,.56-7.85,.66-11.77,1.05s-7.81,.79-11.71,1.24-7.6,.85-11.4,1.29c-1.89,.22-3.77,.09-5.68,.22-2.07,.14-4.05,.15-6.12,.06-.19,0-.4,7.77,.19,7.8,1.38,.09,2.93-.47,4.29-.74,1.43-.29,2.86-.57,4.29-.85,2.78-.54,5.57-1.07,8.36-1.58,5.58-1.02,11.18-1.96,16.78-2.85s11.39-1.96,17.08-3.05,11.25-2.49,16.88-3.7c3.26-.7,6.45-1.46,9.66-2.37s6.42-1.79,9.66-2.58l-.02-.78c-3.13,.65-6.46,.72-9.64,1.11s-6.41,.76-9.61,1.19-6.21,.93-9.33,1.31-6.54,.76-9.76,1.35c-.39,.07,.11,3.52,.09,3.52,6.29-1.5,12.65-2.77,19.01-3.9,3.15-.56,6.3-1.15,9.45-1.71s6.48-1.3,9.73-1.52l-.03-1.08c-12.2,2.12-24.43,4.02-36.65,5.99-.23,.04-.12,3.63,.09,3.65,3.2,.33,6.55,.12,9.77,.03s6.36-.26,9.53-.51,6.36-.59,9.52-1.02c1.63-.22,3.25-.46,4.87-.72s3.24-.7,4.85-.78c.01,0,0-.14,0-.13h0Z"/><polygon class="cls-2" points="1006.04 387.19 1006.04 387.13 1006.04 387.19 1006.04 387.19"/><path class="cls-2" d="M987.99,388.65c-1.73,.52-3.64,.65-5.43,.94l-5.43,.87-5.43,.87-2.71,.44c-.68,.11-1.67,.42-2.25,.45,.7-.04,1.63-.6,2.29-.84l2.75-1.01,5.05-1.85,10.09-3.71s-.02-.37,0-.37c-29.32,5.77-58.62,11.59-87.91,17.49l-24.91,5.01,.02,.79c25.67-7.34,51.79-13.01,78.27-16.49,7.49-.98,15-1.81,22.52-2.48v-.5c-23.2,4.05-46.49,7.55-69.8,10.78s-46.51,6.37-69.84,9.03c-13.18,1.51-26.38,2.8-39.56,4.29l.04,1.44c4.17-6.2,11.95-7.57,18.89-8.21,.03,0,0-.42-.01-.42-6.56,.61-14.79,1.27-18.91,7.19-.09,.13,0,1.44,.04,1.44,23.46-1.98,46.88-4.92,70.22-7.94,23.3-3.02,46.53-6.44,69.7-10.29,13.09-2.17,26.16-4.49,39.23-6.81,.04,0,0-.5-.01-.5-26.54,2.46-52.96,6.8-78.89,12.95-7.35,1.74-14.65,3.66-21.91,5.74-.09,.03,.03,.79,.02,.79,29.31-5.9,58.62-11.77,87.91-17.8l24.9-5.12v-.37l-20.65,7.77s0,.19,0,.19l10.85-1.84,5.43-.92c1.78-.3,3.63-.79,5.43-.85,.01,0,0-.13,0-.13h0Z"/><path class="cls-2" d="M911.64,395.72c10.89-.2,21.74-1.32,32.45-3.33,.03,0,0-.31,0-.31-29.36,4.08-58.82,7.5-88.31,10.42-29.35,2.9-58.75,5.05-88.2,6.81-16.61,1-33.23,1.79-49.86,2.38-.02,0,0,.37,0,.37,29.65-.78,59.26-2.24,88.83-4.45,29.41-2.19,58.78-4.96,88.05-8.54,16.52-2.02,33.02-4.26,49.49-6.68v-.31c-10.7,2.1-21.55,3.3-32.45,3.59v.05h0Z"/><path class="cls-2" d="M609.54,401.59c4.15-.23,8.39,.09,12.55,.17l12.1,.23,25.1,.48,49.31,.93,28.24,.53s.02-.34,0-.34c-18.69-1.22-37.37-2.43-56.06-3.65l-27.81-1.81c-9.46-.62-18.94-.9-28.27-2.58,.02,0-.17,1.95,.05,2.13,2.32,1.84,4.89,3.54,7.74,4.36,3.01,.87,6.12,1.29,9.24,1.48,6.28,.38,12.61-.11,18.89-.39,14.36-.64,28.72-1.28,43.08-1.96,29.02-1.37,58.04-2.69,87.06-4.01,57.75-2.61,115.47-5.74,173.2-8.99,7.18-.4,14.36-.83,21.53-1.27s14.96-1.75,22.4-2.64c14.34-1.72,28.67-3.35,43-5.09,1.79-.22,3.58-.47,5.38-.63,1.01-.09,3.32,.19,3.75-.72,.12-.25,.07-1.06,0-1.34-.54-2.19-3.68-2.15-5.42-2.01-3.51,.29-7.03,.53-10.54,.79-14.37,1.04-28.72,2.28-43.06,3.65-56.56,5.4-112.91,12.84-169.51,17.83-56.26,4.96-112.73,7.13-169.15,3.47-6.97-.45-14.06-.61-20.98-1.5-.03,0-.04,1.21,.03,1.34,1.56,2.71,4.3,3.99,7.24,4.72,3.77,.93,7.73,1.27,11.58,1.79,8.83,1.2,17.68,2.28,26.54,3.25,17.71,1.94,35.46,3.29,53.23,4.64,35.56,2.71,71.19,4.14,106.84,4.79,20.18,.37,40.38,.76,60.57,.51-.09,0,.47-9.98-.26-10.69-1.39-1.34-2.79-2.68-4.18-4.03,.02,.02-.08,1.77-.08,1.56-.01,1.25,.01,2.51,.04,3.76s.06,2.51,.14,3.76c.02,.32-.07,1.33,.15,1.55,1.4,1.36,2.79,2.73,4.18,4.1l-.26-10.69c-35.6,.03-71.21,1.28-106.81,1.54s-71.07-.39-106.55-3c-10.03-.74-20.06-1.61-30.06-2.63-4.52-.46-9.1-.81-13.58-1.53-3.4-.55-6.89-1.61-8.75-4.73l.03,1.34c7.02,.74,13.98,2.01,21.01,2.73s14,1.37,21.02,1.84c14,.93,28.02,1.31,42.05,1.28,27.8-.06,55.58-1.47,83.29-3.66,55.8-4.42,111.24-12.31,166.8-18.96,14.04-1.68,28.09-3.28,42.16-4.74,7.02-.72,14.05-1.41,21.08-2.05,3.22-.29,6.44-.58,9.66-.85,2.97-.25,6.82-1.2,9.69-.04,.56,.22,2.02,.87,1.68,1.71-.15,.37-4.83,.15-5.39,.15-3.59,0-7.19-.06-10.78-.06-7.19-.01-14.38,.02-21.56-.01-14.37-.07-28.77-.56-43.12,.21-56.84,3.06-113.68,6.61-170.46,10.6-28.4,1.99-56.81,4.01-85.21,5.95-14.35,.98-28.71,1.93-43.06,2.96l-21.53,1.53c-6.16,.44-12.36,1.07-18.53,.7-5.21-.31-10.83-1.37-15.48-3.78l.05,2.13c7.81-.42,15.5,.23,23.3,.72l23.32,1.46,46.19,2.88c3.89,.24,7.77,.49,11.66,.73,1.91,.12,3.91,.42,5.83,.36,1.15-.03,1.11-.14,0-.26-1.03-.11-2.11-.03-3.14-.05l-23.31-.38-46.62-.76-26-.42-13-.21c-4.46-.07-9.01,.12-13.45-.29,0,0,0,.14,0,.13h0Z"/><path class="cls-2" d="M897.93,406.34c-28.95-.59-57.89-1.2-86.84-1.87-28.85-.67-57.69-1.46-86.53-2.36-8.09-.25-16.19-.52-24.28-.8-4.09-.14-8.19-.28-12.28-.43-2.01-.07-4.14,.04-6.14-.22s-4.07-.95-6.16-1.09c-.04,0-.18,3.15,.08,3.17,18.29,1.76,36.68,2.58,55.04,3.23,18.18,.64,36.36,1.19,54.55,1.26s36.36-.15,54.53-.76c18.16-.61,36.29-1.81,54.4-3.25,10.24-.82,20.47-1.92,30.68-3.06,5.11-.57,10.21-1.17,15.31-1.79,2.55-.31,5.1-.63,7.65-.96,.55-.07,1.09-.13,1.64-.21,1.01-.15,1.38-.44,2.16-1.11,1.25-1.07,2.5-2.15,3.75-3.23,.26-.22,.16-3.75-.1-3.89-1.11-.62-2.22-1.24-3.33-1.87-.49-.27-1.13-.79-1.67-.94-.45-.12-1.19,.12-1.64,.18-2.37,.33-4.73,.65-7.1,.97-4.55,.61-9.11,1.19-13.67,1.75-9.12,1.12-18.24,2.16-27.38,3.1-18.1,1.87-36.21,3.49-54.35,4.93-36.25,2.87-72.6,4.29-108.97,4.23-20.55-.03-41.08-1.08-61.61-1.76l.08,3.17c1.77,0,3.53-.32,5.28-.55,1.91-.25,3.93,0,5.86,.06,3.53,.12,7.07,.23,10.6,.35,7.26,.23,14.51,.46,21.77,.67,14.42,.43,28.84,.82,43.26,1.18,28.84,.72,57.69,1.24,86.53,1.66,16.28,.23,32.57,.26,48.85,.3v-.05h0Z"/><path class="cls-2" d="M962.51,391.98c-26.62,3.29-53.2,6.79-79.8,10.26-13.25,1.73-26.51,3.4-39.77,5.02-13.24,1.62-26.51,3.44-39.84,4.11-14.8,.74-29.65-.32-44.03-3.98l.1,4.21c13.88,2.27,27.96,3.2,42.03,3.04,6.97-.08,13.94-.44,20.88-1.07s14.2-1.44,21.05-3.19c.34-.09-.16-3.88-.1-3.89-15.67,2.25-31.69,.7-47.41-.34-15.79-1.05-31.61-1.51-47.43-1.81-31.53-.59-63.13-.77-94.62-2.45-8.19-.44-16.44-.83-24.58-1.93-3.72-.5-7.34-1.31-10.96-2.3-1.66-.45-3.3-.99-4.89-1.63-1.71-.69-3.33-1.65-5.07-2.24l.12,4.92c1.49-.4,3.11-.86,4.65-.71s2.96,.39,4.42,.83c-.04-.01,.1-.81-.02-.89-2.77-1.82-5.99-3.23-9.17-4.15,.15,.04-.39,4.41,.12,4.92,4.74,4.73,12.22,6.59,18.61,7.63,6.93,1.13,13.99,1.5,20.99,1.94,15.61,.97,31.25,1.38,46.88,1.64,15.89,.27,31.77,.51,47.66,.74,15.79,.23,31.6,.41,47.39-.16,17.74-.64,35.75-2.63,53.41-.13l-.1-3.89c-7.04,.67-14.03,1.8-21.07,2.47-6.94,.65-13.91,1.03-20.88,1.13-14.06,.2-28.09-.82-42.02-2.69,.1,.01-.32,4.11,.1,4.21,12.76,2.86,25.69,4.08,38.76,3.58,13.48-.51,26.85-2.48,40.2-4.3,26.52-3.62,53.02-7.39,79.49-11.32,15-2.23,29.96-4.9,44.89-7.53v-.05h0Z"/><path class="cls-2" d="M462.03,392.67c-3.17-.37-6.29-1.52-9.42-2.15,.03,0-.09,.88,.02,.91,17.45,5.02,35.55,7.38,53.66,8.27s36.26,.45,54.37-.23c18.9-.71,37.8-1.31,56.7-2.01s38.06-1.31,57.1-1.96c19.13-.65,38.26-1.26,57.4-1.69,1.14-.03,2.29-.03,3.43-.13,.56-.05,1.15-.06,1.71-.15,.72-.12,1.34-.52,1.98-.86,.52-.28,.16-3.66,.15-4.2,0-.31-.3-4.21-.35-4.19-2.42,.85-4.92,1.49-7.39,2.19-.09,.03-.08,1.67,.04,1.74,2.53,1.46,5.09,2.88,7.55,4.46l-.21-8.39c-1.22-.55-2.11-.73-3.45-.75-1.24-.02-2.47,.04-3.71,.1-2.38,.11-4.76,.23-7.14,.34-4.76,.22-9.52,.45-14.27,.68-9.61,.47-19.22,.96-28.83,1.47-19.03,1.01-38.05,2.2-57.06,3.5-19.01,1.3-38,2.92-56.99,4.46-18.07,1.46-36.18,2.89-54.33,2.92s-36.13-1.26-53.83-4.98c-2.2-.46-4.38-.96-6.56-1.5l.02,.91c3.1,.53,6.36,.59,9.4,1.38,0,0,.01-.13,0-.13h0Z"/><path class="cls-2" d="M540.01,388.58c-8.31,1.66-17.7-.14-25.34-3.58-.87-.39-1.84-.76-2.64-1.29-1.18-.78-.22-.06-.21-.07,.07-.07,2.25,.54,2.14,.52,2.31,.55,4.63,1.01,6.97,1.44,4.84,.89,9.71,1.59,14.6,2.15,19.21,2.21,38.61,2.3,57.93,2.52,39.99,.44,79.99,.24,119.98-.33s79.97-1.42,119.96-1.91c39.55-.48,79.16-.42,118.68-2.29,19.31-.91,38.6-2.21,57.83-4.23s39.34-3.9,57.69-10.37c4.7-1.65,9.27-3.55,13.96-5.21,.07-.02-.05-.84-.02-.84-4.36,.49-8.61,.64-12.98,.86-4.73,.24-9.4,.87-14.1,1.41-9.1,1.04-18.15,2.52-27.23,3.75-18.23,2.47-36.56,4.18-54.91,5.45-37.01,2.55-74.12,3.69-111.19,5.27-75.35,3.22-150.77,5.79-226.18,6.92-21.11,.32-42.22,.39-63.33,.07-20.44-.31-40.81-1.5-60.84-5.83,0,0-.04,.35,0,.37,9.36,5.08,18.82,6.1,29.26,5.34,.01,0,0-.14,0-.13h0Z"/><path class="cls-2" d="M1085.92,366.64c1.08-.76,2.42-.99,3.68-.56,.09,.03,.97,.37,.95,.48s-1.1,.07-1.2,.07c-.98,.03-1.97,.06-2.95,.09-3.77,.11-7.54,.23-11.3,.42-7.37,.36-14.73,.78-22.1,1.24-14.89,.94-29.77,2.08-44.62,3.43-29.56,2.68-59.03,6.29-88.38,10.68-16.54,2.48-33.05,5.21-49.51,8.2-.02,0,0,.21,0,.21,28.41-5.02,56.95-9.28,85.58-12.78,28.64-3.5,57.37-6.34,86.15-8.42,16.19-1.17,32.4-2.05,48.61-2.92,0,0,0-.18,0-.19-1.49-1.11-3.41-1.09-4.91,0,0,0,0,.05,0,.05h0Z"/><path class="cls-2" d="M1112.11,361.34c.11-.54,.1-.98-.08-1.51-.22-.65-.66-1.16-1.18-1.6-.7-.59-.77-.61-1.33-1.58-.37-.63-.34-.66-.99-.76,.11,.02-.3,3.87,.1,4.22,2.24,1.91,5.63,2.87,8.38,3.82s5.75,1.65,8.67,2.19,5.71,1,8.61,.77c3.12-.24,6.14-1.25,9.06-2.31,.09-.03,.03-1.46-.04-1.47-2.99-.63-5.93-1.5-8.94-2.02s-5.9-.69-8.85-1.14-5.64-1.08-8.44-1.76c-1.46-.35-2.9-.75-4.33-1.19-1.31-.41-2.85-1.11-4.22-1.11l.1,4.22c.19-.15,.4-.27,.62-.37,.26-.41,.46-.85,.59-1.32,.24-.14,.65,0,.88,.09,1.04,.45,1.57,1.69,1.38,2.77,0,.02,0,.04,0,.05h0Z"/><path class="cls-2" d="M1145.98,358.74c-2.27,1.56-5.03,2.49-7.44,3.8s-4.95,2.66-7.41,3.99c-5.15,2.79-10.46,5-16.1,6.56-.05,.01,0,.68,.02,.68,5.66,0,11.18-1.98,16.15-4.53,2.56-1.31,5.05-2.98,7.4-4.64,2.53-1.79,4.75-4.13,7.4-5.73,.02-.01-.02-.12,0-.13h0Z"/><path class="cls-2" d="M1154.52,358.11c-2.03,.5-4.27,.53-6.34,.76l-6.35,.69s0,.34,0,.34c14.47-.12,28.79-1.9,42.81-5.48l-.04-1.67c-11.65,4.84-23.71,8.77-35.81,12.31s-24.32,6.47-36.67,8.7c-7.02,1.27-14.09,2.26-21.19,2.98-.05,0,0,.84,.02,.84,12.61-.84,25.25-2.31,37.65-4.79,12.31-2.45,24.37-5.85,36.17-10.14,6.76-2.46,13.32-5.28,19.87-8.23,.21-.09-.14-1.64-.04-1.67-13.9,3.94-28.33,6.29-42.78,6.8v.34l6.35-.86c2.07-.28,4.26-.8,6.34-.79,0,0,0-.13,0-.13h0Z"/><path class="cls-2" d="M1030.09,393.12c.59-.42-.3-1-.59-1.27-.32-.3-.61-.84-1.02-.93s-1,.17-1.38,.28c-1.13,.34-2.11,.82-3.16,1.37-2.13,1.12-4.13,2.54-6.14,3.87-2.47,1.64-4.95,3.81-6.22,6.53l.1,3.11c.24-.98,.7-1.9,1.09-2.82,.09-.21,.02-.62,.01-.84,0-.1-.11-.6-.06-.66-.21,.27-.81,1.29-1.15,1.21,.15,.03-.32,2.92,.08,3.17,.88,.54,1.71,.13,2.58-.22s1.74-.83,2.55-1.38c1.81-1.23,3.5-2.68,5.22-4.03,1.82-1.42,3.53-3,5.05-4.74,.41-.46,.79-.94,1.18-1.42,.15-.19,.35-.35,.49-.54,.16-.21,.23-.49,.39-.69,.14-.16,.53-.51,.75-.51,.35,0,.39,.23,.21,.45,0,0,0,.05,0,.05h0Z"/><path class="cls-2" d="M896.07,407.83c-.51-1.03-.98-2.07-1.57-3.05l.06,2.52c5.6,2.22,11.38,3.8,16.86,6.36,5.47,2.57,10.48,5.73,15.15,9.57s8.58,7.99,11.71,13.07c3.61,5.87,5.62,12.34,7.04,19.05,.78,3.71,1.41,7.43,1.87,11.19,.21,1.75,.39,3.5,.56,5.26,.08,.87,.16,1.74,.24,2.61,.05,.6-.08,2.65,.4,2.92l-.25-10.16c-.98,0-.91-.7-1.09-1.4-.14-.52-.27-1.05-.41-1.57,.12,.45-.11,1.54,.02,2.18,.67,3.39,1.25,6.76,1.61,10.2,.07,.64,.08,.7,.24,.22,.27-.82,.08-2.08,.08-2.93-.04-8.09-.99-16.38-2.43-24.34-1.11-6.14-3.18-12.06-6.24-17.51-2.83-5.04-6.74-9.5-11.16-13.21s-9.69-6.55-14.98-8.81c-3.02-1.29-6.13-2.39-9.29-3.31s-6.56-1.8-9.97-1.93c-.03,0-.17,2.36,.06,2.52,.45,.31,.99,.42,1.51,.58,0,0,0-.05,0-.05h0Z"/><path class="cls-2" d="M916,409.73c1.68,4.97,4.21,9.51,7.13,13.87s6.22,8.66,8.81,13.34c5.09,9.21,8.27,19.74,10.12,30.07,.98,5.45,1.61,11.03,2.06,16.5,0,.03,.09,1.75,.27,1.51,.34-.47,.14-2.13,.14-2.63,.02-5.54-.13-11.08-.16-16.61,0-.67,.11-1.62-.11-2.26-.15-.43-.1,.69-.1,.79-.05,4.31-.23,8.26-.24,12.55l.41-1.12c-.88-10.48-2.05-21.13-5.27-31.18-1.39-4.34-3.18-8.53-5.79-12.27s-5.5-7.04-8.69-10.25c-3.59-3.62-7.17-7.35-8.57-12.41,0,.03-.01,.09,0,.13h0Z"/><path class="cls-2" d="M920.88,421.62c2.76,3.87,5.23,8,7.75,12.03,2.38,3.82,4.86,7.63,6.96,11.61,1.82,3.44,3.23,7.07,4.19,10.83,.43,1.69,.78,3.41,1.04,5.14,.13,.85,.24,1.71,.33,2.57,.03,.29,.06,.59,.08,.88,.02,.19,.12,1.42,.07,.84,.04,.5,.06,1,.09,1.5,.03,.58,0-.16-.01-.23,.01,.36,.03,.72,.04,1.08,.03,.64,0-.34-.01-.38,.05,.27,.02,.59,.02,.86,0,.21,0,.43,.01,.64,.02,.81,0-.98,0-.17,.02,2.98-.03,5.97,.18,8.94,.04,.63-.04,1.51,.19,2.08,0,0,.14,.79,.2,.25,.31-2.5,.76-5.05,1.4-7.49,.12-.47,.04-1.08,.02-1.56,0-.2-.2-1.1-.11-1.23-.45,.63-.89,.46-1.63,.26l.33,10.02c.2-.58,.12-1.41,.14-2.02,.02-.91,.01-1.82,.01-2.72,0-1,0-2-.01-3-.03-2.69-.08-5.38-.19-8.06-.19-4.72-.52-9.44-1.34-14.09-.65-3.72-1.66-7.35-3.32-10.75-.83-1.7-1.85-3.25-3.04-4.72s-2.47-2.55-3.8-3.8c-3.24-3.03-6.66-6.04-9.58-9.39,0,0,0,.04,0,.05h0Z"/><path class="cls-2" d="M944.16,471.33c-.26-.31-.45-.65-.59-1.03-.09-.26-.1-.53-.16-.8-.02-.09-.03-.18-.05-.27-.03-.12,.02,.2,0,.2,0,0,0-.14,0-.15,.07-.77,.39-1.52,.93-2.08,.06-.06-.05-.33,0-.37-.47,.35-.79,.87-.91,1.44-.07,.33-.08,.68-.07,1.02,0,.38,0,.83,.12,1.2v.02c.12-.02,.27,.36,.33,.44,.11,.16,.25,.3,.4,.42,0,0,0-.04,0-.05h0Z"/><path class="cls-2" d="M575.09,418.9c-.34-2.38-.58-4.77-.76-7.17l.1,5.47c2.54,1.92,5.46,3.16,8.09,4.95s4.74,3.77,6.71,6.06c2.18,2.52,4.05,5.3,5.74,8.17s3.08,5.97,4.8,8.84c.14-.22,.2-.47,.18-.74,.17-1.91,.15-3.82,.94-5.6,.11-.25-.09-2.37-.08-2.38-.39,.15-2.9-5.1-3.31-5.82-.78-1.4-1.59-2.78-2.44-4.13-1.72-2.73-3.61-5.37-5.81-7.74-1.96-2.11-4.18-4-6.63-5.51s-5.45-2.94-8.35-1.96c-.19,.07-.09,5.77,.14,5.87,.59,.23,.57,1.26,.66,1.75,0-.01,0-.04,0-.05h0Z"/><path class="cls-2" d="M604.5,439.43c.48,2.96,1.37,3.96,2.65,3.01,.24-.15,.49-.29,.73-.44,.38-.23,.74-.46,1.1-.72,.87-.62,1.71-1.27,2.57-1.89,1.72-1.25,3.45-2.49,5.2-3.7,3.51-2.44,7.05-4.85,10.64-7.17s7.25-4.58,10.94-6.74c1.85-1.08,3.71-2.15,5.58-3.19,.87-.48,1.74-.96,2.61-1.44,.47-.26,.94-.51,1.41-.76,.76-.41,.87-.52,1.31-1.3,.27-.47,.19-1.88,.2-2.32,.02-1.07,.01-2.14-.03-3.21-.03-.96-.08-1.93-.19-2.89-.04-.33-.02-1.28-.34-1.47l-.25,6.38,.25-6.38c-.63-.38-1.02,.07-1.63,.4-.54,.29-1.08,.58-1.61,.88-.94,.52-1.88,1.04-2.81,1.56-1.87,1.05-3.72,2.12-5.57,3.22-3.89,2.3-7.72,4.69-11.5,7.17s-7.38,4.98-10.97,7.63c-1.8,1.33-3.58,2.68-5.35,4.05-.89,.69-1.76,1.4-2.55,2.2-.47,.48-.78,.86-.93,1.54-.13,1.51-.38,3-.77,4.47-.22,.34-.45,.66-.71,.96-.01,.02,0,.13,0,.13h0Z"/><path class="cls-2" d="M382.24,379.25c-2.03-1.2-3.89-2.88-5.78-4.31s-3.86-2.91-5.78-4.38l.02,.95c.62,.35,1.2,.79,1.84,1.1s1.39,.48,2.06,.7c1.37,.46,2.75,.92,4.12,1.37,2.67,.87,5.36,1.72,8.05,2.54,5.28,1.61,10.63,3.03,15.97,4.42,10.73,2.79,21.46,5.54,32.3,7.85,21.7,4.62,43.68,7.99,65.66,10.91,6.18,.82,12.36,1.61,18.54,2.37,1.21,.15,2.43,.25,3.65,.27s2.22-.44,3.28-.93,2.32-1,3.13-1.88c.89-.98,1.73-2.18,2.35-3.35,.15-.28,.05-.83,.04-1.13,0-.14-.16-1.07-.1-1.13-.26,.25-.53,.46-.84,.65-.45,.28-.64,.24-1.15,.17-.92-.12-1.84,.08-2.76-.04-1-.14-1.97-.5-2.93-.78s-2.09-.29-3.12-.44c-5.39-.79-10.84-1.28-16.26-1.88-10.93-1.21-21.86-2.43-32.78-3.71-21.79-2.56-43.61-5.5-65.16-9.69-6.06-1.18-12.07-2.6-18.06-4.09-2.91-.72-5.83-1.43-8.73-2.19-1.53-.4-3.05-.81-4.58-1.23-.76-.21-1.52-.47-2.28-.63s-1.49-.12-2.27-.18c-.03,0-.08,.88,.02,.95,1.93,1.29,3.84,2.6,5.77,3.9s4.01,2.49,5.77,3.97c-.02-.01,.03-.12,0-.13h0Z"/><path class="cls-2" d="M330.6,332.33c9.36,7.26,19.83,13.03,30.98,17.04,0,0,.02-.1,0-.11-11.15-4.01-21.6-9.74-30.98-16.99,0,0,0,.04,0,.05h0Z"/><path class="cls-2" d="M517.91,347.48c-1.42-1.63-2.61-3.52-3.89-5.27-1.49-2.05-4.04-4.56-4.16-7.17l-.19,5.97c2.59,3.19,6.08,5.58,9.46,7.87s6.59,4.18,10.05,5.98,7.02,3.39,10.67,4.76c1.85,.7,3.73,1.33,5.62,1.91,.82,.25,2.08,.48,2.83-.1,.46-.36,.71-1.05,1.19-1.44,.56-.46,1.02-1.03,1.6-1.49,.19-.15,.1-1.61-.04-1.79-.61-.75-1.06-1.59-1.69-2.32-.58-.67-.76-1.44-1.27-2.1-.69-.88-1.84-1.44-2.88-1.75-1.89-.58-3.77-1.22-5.62-1.9-3.64-1.34-7.21-2.89-10.67-4.65s-6.82-3.71-10.04-5.86c-1.64-1.09-3.25-2.24-4.83-3.43-1.48-1.12-2.93-2.3-4.59-3.1-.06-.03-.24,4.35-.23,4.72,.03,1.11,.07,2.22,.18,3.33,.01,.13,.21,1.42,.28,1.37,2.42-1.6,1.76-2.02,2.77-.69l.72,.95,1.58,2.09c1.06,1.4,2.21,2.78,3.17,4.25-.02-.03,.02-.1,0-.13h0Z"/><path class="cls-2" d="M805.13,284.29c-1.5-1.46-2.25-3.57-1.91-5.68,.1-.62,.29-1.22,.56-1.78,.14-.28,.3-.55,.48-.81,.48-.66,.5-.76,1.06-.02,1.11,1.49,3.15,2.32,4.72,3.26,1.71,1.03,3.42,2.05,5.14,3.08,6.56,3.93,13.13,7.86,19.7,11.78,13.3,7.94,26.58,15.91,39.87,23.86,3.33,1.99,6.64,4.36,10.21,5.9,1.32,.57,3.01,1.25,4.47,1.02s2.85-1.56,3.63-2.78c.1-.15-.13-.76-.02-.84-1.08,.84-2.09,.76-3.37,.56-1.47-.24-2.89-.42-4.3-.96-3.39-1.3-6.5-3.49-9.63-5.31-7.29-4.24-14.58-8.48-21.87-12.73-14.45-8.43-28.85-16.94-43.26-25.44-1.07-.63-2.14-1.26-3.21-1.9-.46-.27-.97-.66-1.5-.79-.6-.14-.88-.03-1.27,.4-.87,.95-1.35,2.29-1.49,3.56-.23,2.1,.39,4.21,1.97,5.67,0,0,0-.04,0-.05h0Z"/><path class="cls-2" d="M1017.13,391.79c.51,.19,.5-.29,.49-.66-.04-1.1-.93-1.38-1.76-.65-1.19,1.06-2.21,2.45-3.28,3.63-1.31,1.44-2.64,2.87-3.96,4.3-4.93,5.34-9.88,10.67-14.88,15.94-5.09,5.37-10.15,10.81-15.59,15.82s-10.5,10.16-15.65,15.35c-2.99,3.01-5.96,6.04-8.96,9.04-1.56,1.56-3.12,3.11-4.69,4.66s-3.27,3.01-4.51,4.86l.55,1.31-.17-1.07,.1,4.07c.24-1.21,.67-2.27,1.36-3.28,.22-.33,.08-1.26,.06-1.62,0-.13-.17-1.27-.17-1.27-.57,.44-1.39,1.21-1.74,1.85-.32,.57-.24,1.5-.27,2.13-.05,1.4,0,2.81,.06,4.21,.01,.2,.4,3.85,.6,3.75,1.46-.71,2.57-2.17,3.72-3.31,1.35-1.34,2.69-2.69,4.02-4.04,2.51-2.53,5-5.08,7.48-7.64,5.11-5.28,10.12-10.68,14.87-16.29,2.41-2.85,4.63-5.86,7.05-8.69s4.88-5.74,7.3-8.63c4.74-5.67,9.43-11.38,14.02-17.17,2.57-3.24,5.12-6.5,7.63-9.79,1.31-1.71,2.62-3.42,3.93-5.13,.51-.67,1.02-1.55,1.75-2.02,.21-.13,.58-.42,.86-.29,.41,.2,.07,.54-.23,.6,0,0,0,.05,0,.05h0Z"/><path class="cls-2" d="M1111.63,353.47c.62-.58-.55-.7-.89-.84-.05-.02-.07,.45-.07,.45-.01,.7,.03,1.34,.46,1.92,.57,.77,1.48,1.24,2.25,1.78,1.76,1.25,3.52,2.51,5.42,3.53,1.76,.95,3.57,1.43,5.58,1.26s3.84-.95,5.33-2.25c.13-.11-.05-.72-.02-.74-2.96,1.87-6.71,.66-9.64-.66-1.68-.76-3.25-1.64-4.81-2.61-.81-.51-1.63-.98-2.47-1.43-.62-.33-1.64-.59-1.97-1.27l.11,.83c-.02-.63,.12-.7,.51-.59,.12,.04,.66,.48,.21,.47-.02,0,0,.14,0,.13h0Z"/><path class="cls-2" d="M1128.55,349.06c.56,3.85,.83,5.12,.82,3.82h0s0-.06,0-.09c-.01-.07-.02-.13-.04-.19-.05-.14-.14-.25-.26-.34l.03,.16-.05-.88c-.03-.58-.09-1.17-.2-1.74-.03-.18-.08-.63-.29-.72-.35-.14-.71-.52-.95-.72-.21,.17-.31,.39-.31,.67-.26,1.41-.26,2.89-.23,4.32,.02,.92,.07,1.85,.17,2.77,.08,.72,.16,1.49,.38,2.19,.1,.3,.19,.6,.36,.87,.41,.62,1,1.03,1.66,1.33,.37,.17,.56-2.63,.56-2.67,.11-1.5,.07-3.04-.02-4.54-.08-1.19-.2-2.36-.46-3.52-.12-.56-.32-1.13-.62-1.62-.47-.74-1.24-1.39-2.11-1.6-.82-.19-1.68,.02-2.37,.5-.91,.64-1.41,1.54-1.62,2.63-.17,.86-.22,1.74-.25,2.62-.04,1.18-.04,2.38,.05,3.56,.06,.8,.13,1.61,.26,2.41,.05,.32,.16,1.37,.59,1.59,.35,.18,.62,.26,1.01,.23,.16-.01,.35-.02,.51-.07,.26-.09,.49-.52,.63-.75l-.17,.17c.19-.18,.37-.37,.54-.57,.07-.08,.17-.17,.22-.26,.1-.19,.12-.44,.2-.64l-.12,.12c.63-.58,1.21-1.23,1.75-1.9,.28-.34,.48-.75,.71-1.13s.41-.74,.57-1.13,.12-.96,.1-1.39c-.01-.24-.03-.49-.07-.72,0-.04-.09-.41-.14-.37-.18,.14-.38,.26-.6,.35-.13,.05-.2,.08-.33,.07-.14-.02-.25-.04-.39-.02-.29,.03-.55,.03-.82-.06-.32-.11-.63-.24-.93-.39l.13,.12c-.09,.12-.14,0-.15-.36-.02-.15-.1-.27-.23-.35-.11-.1-.22-.19-.32-.29l.17,.15c-.16-.15-.32-.3-.49-.44l.18,.16c-.17-.26-.38-.64-.67-.78-.17-.08-.35-.14-.51-.22s-.33-.19-.5-.26-.35-.13-.51-.21l.64,10.17c.02-.11,.05-.22,.08-.33l-.17,.55c.16-.49,.43-.91,.78-1.27l-.2,.2c1.16-1.12,2.89-1.26,4.12-.16l-.2-.19c.39,.36,.68,.8,.86,1.29l-.19-.54c.04,.1,.06,.21,.09,.32-.12-.52-.21-1.05-.25-1.59-.16-1.63-.2-3.27-.12-4.91l.56-2.67c-.49-.21-1.05-.45-1.44-.81l.19,.18c-.13-.13-.27-.3-.33-.48l.17,.5,.13,.66,.22,2.16v-.05l.06,2.6c.01-.91-.01-1.81-.07-2.72l-.14,4.75,.02-.08-.12,.42c.14-.45,.39-.86,.71-1.21l-.12,.12,.05-.04c.24-.18,.26-.76,.29-.99,.09-.78,.1-1.6,.07-2.38s-.05-1.6-.19-2.38c-.04-.25-.07-.87-.34-.98h0Z"/></g><g><path class="cls-3" d="M623.28,401.7c-2.26,1.02-4.91,1.5-7.3,2.11s-4.91,1.21-7.39,1.74c-4.8,1.02-9.64,1.85-14.5,2.51-9.89,1.33-19.88,1.84-29.85,1.53-.08,0-.08,.34,0,.36,8.66,1.46,16.47,5.96,22.92,11.82,3.49,3.17,6.61,6.74,9.46,10.49s5.27,7.7,7.92,11.55c.05,.07,.07-.18,.04-.23-3.61-6.28-8.01-12.34-12.89-17.69s-10.33-9.79-16.73-12.86c-3.4-1.64-7-2.81-10.73-3.44v.36c9.98,.29,19.97-.22,29.86-1.57,4.87-.66,9.7-1.55,14.49-2.63,2.47-.56,4.94-1.17,7.39-1.84s4.85-1.67,7.3-2.08c.04,0,.01-.14,0-.13h0Z"/><path class="cls-3" d="M601.15,442.41c2.98,2.65,6.59-.4,9.07-2.33,3.68-2.88,7.47-5.63,11.38-8.18,8.02-5.23,16.56-9.66,25.45-13.22,4.95-1.98,10.03-3.7,15.15-5.22,.07-.02,.04-.28,0-.26-17.7,4.62-34.61,13.15-49.12,24.26-1.93,1.48-3.71,3.24-5.76,4.55-1.64,1.05-4.74,2.45-6.14,.28-.02-.03-.05,.09-.01,.12h0Z"/><path class="cls-3" d="M644.71,415.38c-.35,.73-1.17,.5-1.63,0-1.16-1.27,.29-2.3,1.48-2.51,1.85-.33,3.94,.16,5.79,.32,4.46,.4,8.94,.73,13.41,1.07,8.94,.68,17.88,1.32,26.82,1.91,17.88,1.19,35.78,2.09,53.68,2.87,17.99,.79,35.98,1.38,53.98,1.79s35.82,.65,53.73,.73c17.92,.08,35.84,.58,53.76,.75,2.29,.02,4.44-.03,6.71-.36,.99-.14,.89-4.26-.11-4.37-4.63-.49-9.32,0-13.97,.18s-9.49,.37-14.23,.53c-9.4,.33-18.79,.67-28.2,.68-18.72,.03-37.43-.11-56.15-.43s-37.6-.82-56.39-1.45-37.39-1.49-56.08-2.4c-9.39-.46-18.77-.96-28.15-1.5-4.46-.26-9.04-.84-13.52-.72-1.37,.04-4.2,1.06-2.77,2.85,.49,.61,1.43,.97,1.83,.11,0-.01,0-.06-.01-.05h0Z"/><path class="cls-3" d="M847.91,415.36c-2.01,.67-4.59,.28-6.57-.32-1-.3-2.62-.77-3.4-1.54-.25-.25-.37-.05-.2-.34,.03-.05,1.03-.09,.99-.09l2.23-.2c5.28-.48,10.56-.95,15.83-1.43,10.64-.96,21.27-2.07,31.91-3.11,18.88-1.84,38.13-2.98,56.54-7.85,9.79-2.59,19.28-6.32,27.74-11.94,.05-.04,.02-.28-.03-.25-14.36,9.04-30.92,13.23-47.56,15.62-8.57,1.23-17.2,2.04-25.82,2.88l-29.19,2.85c-11.05,1.08-22.1,2.23-33.14,3.39-.04,0-.03,.15,0,.17,1.5,1.01,3.14,1.75,4.9,2.14,1.98,.44,3.78,.19,5.77,.15,.04,0,.02-.14,0-.13h0Z"/><path class="cls-3" d="M897.83,408.5c12.44,.2,20.09,13.44,25.26,23.04,6.41,11.91,10.85,24.88,13.01,38.23,.85,5.26,1.19,11.93,6.12,15.17,.09,.06,.16,0,.21-.08,.58-.79,1.23-1.34,1.92-2.01,.58-.57,1.03-1.27,1.51-1.92,1.19-1.6,2.39-3.2,3.6-4.8,2.33-3.08,4.66-6.16,7.02-9.22,4.68-6.08,9.46-12.08,14.32-18.01,9.74-11.87,19.79-23.5,30.19-34.8,5.9-6.41,12.15-12.52,17.96-19,.43-.48,.53-2.46-.07-2.86-1.41-.92-2.81-1.83-3.83-3.21-1.17-1.59-1.76-3.48-2.07-5.4l-.09,.4c3.76,4.65,2.67,11.58-1.82,15.33-.08,.07-.02,.45,.04,.4,5.01-3.61,5.61-11.59,1.8-16.27-.08-.09-.09,.37-.09,.4,.66,4.02,2.82,8.46,5.87,11.19l-.07-2.86c-5.45,4.99-10.45,10.58-15.49,15.98s-9.86,10.72-14.68,16.19c-9.7,11.01-19.05,22.31-28.07,33.88-4.5,5.77-8.93,11.6-13.23,17.53-1,1.38-2.12,2.74-3.02,4.19-.56,.9-.86,1.98-1.49,2.83s-1.08,.23-1.68-.33c-2.2-2.05-3.07-5.11-3.64-7.97-.63-3.18-1.02-6.39-1.68-9.57s-1.51-6.6-2.47-9.85c-1.93-6.54-4.4-12.91-7.39-19.04-3.22-6.59-6.92-13.28-11.76-18.83-4.17-4.78-9.63-8.83-16.23-8.83-.01,0-.01,.05,0,.05h0Z"/><path class="cls-3" d="M997.95,414.86c-.21-.3-.21-1.13-.05-1.41,.12-.2,.3-.33,.47-.47,.25-.21,.52-.39,.8-.56,.93-.54,1.93-.67,2.97-.84,1.96-.33,3.92-.64,5.88-.94,4.01-.61,8.02-1.18,12.04-1.72,8.06-1.09,16.14-2.01,24.18-3.19,15.95-2.33,31.92-5.07,47.36-9.8,8.53-2.62,16.86-5.86,24.83-9.89,.33-.17,.28-1.72-.12-1.8-3.11-.67-6.29-1-9.44-1.43-.12-.02-.13,.59,.02,.63,3.14,.92,6.27,1.95,9.47,2.63l-.12-1.8c-15.25,7.75-31.77,12.49-48.49,15.83s-34.01,5.5-51,8.23c-4.74,.76-9.47,1.56-14.18,2.45-1.63,.31-3.55,.54-4.59,2.02-.48,.69-.63,1.47-.02,2.11,0,0,.01-.04,0-.05h0Z"/><path class="cls-3" d="M1085.35,381.32c-.5-.23-.6-.62-.31-1.19,.38-.05,.74-.01,1.1,.12,.62,.11,1.24,.31,1.86,.45,1.09,.25,2.18,.48,3.27,.7,2.42,.47,4.86,.9,7.31,1.15,4.81,.48,9.69,.42,14.5,.07,.08,0,.07-.37,0-.37-6.28,.04-12.55-.5-18.77-1.33-1.49-.2-2.98-.43-4.46-.7-.78-.14-1.56-.29-2.33-.45-.46-.09-1.87-.66-2.32-.51-1.02,.35-.53,1.85,.14,2.2,.03,.01,.04-.12,0-.13h0Z"/><path class="cls-3" d="M1108.86,386.67c2.04-.54,4.3-.52,6.39-.84s4.24-.74,6.34-1.17c4.21-.85,8.39-1.86,12.53-3.02,8.15-2.28,16.14-5.15,23.88-8.57,7.74-3.42,15.41-7.25,22.57-11.76,3.63-2.29,7.18-4.72,10.64-7.27,1.34-.99,2.67-2.07,2.87-3.84,.15-1.39-.19-2.88-1.46-3.63-1.72-1.01-4.15-.91-6.07-1.12-2.78-.31-5.57-.52-8.36-.74-5.58-.44-11.17-.78-16.75-1.2-.14-.01-.15,.66,.02,.68,9.15,1.05,18.24,2.53,27.36,3.75,.9,.12,4.5,.36,4.44,1.7-.03,.63-1.3,1.49-1.77,1.85-.85,.66-1.73,1.3-2.6,1.94-3.19,2.34-6.47,4.57-9.81,6.68-6.86,4.34-13.83,8.37-21.21,11.77s-14.97,6.29-22.73,8.67c-4.26,1.3-8.58,2.45-12.93,3.42-2.17,.49-4.36,.93-6.55,1.34s-4.56,1.18-6.8,1.21c-.04,0-.02,.14,0,.13h0Z"/><path class="cls-3" d="M452.22,377.05c11.32-3.36,23.11-5.62,34.65-8.13s23.24-4.82,34.92-6.96c23.37-4.27,46.87-7.85,70.4-11.08,46.83-6.44,93.84-11.89,140.86-16.77,46.9-4.87,93.91-8.78,141.03-10.82,46.89-2.03,93.88-2.35,140.75,.25,46.71,2.59,93.29,8.06,139.16,17.3,5.86,1.18,11.71,2.43,17.55,3.73,.19,.04,.36-1.65-.04-1.74-45.7-10.19-92.17-16.58-138.86-19.92-46.77-3.35-93.77-3.8-140.62-2.07-47.12,1.74-94.14,5.5-141.05,10.23-47,4.73-93.94,10.29-140.77,16.49s-94.12,13.71-140.35,24.83c-5.89,1.42-11.71,3.2-17.62,4.52-.04,0-.02,.14,0,.13h0Z"/><path class="cls-3" d="M759.23,319.61c-.59-.65-1.13-1.26-1.94-1.65-.17-.09-.91-.46-1.06-.37-.14,.09,1.04,.23,1.08,.23,2.25,.13,4.49,.02,6.73-.17,3.95-.32,7.93-.73,11.85,.03,3.61,.69,6.76,2.28,9.07,5.17,.37,.46,1.45,1.51,1.68,.42,.07-.33-.2-1.12-.58-.69-.04,.05-.02,.29,.03,.25-.63,.51-1.09-.58-1.48-1.05-.32-.38-.66-.74-1.02-1.07-.88-.81-1.89-1.48-2.96-2.01-2.05-1.02-4.32-1.57-6.59-1.82-6.06-.65-12.1,.96-18.17,.64-.04,0-.04,.18,0,.18,1.35,.17,2.64,.82,3.34,2.03,.02,.03,.05-.09,.01-.12h0Z"/><path class="cls-3" d="M760.23,316.81c-1.45-.46-2.67-.93-4.23-.79-.62,.06-1.37,.14-1.92,.43,.77-.41-.59,.35-.36,.26,.47-.18,.99-.72,1.4-1.02,2.43-1.79,4.83-3.65,7.17-5.56,4.8-3.91,9.43-8.05,13.77-12.46s8.52-9.09,12.43-13.95c1.92-2.39,3.79-4.82,5.59-7.3s3.53-5,6.34-6.33c5.35-2.53,11.46,.36,16.02,3.25,5.2,3.28,9.92,7.32,14.95,10.86,10.42,7.33,21.34,13.93,32.52,20.01,6.26,3.41,12.64,6.64,19.18,9.49,3.32,1.45,6.67,2.84,10.04,4.16,1.65,.65,3.31,1.28,4.97,1.9,.83,.31,1.66,.64,2.5,.91s1.55,.06,2.4-.09c.23-.04,.14-.67,.02-.78-.63-.56-1.25-1.29-2.02-1.64-.66-.31-1.4-.49-2.09-.73-1.53-.54-3.05-1.1-4.57-1.67-2.9-1.09-5.78-2.22-8.64-3.4-5.63-2.33-11.23-4.76-16.73-7.36-11.11-5.26-21.78-11.34-32.02-18.16-5.1-3.39-10.09-6.95-14.95-10.67-4.25-3.24-8.89-6.62-14.22-7.76-2.38-.51-4.88-.46-7.14,.53-2.61,1.14-4.37,3.32-6,5.57-3.57,4.91-7.3,9.69-11.29,14.26-9.01,10.31-19.08,19.74-29.99,28-.04,.03-.03,.22,.02,.19,2.02-1.02,4.88-1.35,6.86-.03,.02,.02,.05-.12,0-.13h0Z"/><path class="cls-3" d="M500.9,363.99c-.28,.68,.76,.99,1.08,.41,.76-1.38-2.55-2.86-3.3-3.17-5.28-2.23-10.83-1.19-16.34-.97l.16,1.33c1.2-2.75,3.41-5.23,5.53-7.3,2.33-2.28,4.84-4.37,7.21-6.6s4.58-4.61,6.13-7.45c.87-1.59,1.43-3.36,2.45-4.87s2.66-2.5,4.46-2.86c7.95-1.56,13.18,6.26,18.5,10.67,5.63,4.67,12.34,7.98,19.41,9.81,4.01,1.04,8.16,1.56,12.31,1.56s8.52-1.07,12.48-2.45c.26-.09,.22-1.09-.03-1.05-3.68,.6-7.44,.81-11.16,.64s-7.48-.39-11.21-1.18c-7.44-1.57-14.52-4.76-20.52-9.46-5.58-4.37-10.51-12.21-18.47-11.8-3.76,.19-6.08,2.48-7.58,5.76s-3.28,5.92-5.78,8.45c-2.63,2.66-5.59,4.97-8.19,7.65s-4.68,5.67-5.87,9.37c-.05,.15-.13,1.3,.21,1.22,3.38-.81,6.99-1.17,10.46-.98,1.66,.09,3.32,.34,4.9,.85,.86,.28,1.7,.63,2.52,1.02,.31,.14,.73,.29,.99,.53,.53,.29,.61,.8,.24,1.52-.31,.04-.5-.14-.57-.52,.04-.03,0-.17-.03-.11h0Z"/><path class="cls-3" d="M351.65,361.4c1.97,.83,3.84,2.11,5.73,3.13s3.85,2.03,5.81,3.01c3.82,1.91,7.7,3.7,11.62,5.39,8,3.44,16.18,6.42,24.49,9,16.56,5.15,33.56,8.77,50.68,11.41,17.8,2.75,35.74,4.41,53.7,5.66,19.22,1.33,38.47,2.19,57.7,3.4,19.11,1.2,38.2,2.79,57.18,5.42,2.39,.33,4.78,.68,7.17,1.05,.02,0,.02-.1,0-.11-18.92-3.05-38.01-4.8-57.11-6.11-19.22-1.31-38.47-2.18-57.69-3.41-18.11-1.16-36.21-2.65-54.19-5.16-17.18-2.4-34.26-5.71-50.94-10.48-16.7-4.77-33.04-10.99-48.4-19.12-1.9-1.01-3.98-1.94-5.72-3.21-.02-.02-.05,.11,0,.13h0Z"/><path class="cls-3" d="M459.37,398.55c1.45-.01,2.94,.31,4.38,.49s2.92,.36,4.39,.53c2.84,.33,5.69,.65,8.54,.94,5.78,.6,11.56,1.11,17.35,1.55,11.42,.86,22.86,1.4,34.31,1.64,23.14,.47,46.31-.32,69.36-2.42,6.43-.59,12.86-1.27,19.27-2.06,1.47-.18,5.02-.03,5.51-1.98,.24-.95-.66-2.35-1.68-1.72-.04,.03-.01,.22,.02,.2,.56-.34,1.13-.08,1.43,.48,.56,1.06-.33,1.8-1.17,2.13-1.12,.45-2.45,.47-3.64,.61-2.6,.32-5.2,.62-7.8,.91-5.45,.6-10.9,1.13-16.36,1.59-10.84,.91-21.7,1.55-32.58,1.91-21.58,.71-43.2,.3-64.74-1.21-6.12-.43-12.23-.95-18.33-1.56-3.01-.3-6.02-.62-9.03-.97-1.46-.17-2.92-.34-4.39-.52-1.6-.2-3.31-.26-4.87-.68-.02,0-.03,.13,0,.13h0Z"/><path class="cls-3" d="M624.29,400.67c-5.95,4.02-13.05,5.58-20.05,6.65-8.06,1.24-16.14,2.37-24.27,3.06-4.63,.39-9.27,.68-13.91,.89-.47,.02-.41,1.95,.05,2.08,7.77,2.08,15.05,5.78,21.34,10.8,3.1,2.47,5.95,5.25,8.5,8.29,1.41,1.69,2.72,3.45,3.92,5.29,1.05,1.61,1.91,3.37,3.09,4.89,.96,1.23,2.18,2.4,3.82,2.45,1.8,.06,3.04-1.18,4.15-2.42,2.61-2.93,5.41-5.74,8.32-8.37,6.04-5.45,12.99-9.92,20.46-13.15,4.21-1.82,8.54-3.16,12.98-4.28,2.18-.55,4.36-.99,6.52-1.62,2.3-.68,4.62-1.23,6.98-1.68,.26-.05,.23-1.13-.03-1.16-4.02-.46-8.05-.78-12.05-.05s-7.85,1.9-11.61,3.34c-7.54,2.88-14.64,6.95-20.9,12.04-3.15,2.56-6.15,5.38-8.7,8.55-1.28,1.59-2.45,3.28-3.61,4.97-1.37,1.99-3.18,2.51-5.07,.81-1.49-1.33-2.36-3.19-3.39-4.86s-2.15-3.28-3.34-4.84c-2.42-3.15-5.16-6.05-8.16-8.66-6.71-5.82-14.7-10.1-23.28-12.43l.05,2.08c8.31-.33,16.6-1.12,24.84-2.29,7.67-1.08,15.46-2.33,22.8-4.88,3.76-1.31,7.35-3.05,10.53-5.46,.01,0,0-.06,0-.05h0Z"/><path class="cls-3" d="M448.15,375.36c-5.11-3.1-10.12-6.41-15.33-9.34s-10.25-5.77-15.37-8.65c-10.19-5.73-20.49-11.26-30.77-16.83-9.42-5.11-19.09-9.95-28.22-15.56-4.48-2.75-8.85-5.65-13.36-8.35s-8.77-5.39-13.04-8.25c-4.75-3.19-9.4-6.54-13.89-10.08s-8.86-7.58-13.29-11.38c-.55-.47-1.09,.48-1.21,.86-4.28,14.04-5.87,28.7-3.79,43.28,1,7.06,2.82,14,5.44,20.63,1.76,4.44,5.08,14.36,11.6,10.5,2.52-1.49,4.2-4.1,6.97-5.25s5.89-.58,8.53,.59c6.4,2.84,10.93,8.48,15.56,13.5,5.49,5.95,10.97,11.89,16.46,17.84,5.17,5.6,10.49,11.1,15.31,17.01,2.47,3.03,4.82,6.21,6.58,9.71,.84,1.66,1.58,3.38,2.09,5.16,.15,.5,.34,1.28,.41,1.64,.07,.34,.12,.69,.17,1.03,.02,.14,.15,1.23,.12,.91,.26,2.85,.02,5.39-1.13,8.27s-3.07,5.21-5.62,6.89c-.92,.61-.91,2.47-.83,3.39,.05,.57,.33,2.81,1.31,2.63,25.86-4.57,41.68-28.42,64.41-39.29,3.27-1.57,6.68-2.84,10.22-3.68s7.16-1.76,10.7-1.65c1.36,.04,1.37-5.53-.14-5.58-3.23-.1-6.3-.32-9.52,.28s-6.13,1.64-9.04,2.84c-6.05,2.49-11.64,5.97-16.93,9.79-10.32,7.47-19.44,16.53-30.27,23.32-6.01,3.77-12.56,6.62-19.59,7.82l.49,6.03c5.14-3.35,7.65-9.2,8.41-15.1,.85-6.65-.66-13.34-3.88-19.18s-7.94-10.99-12.61-15.91c-5.69-5.98-11.2-12.14-16.8-18.21l-8.4-9.11c-2.62-2.84-5.17-5.78-7.92-8.5-4.09-4.02-9.73-8.74-15.89-8.21-3.09,.27-5.28,2.09-7.49,4.07-2.05,1.83-4.77,3.81-7.29,1.48-1.08-1-1.72-2.41-2.35-3.71-.8-1.68-1.55-3.39-2.23-5.13-1.25-3.16-2.29-6.4-3.13-9.69-3.82-14.93-3.61-31.41,1.95-45.89l-1.51,.54c7.06,7.51,15.58,13.81,24.02,19.67s17.13,11.28,26.3,15.88c19.78,9.92,39.08,20.79,58.84,30.74,5.73,2.89,11.47,5.78,17.2,8.66s11.78,5.48,17.69,8.2c.18,.08,.2-.57,.05-.66h0Z"/><path class="cls-3" d="M373.74,370.7c1.28,.25,2.54,.78,3.79,1.15,1.34,.4,2.7,.77,4.06,1.12,2.57,.65,5.16,1.21,7.77,1.68,5.31,.96,10.67,1.59,16.05,1.98,11.04,.81,22.15,.93,33.22,1.04,22.74,.22,45.48-.27,68.19-1.48,12.8-.68,25.58-1.59,38.35-2.73,.03,0,.02-.11,0-.11-22.65,1.99-45.36,3.27-68.09,3.83-11.32,.28-22.65,.38-33.98,.3s-22.17-.2-33.23-.82c-6.01-.34-12.02-.86-17.97-1.76-2.92-.44-5.83-.98-8.71-1.64-1.52-.35-3.02-.72-4.52-1.14-1.62-.45-3.39-.83-4.91-1.57-.03-.01-.05,.12,0,.13h0Z"/><path class="cls-3" d="M420.43,374.64c2.32,3.1,6.21,3.71,9.86,3.61,5.19-.14,10.43-1.16,15.56-1.89,11.54-1.64,23.02-3.57,34.49-5.64,22.94-4.14,45.79-8.82,68.7-13.13s46-8.19,69.12-11.55,46.33-6.22,69.58-8.59c23.25-2.37,46.55-4.21,69.88-5.63,2.94-.18,5.89-.35,8.83-.51,.04,0,.03-.16,0-.16-23.11,1.17-46.2,2.88-69.23,5.09s-46.25,4.92-69.29,8.11c-22.92,3.18-45.78,6.85-68.55,10.99s-45.56,8.81-68.36,13.06c-11.34,2.12-22.71,4.1-34.1,5.95-5.7,.93-11.4,1.81-17.12,2.62-4.46,.63-9.26,1.72-13.77,.88-2.25-.42-4.2-1.42-5.6-3.25-.01-.01-.02,.04,0,.05h0Z"/><path class="cls-3" d="M799.39,269.87c-1.7,1.25-3.23,2.37-4.61,4s-2.52,3.28-3.77,4.92c-2.71,3.54-5.54,6.99-8.48,10.34-5.89,6.71-12.23,13-18.93,18.91-3.86,3.4-7.84,6.64-11.94,9.74-.14,.1-.16,.85,.06,.86,7.57,.28,15.36,.45,22.79,2.05,5.98,1.29,11.26,3.83,14.75,9.01,.18,.27,.21-.7,.13-.87-2.42-5.54-8.66-8.05-14.21-9.24-7.66-1.65-15.69-1.59-23.49-1.83l.06,.86c14.27-10.88,27.03-23.64,37.94-37.88,1.47-1.92,2.87-3.91,4.35-5.83,1.37-1.78,3.16-4.12,5.36-4.91,.04-.02,.01-.15,0-.13h0Z"/><path class="cls-3" d="M751.15,318.25c3.79-.38,7.78-.35,11.58-.25s7.33,.38,10.89,1.12c3.12,.65,6.18,1.82,8.99,3.33,1.38,.75,2.71,1.61,3.93,2.59,.56,.45,1.1,.93,1.62,1.43,.22,.21,.39,.44,.69,.52,.41,.12,.69-.28,1.12,.04,.14,.1,.12-.59,.07-.68-.52-.86-.63-1.97-1.27-2.76-.51-.61-1.27-1.15-1.89-1.63-1.22-.94-2.54-1.75-3.92-2.45-2.79-1.42-5.76-2.22-8.83-2.76-3.64-.64-7.29-.69-10.97-.37-1.93,.16-3.86,.41-5.78,.68-2.08,.3-4.17,.8-6.25,1.05-.03,0-.03,.14,0,.13h0Z"/><path class="cls-3" d="M616.83,412.11c2.51-.25,5.21,.11,7.73,.2s5.15,.14,7.73,.19l15.21,.29c9.93,.19,19.88,.29,29.79,1.13,5.6,.47,11.17,1.08,16.7,2.11,.04,0,.05-.2,0-.21-9.72-2.01-19.57-2.79-29.48-3.11-10.07-.33-20.16-.39-30.24-.55-2.83-.04-5.65-.1-8.48-.1h-4.49c-1.48,0-3.03,.13-4.49-.07-.03,0-.03,.14,0,.13h0Z"/><path class="cls-3" d="M572.05,418.12c-1.77-1.08-2.95-3.39-3.47-5.32l-.09,.56c8.03,2.73,15.37,6.85,21.8,12.38,3.13,2.7,6.07,5.59,8.79,8.69,1.43,1.63,2.79,3.33,4.06,5.08,1.15,1.6,2.08,3.52,3.42,4.96,.4,.44,.62-1,.63-1.13,.03-.39,.07-1.73-.42-1.95l.04,.11,.12,1.09c.04-.63,.52-1.04,1.03-1.32,.21-.11,.2-1.14-.08-1.14-1.55,.05-1.74,1.56-1.76,2.8l.89-1.15c-1.29-2.85-3.58-5.45-5.59-7.83s-4.29-4.72-6.7-6.82c-4.84-4.22-10.4-7.63-16.15-10.48-3.26-1.62-6.65-2.96-10.12-4.06-.16-.05-.09,.57-.07,.63,.7,2.18,2.01,3.49,3.64,5,.02,.01,.05-.11,0-.13h0Z"/><path class="cls-3" d="M428.12,394.1c1.03-1.65,4.44-.54,5.92-.33,2.3,.33,4.6,.66,6.9,.95l13.55,1.72,27.59,3.5c5.16,.66,10.34,1.21,15.51,1.79,.04,0,.05-.2,0-.21-18.61-2.58-37.27-4.78-55.92-7.09-2.62-.32-5.25-.61-7.88-.9-1.82-.2-4.18-.93-5.69,.44-.03,.03,0,.15,.02,.12h0Z"/><path class="cls-3" d="M443.2,396.96c-1.39-.42-3.37-.67-4.45-1.65l-.09,1.33c.67,.56,1.15,1.12,2,1.31,.8,.17,1.6,.32,2.4,.48,1.6,.32,3.2,.62,4.81,.9,3.21,.55,6.42,1.07,9.64,1.57,6.33,.98,12.71,1.71,19.08,2.39,12.75,1.37,25.53,2.33,38.34,2.9,25.64,1.13,51.51,1.11,77.08-1.21,7.11-.65,14.21-1.32,21.31-2.12,3.55-.4,7.09-.81,10.62-1.39,.94-.15,1.97-.23,2.89-.48s1.75-.82,2.63-1.18c1.79-.73,3.66-1.19,5.51-1.73,.33-.09,.28-1.53-.04-1.53-1.61,.04-3.23,.14-4.83,0-.74-.06-1.46-.16-2.18-.3-.93-.18-1.73-.12-2.66-.01-3.22,.36-6.44,.77-9.65,1.18-6.36,.82-12.73,1.59-19.11,2.12-12.77,1.07-25.57,1.92-38.37,2.37-25.71,.89-51.42,.08-77.04-2.39-7.11-.68-14.19-1.55-21.27-2.42-3.53-.43-7.07-.85-10.6-1.33-1.84-.25-3.68-.49-5.53-.73-.88-.11-1.76-.22-2.64-.34-.18-.02-.74-.17-.96-.13-.48,.09-1.04,.51-1.47,.73-.29,.15-.16,1.46,.15,1.32,1.17-.53,3.18,.19,4.42,.38,.01,0,.01-.05,0-.05h0Z"/><path class="cls-3" d="M412.32,378.8c.07-.76-1.09-.42-1.15,.16-.16,1.72,4.56,.45,5.18,.35,7.36-1.18,14.72-2.4,22.07-3.65l44.14-7.49c8.34-1.41,16.68-2.84,25.01-4.26,.05,0,.04-.22,0-.21-25.75,4.31-51.5,8.68-77.25,13.02-3.6,.61-7.19,1.24-10.79,1.88l-5.39,.96c-.64,.11-1.35,.31-2,.18-.35-.07-1.06-.73-.71-1.18,.08-.11,1.12-.38,.86,.16-.03,.06,.03,.18,.04,.08h0Z"/><path class="cls-3" d="M522.63,373.37c16.57,1.87,33.46,.44,50.07-.25s33.27-1.44,49.91-2.23c33.27-1.58,66.53-3.35,99.77-5.32,66.5-3.93,132.95-8.61,199.33-14.06,37.6-3.09,75.18-6.34,112.73-10.04,.04,0,.03-.16,0-.16-66.67,6.11-133.37,11.87-200.15,16.67-66.44,4.78-132.93,8.8-199.47,12.06-18.67,.91-37.34,1.77-56.02,2.56s-37.61,2.72-56.17,.72c-.01,0-.01,.05,0,.05h0Z"/><path class="cls-3" d="M780.89,384.35c38.34-5.27,76.71-10.28,115.14-14.83s76.92-8.67,115.44-12.36c21.6-2.07,43.21-3.98,64.83-5.82,.04,0,.03-.16,0-.16-38.57,3.12-77.1,6.8-115.59,10.86s-76.93,8.55-115.31,13.47c-21.52,2.76-43.02,5.68-64.5,8.79-.01,0,0,.05,0,.05h0Z"/><path class="cls-3" d="M1124.97,351.57c-.04,.13-.17,.24-.24,.37-.05,.1-.08,.2-.11,.31-.04,.22-.03,.45,.02,.67,.13,.54,.49,1.05,1,1.29,.63,.29,1.38,.11,1.94-.27,.64-.44,1.04-1.09,1.23-1.83,.26-1.01,.17-2.07,.03-3.09-.01-.09-.04-.31-.16-.33-.85-.11-1.7,.06-2.45,.47-.36,.2-.66,.52-.92,.84-.08,.09-.16,.19-.2,.3-.04,.11-.05,.21-.1,.31-.11,.22-.2,.44-.28,.67-.02,.06,0,.46,.1,.33,.04-.06,.29-.45,.38-.4,.03,.03,.07,.02,.1,0,.91-.9,2.06-1.62,3.38-1.6l-.16-.33c.15,.91,.28,1.87,.02,2.77-.23,.78-.75,1.49-1.5,1.85-.64,.31-1.41,.29-1.93-.22-.24-.23-.41-.53-.48-.85-.05-.22-.05-.45,.01-.67,.02-.06,.19-.53,.31-.46,.06,.03,.01-.2-.01-.11h0Z"/><path class="cls-3" d="M1128.3,348.42c-.9-.67-1.92-.65-2.98-.37-1.39,.37-2.81,.92-4.15,1.43-2.64,1.01-5.25,2.21-7.82,3.39-.34,.15-.29,1.58,.04,1.73,6.38,2.76,14.12,5.86,20.73,1.95,1.1-.65,2.57-1.62,2.85-2.96s-.34-2.64-1.33-3.53c-1.31-1.18-3.2-1.89-4.82-2.52-.85-.33-1.82-.81-2.73-.91s-1.91,.2-2.78,.36c-.24,.04-.21,.89-.02,.98,.8,.41,1.56,.89,2.35,1.31,.59,.31,1.26,.43,1.89,.62,1.58,.48,3.11,1.11,4.58,1.87,.55,.29,1.3,.52,1.79,.9,.45,.35,.28,.12,.08,.45-.17,.27-.54,.51-.79,.71-1.12,.91-2.41,1.57-3.78,2.01-6.13,1.94-12.32-.59-17.92-2.98l.04,1.73c2.52-1.16,5.04-2.36,7.51-3.63,1.93-.99,4.95-3.74,7.23-2.44,.02,.01,.03-.09,0-.1h0Z"/><path class="cls-3" d="M1123.94,350.06c-.62,1.19-.23,2.73,.69,3.65,.51,.52,1.22,.84,1.95,.8,.8-.05,1.55-.48,2.06-1.1,.59-.71,.82-1.63,.69-2.54l-.15,.49c1.04,1.16,.28,2.84-.85,3.63-.74,.51-1.67,.7-2.55,.71-.93,0-1.89-.03-2.81-.19-.08-.01-.08,.33,0,.36,.79,.37,1.66,.74,2.54,.76s1.71-.13,2.47-.52c1.27-.64,2.01-2.04,2.01-3.44,0-.76-.21-1.51-.74-2.07-.13-.14-.16,.45-.15,.49,.13,.83-.39,1.66-1.01,2.17s-1.45,.79-2.26,.62c-1.56-.33-2.51-2.2-1.83-3.64,.02-.04-.01-.24-.04-.18h0Z"/><path class="cls-3" d="M1120.81,352.62c.3-.46,.71-.87,1.08-1.27,.1-.11,.14-.94-.06-.88-1.95,.64-3.75,1.62-5.59,2.53-.28,.14-.21,1.53,.1,1.48,2.19-.34,4.21-1.12,6.08-2.31,.26-.17,.22-1.62-.11-1.55-2.96,.62-5.77,1.71-8.38,3.23-.28,.16-.2,1.62,.11,1.55l6.29-1.56-.22-1.34-.66,1.8c-.13,.34-.13,1.04,.15,1.32,.93,.94,2.27,1.21,3.47,.66,.41-.19,.27-1.54,.04-1.83-.54-.69-1.08-1.37-1.62-2.06l-.22,1.88c1.74,1.7,4.24,3.37,6.8,2.7,2.29-.59,3.45-2.47,3.49-4.74,.01-.61-.5-1.75-.73-.56s-1,2.26-1.99,3.02l.36,2.15c.75-1.34,1.49-2.68,2.24-4.02l-.53-1.89c-.29,1.11-.25,2.92,1.06,3.37,.24,.08,.43,.1,.68,.06,.07-.01,.22-.07,.28-.12l.1,.02-.06-1.1c-.1,.03-.39,.75-.48,.88-.25,.32-.44,.46-.85,.41-.25-.03-.15,.87-.02,.98,2.07,1.75,2.76-2.57,1.42-3.69-.07-.06-.14-.05-.21,0-.22,.17-.43,.22-.7,.16-.84-.18-.2-.79-.6,.71,.13-.5,.16-1.1,0-1.59-.07-.23-.29-.72-.53-.3-.74,1.36-1.49,2.71-2.23,4.07-.17,.31-.14,2.54,.36,2.15,1.34-1.05,2.1-2.5,2.42-4.15l-.73-.56c-.01,.79-.97,1.6-1.58,1.99-.74,.48-1.61,.72-2.49,.7-2.08-.04-3.87-1.27-5.32-2.65-.3-.28-.48,1.55-.22,1.88,.54,.67,1.08,1.34,1.62,2.01l.04-1.83c-1.02,.67-2.27,.61-3.14-.26l.15,1.32,.66-1.8c.06-.16,.12-1.43-.22-1.34l-6.29,1.56,.11,1.55c2.57-1.5,5.33-2.56,8.24-3.17l-.11-1.55c-1.82,1.16-3.82,1.93-5.94,2.32l.1,1.48c1.87-.98,3.75-1.9,5.48-3.1l-.13-.81c-.3,.66-.59,1.35-.97,1.97-.02,.03,0,.15,.03,.12h0Z"/><path class="cls-3" d="M1097.9,354.06c-1,.05-2.05-.14-3.04-.24-.02,0-.01,.08,0,.09,2.98,2.68,7.9-.35,10.84-1.59,4.43-1.87,8.83-3.82,13.23-5.75l6.84-3c1.02-.45,2.2-1.14,3.36-.96,1.04,.17,1.82,1.02,2.59,1.66,3.27,2.7,7.17,4.4,11.38,4.89,.05,0,.06-.25,0-.26-4.48-.82-8.47-2.76-11.96-5.66-.72-.6-1.46-1.18-2.44-1.18-1.17,0-2.36,.73-3.4,1.18l-6.84,3c-4.73,2.07-9.46,4.14-14.16,6.28-1.93,.88-3.91,1.97-6.05,2.22-.78,.09-2.29,.15-2.87-.5-.33-.11-.36-.21-.09-.29l.87,.06c.59,.04,1.17,.06,1.74,.19,.02,0,.03-.14,0-.13h0Z"/><path class="cls-3" d="M1140.46,350.34c.5,1.25,1.9,1.59,3.09,1.85s4.36,.68,3.61,2.71c-.43,1.16-1.83,1.81-2.88,2.25-1.25,.52-2.54,.93-3.86,1.21-2.68,.57-5.46,.63-8.17,.2-.05,0-.06,.25,0,.26,2.4,.45,4.84,.5,7.25,.13,2.13-.33,4.55-.91,6.38-2.1,1.08-.71,1.94-1.95,1.37-3.27-.45-1.05-1.72-1.29-2.73-1.46-1.39-.24-3.4-.3-4.05-1.82-.01-.02-.01,.03-.01,.04h0Z"/><path class="cls-3" d="M1109.91,353.2c.06-.05,.17,0,.24-.05s.1-.17,.11-.26c.03-.27-.04-.59-.29-.72-.84-.46-1.24,1.08-1.29,1.62-.08,.91,.13,1.86,.62,2.63s1.17,1.24,1.99,1.55c.47,.18,1.05,.36,1.55,.34,.57-.03,1.12-.23,1.64-.44,.07-.03,.07-.29,0-.32-.44-.13-.88-.25-1.32-.38s-.86-.17-1.29-.27c-.81-.19-1.59-.58-2.14-1.21-.23-.26-.42-.57-.55-.9-.05-.12-.1-.27-.12-.39-.03-.16-.03-.15-.01-.3,.04-.33,.18-.71,.42-.96,.13-.13,.34-.36,.55-.33,.29,.04-.04,.39-.12,.25-.03-.06-.04,.16,0,.12h0Z"/><path class="cls-3" d="M1109.37,358.45c3.73-.53,7.46,1.38,10.66,3.04s6.31,3.39,9.87,3.53c3.32,.13,5.58-1.49,7.92-3.63,2.07-1.89,4.1-4.08,7.02-4.48,.08-.01,.06-.32,0-.32-2.68,.31-4.64,2.15-6.56,3.89-2.41,2.17-5.03,3.72-8.4,3.56-3.8-.19-7.22-1.99-10.6-3.56s-6.33-2.52-9.91-2.17c-.03,0-.02,.14,0,.13h0Z"/><path class="cls-3" d="M1147.13,355.47c-5.72,2.49-11.42,5-17.09,7.6-.02,.01,0,.11,0,.1,5.72-2.49,11.41-5.06,17.08-7.65,.01,0,0-.05,0-.05h0Z"/><path class="cls-3" d="M1093.41,360.15c2.25,.19,4.57,.95,6.77,1.44s4.19,.95,6.29,1.39c4.35,.89,8.71,1.78,13.06,2.67,.03,0,.04-.15,0-.16-4.36-.94-8.71-1.88-13.07-2.82-2.09-.45-4.19-.84-6.29-1.25-2.22-.44-4.63-.68-6.77-1.4-.02,0-.04,.13,0,.13h0Z"/><path class="cls-3" d="M1120.19,366.28c1.65-.55,3.51-.71,5.22-.96s3.5-.47,5.26-.65c3.44-.34,6.89-.55,10.35-.61,6.99-.14,13.99,.37,20.89,1.49,.03,0,.04-.15,0-.16-6.9-1.15-13.9-1.69-20.9-1.58-3.46,.05-6.91,.28-10.34,.68-1.76,.2-3.51,.45-5.26,.73s-3.48,.79-5.22,.91c-.04,0-.02,.14,0,.13h0Z"/><path class="cls-3" d="M1027.49,359.85c19.11-2.71,38.31-4.84,57.55-6.39,5.43-.44,10.86-.8,16.29-1.23,.04,0,.03-.16,0-.16-19.26,.98-38.52,3.08-57.65,5.52-5.4,.69-10.8,1.43-16.19,2.21-.01,0,0,.05,0,.05h0Z"/><path class="cls-3" d="M1081.3,339.86c-.27,.08-.68-.21-.93-.33s-.49-.28-.72-.45c-.5-.36-.96-.79-1.34-1.29l-.02,.16c1.06,1.32,1.96,2.8,2.57,4.38,.02,.05,.08,.14,.12,.05,.74-1.61,2.54-2.56,4.28-2.32,.29,.04,.13-.96,.02-1.09-.73-.82-1.66-1.43-2.7-1.78-.91-.31-2.03-.5-2.95-.12-.97,.4-1.22,1.55-.85,2.48,.14,.35,.39,.65,.77,.73,.43,.1,.61-.34,.7-.69,.02-.06,.05-.4-.06-.4-.13,0-.2-.06-.31-.11s-.23-.06-.34-.11c-.12-.06-.22-.15-.32-.25-.17-.17-.18-.39-.17,.03,0,.45,0,.25,.09,.11,.05-.07,.11-.14,.18-.19,.14-.13,.31-.22,.48-.29,.32-.13,.67-.18,1.01-.19,1.66-.04,3.26,.69,4.41,1.86l.02-1.09c-1.94-.12-3.74,1.14-4.38,2.95l.12-.05c-.71-1.47-1.56-2.84-2.66-4.06-.01-.02-.04,.13-.01,.17,.4,.46,.84,.87,1.35,1.21,.25,.16,.5,.31,.77,.43s.67,.2,.88,.4c.02,.02,.04-.14,0-.13h0Z"/><path class="cls-3" d="M1019.95,358.36c-.42,.13-.59,.5-.5,.93,.25,1.11,2.02,.84,2.81,.83,4.19-.05,8.37-.14,12.56-.28,8.45-.29,16.89-.84,25.31-1.58,.03,0,.02-.11,0-.11-6.79,.55-13.59,.95-20.39,1.3-3.36,.17-6.72,.31-10.09,.41-1.64,.05-3.28,.1-4.92,.13-.9,.02-1.81,.04-2.71,.05-.36,0-.72,.03-1.08,.01l-.34-.02c-.72-.03-.93-.56-.64-1.61,.01,0,0-.06,0-.05h0Z"/><path class="cls-3" d="M1145.95,354.65c1.93-.2,3.98,.05,5.92,.09,1.81,.04,3.62,.06,5.42,.04,3.86-.03,7.72-.11,11.58-.24,7.63-.26,15.29-.62,22.88-1.41,.05,0,.04-.21,0-.21-7.63,.5-15.24,1.04-22.88,1.3-3.78,.13-7.56,.21-11.34,.24-1.89,.02-3.78,.05-5.67,.07s-4,.23-5.92-.03c-.03,0-.03,.14,0,.13h0Z"/><path class="cls-3" d="M1191.18,350.3c-1.47,.83-3.4,1.21-5.02,1.65-1.47,.4-2.96,.72-4.46,1.02-3.12,.63-6.26,1.04-9.44,1.22-.02,0-.02,.11,0,.11,3.22-.14,6.45-.49,9.61-1.15,1.56-.32,3.1-.73,4.62-1.18,.79-.23,1.58-.49,2.36-.75s1.53-.64,2.33-.78c.04,0,.02-.15,0-.13h0Z"/><path class="cls-3" d="M1082.46,381.1c2.92-.3,6.01-.07,8.95,.04s5.96,.26,8.93,.51,5.78,.58,8.65,1c3.03,.44,6.02,1.13,9.04,1.54,.05,0,.06-.25,0-.26-2.86-.82-5.87-1.23-8.81-1.66s-5.91-.78-8.89-1.03-5.79-.43-8.69-.45c-3.06-.03-6.14,.27-9.18,.19-.03,0-.03,.14,0,.13h0Z"/><path class="cls-3" d="M1112.23,383.85c-.14,.02-.32-.13-.43-.2l-.39-.24c-.24-.15-.49-.3-.73-.46v.83c.31-.07,.62-.17,.96-.17,.32,0,.63,.06,.93,.16,.62,.22,1.2,.66,1.54,1.22,.08,.12,.15,.25,.2,.39,.02,.05,.04,.12,.05,.17,0,.04,.02,.08,.02,.12-.02-.09,.03,.12,0,0,.01,.06,0,.11-.02,.21-.03,.14-.09,.28-.16,.41-.29,.56-.86,1.05-1.41,1.35-.62,.34-1.46,.5-2.15,.32-.09-.02-.08,.41,0,.47,.3,.22,.68,.42,1.05,.47s.77,0,1.13-.12c.74-.24,1.31-.74,1.64-1.45,.73-1.58,.18-3.62-1.43-4.39-.72-.34-1.74-.5-2.42,.03-.12,.1-.15,.81,.05,.83l.74,.06c.23,.02,.64-.02,.82,.14,.02,.02,.04-.14,0-.13h0Z"/><path class="cls-3" d="M1115.05,385.77c2.01-.74,4.28-1.03,6.37-1.55,1.97-.48,3.93-.99,5.88-1.53,3.99-1.09,7.93-2.37,11.84-3.72,7.76-2.66,15.39-5.71,22.83-9.18,.05-.02,.03-.22-.02-.2-7.6,3.44-15.35,6.55-23.26,9.23-3.85,1.3-7.73,2.47-11.63,3.63-1.95,.58-3.91,1.13-5.88,1.66s-4.1,1.31-6.14,1.5c-.04,0-.02,.14,0,.13h0Z"/><path class="cls-3" d="M1036.72,381c1.58-.43,3.31-.52,4.94-.74l4.94-.67,9.88-1.35,20.02-2.73,39.79-5.43,22.24-3.03s.02-.11,0-.11l-79.57,10.94-10.87,1.49-5.44,.75c-1.94,.27-3.98,.75-5.93,.75-.04,0-.02,.14,0,.13h0Z"/><path class="cls-3" d="M1017.23,382.78c-.58-.25-.93-.99-.89-1.61l-.14,.24c2.85,1.65,5.09,4.21,6.42,7.22,1.42,3.19,1.57,6.42,.89,9.8-.06,.27,.18,1.11,.32,.49,.22-.97,.45-1.93,.69-2.89,.01-.05-.03-.28-.08-.16-.29,.82-.59,1.64-.9,2.46l.27,.69c1.09-3.24,.6-7.14-.63-10.27-1.33-3.37-3.74-6.26-6.93-8.01-.13-.07-.14,.29-.14,.33,0,.91,.39,1.32,1.12,1.82,.02,.01,.04-.11,0-.13h0Z"/><path class="cls-3" d="M1025.05,379.67c4.58,4.61,7.39,10.99,6.21,17.55-.04,.23-.08,.71,.08,.9,.12,.14,.25,.22,.32-.06,.3-1.22,.61-2.44,.96-3.65,.02-.07-.03-.43-.1-.26-.37,.95-.77,1.88-1.18,2.81l.36,.95c1.16-6.57-.99-14.33-6.65-18.3-.01,0-.01,.04,0,.05h0Z"/><path class="cls-3" d="M1032.73,378.86c.08-.5,1.18,.08,1.34,.22,.57,.48,1.03,1.25,1.44,1.88,.88,1.32,1.62,2.75,2.22,4.22,1.12,2.73,1.65,5.7,1.37,8.65-.03,.34-.04,1.04,.22,1.33,.22,.24,.41,.11,.49-.2,.59-2.25,.88-4.58,1.34-6.86,.02-.08-.06-.51-.14-.28-.59,1.83-1.35,3.62-1.82,5.49l.71,1.13c.31-3.82-.3-7.66-1.96-11.12-.72-1.5-1.69-2.85-2.84-4.06-.45-.48-.92-1.03-1.61-1.12-.53-.07-.74,.16-.8,.66,0,.03,.03,.15,.04,.07h0Z"/><path class="cls-3" d="M1042.98,377.69c-.56-.44-1-.9-.91-1.66l-.77-.27c0,1.01,.32,1.51,.91,2.25,.47,.59,.98,1.15,1.44,1.74,.87,1.12,1.63,2.33,2.25,3.6,1.17,2.43,1.79,5.1,1.81,7.66,0,.34,.15,2.34,.91,1.91,.24-.13,.35-.72,.38-.93,.12-.66,.1-1.37-.05-2.02,.04,.16-.07-.63-.21-.61,.12-.01,.35,2.17,.33,1,0-.2,0-.41-.02-.61-.04-.91-.13-1.82-.28-2.72-.28-1.69-.71-3.36-1.34-4.96-1.14-2.87-2.9-5.89-5.45-7.71-.55-.39-.67,1.15-.68,1.34,0,.17,.06,1.94,.6,1.79,.64-.17,.68-.02,1.07,.24,.01,0,.01-.04,0-.05h0Z"/><path class="cls-3" d="M1019.55,382.72c-.6-.35-1.14-.82-1.68-1.26-.23-.19-.18,.78-.15,.86,.52,1.6,1.7,2.85,2.65,4.21s1.85,2.83,2.52,4.37c1.3,2.97,1.86,6.29,.51,9.35l.62,2.64c1.18-2.69,1.9-5.6,2.91-8.37,.05-.13-.06-.8-.18-.57-.56,1.12-1.1,2.26-1.75,3.33s-1.23,2.07-1.71,3.21c-.25,.61-.21,1.58,.05,2.17,.24,.55,.55,.52,.78-.02,1.61-3.81,1.37-8.29,.02-12.14-.65-1.86-1.6-3.62-2.7-5.25-.56-.83-1.15-1.66-1.8-2.43-.45-.53-1.06-1.53-1.82-1.39l.03,1.02c.56,.1,1.16,.18,1.69,.39,.03,.01,.04-.11,0-.13h0Z"/><path class="cls-3" d="M1027.46,381.71c-.48-.53-.82-1.16-1.04-1.83l-.2,.64c.65,1.39,1.8,2.56,2.63,3.86,.87,1.38,1.59,2.85,2.13,4.39,1.05,2.94,1.4,5.96,1.06,9.06-.04,.33-.05,1.4,.34,1.56,.42,.18,.48-.68,.5-.91,.24-2.14,.41-4.22,.88-6.33,.03-.12-.1-.73-.19-.41-.53,1.89-1.16,3.84-1.49,5.78l.77,1.27c.45-3.68,.1-7.5-1.12-11.01-.54-1.55-1.25-3.05-2.12-4.44-.46-.74-.96-1.48-1.53-2.14-.43-.5-1.07-1.39-1.76-1.45-.2-.02-.21,.84,.02,.89,.49,.12,.88,.79,1.12,1.19,.02,.03,.04-.09,.01-.12h0Z"/><path class="cls-3" d="M1033.01,379.8c-.15,.11-.24,.04-.26-.2l-.07,.41c.24-.19,1.77,1.46,2.01,1.66,.58,.48,1.12,1.01,1.62,1.58,1.01,1.14,1.85,2.46,2.48,3.84,1.08,2.39,1.58,4.96,.92,7.43l.93,3.11c.4-.86,.45-1.7,.45-2.64,0-.41-.26-3.21-1.27-2.55-.33,.21-.48,.92-.54,1.24-.16,.86-.16,1.84,.07,2.7,.66-3.64,.71-4.79,.16-3.45-.12,.24-.19,.49-.23,.76-.13,.66-.13,1.4-.05,2.06,.08,.61,.21,1.82,.87,2.1,.53,.22,.7-.57,.77-.93,.94-4.54,.29-9.6-2.24-13.54-1.04-1.62-2.57-3.51-4.36-4.33-.39-.18-.81-.39-1.23-.19-.32,.15-.48,.38-.51,.72-.02,.29,.25,.85,.5,.36,.02-.03-.01-.15-.03-.12h0Z"/><path class="cls-3" d="M902.06,408.9c-.83,.59-2.06,.01-1.94-1.11l-.97,.02c.1,.62,.17,1.25,.65,1.69,.45,.41,1.17,.67,1.69,.99,1.22,.75,2.42,1.55,3.57,2.4,2.26,1.65,4.4,3.45,6.29,5.52,3.71,4.04,7.02,8.5,9.93,13.14,6.43,10.25,10.3,21.82,13.19,33.5,.86,3.47,1.6,6.96,2.3,10.46,.37,1.82,.72,3.65,1.1,5.46s.66,3.76,1.26,5.54c.19,.55,.59,1.09,1.19,.8s.77-1.72,.79-2.26c.03-1.22,.11-2.5-.43-3.63-.34-.72-.98-1.52-1.66,.56l2.05,1.37c-.26-3.32-1.12-6.73-1.78-9.99s-1.33-6.34-2.05-9.49c-1.46-6.39-3.2-12.68-5.45-18.84-3.82-10.47-9.15-20.88-17.33-28.63-4.29-4.07-9.1-7.79-14.34-10.55-1.24-.65-1.43,4.29,.09,3.65,.59-.24,1.23-.28,1.84-.46,.06-.02,.02-.15-.01-.13h0Z"/><path class="cls-3" d="M902.21,411.22c-1.71-.54-2.93-1.76-3.64-3.4l-.2,1.58c2.5,.32,5.26-.36,7.76-.7s5.16-.7,7.74-1.07c5.07-.74,10.14-1.53,15.19-2.41,10.03-1.73,20.08-3.8,29.94-6.32,2.62-.67,5.23-1.43,7.77-2.37,1.1-.41,2.19-.85,3.26-1.33,1.29-.57,2.76-1.13,3.79-2.11,.37-.35,.3-2.88-.19-2.67-.92,.39-1.83,.79-2.76,1.15-.24,.09-.25,1.01,.03,1.05,.94,.15,1.86,.34,2.8,.52l-.07-2.73c-1.04,.22-1.97,.88-2.93,1.33-1.17,.56-2.37,1.06-3.59,1.52-2.18,.83-4.41,1.51-6.66,2.12-4.77,1.29-9.62,2.32-14.45,3.35-10.05,2.15-20.15,4.08-30.27,5.82-2.9,.5-5.8,.97-8.7,1.42s-6.04,.52-8.71,1.57c-.5,.2-.36,1.37-.13,1.72,.89,1.36,2.42,1.99,4.01,1.99,.02,0,.01-.05,0-.05h0Z"/><path class="cls-3" d="M885.05,410.31c-.62-.1-1.22-.27-1.78-.57s-.77-.3-.24-.57c.42-.22,1.16-.2,1.63-.28,.63-.11,1.25-.22,1.87-.35,2.18-.45,4.37-.87,6.56-1.25,4.55-.8,9.12-1.49,13.69-2.11,.07,0,.05-.27,0-.26-8.23,.72-16.48,1.99-24.45,4.18-.06,.02-.04,.18,0,.2,.83,.62,1.71,.96,2.74,1.07,.01,0,.01-.05,0-.05h0Z"/><path class="cls-3" d="M904.4,407.52c.04-.59-.89-.49-.7,.25,.19,.77,1.37,1.28,1.96,1.69,.98,.67,1.94,1.38,2.88,2.1,3.72,2.89,7.22,6.17,10.29,9.75,.07,.08,.1-.21,.05-.27-2.13-2.67-4.45-5.21-7.04-7.45-1.32-1.14-2.69-2.22-4.1-3.24-.71-.51-1.42-1.01-2.15-1.49-.36-.24-.73-.46-1.1-.68-.12-.07-.36-.15-.43-.28l.02-.59c.12-.04,.22,0,.28,.14-.03,.06,.03,.18,.04,.08h0Z"/><path class="cls-3" d="M1011.96,387.51c-.33-.48-.65-.92-.84-1.49l-.17,.54c.41,.96,1.31,1.58,1.96,2.39s1.2,1.73,1.61,2.7c.89,2.06,1.19,4.36,.63,6.56-1.06,4.16-4.32,7.62-8.37,9.01-.16,.06-.12,.66,.02,.63,4.74-1.04,8.42-4.98,9.11-9.8,.35-2.4,.06-4.9-.83-7.16-.43-1.1-1.01-2.15-1.73-3.1-.44-.58-1.56-2.26-2.35-1.88-.15,.07-.13,.7,.05,.74,.34,.07,.7,.64,.91,.89,.01,.01,.01-.04,0-.05h0Z"/><path class="cls-3" d="M1002.84,412.36c-1.29,.58-2.74,.9-4.09,1.31-.54,.16-1.26,.53-1.82,.55s-1.3-.32-1.85-.48l.06,2.55c1.23-.02,2.67-.88,3.83-1.3,1.36-.49,2.73-.94,4.12-1.36,2.7-.82,5.44-1.57,8.19-2.21,5.59-1.31,11.26-2.12,16.81-3.65,.24-.07,.23-.96-.02-1-5.82-1.01-11.4-.23-17.09,1.13-2.78,.66-5.5,1.48-8.18,2.46-1.31,.48-2.61,.99-3.89,1.52s-2.9,1-3.93,1.91c-.37,.32-.3,1.14-.25,1.57,.02,.13,.22,1.2,.53,.88,.67-.68,1.26-1.39,2.14-1.82,.57-.28,1.22-.45,1.82-.67,1.19-.44,2.4-1,3.64-1.26,.04,0,.02-.15,0-.13h0Z"/><path class="cls-3" d="M1006.18,409.46c7.79-.88,15.58-1.82,23.36-2.83s15.87-1.86,23.79-2.83c15.56-1.9,31.16-4.18,46.16-8.89,3.98-1.25,8.19-2.51,11.92-4.4,1.45-.74,3.02-1.91,3.5-3.54,.31-1.05,.63-3.38-.52-4.06-.34-.2-.28,1.04-.25,1.17l.12-.06c-.07,.14-.15,.29-.23,.43-.16,.34-.4,.62-.65,.89-.5,.53-1.1,.98-1.72,1.36-1.62,.99-3.53,1.6-5.29,2.28-3.41,1.31-6.88,2.48-10.38,3.51-7.08,2.09-14.3,3.68-21.57,4.97-14.53,2.59-29.23,4.04-43.84,6.11-8.23,1.17-16.51,2.77-24.42,5.31-.14,.05-.13,.59,.01,.58h0Z"/><path class="cls-3" d="M698.45,357.69c-.05,2.72-.29,5.43-.28,8.15s.11,5.28,.32,7.91c.41,5.19,1.23,10.34,2.42,15.4,0,.03,.02-.01,.02-.03-1.21-5.14-2.03-10.36-2.44-15.62s-.68-10.65,.02-15.8c.01-.08-.05-.12-.05-.02h0Z"/><path class="cls-3" d="M712.92,338.48c-.89,1.87-2.01,3.62-2.88,5.51s-1.62,3.79-2.28,5.74c-1.21,3.6-2.07,7.32-2.57,11.09-1.03,7.75-.59,15.74,1.41,23.3,1.16,4.38,2.85,8.6,5.01,12.58,.04,.07,.07-.07,.05-.11-7.5-14-8.91-30.93-4.12-46.04,.64-2.03,1.4-4.03,2.27-5.98s1.82-4.24,3.15-5.98c.03-.04,0-.17-.04-.1h0Z"/><path class="cls-3" d="M717.33,344.86c-3.04,1.55-4.11,5.02-4.58,8.17-.69,4.68-.27,9.46,.03,14.16,.64,9.84,1.61,19.66,2.89,29.44,0,.07,.05,.02,.04-.03-1.15-9.12-2.06-18.27-2.71-27.44-.33-4.53-.77-9.13-.46-13.68,.26-3.81,1.04-8.62,4.8-10.56,.01,0,0-.06,0-.05h0Z"/><path class="cls-3" d="M511.43,367.95c-.33-.73-.68-1.18-1.43-1.52,0,0-.01,0-.01,.01-1.83,9.13-.03,18.68,4.99,26.52,.03,.05,.05-.1,.03-.14-2.53-4-4.26-8.46-5.08-13.12-.38-2.18-.59-4.4-.58-6.61,0-1.25,.08-2.5,.21-3.74,.07-.64,.03-1.49,.29-2.06-.04-.36,.12-.58,.47-.67,.54,.29,.89,.76,1.06,1.41,.02,.08,.06-.04,.04-.08h0Z"/><path class="cls-3" d="M518.87,365.06c-1.1,1.17-1.64,2.29-1.77,3.92-.16,2.07,.14,4.21,.35,6.27,.54,5.13,1.51,10.19,2.85,15.16,.02,.07,.05-.02,.04-.05-1.12-4.29-1.97-8.65-2.55-13.04-.29-2.14-.53-4.29-.65-6.45-.1-1.8-.1-4.71,1.76-5.69,.04-.02,.01-.16-.03-.12h0Z"/><path class="cls-3" d="M524.47,363.84c-1.4,1.99-1.64,4.39-1.69,6.76-.06,3.09,.15,6.18,.6,9.23,.9,6.17,2.88,12.16,5.72,17.7,.04,.08,.07-.07,.05-.11-2.6-5.17-4.4-10.66-5.4-16.36-.49-2.79-.79-5.61-.86-8.45s-.14-6.19,1.61-8.74c0-.01,0-.06-.01-.05h0Z"/><path class="cls-3" d="M942.77,327.87c-3.01,2.09-3.14,6.3-3.45,9.6-.45,4.88-.59,9.8-.43,14.7,.32,9.82,1.88,19.56,4.59,29,.03,.1,.07-.03,.06-.08-2.55-8.96-4.06-18.2-4.5-27.5-.22-4.57-.17-9.16,.15-13.72,.26-3.84,.06-9.47,3.59-11.94,.01,0,0-.06,0-.05h0Z"/><path class="cls-3" d="M956.6,324.93c-1.39,.36-1.96,1.37-2.56,2.61-.83,1.69-1.46,3.48-1.94,5.3-1,3.77-1.36,7.68-1.57,11.56-.46,8.64-.01,17.34,1.26,25.9,.72,4.82,1.68,9.63,2.97,14.33,.02,.07,.05-.02,.04-.05-2.57-10.18-4.12-20.53-4.31-31.04-.09-5.01,0-10.08,.62-15.07,.32-2.6,.82-5.19,1.64-7.67,.37-1.1,.8-2.19,1.3-3.24,.47-.97,1.22-2.7,2.55-2.5,.04,0,.04-.14,0-.13h0Z"/><path class="cls-3" d="M976.1,331.29c-3.57-2.5-5.61,3.53-6.28,5.85-1.29,4.43-1.65,9.06-1.8,13.65-.34,9.97,.26,19.95,1.72,29.81,.02,.11,.08,.03,.07-.04-1.31-9.05-1.9-18.19-1.76-27.33,.07-4.48,.26-9,1.17-13.4,.44-2.11,1-4.27,1.94-6.22,.87-1.81,2.9-3.68,4.94-2.26,.01,0,.02-.04,0-.05h0Z"/><path class="cls-3" d="M768.83,307.13c4.34-.95,8.75,2.37,12.1,4.75,3.55,2.52,6.77,5.47,9.68,8.71,.03,.03,.04-.07,.02-.09-2.87-3.28-6.12-6.21-9.69-8.73-3.35-2.36-7.76-5.66-12.11-4.69-.02,0-.01,.06,0,.05h0Z"/></g></svg>