<?xml version="1.0" encoding="UTF-8"?><svg id="Layer_1" xmlns="http://www.w3.org/2000/svg" viewBox="0 0 1500 750"><defs><style>.cls-1{fill:#5d643f;}.cls-2{fill:#bdc0ab;}.cls-3{fill:#231f20;}</style></defs><g><path class="cls-1" d="M525.89,418.81s235.19,17.32,371.49-1.35l62.64,2.73s53.22,47.03,57.23,49.19c4.01,2.16,35.46,7.96,35.46,7.96,0,0-59.18-28.49-20.49-57.69,38.69-29.21,107.83-38.78,116.54-48.04l4.94,5.05s21.72-29.49,44.26-20.38c0,0-64.09-18.62-135.56,4.77-71.47,23.39-110.87,35.51-110.87,35.51,0,0-273.92-66.2-337.42-71.24-63.5-5.04-178.03-6.16-221.82,6.37s-119.52,28.94-82.15,39.32c37.37,10.38,47.1,11.15,47.1,11.15,0,0-21.76-2.27-15.65,3.96,6.11,6.23,50.27,27.22,50.27,27.22l134.04,5.49Z"/><path class="cls-1" d="M503.72,328.33s60.23-33.85,65.65-38.24,52.47-37.49,52.47-37.49c0,0-21.35,29.03-10.17,46.22,11.18,17.19-.99,18.29,2.44,26.47,3.43,8.18-20.75,20.05-23.79,17.21s-86.59-14.18-86.59-14.18Z"/><path class="cls-1" d="M537.23,412.2s-35.41,25.21-23.9,53.94c11.51,28.72,15.29,28.99,15.29,28.99,0,0-43.47-7.46-64.61-68.99-21.14-61.53,57.37-23.77,57.37-23.77l15.85,9.84Z"/><path class="cls-1" d="M835.25,349.73c.62-.25,.81-.71,.4-1.26-.53-.72-1.71-.93-2.54-1.03-2.46-.27-4.69,1.54-6.75,2.67-3.84,2.1-7.68,4.18-11.52,6.26l5.69,2.47c6.51-3.63,12.9-7.48,19.33-11.25,1.11-.65-1.04-2.02-1.42-2.23-1.14-.63-3.1-1.45-4.42-.99-9.23,3.24-17.95,7.43-26.67,11.84l7.32,3.51c7.51-5.48,15.26-10.64,23.27-15.36,1.45-.85-1.61-2.64-2.16-2.9-1.45-.67-3.8-1.57-5.37-.71-12.64,6.94-25.27,14.17-38.69,19.49l7.2,4.4c5.67-4.17,11.67-7.83,17.41-11.89,.92-.65-1.08-1.67-1.42-1.82-1.1-.47-2.75-.94-3.93-.48-6.7,2.61-13.07,6.14-19.25,9.79-1.47,.86,1.21,2.79,1.86,3.18,1.36,.8,3.72,2,5.34,1.22,13.23-6.34,26.17-13.2,39.02-20.28l-7.52-3.61c-7.98,4.71-15.69,9.84-23.07,15.46-1.28,.98,1.44,2.51,2.1,2.82,1.44,.66,3.67,1.51,5.22,.69,8.07-4.26,16.19-8.73,24.74-11.95l-5.84-3.21c-6.25,3.91-12.56,7.75-18.73,11.8-1.05,.69,1.26,1.91,1.68,2.1,1.04,.45,2.93,1.09,4.01,.37,4.91-3.27,9.87-6.48,14.75-9.8l-.67,.26,.37-.04-3.13-.64-.26-.25c-.59,.46,.79,1.07,1.02,1.15,.77,.29,1.85,.52,2.64,.2h0Z"/><path class="cls-1" d="M791.32,362.49l-.97-1.15,.97,1.15c-.01,.07,1.03-.58,1.03-.58,.29-.18,.6-.35,.9-.52,.73-.41,1.48-.79,2.23-1.18,1.64-.86,3.29-1.72,4.93-2.58,3.28-1.72,6.56-3.43,9.81-5.2,6.39-3.47,12.72-6.98,18.97-10.69,.82-.48-.92-1.44-1.16-1.54-.83-.38-2.39-.93-3.29-.49-6.88,3.41-13.66,6.97-20.42,10.61-3.15,1.7-6.27,3.46-9.39,5.2-1.56,.87-3.12,1.74-4.68,2.62-1.14,.64-2.86,1.33-2.89,2.82-.02,.77,1.71,1.41,2.21,1.56l.25,.08c.21,.06,1.43,.37,1.5-.11h0Z"/><path class="cls-1" d="M792.08,359.12c7.6-3.95,15.33-7.7,23-11.52s15.53-7.79,23.41-11.42c4.28-1.97,8.52-4.01,12.78-6.03,.67-.32-.62-1.24-.84-1.39-.56-.36-1.69-.98-2.39-.66-15.56,7.17-31,14.8-46.11,22.88-4.14,2.21-8.22,4.54-12.35,6.77-.6,.33,1.74,1.76,2.51,1.36h0Z"/><path class="cls-1" d="M849.21,328.62c-.39,.82-1.48,1.46-2.15,2.06s-1.27,1.17-1.88,1.78c-1.14,1.13-2.13,2.44-3.04,3.76-1.82,2.64-3.19,5.7-4.11,8.77-1.93,6.45-1.87,13.49,1.5,19.43,.73,1.28,2.05,2.26,3.42,2.79,.74,.29,2.33,.61,1.86-.7-2.18-6.06-2.65-12.74-.95-18.97,.82-3.01,2.12-5.79,3.57-8.55,.72-1.37,1.53-2.67,2.29-4.01,.41-.72,.84-1.43,1.29-2.13s.94-1.74,1.64-2.15c.99-.59-2.9-3.2-3.44-2.06h0Z"/><path class="cls-1" d="M841.39,342.59c.83-1.12,1.67-2.23,2.49-3.35,.49-.67-1.58-1.72-1.88-1.85-.85-.39-2.22-.94-3.14-.46-5.28,2.73-10.29,5.76-15.26,9.02l6.78,4.09c4.04-2.88,7.78-6.36,11.46-9.68,1.94-1.75-5.31-5.38-7.16-4.33-2.67,1.51-4.81,3.69-6.46,6.26-.74,1.15,2.21,2.83,2.81,3.15,1.27,.68,3.5,1.75,4.95,1.02,3.31-1.66,6.35-3.7,9.08-6.2l-8.48-4.44c-4.79,5.65-8.93,11.88-12.12,18.57-.75,1.58,2.35,3.48,3.29,4.04,1,.59,2.1,1.14,3.23,1.42,.84,.2,2.02,.53,2.83,.07,2.49-1.4,4.42-3.57,5.79-6.06l-10.29-5.62c-.97,3.89-1.73,7.88,.05,11.65,.53,1.12,1.97,2.18,2.95,2.83,1.34,.88,3.03,1.72,4.61,2.07,1.67,.38,4.88,.6,3.68-2.03-2.16-4.73-6.61-7.98-11.13-10.23-.68-.34-8.38-2.81-7.52,.46,2.05,7.87,7.99,13.74,15.16,17.27,2.19,1.08,4.7,2,7.18,1.95,.89-.02,3.54-.37,2.87-2-2.29-5.56-7.08-9.77-12.44-12.32-2.26-1.08-4.77-2.05-7.33-1.99-1.19,.03-3.32,.34-2.94,2.06,.49,2.21,1.2,4.33,2.12,6.39l8.48-.9c-3.77-1.64-7.62-3.02-11.65-3.85-3.52-.72-7.47-.92-10.9,.32-.88,.32-1.96,.77-1.67,1.97,.27,1.1,1.18,1.93,2.01,2.61,1.25,1.03,2.7,1.88,4.2,2.46,1.69,.66,3.73,1.43,5.56,1.27,3.38-.3,6.56-1.05,9.38-3.04,1.49-1.05,.18-2.76-.71-3.66-1.77-1.79-4.43-3.08-6.85-3.7-5-1.28-10.15-1.72-15.22-.53-3.36,.79-.55,3.96,1.03,5.03,2.98,2.01,6.79,3.42,10.42,2.94,4.2-.56,8.94-1.11,12.5-3.58,.89-.62,.59-1.77,.04-2.49-.81-1.05-1.95-1.78-3.1-2.4-1.47-.8-3.09-1.47-4.73-1.81-1.54-.32-3.31-.67-4.85-.2-.33,.1-.7,.17-1.01,.31,.48-.06,.55-.06,.19,0-.37,.06-.74,.13-1.11,.19-.82,.14-1.63,.28-2.44,.45-1.32,.27-2.64,.59-3.94,.97-2.73,.78-5.34,1.82-7.94,2.95l13.89,5.69c.4-.75,.75-1.54,1.12-2.31,.86-1.84-3.17-4.02-4.23-4.51-2.48-1.15-5.67-2.26-8.42-1.58-.98,.24-1.93,.67-2.64,1.39-.78,.78-1.03,1.59-1.49,2.52-.52,1.05,1.12,2.24,1.78,2.7,1.56,1.1,3.34,1.78,5.19,2.2,1.75,.4,3.51,.74,5.31,.7,.26,0,2.42-.1,1.38-.07,.49-.02,.98-.06,1.46-.11,1.45-.15,2.4-.81,1.24-2.19-1.32-1.56-3.61-2.3-5.54-2.66-.27-.05-1.4-.45-.32,0-1.54-.46-1.93-.58-1.16-.36,.43,.13,.38,.1-.15-.07-1.29-.41-2.61-.69-3.92-1l6.97,4.91c.03-.06,1.04-.64,.86-.55-.24,.11,.4-.1,.46-.13,.27-.06,.25-.06-.06-.02-.5,.05-.33,.07,.52,.04l-11.35-6.26c-.48,.77-.97,1.53-1.41,2.33-.49,.89,.93,2.31,1.42,2.72,1.16,.96,2.48,1.65,3.87,2.22,2.64,1.08,5.88,1.99,8.6,.76,.61-.28,1.59-.67,2.5-1.02,1.09-.41,2.2-.79,3.32-1.13,2.32-.72,4.93-1.6,7.37-1.54l-10.3-7.52c-1.18,.39-1.81,.69-2.69,.97s-1.82,.52-2.75,.71c-1.94,.4-3.91,.62-5.88,.83l11.45,7.97c.74-.16,1.48-.29,2.23-.37-.75,.08-.3,.04,.19,.02,.38-.01,.75-.02,1.13,0,.23,0,.69,.12,.9,.04-.85-.08-1.03-.1-.55-.04,.15,.02,.3,.03,.45,.06,.34,.05,.79,.05,1.11,.18l-1-.23c.29,.07,.58,.15,.87,.23l-7.56-7.36c-.46,.31-.92,.6-1.41,.87-.24,.13-.5,.24-.74,.37-.65,.33,.09,0-.32,.15-1.12,.4-2.29,.63-3.47,.74l11.5,8.19c.55-.2,1.1-.38,1.66-.51,.28-.06,.56-.11,.84-.16,.8-.14,0-.13-.12,0,.08-.09,.73,0,.86-.01,.85-.02-.04,.04-.39-.07,.26,.08,.59,.07,.87,.11s1.58,.31,.36,.04c-1.15-.25-.1-.02,.14,.05,.29,.07,.58,.15,.86,.24s.57,.18,.86,.26c.97,.29-1.66-.61-.72-.24,1.18,.47,2.37,.91,3.54,1.4,1.91,.8,4.11,1.32,6.18,1.11,.86-.09,2.95-.62,2.3-2.01-.97-2.09-1.72-4.26-2.25-6.51l-10.26,.07c.45,.21,.89,.5,1.35,.68-1.86-.76-.87-.52-.33-.15,.21,.14,.41,.29,.61,.45-.78-.62-.92-.72-.4-.28,.32,.31,.64,.62,.96,.91,.27,.28,.18,.18-.26-.31,.17,.19,.33,.39,.49,.58,.28,.35,.54,.7,.79,1.07,.54,.79,.98,1.63,1.4,2.48l9.6-1c-.58-.26-1.13-.59-1.71-.86,1.79,.81,.74,.45,.25,.13-.27-.18-.53-.36-.79-.54-.75-.54-.21-.26,.16,.15-.2-.23-.51-.42-.74-.62-.53-.47-1.04-.97-1.53-1.48-.65-.67,.3,.41-.06-.07-.19-.26-.41-.5-.61-.75-.39-.51-.75-1.04-1.11-1.58-.79-1.15-1.52-2.35-2.03-3.65l-7.52,.46c.44,.2,.46,.21,.05,.02,.46,.3,.43,.26-.1-.1,.15,.08,1.21,1.06,.69,.53,.12,.13,1.21,1.38,.55,.56,.76,1.04,.93,1.26,.48,.66,.15,.22,.3,.45,.44,.68l11.24,2.87c-1.78-2.77-1.33-6.26-.89-9.52,.11-.77-1.29-2.1-1.72-2.47-.96-.82-2.02-1.48-3.15-2.03-.98-.47-4.79-2.18-5.52-.51-.97,2.25-2.5,4.21-4.41,5.75l9.35,5.53c2.8-7.06,6.45-13.68,11.18-19.63,.39-.49-.52-1.53-.76-1.77-.68-.67-1.49-1.18-2.33-1.62-.91-.47-1.9-.91-2.91-1.1-.64-.12-1.96-.45-2.49,.06-2.55,2.47-5.35,4.68-8.39,6.51l7.76,4.16c1.27-2.45,3.17-4.35,5.52-5.76l-7.16-4.33c-3.6,3.42-7.46,6.54-11.08,9.92-1.74,1.62,5.27,5.6,7.08,3.79,3.87-3.87,8.4-7.32,12.99-10.28l-5.02-2.32c-.95,1.09-1.89,2.2-2.83,3.31-.66,.77,4.39,3.71,5.56,2.14h0Z"/><path class="cls-1" d="M837.65,348.63c-.35-.18-.65-.35-.95-.6-.59-.47-1.53-.7-2.25-.76-.38-.03-1.33-.11-1.48,.41-.28,.98,0,2.08,.18,3.07s.43,2.05,.79,3.04c.75,2.02,1.75,3.92,2.89,5.74,2.67,4.23,7.85,7.74,13.03,6.81,.97-.17,.45-1.07,0-1.46-.87-.74-2.2-1.21-3.33-1.29-.07,0-.79-.11-.46-.04,.37,.08-.52-.22,.03,0,1.13,.43,.18-.16-.1-.13l.32,.15c-.25-.16-.29-.18-.13-.06,.27,.16-.17-.13-.22-.16-.17-.13-.34-.27-.51-.42-.03-.03-.3-.27-.13-.11-1.24-1.2-2.29-2.65-3.24-4.08-1.03-1.55-1.82-3.22-2.62-4.9-.4-.84-.79-1.68-1.14-2.54-.38-.94-.66-1.9-1.19-2.77l-2.29,.51c.29,.09,.41,.15,.77,.31,.65,.29,1.71,.69,2.41,.35s.04-.85-.39-1.07h0Z"/><path class="cls-1" d="M841.46,346.3c-.25-.08-.49-.15-.74-.23-.27-.09-.14-.04-.06,.02-.68-.5-3.45-1.69-4.05-.53-.24,.47-.05,1.11,.03,1.61,.08,.54,.16,1.08,.29,1.61,.26,1.08,.65,2.16,1.04,3.2,.86,2.25,2.05,4.39,3.38,6.39,1.52,2.27,3.21,4.38,5.57,5.82,1.7,1.03,3.63,1.83,5.62,2.08,1.4,.18,2.98,.13,4.05-.93,1.01-1-.94-2.24-1.71-2.65-1.33-.7-3.13-1.42-4.61-.81-.15,.06-.32,.08-.48,.11-.43,.07,.47,.05-.31,0-.39-.02-.25-.02,.06,.01-.34-.06-.35-.06-.02,0,.33,.05,.63,.16,.92,.33,.76,.34,.9,.39,.44,.15l.42,.24c-.55-.33,.24,.25-.04-.04-.29-.31-.62-.58-.92-.89,.29,.31-.12-.14-.17-.2-.16-.19-.32-.39-.48-.58-.32-.4-.64-.8-.94-1.21-.58-.77-1.14-1.57-1.67-2.38-1.03-1.58-1.99-3.24-2.85-4.92-.46-.89-.85-1.82-1.29-2.72-.48-.99-.82-2.19-1.51-3.04l-.35,.96c-.62-.04-.69-.01-.22,.08l.59,.15c.4,.1,1.61,.33,1.67-.33s-1.23-1.19-1.66-1.32h0Z"/><path class="cls-1" d="M844.9,344.73c-.97-.92-3.72-1.82-4.59-.32-.39,.67-.16,1.41-.02,2.12,.15,.74,.29,1.48,.46,2.22,.66,3.01,1.7,6.02,3.32,8.66,1.95,3.17,4.83,5.62,8.09,7.39,2.89,1.56,7.05,3.22,10.24,1.62,1.03-.52-.57-1.9-.96-2.2-1.09-.84-2.42-1.45-3.82-1.46-.55,0-1.1-.07-1.65-.12-.27-.02-.53-.05-.79-.09-.07,0-.87-.13-.5-.07s-.4-.1-.47-.12c-.16-.04-1.01-.38-.23-.05-.11-.05-.91-.36-.36-.13s-.26-.1-.34-.19c.33,.34,.39,.25-.03-.03-.25-.17-.55-.38-.14-.07-.25-.19-.49-.39-.73-.59-.39-.32,0,.02-.22-.19-.75-.74-1.4-1.55-1.98-2.42-1.39-2.1-2.34-4.4-3.27-6.72-.48-1.19-.91-2.39-1.35-3.59-.19-.53-.44-1.08-.57-1.63-.05-.22-.1-1.26,.1-1.38,.29-.17-.02-.51-.16-.64h0Z"/><path class="cls-1" d="M844.67,366.02c.47,.18,.39,.13-.24-.16,.19,.1,.38,.2,.57,.29,.59,.29,1.19,.56,1.79,.81,1.07,.45,2.17,.82,3.29,1.13,.74,.2,1.5,.34,2.27,.27,.38-.03,1.1-.13,1.23-.6,.35-1.31-.22-2.53-1.14-3.47-1.79-1.82-4.32-2.73-6.81-2.99-.49-.05-1.31,.08-1.57,.59-1.47,2.85-.6,5.79,1.31,8.16,.97,1.21,2.94,2,4.35,2.38,.6,.16,2.93,.73,3.2-.31,.41-1.6,.27-2.94-.94-4.16-1.87-1.87-4.74-3.24-7.41-3.16-2.87,.08-3.53,3.89-3.3,6.15,.16,1.51,2.47,2.87,3.65,3.43,.76,.36,1.55,.67,2.37,.88,.62,.16,1.94,.39,2.57-.03,2.31-1.55,4.28-3.49,5.82-5.81,.39-.58-.33-1.6-.65-1.97-.67-.76-1.48-1.36-2.34-1.88-.92-.56-1.95-1.08-3-1.33-.83-.2-1.84-.44-2.65-.05-1.62,.78-2.49,2.35-2.46,4.13,.01,.69,.69,1.35,1.14,1.8,.74,.74,1.62,1.37,2.55,1.85,1.41,.71,3.51,1.71,5.09,1.01,1.97-.86,3.81-1.95,5.51-3.26l-8.76-5.21c-.52,.98-1.01,1.98-1.51,2.97-.32,.65,.29,1.53,.68,1.96,.68,.76,1.5,1.35,2.36,1.86,.93,.55,1.96,1.06,3.02,1.31,.82,.19,1.86,.44,2.66,.03,2.06-1.08,4.05-2.18,5.91-3.56l-8.16-4.78c-1.22,1.91-2.77,3.59-3.89,5.57-.29,.51,.28,1.29,.58,1.61,.57,.62,1.25,1.1,1.97,1.52,.77,.45,1.63,.87,2.51,1.06,.57,.13,1.7,.44,2.2,0,1.21-1.06,2.49-2.05,3.8-2.97,.61-.43,1.23-.82,1.82-1.28,.65-.5,1.34-.9,1.65-1.68,.3-.72-.9-1.57-1.37-1.87-.91-.57-1.97-1.03-3.06-.98-1.86,.08-3.63,.92-5.28,1.75-1.53,.77-3.02,1.61-4.49,2.49l6.92,4.53c1.88-1.64,3.38-3.62,5.18-5.35,.45-.43-.44-1.61-.64-1.83-.63-.7-1.4-1.25-2.22-1.73-1.38-.81-3.68-1.97-5.31-1.23-2.18,.99-4.29,2.1-6.44,3.16l8.72,5.16c.52-.97,1.05-1.94,1.55-2.92,.33-.64-.29-1.55-.67-1.98-.68-.76-1.5-1.36-2.37-1.88-.93-.56-1.97-1.07-3.04-1.32-.72-.17-2.02-.54-2.67-.03-1.68,1.31-3.5,2.39-5.44,3.25l8.78,4.66c0-.25,0-.48,.04-.74l-.09,.56c.16-.75,.51-1.37,1.05-1.9l-.42,.39c.26-.22,.52-.38,.82-.53l-8.65-5.23c-1.05,1.62-2.3,3.08-3.68,4.43l.4-.39c-.51,.49-1.04,.95-1.59,1.39l8.58,4.29c-.13-.86-.17-1.71,.04-2.56,.1-.4,.23-.79,.4-1.17,.09-.21,.26-.42,.33-.63,.11-.34,.79,.23-.75,.07l-2.08-.45-.76-.3-2.04-1.23c-.88-.66-.8-1.28-.73-.48,.03,.29,0,.54-.05,.82l7.56,2.06c.4,.46-.1-.15-.17-.27-.14-.23-.29-.48-.4-.73-.08-.19-.26-.91-.32-1.3-.17-1.06-.04-2.03,.36-3.02l-2.44,.5c-1.45-.24-2.63-.84-3.55-1.82-.06-.19-.05-.16,.03,.1,0,.33,.06,.37-.04,.66l3.5-.33c-.14-.04-1.02-.25-.37-.11,.29,.1,.32,.11,.09,.02-.31-.13-.2-.08,.34,.16-.12-.12-.4-.21-.55-.28-.91-.47,.69,.49-.09-.08l1.3,1.19c-.07-.1-.13-.19-.19-.3-.73-1.2-2.43-1.97-3.67-2.44s-2.98-1.01-4.36-.65c-1.01,.26-1.27,.95-.7,1.82,.77,1.17,2.4,1.99,3.67,2.44h0Z"/><path class="cls-1" d="M816.93,431.46c3.54,.2,7,.78,10.48,1.41s7.12,1.42,10.14,2.24c7.19,1.93,13.69,4.67,20.74,6.63,.64,.18,2.13,.5,2.68-.12s-.36-1.26-.83-1.56c-3.49-2.27-7.49-3.72-11.41-5.08s-7.55-2.38-11.4-3.34c-7.53-1.88-15.13-2.79-22.82-3.72-.96-.12-2.59,.18-1.84,1.46s2.94,2.01,4.26,2.08h0Z"/><path class="cls-1" d="M828.71,435.64c5.37-2.48,10.57-5.28,15.33-8.81,1.4-1.04-1.69-2.62-2.34-2.84-1.66-.58-3.75-.98-5.32,.02-3.04,1.95-5.41,4.6-7.16,7.74-.31,.55,.66,1.43,.95,1.65,.7,.55,1.55,.88,2.39,1.14,1.63,.51,3.64,.83,5.15-.16,3.32-2.17,6.62-4.36,9.89-6.59l-9.04-2.96c-1.33,3.19-2.28,6.52-2.79,9.95-.25,1.72,2.26,2.81,3.49,3.27,1.45,.54,4.3,1.37,5.65,.14,2.58-2.36,4.79-5.02,6.76-7.91l-9.62-3.35c-2.05,3.46-2.99,7.21-3.03,11.22-.02,1.52,3.19,2.88,4.25,3.21,1.48,.47,3.97,1.15,5.33,.04,4.19-3.44,7.73-7.54,10.68-12.08l-10.12-3.57c-.93,3.82-1.44,7.69-1.6,11.61-.07,1.61,3.25,3.16,4.38,3.55,.89,.31,1.8,.55,2.74,.67,.72,.09,2.29,.13,2.9-.47,3.39-3.33,6.32-7.11,8.8-11.16l-10.86-3.79c-1.3,5.98-2.35,12.11,.48,17.81,.93,1.88,4.12,3.15,6.02,3.55,1.6,.33,4.11,.74,5.1-.93,3.44-5.8,5.81-12.37,7.62-18.84l-11.43-3.53c-.3,2.78-.89,5.46-1.46,8.19l11.21,3.62c.2-2.48,.18-4.96-.11-7.43-.17-1.52-2.83-2.59-3.93-2.96-1.86-.64-3.7-.82-5.61-.3-3.98,1.09-4.79,7.01-5.15,10.4-.26,2.43-.28,4.91-.01,7.35,.12,1.12,.35,2.23,.63,3.32,.17,.66,.34,1.45,.7,2.03,.53,.84,1.31,1.61,1.95,2.37,.92,1.1,2.81,1.7,4.13,1.9,.82,.13,2.63,.28,2.99-.79s.59-1.77,.38-2.92c-.18-1.04-.34-2.07-.45-3.12-.21-1.89-.33-3.8-.17-5.7s.5-3.96,1.02-5.89c.24-.88,.49-1.79,.89-2.61,.15-.31,.31-.6,.55-.85,.38-.41,.78-.39,.07-.24l-8.57-3.53c.03,1.79-.19,3.58-.52,5.34-.44,2.3,3.06,3.87,4.78,4.38,1.32,.4,2.82,.76,4.21,.53,.83-.14,1.92-.36,2.23-1.29,.89-2.66,1.34-5.5,1.67-8.28,.28-2.37-3.06-3.85-4.91-4.38-1.35-.39-2.87-.73-4.28-.48-.82,.15-1.97,.39-2.25,1.33-1.84,6.39-4.59,12.28-7.63,18.18l11.13,2.61c-2.32-4.52-1.32-10.2-.44-15.06,.4-2.21-2.93-3.75-4.59-4.29-1.78-.58-5.02-1.46-6.26,.5-2.24,3.53-4.74,6.85-7.5,9.98l10.02,3.75c.01-3.57,.45-7.09,1.25-10.57,.47-2.02-2.81-3.52-4.28-4.01-1.67-.55-4.66-1.38-5.84,.44-2.73,4.18-6.04,7.92-9.75,11.25l9.58,3.25c-.01-3.49,.98-6.94,2.68-9.97,.36-.63-.55-1.63-.9-1.96-.84-.8-2.1-1.44-3.19-1.79-1.57-.51-4.42-1.31-5.54,.41-1.73,2.65-3.74,5.09-5.94,7.36l9.14,3.41c.48-3.57,1.35-7.03,2.66-10.39,.59-1.51-2.68-2.77-3.53-3.05-1.65-.54-3.98-1.02-5.51,.08-3.15,2.27-6.27,4.6-9.37,6.94l8.49,2.64c1.33-2.92,3.4-5.3,6.05-7.1l-7.66-2.82c-4.41,3.46-9.19,6.32-14.48,8.2-1.83,.65,.04,2.35,.95,2.79,1.61,.78,4.12,1.44,5.86,.64h0Z"/><path class="cls-1" d="M823.84,432.1c-.3-.43-.7-1.88,.14-1.98l-2.64-.93c.14,1.13,2.78,1.96,3.67,2.39,2.21,1.09,4.44,2.16,6.68,3.2,3.24,1.5,6.48,3.01,9.76,4.42,6.93,2.96,13.86,5.87,20.99,8.3,.79,.27,2.79,.68,3.34-.25s-1.09-1.84-1.73-2.13c-6.7-3.04-13.55-5.71-20.35-8.53-3.37-1.4-6.77-2.72-10.15-4.1-1.7-.69-3.41-1.36-5.11-2.04-1.88-.76-4.11-2.02-6.17-1.89-.26,.02-1.16,.15-.93,.64,.17,.36-.33,1.15-.36,1.55-.03,.47,.09,.91,.31,1.32,.46,.87,3.18,.93,2.55,.03h0Z"/><path class="cls-1" d="M821.49,430.07c-.56,1.39,1.65,2.43,2.57,2.8,1.82,.73,3.67,1.38,5.52,2.05,3.65,1.32,7.28,2.7,10.91,4.09,7.4,2.84,14.71,5.93,22.06,8.91,1.04,.42,2.96,.87,3.96,.11s-.06-1.73-.85-2.11c-6.48-3.19-13.12-5.93-19.89-8.44-3.32-1.23-6.66-2.42-10.03-3.51-1.69-.55-3.39-1.09-5.09-1.61-.95-.29-1.9-.59-2.85-.86-.46-.13-.92-.25-1.39-.37l-.46-.12c-.72-.21-.62-.14,.29,.22l-.12,.55,.07-.05c1.47-.61-.63-1.79-1.17-1.99-.87-.31-3.04-.8-3.51,.34h0Z"/><path class="cls-1" d="M680.3,423.48c-1.59,3.54-.01,7.36,1.66,10.56s3.67,6.32,5.86,9.25c4.72,6.31,10.31,11.72,17.1,15.76,.8,.47,2.21,1.18,3.15,.72s.18-1.36-.35-1.82c-4.98-4.3-9.82-8.9-13.91-14.06-2.08-2.63-3.95-5.44-5.62-8.34s-3.59-6.46-2.28-9.9c.66-1.73-4.84-3.9-5.62-2.17h0Z"/><path class="cls-1" d="M680,428.16c3.64,4.61,7.17,9.29,10.99,13.76,3.46,4.05,7.08,7.95,10.85,11.71,1.15,1.15,2.66,2.07,4.32,2.22,.91,.08,2.52-.18,1.78-1.51-4.63-8.32-9.61-16.44-14.71-24.48-.86-1.36-2.92-2.37-4.45-2.59-1.07-.15-2.55,.05-1.98,1.51,3.77,9.68,9.11,18.8,15.71,26.83,1.18,1.44,2.87,2.69,4.72,3.13,.72,.17,3.37,.53,3.05-.99-1.97-9.54-6.34-18.28-12.23-26-1.16-1.52-3.23-2.78-5.11-3.16-.77-.16-3.6-.43-3.21,1.17,1.57,6.49,4.62,12.19,9.13,17.12,2.34,2.56,4.95,4.89,7.82,6.84,1.78,1.21,3.63,2.45,5.62,3.3s5.27,1.9,7.13,.32c.68-.58,.85-1.15,.52-2.03-3.76-9.99-10.15-18.9-18.47-25.59-1.66-1.34-3.8-2.28-5.93-2.45-.9-.07-3.49,.11-3.04,1.72,2.28,8.26,8.98,14.48,15.76,19.27,1.66,1.17,3.75,2.18,5.82,2.1,1.29-.05,2.6-.93,1.84-2.4-2.73-5.31-5.33-10.69-7.97-16.04l-9.69-1.69c4.09,6.17,9.82,11.27,16.23,14.91,1.43,.81,2.9,1.53,4.57,1.56,.81,.01,2.38-.28,2.19-1.48-1.1-6.75-4.26-13.05-9.12-17.9-1.68-1.67-3.93-3.48-6.4-3.74-1.41-.15-3.51,.39-2.69,2.31,2.75,6.5,7.55,11.96,13.55,15.69,.99,.62,6.96,3.64,7.05,.28,.05-1.6-.12-3.15-.41-4.72-.12-.66-.27-1.31-.46-1.96-.08-.29-.18-.57-.27-.85-.05-.13-.52-1.56-.33-.35l-10.53-3.3c2.98,5.53,8.88,9.76,14.8,11.59,1.49,.46,4.1,.94,4.45-1.18,.43-2.6,.19-5.28-.52-7.81l-4.46,2.1c.49,.17,.46,.13-.08-.09-.32-.12-.62-.29-.89-.49-1.32-.84,.14,.11,.12,.13l-.56-.46c.42,.35,.84,.7,1.27,1.05,.42,.35,.84,.71,1.28,1.04,1.91,1.41,4.19,2.64,6.54,3.14,1.47,.31,3.29,.46,4.63-.37,1.21-.74,1.5-1.98,2.53-2.84l-.73,.52c.14-.1,.28-.19,.43-.26,.11-.06,.23-.1,.35-.14,.21-.06,.16-.06-.15,0-.31,.04-.36,.05-.14,.02,.09-.01,.18-.02,.26-.02,.18,0,.36,0,.55,0,.79,0,.08,.07-.27-.06,.17,.06,.41,.06,.59,.09,.44,.07,.89,.15,1.33,.22,1.11,.17,2.29,.38,3.42,.27,1.47-.14,2.32-.51,3.49-1.37,.82-.6,.06-2.53-.22-3.08-.71-1.44-2.08-2.87-3.35-3.82-2.01-1.5-5.19-3.52-7.56-1.78l-.22,.16,.73-.53c-.07,.04-.94,.5-.96,.42,.6-.08,.68-.1,.24-.06-.19,.01-.37,.01-.56,0-1.36-.03,.69,.16-.18,.01-.39-.06-.79-.13-1.18-.19-1.88-.29-4.1-.69-5.88,.22-.95,.48-1.5,1.16-2.04,2.03-.1,.17-.87,1.09-.44,.8-.19,.1-.39,.19-.6,.25,.49-.09,.5-.12,.03-.1,1.02-.04,2.43,.61,3.12,1.32-.53-.54-1.53-1.24-2.07-1.62-1.52-1.11-3.18-2.07-4.96-2.69-1.12-.39-3.45-1.07-4.31,.27s-.1,2.82,.01,4.34c.09,1.22,.02,2.44-.14,3.65l4.45-1.18c-.42-.12-.83-.26-1.25-.39-.58-.18,1.4,.57,.1,.02-.46-.24-.23-.1,.69,.42-.22-.13-.43-.26-.64-.4-1.05-.63,1.17,1,.18,.13-.15-.12-.29-.25-.43-.37-.34-.31-.19-.17,.45,.43,.04-.21-.69-.6-.76-.85,.45,.6,.5,.65,.15,.18l-.21-.32c-.28-.43-.53-.87-.77-1.33-.63-1.2-2.23-2.47-3.34-3.14s-2.3-1.24-3.6-1.54c-1.45-.33-4.58-.07-3.42,2.32s1.76,4.59,1.78,7.18l7.05,.28c-.49-.3-.98-.61-1.45-.94-.17-.12-.92-.68-.12-.07,.85,.66-.07-.07-.25-.22-.2-.17-.39-.34-.59-.51-.15-.13-.95-.94-.32-.27,.59,.63-.03-.04-.15-.16-.22-.24-.44-.48-.66-.72s-.95-.87-.99-1.2c.36,.49,.43,.58,.21,.28-.08-.11-.15-.21-.22-.32-.15-.21-.29-.43-.43-.65-.31-.49-.61-.99-.89-1.51-.05-.09-.53-1.01-.29-.54s-.25-.58-.25-.56l-8.04-.38c-1.12-1.1,.34,.41,.61,.72,.22,.26,.43,.52,.64,.78,.16,.2,.67,1,.07,.08,.7,1.08,1.4,2.13,2,3.28,.34,.65-.37-.89,.14,.3,.11,.25,.22,.5,.32,.76,.26,.64,.49,1.28,.7,1.93,.37,1.16,.71,2.54,.85,3.52l6.75,.07c-.6-.34-1.2-.69-1.79-1.06-.33-.21-.69-.51-1.04-.68,.31,.15,.93,.67,.29,.18-.55-.42-1.11-.83-1.64-1.27-.22-.18-1.32-.9-.18-.13-.28-.19-.52-.48-.76-.71-.5-.48-.99-.97-1.47-1.47-.24-.25-.47-.5-.7-.75-.64-.68,.25,.33-.12-.12-.91-1.12-1.79-2.26-2.59-3.46-1.4-2.09-4.21-3.58-6.63-4-1.42-.25-4.15,.14-3.06,2.32,2.7,5.39,5.45,10.77,8.08,16.2l7.66-.3c-.65-.46-1.29-.94-1.92-1.42-.16-.12-.32-.25-.47-.37-.32-.25-.21-.17,.32,.26,.01-.04-.86-.74-.91-.78-1.14-1.01-2.15-1.99-3.06-3.08-.51-.61-.98-1.24-1.45-1.88-.51-.67,.18,.36-.29-.43-.2-.34-.41-.67-.6-1.01-.75-1.34-1.38-2.75-1.85-4.2l-8.98-.73c7.13,5.48,12.65,12.72,15.89,21.12l.52-2.03c-.51,.46,.22,.23,.63,.31,.49,.1,1.21,.29,1.59,.61-.41-.35-1.02-.6-1.49-.87-.62-.36,.99,.69,.12,.08-.26-.19-.53-.36-.79-.55-.47-.34-.93-.69-1.39-1.04-1-.77,.54,.49-.01,0-.24-.21-.49-.42-.73-.64-.48-.43-.95-.87-1.41-1.33-.18-.18-.36-.37-.54-.55-.87-.88,.34,.41-.13-.13-.43-.49-.85-.97-1.26-1.48-.77-.96-1.5-1.95-2.19-2.97-.49-.72-1-1.56-1.62-2.68-1.21-2.18-2.19-4.48-2.95-6.86l-8.14-1.28c5.83,6.81,9.55,14.98,11.72,23.63l6.97,.71c-1.31-1.51-3.04-3.68-4.42-5.55-1.51-2.04-2.94-4.15-4.27-6.3-2.62-4.23-4.85-8.69-6.78-13.27l-6.43-1.07c5.04,7.72,9.74,15.67,14.3,23.69l6.1,.71c-7.74-7.66-15.37-15.85-21.45-24.91-.87-1.3-2.69-2.04-4.2-2.2-.76-.08-2.91,.21-1.9,1.49h0Z"/><path class="cls-1" d="M736.09,431.32c-6,3.44-11.8,7.47-16.75,12.32-2.48,2.43-4.74,5.08-6.76,7.91-.99,1.38-1.91,2.81-2.77,4.27-1.01,1.73-2.13,3.59-2.45,5.6-.8,5.06,3.53,10.6,8.46,11.55,1.91,.37,1.45-2,.89-2.98-.94-1.66-2.62-3.43-4.58-3.79,.62,.11,1.24,.85,1.61,1.35,.14,.16,.25,.33,.34,.52-.12-.34-.15-.44-.1-.28-.03-.66,.01-1.56,.23-2.36,.53-1.92,1.58-3.7,2.59-5.4,1.9-3.21,4.1-6.25,6.56-9.06s5.15-5.39,8.1-7.67c3.23-2.49,6.6-4.42,10.37-5.97,1.62-.66-.15-2.99-.84-3.69-.78-.78-1.66-1.49-2.67-1.95-.57-.26-1.63-.72-2.24-.38h0Z"/><path class="cls-1" d="M706.26,439.46c-2.2,8.39,2.83,16.22,7.54,22.69l4.42-.51c-5.08-6.03-10.24-11.99-15.43-17.94-2.56-2.93-5.14-5.85-7.73-8.75s-5.1-5.54-8.57-7.11c-.52-.23-2.13-.77-2.22,.3-.18,2.18,.58,4.16,1.6,6.05,1.08,1.99,2.26,3.92,3.5,5.81,2.1,3.21,4.38,6.29,6.83,9.23,2.63,3.16,5.44,6.19,8.43,9.02,1.36,1.29,2.75,2.56,4.2,3.76,1.89,1.56,4.55,3.42,7.15,2.91,1.07-.21,1.23-1.03,.67-1.93-3.8-6.1-9.33-10.67-14.9-15.08l-2.59,2.19c6.13,4.58,12.2,9.24,18.29,13.86,.92,.7,3.41,2.31,4.62,1.39,1.43-1.08,.91-2.33,.74-3.86-.22-1.88,.69-3.65,1.18-5.42,1-3.63,.92-7.35,.78-11.07-.07-1.72-2.02-3.09-3.42-3.76-.87-.42-3.43-1.29-3.58,.39-.39,4.25-.86,8.5-1.05,12.76s.07,8.84,.71,13.19l7.08,3.35c-.64-3.38-2.86-6.08-5.55-8.09-.71-.53-2.52-1.5-3.34-.59s.3,2.61,.92,3.27c.06,.07,.66,.81,.42,.47-.28-.39,.27,.56,.04,.09,.25,.51,.34,.96,.44,1.52,.33,1.94,2.36,3.68,4.06,4.46,1.22,.56,3.28,.84,3.03-1.11-1.11-8.55-.46-17.38,.26-25.93l-7-3.37c.15,3.54,.33,7.19-.51,10.66-.38,1.58-1.09,3.1-1.26,4.73-.09,.89,.08,1.71,.24,2.58,.04,.22,.29,.98,.08,1.13l4.62,1.39c-6.66-4.92-13.34-9.82-19.96-14.78-.78-.59-2.83-1.59-3.73-.74s.48,2.41,1.14,2.93c4.7,3.71,9.51,7.4,12.8,12.44l.67-1.93c-.16,.05-.32,.08-.48,.09-.2,0-.11,.04,.29,.11,.08-.03,.73,.57-.19-.19-.61-.5-1.2-1.03-1.79-1.55-1.24-1.1-2.45-2.23-3.63-3.39-2.26-2.22-4.41-4.56-6.43-7.01s-4.08-5.23-5.91-7.98c-.88-1.32-1.73-2.66-2.56-4.02s-1.73-2.83-1.65-4.47l-2.22,.3c2.56,1.11,4.25,3.53,6.13,5.68,2.38,2.74,4.75,5.49,7.09,8.26,4.74,5.59,9.33,11.28,13.87,17.03,.82,1.03,2.75,2.5,4.17,2.23s.87-1.88,.25-2.74c-3.93-5.42-8.46-11.65-6.15-18.68,.78-2.36-5.7-6.86-6.39-4.25h0Z"/><path class="cls-1" d="M684.77,428.68c.1-2.23-2.77-4.34-4.85-4.34-2.3,0-3.08,2.38-2.59,4.28,.6,2.33,1.99,4.64,3.07,6.77s2.31,4.33,3.66,6.38c5.14,7.82,11.91,14.61,19.54,20.01,4.39,3.11,9.09,5.7,14.08,7.71,.8,.32,2.36,.51,2.23-.77s-1.7-2.54-2.75-3.02c-1.64-.75-3.26-1.56-4.86-2.41-.76-.41-1.52-.82-2.27-1.26-.35-.2-.69-.4-1.03-.61-.23-.14-.46-.27-.68-.41-.1-.06-.52-.32-.19-.12-1.52-.95-3-1.96-4.45-3.03-.32-.24-.64-.48-.96-.72-.16-.12-.32-.24-.47-.36-.02-.02-.54-.42-.2-.15-.73-.58-1.44-1.18-2.14-1.8-5.28-4.61-9.74-10.04-13.44-16.08-1.24-2.03-2.4-4.12-3.49-6.23-.48-.94-1.12-1.95-1.21-3.03-.04-.45,.02-.93,.24-1.33,.07-.12,.24-.26,.29-.38,.06-.09,.14-.15,.25-.18,.4-.15,.17-.27-.67-.35l-1.11-1.13c.07,.12,.05,.25-.05,.38-.46,1.54,4,3.6,4.07,2.18h0Z"/><path class="cls-1" d="M716.55,469.96c1.27,1.12,2.86,1.93,4.36,2.68,1.19,.59,2.85,1.19,4.03,.28,.9-.69,1.11-2.16,1.28-3.22,.23-1.44,.3-2.91,.29-4.37-.06-6.2-1.69-12.09-4.42-17.64-.38-.77-1.33-1.42-2.12-1.7-.37-.13-1.59-.36-1.53,.39,.36,4.83,1.89,9.47,2.44,14.27,.28,2.42,.2,4.84-.06,7.26-.04,.37-.02,1.12-.45,1.3-.25,.1-.87-.21-1.12-.28-.93-.29-2.05-.77-3.04-.63-1.04,.15-.06,1.31,.33,1.65h0Z"/><path class="cls-1" d="M717.4,437.36c-2.19,4.21-3.95,8.65-5.18,13.23-.59,2.22-1.06,4.47-1.41,6.74-.38,2.53-.64,4.76,1.2,6.83,.7,.79,3.26,3.43,4.59,2.14,.85-.82,1.23-1.78,1.39-2.94,.18-1.26-.88-2.51-1.76-3.27-.53-.46-2.33-1.85-3.03-.95-.56,.72-1.29,1.34-2.01,1.89l4.59,2.14c.88,.99,.5,1.41,.63,.17,.05-.45,.1-.89,.15-1.34,.13-1.04,.28-2.08,.46-3.11,.34-1.99,.77-3.97,1.29-5.92,1.05-3.99,2.48-7.85,4.26-11.57,.57-1.19-.83-2.52-1.68-3.18-.51-.39-2.92-1.96-3.49-.85h0Z"/><path class="cls-1" d="M406.6,410.13c-.41,.06-.82,.07-1.23,.02-.52-.08-1.98,.04-1.39,.98,1.04,1.67,2.91,2.83,4.56,3.83,1.52,.91,3.16,1.65,4.84,2.23,3.46,1.21,7.16,1.86,10.82,1.84,3.86-.02,7.72-.64,11.46-1.59s7.39-2.7,10.94-4.45c1-.49-.39-1.87-.78-2.16-.9-.67-2.26-1.29-3.41-.99-3.54,.91-7.11,1.75-10.63,2.77-3.18,.92-6.44,1.72-9.76,1.92-2.73,.16-5.51,.05-8.18-.57-1.12-.26-2.27-.65-3.29-1.11-1.45-.65-2.68-1.63-4.09-2.34l1.36,2.2c.34-.21,.66-.21,1.06-.27,.8-.1,.38-.97,.06-1.3-.52-.56-1.55-1.11-2.33-1.02h0Z"/><path class="cls-1" d="M423.62,416.34c7-.39,14.02-.42,21.03-.54s13.8-.12,20.68-.94c.8-.1,1.27-.52,.78-1.31s-1.75-1.44-2.68-1.51c-14.58-1.22-29.24-.19-43.84-.68-1.66-.06-2.15,1.29-1.19,2.51,1.1,1.39,3.41,2.57,5.22,2.47h0Z"/><path class="cls-2" d="M302.94,365.68l.15-.04c.1,0,.17-.06,.2-.15,.2-.99-1.75-3.2-2.75-2.34-.49,.42,.05,1.38,.26,1.78,1.13,2.24,3.31,2.93,5.5,3.69s4.41,1.52,6.62,2.27c4.45,1.52,8.97,2.86,13.49,4.15,9.05,2.59,18.18,4.8,27.4,6.67,2.25,.46,4.51,.89,6.77,1.31,1.13,.21,2.26,.41,3.39,.61s2.62,.73,3.69,.47c1.62-.39,1.26-2.42,.86-3.62-.78-2.34-2.87-4.78-5.15-5.76-1.11-.48-2.46-.49-3.66-.63s-2.34-.28-3.51-.42c-8.89-1.11-17.74-2.56-26.55-4.18-4.82-.88-9.61-1.88-14.39-2.96-2.42-.55-4.85-1.06-7.26-1.62s-4.6-1.26-6.91-1.59l.7,.23c1.65,1.35,2.03,2.01,1.14,1.98l-1-.97,.06,.11-.22-.84-.05,.17c-.15,.47,.66,1.8,1.23,1.66h0Z"/><path class="cls-2" d="M309.88,366.17c.69,.24,1.22,.69,1.89,.95,.5,.19,1.02,.35,1.53,.53,1.28,.44,2.55,.82,3.87,1.14,2.42,.58,4.83,1.14,7.28,1.56,4.78,.81,9.6,1.23,14.44,1.43,9.6,.4,19.22-.24,28.83,.24,5.26,.26,10.47,.87,15.69,1.5,1.02,.12,.27-1.79,.13-2.08-.47-.97-1.32-2.24-2.39-2.61-9.15-3.11-19.08-3.01-28.63-2.85s-18.78,.65-28.1-.36c-2.64-.29-5.28-.67-7.92-1.03-1.21-.17-2.4-.37-3.62-.41-.62-.02-1.25-.06-1.87-.05s-1.12,.3-1.76,.29c-.67-.02,.2,1.64,.61,1.78h0Z"/><path class="cls-2" d="M337.6,354.38c-1,1.04-1.26,2.71-1.52,4.08-.4,2.07-.25,4.15,.54,6.12,.73,1.8,1.94,3.58,3.83,4.28,.56,.21,1.16,.25,1.75,.17s1.14-.51,1.52-.99c.27-.35,.21-1.08,.16-1.46-.09-.7-.35-1.47-.68-2.08s-1.19-2.11-2-1.36l-.08,.08,.24-.2c-.43,.35-.96,.52-1.51,.56h.33c-.36,0-.72-.05-1.07-.16-.09-.03-.18-.07-.28-.1-.27-.09,.13,.1-.01,0s-.31-.16-.45-.26c-.07-.05-.15-.13-.23-.16-.19-.09,.3,.32,.08,.07-.06-.07-.3-.34-.04-.02,.13,.16,.15,.19,.08,.1-.12-.17-.05-.06,.2,.34-.19-.33,.06,.15,.1,.23-.23-.49,.12,.46,.05,.15-.11-.5-.07,.04,0,.07-.04-.01-.06-.37-.07-.41-.05-.29,0,.34,0,.04,0-.14-.02-.29-.02-.43,0-.29,0-.58,.01-.86,.03-.53,.1-1.05,.17-1.58,.13-1,.24-1.99,.83-2.83s-1.07-4.28-1.95-3.37h0Z"/><path class="cls-2" d="M343.16,358.47c-.2-1.17-.69-2.32-1.68-3.03-.52-.37-1.21-.52-1.8-.2s-.93,.86-1.22,1.44c-.33,.67-.61,1.37-.8,2.1-.51,1.99-.17,4.18,.61,6.05,.72,1.72,1.84,3.48,3.56,4.34,.69,.35,1.33,.51,2.11,.47,.34-.02,.66-.04,.96-.22,.34-.2,.66-.48,.93-.77,.29-.31,.22-1.16,.17-1.5-.09-.62-.28-1.21-.54-1.78-.23-.5-.5-1.05-.9-1.44-.26-.25-.68-.67-1.08-.5-.48,.21-1.02,.26-1.54,.29h.35c-.7,0-1.35-.21-1.98-.51l.4,.19c-.15-.08-.3-.16-.44-.26-.08-.05-.15-.11-.23-.17-.23-.16,.11,.09,.15,.15-.05-.07-.14-.14-.2-.2-.16-.15-.2-.39,.15,.21-.02-.03-.1-.18-.13-.19,.04,.01,.42,.73,.17,.27-.16-.29,.31,.78,.12,.25,.02,.06,.22,.73,.11,.33-.13-.46,.07,.52,.03,.18-.01-.1-.03-.21-.04-.31-.05-.29,.01,.51,0,.07,0-.11,0-.21,0-.32,0-.27,.01-.54,.03-.82,0,.18-.02,.16,0-.01,.02-.14,.04-.28,.06-.41,.04-.25,.09-.49,.15-.74,.11-.46,.24-.92,.4-1.37,.09-.26,.06-.23,.2-.47,.08-.15,.19-.33,.32-.44,.11-.09,.25-.15,.39-.17,.07-.01,.13-.01,.2-.02-.05,0-.05,.01,0,.02,.5,.09,.24-.28-.77-1.12l-.26-.97v-.24c0,.93,.4,2.17,1.14,2.77s1-.26,.89-.94h0Z"/><path class="cls-2" d="M345.63,389.37l.77,.47-1.48-1.92c.33,.93,.92,1.95,1.83,2.41,.49,.25,.98,.4,1.5,.55,.79,.23,1.57,.4,2.39,.49s1.73,.19,2.59,.12c.82-.07,1.63-.19,2.43-.34,.43-.08,.49-.98,.48-1.24-.02-.65-.18-1.27-.39-1.88-.23-.65-.52-1.32-.94-1.87-.28-.36-.78-1.1-1.29-1.1-.79,0-1.58-.02-2.36-.07-.71-.05-1.42,0-2.13-.02s-1.39-.05-2.08-.06c-.36,0-.73-.03-1.09-.03-.2,0-.43-.01-.63,.04-.3,.08-.46,.31-.65,.54-.35,.44-.13,1.33,0,1.8,.19,.74,.54,1.54,1.07,2.1h0Z"/><path class="cls-2" d="M346.67,386.62l-.1,.11c-.6-.84-1.64-1.37-1.67,.08-.03,1.32,.64,2.86,1.65,3.7,.7,.58,1.58,.92,2.39,1.32s1.6,.74,2.42,1.08c1.56,.66,3.12,1.33,4.71,1.93s3.11,1.21,4.67,1.79c1.06,.39,3.74,1.74,4.5,.43,.71-1.21-.41-3.39-1.11-4.32-1.3-1.73-3.26-2.44-5.25-3.13-1.53-.53-3.07-1.02-4.61-1.54s-3.04-.94-4.57-1.39c-.75-.22-1.49-.44-2.26-.6-.7-.15-1.44-.43-2.15-.23l2.2,4.29,.09-.24-.52,.43c.21-.01,.42,.02,.62,.11,.78,.23,.49-1.37,.4-1.68-.18-.7-.63-1.91-1.42-2.14h0Z"/><path class="cls-2" d="M352.1,388.22c-.6-.63-1.2-1.25-1.8-1.88l.89,4.92c4.09,1.54,10.01,1.84,11.61-3.2,.52-1.65-.87-5.16-2.6-5.73-2.24-.73-4.86-.68-7.04,.22-1.2,.5-.28,3.11,.04,3.89,.39,.96,1.34,3.06,2.67,2.83,4.69-.8,9.34-1.93,13.99-2.91,1.18-.25,.24-3.16,.06-3.68-.39-1.08-1.31-3.3-2.66-3.5-3.97-.56-7.88-1.6-11.55-3.23l1.86,7.14c1.98,.46,4.08,.48,6.11,.62,2.23,.16,4.47,.23,6.71,.29,4.39,.12,8.77,.16,13.16,.13,8.76-.07,17.6-.36,26.32-1.31,4.92-.54,9.82-1.18,14.71-1.92,1.76-.26-1.02-8.02-3.66-7.74-11.16,1.19-22.42,1.99-33.63,2.41-5.21,.2-10.42,.3-15.63,.28-5.47-.02-10.98-.36-16.44-.11-2.63,.12,.48,6.53,1.86,7.14,3.98,1.73,8.07,2.95,12.38,3.52l-2.61-7.17c-4.55,1.1-9.17,2.06-13.67,3.34l2.71,6.72c2-1.15,3.94-1.36,6.09-.5l-2.6-5.73c-.54,1.45-2.17,2.43-3.57,2.84-2.07,.6-4.15,.08-6.24-.02s.41,4.76,1.28,5.24c.57,.32,1.14,.64,1.72,.95,.79,.44,.94-.46,.88-1.05-.11-1.02-.61-2.04-1.31-2.78h0Z"/><path class="cls-2" d="M408.78,383.99c-6.22,.69-12.4,1.16-18.67,1.21s-12.81-.08-18.99-1.65l-.31,7.04c5.88,.93,11.85,1.47,17.78,2.05,2.93,.29,5.86,.58,8.79,.88,1.51,.15,3.02,.3,4.53,.45,.76,.08,1.51,.15,2.27,.23,3.53,.35,3.31-.84,7.84-3.67l-8.62-.02c4.02,3.61,3.24,3.98,6.92,4.25,1.08,.08,2.16,.13,3.24,.21,1.82,.13,3.63,.32,5.45,.48,3.97,.35,7.94,.62,11.92,.96l-3.34-10.74c-8.2,2.08-16.63,3.33-25.04,4.2-4.26,.44-8.54,.75-12.82,.88-3.62,.11-7.31,.18-10.92-.21-1.63-.18-3.27-.48-4.83-1-.73-.24-1.44-.54-2.12-.9-.19-.1-.39-.2-.56-.32,.28,.19,.18,.15,0-.05-.26-.29-.55-.55-.81-.84l1.36,2.16-1.29-3.02-2.89,11.18c.43,.48,1.24,.74,1.8,1.03,.88,.45,1.77,.8,2.7,1.13,1.58,.56,3.09,1.18,4.63,1.84,2.57,1.1,5.21,2,7.87,2.88,5.36,1.77,10.79,3.3,16.29,4.59,10.93,2.57,22.04,4.24,33.25,4.88,3.1,.18,6.33,.49,9.42,.2,1.54-.14,3.22-.16,4.72-.57s2.89-1.22,4.24-1.9c1.44-.72,.25-3.92-.16-4.82s-.93-1.85-1.53-2.69c-.52-.75-1.68-2.2-2.64-2.5-1.97-.62-3.96-1.47-5.99-1.91-1.42-.31-2.97-.37-4.42-.51-2.52-.25-5.09-.21-7.62-.37-5.21-.33-10.4-.88-15.57-1.64-10.28-1.5-20.41-3.92-30.27-7.21-2.8-.93-5.55-2.01-8.34-2.95-2.48-.83-4.74-2.07-7.29-2.7-.86-.21-1.72,1.44-1.91,1.92-.5,1.23-.73,2.53-.84,3.85-.12,1.41-.13,2.92,.18,4.3,.24,1.06,.53,2.47,1.47,3.14,1.59,1.14,3.37,2.1,5.12,2.99,1.52,.77,3.11,1.31,4.79,1.64,3.79,.74,7.7,.59,11.54,.44,9.16-.37,18.31-1.22,27.32-2.92,5.08-.96,10.09-2.2,15.1-3.49,.74-.19,.86-1.59,.86-2.1,0-1.12-.24-2.22-.57-3.29-.36-1.15-.82-2.34-1.5-3.33-.44-.65-1.25-1.98-2.12-2.02-9.44-.45-18.86-1.04-28.31-1.37-9.56-.33-19.18-.94-28.75-.74-1.93,.04-2.22,6.91-.31,7.04,6.47,.46,12.9,.99,19.39,.9s13.28-.54,19.92-.74c1.59-.05,.72-6.99-1.34-6.76h0Z"/><path class="cls-2" d="M455.24,403.91c-4.92,.93-10.06,.97-15.06,1.09s-9.77,.09-14.66-.08-9.75-.44-14.61-.87-10.12-1.23-15.16-2.03c-2.09-.33-2.79,8.09-.27,8.52,7.95,1.36,15.97,2.22,24.03,2.63,8.16,.42,16.42,.4,24.55-.59,2.06-.25,4.1-.62,6.14-1.02,.98-.19,1.96-.39,2.94-.63,.49-.12,.98-.24,1.46-.37,.24-.06,.5-.11,.73-.19,.83-.28,2.38-1.76,2.94-2.41,.84-.99-.43-1.4-1.36-1.55-.36-.06-.73-.1-1.1-.1-.88,0-.72,.33-.86-.86-.16-1.38,.13-.74-.58-.91-.28-.07-.67-.02-.96-.02-2-.05-4-.02-6-.05-8.03-.13-16.06,.3-24.1,.08-9.23-.24-18.44-1.12-27.57-2.51l-.27,8.52c10.28,1.45,20.8,2.26,31.19,2.33,5.07,.03,10.15-.09,15.22-.38s10.14-.99,15.22-1.11c.52-.01,.73-1.06,.77-1.35,.13-.87,0-1.91-.23-2.75-.24-.89-1.02-3.62-2.41-3.36h0Z"/><path class="cls-2" d="M458.42,402.78c-3.72-1.59-7.72-2.73-11.75-3.18s-7.94-.28-11.88,.05c-1.5,.13-1.87,5.13-.48,5.62,1.51,.53,3.36,.52,4.95,.68s3.31,.32,4.96,.42c3.23,.2,6.47,.33,9.7,.39,6.58,.13,13.14-.13,19.71-.44,13.22-.62,26.44-1.29,39.68-1.66,26.41-.74,52.84-.76,79.25,.02,14.77,.44,29.56,1.02,44.3,2.12l-4.52-9.08c-23.57,2.12-47.17,3.93-70.79,5.59-11.56,.81-23.12,1.48-34.7,1.98-12.09,.52-24.16,.57-36.26,.52-6.47-.03-12.94-.09-19.4-.42-6.7-.34-13.38-.9-20.07-1.27-2.55-.14-7.72,8.23-5.22,8.58,12.19,1.71,24.63,2.28,36.91,2.85,12.35,.57,24.72,.52,37.08,.35,25.14-.34,50.32-1.97,75.32-4.61,13.88-1.46,27.76-2.99,41.64-4.49,2.7-.29-2.01-8.95-4.52-9.08-25.91-1.44-51.78-2.49-77.74-2.45-25.48,.04-50.93,1.13-76.34,2.92-7.23,.51-14.47,.92-21.71,1.28-3.54,.18-7.08,.29-10.62,.3-1.81,0-3.62,0-5.43-.02s-3.89-.37-5.69-.09l-.21,5.54c7.14-3.46,15.78-3.4,23.16-.66,.45,.17,1.13-1.55,.67-1.75h0Z"/><path class="cls-2" d="M542.52,412.96c13.85,.66,27.71,.71,41.57,.78,13.98,.07,27.97,.15,41.95,.14,27.99,0,55.98-.21,83.96-.46,15.78-.15,31.55-.3,47.33-.51l-3.78-7.92c-6.39,.25-12.78,.21-19.17,.32s-12.18,.25-18.26,.43c-11.76,.36-23.53,.47-35.29,.83-11.96,.36-23.92,.81-35.89,1.04-6.27,.12-12.53,.31-18.8,.52s-12.06,.24-18.1,.37c-13.22,.29-26.44,.31-39.49-2.14l-6.39,8.09c3.94-.48,7.9-.13,11.84,.21s7.58,.79,11.37,1.17c7.71,.79,15.42,1.55,23.13,2.26,15.51,1.43,31.03,2.45,46.57,3.42,31.71,1.97,63.49,2.53,95.25,2.09,8.78-.12,17.56-.36,26.33-.68,4.72-.17,9.44-.37,14.16-.58,4.09-.18,8.16,.02,12.25-.05,.7-.01,.93-1.66,.98-1.99,.2-1.39,.06-3.01-.18-4.38-.3-1.68-.77-5.29-2.79-5.78-3.29-.8-6.65-1.12-10.03-1.1-3.91,.03-7.82,.07-11.74,.04-8.74-.06-17.49-.04-26.23,.04-16.66,.15-33.31,.52-49.97,.85-33.47,.66-66.95,1.05-100.41-.43-9.43-.42-18.85-1.01-28.26-1.82-9.52-.82-19.09-1.63-28.54-3.04-1.82-.27-4.16,2.07-5.25,3.28-.41,.45-2.97,3.49-1.27,3.75,8.3,1.24,16.56,2.62,24.89,3.59s16.89,1.78,25.36,2.44c16.84,1.31,33.72,1.95,50.61,2.27,33.93,.65,67.87-.01,101.8-.01,9.77,0,19.54,.05,29.31,.22,4.96,.09,9.91,.14,14.85,.54,5.63,.46,11.26,.88,16.87,1.51l-2-12.14c-4.67,.31-9.33,.92-14,1.06-4.21,.13-8.43,.25-12.64,.34-7.38,.16-14.76,.24-22.14,.35-7.37,.11-14.74,.15-22.11,.15s-15.12,.16-22.66-.13c-7-.27-14.01-.25-21.01-.38-7.35-.14-14.7-.31-22.05-.52-15.4-.44-30.78-1.26-46.15-2.16-8.33-.48-16.67-1.01-24.99-1.67s-16.49-1.69-24.78-.84c-2.13,.22-4.12,2.35-5.35,3.96-.5,.66-2.85,3.77-1.04,4.13,12.09,2.39,24.5,3,36.8,3.18,6.26,.09,12.52-.06,18.78-.02s13.02,.1,19.52-.03c25.89-.55,51.77-1.05,77.63-2.42,7.05-.37,14.1-.63,21.15-1.02,7.1-.39,14.19-.97,21.29-1.23,1.54-.06,.2-2.93-.13-3.6-.51-1.04-1.12-2.06-1.89-2.94-.39-.45-1.12-1.38-1.77-1.38-27.56,.31-55.12,.56-82.69,.76-26.91,.19-53.82,.35-80.73,.52-15.48,.09-30.97,.06-46.44,.72-1.6,.07-2.44,5.91-1.19,5.97h0Z"/><path class="cls-2" d="M524.76,414.01l.11-.02c.44-.08,.65-.74,.75-1.11,.16-.57,.49-3.43-1.01-2.8-.75,.31-1,2.08-1.06,2.72-.11,1.05,.04,2.1,.9,2.79,1.7,1.37,4.17,1.78,6.23,2.3,2.3,.59,4.63,1.07,6.97,1.5,4.72,.87,9.5,1.41,14.26,1.96,4.95,.57,9.91,1.1,14.88,1.45,19.97,1.39,39.99,1.91,60,1.82,5.55-.03,11.15,.12,16.7-.19s11.13-.59,16.68-1.05c1.11-.09-.24-5.71-1.77-5.83-17.68-1.35-35.43-1.27-53.15-1.64-17.38-.36-34.76-1.29-52.11-2.48-4.79-.33-9.58-.72-14.37-1.12-2.41-.2-4.81-.47-7.2-.84-1.15-.18-2.3-.39-3.44-.62-.55-.11-1.06-.2-1.62-.22-.68-.03-1.35-.37-1.32,.58l-.62,2.57c-.26,.4,.01,.06,.28,.16l-.29-.57v.07l.63-2.57-.12,.16c-.21,.28-1.04,3.11-.33,2.99h0Z"/><path class="cls-2" d="M630.62,419.7c4.41,.22,8.8,1.11,13.18,1.72s8.7,1.14,13.06,1.59c8.64,.9,17.31,1.5,25.98,1.87,17.56,.75,35.17,.61,52.72-.16,5.02-.22,10.04-.48,15.05-.77,2.47-.14,4.94-.29,7.41-.45,1.24-.08,2.47-.16,3.71-.24,.66-.04,1.32-.09,1.98-.13,2.47-.16,1.91-.75,4.91-3.35l-2.48,.74c2.77-.21,5.54-.4,8.31-.6l-4.04-.5c3.91,2.56,3.13,3.02,6.11,2.81,.69-.05,1.38-.1,2.07-.15,1.64-.12,3.28-.24,4.92-.37,3.1-.24,6.19-.51,9.29-.77,6.07-.52,12.15-.99,18.22-1.54,11.9-1.08,23.79-2.13,35.7-3.14,6.75-.57,13.48-1.07,20.22-1.78,.48-.05-.52-3.08-1.24-3.12-12.01-.57-24.02-.17-36.03,.34-12,.51-23.97,1.22-35.95,2.07-3.35,.24-6.7,.47-10.05,.72-1.53,.12-3.06,.24-4.59,.36-.76,.06-1.53,.12-2.29,.19-3.02,.25-2.37,.5-5.76,3.48l2.5-.76c-3.09,.24-6.17,.48-9.26,.69l4.01,.5c-.39-.26-3.94-2.78-4.37-2.84-.22-.03-.39-.03-.62-.03-.56,0-1.13,.08-1.69,.12-1.12,.08-2.25,.16-3.37,.24-2.17,.16-4.33,.31-6.5,.45-4.25,.29-8.5,.55-12.75,.79-8.57,.48-17.15,.89-25.74,1.13-17.11,.48-34.25,.26-51.32-1.07-4.82-.38-9.63-.84-14.42-1.41-4.82-.57-9.84-.98-14.49-2.4-.92-.28-1.82,1.93-2.06,2.51-.12,.28-1.14,3.19-.32,3.23h0Z"/><path class="cls-2" d="M924.89,407.32c-10.53,2-21.25,2.55-31.95,2.93s-21.83,.77-32.75,1.12c-22.03,.71-44.05,1.49-66.1,1.61-12.38,.07-24.76-.04-37.14-.38-1.4-.04-2.97,1.78-3.78,2.74-.27,.32-2.12,2.69-.92,2.78,6.77,.51,13.52,1.46,20.32,1.7s13.37,.28,20.05,.27c13.27,0,26.53-.12,39.8-.31,27.27-.38,54.54-1.26,81.79-2.45,6.77-.3,13.62-.88,20.38-.43,1.14,.08,2.31-.08,3.46-.05,1.55,.03,3.1,.07,4.64,.18,3.62,.26,7.25,.8,10.83,1.39,1.88,.31,5.09-6.8,3.85-7.2-3.9-1.24-7.86-1.89-11.9-2.42-5.08-.67-10.16-.92-15.28-.77-8.18,.24-16.34,.55-24.52,.89-2.35,.1-4.7,.21-7.05,.28-1.12,.03-2.24,.07-3.36,.11-.52,.02-1.04,.04-1.57,.06-2.71,.12-2.53,1.36-5.61,4.12l8.48,.02c-.43-.31-5.08-3.86-5.55-3.94-.23-.04-.41-.05-.65-.06-.57-.02-1.15,.05-1.72,.07-1.15,.05-2.29,.09-3.44,.14-2.21,.09-4.42,.18-6.63,.26-4.28,.17-8.56,.34-12.84,.51-8.73,.35-17.46,.68-26.2,.93-17.75,.5-35.49,1.37-53.26,1.44-4.87,.02-9.74-.05-14.61,0-4.9,.04-9.87,.11-14.75-.27l-4.69,5.51c22.36,.66,44.73,.55,67.1,.02s44.79-1.52,67.17-2.6c12.24-.59,24.54-1.15,36.58-3.57,.88-.18,1.54-1.93,1.81-2.65,.12-.31,.77-2.16-.03-2h0Z"/><path class="cls-2" d="M963.13,413.69c-11.48-2.73-23.53-3.21-35.27-4.22s-23.79-1.88-35.7-2.68c-23.61-1.6-47.24-2.95-70.88-4.02-47.4-2.16-94.83-3.35-142.28-3.66-27.01-.18-54.01,0-81.02,.55-.99,.02-2.24,1-2.94,1.61-.14,.12-1.56,1.57-.81,1.57,47.7,.13,95.4,.86,143.08,2.31,47.82,1.46,95.61,3.81,143.36,6.79,13.42,.84,26.84,1.79,40.26,2.65,13.54,.87,27.23,2.44,40.8,1.79,.59-.03,1.82-2.58,1.39-2.68h0Z"/><path class="cls-2" d="M483.02,388.89c-.91-.29-1.91-.51-2.78-.89s-1.59-.99-2.35-1.51l-.61,3.91c2.3,.63,4.8,.71,7.17,.94,2.63,.25,5.26,.51,7.89,.7,4.87,.34,9.74,.67,14.62,1,9.96,.68,19.93,1.13,29.89,1.67,19.93,1.08,39.87,2.07,59.81,2.98,39.87,1.84,79.75,3.56,119.64,4.91,22.29,.76,44.57,1.45,66.87,1.67,.99,0-1.08-4.5-2.41-4.59-39.65-2.44-79.36-3.89-119.05-5.67-39.08-1.75-78.15-3.65-117.22-5.43-11.09-.5-22.18-1.02-33.27-1.54-5.45-.26-10.91-.41-16.36-.61-2.84-.1-5.67-.17-8.5-.19s-5.77-.17-8.63,.15c-.98,.11-1.29,3.98-.46,4,1.05,.03,2.19-.09,3.22,.08,.91,.15,1.83,.49,2.72,.73,.53,.14,.35-2.15-.2-2.32h0Z"/><path class="cls-2" d="M881.24,408.73c-3.46-.63-6.95-1-10.45-1.35s-7.08-.26-10.6-.26c-7.3,0-14.6,.03-21.9,.15-14.85,.23-29.7,.46-44.54,.81-14.48,.34-28.96,.69-43.44,1.12s-28.53,.92-42.81,.9c-16.13-.02-32.26-.66-48.27-2.69l-5.61,5.6c13.85-.59,27.7-.66,41.56-.57,6.9,.04,13.8,.1,20.7,.29s13.77,.18,20.66,.34c28.3,.69,56.6,1.27,84.9,1.61,16.13,.19,32.25-.02,48.37,.11l-3.4-7.63c-22.6,1.48-45.21,2.82-67.83,3.98-22.08,1.13-44.16,2.42-66.24,3.55-6.25,.32-12.5,.59-18.74,1.03-3.11,.22-6.22,.42-9.32,.73-3.4,.34-6.84,.84-10.25,1-.44,.02-1.13,1.04-1.3,1.29-.54,.78-.99,1.68-1.33,2.56-.21,.56-1.14,2.97,.04,2.91,2.95-.14,5.95,.01,8.9,.01s6.04-.07,9.06-.16c5.75-.17,11.5-.44,17.24-.73,11.61-.59,23.22-1.14,34.83-1.75,23.41-1.23,46.78-3.04,70.17-4.44,12.72-.76,25.45-1.55,38.17-2.36,1.04-.07-.45-3.9-.63-4.29-.48-1.04-1.38-3.32-2.77-3.34-13.31-.14-26.61-.6-39.92-.71s-26.66-.14-39.99-.13c-27.05,.03-54.1,.09-81.16,.21-15.37,.07-30.74,.35-46.1,.88-1.63,.06-3.27,1.56-4.36,2.66-.31,.31-2.55,2.77-1.25,2.94,28.98,3.88,58.31,3.4,87.49,2.93,29.65-.48,59.29-1.14,88.93-2.02,8.23-.24,16.45-.54,24.67-.89s16.58-.8,24.8-.09c1.06,.09,2.36-4.09,1.74-4.2h0Z"/><path class="cls-2" d="M714.07,422.94c-1.45,.76-3.03,.04-3.65-1.39l-1.04,3.57c2.38-.76,4.52-.62,6.96-.25,2.85,.43,5.74,.7,8.6,1,5.85,.61,11.73,.88,17.6,1.14,11.6,.51,23.22,.66,34.84,.53,23.76-.27,47.58-1.83,71.2-4.31,6.58-.69,13.16-1.42,19.74-2.19,3.32-.38,6.63-.86,9.93-1.3,1.57-.21,3.12-.45,4.68-.74,1.71-.32,3.32-.86,4.97-1.4,.94-.31-.54-4.56-1.53-4.64-3.06-.24-6.02-.3-9.09-.04s-5.88,.47-8.82,.72c-5.7,.48-11.38,1.06-17.08,1.56-11.39,1-22.78,2.02-34.18,2.88-23.2,1.74-46.5,2.86-69.77,2.58-6.57-.08-13.14-.41-19.71-.55-3.23-.07-6.45-.24-9.68-.3-2.66-.04-5.73-.09-7.91,1.66-.64,.52-1.74,2.99-.92,3.68,1.3,1.08,3.15,1.16,4.52,.17,.46-.33,.71-2.57,.34-2.37h0Z"/><path class="cls-2" d="M893.24,414.55c.05,0,.01-.39-.09-.39-.05,0-.01,.39,.09,.39h0Z"/><path class="cls-2" d="M473.01,380.37c-2.21,2.55-3.08,2.24-2.96,4.46,.02,.41,.06,.83,.06,1.24,.02,.96-.08,1.94-.15,2.9-.14,1.86-.35,3.72-.68,5.55-.67,3.72-1.9,7.27-4.12,10.36-.68,.94,1.69,1.3,2.15,1.34,1.06,.11,3,.17,3.79-.76,1.99-2.35,3.44-5.16,4.5-8.04s1.52-6.16,2.3-9.25h-5.42c-1.06,4.02-2.64,7.83-5.45,10.95h7.08c-.81-1.59-1.63-3.18-2.42-4.78l-4.81,1.7c6.38,.6,12.8,.71,19.2,.96s12.44,.41,18.66,.61l-5.35-1.43c4.68,4.26,3.67,4.99,7.7,5.11,.97,.03,1.94,.06,2.91,.08,1.76,.05,3.53,.09,5.29,.14,3.71,.09,7.42,.15,11.13,.19,7.09,.08,14.17-.1,21.25-.4,.58-.02,.75-1.31,.78-1.61,.11-1.06-.07-2.31-.34-3.33-.36-1.34-1.02-3.99-2.72-4.15-7.01-.66-14.01-1.21-21.04-1.51-3.34-.14-6.69-.27-10.03-.36-1.63-.05-3.26-.09-4.89-.13-.78-.02-1.55-.04-2.33-.05-3.98-.09-2.98,.7-7.71,4.98l5.35-1.43c-6.14-.12-12.27-.28-18.41-.36s-12.67-.27-18.41-.04c-.51,.02-4.71,.24-3.77,1.75s1.93,3.15,2.89,4.73c.55,.9,2.67,.95,3.54,.95,1.04,0,2.83-.04,3.54-.95,2.58-3.31,4.25-7.41,3.79-11.64-.16-1.48-5.53-1.31-5.42,0,.52,6.18-3.51,12.22-7.31,16.72l5.94,.58c2.24-3.13,3.55-6.78,4.26-10.54,.36-1.9,.59-3.82,.74-5.75,.08-.97,.1-1.94,.2-2.91,.05-.48,.13-.97,.2-1.45,.31-2.19-.73-1.98-2.86-4.46-.21-.16-.42-.16-.63,0h0Z"/><path class="cls-2" d="M462.99,386.53c.25-1.18,.35-2.37,.2-3.57l-.22,.95c.6-.42,.52-1.05,.47-1.7-.12-1.48-1.11-3.15-2.11-4.22-.45-.49-1.88-1.77-2.4-.69s-.7,2.39-.95,3.59c-.29,1.34-.57,2.68-.85,4.02-.55,2.61-1.12,5.21-1.63,7.83s-1.02,5.12-1.52,7.68c-.59,3.02-1.34,6.51-.53,9.54,.36,1.36,1.41,4.33,3.26,4.08,1.05-.14,1.41-1.98,1.67-2.82,.37-1.22,.64-2.5,.88-3.76,.52-2.71,1.01-5.42,1.51-8.13s.94-5.31,1.4-7.96,1.25-5.66,1.31-8.48l-1.93,.4c.17,.12,.34,.24,.5,.37l-1.61-2.4c.27,.83,.33,1.55,.14,2.4s.36,1.69,.87,2.29c.16,.19,1.39,1.35,1.56,.59h0Z"/><path class="cls-2" d="M448.29,380.83c.04-.53,.2-1.04,.33-1.56l-.44,.64c.14-.05,.28-.1,.42-.15l-3.18-7.1c-.78,.84-.62,2.8-.73,3.91-.19,1.85-.39,3.7-.57,5.56-.25,2.68-.51,5.36-.77,8.04-.54,5.53-1.28,11.17-1.04,16.74,.07,1.66,.61,3.42,1.69,4.72,.62,.75,1.78,1.63,2.22,.2,.77-2.53,.91-5.29,1.24-7.91,.38-2.98,.55-5.98,.78-8.97,.22-2.81,.44-5.63,.64-8.44,.23-3.28,.76-6.74,.08-9.98-.26-1.26-1.19-3.53-2.52-4.03s-1.4,1.3-1.23,2.21c.07,.37,.14,.74,.22,1.11v-1.24c-.08,.72-.16,1.42-.38,2.12-.44,1.37,.55,3.52,1.37,4.53s1.75,1.16,1.87-.37h0Z"/><path class="cls-2" d="M437.13,382.19c-.36-.31-.93-.71-1.08-1.18l.25,1.79c.14-.71,.16-1.35,.03-2.06-.25-1.38-.77-2.92-1.77-3.96-.54-.56-1.63-1.05-1.83,.11-.68,4.04-.6,8.21-.55,12.29,.02,2.07,.08,4.14,.17,6.21,.1,2.41,.06,4.95,.46,7.33l4.93,2.25c-.85-2.98-1.16-5.92-1.72-9.12s-1.19-6.4-1.62-9.62c-.22-1.61-.86-3.45-2.02-4.65-.63-.65-2-1.24-2.23,.13-.6,3.47-.57,7.13-.69,10.64s-.41,7.43-.03,11.05c.19,1.9,1.01,4.32,2.55,5.57,1.24,1,2.29,.43,2.35-1.23,.03-1.05-.08-2.07-.19-3.12-.14-1.21-.55-2.45-1.24-3.47-.24-.36-1.23-1.7-1.87-1.25-.44,.31-.94,.57-1.19,1.05l4.5,6.78c.13-1.64-.04-3.33-.06-4.97-.02-1.76-.02-3.52-.02-5.28,.02-3.44,.32-6.93,.19-10.37l-4.18-2.78c.53,2.88,.89,5.87,1.31,8.79,.21,1.46,.42,2.92,.63,4.38,.12,.81,.25,1.61,.35,2.42,.04,.31,.07,.63,.1,.94,0-.03,.1,1.25,.1,.79,.02,2.31,.91,4.95,2.55,6.63,.45,.46,1.19,1.12,1.9,.85s.84-1.29,.84-1.9c0-2.32-.43-4.65-.63-6.96-.18-2.07-.33-4.14-.44-6.22-.24-4.44-.25-8.89-.64-13.31l-3.15-.72c.56,1.42,1.13,2.35,2.41,3.16,.59,.37,1.08,1.02,1.68,1.43,.49,.33,.61-.29,.6-.64,0-.57-.3-1.4-.74-1.79h0Z"/><path class="cls-2" d="M437.6,412.06c-.54,.03-.91,.09-1.42-.09-1.19-.42-1.73,.48-1.24,1.5,.65,1.33,2.05,2.34,3.41,2.81,2.15,.75,4.3,.48,6.51,.24,1.81-.2,3.59-.24,5.4,0,1.48,.2,3.26,.71,4.41,1.21,.45,.19,.88,.42,1.31,.65,.1,.05,.98,.56,.47,.25,.42,.25,.8,.55,1.2,.82,.37,.28,.39,.29,.06,.03,.19,.15,.37,.31,.55,.47,.76,.66,2.99,2.43,4,1.31s-1-3.26-1.7-3.86c-3.61-3.09-7.79-5.28-12.48-6.14-2.03-.37-4.08-.39-6.13-.18-2.25,.23-4.57,.45-6.8,.83l4.51,4.19c.19-.25,.57-.2,.87-.23,1.16-.12,.74-1.22,.24-1.88-.64-.84-2.02-2.02-3.19-1.94h0Z"/><path class="cls-2" d="M452.11,418.48c3.52-.29,7.67,.15,10.93,1.6,.2,.09,.56,.27,.75,.38-.06-.03,1.11,.66,.6,.33,.34,.22,.67,.45,.98,.7-.54-.44-.02,0,.07,.09,.7,.71,1.67,1.82,2.42,2.95,1.98,2.95,3.67,6.11,5.47,9.17,2.1,3.56,4.16,7.16,6.33,10.69,4.21,6.84,8.17,13.82,12.19,20.76,3.22,5.56,6.58,11.07,10.77,15.97,4.83,5.65,10.86,10.59,18.3,12.12,1.12,.23,1.87-.54,1.57-1.63-.35-1.27-1.65-2.37-2.86-2.79-2.89-1.01-5.13-2.19-7.7-4.01,.6,.43-.35-.28-.38-.3-.29-.22-.57-.44-.85-.68-.56-.47-1.1-.95-1.63-1.46,.53,.51-.33-.34-.35-.36-.26-.26-.51-.53-.77-.8-.6-.63-1.19-1.25-1.75-1.92-1.9-2.24-3.49-4.52-5.23-7.21s-3.48-5.64-5.17-8.49c-2.09-3.52-4.17-7.04-6.26-10.56s-3.94-7.04-6-10.52-4.18-7.16-6.26-10.75c-1.9-3.26-3.78-6.57-6.14-9.53-2.87-3.59-6.71-6.7-11.19-7.99-3.79-1.09-7.36-.73-11.17-.04-1.15,.21-.03,2.02,.3,2.44,.69,.88,1.82,1.91,3.02,1.81h0Z"/><path class="cls-2" d="M460.72,419.22c2.02,.78,4.23,1.11,6.23,1.91,.56,.23,.09,0,.56,.33-.53-.38-.08-.06,.04,.05-.64-.59-.06-.15-.03,0-.01-.06-.43-.72,.01,.03,.12,.2,.24,.39,.35,.6-.04-.07-.19-.4-.04-.03,.12,.27,.23,.54,.33,.81,.57,1.52,.88,3.14,1.24,4.94,.45,2.26,.92,4.52,1.51,6.75,2.36,8.8,6.26,17.31,11.27,24.91,2.91,4.41,6.28,8.44,10.13,12.05,.84,.79,3.04,2.59,4.22,1.41s-.69-3.41-1.41-4.22c-2.85-3.22-5.51-6.69-7.91-10.25-.65-.97-1.27-1.95-1.88-2.94-.46-.74-.14-.22-.04-.07-.14-.23-.28-.47-.42-.71-.31-.53-.62-1.06-.91-1.6-1.09-1.98-2.08-4.02-2.98-6.09-.19-.44-.38-.88-.56-1.32-.1-.25-.21-.51-.31-.76-.03-.07-.34-.85-.19-.48-.25-.63-.77-2.05-1.07-3.01-.67-2.14-1.27-4.33-1.78-6.51-1.02-4.4-1.52-8.95-4.14-12.79-1.89-2.78-4.4-5.04-7.53-6.33-2.07-.86-5.07-1.57-7.29-.85-.87,.28-.35,1.44-.04,1.94,.6,.98,1.57,1.82,2.63,2.23h0Z"/><path class="cls-2" d="M464.72,420.09c1.43,4.42,2.82,8.84,4.45,13.19s3.61,8.77,5.65,13.04c4.16,8.73,8.96,17.27,14.45,25.24,3.13,4.54,6.46,8.92,10,13.15,.4,.48,1.42,1.41,2.12,1.03s.2-1.52-.14-1.97c-11.09-14.79-20.5-30.6-27.8-47.59-2.12-4.94-4.21-9.91-5.86-15.03-.26-.82-1.15-1.71-1.97-1.97-.75-.24-1.15,.14-.9,.9h0Z"/><path class="cls-2" d="M678.07,425.7c-.36,.73-.1,1.81,.06,2.58,.24,1.11,.69,2.21,1.07,3.28,.76,2.13,1.65,4.15,2.67,6.17,1.98,3.94,4.36,7.67,7,11.2,5.48,7.32,12.12,13.83,19.82,18.8,1.89,1.22,3.88,2.32,5.9,3.31s4.53,2.31,6.78,1.58c1.34-.43-.05-2.33-.5-2.8-2.76-2.93-7.2-4.77-10.71-7.16s-6.6-4.66-9.61-7.41c-2.85-2.59-5.54-5.39-7.91-8.43-1.12-1.45-2.19-2.94-3.21-4.46,.58,.87-.27-.44-.38-.61-.2-.32-.41-.64-.61-.97-.54-.86-1.05-1.73-1.55-2.62-1-1.77-1.96-3.58-2.88-5.39,.22,.42-.08-.16-.1-.2-.11-.24-.23-.47-.34-.71-.25-.54-.49-1.08-.75-1.62-.6-1.23-1.26-2.5-2.13-3.56-.37-.45-2.03-2.17-2.61-.99h0Z"/><path class="cls-2" d="M815.57,431.23c2.37,1.12,4.94,1.59,7.41,2.46s4.6,1.88,6.81,3.05c4.33,2.3,8.48,4.91,13,6.82s8.92,3.5,13.11,5.85c1.99,1.12,3.89,2.38,5.77,3.69,2.01,1.4,3.86,2.99,6.12,3.98,.76,.33,1.68,.24,1.86-.69,.2-1.02-.54-2.29-1.2-3-2.79-3.01-6.33-5.39-9.77-7.61s-6.75-3.92-10.41-5.43c-4.14-1.7-8.35-3.19-12.38-5.13-3.43-1.65-6.77-3.46-10.29-4.91-1.91-.79-3.88-1.44-5.89-1.94s-3.82-1-5.77-.38c-.54,.17-.02,1.41,.1,1.65,.33,.68,.86,1.28,1.55,1.6h0Z"/><path class="cls-2" d="M964.49,415.95c10.02,5.34,22.99,4.88,33.13,.17,5.45-2.53,10.08-6.4,14.86-9.97s10.24-6.79,15.87-9.36,11.4-4.69,17.19-6.81c6.08-2.23,12.18-4.37,18.32-6.41,12.2-4.07,24.52-7.79,36.94-11.15,6.94-1.88,13.91-3.64,20.91-5.29s14.22-3.62,21.33-5.45c1.13-.29,0-4.63-1.23-4.45-6.53,.97-13.01,2.01-19.45,3.44s-12.46,2.98-18.65,4.61c-12.54,3.3-24.99,6.97-37.31,11-12.08,3.95-24.19,8.06-35.93,12.96-5.67,2.37-11.23,5.08-16.32,8.55-4.71,3.21-9.04,6.96-13.85,10.03-5.4,3.44-11.25,5.77-17.65,6.48-3.19,.36-6.46,.39-9.64,.02s-6.13-1.2-9.14-2.09c-1.13-.34-.21,3.27,.61,3.71h0Z"/></g><g><path class="cls-3" d="M525.89,418.89c3.41,.04,6.86,.72,10.26,1,3.71,.31,7.41,.61,11.12,.9,7.13,.56,14.26,1.09,21.39,1.6,13.98,.99,27.96,1.86,41.95,2.63,28.27,1.54,56.55,2.66,84.85,3.31,28.01,.64,56.03,.83,84.04,.57s56.11-.69,84.02-3.1c31.12-2.69,62.05-7.64,93.38-5.71,.77,.05,.87-4.2-.11-4.28-27.81-2.36-55.68,1.93-83.29,4.8-27.86,2.9-55.84,3.59-83.82,4.33-56.27,1.48-112.6,1.17-168.85-.97-15.7-.6-31.4-1.34-47.09-2.23-7.99-.45-15.97-.94-23.95-1.46-3.99-.26-7.98-.53-11.97-.81s-8.05-.15-11.96-.74c-.03,0-.04,.17,0,.17h0Z"/><path class="cls-3" d="M804.17,428.64c.68-1.98,4.57,.34,5.61,.79,2.28,.97,4.56,1.96,6.83,2.97,4.53,2.01,9.02,4.1,13.53,6.15,8.95,4.05,17.83,8.32,26.56,12.83,2.39,1.24,4.79,2.47,7.14,3.78,2.49,1.38,5.16,2.67,7.49,4.31,.29,.2,.49-.04,.62-.29,.88-1.71,.96-3.85,.91-5.73-.07-2.48-.64-4.89-1.39-7.24-.3-.94-.57-1.89-.86-2.83s.12,.85-.04-.16l-.07-.33c-.1-.57-.08-.44,.06,.38l-.04-.33c-.05-.62-.04-.44,.03,.56v-.33c-.01-.63-.02-.44-.02,.58l.02-.32c.05-.58,.02-.43-.06,.45,.06-.17,.02-.91,.14-.96-.15,.65-.18,.8-.09,.45,.04-.15,.07-.3,.12-.45,.08-.3,.18-.6,.27-.9,.3-.99-.35,.75,.06-.19,.13-.29,.25-.58,.38-.86,.27-.6,.55-1.2,.87-1.77s.58-.99,.8-1.29c.81-1.11,1.7-2.13,2.63-3.14,1.55-1.68,2.24-3.85,2.95-5.98l-.34,.7c.69-.75,1.29-1.59,1.95-2.37,.33-.39,.44-2.08-.15-2.3-.72-.27-1.55-.41-2.19-.83s-1.13-1.47-1.97-1.5c-1.24-.04-2.62,1.43-3.4,2.25-2.26,2.39-3.8,5.67-4.56,8.83-1.14,4.74-1.34,9.75-.42,14.54,.37,1.91,.94,3.72,1.83,5.45,.38,.74,.81,1.46,1.19,2.21,.14,.28,.26,.6,.42,.86,.4,.65-.23-1.15-.11-1.71l.55-.81c-2.35-.9-4.6-2.26-6.88-3.36s-4.48-2.2-6.73-3.28c-4.58-2.2-9.2-4.31-13.85-6.36-8.99-3.95-18.19-7.41-27.54-10.4-2.64-.84-5.29-1.66-7.95-2.46-1.14-.34-3.8-1.44-4.31,.35,0,.01,0,.08,.02,.05h0Z"/><path class="cls-3" d="M679.9,429.54c-.11-.67,.06-2.02-.27-2.6-.28-.49-.95-.43-1.29,0-.82,1.04,.75,2.83,1.23,3.57,2.85,4.36,5.83,8.64,9.16,12.64,6.54,7.86,13.95,15.2,22.16,21.32,2.28,1.7,4.6,3.39,7.03,4.88,2.55,1.57,5.38,2.85,8.44,2.57,.72-.07,.73-1.69,.72-2.11-.16-4.68-1.14-9.23-1.48-13.88-.27-3.62,1.34-6.72,4.32-8.99,3.37-2.57,7.58-3.86,11.58-5.06,4.93-1.48,9.97-2.57,15.06-3.3,1.38-.2,.91-4.33,.33-5.05-2.52-3.12-6.05-3.51-9.83-3.59s-7.77,.57-11.02-1.48c-.17-.11-.16,.65-.05,.78,2.59,2.9,6.51,4.07,10.22,4.76,3.38,.64,7.63,1.31,9.89,4.22l.33-5.05c-4.29,.5-8.55,1.24-12.75,2.27-3.66,.9-7.37,1.91-10.82,3.45-3.01,1.35-5.79,3.3-7.46,6.22-2.09,3.65-2.32,8.03-2,12.13,.18,2.25,.63,4.46,1.1,6.67,.41,1.96,.96,3.93,1.04,5.94l.72-2.11c-4.58,.52-8.59-2.48-12.19-4.92s-6.93-4.87-10.22-7.53c-6.57-5.29-12.44-11.24-18-17.58-1.63-1.86-3.22-3.75-4.71-5.72-.7-.93-1.39-1.87-2.06-2.82-.33-.47-1.09-2.37-.03-2.32,.82,.04,.79,2.31,.81,2.72,0,.12,.07,.07,.05-.02h0Z"/><path class="cls-3" d="M447.96,415.14c8.25-1.03,15.37,4.82,19.51,11.41,2.32,3.69,3.99,7.72,5.64,11.74s3.35,7.99,5.24,11.9c3.83,7.92,8.3,15.53,13.34,22.74,4.55,6.49,9.71,12.65,15.89,17.66,6.54,5.3,14.44,9.16,23.01,9.08,1.27-.01,.95-3.23,.58-3.88-4.72-8.25-9.66-16.42-14.18-24.78-1.96-3.63-3.76-7.44-4.24-11.58-.42-3.6,.28-7.26,1.41-10.68,2.54-7.68,7.12-14.5,11.14-21.46,2.01-3.49,4.67-7.29,4.1-11.52-.24-1.81-1.1-3.48-2.86-4.19s-3.8-.62-5.68-.68c-5.35-.16-10.7-.25-16.05-.34-2.72-.05-5.43-.1-8.15-.15-1.31-.02-2.65-.08-3.95,.14-1.48,.24-2.95,.54-4.42,.81-.5,.09-.43,1.63,.04,1.74,2.4,.57,4.72,1.2,7.19,1.35s4.78,.19,7.16,.28c4.77,.18,9.55,.4,14.33,.53,2.21,.06,4.42,.05,6.63,.18,.85,.05,1.73,.13,2.53,.43,.36,.14,.71,.32,1.01,.56,.18,.15,.3,.35,.47,.5,.25,.23,.11-.25,.06-.05-.38,1.8-1.67,3.57-2.57,5.14-1,1.75-2.03,3.48-3.06,5.21-4.02,6.74-8.14,13.58-10.15,21.23-2.15,8.22-.99,16.42,2.71,24,2.17,4.45,4.81,8.7,7.3,12.97,2.72,4.66,5.44,9.31,8.15,13.96l.38-4.23c-16.11,.36-28.04-12.54-37.19-24.21-5.32-6.78-10.04-14.04-14.08-21.65-1.99-3.74-3.76-7.58-5.45-11.46s-3.21-7.41-5.32-10.86c-4.27-7-11.74-13.31-20.48-11.87-.02,0-.01,.07,0,.07h0Z"/><path class="cls-3" d="M361.13,382.7c-6.34,1.95-12.94,2.87-19.57,2.91-.16,0-.16,.41-.16,.49,.18,3.54,3.36,5.34,6.12,6.92,3.83,2.19,7.73,4.26,11.7,6.2,7.75,3.8,15.75,7.16,23.88,10.04,16.57,5.88,33.73,9.95,51.24,11.62,4.9,.47,9.82,.65,14.74,.7,2.5,.02,4.99,0,7.49-.07s5.05,0,7.47-.65c.83-.22,.79-3.23-.08-3.34-2.13-.29-4.25-.05-6.39,.02s-4.26,.12-6.39,.13c-4.18,.02-8.37-.09-12.55-.33-8.35-.47-16.65-1.21-24.91-2.55s-16.5-2.96-24.59-5.32-16.25-5.26-24.05-8.71c-4.29-1.9-8.52-3.94-12.66-6.13-2.06-1.09-4.12-2.2-6.13-3.37s-4.41-2.71-4.55-5.17l-.16,.49c6.68-.1,13.25-1.39,19.55-3.62,.07-.03,.04-.28,0-.27h0Z"/><path class="cls-3" d="M299.99,365.55c1.6,1.12,3.02,2.38,4.74,3.36s3.48,1.78,5.29,2.5c3.72,1.48,7.56,2.69,11.37,3.89,8.67,2.73,17.46,5.09,26.3,7.18,4.98,1.17,10.01,2.1,14.98,3.26l-.07-2.71c-3.51,.54-6.86,.96-10.41,.46-.24-.03-.24,1.03-.02,1.12,3.29,1.35,7.02,2.05,10.49,1.13,.65-.17,.61-2.63-.07-2.71-8.74-1.08-17.48-3.08-26.05-5.07s-16.78-4.01-24.95-6.65c-2.08-.67-4.14-1.43-6.11-2.39s-4.01-2.02-5.48-3.53c-.02-.02-.06,.13-.01,.17h0Z"/><path class="cls-3" d="M300.74,361.68c9.62-4.72,20.21-8.07,30.33-11.56s20.59-6.71,31.03-9.56c20.2-5.51,40.74-9.78,61.44-12.91,41.76-6.33,84.14-8.08,126.32-6.54,43.08,1.57,85.96,6.67,128.42,13.99,43.45,7.49,86.33,17.57,129.07,28.36,21.28,5.37,42.5,10.97,63.71,16.63,10.81,2.88,21.61,5.77,32.41,8.68s20.92,6.43,31.62,8.37c5.26,.96,10.56,1.34,15.89,.78,.74-.08,.48-3.88-.09-3.81-10.75,1.25-21.25-1.58-31.59-4.15s-21.61-5.48-32.39-8.31c-21.2-5.56-42.4-11.09-63.66-16.45-42.65-10.74-85.57-20.51-128.83-28.5-42.57-7.86-85.55-13.66-128.79-16.04-42.19-2.32-84.6-1.41-126.54,3.96-41.96,5.36-83.95,14.96-123.3,30.67-5.04,2.01-9.97,4.38-15.06,6.25-.05,.02-.03,.19,.01,.17h0Z"/><path class="cls-3" d="M949.14,395.64s.04-.17,0-.17c-.04,0-.04,.17,0,.17h0Z"/><path class="cls-3" d="M948.91,393.69c-1.76-.2-1.38,2.41-.17,2.93,1.65,.7,4-.17,5.64-.51,2.21-.46,4.41-.99,6.6-1.55,8.75-2.27,17.3-5.23,25.85-8.14,16.96-5.77,33.87-11.71,50.96-17.09,17.12-5.39,34.46-10.2,52.08-13.7,17.12-3.4,34.55-5.49,52.02-5.63,17.46-.13,34.97,2.12,51.82,6.7,2.11,.57,4.21,1.19,6.3,1.84l-.55-1.01c.74-2.22,.78-3,.1-2.34l-.13,.13c-.22,.12-.37,.3-.62,.4-.16,.06-.37,.05-.52,.12-.41,.18-.3-.52-.19,.38l-.09,.95,.08-.17c.16-.34-.1-1.83-.28-1.44v.05c-.21-.03-.25,.65-.26,.74-.07,1.24,.39,2.36,1.62,2.81,1.8,.65,1.49-2.82,1.28-3.74-.08-.34-.15-.89-.55-1.01-7.94-2.39-16.1-4.31-24.33-5.41s-16.71-1.59-25.09-1.8c-16.76-.41-33.54,1.12-50.05,3.97s-33.59,7.27-50.01,12.31c-16.57,5.08-32.93,10.84-49.24,16.68-8.13,2.91-16.26,5.84-24.42,8.68s-16.47,5.7-24.99,7.53c-.76,.16-1.58,.36-2.36,.24-.24-.03-.41-.09-.64-.18-.74-.3-.59-.31-.68-1.27-.08-.79-.13-1.46,.84-1.38,.02,0,.02-.06,0-.07h0Z"/><path class="cls-3" d="M1199.11,357.33c-3.55-2.84-8.97-2.37-13.15-1.63s-8.04,1.93-11.82,3.57-7.24,3.61-10.49,6.01c-1.69,1.25-3.3,2.59-4.83,4.03-.76,.72-1.51,1.46-2.23,2.22-.36,.38-.71,.78-1.06,1.16-.53,.57-.82,.72-1.61,.22l.98,4.75c.05-1.01,0-1.98-.07-2.99l-.06,3.4c.28-2.35,.18-4.64-.42-6.93-.46-1.73-1.04-3.74-2.6-4.81-.93-.64-1.99-.88-3.03-.37-1.7,.84-2.14,3.48-2.18,5.15-.03,1.24-.17,3.46,.82,4.42s1.37-.9,1.5-1.58c.17-.9,.45-1.83,.34-2.76-.43-3.4-2.81,4.11-1.27,5.23,.7,.51,1.54,.62,2.32,.97s1.35,.84,1.87,1.5c-.19-.24,.35,.57,.42,.68,.29,.42,.5,.58,.91,.82,.93,.57,1.26-1.32,1.36-1.82,.19-.96,.24-1.89,.18-2.87l-.37,1.71c4.85-6.62,12.19-11.81,19.6-15.18,3.71-1.69,7.62-2.97,11.62-3.77,2.12-.43,4.28-.79,6.43-.96,1.16-.09,2.33-.24,3.49-.23s2.23,.26,3.34,.25c.05,0,.03-.18,0-.2h0Z"/><path class="cls-3" d="M1145.38,370.89c-12.07,6.87-25.06,11.74-38.31,15.82-13.36,4.12-26.96,7.49-40.09,12.33s-25.32,10.83-35.49,20.01c-5.19,4.69-9.75,10.69-11.5,17.56-.8,3.13-.97,6.42-.36,9.59,.72,3.72,2.62,6.98,4.98,9.89,5.06,6.25,11.12,11.73,17.57,16.51,1.62,1.2,3.23,2.4,4.88,3.55,1.41,.98,3,2.4,4.79,2.52,2.82,.2,3.09-5.04,.89-5.88-1.01-.39-1.3,.5-1.4,1.35-.11,.97,.69,2.13,.87,.58-.1,.82-.08,.14,.32,.54,.19,.19,.38,.32,.54,.55l-.27-.81,.04,.22c.81-1.2,.85-1.73,.11-1.57-.31-.07-.59,.02-.9,.02-.74,0-1.4-.26-2.06-.58-1.65-.8-3.22-1.82-4.77-2.78-3.09-1.92-6-4.14-8.8-6.45s-5.48-4.75-8.06-7.29c-2.41-2.38-4.87-4.88-6.48-7.89-3.34-6.22-1.13-13.15,2.44-18.74s8.38-9.85,13.59-13.67c20.35-14.94,45.78-20.23,69.4-27.75,13.32-4.24,26.66-9.25,38.1-17.44,.04-.03,.02-.22-.02-.19h0Z"/><path class="cls-3" d="M956.23,417.49c3.27,1.86,5.91,4.52,8.5,7.21,3.03,3.14,6.01,6.35,9.14,9.39,5.98,5.82,11.92,11.68,18,17.4,5.58,5.24,11.3,10.39,17.37,15.06s12.56,8.97,19.88,11.69c3.89,1.44,7.9,2.54,12.01,3.12,2.01,.28,4.03,.47,6.06,.5,1.08,.02,2.17-.05,3.25-.02,1.39,.04,2.22-.17,3.08-1.31,1.13-1.48,.92-4.98-.16-6.44,.24,.32,.32,.93,.2,.2-.04-.22-.11-.45-.17-.67-.08-.3-.39-.96-.73-.46-.1,.15-.23,.31-.32,.47-.17,.34,.08-.01,.08-.05l.18-.21-.44-.14c-.87-.33-2.13,.29-3.02,.41-1.78,.23-3.6,.3-5.4,.28-3.75-.03-7.48-.57-11.12-1.46-7.08-1.73-14.12-4.86-20.31-8.71s-12.23-8.95-17.84-14.06c-5.96-5.43-11.88-10.9-17.86-16.31-3.45-3.12-6.98-6.13-10.53-9.12-3.07-2.59-6.11-5.28-9.85-6.84-.02,0-.02,.06,0,.06h0Z"/><path class="cls-3" d="M315.2,373.37c-1.31-1.57-2.31-3.46-3.48-5.13l-3.23-4.62-.05,.46c4.74,2.4,10.11,2.54,15.31,2.75l18.49,.74c12.15,.48,24.31,.87,36.47,1.3,6.99,.25,13.98,.44,20.98,.64,.04,0,.04-.2,0-.2-24.31-1.16-48.62-2.07-72.94-2.93-6.1-.22-12.66,.04-18.26-2.77-.13-.06-.09,.4-.05,.46,1.12,1.6,2.24,3.2,3.37,4.8s2.41,3.04,3.39,4.68c.02,.04,.05-.12,.02-.16h0Z"/><path class="cls-3" d="M369.11,377.73c-.52-1.78,2.86-1.43,3.64-1.35,1.75,.18,3.51,.32,5.27,.42,3.51,.2,7.04,.28,10.56,.13,7.04-.31,14.04-1.24,20.92-2.75,.07-.02,.04-.28,0-.27-7.69,1.64-15.47,2.46-23.32,2.7-3.84,.12-7.68,.06-11.51-.19-1.28-.08-5.73-1.04-5.6,1.37,0,.16,.07,.03,.05-.06h0Z"/><path class="cls-3" d="M418.34,377.28c-.75,1.58-.99,3.29-1.18,5.02-.22,2.03-.15,4.08,.05,6.11,0,.09,.23,1.16,.52,.82,.51-.61,.89-1.28,1.29-1.95s.88-1.37,1.33-2.05c.1-.15,0-.99-.14-.85-.45,.43-.9,.87-1.38,1.27s-.97,.78-1.38,1.29l.52,.82c-.39-3.49-.02-6.96,.38-10.43,0,0,0-.07-.02-.05h0Z"/><path class="cls-3" d="M427.5,373.76c-.53,.88-1.19,1.66-1.61,2.61-.46,1.05-.85,2.13-1.19,3.22-.77,2.49-1.26,5.05-1.46,7.65-.39,5.04,.18,10.11,1.63,14.95,.25,.84,.84,.73,1.11-.03,.55-1.58,1.54-2.78,1.76-4.49,.02-.18-.16-1.32-.35-.72-.16,.5-.4,1.03-.81,1.37-.7,.58-.78,.17-1.01-.53-.29-.89-.44-1.85-.58-2.78-.31-2.06-.41-4.14-.27-6.22s.45-4.24,.96-6.3c.26-1.07,.59-2.12,.94-3.16,.44-1.27,.74-2.61,1.27-3.85,.18-.41,.22-.94,.09-1.38-.06-.2-.26-.74-.49-.35h0Z"/><path class="cls-3" d="M439.97,374.91c0-.99-1-.74-1.64-1.14-.24-.15-.38,.17-.44,.35-.62,1.85-.69,4.02-.98,5.94-.35,2.25-.72,4.5-.92,6.77-.42,4.69-1.1,9.43-1.26,14.14-.06,1.67-.07,3.64,.76,5.15,.51,.93,1.24,1.44,1.96,.34,1.02-1.56,1.15-3.54,1.68-5.3,.42-1.4,.82-2.8,1.1-4.23,.04-.19-.09-1.94-.5-1.32-.63,.96-1.27,1.57-2.29,2.1h.57c-.81-.53-1.27-.81-2.14-.19l2.31,5.99c.03-.29,.13-3.15,.08-1.99,.03-.67,.05-1.35,.08-2.02,.04-1.18,.09-2.35,.13-3.53,.09-2.52,.19-5.05,.28-7.57,.1-2.66,0-5.32-.06-7.98-.02-1.15-.03-2.31-.04-3.46,0-.52-.04-1.05,.04-1.56-.05-.44,.12-.8,.51-1.09,.36-.04,.59,.15,.71,.57-.02,.1,.06,.19,.06,.04h0Z"/><path class="cls-3" d="M450.94,376.9c.33-.35,.67-.69,1-1.04l-.39-2.31c-2.1,4.52-2.72,9.57-3.59,14.45-.48,2.65-.89,5.31-1.33,7.97-.57,3.44-1.65,7.15-1.14,10.62,.12,.84,.29,2.54,1.14,3.05,.8,.47,1.29-.55,1.46-1.17,.95-3.4,2.66-6.51,4.3-9.61,.14-.26,.05-2.03-.29-1.71-.85,.81-1.67,1.75-2.63,2.42-.81,.57-1.63,1.35-2.65,1.4l.62,8.64c1.23-.93,1.18-3.13,1.38-4.54s.41-2.79,.62-4.18c.42-2.79,.87-5.58,1.25-8.38,.82-5.97,1.61-11.85,1.53-17.88,0-.65-.59-1.96-.82-.62-.16,.95-.32,1.89-.49,2.84,0,0,0,.06,.01,.05h0Z"/><path class="cls-3" d="M465.06,377.65l.7-.37-.49-2.09c-.27,4.78-.78,9.53-1.61,14.16-.88,4.87-2.26,9.21-3.91,13.94l3.04,.96c-.16-.72-.43-1.39-.71-2.06l.31,1.71c-.05-1.31-.08-2.61-.08-3.92,0-.7-.66-1.94-.93-.62-.22,1.13-.47,2.24-.76,3.35l.53-1.13c-.5,.25-.72,.46-1.04,.9-.61,.83-.71,2.07-.81,3.06-.15,1.47,0,3.02,.45,4.43,.21,.67,.52,1.7,1.3,1.88,.89,.21,1.32-.72,1.58-1.44,2.04-5.69,3.22-11.87,3.94-17.86s.73-11.62-.11-17.41c-.05-.31-.16-1.22-.63-1.24s-.54,1-.57,1.27c-.08,.87-.32,1.61-.23,2.47,0,.04,.03,.02,.02,0h0Z"/><path class="cls-3" d="M343.14,360.7c.02-.67,.17-1.73-.56-2.1-.34-.17-.81-.14-1.12,.1-.21,.17-.34,.46-.41,.71-.18,.64-.16,1.35-.03,1.99,.15,.7,.51,1.29,.95,1.85,.11,.14,.17,.2,.34,.12l.74-.34,.37-.17c.05-.02,.12-.04,.17-.08,.08-.06,.16-.21,.21-.3,.09-.13,.16-.24,.27-.34l.38-.34,.7-.62c.13-.12,.12-.4,.11-.55,0-.08-.04-.45-.18-.43l-.74,.1-.4,.05c-.14,.02-.2,0-.33-.05-.06-.02-.15-.08-.21-.08-.07,0-.19,.09-.25,.12l-.37,.19-.77,.4,.34,.12c-.19-.22-.37-.44-.52-.69-.03-.05-.06-.11-.09-.16-.09-.16,.04,.13-.01-.03-.01-.04-.03-.07-.04-.11,.04,.15,.05,.18,.03,.08,.04,.2,.05,.39,.04,.59-.03,.18-.03,.23-.02,.15,.01-.08,0-.03-.04,.15,.04-.13-.11,.17,0,.03,.02-.03,.11-.16,0-.02-.01,.02,.22-.24,.08-.11,.15-.15,.28-.28,.48-.37l-.1,.04c.12-.05,.25-.09,.38-.07,.03,0,.05,0,.08,.01,.06,.01-.02-.01,.01,0,.02,.01,.04,.03,.06,.04,.07,.03-.04-.06,0,0l-.15-.52,.08,.63c.01,.12,.07,.54,.26,.54s.23-.43,.23-.55h0Z"/><path class="cls-3" d="M343.09,354.64c-.36-.07-.71-.37-1.07-.48-.41-.14-.83-.2-1.26-.2-.76,0-1.56,.19-2.24,.53-1.52,.75-2.29,2.32-2.64,3.91-.72,3.32,.23,7.14,2.78,9.46,1.17,1.07,2.77,1.71,4.35,1.31s2.81-1.64,3.67-2.92c.95-1.41,1.53-3.09,1.73-4.77,.07-.57,.09-1.14,.1-1.71,0,.12-.01,.45,0-.11,0-.19,0-.37,0-.56,0-.35-.03-.71-.07-1.06-.12-1.17-.38-2.38-1-3.39-.91-1.49-2.48-2.3-4.2-1.75-2.37,.76-3.06,3.43-2.51,5.68,.06,.25,.2,.92,.58,.92l.02-.05c.22,.26,.34-.02,.41-.25,.11-.39,.06-.84-.06-1.23l-.05-.17,.03,1.4,.09-.27-.45,.57c.07-.01,.22-.08,.24-.09,.17-.02-.14,.05-.02,0,.31-.13,.22-.07,.46-.36s-.1,.09,.07-.08c.35-.35,.76-.6,1.22-.78,.91-.36,2.04-.41,2.83,.24,.42,.35,.69,.83,.93,1.31-.18-.36,.33,.63,.08,.2,.15,.26,.03,.1,.01-.08-.03-.34-.02,.65,0,.18-.07,1.33-.36,2.66-.85,3.96-.52,1.4-1.29,2.66-2.68,3.32-1.29,.61-2.75,.47-3.96-.25-2.49-1.47-3.8-4.53-3.55-7.35,.16-1.81,1-3.58,2.49-4.66,.67-.49,1.44-.8,2.27-.87,.71-.06,1.74,.01,2.23,.59,.01,.02,.07-.16,0-.17h0Z"/><path class="cls-3" d="M343.25,355.5c2.88,1.25,3.86,4.59,3.44,7.49-.21,1.44-.54,3.09-1.16,4.43-.28,.59-.71,1.24-1.38,1.42-.46,.12-1.21,.16-1.38-.4-.08-.25-.16,.19-.15,.26,.14,1.35,1.77,2.06,2.77,1.03,.6-.61,.8-1.62,1-2.42,.29-1.14,.57-2.29,.73-3.46,.43-3.2-.15-7.58-3.86-8.54-.04,0-.05,.18,0,.2h0Z"/><path class="cls-3" d="M342.03,357.74c.13,.1,.15,.51,.18,.67,.03,.19,.06,.37,.09,.56,.06,.32,.08,.65,.07,.98-.03,.66-.23,1.29-.55,1.87l.17-.07c-.2-.14-.43-.32-.57-.52s-.27-.61-.32-.79c.02,.06-.03-.15-.03-.15-.05-.2,0,.12,0,0s.04-.21,0,.06c0-.06,0-.13,0-.19,0-.06,0-.13,0-.19-.01-.24-.02,.29,0,.11,.02-.23,.02,.01-.01,.08,.03-.05,.08-.34,0,0l-.85-1.37c-.04,1.43-.13,2.87-.11,4.31,0,.39,.05,1.06,.35,1.36,.28,.27,.44-.06,.55-.32,.15-.37,.25-.71,.33-1.11,.07-.36,.18-.72,.31-1.06l.72-1.96c.07-.18,.05-.43,0-.62-.03-.1-.11-.27-.21-.12l-.88,1.39c-.11,.18-.24,.36-.42,.49,.03-.02-.03,.02-.04,.02-.11,.06-.16,.09-.24,.2-.09,.14-.17,.29-.25,.43l.79,1.67c.08-1.44,.04-2.89,.06-4.32,0-.29-.05-.59-.13-.86-.05-.16-.12-.41-.27-.5-.35-.23-.49,.48-.54,.67-.25,1.07-.22,2.37,.34,3.35,.14,.25,.34,.49,.58,.64,.27,.18,.5,.41,.78,.56,.07,.04,.14,0,.17-.07,.41-.9,.62-1.86,.62-2.85,0-.46-.05-.92-.14-1.36-.04-.19-.09-.37-.18-.55s-.27-.35-.31-.54c-.02-.11-.09,.08-.03,.13h0Z"/><path class="cls-3" d="M396.21,348.25c-.86-.12-4.23-1.05-4.78-.69,.42-.28,1.74-.14,2.26-.18,1.03-.08,2.07-.16,3.1-.24,3.84-.3,7.68-.56,11.51-.83,7.68-.55,15.36-1.13,23.05-1.6,15.37-.93,30.76-1.58,46.16-1.97,30.94-.77,61.91-.45,92.83,.97,30.77,1.41,61.49,3.9,92.09,7.47,30.74,3.58,61.36,8.25,91.77,14,30.27,5.72,60.29,12.61,90.11,20.31,3.72,.96,7.44,1.94,11.15,2.93,.02,0,.05-.25,0-.27-29.4-8.18-59.13-15.14-89.06-21.09s-60.05-10.86-90.31-14.71c-30.26-3.85-60.66-6.66-91.12-8.4-30.46-1.74-60.97-2.42-91.48-2.04-30.48,.38-61.04,1.6-91.39,4.42-3.84,.36-7.67,.73-11.5,1.12-.04,0-.04,.17,0,.18l5.62,.69s.02-.06,0-.07h0Z"/><path class="cls-3" d="M445.33,340.86c22.27-1.35,44.57-2.24,66.88-2.53s44.45,.03,66.65,1.1c22.25,1.07,44.46,2.83,66.57,5.52s43.76,6.24,65.38,10.86,43.2,10.32,64.31,17.19c2.59,.84,5.18,1.69,7.77,2.55,.02,0,.05-.18,0-.2-21-7.25-42.45-13.18-64.11-18.09-21.55-4.89-43.33-8.71-65.23-11.62s-44.26-4.94-66.49-6.18c-22.18-1.23-44.41-1.63-66.63-1.45-22.32,.19-44.63,1-66.91,2.29-2.73,.16-5.45,.32-8.18,.5-.02,0-.01,.07,0,.07h0Z"/><path class="cls-3" d="M511.35,320.23c.44,.36-.51,.47-.66,.42-.68-.21-.31-1.07,.21-1.3,.88-.38,1.95-.34,2.89-.44,2.09-.21,4.17-.52,6.23-.92,4.2-.81,8.24-2.03,12.22-3.59,7.93-3.11,15.37-7.31,22.52-11.91,14.82-9.53,27.71-21.68,41.81-32.19,8.03-5.98,16.41-11.52,25.49-15.78l-.59-3.65c-6.34,10.34-12.79,21.27-13.18,33.74-.17,5.57,.71,11.29,3.25,16.29,1.27,2.5,3.21,4.49,4.59,6.91,.36,.63,.7,1.26,1,1.92,.23,.52,.36,1.17,.63,1.66l-.07-1.44,.41-1.53c.04,.06-.37,.89-.48,1.12,.25-.5,0-.02-.06,.04-.1,.09-.47,.49-.68,.66-.99,.81-2.09,1.41-2.94,2.39-1.83,2.13-2.02,5.2-1.68,7.89,.12,.93,.75,4.71,2.55,4.41,1.07-.18,1.78-1.87,2.03-2.73,.17-.61,.33-2.11-.29-2.57-.78-.57-.79-1.22-1.2-2.03,.66,1.29,.4,3-.03,4.37-.36,1.16-.24,.51-.07,.4,.5-.33,.96-.87,1.46-1.24,2.63-1.97,3.8-4.87,3.88-8.12,.07-2.91-.81-5.27-2.4-7.46-1.43-1.96-3.2-3.61-4.57-5.62-5.92-8.73-4.41-19.75-.5-28.95,2.48-5.84,5.8-11.26,9.11-16.65,.32-.53,.45-4.15-.59-3.65-17.8,8.37-32.62,21.43-47.7,33.81-7.52,6.18-15.15,12.36-23.27,17.74s-16.67,9.6-25.79,12.84c-2.47,.88-4.99,1.64-7.54,2.27-1.31,.32-2.63,.61-3.96,.86-.9,.17-2,.22-2.75,.82-.48,.38-.99,1.36-.25,1.75,.6,.31,1.26-.04,1.03-.66-.03-.07-.08,.1-.03,.14h0Z"/><path class="cls-3" d="M790.81,358.96c-1.08,.36-.97-1.46-.31-2,.29-.24,.68-.38,1.01-.53,1.06-.48,2.13-.92,3.19-1.39l6.38-2.77c4.18-1.81,8.36-3.62,12.53-5.44,8.53-3.72,16.99-7.59,25.48-11.39,4.78-2.14,9.55-4.27,14.33-6.41l-.28-1.21c-2.15,6.94-8.68,12.01-8.96,19.61s5.58,14,12.44,16.81c2.14,.88,4.37,1.51,6.63,2,2.52,.55,5.22,.66,7.66,1.46l-.06-2.4c-2.12,.35-4.33,1.56-6.23,2.55-2.08,1.09-4.25,2.19-5.63,4.12l.43,1.87c.57-.97,1.37-1.83,2.08-2.7,.2-.25,.07-1.5-.16-1.29-.7,.66-1.43,1.54-2.27,2-.41,.23-.32,2.24,.15,2.14,1.06-.23,1.71-.77,2.59-1.39,.95-.66,1.93-1.29,2.93-1.87,2.02-1.18,4.23-1.95,6.25-3.08,.42-.23,.4-2.37-.16-2.35-1.95,.08-4-.41-5.91-.77s-3.76-.77-5.59-1.33c-3.64-1.12-7.11-2.85-9.86-5.53-2.51-2.46-4.6-5.83-4.66-9.44s1.76-6.69,3.53-9.57c1.94-3.16,4.06-6.24,5.16-9.82,.05-.18,.13-1.4-.28-1.21-19.12,8.67-38.23,17.33-57.26,26.21l-4.09,1.91c-.79,.37-1.86,.76-2.19,1.65s.14,1.69,1.09,1.73c.05,0,.03-.18,0-.17h0Z"/><path class="cls-3" d="M487.4,374.99c4.95,4.74,4.84,12.23,3.89,18.53-1.13,7.5-3.24,14.84-6.24,21.81-.02,.04,.01,.22,.04,.17,3.3-7.52,5.65-15.57,6.55-23.75,.64-5.83,.32-12.55-4.23-16.82,0,0-.02,.05,0,.06h0Z"/><path class="cls-3" d="M485.68,375.92c30.18,5.14,60.58,8.88,91.04,11.86,30.47,2.98,61.01,5.15,91.57,6.93s61.53,3.18,92.3,4.57c30.63,1.38,61.26,2.77,91.88,4.55,30.58,1.78,61.15,3.98,91.66,6.81,3.81,.35,7.62,.72,11.43,1.1,.06,0,.08-.39,0-.4-30.47-3.29-61.02-5.64-91.62-7.51-30.6-1.86-61.23-3.28-91.86-4.64-30.78-1.37-61.56-2.69-92.32-4.36-30.57-1.66-61.12-3.67-91.61-6.43-30.47-2.76-60.84-6.38-91.12-10.82-3.78-.55-7.56-1.13-11.34-1.72-.01,0-.02,.06,0,.07h0Z"/><path class="cls-3" d="M521.38,372.41c3.91,1.14,7.68,2.65,11.63,3.68s7.63,1.79,11.5,2.41c7.93,1.28,15.94,1.95,23.95,2.47,16.96,1.11,33.95,1.95,50.92,2.8,34.09,1.71,68.18,3.19,102.27,4.91,34.06,1.72,68.11,3.67,102.11,6.34,33.91,2.66,67.77,6.04,101.48,10.6,33.53,4.54,66.82,10.41,99.89,17.53,4.21,.91,8.42,1.84,12.63,2.8,.02,0,.04-.19,0-.2-32.9-7.93-66.23-13.94-99.72-18.78-33.66-4.86-67.48-8.48-101.37-11.32-33.81-2.84-67.68-4.9-101.56-6.67-34.08-1.78-68.18-3.26-102.28-4.91-16.94-.82-33.89-1.68-50.82-2.64-16.09-.91-32.35-1.62-48.1-5.33-4.18-.99-8.63-2.04-12.54-3.87-.03-.02-.05,.15,0,.17h0Z"/><path class="cls-3" d="M963.52,414c1.43-.4,3.06-.4,4.53-.59,1.65-.21,3.31-.45,4.95-.72,3.14-.52,6.26-1.13,9.36-1.84,6.07-1.38,12.05-3.17,17.96-5.13,12.06-3.99,23.84-8.77,35.68-13.37,24.21-9.4,48.98-16.96,74.5-21.88,14.44-2.78,29.02-4.74,43.67-6.04,.06,0,.05-.27,0-.27-26.15,1.97-52.11,6.77-77.34,13.9-12.37,3.5-24.54,7.64-36.54,12.23-11.87,4.54-23.63,9.38-35.63,13.55-6.61,2.3-13.3,4.34-20.08,6.09-3.38,.87-6.79,1.66-10.22,2.32-1.79,.35-3.59,.66-5.39,.93s-3.69,.77-5.44,.63c-.04,0-.03,.18,0,.17h0Z"/><path class="cls-3" d="M463.12,413.05c2.64,.83,5.33,1.75,7.65,3.32,2.81,1.9,4.18,4.49,4.56,7.84,.64,5.75,1.59,11.28,3.59,16.73,4.03,10.96,10.87,20.67,18.61,29.32,4.42,4.94,9.19,9.51,14.18,13.86,.07,.06,.12-.31,.03-.39-8.95-8.33-17.64-17.18-24.41-27.41-3.31-5-6.15-10.32-8.22-15.95-1.03-2.8-1.88-5.67-2.5-8.59s-.74-6.18-1.35-9.23c-1.18-5.92-6.96-8.06-12.14-9.57-.01,0-.02,.06,0,.07h0Z"/><path class="cls-3" d="M684.33,431.2l-.14-2.71,.5-.18s.28,.71,.27,.69c.16,.4,.32,.8,.49,1.2,.37,.86,.75,1.72,1.16,2.56,.84,1.73,1.76,3.42,2.78,5.05,1.98,3.17,4.34,6.13,6.92,8.84,5.29,5.54,11.67,10.05,18.68,13.13,3.88,1.7,7.93,2.88,12.11,3.59,.05,0,.07-.25,0-.27-14.7-2.97-28.02-11.68-36.52-24.06-2.4-3.5-4.44-7.22-6-11.17,0,0-.01-.03-.02-.02-.93,1.11-.85,2.26-.27,3.5,.03,.07,.07-.1,.03-.14h0Z"/><path class="cls-3" d="M823.71,428.09c1.69,.67,3.28,1.89,4.85,2.8s3.26,1.87,4.91,2.78c3.35,1.86,6.74,3.67,10.19,5.35,6.61,3.23,13.43,6.37,20.38,8.79,.04,.01,.06-.24,0-.26-6.9-2.96-13.81-5.81-20.57-9.08-3.36-1.63-6.7-3.28-9.99-5.02-1.58-.84-3.15-1.69-4.71-2.56-1.67-.93-3.56-1.78-5.05-2.97-.02-.02-.06,.15-.01,.17h0Z"/><path class="cls-3" d="M869.71,424.6c-1.2,.85-2.54,1.41-3.68,2.38-1.02,.87-1.92,1.87-2.68,2.96-1.54,2.21-2.48,4.81-2.67,7.5-.39,5.53,2.15,11.04,6.8,14.11,.07,.04,.11-.33,.02-.39-4.37-3.25-7.22-8.81-6.48-14.31,.35-2.62,1.38-5.1,2.92-7.24,.69-.96,1.5-1.85,2.39-2.64s2.16-1.9,3.39-2.21c.05-.01,.01-.19-.01-.17h0Z"/><path class="cls-3" d="M341.71,384.97c-.45,.65-1.67,.27-2.17-.07-.35-.24-.65-.57-.8-.97-.18-.46-.06-.08,0,.06,.08,.18,.16,.37,.25,.55,.72,1.52,1.62,2.96,2.66,4.28,2.08,2.63,4.87,4.65,7.94,5.97,.09,.04,.12-.35,.03-.39-4.75-2.2-8.82-6.2-10.99-10.97-.05-.11-.07,.08-.07,.12,.08,.66,.45,1.19,1.03,1.52,.3,.17,.64,.27,.98,.29,.19,.01,.38,0,.57-.05,.17-.04,.42-.2,.59-.18,.06,0,.02-.22-.02-.16h0Z"/><path class="cls-3" d="M343.97,391.23c-1.11-1.19-1.99-2.65-2.95-3.96l-.08,.67c3.31,2.83,6.69,5.68,10.24,8.2s7.07,4.7,10.8,6.77c7.22,4.02,14.75,7.36,22.52,10.15s15.85,5.33,23.94,7.13,16.4,2.98,24.64,3.7c4.66,.41,9.3,.58,13.98,.44,2.36-.07,4.72-.19,7.08-.36,1.1-.08,2.23-.12,3.32-.28,1.61-.23,2.46-1.99,3.37-3.21,.47-.64,.52-2.31-.07-2.9-.72-.73-1.68-2.08-2.68-2.4-.93-.3-2.36,.15-3.32,.25-2.08,.21-4.16,.38-6.24,.51-4.09,.26-8.2,.37-12.29,.45-8.2,.15-16.35-.31-24.45-1.57s-16.19-2.84-24.05-5.38c-7.84-2.54-15.47-5.69-22.91-9.24-4.14-1.98-8.18-4.16-12.21-6.33s-7.85-4.23-11.63-6.63c-.16-.1-.15,.59-.05,.7,1.01,1.12,2.14,2.22,3.01,3.45,.03,.04,.05-.12,.02-.16h0Z"/><path class="cls-3" d="M452.64,415.87c.47,.14,.82,.46,1.27,.61,.39,.13,.82,.16,1.21,.27,.94,.27,1.85,.66,2.7,1.15,1.54,.87,2.91,2.02,4.16,3.28,2.72,2.73,4.73,6.06,6.57,9.42,4.18,7.62,7.71,15.57,11.5,23.38,6.84,14.08,15.03,28.12,28.57,36.73,3.35,2.13,6.96,3.85,10.76,4.99,1.98,.59,4.01,1.02,6.06,1.26,1.52,.18,4.34,.89,4.88-1.06,.2-.74,.25-1.57,.05-2.31-.06-.24-.39-1.25-.81-.86-.38,.36-.66,.71-.73,1.24-.04,.27-.11,1.04,.21,1.22l.37-.82-.37,.82c.13,.06,.18,.17,.17,.35l.35-2.81c-.52,.58-1.44,.36-2.14,.33-.88-.04-1.76-.09-2.64-.19-1.8-.2-3.57-.55-5.32-1.02-3.5-.95-6.83-2.44-9.95-4.28-6.4-3.79-11.87-9.02-16.4-14.88-10.2-13.19-15.44-29.28-23.71-43.6-1.99-3.45-4.14-6.87-7.03-9.64-1.31-1.26-2.8-2.34-4.46-3.09-.75-.34-1.53-.62-2.34-.8-.45-.11-.91-.18-1.37-.23-.69-.08-.88,.23-1.59,.4-.04,.01-.04,.16,0,.17h0Z"/><path class="cls-3" d="M325.01,368.03c1.16-.04,2.37,.26,3.52,.42s2.36,.34,3.54,.51c2.43,.35,4.85,.7,7.28,1.01,4.92,.63,9.84,1.04,14.8,1.11,9.73,.13,19.45-.67,29.19-.49,5.47,.11,10.79,.8,16.2,1.5,.07,0,.08-.31,0-.33-4.6-1.22-9.54-1.48-14.28-1.63s-9.79-.03-14.69,.13c-9.79,.33-19.5,.54-29.27-.41-2.67-.26-5.34-.57-8.01-.9-1.35-.16-2.7-.33-4.05-.49s-2.9-.2-4.23-.6c-.03,0-.05,.17,0,.17h0Z"/><path class="cls-3" d="M386.26,375.79c-1.6,.27-3.36,.07-4.99,.06l-4.74-.03-9.74-.05c-.11,0-.11,.45,.01,.46,17.97,2.15,36.13,2.75,54.19,1.59,5.16-.33,10.28-.86,15.41-1.54,.12-.02,.09-.48-.01-.47-18.01,1.57-36.13,2.2-54.19,1.2-5.15-.29-10.28-.71-15.41-1.24v.46l9.74-.18,4.74-.09c1.62-.03,3.39-.25,4.99,0,.04,0,.04-.18,0-.17h0Z"/><path class="cls-3" d="M439.05,387.43c-.74-.05-1.53-.42-2.24-.65l-1.92-.63-4.32-1.42-8.47-2.79s-.02,.06,0,.07l8.31,2.7,4.16,1.35,1.92,.62c.83,.27,1.8,.47,2.55,.91,.03,.02,.05-.17,0-.17h0Z"/><path class="cls-3" d="M404.16,376.82c1.64-.61,3.58-.77,5.3-1.06s3.55-.58,5.33-.83c3.4-.48,6.81-.88,10.23-1.23,7.06-.72,14.16-1.05,21.26-1.09,14.26-.09,28.5,.95,42.71,2.11,28.5,2.32,56.96,5.1,85.4,8.04,16.04,1.66,32.07,3.36,48.11,5.02,.05,0,.06-.26,0-.27-28.42-3.13-56.86-6.14-85.33-8.89-14.23-1.37-28.47-2.67-42.71-3.86-14.21-1.18-28.44-2.35-42.71-2.54-7.94-.1-15.88,.11-23.79,.8-4,.35-7.98,.83-11.95,1.46-1.94,.31-3.88,.65-5.81,1.01s-4.05,1.07-6.03,1.15c-.05,0-.02,.18,0,.17h0Z"/><path class="cls-3" d="M507.1,382.58c3.28-.15,6.67,.29,9.96,.48,3.6,.2,7.19,.4,10.79,.6,6.64,.36,13.28,.72,19.92,1.07,13.56,.72,27.12,1.4,40.68,2.06,27.12,1.31,54.25,2.51,81.38,3.6,54.26,2.17,108.55,3.77,162.84,4.96,30.47,.66,60.94,1.06,91.41,1.29,.04,0,.03-.2,0-.2-54.3-.86-108.6-1.96-162.88-3.5-54.28-1.55-108.55-3.51-162.79-5.93-15.22-.68-30.44-1.39-45.66-2.14-7.47-.37-14.94-.75-22.41-1.13-3.87-.2-7.75-.4-11.62-.61s-7.83-.11-11.62-.71c-.03,0-.04,.17,0,.17h0Z"/><path class="cls-3" d="M304.17,360.08c1.84-1.14,4.15-1.77,6.16-2.57s3.85-1.51,5.78-2.24c3.94-1.5,7.89-2.94,11.85-4.38,7.79-2.83,15.65-5.48,23.57-7.94,15.91-4.94,32.06-9.13,48.37-12.52,16.31-3.4,32.79-6.02,49.35-7.86,16.56-1.84,33.22-2.93,49.88-3.22,16.66-.29,33.33,.33,49.96,1.25,2.07,.12,4.13,.23,6.2,.34,.11,0,.12-.58-.01-.6-16.55-2.12-33.29-2.58-49.96-2.44-16.75,.14-33.49,1.07-50.14,2.83s-33.09,4.29-49.43,7.59-32.69,7.41-48.72,12.27-31.44,10.35-46.7,16.76c-1.98,.83-4.08,2.07-6.16,2.55-.06,.01-.02,.19,.01,.17h0Z"/><path class="cls-3" d="M532.11,418.75c-.05,.14-.26,.16-.39,.2l-.3,.1-.66,.21-1.32,.42s0,.07,0,.07l1.72-.6,.41-.14,.23-.08c.06-.02,.14-.06,.2-.07,.08,0,.14,.1,.15-.02,0-.02-.02-.15-.04-.1h0Z"/><path class="cls-3" d="M524.76,417.3c1.71,1.86,5.46,2.63,7.83,3.3,3.49,1,7.36,1.2,10.95,1.6,7.07,.79,14.18,1.15,21.28,1.61,14.55,.94,29.1,1.87,43.65,2.75,28.82,1.74,57.66,3.29,86.51,4.43,57.67,2.28,115.34,.76,172.82-4.27,15.96-1.4,31.92-2.66,47.93-3.29,8.14-.32,16.27-.48,24.42-.43,4.08,.02,8.15,.1,12.22,.27,2.04,.08,4.07,.19,6.11,.28,2.18,.1,4-.64,6.07-1.29,.82-.26,.68-3.67-.1-3.95-1.73-.61-3.45-1.41-5.27-1.56-1.71-.13-3.51,.06-5.23,.1-3.78,.08-7.55,.19-11.33,.26-7.27,.13-14.54,.35-21.8,.6-14.26,.49-28.49,1.44-42.7,2.67-28.76,2.47-57.45,4.87-86.32,5.78-57.34,1.8-114.82-.11-172.09-3.19-16.01-.86-32.01-1.8-48.02-2.76-8.01-.48-16.03-.89-24.03-1.53-3.94-.31-7.88-.61-11.81-1.06-1.97-.23-3.87-.34-5.86-.33-1.25,0-4.26,.8-5.23-.14-.02-.02-.04,.13-.01,.17h0Z"/><path class="cls-3" d="M679.93,432.9c-.67-.61-1.21-1.38-1.8-2.08-.1-.12-.14,.62-.08,.74,7.6,14.71,18.37,27.5,31.57,37.5,1.86,1.41,3.75,2.79,5.71,4.06s4.02,2.32,6.3,1.71c.35-.09,.41-.51,.48-.81,.18-.74,.54-1.41,.7-2.18,.22-1.07,.2-2.17,.12-3.26-.15-2.19-.61-4.32-1.15-6.45-.43-1.68-.94-3.38-1.08-5.12-.03-.35-.05-.61,.07-1.2,.15-.74,.47-1.45,.84-2.11,1.66-2.94,4.57-5,7.42-6.66,3.61-2.11,7.45-3.81,11.25-5.53,4.77-2.17,9.5-4.49,14-7.17,.24-.14,.24-1.39-.1-1.38-8.8,.25-17.33,3.82-25.07,7.8-3.2,1.64-6.26,3.67-8.35,6.66-2.46,3.53-2.79,8.17-2.18,12.32,.35,2.36,1.01,4.65,1.57,6.96,.22,.89,.45,1.79,.59,2.7s.5,2.1,.29,3.01l.48-.81c-2.12,.59-4.06-.33-5.83-1.45-1.68-1.06-3.3-2.22-4.9-3.39-3.2-2.34-6.28-4.86-9.22-7.52-5.9-5.35-11.33-11.2-16.05-17.61-2.6-3.52-5.12-7.05-7.38-10.8l-.08,.74c.62,.47,1.29,.91,1.83,1.47,.02,.02,.05-.13,.01-.17h0Z"/><path class="cls-3" d="M534.57,342.43c-1.11,1.72-2.35,3.24-3.2,5.13s-1.41,3.81-1.84,5.8c-.91,4.25-1.14,8.65-1.27,12.99-.14,5.07,.01,10.15,.47,15.21s1.03,9.88,2.26,14.63c.83,3.22,2.52,7.13,6.26,7.54,.07,0,.08-.26,0-.27-3.62-.43-5.27-4.17-6.09-7.3-1.13-4.31-1.64-8.87-2.11-13.29-.96-9.08-1.27-18.62,.2-27.67,.36-2.21,.89-4.41,1.69-6.5s1.92-4.7,3.66-6.11c.05-.04,0-.2-.03-.16h0Z"/><path class="cls-3" d="M544.67,347.16c-.85-1.07-1.49-2.36-2.2-3.53,0-.01-.02,0-.02,0-3.24,8.55-5.06,17.63-5.3,26.77-.12,4.66,.14,9.33,.79,13.94,.6,4.2,1.41,8.5,2.85,12.5,1.33,3.69,3.49,7.38,7.44,8.63,.11,.03,.12-.29,.03-.32-3.61-1.26-5.74-4.6-7.07-8.01-1.62-4.18-2.46-8.75-3.08-13.17-1.3-9.35-.98-18.94,.9-28.18,.52-2.57,1.17-5.11,1.93-7.62,.2-.65,.4-1.29,.62-1.93,.17-.52,.29-1.26,.59-1.71,.18-.26,0-.62,.53-.45,.14,.04,.41,.65,.49,.79,.49,.79,1.03,1.58,1.44,2.42,.04,.08,.07-.09,.04-.14h0Z"/><path class="cls-3" d="M712.42,347.2c.03-1.13-1.29-1.34-1.97-.55s-.89,2.09-1.18,3.04c-.41,1.32-.79,2.64-1.14,3.97-1.46,5.49-2.46,11.09-3.01,16.74-1.07,11.05-.44,22.26,1.89,33.11,.56,2.62,1.01,5.57,2.43,7.9,1.23,2.02,3.58,3.4,5.92,2.42,.07-.03,.05-.29-.04-.26-2.21,.82-4.5-.52-5.68-2.4-1.26-2.01-1.7-4.49-2.22-6.78-1.06-4.69-1.8-9.46-2.22-14.25-.84-9.74-.31-19.53,1.44-29.14,.48-2.65,1.07-5.29,1.75-7.9,.37-1.41,.77-2.82,1.19-4.21,.19-.62,.34-1.34,.69-1.9,.19-.32,.57-.75,.99-.83,.46-.08,1.34,.25,1.12,.93-.03,.08,.05,.21,.06,.08h0Z"/><path class="cls-3" d="M726.37,343.5l-2.83-1.3s-.01,0-.02,0c-6.29,7.11-7.9,17.04-8.96,26.14-.64,5.48-.91,11.01-.84,16.53,.05,4.27,.25,8.58,1.27,12.74s3.02,8.28,6.62,10.94c.07,.05,.11-.26,.03-.32-7.07-5.6-7.63-15.54-7.69-23.85-.04-5.39,.26-10.78,.86-16.13,.55-4.9,1.27-9.85,2.73-14.58,.75-2.45,1.71-4.85,2.98-7.08,.63-1.11,1.34-2.18,2.12-3.19,.56-.71,.78-1,1.7-.73,.68,.2,1.38,.61,2.03,.89,.02,0,.02-.06,0-.06h0Z"/><path class="cls-3" d="M853.33,378.22c-2.79,6.54-3.98,13.69-3.49,20.79,.24,3.46,.9,6.88,1.96,10.18,.58,1.8,1.97,5.84,4.61,4.63,.07-.03,.04-.29-.04-.26-3.2,1.41-4.53-4.73-5.03-6.69-.81-3.14-1.27-6.38-1.4-9.62-.25-6.5,.93-12.99,3.41-18.99,0-.02,0-.08-.02-.05h0Z"/><path class="cls-3" d="M866.81,382.1c-1.01-.09-1.75-.25-2.66,.34-.83,.53-1.44,1.37-1.91,2.22-1.22,2.2-1.45,4.83-1.7,7.29-.66,6.35-.25,12.82,1.31,19.01,.05,.21,.14-.07,.11-.17-1.28-5.75-1.8-11.64-1.32-17.52,.21-2.55,.37-5.35,1.4-7.72,.68-1.56,2.66-4.59,4.77-3.28,.04,.02,.07-.16,0-.17h0Z"/><path class="cls-3" d="M871.94,382.95c-1.03-1.32-2.37,.78-2.63,1.73-.34,1.25-.36,2.65-.49,3.94-.15,1.61-.27,3.22-.35,4.84-.31,6.12-.09,12.23,.67,18.31,.03,.23,.14,.05,.13-.09-.54-5.05-.78-10.15-.68-15.23,.05-2.57,.19-5.14,.42-7.7,.12-1.32,.08-2.91,.49-4.17,.27-.83,1.44-2.72,2.43-1.57,.02,.02,.02-.04,.01-.06h0Z"/><path class="cls-3" d="M383.2,335.37c1.17,1.55,1.96,3.56,2.76,5.33,.71,1.58,1.36,3.19,1.94,4.82,1.31,3.65,2.29,7.42,2.93,11.24,1.27,7.51,1.27,15.17-.06,22.66-.01,.06,.05,.23,.07,.1,1.35-7.46,1.42-15.15,.14-22.63-.62-3.62-1.54-7.2-2.75-10.67-.66-1.89-1.41-3.76-2.25-5.58s-1.93-3.57-2.74-5.41c-.03-.08-.07,.09-.04,.14h0Z"/><path class="cls-3" d="M387.74,337.02c.37-.37,1.44,1.74,1.63,2.08,.55,.95,1.08,1.93,1.57,2.91,.8,1.61,1.53,3.25,2.18,4.92,1.46,3.78,2.51,7.71,3.16,11.71,1.27,7.8,.9,15.8-1.11,23.44-.02,.06,.04,.22,.07,.1,3.76-14.1,1.84-29.53-5.35-42.24-.22-.38-1.92-3.58-2.25-3.4-.31,.17-.14,.59,.11,.65,.06,.02,.02-.21-.01-.17h0Z"/><path class="cls-3" d="M398.27,335.46c6.67,16.11,7.8,34.29,3.2,51.11-.02,.06,.04,.22,.07,.1,4.7-16.88,3.53-35.1-3.25-51.25-.01-.03-.02,.03-.02,.05h0Z"/><path class="cls-3" d="M364.7,355.34c4.94,10.88,6.62,23.03,4.84,34.85,0,.06,.05,.23,.07,.1,1.79-11.86,.09-24.08-4.89-34.99-.01-.03-.02,.03-.02,.05h0Z"/><path class="cls-3" d="M371.95,361.56c.05-.72-.11-2.02,.19-2.67,.24-.52,.26-.17,.47,.29,.15,.33,.29,.66,.44,1,.68,1.59,1.27,3.22,1.79,4.88,.99,3.17,1.67,6.43,2.05,9.72,.77,6.71,.27,13.54-1.48,20.06-.02,.08,.05,.3,.09,.13,3.37-12.23,2.17-25.43-3.31-36.86-.02-.04-.04,0-.04,.03-.07,1.14-.15,2.27-.22,3.41,0,.03,.02,.06,.03,.02h0Z"/></g></svg>