<?xml version="1.0" encoding="UTF-8"?><svg id="Layer_1" xmlns="http://www.w3.org/2000/svg" viewBox="0 0 1500 750"><defs><style>.cls-1{fill:#57525f;}.cls-2{fill:#cdcad0;}.cls-3{fill:#938a9d;}.cls-4{fill:#231f20;}</style></defs><path class="cls-2" d="M1198.76,382.78c-2.78,6.33-36.81,24.62-38.79,25.53-1.98,.91-25.54,8.24-33.96,8.11,0,0-4.44,27.36-17.18,29.77,0,0-24.54,6.72-31.27,8.8-6.73,2.08-32.2,5.24-32.2,5.24,0,0-65.82,35.68-147.11,20.96l-68.85-6.99-25.79-7.47-54.01-15.15-94.41-14.58s-107.87-4.54-125.54-6.43c-17.68-1.89,29.12-33.12,29.12-33.12,0,0,161.23-40.98,235.23-1.58,73.99,39.4,146.57,28.46,152.31,24.94,0,0-6.64-27.5-1.65-29.2,0,0,88.88-19.88,97.33-18.39,8.44,1.49,19.8,4.9,24.45,5.83,4.66,.93,47.5,3.03,72.83-3.23,25.33-6.25,67.05-10.19,59.51,6.97Z"/><path class="cls-3" d="M829.18,392.57c-2.25,.18-3.94-.18-5.84-1.46l-.86,11.8c32.29-9.05,64.5-18.35,96.71-27.69,2.96-.86,3.4-13.26,.78-12.87-27.47,4.04-54.8,8.6-81.94,14.5l-1.49,14.91c27.81-7.13,54.95-17.33,81.08-29.14,3.08-1.39,5.28-16.09,1.55-15.72-30.83,2.99-61.37,9.04-91.31,16.89l-.87,17.56c37.06-12.38,74.17-24.56,111.58-35.86,4.59-1.39,6.96-19.21,2.24-18-40.09,10.3-79.98,21.44-119.31,34.39l-1.79,19.7c26.54-9.8,52.84-20.33,79.49-29.8,4.38-1.56,8.23-21.07,3.98-20.71-28.41,2.43-55.91,10.63-82.9,19.46l-.21,21.72c21.13-6.96,41.62-15.27,62.08-23.97,4.83-2.06,8.18-23.2,2.17-21.93-22.3,4.73-44.4,11.48-65.14,20.99-5.2,2.38-4.72,24.34,.32,22.18,17.06-7.32,32.92-16.33,48.79-25.9,3.39-2.04,4.49-8.24,4.98-11.7,.17-1.22,1.17-10.84-1.69-10.34-21.7,3.79-43.04,9.79-63.24,18.63l-.52,22.03c15.52-7.59,31.04-15.19,46.56-22.79,4.94-2.42,7.18-23.7,2.15-21.87-21.97,7.97-44.09,15.51-66.14,23.24l-1.08,21.92c21.78-9.9,43.4-20.14,65.05-30.32,3.83-1.8,4.88-9.42,5.24-13.05,.17-1.7,.65-10.18-3.05-8.59-20.82,8.98-41.8,17.61-62.7,26.4l-2.23,21.44c18.1-7.62,36.11-15.44,54.13-23.24l1.08-19.46c-9.35,8.5-14.68,20.34-17.13,32.57-.35,1.73-1.5,7.74,.77,8.81s3.93-4.14,4.28-5.46c1.74-6.61,5.79-12.1,11.01-16.46,3.4-2.84,4.54-8.01,4.97-12.25,.17-1.65,.66-9.51-2.85-8.08-18.03,7.32-36.07,14.63-54.02,22.14-5.5,2.3-6.72,23.32-2.23,21.44,20.91-8.74,41.76-17.65,62.75-26.21l2.18-21.63c-22.08,9.94-44.2,19.81-66.15,30.03-4.99,2.32-6.27,23.78-1.08,21.92,21.68-7.78,43.31-15.74,65.08-23.28l2.15-21.87c-16.07,7.54-32.13,15.09-48.19,22.64-5.15,2.42-5.38,24.07-.52,22.03,19.19-8.09,38.95-14.49,59.42-18.41l3.29-22.04c-16.06,10.25-33.72,18.45-51.36,25.55l.32,22.18c20.32-8.91,41-16.29,62.65-21.24l2.17-21.93c-20.76,9.39-42.37,17.15-64.03,24.18-5.31,1.72-5.88,23.54-.21,21.72,25.65-8.26,51.21-17.01,78.09-20.32l3.98-20.71c-26.68,10.7-53.81,20.32-80.62,30.68-4.96,1.91-6.6,21.36-1.79,19.7,39.16-13.53,78.7-25.89,118.86-36.09l2.24-18c-37.89,11.3-75.64,23.18-112.95,36.3-4.3,1.51-5.67,18.89-.87,17.56,29.53-8.25,59.52-14.06,89.83-18.55l1.55-15.72c-26.24,12.23-53.33,21.79-81.07,29.95-3.61,1.06-4.83,15.74-.75,14.75,27.08-6.58,54.44-12.3,82.01-16.38l.78-12.87c-32.22,9.35-64.42,18.74-96.55,28.37-3.01,.9-3.34,10.18-.86,11.8,2.23,1.45,4.29,2.06,6.98,1.79,3.21-.32,3.01-12.12,.29-11.9h0Z"/><path class="cls-3" d="M845.47,390.65l-10.39-5.62-2.25,12.95c21.86,7.52,45.25,11.12,68.36,11.26,4.98,.03,7.27-17.15,3.54-17.24-17.92-.41-35.82-1.74-53.61-3.99-8.42-1.07-16.99-2.05-25.27-3.93-5.72-1.3-12.72-3.46-15.31-9.3l-6.04,16.75c22.01,3.98,41.81,12.06,61.99,21.42,18.1,8.4,37.48,15.82,57.47,9.76,3.81-1.16,11.52-18.46,6.49-18.94-36.86-3.51-80.41-7.63-107.42-36.11-2.38-2.51-4.78,3.76-5.17,4.98-1.06,3.29-2.39,9.19-.44,12.43,8.38,13.89,23.06,20.93,38.01,25.76,19.41,6.27,39.46,11.1,59.64,14.06,7.2,1.06,15.24-19.45,9.7-23.86-8.33-6.63-18-12.06-26.99-17.78l-6.67,25.13c17.71-10.11,36.32-18.67,55.79-24.78,6.04-1.89,12.04-25.55,5.42-24.31-11.4,2.13-22.4,5.03-33.17,9.39-5.36,2.17-12.84,25.37-5.85,24.19,17.23-2.89,33.84-8.17,49.57-15.75,4.77-2.3,7.18-9.08,8.44-13.85,.57-2.15,2.62-11.24-2-10.38-19.47,3.64-38.58,9.04-57.11,16.05-4.79,1.81-7.27,9.57-8.42,14.01-.51,1.96-2.56,11.58,2.03,10.44,25.35-6.34,50.66-12.78,75.91-19.49,4.81-1.28,7.64-9.78,8.83-13.92,.58-2.01,2.93-11.52-1.72-10.56-21.11,4.35-42.29,8.33-63.42,12.57-6.63,1.33-13.67,25.39-7.58,24.46,20.99-3.2,41.72-7.74,62.13-13.59l7.47-24.06c-11.23,4.57-22.45,9.14-33.68,13.7-4.78,1.94-7.44,8.99-8.83,13.51-.57,1.85-3.08,11.28,1.41,10.34,16.57-3.49,33.12-7,49.64-10.72l8.31-23.27c-23.08,6.94-47.44,11.02-71.24,14.56-6.27,.93-12.33,24.13-6.66,23.31,29.77-4.29,59.43-9.37,89.08-14.42l8.94-20.32c-14.32,4.09-29.85,5.66-44.67,6.73-15.82,1.14-31.5,.85-47.28-.7l-6.76,21.65c16.6-8.41,33-16.03,51.13-20.62,4.22-1.07,11.91-20.67,6.76-21.72-19.72-4.04-39.54-7.59-59.43-10.74l-7.21,22.46c8.93-3.73,18.16-6.35,27.72-7.87,4.73-.75,12.27-21.25,6.87-22.99-23.79-7.66-49.28-7.55-72.99,.35l-3.9,22.69c2.35-1.97,4.69-3.93,7.04-5.9,3.36-2.81,5.16-8.76,6.05-12.85,.42-1.96,1.99-9.12-1.02-9.92-14.23-3.77-29.36-2.14-42.44,4.61-3.94,2.04-5.82,8.24-6.8,12.14-.33,1.32-2.5,11.67,.71,11.45,14.81-.98,28.66-5.43,41-13.74,4.25-2.86,6.09-8.85,7.04-13.66,.42-2.15,1.88-10.58-2.39-9.65-25.51,5.55-50.35,13.61-74.19,24.26-4.35,1.94-6.11,9.64-6.86,13.8-.31,1.74-1.54,11.21,2.6,9.65,16.23-6.13,31.89-13.58,47-22.08,4.05-2.28,5.39-9.25,5.94-13.42,.23-1.75,1-10.66-2.93-9.07-14.94,6.04-29.71,12.43-44.69,18.36s-31.7,11.62-47.37,17.85l-1.76,22.68c21.81-10.23,43.49-20.73,65.16-31.26,4.09-1.99,5.78-8.7,6.51-12.75,.33-1.82,1.49-10.25-2.5-9.01-26.57,8.25-52.92,17.22-78.57,28.02-5.37,2.26-6.8,23.92-1.54,21.99,18.37-6.72,36.31-14.98,53.89-23.54,9.01-4.39,17.91-8.99,26.73-13.75,7.98-4.31,15.99-8.72,24.62-11.6,18.92-6.32,37.16-.08,55.06,6.51,19.21,7.07,38.39,14.21,57.61,21.23,22.12,8.08,44.36,15.84,66.57,23.67,5.77,2.03,15.77-21.84,11.11-23.48-39.72-14-79.54-27.64-119.45-41.1-18.46-6.22-37.68-13.73-57.48-10.04s-35.98,14.79-53.16,23.05c-20.93,10.07-42.37,18.57-63.97,27.06l-1.54,21.99c24.71-11.18,49.97-20.96,76.1-28.25l4.01-21.76c-22.52,10-45.03,20.03-67.41,30.33-5.5,2.53-7.01,24.77-1.76,22.68,7.17-2.84,14.07-6.4,21.21-9.35,7.57-3.14,15.24-6.07,22.86-9.1,15.51-6.18,31.19-11.88,46.74-17.94l3.01-22.5c-14.74,8.14-30.04,15.11-45.76,21.14l-4.25,23.44c23.68-10.73,48.36-18.96,73.79-24.39l4.65-23.31c-11.42,7.68-24.61,12.46-38.39,13.36l-6.09,23.59c12.48-6.46,26.26-7.98,39.84-4.34l5.03-22.77c-2.33,1.96-4.66,3.92-6.99,5.87-3.75,3.15-5.6,9.76-6.33,14.33-.28,1.76-1.41,9.64,2.43,8.36,22.77-7.59,47.23-7.92,70.19-.9l6.87-22.99c-9.46,1.7-18.56,4.49-27.35,8.38-3.58,1.59-12.97,21.65-7.21,22.46,20.06,2.82,40.03,6.18,59.93,10.01l6.76-21.72c-18.21,4.73-36.43,11.34-52.36,21.48-2.67,1.7-10.5,20.58-5.52,20.86,15.15,.85,30.47,.77,45.6-.4,15.35-1.19,30.14-4.31,45.25-6.99,4.29-.76,7.57-7.57,9.11-11.09,.66-1.5,3.86-9.71-.16-9.24-30.47,3.58-60.98,7.11-91.36,11.43l-6.66,23.31c23.55-3.63,46.42-9.25,69.6-14.6,4.7-1.09,7.85-9.04,9.26-13.01,.61-1.73,3.5-11.12-.95-10.26-16.87,3.24-33.7,6.68-50.53,10.14l-7.42,23.85c11.21-4.5,22.42-9,33.63-13.49,4.83-1.94,7.52-9.07,8.92-13.63,.51-1.66,3.04-11.69-1.45-10.43-20.38,5.72-41.08,10.13-62.03,13.2l-7.58,24.46c21.3-4.14,42.56-8.51,63.89-12.55l7.11-24.48c-25.6,6.31-51.13,12.85-76.64,19.53l-6.39,24.45c18.49-7.25,37.52-12.65,57.05-16.27l6.44-24.23c-15.94,7.59-32.75,12.88-50.17,15.78l-5.85,24.19c10.79-4.33,22.07-7.65,33.6-9.27l5.42-24.31c-19.64,5.64-38.44,13.4-55.92,24.02-4.36,2.65-6.49,8.01-7.71,12.76-.9,3.49-2.58,9.92,1.05,12.36,8.26,5.57,16.54,11.74,25.33,16.45l9.7-23.86c-20.88-1.31-41.53-4.22-61.74-9.66-15.33-4.13-31.05-9.68-39.99-23.7l-4.9,18.52c27.71,28.03,67.29,33.19,104.76,36.49l6.49-18.94c-20.14,6.52-40.82-2.42-59.1-10.56-19.86-8.84-39.53-16.56-61.11-20.08-5.15-.84-7.4,13.65-6.04,16.75,6.21,14.11,25.9,14.02,38.96,15.65,19.61,2.45,39.33,3.64,59.08,3.75l3.54-17.24c-23.55,.25-46.6-2.34-69.66-6.97-3.23-.65-5.53,11.68-2.25,12.95l10.65,4.09c2.46,.95,4.84-9.88,1.98-11.42h0Z"/><path class="cls-3" d="M856.92,344.97c27.05,11.54,57.31,12.4,86.2,15.06l5.63-14.35c-24.12,6.28-48.14,13.08-72.35,19.02-4.26,1.05-8.26,16.56-4.96,15.85,19.12-4.15,37.88-9.65,56.33-16.13l4.41-17.74c-15.6,5.48-30.82,11.94-45.61,19.34-3.87,1.94-8.55,20.17-3.75,18.98,11.73-2.91,22.96-6.87,33.97-11.84l5.23-19.09c-14.04,7.27-28.25,13.87-40.41,24.19-2.85,2.42-4.51,7.03-5.39,10.53-.27,1.08-1.79,8.34,.58,8.29,12.5-.3,24.58-2.27,36.38-6.47l4.57-19.18c-9.62,5.34-18.05,10.64-24.12,20.1-.97,1.51-6.71,14.63-2.49,15.34,5.52,.92,11.04,1.84,16.58,2.67,2.52,.38,13.31,.52,13.88,3.88l1.55-8.45-.41,1.06,7.27-7.27c-1.64-4.24-2.81-8.47-3.52-12.96l-9.17,14.37c1.2,6.5,3.75,12.54,8.5,17.24,3.47,3.43,7.71-7.75,8.27-9.78,1.91-6.93,2.75-13.84,2.03-21.01-.39-3.85-3.85-.7-4.94,.76-2.37,3.15-4.67,8.09-4.56,12.11,.14,5.07,.98,9.62,3.48,14.07,2.2,3.91,7.41-6.65,7.73-7.44,1.17-2.92,2.34-5.84,3.51-8.76l-7.89,7.53c1.38,3.5,2.77,6.99,4.16,10.47,1.02,2.54,4.4-1.34,4.94-2.03,2.35-3.04,3.89-6.9,4.64-10.65,.99-4.92,.92-9.73-1.75-14.09-2.05-3.35-6.26,3.76-6.96,5.1-1.99,3.76-3.89,8.72-2.54,12.96,.68,2.16,.05,4.26,.47,6.27,3.88-4.31,4.05-6.25,.52-5.82-.99-.04-1.99-.04-2.98,0-4.63,.18-9.17,1.24-13.69,2.2-8.66,1.84-16.85,2.93-25.06-1.15l-7.52,22.14c9.9-.02,20.4-1.55,28.91-6.97,4.1-2.61,6.96-6.74,8.95-11.11,2.12-4.68,4.92-13.43,.62-17.75-2.97-2.98-8.77-3.37-12.65-4.32-5.17-1.27-10.35-2.45-15.56-3.56-11.19-2.38-22.45-4.36-33.77-5.99l1.1,5.49,.24-1.22-3.3,9.14c.55-1.01,5.2-1.94,6.4-2.37,3.31-1.17,6.62-2.31,9.94-3.43,6.35-2.13,12.72-4.16,19.13-6.11,12.65-3.84,25.36-7.46,38.2-10.61l4.94-18.09c-15.87,5.81-31.25,12.81-46.14,20.79-3.62,1.94-5.57,6.7-6.74,10.43-.32,1.03-2.26,9.15,.98,7.91,11.04-4.21,21.39-10.24,30.49-17.78,2.01-1.66,10.12-15.54,5.34-17.07-8.28-2.65-13.77,5.65-16.18,12.33-.61,1.68-2.65,7.53-.54,8.93s4.56-3.55,5.09-4.83c-.72,1.73-.07,.59,1.19,.67,1.18,.08,1.95,.12,3.12,.57l5.34-17.07c-8.63,6.72-17.89,11.97-28.09,15.92l-5.76,18.34c15.1-8.24,30.79-15.2,46.96-21.04,4.43-1.6,9.23-19.12,4.94-18.09-16.15,3.88-32.18,8.2-47.97,13.35-7.78,2.54-15.7,5-23.29,8.07-7.11,2.88-10.97,8.68-12.6,16.16-.25,1.16-1.78,7.35,.64,7.77,10.76,1.88,21.46,4.08,32.08,6.68,5.23,1.28,10.43,2.66,15.61,4.12,2.99,.84,12.63,1.96,12.99,5.65l.5-6.65,3.19-6.53-1.12,.87c-.93,.34-1.84,.89-2.77,1.26-2.45,1-4.98,1.83-7.55,2.48-5.05,1.29-10.14,1.8-15.34,1.52-6.38-.35-13.21,18.77-7.52,22.14,13.08,7.74,28.3-1.84,41.91-2.26,3.67-.11,6.04-.39,8.66-3.29,3.39-3.75,5.62-9.08,7.15-13.82,2.43-7.56,2.62-14.84,.05-22.34l-9.5,18.06c.48,.76,1.69,2.39,1.49,3.44l9.58-12.68c-1.44-3.42-2.88-6.84-4.34-10.26-1.79-4.2-7.7,7.02-7.89,7.53-1.12,2.94-2.24,5.89-3.37,8.83l7.73-7.44c-1.84-3.04-2.77-5.9-2.99-9.47l-9.45,14.55c.41,3.12,.44,5.95-.46,8.98l8.27-9.78c-3.82-4.27-6.78-8.92-7.99-14.57-.87-4.06-4.28-.14-5.41,1.61-2.13,3.3-4.52,8.67-3.76,12.76,.99,5.3,2.37,10.44,4.25,15.49,1.47,3.96,7.16-6.99,7.27-7.27,2.88-7.34,3.25-14.16-5.61-16.06-8.31-1.78-16.75-3.1-25.13-4.53l-2.49,15.34c3.85-5.91,11.48-9.51,17.57-12.54,3.66-1.82,5.37-7.45,6.24-11.11,.33-1.42,1.8-9.15-1.67-8.07-11.03,3.46-22.48,5.66-34.04,6.06l-4.8,18.82c11.2-9.78,24.46-16.92,37.88-23.16,3.68-1.71,5.54-7.4,6.51-11,.3-1.11,2.01-9.43-1.29-8.09-11.55,4.68-23.44,8.62-35.45,11.95l-3.75,18.98c14.54-7.81,29.53-14.68,44.95-20.58,3.35-1.28,5.02-7.22,5.78-10.3,.28-1.12,1.71-8.62-1.36-7.45-18.27,6.99-36.91,12.89-55.79,18.02l-4.96,15.85c24.01-7.22,48.28-13.61,72.39-20.5,2.85-.81,8.6-14.13,5.63-14.35-29.83-2.24-61.13-2.45-89.41-13.27-2.51-.96-6.29,11.21-3.14,12.55h0Z"/><path class="cls-3" d="M1022.53,357.62c1.55,2.05,3.12,1.94,5.57,2.2,2.86,.3,5.63,.88,8.43,1.48,5.54,1.2,10.93,2.8,16.36,4.41,9.26,2.74,22.77,7.53,31.47,1.22,1.4-1.02,5.7-6.77,3.62-8.45-1.7-1.38-3.93-.89-6.08-.94-2.98-.07-5.94-.2-8.89-.61-5.71-.79-11.29-2.35-16.84-3.85-9.06-2.45-23.38-7.68-31.59-1.05-.97,.79-3.02,4.32-2.05,5.6h0Z"/><path class="cls-3" d="M999.68,363.16c-3.36,1.38-5.5,7.68-2.79,10.38,2.24,2.23,7.6,2.21,10.57,2.46,3.88,.32,7.77,.45,11.66,.35,8.69-.23,17.38-.97,26.05-1.64s17.82-.82,26.47-2.47c2.8-.54,9.27-11.4,6-11.56-12.91-.63-26.44,1.44-39.31,2.54-6.11,.52-12.21,1.03-18.33,1.48-3.42,.26-6.82,.48-10.25,.52-1.97,.02-9.56,.86-10.39-.75l-.26,2.96,.24-.85-2.66,4.17,.76-.44c1.54-.9,3.56-7.69,2.27-7.16h0Z"/><path class="cls-3" d="M1025.36,368.16c9.76,1.39,19.73,1.3,29.53,2.78,8.39,1.26,16.65,3.15,24.84,5.33,7.03,1.87,14.44,3.77,21.76,2.74s12.24-4.96,16.76-10.3c.9-1.06,4.65-8.61,.55-5.75-12.29,8.6-29.21,1.86-42.22-.64-15.21-2.93-32.4-4.66-47.7-1.49-1.53,.32-5.01,7.12-3.53,7.33h0Z"/><path class="cls-3" d="M1057.63,356.74c-2.4,3.11-5.64,8.37-3.15,12.31,2.63,4.17,11.93,4.91,16.23,5.88,6.24,1.42,12.56,2.36,18.92,3.03,7.46,.79,15.34,1.61,22.45-1.13,1.42-.55,7.27-7.12,4.92-8.55-4.07-2.47-9.1-1.85-13.71-2.15-5.4-.35-10.8-.69-16.18-1.34-3.38-.41-27.93-2.42-27.33-6.81l-2.9,5.98,.75-.9c1.2-1.44,3.61-4.98,3.02-6.97s-2.04-.64-3.03,.63h0Z"/><path class="cls-3" d="M1045.49,371.25c5.22,2.88,11.66,3.89,17.48,4.96s11.97,1.65,17.98,2.02c13.15,.8,26.14-.19,38.87-3.66,2.05-.56,6.69-8.73,4.49-8.62-12.36,.66-24.7,1.76-37.09,1.81-6.07,.02-12.11-.32-18.17-.74-6.76-.46-13.64-1.75-20.4-1.58-1.22,.03-4.46,5.09-3.16,5.81h0Z"/><path class="cls-3" d="M1046.26,356.94c12.29,2.79,24.6,5.46,36.76,8.79s23.37,8.45,35.47,10.07c1.7,.23,6.07-6.62,4.53-7.84-9.79-7.73-24-10.96-35.96-13.74-12.27-2.85-24.62-4.6-37.22-4.71-1.74-.01-4.92,7.12-3.58,7.42h0Z"/><path class="cls-3" d="M1053.74,359.13c4.91-1.18,9.26,1.68,13.51,3.79,3.67,1.82,7.48,3.32,11.37,4.62,8.14,2.72,16.55,4.51,25.05,5.67s17.57,1.73,26.41,1.83,18.09,.44,26.78-1.54c1.56-.36,7.62-6.97,5.19-7.49-8.42-1.8-17.72-.53-26.29-.72-9.7-.21-19.42-.79-29.03-2.2-8.79-1.29-17.49-3.25-25.9-6.13-7.88-2.69-14.87-6.21-23.3-6.54-2.92-.12-5.09,9.04-3.78,8.73h0Z"/><path class="cls-3" d="M1085.48,372.65c5.18,3.75,11.38,3.27,17.48,3,7.32-.33,14.64-.91,21.95-1.43,14.83-1.04,30.65-1.12,44.98-5.35,1.1-.33,5.55-5.44,3.71-5.88-6.42-1.54-13.73-.62-20.28-.23-7.19,.43-14.37,1.02-21.55,1.61s-14.47,1.1-21.68,1.86c-6.7,.71-13.51,1.82-19.85-1.11-1.79-.82-6.32,6.39-4.76,7.52h0Z"/><path class="cls-3" d="M1104.91,368.21c22.75,2.54,46.61,3.17,69.32,.06,1.27-.17,4.86-4.87,3.48-5.02-11.32-1.22-22.71-1.29-34.09-1.21s-23.56-.18-35.34,.13c-1.6,.04-4.87,5.86-3.36,6.03h0Z"/><path class="cls-3" d="M1175.88,372.25c1.86-.64,3.82-.9,5.79-.78,2.32,.13,4.4,.98,6.74,.89,1.75-.07,5.64-4.26,4.81-6.05-1.78-3.84-8.41-3.58-11.9-2.68-2.39,.62-4.33,3.12-5.56,5.1-.5,.8-2.43,4.39,.12,3.52h0Z"/><path class="cls-3" d="M750.53,361.94c-4.99-2.12-9.98-4.24-14.97-6.34l-5.28,11.01c10.88-.45,21.66-1.71,32.34-3.78,2.98-.58,7.57-11.13,4.88-10.88-23.87,2.28-47.72,4.98-71.47,8.23-2.99,.41-7.09,10.81-4.65,10.59,26.67-2.4,53.29-5.24,78.57-14.59,2.34-.87,3.98-3.4,5.07-5.54,.33-.65,2.34-5.06,.28-4.79-36.1,4.7-71.96,11.2-107.58,18.73-3.53,.75-8.13,13.16-5.39,12.75,36-5.43,71.5-14.54,106.4-24.77,2.75-.81,4.86-3.51,6.31-5.87,.35-.56,3.1-5.84,.78-5.45-49.31,8.31-98.29,17.37-146.75,29.86-3.43,.88-7.69,13.44-4.78,12.93,9.44-1.66,18.7-4.01,27.82-6.94,2.85-.92,8.93-12.56,5.78-12.21-47.53,5.23-94.73,10.24-141.7,19.57-2.52,.5-8.65,11.06-5.57,12.66,5.46,2.84,11.39,2.12,17.25,1.17,7.42-1.21,14.83-2.52,22.24-3.78,15.16-2.58,30.31-5.26,45.48-7.73,2.78-.45,5.07-4.52,6.21-6.77,.41-.81,2.83-6.21,.29-5.88-23.98,3.1-47.91,7.53-71.43,13.17-3.45,.83-7.71,14.3-4.24,13.88,43.19-5.2,85.99-13.48,129.18-18.79,36.18-4.45,74.11-8.46,109.99,.18,19.14,4.61,36.91,13.13,51.45,26.53l10.14-11.94c-15.36-12.21-29.55-25.8-41.99-40.99l-9.27,13.36c11.92,4.36,23.85,8.69,35.82,12.93,3.88,1.38,13.19-11.54,10.59-12.91-7.76-4.09-16.15-6.21-24.93-6.25-3.94-.02-12.79,12.71-9.57,13.08,5.2,.59,10.09-.03,15.07-1.58,2.33-.73,12.77-12.12,8.8-12.75-6.6-1.06-13.17-2.23-19.74-3.42l-8.26,13.26c4.69-1.62,9.32-3.38,13.96-5.11,1.92-.72,12.02-11.98,8.78-13.32-5.18-2.15-10.39-2.7-15.88-1.42-2.96,.69-13.46,13.21-9.12,13.89s9.01,1.42,13.52,2.13l-.63-3.31c-4.24,12.16,6.81,19.67,15.68,25.72,11.05,7.54,22.79,13.97,35.02,19.38l11.44-13.21c-8.08-2.54-16.13-5.08-24.14-7.84-3.81-1.31-14.96,11.2-11.89,13.46,22.86,16.81,50.85,26.14,79.27,25.53,3.96-.08,8.04-4.66,10.39-7.43,.61-.72,5.78-7.76,2.46-7.66-28.71,.8-56.76-7.27-80.22-23.9l-11.14,13.69c8.24,2.41,16.4,5,24.58,7.61,3.82,1.22,13.71-12.19,11.44-13.21-10.95-4.9-21.54-10.55-31.64-17.03-5.75-3.69-23.98-13.27-20.82-22.48,.39-1.15,1.11-3.04-.63-3.31-4.52-.68-9.04-1.36-13.56-2.04l-9.12,13.89c5.03-1.2,9.67-.98,14.5,.98l8.78-13.32c-4.6,1.74-9.21,3.46-13.77,5.33-2.14,.88-12.45,12.67-8.26,13.26,6.41,.9,12.81,1.82,19.2,2.86l8.8-12.75c-4.43,1.35-8.71,1.56-13.29,1.01l-9.57,13.08c8.49,.11,16.39,2.11,23.91,6.08l10.59-12.91c-12.36-4.53-24.74-8.97-37.14-13.38-3.56-1.27-11.75,10.49-9.27,13.36,12.48,14.45,26.1,27.79,41.12,39.58,2.76,2.17,12.76-9.54,10.14-11.94-25.86-23.67-61.73-30.58-95.73-31.58-41.62-1.22-83.48,5.19-124.59,10.93-25.37,3.55-50.96,6.42-76.21,10.78l-4.24,13.88c22.77-6.37,45.74-11.12,69.16-14.39l6.5-12.65c-14.76,2.56-29.55,4.93-44.33,7.39-7.23,1.2-14.46,2.41-21.69,3.61-6.49,1.08-13.11,2.55-19.23-.61l-5.57,12.66c46.4-8.88,93.65-17.03,140.85-20.05l5.78-12.21c-9.49,2.68-19.08,4.71-28.82,6.22l-4.78,12.93c47.51-12.74,95.77-24.13,144.43-31.47l7.1-11.32c-35.66,9.68-71.81,16.61-108.11,23.34l-5.39,12.75c35.51-8.83,71.45-15.62,107.62-21.16l4.64-10.06c-24.95,9.73-52.12,11.82-78.56,14.05l-4.65,10.59c23.7-3.13,47.43-5.83,71.25-7.94l4.88-10.88c-10.75,2-21.58,3.21-32.51,3.6-2.44,.09-7.73,10.22-5.28,11.01,4.96,1.59,9.93,3.16,14.9,4.74,2.73,.87,7.92-8.51,5.92-9.36h0Z"/><path class="cls-3" d="M939.68,415.28l-.45-1.19-4.05,3.9c3.56,.77,6.03,1.46,8.3,4.46l6.43-8.11c-5.69-3.69-8.82-9.77-7.5-16.54l-7.36,7.51c2.8,4.41,4.95,9.19,6.86,14.04,1.2,3.03,9.81-5.72,8.91-8.89-2.18-7.59-4.78-15.03-7.3-22.51l-7.78,10.01c11.41-3.22,22.88-4.03,34.48-6.06,5.23-.91,9.44-3.2,14.35-4.91,3.45-1.2,7.15-.41,10.73-.93s5.01-2.34,7.41-4.92l-4.55,3.01c1.55-.11,2.85,.41,4.35,.42,1.68,.01,2.82-.57,4.51-1.15,4.36-1.5,5.56-2.34,9.33-5.67l-5.43,3.55c3.75-1.42,6.22,2.47,9.39-.15,1.76-1.45,2.3-4.31,2.25-6.45s-.73-4.96-2.56-6.33c-5.56-4.15-8.79,7.05-10.29,10l9.64-7.78c-2.25-.27-4.6-1.01-6.84-1.1-1.5-.06-2.99,.52-4.46,.69-4.08,.49-4.47,2.24-7,6.03l5.75-4.57c-3.49,.44-7.03-.98-10.56-.16s-5.3,4.64-7.57,7.28l5.08-3.83c-4.11,1.74-8.02,3.94-12.35,5.11s-8.76,1.51-13.17,2.01c-8.99,1.03-17.83,2.74-26.53,5.21-2.66,.76-8.92,6.77-7.78,10.01,2.59,7.38,5.08,14.79,8.02,22.04l8.91-8.89c-2.57-4.86-5.55-9.36-8.68-13.87-1.63-2.35-7.14,6.24-7.36,7.51-1.29,7.41,1.85,14.94,8.71,18.36,2.36,1.18,8.28-6.17,6.43-8.11-3.12-3.28-7.1-4.18-11.26-2.42-.86,.36-5.61,5.16-3.83,5.97,.69,.31,1.2,.85,1.86,1.24,1.07,.62,3.87-2.95,2.99-3.83h0Z"/><path class="cls-3" d="M306.68,272.32c4.43,3.18,8.26,7.44,11.44,11.86s5.02,9.34,7.67,14c.87,1.52,2.71-1.42,2.98-1.89,.98-1.71,1.48-3.88,1.11-5.83-2.17-11.35-10.61-19.99-19.64-26.45-2.43-1.74-5.57,6.86-3.55,8.31h0Z"/><path class="cls-3" d="M306.18,275.73c6.34,9.23,13.17,18.09,19.99,26.98l3.91-10c-4.67-3.18-8.66-5.97-11.88-10.75s-5.76-10.39-5.87-16.34l-4.81,8.63c7.67,3.33,15.54,5.55,22.92,9.64,7.51,4.17,14.36,9.3,20.58,15.22l5.36-12.51c-11.42-5.06-22.93-9.89-34.43-14.74-3.76-1.58-7.84,10.97-4.64,13.34,6.45,4.77,12.89,9.55,19.31,14.36,3.77,2.83,7.79-9.67,5.51-12.5-4.67-5.79-9.32-11.61-13.97-17.41l-5.35,13.07c27.11,16.6,53.61,34.04,79.38,52.64,24.02,17.33,47.05,36.94,73.02,51.35,13.33,7.39,28.79,14.68,44.38,13.6,3.54-.25,9.72-11.87,5.38-13.42-8.33-2.98-17.01-4.86-25.28-8.04s-16.32-7.29-24.01-11.83c-15.85-9.36-30.45-20.64-45.37-31.39-33.05-23.82-67.72-45.77-102.8-66.47-3.37-1.99-7.38,10.63-5.35,13.07,4.82,5.78,9.65,11.55,14.45,17.34l5.51-12.5c-6.75-5.04-13.47-10.12-20.18-15.21l-4.64,13.34c11.41,4.86,22.82,9.74,34.32,14.39,3.49,1.41,7.77-10.36,5.36-12.51-6.38-5.69-13.31-10.68-20.86-14.7s-16.25-8.09-24.73-8.88c-3.26-.3-5.62,7.22-4.68,9.63,4.46,11.45,8.92,23,19.95,29.94,2.43,1.53,5.4-8.16,3.91-10-6.88-8.47-13.61-17.04-20.76-25.29-1.73-1.99-4.99,5.95-3.62,7.95h0Z"/><path class="cls-3" d="M438.11,335.67c-2.84-.47-4.12,3.24-4.54,5.49-.75,4.04,1.58,6.57,4.14,9.41,7.06,7.83,15.44,14.72,23.95,20.91s16.79,11,25.95,15.22c8.78,4.04,18.9,8.77,28.59,9.81,3.28,.35,9.04-10.51,5.56-12.01-7.57-3.27-15.97-4.85-23.68-7.94s-14.78-6.61-21.91-10.46-13.97-8.14-20.5-12.91c-2.97-2.16-5.85-4.44-8.67-6.8-1.7-1.42-3.33-2.91-5.01-4.36-1.47-1.27-3.95-2.64-4.74-4.49l-.45,5.05-.81,1.49c2.6,.3,4.45-8.05,2.11-8.43h0Z"/><path class="cls-3" d="M419.11,340.81c.18,8.85,7.6,15.69,13.44,21.6s12.77,11.83,19.79,16.93c6.6,4.79,13.54,9.05,20.85,12.68s15.15,7.92,23.41,7.09c2.68-.27,6.84-6.93,4.52-9.12-5.48-5.18-14.01-6.93-20.77-10.01-7.29-3.33-14.39-7.15-21.16-11.42s-12.74-8.67-18.59-13.67c-5.46-4.66-16.04-12.12-16.85-19.8-.21-1.98-1.4-2.01-2.64-.8-1.56,1.51-2.02,4.46-1.98,6.51h0Z"/><path class="cls-3" d="M431.4,352l-2.3-2.76c-1.01-1.63-3.69,4.21-3.02,5.76,4.69,10.85,15.95,20.38,25.58,26.78,10.44,6.93,21.85,11.16,34.25,12.85,2.6,.35,6.18-8.6,3.95-9.05-11.66-2.35-23.1-6.55-33.36-12.6-4.91-2.89-9.51-6.27-13.87-9.93-4.98-4.18-8.68-9.64-13.54-13.81l-2.73,6c1.26,.11,2.32,.65,3.17,1.59,.9,.69,3.13-3.78,1.86-4.83h0Z"/><path class="cls-3" d="M743.31,362.75c-1.79,6.55,1.3,12.6,7.97,14.45,3.75,1.04,7.81,.43,11.62,.08,4.78-.44,9.55-.91,14.31-1.49,8.94-1.08,17.85-2.39,26.74-3.79,9.6-1.51,19.58-2.64,28.85-5.62l5.04-9.67c-1.53,1.06-3.01,2.13-4.48,3.27-.49,.38-6.26,6.38-3.49,6.58,1.04,.07,1.89-.04,2.93-.18,2.85-.38,5.91-3.69,7.52-5.79,.46-.6,3.57-5.25,1.08-5.19-7.97,.2-15.99,2.26-23.84,3.55-8.75,1.44-17.53,2.71-26.31,3.93-8.27,1.15-16.59,2.66-24.91,3.33-3.5,.28-7.51,.48-10.79-1.03-2.29-1.06-6.18-4.17-5.08-7.11,.89-2.38-.55-2.39-2.32-1.39-2.07,1.17-4.21,3.78-4.84,6.08h0Z"/><path class="cls-3" d="M826.43,359.57c-12.62,.37-25.09,.4-37.69,1.62s-25.02,3.15-37.46,5.2l-5.47,9.29c2.18-.85,4.25-1.88,6.35-2.92,1.6-.79,7.55-8.75,4.01-7.86-1.91,.48-3.77,.98-5.62,1.67-2.36,.89-4.42,3.65-5.5,5.84-.63,1.28-1.63,3.89,.76,3.28,12.77-3.27,25.77-5.62,38.82-7.45s25.51-3.53,38.23-3.94c1.7-.05,4.55-4.74,3.57-4.71h0Z"/><path class="cls-2" d="M494.04,413.09c-9.46,11.92-18.94,23.81-28.48,35.67-2.53,3.14,10.94,4.27,13.01,2.79,11.98-8.48,23.67-17.34,35.43-26.13l-15.14-2.89c-10.23,13.07-20.33,26.32-31.1,38.96-3,3.52,13.44,7.16,16.83,3.82,13-12.84,25.95-25.73,38.82-38.7l-16.85-3.74c-11.52,15.35-24.63,29.72-39,42.45l18.43,3.52c9.82-9.54,14.94-23.15,14.59-36.75-.12-4.71-15.01-6.06-17.12-2.58-3.57,5.9-7.11,11.82-10.74,17.69l16.01,1.6c-2.58-5.43-3.8-10.96-3.78-16.97,.02-4.49-15.72-5.96-16.05-1.73-1.21,15.73-4.86,31.07-10.6,45.76l15.22,1.88c3.03-9.31,6.02-18.63,8.97-27.96,1.03-3.26-12.93-5.8-14.53-1.79-5.26,13.14-9.64,26.7-12.62,40.54-.91,4.23,12.28,5.01,14.39,2.89,23.76-23.8,47.15-47.97,70.57-72.1,1.88-1.94-3.26-3.49-4.14-3.71-2.83-.71-6.95-1.13-9.61,.39-8.07,4.62-16.37,7.1-25.6,8.11l9.9,5.67c38.59-7.79,77.15-14.9,116.29-19.43,2.57-.3,3.32-1.72,1.35-3.44-2.3-2.01-6.92-2.92-9.84-2.78-37.24,1.85-74.27,5.64-111.04,11.84-3.14,.53-3.72,2.13-.99,4.05,3.01,2.12,8.38,3.47,12.05,2.95,52.45-7.36,106.32-7.24,158.57,1.89l-4.03-7.42c-42.93,0-85.86-3.19-128.67-6.01-3.28-.22-4.67,1.62-2.2,4,3.08,2.96,8.46,4.62,12.57,5.12,66.94,8.14,133.97,17.38,200.15,30.47,2.5,.5,8.18,1.12,6.61-2.87s-9.63-6.66-13.03-7.49c-41.12-10.11-82.4-19.52-123.63-29.19l14.77,13.15c39.07-4.62,78.12-9.82,117.13-14.9,5.51-.72-.31-5.54-2.26-6.77-4.61-2.9-11.19-5.65-16.8-5.08-34.56,3.51-69.11,6.87-103.71,9.93l20.17,11.44c19.73-4.8,39.41-9.76,59.12-14.66,5.48-1.36-.34-5.54-2.74-6.89-5.09-2.88-11.96-5.3-17.92-4.62-42.98,4.92-85.97,9.5-129.02,13.86l21.31,13.19c30.23-6.9,60.38-14.83,90.31-22.94,4.81-1.3,.91-4.71-1.6-6.3-4.64-2.94-11.47-5.57-17.04-5.28-46.04,2.42-92.08,7.53-137.06,17.81-5.58,1.28,.47,5.6,2.79,6.9,5.31,2.97,11.9,5.05,18.04,4.6,13.26-.98,26.43-2.5,39.49-5.02l-21.21-10.83c-3.05,.66-6.11,1.32-9.16,1.99-5.79,1.26,.9,5.9,3.05,6.99,5.19,2.64,12.35,4.81,18.25,3.67,37.78-7.3,76.24-10.59,114.68-11.47,17.11-.39,34.51-.95,51.58,.56,2.8,.25,4.6,.47,7.98,1.11-2.23-.42,2.77,.69,3.25,.83-3.18-.95,3.43,1.44,1.16,.47,4.63,1.97,9.48,5.97,12.61,10.64l10.55-2.2c-29.38-4.51-58.44-11.04-86.9-19.62l11.61,11.1c29.96-5.88,61.41-2.42,87.33,14.04l7.71-4.27c-40.28-8.81-80.97-15.71-121.87-20.91l16.58,11.67c19.19-7.01,40.54-9.5,60.52-4.3,17.35,4.51,34.27,16,46.55,30.55,3.65,4.33,10.62,6.69,16,7.69,2.36,.44,9.92,.94,6.28-3.38-18.09-21.44-43.07-35.13-69.78-42.77-25.73-7.36-54.18-8.58-79.61,.64-3.16,1.14,2.59,5.51,3.25,5.98,3.79,2.7,8.67,5.12,13.33,5.69,38.97,4.82,77.57,11.51,116.05,19.31,4.23,.86,11.11-.73,4.58-4.94-36.87-23.76-83.09-35.28-126.56-27.5-3.14,.56-2.82,2.31-.72,4.42,3.18,3.2,8.12,5.36,12.33,6.68,29.89,9.34,60.37,15.93,91.43,19.91,1.11,.14,9.24,.47,7.29-2.7-15.16-24.7-50.79-28.51-77.07-29.14-34.55-.82-69.15-.03-103.57,3.31-19.39,1.88-38.69,4.56-57.87,7.94l21.3,10.65c3.03-.6,6.05-1.21,9.08-1.81,5.83-1.17-.89-5.92-2.99-7.01-5.21-2.7-12.28-4.86-18.22-3.82-12.17,2.14-24.48,3.75-36.83,4.25l18.55,11.6c43.83-8.51,87.96-15.24,132.59-17.58l-18.64-11.58c-30.86,6.64-61.8,13.64-92.36,21.54-4.31,1.11,4.64,7.49,5.12,7.78,4.32,2.68,10.89,6.09,16.19,5.41,43.32-5.56,86.64-10.9,130.03-15.9l-20.65-11.51c-19.55,4.9-39.11,9.74-58.64,14.73-5.32,1.36,.24,5.38,2.64,6.75,4.99,2.87,11.67,5.27,17.53,4.68,34.18-3.42,68.37-6.54,102.6-9.51l-19.06-11.85c-38.3,4.35-76.66,8.59-114.9,13.4-4.4,.55-1.65,3.99,.44,5.89,3.97,3.59,9.14,6.08,14.33,7.26,39.08,8.93,78.07,18.5,117.33,26.6l-9.37-11.06c-66.27-9.88-132.44-20.23-198.96-28.36l10.37,9.12c41.85,2.64,83.64,4.82,125.58,4.78,1.77,0,6.52,.04,5.65-2.82s-7.43-4.22-9.69-4.59c-56.7-9.47-114.12-10.75-171.02-2.12l12.53,6.75c34.77-6.3,70.05-10.47,105.34-12.27l-8.49-6.22c-38.92,4.51-77.96,10.57-116.04,19.88-2.79,.68-3.04,2.29-.66,3.86,2.84,1.87,7.28,2.29,10.56,1.8,10.04-1.49,19.76-4.91,28.62-9.84l-13.75-3.32c-23.44,23.64-46.92,47.23-70.02,71.19l14.39,2.89c2.66-14.14,6.61-27.75,12.38-40.93l-14.53-1.79c-3.26,9.28-6.48,18.57-9.66,27.88-1.12,3.29,13.49,6.13,15.22,1.88,6-14.73,9.72-30.09,11.42-45.9l-16.05-1.73c-.22,6.54,1.02,12.79,3.65,18.77,1.57,3.57,13.84,4.92,16.01,1.6,3.83-5.87,7.74-11.69,11.62-17.53l-17.12-2.58c-.28,13.58-5.86,25.49-15.5,34.95-2.71,2.66,5.07,4.81,6.35,5.06,3.46,.67,9.26,1.24,12.08-1.54,13.47-13.27,25.92-27.21,37.42-42.23,3.05-3.99-13.6-6.94-16.85-3.74-13.01,12.8-25.92,25.69-38.8,38.63l16.83,3.82c9.34-13.61,19.49-26.69,29.41-39.88,1.82-2.43-3.87-3.8-5.22-4.07-3.1-.62-7.28-.87-9.93,1.18-11.16,8.67-22.38,17.25-33.3,26.23l13.77,2.21c8.35-12.31,16.75-24.58,25.18-36.84,1.5-2.18-8.66-3.33-10.48-1.04h0Z"/><path class="cls-2" d="M652.94,397.15c-3.14,.12-6.22,.18-9.35-.13l4.96,3.92c7.83-.33,15.73-2.48,23.52-3.49s15.22-1.56,22.86-1.74,15.56,.11,23.3,.84c3.51,.33,7.02,.79,10.5,1.32,1.24,.19,4.35,.08,5.27,.88,.66,.57,.3,2.52-1.32,3.06-2.22,.75-.1,2.23,.99,2.83,2.36,1.3,5.27,1.68,7.92,1.62,2.8-.06,5.39-.62,7.44-2.63,.45-.34,.54-.76,.29-1.26-2.65-7.31-14.14-8.47-20.63-9.5-10.49-1.66-21.12-2.6-31.73-2.76-9.87-.14-19.74,.3-29.55,1.47-4.67,.56-9.32,1.25-13.92,2.21-3.95,.82-8.88,1.27-12.27,3.56-1.98,1.33,6.76,3.85,8.14,3.48,2.56-.7,5.18-.73,7.82-.86,3.3-.16-2.74-2.88-4.23-2.82h0Z"/><path class="cls-2" d="M628,400.42c4.4-3.4,10.59-4.57,15.97-5.51,5.89-1.04,11.82-1.86,17.73-2.79,12.72-1.99,25.46-3.84,38.28-5.06s24.59-1.81,36.91-1.37c5.06,.18,11.6-.29,16.2,2.17s6.59,7.4,8.6,12.08c1.03,2.4,12.41,5.24,13.37,2.08,3.63-12.02-15.43-18.5-23.7-20.19-16.27-3.33-33.89-2.76-50.38-1.72-15.38,.96-30.67,3.06-45.89,5.38-7.03,1.07-14.11,2.03-21.07,3.48-6.27,1.31-11.11,3.54-16.51,6.89-1.72,1.07,7.65,6.74,10.47,4.56h0Z"/><path class="cls-2" d="M627.66,396.84c16.95-6.2,36.45-8.54,54.35-9.93,17.69-1.37,35.63-1.23,53.22,1.21,13.72,1.91,27.18,5.24,39.11,12.52,11.76,7.18,19.89,17.98,28.5,28.45,11.35,13.8,24.05,24.78,42.22,28.09,1.57,.29,6.36,1.42,7.44-.4s-2.34-3.65-3.58-4.27c-12.87-6.42-21.61-18.7-30.68-29.39-10.72-12.65-22.99-22.19-38.23-28.9-31.7-13.95-68.8-16.77-103-14.38-9.98,.7-19.92,1.93-29.75,3.75-10.41,1.93-20.42,5.03-30.69,7.49-3.25,.78,.83,3.39,2.01,4.02,2.45,1.3,6.29,2.77,9.09,1.75h0Z"/><path class="cls-2" d="M720.41,397.43c4.86-4.7,12.17-5.32,18.59-4.21l-7.41-3.34c2.95,3.74,5.49,8.91,11,9.19,3.29,.16,7.87-2.17,10.58-3.23l-6.16,1.5,8.45-.7-11.21-2.02c5.15,4.19,3.18,6.8,8.75,7.38,3.45,.36,7.8-1.24,10.96-.59l-7.68-3.8c1.78,4.35,3.65,7.11,7.91,9.45,4.94,2.72,10.1-.04,15.33,1.21l-7.71-4.07c1.36,3.82,2,5.78,5.27,8.5,5.64,4.7,8.61,2.49,16.52,1.64l-6.84-.3,7.26,1.23-9.98-5.12c1.92,3.99,3.38,7.23,6.74,10.15,6.7,5.83,13.23,5.48,22.09,6.33l-12.13-5.94c1.03,3.23,2.17,6.11,4.23,8.82,5.02,6.64,8.28,6,16.77,7.18l-8.52-3.63c1.02,1.7,1.47,3.56,2.4,5.28,1.79,3.31,4.62,4.78,7,7.37,1.32,1.44,2.43,4.89,4.09,6.16,2.98,2.28,13.22,3.55,12.89,3.47l-10.82-5.61c.66,5.51,2.98,5.36,8.29,7.83l-5.9-4.26c1.93,2.83,3.42,4.95,6.06,7.22,1.31,1.13,14.29,6.7,14.53,3.17,.21-3.06-1.67-5.22-2.52-8.09-.77-2.59-2.23-8.2-3.63-9.41-2.11-1.83-4.1-2.04-7.1-3.05l4.15,2.44c-1.94-3.13-2.23-6.41-4.93-9.27-3.68-3.89-5.47-2.98-10.51-5.12l3.95,2.54c-1.71-5.2-3.76-8.6-8.83-11.45-4.55-2.55-9.25-1.94-14.37-3.2l9.97,5.55c-2.11-7.84-6.9-12.8-14.7-15.59l2.53,2.2-1.78-2.63c-.75-1.12-3.19-.78-4.14-.44l-8.28,.98,6.86,.42-7.33-1.33,9.98,5.12c-1.95-4.07-2.8-7.22-6.32-9.9-6.48-4.93-8.38-1.77-18.26-1.78l11.41,3.72c-2.38-2.98-3.78-6.03-6.88-8.38-7.68-5.85-9.84-2.43-20.21-2.07l11.31,3.33c-4.35-4.11-4.3-6.36-9.03-8.96-5.89-3.24-8.97,.09-16.04,2.56l8.05-1.02-3.34-.42,7.78,2.94c-2.55-4.2-5.87-8.38-11.09-8.43-8.3-.09-11.04,1.59-17.47,1-1.79-.16-3.59-.29-5.38-.29-7.01,.01-13.01,1.95-19.16,5.18-2.67,1.4,3.26,4.71,4.08,5.11,1.87,.9,7.87,3.41,9.89,1.46h0Z"/><path class="cls-2" d="M751.48,392.47c4.97-3.53,12.35-.01,17.64,1.47s10.69,3.24,15.93,5.21c10.59,3.99,20.8,9.25,29.74,16.22,4.52,3.52,8.63,7.51,12.32,11.9,3.98,4.73,7.07,10.17,11.23,14.75,7.79,8.58,24.85,17.86,36.53,12.48,2.52-1.16-3.01-4.42-3.55-4.71-2.85-1.55-7.11-3.47-10.46-2.87-1.15,.29-2.31,.4-3.5,.36l2.79,1.06c0-.1-2.9-2.65-2.86-2.61-2.33-2.41-4.31-5.14-6.32-7.82-3.68-4.91-7.53-9.57-12-13.79-9.21-8.67-19.81-15.6-31.12-21.21s-23.06-9.74-35.07-13.11c-6.04-1.7-12.15-3.23-18.3-4.48-5.19-1.05-11.19-1.91-15.77,1.34-2.18,1.55,9.63,8.05,12.75,5.83h0Z"/><path class="cls-2" d="M766.47,415.15c10.36,2.03,20.51,5.39,30.8,7.84s21.26,4.65,31.98,6.47c10.42,1.77,20.89,3.21,31.41,4.2,9.88,.93,21.37,2.89,31.16,.7,4.96-1.11-6.73-6.45-8.18-6.7-19.87-3.45-40.32-3.48-60.31-6.4-9.6-1.4-19.14-3.13-28.61-5.18-10.14-2.19-20.86-4.24-30.52-8.11-1.32-.53-10.62-4.41-10.26-.36s9.73,6.99,12.54,7.54h0Z"/><path class="cls-2" d="M782.37,421.94c21.6,7.94,42.47,17.18,65.07,22.1,10.58,2.31,21.39,3.68,32.22,3.77s22.09-.56,31.58-5.42c2.75-1.41-8.78-7.18-10.86-6.9-10.49,1.4-20.9,3.12-31.51,3.16s-21.16-1.3-31.51-3.55c-20.1-4.36-39.79-12-58.46-20.53-1.74-.79-7-2.83-6.54,.57,.43,3.2,7.75,5.96,10.02,6.79h0Z"/><path class="cls-2" d="M881.48,431.28c-17.92,4.07-35.85,8.05-53.82,11.87-2.84,.6,2.93,5.32,3.47,5.72,2.6,1.91,6.43,4.42,9.84,4.02,17.31-2.06,34.61-4.17,51.87-6.57l-13.65-10.27c-14.95,4.86-30.02,9.2-45.15,13.48-3.15,.89,2.95,5.7,3.48,6.09,3.06,2.26,7.92,5.42,11.93,5.23,14.77-.69,29.13-4.27,42.57-10.37,3.16-1.44-3.51-5.99-4.52-6.64-3.01-1.95-8.21-5.08-12.04-4.04-11.24,3.04-22.26,6.97-32.71,12.12-3.31,1.63,3.64,6.32,4.78,7.06,3.21,2.08,8.71,5.38,12.79,4.28,13.31-3.59,25.51-9.22,37.8-15.34,3.16-1.57-3.49-6.06-4.59-6.77-2.5-1.62-8.96-5.7-12.26-4.09-12.06,5.89-24.11,11.78-36.16,17.67-3.36,1.64,3.91,6.33,5.02,7.01,3.5,2.14,8.74,4.97,13.03,3.99,15.67-3.58,30.03-9.73,43.54-18.43,3.48-2.24-12.64-11.96-16.96-9.96-10.6,4.91-20.75,10.2-30.38,16.85-3.75,2.59,12.4,11.49,16.34,10.09,10.05-3.58,20.11-7.12,30.14-10.74l-15.86-10.24c-7.44,3.15-14.87,6.29-22.31,9.45-3.04,1.29,3.36,5.71,4.26,6.29,2.6,1.68,8.02,5.06,11.39,3.81,3.76-1.39,7.51-2.81,11.26-4.21,3.06-1.15-3.39-5.68-4.2-6.2-3.03-1.96-7.44-4.47-11.22-3.75-14.14,2.67-27.4-3.37-40.14-8.71-13.32-5.58-26.95-10.14-40.91-13.8-27.46-7.2-55.71-10.69-83.82-14.23-4.22-.53-.79,3.92,.35,4.99,3.43,3.2,7.86,5.44,12.36,6.67,35.53,9.69,70.11,22.5,102.99,39.15l3.07-6.51c-49.96-23.72-104.45-38.69-159.48-44.09-3.21-.31-5.17,1.03-2.49,3.75,3.23,3.27,8.53,5.32,12.91,6.27,41.09,8.92,82.09,18.25,123.12,27.47l-11.82-9.43c-20.6,2.18-39.52-5.46-58.29-12.93-20.95-8.34-42.72-17.43-65.54-18.45-3.56-.16-4.55,1.39-1.78,3.99,3.12,2.93,8.7,5.51,13.01,5.82,41.12,2.97,82.19,6.54,123.34,9.17,2.96,.19,3.97-1.22,1.87-3.32-2.55-2.54-7.73-4.13-11.18-4.47-41.73-4.05-83.51-7.38-125.25-11.19l11.22,9.81c22.17,1.43,41.83,10.9,62.24,18.77,21.03,8.11,43.36,14.95,66.14,12.53,3.37-.36,1.42-2.97-.09-4.27-3.19-2.74-7.7-4.25-11.73-5.16-41.14-9.27-82.32-18.42-123.4-27.99l10.42,10.02c49.87,5.8,98.04,19.39,143.71,40.21,1.95,.89,10.44,4.89,11.96,1.66s-7.35-7.42-8.89-8.17c-37.53-18.29-76.6-33.39-116.99-44.05l12.71,11.66c28.54,3.34,57.33,6.65,85.08,14.38,13.58,3.78,26.39,9.29,39.54,14.27,13.28,5.03,26.96,8.67,41.19,6.14l-15.42-9.95c-3.83,1.35-7.66,2.7-11.49,4.07l15.65,10.1c7.51-3.1,15.01-6.21,22.52-9.31,3.1-1.28-3.42-5.8-4.32-6.38-2.68-1.74-8.08-5.08-11.55-3.86-10.22,3.59-20.41,7.25-30.62,10.89l16.34,10.09c9.7-6.64,20.05-12.64,31-16.99l-16.96-9.96c-13.92,7.85-29.08,13.68-44.63,17.39l18.04,11c11.66-5.93,23.32-11.87,34.97-17.8l-16.85-10.86c-12.25,6.23-25.47,10.64-38.52,14.86l17.57,11.34c10.01-5.81,20.42-10.14,31.69-12.79l-16.56-10.68c-12.89,5.26-26.31,8.36-40.15,9.59l15.41,11.33c13.97-5.03,27.95-9.96,42.11-14.41,2.86-.9-2.77-5.44-3.5-5.99-2.62-1.98-6.63-4.72-10.14-4.28-17.21,2.16-34.38,4.6-51.54,7.1l13.32,9.74c18.14-4.35,36.3-8.53,54.49-12.63,2.83-.64-3.36-5.2-3.85-5.52-2.61-1.68-6.84-4.2-10.14-3.45h0Z"/><path class="cls-2" d="M734.79,415.36c-9.36-.14-17.28-2.47-25.75-6.26l.04,3.5c33.96,12.15,68.17,23.63,102.32,35.24l-5.45-6.27c-17.98-.52-35.11-4.62-51.28-12.53l3.46,5.85c22.7,1.59,45.17,6.07,66.85,12.99,1.44,.46,4.67,1.55,4.85-.7,.16-2.11-5.05-4.85-6.45-5.55-12.92-6.38-25.89-12.67-38.84-18.99l-.3,5.48c11.36,5.28,21.82,12.49,31.16,20.82l1.71-3.33c-4.15-1.01-8.31-2.01-12.46-3-2.04-.49-3.93,.01-2.69,2.23s2.52,4.53,3.78,6.79l1.21-2.37c-5.21,.49-10.43,1.01-15.64,1.46-2.68,.23-1.5,2.12-.21,3.45,2.39,2.46,6.05,4.2,9.28,5.16,8.96,2.68,18.04,4.22,27.4,4.32,3.47,.04,.56-3.17-.58-4.1-2.98-2.43-6.88-4.24-10.67-4.92-7.39-1.33-14.78-2.69-22.15-4.14-2.85-.56-3.94,.76-2.1,2.96,2.28,2.73,7.11,4.72,10.45,5.44,18.21,3.95,36.43,7.9,54.64,11.87,3.43,.75,14.28,3.3,13.31-3.57-.85-6.03-12.57-11.02-17.84-10.27l14.72,9.42c2.36-1.2,4.72-2.39,7.08-3.59,3.67-1.87-7.86-7.73-8.96-8.11-47.6-16.53-97.6-20.83-147.51-24.69l12.93,10.45c17.82-1.37,35.76-.4,53.31,2.98l-11.18-10.46c-40.25,2.64-78.65-9.42-116.57-21.3l8.4,8.82c45.65,4.42,87.77,28.18,134.07,28.12,3.22,0,3.81-1.47,1.26-3.52-3.09-2.48-7.99-4.03-11.92-4.27-46.03-2.79-88.08-24.38-133.72-29.56-2.3-.26-4.02,0-2.77,2.43,1.39,2.7,6.37,4.81,9.03,5.69,40.26,13.26,82.02,26.8,124.97,24.34,3.41-.2,1.21-2.9-.3-4.33-2.83-2.7-7.01-5.35-10.89-6.13-18.71-3.76-37.61-4.86-56.63-3.23-3.89,.34-.4,3.72,1.11,4.98,3.11,2.6,7.66,5.19,11.82,5.46,45.92,3.07,92.93,6.09,136.77,21.24l-8.96-8.11c-2.41,1.18-4.82,2.38-7.23,3.57-2.64,1.3,2.77,4.86,3.53,5.35,2.86,1.84,7.61,4.56,11.19,4.07l.83-.11-8-2.28,.7,.33-6.81-4.79c1.29,1.58-.93,2.39-2.07,2.56-1.97,.3-5.11-1.03-7.06-1.43-5.73-1.19-11.45-2.38-17.18-3.57-10.2-2.12-20.39-4.25-30.59-6.38l8.35,8.4c7.25,1.35,14.47,2.8,21.7,4.27l-11.25-9.02c-6.98-.25-13.8-1.23-20.5-3.2l9.07,8.61c5.23-.49,10.47-.92,15.71-1.37,1.78-.15,2.03-.88,1.21-2.37-1.24-2.25-2.48-4.5-3.72-6.75l-2.69,2.23c4.15,1.01,8.29,2.02,12.45,3.02,3.03,.73,4.2-1.14,1.71-3.33-13.84-12.15-29.13-21.85-45.77-29.67-1.38-.65-5.98-2.55-6.72-.36s5.38,5.33,6.42,5.84c12.93,6.34,25.84,12.72,38.8,18.99l-1.61-6.24c-22.82-7.09-46.18-11.15-70.03-12.49-5.53-.31-.75,3.77,1.59,4.93,19.89,9.86,41.54,15.74,63.79,16.16,7.26,.14-3.68-5.68-5.45-6.27-33.81-11.36-67.59-22.87-101.57-33.67-.91-.29-3.9-1.36-4.25,.11-.33,1.38,3.58,3.09,4.29,3.4,9.98,4.24,21.31,6.44,32.11,7.09,1.97,.12,1.34-.78,.36-1.78-1.2-1.22-3.75-2.01-5.42-2.04h0Z"/><path class="cls-2" d="M379.97,337.56c4.59-.31,9.52,5.75,12.22,8.79,3.56,4,7.01,8.11,10.6,12.08,7.56,8.34,15.12,16.7,23.09,24.64,15.81,15.76,32.73,31.42,52.83,41.49,2.27,1.13,5.55,.52,7.76-.4,.91-.38,4.74-2.45,2.86-3.88-18.47-14.12-36.25-28.42-52.64-44.96-8.1-8.17-16.07-16.46-24.02-24.78-3.98-4.17-7.99-8.46-12.33-12.27s-8.53-5.29-13.72-7.23c-2.66-1-7.54,.98-9.37,3.03-2.26,2.53-.06,3.68,2.7,3.49h0Z"/><path class="cls-2" d="M453.86,396.17c11.18,8.97,15.33,25.25,18.67,38.49l15.04-4.16c-1.34-4.33-3.61-8.11-6.5-11.59-2.58-3.11-10.11-.25-12.46,1.74-2.22,1.87-3.27,4.12-1.24,6.54,2.65,3.15,16.22-.98,14.08-4.67s-4.07-7.64-5.22-11.85l-12.19,5.67c10.98,2.31,21.48,6.46,32.48,8.62s27.22,3.34,35.12-6.36c1.8-2.21,.11-4.08-2.26-4.64-9.72-2.32-19.34-5.24-28.94-8.01-9.47-2.74-19.2-5.07-28.48-8.39-3.5-1.25-8.85-.56-11.92,1.53-2.87,1.95-2.51,4.13,.68,5.34,14.67,5.57,31.51,5.89,47.01,6.31,7.98,.21,15.97,.22,23.95,.55s16.29,1.36,24.5,1.19c3.47-.07,11.77-4,5.23-6.75-6.73-2.83-14.36-3.04-21.57-3.39-7.73-.37-15.48-.35-23.22-.37-15.25-.05-29.77-.99-44.66-4.4l-11.24,6.87c9.72,2.37,19.28,5.66,28.86,8.56s19.07,5.59,28.4,8.94l-2.26-4.64c.1,.27,.3,.29,.59,.06-.83,.07-1.66,.06-2.49-.02-1.72-.07-3.45-.26-5.15-.53-3.84-.6-7.62-1.58-11.37-2.58-7.91-2.12-15.69-4.61-23.87-5.42-2.29-.23-13.97,1.1-12.19,5.67s3.64,8.66,6.15,12.74l13.58-5.51-.87,.97-12.46,1.74c2.67,3.06,4.06,6.34,4.92,10.27,1.04,4.71,15.89,.91,15.04-4.16-1.26-7.47-4.12-14.77-7.53-21.51s-8.34-12.66-11.73-19.38c-2.92-5.8-18.27,3.52-14.46,6.57h0Z"/><path class="cls-2" d="M723.44,394.78c11.93-2.25,23.78-1.92,35.83-1.1,11.16,.76,22.7,1.42,31.79,8.65,7.78,6.19,14.63,13.16,23.5,17.87,8.77,4.66,18.34,7.11,28.28,6.87,2.61-.06,.49-2.64-.39-3.5-1.81-1.75-4.77-3.48-7.36-3.56-11.1-.32-20.48-3.94-28.99-10.98-7.9-6.53-15.55-13.47-25.19-17.38s-19.68-4.4-29.77-4.85c-10.93-.49-22.34-.92-32.65,3.28-1.74,.71,3.34,4.99,4.95,4.69h0Z"/><path class="cls-3" d="M870.56,277.57c.29-2.77,1.34-4.23,3.32-6.03l-8.06-5.81c-10.26,11.91-20.35,23.96-30.39,36.06-1.97,2.38,7.7,10.41,9.73,7.97,7.67-9.24,15.16-18.63,22.71-27.97,2.06-2.55-7.69-10.52-10.33-8.28-10.32,8.79-20.64,17.58-30.96,26.37-2.19,1.87,7.7,10.8,10.85,8.49,1.91-1.4,3.82-2.8,5.74-4.19,2.35-1.71-7.49-10.12-10.3-8.95-5.81,2.43-11.63,4.84-17.4,7.38-3.91,1.72,6.03,8.74,7.57,9.24,1.4,.46,2.81,.91,4.21,1.37l-8.37-8.16c.04,1.28-.49,2.16-1.59,2.66-2.32,1.75,7.42,10.31,10.2,9.04,13.23-6.03,22.51-16.92,28.99-29.72,3.29-6.5,5.81-13.33,7.96-20.28,2.62-8.48,5.43-17.6,5.95-26.47,.14-2.35-8.4-7.7-9.01-5.75-2.55,8.25-3.78,16.86-6.47,25.12-2.14,6.56-4.83,12.97-8.12,19.04-6.6,12.15-16.01,23.08-28.9,28.68l10.2,9.04c1.55-1.12,1.9-2.07,2.05-3.91,.29-3.4-5.74-7.27-8.37-8.16-1.41-.48-2.81-.96-4.22-1.43l7.57,9.24c5.85-2.45,11.65-5.04,17.45-7.61l-10.3-8.95c-1.9,1.43-3.79,2.87-5.7,4.29l10.85,8.49c10.14-8.86,20.29-17.72,30.43-26.58l-10.33-8.28c-7.39,9.41-14.85,18.77-22.12,28.27l9.73,7.97c9.67-12.67,19.28-25.37,28.72-38.22,1.39-1.9-6.37-7.71-8.06-5.81s-2.74,4.09-3.41,6.64c-.83,3.15,7.92,7.36,8.15,5.2h0Z"/><path class="cls-3" d="M863.69,228.73c-.18,5.51,2.84,12.01,4.83,17.06,2.5,6.33,5.43,12.48,8.76,18.4,6.34,11.26,14.09,21.56,23.16,30.76,1.48,1.51,7.53,3.88,4.15,0-8.1-9.32-15.45-19.23-21.45-30.05-2.85-5.14-5.42-10.44-7.69-15.87-2.44-5.84-4.1-12.15-6.93-17.8-.36-.72-4.78-4.13-4.83-2.5h0Z"/><path class="cls-3" d="M864.87,246.8c3.85,11.57,7.48,23.22,11.17,34.85,.8,2.51,3.68,4.77,5.8,6.08,.61,.38,4.84,2.68,4.64,.5-.81-9.2-7.11-21.41-16.86-23.88-4.53-1.15-7.31,3.2-9.92,6.25-3.84,4.5-7.2,9.34-10.19,14.44-2.03,3.47,8.03,11.48,11.24,9.8,7.61-3.98,12.57-10.65,14.94-18.83,.87-3.02-8.69-11.59-11.41-9.23-3.19,2.78-5.88,6.03-7.65,9.89s-.96,6.7,2.06,9.97c2.65,2.86,6.12,5.67,10.2,5.68,4.79,.02,10.21-2.37,14.64-4.01,3.62-1.34-6.65-12.17-10.48-11.14-6.27,1.69-11.94,4.58-17.09,8.52-2.87,2.2,8.79,11.3,11.73,10.52,5.76-1.53,11.52-3.05,17.29-4.58l-11.28-10.96c-6.5,2.28-12.99,4.58-19.47,6.9-3.73,1.33,7.56,11.71,11.44,10.95,6.93-1.37,13.86-1.99,20.91-1.67l-10.47-10.87c-7.19,1.49-14.38,2.14-21.73,1.83l10.47,10.87c15.47-7.58,22.75-25.3,17.78-41.67-.92-3.01-4.81-5.74-7.37-7.18-.66-.37-6.3-3-5.74-.35,1.99,9.37,4.92,18.38,9.12,27.01l12.34,5.42c-4.75-7.49-9.5-14.97-14.25-22.46-1.93-3.04-5.05-5.79-8.34-7.27-1.33-.6-5.45-1.71-4.01,1.41,3.72,8.09,7.44,16.18,11.16,24.26,3.34,7.26,8.31,14.05,16.42,16.25,1.71,.46,2.37-.65,1.96-2.16-3.04-11.11-7.56-21.65-13.57-31.48l-6.13,1.14c-1.21-.96,.71,.99,1.09,1.56,.98,1.45,1.81,3.05,2.59,4.61,1.68,3.4,3.03,6.97,4.54,10.45,3.19,7.36,6.87,13.97,12.4,19.85,.75,.8,9.25,8.3,10.96,5.3,4.87-8.54-9.6-18.89-16.68-20.2-4.97-.92-10.28,.85-15.12,1.81-6.23,1.24-12.46,2.48-18.69,3.72l14.09,12.6c2.39-1.89,4.78-3.77,7.17-5.66,3.35-2.64-10.56-13.69-14.15-12.57-6.52,2.04-12.49,5.07-18.05,9.05-3.23,2.31,10.44,13.54,14.11,12.36l4.04-1.3-14.1-12.31-3.42,2.78,14.88,11.81c6.51-7.29,12.39-15.21,17.18-23.75,1.87-3.33,3.6-6.94,4.08-10.78,.57-4.56-1.6-7.98-4.4-11.34-.8-.96-11.53-9.48-12.51-6.01-1.8,6.39-3.13,12.8-3.85,19.4l13.62,8.79c-.65-2.71-1.3-5.42-1.95-8.13-.77-3.2-4.71-6.32-7.28-7.98-.88-.57-5.96-3.59-5.96-.78,0,3.28,0,6.55,0,9.83s3.97,6.58,6.34,8.36c.85,.64,6.48,4.39,6.62,1.41,.15-3.25,.31-6.5,.46-9.75l-13.23-8.76c.53,2.71,1.05,5.41,1.58,8.12,.58,2.96,12.89,13.3,13.62,8.79,1.01-6.31,2.5-12.45,4.56-18.51l-13.7-7.48c3.76,5.04-3.43,14.5-6.02,18.55-4.15,6.48-8.89,12.52-14.07,18.2-2.91,3.2,11.06,14.85,14.88,11.81l3.43-2.73c3.31-2.64-10.57-13.41-14.1-12.31l-4.04,1.26,14.11,12.36c5.09-3.56,10.55-6.14,16.48-7.93l-14.15-12.57c-2.37,1.88-4.74,3.75-7.11,5.62-3.61,2.86,10.74,13.26,14.09,12.6,5.21-1.03,10.42-2.05,15.63-3.08,2.6-.51,5.21-1.03,7.81-1.54,1.36-.26,5.72-1.78,7-1.04l-5.83-4.48c-.93-2.17-1.47-2.26-1.64-.28l10.96,5.3c-5.63-5.72-7.92-14.37-11.33-21.47-4-8.35-9.43-15.15-16.71-20.89-2.13-1.68-9.55-4.35-6.13,1.14,5.58,8.97,9.82,18.55,12.62,28.75l1.96-2.16-1.28-.32,4.69,2.44c3.02,3.79,3.74,4.24,2.15,1.34-.53-1.18-1.06-2.36-1.59-3.53-1.06-2.36-2.12-4.71-3.18-7.07-2.12-4.71-4.24-9.42-6.36-14.14l-12.35-5.86c4.76,7.62,9.52,15.23,14.28,22.85,1.85,2.96,5.23,5.61,8.42,6.93,1.37,.57,5.37,1.53,3.92-1.51-3.84-8.06-6.86-16.4-8.77-25.13l-13.11-7.53c4.42,14.27-3.14,30.8-16.44,37.32-4.32,2.12,7.98,10.76,10.47,10.87,8.04,.34,15.95-.22,23.83-1.85,2.69-.56-1.16-4.88-1.73-5.47-2.06-2.14-5.58-5.25-8.74-5.39-7.73-.34-15.34,.13-22.94,1.61l11.44,10.95c6.44-2.28,12.88-4.57,19.31-6.88,3.56-1.28-7.27-12.05-11.28-10.96-5.69,1.55-11.38,3.1-17.07,4.65l11.73,10.52c4.59-3.59,9.55-5.99,15.16-7.53l-10.48-11.14c-3.81,1.46-10.77,5.24-14.87,3.98l7.21,4.89-.73-.76,2.77,4.9c-.73-4.95,4.57-10.53,8.01-13.5l-11.41-9.23c-2.28,7.72-7.55,13.7-14.53,17.58l11.24,9.8c2.2-3.97,4.6-7.81,7.31-11.46,1.62-2.19,6.07-9.8,9.32-9.28l-3.92-1.93c-1.22-.79,.84,2.61,1.02,3.07,.71,1.81,1.11,3.64,1.38,5.56l10.45,6.58c-4.39-12.02-8.86-24.03-13.1-36.11-.77-2.2-3.27-4.15-5.28-5.17-1.01-.52-3.81-1.56-3.07,.69h0Z"/><path class="cls-3" d="M871.26,254.08l-.92-1.78c-.41-1.54-6.94-7.14-7.67-4.45-.99,3.68,1.7,7.22,3.49,10.26,2.69,4.59,5.47,9.14,8.2,13.7,5.5,9.17,10.84,18.47,16.97,27.23,1.4,2,4.21,4.82,6.72,5.31,2.07,.4,2.66-.46,1.58-2.52-4.33-8.27-9.59-16.06-14.57-23.94-2.46-3.9-4.93-7.8-7.4-11.7-2.59-4.09-6.43-8.42-7.19-13.3l-5.87-2.09,2.01,2.08c.82,1.01,6.67,4.06,4.64,1.19h0Z"/><path class="cls-3" d="M377.5,330.35c8.8,17.01,23.91,29.04,38.8,40.52,17.96,13.85,34.58,28.91,51.71,43.72,2.39,2.07,10.37,4.1,5.83-1.09-13.76-15.72-30.78-29.06-47.41-41.6-15.13-11.4-30.95-22.53-40.89-39.08-1.08-1.79-3.33-3.28-5.35-3.77-1.02-.25-3.7-.63-2.7,1.3h0Z"/><path class="cls-3" d="M471.41,439.46c-2.11-1.92-3.12-2.1-3.03-.53-.03,.64-.11,1.28-.24,1.91-.17,1.17-.42,2.33-.65,3.48-.65,3.23-1.4,6.44-2.16,9.65-1.49,6.27-3.29,12.47-4.84,18.72-.59,2.38,7.36,8.2,8.5,5.96,5-9.78,7.42-20.66,8.44-31.54,.39-4.1-.05-7.25-3.16-10.18-2.33-2.19-6.36-4.69-9.51-2.98-2.54,1.38,4.82,5.8,6.64,5.51h0Z"/><path class="cls-3" d="M466.39,487.69c8.88-5.32,16.9-10.42,24.13-17.96,2.43-2.54-6.29-11.07-8.56-8.56-6.52,7.19-14.37,14.53-23.03,19.06-1.92,1,4.4,9.3,7.46,7.46h0Z"/><path class="cls-3" d="M333.6,297.55l-.49-.77-7.48-2.55c3.28,4.52,6.8,8.46,9.05,13.67s2.58,10.61,4.92,15.47c.64,1.33,7.85,8.2,9.2,5.36,2.43-5.12-2.45-14.18-4.88-18.82-3.62-6.91-8.62-13.1-14.88-17.77-1.08-.8-3.82-2.32-4.52-.46-.63,1.69,3.14,4.73,4.19,5.35l.87,.6c1.38,1.37,7.09,3.63,4.03-.1h0Z"/><path class="cls-3" d="M326.24,300.11c4.1,9.87,6.9,19.96,9.15,30.38,.67,3.12,7.82,9.45,11.07,7.09,4.22-3.06,7.78-6.92,12.1-9.9,3.23-2.22,8.87-6.84,13.02-6.1l-3.89-1.86,.52,.39-4.66-5.79,.34,1.02c.52,1.58,7.27,9.75,9.16,6.7,1.77-2.87-1.81-6.38-3.88-8.06-3.22-2.61-6.66-4.01-10.65-2.53-8.3,3.1-18.16,9.92-23.02,17.35l11.07,7.09c-3.11-11.54-7.95-22.78-13.67-33.25-.94-1.73-2.91-4.03-4.93-4.47-1.73-.38-2.5,.08-1.74,1.92h0Z"/><path class="cls-1" d="M1040.26,374.94c-7.66,1.9-9.53,12.57-5.83,18.67,4.47,7.35,18.87,8.87,19.81-1.59,.32-3.49-9.59-6.19-11.17-3.09-.46,.9-.97,1.75-1.51,2.6-.17,.49-.43,.91-.79,1.28-1.63,1.69,.09,2.37,5.15,2.02-.61-2.02-2.09-3.74-2.53-5.97-.88-4.38,.2-7.75,2.78-11.16,1.59-2.11-4.84-3.03-5.91-2.77h0Z"/><path class="cls-1" d="M1045.67,376.28c5.96,3.59,6.56,9.83,5.31,16.09-.55,2.78,7.25,5.69,8.79,3.39,5.79-8.65-4.3-19.82-12.67-21.33-1.65-.3-3.75,.46-1.44,1.85h0Z"/><path class="cls-1" d="M827.2,509.73c24.52-10.08,48.4-21.79,72.79-32.22,11.24-4.81,22.57-9.51,33.6-14.78,9.31-4.44,20.64-9.77,27.36-17.88,2.09-2.52-6.67-10.16-9.25-7.98-4.35,3.69-8.27,7.7-12.98,10.98-4.41,3.08-9.12,5.72-13.88,8.22-10.64,5.59-21.5,10.76-32.21,16.2-22.97,11.67-46.64,22.07-69.42,34.08-1.45,.77,2.61,3.93,3.99,3.37h0Z"/><path class="cls-1" d="M947.71,423.12c-.43,.09-.87,.12-1.32,.09-2.18-.34,.27,2.89,.76,3.35,1.83,1.72,2.8,3.55,3.27,6.06,.32,1.73,2.11,3.39,3.52,4.28,.76,.48,2.85,1.34,2.47-.43-1.1-5.13-4.47-9.86-8.86-12.72l2.52,4.47c.48-.07,.96-.04,1.43,.06,1.71,.24,.56-1.76,.08-2.43-.69-.96-2.47-2.94-3.88-2.74h0Z"/><path class="cls-1" d="M660.33,475.98c6.28-13.93,17.77-23.24,32.14-27.92,2.29-.75-5.12-6.01-7.42-5.46-14.83,3.54-27.22,14.33-33.42,28.16-1.29,2.89,7.56,7.74,8.7,5.21h0Z"/><path class="cls-1" d="M312.77,283.36c-.27-.6-1.76-2.56-1.09-3.28l-5.08,.82c8.68,.97,15.39,11.5,20.27,17.92,6.38,8.39,10.32,17.97,11.9,28.36,.62,4.07,13.72,6.4,12.93,1.92-2.42-13.73-8.78-25.19-17.65-35.78-7.74-9.24-16.54-17.26-29.36-16.8-4.22,.15-2.41,3.4,.59,4.1,1.31,.48,2.2,1.35,2.67,2.61,.69,1.21,5.47,1.57,4.82,.15h0Z"/><path class="cls-1" d="M364.9,320.4c5.84,3.26,9.52,9.76,13.5,14.91s8.68,10.16,13.56,14.69c10.03,9.31,21.2,17.27,31.77,25.94s19.93,17.74,26.83,29.27,10.81,24.71,11.96,38.05c1.32,15.32-1.91,30.09-6.33,44.65-1.6,5.28,11.81,7.5,14.23,3.6,14.39-23.13,12.26-54.65,.62-78.43-13.52-27.64-40.58-42.37-63.36-61.31-13.02-10.83-22.59-25.29-37.73-33.36-1.28-.68-4.48-2-5.84-.91s-.64,2.1,.8,2.9h0Z"/><path class="cls-1" d="M464.67,497.33c6.42-4.93,11.46-11.84,16.33-18.24,4.7-6.17,9.44-12.83,11.84-20.28,1.32-4.09-9.08-4.27-10.95-2.4-5.53,5.55-10.01,12.16-14.73,18.38s-10.29,11.46-13.98,17.9c-2.68,4.68,8.87,6.63,11.48,4.63h0Z"/><path class="cls-1" d="M859.49,227.76c4.69,12.1,13.84,23,20.78,33.9,3.38,5.31,6.81,10.61,10.12,15.96,3.71,5.98,5.6,12.31,8.65,18.51,.99,2.01,10.48,8.05,10.73,3.39,.3-5.43-3.78-11.59-6.47-16.1-3.61-6.05-7.73-11.79-11.71-17.6-8.4-12.26-15.89-25.66-25.84-36.75-.75-.83-7.51-4.52-6.27-1.3h0Z"/><g><path class="cls-4" d="M522.58,431.29c.98,.36,1.94,.78,2.97,.93,.97,.14,1.97,.16,2.95,.18,1.96,.03,3.93,.06,5.89,.1,3.93,.07,7.85,.17,11.78,.28,7.69,.22,15.37,.45,23.06,.76,15.53,.62,31.05,1.52,46.55,2.7,30.83,2.34,61.58,5.79,92.17,10.33,8.58,1.27,17.14,2.63,25.69,4.08,4.19,.71,8.38,1.44,12.57,2.19,2.09,.38,4.19,.76,6.28,1.14,1.13,.21,2.25,.42,3.38,.63,1.19,.22,2.17-.03,3.35-.27,.42-.08,.35-1.72,.03-1.91-.8-.46-1.63-1.08-2.51-1.39s-1.97-.37-2.89-.54c-1.93-.36-3.86-.71-5.79-1.06-3.86-.7-7.73-1.38-11.6-2.04-7.58-1.3-15.17-2.53-22.77-3.7-15.36-2.35-30.77-4.43-46.21-6.23-30.71-3.58-61.56-6.06-92.45-7.43-8.66-.38-17.33-.71-26-.87-4.42-.08-8.83-.14-13.25-.17-2.13-.02-4.25-.03-6.38-.03-1.15,0-2.29,0-3.43,.09-1.22,.09-2.26,.52-3.41,.94-.31,.11-.27,1.18,.03,1.29h0Z"/><path class="cls-4" d="M797.07,457.68c-1.29,2.31-2.9,4.33-5.04,5.9s-4.7,2.81-7.42,3.41c-.3,.07-.26,1.3,.03,1.29,5.68-.12,10.89-4.22,12.71-9.54,.09-.26,.08-.63,0-.89-.04-.13-.15-.4-.28-.17h0Z"/><path class="cls-4" d="M761.52,445.65c3.16,.95,6.42,1.49,9.58,2.48s6.19,2.3,9.07,3.9c5.55,3.08,10.44,7.31,14.71,11.99,.15,.17,.3-1.07,.14-1.3-3.84-5.51-8.98-9.78-14.89-12.94-2.78-1.49-5.7-2.71-8.71-3.63s-6.62-1.77-9.92-1.39c-.22,.03-.18,.84,.02,.91h0Z"/><path class="cls-4" d="M799.07,466.87c1.93,1.81,4.6,2.38,7.08,3.01s5.01,1.24,7.53,1.81c5.03,1.15,10.09,2.12,15.17,2.97s10.18,1.58,15.3,2.18c2.56,.3,5.12,.57,7.68,.81,1.28,.12,2.57,.23,3.85,.33,.61,.05,1.32,.21,1.93,.15s1.31-.38,1.91-.57c.43-.14,.42-1.86,.03-2.03-.51-.23-1.02-.48-1.54-.7-.62-.26-1.26-.24-1.93-.3-1.28-.1-2.57-.21-3.85-.33-2.56-.23-5.13-.5-7.68-.8-5.12-.59-10.22-1.31-15.3-2.16s-10.14-1.81-15.18-2.85c-2.52-.52-5.03-1.07-7.53-1.65-2.29-.53-5.14-1.62-7.46-.71-.21,.08-.15,.7-.02,.83h0Z"/><path class="cls-4" d="M916.69,437.56c-1.23,1.83-2.34,3.73-3.46,5.63-.55,.93-1.11,1.86-1.65,2.8-.28,.49-.54,1-.8,1.51-.35,.66-.54,1.41-.83,2.09-.14,.33-.15,.71-.09,1.05,.01,.07,.18,.7,.34,.48,.16-.21,.31-.45,.49-.64,.17-.17,.34-.28,.49-.48,.31-.43,.57-.92,.83-1.38,.58-1.03,1.11-2.08,1.67-3.11,1.15-2.16,2.3-4.31,3.35-6.51,.16-.34,.16-.79,.07-1.15-.05-.19-.2-.59-.4-.29h0Z"/><path class="cls-4" d="M913.36,439.52c2.82-.28,5.48-1.1,8.24-1.71s5.4-1.11,8.13-1.52c4.99-.76,10.27-1.53,15.27-.53,4.47,.89,8.72,3.61,10.19,8.13s-3.19,7.72-6.69,9.5c-5.76,2.93-11.51,5.85-17.15,9-.31,.17-.12,1.61,.1,1.52,5.73-2.26,11.55-4.55,17.07-7.3,2.23-1.11,4.48-2.41,6.02-4.42,1.4-1.82,2-4.02,1.99-6.3-.02-4.56-2.45-8.98-6.45-11.25-4.95-2.81-11.01-2.44-16.43-1.67-3.44,.49-6.87,1.14-10.26,1.92s-6.95,1.58-10.12,3.24c-.26,.14-.23,1.43,.1,1.4h0Z"/><path class="cls-4" d="M907.32,455.59c-2.4-.05-4.62,1.11-6.85,1.94s-4.54,1.77-6.8,2.7c-4.59,1.89-9.16,3.83-13.71,5.82-8.92,3.9-17.76,8-26.51,12.28-17.64,8.64-34.89,18.07-51.69,28.24-9.48,5.74-18.82,11.71-28.01,17.91-.52,.35-.47,2.29,.06,2.61,3.13,1.91,6.94,1.28,9.53-1.26,.32-.31,.13-2.01-.21-1.74-2.57,2.01-6.38,2.05-9.14,.38l.06,2.61c16.27-11.02,33.03-21.32,50.21-30.88,17.22-9.58,34.84-18.43,52.81-26.49,5.03-2.25,10.08-4.45,15.16-6.57,2.54-1.07,5.1-2.1,7.64-3.18s5.29-1.94,7.47-3.73c.09-.07,.11-.63-.04-.63h0Z"/><path class="cls-4" d="M782.65,527.26c2.72-.18,5.35-1.45,7.85-2.49s4.92-2.03,7.37-3.04c5.11-2.11,10.22-4.22,15.33-6.33,10.26-4.24,20.5-8.51,30.75-12.78l61.05-25.45,17.05-7.11c5.76-2.4,11.61-4.66,17.28-7.27,.7-.32,.31-2.99-.07-2.85-5.13,1.93-10.15,4.18-15.21,6.3l-15.43,6.46-30.64,12.82c-20.32,8.5-40.65,16.96-60.94,25.53-5.76,2.43-11.51,4.86-17.27,7.29-2.84,1.2-5.68,2.4-8.52,3.6s-6.12,2.41-8.66,4.41c-.13,.11-.17,.9,.06,.89h0Z"/><path class="cls-4" d="M939.94,394.28c18.45-3.62,36.87-7.39,55.29-11.15,9.21-1.88,18.43-3.76,27.64-5.65,4.47-.91,8.96-1.83,13.51-2.2s8.9-.05,13.31,.83,8.55,2.15,12.81,3.28,8.55,2.03,12.91,2.6c8.65,1.13,17.41,1.11,26.09,.41,17.75-1.42,35.13-5.52,52.64-8.54,7.52-1.3,15.25-2.82,22.92-2.6,5.94,.17,12.62,1.39,16.85,5.93,.89,.96,1.8,2.05,2.48,3.16,.3,.48,.35-1.21,.28-1.43-1.02-2.93-2.7-5.15-5.31-6.86-2.42-1.58-5.23-2.53-8.05-3.08-6.85-1.33-13.81-.43-20.63,.59-17.79,2.65-35.29,6.98-53.15,9.21-8.75,1.09-17.59,1.66-26.4,1.19-4.43-.24-8.85-.74-13.22-1.56s-8.58-2.02-12.83-3.16-8.67-2.25-13.13-2.63-9.08,.05-13.55,.79c-9.28,1.55-18.48,3.71-27.69,5.62-18.6,3.84-37.21,7.63-55.78,11.61l-7.03,1.51c-.56,.12-.36,2.21,.05,2.13h0Z"/><path class="cls-4" d="M834.47,307.3c12.96-2.82,25.82-6.15,39.1-7s25.52,.81,37.92,3.74c25.16,5.94,49.11,16.26,73.52,24.63,24.66,8.46,49.65,16.05,75.03,22.06,25.26,5.98,50.95,10.39,76.84,12.49,11.18,.91,22.48,.76,33.62,2.08,8.93,1.06,18.59,3.21,25.2,9.75,1.59,1.57,2.96,3.36,4.08,5.29,.37,.65,.62-.35,.68-.63,.14-.7,.1-1.69-.24-2.34-4.23-8.14-12.48-12.31-21.1-14.33-10.02-2.35-20.4-2.12-30.62-2.59-26.06-1.2-51.93-4.95-77.42-10.44s-51-12.81-75.96-21.05c-12.36-4.08-24.63-8.41-36.86-12.88-12.21-4.46-24.43-8.99-36.95-12.52s-25.07-5.93-37.93-6.16-26.45,2.45-39.35,5.91c-3.22,.86-6.39,1.9-9.57,2.9-.28,.09-.18,1.15,.03,1.1h0Z"/><path class="cls-4" d="M827.76,304.18c1.09-.74,2.18-1.49,3.26-2.23,.05-.03,.02-.22-.03-.19-1.09,.77-2.17,1.53-3.26,2.3-.03,.02-.01,.15,.02,.12h0Z"/><path class="cls-4" d="M944.14,392.7c-.51,15.81,2.83,32.24,10.43,46.19,2.11,3.87,4.49,7.65,7.27,11.08,.37,.46,.46-1.1,.27-1.4-8.21-12.98-14.24-27.33-16.18-42.65-.54-4.26-.77-8.55-.72-12.84,0-.32-.06-1.4-.5-1.48s-.55,.83-.56,1.1h0Z"/><path class="cls-4" d="M1042.24,387.88c-1.39,1.21-1.5,3.26-1.32,4.98s.92,3.62,2.43,4.65c1.23,.84,2.86,.95,4.23,.44,1.6-.6,2.64-1.89,2.97-3.56,.43-2.16-.08-4.75-1.63-6.37-1.13-1.18-2.59-1.43-4.15-1.45-.32,0-.69,.07-.93,.27-.39,.31-.66,.92-.82,1.37-.51,1.38-.55,2.98-.37,4.43,.24,1.9,1.08,4.4,3.38,4.45,.93,.02,1.92-.46,2.58-1.1,.99-.96,1.52-2.24,1.76-3.58,.4-2.2,.16-4.53-.55-6.64-.25-.73-.55-1.43-.9-2.12-.06-.12-.11-.23-.18-.34,.17,.31,.07,.12-.02-.09-.23-.5-.45-.88-.77-1.31-.15-.31-.39-.49-.72-.54-3.27,.72-4.08,4.71-4.14,7.55-.03,1.3,.06,2.63,.39,3.9,.23,.87,.52,1.77,1.04,2.52,.34,.49,.88,1.23,1.55,1.17,.52-.05,1.04-.29,1.5-.51l-.28,.11c.53-.14,1.08-.11,1.62-.29,.62-.21,1.2-.5,1.73-.89,1.07-.79,1.9-1.76,2.26-3.07,.23-.81,.25-1.77-.06-2.56-.08-.19-.22-.53-.47-.52s-.37,.36-.44,.54c.08-.2-.08,.14-.12,.2-.09,.15-.09,.15-.16,.23-.2,.23-.45,.43-.71,.59-.51,.32-1.08,.4-1.68,.39s-1.3-.09-1.73-.36c-.08-.05-.14-.13-.22-.2,.12,.11,.04,.05-.02-.03-.14-.18-.28-.36-.41-.56-.33-.49-.57-.93-.98-1.38l.36,.41c-.15-.17-.29-.35-.41-.54-.05-.09-.1-.18-.15-.27,.41,.65,.23,.46,.12,.21-.21-.5,.25,.92,.12,.4s.15,1.05,.1,.61c-.07-.63,.04,.77,.04,.74,0-.06,0-.12,0-.18,0-.37,0-.08-.02,.87,0-.1,.01-.2,.02-.3,.03-.44-.18,1.16-.07,.63s-.28,.93-.1,.41c.04-.12,.07-.23,.11-.35,.14-.42-.28,.58-.12,.29,.05-.09,.09-.18,.14-.27,.12-.21,.25-.41,.39-.6l-.34,.44c.46-.57,1.01-1.05,1.69-1.34l-.75,.02c.12,.12,.5,.65,.71,.63,.1,.07,.08,.03-.07-.12,.06,.08,.13,.16,.19,.25,.09,.12,.18,.25,.26,.38,.04,.06,.08,.13,.12,.2,.08,.15,.05,.09-.09-.19,.03,.08,.06,.16,.09,.24,.07,.2,.04,.1-.08-.29,.03,.11,.05,.22,.08,.32l-.09-.49c.04,.36,.03,.22-.02-.41,0,.26,0,.22,0-.12,0-.25,.01-.51,.07-.76-.04,.21-.03,.19,.03-.06,.07-.25,.07-.27,.01-.07-.08,.23-.06,.18,.07-.13,.05,.03-.4,.69-.44,.75,.21-.3-.06,.05-.1,.1-.1,.1-.21,.2-.32,.29-.26,.21-.54,.38-.84,.51l.31-.13c-.64,.26-1.31,.32-1.97,.09l.31,.11c-.16-.06-.31-.14-.44-.24-.06-.05-.12-.13-.19-.16-.15-.08,.18,.32,.05,.06-.02-.04-.08-.13-.11-.17-.25-.28,.19,.49,.06,.13s.1,.38,.09,.35c-.17-.58,.08,.55,.04,.3,.08,.59,.05,1.1-.04,1.68,.07-.43-.2,.66-.06,.25,.08-.24,.05,.1-.1,.23,.03-.02,.11-.17,.12-.21,.06-.19-.26,.3-.05,.07s.19-.26,.32-.43c-.24,.32,.01,0,.09-.06,.16-.14,.33-.24,.49-.38,.12-.1,.27-.27,.41-.33,.38-.16,.96-.06,1.35,.03,.33,.08,.63,.24,.91,.42,.17,.11,.34,.24,.49,.38,.18,.15,.32,.3,.39,.39,.06,.08,.32,.54,.21,.29,.02,.05,.06,.19,.09,.22-.02-.02-.09-.56-.07-.33,.03,.29,0-.51,0-.45,.03-.42,.01-.16,0-.07,.01-.31,0,0-.04,.1-.09,.24,.07-.1-.07,.15-.37,.68-.96,1.18-1.67,1.53-1.45,.72-3.3,.58-4.51-.53-.32-.29-.62-.74-.76-1.04-.04-.08-.07-.16-.1-.24-.01-.04-.12-.38-.06-.16-.04-.12-.06-.25-.1-.37l-.03-.12c.03,.17,.03,.17,0,0,.06-.15-.02-.14,0,.01,0-.05,0-.5,0-.34,0,.22,.02-.23,.02-.21-.02,.2,.03-.17,.04-.21,.11-.58,.23-1.14,.47-1.69,.14-.32,.16-.67,.1-1.01-.02-.11-.15-.64-.36-.46h0Z"/><path class="cls-4" d="M317.33,278.22c8.11,11.32,13.97,24.26,16.52,37.99,.14,.73,.49,.17,.42-.3-2.19-13.91-7.82-27.27-16.84-38.13-.13-.16-.17,.34-.1,.45h0Z"/><path class="cls-4" d="M740.79,417.13c-.23-2.04,3.23-2.73,4.68-2.93,2.84-.4,5.67-.84,8.51-1.28,5.51-.85,11.03-1.65,16.55-2.4,11.13-1.52,22.29-2.91,33.46-4.11,22.35-2.41,44.78-4.07,67.25-4.99,12.62-.52,25.27-.6,37.88-1.36,.32-.02,.29-1.28-.03-1.29-11.71-.62-23.49-.23-35.2,.22s-23.28,1.09-34.9,1.93c-23.32,1.7-46.6,4.16-69.73,7.56-6.5,.96-12.99,1.98-19.46,3.06-3.07,.51-10.12,1.09-9.2,5.85,.07,.38,.21-.1,.19-.25h0Z"/><path class="cls-4" d="M889.38,319.13c-8.08,12.21-14.45,25.49-18.96,39.41-4.53,13.98-7.22,28.55-7.86,43.24-.36,8.19-.13,16.4,.78,24.55,.08,.7,.43,.15,.39-.28-2.72-28.92,2.15-58.33,14.09-84.81,3.36-7.45,7.28-14.63,11.71-21.49,.1-.15-.01-.82-.15-.61h0Z"/><path class="cls-4" d="M876.95,315.65c-9.13,9.73-14.13,22.27-17.78,34.91-4.16,14.39-7.16,29.14-9.14,43.98-1.15,8.63-1.95,17.3-2.38,25.99-.02,.44,.37,.97,.41,.27,1-15.12,3-30.16,5.97-45.02,2.72-13.62,5.97-27.43,11.4-40.26,2.95-6.97,6.75-13.67,11.59-19.51,.06-.08,0-.42-.07-.35h0Z"/><path class="cls-4" d="M1040.08,344.75c-1.58-.42-2.82-.58-4.45-.33-1.47,.23-2.93,.5-4.39,.81-2.86,.61-5.64,1.45-8.39,2.45-5.46,1.99-10.76,4.53-15.64,7.7-.23,.15-.12,1.19,.13,1.06,5.18-2.78,10.56-5.13,16.21-6.8,2.7-.8,5.45-1.48,8.2-2.07,1.46-.31,2.92-.59,4.39-.82s2.63-.77,3.99-1.43c.12-.06,.09-.54-.04-.57h0Z"/><path class="cls-4" d="M1058.86,352.03c-.59-2.08-2.38-2.71-4.39-2.68-2.92,.04-5.91,1.01-8.72,1.7-6.41,1.59-12.65,3.72-18.78,6.17-.41,.16-.21,1.64,.04,1.55,5.79-2,11.69-3.65,17.63-5.14,2.86-.72,5.74-1.4,8.63-1.97,1.59-.32,4.49-.6,5.41,1.13,.16,.3,.21-.65,.18-.77h0Z"/><path class="cls-4" d="M1121.94,360.05c0,.98,1.21,.62,1.27-.22,.18-2.52-3.17-1.67-4.57-1.34-6.4,1.5-12.72,3.26-19.05,5.03-.41,.12-.27,1.68,.04,1.62,4.38-.91,8.82-1.69,13.17-2.74,2.12-.51,4.24-1.06,6.35-1.6,.9-.22,1.76-.7,2.67-.84,.32-.05,.73-.08,1,.13-.1-.23-.22-.25-.34-.06-.17,.15-.31,.14-.42-.02-.03-.18-.11-.09-.11,.05h0Z"/><path class="cls-4" d="M1139.24,361.05c-3.76-.68-7.87-.17-11.63,.43s-7.68,1.48-11.46,2.55c-.26,.07-.18,1.07,.03,1.03,3.8-.66,7.64-1.18,11.48-1.55s7.86-.49,11.61-1.43c.24-.06,.22-.99-.03-1.03h0Z"/><path class="cls-4" d="M893.87,481.04c2.3,.92,4.76,1.22,7.2,1.63s4.92,.71,7.39,.99c5.01,.56,10.03,.98,15.06,1.26,10.06,.55,20.15,.54,30.21-.04,20.03-1.15,39.94-4.52,59.23-10.05,10.95-3.14,21.68-7,32.15-11.5,.67-.29,.39-3.18-.34-2.86-18.41,8.08-37.78,14.02-57.54,17.74-19.65,3.7-39.72,5.24-59.71,4.53-5.56-.2-11.11-.57-16.64-1.11-2.84-.28-5.67-.66-8.51-.96s-5.66-.9-8.46-.71c-.28,.02-.25,.99-.03,1.08h0Z"/><path class="cls-4" d="M1020.05,459.3c2.68,1.55,5.97,1.79,9,2.19s6.17,.67,9.27,.78c6.27,.22,12.55-.08,18.77-.91s12.18-2.18,18.08-4.02,11.32-4.02,17.04-5.88c3.25-1.06,6.55-2,9.91-2.66,1.6-.31,3.2-.59,4.82-.79s3.44-.05,4.98-.8c.44-.22,.37-2.04-.06-2.24-.73-.35-1.1-.49-1.9-.48-.74,.01-1.48,.05-2.22,.11-1.47,.11-2.94,.28-4.4,.53-2.93,.51-5.81,1.31-8.65,2.19-5.83,1.82-11.48,4.14-17.25,6.13-11.77,4.06-24.17,6.23-36.63,6.3-3.4,.02-6.81-.12-10.2-.36-1.69-.12-3.39-.28-5.07-.48-1.85-.22-3.63-.54-5.48-.18-.14,.03-.11,.51-.01,.57h0Z"/><path class="cls-4" d="M1053.25,421.13c1.45,.02,2.87,.09,4.3-.16,1.59-.27,3.18-.53,4.78-.78,2.87-.44,5.76-.8,8.64-1.15,5.95-.73,11.9-1.31,17.88-1.63s11.97-.41,17.96-.28c6.17,.14,12.33,.6,18.51,.57,10.67-.05,21.04-2.25,30.89-6.35,9.49-3.95,18.29-9.37,26.53-15.48,4.65-3.45,9.25-7.07,13.53-10.98,1.86-1.69,3.17-3.73,2.88-6.34-.21-1.92-1.64-4.49-3.81-3.07-.27,.18-.28,1.72,.11,1.71,.98-.02,2.07,.66,2.59,1.49,.63,.99-.68,2.22-1.37,2.92-1.67,1.69-3.6,3.18-5.43,4.7-3.8,3.15-7.69,6.18-11.72,9.03-8,5.66-16.55,10.67-25.7,14.25s-19.22,5.54-29.32,5.58c-5.76,.02-11.52-.36-17.28-.47s-11.17-.02-16.74,.27c-6.3,.32-12.59,.9-18.85,1.73-3.13,.41-6.25,.97-9.36,1.55-1.59,.3-3.19,.62-4.78,.95-1.51,.31-2.88,.95-4.28,1.57-.07,.03-.07,.38,.03,.38h0Z"/><path class="cls-4" d="M1055.87,420.2c1.48,.46,3.06,.55,4.58,.95,1.78,.47,3.44,1.29,5.02,2.22,3.06,1.81,5.88,4.03,8.78,6.08,5.72,4.05,11.32,8.43,17.38,11.97,5.26,3.07,11.66,5.64,17.86,4.54,5.78-1.03,10.58-5.14,13.4-10.16,1.65-2.93,2.67-6.18,3.09-9.5,.25-1.96,.32-3.93,.2-5.9-.09-1.4,.06-4.58-1.5-5.1-.4-.13-.61,1.01-.64,1.17-.48,2.83,.36,5.55-.04,8.4s-1.42,5.83-2.92,8.42c-2.92,5.03-7.89,9.12-13.75,9.98-6.17,.91-11.93-1.84-17.05-5-5.6-3.45-10.89-7.46-16.27-11.24-2.98-2.09-5.92-4.33-9.16-6-2.58-1.33-6.25-2.9-8.99-1.26-.09,.05-.07,.41,.03,.44h0Z"/><path class="cls-4" d="M1071.76,419.57c.76,.75,1.8,1.14,2.73,1.66s1.78,.97,2.65,1.49c1.75,1.05,3.44,2.21,5.12,3.37,3.3,2.28,6.61,4.64,10.35,6.16,3.51,1.43,7.26,1.99,10.98,1.15s6.77-2.7,9.38-5.24c2.89-2.81,5.64-7.32,4.89-11.51-.06-.31-.17-.81-.52-.91-.04-.01-2.2,5.18-2.52,5.73-.95,1.65-2.11,3.15-3.52,4.42-2.57,2.3-5.74,3.95-9.15,4.56-7.37,1.32-13.84-2.9-19.74-6.72-1.69-1.09-3.38-2.19-5.14-3.17-.92-.51-1.85-1.03-2.83-1.41-.83-.32-1.78-.83-2.67-.61-.28,.07-.17,.87-.02,1.02h0Z"/><path class="cls-4" d="M757.36,448.6c1.36-.02,2.55,.7,3.22,1.89,.74,1.31-.07,2.57-1.02,3.54-2.11,2.16-5.23,2.64-8.11,2.77-7,.3-14.03,.21-21.04,.37-.88,.02-.48,2.61-.07,2.98,2.76,2.52,4.28,6.15,4.23,9.88s-1.7,7.53-3.91,10.61c-1.16,1.61-2.5,3.09-3.95,4.45-1.26,1.18-3.17,2.22-3.99,3.77-.72,1.37-.62,3.44,.48,4.58,1.24,1.3,3.02,.92,4.46,.19,1.97-1.01,3.82-2.27,5.75-3.36s3.74-2.08,5.62-3.1c3.9-2.12,7.86-4.09,11.83-6.06,7.8-3.87,15.91-6.97,24.46-8.71,7.77-1.58,18-2.49,22.72-9.76,.26-.4,.3-3.16-.47-2.71-3.08,1.82-6.05,3.75-9.47,4.93s-7.31,1.95-11.01,2.71c-8.27,1.69-16.12,4.37-23.74,8.01-7.97,3.8-15.28,8.73-22.85,13.25-1.61,.96-4.09,3.1-6.1,2.37-.15-.05-.29-.14-.42-.22-.24-.16-.46-.65-.43-.1s.11,.02,.32-.13c.19-.14,.36-.34,.54-.48,.75-.63,1.51-1.24,2.24-1.9,2.81-2.57,5.29-5.6,6.91-9.07,3.28-7.02,2.94-16.52-3.01-22.06l-.07,2.98c4.57-.03,9.13-.12,13.7-.19,4.03-.06,8.6,.43,12.45-.97,2.97-1.08,5.2-3.63,5.41-6.84,.18-2.84-1.44-6.5-4.74-6.37-.73,.03-.67,2.79,.07,2.78h0Z"/><path class="cls-4" d="M622.58,436.4c.9,.89,1.8,1.79,2.7,2.68l.04-2.3c-8.2,2.11-16.49,3.84-24.89,4.97-.63,.09-.53,2.34-.05,2.59,15.71,8.03,31.45,16.02,47.07,24.23,2,1.05,3.99,2.1,5.99,3.15,1.58,.83,3.21,1.74,4.99,2.04s3.12-.26,4.56-1.25c.55-.37,1.02-.62,1.46-1.13,.52-.61,1-1.25,1.52-1.87,4.35-5.18,8.97-9.98,14.64-13.72,3.23-2.14,6.69-3.95,10.3-5.35,1.74-.68,3.51-1.23,5.29-1.76,.91-.27,1.91-.48,2.8-.83,.52-.21,.9-.57,1.34-.9,.52-.38,1.07-.58,1.66-.81,.88-.35,.92-4.08-.1-4.14-.9-.05-1.63-.19-2.48-.43-.8-.22-1.65,.07-2.45,.24-1.69,.36-3.34,.93-4.96,1.52-3.17,1.17-6.24,2.61-9.16,4.31-5.8,3.38-11.25,7.8-15.32,13.18-1.1,1.46-2.1,2.95-3.02,4.53-.85,1.46-1.58,3.32-3.07,4.23-1.66,1.02-3.65,.6-5.36-.08-1.89-.75-3.7-1.75-5.52-2.65-7.87-3.86-15.74-7.74-23.57-11.7-8.81-4.45-17.62-8.9-26.44-13.36l-.05,2.59c8.4-1.17,16.74-2.86,24.88-5.26,.61-.18,.4-1.96,.04-2.3-.9-.85-1.81-1.7-2.71-2.55-.24-.23-.56,1.7-.13,2.12h0Z"/><path class="cls-4" d="M526.96,433.08c-1.88,2.28-3.56,4.69-5.56,6.86-2.18,2.38-4.47,4.67-6.68,7.03-4.73,5.04-9.46,10.09-14.19,15.13-8.65,9.2-17.06,18.79-26.78,26.89-2.61,2.18-5.33,4.24-8.16,6.12-1.42,.95-2.98,2.14-4.69,2.46-1.08,.2-3.34-.1-3.73-1.41-.29-.98-.77-.06-.75,.51,.14,2.73,2.19,4.51,4.94,3.76,1.27-.35,2.39-1.07,3.49-1.78,1.49-.97,2.95-1.99,4.38-3.05,5.31-3.94,10.18-8.45,14.83-13.15,10.04-10.14,19.55-20.83,29.27-31.28,2.66-2.86,5.35-5.7,7.89-8.67s4.63-5.7,5.79-9.27c0-.02,0-.19-.03-.16h0Z"/><path class="cls-4" d="M457.51,497.11c.05-1.05-.26-1.67-.62-2.66-.4-1.13-.66-2.3-.8-3.49-.27-2.39-.06-4.83,.31-7.2,.8-5.12,2.29-10.15,3.49-15.19,1.27-5.38,2.48-10.78,3.61-16.19,.58-2.78,1.15-5.57,1.69-8.37,.51-2.64,1.1-5.29,1.3-7.98,.3-4.16-.32-10.8-5.35-11.77-.59-.11-.34,1.56-.06,1.78,1.52,1.24,3.05,3.22,3.72,5.08,.86,2.39,.5,5.03,.07,7.47-.91,5.13-1.98,10.23-3.06,15.32s-2.22,10.19-3.43,15.26c-1.1,4.63-2.44,9.23-3.16,13.94s-.65,9.6,1.47,13.95c.06,.13,.19,.29,.36,.3,.2,0,.22,0,.39-.09,.05-.02,.07-.11,.07-.16h0Z"/><path class="cls-4" d="M363.29,322.88c.39-1.6,3.16-1.23,4.1-.48,1.79,1.43,1.3,4.58,1.55,6.6,.53,4.24,2.82,8.03,5.47,11.28,3.18,3.89,6.89,7.36,10.42,10.93,3.82,3.87,7.66,7.72,11.52,11.56,15.52,15.48,31.32,30.68,47.32,45.67,4.44,4.16,8.99,8.21,13.33,12.47,3.37,3.31,7,7.38,7.41,12.33,.09,1.13,1.18,1.73,1.43,.29,.84-4.84-1.68-8.96-4.9-12.36-1.7-1.8-3.6-3.37-5.42-5.03-2.16-1.96-4.31-3.94-6.45-5.91-8.59-7.89-17.1-15.87-25.54-23.91s-16.83-16.15-25.17-24.3c-4.17-4.08-8.32-8.18-12.45-12.29-3.76-3.74-7.74-7.37-11.1-11.49-1.72-2.11-3.29-4.44-4.19-7.03s-.64-5.07-1.29-7.58c-.48-1.87-1.61-3.5-3.69-3.56-1.63-.05-2.72,.98-2.67,2.62,0,.23,.25,.59,.35,.19h0Z"/><path class="cls-4" d="M508.75,377.37c23.96,7.63,49.97,3.65,74.32,.25,24.61-3.44,49.17-7.24,73.61-11.75,24.53-4.53,48.92-9.81,73.05-16.15,23.95-6.29,47.63-13.62,70.82-22.31,11.67-4.37,23.18-9.14,34.59-14.17,11.01-4.86,22.17-9.78,34.07-12,2.97-.56,5.93-1.24,8.9-1.78,.48-.09,.43-2.11-.05-2.13-11.96-.7-23.84,4.22-34.66,8.81-11.43,4.84-22.71,9.97-34.26,14.5-23.05,9.05-46.64,16.7-70.51,23.27-24.05,6.62-48.39,12.11-72.86,16.9s-48.95,8.82-73.55,12.45-49.85,8.46-74.49,4.06c-3.03-.54-6.04-1.13-9.02-1.9-.34-.09-.49,1.77,.05,1.94h0Z"/><path class="cls-4" d="M561.71,375.92c-.43,.19-.51-.42-.78-.48l.16,1.24c.15-.14,.32-.27,.5-.38,.68-.43,1.46-.73,2.19-1.07,1.76-.84,3.53-1.67,5.29-2.53,3.38-1.65,6.69-3.49,9.82-5.59,5.52-3.7,10.54-8.52,13.44-14.58,.64-1.34,1.11-2.74,1.65-4.12,.58-1.49,1.49-2.89,3.28-2.82,1.69,.07,3.29,1.29,4.65,2.19,1.55,1.02,3.03,2.13,4.52,3.25,2.84,2.12,5.69,4.29,8.9,5.83,2.68,1.29,5.57,2.11,8.45,2.83,3.33,.83,6.72,1.51,9.96,2.68,1.52,.55,3,1.22,4.38,2.06,1.29,.79,2.37,2.08,3.78,2.57,.77,.27,.43-1.89,.28-2.19-1.46-2.86-4.81-4.46-7.7-5.57s-6.2-1.87-9.35-2.63c-3.32-.8-6.66-1.65-9.74-3.16-3.52-1.72-6.6-4.17-9.73-6.5-1.6-1.19-3.21-2.36-4.92-3.39-1.4-.85-3.12-1.78-4.79-1.2-1.36,.48-2.12,1.76-2.66,3.02-.7,1.64-1.17,3.33-1.99,4.92-3.59,6.99-9.98,12.03-16.65,15.91-4,2.32-8.16,4.37-12.26,6.49-1.66,.86-2.77,1.87-2.43,3.92,.21,1.27,1.45,2.19,2.1,.64,.09-.21,.14-1.56-.33-1.34h0Z"/><path class="cls-4" d="M822.37,312.38c-1.06-.14-1.99-.39-3.06-.36s-2.09-.08-3.11-.32c-2.33-.56-3.95-1.78-5.59-3.45l-.11,4.2c10.82-4.05,19.96-11.44,26.47-20.96,6.75-9.87,10.84-21.32,14.38-32.65,1.99-6.39,3.82-12.82,5.44-19.31,.82-3.27,1.64-6.53,2.41-9.81,.29-1.24,.41-2.99,1.22-4.02,.87-1.11,2.22-.98,3.31-.28,2.51,1.6,3.77,4.92,5.17,7.41,1.71,3.04,3.42,6.08,5.13,9.12,3.34,5.93,6.67,11.87,10,17.8,3.74,6.66,7.51,13.31,11.25,19.97,2,3.55,3.76,7.17,5.49,10.86,1.89,4.03,3.61,8.22,5.89,12.04,.82,1.37,1.57-.32,1.76-1.1,.42-1.71,.35-3.74-.24-5.41-.12-.34-.24-.69-.36-1.03-.32-.93-.94-.91-1.25,.03-.12,.35-.23,.7-.35,1.05l1.67-.69c-3.02-5.7-7.44-10.57-10.6-16.19-3.42-6.08-6.83-12.18-10.25-18.26s-6.86-12.17-10.27-18.26c-1.71-3.04-3.41-6.09-5.12-9.13s-3.17-6.04-5.01-8.87c-1.08-1.65-3.22-4.15-5.48-3.35-2.48,.89-2.68,4.84-3.19,6.98-1.56,6.57-3.42,13.06-5.4,19.52-1.89,6.14-3.93,12.24-6.16,18.26-2.08,5.58-4.38,11.08-7.33,16.26-6.64,11.66-16.56,20.82-29.17,25.61-.59,.23-.62,1.77-.61,2.23,.02,.78,.16,1.63,.72,2.2,1.46,1.48,3.9,2.41,5.92,2.79,1.08,.21,2.19,.26,3.28,.16,1.39-.13,2.23-.8,3.27-1.71,.23-.21,.32-1.28-.1-1.33h0Z"/><path class="cls-4" d="M1045.11,381.97c-1.27-.33-2.19,1.54-2.6,2.46-.69,1.55-.82,3.3-.62,4.97,.18,1.52,.71,3.16,1.63,4.39,.82,1.1,1.9,1.65,3.24,1.82,.44,.06,.25-1.29,.04-1.46-.95-.8-1.8-1.81-2.5-2.84-.55-.8-1.08-1.6-1.27-2.57-.45-2.34,1.31-4.33,2.15-6.39,.04-.09,.05-.35-.07-.38h0Z"/><path class="cls-4" d="M1049.11,382.98c.94,1.57,1.87,3.33,1.81,5.21s-.86,3.63-2.14,5.07c-.18,.2-.19,1.47,.16,1.24,1.98-1.26,2.77-3.9,2.8-6.12,.01-1.23-.18-2.52-.64-3.66-.19-.46-.47-.9-.78-1.29-.15-.19-.32-.36-.49-.53-.24-.23-.36-.22-.66-.33-.15-.06-.09,.36-.06,.42h0Z"/><path class="cls-4" d="M1040.62,378.93c.26-.99-.13-2.04-1.13-2.37-.09,.02-.16,.07-.2,.15-1.14,1.42-1.93,3.37-2.65,5.04s-1.28,3.4-1.56,5.19c-.51,3.31-.19,6.91,1.41,9.9s4.59,4.77,7.92,5.23c3.96,.55,7.7-1.09,10.97-3.17,.3-.19,.25-1.69-.12-1.59-5.42,1.53-13.19,3.37-17.32-1.82-1.73-2.17-2.21-4.94-1.75-7.64,.28-1.64,.8-3.22,1.44-4.76s1.57-3.08,2.2-4.68l-.27,.33c.15-.02,.81-.02,.91,.18,.05,.1,.13,.13,.17,0h0Z"/><path class="cls-4" d="M1053.69,380.08c.41,1.22,1.06,2.33,1.48,3.55s.76,2.59,.87,3.93c.21,2.47-.32,4.91-1.4,7.13-2.03,4.2-6.02,7.52-10.41,9.01-.46,.16-.39,1.82,.04,1.75,5.46-.94,10.01-4.85,11.81-10.11,.95-2.78,1.21-5.8,.84-8.71-.18-1.45-.5-2.91-1.07-4.25-.41-.98-1-2.63-2.01-3.11-.28-.14-.19,.71-.15,.81h0Z"/><path class="cls-4" d="M1036.81,377.89c-2.48,1.34-3.16,4.27-3.27,6.89-.14,3.36,.5,6.79,1.37,10.02s2.39,6.67,5.57,8.08c3.63,1.62,6.88-.6,9.66-2.8,.35-.28,.25-1.94-.22-1.68-2.41,1.37-5.36,3.01-8.22,2.25s-4.79-3.5-5.72-6.22c-1.75-5.14-2.85-11.56,.9-16.07,.06-.08,.09-.58-.06-.5h0Z"/><path class="cls-4" d="M1036.27,376.78c2.3-.85,4.72-1.61,7.1-2.18s5.14-1.17,7.45-.1c4.77,2.22,4.25,8.13,3.75,12.44-.05,.42,.38,1.58,.54,.61,.8-4.82,1.43-11.19-3-14.57-2.33-1.78-5.15-1.3-7.78-.54-2.94,.85-5.56,2.05-8.11,3.76-.11,.07-.07,.61,.04,.57h0Z"/><path class="cls-4" d="M1079.55,418.83c.3,1.48,1.29,2.72,2.66,3.35,.61,.28,1.35,.52,2.03,.45,.34-.04,.67-.11,.99-.23,.16-.06,.37-.12,.51-.23,.18-.13,.31-.36,.43-.53l-.21,.08c.06,.02,.12,.05,.18,.09,.21,.14,.32-.23,.36-.36,.09-.35,.07-.72,0-1.08-.13-.7-.26-1.4-.4-2.1s-.25-1.34-.5-2c-.05-.14-.16-.3-.3-.15-.15,.15-.16,.52-.15,.71,.03,.44,.04,.88,.13,1.32,.07,.36,.15,.73,.22,1.09,.14,.71,.28,1.42,.43,2.12l.03-1.18c-.07,.19-.1,.38-.12,.58l.24-.54c-.15,.03-.29-.04-.44-.03s-.31,.09-.46,.12c-.29,.06-.59,.09-.88,.08-.62-.01-1.24-.05-1.82-.25s-1.14-.54-1.58-.96c-.2-.19-.37-.4-.51-.64-.07-.12-.13-.22-.16-.31-.03-.08-.06-.16-.09-.24-.02-.05-.02-.05,0,.01-.01-.05-.03-.1-.04-.15-.05-.21-.23-.66-.46-.33s-.16,.92-.09,1.29h0Z"/><path class="cls-4" d="M1088.05,421.03l.55,.17c.18,.05,.36,.03,.54,.02l1.13-.04,2.21-.08c.25,0,.3-.57,.3-.72,.04-.71,.08-1.42,.11-2.12,.02-.42,.04-.84,.03-1.27s-.01-.86-.17-1.26c-.02-.05-.12-.27-.21-.16-.25,.3-.25,.71-.29,1.08s-.06,.7-.07,1.06c-.02,.72-.04,1.45-.06,2.17l.3-.72-2.25,.28-1.08,.14c-.18,.02-.36,.03-.52,.1-.2,.09-.4,.19-.6,.29-.15,.07-.13,.48-.12,.61,.01,.15,.03,.42,.2,.47h0Z"/><path class="cls-4" d="M1103.01,417.16c-.5,1.83,.5,4,2.37,4.54,1.53,.44,2.86-.73,3.32-2.12,.19-.57,.25-1.19,.24-1.79s-.06-1.44-.53-1.89c-.18-.17-.33,.19-.36,.3-.11,.33-.13,.75-.07,1.09,.03,.21,.05,.43,.1,.64,0,.03,.01,.06,.02,.09,.04,.14-.03-.26-.02-.12,.03,.26,0-.25,0-.05,0,.21,.02-.29,0-.08-.02,.2,.05-.24,0-.04l-.04,.19s.06-.19,.02-.09c-.02,.04-.02,.08-.04,.12-.02,.06-.09,.23-.02,.08-.03,.06-.05,.12-.08,.18-.06,.13-.14,.24-.21,.36-.06,.08-.09,.12-.19,.23s-.21,.21-.33,.3c-.93,.72-2.19,.55-3.04-.22-.11-.1-.21-.2-.3-.33-.05-.06-.09-.13-.13-.2-.02-.03-.11-.2-.07-.11-.03-.07-.06-.15-.09-.22-.04-.08,0,.03,0,.04,0-.01-.07-.22-.02-.08,.03,.11,0,.02,0-.01,0-.04-.01-.09-.02-.13,0,0-.06-.38-.03-.18s-.01-.22,0,.09c-.01-.22-.02-.6-.2-.76-.15-.14-.27,.01-.32,.18h0Z"/><path class="cls-4" d="M1108.71,418.68v-.57c.06-.63,.05-.76-.02-.38-.02,.12-.03,.23-.03,.35,0,.24,.03,.46,.07,.69,.02,.09,.04,.18,.06,.28,0,.02,.03,.17,0,.04,.01,.06,.02,.12,.03,.18,.02,.11,.03,.21,.04,.32,0,.05,0,.09,.01,.14,0,.02,.01,.17,0,.04-.01-.14,0,.06,0,.09,0,.05,0,.09,0,.14,0,.25,.01,.49,.07,.74,.11,.47,.47,.75,.89,.96,.3,.15,.62,.26,.95,.3,.66,.07,1.35-.09,1.91-.46,.6-.4,.99-1.04,1.23-1.71,.36-1.03,.42-2.37-.13-3.34-.12-.21-.27-.09-.35,.08-.13,.29-.13,.68-.09,.99,.02,.14,.02,.19,0,.02,.01,.25,.02-.27,0-.04,0,.09,0,.08,0-.03,.02-.19,.01-.12-.03,.21,0,.07,0,.14,0,.21,0,.22,.05-.26,0-.03,0,.04-.07,.21-.01,.08,.08-.19-.13,.35-.04,.14-.21,.49-.51,.86-.99,1.15-.87,.53-2.15,.45-2.97-.14l.28,.76c-.06-.8-.22-1.58-.44-2.35-.08-.28-.3-.35-.42-.06-.16,.36-.14,.85-.05,1.22h0Z"/><path class="cls-4" d="M313.62,282.75c-5.39-4.4-9.74-9.95-12.56-16.32l-.15,2.97c7.82-2.29,16.22-1.25,23.94,.96s15.06,5.42,22.17,8.98c13.87,6.96,26.76,15.68,39.34,24.72s25.54,18.76,38.7,27.6,27.68,17.79,42.02,25.84,28.67,15.37,43.43,22.2c1.88,.87,3.77,1.73,5.66,2.59,.17,.08,.83-3.21-.09-3.62-15.09-6.8-29.92-14.2-44.42-22.19s-28.38-16.36-42.05-25.37-26.1-18.22-38.98-27.58-25.42-18.13-39.18-25.48c-6.78-3.61-13.78-6.85-21.01-9.45s-15.63-4.79-23.67-3.74c-2.02,.26-4.01,.73-5.94,1.38-.75,.25-.38,2.47-.15,2.97,2.88,6.24,7.24,11.71,12.82,15.75,.27,.2,.55-1.83,.11-2.19h0Z"/><path class="cls-4" d="M299.89,271.39c1.55,4.52,4.81,8.44,7.99,11.93,3.35,3.69,7.03,7.06,10.3,10.82,6.7,7.72,11.91,16.78,15.29,26.43,1.88,5.35,3.21,10.92,3.83,16.56,.02,.2,.18,1.42,.61,1.34,3.06-.63,5.99-1.5,8.78-2.93s5.27-3.37,7.7-5.39,5.09-3.98,8.3-4.06c1.42-.04,2.7,.33,3.79,1.24,.41,.34,.9,.69,1.17,1.15,.09,.16,.14,.31,.21,.47l-.03-.38c-.05,.27-.13,.53-.23,.79-.08,.24-.02,2.37,.41,1.99,1.11-.98,1.15-2.73,1.03-4.09-.14-1.72-.65-3.61-1.74-4.98-2.3-2.88-6.8-2.01-9.52-.32-3.41,2.11-5.79,5.55-9.06,7.87s-6.99,4.11-10.87,4.97l.61,1.34c-1.34-10.2-4.31-20.09-9.17-29.18-2.42-4.53-5.28-8.82-8.52-12.81s-6.95-7.56-10.62-11.16c-1.93-1.89-3.83-3.83-5.55-5.92s-3.06-4.48-4.53-6.8c-.07-.11-.2,.95-.14,1.14h0Z"/><path class="cls-4" d="M460.47,498.69c2.77-.97,5.21-3.18,7.56-4.91,2.52-1.85,5.02-3.73,7.48-5.65,5.01-3.89,9.87-7.99,14.61-12.2,9.42-8.36,18.35-17.17,26.74-26.55,2.15-2.4,4.21-4.88,6.35-7.29,.95-1.08,1.9-2.16,2.84-3.24,.32-.37,.94-1.43,1.45-1.57,.19-.05,.6,.12,.85,.07,.33-.06,.73-.24,.99-.46,1.07-.89,1.21-2.37,1.37-3.65s.21-2.63-.29-3.82c-.12-.29-.29-.6-.55-.8-1.5-1.15-2.2,.73-2.52,1.51-.51,1.23-.7,2.49-1.53,3.57-1.94,2.53-3.92,5.02-5.99,7.45-8.36,9.79-17.22,19.23-26.54,28.11-5.16,4.92-10.49,9.63-15.9,14.28-2.71,2.33-5.46,4.63-8.25,6.88s-6.26,4.5-8.75,7.32c-.1,.12-.17,1.03,.07,.95h0Z"/><path class="cls-4" d="M1022.71,473.02c16.83,2.82,32.68,9.24,47.76,17.08s29.8,17.14,44.83,25.49c8.68,4.82,17.74,10.11,27.88,10.69,1.18,.07,1.25-2.28,1.11-2.92-1.16-5.48-4.86-9.57-8.37-13.73-3.97-4.71-7.97-9.41-11.94-14.13-8.11-9.63-16.3-19.19-24.37-28.86-2.26-2.7-4.5-5.41-6.75-8.12s-4.9-5.52-6.7-8.71c-1.05-1.87-2.47-.76-2.91,.82-.47,1.7-.34,4.36,1.25,5.43,2.38,1.6,4.14,4.16,6.02,6.32l5.85,6.71c3.96,4.55,7.91,9.11,11.83,13.7,7.86,9.21,15.72,18.43,23.61,27.62,2.04,2.37,4.12,4.72,6.1,7.14,1.7,2.08,3.42,4.4,4.05,7.06l1.11-2.92c-9.05-.37-17.37-4.67-25.27-8.71-7.56-3.86-15.01-7.97-22.37-12.2-14.75-8.46-29.59-16.98-45.51-23.07-8.81-3.37-17.89-5.93-27.26-7.16-.8-.11-.83,2.31,.06,2.46h0Z"/><path class="cls-4" d="M446.54,374.67c11.64,12.43,27.29,21.14,44.07,24.23,4.79,.88,9.65,1.33,14.51,1.36,.23,0,.22-.9-.02-.91-16.89-.58-33.8-6.24-47.58-16.03-3.86-2.75-7.56-5.66-10.96-8.96-.05-.04-.09,.25-.02,.31h0Z"/><path class="cls-4" d="M513.24,405.9c48.94-8.14,97.76-16.95,146.62-25.49,48.9-8.55,97.83-16.92,146.8-25.1,27.56-4.61,55.23-8.79,82.69-13.98,.31-.06,.22-1.26-.03-1.23-24.69,3.39-49.27,7.76-73.85,11.86-24.36,4.07-48.71,8.18-73.06,12.34-48.94,8.36-97.86,16.81-146.71,25.68-27.53,5-55.03,10.08-82.47,15.54-.11,.02-.08,.4,0,.39h0Z"/><path class="cls-4" d="M805.02,345.14c-4.57,9.3-7.51,19.51-9.38,29.69s-2.52,21.03-1.79,31.54c.4,5.86,1.17,11.7,2.43,17.44,.14,.64,.43-.13,.37-.43-3.72-20.25-2.92-41.11,2.85-60.91,1.61-5.54,3.66-10.93,5.84-16.27,.1-.25-.12-1.45-.31-1.06h0Z"/><path class="cls-4" d="M676.66,383.66c8.65-2.67,17.32-5.28,26.12-7.44s17.59-4.19,26.61-5.1,17.85-.86,26.66,.71,16.78,4.51,24.43,8.66c8.23,4.46,15.79,10.11,23.08,15.95,.18,.14,.3-.92,.08-1.12-12.42-11.34-27.2-20.5-43.81-24.02-17.67-3.75-36.06-1.43-53.43,2.75-10.08,2.43-19.95,5.89-29.75,9.23-.1,.04-.06,.41,0,.39h0Z"/><path class="cls-4" d="M827.74,418.67c1.73-.32,3.38-.64,5.15-.62,1.93,.02,3.82,.41,5.66,.95,3.74,1.1,7.33,2.72,11.01,4,7.4,2.56,14.98,4.49,22.7,5.79,15.55,2.63,31.52,2.79,47.12,.48,8.77-1.3,17.58-3.3,25.76-6.78,.27-.12,.18-1.22-.03-1.16-7.61,1.93-15.17,3.93-22.92,5.23s-15.66,1.99-23.54,2.06c-15.77,.14-31.54-2.22-46.59-6.91-4.22-1.31-8.29-3.04-12.5-4.35-3.8-1.18-8.56-2.19-11.85,.68-.08,.07-.1,.66,.04,.63h0Z"/><path class="cls-4" d="M338.82,297.05c.74,1.74,1.46,3.5,2.28,5.21,.39,.81,.75,1.63,1.16,2.43,.38,.73,.73,1.53,1.25,2.17,.21,.26,.25-.48,.21-.58-.57-1.73-1.51-3.34-2.36-4.95-.78-1.49-1.66-2.93-2.51-4.38-.02-.04-.04,.08-.03,.1h0Z"/><path class="cls-4" d="M340.89,291.58c22.15,13.69,43.2,29.23,62.36,46.89,9.55,8.8,18.37,18.29,27.55,27.46s18.43,17.54,29.48,23.8c12.06,6.83,26.13,10.76,40.01,8.54,.34-.05,.26-1.2-.03-1.16-25.88,3.5-48.87-12.85-66.48-29.89-9.18-8.88-17.82-18.29-27.14-27.03s-19.38-17.21-29.71-25.02c-11.49-8.69-23.49-16.62-36.03-23.72-.03-.02-.04,.11-.01,.13h0Z"/><path class="cls-4" d="M914.62,439c.49,4.8-1.22,9.62-5.18,12.54s-9.16,4.18-13.03,7.5c-.28,.24-.14,1.64,.17,1.43,4.68-3.1,10.87-3.36,14.81-7.67,3.29-3.6,5.13-9.4,3.41-14.12-.11-.3-.19,.23-.18,.32h0Z"/><path class="cls-4" d="M795.28,463.57c-.24-.18-.47-.38-.71-.55-.08-.06-.1,.17-.1,.21,0,.12,0,.26,.07,.36,.22,.29,.46,.57,.69,.86,.04,.05,.09-.02,.1-.05,.04-.08,.05-.19,.06-.27,0-.12,0-.24-.02-.35-.01-.07-.03-.16-.09-.21h0Z"/><path class="cls-4" d="M598.34,446.11c2.3,1.13,4.55,2.32,6.92,3.29,2.24,.91,4.47,1.84,6.69,2.8,4.5,1.93,8.99,3.89,13.43,5.94,8.88,4.08,17.6,8.53,26.12,13.32,1.22,.68,2.43,1.38,3.64,2.07,.76,.44,2.14,1.67,3.08,1.29,1.08-.43,1.9-3.86,.47-4.16-.51-.11-.22,1.62-.12,1.81l.15,.29-.21-.95v.23l.2-1.08c-.17,.34-10.02-5.37-10.99-5.9-3.88-2.12-7.8-4.18-11.75-6.15-7.83-3.92-15.79-7.61-23.93-10.83-2.23-.88-4.46-1.74-6.71-2.57s-4.58-1.38-6.92-1.94c-.52-.13-.57,2.29-.06,2.54h0Z"/><path class="cls-4" d="M1044.84,385.36c.12,.01,.28,.01,.4,.06,.17,.07,.3,.25,.46,.34,.27,.15,.49,.34,.79,.39,.58,.1,1.1,.23,1.62,.51,.9,.49,1.73,1.37,2,2.22,.03,.12,.03,.11,0-.03l.02,.16c-.01-.21-.01-.21,0,0v-.16c-.02,.2-.02,.21,0,.04l-.03,.16c-.05,.28,.02,0-.06,.25-.19,.6-.46,1.16-.79,1.7-.39,.64-.78,1.29-1.2,1.91-.21,.31-.4,.62-.59,.93-.28,.47-.41,.88-.58,1.4-.1,.32-.2,1.3,.24,1.43,.21,.07,.27,.17,.5,.1,.16-.05,.36-.22,.5-.32,.31-.22,.56-.5,.82-.78,.57-.62,1.03-1.29,1.4-2.05,.95-1.94,1.29-4.12,.87-6.26-.3-1.53-1.08-2.96-2.57-3.59-.62-.26-1.27-.41-1.94-.39-.45,.01-.59,.13-.92,.42-.22,.19-.26,.27-.42,.51-.13,.2-.39,.37-.56,.54-.07,.07-.11,.49,.04,.51h0Z"/><path class="cls-4" d="M1049.42,379.26c2.32-.28,4.59,1.12,5.74,3.1,1.45,2.5,.34,5.5-.55,8-.77,2.17-1.75,4.3-3.06,6.19-.7,1.01-1.48,1.96-2.34,2.84-.93,.95-2,1.72-2.94,2.65-.24,.23-.37,1.68,.12,1.71,1.2,.08,2.69-.78,3.59-1.51,1.13-.92,2-2.06,2.77-3.29,1.65-2.64,2.86-5.7,3.63-8.72s1.12-6.98-.44-9.97c-1.25-2.41-3.87-4.18-6.58-3.14-.49,.19-.44,2.19,.05,2.13h0Z"/><path class="cls-4" d="M595.54,345.13c1.68,.35,3.01,1.44,4.31,2.5,1.43,1.17,2.87,2.32,4.35,3.41,2.75,2.02,5.61,3.88,8.58,5.54,5.93,3.32,12.24,5.96,18.76,7.87,1.56,.46,3.14,.87,4.72,1.25,1.2,.28,3.45,1.36,4.06-.21,.2-.5,.15-1.06-.04-1.55-.33-.86-.78-1.05-1.62-1.24-1.66-.37-3.32-.74-4.96-1.18-6.63-1.78-13.05-4.35-19.1-7.6-3.35-1.8-6.62-3.81-9.74-5.99-1.61-1.13-3.17-2.32-4.71-3.54-1.44-1.14-2.87-2.15-4.7-2.49-.86-.16-.99,3.01,.08,3.23h0Z"/></g></svg>