<?xml version="1.0" encoding="UTF-8"?><svg id="Layer_1" xmlns="http://www.w3.org/2000/svg" viewBox="0 0 1500 750"><defs><style>.cls-1{fill:#c3917c;}.cls-2{fill:#a36f5b;}.cls-3{fill:#efccbf;}.cls-4{fill:#231f20;}</style></defs><g><path class="cls-1" d="M878.27,348.58h0c-.51-.32,111.09-30.4,111.09-30.4,0,0-5.92,12.81-4.89,28.7s-.37,28.64-.37,28.64c0,0,86.31-4.38,123.97-23.11,37.63-18.72,78.15-38.07,89.84-68.44-.32,1.67-10.56,55.5-23.14,76.73-12.77,21.58-55.31,77.08-64.18,81.9-8.87,4.83-5.27,11.26-6.59,23.47-1.11,10.35,.79,13.15,1.41,13.77-3.32-2.47-51.42-38.49-67.26-51.07-16.4-13.03-127.76-7.53-143.88-3.86-16.13,3.66-38.91,21.5-47.92,29.93-9.01,8.44-38.52-23.71-74.5-15.59-4.92,1.11-72.32,9.43-94.9,9.05-22.59-.37-160.14,12.75-183.12-13.16-2.5-2.81-52.43,4.19-70.06,.53-17.64-3.65-65.98-7.31-110.63-34.24-4.37-2.63-15.36-8.85-12.75-12.8,2.62-3.94,7.41-14.51,15.82-15.93s78.15-18.97,78.15-18.97c21.42-10.11,183.5-41.8,236.06-42.72,52.55-.92,113.04,4.17,113.04,4.17l116.83-55.13s-7.59,25.99-16.26,33.11c-8.67,7.12-3.57,37.42,7.46,46.05,0,0,26.43,9.34,26.76,9.34Z"/><path class="cls-1" d="M1019.23,482.87s-6.84-11.49-16.26-38.19c-9.43-26.69,11.98-32.69,15.96-34.81,0,0-128.47-.15-129.93,4.8-1.46,4.95,12.02,1.84,31.22,13.45,19.2,11.61,81.9,59.38,85.12,60.52,3.22,1.13,0,0,2.79-1.59,2.79-1.59,8.27,2.58,11.39,2.59,3.11,0-.28-6.77-.28-6.77Z"/><path class="cls-1" d="M763.1,414.67c-.17,.26,.12,.41,.81,.49-.39-.51-.66-.7-.81-.49Z"/><path class="cls-1" d="M889,400.75c-7.14-2.91-114.45,15.62-125.09,14.41,4.08,5.31,21.7,45.9,54.8,46.24,36.29,.38,12.96-4.89,41.6-25.71,28.64-20.82,36.29-31.84,28.7-34.94Z"/><path class="cls-3" d="M304.78,389.5c7.87,4.35,15.92,8.62,24.26,12,4.1,1.66,8.24,3.24,12.35,4.9,2.07,.84,4.2,1.58,6.25,2.48s4.21,2.02,6.31,3.03,4.19,2.11,6.35,3.01,4.39,1.51,6.59,2.2c4.2,1.31,8.55,2.29,12.84,3.25,8.57,1.93,17.28,3.37,25.99,4.5,9.93,1.29,19.91,2.09,29.92,2.41l-.34-9.09c-.33,1.48-1.2,5.09-3.48,3.9,.1,.05-.16,1.76,.05,2.04,.37,.49,.75,.72,1.25,1.05,1.01,.67,1.58,1.14,2.52,2.1,.11,.11,.29-1.64,.27-1.36,.08-1.08,.08-2.19,.05-3.28-.01-.42,0-4.6-.54-4.62-17.66-.56-35.26-2.62-52.57-6.16-4.37-.89-8.74-1.81-13.08-2.84s-8.43-2.13-12.71-2.48-8.45-.99-12.53-2.16c-4.18-1.2-8.32-2.56-12.38-4.12-9.2-3.55-18.41-7.09-27.38-11.19,.04,.02-.06,.4,.01,.44h0Z"/><path class="cls-3" d="M306.89,390.18c.36-.52-.75-1.17-.73-.06s.89,1.66,1.74,2.29c1.56,1.15,3.15,2.25,4.78,3.29,3.28,2.1,6.57,4.17,9.97,6.07s6.76,3.86,10.39,5.28c6.93,2.71,14.21,4.42,21.44,6.08,7.74,1.77,15.51,3.4,23.3,4.95,16.11,3.21,32.28,6.09,48.51,8.63,16.15,2.53,32.35,4.72,48.59,6.57s32.52,3.37,48.82,4.55c2.04,.15,4.08,.29,6.11,.43,.26,.02,.73-8.6-.23-9.26-.47-.32-.6-.44-1.14-.45-.37,0-.77,.08-1.13,.11-.75,.07-1.51,.1-2.26,.14-.23,.01-.15,2.99,.04,3.26,.9,1.26,1.81,2.52,2.69,3.8,.64,.92,1.11,1.76,2.04,2.4l-.23-9.26c-30.66-2.07-61.23-5.32-91.64-9.76-15.2-2.22-30.36-4.74-45.47-7.55s-29.19-5.54-43.63-8.97c-7.41-1.76-14.74-4.16-22.26-5.4-3.55-.58-7.07-1.76-10.48-2.9-1.73-.58-3.39-1.32-5.05-2.08-.89-.41-1.78-.82-2.65-1.25-.7-.34-1.76-.67-2.24-1.3l.05,.41c-.02-.64,.74-.27,.64-.16-.02,.03,.02,.09,0,.11h0Z"/><path class="cls-3" d="M324.27,401.57c2.88,2.22,6.12,4.03,9.26,5.87s5.99,3.88,9.07,5.7,6.17,3.69,9.44,5.11,6.32,2.61,9.58,3.71c12.69,4.28,25.79,7.25,39.05,9.07,3.72,.51,7.45,.93,11.2,1.25,1.95,.17,3.89,.31,5.84,.43,.9,.05,1.8,.1,2.7,.14,1.24,.06,2.07,.18,3.14-.52,.28-.18,.26-.87,.29-1.18,.1-1.11,.08-2.24,.04-3.35-.03-.86-.06-1.75-.23-2.6-.04-.2-.12-1.11-.4-.7-.53,.76-.93,1.4-1.7,1.95-.22,.16-.11,1.44,.02,1.65,.75,1.33,1.29,2.68,1.88,4.08l-.07-7.83c-.95-.66-1.59-.7-2.72-.75-.75-.03-1.5-.07-2.25-.11-1.8-.1-3.6-.22-5.4-.36-3.29-.26-6.58-.59-9.86-1-6.71-.83-13.38-1.97-19.98-3.4s-13.14-3.15-19.6-5.09-12.31-3.9-18.6-5.45c-1.79-.44-3.57-.94-5.36-1.4-1.63-.42-3.3-.69-4.89-1.27-3.48-1.27-6.88-2.94-10.42-4.01,0,0,0,.04,0,.04h0Z"/><path class="cls-3" d="M345.5,403.77c-.84-1.09-1.58-2.3-2.27-3.49v.47c2.44,3.15,6.56,4.66,10.29,5.61,4.51,1.15,9.18,1.79,13.77,2.55,10.23,1.71,20.45,3.5,30.74,4.85,20.39,2.67,40.86,4.12,61.4,5.01,5.68,.25,11.35,.48,17.03,.7,2.88,.11,5.76,.22,8.64,.33,1.48,.06,2.96,.11,4.44,.17,1.25,.05,3.41,.53,4.43-.19,.22-.15,.21-1.16,.21-1.26,.06-1,.05-2.02,.03-3.02s-.06-2.02-.17-3.02c-.02-.14-.27-1.26-.27-1.25-.88,1.1-1.8,2.08-2.81,3.06-.19,.18-.13,1.67,.05,1.86,1.06,1.17,2.04,2.35,2.98,3.63l-.21-8.54c-.94-.7-2.55-.44-3.71-.48-1.32-.04-2.63-.09-3.95-.13-2.55-.09-5.1-.18-7.65-.27-5.1-.18-10.2-.37-15.3-.57-10.28-.4-20.55-.78-30.83-1.24-10.17-.45-20.34-.76-30.52-1.08-10.21-.33-20.46-.5-30.66-1.16-5.31-.34-10.66-.61-15.95-1.25-2.18-.26-4.39-.62-6.46-1.38s-3.82-1.95-5.51-3.39c.05,.04-.06,.38,.01,.47,.82,.98,1.6,2.04,2.27,3.13,0-.01,.02-.08,0-.11h0Z"/><path class="cls-3" d="M393.15,424.49c-1.69-.65-2.99-1.82-3.85-3.42l.02,1.39c3.94,.65,7.91,.99,11.88,1.49s7.76,.97,11.65,1.45,7.77,.72,11.66,1.17,7.94,.73,11.91,.94c15.54,.79,31.05,.82,46.59,0,8.74-.46,17.47-1.1,26.19-1.9l-.23-9.22c-28.56,5.01-57.52,10.25-86.64,7.98-8.12-.63-16.18-1.87-24.09-3.81l.23,9.26c.75-.08,1.71-.11,2.39-.47,.82-.43,1.65-1.35,2.25-2.03,.78-.88,1.31-1.94,2.06-2.83,.56-.66,1.28-1.2,1.85-1.85,.23-.27,.09-1.18,.08-1.51,0-.15-.2-1.47-.16-1.5-.47,.38-1.25,1.16-1.86,1.29-.65,.14-1.51-.27-2.14-.38-.69-.12-1.61-.35-2.31-.35-.77,0-1.62,.31-2.39,.39-.47,.05-.26,4.22-.25,4.64,.03,1.09,.07,2.19,.19,3.27,.02,.22,.04,1.29,.29,1.35,28.36,6.95,57.85,4.45,86.38-.02,8.14-1.28,16.25-2.71,24.35-4.19,.45-.08,.21-4.18,.19-4.62,0-.35-.12-4.63-.42-4.6-15.62,1.55-31.3,2.51-46.98,3.17-7.76,.33-15.52,.67-23.28,.89-3.8,.11-7.59,.23-11.38,.35-1.9,.06-3.79,.21-5.69,.28-2.06,.08-4.12-.02-6.18,.03-4.28,.12-8.56,.23-12.85,.21s-8.88-.27-13.33-.28c-.1,0-.06,1.3,.03,1.42,.96,1.24,2.28,1.92,3.84,2.07,0,0,0-.04,0-.04h0Z"/><path class="cls-3" d="M405.63,417.89c-.93-.36-1.86-.71-2.79-1.08,.08,.03-.15,1.18,.03,1.33,1.72,1.43,4.09,2.09,6.22,2.7s4.3,1.03,6.48,1.39c4.56,.75,9.12,1.24,13.73,1.62,9.45,.77,18.91,1.11,28.38,1.44,5.46,.19,10.92,.2,16.38,.34,.33,0,.21-4.22,.2-4.58-.01-.46,.11-4.46-.42-4.56-.69-.14-1.43-.32-2.13-.33-.88,0-1.34,.61-2.11,.96-1.23,.57-2.94,.55-4.28,.72-2.87,.36-5.76,.75-8.61,1.22-.09,.01-.04,1.45,.04,1.46,2.96,.3,5.81,.78,8.68,1.55,1.37,.37,2.85,.75,4.09,1.45,.79,.45,1.31,1.34,2.18,1.66,.71,.26,1.62,.32,2.37,.44l-.22-9.14c-9.51,.06-19.01,.07-28.51,.22-9.36,.15-18.72,.77-28.06,1.15-2.45,.1-4.91,.15-7.36-.02-1.17-.08-2.33-.21-3.49-.4s-2.36-.62-3.57-.62l.03,1.33c.92-.08,1.84-.14,2.75-.21v-.04h0Z"/><path class="cls-3" d="M437.48,420.79c2.51-.23,5.16,.08,7.67,.18s4.95,.05,7.43,.07c5.04,.04,10.07,.17,15.1,.38,10.1,.43,20.19,1.49,30.2,2.86,2.93,.4,5.73,1.36,8.66,1.8s5.74,.87,8.62,1.02l-.22-9.04c-2.6,.25-5.22-.11-7.8-.37s-5.11-.54-7.62-1.05-4.75-1.11-7.04-1.95c-1.21-.45-2.37-.99-3.5-1.61-.73-.4-1.18-.74-1.61-1.48-.52-.89-.85-1.71-1.75-2.23l.2,8.32c2.41,.1,4.76,.79,7.09,1.37s4.54,1.09,6.81,1.63c4.65,1.09,9.14,2.57,13.65,4.13,2.18,.75,4.41,1.31,6.59,2.05s4.34,1.98,6.52,2.92,4.39,2.02,6.62,2.94,4.25,1.7,6.3,2.74c2.38,1.2,4.7,2.54,6.99,3.89,1.13,.66,2.25,1.48,3.47,1.98,.66,.27,2.25,.43,2.42,1.31l-.2-7.96c-.09,.76-.5,1.33-1.05,1.83l.19,3.2c0-.8,0-2.17-.13-2.78,.31,1.48-.44,3.15,.07,4.64,.09,.27,.59,1.61,.98,1.56,.76-.1,.29-5.16,.27-5.58-.05-1.31,.18-3.77-1.09-4.68-.48-.34-1.16-.42-1.69-.66s-1-.58-1.5-.86c-1.29-.71-2.63-1.37-3.95-2.03-2.53-1.27-5.17-2.37-7.64-3.76-5.03-2.82-10.28-4.78-15.75-6.56-2.75-.89-5.32-2.22-8.09-3.08s-5.45-1.51-8.19-2.24c-3.06-.81-6.08-1.82-9.18-2.47s-6.58-.87-9.73-1.85c-.1-.03-.16,3.85-.16,4.17,.03,.98,.06,1.96,.15,2.94,.03,.29-.02,1.01,.21,1.21,.28,.25,.5,.56,.85,.55,.21,0,.49-.19,.68-.27,.74-.32,.96-.05,1.58,.37,1.15,.79,2.33,1.54,3.51,2.29,2.31,1.47,4.74,2.76,7.27,3.81s4.86,1.83,7.44,2.26,5.33,.32,8.01,.39c.26,0,.14-4.17,.13-4.52-.01-.42,.09-4.44-.36-4.51-2.5-.43-5.1-.62-7.63-.72s-4.88,.15-7.37,.31-5.11-.02-7.64-.02-4.93,.01-7.4,.05c-10.05,.15-20.12,.5-30.14,1.15-2.88,.19-5.78,.31-8.64,.67s-5.76,1.07-8.63,1.18c0,0,0,.11,0,.11h0Z"/><path class="cls-3" d="M505.74,432.45c1.96-.44,3.86,.56,5.64,1.23,2.05,.77,4.08,1.56,6.15,2.27,3.97,1.38,8,2.62,12.04,3.79,4.02,1.16,8.09,2.01,12.19,2.82,2.03,.4,4.07,.82,6.12,1.11,1.09,.15,2.19,.35,3.29,.46,.47,.05,.94,.06,1.41,.08,.86,.05,1.25,.25,1.86-.42,.41-.45,.1-2.38,.09-2.96,0-.3-.36-2.86-.23-2.95-1.98,1.4-4.35,.62-6.54,.2,.06,.01-.11,1.09,.03,1.15,2.56,1.2,4.9,2.23,6.66,4.55l-.14-5.91c-.6-.75-.99-.7-1.9-.86-.47-.08-.94-.18-1.41-.25-1.01-.13-2.04-.2-3.06-.3-2.11-.21-4.23-.31-6.34-.45-4.05-.28-8.09-.63-12.14-.89s-8-.7-11.98-1.34c-1.97-.32-3.95-.66-5.9-1.13s-4.05-1.43-5.84-.25c0,0,0,.04,0,.04h0Z"/><path class="cls-3" d="M511.18,425.07c-.21-.51-.38-.97-.53-1.51v.74c1.4,1.87,3.96,3.04,5.91,4.26s3.95,2.47,5.97,3.62c3.84,2.19,7.63,4.4,11.72,6.09,3.88,1.6,7.87,3.39,11.95,4.38,1.04,.25,2.06,.29,3.11,.1,.86-.16,.98-.43,1.41-1.19,.24-.42,.38-.65,.43-1.13,.05-.43,.28-2.57-.37-2.42-.08,.02-.05,1.36,.04,1.46l.22-.83,.04-.61c-.32-.02-.41-.08-.64-.36-.14-.47-.42-.81-.83-1.04l-.45-.37c-.82-.65-1.74-1.25-2.71-1.65-1.74-.72-3.55-1.2-5.34-1.76-3.44-1.08-6.84-2.43-10.31-3.39s-6.74-1.94-10.09-2.97c-1.7-.52-3.39-1.05-5.06-1.63-.77-.26-1.54-.53-2.3-.81-.82-.29-1.84-.81-2.69-.51-.05,.02-.03,.72,.02,.76,.27,.19,.37,.52,.52,.81,0-.01,0-.03,0-.04h0Z"/><path class="cls-3" d="M512.66,432.24c-.24-.38-.45-1.06-.4-1.51,.11-.95,.43-.5,.92-.29,.67,.29,1.34,.55,2.02,.81,1.35,.53,2.71,1.04,4.06,1.57,2.65,1.05,5.3,2.12,7.95,3.18,5.31,2.11,10.67,4.05,16.11,5.77,10.73,3.4,21.74,5.62,32.99,6.14,3.05,.14,6.4,.48,9.42-.09,1.49-.28,3-.86,4.45-1.29,1.72-.52,3.39-1.31,4.91-2.29,.09-.06,.05-1.38-.03-1.42-2.91-1.27-6.17-1.81-9.27-2.38-2.88-.53-6.04-.22-8.96-.33-6.03-.23-12.07-.82-18.07-1.46-11.8-1.27-23.7-3.13-35.24-5.92-3.26-.79-6.46-1.7-9.68-2.63-.21-.06-.65-.25-.89-.25-.55,.01-.51-.11-.65,.42-.05,.21-.08,.42-.08,.64,0,.53,.13,.93,.45,1.37,0,0,0-.03,0-.04h0Z"/><path class="cls-3" d="M528.52,432.29l-1.07-.69s-.96-.81-.69-.25c.1,.21,.92,.52,1.12,.64,.37,.21,.75,.41,1.13,.61,1.63,.87,3.29,1.67,4.98,2.41,3.22,1.41,6.54,2.6,9.91,3.59,6.8,1.99,13.79,3.27,20.83,4.01,14.25,1.49,28.72,.84,43,.08,32.86-1.74,65.71-3.56,98.55-5.51,9.29-.55,18.58-1.11,27.87-1.68,4.65-.29,9.29-.57,13.93-.88,2.32-.15,4.64-.3,6.97-.42,1.16-.06,2.32-.12,3.48-.17,.66-.03,.94,.03,1.49-.4,.67-.54,1.3-1.15,1.95-1.72,.26-.23,0-1.98,0-2.33s.19-2.11-.11-2.32l-1.52-1.08c-.61-.43-.8-.56-1.51-.6-.96-.06-2.03,.19-2.98,.28-2.15,.2-4.31,.39-6.47,.55-4.15,.31-8.29,.63-12.44,.96-8.13,.65-16.25,1.31-24.37,1.97l-48.75,4.01c-16.25,1.34-32.49,2.86-48.74,4.3-14.49,1.28-29,2.99-43.56,2.93-15.62-.07-31.2-2.22-45.14-9.66,.02,.01-.03,.2,0,.23,.71,.4,1.43,.8,2.14,1.21,0,0,0-.04,0-.04h0Z"/><path class="cls-3" d="M762.33,434.28c-11.79,.17-23.57,1.13-35.37,1.27s-23.71,.63-35.57,.98c-23.76,.71-47.54,.93-71.31,1.31-13.5,.22-26.99,.44-40.49,.66-.36,0-.26,9.21,.23,9.21,23.96,.08,47.93-.58,71.86-1.74,23.93-1.16,47.81-2.88,71.69-4.74,13.43-1.05,26.9-1.89,40.31-3.21,.29-.03-.26-8.99-.22-8.99-11.96,.74-23.9,1.91-35.85,2.89-11.98,.98-23.95,1.97-35.94,2.85-23.9,1.76-47.83,2.9-71.79,3.43-13.43,.29-26.86,.34-40.3,.31l.23,9.21c23.99-.41,47.99-.81,71.98-1.23,11.8-.2,23.59-.47,35.39-.99s23.79-1.06,35.54-2.87c6.6-1.01,13.19-2.19,19.74-3.48,6.7-1.31,13.37-2.74,19.87-4.83v-.04h0Z"/><polygon class="cls-3" points="761.75 436.19 761.75 436.15 761.75 436.19 761.75 436.19"/><path class="cls-3" d="M581.3,441.13c4.2-2.27,8.87-3.44,13.46-4.59s9-2.25,13.49-3.38l-.2-8.16c-3.46,.86-6.7,2.58-9.95,4.03s-6.64,2.94-9.94,4.45c-.21,.1-.2,1.37-.2,1.36-.06,1.09-.05,2.19-.02,3.27,0,.34,.19,4.67,.45,4.62,4.32-.81,8.64-1.61,12.94-2.52s8.55-2.05,12.81-3.11l-.22-9.04c-3.91,1.86-7.99,3.39-12.17,4.55-.53,.15-.23,4.12-.22,4.6,0,.34,.17,4.63,.44,4.59,10.05-1.63,20.1-3.3,30.14-5,4.99-.84,9.96-1.78,14.93-2.7,2.45-.45,4.93-.88,7.33-1.55,2.64-.74,5.32-1.95,7.78-3.15,.26-.12,.1-1.83,.1-2.01-.01-.76,.11-1.82-.17-2.54-.27-.67-1.36-.82-2-.73-.07,.01-.11,2.01,.05,2.08,1.06,.44,1.77,1.34,1.89,2.52v-3.95c-2.53-.34-5.3-.57-7.86-.42s-4.92,.6-7.35,.98c-4.98,.79-9.96,1.54-14.94,2.37-10.04,1.67-20.09,3.3-30.14,4.9l.23,9.19c4.22-1.16,8.26-2.72,12.16-4.7,.21-.1,.2-1.32,.2-1.33,.06-1.06,.05-2.14,.02-3.2,0-.33-.26-4.56-.44-4.51-4.24,1.18-8.52,2.07-12.81,3.01s-8.59,1.77-12.94,2.41l.23,9.25c3.32-1.5,6.62-3.05,9.93-4.58s6.84-2.95,9.92-4.99c.19-.13,.18-1.15,.18-1.2,.05-.96,.04-1.93,.02-2.89s-.06-1.93-.16-2.88c-.01-.11-.18-1.23-.24-1.19-4.45,2.87-8.91,5.74-13.36,8.61-2.16,1.39-4.29,3.02-6.57,4.19s-4.51,2.39-6.82,3.21c-.02,0,.01,.11,0,.11h0Z"/><path class="cls-3" d="M560.11,409.94c1.42,.34,2.76,.95,4.18,1.14s2.79,.13,4.16,.19c3.01,.13,6.01,.31,9.02,.48,5.78,.31,11.56,.62,17.34,.77,11.55,.32,23.11,.08,34.66-.2,22.88-.56,45.75-2.04,68.6-3.34,45.6-2.6,91.28-5.17,136.98-4.63,12.89,.15,25.77,.55,38.64,1.28,6.44,.36,12.87,.8,19.3,1.33,3.22,.27,6.43,.55,9.64,.86s6.52,1.09,9.63,.88l-.22-9.01c-1.74,.98-3.44,1.92-5.26,2.74s-3.4,.95-5.3,1.17c-.03,0,0,1.68,.04,1.68,1.91,.13,3.56,.22,5.35,.93s3.61,1.6,5.39,2.5c-.23-.11-.02-4.08-.03-4.51s.15-4.41-.19-4.5c-2.59-.75-5.58-.72-8.26-.98-2.98-.29-5.97-.56-8.95-.81-5.74-.48-11.48-.89-17.23-1.24-11.49-.69-22.99-1.11-34.49-1.33-22.81-.42-45.62-.08-68.41,.82-45.74,1.81-91.39,5.34-137.1,7.76-12.93,.68-25.85,1.59-38.77,2.42-6.46,.42-12.91,.98-19.37,1.47-3.22,.24-6.45,.51-9.68,.67-1.61,.08-3.23,.16-4.84,.23-1.71,.07-3.16,.75-4.82,1.13,0,0,0,.11,0,.11h0Z"/><path class="cls-3" d="M603.94,417.45l-1.99-1.88,.08,3.43c18.96-.92,37.93-1.64,56.89-2.61,18.97-.97,37.96-1.78,56.94-2.5,37.72-1.44,75.5-1.92,113.24-.8,21.26,.63,42.48,1.88,63.68,3.56l-.23-9.17c-33.37-1.43-66.8-.29-100.07,2.55-33.24,2.84-66.32,7.35-99.25,12.62-9.25,1.48-18.49,3.02-27.73,4.6-4.67,.8-9.33,1.61-14,2.43-2.33,.41-4.66,.82-6.99,1.23-1.06,.19-2.12,.38-3.18,.56-1.45,.26-2.47,.6-3.8,1.28l.2,8.05c1.67-2.82,4.01-5.01,6.76-6.78,.75-.48,1.27-1.09,2.13-1.28,.64-.15,1.29-.28,1.94-.41,1.69-.32,3.39-.59,5.09-.87,7.43-1.23,14.9-2.16,22.37-3.16s14.69-2.03,22.05-2.92c7.32-.89,14.7-2.12,22.06-2.6,8.44-.55,16.93-.77,25.33-1.59,.3-.03-.02-6.81-.17-6.8-28.52,.64-57,3.39-85.39,6.22-7.96,.79-15.92,1.63-23.88,2.5-.57,.06,.08,9.19,.23,9.18,27.24-2.31,54.4-5.51,81.46-9.38,7.67-1.1,15.33-2.25,22.99-3.47,.35-.06,.02-9.23-.23-9.25-30.79-2.37-61.68-.05-92.31,3.33-8.72,.96-17.44,2.01-26.15,3.06l.23,9.23c4.1-.54,8.22-.64,12.34-.29l-.23-9.23c-5.03,1.22-10.17,1.71-15.34,1.44l.23,9.23,13.93,.3-.23-9.23-20.32,4.25,.23,9.23,11.6-2.83c.44-.11,.16-4.17,.15-4.62,0-.34-.18-4.64-.38-4.61l-14.73,2.39,.23,9.22c3.04-.91,5.78-2.41,8.19-4.48,.67-.57,.15-9.16-.23-9.22-3.17-.49-6.32-.55-9.5-.17-.59,.07,.05,9.23,.23,9.22l3.27-.23c.18-.01,.47-9.01-.23-9.22-7.61-2.26-15.29-4.28-23.04-6.02-3.82-.86-7.66-1.66-11.5-2.39-1.87-.35-3.73-.92-5.61-.59-2.08,.36-4.15,.75-6.21,1.16l.1,4c.64-.21,1.29-.43,1.93-.64,.76-.25,1.53-.74,2.25-.87,1.26-.23,2.94,.07,4.22,.11,2.6,.08,5.2,.16,7.8,.27,5.41,.21,10.82,.48,16.23,.8,5.41,.32,10.81,.7,16.21,1.13,2.59,.21,5.18,.43,7.77,.66,1.3,.12,2.59,.23,3.88,.36,.77,.07,2.9-.04,3.05,1.14l-.02-1.39c-.18,.45-.73,.94-1.09,.39,.21,.33-.21,1.13,.04,1.51,.8,1.24,1.17-1.17,1.08-1.67-.33-1.98-4.21-1.51-5.69-1.63-6.37-.51-12.74-.94-19.11-1.3s-12.76-.64-19.14-.84c-3.25-.1-6.49-.19-9.74-.25-1.52-.03-3.03-.05-4.55-.08-.43,0-.87-.01-1.3-.02-.37-.36-.81-.6-1.32-.71-.87-.31-1.75-.62-2.62-.93,.31,.11-.51,3.7,.1,4,2.01,1,4.01,2.01,6.01,3.04,1.82,.94,3.64,1.17,5.64,1.55,3.95,.75,7.89,1.56,11.82,2.45,7.75,1.74,15.43,3.76,23.04,6.02l-.23-9.22-3.27,.23,.23,9.22c3.18-.38,6.34-.33,9.5,.17l-.23-9.22c-2.41,2.07-5.15,3.57-8.19,4.48-.47,.14-.17,4.15-.16,4.62,0,.34,.18,4.64,.38,4.6l14.73-2.39-.23-9.22-11.6,2.83c-.43,.11-.15,4.18-.14,4.62,0,.33,.22,4.64,.37,4.61l20.32-4.24c.6-.12,.02-9.22-.23-9.23l-13.93-.3c-.18,0-.33,9.2,.23,9.23,5.17,.27,10.31-.21,15.34-1.44,.55-.13,.06-9.21-.23-9.23-4.12-.35-8.24-.26-12.34,.29-.61,.08,.21,9.23,.23,9.23,30.62-3.68,61.34-7.36,92.22-7.36,8.75,0,17.51,.31,26.24,.99l-.23-9.25c-27,4.27-54.11,7.83-81.3,10.65-7.71,.8-15.42,1.55-23.14,2.26l.23,9.18c28.38-3.33,56.83-5.91,85.27-8.64,7.99-.77,15.96-1.55,23.93-2.45l-.17-6.8c-7.47,1.42-14.89,3.33-22.32,5.03s-14.89,2.73-22.35,3.98c-7.33,1.23-14.69,2.34-22.04,3.47s-14.67,2.47-22.04,3.32c-2.11,.25-4.21,.51-6.32,.77-.73,.09-1.46,.19-2.18,.3-.65,.1-1.53,.45-2.18,.41-.32-.02-.78-.33-1.2-.35-.39-.02-.78-.04-1.17-.04-.74,0-1.49,.03-2.23,.14-1.34,.19-2.59,.61-3.73,1.35-.62,.41-.13,8,.2,8.05,1.19,.18,2.01,.25,3.19,.04,.95-.17,1.91-.34,2.86-.51,2.22-.39,4.45-.79,6.67-1.18,4.03-.71,8.06-1.41,12.09-2.11,8.28-1.43,16.56-2.83,24.85-4.18,16.48-2.69,32.98-5.2,49.53-7.42,33.01-4.43,66.21-7.71,99.5-8.91,18.78-.68,37.58-.68,56.35,.11-.09,0,.2-9.14-.23-9.17-37.81-2.99-75.84-3.65-113.75-3.1-37.78,.55-75.53,2.37-113.21,5.21-21.25,1.6-42.45,3.77-63.64,5.97-.16,.02-.17,3.2,.08,3.43l1.98,1.73c-.06-.05,.08-1.47,.07-1.64,0-.34,.13-1.37-.15-1.64h0Z"/><path class="cls-3" d="M591.18,413.96c-.32-.2-2.27-1.39-2.23-1.45,.16-.21,2.61,.38,2.93,.42,2.11,.3,4.23,.59,6.35,.82,4.32,.46,8.64,.85,12.97,1.16,8.58,.63,17.15,.87,25.76,.76,0,0,0-.27,0-.27-16.2-.34-32.37-1.41-48.48-3.15,0,0-.01,.16,0,.17l2.71,1.56s0-.04,0-.04h0Z"/><path class="cls-3" d="M597.91,416.39l-3.91-.59,.02,.89c6.26,.86,12.66,.75,18.97,.76,6.32,.01,12.64-.19,18.96-.36,12.57-.35,25.14-.7,37.71-1.05s25.15-.72,37.72-.84,25.32-.2,37.98-.45l20.99-.41c3.5-.07,6.99-.13,10.49-.23,1.83-.05,3.66-.11,5.49-.16s3.67,.16,5.51,.33l-.21-8.71c-1.96-.08-3.93,.19-5.88,.36-2.12,.18-4.24,.36-6.37,.54-3.92,.33-7.84,.67-11.75,1.02-7.84,.69-15.66,1.47-23.49,2.29-15.8,1.65-31.58,3.56-47.28,5.97-8.9,1.37-17.78,2.9-26.62,4.63-.34,.07-.09,4.21-.08,4.61,0,.34,.12,4.62,.31,4.6,11.44-.89,22.87-2.07,34.31-3.04,11.27-.96,22.54-1.87,33.81-2.74l9.45-.73c1.65-.13,3.32-.31,4.97-.37s3.33,.08,4.98-.04l-.22-8.95c-12.53,3.41-25.07,6.68-37.72,9.65-.4,.09-.13,4.14-.12,4.56,0,.33,.15,4.57,.35,4.55,9.66-1.14,19.28-2.48,28.95-3.55,4.79-.53,9.57-1.06,14.36-1.59l7.18-.79c1.16-.13,2.3-.23,3.47-.26,1.26-.04,2.76,.13,3.96-.26,.38-.12,.08-4.01,.07-4.44,0-.33-.13-4.45-.29-4.43l-2.3,.21c-.75,.07-1.59,.34-2.3,.21-.05,0-.05,2.95-.04,3.19,0,.28-.06,3.14,.2,3.19,.77,.14,1.59,.71,2.33,1.04l2.33,1.04-.22-8.87c-1.26-.13-2.71,.37-3.96,.61-1.15,.22-2.3,.37-3.46,.49l-6.93,.75c-4.87,.52-9.74,1.05-14.6,1.58-9.65,1.04-19.31,1.81-28.97,2.78l.22,9.11c12.68-2.75,25.32-5.98,37.71-9.81,.35-.11,.05-4.06,.04-4.48,0-.33-.13-4.48-.26-4.47-1.41,.11-2.82,.41-4.22,.62s-2.82,.28-4.23,.39l-8.7,.68-17.16,1.34c-11.26,.88-22.55,1.7-33.82,2.36-6.47,.38-12.94,.75-19.4,1.25l.23,9.21c31.2-6.11,62.82-9.63,94.45-12.63,4.41-.42,8.81-.85,13.22-1.26,2.28-.21,4.57-.43,6.85-.64s4.62-.28,6.85-.77c.22-.05,0-3.99-.02-4.36,0-.32-.2-4.35-.2-4.35-1.49,.25-2.98,.57-4.48,.69-1.66,.13-3.33,.16-4.99,.23-3.16,.15-6.32,.31-9.49,.48l-18.97,1.05c-12.57,.7-25.12,1.51-37.68,2.33-25.19,1.63-50.42,2.65-75.64,3.83-6.98,.33-13.96,.61-20.94,.88s-14.32,.17-21.43,.74c-.05,0,0,.89,.02,.89l3.89-.26v-.04h0Z"/><path class="cls-3" d="M842.03,411.81c-.29,.62-.39-.31-.36-.36,.06-.09,.53-.09,.56-.09,.5,0,1.04,.14,1.54,.21,1.31,.19,2.63,.35,3.95,.5,2.47,.29,4.94,.55,7.41,.8,5.02,.51,10.06,.94,15.09,1.29,10.06,.71,20.15,1.11,30.24,1.19,2.89,.02,5.78,.02,8.68,0,1.4-.01,2.81-.06,4.21-.1s3.13,.15,4.45-.31l-.08-3.25c-1.02,.48-1.94,1-3.07,1.13-1.04,.12-2.02,.07-3.05-.1,.01,0-.07,.64,.02,.66,1,.33,2.04,.62,3.07,.82s2.05,.57,3.12,.73c-.04,0,.3-3.15-.08-3.25-1.22-.3-2.7,0-3.96,.06-1.49,.07-2.97,.13-4.46,.2-2.81,.14-5.61,.27-8.42,.37-5.53,.2-11.06,.3-16.59,.32-11.13,.03-22.27-.31-33.38-1.03-1.48-.1-2.96-.2-4.44-.31-.82-.06-1.64-.11-2.46-.16-.58-.04-1.36-.23-1.93-.08-1.4,.38-.23,1.07-.05,.86,.02-.02-.01-.1,0-.11h0Z"/><path class="cls-3" d="M867.27,415.85c-2.6,.11-5.21,.02-7.79-.33-1.26-.17-2.5-.39-3.74-.67s-2.77-.53-3.91-1.2c.13,.08-.21,1.1,.03,1.26,1.9,1.2,4.16,1.69,6.33,2.19s4.3,.89,6.47,1.26c4.47,.76,9,1.3,13.52,1.58,9.34,.57,18.67,.71,28.02,.49,2.56-.06,5.12-.19,7.68-.32,1.32-.07,2.65-.1,3.96-.22,1.43-.14,3.09-.64,4.17-1.57,.37-.31,.13-1.99,.12-2.43,0-.22-.28-2.39-.24-2.43-.48,.32-.94,.79-1.49,.98-.49,.17-1.07,.15-1.59,.32-.13,.04,0,1.42,.03,1.42,.48,0,1.16-.03,1.6,.2,.69,.36,1.15,1.32,1.56,1.94l-.12-4.86c-.9-.65-2.37-1.02-3.5-1.09s-2.32,.05-3.47,.1c-2.31,.09-4.62,.16-6.93,.25-4.71,.19-9.41,.37-14.12,.58s-9.24,.38-13.86,.59-9.06,.6-13.59,.77c-2.39,.09-4.77,.09-7.15-.12s-4.98-.96-7.44-.88l.03,1.26c1.2-.02,2.48,.46,3.66,.66,1.31,.22,2.64,.38,3.97,.48,2.59,.19,5.19,.13,7.78-.15v-.04h0Z"/><path class="cls-3" d="M855.23,404.31c-3.12,.12-6.02-1.46-8.7-2.81l.04,1.73c24.06-2.08,48.19-.75,72.18,1.54,23.86,2.27,47.66,5.73,71.33,9.49,6.71,1.06,13.41,2.15,20.09,3.42,3.26,.62,6.53,1.25,9.79,1.89s6.92,1.18,10.27,2.09l-.22-8.82c-5.15-.62-10.27-1.36-15.43-1.88s-10.3-.98-15.46-1.4c-10.15-.82-20.32-1.44-30.49-1.87-20.59-.87-41.22-.93-61.82-.2-11.57,.41-23.13,1.08-34.67,2-.55,.04-.03,9.23,.23,9.21,17.98-1.31,36-1.96,54.03-1.96,18.03,0,36.05,.68,54.03,2.01,10.18,.75,20.34,1.72,30.48,2.89,.15,.02,.11-4.29,.1-4.63-.01-.44,.12-4.52-.32-4.62-5.81-1.33-11.63-2.57-17.49-3.65s-11.69-1.69-17.57-2.22-11.78-.9-17.66-1.5-11.99-1.12-17.99-1.57c-23.78-1.79-47.61-2.64-71.46-2.41-6.69,.06-13.39,.34-20.08,.63s-13.53,.83-20.29,1.14l.02,.85c27.69-4.37,56.03-4.94,84-3.71,14.05,.62,28.08,1.74,42.08,3.16,6.54,.66,13.08,1.38,19.6,2.24s13.03,1.72,19.43,3.12c7.18,1.57,14.3,3.6,21.25,5.98,3.48,1.19,6.93,2.5,10.32,3.92s6.84,3.18,10.26,4.78c-.13-.06-.01-2.57-.02-2.84,0-.32,.16-2.7-.12-2.83-5.76-2.71-12.04-4.62-18.16-6.3s-12.53-3.05-18.89-4.12c-12.91-2.17-25.83-3.96-38.86-5.22-27.86-2.68-55.9-4.23-83.89-3.27-15.74,.54-31.41,2-47.01,4.23-.06,0,0,.85,.02,.85,5.96-.19,11.94-.07,17.9-.07s11.95,.06,17.92,.18c12.03,.23,24.04,.41,36.06,1.01,11.93,.59,23.85,1.41,35.72,2.73,5.94,.66,11.87,1.41,17.79,2.26,2.96,.43,5.91,.88,8.87,1.34s5.91,1.23,8.86,1.85c6.61,1.4,13.15,3.18,19.78,4.49s13.27,2.68,19.87,4.19l-.23-9.25c-17.91-2.06-35.89-3.48-53.9-4.23-18.01-.75-36.05-.84-54.07-.27-10.2,.32-20.4,.86-30.58,1.6l.23,9.21c20.47-1.63,40.99-2.48,61.52-2.52,20.61-.05,41.22,.71,61.78,2.27,5.73,.43,11.46,.93,17.18,1.49s11.61,1.02,17.38,1.71c-.15-.02,.31-8.78-.22-8.82-3.01-.18-6.03-.72-9.03-1.08s-5.86-.69-8.79-1.02c-5.95-.68-11.9-1.39-17.86-2.09-11.92-1.41-23.86-2.67-35.81-3.78-11.8-1.1-23.61-1.92-35.42-2.89-12.01-.98-24.04-1.79-36.08-2.07-13.52-.31-27.07,.03-40.5,1.6-.07,0-.11,1.66,.04,1.73,2.72,1.35,5.72,1.14,8.66,1.19,0,0,0-.11,0-.11h0Z"/><path class="cls-3" d="M958.83,408.2l-2.99-.95c-.46-.15-.91-.32-1.38-.44-.62-.16,.57,.08,.8,.1,2.23,.16,4.45,.32,6.68,.49,4.37,.33,8.73,.69,13.09,1.08,8.64,.76,17.3,1.55,25.9,2.68s16.64,2.98,24.78,5.55c7.7,2.43,15.42,4.55,23.45,5.54,7.66,.94,15.28,1.81,23.01,1.53s15.17-1.57,22.51-3.65c13.63-3.87,26.04-11.07,36.6-20.47s18.77-20.26,24.79-32.61c.74-1.51,1.44-3.05,2.1-4.6,.15-.35,.09-1.03,.1-1.35,.02-1.08,0-2.17-.02-3.25s-.06-2.17-.14-3.25c-.02-.26-.25-1.16-.17-1.34-9.58,20-27.95,35.06-47.01,45.64-19.15,10.62-40.62,17-62.45,18.65-12.31,.93-24.72,.34-36.88-1.81-.2-.04-.18,4.29-.17,4.64,.01,.44-.09,4.54,.4,4.62,21.65,3.82,44.07,2.66,65.28-3.08,21.14-5.72,41.18-15.98,57.81-30.28,9.49-8.16,17.82-17.83,23.26-29.18l-.23-9.19c-5.33,12.4-13.07,23.71-22.65,33.22-9.81,9.75-21.35,17.21-33.9,22.93-6.93,3.16-14.2,5.57-21.64,7.21s-14.89,2.82-22.46,3.03-15.06-.97-22.37-2.82c-8.03-2.03-15.85-4.69-24.04-6.06-8.28-1.38-16.68-1.93-25.04-2.5-8.55-.59-17.11-1.06-25.67-1.42-2.14-.09-4.28-.17-6.42-.25,0,0-.02,.21,0,.22l5.05,1.44s0-.04,0-.04h0Z"/><path class="cls-3" d="M1012.67,418.12c2.43,.39,4.84,1.22,7.26,1.72s4.86,.96,7.31,1.36c4.95,.81,9.94,1.41,14.95,1.8,9.78,.75,19.67,.35,29.39-.96,2.74-.37,5.48-.81,8.2-1.31,1.4-.26,2.88-.52,4.18-1.11,1.51-.69,2.72-1.85,4.12-2.75,.09-.06,0-1.19-.03-1.2-1.19-.17-2.33-.68-3.51-.77-1.27-.09-2.49,.15-3.73,.38-2.42,.45-4.82,.97-7.24,1.39-4.92,.84-9.89,1.46-14.86,1.97-9.73,.98-19.62,1.33-29.39,.89-2.75-.12-5.5-.31-8.24-.57-1.41-.13-2.81-.29-4.22-.45s-2.84-.18-4.2-.5c0,0-.01,.11,0,.11h0Z"/><path class="cls-3" d="M1093.77,416.44c.27-.21,.53-.38,.87-.44,.07-.01,.56-.07,.67,0,.28,.22,.15,.14,.09,.48-.12,.66-.9,1.36-1.39,1.76-1.12,.92-2.58,1.35-3.98,1.63-3.82,.77-7.85,.74-11.72,.63-2.09-.06-4.11-.42-6.18-.67s-4.29-.45-6.42-.75c-4.25-.59-8.54-.83-12.79-1.53-4.78-.79-9.53-1.58-14.23-2.76l-.06,.17c-.5,1.46-.21,3.44-.18,4.95,.03,1.3,.04,2.67,.22,3.96,.06,.39,.12,.77,.35,1.1,.43,.59,1.25,.86,1.93,1.01,1.26,.26,2.56,.39,3.84,.56,4.81,.65,9.64,1.06,14.49,1.31,4.85,.25,9.71,.29,14.56,.11,4.56-.17,9.24-.78,13.49-2.52,1.67-.68,3.16-1.65,4.29-3.08,.47-.59,.83-1.23,1.08-1.94,.15-.43,.25-2.49,1.03-2.13,.6,.27-1.19,1.16-1.48,1.27-1.06,.38-2.18,.66-3.27,.93-2.2,.55-4.44,.98-6.69,1.31-9.23,1.36-18.71,1.15-28.01,.98-11.1-.2-22.21-.22-33.3-.72,0,0-.03,.62,.02,.62,9.83,1.01,19.74,1.92,29.63,2.05,9.41,.12,18.98,.2,28.3-1.25,4.61-.71,8.96-1.94,13.35-3.5,1.25-.44,2.05-.51,1.95-1.97-.03-.42-.07-.84-.41-1.14-.72-.65-.73,.07-1.07,.53-.75,1.03-2.18,1.27-3.35,1.41-1.72,.2-3.37,.21-5.1,.08-4.85-.37-9.69-.01-14.55,.07-5.5,.1-11.01-.06-16.48-.56-2.66-.24-5.31-.55-7.96-.93-1.36-.19-2.73-.39-4.08-.63-.85-.15-2.25-.39-2.54-1.37l.32,6.74v-.26l-.1,2.11c.07-.2,5.46,1.07,6.05,1.18,2.09,.39,4.2,.77,6.32,.99,4.06,.43,8.19,.51,12.27,.43s8.41-1.12,12.52-2.16,8.07-1.82,12.05-2.93c2.99-.84,6.54-2.27,7.54-5.5,0-.02,.01-.19,0-.19-.73-.17-1.3-.01-1.86,.48,0,0,0,.04,0,.04h0Z"/><path class="cls-3" d="M915.72,421.41c-.37,.13-.58-.64-.64-.8l.03,1.36s1.02,.2,1.11,.24c.41,.17,.76,.63,1.01,.98,.21,.29,.69,1.54,1.03,1.78,.32,.23,1.58,.08,1.98,.09,.82,.02,1.65,0,2.47,.01,2.8,.02,5.59,.08,8.39,.03,5.52-.09,11.02,.22,16.53,.48,11.1,.53,22.17,1.34,33.21,2.57,3.02,.34,6.05,.7,9.06,1.1s6.36,1.11,9.53,1.25c.23,.01,.13-4.18,.12-4.52-.03-1.06-.06-2.13-.15-3.19-.01-.18-.02-1.27-.2-1.32-2.77-.7-5.72-.93-8.55-1.3s-5.71-.73-8.57-1.06c-5.72-.66-11.45-1.21-17.19-1.67s-11.49-.83-17.24-1.06-11.35-.21-17.02-.41c-3.21-.11-6.41-.02-9.62,.06-.79,.02-1.7-.05-2.46,.13-.82,.2-.27-.35-.96,.99-.35,.67-.74,1.48-1.43,1.89-.5,.29-.79,.35-1,.94-.13,.38-.12,.72-.12,1.13,0,.03,0,.89,.07,.89,.35,.01,.49-.19,.62-.47,0-.01,0-.11,0-.11h0Z"/><path class="cls-3" d="M995.97,426.91c-1.39-.31-2.68-.63-4-1.17s-2.65-1.21-4-1.43c-2.5-.4-4.98-.86-7.47-1.29-2.64-.45-5.31-1.07-7.97-1.36s-5.14-.47-7.71-.7c-10.35-.94-20.71-1.51-31.07-2.32-.25-.02-.17,4.25-.16,4.6,.01,.42-.07,4.51,.38,4.58,9.03,1.36,18.1,2.22,26.99,4.38,4.11,1,8.18,1.98,12.14,3.45s7.61,3.05,11.23,4.93c4.17,2.17,8,4.85,11.53,7.95l-.22-9.16c-16-6.15-32.13-11.98-48.2-17.97l-13.74-5.12c-.05-.02-.16,4.24-.16,4.59,.03,1.08,.06,2.16,.16,3.24,.03,.37-.01,1.04,.22,1.34,1.88,2.35,4.85,2.99,7.73,3.09,3.57,.13,7.16-.24,10.73-.29,4.12-.06,8.24,.02,12.36,.23s8.05,.68,12.08,.96c2.31,.16,4.64,.53,6.96,.55,1.11,.01,2.22-.01,3.34,0,1.26,.01,2.34-.37,3.54-.72,.23-.07,.19-4.23-.11-4.43-.92-.61-1.85-1.4-2.89-1.79s-2.08-.7-3.12-1.03c-2.04-.66-4.14-1-6.25-1.36-3.99-.69-8.03-1.01-12.07-1.25s-8.24-.36-12.36-.34c-3.73,.02-7.45,.31-11.18,.33-3.25,.02-6.81-.41-8.97-3.11l.23,9.17,48.2,17.96c4.58,1.71,9.14,3.46,13.74,5.11,.06,.02,.16-4.23,.16-4.59-.03-1.08-.06-2.16-.16-3.24-.03-.3,.02-1.14-.22-1.34-6.24-5.15-13.55-9.26-21.14-12.02-3.9-1.42-7.89-2.66-11.9-3.72-4.4-1.16-8.93-1.86-13.4-2.7-5.12-.96-10.29-1.71-15.46-2.29l.23,9.18c10.35,.42,20.69,1.08,31.05,1.38,2.56,.07,5.13,.19,7.7,.22s5.13-.26,7.68-.4,5.15-.13,7.68-.41c1.33-.15,2.66-.58,3.95-.96s2.59-.55,3.95-.7v-.04h0Z"/><path class="cls-3" d="M924.14,419.89c1.19,.3,2.42,.11,3.63,.02s2.42-.18,3.63-.26c2.51-.16,5.02-.25,7.52-.41,4.94-.33,9.89-.51,14.85-.56,9.84-.09,19.66,.13,29.47,.99,5.59,.49,11.14,1.22,16.7,1.98l-.08-3.3c-.07,.05-1.88,1.16-1.96,.72l.02,1.16c.11-.27,.17-.36,.44-.45,.04-.01,.02-.78-.02-.8-.75-.24-.52,1.03-.5,1.43s0,1.03,.24,1.37c.53,.78,1.24,.32,1.85-.13,.24-.17,.02-3.28-.08-3.3-19.46-3.03-39.47-3.39-59.05-1.45-2.76,.27-5.5,.66-8.24,1.11-1.37,.22-2.74,.46-4.11,.7-1.46,.26-3.02,.43-4.33,1.14v.04h0Z"/><path class="cls-3" d="M918.38,421.19c13.51,.14,26.35,4.7,37.76,11.75,5.89,3.64,11.44,7.85,16.6,12.46,2.69,2.4,5.22,4.96,7.87,7.4,2.46,2.27,4.89,4.59,7.21,7.01,2.66,2.78,5.28,5.6,7.94,8.38s5.4,5.21,8.35,7.6c.05,.04,.16-1.56,.15-1.32,.04-1.06,.03-2.12,0-3.18s-.06-2.12-.15-3.18c-.03-.37,.01-1.01-.21-1.31-5.06-6.88-10.21-13.9-13.59-21.8-1.61-3.75-2.84-7.73-3.3-11.8-.11-.96-.01-.27-.02-.11,.11-1.32-.08,2.02,.04,1.37,.17-.96,.19-1.95,.37-2.92,.39-2.11,1.03-4.15,1.89-6.12l-.25-.46c1.62,9.41,3.47,18.77,5.59,28.09,1.46,6.44,3.05,14.5,9.54,17.78,.15,.07,.31-3.92,.31-4.02-.01-.98-.04-1.97-.12-2.95-.05-.59,.03-1.62-.3-2.12-3.66-5.56-6.14-11.88-7.15-18.47-.09-.57-.2-1.46-.23-1.82,.04,.38-.09-1.25-.05-.59,.02,.28,.01,.2-.01-.26,.02,.56,.02,.56,0,.02,.01,.43,0,.56,.02-.09-.02,.51,.04-.74,.04-.68,.05-.7,.12-1.4,.21-2.09,.41-3.33,1.24-6.59,2.39-9.73l-.49-8.45c-1.68,17.32-.44,35.24,4.65,51.92l.12,.16c.89-.4,1.51-1.79,1.87-2.64,.4-.95,.66-1.98,.79-3,.24-1.8,.47-4.35-.3-6.04-.09-.2-.2,1.01-.2,1.08-.02,.76-.01,1.57,.14,2.32,.29-2.18,.28-2.83-.04-1.96l-.1,.2c-.19,.16-.33,.3-.56,.42-.37,.19-1.12,.38-1.52,.23-.63-.24-.8-1.78-.98-2.42-.25-.91-.5-1.82-.73-2.74-.92-3.66-1.65-7.39-2.17-11.13-.23-1.63-.41-3.28-.55-4.92-.04-.47-.07-.94-.11-1.41l-.03-.47c.02,.32,.01,.21-.02-.31-.02-.47-.05-.94-.07-1.42,.03,.79-.01-.55-.02-.66-.03-.98,0,.41-.01-.66,0-.47,0-.95,0-1.42,0,.5,0-.41,.01-.55,0-.39,.02-.79,.03-1.18,.06-1.81,.19-3.61,.36-5.41,.18-1.91,.12-3.87,0-5.78-.04-.72-.04-1.51-.2-2.21-.03-.12-.13-.92-.29-.46-3.31,9.11-3.56,19.09-2.62,28.65,.8,8.16,3.3,16.06,7.82,22.93l-.11-9.1c-6.46-3.27-7.94-11.33-9.38-17.73-2.02-8.91-3.82-17.88-5.4-26.88-.02-.11-.07-.87-.25-.46-1.57,3.61-2.27,7.42-2.48,11.34-.27,5.18-.11,10.54,.79,15.65,1.39,7.81,4.89,14.9,9.17,21.51,2.41,3.71,5.09,7.24,7.73,10.79l-.22-8.99c-2.99-1.12-5.22-3.68-7.42-5.89s-4.54-4.52-6.91-6.69c-4.82-4.43-9.59-8.86-14.87-12.73-10.44-7.66-21.8-14.16-34.34-17.65-7.2-2-14.48-3.21-21.98-2.96-.02,0-.01,.31,0,.31h0Z"/><path class="cls-3" d="M990.13,436.15l4.8-1.24,.03-.05c.22-1.04,.2-2.49-.18-3.5-.25-.66-.8-1.4-1.36-1.81-.64-.47-1.7-.5-2.48-.54-4.1-.24-8.31,.56-12.34,1.25-.51,.09-.27,4.07-.26,4.51,0,.34,.15,4.54,.48,4.49,5.58-.85,11.16-2.56,16.53-4.27,.59-.19,.27-4.07,.26-4.59,0-.33-.22-4.63-.48-4.57-2.92,.66-5.76,1.61-8.48,2.87-1.3,.6-2.68,1.24-3.86,2.06-1.35,.94-1.53,2.09-1.59,3.67-.07,1.86-.02,3.74,.14,5.6,.07,.76,.04,1.66,.43,2.33,.64,1.08,2.24,.86,3.31,.87,3.33,.01,6.66-.13,9.98-.41l-.23-9.26-13.2,5.68c-.22,.09-.22,1.36-.22,1.36-.06,1.09-.06,2.19-.03,3.28s.07,2.19,.19,3.27c.03,.25,.03,1.24,.29,1.35,4.14,1.68,8.61,1.9,13.02,2.06l-.23-9.26c-2.32,3.48-7.69,1.41-10.36,4.48-.25,.29-.23,1.08-.25,1.36-.07,1.08-.07,2.19-.04,3.28,.01,.48-.1,4.52,.51,4.62l8.54,1.46c1.38,.24,2.77,.46,4.15,.71,.91,.16,2.17,.45,2.54,1.43l-.28-2.12,.02,.23,.06-6.81c-.46,1.74-5.65-.62-6.66-1.01-2.42-.95-4.73-2.15-6.91-3.56-4.41-2.86-8.25-6.59-11.17-10.97l.11,9.1c6.15,3.56,11.42,8.06,16.32,13.18,2.24,2.34,4.54,4.7,7.33,6.4,.78,.48,1.43,1.05,2.28,.4,.57-.43,.84-1.17,1.01-1.83,.24-.94,.27-1.96,.28-2.92,0-.54,0-1.08-.02-1.62,0-.29-.02-.58-.04-.86-.04,.83,.03,.92,.2,.26,.2-.55,.07-1.36,.04-1.94,0-.2-.14-1.18-.18-1.09-.15,.28-.23,.51-.29,.81-.02,.14,0,.89-.08,.99,0,0-.56,.08-.72,.07-.75-.05-1.38-.77-2.02-1.12-.71-.39-1.39-.83-2.05-1.3-2.49-1.79-4.59-4.04-6.69-6.24-4.64-4.86-9.79-9.07-15.61-12.44-.11-.06-.31,3.91-.31,4.02,.01,.98,.04,1.97,.12,2.95,.05,.59-.03,1.63,.3,2.12,3.69,5.53,8.69,10.08,14.6,13.16,1.44,.75,2.92,1.41,4.44,1.97,1.44,.53,3.17,1.28,4.71,1.37,.61,.03,1.08-.15,1.35-.73,.25-.54,.19-1.32,.22-1.9,.06-1.34,.03-2.69-.03-4.04-.09-1.86,.13-4.05-1.85-4.89-.98-.42-2.16-.47-3.21-.65l-3.42-.58-7.32-1.25,.23,9.26c2.66-3.08,8.04-1,10.36-4.48,.56-.84,.42-9.23-.23-9.26-4.42-.17-8.88-.38-13.02-2.06l.23,9.26,13.2-5.68c.22-.09,.22-1.37,.22-1.36,.06-1.09,.05-2.19,.02-3.28-.01-.36-.1-4.65-.47-4.62-2.43,.2-4.86,.34-7.3,.38-1.14,.02-2.28,.03-3.41,.02-.49,0-1.01,.02-1.49-.1s-.99-.79-.89,.09l.1,7.26c.13-.86,1.79-1.61,2.44-1.97,1.18-.66,2.38-1.26,3.62-1.8,2.4-1.05,4.9-1.86,7.45-2.45l-.22-9.16c-5.45,1.77-10.99,2.98-16.53,4.44l.22,9c3.05-.86,6.13-1.61,9.21-2.4,1.56-.4,3.01-.91,4.51-1.47,.54-.2,.94-.35,1.44-.6,.21-.1,.87-.46,.95-.07l-.11-2.37-.02,.33,.06-.39-4.74,3.82s0,.04,0,.04h0Z"/><path class="cls-3" d="M1001.09,421.92c-.07-.19-.5-1-.7-1.32l-.04-.06c-.82,.2-1.07,.87-1.34,1.61-.32,.88-.65,1.77-.87,2.68-.57,2.34-.87,4.75-1.06,7.15-.5,6.3-.33,12.76,.51,19.02,1.34,9.92,4.78,19.48,10.5,27.74,3.09,4.47,6.79,8.49,11.02,11.91l-.23-9.26c-6.63-5.17-11.89-11.88-15.53-19.45-1.76-3.66-3.16-7.52-4.11-11.48-.45-1.88-.82-3.79-1.05-5.69-.01-.11-.16-1.46-.1-.86-.02-.23-.11-1.61-.06-.7-.01-.23-.05-.49-.04-.72-.04,1.08,.01,.25,0-.03-.03-.68,0,.83,0,.14,0-.31,0-.61,0-.92,0,.77,0,.12,0-.03,.01-.39,.02-.79,.03-1.18,.01-.55,.04-1.09,.08-1.65,.08-1.23,.2-2.45,.35-3.67,.36-2.94,.87-5.85,1.61-8.72,.13-.5,.06-1.1,.04-1.61,0-.17-.14-.97-.16-.91-3.65,9.35-3.32,19.78-1.88,29.58,1.36,9.3,4.84,18.29,10.31,25.94,3.02,4.23,6.63,8.02,10.73,11.22,.15,.12,.33-1.63,.31-1.36,.09-1.08,.09-2.19,.06-3.28s-.08-2.19-.22-3.27c-.05-.38-.05-1.09-.37-1.35-6.89-5.57-12.33-12.74-16.02-20.79-1.81-3.96-3.22-8.12-4.13-12.37-.43-2.03-.77-4.07-.97-6.13,.06,.67-.1-1.33-.05-.7s-.03-.56-.03-.54c0,.15,.05,.99,0,.12-.01-.21,0-.89,0,.11,0-.24,0-.49,0-.73,0,1.1,.04-1.21,.02-.57,.11-2.46,.43-4.9,.81-7.33,.25-1.56,.5-3.11,.83-4.65s.36-3.71,1.78-4.73c.13-.09,.04-1-.02-1.14h0Z"/><path class="cls-3" d="M835.09,459.15c1.9,.37,3.17-1.69,4.28-2.92,1.42-1.58,2.79-3.21,4.16-4.83,2.82-3.33,5.67-6.63,8.75-9.72s6.44-6.11,10.1-8.62c3.49-2.4,7.44-4.25,11.45-5.65,2.31-.81,4.72-1.44,7.14-1.81,1.15-.17,2.3-.28,3.46-.32,1.3-.05,2.63,.15,3.91,.05l-.34-8.96c-.52,1.03-.61,2.18-1.02,3.26-.31,.81-.7,1.59-1.06,2.38-.09,.2-.13,2.16,.08,2.17l.66,.03c.4,.88,.96,1.24,1.68,1.1,.56-.05,.35-4.13,.34-4.57-.03-1.07-.07-2.16-.21-3.22-.03-.24-.06-1.26-.35-1.33-2.03-.5-4.51-.16-6.57,.13s-4.19,.78-6.19,1.5c-4.32,1.56-8.02,3.94-11.64,6.74-7.61,5.89-13.31,13.72-18.65,21.63-1.6,2.37-3.19,4.74-4.74,7.14-.74,1.16-1.49,2.31-2.24,3.46-.63,.97-1.62,2.72-3.01,2.24,0,0-.02,.11,0,.11h0Z"/><path class="cls-3" d="M889,422.16c-2.58-.56-4.94-1.7-7.47-2.38s-4.96-.86-7.43-1.25c-.31-.05-.54,8.83,.22,8.77,1.68-.13,3.37-.31,5.06-.37,.43-.01,.28-3.78,.27-4.15-.03-.97-.06-1.95-.18-2.92-.03-.21-.05-1.14-.29-1.21-4.58-1.23-9.45-1.46-14.13-2.2s-9.35-1.62-13.99-2.62-9.25-2.13-13.82-3.39c-2.29-.63-4.56-1.3-6.83-2s-4.47-1.67-6.76-2.06c-.37-.06-.33,4.16-.32,4.5,.03,1.06,.07,2.12,.2,3.17,.03,.24,.06,1.23,.34,1.31,.65,.18,.69,.15,1.09-.42,.59-.83,.83-1.24,1.64-1.77,.96-.62,1.8-1.22,2.5-2.15,.22-.29-.14-1.99-.05-2.04-.76,.43-1.68,.65-2.55,.41-.92-.26-1.3-1.07-1.73-1.87-.36-.67-.52-.76-1.13-1.15l.22,8.98c2.1,1.07,4.52,1.64,6.77,2.34s4.54,1.37,6.83,2c4.57,1.27,9.18,2.4,13.82,3.39,4.63,.99,9.3,1.83,13.99,2.53,4.6,.69,9.45,1.67,14.11,1.3l-.2-8.27c-1.69,.03-3.39-.09-5.07-.13l.22,8.77c2.38-1.16,4.85-1.91,7.33-2.82s4.75-1.99,7.36-2.21c0,0,0-.11,0-.11h0Z"/><path class="cls-3" d="M547.04,434.58c-.52,.47,1.7,1.27,2.06,1.41,1.07,.44,2.1,.96,3.12,1.51,2.02,1.08,4.02,2.23,6.13,3.13,4.53,1.93,9.32,1.14,13.44-1.44,.11-.07-.04-.61-.02-.62-5.04,2.35-10.53,1.02-15.31-1.32-2.28-1.12-4.46-2.41-6.86-3.27-1.06-.38-3.19-.98-2.86,.82,0,.01,0,.02,.01,.03,.21,0,.24-.03,.28-.22,0,0,0-.04,0-.04h0Z"/><path class="cls-3" d="M353.74,373.92c-.1-.07-.18-.33-.25-.43s-.14-.21-.22-.3c-.17-.2-.36-.4-.55-.57-.06-.05-.13-.1-.18-.16-.12-.13-.12-.32-.23-.45-.07-.08-.2-.13-.29-.18-.23-.12-.49-.25-.74-.28-.93-.12-1.97,.31-2.29,1.23-.36,1.01-.31,2.19-.24,3.23,.06,.87,.18,1.79,.63,2.56,.27,.47,.67,.87,1.14,1.15,.23,.13,.52,.28,.78,.31,.28,.03,.6-.06,.87-.13,1.44-.42,2.64-1.89,3.18-3.24,.05-.13,.04-.3,.03-.44,0-.03-.04-.29-.07-.25-.56,.81-1.5,1.07-2.45,1-.52-.04-1.04-.14-1.52-.35-.23-.1-.48-.16-.71-.28s-.42-.26-.61-.42l.07,.06c-.3-.27-.54-.59-.73-.95-.05-.09-.09-.18-.13-.27-.05-.13,0,.04-.04-.11,0-.03-.1-.26-.08-.27,.03,.16,.03,.18,.01,.06,.02,.16,.04,.32,.05,.48,.02,.32,.02,.64,0,.96,0,.11-.01,.21-.03,.32,0-.03,.06-.26,.04-.2,.05-.18,.13-.35,.21-.51,.17-.36,.41-.67,.72-.92,.29-.23,.61-.41,.96-.54,.32-.11,.66-.23,1-.29,.07-.01,.2,0,.26-.04,.13-.07,.08-.26,.24-.32,.1-.03,.3-.01,.41,0,.3,.06,.69,.33,.78,.63,0,.01,.02-.09,0-.11h0Z"/><path class="cls-3" d="M353.64,372.79c-1.21-.23-3.71-.32-4.21,1.18-.3,.91-.22,2.06-.08,2.99,.13,.83,.49,1.54,1.25,1.95s1.73,.45,2.6,.44c1.07-.01,2.14-.09,3.2-.24s2.17-.32,3.13-.72c1.24-.51,2.24-1.44,2.99-2.53,.05-.08,.07-.65-.03-.7-1.64-.81-3.4-.06-5.05,.33s-3.32,.76-5.02,.84c-.66,.03-1.37,0-1.98-.3-.31-.15-.59-.38-.77-.68-.05-.09-.1-.19-.14-.29l.04,.92c.08-.11,.16-.59,.2-.73,.53-1.68,2.22-2.42,3.85-2.42,0,0,0-.04,0-.04h0Z"/><path class="cls-3" d="M350.79,375.24c.12,.2,.24,.55,.42,.7s.49,.08,.71,.09c.44,.01,.89,.04,1.33,.08,.94,.09,1.87,.26,2.81,.37s1.81,.33,2.72,.49c.45,.08,.9,.16,1.35,.26s1.05,.37,1.42-.03c.19-.2,.35-.44,.44-.7,.13-.36,.29-.81,.35-1.18,.04-.23,.02-.49-.01-.73-.11-.76-.44-1.75-.92-2.37-.33-.43-.8-.48-1.32-.53-1.82-.16-3.78,.04-5.48,.74-1.01,.41-1.99,.89-2.94,1.44-.31,.18-.49,.31-.61,.64-.07,.18-.26,.51-.26,.7,0,.01,0,.03,0,.04h0Z"/><path class="cls-3" d="M348.27,377.06c.53-.26,1.27-.3,1.85-.46,.65-.17,1.3-.3,1.94-.48,1.39-.37,2.91-.6,4.35-.65s2.93,.12,4.34,.46c.75,.18,1.45,.47,2.18,.72,.34,.12,.95,.17,1.22,.33l-.15-1.09c-.03-.67-.04-.36-.26-.08-.09,.12-.09,.9,.04,1,.68,.51,.48-.64,.47-1.06-.03-.94-.12-2.15-.8-2.87-.58-.62-1.57-.84-2.36-1.04-.93-.24-1.87-.37-2.83-.37-1.86,0-3.75,.32-5.42,1.16-.93,.47-1.73,1-2.48,1.71-.83,.8-1.41,1.69-2.1,2.61-.01,.01,0,.11,0,.11h0Z"/><path class="cls-3" d="M304.93,392.3c-.45-.56-.88-1.13-1.29-1.72v.48c2.9,2.81,7.87,2.09,11.54,2.11,4.93,.03,9.87-.14,14.79-.22,0,0,0-.22,0-.22-4.93-.08-9.87-.24-14.8-.2-3.71,.03-8.54,.78-11.52-1.94,.07,.06-.08,.39,.01,.48,.45,.41,.87,.84,1.28,1.29,0,0,0-.03,0-.04h0Z"/><path class="cls-3" d="M309.75,392.86l.48-.48s0-.05,0-.06c0-.01,0-.03,0-.04v-.02l-.49,.48s0,.05,0,.06c0,.01,0,.03,0,.04v.02h0Z"/><path class="cls-3" d="M309.3,391.77c1.25,.63,2.36,1.23,3.68,1.69s2.61,.88,3.93,1.28c2.55,.79,5.13,1.49,7.73,2.12,5.12,1.25,10.31,2.2,15.53,2.92,10.63,1.47,21.27,2.3,32,2.54s22.03-.02,33.03-.33c11.48-.32,22.96-.64,34.43-1.13,6.35-.27,12.7-.57,19.05-.93,3.21-.19,6.43-.38,9.64-.58,1.63-.1,3.32-.36,4.94-.25s3.61,.87,4.95-.15c.14-.1,.09-1.22,.09-1.2,.02-.96,0-1.93-.02-2.89s-.05-1.93-.12-2.89c-.01-.2,.02-1.1-.15-1.19l.71,3.32-.22-1.06c-.04-.19-.36-2.06-.47-2.19-.43-.5-1.41-.38-2.01-.24-1.5,.34-2.88,.96-4.43,1.13-2.88,.32-5.76,.62-8.64,.92-5.76,.6-11.53,1.19-17.29,1.76-11.61,1.14-23.23,2.27-34.87,3.05s-22.4,1.41-33.61,1.85-21.84,.48-32.72-.39c-5.92-.48-11.81-1.37-17.63-2.6-2.98-.63-5.93-1.35-8.86-2.19-1.46-.42-2.92-.86-4.37-1.33-.65-.21-1.3-.43-1.95-.66-.79-.27-1.56-.3-2.37-.5,0,0-.01,.11,0,.11h0Z"/><path class="cls-3" d="M480.83,401.81c-2.47,.4-5.13,.26-7.63,.36s-4.94,.19-7.42,.28c-5.03,.18-10.07,.34-15.1,.46-10,.24-20.01,.4-30,.32-19.9-.16-39.8-1.44-59.44-4.71-10.97-1.82-21.82-4.36-32.39-7.81,.01,0-.03,.21,0,.22,18.71,7,38.27,11.12,58.14,12.9s40.02,1.66,60,.48c5.58-.33,11.15-.71,16.72-1.12,2.86-.21,5.71-.43,8.57-.65s5.75-.74,8.55-.62c0,0,0-.11,0-.11h0Z"/><path class="cls-3" d="M313.13,386.11s0-.11,0-.11c0,0,0,.11,0,.11h0Z"/><path class="cls-3" d="M311.64,390.67c2.55,.71,5.22,.87,7.85,1.14s5.23,.48,7.85,.65c5.23,.35,10.48,.58,15.72,.7,10.58,.24,21.17,.14,31.74-.25,21.06-.78,42.04-2.74,63.01-4.7,5.9-.55,11.79-1.1,17.69-1.64,2.93-.26,5.86-.57,8.79-.71,1.46-.07,2.93-.09,4.39-.02,.73,.03,1.46,.15,2.18,.17,.36,0,.58,.13,.96-.05,.5-.24,1-.92,1.41-1.28,.17-.15,.1-1.87-.05-2.04-.52-.62-1.15-1.7-1.97-1.92-.58-.16-1.34-.08-1.94-.09-1.3-.02-2.6,.03-3.89,.12-2.61,.19-5.2,.53-7.8,.85-5.24,.66-10.47,1.34-15.7,2.03-10.56,1.38-21.12,2.76-31.71,3.99-20.89,2.43-41.93,4.49-62.98,4.49-5.9,0-11.8-.13-17.69-.42-2.95-.14-5.89-.33-8.83-.54s-6.06-.68-9.06-.52c0,0,0,.04,0,.04h0Z"/><path class="cls-3" d="M466.29,386.95c-2.43,.63-5.07,.77-7.56,1.12s-5.04,.71-7.57,1.06c-4.88,.68-9.77,1.34-14.66,1.98-10.02,1.32-20.05,2.54-30.1,3.56s-19.95,1.85-29.95,2.39c-9.19,.5-18.5,1.05-27.69,.4-8.03-.57-16.26-2.27-22.94-7-.33-.23-.78-.73-1.04-.58-.16,.09-.23,.59-.24,.71-.04,.31-.03,.65,0,.96,.13,1.37,1.29,2.23,2.47,2.77,2,.92,4.51,1.02,6.68,1.25,2.38,.26,4.77,.4,7.16,.48,20.15,.62,40.39,.25,60.54-.18,20.3-.43,40.59-.63,60.89-1.44,2.49-.1,4.97-.18,7.44-.39l-.22-8.99c-19.48,2.47-39.03,4.41-58.62,5.78-19.59,1.38-39.22,2.2-58.85,2.47-11.05,.15-22.11,.25-33.17,.04-.06,0,.02,4.04,.03,4.37,.03,1.03,.05,2.06,.1,3.09,0,.15-.02,1.24,.09,1.28,8.82,2.91,18.04,4.17,27.27,4.9s19.09,1.16,28.64,1.51c19.49,.72,39,.92,58.5,.91,10.96,0,21.91-.07,32.87-.14l-.22-9.05c-5.1,.1-10.28,.01-15.37,.42s-10.23,1.08-15.34,1.67-10.22,1.21-15.33,1.87-10.21,1.14-15.32,1.7c-5.74,.63-11.52,1.61-17.29,1.79-.1,0-.04,2.58,.06,2.58,11.76-.18,23.52-.78,35.27-1.24l35.27-1.39c6.62-.26,13.25-.53,19.87-.74,.2,0,.07-4.02,.06-4.36-.01-.41,.12-4.26-.27-4.35-1.63-.39-3.12-.32-4.59,.51-.12,.07-.08,1.38-.08,1.29-.01,1.03,0,2.07,.03,3.1s.06,2.07,.12,3.1c.01,.18-.01,1.22,.14,1.28,1.62,.64,3.27,.91,5.01,.84l-.19-7.85c-3.13,.44-6.11,1.42-8.88,2.95-.34,.19-.05,2.81-.04,3.2,0,.24,.07,3.2,.2,3.19,1.84-.07,3.64,.03,5.49,.14s3.68,.11,5.49,.35l-.16-6.56c-1.45,1.1-3.05,1.89-4.8,2.4l.26,7.47c.4-9.62-.02-19.73-2.62-29.06l.1,8.63c.95,3.14,1.88,6.29,2.92,9.4l.05,.13c1-2.26,1.06-4.62,1.01-7.06-.04-2.02,.13-4.48-1.01-6.26-.84-1.3-2.54-2.37-4.12-2.4-.27,0-.38,.07-.68,.02-.24-.04-.47-.13-.7-.17-.53-.11-1.07-.16-1.62-.17-1.04,0-2.03,.2-2.99,.57-.14,.06,.07,1.42,.03,1.43l14.82-2.11c2.47-.35,4.96-.64,7.41-1.13s4.92-1.11,7.4-1.47c.06,0-.02-.75-.02-.75-2.45,.36-4.96,.48-7.42,.72s-4.95,.68-7.41,1.06l-14.82,2.27,.03,1.43c1.67-.67,4.26-1.06,5.83,0,2.12,1.44,3.76,3.49,4.54,5.95,.18,.56,.26,1.14,.41,1.7,.13,.74,.13,.25,0-1.47,.07-1.71,.05-2.21-.07-1.51-.08,.21-.1,.48-.17,.69-.1,.3-.31,1.08-.61,1.02s-.57-1.83-.66-2.19c-.71-2.8-1.51-5.57-2.27-8.35-.14-.5-.16,.56-.16,.46-.08,.88-.05,1.8-.03,2.68,.02,1.75-.15,3.78,.29,5.5,.66,2.62,1.25,5.26,1.66,7.94,.19,1.25,.34,2.51,.46,3.78,.02,.24,.04,.48,.06,.73,0,.09,.07,1.67,.05,.62,0-.27,0-.56-.02-.83,0-.43,0-.32,0,.31,0,.32,0,.64-.01,.97-.04,1.51-.02,3.02,.04,4.53,.01,.29,.3,2.9,.23,2.94,1.8-1.02,3.38-2.31,4.76-3.85,.47-.53-.17-6.56-.16-6.56-1.81,.11-3.67-.02-5.48-.05s-3.66-.06-5.49-.27l.16,6.39c2.87-1.1,5.85-1.61,8.91-1.49-.04,0,.3-7.78-.19-7.85-1.8-.24-3.46-.83-5.03-1.76l.22,8.77c1.49-.54,3.01-.82,4.59-.56l-.21-8.71c-23.45,2.62-46.95,4.89-70.43,7.31-6.62,.68-13.24,1.36-19.84,2.2l.06,2.58c5.05-.72,10.23-.7,15.33-.89,5.11-.19,10.24-.44,15.35-.4,10.26,.08,20.51,.3,30.76,.65,5.77,.2,11.58-.21,17.35-.33,.1,0-.07-9.05-.22-9.05-19.5,.17-39.01,.32-58.51,.13-19.4-.19-38.83-.65-58.2-1.93-10.32-.68-20.69-1.84-30.56-5.07l.21,8.74c19.65,.33,39.27,.26,58.9-.48,19.62-.75,39.23-2.05,58.78-3.9,11.01-1.04,22-2.26,32.97-3.65,.5-.06-.19-8.99-.22-8.99-4.97,.42-9.91,1.16-14.86,1.74s-9.75,1.13-14.62,1.67c-9.83,1.08-19.67,2.07-29.52,2.98-19.64,1.82-39.41,2.72-59.12,3.53-4.8,.2-9.57,.28-14.37-.05-2.38-.17-4.76-.43-7.12-.82-1.72-.29-3.66-.68-4.8-2.14-.1-.13-.8-1.08-.18-1.23,.13-.03,1.15,.85,1.29,.94,.81,.56,1.66,1.08,2.52,1.57,1.72,.96,3.52,1.76,5.37,2.42,3.7,1.32,7.59,2.1,11.49,2.51,8.62,.9,17.38,.38,26.01-.07,9.76-.52,19.5-1.32,29.22-2.32,19.47-2,38.84-4.8,58.19-7.68,2.4-.36,4.89-.96,7.32-1.04,0,0,0-.11,0-.11h0Z"/><path class="cls-3" d="M462.42,391.65c1.05-.62,2.43-.91,3.59-1.29s2.24-.7,3.38-1.02c2.35-.67,4.72-1.24,7.11-1.74,0,0,0-.04,0-.04-2.39,.5-4.76,1.09-7.11,1.76-1.13,.32-2.26,.67-3.37,1.03-.6,.2-1.2,.4-1.8,.6s-1.18,.49-1.79,.58c-.01,0,0,.11,0,.11h0Z"/><path class="cls-3" d="M483.71,384.51c-1.65-.05-2.98-.05-4.42,.88-1.25,.81-2.21,1.99-2.84,3.33-1.69,3.58-1.49,7.88-1.19,11.73,.29,3.59,1.36,7.15,4.18,9.56,1.26,1.08,2.64,1.66,4.29,1.85s3.89-.15,5.27-1.09c.09-.06,.06-1.11-.03-1.15-1.35-.66-2.81-.98-4.14-1.75s-2.57-1.62-3.81-2.55c-2.3-1.72-4.27-3.95-5.13-6.72-.1-.33-.19-.66-.27-1-.05-.21-.09-.43-.12-.64-.11-.73-.11-.32,0,1.24,.19-.9,.2-1.86,.38-2.77,.34-1.73,.87-3.39,1.62-4.98,1.11-2.37,3.3-5.65,6.22-5.85,0,0,0-.11,0-.11h0Z"/><path class="cls-3" d="M479.35,387.59c-1.19-.84-2.35,0-2.57,1.26-.2,1.17-.1,2.44-.04,3.62,.22,4.26,1.15,8.4,2.6,12.41,.92,2.54,1.95,5.54,4.04,7.39,1.1,.97,2.36,.78,3.67,.35,1.86-.61,3.6-1.75,5.34-2.64,.15-.08,.02-1.81-.04-1.82-1.54-.16-2.89-.45-4.29-1.12s-2.48-1.6-3.6-2.65c-1.65-1.54-3.01-3.02-4.01-5.07s-1.96-4.07-2.76-6.15c-.32-.83-.83-1.76-.87-2.66-.05-1.25,.96-3.6,2.55-2.88,0,0,0-.04,0-.04h0Z"/><path class="cls-3" d="M479.66,402.85c.15-.24,.08-.8-.38-.59s-.07,1.34,0,1.58c1.01,3.55,3.22,6.76,5.85,9.32,6.32,6.16,15.15,8.16,23.65,9.02,0,0,.02-.31,0-.31-6.72-.93-13.65-2.52-19.45-6.2-2.44-1.55-4.7-3.46-6.52-5.71-.93-1.16-1.75-2.41-2.42-3.74-.39-.77-.72-1.57-.99-2.39-.11-.34-.28-.65-.16-1.01,.19-.59,.54-.19,.43-.07-.02,.02,.02,.09,0,.11h0Z"/><path class="cls-3" d="M508.1,390.32c-1.85,.84-4-.33-5.05-1.91-.17-.25-.47-.69-.51-1-.03-.27,.31-1.71,.61-1.88,.27-.16,1.73,.36,2.08,.42,1.5,.28,3.01,.51,4.52,.71,6.06,.8,12.17,1.02,18.28,.94,12.17-.15,24.32-1.16,36.47-1.74,24.92-1.17,49.88-1.8,74.83-1.81,24.83,0,49.67,.54,74.48,1.66,24.81,1.11,49.6,2.81,74.34,5.01s49.36,5.07,74.03,7.74c3.12,.34,6.24,.69,9.36,1.04-.02,0,.02-.53-.01-.53-47.83-7.84-96.28-11.86-144.67-14.16-48.15-2.29-96.4-2.46-144.57-.58-13.5,.53-26.98,1.29-40.47,2.07-13.17,.76-26.33,1.05-39.36-1.33h0c-.85,3.46,2.25,6.25,5.66,5.46,.02,0,0-.11,0-.11h0Z"/><path class="cls-3" d="M525.62,391.83c.38-.17,.87-.18,1.29-.23,.37-.04,.74-.08,1.11-.12,.8-.07,1.61-.12,2.41-.15,1.61-.05,3.23-.02,4.83,.08v-.04c-1.61-.13-3.22-.16-4.84-.09-.81,.04-1.61,.1-2.41,.18-.37,.04-.74,.08-1.11,.13-.41,.05-.88,.19-1.29,.13,0,0,0,.11,0,.11h0Z"/><path class="cls-3" d="M541.55,395.5c23.61-.62,47.22-1.27,70.83-2.13s47.38-1.87,71.08-2.63c47.41-1.52,94.8-.79,142.18,1.21,26.55,1.12,53.11,3.06,79.69,2.86,0,0,.03-1.19-.03-1.2-23.59-2.7-47.34-3.64-71.05-4.67s-47.36-1.84-71.06-2.19c-47.45-.71-94.84,.95-142.21,3.68-26.49,1.53-52.97,3.23-79.44,5.02v.04h0Z"/><path class="cls-3" d="M557.99,395.87c-1.35-.37-2.7-.73-4.05-1.1v.49c53.49-2.66,106.99-3.63,160.51-2.08,53.23,1.55,106.42,5.17,159.36,11.01,14.97,1.65,29.93,3.48,44.86,5.49,7.43,1,14.86,2.09,22.3,3.03,7.39,.93,14.91,1.86,22.27,.45,.03,0,0-.75-.02-.75-6.62-.86-13.3-1.2-19.94-2s-13.26-1.83-19.89-2.72c-13.33-1.78-26.67-3.42-40.03-4.93-26.45-2.97-52.97-5.39-79.52-7.26-53.12-3.73-106.38-5.07-159.62-4.28-30.11,.45-60.24,1.51-90.29,3.54-.03,0-.03,.48,.01,.49,1.35,.22,2.7,.44,4.04,.66,0,0,0-.04,0-.04h0Z"/><path class="cls-3" d="M951.12,410.16c-47.36-7.82-94.94-14.8-142.8-18.68-47.92-3.89-96.02-4.48-144.06-3.36-27.11,.63-54.26,1.36-81.34,2.83-.16,0-.09,3.83,.09,3.83,29.35,.83,58.7,2.23,88.03,3.7,29.37,1.48,58.71,3.37,88.06,5.09,8.32,.49,16.64,1,24.95,1.49s16.64,1.33,24.96,1.7c-.11,0,.11-8.89-.22-8.91-28.94-1.55-57.88-2.93-86.85-3.91s-57.91-1.54-86.87-1.27c-16.36,.16-32.76,.45-49.09,1.36l.23,9.25c1.33-2.42,5.15-3.03,6.79-.59,0,0,.14-1.43,.14-1.26,.04-1,.02-2.02,0-3.02-.03-1.1,.31-3.3-.34-4.27-1.56-2.31-5.27-2.64-6.81-.1-.5,.83,.05,9.25,.23,9.25,28.95-1.1,57.87-1.66,86.84-1.3,28.97,.36,57.93,1.38,86.87,2.63,16.36,.71,32.72,1.45,49.09,2.15l-.22-8.91c-7.32-.28-14.67-.14-21.99-.32l-22-.52c-14.66-.35-29.33-.53-43.99-.93-29.34-.79-58.68-1.69-88.01-2.91-16.63-.7-33.27-1.31-49.89-2.23l.09,3.83c24.19-.66,48.35-1.97,72.54-2.69,24.17-.73,48.36-1.21,72.55-1.13,47.86,.17,95.6,3.25,143.16,8.62,26.69,3.01,53.3,6.66,79.87,10.62v-.04h0Z"/><path class="cls-3" d="M576.23,399.52c-6.03-.09-12.05-.47-18.03-1.2-2.95-.36-5.88-.89-8.79-1.49-1.41-.29-2.82-.63-4.2-1.05-1.98-.6-3.58-2.6-4.94-4.07l.2,8.28c11.88-.82,23.69-2.36,35.55-3.45,11.86-1.1,23.74-2.01,35.63-2.74,23.78-1.46,47.6-2.17,71.43-2.14s47.64,.79,71.41,2.27c23.85,1.49,47.68,3.61,71.46,5.97,23.61,2.34,47.11,5.28,70.53,9.09,2.89,.47,5.79,.95,8.68,1.45-.09-.01,.09-1.48-.04-1.51-23.37-5.25-46.92-9.81-70.54-13.74-23.57-3.92-47.29-6.66-71.11-8.44-23.76-1.78-47.57-2.82-71.4-3.15-23.94-.32-47.89,.09-71.8,1.21-23.79,1.11-47.55,2.93-71.23,5.52-2.95,.32-5.86,.88-8.78,1.37-.3,.05-.09,3.79-.08,4.15,.01,.43,.51,3.98,.29,4.14,1.21-.86,2.92-2.13,4.44-2.16s3.05,.23,4.53,.39c2.92,.31,5.84,.53,8.77,.78,5.99,.51,12.01,.68,18.02,.56v-.04h0Z"/><path class="cls-3" d="M582.54,385.46c3.43-.27,6.92-.09,10.37-.19s7.19-.21,10.78-.31c7.06-.2,14.11-.38,21.17-.55,14.13-.34,28.25-.63,42.38-.83,28.13-.39,56.26-.45,84.38,.11,28.21,.56,56.41,1.71,84.56,3.69,28.07,1.98,56.09,4.68,83.98,8.47,13.93,1.9,27.83,4.06,41.67,6.52,13.82,2.45,27.53,5.82,41.39,7.97,3.39,.52,6.65,1.16,10.08,1.42,0,0,.02-.34,0-.35-6.67-2.6-13.67-4.19-20.65-5.74-6.87-1.52-13.78-2.85-20.7-4.14-13.82-2.56-27.69-4.83-41.6-6.81-27.7-3.96-55.55-6.88-83.46-8.83s-56.3-3.05-84.49-3.53c-28.25-.48-56.52-.36-84.77,.12-28.25,.49-56.49,1.35-84.72,2.36-3.45,.12-6.91,.53-10.36,.49,0,0,0,.11,0,.11h0Z"/><path class="cls-3" d="M1018.11,416.83c-36.08-9.46-72.64-17.05-109.51-22.7-36.86-5.65-74.02-9.39-111.27-11.17-20.89-1-41.8-1.39-62.71-1.17,0,0-.02,.36,0,.37,18.51,3.65,37.41,4.11,56.2,4.65s37.67,1.44,56.47,2.86c37.63,2.84,75.13,7.4,112.36,13.58,20.98,3.49,41.88,7.51,62.66,12.05l-.04-1.8c-43.24-5.79-86.68-10.34-130.18-13.65-43.51-3.31-87.11-5.31-130.74-5.99-12.12-.19-24.23-.23-36.35-.17s-24.69,.03-37,.67l.11,4.41c3.73-.2,7.37-.81,11.03-1.52s7.42-.64,11.05-.73c.03,0,0-.98-.02-.97-3.63,.09-7.49,.32-11.07-.2s-7.36-.97-11.09-.99c-.09,0-.08,4.4,.11,4.41,11.01,.05,22.03-.3,33.04-.42,10.79-.11,21.59-.12,32.38-.11,21.8,.01,43.6,.36,65.4,1.03,43.57,1.34,87.1,3.99,130.52,7.95,24.34,2.22,48.63,4.99,72.87,8.1-.08-.01,.09-1.77-.04-1.8-36.98-7.87-74.31-14.08-111.85-18.55-37.44-4.46-75.09-7.21-112.77-8.39-21.06-.66-42.27-.72-63.03-4.78v.37c37.3-.44,74.6,1.07,111.74,4.52,37.13,3.45,74.08,8.84,110.64,16.13,20.5,4.09,40.88,8.79,61.11,14.07,0,0,0-.04,0-.04h0Z"/><path class="cls-3" d="M833.06,401.98l5.6,1.32,2.8,.66c1.02,.24,2.41,.32,3.36,.79-.6-.29-1.63-.28-2.39-.37-.98-.11-1.96-.22-2.95-.31-2.16-.19-4.32-.36-6.48-.53-8.25-.67-16.51-1.25-24.76-1.98-16.49-1.46-33.02-2.49-49.57-3.18-32.76-1.36-65.63-.95-98.34,1.28-18.4,1.25-36.77,3.04-55.06,5.46-.65,.09,.12,9.2,.23,9.19l12.37-1.31c.38-.04,.28-9.16-.23-9.22-16.43-1.91-32.95-3.01-49.49-3.33l.23,9.26,19.39-.82c.42-.02,.21-9.26-.23-9.26-9.71,.04-19.41-.5-29.06-1.61l.23,9.26c11.76-1.8,23.69-2.22,35.55-1.23l-.23-9.26c-7.98,1.01-16.04,1.35-24.07,1-3.92-.17-7.84-.51-11.73-1.01-1.99-.26-3.98-.53-5.96-.8-1.08-.15-1.79-.27-2.81,.17-1.1,.47-2.21,.93-3.32,1.38-.17,.07-.12,3.38,.09,3.54,1.04,.86,2.09,1.71,3.14,2.55,.95,.76,1.65,1.12,2.84,1.37,1.98,.41,3.96,.75,5.96,1.01,3.99,.52,8,.87,12.01,1.05,8.04,.36,16.09,0,24.07-1,.48-.06,.25-9.22-.23-9.26-11.86-.99-23.79-.58-35.55,1.23-.18,.03,.04,9.24,.23,9.26,9.65,1.11,19.35,1.65,29.06,1.61l-.23-9.26-19.39,.82c-.4,.02-.26,9.25,.23,9.26,16.54,.32,33.06,1.43,49.49,3.3l-.23-9.22-12.37,1.34,.23,9.19c30.92-4.18,62.09-6.54,93.26-7.77,31.29-1.23,62.64-1.75,93.95-1.83,8.73-.02,17.46-.26,26.2-.16,4.32,.05,8.63,.11,12.95,.18s9.03-.05,13.52,.15c0,0,0-.21,0-.21l-12.32-2.73s0,.04,0,.04h0Z"/><path class="cls-3" d="M545.11,398.88c2.92,3.37,7.03,5.1,11.14,6.6,4.7,1.72,9.56,3.03,14.25,4.78l-.05-1.87c-2.09-.38-3.85-1.63-5.69-2.64s-3.83-1.73-5.75-2.6c-1.79-.81-3.57-1.69-5.32-2.59-.87-.44-1.72-.91-2.56-1.4-.39-.23-.78-.46-1.16-.69-.68-.42-.94-.84-1.5-.1l.16,6.58c.42-1.4,.91-2.69,1.59-3.98,.1-.18-.15-1.89-.05-1.9-.9,.13-.97-.02-1.71-.7,.02,.02-.03,1.08-.03,.97,0,.78,.02,1.55,.04,2.33s.04,1.55,.08,2.33c.01,.28-.04,.7,.07,.96,.39,.92,.53,1.16,1.35,1.6,.45,.24,.89,.47,1.35,.7,.78,.39,1.56,.76,2.36,1.11,1.79,.79,3.6,1.38,5.5,1.85,1.75,.43,3.67,.9,5.49,.74,1.97-.18,3.84-.82,5.82-.68-.05,0,.1-1.83-.05-1.87-4.79-1.27-9.48-2.96-14.24-4.33-3.97-1.14-7.92-2.57-11.11-5.3,.02,.01-.02,.09,0,.11h0Z"/><path class="cls-3" d="M500.48,387.19c9.07,1.64,18.18,2.94,27.36,3.8s18.36,1.57,27.53,1.49l-.03-1.03c-.08,1.04-.99,1.89-2.04,1.58,.03,0-.03,.29,0,.31,.81,.44,1.94,.16,2.06-.87,.01-.1,0-1.04-.03-1.05-9.19-.39-18.36-.62-27.53-1.39s-18.27-1.75-27.35-3.03c0,0,0,.17,0,.18h0Z"/><path class="cls-3" d="M510.29,391.25c-.66-.82-1.28-1.6-2.12-2.25-1.15-.89-1.88-2.17-2.79-3.31,.17,.22-.03,1.72-.03,2.05,.01,.5-.17,1.61,.13,2.05,.65,.95,1.08,1.33,2.07,1.85,.54,.29,1.1,.54,1.67,.78,1.39,.58,2.81,1.11,4.26,1.54,2.71,.81,5.55,1.26,8.35,1.61,5.84,.75,11.71,.85,17.59,.98,12.58,.28,25.16,.13,37.74,.03,3.48-.03,6.97,0,10.42-.52,1.8-.28,3.67-.53,5.44-.99,.82-.21,1.66-.38,2.47-.64,1.1-.36,1.99-1.07,2.94-1.72,.11-.08,.06-1.93-.05-1.99-.81-.52-1.61-1.13-2.52-1.46-.65-.24-1.32-.37-2-.53-1.65-.38-3.31-.61-4.99-.86-3.16-.46-6.26-.57-9.45-.52-6.29,.08-12.58,.16-18.87,.21-6.29,.05-12.58,.03-18.87,.1-5.93,.07-11.89,.22-17.82,.09-3.1-.06-6.2-.26-9.27-.74-1.57-.25-3.15-.48-4.7-.83-.7-.16-1.39-.35-2.08-.53-.34-.08-.69-.16-1.03-.24-.65-.17-.82-.08-1.4,.27l.1,4.1c.44-.29,.91-.61,1.4-.8,.61-.24,.76-.15,1.3,.22,.83,.58,1.58,1.3,2.12,2.16-.02-.03,.02-.09,0-.11h0Z"/><path class="cls-3" d="M514,387.34c1.58,.15,3.17,.58,4.74,.82,1.75,.27,3.5,.48,5.26,.66,3.36,.33,6.74,.46,10.11,.53,6.62,.14,13.24,.07,19.86,.04,13.46-.06,26.91-.21,40.37-.23,26.94-.05,53.88,.46,80.73,2.83,15.01,1.33,29.98,3.33,44.77,6.2-.02,0,.02-.3,0-.31-26.26-5.5-53.04-7.96-79.84-8.84-26.97-.89-53.96-.37-80.93-.09-7.51,.08-15.03,.18-22.54,.13-3.7-.03-7.39-.14-11.08-.38-1.92-.12-3.83-.29-5.74-.52s-3.89-.39-5.69-.95c0,0,0,.11,0,.11h0Z"/><path class="cls-3" d="M761.26,315.17l-.96-.48s-.02,.1,0,.11l.96,.48s.02-.1,0-.11h0Z"/><path class="cls-3" d="M759.86,314.53c-1.57-.17-2.96-.39-4.55-.1-1.43,.26-2.77,.62-4.05,1.32-.28,.15-.03,1.93,.05,1.92,1.87-.41,3.68-1.51,5.42-2.29s3.62-1.63,5.42-2.47l10.38-4.85,21.21-9.9,41.96-19.59,11.73-5.48c3.72-1.74,7.24-3.4,9.62-6.92,.04-.07-.03-.53-.01-.53-13.87,5.66-27.48,11.86-41.1,18.11-13.49,6.18-27.06,12.17-40.64,18.13-3.73,1.64-7.57,3.02-11.3,4.64-1.95,.85-3.88,1.83-5.87,2.59-.84,.32-1.82,.64-2.72,.76-1.24,.17-1.95-.11-2.86,.88l.49,7.99c.87-1.13,1.72-2.26,2.56-3.41s1.86-2.09,2.96-3.05c.33-.28-.06-2.39-.06-2.39-1,.4-1.81,.86-2.89,.8-.97-.06-1.94-.09-2.91-.09-.66,0-.82,8.17,.2,8.29,1.09,.13,1.91-1.18,2.69-1.81,.68-.55,1.49-1.08,2.25-1.53,1.71-1.03,3.62-1.82,5.41-2.7,3.35-1.66,6.62-3.47,9.92-5.23,6.66-3.55,13.54-6.76,20.3-10.13,13.45-6.7,27.09-13.03,40.61-19.6,7.74-3.76,15.39-7.69,23-11.71v-.53c-2.41,2.02-5.5,3.16-8.32,4.47-3.46,1.61-6.92,3.22-10.38,4.83l-21.21,9.87-41.96,19.53-11.73,5.46c-1.96,.91-3.91,1.84-5.86,2.77-2.08,1-4.43,1.84-6.31,3.19l.08,1.88c2.02-2.32,5.39-4.02,8.52-2.99,0,0,.02-.11,0-.11h0Z"/><path class="cls-3" d="M985.58,322.76c-11.29,4.26-22.95,7.46-34.69,10.19-5.97,1.39-11.96,2.68-17.96,3.92s-12.54,2.83-18.94,3.28c-1.78,.13-3.56,.25-5.34,.44s-3.56,.61-5.33,.94-3.55,.74-5.32,1.13l-2.9,.63c-1.01,.22-2.14,.26-2.89,.98l.35,8.41c.34-1.21,.66-2.34,1.33-3.41,.44-.69,.94-1.35,1.41-2.02,.17-.25,0-2.47-.1-2.44-.36,.11-.74,.25-1.11,.33-.99,.23-.82,.03-1.88-.89-.17-.15-.38,1.51-.35,1.26-.11,.99-.12,2.04-.09,3.03s.07,2.03,.23,3.03c.05,.32,.08,1.08,.42,1.25,.77,.37,1.61-.02,2.43-.2l2.42-.55c1.61-.37,3.23-.72,4.84-1.1,3.27-.78,6.51-1.65,9.66-2.83s6.33-2.4,9.65-3.24c3.12-.79,6.27-1.52,9.4-2.28,12.05-2.93,24.06-5.98,35.64-10.45,6.65-2.57,13-5.53,19.14-9.16,.04-.02-.02-.26,0-.27h0Z"/><path class="cls-2" d="M347.33,378.89c0-.22-.08-.63,.11-.72s.37,.54,.54,.71c.31,.32,.74,.58,1.12,.82,.81,.53,1.67,.98,2.56,1.34,1.74,.7,3.59,1.07,5.47,1.06s3.62-.33,5.31-.97c.88-.33,1.73-.74,2.53-1.25,.41-.26,.75-.58,1.1-.92s.66-.89,1.11-1.08l-.06-1.57c-1.73,2.39-3.84,3.74-6.56,4.8-3.35,1.31-6.78,1.78-10.35,1.62-.05,0-.1,.94,.02,.97,3.35,.86,7.42,2.03,10.82,.82,2.98-1.06,5.34-3.64,6.15-6.67,.09-.32-.14-1.46-.08-1.54-.48,.76-1.57,1.15-2.31,1.62s-1.57,.91-2.41,1.24c-1.64,.66-3.4,1.03-5.17,1.1s-3.54-.11-5.22-.58c-.85-.24-1.68-.56-2.47-.97-.35-.18-.7-.38-1.03-.59-.15-.1-.37-.33-.55-.37-.27-.06-.36,.08-.62-.05v.05c0,.36,0,.71,0,1.07,0,.02,0,.13,0,.06h0Z"/><path class="cls-2" d="M315.05,391.78c-.95-.21-1.83-.58-2.7-1.02l.03,1.05c1.49,.28,2.97-.02,4.47-.18s2.98-.31,4.47-.47c2.98-.31,5.95-.63,8.93-.94,5.96-.63,11.91-1.31,17.86-1.98,11.9-1.34,23.81-2.69,35.71-4.04,23.8-2.72,47.63-5.31,71.4-8.35,13.39-1.71,26.77-3.52,40.13-5.45,.03,0,0-.4,0-.4-23.83,2.29-47.62,4.94-71.4,7.7s-47.6,5.49-71.41,8.17c-6.61,.74-13.23,1.45-19.84,2.23-3.39,.4-6.78,.79-10.17,1.19-1.65,.19-3.31,.38-4.96,.58-1.74,.2-3.58,.23-5.2,.89-.14,.06-.04,1.06,.03,1.05,.9-.09,1.79-.08,2.68,.08,0,0,.02-.11,0-.11h0Z"/><path class="cls-2" d="M498.29,379.43c-18.7,1.37-37.37,2.87-56.04,4.57-18.61,1.7-37.23,3.42-55.81,5.46-10.52,1.15-20.98,2.74-31.5,3.89-.07,0-.07,1.05,.03,1.12,3.38,2.33,7.69,1.86,11.54,1.36,5.03-.66,10.06-1.33,15.09-1.94,10.22-1.25,20.46-2.38,30.71-3.35,20.42-1.94,40.89-3.35,61.39-4.23,11.52-.5,23.05-.84,34.58-1.05,0,0,0-.18,0-.18-20.51,.14-41.02,.92-61.49,2.21s-40.9,3.11-61.28,5.44c-5.65,.65-11.29,1.33-16.92,2.06-4.55,.59-9.68,1.5-13.65-1.42l.03,1.12c9.35-.65,18.72-.95,28.07-1.65s18.7-1.57,28.04-2.5c18.62-1.86,37.21-4,55.77-6.38,10.5-1.34,20.97-2.89,31.44-4.47v-.04h0Z"/><path class="cls-2" d="M483.7,390.82c-.33-.42-.63-.85-.99-1.25-1.35-1.5-1.26-1.43-2.15-4.39l-.07-.13c-.97,.87-1.18,2.25-1.31,3.49-.34,3.2-.19,6.62,.25,9.81s1.8,6.11,4.11,8.31c2.58,2.44,5.94,3.88,9.28,4.93,1.72,.54,3.42,.14,5.16-.13,.84-.13,1.61-.15,2.42-.48,1.01-.42,1.86-.97,2.61-1.77,.14-.15,.01-1.86-.05-1.86-1.65,.03-3.04-.93-4.44-1.67s-2.76-1.82-4.2-2.62-2.97-1.08-4.43-1.65c-1.37-.54-2.7-1.18-3.95-1.96-2.34-1.47-4.33-3.44-5.49-5.98-.28-.6-.5-1.22-.68-1.86-.07-.24-.11-.48-.17-.72-.16-1.17-.15-.39,.03,2.35-.04,2.75,0,3.52,.11,2.33,.12-.6,.28-1.18,.47-1.77,.42-1.32,.69-2.51,.81-3.91l-.06,.26,.83-1.11,.27,.16c.24,.07,.47,.34,.64,.51,.38,.37,.72,.77,.99,1.22-.02-.02,.02-.09,0-.11h0Z"/><path class="cls-2" d="M482.59,392.84c-1.09-1.42-3.16-2.11-4.79-1.1-.12,.07-.01,.82,.01,.95,.98,4.79,5.5,8.32,9.5,10.68,5.34,3.14,11.12,5.49,16.9,7.66,5.72,2.15,11.59,3.96,17.51,5.47,2.93,.75,5.89,1.34,8.87,1.84s5.97,.56,8.93,.74c6.77,.4,13.56,.65,20.34,.59,.01,0,.08-1.7-.04-1.73-6.1-1.17-12.16-2.48-18.13-4.17-5.83-1.65-11.57-3.57-17.45-5.05s-11.72-3.03-17.55-4.67-11.08-3.43-16.69-4.92c-4.52-1.21-10.76-2.07-12.19-7.38v.95c1.28-1.48,3.77-1.65,4.78,.25-.01-.03,.02-.09,0-.11h0Z"/><path class="cls-2" d="M518.39,415.29c-.09,.05-.74,.38-.33-.34,.06-.11,.34-.08,.42-.09,.37-.07,1.02,.27,1.35,.38,1.02,.33,2.04,.67,3.06,1.01,2.05,.7,4.07,1.52,6.05,2.4,4.04,1.78,7.91,3.93,11.38,6.69s6.87,5.95,10.92,8.08c3.65,1.93,7.8,3.24,11.86,3.93,4.82,.82,9.42-1.25,14.07-2.18,.03,0,.03-1.44-.04-1.46-4.68-1.56-8.97-4.31-13.82-5.29-4.38-.88-8.65-1.83-12.88-3.28-4.1-1.41-8.03-3.24-11.96-5.06s-8.26-3.12-12.59-4.03c-1.23-.26-2.46-.51-3.68-.78-1.06-.23-2.5-.8-3.59-.73-.65,.04-.94,.93-.24,.87,.01,0,0-.11,0-.11h0Z"/><path class="cls-2" d="M530.53,418.79c4.56,1.75,8.55,4.58,12.75,7.02s8.66,4.21,13.32,5.51,9.33,2.16,14.08,2.77c4.32,.56,8.69,.96,13.04,.69,4.87-.3,10.11-1.97,13.38-5.78,.05-.06-.05-.61-.02-.62-1.91,.44-3.73,1.26-5.65,1.7-2.04,.47-4.1,.88-6.19,1.07-4.28,.4-8.51,.37-12.79-.02-9.34-.83-18.88-2.1-27.6-5.74-4.87-2.04-9.28-5.05-14.33-6.65,0,0,0,.04,0,.04h0Z"/><path class="cls-2" d="M595.05,429.45c-2.85,.82-5.66,.25-8.55-.09-3.04-.36-6.18-.21-9.24-.36-6.85-.34-13.63-1.14-20.36-2.45,.07,.01-.1,1.2,.03,1.24,6.73,2.01,13.55,3.77,20.43,5.18,2.88,.59,6.1,1.45,9.05,.96,3.2-.53,6.17-2.42,8.64-4.44,0,0,0-.04,0-.04h0Z"/><path class="cls-2" d="M482.2,392.45c-2-.4-3.04-2.75-3.33-4.56v2.08c1.08-.16,2.07-.67,3.1-1.02,1.21-.41,2.4-.8,3.67-.99,2.58-.4,5.19-.23,7.78,.04,2.43,.25,4.85,.67,7.19,1.43,1.95,.63,3.67,1.63,5.54,2.4-.03-.01,.02-1.05-.02-1.17-1.19-3.85-3.89-5.88-7.71-6.77-3.28-.76-6.72-1.13-10.08-.83s-7.31,1.22-9.21,4.25c-.51,.82-.51,2.2-.08,3.08,.62,1.25,1.97,1.71,3.17,2.19,0,0,.01-.11,0-.11h0Z"/><path class="cls-2" d="M501.54,389.38c-2.47-1.85-5.43-3.29-8.36-4.23-.73-.23-1.46-.39-2.17-.67-.39-.16-.76-.21-1.17-.28-.45-.08-.75-.25-1.17-.43-1.24-.52-2.85-.74-4.15-.35-1.16,.35-2.33,1.11-3.04,2.1-.97,1.36-.95,3.01-.97,4.62-.02,2.06,.02,4.14,.24,6.19,.09,.88,.24,1.71,.64,2.51,.65,1.3,1.67,2.37,2.73,3.36,.67,.63,1.39,1.21,2.13,1.76,.62,.45,1.43,1.18,2.17,1.36,.68,.17,1.6-.09,2.28-.21,1-.17,1.7-.86,2.53-1.41,.16-.1,.08-1.58-.04-1.73-1.57-1.93-3.04-3.95-4.84-5.69-.65-.63-1.58-1.04-2.32-1.57-.65-.47-1.28-.97-1.87-1.5-1.3-1.16-2.41-2.36-3.13-3.96-.76-2.52-.74-.29,.06,6.7,.03-.18,.08-.36,.14-.54,.12-.35,.29-.66,.49-.96,.41-.62,.94-1.17,1.5-1.65,1.25-1.08,2.79-1.91,4.15-2.85,1.51-1.04,3.07-2.01,4.91-2.31,3.35-.55,6.4-.01,9.3,1.78,0,0,0-.04,0-.04h0Z"/><path class="cls-2" d="M483.22,390.49c.1-.38-.24-.52-.62-.33-.72,.35-.5,2.21-.47,2.89,.16,4.07,2.43,7.46,5.47,10.04,1.73,1.47,3.69,2.66,5.64,3.81s3.82,2.18,5.9,2.94c4.18,1.53,8.54,2.5,13.01,2.62,0,0,.04-.74-.02-.75-6.74-1.15-12.78-4.32-18.76-7.48-2.75-1.45-5.63-2.99-7.88-5.17-1.04-1.01-1.93-2.19-2.54-3.51-.57-1.24-.92-2.62-.67-4,.07-.38,.15-.9,.54-1.1,.08-.04,.45-.29,.4-.01,0,.01,0,.03,0,.04h0Z"/><path class="cls-2" d="M766.56,429.85c-.81-.54-1.62-1.17-2.12-2,.12,.19-.07,.64,.02,.87,.98,2.38,3.38,4.16,5.17,5.94s3.82,3.66,5.92,5.21c4.1,3.01,8.34,5.75,12.74,8.28,8.55,4.92,17.47,9.29,26.93,12.16,1.27,.38,2.54,.74,3.83,1.07s2.59,.77,3.87,.87c1.38,.11,2.67-.69,3.87-1.26,.32-.15,.58-.26,.86-.48,.52-.4,.68-.43,1.3-.6,.76-.2,1.47-.42,2.19-.76,.03-.01,.01-.65-.02-.66-1.17-.72-2.61-1.11-3.57-2.08-1.06-1.05-2.49-2.02-3.76-2.79-1.06-.64-2.27-.77-3.46-1.04s-2.43-.59-3.63-.93c-4.7-1.32-9.26-3.05-13.75-4.97s-8.89-4.05-13.28-6.21c-2.11-1.04-4.19-2.13-6.3-3.18s-4.34-1.86-6.49-2.79-4.36-1.73-6.48-2.73c-1.07-.51-2.04-1.06-2.99-1.78-.63-.48-2.22-2.33-2.98-2.14l.02,.87c.68-.11,1.6,.81,2.1,1.24-.02-.01,.02-.1,0-.11h0Z"/><path class="cls-2" d="M837.33,461.23c-.86,0-1.62,.11-2.47-.12-.95-.26-1.84-.71-2.69-1.21-2.09-1.23-4.15-2.34-6.35-3.37-4.13-1.93-8.28-3.63-12.7-4.77-4.08-1.05-8.15-2.17-12.19-3.37s-8.15-2.85-12.13-4.46c.18,.07-.17,1.34,.04,1.46,7.97,4.72,16.12,9.28,24.45,13.32,3.97,1.93,8.09,3.18,12.46,3.86,2.13,.33,4.12,.5,6.28,.43,1.91-.07,4.07-.02,5.31-1.73v-.04h0Z"/><path class="cls-2" d="M768.86,435.17c-.08-1.07-.34-2.06-.78-3.05-.35-.79-.66-1.71-1.18-2.4-.28-.37-.31-.47-.67-.27-.22,.12-.41,.53-.49,.74-.3,.77-.21,1.69-.19,2.5,.03,1,.07,1.89,.7,2.71-.11-.14,.03-1.06,.02-1.27,0-.4,.04-.88-.08-1.27-.55-1.69-1.52-3.1-2.9-4.22l.07,2.7c18.21-4.52,36.66-8.21,55.23-10.88,5.29-.76,10.6-1.43,15.91-2.02-.03,0,.13-3.36-.09-3.5-4.18-2.71-9.66-1.09-14.24-.62-5.4,.56-10.81,.76-16.23,1-10.04,.44-20.16,1.77-29.87,4.4-2.46,.66-4.88,1.42-7.26,2.32-1.12,.42-2.23,.87-3.34,1.35-.72,.31-1.27,.47-1.63,1.22-.47,.97-1.04,2.17-1.21,3.22-.14,.84-.16,2.16,.07,2.98,.15,.53,.6,.99,.91,1.44,.2,.28,.46,.83,.85,.89,.24,.04,.82-.38,1.03-.48,2.34-1.06,4.73-1.97,7.14-2.85,9.62-3.51,19.69-5.15,29.65-7.33,6.01-1.32,11.95-2.95,18.01-4.01,2.93-.51,5.89-1.05,8.86-1.33,2.54-.24,5.15-.14,7.35,1.29l-.09-3.5c-18.69,2.1-37.24,5.29-55.56,9.56-5.23,1.22-10.4,2.68-15.56,4.13-.1,.03-.1,2.57,.07,2.7,1.37,1.06,2.34,2.41,2.89,4.06l-.06-2.54c-.22-.27-.28-.51-.45-.79-.19-.63-.2-.35-.02,.84l.21-.57c.1-.22,.26-.62,.47-.73,.34-.16,.33,.14,.69,.34,.39,.22,.71,.24,1,.66,.52,.73,.71,1.77,.77,2.64,0,.04,0-.07,0-.08h0Z"/><polygon class="cls-2" points="765.6 430.41 765.6 430.37 765.6 430.41 765.6 430.41"/><path class="cls-2" d="M854.79,264.58c0-.63,1.24-2.1,.81-.85-.22,.65-.63,1.3-.95,1.91-.6,1.15-1.26,2.23-2.08,3.24-.71,.86-1.45,1.63-2.31,2.34-.33,.27-.75,.51-1.05,.78-.51,.46-.91,1.34-1.3,1.92-3.22,4.84-6.16,9.94-8.68,15.18-5.48,11.42-7.84,24.5-4.76,36.98,1.39,5.61,4.09,10.85,8.59,14.57,.99,.82,1.16-2.89,1.17-3.26,.03-1.19,0-2.39-.19-3.56-.09-.6-.17-1.7-.66-2.11-3.94-3.33-6.42-7.86-8.04-12.7-1.84-5.5-1.49-11.55-1.46-17.26,0-.44,.11-1.5-.23-1.85-.31-.32-.36,.42-.38,.65-.47,7.83-.66,15.72,.85,23.45,1.24,6.33,3.89,12.43,8.93,16.65l.32-8.94c-3.42-2.76-5.91-6.45-7.36-10.59-.31-.89-.59-1.8-.79-2.72-.3-1.32-.33-1.46-.46-2.8,.08,.79,.02,.13,.01-.03,.08,.99,0,.32,0,.1,0-.02,0-1.26-.01-.52-.02,.63,.02-.17,.02-.33,0-.66-.06,.64,0-.02,.03-.34,.05-.67,.08-1.01,.03-.31,.13-1.05,.21-1.51,1.65-10.6,7.63-19.62,12.63-28.87,.85-1.57,1.67-3.12,2.26-4.8,.69-1.94,1.4-3.86,2.13-5.78,1.24-3.26,2.58-6.48,3.88-9.72,0-.02,0-.21,0-.2-.81,.24-1.2,.86-1.18,1.67,0,.02,0,.03,0,0h0Z"/><path class="cls-2" d="M986.96,321.69c-.66,.37-1.25,.84-1.94,.98-.8,.15-1.14,.02-1.71,.72-1.01,1.23-1.29,3.43-1.6,4.94-.96,4.68-1.44,9.57-1.76,14.33-.41,6.15-.17,12.35,1.25,18.36,.51,2.18,1.19,4.56,1.49,6.63,.15,1.05,.01-.39,0-.61-.04-.63-.05,.35-.08,.47-.23,.98-.59,1.85-1.04,2.74l.87,8.39c.76-3.14,1.23-6.34,2.02-9.48,.17-.68,.16-1.44,.08-2.13-.01-.11-.26-1.28-.4-.98-.39,.82-.8,1.63-1.25,2.42-.37,.66-.98,1.12-1.31,1.77-.82,1.59-.61,3.95-.46,5.67,.08,.91,.14,1.88,.46,2.74,.08,.22,.38,.95,.67,.45,1.29-2.18,1.73-4.78,1.92-7.27,.24-3.09,.11-6.25-.33-9.31-.42-2.91-1.17-5.74-1.86-8.59-.24-1.01-.47-2.02-.63-3.05-.11-.71-.11-.81-.14-1.32-.03-.57-.04-.65-.01-.23,0-.53-.01-.65-.01-.36,0,.29,0,.17,0-.36,0-.33,.01-.65,.02-.98,0,.28,0,.16,.02-.37,.02-.33,.04-.65,.06-.98,.08-1.16,.2-2.32,.33-3.48,.22-2.06,.44-4.13,.77-6.17,.35-2.17,.94-4.25,1.46-6.38,.73-3.01,1.33-5.95,3.12-8.52,0,0,0-.04,0-.04h0Z"/><path class="cls-2" d="M1036.93,428.81c2.9,.54,5.44,1.3,7.86,3.06s4.63,4.19,7.04,6.16c4.22,3.46,9.02,6.3,13.51,9.39,8.88,6.12,17.69,12.26,25.72,19.49,4.49,4.04,8.72,8.37,12.59,13.02,.02,.02,.15-1.58,.15-1.36,.04-1.09,.02-2.19,0-3.27s-.06-2.18-.15-3.27c-.03-.37,.02-1.05-.21-1.35-.16-.2-.31-.41-.45-.63-.84-.16-1.06,.21-.67,1.13,.08,2.31,.16,.23,.32-.39,.11-.45,.02-1.03,0-1.48,0-.25-.19-.96-.09-1.17-.69,1.39-.45,3.14-.39,4.63,.05,1.09,.13,2.19,.34,3.26,.27,1.34,.3,2.8,1.15,3.92l-.23-9.26c-6.88-8.24-14.9-15.41-23.42-21.9-8.52-6.48-17.45-12.36-26.73-17.7-1.15-.66-2.37-1.32-3.64-1.69-1.35-.4-2.76-.62-4.15-.85-2.78-.46-5.81-1.15-8.56-.29-.04,.01-.02,.57,.01,.58h0Z"/><path class="cls-2" d="M1043.31,429.05c1.01,.64,1.97,1.41,3.01,1.98,.55,.3,1.11,.52,1.67,.8,.62,.31,1.11,.78,1.71,1.12,.99,.56,2.19,.86,3.26,1.26,1.19,.45,2.22,.75,3.5,.8,4.87,.17,9.79-.25,14.62-.81,9.35-1.09,18.61-2.92,27.45-6.2,14.97-5.54,28.58-14.67,39.49-26.32,3.02-3.23,5.84-6.65,8.42-10.24,1.31-1.82,2.56-3.69,3.74-5.59,.61-.98,1.2-1.97,1.77-2.97,.49-.85,1.09-2.34,2.03-2.72l-.17-1.75v.18l-.02-4.23c-.09,.37-.16,.7-.42,.96s-.04,1.73-.03,2.1c.01,.55-.16,1.61,.13,2.1,.33,.55,1.72-5.67-.14-7.01-.38-.27-.61-.29-.93,0-.69,.62-1.16,1.97-1.64,2.77-1.02,1.7-2.09,3.38-3.21,5.02-2.28,3.33-4.76,6.53-7.42,9.56-5.24,5.98-11.16,11.35-17.62,15.99s-13.67,8.66-21.14,11.71c-8.47,3.46-17.4,5.63-26.43,7-5.55,.84-11.17,1.23-16.72,2.05-1.2,.18-2.52,.21-3.68,.57-1.31,.4-2.52,.94-3.87,1.24-.69,.15-1.25,.35-1.9,.62s-1.19,.23-1.87,.23c-1.26,.01-2.36,.13-3.58-.25,0,0,0,.04,0,.04h0Z"/><path class="cls-2" d="M1187.22,306.08c-4.53,4.42-9.12,8.84-14.04,12.83-2.29,1.85-4.57,3.96-7.11,5.46-2.7,1.6-5.2,3.65-7.65,5.61-10.3,8.24-20.86,16-33,21.35-13.56,5.98-28.27,9.53-42.71,12.65s-29.31,5.51-44.09,7.43c-16.72,2.18-33.51,3.81-50.29,5.44l.23,9.26c.54-.43,.68-1,.95-1.64,.41-.99,.79-2,1.18-2.99,.2-.52,.05-1.41,.03-1.95,0-.3,.1-1.33-.15-1.53-.37-.31-.74-.63-1.13-.92-.46-.35-.58-.65-1.11-.23-.21,.17-.19,1.27-.19,1.36-.05,1.09-.04,2.19-.01,3.28,0,.35,.12,4.65,.43,4.62,29.85-2.92,59.78-5.84,89.2-11.84,14.54-2.96,29.26-6.4,43.11-11.79,12.49-4.86,23.94-12.03,34.17-20.67,2.94-2.48,5.75-5.08,8.36-7.92,2.78-3.03,5.36-6.28,8.03-9.41,5.21-6.1,10.45-12.19,15.78-18.19,.04-.04-.04-.19,0-.22h0Z"/><path class="cls-2" d="M913.81,423.97c-.31-.74-.58-1.49-.86-2.23l.02,1.16c1.61,1.68,3.6,2.8,5.33,4.33,.89,.78,1.56,1.72,2.46,2.49s1.77,1.74,2.66,2.59c3.12,3,6.89,5.25,10.49,7.64,6.78,4.51,13.52,9.09,20.17,13.79s13.17,9.64,19.81,14.39c6.53,4.68,13.38,8.71,20.54,12.35,3.98,2.02,7.95,4.13,12.1,5.76,1.96,.77,3.98,1.43,6.05,1.85,1.09,.22,2.2,.37,3.31,.44,1.61,.1,2.5-1.61,3.29-2.8,.26-.39,.07-1.46,.06-1.91s.15-1.53-.15-1.9c-.69-.85-1.62-2.31-2.76-2.62-.95-.26-2.11-.14-3.1-.31-1.85-.31-3.67-.82-5.43-1.45-3.76-1.33-7.31-3.17-10.87-4.95-7.17-3.59-14.18-7.37-20.77-11.95-6.69-4.65-13.14-9.64-19.78-14.36-6.61-4.71-13.29-9.32-20.1-13.74-1.93-1.25-3.86-2.49-5.8-3.72-1.82-1.15-3.81-2.55-5.83-3.29-1.76-.64-3.81-1.29-5.63-1.47-2.16-.21-3.91-2-6.09-2.34-.04,0-.05,1.07,.03,1.18,.29,.39,.59,.77,.85,1.18,0-.01,.01-.08,0-.11h0Z"/><path class="cls-2" d="M917.52,423.01c3.44,2.16,6.71,4.58,10.08,6.85s6.41,4.41,9.44,6.84c5.9,4.71,11.84,9.38,17.64,14.21,11.42,9.52,22.35,19.72,34.71,28.06,3.32,2.24,6.76,4.57,10.43,6.2,1.81,.8,3.75,1.44,5.74,1.54,.47,.02,.93,.03,1.4-.04,.66-.1,.95-.28,1.32-.83,.91-1.33,1.72-2.78,2.48-4.19,.12-.23,.1-2.46-.06-2.48-.87-.09-1.44-.41-2.12-.96-.38-.3-.7-.74-1.17-.81-.42-.06-.95,.06-1.37,.06-1.72,.03-3.42-.39-5.03-.97-3.41-1.25-6.54-3.31-9.57-5.27-6.24-4.02-12.12-8.57-17.83-13.29s-11.35-9.67-17.05-14.48c-2.82-2.38-5.67-4.71-8.61-6.95s-5.71-4.38-8.86-6.1c-3.33-1.82-6.74-3.62-10.26-5.02-1.79-.71-3.6-1.23-5.46-1.73s-3.85-.77-5.85-1.03c0,0-.03,.37,0,.4h0Z"/><path class="cls-2" d="M428.45,367.16c36.36-9.7,73.07-17.69,110.34-22.99,37.23-5.3,74.8-8.19,112.4-8.69s75.25,1.38,112.62,5.64c37.2,4.24,74.13,10.82,110.49,19.74,36.52,8.96,72.46,20.27,107.51,33.91,4.39,1.71,8.78,3.43,13.16,5.18-.02-.01,.03-.25,0-.27-34.74-14.39-70.58-26.2-106.94-35.75s-73.36-16.75-110.66-21.58c-37.3-4.83-74.91-7.3-112.52-7.38s-74.88,2.21-112.03,6.87c-37.31,4.69-74.32,11.78-110.7,21.29-4.58,1.2-9.13,2.51-13.67,3.83-.02,0,0,.18,0,.18h0Z"/><path class="cls-2" d="M940.68,387.29c-7.8-1.46-15.52-3.74-23.27-5.51-7.63-1.74-15.27-3.4-22.93-4.98-15.62-3.22-31.3-6.11-47.04-8.67-31.32-5.09-62.84-8.77-94.48-11.12-31.63-2.35-63.34-3.37-95.06-3.04-31.55,.33-63.09,1.96-94.51,4.91-31.55,2.96-63.11,7.21-94.22,13.27-3.92,.76-7.83,1.55-11.75,2.35-.03,0,0,.31,0,.31,31.23-5.45,62.57-9.92,94.1-13.2s63.21-5.24,94.92-5.88c31.7-.64,63.43,.02,95.08,1.97,31.49,1.94,62.89,5.2,94.12,9.63,31.36,4.45,62.54,10.21,93.41,17.29,3.87,.89,7.82,1.63,11.62,2.78,0,0,0-.11,0-.11h0Z"/><path class="cls-2" d="M542.02,379.26c-.9,.06-1.8,0-2.7,.05-1.16,.07-1.25,.05,0,0,1.79-.07,3.6-.38,5.38-.59,3.88-.46,7.77-.91,11.66-1.35,7.33-.82,14.67-1.6,22.01-2.34,14.84-1.48,29.7-2.78,44.57-3.86,29.44-2.15,58.95-3.5,88.47-3.8,58.88-.59,117.95,2.58,176.25,11.05,16.28,2.37,32.52,5.11,48.65,8.38s31.18,7.08,45.84,13.49l-.07-2.79c-29.73-6.77-59.69-12.55-89.77-17.57-29.99-5.01-60.06-9.83-90.31-12.97-30.32-3.15-60.8-5.06-91.27-5.78-30.43-.71-60.99-.67-91.39,1.01-30.55,1.69-60.79,5.97-91.04,10.39-3.7,.54-7.4,1.23-11.12,1.67-.08,0,.02,1.24,.03,1.24,15.04-1.81,30.38-2.22,45.51-2.83,15.21-.61,30.42-1.16,45.63-1.56,30.33-.8,60.58-2,90.94-1.61s60.9,1.64,91.28,3.77c30.28,2.12,60.68,4.36,90.76,8.55,30.17,4.2,60.13,9.57,89.89,16.05,3.65,.79,7.29,1.6,10.93,2.43-.2-.04,.26-2.65-.07-2.79-13.05-5.68-26.82-9.4-40.71-12.36s-28.66-5.51-43.07-7.74c-28.79-4.45-57.78-7.59-86.85-9.55-58.54-3.96-117.4-2.86-175.9,1.37-32.71,2.36-65.56,5.3-98.01,10.09-.02,0,0,.2,0,.19,1.5-.06,3-.16,4.5-.13,0,0,0-.11,0-.11h0Z"/><path class="cls-2" d="M535.37,375.9c56.41-1.37,112.82-2.53,169.25-1.82,55.97,.71,111.94,3.21,167.54,9.91,31.22,3.76,62.27,8.86,92.99,15.59l-.09-3.54c-29.32-4.53-58.74-8.6-88.17-12.31-29.47-3.72-58.98-6.84-88.62-8.84-58.83-3.97-117.92-5.05-176.85-2.92-16.59,.6-33.16,2.64-49.69,4.1-16.57,1.47-33.07,3.49-49.62,5.21-.1,.01,.02,1.95,.05,1.95,29.55-1.88,59.22-2.07,88.81-2.12,14.82-.02,29.63-.61,44.44-.84,14.81-.23,29.63-.29,44.45-.17,58.91,.45,117.82,3.34,176.55,7.97,33.08,2.61,65.94,6.5,98.74,11.5-.13-.02,.24-3.47-.09-3.54-54.92-11.91-110.83-18.56-166.9-21.82s-112.11-3.17-168.17-1.58c-31.55,.9-63.09,2.02-94.64,3.21v.04h0Z"/></g><g><path class="cls-4" d="M302.17,388.37c19.69,15.87,42.64,27.42,66.67,35.13,26.09,8.37,53.54,12.18,80.89,12.67,7.89,.14,15.79,.05,23.67-.36,8.08-.42,16.06-1.2,24.06-2.4,.08-.01,.06-.36,0-.35-14.12,.96-28.27,2.01-42.43,2.1-14.14,.1-28.3-.67-42.33-2.48-25.79-3.34-51.19-10.46-74.58-21.9-12.71-6.21-24.79-13.73-35.93-22.45,0,0-.01,.04,0,.04h0Z"/><path class="cls-4" d="M489.98,438.31c-.95-.63-1.81-1.4-2.69-2.12-.38-.3-.9-.58-.55-1.01,.3-.38,1.17-.54,1.64-.62,1.92-.32,3.9,.36,5.71,.94,4.48,1.44,9,2.75,13.55,3.93,9.17,2.38,18.47,4.24,27.83,5.69,18.8,2.92,37.83,4.22,56.84,4.82,19.27,.61,38.58,.6,57.86,.61,19.73,0,39.45-.27,59.16-1.36s39.25-3.12,58.68-6.27c1.09-.18,2.26-.27,3.33-.55,1.28-.34,2.37-1.77,3.33-2.64,.2-.19,.24-1.27-.03-1.41-.86-.43-1.94-1.25-2.87-1.44-1.11-.22-2.77,.41-3.88,.61-2.4,.43-4.81,.84-7.22,1.22-4.81,.78-9.65,1.45-14.48,2.08-9.67,1.25-19.38,2.24-29.1,3.04-19.38,1.59-38.81,2.52-58.25,3.1-19.18,.57-38.38,.96-57.58,.91-18.74-.05-37.51-.63-56.15-2.69-9.3-1.03-18.57-2.42-27.74-4.28-4.58-.93-9.14-1.98-13.66-3.16-2.27-.59-4.52-1.21-6.77-1.87-1.99-.58-3.99-1.35-6.06-1.61-1.69-.22-3.33-.02-4.64,1.13-.03,.03-.03,.16,0,.19,1.25,.94,2.57,1.83,3.73,2.87,.01,0,.03-.09,0-.11h0Z"/><path class="cls-4" d="M830.81,417.33c-.37-2.33-3.25-2.63-5.16-2.51-4.04,.25-8.11,.9-12.12,1.51-8.32,1.26-16.59,2.85-24.78,4.79-4.13,.98-8.25,2.04-12.34,3.19-2.01,.56-4.01,1.14-6,1.75-1.21,.37-2.68,.8-3.36,1.98-1.3,2.25,.98,4.47,2.64,5.68,3.18,2.32,6.49,4.48,9.81,6.59,13.06,8.29,26.97,15.25,41.44,20.75,3.68,1.4,7.4,2.7,11.15,3.91,3.21,1.03,6.59,2.34,9.49-.1,2.23-1.88,3.33-4.82,4.73-7.3,1.61-2.86,3.4-5.61,5.46-8.17,8.28-10.31,19.86-17.78,32.7-20.94,1.61-.4,3.17-.91,4.74-1.43,.24-.08,.23-1.15-.03-1.15-6-.14-12.13,2.41-17.42,5.06s-10.71,6.43-15.11,10.8-8.03,9.21-10.72,14.59c-1.35,2.7-2.36,5.9-4.69,7.96-2.91,2.58-6.83,.76-10.02-.27-14.13-4.56-27.8-10.5-40.78-17.72-6.36-3.54-12.55-7.38-18.54-11.51-1.37-.95-2.9-1.84-4-3.11-2.59-2.96,.37-4.5,2.75-5.23,3.83-1.17,7.69-2.26,11.57-3.28,8.53-2.24,17.16-4.11,25.85-5.61,4.43-.76,8.87-1.43,13.32-2.03,2.36-.32,8.79-1.93,9.4,1.84,0,.03,.01-.01,.01-.02h0Z"/><path class="cls-4" d="M837.7,418.84c-2.59-1.1-5.02-2.5-7.26-4.2v.47c8.2,1.53,16.4,3.09,24.61,4.58s16.11,3.11,24.23,3.7c4.74,.34,9.09,0,13.57-1.65,.11-.04,.09-.54-.01-.53-7.93,.89-15.92,.04-23.77-1.13s-16.34-2.42-24.53-3.53c-4.71-.64-9.41-1.28-14.12-1.92-.1-.01-.08,.42,0,.47,2.27,1.57,4.7,2.83,7.29,3.79,0,0,.01-.04,0-.04h0Z"/><path class="cls-4" d="M885.92,421.86c2.7-1.41,6.19-.67,8.14,1.64v-.34c-1.64,1.26-3.4,2.35-5.3,3.17s-3.8,1.31-5.78,1.68c-.05,.01-.04,.23,0,.22,4.01-.41,8-2.19,11.1-4.73,.07-.06,.05-.28,0-.34-2.01-2.27-5.53-2.82-8.16-1.34,0,0,0,.05,0,.04h0Z"/><path class="cls-4" d="M894.06,421.12c-.47-1.14-1.96-1.63-2.86-.64-.02,.02-.03,.12,0,.13,3.34,2.11,7.36,1.7,11.12,1.36,4.69-.43,9.38-.79,14.08-1.08,9.4-.57,18.83-.88,28.25-.91,18.95-.06,37.89,.7,56.73,2.72,5.25,.56,10.5,1.18,15.74,1.9,2.58,.35,5.15,.73,7.72,1.12,2.74,.42,5.4,.34,8.16,.26,.21,0,.17-.95-.03-1.02-2.39-.88-4.73-1.77-7.24-2.24s-4.83-.72-7.24-1.05c-4.75-.65-9.51-1.25-14.27-1.74-9.62-.98-19.26-1.66-28.92-2.04-19.35-.77-38.69-.15-57.96,1.76-5.32,.52-10.62,1.16-15.93,1.85-2.28,.29-4.62,.57-6.9,.18-.5-.08-3.23-.61-3.13-1.26,.06-.35,1.04-.4,1.29-.37,.65,.08,1.2,.46,1.35,1.14,.02,.07,.04-.04,.03-.07h0Z"/><path class="cls-4" d="M1026.24,428.45c3.09,.07,6.45,1.22,9.34,2.25s5.93,2.46,8.68,4.1c5.4,3.23,10.26,7.32,15.14,11.26,10.45,8.44,20.9,16.89,31.36,25.32,2.56,2.07,5.13,4.17,7.98,5.83,1.2,.7,2.45,1.32,3.75,1.81,.75,.28,1.53,.51,2.32,.68,.26,.06,.53,.1,.79,.15,1.34,.21,1.49,.08,2.86,1.26,.26,.23,.49-.06,.59-.3,1.2-3.06,.64-6.98-.34-10.05-.74-2.33-1.99-4.9-2.39-6.95-.05-.27-.1-.54-.03-.11-.05-.29-.25-2-.18-1.28,.04,.42-.02-.33-.03-.41-.02-.29-.02-.25,0,.13l-.07-1.06c-.02-.25,0-.49-.01-.1-.02,.35,.03-.42,.04-.49,.04-.52,.11-1.04,.2-1.55,.48-2.7,1.57-5.26,2.91-7.64,.23-.41-.03-2.82-.35-2.5-3.51,3.51-4.89,8.78-4.95,13.63-.04,3.3,.39,6.62,1.52,9.74,.51,1.42,1.15,2.77,1.74,4.16,.2,.47,.38,.94,.54,1.42,.18,.53,.25,.58,.07,0l.05,.37c.37,.57,.37,.86,0,.86l.2-.61c-5.84,.08-10.78-3.42-15.17-6.87-5.32-4.18-10.61-8.41-15.92-12.61-5.29-4.19-10.59-8.39-15.88-12.58-4.92-3.9-9.77-7.97-15.16-11.21-2.85-1.71-5.84-3.17-8.98-4.28-1.71-.61-3.46-1.11-5.24-1.52s-3.62-.54-5.39-.97c-.02,0-.03,.11,0,.11h0Z"/><path class="cls-4" d="M302.04,386.91c5.66-8.6,15.77-13.01,25.1-16.38,10.68-3.86,21.55-7.27,32.39-10.65,22.23-6.94,44.66-13.22,67.27-18.78,45.63-11.22,92.01-19.53,138.77-24.28,46.27-4.71,92.92-5.92,139.34-2.94,46.29,2.97,92.33,10.14,137.18,22.03,46.51,12.32,91.18,30.85,138.11,41.68,5.76,1.33,11.55,2.53,17.37,3.61,.37,.07,.63-2.94-.08-3.06-47.76-7.66-93.05-25.36-139.32-38.79-45.02-13.07-91.38-21.32-138.09-25.19-46.75-3.87-93.82-3.4-140.53,.69-47.03,4.12-93.71,11.9-139.67,22.67-22.9,5.37-45.62,11.48-68.13,18.27-11.23,3.39-22.41,6.95-33.53,10.67-9.1,3.04-18.63,5.85-26.69,11.21-3.76,2.5-6.82,5.56-9.53,9.15-.02,.02,0,.13,.02,.1h0Z"/><path class="cls-4" d="M737.03,315.79c2.02-.61,4.22-.66,6.3-1.04s3.98-.82,5.94-1.36c4.01-1.1,7.92-2.52,11.76-4.1,7.79-3.21,15.33-7.07,22.92-10.72,16.36-7.87,32.72-15.73,49.08-23.6,9.26-4.46,18.53-8.91,27.79-13.38l-.26-.72c-.44,10.74-7.19,19.69-12.53,28.55-2.62,4.36-5.1,8.88-6.58,13.77s-1.92,10.59-1.18,15.88c.41,2.92,1.14,5.8,2.21,8.55s2.29,5.46,4.38,7.51c.1,.1,.11-.49,.06-.57-1.36-2.55-2.85-5.05-3.93-7.73s-1.81-5.4-2.2-8.21c-.78-5.58-.19-11.23,1.71-16.54,3.35-9.4,9.88-17.18,14.29-26.05,2.31-4.66,3.95-9.63,4.16-14.86,0-.12,0-.85-.26-.72-16.28,7.91-32.55,15.85-48.82,23.79-8.06,3.93-16.12,7.86-24.19,11.79s-15.61,7.76-23.55,11.35c-4.36,1.97-8.78,3.82-13.34,5.26-2.23,.71-4.5,1.32-6.79,1.8s-4.74,.58-6.96,1.3c-.01,0,0,.05,0,.04h0Z"/><path class="cls-4" d="M875.53,346.42c30.79-5.13,61.18-12.46,91.08-21.43,8.41-2.52,16.83-5.05,25.14-7.88l-.2-1.83c-4.85,8.24-7.41,17.66-7.54,27.21-.07,5.2,.93,10.29,1.22,15.47,.15,2.76-.11,5.43-.62,8.14-.44,2.37-.91,4.73-.96,7.15-.04,2.14,.14,4.34,1.62,6.02,.99,1.12,2.85,1.32,3.83,.1,.13-.16,.03-.94-.1-.81-1.42,1.39-2.85-.41-3.7-1.54-1.37-1.82-.97-4.31-.65-6.42s.84-4.39,1.11-6.61,.29-4.35,.16-6.53c-.28-4.57-1.16-9.08-1.21-13.67s.51-8.87,1.6-13.16c1.22-4.8,3.12-9.38,5.6-13.66,.12-.21,.2-1.97-.2-1.83-14.87,5.23-29.79,10.18-44.96,14.49s-30.07,8.06-45.27,11.4c-8.62,1.89-17.27,3.69-25.94,5.34-.01,0,0,.05,0,.04h0Z"/><path class="cls-4" d="M987.35,378.13c2.11-.38,4.34-.34,6.48-.58s4.31-.49,6.47-.75c4.31-.52,8.61-1.08,12.9-1.73,8.59-1.3,17.15-2.78,25.67-4.44,17.05-3.32,33.94-7.36,50.67-12.04,8.15-2.28,16.27-4.7,24.2-7.68,7.83-2.94,15.32-6.57,22.64-10.61,12.76-7.05,25.52-14.6,36.99-23.64,10.49-8.26,20.03-18.3,25.23-30.79,.63-1.51,1.19-3.05,1.69-4.61,.11-.35-.07-2.72-.52-2.01-6.92,10.96-9.28,23.87-11.51,36.44-1.14,6.44-2.28,12.88-4.02,19.19s-4.16,12.85-6.95,18.99c-11.2,24.64-28.66,45.89-46.16,66.29-4.84,5.64-9.96,11.09-15.7,15.82-2.68,2.21-5.85,3.87-8.38,6.26-1.31,1.24-2.04,2.66-2.45,4.42-.17,.75-.28,1.52-.27,2.3,0,.33,0,.67,.06,1,.02,.13,.17,1.1,.13,.6,.02,.24,.13,.83,.47,.7,.32-.12,.25-1.04,.23-1.26l-.03-.34-.14,1.15c.2-.35,.24-.74,.5-1.06,.29-.37,.75-.55,1.09-.85,1.09-.95,2.08-1.89,3.27-2.73,2.71-1.93,5.36-3.96,7.85-6.17,5.07-4.5,9.43-9.77,13.64-15.07,8.05-10.16,15.87-20.53,23.5-31.01s15.19-21.99,21.05-33.97c2.84-5.8,5.31-11.78,7.31-17.93s3.41-12.43,4.59-18.78c2.65-14.28,4.45-29.23,12.38-41.76l-.52-2.01c-4.21,12.96-13.18,23.55-23.48,32.19-10.88,9.13-23.22,16.48-35.38,23.74-7.35,4.39-14.87,8.45-22.78,11.76-7.69,3.22-15.59,5.88-23.56,8.3-16.46,5.01-33.16,9.24-49.99,12.82-16.78,3.57-33.71,6.43-50.7,8.78-2.13,.29-4.32,.86-6.47,.96-.03,0-.02,.12,0,.11h0Z"/><path class="cls-4" d="M1037.78,426.57c2.87,.34,5.7,1.21,8.58,1.58s5.62,.61,8.44,.73c5.47,.24,10.98,.04,16.42-.64,9.08-1.14,18.13-3.68,26.06-8.33,4.52-2.65,8.62-5.97,12.05-9.93,.04-.05,0-.24-.02-.21-12.9,14.6-33.86,19.21-52.59,18.83-3.14-.07-6.29-.28-9.41-.64s-6.54-.55-9.54-1.5c-.01,0-.03,.11,0,.11h0Z"/><path class="cls-4" d="M1130.55,386.54c-9.62,12.94-22.4,23.54-36.84,30.69-4.23,2.09-8.61,3.88-13.09,5.36-.04,.01-.02,.14,0,.13,15.45-5.03,29.59-13.79,40.91-25.45,3.25-3.35,6.26-6.93,9.02-10.69,0,0,0-.05,0-.04h0Z"/><path class="cls-4" d="M483.56,393.79c1.21-1.05,.92-3.08-.52-3.78,0,0-.01,0-.01,0-3.56,6.34,.2,13.89,5.28,18.15,7.47,6.24,18.18,6.03,27.2,8.21,10.25,2.49,19.28,8.12,28.38,13.22s18.06,9.7,28.2,10.36c4.77,.31,9.64-.33,14.11-2.08s8.15-4.82,10.82-8.57c.07-.09,.07-.72-.07-.62-3.76,2.55-8.72,2.77-12.69,.56-.05-.03-.07,.22-.02,.26,3.93,2.38,8.91,2.29,12.77-.2l-.07-.62c-4.82,6.49-13.36,9.48-21.21,9.78-9.66,.36-18.97-3.37-27.41-7.7s-16.86-9.75-26.01-13.1c-4.61-1.69-9.35-2.61-14.18-3.36s-9.83-1.5-14.41-3.4c-4.16-1.72-7.73-4.67-9.99-8.58-1.22-2.11-2.04-4.5-2.05-6.95,0-1.38,.25-2.76,.78-4.04,.22-.54,.41-1.23,1.06-.94,.18,.08,.49,.58,.51,.63l.05,2.09c-.13,.26-.3,.47-.52,.64,0,0,0,.05,0,.04h0Z"/><path class="cls-4" d="M481.66,390.89c-1.17-.26-1.77-1.61-1.16-2.84,.22-.45,.59-.83,.98-1.15,.78-.62,1.74-1.05,2.67-1.39,1.74-.64,3.6-.94,5.46-.94,3.85,.02,7.58,1.26,10.52,3.78,.03,.02,.06-.17,.01-.21-3.72-3.25-8.92-4.61-13.75-3.54-1.94,.43-4.69,1.28-5.78,3.09-.68,1.13-.43,2.94,1.05,3.24,0,0,.01-.04,0-.04h0Z"/><path class="cls-4" d="M502.63,389.75c2.81,.54,5.56,1.61,8.35,2.28s5.63,1.21,8.48,1.65,5.55,.76,8.33,1,5.93,.54,8.86,.41c.06,0,.06-.26,0-.27-2.79-.23-5.59-.22-8.38-.45s-5.73-.57-8.57-1.01-5.51-.96-8.25-1.52c-2.9-.6-6.06-1.1-8.81-2.21-.03-.01-.04,.11,0,.11h0Z"/><path class="cls-4" d="M531.37,402.36l.75-.75s.01-.05,.01-.07c0,0,0-.05-.02-.04l-.75,.75s-.01,.05-.01,.07c0,0,0,.05,.02,.04h0Z"/><path class="cls-4" d="M541.86,402.39c-1.12-.52-2.17-1.25-3.23-1.88-.1-.06-.12,.41-.03,.48,4.15,3.46,9.07,6.08,13.94,8.36s9.87,4.01,14.98,5.6c5.24,1.63,10.52,3.11,15.77,4.71s10.67,3.22,15.62,5.62c.8,.39,3.14,1.58,2.87,2.7-.15,.64-1.29,1.28-1.77,1.61-.71,.49-1.43,.98-2.14,1.46-3.09,2.08-6.04,4.37-9.13,6.45-.13,.09-.07,.75,.07,.68,3-1.48,6.06-2.98,8.88-4.78,2.22-1.43,5.04-2.78,4.85-5.8-.15-2.56-2.25-3.88-4.4-4.81-2.59-1.12-5.23-2.12-7.89-3.04-11.19-3.88-22.77-6.47-33.95-10.37-6.34-2.21-12.08-5.18-17.67-8.87l-.03,.48c1.08,.48,2.23,.91,3.25,1.51,.02,.01,.03-.1,0-.11h0Z"/><path class="cls-4" d="M431.06,372.79c-.34-.24-.7-1.62-.33-1.86l-.15-.81c-.88,1.64-1.28,3.58-1.69,5.38-.47,2.09-.81,4.21-1.01,6.34s-.27,4.18-.21,6.27,0,4.37,.6,6.33l.32-1.61c-.41-.02-.01-.5,.18-.62,.13-.08,.14-.72-.05-.7-1.6,.22-.92,2.67-.19,3.42,.37,.37,.5-.99,.5-1.04-.05-2-.51-3.99-.59-6s-.03-3.86,.13-5.79,.45-3.88,.86-5.79,1-3.69,1.39-5.57c.02-.1-.1-.9-.24-.6-.44,.92-.5,2.11,.47,2.71,0,0,.01-.04,0-.04h0Z"/><path class="cls-4" d="M452.9,369.74c.89-.42,.73-1.22,.7-2.04-.01-.32-.31-1.38-.62-.63-1.93,4.61-2.7,9.88-3.1,14.83-.2,2.57-.27,5.16-.18,7.73s.05,5.81,.9,8.38l1.47-2.92c-.78-1.67-.41-3.5,.15-5.24,.08-.25-.07-1.44-.37-.84-1.15,2.37-1.51,5.19-1.41,7.81,.02,.57,.15,2.38,1.04,2.36s.94-1.89,.92-2.4c-.1-2.48-.72-4.94-.92-7.41-.19-2.31-.23-4.65-.12-6.97s.36-4.76,.75-7.12c.21-1.26,.44-2.52,.71-3.77,.14-.62,.29-1.24,.44-1.87,.08-.32,.15-.64,.21-.97,.03,.53-.16,.88-.56,1.04-.01,0,0,.05,0,.04h0Z"/><path class="cls-4" d="M475.04,363.67c-.89-.37-2.36,5.38-2.5,6.03-.59,2.77-.97,5.58-1.17,8.41s-.24,5.76-.08,8.64c.18,3.21,.31,6.69,1.4,9.75,.71,1.99,2.09,.53,2.32-.78,.45-2.58,1.09-5.4,.76-8.03-.05-.39-.38-1.03-.67-.4-.54,1.21-.67,2.46-1.91,3.2l1.97,3.41c-.07-2.71-.75-5.59-.92-8.16s-.27-5.37-.16-8.04c.11-2.81,.41-5.61,.63-8.41,.11-1.4,.33-2.8,.41-4.2,0-.12,.14-1.32-.09-1.41h0Z"/><path class="cls-4" d="M496.88,361.58c.5-.4-.03-1.09-.18-1.57-.11-.34-.28-1.07-.76-1.07-.06,0-.51,.07-.27,.08-.24,.04-.42,.17-.54,.4-.91,1.45-1.25,3.23-1.57,4.89-.34,1.8-.52,3.65-.61,5.48-.2,3.89-.26,8.12,.74,11.92l.11-4.46-.23,.81,.4-.63c-.45,.34-1.47-.12-1.96-.24-.57-.14-.37,1.75-.16,1.99,.67,.76,1.57,1.52,1.84,2.53,.16,.6,.71,2.27,1.64,1.65s1-2.61,.95-3.57c-.06-1.08-.19-2.15-.29-3.23-.12-1.21,.03,.76-.04-.45-.02-.37-.04-.74-.05-1.11-.04-.86-.05-1.73-.06-2.59,0-1.21-.05,.76,0-.45,.02-.43,.04-.86,.07-1.3,.06-.8,.14-1.6,.23-2.4,.04-.37,.08-.75,.13-1.12,.03-.25,.06-.5,.09-.75-.02,.19-.02,.17,.01-.07,.14-.99,.27-1.99,.36-2.98,.04-.51,.09-1.03,.08-1.55-.07-1.05-.08-.99-.01,.19,0-.17,.03-.34,.07-.51-.05,0-.01,.13,0,.11h0Z"/><path class="cls-4" d="M356.41,374.6c.04-.05,.13-.02,.18-.04,.05-.02,.08-.05,.1-.1,.05-.09,.05-.21,.03-.31-.03-.23-.17-.54-.42-.59-.15-.03-.31,.07-.39,.19-.12,.16-.14,.37-.12,.56,.03,.41,.27,.84,.67,1,.66,.26,1.38-.18,1.93-.52,.07-.05,.06-.24,.05-.3-.11-.74-.58-1.4-1.27-1.7-.16-.07-.32-.12-.5-.15-.07-.01-.2-.05-.26,0s-.09,.14-.12,.22c-.14,.35-.12,.79,.03,1.13,.12,.3,.41,.5,.74,.48,.09,0,.07-.29,0-.31-.28-.09-.46-.33-.58-.59,0-.02-.02-.05-.03-.07,0,0-.02-.07-.01-.04,0-.02,0-.03-.01-.05,0,.03,0,.03,0,0,0-.04,0-.03,0,0,0-.04,0-.03,0,0,0-.01,0-.08,0-.03,0-.05,0-.03,.02-.06,.02-.06,.05-.11,.09-.16l-.05,.04c.8,0,1.66,.6,1.8,1.42l.05-.3c-.46,.3-.97,.64-1.54,.63-.39,0-.72-.23-.86-.6-.05-.13-.05-.26,.03-.39s.2-.23,.35-.23c.24,0,.39,.3,.4,.51,0,.13-.03,.27-.17,.3-.02,0-.07,.02-.09,0,0,0-.04-.08-.06-.06s0,.13,.02,.1h0Z"/><path class="cls-4" d="M356.89,370.04c-2.77,.78-6.8,2.64-7.21,5.9-.15,1.22,.43,2.38,1.56,2.91,1.48,.69,3.32,.43,4.88,.24,2.04-.26,4.06-.72,6.01-1.38,1.31-.44,3.44-.95,4.07-2.35,.54-1.2-.3-2.26-1.17-3.02-1.16-1-2.54-1.73-4-2.19-3.54-1.09-7.31-.54-10.22,1.78-.07,.06-.04,.39,.04,.34,4.26-2.75,10.47-2.58,14.3,.85,.28,.25,.82,.69,.9,1.09,.11,.58-.2,1.02-.61,1.37-.53,.44-1.2,.71-1.84,.97-1.58,.65-3.22,1.17-4.89,1.55-1.51,.34-3.05,.59-4.59,.68-1.3,.07-2.95,0-3.83-1.1-1.38-1.72,.41-3.99,1.78-5.08s3.09-1.97,4.82-2.52c.01,0,0-.05,0-.04h0Z"/><path class="cls-4" d="M304.07,387.9c-.29,2.22,3.28,1.51,4.44,1.29,4.24-.8,8.49-1.58,12.72-2.41,8.4-1.63,16.8-3.32,25.19-4.98,4.81-.95,9.62-1.9,14.43-2.87,.04,0,.02-.14,0-.13-9.79,1.86-19.57,3.8-29.35,5.71-4.89,.96-9.79,1.91-14.68,2.9l-7.34,1.5c-.99,.2-2,.51-3.01,.57-.77,.04-2.81-.18-2.38-1.51,.01-.04-.02-.14-.03-.07h0Z"/><path class="cls-4" d="M392.49,376.4c2.81-.78,5.88-.99,8.76-1.43s5.85-.88,8.77-1.3c5.77-.84,11.55-1.67,17.33-2.45,11.65-1.56,23.32-2.96,35.01-4.17,23.3-2.43,46.67-4.17,70.07-5.21,13.22-.59,26.45-.93,39.68-1.13,.02,0,.02-.09,0-.09-23.5,.17-47.01,1.19-70.45,2.84-23.36,1.65-46.68,3.98-69.91,7.01-6.52,.85-13.03,1.74-19.54,2.71-3.25,.49-6.5,1-9.75,1.52-1.62,.26-3.25,.52-4.87,.79s-3.41,.71-5.11,.8c-.03,0-.02,.12,0,.11h0Z"/><path class="cls-4" d="M456.54,356.46c8.55-2.26,17.5-3.54,26.2-5.08s17.86-3.07,26.82-4.43c17.59-2.67,35.26-4.84,52.98-6.53,35.6-3.4,71.38-4.83,107.13-4.32s71.49,2.97,106.97,7.36c35.49,4.39,70.74,10.71,105.53,18.94,34.81,8.24,69.1,18.46,102.8,30.42,4.19,1.49,8.37,3.01,12.54,4.55,0,0,.02-.08,0-.09-33.47-12.59-67.69-23.19-102.37-31.9s-69.84-15.51-105.26-20.39c-35.43-4.87-71.12-7.82-106.87-8.81-35.74-1-71.54-.05-107.18,2.85-35.64,2.91-71.14,7.72-106.21,14.69-4.35,.86-8.7,1.96-13.08,2.64-.03,0-.02,.12,0,.11h0Z"/><path class="cls-4" d="M301.88,390.74c19.82,14.4,39.96,28.53,63.38,36.43,12.62,4.26,25.84,5.91,39.05,7.17s27.64,1.96,41.48,2.11c7.66,.08,15.32,0,22.98-.23,3.87-.12,7.74-.26,11.6-.45,1.97-.1,3.95-.21,5.92-.33,.98-.06,1.99-.06,2.96-.2s1.69-.85,2.49-1.4c.24-.16,.23-1.32-.04-1.45-.63-.32-1.37-.87-2.06-1.03s-1.73,.12-2.46,.18c-1.81,.15-3.61,.3-5.42,.43-3.45,.26-6.91,.48-10.36,.67-6.91,.38-13.83,.6-20.75,.7-13.67,.2-27.33-.19-40.99-.91-13.34-.7-26.85-1.55-39.83-4.89-11.8-3.04-22.96-8.28-33.51-14.32-11.93-6.83-23.21-14.75-34.44-22.65-.03-.02-.05,.14-.01,.17h0Z"/><path class="cls-4" d="M487.42,432.96c13.89,4.39,28.11,7.68,42.45,10.19,14.32,2.5,28.77,4.53,43.27,5.61,28.98,2.15,58.26,2.22,87.26,.43,16.36-1.01,32.68-2.69,49.02-3.91,.19-.01,.15-.94-.02-.93-14.62,.8-29.23,1.33-43.87,1.66-14.66,.34-29.31,1.06-43.97,1.3-14.44,.24-28.89,.11-43.32-.61s-28.97-1.69-43.31-3.76c-16.04-2.32-31.9-5.69-47.51-10.07-.01,0-.02,.08,0,.09h0Z"/><path class="cls-4" d="M829.31,415.76c-1.49,.28-3.05,.26-4.56,.43s-3.03,.42-4.53,.66c-3.07,.48-6.14,1-9.21,1.51l-18.9,3.11-18.66,3.07-4.66,.77c-1.42,.23-3,.32-4.37,.77s-1.81,1.84-1.23,3.14c.43,.97,1.34,1.62,2.15,2.27,1.13,.9,2.26,1.81,3.39,2.71,2.15,1.72,4.32,3.42,6.49,5.11,4.36,3.38,8.75,6.74,13.33,9.82,8.92,6.01,18.38,11.25,28.5,14.97,5.07,1.87,10.39,3.43,15.82,3.58,2.18,.06,4.58-.12,6.67-.79,2.5-.81,3.77-3.32,4.65-5.65,.06-.17,.07-1.62-.21-1.37-1.22,1.1-2.84,1.47-4.18,2.37-1.73,1.16-3.6,1.81-5.66,2.12-4.32,.63-8.52-.21-12.68-1.35-9.87-2.71-19.03-7.14-27.73-12.49-8.78-5.4-17.1-11.5-25.27-17.77-.96-.74-1.92-1.48-2.88-2.22-.47-.36-.98-.71-1.4-1.13-.82-.8-.94-1.88,.27-2.32,1.06-.39,2.28-.46,3.39-.66l4.66-.82,17.67-3.09,19.63-3.44c3.24-.57,6.48-1.14,9.72-1.7,1.59-.27,3.18-.51,4.77-.77s3.35-.71,5.03-.72c.03,0,.02-.12,0-.11h0Z"/><path class="cls-4" d="M800.82,455.69c7.79,3.49,15.8,5.73,24.1,7.61,1.97,.45,3.96,.82,5.95,1.17,1.85,.33,3.56,.3,5.43,.36,1.68,.05,3.15,.31,4.78-.31,1.49-.57,2.69-1.91,3.63-3.15,2.01-2.66,3.56-5.66,5.51-8.37s4.29-5.35,6.73-7.76c4.88-4.83,10.62-8.86,16.91-11.62,3.49-1.53,7.12-2.72,10.84-3.52,1.83-.4,3.67-.65,5.53-.91,.94-.13,1.99-.18,2.83-.62,1.02-.54,1.86-1.35,2.77-2.03,.29-.22,.25-1.37-.04-1.58-.76-.55-1.5-1.22-2.33-1.67s-1.54-.51-2.46-.5c-1.67,.02-3.35,.27-5,.54-3.31,.55-6.56,1.41-9.71,2.54-6.3,2.27-12.3,5.59-17.5,9.81s-9.74,9.58-12.82,15.59c-.88,1.73-1.57,3.54-2.58,5.21s-2.42,2.84-3.94,3.89c-1.63,1.12-3.14,1.86-5.13,1.99-1.83,.12-3.66,.14-5.49,0-9.58-.71-19.06-3.26-28.01-6.69-.01,0-.01,.04,0,.04h0Z"/><path class="cls-4" d="M831.72,416.33c1.91-1.35,4.26-.76,6.36-.28,2.54,.58,5.08,1.14,7.64,1.63,5.18,1.01,10.39,1.89,15.61,2.65,10.28,1.49,20.64,2.51,31.02,3.04,5.92,.3,11.84,.35,17.77,.28,.04,0,.04-.18,0-.18-21.1-.13-42.21-1.94-62.96-5.83-2.87-.54-5.73-1.09-8.59-1.67-2.25-.46-4.82-1.16-6.84,.33,0,0,0,.05,0,.04h0Z"/><path class="cls-4" d="M894.26,424.9l-4.68-.07v.25c9.05-3.82,19.04-4.47,28.72-5.02,10.36-.59,20.74-.76,31.11-.67,20.83,.2,41.65,1.92,62.23,5.15,5.72,.9,11.42,1.91,17.1,3.05s11.56,2.48,17.42,3.37c.07,.01,.11-.58-.02-.62-9.94-3.31-20.42-5.06-30.74-6.77-10.31-1.72-20.69-3.05-31.1-4.01-20.84-1.91-41.78-2.28-62.67-.96-10.9,.69-22.05,1.5-32.07,6.23-.04,.02-.04,.25,.02,.25l4.67-.14s0-.04,0-.04h0Z"/><path class="cls-4" d="M1018.93,424.71c13.54,.49,25.29,7.87,35.6,16.03,5.59,4.42,10.89,9.22,16.24,13.93,5.97,5.26,11.95,10.51,17.92,15.76,3.21,2.82,6.19,5.95,9.58,8.56,1.37,1.06,2.85,2.01,4.44,2.7,.86,.37,1.78,.66,2.67,.96,.94,.32,1.87,.36,2.77,.77,.51,.23,.75-2.2,.75-2.23,.1-1.29,.07-2.68-.28-3.93-.74-2.69-2.04-5.18-2.78-7.88-.35-1.28-.52-2.04-.72-3.36-.02-.11-.13-1-.06-.38-.03-.27-.06-.55-.09-.82,0-.1-.1-1.21-.06-.65s-.02-.67-.02-.65c0-.28,0-.55-.01-.83,.02,.86,0-.09,.01-.26,.01-.34,.03-.69,.05-1.03,.01-.22,.06-.61,.01-.17,.13-1.33,.24-2.15,.51-3.38,.61-2.85,2.04-5.5,2.42-8.37,.18-1.35,.13-2.79-.1-4.13-.08-.44-.23-1.92-.9-2.01l-.18-.02c-.29,.1-.46,.31-.53,.63-2.7,6.34-3.71,13.38-3.41,20.25,.16,3.67,.63,7.33,1.55,10.89,.4,1.55,.91,3.07,1.5,4.55,.44,1.1,.99,3.06,2.1,3.66l-.17-6.95c-2.7,2.34-6.87,0-9.3-1.64-2.99-2.02-5.72-4.45-8.5-6.74-6.06-5-11.97-10.2-17.94-15.3-10.21-8.71-20.29-18.27-32.61-23.96-6.48-2.99-13.31-4.63-20.47-4.03,0,0,0,.04,0,.04h0Z"/><path class="cls-4" d="M300.41,388.71c4.43-8.27,13.02-13.25,21.47-16.59,9.7-3.82,20.01-6.17,30.05-8.93,22.78-6.26,45.58-12.57,68.51-18.25,45.92-11.37,92.36-21.65,139.31-27.76,46.67-6.07,93.87-7.91,140.79-3.87s93.61,13.35,139.36,25.07c46.22,11.85,91.73,26.22,136.59,42.47,5.63,2.04,11.03,4.21,16.4,6.89,.17,.09,1.64-5.65-.15-6.11-11.61-2.99-22.76-7.69-34.07-11.65-11.21-3.93-22.46-7.73-33.75-11.39-22.79-7.4-45.81-14.13-68.94-20.35-46.24-12.45-93.22-22.56-140.89-27.52s-94.93-3.99-142.19,1.83c-47.33,5.83-94.04,15.72-140.13,27.85-23.13,6.09-46.21,12.37-69.23,18.85-10.97,3.09-22.01,6-32.89,9.39-8.14,2.54-16.51,5.67-23.07,11.3-2.94,2.52-5.16,5.4-7.16,8.68-.02,.03,0,.13,.02,.1h0Z"/><path class="cls-4" d="M743.46,315.16c-2.1,.68-4.42,.95-6.58,1.38-.16,.03-.11,.6,.01,.58,8.06-1.47,15.64-4.61,23.05-8.02,8.12-3.73,16.18-7.6,24.24-11.45,16.27-7.75,32.54-15.5,48.82-23.21,9.15-4.34,18.32-8.66,27.45-13.05l-.49-2.26c-3.83,12.73-12.11,23.41-17.39,35.5-4.16,9.52-5.93,20.61-3.19,30.79,.76,2.8,1.88,5.51,3.44,7.96,.75,1.18,1.66,2.26,2.63,3.27,.41,.42,.85,1,1.4,1.21,.51,.2,1.25,.12,1.79,.13,.62,0,.34-1.83,.15-2.11-.83-1.21-1.48-2.4-2.56-3.4-.85-.79-1.6-1.66-2.31-2.59-1.31-1.72-2.33-3.58-3.1-5.6-1.63-4.33-1.94-9.06-1.47-13.64,1.15-11.39,7.5-21.33,12.93-31.11,3.29-5.92,6.39-11.98,8.34-18.49,.09-.31,.22-2.6-.49-2.26-16.14,7.79-32.19,15.77-48.3,23.62s-32.26,15.62-48.3,23.61c-8.56,4.26-17.24,8.56-26.66,10.53v.58c2.16-.63,4.38-1.47,6.58-1.84,.04,0,.02-.12,0-.11h0Z"/><path class="cls-4" d="M879.9,350.71c-1.46,.61-2.17-1.61-1.23-2.56,.55-.55,1.33-.79,2.06-.96,1.79-.43,3.63-.71,5.43-1.06,3.82-.75,7.63-1.54,11.44-2.38,7.45-1.64,14.89-3.35,22.31-5.14,14.99-3.62,29.91-7.55,44.75-11.76,8.27-2.35,16.51-4.82,24.74-7.34l-.35-2.24c-2.93,7.68-4.7,15.74-5.34,23.94-.32,4.13-.37,8.28-.11,12.41s.93,7.96,1.3,11.96c.22,2.39,.26,4.82-.31,7.16-.23,.95-.5,2.2-1.19,2.92-.33,.35-1.32,1.46-1.78,.98-.27-.29-.3,1.01-.27,1.11,.29,1.15,1.43,1.9,2.42,.93,1.19-1.16,1.58-3.29,1.88-4.85,.81-4.15,.37-8.44-.18-12.59-1.18-9.04-1.42-17.93,.14-26.95,.89-5.17,2.27-10.25,4.09-15.18,.09-.25,.16-2.42-.35-2.24-16.02,5.32-32.18,10.21-48.44,14.77-16.33,4.57-32.79,8.61-49.26,12.62-2.3,.56-4.6,1.12-6.91,1.67-1.74,.42-3.87,.59-5.43,1.53-.7,.43-1.28,1.09-1.18,1.96s.88,1.75,1.8,1.33c0,0,0-.05,0-.04h0Z"/><path class="cls-4" d="M640.72,317.32c-7.08,12.22-11.83,25.71-14.13,39.64s-2.17,28.04,.42,41.81c1.45,7.72,3.68,15.29,6.67,22.56,.03,.06,.05-.06,.04-.09-10.62-26.01-11.37-55.75-2.58-82.4,2.46-7.46,5.68-14.66,9.6-21.47,0-.01,0-.05-.01-.04h0Z"/><path class="cls-4" d="M649.14,315.28c-7.88,22.32-12.43,45.83-13.34,69.49-.25,6.59-.22,13.19,.07,19.77,0,.05,.04,.05,.04,0-1.01-23.49,1.45-47.12,7.34-69.89,1.69-6.53,3.67-12.98,5.9-19.34,0-.01,0-.05-.01-.03h0Z"/><path class="cls-4" d="M663.16,321.89c-4.6,.04-6.25,5.57-7.1,9.21-1.6,6.83-2.99,13.72-4.16,20.63-2.3,13.53-3.81,27.19-4.49,40.89-.38,7.75-.5,15.5-.37,23.26,0,.08,.06,.08,.06,0-.44-26.78,2.19-53.61,7.88-79.79,.96-4.44,1.94-14.1,8.19-14.17,.01,0,.01-.04,0-.04h0Z"/><path class="cls-4" d="M870.81,350.94c-1.47,3.97-3.16,7.8-4.35,11.88s-2.02,7.87-2.63,11.88c-1.2,7.89-1.37,15.91-.51,23.84,0,.03,.02,0,.02-.01-.88-8.15-.69-16.39,.61-24.49,.63-3.93,1.51-7.83,2.65-11.65s2.35-7.87,4.25-11.36c.02-.03-.01-.14-.03-.09h0Z"/><path class="cls-4" d="M883.18,348.87c-1.3-2.12-4.22-2.01-5.82-.23-2.15,2.41-2.21,6.47-2.62,9.49-1.16,8.58-1.58,17.25-1.25,25.89,.18,4.85,.6,9.69,1.24,14.5,.01,.09,.06,.02,.05-.04-1.31-10.01-1.64-20.12-.99-30.19,.32-4.94,.83-9.89,1.68-14.77,.36-2.05,.94-4.54,2.88-5.68,1.49-.88,4.14-.83,4.79,1.1,.02,.07,.06-.04,.03-.08h0Z"/><path class="cls-4" d="M894.99,347.41c-2.77,.69-4.46,3.02-5.53,5.53-1.45,3.39-2.12,7.16-2.89,10.75-1.91,8.84-3.18,17.82-3.8,26.85-.34,4.92-.47,9.86-.42,14.79,0,.05,.04,.05,.04,0-.06-8.47,.42-16.95,1.47-25.36,1.02-8.16,2.38-16.48,4.7-24.37,.99-3.38,2.69-7.19,6.42-8.14,.01,0,.01-.05,0-.04h0Z"/><path class="cls-4" d="M907.1,352.36c-1.43,.45-2.6,.81-3.71,1.89-.99,.96-1.74,2.15-2.36,3.38-1.73,3.45-2.6,7.39-3.63,11.09-2.5,8.99-4.56,18.1-6.17,27.3-.89,5.08-1.64,10.19-2.26,15.31,0,.06,.05,.12,.06,.03,1.08-8.78,2.54-17.51,4.41-26.15,.92-4.25,1.92-8.49,3.01-12.7,1.07-4.11,2.11-8.3,3.53-12.3,1.05-2.94,3.31-7.85,7.12-7.74,.04,0,.03-.12,0-.11h0Z"/><path class="cls-4" d="M395.57,355.47c-.44-.54-.82-1.13-1.21-1.71h0c-2.96,15.56-3.98,31.72-2.38,47.5,.3,2.97,.95,6.17,3.46,8.08,.03,.02,.05-.1,.01-.13-3.67-2.81-3.5-8.4-3.76-12.56-.3-4.83-.39-9.67-.28-14.51s.43-9.99,.97-14.96c.26-2.41,.57-4.81,.93-7.2,.19-1.28,.4-2.55,.62-3.82,.05-.27,.14-1.78,.34-1.91,.53-.32,1.06,.95,1.27,1.31,.03,.05,.05-.06,.03-.09h0Z"/><path class="cls-4" d="M402.29,354.86c-4.12-1.37-3.99,4.76-4.14,7.17-.32,5.02-.46,10.06-.37,15.09,.17,10.22,1.16,20.43,2.94,30.5,.01,.06,.04,.02,.04-.02-1.59-9.1-2.55-18.31-2.83-27.55-.14-4.7-.12-9.4,.07-14.09,.09-2.27,.21-4.54,.4-6.81,.1-1.25,.21-2.6,1.08-3.58,.69-.78,1.9-1.27,2.82-.58,.02,.02,.05-.1,.01-.11h0Z"/><path class="cls-4" d="M407.26,355.39c-6.08,18.45-8.54,38.09-7.03,57.46,0,.05,.04,.05,.04,0-1.4-19.41,.92-38.94,7-57.43,0-.01,0-.05-.01-.03h0Z"/><path class="cls-4" d="M305.01,383.37c-1.74,1.52-4.15,3-3.55,5.71,.8,3.64,5.93,1.67,8.3,1.2,8.58-1.71,17.15-3.48,25.73-5.24,4.94-1.01,9.88-1.98,14.8-3.05,.04,0,.02-.14,0-.13-9.32,1.78-18.61,3.77-27.91,5.66-4.61,.94-9.22,1.89-13.83,2.86-1.82,.38-4.59,1.48-6.22,.15-2.78-2.26,.56-5.94,2.7-7.04,.03-.02,0-.12-.01-.11h0Z"/><path class="cls-4" d="M352.68,369.65c-.89-.27-1.62-.48-2.55-.22-.79,.22-1.53,.68-2.1,1.27-1.19,1.23-1.56,3.02-1.64,4.68-.07,1.54-.2,3.65,.66,5.01,.91,1.44,2.76,1.66,4.32,1.6,2.46-.1,4.94-.57,7.38-.87,2.13-.27,4.6-.33,6.43-1.59,1.18-.81,2.03-2.22,1.89-3.69-.17-1.69-1.75-2.61-3.13-3.31-4.63-2.35-10.06-3.05-15.12-1.87-.06,.01-.04,.23,0,.22,3.45-.72,7-.71,10.43,.15,1.83,.46,3.62,1.14,5.28,2.06,.69,.39,1.49,.85,1.94,1.53,.91,1.38,.41,3.04-.67,4.13-1.28,1.3-3.23,1.63-4.96,1.87-2.03,.27-4.06,.51-6.1,.77-1.58,.2-3.2,.51-4.79,.35-.73-.08-1.47-.26-2.09-.68-1.1-.76-1.31-2.07-1.39-3.33-.15-2.3-.17-5.04,1.47-6.87,1.07-1.19,3.27-2.22,4.74-1.09,.02,.01,.04-.1,0-.11h0Z"/><path class="cls-4" d="M350.3,388.21c-.63,.08-1.26,.06-1.9,.07-.49,0-1.19,.15-1.66,.01-.33-.1-.3,.04,0-.13,.26-.15,.65-.15,.95-.22,.71-.17,1.42-.33,2.13-.5,2.45-.57,4.9-1.13,7.35-1.68,4.91-1.1,9.82-2.16,14.74-3.2,9.92-2.1,19.88-4.05,29.87-5.83,19.89-3.56,39.89-6.51,59.96-8.83,11.37-1.31,22.76-2.42,34.16-3.33,.02,0,.02-.09,0-.09-19.74,1.57-39.43,3.73-59.03,6.49s-38.96,6.1-58.29,10.03c-10.9,2.22-21.75,4.66-32.56,7.29,0,0,0,.03,0,.03,1.41-.02,2.87-.15,4.27,0,.03,0,.03-.12,0-.11h0Z"/><path class="cls-4" d="M1006.67,422.66c.82-1.01,1.1-2.11,.42-3.29,0-.01-.02,0-.03,0-1.57,2.09-2.36,4.57-2.96,7.09-.64,2.69-1.03,5.44-1.19,8.2-.32,5.63,.27,11.29,1.53,16.78,2.59,11.29,7.81,21.48,13.84,31.29,.73,1.19,1.54,2.38,1.85,3.76,.32,1.46-.86,2.02-2.18,1.92-1.63-.12-3.22-.68-4.83-.91s-3.35-.55-5-.91c-.26-.06-.23,.77-.03,.87,2.93,1.54,12.4,7.34,13.24,.8,.27-2.13-.5-4.26-1.61-6.05-1.52-2.44-3.18-4.79-4.65-7.26-6.29-10.58-11.22-22.27-11.88-34.69-.19-3.63-.02-7.28,.55-10.87,.26-1.64,.6-3.29,1.05-4.89,.27-.96,.6-1.91,1.01-2.82,.18-.38,.37-.76,.58-1.13,.14-.25,.3-.49,.46-.73,.72,1.19,.66,2.1-.19,2.73-.03,.03,0,.14,.02,.1h0Z"/><path class="cls-4" d="M910.13,422.59c14.56,7.41,27.46,17.58,39.97,27.99,6.37,5.3,12.57,10.78,18.88,16.15s12.68,10.15,19.44,14.62c3.79,2.51,7.69,4.87,11.7,7,1.81,.96,3.68,1.94,5.74,2.22,.85,.12,1.7,.08,2.51-.2,1.08-.37,1.36-1.45,1.58-2.48,.05-.22,.1-.97-.24-1.07-.66-.18-.95-.36-1.62-.13-.86,.3-1.78,.29-2.67,.13-1.82-.32-3.47-1.26-5.11-2.07-3.54-1.75-7-3.68-10.38-5.73-6.77-4.11-13.1-8.81-19.48-13.5-12.75-9.37-24.56-19.94-37.41-29.18-7.25-5.21-14.86-9.93-22.91-13.8-.01,0-.02,.04,0,.04h0Z"/></g></svg>