<?xml version="1.0" encoding="UTF-8"?><svg id="Layer_1" xmlns="http://www.w3.org/2000/svg" viewBox="0 0 1500 750"><defs><style>.cls-1{fill:#cfd3ca;}.cls-2{fill:#231f20;}.cls-3{fill:#696f64;}</style></defs><g><g><path class="cls-3" d="M986.74,556.8c-.16-.1-.26-.16-.26-.16,0,0-.38,2.29,.26,.16Z"/><path class="cls-3" d="M1267.96,434.57c-9.33-3.75-38.92-8.18-47.87-7.23-8.95,.95-10.61,8.28-14.94,9.27-4.33,1-8.33,4.99-7.83,13.99,.5,9-2.83-3.33-9.16,14.66,0,0-22.32,14.97-32.65,8.82,0,0-66.96-25.84-87.33-32.03-20.37-6.19-88.02-32.52-91.13-37.3-3.11-4.78-54.41-17.8-54.41-17.8,0,0-54.15-109-92.04-125.95l-6.91,4.37s23.02,64.1,12.01,92.85c-11.01,28.75-100.96,8.48-100.96,8.48l-54.66-6.68s-4.97-28.67-44.62-40.51c0,0,5.66,19.15-4.66,19.82-10.33,.67-21.66,5.33-21.66,5.33,0,0-85.73-15.07-117.66-37.52-31.93-22.45-135.38-75.47-162.45-94.94s-71.41-39.97-99.38-42.71c0,0-3.95,4.8,23.45,26.96,.25,.93,.58,1.85,1.02,2.73,.91,1.82,1.96,3.57,3.07,5.28,2.26,3.47,4.85,6.7,7.39,9.97,2.56,3.29,5.06,6.62,7.17,10.22,2.1,3.59,3.82,7.36,5.23,11.26-.1,2.86-.64,4.49-.64,4.49l40.31-2.55s24.51,35.24,65.88,49.53c40.44,13.97,87.76,52.74,93.63,64.62-.57,.99-1.16,1.97-1.77,2.94-1.79,2.8-3.75,5.49-5.68,8.19-4.76,2.31-9.75,4.79-9.56,10.35,.4,11.49,14.82,13.53,14.82,13.53,0,0,67.32-22.64,107.18-10.02,5.7,1.81,11.95,3.97,18.5,6.39,68.54,41.74,47.86,46.43,47.86,46.43,18-1.21,27.93-6.72,33.39-12.03,10.23,4.82,18.35,8.88,22.85,11.42,1.33,.75,3.02,1.52,4.99,2.3-13.88,7.2-6.28,14.28-6.28,14.28l-8.78,4.68s9.1,1.19,23.77-1.6c9.87-1.88,30.4-3.38,42.78-4.17,17.76,3.6,32.56,6.09,32.56,6.09l124.5,38.35,7.49,1.87c-8.57,11.56-18.32,33.75-19.5,36.03-1.57,3.02-37.96,23.51-54.95,29.99-16.99,6.48-16.79,11.45-16.79,11.45,0,0-4.43-.91-5.03,2.84-.6,3.74-10.44,10.99-10.44,10.99,3.39,3.77,64.84-12.32,98.89-24.76,22.44-8.2,58.86-32.56,81.08-48.22l7.9,1.97,75.81,16.69s-31.41,14.12-48.46,14.85-44.82,7.57-46.09,12.31c-.2,.74-.35,1.27-.47,1.66,2.87,1.79,30.21,18.59,41.7,15.75,0,0,87.35-35.28,116.37-37.47,29.02-2.19,72.78-15.13,79.99-30.18,7.21-15.05,11.31-28.69,17.32-32.53,6.01-3.84,12.42-9.99,15.04-19.54,2.62-9.55,13.65-9.82,14.6-10.33,.95-.51,5.52-4.19-3.81-7.94Z"/></g><path class="cls-1" d="M1070.89,515.95c4.45,.04,8.89-.1,13.32-.44s8.81-1.17,13.23-1.48c.04,0,.04-.67-.02-.68-4.35-.66-8.93,.75-11.71,4.28-.23,.29,.06,2.74,.07,2.73,2.11-.59,4.17-1.35,6.14-2.3s3.74-2.2,5.62-3.31c.45-.26-.21-2.72-.07-2.78-2,.85-3.96,1.78-5.88,2.8-2.01,1.08-3.76,2.3-5.52,3.76l.12,4.88c3.55-3.18,7.47-5.72,11.89-7.54l-.1-3.87c-4.13,1.46-8.04,3.63-11.04,6.86-.37,.4-.17,1.78-.15,2.29,0,.2,.28,2.26,.27,2.28,4.42-3.18,8.97-6.38,13.71-9.08,.54-.31-.23-3.3-.08-3.36-2.27,.92-4.6,1.69-6.98,2.28s-4.9,.94-7.27,1.63l.09,3.8c2.08-1.21,4.48-2.42,6.88-2.7,.32-.04,.09-4.2-.1-4.2-1.26,.03-2.5-.11-3.75-.18-1.35-.08-2.72-.12-4.07-.24s-2.56-.53-3.88-.77-2.71-.28-4.05-.43c-5.63-.62-11.25-1.29-16.86-2.03-11.22-1.47-22.41-3.22-33.57-5.09-3.07-.52-6.14-1.05-9.2-1.6-1.6-.29-3.22-.72-4.84-.88-.86-.09-1.55,.23-2.39,.46-.79,.21-1.59,.37-2.39,.54-.36,.08-.29,3.91,.1,4.15,1.37,.82,2.72,1.94,4.15,2.63,1.25,.6,2.98,.68,4.35,.94,2.74,.52,5.49,1.02,8.23,1.52,5.57,1,11.15,1.91,16.75,2.75,11.19,1.68,22.41,3.13,33.65,4.34,1.55,.17,3.1,.33,4.65,.49s2.84-.02,4.32-.06,3.06,.02,4.52-.35c1.59-.4,2.98-1.11,4.37-1.97l-.1-4.2c-2.02,1.47-4.46,2.46-6.87,3.1-.35,.09-.07,3.8,.09,3.8,4.85,0,9.97-2.25,14.24-4.35l-.08-3.36c-4.37,2.91-9.07,5.47-13.74,7.88l.11,4.56c3.31-3.06,6.84-5.77,11.02-7.55,.59-.25-.18-3.84-.1-3.87-4.33,1.37-8.44,3.58-11.91,6.53-.41,.35-.18,1.97-.17,2.45,0,.23,.32,2.41,.29,2.44,3.75-2.93,7.4-6,11.35-8.67l-.07-2.78c-3.25,2.79-7.68,4.55-11.76,5.65l.07,2.73c2.87-3.59,7.01-6.07,11.66-6.33l-.02-.68c-4.24,1.15-8.85,1.5-13.22,1.91s-8.87,.62-13.32,.66v.04h0Z"/><path class="cls-1" d="M1005.46,504.88c4.85,1.15,9.67,2.32,14.58,3.18s9.56,1.67,14.34,2.49c9.56,1.65,19.13,3.29,28.7,4.93l8.22,1.41,3.87,.66c1.48,.25,2.86,.65,4.34,.24,.03,0,.02-.37,0-.39-2.08-1.28-4.89-1.34-7.26-1.74l-7.25-1.23-14.19-2.41c-9.61-1.63-19.22-3.26-28.83-4.92-2.75-.48-5.5-.9-8.25-1.32s-5.49-.66-8.24-1c0,0-.01,.1,0,.1h0Z"/><path class="cls-1" d="M1085.61,521.73c-1.76-.66-3.43-1.39-5.26-1.88s-3.76-.82-5.66-1.2-3.68-.79-5.28-1.74c-1.77-1.04-3.15-2.42-4.73-3.71-3.01-2.46-6.14-4.41-9.81-5.73s-7.11-1.99-10.78-2.5c-2.29-.32-4.59-.45-6.9-.58s-4.79-.49-7.11-.13c-.3,.05-.29,3.89,.1,3.99,1.95,.5,3.7,1.56,5.6,2.22s4.03,1.23,6.09,1.67c4.28,.92,8.65,1.46,12.98,2.11,4.78,.72,9.56,1.43,14.34,2.13l7.42,1.08c2.54,.37,5.02,1.12,7.39-.17,.04-.02,.02-.44-.01-.47-1.26-1.03-2.38-1.56-3.99-1.83-1.15-.19-2.31-.34-3.46-.51l-7.42-1.08c-4.78-.7-9.56-1.38-14.34-2.06-4.33-.62-8.69-1.13-12.97-2.01-4.04-.84-8.75-2.03-11.72-5.07l.1,3.99c1.95,.92,4.1,1.34,6.18,1.88s4.24,1.12,6.39,1.57c3.61,.76,7.27,1.31,10.83,2.25s6.72,2.53,9.98,4.17c2.97,1.49,6.39,2.12,9.68,2.54,2.09,.26,4.18,.32,6.27,.37,1.99,.04,4.22,.04,6.1,.79,0,0,.01-.09,0-.1h0Z"/><path class="cls-1" d="M992.25,557.52c.43-.12,.92-.08,1.36-.1l1.36-.05,2.62-.09c1.78-.06,3.56-.13,5.33-.23,.02,0,.01-.16,0-.16-1.78,.07-3.56,.17-5.33,.27l-2.61,.15-1.25,.07c-.48,.03-1,.12-1.47,.04,0,0,0,.1,0,.1h0Z"/><path class="cls-1" d="M995.25,558.49c-.03,.16-.11,.21-.25,.14-.08-.34,.04-.49,.34-.44,.35-.16,1.09-.04,1.48-.04,.93,0,1.86,.02,2.79,.07,1.99,.11,3.98,.37,5.93,.76,3.92,.78,7.72,1.99,11.32,3.73-.07-.03,.19-1.07-.03-1.13-.45-.13-.89-.28-1.33-.44,.01,0-.05,.42,.01,.47,.46,.36,.91,.73,1.35,1.11l-.03-1.13c-4.93-2.36-10.19-3.77-15.65-4.04-1.32-.07-2.65-.07-3.97-.01-.63,.03-2.32-.17-2.5,.73-.09,.47,.55,.7,.56,.25,0-.05-.02-.09-.01-.01h0Z"/><path class="cls-1" d="M997.64,560.56c-.72,.06-1.32-.76-1.49-1.37v.16c1.07,.33,2.12,.92,3.12,1.43s2.01,1.09,3.01,1.63,1.93,1.08,2.86,1.67c.46,.29,.9,.6,1.37,.87,.15,.08,.48,.36,.66,.29,.06-.2,.17-.25,.32-.14,.11,.04,.22,.07,.32,.11,0,0,.04-.52-.01-.59-.32-.37-.48-.83-.81-1.19-.15-.17-.36-.31-.53-.45-.43-.34-.9-.62-1.37-.9-.92-.54-1.87-1.03-2.86-1.45s-1.96-.69-2.99-.93-2.08-.31-3.1-.55c-.01,0,0,.15,0,.16,.25,.82,.79,1,1.5,1.32,0,0,.01-.1,0-.1h0Z"/><path class="cls-1" d="M999.33,559.19c-.08-.4-.47-.32-.63-.02-.38,.74,1.31,2.07,1.65,2.44,2.49,2.67,5.57,4.68,8.84,6.27s6.64,2.71,10.17,3.32c1.75,.31,3.53,.49,5.31,.55,.83,.03,1.68,.03,2.49-.14,1.04-.23,1.34-1.08,1.94-1.92,.06-.09-.02-.81-.03-.81-.44,.18-.46,.14-.91,.05-.39-.08-.43-.14-.88-.02-.62,.16-1.26,.21-1.9,.22-1.42,.02-2.85-.09-4.26-.26-2.84-.34-5.67-.98-8.38-1.89s-5.19-2.06-7.59-3.48c-1.19-.71-2.39-1.38-3.54-2.14-.52-.34-1.06-.66-1.58-.99-.21-.13-.77-.4-.91-.61l-.14-.71c.16-.07,.28-.01,.34,.17,0,0,0-.02,0-.03h0Z"/><path class="cls-1" d="M1030.41,570.2c2.6-2.09,5.81-3.69,8.74-5.26s6.03-3.12,9.1-4.54c6.21-2.86,12.62-5.3,19.1-7.48s13.23-4.08,19.98-5.67c3.22-.76,6.53-1.18,9.8-1.67,3.44-.52,6.87-1.2,10.28-1.91,6.86-1.42,13.77-2.66,20.59-4.25,6.96-1.62,13.92-3.3,20.83-5.13,3.89-1.03,7.68-2.34,11.55-3.43s7.33-2.11,11-3.17c7.68-2.2,15.19-5.07,22.68-7.84,4.12-1.52,8.14-3.22,12.17-4.96,3.75-1.62,7.47-3.24,10.86-5.55,3.04-2.08,5.88-4.67,7.72-7.9,1.98-3.47,2.96-7.56,3.15-11.53,.02-.38,.09-.88-.03-1.24-.07-.22-.09-.37-.11,0-.21,3.1-1.89,5.54-3.76,7.91-2.15,2.72-4.59,5.07-7.47,6.99-6.16,4.11-13.16,6.05-19.99,8.69-7.36,2.85-14.74,5.62-22.18,8.27-3.82,1.36-7.58,2.9-11.42,4.23s-7.35,2.26-11.06,3.35c-13.5,3.95-27.25,6.88-40.95,10.07-6.8,1.59-13.45,3.41-20.08,5.61-6.5,2.15-13.17,3.82-19.68,5.95-7.23,2.36-14.33,5.1-21.16,8.44-3.37,1.65-6.67,3.42-9.87,5.37-1.68,1.02-3.33,2.08-4.96,3.18s-3.16,2.39-4.84,3.38c-.02,.01,.01,.09,0,.1h0Z"/><path class="cls-1" d="M1238.08,470.61c3.38-2.16,6.52-4.68,9.34-7.54,1.39-1.41,2.72-2.9,3.97-4.43,1.16-1.42,2.44-2.77,3.46-4.31,2.27-3.43,3.54-7.57,7.16-9.9,1.71-1.1,3.64-1.76,5.56-2.38,1.06-.34,2.12-.65,3.14-1.1,1.23-.53,1.82-1.02,2.46-2.19,.1-.18,.13-2.06-.08-2.07-1.08-.1-1.88,.63-2.85,1.06-.9,.39-1.83,.7-2.76,1.03-1.92,.68-3.86,1.41-5.56,2.56-3.53,2.4-4.9,6.58-6.91,10.15-1.09,1.93-2.04,3.96-3.32,5.78-1.2,1.7-2.49,3.32-3.89,4.86-2.91,3.19-6.18,6.01-9.73,8.46,0,0,0,.04,0,.04h0Z"/><path class="cls-1" d="M1249.18,463.79c-1.67,.87-3.46,1.5-5.02,2.57-1.65,1.13-3.12,2.4-4.52,3.82-2.83,2.86-5.25,6.05-7.25,9.55-2.23,3.89-3.94,8.06-6.2,11.93-1.95,3.34-4.29,6.12-7.03,8.83-3.41,3.38-6.53,6.85-11.08,8.72-.28,.11-.2,1.94,.05,1.96,3.21,.15,7.25-.51,9.83-2.6,3.28-2.66,5.35-6.7,7.19-10.41,4.03-8.12,7.32-16.51,13.23-23.53,1.62-1.93,3.41-3.71,5.21-5.48s3.56-3.72,5.6-5.25c.02-.01,0-.1,0-.1h0Z"/><path class="cls-1" d="M1025.64,568.54c1.21-.31,2.49-.43,3.67-.83,1.36-.46,2.73-.91,4.11-1.33,2.46-.77,4.94-1.45,7.4-2.2,5.1-1.56,10.24-2.95,15.39-4.32s10.36-3.2,15.58-4.64,10.5-2.92,15.76-4.31c10.56-2.79,21.23-5.2,31.98-7.16,10.68-1.95,21.44-3.37,32.14-5.19,5.93-1.01,11.85-2.19,17.71-3.57,1.5-.35,3-.71,4.47-1.17,1.58-.49,2.97-1.12,4.42-1.91,2.98-1.61,5.9-3.36,8.68-5.29,.24-.17,.02-2.28-.06-2.27-1.23,.1-2.49,.44-3.71,.4-1.41-.04-2.79,.17-4.19,.28-1.17,.09-2.4,.07-3.56,.29-1.35,.26-2.69,.64-4.01,.99-5.23,1.39-10.5,2.46-15.83,3.41-10.67,1.91-21.42,3.33-32.11,5.19-10.77,1.88-21.46,4.14-32.05,6.85-10.66,2.72-21.07,6.08-31.41,9.84-5.87,2.14-11.5,4.9-17.13,7.58-2.92,1.39-5.8,2.86-8.67,4.37-1.43,.75-2.87,1.49-4.31,2.25s-2.84,1.79-4.28,2.69c0,0,0,.04,0,.04h0Z"/><path class="cls-1" d="M920.66,488.71c1.33,.53,2.64,.49,4.05,.49h12.12c.08,0,.12-1.49-.04-1.51-.58-.08-.98-.41-1.6-.48-.53-.07-1.07-.08-1.6-.09-1-.03-2-.02-3,.03s-1.99,.16-2.98,.31-2.13,.58-3.13,.5l.06,2.65c1.37-.05,2.84-.71,4.2-.98,1.48-.29,2.99-.49,4.49-.6s2.89-.13,4.34-.07c.72,.03,1.44,.08,2.16,.15,.39,.04,.78,.1,1.18,.14,.57,.05,.7,.1,1.16-.35l-.04-1.76c-.68,.63-1.54,.54-2.43,.62-.02,0-.02,.35,0,.35,.91,.14,1.77,.13,2.47,.79,0,0,.07-.73,.07-.77,0-.23,.06-.77-.09-.96-.58-.73-1.09-.73-1.99-.83-.72-.08-1.44-.14-2.16-.18-1.51-.08-3.03-.07-4.53,.03s-2.88,.27-4.3,.53-3.3,.48-4.59,1.25c-.21,.12-.09,1.12-.09,1.33,0,.11,.14,1.32,.15,1.32,.89-.53,2.11-.65,3.12-.82s1.98-.29,2.98-.37,2-.11,2.99-.1c.53,0,1.06,.05,1.6,.06,.58,.01,1.04-.23,1.58-.17l-.04-1.51-8.07,.24-3.82,.12c-1.47,.04-2.87,.02-4.24,.62v.04h0Z"/><path class="cls-1" d="M922.96,488.1c19.49,.12,39.6,2.85,57.93,9.69l-.02-.84c-3.87-1.13-7.75-2.25-11.63-3.38s-7.69-2.67-11.61-3.79c-7.66-2.19-15.42-4.04-23.12-6.11-3.83-1.04-8.01-1.82-11.54-3.67-3.73-1.96-7.48-3.21-11.53-4.38-7.65-2.21-15.29-4.46-22.92-6.74-15.25-4.54-30.37-9.44-45.53-14.29s-29.81-8.76-45.03-12.04c-7.49-1.61-15-3.1-22.51-4.6-7.61-1.52-15.3-1.8-22.87-3.43-14.79-3.19-29.69-5.71-44-10.82-28.35-10.12-54.58-24.99-82.2-36.8-27.13-11.61-57.04-20.6-86.85-17.11-3.7,.43-7.36,1.06-10.99,1.85-.09,.02,0,.67,.02,.67,29.58-5.57,59.87,1.26,87.47,12.02,28.1,10.95,54.29,26.14,82.1,37.73,14.32,5.96,29.03,10.64,43.82,15.26,7.41,2.31,15.11,3.37,22.43,5.96,7.21,2.55,15.06,3.53,22.54,5.05,15.1,3.07,30.13,6.42,44.89,10.85s30.29,9.73,45.49,14.39c7.6,2.33,15.21,4.65,22.87,6.81,7.44,2.1,15.17,5.05,22.94,5.18,3.84,.07,7.81,1.56,11.51,2.52s7.69,1.98,11.54,2.95,7.69,1.98,11.56,2.79,7.71,1.14,11.57,1.87,7.72,1.44,11.6,2.1c0,0,.09-.8-.02-.84-9.41-2.91-18.8-5.47-28.56-7-9.72-1.52-19.52-2.16-29.35-1.9v.04h0Z"/><path class="cls-1" d="M684.22,417.98c0-.36-.15-1.33,.19-1.49s.79,.46,1.07,.7c.76,.64,1.55,1.26,2.35,1.86,1.53,1.14,3.13,2.2,4.78,3.18,3.23,1.92,6.65,3.53,10.16,4.88,7.24,2.78,14.81,4.46,22.45,5.7,4.39,.72,8.78,1.2,13.21,1.57,0,0,.02-.23,0-.23-14.82-2.48-30.22-4.02-43.76-11.07-3.72-1.94-7.21-4.27-10.39-7.02v.02l-.05,1.88s0,.04,0,.02h0Z"/><path class="cls-1" d="M709.74,443.84c-1.23,.08-2.4,.58-3.31,1.4-.02,.02,.01,.09,0,.1,.91-.82,2.08-1.32,3.31-1.4,0,0,0-.1,0-.1h0Z"/><path class="cls-1" d="M699.77,449.25c-.63-.22-1.22-.51-1.83-.79v.44c7.78-.47,15.54-1.72,23.26-2.72,7.77-1,15.49-2.38,23.22-3.6l-.1-4.07c-1.19,.09-2.36-.18-3.54-.03s-2.39,.46-3.57,.71c-2.41,.52-4.83,1.06-7.26,1.49-4.91,.87-9.83,1.48-14.82,1.61l.2,8.09c6.74-1.01,13.48-2.02,20.22-3.03,3.29-.49,6.58-.98,9.87-1.47,1.73-.26,3.46-.49,5.18-.77,.4-.06,.85-.1,1.23-.22,.58-.18,.6-.48,1.01-.99,.76-.96,1.88-1.38,2.88-2.06,.29-.2,.21-3.06-.08-3.17-.41-.16-.82-.33-1.25-.43-.33-.08-.96,.04-1.24-.13-.73-.42-.54-1.29-1.52-1.32-.32-.01-.67,.07-.99,.11-1.73,.23-3.45,.52-5.18,.78-3.37,.51-6.74,1.02-10.11,1.53-6.74,1.02-13.48,2.04-20.22,3.07-.75,.12-.27,8.11,.2,8.09,4.96-.14,9.97-.62,14.82-1.68,2.46-.54,4.88-1.18,7.24-2.04,1.2-.44,2.43-.9,3.55-1.52,1.27-.7,2.3-1.74,3.48-2.57,.48-.34-.05-4.08-.1-4.07-7.73,1.48-15.51,2.83-23.2,4.53s-15.57,3.21-23.18,5.42c-.05,.01-.04,.43,.01,.44,.61,.13,1.22,.25,1.82,.45,0,0,.02-.09,0-.1h0Z"/><path class="cls-1" d="M741.67,437.77c-12.89,.89-25.68,2.38-38.43,4.45l.02,.69c4.4-1.11,8.92-1.66,13.38-2.46,2.24-.4,4.48-.77,6.72-1.17,1.12-.2,2.24-.39,3.37-.58,.47-.08,.97-.23,1.44-.24,.35-.15,.67-.1,.97,.13,.29,.27,.62,.48,.98,.64,.06,.03,.18-2.48,.17-2.68,0-.36,.13-2.51-.3-2.67-3.08-1.18-6.9-.95-10.14-.69s-6.7,.69-10.02,1.27l.2,8.05c2.84-1.32,5.77-2.4,8.81-3.17,.71-.18,.19-8.15-.2-8.16-1.51-.05-3.27-.36-4.74-.03l.19,7.93c.81-.42,1.48-.86,2.13-1.49,.73-.71,1.5-1.12,2.37-1.63,1.47-.85,2.97-1.62,4.53-2.29,.21-.09-.03-1.92-.05-1.92-1.53,.15-3.05,.18-4.58,.11-.72-.04-1.51,.05-2.18-.24-.83-.36-1.51-.48-2.42-.48-.37,0-.24,3.64-.23,3.98,.03,.93,.06,1.87,.16,2.8,.02,.2,.04,1.09,.26,1.16,1.46,.41,3.24,.22,4.75,.26l-.2-8.16c-3.05,.79-5.99,1.87-8.81,3.29-.2,.1-.2,1.15-.21,1.18-.06,.94-.05,1.9-.03,2.85,0,.29,.17,4.07,.43,4.02,3.31-.68,6.65-1.22,10.01-1.6s7-.44,10.08-1.67l-.13-5.36c-.65,.63-1.03,1.25-1.9,1.53-.46,.15-.97,.23-1.44,.34-1.12,.26-2.24,.53-3.36,.8-2.24,.54-4.48,1.14-6.71,1.74-4.48,1.2-8.85,2.77-13.35,3.92-.09,.02,0,.7,.02,.69,12.74-2.11,25.57-3.81,38.41-5.11v-.04h0Z"/><path class="cls-1" d="M722.34,436.34c7.5,1.98,15.3,2.15,22.75-.09,.04-.01,0-.35,0-.35-7.49,1.37-15.24,1.65-22.75,.25,0,0-.02,.19,0,.2h0Z"/><path class="cls-1" d="M616.43,391.14c2.03,.14,4.12,.79,6.08,1.33s3.85,1.15,5.73,1.85c3.91,1.45,7.54,3.49,11.11,5.63s6.29,4.93,9.14,7.77c1.45,1.45,2.61,3.12,3.86,4.73,1.13,1.46,2.21,2.97,3.15,4.56s1.79,3.37,2.4,5.17c.29,.85,.53,1.72,.69,2.61-.01-.07,.09,.54,.06,.33-.03-.18,.09,.62,.03,.23-.04-.27-.04-.99,0,.11,.03,.59,.06,1.18,.13,1.77l.31-5.76c-.59,.65-1.08,.68-1.46,.09-.15-.15-.17,.76-.17,.84,0,.45-.04,1.04,.14,1.47,.45,1.05,1.06,2.22,1.18,3.37,.03,.31,.06,1.61,.43,1.82,.34,.19,.4-.92,.42-1.06,.69-8.18-1.54-17.7-8.13-23.19-1.33-1.1-2.79-2.12-4.2-3.1-.68-.47-1.39-.93-2.13-1.32-.8-.42-1.69-.63-2.51-1.03-3.88-1.92-7.63-3.78-11.77-5.08-2.36-.74-4.72-1.47-7.14-2s-4.93-.69-7.35-1.22c0,0-.01,.1,0,.1h0Z"/><path class="cls-1" d="M615.71,392.01c6.77,2.29,12.51,6.7,17.24,12s9.39,9.83,13.69,15.13c1.21,1.5,2.48,2.98,3.58,4.56,.56,.81,1.09,1.66,1.48,2.56,.08,.18,.14,.37,.21,.54l.11,.38-.17-3.24c-.19,.82-.12,1.74-.17,2.57l.46,2.14c.06-.59,.23-1.15,.38-1.72,.12-.44,.08-.98,.03-1.42,0-.09-.14-.8-.21-.65,.46-1.05-.65,6.66,.22,5.04,.07-.12,.09-.23,.15-.36,.26-.58,.26-1.32,.3-1.94,.11-1.75,.06-3.53-.15-5.27-.27-2.25-1.02-4.27-2.29-6.15-2.13-3.16-4.82-6.04-7.32-8.91-2.37-2.72-4.79-5.56-7.61-7.83-2.53-2.03-5.58-3.73-8.62-4.84-3.76-1.37-7.36-2.7-11.35-3.27-.01,0-.08,.63,.02,.67h0Z"/><path class="cls-1" d="M646.43,411.38c2.13,2.05,3.97,4.08,5.34,6.73,1.3,2.51,2.39,5.37,2.54,8.21l.41-2.66c-.08-.38-.17-.69-.33-1.02-.38-.33-.58-.74-.6-1.21-.08-.59-.13-1.18-.17-1.78-.1-1.22-.32-2.4-.55-3.6-.43-2.17-1.17-4.32-2.14-6.31-1.99-4.06-5.13-6.7-8.9-9.06-4.19-2.63-8.4-5.22-12.61-7.82-2.13-1.31-4.26-2.62-6.38-3.93l-3.19-1.96c-1.16-.71-2.06-1.34-3.37-.54l.29,1.25-.03-.29-.02,2.39c.19-.75,.67-1.43,1.15-2.02,.16-.19,.17-2.09-.05-2.11-.78-.08-.86,.28-1.35,.79-.4,.42-.25,1.7-.24,2.2,0,.8-.12,2.04,.29,2.77,.81,1.47,1.67,2.6,3.1,3.48l2.98,1.83c2.13,1.31,4.26,2.62,6.38,3.93,4.23,2.6,8.47,5.16,12.7,7.76,3.59,2.2,6.83,4.62,8.96,8.35,.85,1.49,1.46,3.09,2.24,4.6,.11,.22,.19,.47,.34,.66,.46,.57,.6,.2,.77,1.22,.26,1.49,.2,2.99,.51,4.48,.15,.73,.35-.15,.38-.38,.13-.93,.06-1.91-.02-2.84-.24-2.9-.95-5.84-2.67-8.23-1.41-1.96-3.49-4.01-5.76-4.93,0,0,0,.03,0,.04h0Z"/><path class="cls-1" d="M490.73,383.53c33.49-14.34,71.29-16,105.74-4.12,17.13,5.91,32.9,14.57,48.99,22.76,16.53,8.41,33.2,16.26,50.97,21.72s36.9,9.82,55.66,13.46c9.46,1.84,18.97,3.36,28.42,5.23s18.3,4.39,27.45,6.68c36.41,9.11,71.7,22.02,107.23,33.98,17.62,5.93,35.36,11.58,53.31,16.42,2.22,.6,4.43,1.21,6.66,1.75s4.87,1.54,7.13,.82,3.83-1.39,6.16-.92,4.79,.95,7.19,1.38c9.18,1.65,18.32,3.4,27.58,4.59,4.56,.59,9.13,1.08,13.71,1.48-.01,0,.01-.43-.01-.43-9.31-.92-18.58-2.23-27.8-3.88-4.51-.81-9.04-1.64-13.5-2.71-2.24-.54-4.48-1.08-6.72-1.64-1.25-.32-2.3-.5-3.36-1.28-1.32-.98-2.58-2.04-3.88-3.05-1.7-1.33-4.14-1.66-6.22-2.22-2.37-.65-4.76-1.24-7.14-1.88-4.44-1.19-8.86-2.44-13.27-3.72-9.01-2.62-17.96-5.42-26.88-8.34-17.73-5.79-35.34-11.95-53.07-17.73s-35.7-11.89-53.91-16.54c-8.92-2.28-17.81-4.63-26.92-6.05s-18.91-3.33-28.33-5.08c-9.45-1.77-18.95-3.28-28.41-5.04s-18.51-3.03-27.59-5.32c-18.23-4.61-35.64-11.11-52.55-19.32-16.14-7.84-31.97-16.28-48.55-23.18-16.66-6.92-34.03-11.51-52.11-12.29-18.13-.78-36.64,1.78-53.61,8.3-4.22,1.62-8.34,3.45-12.39,5.45-.12,.06,.06,.73,.02,.74h0Z"/><path class="cls-1" d="M956.95,490.57l-2.18-1.23c-.53-.3-1.32-.55-1.75-.98,.31,.31,1.23,.46,1.67,.6,.86,.26,1.71,.53,2.57,.79,2.88,.88,5.77,1.74,8.66,2.59,5.78,1.69,11.58,3.3,17.4,4.86,11.71,3.14,23.48,6.03,35.3,8.69,3.33,.75,6.69,1.4,10.01,2.2,1.6,.38,3.24,.75,4.78,1.31,.8,.29,1.6,.57,2.4,.86,1.29,.46,1.96,1.35,2.91,2.33l-.19-7.55c-.87-.5-1.97-.55-2.95-.72s-1.96-.35-2.94-.53c-1.96-.35-3.93-.71-5.89-1.06-3.76-.68-7.51-1.38-11.28-1.99s-7.67-1.03-11.51-1.49-7.67-1.13-11.51-1.58c-1.79-.21-3.6-.23-5.38-.48-1.96-.28-3.92-.55-5.88-.83-3.84-.54-7.67-1.14-11.51-1.72-7.59-1.15-15.19-2.25-22.77-3.48-8.65-1.4-17.3-2.81-25.94-4.24,.11,.02-.08,1.66,.04,1.68,15.36,3.17,30.72,6.33,46.07,9.54,7.59,1.59,15.35,2.86,22.81,4.95,3.8,1.06,7.68,1.81,11.54,2.63,3.77,.81,7.52,1.72,11.29,2.53,4.22,.91,8.49,1.61,12.76,2.32,2.13,.36,4.25,.71,6.38,1.06,1.14,.19,2.29,.38,3.43,.57,1.07,.18,2.37,.62,3.43,.38,.18-.04-.02-3.46-.03-3.78-.02-.89-.05-1.78-.08-2.67,0-.13-.12-1.07-.07-1.1-.64,.44-1.36,1.14-2.11,1.26-.65,.11-1.49-.03-2.14-.04-1.45-.03-2.85-.19-4.29-.38-2.8-.38-5.57-.95-8.34-1.48-5.63-1.08-11.26-2.22-16.87-3.42-11.22-2.39-22.39-5.02-33.5-7.87-6.25-1.6-12.5-3.26-18.72-4.99,.02,0-.02,.18,0,.19l4.36,2.3s0-.04,0-.04h0Z"/><path class="cls-1" d="M503.69,375.99c20.17-8.41,42.56-9.26,63.91-5.73s42.83,11.75,62.99,21.07c20.63,9.53,40.74,20.22,61.89,28.6s44.09,13.52,67.09,16.61c23.32,3.13,46.83,4.66,70.12,8,2.91,.42,5.81,.87,8.7,1.35-.01,0,0-.19,0-.2-23.21-4.02-46.72-5.83-70.09-8.62-23.06-2.75-45.97-6.76-67.88-14.66-21.39-7.71-41.61-18.2-62.11-27.94-20.13-9.56-40.7-18.4-62.57-23.1-21.17-4.54-43.68-5.37-64.42,1.62-2.58,.87-5.12,1.86-7.62,2.95,0,0,0,.04,0,.04h0Z"/><path class="cls-1" d="M647.76,396.7c1.9,1.34,3.64,2.84,5.61,4.08s4.03,2.34,6.13,3.34c4.23,2.02,8.65,3.64,13.07,5.18,9.85,3.42,19.78,6.58,29.77,9.54,20.16,5.97,40.57,11.08,61.16,15.32,11.57,2.39,23.23,4.37,34.91,6.13,0,0,0-.15,0-.16-20.75-3.37-41.4-7.52-61.82-12.49s-40.61-10.81-60.55-17.42c-5.06-1.68-10.13-3.36-15.01-5.52-2.32-1.02-4.59-2.15-6.77-3.44s-4.65-2.81-6.51-4.67c.01,.01-.02,.09,0,.1h0Z"/><path class="cls-1" d="M683.79,412.15c18.22,11.93,40.2,15.65,61.1,20.18,23.46,5.09,46.89,10.37,70.26,15.84s46.71,11.14,69.99,17.01c23.28,5.86,46.52,11.92,69.7,18.16,23.17,6.24,46.3,12.66,69.39,19.21,2.86,.81,5.71,1.63,8.57,2.44-.01,0,.01-.15,0-.16-23.06-6.74-46.17-13.26-69.35-19.55-23.17-6.28-46.39-12.37-69.66-18.27-23.27-5.9-46.59-11.6-69.96-17.12-23.37-5.51-46.78-10.83-70.23-15.96-11.04-2.41-22.15-4.61-33.13-7.29-10.28-2.51-20.5-5.65-29.91-10.57-2.32-1.21-4.58-2.54-6.77-3.97,0,0,0,.03,0,.04h0Z"/><path class="cls-1" d="M1068.19,511.1c-16.46-1.74-32.54-5.7-48.51-9.91-16.49-4.34-32.95-8.79-49.42-13.2l-49.44-13.21c-16.48-4.4-32.95-8.81-49.44-13.18l-49.68-13.17-6.09-1.61s-.02,.19,0,.2l49.44,13.29c16.56,4.45,33.12,8.88,49.69,13.3l49.44,13.18c16.46,4.39,32.91,8.78,49.37,13.17,16.01,4.27,32.12,8.39,48.58,10.5,2.01,.26,4.03,.48,6.05,.68v-.04h0Z"/><path class="cls-1" d="M907.19,477.47c16.45,5.07,32.91,10.06,49.38,15.05,16.49,5,32.98,10.03,49.48,14.99,8.88,2.67,17.85,5.16,27.1,6.07-.02,0,.05-.74-.02-.76-19.28-5.59-38.62-10.95-57.97-16.3s-38.58-10.56-57.91-15.68c-10.94-2.9-21.9-5.76-32.86-8.59,.04,.01-.06,.6,.02,.62,22.99,6.58,46.07,12.82,69.24,18.7,23.17,5.89,46.43,11.42,69.77,16.61,13.1,2.91,26.21,5.77,39.39,8.27-.02,0,.03-.38,0-.39-23.36-5.12-46.76-10.06-70.05-15.55-23.27-5.49-46.46-11.33-69.55-17.51-12.97-3.47-25.91-7.06-38.82-10.75l.02,.62c19.44,5.01,38.86,10.13,58.24,15.36,19.31,5.21,38.58,10.52,57.83,15.95,10.9,3.07,21.77,6.27,32.66,9.4l-.02-.76c-8.22-.78-16.23-2.82-24.13-5.12s-16.2-4.85-24.3-7.28l-49.62-14.9c-9.29-2.79-18.6-5.54-27.91-8.29,.02,0-.02,.23,0,.23h0Z"/><path class="cls-1" d="M988.9,558.83c.4,.18,.58,.45,.93,.68,.32,.21,.67,.32,1.03,.44,.64,.21,1.28,.45,1.91,.7,1.25,.49,2.48,.99,3.68,1.6,2.25,1.16,4.21,2.9,6.55,3.86-.04-.02,.04-.51-.01-.59-1.7-2.35-4-3.87-6.58-5.13-1.15-.56-2.34-1.08-3.56-1.46-.62-.19-1.26-.34-1.9-.48-.35-.08-.66-.13-1.02-.11-.23,.02-.27,.07-.45,.15-.04,.11-.12,.15-.23,.13-.11,0-.23,.01-.34,.02,0,0-.01,.19,0,.2h0Z"/><path class="cls-1" d="M991.17,558.65c1.11,.73,2.32,1.22,3.54,1.74s2.44,1.06,3.7,1.4c1.14,.3,2.42,.54,3.6,.5,1.29-.04,2.56-.64,3.61-1.34,.05-.03-.02-.59-.01-.59-1.19,.07-2.34-.05-3.52-.09-1.26-.04-2.48-.13-3.73-.34s-2.38-.38-3.56-.65-2.39-.66-3.64-.68v.04h0Z"/><path class="cls-1" d="M989.95,558.61c1.84,.89,3.71,.91,5.73,1.03,1.8,.1,3.59,.21,5.39,.34,3.52,.24,7.03,.59,10.44,1.52,5.73,1.56,10.68,4.79,13.67,9.99l-.04-1.8c-.22-.35-.5-.58-.8-.86,.09,.08-.04,.53,.02,.67,.27,.67,.5,1.35,.83,1.99-.24-.46,.19-1.3-.04-1.8-2.5-5.35-8.17-8.58-13.67-10.05-3.4-.91-6.94-1.29-10.44-1.46-1.71-.09-3.42-.11-5.13-.15-2.05-.05-4-.24-5.93,.55v.04h0Z"/><path class="cls-1" d="M1015.98,562.73c2.7,1.9,5.4,3.81,8.1,5.73,.63,.45,1.27,.88,1.93,1.29,.44,.27,1.28,.9,1.65,.19,.13-.25,.16-1.44-.37-1.12-.04,.02,.03,.35,0,.35,.12-.03,.26,0,.32,.12-.01-.03,.09-.02-.05,.04-.09,.04-.19,.03-.29,.02-.55-.08-1.04-.5-1.49-.81-1.05-.72-2.17-1.33-3.27-1.98-2.18-1.28-4.36-2.57-6.54-3.87,0,0,0,.03,0,.04h0Z"/></g><g><path class="cls-2" d="M1112.85,507.84c-13.73,11.13-29.33,19.92-45.95,25.92-8.36,3.02-16.98,5.33-25.74,6.89-8.7,1.55-17.51,2.29-26.21,3.82-9.72,1.71-19.39,4.32-27.76,9.71-.41,.26,.13,1.86,.05,1.92,15.08-9.6,33.55-10.06,50.64-13.08,17.54-3.1,34.52-9.18,50.08-17.85,8.83-4.93,17.17-10.7,24.9-17.21,.02-.02-.01-.11,0-.12h0Z"/><path class="cls-2" d="M986.17,555.27c1.96,.92,3.78,2.19,5.66,3.25s3.78,2.12,5.66,3.18c3.73,2.1,7.46,4.21,11.2,6.29,3.38,1.88,6.85,3.72,10.63,4.66,3.46,.86,7.72,1.09,11.02-.48,.11-.05,.07-.62,0-.7-.35-.39-.69-.78-1.04-1.17,0,0-.05,.27,0,.34,.34,.51,.69,1.01,1.03,1.52v-.7c-1.81,.67-3.47,1.21-5.42,1.29s-3.77-.15-5.59-.59c-3.77-.91-7.25-2.72-10.63-4.58-3.74-2.06-7.46-4.13-11.19-6.2-1.89-1.05-3.77-2.1-5.66-3.14s-3.87-1.91-5.66-3.07c0,0-.02,.09,0,.1h0Z"/><path class="cls-2" d="M986.99,554.82c3.91,2.12,8.39,1.81,12.69,1.89,3.87,.08,7.69,.61,11.39,1.76s7.12,2.81,10.23,5.03c1.61,1.15,3.11,2.44,4.47,3.88s2.4,3.08,3.63,4.62c-.03-.03,.14-.78,.02-.99-.27-.46-.52-.92-.75-1.4,.02,.03-.05,.31,0,.42,.26,.64,.5,1.28,.73,1.92l.04-.94c-1.72-3.34-4.81-6.18-7.84-8.34s-6.66-3.89-10.34-4.98-7.65-1.65-11.56-1.58c-4.27,.08-8.73,.57-12.68-1.4,0,0-.02,.1,0,.12h0Z"/><path class="cls-2" d="M1027.63,570.39c19.52-8.9,39.41-17.01,59.73-23.91,20.36-6.91,41.05-12.66,62.03-17.36,10.69-2.39,21.45-4.53,32.08-7.19,9.56-2.39,19.17-5.03,28.11-9.24,3.87-1.82,7.61-3.95,11.03-6.54s6.15-5.54,8.69-8.91c2.38-3.16,4.03-6.55,5.52-10.21,1.62-3.97,3.4-8.09,6.54-11.11s7.75-4.51,10.63-7.93c2.3-2.74,3.29-6.3,4.35-9.64s2.24-7.11,5.16-9.37,6.78-2.43,10.07-3.87c.8-.35,1.48-.71,2.01-1.42,.63-.86,1.11-1.8,1.48-2.8,.15-.4,.05-1.03,.04-1.44,0-.14-.17-1.09-.13-1.13-.48,.46-1,.69-1.62,.9-.75,.26-1.43,.74-2.18,1.05-1.72,.7-3.58,1.03-5.37,1.53-3.51,.98-6.11,2.85-7.79,6.13s-2.29,6.87-3.61,10.24c-.67,1.73-1.52,3.41-2.74,4.83-1.47,1.7-3.34,2.83-5.28,3.89s-3.83,2.13-5.42,3.68c-1.46,1.42-2.64,3.11-3.63,4.88-2.16,3.88-3.41,8.18-5.03,12.29-.92,2.34-1.9,4.71-3.28,6.82-1.15,1.76-2.56,3.38-4.02,4.89-2.97,3.06-6.42,5.65-10.08,7.83-8.02,4.8-16.96,7.83-25.85,10.57-10.52,3.24-21.21,5.85-31.95,8.24-21.06,4.69-41.94,9.97-62.43,16.75-20.34,6.73-40.46,14.47-59.82,23.67-2.42,1.15-4.83,2.31-7.23,3.49-.08,.04,.02,.39,0,.39h0Z"/><path class="cls-2" d="M1165.94,474.2c8.04,.03,16.38-1.8,21.77-8.18,2.55-3.01,3.08-7.56,6.34-9.97,1.37-1.01,3.1-1.65,3.41-3.52,.43-2.59-.17-5.31-1.05-7.73-.22-.61-.41-1.23-.63-1.84l-.11-.43,.1,4.5c.08-.18,.1-.44,.17-.64,.38-1.14,1.07-2.12,1.86-3.01,1.81-2.04,3.73-3.62,6.07-5.02,2.2-1.31,4.45-2.53,6.56-3.98s3.71-3.42,5.82-4.82,4.77-1.72,7.34-1.75c2.41-.03,4.82,0,7.22,.04,4.72,.07,9.42,.36,14.1,.96,10.48,1.34,20.94,4.29,29.37,10.9l-.05-2.23c-1.49,.18-2.82,.64-4.23,1.12-.08,.03-.01,1.01,.02,1.02,1.46,.14,2.8,.27,4.26,.09,.1-.01,.12-2.1-.05-2.23-10.44-7.77-23.58-9.89-36.29-10.48-3.27-.15-6.54-.32-9.81-.43s-6.71-.53-9.83,.44-5.38,3.27-8.31,4.49-6.31,1.07-9.33,2.12c-3.38,1.18-5.29,4.07-5.61,7.58-.24,2.61-.3,5.68,.46,8.22,.22,.75,.6,1.26,1.02,1.89,.2,.31,.67,.79,.78,1.1l-.19-2.11c-.01,1.43-3.06,2.84-3.94,3.78-1.1,1.17-1.85,2.6-2.5,4.06-1.57,3.55-2.59,7.1-5.62,9.75-5.17,4.53-12.47,5.92-19.14,6.08-.02,0-.02,.23,0,.23h0Z"/><path class="cls-2" d="M1007.56,563.94c-.75,.37-1.74-.63-1.97-1.26l-.02,.93c4.28-2.17,10.18,.34,11.64,4.9l.02-1.39c-1.03-.24-2.15-.14-3.2-.15-.03,0-.03,.29,0,.31,1.04,.47,2.11,1.07,3.23,1.33,.13,.03,.06-1.27,.02-1.39-1.5-4.68-7.44-7-11.74-4.61-.16,.09-.07,.79-.02,.93,.14,.36,.33,.61,.72,.72,.5,.15,.85-.08,1.31-.22,.02,0,0-.1,0-.1h0Z"/><path class="cls-2" d="M1006.35,565.31c-.29-.62-.6-1.24-.87-1.88v.82c.41,.99,1.22,1.75,2.04,2.42,.77,.63,1.62,1.16,2.52,1.57s1.87,.73,2.86,.91c.52,.09,.98-.07,1.48-.18s1.04-.22,1.57-.28c.06,0,.03-.37,0-.41-.73-.99-1.57-1.9-2.49-2.7-.24-.21-.49-.4-.74-.6-.27-.22-.49-.49-.78-.68-.55-.37-1.12-.7-1.72-1-.05-.03-.05,.82-.03,.9,.17,.83,.37,1.65,.6,2.47,.02,.06,.04-.25,.03-.31-.17-1-.33-2-.55-2.99l-.02,.98c.56,.23,1.11,.49,1.64,.8,.24,.14,.48,.19,.7,.31,.26,.14,.51,.35,.74,.53,1.01,.77,1.86,1.68,2.6,2.7v-.41c-.53,.05-.99-.01-1.5-.14s-.97-.4-1.5-.49c-.99-.17-1.94-.42-2.87-.82s-1.73-.88-2.5-1.47c-.42-.33-.82-.69-1.19-1.07-.3-.31-.52-.7-.93-.86-.02,0-.09,.73,0,.83,.32,.34,.59,.73,.89,1.1,0,0,0-.03,0-.04h0Z"/><path class="cls-2" d="M1002.97,562.56c-.08,.28-.6,.17-.64-.1-.04-.24,.41-.47,.58-.57,.55-.3,1.16-.52,1.76-.7,1.25-.37,2.57-.53,3.88-.47s2.54,.32,3.74,.77,2.22,1.24,3.37,1.83c0,0,.04-.33,0-.38-1.02-1.19-2.57-1.89-4.05-2.33-1.58-.47-3.25-.62-4.88-.43-.8,.09-1.59,.27-2.35,.53-.6,.2-1.53,.46-1.95,.98-.17,.21-.26,.58-.19,.85,.1,.36,.55,.46,.74,.1,.01-.02,0-.1,0-.09h0Z"/><path class="cls-2" d="M1015.97,562.79c.22,.05,.12,.6,.04,.77-.05,.1-.07,.13-.18,.15s-.13,.02-.23,.07c-.21,.12-.46,.21-.71,.2-.32,0-.49-.18-.68-.42-.01-.02-.03-.1-.04-.1,.05,.02-.07,.27,0,.19,.03-.04,.04-.15,.06-.2,.06-.14,.15-.27,.25-.39,.17-.19,.41-.34,.67-.37,.41-.04,.61,.26,.83,.56,.51,.69,.92,1.45,1.22,2.25,.36,.96,.54,1.98,.55,3.01,0,.05,.03,.21,.04,.07,.08-1.18-.08-2.37-.46-3.49-.19-.57-.44-1.13-.74-1.65-.15-.26-.31-.51-.49-.75-.15-.21-.32-.51-.54-.65-.33-.21-.77-.02-1.03,.21-.28,.26-.44,.61-.47,.99s-.04,.85,.2,1.16,.66,.39,1,.22c.18-.09,.38-.24,.48-.42,.05-.09,.05-.21,.09-.3,.03-.06,.07-.11,.11-.16,.05-.08,.08-.17,.11-.27,.08-.3-.01-.49-.11-.77,0,0-.02,.09,0,.1h0Z"/><path class="cls-2" d="M1009.58,565.04c-.03,.07-.09,0-.13-.03,0,0-.02-.04-.03-.04,0,0-.02,.06,0,.06h0s.04-.05,.06-.06c.03-.02,.06-.03,.1-.04,.07-.02,.15-.03,.23-.04s.16,0,.23,.03c.1,.06,.15,.18,.18,.29,.01,.05,.02,.12,.03,.15,0,.07,0-.08,0,.03v.07s0,.09,0,.14c.01,.37,.02,.81,.23,1.13,.05,.08,.13,.17,.22,.19,.04,0,.07,0,.11,0,.12-.03,.04-.05,.24,0,.12,.04,.13-.86,.13-.89,0-.22,0-.43-.03-.65-.02-.14-.02-.35-.1-.47-.06-.08-.12-.07-.19-.02-.12,.08-.17,.21-.21,.34-.08,.31-.07,.66-.06,.98,0,.28,.02,.56,.08,.83,.03,.17,.08,.35,.19,.49,.07,.09,.16,.17,.26,.23,.08,.05,.19,.07,.29,.07,.11,0,.24,0,.31-.09,.06-.08,.1-.19,.13-.29,.03-.14,.05-.36,.07-.47l-.03,.11c.09-.19,.12-.4,.12-.61,0-.07,0-.14-.01-.21,0,0-.01-.09-.03-.05,.02-.04-.19-.31-.28-.4-.05-.05-.07-.06-.13-.07-.08-.01-.16-.04-.23-.07-.08-.04-.14-.09-.22-.13-.07-.04-.14-.07-.2-.12l.04,.04s-.06-.05-.08-.08c-.02-.03-.08-.14-.04-.05,.02,.04,.02,.05,.01,.03,.13,.54,.14,1.1,.04,1.67,.03-.09-.03,.06-.01,.03,.03-.04,.05-.09,.08-.13l-.04,.04s.11-.1,.16-.06l-.04-.04h0l-.1-.46v.05l.04-.94c-.05,.13-.21,.52-.42,.38-.06-.04-.11-.14-.14-.2-.01-.03-.02-.06-.03-.09,0,0-.01-.06,0-.02,0,0-.01-.11,0-.04-.02-.23-.02-.46-.06-.69-.05-.26-.15-.59-.48-.49-.19,.06-.4,.3-.43,.51,0,.06-.02,.17,.06,.19,.02,0,.05,0,.07,0,.04,0,.04,.05,.05,.03,.02-.02-.01-.08,0-.09h0Z"/><path class="cls-2" d="M1011.92,564.19c.06,.03,.11,.2,.13,.26s.05,.12,.08,.19c.08,.19,.14,.38,.21,.57,.08,.24,.07,.51,.14,.76l.05,.19c-.02-.15-.01-.11,.01,.11,.02,.14,.05,.27,.1,.41,.24,.58,.51,1.16,.77,1.74l-.05-2.24c-.03,.08-.09,.15-.15,.21l.04-.04c-.09,.09-.21,.13-.27,.24-.07,.13-.14,.36-.3,.4-.12,.03-.37,.02-.41-.13-.03-.11-.06,.02-.06,.06-.02,.15-.01,.3,0,.45,.03,.34,.16,.62,.43,.83,.16,.12,.25,.26,.36,.42,.05,.07,.09,.13,.19,.11,.05-.01,.1-.04,.15-.07,.23-.17,.24-.53,.26-.78,.02-.3,.02-.6,0-.89-.02-.23-.03-.47-.09-.69-.04-.13-.11-.25-.18-.37l-.65-1.24-.04-.04c-.05,.06-.1,.07-.15,.04-.12,.07-.2,.07-.25-.02-.03-.03-.06-.08-.08-.12-.08-.14-.17-.29-.21-.44,0-.01-.02,.08,0,.09h0Z"/><path class="cls-2" d="M986.48,556.72c1.74,.81,3.46,1.54,5.09,2.57,1.52,.96,2.97,2.04,4.38,3.16,2.92,2.33,5.69,4.84,8.75,6.99s6.59,4.15,10.31,5c2.28,.52,4.65,.56,6.98,.65,1.23,.05,2.46,.09,3.69,.09,.56,0,1.12,0,1.67-.1,1.16-.21,.87-.54,2.07,.3,.28,.19,.49-3.86,.49-3.86-.02-.91,.21-2.54-.52-3.26-.2-.2-.24,.77-.24,.83-.03,.58-.03,1.22,.13,1.78-.39-1.34-1.1-.28-1.63,0s-1.08,.43-1.64,.56c-1.19,.29-2.42,.5-3.63,.71-2.32,.4-4.61,.56-6.96,.44-3.96-.19-7.36-1.61-10.6-3.82-3.05-2.09-5.82-4.55-8.75-6.79s-6.09-4.63-9.6-5.42c0,0-.02,.14,0,.16h0Z"/><path class="cls-2" d="M855.69,375.83c2.91,.08,5.87,.59,8.76,.93s5.63,.62,8.44,.95c5.73,.67,11.45,1.41,17.15,2.25,11.29,1.66,22.53,3.72,33.63,6.36,21.94,5.22,42.81,13.24,63.29,22.59,20.18,9.21,39.99,19.25,60.7,27.26,10.75,4.16,21.76,7.53,32.76,10.95s22.31,7.28,33.24,11.59c21.93,8.65,43.44,18.46,64.93,28.15l8.09,3.65c-.24-.11,.29-2.13-.06-2.27-21.71-9.01-43.24-18.46-65.01-27.32-10.73-4.36-21.57-8.43-32.61-11.95s-22.58-6.76-33.69-10.7c-20.91-7.41-40.83-17.24-60.93-26.56-20.29-9.42-40.85-18.12-62.53-23.84-22.1-5.84-44.98-9.4-67.74-11.39-2.8-.24-5.67-.31-8.44-.74,0,0,0,.1,0,.1h0Z"/><path class="cls-2" d="M823.94,373.17c-1.53-1.08-3.13-2.11-4.61-3.26l.04,1.78c1.76-.27,3.33-1.36,4.85-2.25,1.71-1,3.39-2.06,5.02-3.19,2.67-1.84,5.89-3.71,6.65-7.09,.79-3.56,.91-7.37,1.06-11,.16-3.96,.11-7.94-.12-11.89-.43-7.45-1.62-14.8-3.04-22.11-1.54-7.93-3.19-15.83-4.81-23.74-1.82-8.91-3.61-17.82-5.44-26.72v2.43c2.61-1.78,5.08-3.59,7.49-5.62,.19-.16-.12-1.25-.03-1.29-2.63,1.28-5.05,2.72-7.52,4.3-.33,.21-.06,2.1,0,2.43,2.93,14.78,5.92,29.54,8.89,44.31,1.46,7.25,2.94,14.5,3.77,21.85s.76,14.77-.09,22.13c-.26,2.21-.64,4.1-2.3,5.7-1.28,1.23-2.77,2.28-4.2,3.32-1.62,1.18-3.29,2.29-5,3.34s-3.66,1.95-5.22,3.3c-.15,.13-.12,1.72,.04,1.78,1.56,.65,3.07,1.51,4.58,2.26-.07-.03,.11-.69-.02-.78h0Z"/><path class="cls-2" d="M830.6,260.96c-.42-.62-.79-1.26-1.17-1.9-.27-.45-1.16-1.4-.2-.94,1.16,.56,2.27,1.56,3.3,2.32,2.16,1.58,4.26,3.23,6.31,4.94,3.93,3.28,7.65,6.82,11.19,10.52,7.14,7.47,13.56,15.6,19.75,23.86,12.94,17.26,25.9,34.7,36.89,53.29,3.16,5.35,6.15,10.8,8.86,16.39,1.4,2.88,2.75,5.75,3.83,8.77,.61,1.7,1.2,3.41,1.77,5.13,.32,.95,.63,1.89,.93,2.84,.11,.35,.22,.69,.33,1.04,.08,.25,.44,1.98,.35,.9l.03-5.13c-.06,.36-.5,.82-.77,1.05l.39,3.49c.02-1.16,.18-2.39-.48-3.23-.19-.25-.24,.94-.25,.96-.08,1.36-.04,2.89,.38,4.2,.09,.27,.21,.84,.51,.96,.54,.22,.72-.54,.8-.99,.38-2.1,.2-4.53-.11-6.62-.19-1.27-.81-2.29-1.4-3.41-1.14-2.12-2.49-4.14-3.57-6.29-1.25-2.47-2.44-4.96-3.73-7.41-5.41-10.2-11.53-20-18.02-29.54s-13.5-18.98-20.4-28.35c-6.54-8.88-13.12-17.75-20.37-26.07-8.02-9.18-16.88-17.68-27.22-24.21,0,0,0,.09,0,.1,.7,1.13,1.43,2.25,2.08,3.41,0,0,.02-.07,0-.1h0Z"/><path class="cls-2" d="M924.3,495.4c-.34,.22-.74,.36-1.05,.6s-.6,.62-.87,.92c-.72,.77-1.42,1.56-2.1,2.37-1.23,1.45-2.39,2.95-3.5,4.49-2.18,3.05-4.09,6.28-5.74,9.64s-2.89,7.27-4.57,10.81-4.31,6.33-7.71,8.4-7.15,3.58-10.76,5.22l-12.42,5.65c-8.28,3.76-16.52,7.61-24.85,11.24-3.95,1.72-8.17,3.21-11.86,5.47-2.83,1.73-5.14,4.08-5.4,7.53l.07-.32c-3.06-1.52-5.22,2.6-5.86,4.98-.81,3.03-1.96,5.82-5.05,7.06-.04,.02-.03,.56,.01,.59,.63,.35,1.22,.66,1.9,.31,.57-.3,1.05-.79,1.42-1.31,.79-1.1,1.25-2.46,1.61-3.75,.68-2.42,2.61-7.35,6.01-5.71,.04,.02,.07-.37,.07-.32,.26-3.36,3.03-5.77,5.71-7.44,3.3-2.06,6.99-3.55,10.5-5.21,8.01-3.8,16.1-7.42,24.17-11.1l12.2-5.57c3.68-1.68,7.44-3.24,11-5.17,3.08-1.67,5.94-3.78,7.87-6.76,2.07-3.18,3.11-6.89,4.59-10.36,1.81-4.22,4.04-8.25,6.64-12.04,1.2-1.75,2.49-3.45,3.85-5.09,.68-.82,1.38-1.62,2.09-2.41,.78-.85,1.37-1.68,2.04-2.61,.01-.01,0-.1,0-.1h0Z"/><path class="cls-2" d="M819.37,582.52c.24,.86-2.49-.03-.66-.88,1.15-.54,2.79,.16,3.95,.38,3.34,.63,6.73,.96,10.13,1.04,6.81,.15,13.61-.75,20.26-2.18,13.48-2.9,26.42-7.91,39.33-12.64,25.91-9.48,51.5-19.73,75.65-33.16,6.58-3.66,13.06-7.49,19.43-11.5,3.12-1.97,6.22-3.97,9.29-6.02,.77-.51,1.53-1.03,2.3-1.54,.71-.48,1.46-1.19,2.29-1.46,.7-.23,1.57-.22,2.31-.33,.48-.07,.77-.05,1.14-.39,.58-.52,1.03-1.43,1.48-2.06,.36-.5,.02-5.68-.14-5.67-1.02,.05-1.61-.06-2.28,.8-.75,.95-1.49,1.89-2.24,2.84-1.16,1.46-3.04,2.41-4.57,3.44-2.94,1.99-5.9,3.93-8.89,5.85-5.98,3.82-12.04,7.51-18.2,11.04-12.47,7.16-25.29,13.76-38.35,19.76-13.74,6.31-27.87,11.73-42,17.07-13.77,5.21-27.57,11.05-42.08,13.87-7.87,1.53-15.98,2.1-23.95,.96-.65-.09-6.22-1.54-5.51,.75,.2,.65,1.58,.85,1.32,0,0,0,0,.03,0,.04h0Z"/><path class="cls-2" d="M1003.78,512.99c-1.16-.15-2.04-.04-3.13,.38-.03,.01-.01,.43,.01,.44,2.73,.73,5.68,.67,8.5,.9s5.48,.56,8.21,.96c5.55,.82,11.05,1.98,16.54,3.13,11,2.31,21.91,5.08,33.03,6.75,3.03,.45,6.07,.83,9.13,1.09,1.53,.13,3.06,.21,4.59,.38,.59,.07,1.56,.3,2.14,.11,.38-.13,.47-.47,.69-.8,.31-.46,.66-.8,1.02-1.21,.17-.2-.23-1.06-.03-1.21-.8,.61-.67,.13-1.4-.22-.45-.21-1.1,0-1.66,.04-1.43,.09-2.84,.02-4.27-.08-2.75-.2-5.49-.5-8.22-.86-5.56-.75-11.07-1.79-16.56-2.93-10.96-2.28-21.87-4.91-33-6.21-3.02-.35-6.06-.62-9.1-.77s-6.58-.44-9.6,.5v.44c.85-.78,2.03-1.1,3.13-.72,0,0,0-.1,0-.1h0Z"/><path class="cls-2" d="M1010.19,490.6c-.1-.91,.15-1.63,.72-2.3l-.05-.33c.34,4.18,1.08,8.33,2.32,12.34,.64,2.09,1.41,4.14,2.29,6.14,.44,.99,.9,1.95,1.41,2.9,.28,.52,.77,1.98,1.4,2.09,.06,.01,.07-.56,.07-.57,.02-1.16,.09-2.31,.15-3.47,0-.08-.03-.41-.04-.37-.05,.48-.09,.97-.15,1.45,0,.64-.09,.66-.26,.05-.11-.27-.25-.53-.4-.78-.51-.95-1.02-1.88-1.5-2.85-.9-1.81-1.71-3.66-2.4-5.56-1.43-3.94-2.38-8.02-2.82-12.18,0,0-.01-.25-.05-.17-.61,1.14-.84,2.39-.68,3.67,0,.04,0-.06,0-.07h0Z"/><path class="cls-2" d="M1019.66,489.03l-.92-1.64-.03,.61c-.02,.64,0,1.27,.02,1.91,.03,.69,.07,1.38,.12,2.07,.1,1.23,.23,2.47,.43,3.69,.31,1.98,.79,3.96,1.41,5.87,1.21,3.7,3.01,7.16,5.28,10.32l.08-.15c.5-1.12,.55-2.41,.97-3.57,.32-.89,.61-1.77,1.02-2.63,.13-.29-.21-1.61-.06-1.73-.31,.25-.48,.46-.87,.41l-1.12-.62-.22,.17c-.15-.1-.28-.39-.38-.53-.57-.8-1.09-1.62-1.59-2.47-.91-1.55-1.7-3.17-2.37-4.84s-1.17-3.24-1.59-4.9c-.36-1.45-.47-2.97-.86-4.41l.22,4.65c-.68-1.94-.56-2.81,.35-2.62,.17,0,.21,.14,.12,.39,0,0,0,.04,0,.04h0Z"/><path class="cls-2" d="M1026.62,484.06c-1.36,3.27-.06,7.13,1,10.27,1.86,5.51,3.82,10.97,5.61,16.51,.05,.19,.1,.19,.15,0,.28-1.46,.3-2.95,.46-4.42s.39-2.83,.63-4.25c.06-.37-.13-1.13-.06-1.36-.13,.41-.24,.84-.4,1.25-.23,.57-.21,.55-.75,.58-.45,.02,.2,.63-.4-.03-.26-.28-.49-.74-.68-1.07-.88-1.57-1.61-3.23-2.38-4.86-1.76-3.76-4.8-8.11-3.17-12.39,.02-.06-.03-.19-.01-.23h0Z"/><path class="cls-2" d="M1033.3,486.96c.82,3.52,1.74,7.02,2.68,10.51,.44,1.65,.89,3.3,1.37,4.94,.59,2.05,1.43,4.13,1.56,6.26,0,.16,.3,2.82,.45,1.34,.14-1.34,.12-2.2,.83-3.22,.12-.17,.06-1.88-.05-1.88-.35,.03-.67-.08-.96-.34l.25,1.88-.04-.7c-.01-.23,0-2.72-.37-2.76-.99-.11-1.1-1.42-1.35-2.18-.22-.66-.43-1.32-.64-1.98-.43-1.33-.87-2.66-1.3-4-.84-2.64-1.63-5.29-2.45-7.93,0,0,0,.03,0,.04h0Z"/><path class="cls-2" d="M1039.53,511.22c2.3-.15,4.69,.12,6.99,.21s4.66,.17,6.99,.23l13.74,.37c8.97,.24,18.04,.85,27.01,.34,4.86-.28,9.69-1.01,14.32-2.57v-.33c-3.89,4.2-9.15,6.95-14.8,7.78-.02,0,0,.2,0,.2,5.71-.71,10.9-3.41,14.8-7.64,.03-.04-.02-.33,0-.33-8.22,2.78-16.94,2.88-25.52,2.7-9.26-.2-18.53-.47-27.79-.7-2.58-.07-5.16-.12-7.74-.16s-5.38,.13-7.99-.18c0,0,0,.1,0,.1h0Z"/><path class="cls-2" d="M922.72,494.42c-.57,.59-1.23,1.1-1.85,1.64v.28c1.71-4.13,6.68-5.36,10.7-5.23,4.94,.16,9.94,1.05,14.83,1.71,9.62,1.31,19.26,3.08,28.37,6.52,1.28,.48,2.54,1,3.79,1.55,.84,.37,2.42,1.41,3.29,.61,.38-.35,.67-2.08,0-2.3,.04,.01-.03,.42,.01,.47,.36,.45-.55,.72-1.14,.64-1.1-.14-2.23-.89-3.24-1.31-2.02-.84-4.08-1.59-6.17-2.27-4.25-1.37-8.6-2.43-12.98-3.27-4.49-.87-9.01-1.52-13.54-2.09s-8.99-1.36-13.47-1.35-8.94,1.57-10.45,6.03c-.02,.05,.03,.26,0,.28,.6-.62,1.19-1.27,1.85-1.83,.02-.02-.02-.09,0-.1h0Z"/><path class="cls-2" d="M1002.46,511.05s-.05-.06-.06-.07l-.03-.07-.08-.16-.15-.31-.31-.64s0,.03,0,.04l.39,.77,.19,.38s.04,.07,.05,.11c0,.05,0,.04,0,.02,0-.02-.01-.06,0-.09h0Z"/><path class="cls-2" d="M993.23,505.25c1.99,.74,4.19,.96,6.28,1.3,1.77,.29,3.79,.47,5.23,1.65,.63,.51,1.13,1.23,1.34,2.02,.02,.09,.04,.17,.06,.26,.02-.63,0-.76-.05-.41-.08,.19-.12,.39-.23,.57-.14,.23-.33,.4-.54,.55-.75,.53-2.33,1.04-2.87-.04,.06,.12-.04,.36,.01,.51,.44,1.32,2.33,1.96,3.28,.76,.48-.6,.47-1.4,.46-2.13-.02-.78-.06-1.52-.45-2.21-1.03-1.85-3.29-2.18-5.2-2.38-2.38-.25-4.94-.74-7.33-.48v.04h0Z"/><path class="cls-2" d="M717.46,432c-1.94-1.44-4.69-1.78-7.03-1.61-.04,0-.02,.6,.02,.66,.53,.75,1.27,1.32,2.13,1.64s1.83,.16,2.67-.08c.03,0-.01-.27,0-.27-.94,.22-1.8-.03-2.68-.34s-1.6-.86-2.13-1.6l.02,.66c1.2-.11,2.42-.05,3.6,.16s2.27,.64,3.42,.91c0,0,.01-.11,0-.12h0Z"/><path class="cls-2" d="M710.05,433.92c.41-.7-.19-1.37-1.03-1.13-.51,.15-.91,.63-1.28,.98-.59,.55-1.17,1.1-1.76,1.65-1.18,1.11-2.35,2.24-3.51,3.36-.73,.7-1.96,1.51-2.25,2.54-.11,.38-.03,.77-.03,1.15,.01,1.03-.15,1.54-.93,2.18-.57,.47-1.19,.89-1.78,1.34l-3.79,2.83c-.08,.06-.03,.53,0,.6,.76,1.43,2.31,1.89,3.82,2.13,2.19,.35,4.45,.49,6.67,.54,4.46,.1,8.92-.33,13.3-1.14s8.77-2.01,13.02-3.48c2.17-.75,4.31-1.56,6.43-2.43,.99-.41,1.97-.83,2.94-1.26,.5-.22,1.32-.42,1.66-.88,.23-.31,.41-.92,.59-1.28,.04-.08-.05-.25-.01-.31-.63,.96-1.64,1.14-2.69,1.6-.98,.43-1.96,.85-2.95,1.26-1.98,.82-3.98,1.58-6.01,2.29-4.18,1.46-8.45,2.66-12.79,3.49s-8.68,1.28-13.07,1.3c-2.12,0-4.23-.09-6.34-.32-1.7-.18-3.68-.46-4.58-2.12v.6c1.92-1.47,4.09-2.83,5.84-4.5,.78-.74,.74-1.37,.73-2.34,0-1.75,1.44-2.66,2.56-3.77,.82-.81,1.64-1.61,2.46-2.43,.94-.94,1.84-1.91,2.81-2.83,.3-.29,.64-.67,1.07-.76,.36-.08,1.61,.22,.88,1-.02,.02,.01,.08,0,.1h0Z"/><path class="cls-2" d="M741.26,442.91c12.63-1.64,25.37,1.86,37.56,4.84,12.28,3,24.41,6.51,36.46,10.34,24.13,7.68,47.98,16.25,71.84,24.72,6.73,2.39,13.47,4.74,20.24,7.01,3.2,1.07,6.39,2.22,9.63,3.15,1.3,.37,2.65,.67,4,.65,.59,0,1.5-.02,2.04-.31,.77-.42,1.3-1.47,1.71-2.18,.05-.08-.05-.86-.02-.86-.51,.06-.96-.06-1.45-.05-.55,0-1.1,.25-1.65,.31-1.21,.14-2.44-.02-3.62-.27-2.86-.61-5.66-1.64-8.45-2.51-6.01-1.88-12.01-3.81-17.99-5.76-12-3.92-23.91-8.07-35.85-12.17-23.84-8.18-47.84-15.98-72.31-22.05-6.9-1.71-13.83-3.33-20.81-4.64s-14.3-2.24-21.32-.59c-.04,0,0,.39,0,.39h0Z"/><path class="cls-2" d="M462.79,387.73c16.49,1.38,32.75-3.46,48.53-7.61,7.97-2.1,16.02-4.02,24.23-4.9,8.89-.94,17.89-.45,26.72,.79,17.28,2.44,34.29,7.57,50.79,13.17s31.86,11.77,47.04,19.26c7.71,3.81,15.3,7.89,22.77,12.15,3.64,2.08,7.23,4.24,10.84,6.38,1.81,1.07,3.62,2.13,5.46,3.13s3.82,1.93,5.62,3.12c.93,.61,1.9,1.35,2.91,1.82,.53,.25,.67,.22,1.25,.06s1.12-.34,1.68-.53c.05-.02,.07-2.81-.07-2.93-.86-.77-1.89-2.14-3-2.41-.94-.23-1.93-.31-2.88-.51-2.02-.42-3.79-1.44-5.6-2.41-3.69-1.97-7.27-4.15-10.92-6.21-7.33-4.13-14.79-8.01-22.37-11.66-15.3-7.37-30.91-14.04-46.95-19.64-16.32-5.71-33.12-10.8-50.17-13.82-8.78-1.56-17.69-2.4-26.62-1.95-8.37,.43-16.6,2.08-24.69,4.17-15.99,4.12-31.69,10.07-48.39,10.57-2.06,.06-4.12,.03-6.18-.09v.04h0Z"/><path class="cls-2" d="M710.77,430.6c-.84,.14-1.59,.24-2.44,.23,0,0-.04,.51,.01,.53,1.71,.68,3.76,.86,5.56,1.24l5.56,1.15,5.56,1.15c1.19,.25,3.27,.25,3.81,1.6l-.03-.66v-.18c-.03,.17-.1,.33-.2,.47-.04,.07,.04,.66,.02,.67,.53-.11,.19-1.51-.06-1.81-.6-.73-1.71-.76-2.56-.92l-3.57-.67-6.95-1.31-3.38-.63c-1.22-.23-2.53-.63-3.77-.63v.53c.83-.32,1.59-.53,2.44-.71v-.04h0Z"/><path class="cls-2" d="M597.11,393.01c.11-.7,.51-1.39,.96-1.93s1.02-.96,1.66-1.24c0,0,0-.04,0-.04-.64,.29-1.21,.72-1.66,1.26-.22,.26-.41,.55-.57,.85-.07,.14-.14,.28-.2,.42-.03,.09-.07,.17-.1,.26-.03,.1-.05,.22-.1,.31-.01,.02,0,.08,0,.1h0Z"/><path class="cls-2" d="M599.53,389.11c.17-.54,.29-1.56,.79-1.81,.46-.23,1.15,.2,1.63,.39,1.23,.47,2.45,.92,3.67,1.42,2.17,.88,4.32,1.84,6.43,2.86,4.35,2.1,8.56,4.49,12.61,7.13,8.23,5.37,15.43,11.85,21.95,19.19,.92,1.04,1.86,2.08,2.66,3.21,.4,.56,.78,1.15,1.08,1.77,.14,.28,.72,2.27,.75,2.28-.23-.05,.28-1.92-.13-.3-.08,.31-.19,.62-.33,.91-.22,.48-.52,.93-.89,1.31-.44,.46-.55,.55-1.11,.38-.61-.19-1.01-.25-1.65-.35l.11,4.66c6,.2,12.16-.33,17.96-1.94,2.88-.8,5.72-1.79,8.45-3.01,.98-.43,2.05-.61,2.99-1.1,1.28-.66,1.34-3.67,1.44-4.97,.01-.18,.11-1.24-.04-1.34l-1.09-.64c-.11,.17-.23,.33-.35,.48-.16,.21-.34,.41-.52,.61-.41,.44-.84,.87-1.32,1.25-.94,.74-2.26,1.12-3.38,1.54-2.58,.98-5.22,1.75-7.88,2.43-5.36,1.38-10.86,2.06-16.39,2.03-.14,0-.01,4.66,.11,4.66,1.35-.1,1.6-1.18,2.49-2.02,.79-.75,1.31-1.76,1.51-2.83,.28-1.49,.2-3.36-.21-4.81-.68-2.42-2.54-4.34-4.2-6.15s-3.46-3.58-5.29-5.27c-7.53-6.95-16-13.01-25.13-17.68-5.15-2.64-10.53-4.96-16.09-6.61h0c-.22,.77-.44,1.53-.66,2.3,0,.01,0,.03,0,.04h0Z"/><path class="cls-2" d="M612.49,345.08c-.77,.03-1.55,.05-2.32,.08v.39c4.55-1.25,9.08-2.51,13.63-3.74l7.04-1.92c1.7-.46,4-.65,4.88-2.38,.7-1.37,.76-3.11,.91-4.62,.19-1.88,.24-3.76,.17-5.65-.13-3.49-.69-6.99-3.15-9.64l.09,3.83c8.28,1.52,15.96,4.56,22.93,9.33s12.81,10.82,17.28,17.86c2.6,4.09,4.56,8.45,6.12,13.03,.04,.11,.12-1.04,.12-1.18,0-.68,0-1.41-.13-2.08-.13-.6-.38-1.15-.55-1.73,.05,.18-.05,.78,0,1.07,.19,1.25,.31,2.51,.54,3.75l.02-3.09c-4.97-16-17.66-29.44-32.77-36.35-4.32-1.98-8.95-3.59-13.64-4.44-.05,0-.24,3.47,.09,3.83,1.98,2.12,2.86,4.93,2.68,7.79-.11,1.67-.31,3.37-.56,5.03-.35,2.3-1.97,2.71-3.9,3.38-7.26,2.52-14.53,5.03-21.8,7.52-.05,.02,0,.39,0,.39,.77-.14,1.54-.29,2.31-.43v-.04h0Z"/><path class="cls-2" d="M677.4,358.67c9.24,1.74,18.44,3.66,27.71,5.25,9.19,1.58,18.42,2.99,27.65,4.4,18.34,2.82,36.74,5.23,55.24,6.71,5.17,.42,10.35,.85,15.53,1.16,2.63,.16,5.26,.3,7.9,.41,1.23,.05,2.47,.1,3.71,.14,.68,.02,1.31,.05,1.97-.05,.94-.14,1.48-.69,2.19-1.28,.07-.06,.04-1.19-.03-1.25-.55-.45-1.08-1.03-1.76-1.24-.55-.17-1.17-.19-1.73-.21-1.15-.03-2.3-.01-3.46-.02-2.3-.02-4.61-.07-6.91-.13-4.68-.12-9.37-.32-14.04-.58-9.28-.52-18.55-1.49-27.78-2.52-18.41-2.06-36.76-4.63-55.09-7.25-10.34-1.48-20.72-2.46-31.09-3.66,0,0,0,.1,0,.1h0Z"/><path class="cls-2" d="M821.24,375.9c-2.56-.35-5.29-.02-7.87,.05-2.71,.07-5.41,.11-8.12,.06-5.33-.11-10.64-.52-15.92-1.2,0,0-.02,.23,0,.23,5.28,.79,10.6,1.31,15.93,1.54,2.62,.11,5.25,.16,7.87,.12s5.55,0,8.1-.76v-.04h0Z"/><path class="cls-2" d="M278.61,240.43c.01-.3-.03-.79,.05-1.07l.02-.36c.29,.11,.59,.21,.89,.3,.74,.23,1.5,.4,2.27,.53,1.69,.29,3.4,.39,5.11,.39,3.62,.01,7.25-.34,10.87-.57s7.24-.46,10.86-.71l5.43-.38c.77-.05,1.91-.38,2.49,.12,.47,.41,.76,1.15,1,1.71-.13-.31,.03-.88-.03-1.23-.13-.78-.3-1.44-.78-2.08-.24-.32-.39-.47-.76-.54-.43-.08-1.04,.09-1.48,.13l-5.43,.48c-3.7,.33-7.4,.69-11.1,1.04s-7.09,.73-10.64,1.02c-1.7,.14-3.41,.2-5.11,.07-.92-.07-1.83-.2-2.72-.4l-.45-.11c-.43-.26-.58-.16-.46,.32-.13,.33-.03,.94-.05,1.29,0,.01,0,.03,0,.04h0Z"/><path class="cls-2" d="M314.2,238.21c1.97,2.99,4.57,5.42,7.14,7.89,2.44,2.34,4.94,4.62,7.51,6.82,5.02,4.32,10.26,8.38,15.65,12.23,10.99,7.84,22.58,14.82,34.37,21.38,11.73,6.53,23.73,12.55,35.64,18.75,11.17,5.82,22.22,11.93,32.51,19.23,5.71,4.06,11.18,8.49,16.16,13.42,2.52,2.49,4.92,5.1,7.15,7.84,1.08,1.32,2.12,2.68,3.12,4.06,.54,.75,1.07,1.51,1.59,2.27,.43,.63,.92,1.05,1.5,1.54-.25-.22,.11-1.38-.04-1.72-2.58-5.85-7.29-10.96-11.74-15.49s-9.02-8.37-13.95-12.03c-10.17-7.54-21.27-13.72-32.46-19.59-23.52-12.34-47.66-23.71-69.72-38.62-6.17-4.17-12.16-8.59-17.89-13.35-2.91-2.42-5.76-4.92-8.52-7.51-1.33-1.25-2.64-2.52-3.93-3.81s-2.5-2.64-4.09-3.64c.03,.02-.02,.26,0,.31h0Z"/><path class="cls-2" d="M473.51,353.21c1.11-.02,1.71,1.18,1.12,2.08-.49,.76-1.27,1.34-1.92,1.96-1.52,1.45-3,2.95-4.52,4.4-1.41,1.35-2.97,2.65-4.62,3.7s-3.07,2.48-4.37,4c-1.84,2.14-1.25,5.45-1.03,8.06,.1,1.16,.25,2.04,.84,3.03s1.16,1.94,1.74,2.91c1.17,1.95,2.22,4.09,3.59,5.9s3.26,1.5,5.25,1.42c2.54-.1,4.94-.45,7.44-.9s5.23-.63,7.82-.82c.05,0,.13-2.18-.06-2.27-2.74-1.26-5.53-2.2-8.4-3.12-1.43-.46-2.86-.85-4.35-.99-1.41-.14-2.82,0-4.23,.04-1.16,.03-2.29-.08-3.17-.91s-1.43-2.04-2.04-3.04c-.7-1.16-1.41-2.31-2.12-3.46l-1.12-1.83c-.2-.33-.41-.65-.59-.98-.1-.18-.32-.86-.25-.2l.09,6.24c.09-.59,.89-1.29,1.24-1.74,.47-.59,.94-1.18,1.39-1.79,1.08-1.47,1.96-3.03,2.93-4.57,1.84-2.9,3.82-5.64,5.99-8.3,.96-1.18,1.93-2.35,2.9-3.52,.74-.9,1.71-1.84,1.92-3.04,.19-1.07-.02-2.53-1.48-2.28v.04h0Z"/><path class="cls-2" d="M277.81,238.07c-1.55-3.69-2.08-7.72-3.59-11.41-1.21-2.97-2.57-5.85-4.14-8.65-2.87-5.12-6.11-10.01-9.72-14.64s-7.7-9.14-12.04-13.24c-4.05-3.83-8.43-7.28-12.5-11.09-4.52-4.23-8.63-8.97-10.93-14.79l.2,8.14c2.5-.94,5.54-.42,8.18-.48,2.79-.07,5.58-.05,8.37-.22,0,0,.02-1.24-.03-1.25-2.83-.44-5.73-1-8.43-1.97-2.91-1.05-5.99-2.08-8.29-4.21,.03,.03-.03,1.34-.03,1.19,0,.96,.02,1.92,.05,2.88s.05,1.92,.1,2.88c.02,.36-.04,.86,.09,1.19,4.14,10.51,13.85,17.1,21.9,24.44,8.7,7.92,16.19,17.18,22.23,27.27,1.63,2.72,3.08,5.53,4.71,8.25,.3,.51,.61,1.53,1.05,1.87,.3,.23,.66,.14,.97,.43,.9,.84,1.46,2.4,1.86,3.52-.01-.03,0-.07,0-.1h0Z"/><path class="cls-2" d="M239.97,182.06c-1.64-5.72-4.24-10.66-7.9-15.34v.58c5.63,1.7,11.26,3.22,16.78,5.24s11.08,4.34,16.48,6.81c10.86,4.97,21.39,10.61,31.92,16.24,21.85,11.69,43.5,23.74,64.95,36.14s42.04,24.86,62.84,37.68,40.2,24.76,61.02,35.88c10.29,5.5,20.75,10.69,31.42,15.4,5.44,2.4,10.93,4.7,16.5,6.79s11.06,3.9,16.87,4.54c2.88,.32,5.79,.43,8.69,.36,.01,0,.01-.66-.02-.67-5.87-.32-11.65-1.81-17.24-3.56s-11.27-3.9-16.8-6.17c-10.87-4.46-21.52-9.45-31.99-14.8-20.89-10.68-41.01-22.76-61.02-34.99s-41.35-25.26-62.31-37.42-43.18-24.56-65.07-36.3-41.78-23.03-64.56-29.68c-2.79-.81-5.58-1.59-8.45-2.07,.03,0-.03,.53,.01,.58,3.81,4.1,6.55,9.43,7.89,14.86,0-.03,0-.07,0-.1h0Z"/><path class="cls-2" d="M553.12,333.15c17.23,3.11,34.38,6.93,51.28,11.52,2.36,.64,4.71,1.3,7.06,1.97,.52,.15,1.2,.25,1.65,.58,.83,.62,1.26,1.92,1.93,2.71,1.21,1.43,1.1-1.28,1.45-2.03,.31-.68,.73-1.32,1.1-1.98,.13-.24-.23-1.63-.04-1.72-.11,.05-.3,.2-.42,.21-.38,.04-.98-.49-1.31-.75-.4-.31-.38-.57-.94-.2-.24,.16-.47,.45-.68,.66-.41,.4-.81,.92-1.37,.98-.51,.05-1.16-.25-1.64-.38-2.11-.56-4.23-1.11-6.35-1.65-4.09-1.04-8.18-2.02-12.29-2.96-8.3-1.9-16.63-3.6-25.02-5.01-4.79-.81-9.59-1.54-14.4-2.22,0,0-.02,.27,0,.27h0Z"/><path class="cls-2" d="M475.88,387.82c-1.32-.13-2.63-.48-3.93-.74l.02,.89c4.26-.57,8.47-1.75,12.7-2.53s8.61-1.83,12.99-2.44c8.53-1.19,17.09-2.99,25.7-3.32,4.41-.17,8.79-.7,13.19-1.07s8.57-.44,12.88-.3c4.01,.13,8.02,.17,12.02,.34s8.12,.8,12.12,1.47,7.86,1.25,11.77,2.02,7.94,1.83,11.86,2.95,7.69,2.11,11.52,3.25,7.65,2.63,11.41,4.11c7.65,3,15.25,5.94,22.67,9.48,3.66,1.75,7.39,3.32,11.05,5.06s7.47,3.78,11.15,5.76,7.22,3.74,10.84,5.62,7.18,3.92,10.74,5.96,7.15,4.07,10.83,5.92,7.01,4.07,11.07,3.35c.93-.16,1.85-.07,2.79-.13,1.04-.07,2.06-.3,3.07-.57,.04-.01,0-1.25-.03-1.25-1.95-.4-4.25-.87-5.93-1.95-1.85-1.2-3.68-2.36-5.69-3.26-3.81-1.68-7.33-3.94-10.95-5.98s-7.1-3.77-10.68-5.61-7.19-3.89-10.79-5.83c-7.23-3.9-14.73-7.31-22.09-10.94s-14.98-6.72-22.55-9.82c-3.72-1.53-7.52-2.84-11.34-4.11s-7.78-2.66-11.68-3.94-7.7-2.16-11.58-3.05-7.79-1.79-11.71-2.55-7.86-1.26-11.83-1.68-8.12-.89-12.19-1.16-8.27-.14-12.4,.11c-4.42,.26-8.82,.36-13.22,.82s-8.57,1.77-12.88,2.49-8.59,1.69-12.82,2.81-8.63,2.53-12.99,3.65-8.47,2.34-12.7,3.56c-2.11,.61-4.26,1.12-6.33,1.88-.08,.03,0,.89,.02,.89,1.29-.03,2.62-.15,3.91-.05,0,0,0-.1,0-.1h0Z"/><path class="cls-2" d="M727.44,436.82c-6.96-2.14-13.78-4.75-20.3-7.98,.02,.01,0,.44,0,.47,.1,3.78-2.87,7.21-6.37,8.24v.02c-.25,2.97-.49,6.71,1.72,9.01l-.04-1.6-11.32,3.78c-.09,.03,0,2.46,.06,2.47,2.43,.63,4.71,1.51,7.23,1.77,2.26,.23,4.58-.04,6.82-.35,4.7-.66,9.37-1.92,13.81-3.6,.14-.05-.14-1.34-.03-1.37-4.54,1.31-9.13,1.88-13.85,1.77-2.29-.05-4.56-.34-6.84-.43s-4.86,.11-7.2-.26l.06,2.47,11.29-4.66c.06-.02,.04-1.52-.04-1.6-1.45-1.37-1.81-3.26-1.73-5.19,.05-1.22,.8-1.27,1.72-1.79,.73-.42,1.4-.94,1.99-1.54,1.97-2.01,2.8-4.6,2.72-7.36v.47c6.53,3.08,13.28,5.58,20.29,7.29,0,0,0-.04,0-.04h0Z"/><path class="cls-2" d="M711.54,450.38c3.53,.8,7.06,.39,10.6-.14s7-1.22,10.48-1.9c7.01-1.37,14.07-2.77,21.23-2.73,7.41,.04,14.74,1.35,21.97,2.87s14.33,3.21,21.44,5.04c28.49,7.31,56.34,16.83,84.15,26.32,3.81,1.3,7.63,2.56,11.37,4.06s7.85,2.95,11.83,4.28c2.01,.67,3.98,1.32,5.92,2.16s3.82,1.74,5.76,2.52c1.22,.49,2.6,.86,3.93,.72,.8-.09,1.06-.39,1.41-1.14,.42-.9,.61-1.84,.71-2.82,.03-.33-.14-3.76-.1-3.77-.27,.05-.52-.04-.77-.11-.55-.16-.63-.17-1.16,.04-1.11,.45-2.42,.48-3.59,.35-1.51-.16-3.01-.55-4.5-.86-1.84-.39-3.67-.77-5.45-1.35-3.48-1.14-6.96-2.26-10.46-3.32s-6.99-1.9-10.44-3.04c-13.93-4.6-27.85-9.25-41.84-13.66s-27.72-8.54-41.75-12.21c-7.09-1.86-14.22-3.6-21.38-5.18s-14.47-3.13-21.84-3.69c-8.06-.62-15.93,.4-23.78,2.19-3.94,.9-7.87,1.88-11.83,2.67s-8.02,1.21-11.92,2.28c-.02,0,0,.43,.01,.43h0Z"/><path class="cls-2" d="M918.92,488.57c-.28,.18-.35-.44,0-.51,.29-.06,.57,.18,.78,.34,.45,.33,.9,.63,1.39,.89,1.02,.52,2.13,.87,3.26,1.06,2.26,.38,4.55,.02,6.61-.99,.04-.02,0-.19,0-.2-2.54,1.12-5.54,1.26-8.19,.46-.67-.2-1.32-.46-1.94-.79-.28-.14-.55-.29-.82-.45-.28-.17-.65-.5-1.01-.45-.46,.06-.47,.61-.08,.74,.01,0,0-.1,0-.1h0Z"/><path class="cls-2" d="M829.12,567.53c-1.65,5.88-5.93,11.01-11.06,14.2-.13,.08-.07,1.15,.03,1.15,26.64-.06,53.24-7.1,77.91-16.76,12.1-4.74,23.95-10.08,35.53-15.96,11.6-5.89,23.12-12.07,34.35-18.66,6.33-3.72,12.62-7.51,18.88-11.35,3.09-1.89,6.22-3.69,9.36-5.49,1.48-.85,2.96-1.72,4.47-2.51,.74-.39,1.52-.74,2.24-1.17,.93-.55,1.58-1.62,2.28-2.44,.33-.39,.18-4.5-.19-4.46-.8,.09-1.57,.07-2.25,.49s-1.25,.94-1.85,1.4c-1.46,1.1-2.96,2.15-4.46,3.2-2.72,1.9-5.42,3.82-8.21,5.62-5.5,3.55-11.02,7.07-16.57,10.53-11.25,7.02-22.53,14-34.2,20.31-22.8,12.3-46.6,22.79-71.77,29.2-14.94,3.8-30.17,6.02-45.55,6.9l.03,1.15c5.45-3.76,8.95-9.05,11.03-15.26,0-.03,0-.08,0-.1h0Z"/><path class="cls-2" d="M999.98,513.68c.72-1.17,2.38-.51,2.93,.45v-1.08l-2.41-1.39,.05,1.9c2.84,.22,5.72-.08,8.57,0s5.68,.29,8.51,.62c5.69,.65,11.32,1.74,16.89,3.04s11.16,2.59,16.6,4.28,11.04,3.49,16.65,4.84c3.11,.74,6.23,1.43,9.38,2.01,1.52,.28,3.15,.68,4.7,.69s1.69-.8,1.74-2.09c0-.19,.03-2.51-.19-2.51-.43,.01-.65-.08-.98,.21-.14,.12,.03,1.29,.03,1.29,.53-.12,.71,.26,.87,.75l-.1-1.35v.5l.09-1.36c-.62,.99-2.23,.49-3.12,.33-1.42-.25-2.84-.48-4.26-.73-2.76-.49-5.51-1.06-8.25-1.67-5.39-1.21-10.79-2.37-16.18-3.58s-10.74-2.82-16.15-4.05-10.76-2.24-16.21-2.89c-3.04-.36-6.1-.6-9.17-.69s-6.43-.25-9.46,.46c-.24,.06-.2,1.84,.05,1.9l2.39,.58c.08,.02,.08-.97,0-1.08-.87-1.06-2.31-.46-2.95,.51-.02,.02,0,.09,0,.1h0Z"/><path class="cls-2" d="M986.12,557.08c1.43,1.57,3.18,2.7,4.92,3.92s3.4,2.39,5.19,3.46c3.32,1.98,6.71,3.86,10.26,5.41s6.99,2.69,10.65,3.49c3.27,.72,6.76,1.25,10.1,.74,1.63-.25,3.39-.69,4.71-1.71s2.49-2.41,3.31-3.95c.12-.23-.15-.8-.03-.96-1.55,2.17-4.49,3.1-7.01,3.62-3.18,.65-6.42,.52-9.62,.03-7.39-1.12-14.39-4.37-20.87-7.97-1.83-1.01-3.63-2.06-5.48-3.05-1.96-1.06-3.97-2.63-6.12-3.13,0,0,0,.09,0,.1h0Z"/><path class="cls-2" d="M1027.34,572.69c2.2-.83,4.42-1.62,6.67-2.3s4.39-1.5,6.63-2.13c4.61-1.29,9.15-3.01,13.65-4.67,9.35-3.46,18.93-6.23,28.55-8.81,20.64-5.52,41.44-10.47,62.16-15.66,10.51-2.63,21.03-5.24,31.54-7.9,8.2-2.07,16.39-4.31,24.2-7.58,7.63-3.2,14.93-7.46,20.7-13.46,6.26-6.51,10.03-14.71,13.21-23.04,1.61-4.2,3.89-8.14,6.61-11.72,1.33-1.75,2.8-3.39,4.42-4.88s3.5-2.95,4.64-4.98,1.54-4.3,2.24-6.46c.67-2.03,1.61-3.97,2.78-5.76,2.21-3.38,5.23-6.23,8.73-8.24,1.75-1,3.63-1.8,5.56-2.39,.05-.02-.01-.39,0-.39-7.66,1.92-14.14,7.89-16.86,15.28-.84,2.28-1.23,4.76-2.47,6.87-1.12,1.9-2.93,3.33-4.65,4.67-3.2,2.5-5.81,5.51-8.03,8.9-1.08,1.65-2.11,3.26-3.3,4.82-1.05,1.37-1.99,2.94-2.93,4.4-2.24,3.48-4.01,7.2-6.49,10.53-4.97,6.68-11.77,11.68-19.17,15.39s-15.67,6.32-23.81,8.5c-9.83,2.64-19.75,4.99-29.62,7.46-20.96,5.24-41.96,10.38-62.89,15.75-9.6,2.46-19.16,5.1-28.55,8.3-4.68,1.6-9.42,3.25-13.84,5.5-4.65,2.37-9.12,5.08-13.3,8.22-2.18,1.63-4.3,3.31-6.4,5.04-.1,.08,.03,.74,.02,.74h0Z"/><path class="cls-2" d="M858.1,377.08c26.53,3.82,53.33,6.88,79.45,13.09,12.69,3.01,24.55,7.71,36.19,13.55,10.81,5.43,21.48,11.06,32.56,15.94,20.78,9.14,42.22,16.62,63.69,23.94s43.09,14.5,64.13,23.12c20.67,8.47,40.83,18.44,59.26,31.14,2.26,1.56,4.45,3.02,6.86,4.33-.14-.08,.13-.98-.03-1.13-4.2-3.98-9.05-7.11-13.91-10.22s-9.54-5.88-14.45-8.58c-9.82-5.41-19.95-10.23-30.25-14.64-20.83-8.92-42.33-16.15-63.81-23.29-21.48-7.15-43.01-14.24-63.95-22.87-10.83-4.47-21.39-9.48-31.82-14.82-11.45-5.86-22.94-11.6-35.34-15.19-12.54-3.64-25.52-5.75-38.38-7.88s-26.7-4.12-40.12-5.72c-3.34-.4-6.7-.63-10.06-.9,0,0,0,.15,0,.16h0Z"/><path class="cls-2" d="M831.32,259.35c-1.62,.94-3.17,1.74-4.38,3.24-.98,1.23-1.62,2.68-1.94,4.22-.57,2.74-.27,5.64,.3,8.35,.85,4.03,2.39,7.89,3.65,11.8,1.48,4.57,2.83,9.19,4.04,13.84,2.54,9.77,4.69,19.77,5.45,29.85,.66,8.72-.38,17.33-4.44,25.15-1.91,3.68-4.39,7.1-7.43,9.93-1.59,1.48-3.35,2.78-5.25,3.83-.89,.49-1.8,.93-2.74,1.32s-2.12,.54-2.84,1.25l.34,.21c-.12-.27-.18-.55-.2-.85-.06-.51-.22-.17-.23,.16-.14,.26-.11,.42,.08,.48-.52,.44-.51,3.97,.22,4.23s1.85-.37,2.57-.66c.83-.34,1.65-.73,2.44-1.15,1.52-.82,2.95-1.79,4.3-2.85,2.9-2.27,5.35-5.07,7.32-8.18,4.39-6.95,6.07-15.08,6.41-23.2,.39-9.23-1.01-18.32-2.92-27.33s-4.39-18.56-7.38-27.62c-1.47-4.46-3.32-8.9-3.8-13.61-.26-2.53-.01-5.18,1.23-7.44,1.15-2.11,3.18-3.64,5.2-4.87,.02-.01,0-.1,0-.1h0Z"/><path class="cls-2" d="M641.22,355.9c-.24-.05-1.39-.57-1.57-.48,.17-.09,.91,.11,1.09,.13l3.46,.45c2.14,.28,4.28,.51,6.42,.75l13.57,1.53c8.96,1.01,17.92,2,26.89,2.92,0,0,0-.16,0-.16-17.24-2.09-34.52-4.13-51.81-5.75,0,0,0,.07,0,.07,.66,.2,1.33,.37,1.96,.64,0,0,0-.1,0-.1h0Z"/><path class="cls-2" d="M685.93,408.94c4.77,2.42,9.35,4.97,14.36,6.93s9.88,3.52,14.92,4.99c11.06,3.22,22.19,6.19,33.29,9.26,22.71,6.29,45.42,12.57,68.13,18.86l68.13,18.86c22.27,6.16,44.51,12.46,66.92,18.1,22.24,5.6,44.84,11.14,67.74,13.13,2.87,.25,5.75,.4,8.62,.49v-.08c-23-1.15-45.61-6.23-67.92-11.65s-44.82-11.73-67.15-17.91l-68.13-18.86c-22.6-6.26-45.2-12.51-67.8-18.77-11.38-3.15-22.75-6.29-34.13-9.45-10.16-2.82-20.4-5.67-29.96-10.2-2.38-1.13-4.85-2.3-7.03-3.79,.01,0-.02,.09,0,.1h0Z"/><path class="cls-2" d="M954.64,485.5l-58.74-15.91s0,.1,0,.1l58.74,15.91s0-.1,0-.1h0Z"/></g></svg>