<svg xmlns="http://www.w3.org/2000/svg" xmlns:xlink="http://www.w3.org/1999/xlink" width="500" zoomAndPan="magnify" viewBox="0 0 375 1499.999933" height="2000" preserveAspectRatio="xMidYMid meet" version="1.0"><defs><g/></defs><path stroke-linecap="butt" transform="matrix(-0.000000000000000121, 0.750014, -0.75, -0.000000000000000121, 187.497107, 204.770559)" fill="none" stroke-linejoin="miter" d="M 59.997517 0.00135152 L 1616.973863 0.00135152 " stroke="#ffffff" stroke-width="16" stroke-opacity="1" stroke-miterlimit="4"/><path stroke-linecap="butt" transform="matrix(-0.00000000000000193, 12.000222, -11.999999, -0.00000000000000193, 187.497107, 204.770559)" fill-opacity="1" fill="#ffffff" fill-rule="nonzero" stroke-linejoin="miter" d="M 3.499849 0.0000844698 C 3.499849 0.0492381 3.497571 0.0980662 3.492688 0.146894 C 3.487805 0.196048 3.480644 0.244551 3.471204 0.292728 C 3.461439 0.340905 3.44972 0.388431 3.435398 0.435306 C 3.421075 0.482506 3.404474 0.52873 3.385919 0.573978 C 3.367039 0.619551 3.345881 0.663822 3.322769 0.707116 C 3.299658 0.75041 3.274593 0.792402 3.24725 0.833418 C 3.219907 0.874108 3.19061 0.913496 3.159361 0.951582 C 3.128437 0.989668 3.09556 1.025801 3.06073 1.060631 C 3.0259 1.095462 2.989442 1.12834 2.951683 1.15959 C 2.913597 1.19084 2.87421 1.219811 2.833195 1.247155 C 2.792506 1.274499 2.750514 1.299564 2.707221 1.323001 C 2.663927 1.346113 2.619332 1.366947 2.574085 1.385827 C 2.528513 1.404707 2.48229 1.421309 2.435416 1.435306 C 2.388542 1.449629 2.340691 1.461673 2.292515 1.471113 C 2.244339 1.480879 2.195837 1.48804 2.14701 1.492923 C 2.098183 1.49748 2.04903 1.500085 1.999877 1.500085 C 1.950725 1.500085 1.901897 1.49748 1.85307 1.492923 C 1.804243 1.48804 1.755416 1.480879 1.707239 1.471113 C 1.659063 1.461673 1.611538 1.449629 1.564664 1.435306 C 1.517464 1.421309 1.471241 1.404707 1.425995 1.385827 C 1.380748 1.366947 1.336153 1.346113 1.292859 1.323001 C 1.249566 1.299564 1.207574 1.274499 1.166559 1.247155 C 1.12587 1.219811 1.086483 1.19084 1.048398 1.15959 C 1.010312 1.12834 0.97418 1.095462 0.93935 1.060631 C 0.90452 1.025801 0.871643 0.989668 0.840394 0.951582 C 0.80947 0.913496 0.780173 0.874108 0.75283 0.833418 C 0.725487 0.792402 0.700422 0.75041 0.676985 0.707116 C 0.653874 0.663822 0.633041 0.619551 0.614161 0.573978 C 0.595281 0.52873 0.579005 0.482506 0.564683 0.435306 C 0.55036 0.388431 0.538316 0.340905 0.528876 0.292728 C 0.51911 0.244551 0.511949 0.196048 0.507066 0.146894 C 0.502509 0.0980662 0.499905 0.0492381 0.499905 0.0000844698 C 0.499905 -0.0490692 0.502509 -0.0982228 0.507066 -0.147051 C 0.511949 -0.195879 0.51911 -0.244382 0.528876 -0.292559 C 0.538316 -0.340736 0.55036 -0.388262 0.564683 -0.435462 C 0.579005 -0.482337 0.595281 -0.528561 0.614161 -0.574134 C 0.633041 -0.619382 0.653874 -0.663653 0.676985 -0.706947 C 0.700422 -0.750567 0.725487 -0.792559 0.75283 -0.833249 C 0.780173 -0.874265 0.80947 -0.913653 0.840394 -0.951739 C 0.871643 -0.989499 0.90452 -1.025957 0.93935 -1.060788 C 0.97418 -1.095293 1.010312 -1.128496 1.048398 -1.159421 C 1.086483 -1.190671 1.12587 -1.219968 1.166559 -1.247311 C 1.207574 -1.274655 1.249566 -1.29972 1.292859 -1.322832 C 1.336153 -1.345944 1.380748 -1.367103 1.425995 -1.385658 C 1.471241 -1.404538 1.517464 -1.42114 1.564664 -1.435463 C 1.611538 -1.449785 1.659063 -1.461504 1.707239 -1.47127 C 1.755416 -1.48071 1.804243 -1.487871 1.85307 -1.492754 C 1.901897 -1.497637 1.950725 -1.499916 1.999877 -1.499916 C 2.04903 -1.499916 2.098183 -1.497637 2.14701 -1.492754 C 2.195837 -1.487871 2.244339 -1.48071 2.292515 -1.47127 C 2.340691 -1.461504 2.388542 -1.449785 2.435416 -1.435463 C 2.48229 -1.42114 2.528513 -1.404538 2.574085 -1.385658 C 2.619332 -1.367103 2.663927 -1.345944 2.707221 -1.322832 C 2.750514 -1.29972 2.792506 -1.274655 2.833195 -1.247311 C 2.87421 -1.219968 2.913597 -1.190671 2.951683 -1.159421 C 2.989442 -1.128496 3.0259 -1.095293 3.06073 -1.060788 C 3.09556 -1.025957 3.128437 -0.989499 3.159361 -0.951739 C 3.19061 -0.913653 3.219907 -0.874265 3.24725 -0.833249 C 3.274593 -0.792559 3.299658 -0.750567 3.322769 -0.706947 C 3.345881 -0.663653 3.367039 -0.619382 3.385919 -0.574134 C 3.404474 -0.528561 3.421075 -0.482337 3.435398 -0.435462 C 3.44972 -0.388262 3.461439 -0.340736 3.471204 -0.292559 C 3.480644 -0.244382 3.487805 -0.195879 3.492688 -0.147051 C 3.497571 -0.0982228 3.499849 -0.0490692 3.499849 0.0000844698 Z M 3.499849 0.0000844698 " stroke="#ffffff" stroke-width="1" stroke-opacity="1" stroke-miterlimit="4"/><path stroke-linecap="butt" transform="matrix(-0.00000000000000193, 12.000222, -11.999999, -0.00000000000000193, 187.497107, 1462.52611)" fill-opacity="1" fill="#ffffff" fill-rule="nonzero" stroke-linejoin="miter" d="M -0.499888 0.0000844698 C -0.499888 0.0492381 -0.502492 0.0980662 -0.507375 0.146894 C -0.511932 0.196048 -0.519093 0.244551 -0.528859 0.292728 C -0.538299 0.340905 -0.550343 0.388431 -0.564665 0.435306 C -0.578988 0.482506 -0.595264 0.52873 -0.614144 0.573978 C -0.633023 0.619551 -0.653856 0.663822 -0.676968 0.707116 C -0.700405 0.75041 -0.72547 0.792402 -0.752813 0.833418 C -0.780156 0.874108 -0.809453 0.913496 -0.840376 0.951582 C -0.871626 0.989668 -0.904503 1.025801 -0.939333 1.060631 C -0.974163 1.095462 -1.010295 1.12834 -1.04838 1.15959 C -1.086466 1.19084 -1.125853 1.219811 -1.166542 1.247155 C -1.207557 1.274499 -1.249549 1.299564 -1.292842 1.323001 C -1.336135 1.346113 -1.380731 1.366947 -1.425978 1.385827 C -1.471224 1.404707 -1.517447 1.421309 -1.564647 1.435306 C -1.611521 1.449629 -1.659046 1.461673 -1.707222 1.471113 C -1.755399 1.480879 -1.804226 1.48804 -1.853053 1.492923 C -1.90188 1.49748 -1.951033 1.500085 -1.99986 1.500085 C -2.049013 1.500085 -2.098166 1.49748 -2.146993 1.492923 C -2.19582 1.48804 -2.244322 1.480879 -2.292498 1.471113 C -2.340674 1.461673 -2.388525 1.449629 -2.435399 1.435306 C -2.482599 1.421309 -2.528496 1.404707 -2.574068 1.385827 C -2.619315 1.366947 -2.66391 1.346113 -2.707204 1.323001 C -2.750497 1.299564 -2.792489 1.274499 -2.833504 1.247155 C -2.874193 1.219811 -2.91358 1.19084 -2.951665 1.15959 C -2.989425 1.12834 -3.025883 1.095462 -3.060713 1.060631 C -3.095543 1.025801 -3.12842 0.989668 -3.159669 0.951582 C -3.190593 0.913496 -3.21989 0.874108 -3.247233 0.833418 C -3.274576 0.792402 -3.299641 0.75041 -3.322752 0.707116 C -3.346189 0.663822 -3.367022 0.619551 -3.385902 0.573978 C -3.404456 0.52873 -3.421058 0.482506 -3.43538 0.435306 C -3.449703 0.388431 -3.461747 0.340905 -3.471187 0.292728 C -3.480627 0.244551 -3.488114 0.196048 -3.492671 0.146894 C -3.497554 0.0980662 -3.500158 0.0492381 -3.500158 0.0000844698 C -3.500158 -0.0490692 -3.497554 -0.0982228 -3.492671 -0.147051 C -3.488114 -0.195879 -3.480627 -0.244382 -3.471187 -0.292559 C -3.461747 -0.340736 -3.449703 -0.388262 -3.43538 -0.435462 C -3.421058 -0.482337 -3.404456 -0.528561 -3.385902 -0.574134 C -3.367022 -0.619382 -3.346189 -0.663653 -3.322752 -0.706947 C -3.299641 -0.750567 -3.274576 -0.792559 -3.247233 -0.833249 C -3.21989 -0.874265 -3.190593 -0.913653 -3.159669 -0.951739 C -3.12842 -0.989499 -3.095543 -1.025957 -3.060713 -1.060788 C -3.025883 -1.095293 -2.989425 -1.128496 -2.951665 -1.159421 C -2.91358 -1.190671 -2.874193 -1.219968 -2.833504 -1.247311 C -2.792489 -1.274655 -2.750497 -1.29972 -2.707204 -1.322832 C -2.66391 -1.345944 -2.619315 -1.367103 -2.574068 -1.385658 C -2.528496 -1.404538 -2.482599 -1.42114 -2.435399 -1.435463 C -2.388525 -1.449785 -2.340674 -1.461504 -2.292498 -1.47127 C -2.244322 -1.48071 -2.19582 -1.487871 -2.146993 -1.492754 C -2.098166 -1.497637 -2.049013 -1.499916 -1.99986 -1.499916 C -1.951033 -1.499916 -1.90188 -1.497637 -1.853053 -1.492754 C -1.804226 -1.487871 -1.755399 -1.48071 -1.707222 -1.47127 C -1.659046 -1.461504 -1.611521 -1.449785 -1.564647 -1.435463 C -1.517447 -1.42114 -1.471224 -1.404538 -1.425978 -1.385658 C -1.380731 -1.367103 -1.336135 -1.345944 -1.292842 -1.322832 C -1.249549 -1.29972 -1.207557 -1.274655 -1.166542 -1.247311 C -1.125853 -1.219968 -1.086466 -1.190671 -1.04838 -1.159421 C -1.010295 -1.128496 -0.974163 -1.095293 -0.939333 -1.060788 C -0.904503 -1.025957 -0.871626 -0.989499 -0.840376 -0.951739 C -0.809453 -0.913653 -0.780156 -0.874265 -0.752813 -0.833249 C -0.72547 -0.792559 -0.700405 -0.750567 -0.676968 -0.706947 C -0.653856 -0.663653 -0.633023 -0.619382 -0.614144 -0.574134 C -0.595264 -0.528561 -0.578988 -0.482337 -0.564665 -0.435462 C -0.550343 -0.388262 -0.538299 -0.340736 -0.528859 -0.292559 C -0.519093 -0.244382 -0.511932 -0.195879 -0.507375 -0.147051 C -0.502492 -0.0982228 -0.499888 -0.0490692 -0.499888 0.0000844698 Z M -0.499888 0.0000844698 " stroke="#ffffff" stroke-width="1" stroke-opacity="1" stroke-miterlimit="4"/><g fill="#ffffff" fill-opacity="1"><g transform="translate(227.206381, 253.445848)"><g><path d="M 10.453125 -37.28125 C 10.078125 -37.28125 9.75 -37.234375 9.46875 -37.140625 C 9.195312 -37.054688 8.894531 -36.972656 8.5625 -36.890625 C 8.601562 -37.316406 8.84375 -37.8125 9.28125 -38.375 C 9.726562 -38.945312 10.300781 -39.488281 11 -40 C 11.695312 -40.507812 12.53125 -40.929688 13.5 -41.265625 C 14.46875 -41.609375 15.523438 -41.78125 16.671875 -41.78125 C 17.898438 -41.78125 18.914062 -41.609375 19.71875 -41.265625 C 20.519531 -40.929688 21.148438 -40.328125 21.609375 -39.453125 C 22.078125 -38.585938 22.40625 -37.394531 22.59375 -35.875 C 22.789062 -34.351562 22.890625 -32.429688 22.890625 -30.109375 C 22.890625 -27.109375 22.65625 -24.675781 22.1875 -22.8125 C 21.71875 -20.957031 20.832031 -19.3125 19.53125 -17.875 C 19.0625 -17.363281 18.53125 -16.78125 17.9375 -16.125 C 17.34375 -15.476562 16.75 -14.835938 16.15625 -14.203125 C 15.570312 -13.566406 15.015625 -12.984375 14.484375 -12.453125 C 13.953125 -11.921875 13.539062 -11.53125 13.25 -11.28125 C 11.007812 -9.289062 9.367188 -7.378906 8.328125 -5.546875 C 7.296875 -3.710938 6.632812 -2.328125 6.34375 -1.390625 L 6.34375 0 L 30.625 0 L 33.46875 -11.734375 C 33.550781 -12.023438 33.613281 -12.265625 33.65625 -12.453125 C 33.695312 -12.640625 33.71875 -12.820312 33.71875 -13 C 33.71875 -13.332031 33.550781 -13.5 33.21875 -13.5 C 32.914062 -13.5 32.660156 -13.179688 32.453125 -12.546875 C 32.203125 -11.785156 31.914062 -11.085938 31.59375 -10.453125 C 31.28125 -9.828125 30.878906 -9.289062 30.390625 -8.84375 C 29.910156 -8.394531 29.3125 -8.046875 28.59375 -7.796875 C 27.875 -7.546875 26.960938 -7.421875 25.859375 -7.421875 L 11.859375 -7.421875 C 12.535156 -8.097656 13.21875 -8.675781 13.90625 -9.15625 C 14.601562 -9.644531 15.375 -10.109375 16.21875 -10.546875 C 17.070312 -10.992188 17.992188 -11.4375 18.984375 -11.875 C 19.972656 -12.320312 21.101562 -12.84375 22.375 -13.4375 C 25.632812 -14.914062 28.171875 -17.050781 29.984375 -19.84375 C 31.796875 -22.632812 32.703125 -25.78125 32.703125 -29.28125 C 32.703125 -31.988281 32.269531 -34.226562 31.40625 -36 C 30.539062 -37.78125 29.410156 -39.207031 28.015625 -40.28125 C 26.617188 -41.363281 25.054688 -42.125 23.328125 -42.5625 C 21.597656 -43.007812 19.863281 -43.234375 18.125 -43.234375 C 16.101562 -43.234375 14.285156 -42.925781 12.671875 -42.3125 C 11.066406 -41.695312 9.703125 -40.90625 8.578125 -39.9375 C 7.460938 -38.96875 6.617188 -37.867188 6.046875 -36.640625 C 5.484375 -35.410156 5.203125 -34.1875 5.203125 -32.96875 C 5.203125 -31.0625 5.664062 -29.585938 6.59375 -28.546875 C 7.519531 -27.515625 8.742188 -27 10.265625 -27 C 11.828125 -27 13.113281 -27.460938 14.125 -28.390625 C 15.144531 -29.328125 15.65625 -30.597656 15.65625 -32.203125 C 15.65625 -33.972656 15.179688 -35.257812 14.234375 -36.0625 C 13.285156 -36.875 12.023438 -37.28125 10.453125 -37.28125 Z M 10.453125 -37.28125 "/></g></g></g><g fill="#ffffff" fill-opacity="1"><g transform="translate(265.301814, 253.445848)"><g><path d="M 1.71875 -21.421875 C 1.71875 -18.679688 2.070312 -15.988281 2.78125 -13.34375 C 3.5 -10.695312 4.566406 -8.347656 5.984375 -6.296875 C 7.398438 -4.253906 9.175781 -2.597656 11.3125 -1.328125 C 13.445312 -0.0546875 15.953125 0.578125 18.828125 0.578125 C 21.660156 0.578125 24.15625 -0.0546875 26.3125 -1.328125 C 28.46875 -2.597656 30.25 -4.253906 31.65625 -6.296875 C 33.070312 -8.347656 34.140625 -10.695312 34.859375 -13.34375 C 35.578125 -15.988281 35.9375 -18.679688 35.9375 -21.421875 C 35.9375 -24.171875 35.578125 -26.851562 34.859375 -29.46875 C 34.140625 -32.09375 33.070312 -34.429688 31.65625 -36.484375 C 30.25 -38.535156 28.46875 -40.179688 26.3125 -41.421875 C 24.15625 -42.671875 21.660156 -43.296875 18.828125 -43.296875 C 15.953125 -43.296875 13.445312 -42.671875 11.3125 -41.421875 C 9.175781 -40.179688 7.398438 -38.535156 5.984375 -36.484375 C 4.566406 -34.429688 3.5 -32.09375 2.78125 -29.46875 C 2.070312 -26.851562 1.71875 -24.171875 1.71875 -21.421875 Z M 23.96875 -31.5625 L 23.96875 -11.15625 C 23.96875 -9.164062 23.867188 -7.492188 23.671875 -6.140625 C 23.484375 -4.796875 23.175781 -3.707031 22.75 -2.875 C 22.332031 -2.050781 21.796875 -1.460938 21.140625 -1.109375 C 20.484375 -0.753906 19.710938 -0.578125 18.828125 -0.578125 C 17.941406 -0.578125 17.171875 -0.753906 16.515625 -1.109375 C 15.859375 -1.460938 15.316406 -2.050781 14.890625 -2.875 C 14.472656 -3.707031 14.164062 -4.796875 13.96875 -6.140625 C 13.78125 -7.492188 13.6875 -9.164062 13.6875 -11.15625 L 13.6875 -31.5625 C 13.6875 -33.550781 13.78125 -35.222656 13.96875 -36.578125 C 14.164062 -37.929688 14.472656 -39.019531 14.890625 -39.84375 C 15.316406 -40.664062 15.859375 -41.253906 16.515625 -41.609375 C 17.171875 -41.972656 17.941406 -42.15625 18.828125 -42.15625 C 19.710938 -42.15625 20.484375 -41.972656 21.140625 -41.609375 C 21.796875 -41.253906 22.332031 -40.664062 22.75 -39.84375 C 23.175781 -39.019531 23.484375 -37.929688 23.671875 -36.578125 C 23.867188 -35.222656 23.96875 -33.550781 23.96875 -31.5625 Z M 23.96875 -31.5625 "/></g></g></g><g fill="#ffffff" fill-opacity="1"><g transform="translate(303.397247, 253.445848)"><g><path d="M 14.453125 -23.328125 L 14.453125 -28.71875 L 1.578125 -26.5625 L 1.578125 -25.484375 L 4.9375 -26.046875 L 4.9375 -1.015625 L 1.578125 -1.015625 L 1.578125 0 L 17.171875 0 L 17.171875 -1.015625 L 14.453125 -1.015625 L 14.453125 -18.703125 C 14.453125 -19.460938 14.585938 -20.285156 14.859375 -21.171875 C 15.140625 -22.054688 15.53125 -22.878906 16.03125 -23.640625 C 16.539062 -24.398438 17.132812 -25.023438 17.8125 -25.515625 C 18.488281 -26.003906 19.226562 -26.25 20.03125 -26.25 C 20.957031 -26.25 21.628906 -25.78125 22.046875 -24.84375 C 22.472656 -23.914062 22.6875 -22.144531 22.6875 -19.53125 L 22.6875 -1.015625 L 19.96875 -1.015625 L 19.96875 0 L 34.921875 0 L 34.921875 -1.015625 L 32.203125 -1.015625 L 32.203125 -18.640625 C 32.203125 -19.523438 32.367188 -20.429688 32.703125 -21.359375 C 33.046875 -22.285156 33.476562 -23.109375 34 -23.828125 C 34.53125 -24.546875 35.125 -25.140625 35.78125 -25.609375 C 36.4375 -26.078125 37.082031 -26.3125 37.71875 -26.3125 C 38.851562 -26.3125 39.585938 -25.738281 39.921875 -24.59375 C 40.265625 -23.457031 40.4375 -21.660156 40.4375 -19.203125 L 40.4375 -1.015625 L 37.71875 -1.015625 L 37.71875 0 L 52.671875 0 L 52.671875 -1.015625 L 49.953125 -1.015625 L 49.953125 -18.578125 C 49.953125 -21.535156 49.101562 -23.835938 47.40625 -25.484375 C 45.71875 -27.128906 43.269531 -27.953125 40.0625 -27.953125 C 38.789062 -27.953125 37.710938 -27.789062 36.828125 -27.46875 C 35.941406 -27.15625 35.191406 -26.753906 34.578125 -26.265625 C 33.960938 -25.785156 33.460938 -25.257812 33.078125 -24.6875 C 32.703125 -24.113281 32.367188 -23.597656 32.078125 -23.140625 C 31.359375 -24.742188 30.269531 -25.9375 28.8125 -26.71875 C 27.351562 -27.5 25.25 -27.890625 22.5 -27.890625 C 21.363281 -27.890625 20.367188 -27.757812 19.515625 -27.5 C 18.671875 -27.25 17.941406 -26.921875 17.328125 -26.515625 C 16.722656 -26.117188 16.1875 -25.644531 15.71875 -25.09375 C 15.257812 -24.550781 14.835938 -23.960938 14.453125 -23.328125 Z M 14.453125 -23.328125 "/></g></g></g><path stroke-linecap="butt" transform="matrix(0.000000000000000046, 0.75, -0.75, 0.000000000000000046, 187.499992, 5.24998)" fill="none" stroke-linejoin="miter" d="M 0.0000272696 -0.0000104167 L 288.000052 -0.0000104167 " stroke="#ffffff" stroke-width="15" stroke-opacity="1" stroke-miterlimit="4"/><g fill="#ffffff" fill-opacity="1"><g transform="translate(227.206381, 1460.327422)"><g><path d="M 27.578125 -42.65625 L 21.234375 -42.65625 C 19.878906 -40.550781 18.441406 -38.269531 16.921875 -35.8125 C 15.398438 -33.363281 13.878906 -30.847656 12.359375 -28.265625 C 10.835938 -25.691406 9.335938 -23.125 7.859375 -20.5625 C 6.378906 -18.007812 5.023438 -15.550781 3.796875 -13.1875 L 3.796875 -11.796875 L 18.0625 -11.796875 L 18.0625 -0.953125 L 14.640625 -0.953125 L 14.640625 0.0625 L 31 0.0625 L 31 -0.953125 L 27.578125 -0.953125 L 27.578125 -11.796875 L 33.46875 -11.796875 L 33.46875 -15.59375 L 27.578125 -15.59375 Z M 18.0625 -15.59375 L 6.59375 -15.59375 C 7.3125 -16.945312 8.132812 -18.4375 9.0625 -20.0625 C 9.988281 -21.6875 10.957031 -23.363281 11.96875 -25.09375 C 12.988281 -26.832031 14.015625 -28.554688 15.046875 -30.265625 C 16.085938 -31.984375 17.09375 -33.625 18.0625 -35.1875 Z M 18.0625 -15.59375 "/></g></g></g><g fill="#ffffff" fill-opacity="1"><g transform="translate(265.301814, 1460.327422)"><g><path d="M 1.71875 -21.421875 C 1.71875 -18.679688 2.070312 -15.988281 2.78125 -13.34375 C 3.5 -10.695312 4.566406 -8.347656 5.984375 -6.296875 C 7.398438 -4.253906 9.175781 -2.597656 11.3125 -1.328125 C 13.445312 -0.0546875 15.953125 0.578125 18.828125 0.578125 C 21.660156 0.578125 24.15625 -0.0546875 26.3125 -1.328125 C 28.46875 -2.597656 30.25 -4.253906 31.65625 -6.296875 C 33.070312 -8.347656 34.140625 -10.695312 34.859375 -13.34375 C 35.578125 -15.988281 35.9375 -18.679688 35.9375 -21.421875 C 35.9375 -24.171875 35.578125 -26.851562 34.859375 -29.46875 C 34.140625 -32.09375 33.070312 -34.429688 31.65625 -36.484375 C 30.25 -38.535156 28.46875 -40.179688 26.3125 -41.421875 C 24.15625 -42.671875 21.660156 -43.296875 18.828125 -43.296875 C 15.953125 -43.296875 13.445312 -42.671875 11.3125 -41.421875 C 9.175781 -40.179688 7.398438 -38.535156 5.984375 -36.484375 C 4.566406 -34.429688 3.5 -32.09375 2.78125 -29.46875 C 2.070312 -26.851562 1.71875 -24.171875 1.71875 -21.421875 Z M 23.96875 -31.5625 L 23.96875 -11.15625 C 23.96875 -9.164062 23.867188 -7.492188 23.671875 -6.140625 C 23.484375 -4.796875 23.175781 -3.707031 22.75 -2.875 C 22.332031 -2.050781 21.796875 -1.460938 21.140625 -1.109375 C 20.484375 -0.753906 19.710938 -0.578125 18.828125 -0.578125 C 17.941406 -0.578125 17.171875 -0.753906 16.515625 -1.109375 C 15.859375 -1.460938 15.316406 -2.050781 14.890625 -2.875 C 14.472656 -3.707031 14.164062 -4.796875 13.96875 -6.140625 C 13.78125 -7.492188 13.6875 -9.164062 13.6875 -11.15625 L 13.6875 -31.5625 C 13.6875 -33.550781 13.78125 -35.222656 13.96875 -36.578125 C 14.164062 -37.929688 14.472656 -39.019531 14.890625 -39.84375 C 15.316406 -40.664062 15.859375 -41.253906 16.515625 -41.609375 C 17.171875 -41.972656 17.941406 -42.15625 18.828125 -42.15625 C 19.710938 -42.15625 20.484375 -41.972656 21.140625 -41.609375 C 21.796875 -41.253906 22.332031 -40.664062 22.75 -39.84375 C 23.175781 -39.019531 23.484375 -37.929688 23.671875 -36.578125 C 23.867188 -35.222656 23.96875 -33.550781 23.96875 -31.5625 Z M 23.96875 -31.5625 "/></g></g></g><g fill="#ffffff" fill-opacity="1"><g transform="translate(303.397247, 1460.327422)"><g><path d="M 14.453125 -23.328125 L 14.453125 -28.71875 L 1.578125 -26.5625 L 1.578125 -25.484375 L 4.9375 -26.046875 L 4.9375 -1.015625 L 1.578125 -1.015625 L 1.578125 0 L 17.171875 0 L 17.171875 -1.015625 L 14.453125 -1.015625 L 14.453125 -18.703125 C 14.453125 -19.460938 14.585938 -20.285156 14.859375 -21.171875 C 15.140625 -22.054688 15.53125 -22.878906 16.03125 -23.640625 C 16.539062 -24.398438 17.132812 -25.023438 17.8125 -25.515625 C 18.488281 -26.003906 19.226562 -26.25 20.03125 -26.25 C 20.957031 -26.25 21.628906 -25.78125 22.046875 -24.84375 C 22.472656 -23.914062 22.6875 -22.144531 22.6875 -19.53125 L 22.6875 -1.015625 L 19.96875 -1.015625 L 19.96875 0 L 34.921875 0 L 34.921875 -1.015625 L 32.203125 -1.015625 L 32.203125 -18.640625 C 32.203125 -19.523438 32.367188 -20.429688 32.703125 -21.359375 C 33.046875 -22.285156 33.476562 -23.109375 34 -23.828125 C 34.53125 -24.546875 35.125 -25.140625 35.78125 -25.609375 C 36.4375 -26.078125 37.082031 -26.3125 37.71875 -26.3125 C 38.851562 -26.3125 39.585938 -25.738281 39.921875 -24.59375 C 40.265625 -23.457031 40.4375 -21.660156 40.4375 -19.203125 L 40.4375 -1.015625 L 37.71875 -1.015625 L 37.71875 0 L 52.671875 0 L 52.671875 -1.015625 L 49.953125 -1.015625 L 49.953125 -18.578125 C 49.953125 -21.535156 49.101562 -23.835938 47.40625 -25.484375 C 45.71875 -27.128906 43.269531 -27.953125 40.0625 -27.953125 C 38.789062 -27.953125 37.710938 -27.789062 36.828125 -27.46875 C 35.941406 -27.15625 35.191406 -26.753906 34.578125 -26.265625 C 33.960938 -25.785156 33.460938 -25.257812 33.078125 -24.6875 C 32.703125 -24.113281 32.367188 -23.597656 32.078125 -23.140625 C 31.359375 -24.742188 30.269531 -25.9375 28.8125 -26.71875 C 27.351562 -27.5 25.25 -27.890625 22.5 -27.890625 C 21.363281 -27.890625 20.367188 -27.757812 19.515625 -27.5 C 18.671875 -27.25 17.941406 -26.921875 17.328125 -26.515625 C 16.722656 -26.117188 16.1875 -25.644531 15.71875 -25.09375 C 15.257812 -24.550781 14.835938 -23.960938 14.453125 -23.328125 Z M 14.453125 -23.328125 "/></g></g></g><path stroke-linecap="butt" transform="matrix(0.000000000000000046, 0.75, -0.75, 0.000000000000000046, 187.874992, 1391.99986)" fill="none" stroke-linejoin="miter" d="M 0.00018653 -0.0000104597 L 288.000211 -0.0000104597 " stroke="#ffffff" stroke-width="15" stroke-opacity="1" stroke-miterlimit="4"/></svg>