<svg xmlns="http://www.w3.org/2000/svg" xmlns:xlink="http://www.w3.org/1999/xlink" width="500" zoomAndPan="magnify" viewBox="0 0 375 5999.999899" height="8000" preserveAspectRatio="xMidYMid meet" version="1.0"><defs><g/></defs><path stroke-linecap="butt" transform="matrix(0.000000000000000046, 0.750014, -0.75, 0.000000000000000046, 171.939367, 0.00298391)" fill="none" stroke-linejoin="miter" d="M 0.00122976 0.00249 L 1666.97629 0.00249 " stroke="#ffffff" stroke-width="16" stroke-opacity="1" stroke-miterlimit="4"/><path stroke-linecap="butt" transform="matrix(0.000000000000000735, 12.000217, -11.999999, 0.000000000000000735, 171.939367, 1295.258688)" fill-opacity="1" fill="#ffffff" fill-rule="nonzero" stroke-linejoin="miter" d="M -0.500064 0.000155625 C -0.500064 0.0489838 -0.502343 0.0981374 -0.507225 0.146966 C -0.512108 0.195794 -0.519269 0.244296 -0.528709 0.292473 C -0.538475 0.340976 -0.550193 0.388502 -0.564516 0.435377 C -0.578839 0.482578 -0.59544 0.528476 -0.61432 0.574049 C -0.632874 0.619296 -0.654032 0.663893 -0.677144 0.707187 C -0.700256 0.750481 -0.725646 0.792473 -0.752664 0.833489 C -0.780007 0.874179 -0.809303 0.913567 -0.840553 0.951653 C -0.871802 0.989413 -0.904679 1.025872 -0.939184 1.060703 C -0.974014 1.095533 -1.010471 1.128411 -1.048557 1.159661 C -1.086316 1.190585 -1.125704 1.219882 -1.166719 1.247226 C -1.207408 1.27457 -1.249725 1.299635 -1.293018 1.322747 C -1.336312 1.346184 -1.380582 1.367018 -1.425828 1.385898 C -1.471401 1.404778 -1.517624 1.421054 -1.564498 1.435377 C -1.611697 1.4497 -1.659223 1.461744 -1.707399 1.471184 C -1.755575 1.480624 -1.804077 1.488111 -1.852904 1.492669 C -1.901731 1.497552 -1.950884 1.500156 -2.000037 1.500156 C -2.04919 1.500156 -2.098017 1.497552 -2.14717 1.492669 C -2.195997 1.488111 -2.244498 1.480624 -2.292675 1.471184 C -2.340851 1.461744 -2.388376 1.4497 -2.435576 1.435377 C -2.48245 1.421054 -2.528673 1.404778 -2.57392 1.385898 C -2.619492 1.367018 -2.663762 1.346184 -2.707055 1.322747 C -2.750349 1.299635 -2.792666 1.27457 -2.833355 1.247226 C -2.874044 1.219882 -2.913757 1.190585 -2.951517 1.159661 C -2.989602 1.128411 -3.02606 1.095533 -3.060564 1.060703 C -3.095395 1.025872 -3.128272 0.989413 -3.159521 0.951653 C -3.19077 0.913567 -3.220067 0.874179 -3.247085 0.833489 C -3.274428 0.792473 -3.299818 0.750481 -3.322929 0.707187 C -3.346041 0.663893 -3.366874 0.619296 -3.385754 0.574049 C -3.404634 0.528476 -3.421235 0.482578 -3.435558 0.435377 C -3.449555 0.388502 -3.461599 0.340976 -3.471039 0.292473 C -3.480804 0.244296 -3.487966 0.195794 -3.492848 0.146966 C -3.497731 0.0981374 -3.50001 0.0489838 -3.50001 0.000155625 C -3.50001 -0.048998 -3.497731 -0.0981517 -3.492848 -0.14698 C -3.487966 -0.195808 -3.480804 -0.244311 -3.471039 -0.292488 C -3.461599 -0.340665 -3.449555 -0.388516 -3.435558 -0.435391 C -3.421235 -0.482592 -3.404634 -0.52849 -3.385754 -0.574063 C -3.366874 -0.619311 -3.346041 -0.663907 -3.322929 -0.707201 C -3.299818 -0.750495 -3.274428 -0.792488 -3.247085 -0.833503 C -3.220067 -0.874193 -3.19077 -0.913581 -3.159521 -0.951667 C -3.128272 -0.989428 -3.095395 -1.025886 -3.060564 -1.060717 C -3.02606 -1.095548 -2.989602 -1.128425 -2.951517 -1.159675 C -2.913757 -1.1906 -2.874044 -1.219897 -2.833355 -1.24724 C -2.792666 -1.274584 -2.750349 -1.299649 -2.707055 -1.322761 C -2.663762 -1.346199 -2.619492 -1.367032 -2.57392 -1.385912 C -2.528673 -1.404467 -2.48245 -1.421068 -2.435576 -1.435391 C -2.388376 -1.449714 -2.340851 -1.461433 -2.292675 -1.471199 C -2.244498 -1.480639 -2.195997 -1.4878 -2.14717 -1.492683 C -2.098017 -1.497566 -2.04919 -1.499844 -2.000037 -1.499844 C -1.950884 -1.499844 -1.901731 -1.497566 -1.852904 -1.492683 C -1.804077 -1.4878 -1.755575 -1.480639 -1.707399 -1.471199 C -1.659223 -1.461433 -1.611697 -1.449714 -1.564498 -1.435391 C -1.517624 -1.421068 -1.471401 -1.404467 -1.425828 -1.385912 C -1.380582 -1.367032 -1.336312 -1.346199 -1.293018 -1.322761 C -1.249725 -1.299649 -1.207408 -1.274584 -1.166719 -1.24724 C -1.125704 -1.219897 -1.086316 -1.1906 -1.048557 -1.159675 C -1.010471 -1.128425 -0.974014 -1.095548 -0.939184 -1.060717 C -0.904679 -1.025886 -0.871802 -0.989428 -0.840553 -0.951667 C -0.809303 -0.913581 -0.780007 -0.874193 -0.752664 -0.833503 C -0.725646 -0.792488 -0.700256 -0.750495 -0.677144 -0.707201 C -0.654032 -0.663907 -0.632874 -0.619311 -0.61432 -0.574063 C -0.59544 -0.52849 -0.578839 -0.482592 -0.564516 -0.435391 C -0.550193 -0.388516 -0.538475 -0.340665 -0.528709 -0.292488 C -0.519269 -0.244311 -0.512108 -0.195808 -0.507225 -0.14698 C -0.502343 -0.0981517 -0.500064 -0.048998 -0.500064 0.000155625 Z M -0.500064 0.000155625 " stroke="#ffffff" stroke-width="1" stroke-opacity="1" stroke-miterlimit="4"/><g fill="#ffffff" fill-opacity="1"><g transform="translate(211.648642, 1297.560024)"><g><path d="M 14.453125 -17.875 C 14.453125 -18.550781 14.484375 -19.289062 14.546875 -20.09375 C 14.609375 -20.894531 14.703125 -21.53125 14.828125 -22 C 15.128906 -22.84375 15.640625 -23.644531 16.359375 -24.40625 C 17.078125 -25.164062 17.960938 -25.546875 19.015625 -25.546875 C 20.078125 -25.546875 20.890625 -25.351562 21.453125 -24.96875 C 22.023438 -24.59375 22.445312 -24.054688 22.71875 -23.359375 C 23 -22.660156 23.160156 -21.847656 23.203125 -20.921875 C 23.242188 -19.992188 23.265625 -18.976562 23.265625 -17.875 L 23.265625 -10.265625 C 23.265625 -8.910156 23.242188 -7.640625 23.203125 -6.453125 C 23.160156 -5.273438 23 -4.242188 22.71875 -3.359375 C 22.445312 -2.472656 22.015625 -1.773438 21.421875 -1.265625 C 20.828125 -0.753906 19.984375 -0.5 18.890625 -0.5 C 17.796875 -0.5 16.941406 -0.773438 16.328125 -1.328125 C 15.710938 -1.878906 15.265625 -2.597656 14.984375 -3.484375 C 14.710938 -4.367188 14.554688 -5.390625 14.515625 -6.546875 C 14.472656 -7.710938 14.453125 -8.929688 14.453125 -10.203125 Z M 32.515625 -36.203125 C 32.515625 -38.222656 31.59375 -39.921875 29.75 -41.296875 C 27.914062 -42.671875 25.414062 -43.359375 22.25 -43.359375 C 20.21875 -43.359375 18.0625 -42.828125 15.78125 -41.765625 C 13.5 -40.710938 11.382812 -39.179688 9.4375 -37.171875 C 7.5 -35.171875 5.882812 -32.710938 4.59375 -29.796875 C 3.300781 -26.878906 2.65625 -23.539062 2.65625 -19.78125 C 2.65625 -16.945312 3.046875 -14.289062 3.828125 -11.8125 C 4.617188 -9.34375 5.71875 -7.1875 7.125 -5.34375 C 8.539062 -3.507812 10.242188 -2.050781 12.234375 -0.96875 C 14.222656 0.101562 16.441406 0.640625 18.890625 0.640625 C 21.128906 0.640625 23.21875 0.28125 25.15625 -0.4375 C 27.101562 -1.15625 28.785156 -2.148438 30.203125 -3.421875 C 31.617188 -4.691406 32.738281 -6.203125 33.5625 -7.953125 C 34.382812 -9.710938 34.796875 -11.644531 34.796875 -13.75 C 34.796875 -15.945312 34.425781 -17.878906 33.6875 -19.546875 C 32.945312 -21.222656 31.929688 -22.597656 30.640625 -23.671875 C 29.359375 -24.753906 27.847656 -25.566406 26.109375 -26.109375 C 24.378906 -26.660156 22.546875 -26.9375 20.609375 -26.9375 C 18.867188 -26.9375 17.566406 -26.671875 16.703125 -26.140625 C 15.835938 -25.617188 15.085938 -24.976562 14.453125 -24.21875 L 14.453125 -30.484375 C 14.453125 -32.722656 14.671875 -34.59375 15.109375 -36.09375 C 15.554688 -37.59375 16.148438 -38.796875 16.890625 -39.703125 C 17.628906 -40.617188 18.484375 -41.265625 19.453125 -41.640625 C 20.429688 -42.023438 21.445312 -42.21875 22.5 -42.21875 C 23.851562 -42.21875 25.015625 -42.015625 25.984375 -41.609375 C 26.960938 -41.210938 27.453125 -40.84375 27.453125 -40.5 C 27.453125 -40.332031 27.175781 -40.25 26.625 -40.25 C 25.394531 -40.25 24.441406 -39.765625 23.765625 -38.796875 C 23.085938 -37.828125 22.75 -36.789062 22.75 -35.6875 C 22.75 -34.289062 23.210938 -33.140625 24.140625 -32.234375 C 25.078125 -31.328125 26.285156 -30.875 27.765625 -30.875 C 29.285156 -30.875 30.457031 -31.410156 31.28125 -32.484375 C 32.101562 -33.566406 32.515625 -34.804688 32.515625 -36.203125 Z M 32.515625 -36.203125 "/></g></g></g><g fill="#ffffff" fill-opacity="1"><g transform="translate(249.744076, 1297.560024)"><g><path d="M 1.71875 -21.421875 C 1.71875 -18.679688 2.070312 -15.988281 2.78125 -13.34375 C 3.5 -10.695312 4.566406 -8.347656 5.984375 -6.296875 C 7.398438 -4.253906 9.175781 -2.597656 11.3125 -1.328125 C 13.445312 -0.0546875 15.953125 0.578125 18.828125 0.578125 C 21.660156 0.578125 24.15625 -0.0546875 26.3125 -1.328125 C 28.46875 -2.597656 30.25 -4.253906 31.65625 -6.296875 C 33.070312 -8.347656 34.140625 -10.695312 34.859375 -13.34375 C 35.578125 -15.988281 35.9375 -18.679688 35.9375 -21.421875 C 35.9375 -24.171875 35.578125 -26.851562 34.859375 -29.46875 C 34.140625 -32.09375 33.070312 -34.429688 31.65625 -36.484375 C 30.25 -38.535156 28.46875 -40.179688 26.3125 -41.421875 C 24.15625 -42.671875 21.660156 -43.296875 18.828125 -43.296875 C 15.953125 -43.296875 13.445312 -42.671875 11.3125 -41.421875 C 9.175781 -40.179688 7.398438 -38.535156 5.984375 -36.484375 C 4.566406 -34.429688 3.5 -32.09375 2.78125 -29.46875 C 2.070312 -26.851562 1.71875 -24.171875 1.71875 -21.421875 Z M 23.96875 -31.5625 L 23.96875 -11.15625 C 23.96875 -9.164062 23.867188 -7.492188 23.671875 -6.140625 C 23.484375 -4.796875 23.175781 -3.707031 22.75 -2.875 C 22.332031 -2.050781 21.796875 -1.460938 21.140625 -1.109375 C 20.484375 -0.753906 19.710938 -0.578125 18.828125 -0.578125 C 17.941406 -0.578125 17.171875 -0.753906 16.515625 -1.109375 C 15.859375 -1.460938 15.316406 -2.050781 14.890625 -2.875 C 14.472656 -3.707031 14.164062 -4.796875 13.96875 -6.140625 C 13.78125 -7.492188 13.6875 -9.164062 13.6875 -11.15625 L 13.6875 -31.5625 C 13.6875 -33.550781 13.78125 -35.222656 13.96875 -36.578125 C 14.164062 -37.929688 14.472656 -39.019531 14.890625 -39.84375 C 15.316406 -40.664062 15.859375 -41.253906 16.515625 -41.609375 C 17.171875 -41.972656 17.941406 -42.15625 18.828125 -42.15625 C 19.710938 -42.15625 20.484375 -41.972656 21.140625 -41.609375 C 21.796875 -41.253906 22.332031 -40.664062 22.75 -39.84375 C 23.175781 -39.019531 23.484375 -37.929688 23.671875 -36.578125 C 23.867188 -35.222656 23.96875 -33.550781 23.96875 -31.5625 Z M 23.96875 -31.5625 "/></g></g></g><g fill="#ffffff" fill-opacity="1"><g transform="translate(287.83951, 1297.560024)"><g><path d="M 14.453125 -23.328125 L 14.453125 -28.71875 L 1.578125 -26.5625 L 1.578125 -25.484375 L 4.9375 -26.046875 L 4.9375 -1.015625 L 1.578125 -1.015625 L 1.578125 0 L 17.171875 0 L 17.171875 -1.015625 L 14.453125 -1.015625 L 14.453125 -18.703125 C 14.453125 -19.460938 14.585938 -20.285156 14.859375 -21.171875 C 15.140625 -22.054688 15.53125 -22.878906 16.03125 -23.640625 C 16.539062 -24.398438 17.132812 -25.023438 17.8125 -25.515625 C 18.488281 -26.003906 19.226562 -26.25 20.03125 -26.25 C 20.957031 -26.25 21.628906 -25.78125 22.046875 -24.84375 C 22.472656 -23.914062 22.6875 -22.144531 22.6875 -19.53125 L 22.6875 -1.015625 L 19.96875 -1.015625 L 19.96875 0 L 34.921875 0 L 34.921875 -1.015625 L 32.203125 -1.015625 L 32.203125 -18.640625 C 32.203125 -19.523438 32.367188 -20.429688 32.703125 -21.359375 C 33.046875 -22.285156 33.476562 -23.109375 34 -23.828125 C 34.53125 -24.546875 35.125 -25.140625 35.78125 -25.609375 C 36.4375 -26.078125 37.082031 -26.3125 37.71875 -26.3125 C 38.851562 -26.3125 39.585938 -25.738281 39.921875 -24.59375 C 40.265625 -23.457031 40.4375 -21.660156 40.4375 -19.203125 L 40.4375 -1.015625 L 37.71875 -1.015625 L 37.71875 0 L 52.671875 0 L 52.671875 -1.015625 L 49.953125 -1.015625 L 49.953125 -18.578125 C 49.953125 -21.535156 49.101562 -23.835938 47.40625 -25.484375 C 45.71875 -27.128906 43.269531 -27.953125 40.0625 -27.953125 C 38.789062 -27.953125 37.710938 -27.789062 36.828125 -27.46875 C 35.941406 -27.15625 35.191406 -26.753906 34.578125 -26.265625 C 33.960938 -25.785156 33.460938 -25.257812 33.078125 -24.6875 C 32.703125 -24.113281 32.367188 -23.597656 32.078125 -23.140625 C 31.359375 -24.742188 30.269531 -25.9375 28.8125 -26.71875 C 27.351562 -27.5 25.25 -27.890625 22.5 -27.890625 C 21.363281 -27.890625 20.367188 -27.757812 19.515625 -27.5 C 18.671875 -27.25 17.941406 -26.921875 17.328125 -26.515625 C 16.722656 -26.117188 16.1875 -25.644531 15.71875 -25.09375 C 15.257812 -24.550781 14.835938 -23.960938 14.453125 -23.328125 Z M 14.453125 -23.328125 "/></g></g></g><path stroke-linecap="butt" transform="matrix(0.000000000000000046, 0.75, -0.75, 0.000000000000000046, 172.31724, 1229.23234)" fill="none" stroke-linejoin="miter" d="M -0.0024952 0.00111203 L 287.997522 0.00111203 " stroke="#ffffff" stroke-width="15" stroke-opacity="1" stroke-miterlimit="4"/><path stroke-linecap="butt" transform="matrix(0.000000000000000046, 0.750014, -0.75, 0.000000000000000046, 171.939367, 1254.488931)" fill="none" stroke-linejoin="miter" d="M 59.998049 0.00249 L 1664.97423 0.00249 " stroke="#ffffff" stroke-width="16" stroke-opacity="1" stroke-miterlimit="4"/><path stroke-linecap="butt" transform="matrix(0.000000000000000735, 12.000217, -11.999999, 0.000000000000000735, 171.939367, 1254.488931)" fill-opacity="1" fill="#ffffff" fill-rule="nonzero" stroke-linejoin="miter" d="M 3.499883 0.000155625 C 3.499883 0.0489838 3.497604 0.0981374 3.492721 0.146966 C 3.487838 0.195794 3.480677 0.244296 3.471237 0.292473 C 3.461472 0.340976 3.449753 0.388502 3.435431 0.435377 C 3.421108 0.482578 3.404507 0.528476 3.385952 0.574049 C 3.367072 0.619296 3.345914 0.663893 3.322802 0.707187 C 3.299691 0.750481 3.274626 0.792473 3.247283 0.833489 C 3.21994 0.874179 3.190643 0.913567 3.159394 0.951653 C 3.12847 0.989413 3.095267 1.025872 3.060763 1.060703 C 3.025933 1.095533 2.989475 1.128411 2.951715 1.159661 C 2.91363 1.190585 2.874243 1.219882 2.833228 1.247226 C 2.792539 1.27457 2.750547 1.299635 2.707254 1.322747 C 2.663635 1.346184 2.619365 1.367018 2.574118 1.385898 C 2.528546 1.404778 2.482323 1.421054 2.435449 1.435377 C 2.388575 1.4497 2.340724 1.461744 2.292548 1.471184 C 2.244371 1.480624 2.19587 1.488111 2.147042 1.492669 C 2.098215 1.497552 2.049062 1.500156 1.99991 1.500156 C 1.950757 1.500156 1.90193 1.497552 1.853102 1.492669 C 1.80395 1.488111 1.755448 1.480624 1.707272 1.471184 C 1.659096 1.461744 1.61157 1.4497 1.564696 1.435377 C 1.517497 1.421054 1.471273 1.404778 1.426027 1.385898 C 1.380455 1.367018 1.336185 1.346184 1.292891 1.322747 C 1.249598 1.299635 1.207606 1.27457 1.166591 1.247226 C 1.125902 1.219882 1.086515 1.190585 1.04843 1.159661 C 1.010344 1.128411 0.974212 1.095533 0.939382 1.060703 C 0.904552 1.025872 0.871675 0.989413 0.840425 0.951653 C 0.809176 0.913567 0.780205 0.874179 0.752862 0.833489 C 0.725519 0.792473 0.700129 0.750481 0.677017 0.707187 C 0.653905 0.663893 0.633072 0.619296 0.614193 0.574049 C 0.595313 0.528476 0.578711 0.482578 0.564714 0.435377 C 0.550392 0.388502 0.538348 0.340976 0.528908 0.292473 C 0.519142 0.244296 0.511981 0.195794 0.507098 0.146966 C 0.502541 0.0981374 0.499937 0.0489838 0.499937 0.000155625 C 0.499937 -0.048998 0.502541 -0.0981517 0.507098 -0.14698 C 0.511981 -0.195808 0.519142 -0.244311 0.528908 -0.292488 C 0.538348 -0.340665 0.550392 -0.388516 0.564714 -0.435391 C 0.578711 -0.482592 0.595313 -0.52849 0.614193 -0.574063 C 0.633072 -0.619311 0.653905 -0.663907 0.677017 -0.707201 C 0.700129 -0.750495 0.725519 -0.792488 0.752862 -0.833503 C 0.780205 -0.874193 0.809176 -0.913581 0.840425 -0.951667 C 0.871675 -0.989428 0.904552 -1.025886 0.939382 -1.060717 C 0.974212 -1.095548 1.010344 -1.128425 1.04843 -1.159675 C 1.086515 -1.1906 1.125902 -1.219897 1.166591 -1.24724 C 1.207606 -1.274584 1.249598 -1.299649 1.292891 -1.322761 C 1.336185 -1.346199 1.380455 -1.367032 1.426027 -1.385912 C 1.471273 -1.404467 1.517497 -1.421068 1.564696 -1.435391 C 1.61157 -1.449714 1.659096 -1.461433 1.707272 -1.471199 C 1.755448 -1.480639 1.80395 -1.4878 1.853102 -1.492683 C 1.90193 -1.497566 1.950757 -1.499844 1.99991 -1.499844 C 2.049062 -1.499844 2.098215 -1.497566 2.147042 -1.492683 C 2.19587 -1.4878 2.244371 -1.480639 2.292548 -1.471199 C 2.340724 -1.461433 2.388575 -1.449714 2.435449 -1.435391 C 2.482323 -1.421068 2.528546 -1.404467 2.574118 -1.385912 C 2.619365 -1.367032 2.663635 -1.346199 2.707254 -1.322761 C 2.750547 -1.299649 2.792539 -1.274584 2.833228 -1.24724 C 2.874243 -1.219897 2.91363 -1.1906 2.951715 -1.159675 C 2.989475 -1.128425 3.025933 -1.095548 3.060763 -1.060717 C 3.095267 -1.025886 3.12847 -0.989428 3.159394 -0.951667 C 3.190643 -0.913581 3.21994 -0.874193 3.247283 -0.833503 C 3.274626 -0.792488 3.299691 -0.750495 3.322802 -0.707201 C 3.345914 -0.663907 3.367072 -0.619311 3.385952 -0.574063 C 3.404507 -0.52849 3.421108 -0.482592 3.435431 -0.435391 C 3.449753 -0.388516 3.461472 -0.340665 3.471237 -0.292488 C 3.480677 -0.244311 3.487838 -0.195808 3.492721 -0.14698 C 3.497604 -0.0981517 3.499883 -0.048998 3.499883 0.000155625 Z M 3.499883 0.000155625 " stroke="#ffffff" stroke-width="1" stroke-opacity="1" stroke-miterlimit="4"/><path stroke-linecap="butt" transform="matrix(0.000000000000000735, 12.000217, -11.999999, 0.000000000000000735, 171.939367, 2548.244711)" fill-opacity="1" fill="#ffffff" fill-rule="nonzero" stroke-linejoin="miter" d="M -0.499876 0.000155625 C -0.499876 0.0489838 -0.50248 0.0981374 -0.507363 0.146966 C -0.51192 0.195794 -0.519081 0.244296 -0.528847 0.292473 C -0.538286 0.340976 -0.550331 0.388502 -0.564653 0.435377 C -0.578976 0.482578 -0.595252 0.528476 -0.614131 0.574049 C -0.633011 0.619296 -0.653844 0.663893 -0.676956 0.707187 C -0.700393 0.750481 -0.725458 0.792473 -0.752801 0.833489 C -0.780144 0.874179 -0.80944 0.913567 -0.840364 0.951653 C -0.871614 0.989413 -0.904491 1.025872 -0.939321 1.060703 C -0.974151 1.095533 -1.010283 1.128411 -1.048368 1.159661 C -1.086454 1.190585 -1.125841 1.219882 -1.16653 1.247226 C -1.207545 1.27457 -1.249537 1.299635 -1.29283 1.322747 C -1.336124 1.346184 -1.380719 1.367018 -1.425966 1.385898 C -1.471212 1.404778 -1.517435 1.421054 -1.564635 1.435377 C -1.611509 1.4497 -1.659034 1.461744 -1.707211 1.471184 C -1.755387 1.480624 -1.804214 1.488111 -1.853041 1.492669 C -1.901869 1.497552 -1.951021 1.500156 -1.999849 1.500156 C -2.049001 1.500156 -2.098154 1.497552 -2.146981 1.492669 C -2.195809 1.488111 -2.24431 1.480624 -2.292487 1.471184 C -2.340663 1.461744 -2.388513 1.4497 -2.435388 1.435377 C -2.482587 1.421054 -2.528485 1.404778 -2.574057 1.385898 C -2.619304 1.367018 -2.663899 1.346184 -2.707193 1.322747 C -2.750486 1.299635 -2.792477 1.27457 -2.833492 1.247226 C -2.874182 1.219882 -2.913569 1.190585 -2.951654 1.159661 C -2.989414 1.128411 -3.025872 1.095533 -3.060702 1.060703 C -3.095532 1.025872 -3.128409 0.989413 -3.159658 0.951653 C -3.190582 0.913567 -3.219879 0.874179 -3.247222 0.833489 C -3.274565 0.792473 -3.29963 0.750481 -3.322741 0.707187 C -3.346178 0.663893 -3.367011 0.619296 -3.385891 0.574049 C -3.404771 0.528476 -3.421047 0.482578 -3.435369 0.435377 C -3.449692 0.388502 -3.461736 0.340976 -3.471176 0.292473 C -3.480616 0.244296 -3.488103 0.195794 -3.49266 0.146966 C -3.497543 0.0981374 -3.500147 0.0489838 -3.500147 0.000155625 C -3.500147 -0.048998 -3.497543 -0.0981517 -3.49266 -0.14698 C -3.488103 -0.195808 -3.480616 -0.244311 -3.471176 -0.292488 C -3.461736 -0.340665 -3.449692 -0.388516 -3.435369 -0.435391 C -3.421047 -0.482592 -3.404771 -0.52849 -3.385891 -0.574063 C -3.367011 -0.619311 -3.346178 -0.663907 -3.322741 -0.707201 C -3.29963 -0.750495 -3.274565 -0.792488 -3.247222 -0.833503 C -3.219879 -0.874193 -3.190582 -0.913581 -3.159658 -0.951667 C -3.128409 -0.989428 -3.095532 -1.025886 -3.060702 -1.060717 C -3.025872 -1.095548 -2.989414 -1.128425 -2.951654 -1.159675 C -2.913569 -1.1906 -2.874182 -1.219897 -2.833492 -1.24724 C -2.792477 -1.274584 -2.750486 -1.299649 -2.707193 -1.322761 C -2.663899 -1.346199 -2.619304 -1.367032 -2.574057 -1.385912 C -2.528485 -1.404467 -2.482587 -1.421068 -2.435388 -1.435391 C -2.388513 -1.449714 -2.340663 -1.461433 -2.292487 -1.471199 C -2.24431 -1.480639 -2.195809 -1.4878 -2.146981 -1.492683 C -2.098154 -1.497566 -2.049001 -1.499844 -1.999849 -1.499844 C -1.951021 -1.499844 -1.901869 -1.497566 -1.853041 -1.492683 C -1.804214 -1.4878 -1.755387 -1.480639 -1.707211 -1.471199 C -1.659034 -1.461433 -1.611509 -1.449714 -1.564635 -1.435391 C -1.517435 -1.421068 -1.471212 -1.404467 -1.425966 -1.385912 C -1.380719 -1.367032 -1.336124 -1.346199 -1.29283 -1.322761 C -1.249537 -1.299649 -1.207545 -1.274584 -1.16653 -1.24724 C -1.125841 -1.219897 -1.086454 -1.1906 -1.048368 -1.159675 C -1.010283 -1.128425 -0.974151 -1.095548 -0.939321 -1.060717 C -0.904491 -1.025886 -0.871614 -0.989428 -0.840364 -0.951667 C -0.80944 -0.913581 -0.780144 -0.874193 -0.752801 -0.833503 C -0.725458 -0.792488 -0.700393 -0.750495 -0.676956 -0.707201 C -0.653844 -0.663907 -0.633011 -0.619311 -0.614131 -0.574063 C -0.595252 -0.52849 -0.578976 -0.482592 -0.564653 -0.435391 C -0.550331 -0.388516 -0.538286 -0.340665 -0.528847 -0.292488 C -0.519081 -0.244311 -0.51192 -0.195808 -0.507363 -0.14698 C -0.50248 -0.0981517 -0.499876 -0.048998 -0.499876 0.000155625 Z M -0.499876 0.000155625 " stroke="#ffffff" stroke-width="1" stroke-opacity="1" stroke-miterlimit="4"/><g fill="#ffffff" fill-opacity="1"><g transform="translate(211.648642, 2540.046048)"><g><path d="M 20.609375 -23.203125 C 21.910156 -23.328125 23.207031 -23.617188 24.5 -24.078125 C 25.789062 -24.546875 26.941406 -25.171875 27.953125 -25.953125 C 28.972656 -26.734375 29.796875 -27.671875 30.421875 -28.765625 C 31.054688 -29.867188 31.375 -31.140625 31.375 -32.578125 C 31.375 -34.015625 31.046875 -35.367188 30.390625 -36.640625 C 29.734375 -37.910156 28.832031 -39.007812 27.6875 -39.9375 C 26.550781 -40.863281 25.203125 -41.59375 23.640625 -42.125 C 22.078125 -42.65625 20.390625 -42.921875 18.578125 -42.921875 C 16.753906 -42.921875 15.0625 -42.65625 13.5 -42.125 C 11.9375 -41.59375 10.582031 -40.863281 9.4375 -39.9375 C 8.300781 -39.007812 7.40625 -37.910156 6.75 -36.640625 C 6.09375 -35.367188 5.765625 -34.015625 5.765625 -32.578125 C 5.765625 -31.140625 6.082031 -29.867188 6.71875 -28.765625 C 7.351562 -27.671875 8.175781 -26.734375 9.1875 -25.953125 C 10.207031 -25.171875 11.359375 -24.546875 12.640625 -24.078125 C 13.929688 -23.617188 15.234375 -23.328125 16.546875 -23.203125 C 16.878906 -23.203125 17.046875 -23.160156 17.046875 -23.078125 C 17.046875 -22.992188 16.878906 -22.953125 16.546875 -22.953125 C 14.941406 -22.734375 13.429688 -22.316406 12.015625 -21.703125 C 10.597656 -21.097656 9.367188 -20.304688 8.328125 -19.328125 C 7.296875 -18.359375 6.472656 -17.21875 5.859375 -15.90625 C 5.242188 -14.601562 4.9375 -13.125 4.9375 -11.46875 C 4.9375 -9.863281 5.203125 -8.332031 5.734375 -6.875 C 6.265625 -5.414062 7.085938 -4.132812 8.203125 -3.03125 C 9.328125 -1.9375 10.742188 -1.050781 12.453125 -0.375 C 14.171875 0.300781 16.210938 0.640625 18.578125 0.640625 C 20.941406 0.640625 22.976562 0.300781 24.6875 -0.375 C 26.40625 -1.050781 27.820312 -1.9375 28.9375 -3.03125 C 30.0625 -4.132812 30.882812 -5.414062 31.40625 -6.875 C 31.9375 -8.332031 32.203125 -9.863281 32.203125 -11.46875 C 32.203125 -13.125 31.894531 -14.601562 31.28125 -15.90625 C 30.664062 -17.21875 29.84375 -18.359375 28.8125 -19.328125 C 27.78125 -20.304688 26.554688 -21.097656 25.140625 -21.703125 C 23.722656 -22.316406 22.210938 -22.734375 20.609375 -22.953125 C 20.304688 -22.992188 20.15625 -23.035156 20.15625 -23.078125 C 20.15625 -23.078125 20.1875 -23.097656 20.25 -23.140625 C 20.3125 -23.179688 20.429688 -23.203125 20.609375 -23.203125 Z M 15.09375 -35.8125 C 15.09375 -36.488281 15.132812 -37.195312 15.21875 -37.9375 C 15.300781 -38.675781 15.46875 -39.332031 15.71875 -39.90625 C 15.96875 -40.476562 16.316406 -40.953125 16.765625 -41.328125 C 17.210938 -41.710938 17.816406 -41.90625 18.578125 -41.90625 C 19.335938 -41.90625 19.945312 -41.710938 20.40625 -41.328125 C 20.875 -40.953125 21.222656 -40.476562 21.453125 -39.90625 C 21.691406 -39.332031 21.851562 -38.675781 21.9375 -37.9375 C 22.019531 -37.195312 22.0625 -36.488281 22.0625 -35.8125 L 22.0625 -30.109375 C 22.0625 -29.222656 22.019531 -28.398438 21.9375 -27.640625 C 21.851562 -26.878906 21.679688 -26.203125 21.421875 -25.609375 C 21.171875 -25.015625 20.8125 -24.546875 20.34375 -24.203125 C 19.882812 -23.867188 19.296875 -23.703125 18.578125 -23.703125 C 17.773438 -23.703125 17.140625 -23.878906 16.671875 -24.234375 C 16.203125 -24.597656 15.851562 -25.078125 15.625 -25.671875 C 15.394531 -26.265625 15.25 -26.941406 15.1875 -27.703125 C 15.125 -28.460938 15.09375 -29.265625 15.09375 -30.109375 Z M 15.09375 -15.96875 C 15.09375 -16.644531 15.125 -17.363281 15.1875 -18.125 C 15.25 -18.882812 15.394531 -19.582031 15.625 -20.21875 C 15.851562 -20.851562 16.203125 -21.367188 16.671875 -21.765625 C 17.140625 -22.171875 17.773438 -22.375 18.578125 -22.375 C 19.421875 -22.375 20.070312 -22.171875 20.53125 -21.765625 C 21 -21.367188 21.347656 -20.851562 21.578125 -20.21875 C 21.816406 -19.582031 21.957031 -18.882812 22 -18.125 C 22.039062 -17.363281 22.0625 -16.644531 22.0625 -15.96875 L 22.0625 -7.296875 C 22.0625 -5.265625 21.847656 -3.601562 21.421875 -2.3125 C 21.003906 -1.019531 20.054688 -0.375 18.578125 -0.375 C 17.097656 -0.375 16.144531 -1.019531 15.71875 -2.3125 C 15.300781 -3.601562 15.09375 -5.265625 15.09375 -7.296875 Z M 15.09375 -15.96875 "/></g></g></g><g fill="#ffffff" fill-opacity="1"><g transform="translate(249.744076, 2540.046048)"><g><path d="M 1.71875 -21.421875 C 1.71875 -18.679688 2.070312 -15.988281 2.78125 -13.34375 C 3.5 -10.695312 4.566406 -8.347656 5.984375 -6.296875 C 7.398438 -4.253906 9.175781 -2.597656 11.3125 -1.328125 C 13.445312 -0.0546875 15.953125 0.578125 18.828125 0.578125 C 21.660156 0.578125 24.15625 -0.0546875 26.3125 -1.328125 C 28.46875 -2.597656 30.25 -4.253906 31.65625 -6.296875 C 33.070312 -8.347656 34.140625 -10.695312 34.859375 -13.34375 C 35.578125 -15.988281 35.9375 -18.679688 35.9375 -21.421875 C 35.9375 -24.171875 35.578125 -26.851562 34.859375 -29.46875 C 34.140625 -32.09375 33.070312 -34.429688 31.65625 -36.484375 C 30.25 -38.535156 28.46875 -40.179688 26.3125 -41.421875 C 24.15625 -42.671875 21.660156 -43.296875 18.828125 -43.296875 C 15.953125 -43.296875 13.445312 -42.671875 11.3125 -41.421875 C 9.175781 -40.179688 7.398438 -38.535156 5.984375 -36.484375 C 4.566406 -34.429688 3.5 -32.09375 2.78125 -29.46875 C 2.070312 -26.851562 1.71875 -24.171875 1.71875 -21.421875 Z M 23.96875 -31.5625 L 23.96875 -11.15625 C 23.96875 -9.164062 23.867188 -7.492188 23.671875 -6.140625 C 23.484375 -4.796875 23.175781 -3.707031 22.75 -2.875 C 22.332031 -2.050781 21.796875 -1.460938 21.140625 -1.109375 C 20.484375 -0.753906 19.710938 -0.578125 18.828125 -0.578125 C 17.941406 -0.578125 17.171875 -0.753906 16.515625 -1.109375 C 15.859375 -1.460938 15.316406 -2.050781 14.890625 -2.875 C 14.472656 -3.707031 14.164062 -4.796875 13.96875 -6.140625 C 13.78125 -7.492188 13.6875 -9.164062 13.6875 -11.15625 L 13.6875 -31.5625 C 13.6875 -33.550781 13.78125 -35.222656 13.96875 -36.578125 C 14.164062 -37.929688 14.472656 -39.019531 14.890625 -39.84375 C 15.316406 -40.664062 15.859375 -41.253906 16.515625 -41.609375 C 17.171875 -41.972656 17.941406 -42.15625 18.828125 -42.15625 C 19.710938 -42.15625 20.484375 -41.972656 21.140625 -41.609375 C 21.796875 -41.253906 22.332031 -40.664062 22.75 -39.84375 C 23.175781 -39.019531 23.484375 -37.929688 23.671875 -36.578125 C 23.867188 -35.222656 23.96875 -33.550781 23.96875 -31.5625 Z M 23.96875 -31.5625 "/></g></g></g><g fill="#ffffff" fill-opacity="1"><g transform="translate(287.83951, 2540.046048)"><g><path d="M 14.453125 -23.328125 L 14.453125 -28.71875 L 1.578125 -26.5625 L 1.578125 -25.484375 L 4.9375 -26.046875 L 4.9375 -1.015625 L 1.578125 -1.015625 L 1.578125 0 L 17.171875 0 L 17.171875 -1.015625 L 14.453125 -1.015625 L 14.453125 -18.703125 C 14.453125 -19.460938 14.585938 -20.285156 14.859375 -21.171875 C 15.140625 -22.054688 15.53125 -22.878906 16.03125 -23.640625 C 16.539062 -24.398438 17.132812 -25.023438 17.8125 -25.515625 C 18.488281 -26.003906 19.226562 -26.25 20.03125 -26.25 C 20.957031 -26.25 21.628906 -25.78125 22.046875 -24.84375 C 22.472656 -23.914062 22.6875 -22.144531 22.6875 -19.53125 L 22.6875 -1.015625 L 19.96875 -1.015625 L 19.96875 0 L 34.921875 0 L 34.921875 -1.015625 L 32.203125 -1.015625 L 32.203125 -18.640625 C 32.203125 -19.523438 32.367188 -20.429688 32.703125 -21.359375 C 33.046875 -22.285156 33.476562 -23.109375 34 -23.828125 C 34.53125 -24.546875 35.125 -25.140625 35.78125 -25.609375 C 36.4375 -26.078125 37.082031 -26.3125 37.71875 -26.3125 C 38.851562 -26.3125 39.585938 -25.738281 39.921875 -24.59375 C 40.265625 -23.457031 40.4375 -21.660156 40.4375 -19.203125 L 40.4375 -1.015625 L 37.71875 -1.015625 L 37.71875 0 L 52.671875 0 L 52.671875 -1.015625 L 49.953125 -1.015625 L 49.953125 -18.578125 C 49.953125 -21.535156 49.101562 -23.835938 47.40625 -25.484375 C 45.71875 -27.128906 43.269531 -27.953125 40.0625 -27.953125 C 38.789062 -27.953125 37.710938 -27.789062 36.828125 -27.46875 C 35.941406 -27.15625 35.191406 -26.753906 34.578125 -26.265625 C 33.960938 -25.785156 33.460938 -25.257812 33.078125 -24.6875 C 32.703125 -24.113281 32.367188 -23.597656 32.078125 -23.140625 C 31.359375 -24.742188 30.269531 -25.9375 28.8125 -26.71875 C 27.351562 -27.5 25.25 -27.890625 22.5 -27.890625 C 21.363281 -27.890625 20.367188 -27.757812 19.515625 -27.5 C 18.671875 -27.25 17.941406 -26.921875 17.328125 -26.515625 C 16.722656 -26.117188 16.1875 -25.644531 15.71875 -25.09375 C 15.257812 -24.550781 14.835938 -23.960938 14.453125 -23.328125 Z M 14.453125 -23.328125 "/></g></g></g><path stroke-linecap="butt" transform="matrix(-0.000000000000000121, 0.750014, -0.75, -0.000000000000000121, 172.689367, 2548.221287)" fill="none" stroke-linejoin="miter" d="M 0.00182556 0.00248994 L 1616.977014 0.00248994 " stroke="#ffffff" stroke-width="16" stroke-opacity="1" stroke-miterlimit="4"/><path stroke-linecap="butt" transform="matrix(-0.00000000000000193, 12.000223, -11.999999, -0.00000000000000193, 172.689367, 3805.97707)" fill-opacity="1" fill="#ffffff" fill-rule="nonzero" stroke-linejoin="miter" d="M -0.500033 0.000155621 C -0.500033 0.0489837 -0.502312 0.0981374 -0.507194 0.146966 C -0.512077 0.195794 -0.519238 0.244296 -0.528678 0.292473 C -0.538444 0.340976 -0.550488 0.388502 -0.564485 0.435377 C -0.578808 0.482578 -0.595409 0.528476 -0.614289 0.574049 C -0.632843 0.619296 -0.654001 0.663893 -0.677113 0.707187 C -0.700225 0.750481 -0.725615 0.792473 -0.752958 0.833489 C -0.779976 0.874179 -0.809272 0.913567 -0.840521 0.951653 C -0.871771 0.989413 -0.904648 1.025872 -0.939478 1.060703 C -0.973983 1.095533 -1.01044 1.128411 -1.048525 1.159661 C -1.086285 1.190585 -1.125672 1.219882 -1.166687 1.247226 C -1.207377 1.27457 -1.249694 1.299635 -1.292987 1.322747 C -1.33628 1.346184 -1.38055 1.367018 -1.426123 1.385898 C -1.471369 1.404778 -1.517592 1.421054 -1.564466 1.435377 C -1.611666 1.4497 -1.659191 1.461744 -1.707367 1.471184 C -1.755544 1.480624 -1.804045 1.488111 -1.852872 1.492669 C -1.902025 1.497552 -1.950852 1.500156 -2.000005 1.500156 C -2.049158 1.500156 -2.097985 1.497552 -2.147138 1.492669 C -2.195965 1.488111 -2.244467 1.480624 -2.292643 1.471184 C -2.340819 1.461744 -2.388344 1.4497 -2.435544 1.435377 C -2.482418 1.421054 -2.528641 1.404778 -2.573888 1.385898 C -2.61946 1.367018 -2.66373 1.346184 -2.707023 1.322747 C -2.750317 1.299635 -2.792634 1.27457 -2.833323 1.247226 C -2.874338 1.219882 -2.913725 1.190585 -2.951485 1.159661 C -2.98957 1.128411 -3.026028 1.095533 -3.060532 1.060703 C -3.095362 1.025872 -3.128239 0.989413 -3.159489 0.951653 C -3.190738 0.913567 -3.220035 0.874179 -3.247052 0.833489 C -3.274396 0.792473 -3.299786 0.750481 -3.322897 0.707187 C -3.346009 0.663893 -3.367167 0.619296 -3.385722 0.574049 C -3.404601 0.528476 -3.421203 0.482578 -3.435525 0.435377 C -3.449522 0.388502 -3.461567 0.340976 -3.471332 0.292473 C -3.480772 0.244296 -3.487933 0.195794 -3.492816 0.146966 C -3.497699 0.0981374 -3.499977 0.0489837 -3.499977 0.000155621 C -3.499977 -0.048998 -3.497699 -0.0981517 -3.492816 -0.14698 C -3.487933 -0.195808 -3.480772 -0.244311 -3.471332 -0.292488 C -3.461567 -0.340665 -3.449522 -0.388516 -3.435525 -0.435391 C -3.421203 -0.482592 -3.404601 -0.52849 -3.385722 -0.574063 C -3.367167 -0.619311 -3.346009 -0.663907 -3.322897 -0.707201 C -3.299786 -0.750495 -3.274396 -0.792488 -3.247052 -0.833503 C -3.220035 -0.874193 -3.190738 -0.913581 -3.159489 -0.951667 C -3.128239 -0.989428 -3.095362 -1.025886 -3.060532 -1.060717 C -3.026028 -1.095548 -2.98957 -1.128425 -2.951485 -1.159675 C -2.913725 -1.1906 -2.874338 -1.219897 -2.833323 -1.24724 C -2.792634 -1.274584 -2.750317 -1.299649 -2.707023 -1.322761 C -2.66373 -1.346199 -2.61946 -1.367032 -2.573888 -1.385912 C -2.528641 -1.404467 -2.482418 -1.421068 -2.435544 -1.435391 C -2.388344 -1.449714 -2.340819 -1.461433 -2.292643 -1.471199 C -2.244467 -1.480639 -2.195965 -1.4878 -2.147138 -1.492683 C -2.097985 -1.497566 -2.049158 -1.499844 -2.000005 -1.499844 C -1.950852 -1.499844 -1.902025 -1.497566 -1.852872 -1.492683 C -1.804045 -1.4878 -1.755544 -1.480639 -1.707367 -1.471199 C -1.659191 -1.461433 -1.611666 -1.449714 -1.564466 -1.435391 C -1.517592 -1.421068 -1.471369 -1.404467 -1.426123 -1.385912 C -1.38055 -1.367032 -1.33628 -1.346199 -1.292987 -1.322761 C -1.249694 -1.299649 -1.207377 -1.274584 -1.166687 -1.24724 C -1.125672 -1.219897 -1.086285 -1.1906 -1.048525 -1.159675 C -1.01044 -1.128425 -0.973983 -1.095548 -0.939478 -1.060717 C -0.904648 -1.025886 -0.871771 -0.989428 -0.840521 -0.951667 C -0.809272 -0.913581 -0.779976 -0.874193 -0.752958 -0.833503 C -0.725615 -0.792488 -0.700225 -0.750495 -0.677113 -0.707201 C -0.654001 -0.663907 -0.632843 -0.619311 -0.614289 -0.574063 C -0.595409 -0.52849 -0.578808 -0.482592 -0.564485 -0.435391 C -0.550488 -0.388516 -0.538444 -0.340665 -0.528678 -0.292488 C -0.519238 -0.244311 -0.512077 -0.195808 -0.507194 -0.14698 C -0.502312 -0.0981517 -0.500033 -0.048998 -0.500033 0.000155621 Z M -0.500033 0.000155621 " stroke="#ffffff" stroke-width="1" stroke-opacity="1" stroke-miterlimit="4"/><g fill="#ffffff" fill-opacity="1"><g transform="translate(200.105674, 3794.778382)"><g><path d="M 6.28125 -33.46875 C 6.363281 -33.46875 6.46875 -33.46875 6.59375 -33.46875 C 6.757812 -33.46875 6.925781 -33.488281 7.09375 -33.53125 C 7.644531 -33.613281 8.289062 -33.757812 9.03125 -33.96875 C 9.769531 -34.1875 10.519531 -34.429688 11.28125 -34.703125 C 12.039062 -34.984375 12.769531 -35.269531 13.46875 -35.5625 C 14.164062 -35.851562 14.789062 -36.128906 15.34375 -36.390625 L 15.34375 -1.015625 L 11.921875 -1.015625 L 11.921875 0 L 28.265625 0 L 28.265625 -1.015625 L 24.84375 -1.015625 L 24.84375 -42.59375 L 19.53125 -42.59375 C 17.832031 -41.113281 15.894531 -39.613281 13.71875 -38.09375 C 11.539062 -36.570312 9.1875 -35.367188 6.65625 -34.484375 C 5.976562 -34.234375 5.640625 -33.976562 5.640625 -33.71875 C 5.640625 -33.550781 5.851562 -33.46875 6.28125 -33.46875 Z M 6.28125 -33.46875 "/></g></g></g><g fill="#ffffff" fill-opacity="1"><g transform="translate(238.201108, 3794.778382)"><g><path d="M 1.71875 -21.421875 C 1.71875 -18.679688 2.070312 -15.988281 2.78125 -13.34375 C 3.5 -10.695312 4.566406 -8.347656 5.984375 -6.296875 C 7.398438 -4.253906 9.175781 -2.597656 11.3125 -1.328125 C 13.445312 -0.0546875 15.953125 0.578125 18.828125 0.578125 C 21.660156 0.578125 24.15625 -0.0546875 26.3125 -1.328125 C 28.46875 -2.597656 30.25 -4.253906 31.65625 -6.296875 C 33.070312 -8.347656 34.140625 -10.695312 34.859375 -13.34375 C 35.578125 -15.988281 35.9375 -18.679688 35.9375 -21.421875 C 35.9375 -24.171875 35.578125 -26.851562 34.859375 -29.46875 C 34.140625 -32.09375 33.070312 -34.429688 31.65625 -36.484375 C 30.25 -38.535156 28.46875 -40.179688 26.3125 -41.421875 C 24.15625 -42.671875 21.660156 -43.296875 18.828125 -43.296875 C 15.953125 -43.296875 13.445312 -42.671875 11.3125 -41.421875 C 9.175781 -40.179688 7.398438 -38.535156 5.984375 -36.484375 C 4.566406 -34.429688 3.5 -32.09375 2.78125 -29.46875 C 2.070312 -26.851562 1.71875 -24.171875 1.71875 -21.421875 Z M 23.96875 -31.5625 L 23.96875 -11.15625 C 23.96875 -9.164062 23.867188 -7.492188 23.671875 -6.140625 C 23.484375 -4.796875 23.175781 -3.707031 22.75 -2.875 C 22.332031 -2.050781 21.796875 -1.460938 21.140625 -1.109375 C 20.484375 -0.753906 19.710938 -0.578125 18.828125 -0.578125 C 17.941406 -0.578125 17.171875 -0.753906 16.515625 -1.109375 C 15.859375 -1.460938 15.316406 -2.050781 14.890625 -2.875 C 14.472656 -3.707031 14.164062 -4.796875 13.96875 -6.140625 C 13.78125 -7.492188 13.6875 -9.164062 13.6875 -11.15625 L 13.6875 -31.5625 C 13.6875 -33.550781 13.78125 -35.222656 13.96875 -36.578125 C 14.164062 -37.929688 14.472656 -39.019531 14.890625 -39.84375 C 15.316406 -40.664062 15.859375 -41.253906 16.515625 -41.609375 C 17.171875 -41.972656 17.941406 -42.15625 18.828125 -42.15625 C 19.710938 -42.15625 20.484375 -41.972656 21.140625 -41.609375 C 21.796875 -41.253906 22.332031 -40.664062 22.75 -39.84375 C 23.175781 -39.019531 23.484375 -37.929688 23.671875 -36.578125 C 23.867188 -35.222656 23.96875 -33.550781 23.96875 -31.5625 Z M 23.96875 -31.5625 "/></g></g></g><g fill="#ffffff" fill-opacity="1"><g transform="translate(276.296542, 3794.778382)"><g><path d="M 1.71875 -21.421875 C 1.71875 -18.679688 2.070312 -15.988281 2.78125 -13.34375 C 3.5 -10.695312 4.566406 -8.347656 5.984375 -6.296875 C 7.398438 -4.253906 9.175781 -2.597656 11.3125 -1.328125 C 13.445312 -0.0546875 15.953125 0.578125 18.828125 0.578125 C 21.660156 0.578125 24.15625 -0.0546875 26.3125 -1.328125 C 28.46875 -2.597656 30.25 -4.253906 31.65625 -6.296875 C 33.070312 -8.347656 34.140625 -10.695312 34.859375 -13.34375 C 35.578125 -15.988281 35.9375 -18.679688 35.9375 -21.421875 C 35.9375 -24.171875 35.578125 -26.851562 34.859375 -29.46875 C 34.140625 -32.09375 33.070312 -34.429688 31.65625 -36.484375 C 30.25 -38.535156 28.46875 -40.179688 26.3125 -41.421875 C 24.15625 -42.671875 21.660156 -43.296875 18.828125 -43.296875 C 15.953125 -43.296875 13.445312 -42.671875 11.3125 -41.421875 C 9.175781 -40.179688 7.398438 -38.535156 5.984375 -36.484375 C 4.566406 -34.429688 3.5 -32.09375 2.78125 -29.46875 C 2.070312 -26.851562 1.71875 -24.171875 1.71875 -21.421875 Z M 23.96875 -31.5625 L 23.96875 -11.15625 C 23.96875 -9.164062 23.867188 -7.492188 23.671875 -6.140625 C 23.484375 -4.796875 23.175781 -3.707031 22.75 -2.875 C 22.332031 -2.050781 21.796875 -1.460938 21.140625 -1.109375 C 20.484375 -0.753906 19.710938 -0.578125 18.828125 -0.578125 C 17.941406 -0.578125 17.171875 -0.753906 16.515625 -1.109375 C 15.859375 -1.460938 15.316406 -2.050781 14.890625 -2.875 C 14.472656 -3.707031 14.164062 -4.796875 13.96875 -6.140625 C 13.78125 -7.492188 13.6875 -9.164062 13.6875 -11.15625 L 13.6875 -31.5625 C 13.6875 -33.550781 13.78125 -35.222656 13.96875 -36.578125 C 14.164062 -37.929688 14.472656 -39.019531 14.890625 -39.84375 C 15.316406 -40.664062 15.859375 -41.253906 16.515625 -41.609375 C 17.171875 -41.972656 17.941406 -42.15625 18.828125 -42.15625 C 19.710938 -42.15625 20.484375 -41.972656 21.140625 -41.609375 C 21.796875 -41.253906 22.332031 -40.664062 22.75 -39.84375 C 23.175781 -39.019531 23.484375 -37.929688 23.671875 -36.578125 C 23.867188 -35.222656 23.96875 -33.550781 23.96875 -31.5625 Z M 23.96875 -31.5625 "/></g></g></g><g fill="#ffffff" fill-opacity="1"><g transform="translate(314.391976, 3794.778382)"><g><path d="M 14.453125 -23.328125 L 14.453125 -28.71875 L 1.578125 -26.5625 L 1.578125 -25.484375 L 4.9375 -26.046875 L 4.9375 -1.015625 L 1.578125 -1.015625 L 1.578125 0 L 17.171875 0 L 17.171875 -1.015625 L 14.453125 -1.015625 L 14.453125 -18.703125 C 14.453125 -19.460938 14.585938 -20.285156 14.859375 -21.171875 C 15.140625 -22.054688 15.53125 -22.878906 16.03125 -23.640625 C 16.539062 -24.398438 17.132812 -25.023438 17.8125 -25.515625 C 18.488281 -26.003906 19.226562 -26.25 20.03125 -26.25 C 20.957031 -26.25 21.628906 -25.78125 22.046875 -24.84375 C 22.472656 -23.914062 22.6875 -22.144531 22.6875 -19.53125 L 22.6875 -1.015625 L 19.96875 -1.015625 L 19.96875 0 L 34.921875 0 L 34.921875 -1.015625 L 32.203125 -1.015625 L 32.203125 -18.640625 C 32.203125 -19.523438 32.367188 -20.429688 32.703125 -21.359375 C 33.046875 -22.285156 33.476562 -23.109375 34 -23.828125 C 34.53125 -24.546875 35.125 -25.140625 35.78125 -25.609375 C 36.4375 -26.078125 37.082031 -26.3125 37.71875 -26.3125 C 38.851562 -26.3125 39.585938 -25.738281 39.921875 -24.59375 C 40.265625 -23.457031 40.4375 -21.660156 40.4375 -19.203125 L 40.4375 -1.015625 L 37.71875 -1.015625 L 37.71875 0 L 52.671875 0 L 52.671875 -1.015625 L 49.953125 -1.015625 L 49.953125 -18.578125 C 49.953125 -21.535156 49.101562 -23.835938 47.40625 -25.484375 C 45.71875 -27.128906 43.269531 -27.953125 40.0625 -27.953125 C 38.789062 -27.953125 37.710938 -27.789062 36.828125 -27.46875 C 35.941406 -27.15625 35.191406 -26.753906 34.578125 -26.265625 C 33.960938 -25.785156 33.460938 -25.257812 33.078125 -24.6875 C 32.703125 -24.113281 32.367188 -23.597656 32.078125 -23.140625 C 31.359375 -24.742188 30.269531 -25.9375 28.8125 -26.71875 C 27.351562 -27.5 25.25 -27.890625 22.5 -27.890625 C 21.363281 -27.890625 20.367188 -27.757812 19.515625 -27.5 C 18.671875 -27.25 17.941406 -26.921875 17.328125 -26.515625 C 16.722656 -26.117188 16.1875 -25.644531 15.71875 -25.09375 C 15.257812 -24.550781 14.835938 -23.960938 14.453125 -23.328125 Z M 14.453125 -23.328125 "/></g></g></g><path stroke-linecap="butt" transform="matrix(0.000000000000000046, 0.75, -0.75, 0.000000000000000046, 172.31724, 3651.729031)" fill="none" stroke-linejoin="miter" d="M 0.00191759 0.00111203 L 288.001934 0.00111203 " stroke="#ffffff" stroke-width="15" stroke-opacity="1" stroke-miterlimit="4"/><path stroke-linecap="butt" transform="matrix(0.000000000000000046, 0.749803, -0.75, 0.000000000000000046, 171.485955, 3698.679484)" fill="none" stroke-linejoin="miter" d="M 0.000271655 0.0021063 L 1722.468965 0.0021063 " stroke="#ffffff" stroke-width="16" stroke-opacity="1" stroke-miterlimit="4"/><path stroke-linecap="butt" transform="matrix(0.000000000000000735, 11.996844, -11.999999, 0.000000000000000735, 171.485955, 5035.181086)" fill-opacity="1" fill="#ffffff" fill-rule="nonzero" stroke-linejoin="miter" d="M -0.499922 0.000131644 C -0.499922 0.0492853 -0.502527 0.0981134 -0.507086 0.146942 C -0.51197 0.19577 -0.519133 0.244598 -0.528901 0.292775 C -0.538344 0.340952 -0.550391 0.388478 -0.564718 0.435353 C -0.578719 0.482554 -0.595325 0.528778 -0.61421 0.574025 C -0.633096 0.619272 -0.653934 0.663869 -0.677052 0.707163 C -0.70017 0.750457 -0.725568 0.792449 -0.752919 0.833465 C -0.779944 0.874155 -0.809249 0.913543 -0.840507 0.951629 C -0.871765 0.989715 -0.904651 1.025848 -0.939491 1.060679 C -0.974006 1.095509 -1.010473 1.128387 -1.048569 1.159637 C -1.08634 1.190561 -1.125738 1.219858 -1.166765 1.247202 C -1.207465 1.274546 -1.249469 1.299611 -1.292774 1.322723 C -1.33608 1.34616 -1.380688 1.366994 -1.425947 1.385874 C -1.471207 1.404754 -1.517443 1.42103 -1.564656 1.435353 C -1.611543 1.449676 -1.659082 1.46172 -1.707271 1.47116 C -1.755461 1.4806 -1.803976 1.488087 -1.852817 1.492645 C -1.901984 1.497528 -1.950825 1.500132 -1.999992 1.500132 C -2.049158 1.500132 -2.097999 1.497528 -2.147166 1.492645 C -2.196007 1.488087 -2.244522 1.4806 -2.292712 1.47116 C -2.340902 1.46172 -2.38844 1.449676 -2.435327 1.435353 C -2.48254 1.42103 -2.528776 1.404754 -2.574036 1.385874 C -2.619295 1.366994 -2.663903 1.34616 -2.707209 1.322723 C -2.750514 1.299611 -2.792518 1.274546 -2.833219 1.247202 C -2.874245 1.219858 -2.913643 1.190561 -2.951739 1.159637 C -2.98951 1.128387 -3.025978 1.095509 -3.060817 1.060679 C -3.095332 1.025848 -3.128218 0.989715 -3.159476 0.951629 C -3.190734 0.913543 -3.220039 0.874155 -3.247064 0.833465 C -3.274415 0.792449 -3.299813 0.750457 -3.322931 0.707163 C -3.346049 0.663869 -3.366888 0.619272 -3.385773 0.574025 C -3.404658 0.528778 -3.421264 0.482554 -3.435265 0.435353 C -3.449592 0.388478 -3.461639 0.340952 -3.471082 0.292775 C -3.48085 0.244598 -3.488013 0.19577 -3.492897 0.146942 C -3.497456 0.0981134 -3.500061 0.0492853 -3.500061 0.000131644 C -3.500061 -0.049022 -3.497456 -0.0981757 -3.492897 -0.147004 C -3.488013 -0.195832 -3.48085 -0.244335 -3.471082 -0.292512 C -3.461639 -0.340689 -3.449592 -0.38854 -3.435265 -0.435415 C -3.421264 -0.48229 -3.404658 -0.528514 -3.385773 -0.574087 C -3.366888 -0.619335 -3.346049 -0.663931 -3.322931 -0.707225 C -3.299813 -0.750519 -3.274415 -0.792512 -3.247064 -0.833202 C -3.220039 -0.874217 -3.190734 -0.913605 -3.159476 -0.951691 C -3.128218 -0.989452 -3.095332 -1.02591 -3.060817 -1.060741 C -3.025978 -1.095246 -2.98951 -1.128449 -2.951739 -1.159374 C -2.913643 -1.190624 -2.874245 -1.219921 -2.833219 -1.247264 C -2.792518 -1.274608 -2.750514 -1.299673 -2.707209 -1.322785 C -2.663903 -1.345897 -2.619295 -1.367056 -2.574036 -1.385936 C -2.528776 -1.404491 -2.48254 -1.421092 -2.435327 -1.435415 C -2.38844 -1.449738 -2.340902 -1.461457 -2.292712 -1.471223 C -2.244522 -1.480663 -2.196007 -1.487824 -2.147166 -1.492707 C -2.097999 -1.49759 -2.049158 -1.499868 -1.999992 -1.499868 C -1.950825 -1.499868 -1.901984 -1.49759 -1.852817 -1.492707 C -1.803976 -1.487824 -1.755461 -1.480663 -1.707271 -1.471223 C -1.659082 -1.461457 -1.611543 -1.449738 -1.564656 -1.435415 C -1.517443 -1.421092 -1.471207 -1.404491 -1.425947 -1.385936 C -1.380688 -1.367056 -1.33608 -1.345897 -1.292774 -1.322785 C -1.249469 -1.299673 -1.207465 -1.274608 -1.166765 -1.247264 C -1.125738 -1.219921 -1.08634 -1.190624 -1.048569 -1.159374 C -1.010473 -1.128449 -0.974006 -1.095246 -0.939491 -1.060741 C -0.904651 -1.02591 -0.871765 -0.989452 -0.840507 -0.951691 C -0.809249 -0.913605 -0.779944 -0.874217 -0.752919 -0.833202 C -0.725568 -0.792512 -0.70017 -0.750519 -0.677052 -0.707225 C -0.653934 -0.663931 -0.633096 -0.619335 -0.61421 -0.574087 C -0.595325 -0.528514 -0.578719 -0.48229 -0.564718 -0.435415 C -0.550391 -0.38854 -0.538344 -0.340689 -0.528901 -0.292512 C -0.519133 -0.244335 -0.51197 -0.195832 -0.507086 -0.147004 C -0.502527 -0.0981757 -0.499922 -0.049022 -0.499922 0.000131644 Z M -0.499922 0.000131644 " stroke="#ffffff" stroke-width="1" stroke-opacity="1" stroke-miterlimit="4"/><path stroke-linecap="butt" transform="matrix(0.0195461, 0.74764, -0.749744, 0.0196011, 171.106692, 3572.118395)" fill="none" stroke-linejoin="miter" d="M -0.00165702 0.00158882 L 161.459639 0.00118081 " stroke="#ffffff" stroke-width="15" stroke-opacity="1" stroke-miterlimit="4"/><g fill="#ffffff" fill-opacity="1"><g transform="translate(200.105674, 5032.598206)"><g><path d="M 6.28125 -33.46875 C 6.363281 -33.46875 6.46875 -33.46875 6.59375 -33.46875 C 6.757812 -33.46875 6.925781 -33.488281 7.09375 -33.53125 C 7.644531 -33.613281 8.289062 -33.757812 9.03125 -33.96875 C 9.769531 -34.1875 10.519531 -34.429688 11.28125 -34.703125 C 12.039062 -34.984375 12.769531 -35.269531 13.46875 -35.5625 C 14.164062 -35.851562 14.789062 -36.128906 15.34375 -36.390625 L 15.34375 -1.015625 L 11.921875 -1.015625 L 11.921875 0 L 28.265625 0 L 28.265625 -1.015625 L 24.84375 -1.015625 L 24.84375 -42.59375 L 19.53125 -42.59375 C 17.832031 -41.113281 15.894531 -39.613281 13.71875 -38.09375 C 11.539062 -36.570312 9.1875 -35.367188 6.65625 -34.484375 C 5.976562 -34.234375 5.640625 -33.976562 5.640625 -33.71875 C 5.640625 -33.550781 5.851562 -33.46875 6.28125 -33.46875 Z M 6.28125 -33.46875 "/></g></g></g><g fill="#ffffff" fill-opacity="1"><g transform="translate(238.201108, 5032.598206)"><g><path d="M 10.453125 -37.28125 C 10.078125 -37.28125 9.75 -37.234375 9.46875 -37.140625 C 9.195312 -37.054688 8.894531 -36.972656 8.5625 -36.890625 C 8.601562 -37.316406 8.84375 -37.8125 9.28125 -38.375 C 9.726562 -38.945312 10.300781 -39.488281 11 -40 C 11.695312 -40.507812 12.53125 -40.929688 13.5 -41.265625 C 14.46875 -41.609375 15.523438 -41.78125 16.671875 -41.78125 C 17.898438 -41.78125 18.914062 -41.609375 19.71875 -41.265625 C 20.519531 -40.929688 21.148438 -40.328125 21.609375 -39.453125 C 22.078125 -38.585938 22.40625 -37.394531 22.59375 -35.875 C 22.789062 -34.351562 22.890625 -32.429688 22.890625 -30.109375 C 22.890625 -27.109375 22.65625 -24.675781 22.1875 -22.8125 C 21.71875 -20.957031 20.832031 -19.3125 19.53125 -17.875 C 19.0625 -17.363281 18.53125 -16.78125 17.9375 -16.125 C 17.34375 -15.476562 16.75 -14.835938 16.15625 -14.203125 C 15.570312 -13.566406 15.015625 -12.984375 14.484375 -12.453125 C 13.953125 -11.921875 13.539062 -11.53125 13.25 -11.28125 C 11.007812 -9.289062 9.367188 -7.378906 8.328125 -5.546875 C 7.296875 -3.710938 6.632812 -2.328125 6.34375 -1.390625 L 6.34375 0 L 30.625 0 L 33.46875 -11.734375 C 33.550781 -12.023438 33.613281 -12.265625 33.65625 -12.453125 C 33.695312 -12.640625 33.71875 -12.820312 33.71875 -13 C 33.71875 -13.332031 33.550781 -13.5 33.21875 -13.5 C 32.914062 -13.5 32.660156 -13.179688 32.453125 -12.546875 C 32.203125 -11.785156 31.914062 -11.085938 31.59375 -10.453125 C 31.28125 -9.828125 30.878906 -9.289062 30.390625 -8.84375 C 29.910156 -8.394531 29.3125 -8.046875 28.59375 -7.796875 C 27.875 -7.546875 26.960938 -7.421875 25.859375 -7.421875 L 11.859375 -7.421875 C 12.535156 -8.097656 13.21875 -8.675781 13.90625 -9.15625 C 14.601562 -9.644531 15.375 -10.109375 16.21875 -10.546875 C 17.070312 -10.992188 17.992188 -11.4375 18.984375 -11.875 C 19.972656 -12.320312 21.101562 -12.84375 22.375 -13.4375 C 25.632812 -14.914062 28.171875 -17.050781 29.984375 -19.84375 C 31.796875 -22.632812 32.703125 -25.78125 32.703125 -29.28125 C 32.703125 -31.988281 32.269531 -34.226562 31.40625 -36 C 30.539062 -37.78125 29.410156 -39.207031 28.015625 -40.28125 C 26.617188 -41.363281 25.054688 -42.125 23.328125 -42.5625 C 21.597656 -43.007812 19.863281 -43.234375 18.125 -43.234375 C 16.101562 -43.234375 14.285156 -42.925781 12.671875 -42.3125 C 11.066406 -41.695312 9.703125 -40.90625 8.578125 -39.9375 C 7.460938 -38.96875 6.617188 -37.867188 6.046875 -36.640625 C 5.484375 -35.410156 5.203125 -34.1875 5.203125 -32.96875 C 5.203125 -31.0625 5.664062 -29.585938 6.59375 -28.546875 C 7.519531 -27.515625 8.742188 -27 10.265625 -27 C 11.828125 -27 13.113281 -27.460938 14.125 -28.390625 C 15.144531 -29.328125 15.65625 -30.597656 15.65625 -32.203125 C 15.65625 -33.972656 15.179688 -35.257812 14.234375 -36.0625 C 13.285156 -36.875 12.023438 -37.28125 10.453125 -37.28125 Z M 10.453125 -37.28125 "/></g></g></g><g fill="#ffffff" fill-opacity="1"><g transform="translate(276.296542, 5032.598206)"><g><path d="M 1.71875 -21.421875 C 1.71875 -18.679688 2.070312 -15.988281 2.78125 -13.34375 C 3.5 -10.695312 4.566406 -8.347656 5.984375 -6.296875 C 7.398438 -4.253906 9.175781 -2.597656 11.3125 -1.328125 C 13.445312 -0.0546875 15.953125 0.578125 18.828125 0.578125 C 21.660156 0.578125 24.15625 -0.0546875 26.3125 -1.328125 C 28.46875 -2.597656 30.25 -4.253906 31.65625 -6.296875 C 33.070312 -8.347656 34.140625 -10.695312 34.859375 -13.34375 C 35.578125 -15.988281 35.9375 -18.679688 35.9375 -21.421875 C 35.9375 -24.171875 35.578125 -26.851562 34.859375 -29.46875 C 34.140625 -32.09375 33.070312 -34.429688 31.65625 -36.484375 C 30.25 -38.535156 28.46875 -40.179688 26.3125 -41.421875 C 24.15625 -42.671875 21.660156 -43.296875 18.828125 -43.296875 C 15.953125 -43.296875 13.445312 -42.671875 11.3125 -41.421875 C 9.175781 -40.179688 7.398438 -38.535156 5.984375 -36.484375 C 4.566406 -34.429688 3.5 -32.09375 2.78125 -29.46875 C 2.070312 -26.851562 1.71875 -24.171875 1.71875 -21.421875 Z M 23.96875 -31.5625 L 23.96875 -11.15625 C 23.96875 -9.164062 23.867188 -7.492188 23.671875 -6.140625 C 23.484375 -4.796875 23.175781 -3.707031 22.75 -2.875 C 22.332031 -2.050781 21.796875 -1.460938 21.140625 -1.109375 C 20.484375 -0.753906 19.710938 -0.578125 18.828125 -0.578125 C 17.941406 -0.578125 17.171875 -0.753906 16.515625 -1.109375 C 15.859375 -1.460938 15.316406 -2.050781 14.890625 -2.875 C 14.472656 -3.707031 14.164062 -4.796875 13.96875 -6.140625 C 13.78125 -7.492188 13.6875 -9.164062 13.6875 -11.15625 L 13.6875 -31.5625 C 13.6875 -33.550781 13.78125 -35.222656 13.96875 -36.578125 C 14.164062 -37.929688 14.472656 -39.019531 14.890625 -39.84375 C 15.316406 -40.664062 15.859375 -41.253906 16.515625 -41.609375 C 17.171875 -41.972656 17.941406 -42.15625 18.828125 -42.15625 C 19.710938 -42.15625 20.484375 -41.972656 21.140625 -41.609375 C 21.796875 -41.253906 22.332031 -40.664062 22.75 -39.84375 C 23.175781 -39.019531 23.484375 -37.929688 23.671875 -36.578125 C 23.867188 -35.222656 23.96875 -33.550781 23.96875 -31.5625 Z M 23.96875 -31.5625 "/></g></g></g><g fill="#ffffff" fill-opacity="1"><g transform="translate(314.391976, 5032.598206)"><g><path d="M 14.453125 -23.328125 L 14.453125 -28.71875 L 1.578125 -26.5625 L 1.578125 -25.484375 L 4.9375 -26.046875 L 4.9375 -1.015625 L 1.578125 -1.015625 L 1.578125 0 L 17.171875 0 L 17.171875 -1.015625 L 14.453125 -1.015625 L 14.453125 -18.703125 C 14.453125 -19.460938 14.585938 -20.285156 14.859375 -21.171875 C 15.140625 -22.054688 15.53125 -22.878906 16.03125 -23.640625 C 16.539062 -24.398438 17.132812 -25.023438 17.8125 -25.515625 C 18.488281 -26.003906 19.226562 -26.25 20.03125 -26.25 C 20.957031 -26.25 21.628906 -25.78125 22.046875 -24.84375 C 22.472656 -23.914062 22.6875 -22.144531 22.6875 -19.53125 L 22.6875 -1.015625 L 19.96875 -1.015625 L 19.96875 0 L 34.921875 0 L 34.921875 -1.015625 L 32.203125 -1.015625 L 32.203125 -18.640625 C 32.203125 -19.523438 32.367188 -20.429688 32.703125 -21.359375 C 33.046875 -22.285156 33.476562 -23.109375 34 -23.828125 C 34.53125 -24.546875 35.125 -25.140625 35.78125 -25.609375 C 36.4375 -26.078125 37.082031 -26.3125 37.71875 -26.3125 C 38.851562 -26.3125 39.585938 -25.738281 39.921875 -24.59375 C 40.265625 -23.457031 40.4375 -21.660156 40.4375 -19.203125 L 40.4375 -1.015625 L 37.71875 -1.015625 L 37.71875 0 L 52.671875 0 L 52.671875 -1.015625 L 49.953125 -1.015625 L 49.953125 -18.578125 C 49.953125 -21.535156 49.101562 -23.835938 47.40625 -25.484375 C 45.71875 -27.128906 43.269531 -27.953125 40.0625 -27.953125 C 38.789062 -27.953125 37.710938 -27.789062 36.828125 -27.46875 C 35.941406 -27.15625 35.191406 -26.753906 34.578125 -26.265625 C 33.960938 -25.785156 33.460938 -25.257812 33.078125 -24.6875 C 32.703125 -24.113281 32.367188 -23.597656 32.078125 -23.140625 C 31.359375 -24.742188 30.269531 -25.9375 28.8125 -26.71875 C 27.351562 -27.5 25.25 -27.890625 22.5 -27.890625 C 21.363281 -27.890625 20.367188 -27.757812 19.515625 -27.5 C 18.671875 -27.25 17.941406 -26.921875 17.328125 -26.515625 C 16.722656 -26.117188 16.1875 -25.644531 15.71875 -25.09375 C 15.257812 -24.550781 14.835938 -23.960938 14.453125 -23.328125 Z M 14.453125 -23.328125 "/></g></g></g><path stroke-linecap="butt" transform="matrix(0.000000000000000046, 0.75, -0.75, 0.000000000000000046, 172.31724, 4863.919976)" fill="none" stroke-linejoin="miter" d="M 0.00253239 0.00111203 L 288.002549 0.00111203 " stroke="#ffffff" stroke-width="15" stroke-opacity="1" stroke-miterlimit="4"/><path stroke-linecap="butt" transform="matrix(-0.00113215, 0.750228, -0.749999, -0.00113181, 172.314953, 4971.922369)" fill="none" stroke-linejoin="miter" d="M -0.000661909 -0.00193657 L 1525.519514 0.00252708 " stroke="#ffffff" stroke-width="16" stroke-opacity="1" stroke-miterlimit="4"/><path stroke-linecap="butt" transform="matrix(0.0195461, 0.74764, -0.749744, 0.0196011, 171.937186, 4782.1287)" fill="none" stroke-linejoin="miter" d="M 0.000286008 -0.000411491 L 161.461582 -0.000819498 " stroke="#ffffff" stroke-width="15" stroke-opacity="1" stroke-miterlimit="4"/></svg>