<svg xmlns="http://www.w3.org/2000/svg" xmlns:xlink="http://www.w3.org/1999/xlink" width="500" zoomAndPan="magnify" viewBox="0 0 375 5999.999899" height="8000" preserveAspectRatio="xMidYMid meet" version="1.0"><defs><g/></defs><path stroke-linecap="butt" transform="matrix(0.000000000000000046, 0.750014, -0.75, 0.000000000000000046, 184.598738, 0.00298391)" fill="none" stroke-linejoin="miter" d="M 0.00122976 0.00144228 L 1666.97629 0.00144228 " stroke="#ffffff" stroke-width="16" stroke-opacity="1" stroke-miterlimit="4"/><path stroke-linecap="butt" transform="matrix(0.000000000000000735, 12.000217, -11.999999, 0.000000000000000735, 184.598738, 1295.258688)" fill-opacity="1" fill="#ffffff" fill-rule="nonzero" stroke-linejoin="miter" d="M -0.500064 0.0000901423 C -0.500064 0.0492438 -0.502343 0.0980719 -0.507225 0.1469 C -0.512108 0.196054 -0.519269 0.244556 -0.528709 0.292733 C -0.538475 0.34091 -0.550193 0.388437 -0.564516 0.435312 C -0.578839 0.482512 -0.59544 0.528736 -0.61432 0.573983 C -0.632874 0.619556 -0.654032 0.663827 -0.677144 0.707121 C -0.700256 0.750416 -0.725646 0.792408 -0.752664 0.833424 C -0.780007 0.874114 -0.809303 0.913502 -0.840553 0.951588 C -0.871802 0.989674 -0.904679 1.025806 -0.939184 1.060637 C -0.974014 1.095468 -1.010471 1.128345 -1.048557 1.159595 C -1.086316 1.19052 -1.125704 1.219817 -1.166719 1.247161 C -1.207408 1.274504 -1.249725 1.299569 -1.293018 1.323007 C -1.336312 1.346119 -1.380582 1.366952 -1.425828 1.385832 C -1.471401 1.404713 -1.517624 1.420989 -1.564498 1.435312 C -1.611697 1.449634 -1.659223 1.461679 -1.707399 1.471119 C -1.755575 1.480884 -1.804077 1.488046 -1.852904 1.492929 C -1.901731 1.497486 -1.950884 1.50009 -2.000037 1.50009 C -2.04919 1.50009 -2.098017 1.497486 -2.14717 1.492929 C -2.195997 1.488046 -2.244498 1.480884 -2.292675 1.471119 C -2.340851 1.461679 -2.388376 1.449634 -2.435576 1.435312 C -2.48245 1.420989 -2.528673 1.404713 -2.57392 1.385832 C -2.619492 1.366952 -2.663762 1.346119 -2.707055 1.323007 C -2.750349 1.299569 -2.792666 1.274504 -2.833355 1.247161 C -2.874044 1.219817 -2.913757 1.19052 -2.951517 1.159595 C -2.989602 1.128345 -3.02606 1.095468 -3.060564 1.060637 C -3.095395 1.025806 -3.128272 0.989674 -3.159521 0.951588 C -3.19077 0.913502 -3.220067 0.874114 -3.247085 0.833424 C -3.274428 0.792408 -3.299818 0.750416 -3.322929 0.707121 C -3.346041 0.663827 -3.366874 0.619556 -3.385754 0.573983 C -3.404634 0.528736 -3.421235 0.482512 -3.435558 0.435312 C -3.449555 0.388437 -3.461599 0.34091 -3.471039 0.292733 C -3.480804 0.244556 -3.487966 0.196054 -3.492848 0.1469 C -3.497731 0.0980719 -3.50001 0.0492438 -3.50001 0.0000901423 C -3.50001 -0.0490635 -3.497731 -0.0982172 -3.492848 -0.147045 C -3.487966 -0.195873 -3.480804 -0.244376 -3.471039 -0.292553 C -3.461599 -0.34073 -3.449555 -0.388256 -3.435558 -0.435457 C -3.421235 -0.482332 -3.404634 -0.528556 -3.385754 -0.574129 C -3.366874 -0.619376 -3.346041 -0.663647 -3.322929 -0.706941 C -3.299818 -0.750561 -3.274428 -0.792553 -3.247085 -0.833243 C -3.220067 -0.874259 -3.19077 -0.913647 -3.159521 -0.951733 C -3.128272 -0.989493 -3.095395 -1.025952 -3.060564 -1.060782 C -3.02606 -1.095288 -2.989602 -1.128491 -2.951517 -1.159415 C -2.913757 -1.190665 -2.874044 -1.219962 -2.833355 -1.247306 C -2.792666 -1.27465 -2.750349 -1.299715 -2.707055 -1.322827 C -2.663762 -1.345939 -2.619492 -1.367097 -2.57392 -1.385978 C -2.528673 -1.404532 -2.48245 -1.421134 -2.435576 -1.435457 C -2.388376 -1.44978 -2.340851 -1.461498 -2.292675 -1.471264 C -2.244498 -1.480704 -2.195997 -1.487866 -2.14717 -1.492748 C -2.098017 -1.497631 -2.04919 -1.49991 -2.000037 -1.49991 C -1.950884 -1.49991 -1.901731 -1.497631 -1.852904 -1.492748 C -1.804077 -1.487866 -1.755575 -1.480704 -1.707399 -1.471264 C -1.659223 -1.461498 -1.611697 -1.44978 -1.564498 -1.435457 C -1.517624 -1.421134 -1.471401 -1.404532 -1.425828 -1.385978 C -1.380582 -1.367097 -1.336312 -1.345939 -1.293018 -1.322827 C -1.249725 -1.299715 -1.207408 -1.27465 -1.166719 -1.247306 C -1.125704 -1.219962 -1.086316 -1.190665 -1.048557 -1.159415 C -1.010471 -1.128491 -0.974014 -1.095288 -0.939184 -1.060782 C -0.904679 -1.025952 -0.871802 -0.989493 -0.840553 -0.951733 C -0.809303 -0.913647 -0.780007 -0.874259 -0.752664 -0.833243 C -0.725646 -0.792553 -0.700256 -0.750561 -0.677144 -0.706941 C -0.654032 -0.663647 -0.632874 -0.619376 -0.61432 -0.574129 C -0.59544 -0.528556 -0.578839 -0.482332 -0.564516 -0.435457 C -0.550193 -0.388256 -0.538475 -0.34073 -0.528709 -0.292553 C -0.519269 -0.244376 -0.512108 -0.195873 -0.507225 -0.147045 C -0.502343 -0.0982172 -0.500064 -0.0490635 -0.500064 0.0000901423 Z M -0.500064 0.0000901423 " stroke="#ffffff" stroke-width="1" stroke-opacity="1" stroke-miterlimit="4"/><g fill="#ffffff" fill-opacity="1"><g transform="translate(224.307984, 1297.560024)"><g><path d="M 14.453125 -17.875 C 14.453125 -18.550781 14.484375 -19.289062 14.546875 -20.09375 C 14.609375 -20.894531 14.703125 -21.53125 14.828125 -22 C 15.128906 -22.84375 15.640625 -23.644531 16.359375 -24.40625 C 17.078125 -25.164062 17.960938 -25.546875 19.015625 -25.546875 C 20.078125 -25.546875 20.890625 -25.351562 21.453125 -24.96875 C 22.023438 -24.59375 22.445312 -24.054688 22.71875 -23.359375 C 23 -22.660156 23.160156 -21.847656 23.203125 -20.921875 C 23.242188 -19.992188 23.265625 -18.976562 23.265625 -17.875 L 23.265625 -10.265625 C 23.265625 -8.910156 23.242188 -7.640625 23.203125 -6.453125 C 23.160156 -5.273438 23 -4.242188 22.71875 -3.359375 C 22.445312 -2.472656 22.015625 -1.773438 21.421875 -1.265625 C 20.828125 -0.753906 19.984375 -0.5 18.890625 -0.5 C 17.796875 -0.5 16.941406 -0.773438 16.328125 -1.328125 C 15.710938 -1.878906 15.265625 -2.597656 14.984375 -3.484375 C 14.710938 -4.367188 14.554688 -5.390625 14.515625 -6.546875 C 14.472656 -7.710938 14.453125 -8.929688 14.453125 -10.203125 Z M 32.515625 -36.203125 C 32.515625 -38.222656 31.59375 -39.921875 29.75 -41.296875 C 27.914062 -42.671875 25.414062 -43.359375 22.25 -43.359375 C 20.21875 -43.359375 18.0625 -42.828125 15.78125 -41.765625 C 13.5 -40.710938 11.382812 -39.179688 9.4375 -37.171875 C 7.5 -35.171875 5.882812 -32.710938 4.59375 -29.796875 C 3.300781 -26.878906 2.65625 -23.539062 2.65625 -19.78125 C 2.65625 -16.945312 3.046875 -14.289062 3.828125 -11.8125 C 4.617188 -9.34375 5.71875 -7.1875 7.125 -5.34375 C 8.539062 -3.507812 10.242188 -2.050781 12.234375 -0.96875 C 14.222656 0.101562 16.441406 0.640625 18.890625 0.640625 C 21.128906 0.640625 23.21875 0.28125 25.15625 -0.4375 C 27.101562 -1.15625 28.785156 -2.148438 30.203125 -3.421875 C 31.617188 -4.691406 32.738281 -6.203125 33.5625 -7.953125 C 34.382812 -9.710938 34.796875 -11.644531 34.796875 -13.75 C 34.796875 -15.945312 34.425781 -17.878906 33.6875 -19.546875 C 32.945312 -21.222656 31.929688 -22.597656 30.640625 -23.671875 C 29.359375 -24.753906 27.847656 -25.566406 26.109375 -26.109375 C 24.378906 -26.660156 22.546875 -26.9375 20.609375 -26.9375 C 18.867188 -26.9375 17.566406 -26.671875 16.703125 -26.140625 C 15.835938 -25.617188 15.085938 -24.976562 14.453125 -24.21875 L 14.453125 -30.484375 C 14.453125 -32.722656 14.671875 -34.59375 15.109375 -36.09375 C 15.554688 -37.59375 16.148438 -38.796875 16.890625 -39.703125 C 17.628906 -40.617188 18.484375 -41.265625 19.453125 -41.640625 C 20.429688 -42.023438 21.445312 -42.21875 22.5 -42.21875 C 23.851562 -42.21875 25.015625 -42.015625 25.984375 -41.609375 C 26.960938 -41.210938 27.453125 -40.84375 27.453125 -40.5 C 27.453125 -40.332031 27.175781 -40.25 26.625 -40.25 C 25.394531 -40.25 24.441406 -39.765625 23.765625 -38.796875 C 23.085938 -37.828125 22.75 -36.789062 22.75 -35.6875 C 22.75 -34.289062 23.210938 -33.140625 24.140625 -32.234375 C 25.078125 -31.328125 26.285156 -30.875 27.765625 -30.875 C 29.285156 -30.875 30.457031 -31.410156 31.28125 -32.484375 C 32.101562 -33.566406 32.515625 -34.804688 32.515625 -36.203125 Z M 32.515625 -36.203125 "/></g></g></g><g fill="#ffffff" fill-opacity="1"><g transform="translate(262.403418, 1297.560024)"><g><path d="M 1.71875 -21.421875 C 1.71875 -18.679688 2.070312 -15.988281 2.78125 -13.34375 C 3.5 -10.695312 4.566406 -8.347656 5.984375 -6.296875 C 7.398438 -4.253906 9.175781 -2.597656 11.3125 -1.328125 C 13.445312 -0.0546875 15.953125 0.578125 18.828125 0.578125 C 21.660156 0.578125 24.15625 -0.0546875 26.3125 -1.328125 C 28.46875 -2.597656 30.25 -4.253906 31.65625 -6.296875 C 33.070312 -8.347656 34.140625 -10.695312 34.859375 -13.34375 C 35.578125 -15.988281 35.9375 -18.679688 35.9375 -21.421875 C 35.9375 -24.171875 35.578125 -26.851562 34.859375 -29.46875 C 34.140625 -32.09375 33.070312 -34.429688 31.65625 -36.484375 C 30.25 -38.535156 28.46875 -40.179688 26.3125 -41.421875 C 24.15625 -42.671875 21.660156 -43.296875 18.828125 -43.296875 C 15.953125 -43.296875 13.445312 -42.671875 11.3125 -41.421875 C 9.175781 -40.179688 7.398438 -38.535156 5.984375 -36.484375 C 4.566406 -34.429688 3.5 -32.09375 2.78125 -29.46875 C 2.070312 -26.851562 1.71875 -24.171875 1.71875 -21.421875 Z M 23.96875 -31.5625 L 23.96875 -11.15625 C 23.96875 -9.164062 23.867188 -7.492188 23.671875 -6.140625 C 23.484375 -4.796875 23.175781 -3.707031 22.75 -2.875 C 22.332031 -2.050781 21.796875 -1.460938 21.140625 -1.109375 C 20.484375 -0.753906 19.710938 -0.578125 18.828125 -0.578125 C 17.941406 -0.578125 17.171875 -0.753906 16.515625 -1.109375 C 15.859375 -1.460938 15.316406 -2.050781 14.890625 -2.875 C 14.472656 -3.707031 14.164062 -4.796875 13.96875 -6.140625 C 13.78125 -7.492188 13.6875 -9.164062 13.6875 -11.15625 L 13.6875 -31.5625 C 13.6875 -33.550781 13.78125 -35.222656 13.96875 -36.578125 C 14.164062 -37.929688 14.472656 -39.019531 14.890625 -39.84375 C 15.316406 -40.664062 15.859375 -41.253906 16.515625 -41.609375 C 17.171875 -41.972656 17.941406 -42.15625 18.828125 -42.15625 C 19.710938 -42.15625 20.484375 -41.972656 21.140625 -41.609375 C 21.796875 -41.253906 22.332031 -40.664062 22.75 -39.84375 C 23.175781 -39.019531 23.484375 -37.929688 23.671875 -36.578125 C 23.867188 -35.222656 23.96875 -33.550781 23.96875 -31.5625 Z M 23.96875 -31.5625 "/></g></g></g><g fill="#ffffff" fill-opacity="1"><g transform="translate(300.498852, 1297.560024)"><g><path d="M 14.453125 -23.328125 L 14.453125 -28.71875 L 1.578125 -26.5625 L 1.578125 -25.484375 L 4.9375 -26.046875 L 4.9375 -1.015625 L 1.578125 -1.015625 L 1.578125 0 L 17.171875 0 L 17.171875 -1.015625 L 14.453125 -1.015625 L 14.453125 -18.703125 C 14.453125 -19.460938 14.585938 -20.285156 14.859375 -21.171875 C 15.140625 -22.054688 15.53125 -22.878906 16.03125 -23.640625 C 16.539062 -24.398438 17.132812 -25.023438 17.8125 -25.515625 C 18.488281 -26.003906 19.226562 -26.25 20.03125 -26.25 C 20.957031 -26.25 21.628906 -25.78125 22.046875 -24.84375 C 22.472656 -23.914062 22.6875 -22.144531 22.6875 -19.53125 L 22.6875 -1.015625 L 19.96875 -1.015625 L 19.96875 0 L 34.921875 0 L 34.921875 -1.015625 L 32.203125 -1.015625 L 32.203125 -18.640625 C 32.203125 -19.523438 32.367188 -20.429688 32.703125 -21.359375 C 33.046875 -22.285156 33.476562 -23.109375 34 -23.828125 C 34.53125 -24.546875 35.125 -25.140625 35.78125 -25.609375 C 36.4375 -26.078125 37.082031 -26.3125 37.71875 -26.3125 C 38.851562 -26.3125 39.585938 -25.738281 39.921875 -24.59375 C 40.265625 -23.457031 40.4375 -21.660156 40.4375 -19.203125 L 40.4375 -1.015625 L 37.71875 -1.015625 L 37.71875 0 L 52.671875 0 L 52.671875 -1.015625 L 49.953125 -1.015625 L 49.953125 -18.578125 C 49.953125 -21.535156 49.101562 -23.835938 47.40625 -25.484375 C 45.71875 -27.128906 43.269531 -27.953125 40.0625 -27.953125 C 38.789062 -27.953125 37.710938 -27.789062 36.828125 -27.46875 C 35.941406 -27.15625 35.191406 -26.753906 34.578125 -26.265625 C 33.960938 -25.785156 33.460938 -25.257812 33.078125 -24.6875 C 32.703125 -24.113281 32.367188 -23.597656 32.078125 -23.140625 C 31.359375 -24.742188 30.269531 -25.9375 28.8125 -26.71875 C 27.351562 -27.5 25.25 -27.890625 22.5 -27.890625 C 21.363281 -27.890625 20.367188 -27.757812 19.515625 -27.5 C 18.671875 -27.25 17.941406 -26.921875 17.328125 -26.515625 C 16.722656 -26.117188 16.1875 -25.644531 15.71875 -25.09375 C 15.257812 -24.550781 14.835938 -23.960938 14.453125 -23.328125 Z M 14.453125 -23.328125 "/></g></g></g><path stroke-linecap="butt" transform="matrix(0.000000000000000046, 0.75, -0.75, 0.000000000000000046, 184.97658, 1229.23234)" fill="none" stroke-linejoin="miter" d="M -0.0024952 0.0000227133 L 287.997522 0.0000227133 " stroke="#ffffff" stroke-width="15" stroke-opacity="1" stroke-miterlimit="4"/><path stroke-linecap="butt" transform="matrix(-0.000000000000000121, 0.750014, -0.75, -0.000000000000000121, 184.598738, 1254.488931)" fill="none" stroke-linejoin="miter" d="M 59.99802 0.00144228 L 1616.974322 0.00144228 " stroke="#ffffff" stroke-width="16" stroke-opacity="1" stroke-miterlimit="4"/><path stroke-linecap="butt" transform="matrix(-0.00000000000000193, 12.000223, -11.999999, -0.00000000000000193, 184.598738, 1254.488931)" fill-opacity="1" fill="#ffffff" fill-rule="nonzero" stroke-linejoin="miter" d="M 3.499881 0.0000901423 C 3.499881 0.0492438 3.497602 0.0980719 3.49272 0.1469 C 3.487837 0.196054 3.480676 0.244556 3.471236 0.292733 C 3.46147 0.34091 3.449752 0.388437 3.435429 0.435312 C 3.421106 0.482512 3.404505 0.528736 3.385951 0.573983 C 3.367071 0.619556 3.345912 0.663827 3.322801 0.707121 C 3.299689 0.750416 3.274625 0.792408 3.247281 0.833424 C 3.219938 0.874114 3.190642 0.913502 3.159392 0.951588 C 3.128469 0.989674 3.095266 1.025806 3.060761 1.060637 C 3.025931 1.095468 2.989474 1.128345 2.951714 1.159595 C 2.913629 1.19052 2.874241 1.219817 2.833227 1.247161 C 2.792537 1.274504 2.750546 1.299569 2.707252 1.323007 C 2.663633 1.346119 2.619363 1.366952 2.574117 1.385832 C 2.528545 1.404713 2.482322 1.420989 2.435448 1.435312 C 2.388573 1.449634 2.340723 1.461679 2.292547 1.471119 C 2.24437 1.480884 2.195869 1.488046 2.147041 1.492929 C 2.098214 1.497486 2.049061 1.50009 1.999909 1.50009 C 1.950756 1.50009 1.901929 1.497486 1.853102 1.492929 C 1.803949 1.488046 1.755447 1.480884 1.707271 1.471119 C 1.659095 1.461679 1.61157 1.449634 1.564695 1.435312 C 1.517496 1.420989 1.471273 1.404713 1.426026 1.385832 C 1.380454 1.366952 1.336184 1.346119 1.292891 1.323007 C 1.249597 1.299569 1.207606 1.274504 1.166591 1.247161 C 1.125902 1.219817 1.086514 1.19052 1.048429 1.159595 C 1.010344 1.128345 0.974212 1.095468 0.939382 1.060637 C 0.904551 1.025806 0.871674 0.989674 0.840425 0.951588 C 0.809176 0.913502 0.780205 0.874114 0.752862 0.833424 C 0.725518 0.792408 0.700128 0.750416 0.677017 0.707121 C 0.653905 0.663827 0.633072 0.619556 0.614192 0.573983 C 0.595312 0.528736 0.578711 0.482512 0.564714 0.435312 C 0.550391 0.388437 0.538347 0.34091 0.528907 0.292733 C 0.519142 0.244556 0.511981 0.196054 0.507098 0.1469 C 0.502541 0.0980719 0.499937 0.0492438 0.499937 0.0000901423 C 0.499937 -0.0490635 0.502541 -0.0982172 0.507098 -0.147045 C 0.511981 -0.195873 0.519142 -0.244376 0.528907 -0.292553 C 0.538347 -0.34073 0.550391 -0.388256 0.564714 -0.435457 C 0.578711 -0.482332 0.595312 -0.528556 0.614192 -0.574129 C 0.633072 -0.619376 0.653905 -0.663647 0.677017 -0.706941 C 0.700128 -0.750561 0.725518 -0.792553 0.752862 -0.833243 C 0.780205 -0.874259 0.809176 -0.913647 0.840425 -0.951733 C 0.871674 -0.989493 0.904551 -1.025952 0.939382 -1.060782 C 0.974212 -1.095288 1.010344 -1.128491 1.048429 -1.159415 C 1.086514 -1.190665 1.125902 -1.219962 1.166591 -1.247306 C 1.207606 -1.27465 1.249597 -1.299715 1.292891 -1.322827 C 1.336184 -1.345939 1.380454 -1.367097 1.426026 -1.385978 C 1.471273 -1.404532 1.517496 -1.421134 1.564695 -1.435457 C 1.61157 -1.44978 1.659095 -1.461498 1.707271 -1.471264 C 1.755447 -1.480704 1.803949 -1.487866 1.853102 -1.492748 C 1.901929 -1.497631 1.950756 -1.49991 1.999909 -1.49991 C 2.049061 -1.49991 2.098214 -1.497631 2.147041 -1.492748 C 2.195869 -1.487866 2.24437 -1.480704 2.292547 -1.471264 C 2.340723 -1.461498 2.388573 -1.44978 2.435448 -1.435457 C 2.482322 -1.421134 2.528545 -1.404532 2.574117 -1.385978 C 2.619363 -1.367097 2.663633 -1.345939 2.707252 -1.322827 C 2.750546 -1.299715 2.792537 -1.27465 2.833227 -1.247306 C 2.874241 -1.219962 2.913629 -1.190665 2.951714 -1.159415 C 2.989474 -1.128491 3.025931 -1.095288 3.060761 -1.060782 C 3.095266 -1.025952 3.128469 -0.989493 3.159392 -0.951733 C 3.190642 -0.913647 3.219938 -0.874259 3.247281 -0.833243 C 3.274625 -0.792553 3.299689 -0.750561 3.322801 -0.706941 C 3.345912 -0.663647 3.367071 -0.619376 3.385951 -0.574129 C 3.404505 -0.528556 3.421106 -0.482332 3.435429 -0.435457 C 3.449752 -0.388256 3.46147 -0.34073 3.471236 -0.292553 C 3.480676 -0.244376 3.487837 -0.195873 3.49272 -0.147045 C 3.497602 -0.0982172 3.499881 -0.0490635 3.499881 0.0000901423 Z M 3.499881 0.0000901423 " stroke="#ffffff" stroke-width="1" stroke-opacity="1" stroke-miterlimit="4"/><path stroke-linecap="butt" transform="matrix(-0.00000000000000193, 12.000223, -11.999999, -0.00000000000000193, 184.598738, 2512.244473)" fill-opacity="1" fill="#ffffff" fill-rule="nonzero" stroke-linejoin="miter" d="M -0.499856 0.0000901423 C -0.499856 0.0492438 -0.50246 0.0980719 -0.507343 0.1469 C -0.5119 0.196054 -0.519387 0.244556 -0.528826 0.292733 C -0.538266 0.34091 -0.55031 0.388437 -0.564633 0.435312 C -0.578956 0.482512 -0.595232 0.528736 -0.614111 0.573983 C -0.632991 0.619556 -0.653824 0.663827 -0.677261 0.707121 C -0.700373 0.750416 -0.725437 0.792408 -0.752781 0.833424 C -0.780124 0.874114 -0.80942 0.913502 -0.840344 0.951588 C -0.871594 0.989674 -0.904471 1.025806 -0.939301 1.060637 C -0.974131 1.095468 -1.010588 1.128345 -1.048348 1.159595 C -1.086433 1.19052 -1.125821 1.219817 -1.16651 1.247161 C -1.207525 1.274504 -1.249516 1.299569 -1.29281 1.323007 C -1.336103 1.346119 -1.380699 1.366952 -1.425945 1.385832 C -1.471517 1.404713 -1.517415 1.420989 -1.564615 1.435312 C -1.611489 1.449634 -1.659339 1.461679 -1.707516 1.471119 C -1.755692 1.480884 -1.804193 1.488046 -1.853021 1.492929 C -1.901848 1.497486 -1.951001 1.50009 -2.000153 1.50009 C -2.048981 1.50009 -2.098133 1.497486 -2.146961 1.492929 C -2.195788 1.488046 -2.244615 1.480884 -2.292791 1.471119 C -2.340967 1.461679 -2.388492 1.449634 -2.435367 1.435312 C -2.482566 1.420989 -2.528789 1.404713 -2.574036 1.385832 C -2.619282 1.366952 -2.663878 1.346119 -2.707171 1.323007 C -2.750465 1.299569 -2.792456 1.274504 -2.833471 1.247161 C -2.874161 1.219817 -2.913548 1.19052 -2.951633 1.159595 C -2.989718 1.128345 -3.02585 1.095468 -3.060681 1.060637 C -3.095511 1.025806 -3.128388 0.989674 -3.159637 0.951588 C -3.190561 0.913502 -3.219857 0.874114 -3.247201 0.833424 C -3.274544 0.792408 -3.299608 0.750416 -3.32272 0.707121 C -3.346157 0.663827 -3.36699 0.619556 -3.38587 0.573983 C -3.40475 0.528736 -3.421025 0.482512 -3.435348 0.435312 C -3.449671 0.388437 -3.461715 0.34091 -3.471155 0.292733 C -3.48092 0.244556 -3.488081 0.196054 -3.492639 0.1469 C -3.497521 0.0980719 -3.500126 0.0492438 -3.500126 0.0000901423 C -3.500126 -0.0490635 -3.497521 -0.0982172 -3.492639 -0.147045 C -3.488081 -0.195873 -3.48092 -0.244376 -3.471155 -0.292553 C -3.461715 -0.34073 -3.449671 -0.388256 -3.435348 -0.435457 C -3.421025 -0.482332 -3.40475 -0.528556 -3.38587 -0.574129 C -3.36699 -0.619376 -3.346157 -0.663647 -3.32272 -0.706941 C -3.299608 -0.750561 -3.274544 -0.792553 -3.247201 -0.833243 C -3.219857 -0.874259 -3.190561 -0.913647 -3.159637 -0.951733 C -3.128388 -0.989493 -3.095511 -1.025952 -3.060681 -1.060782 C -3.02585 -1.095288 -2.989718 -1.128491 -2.951633 -1.159415 C -2.913548 -1.190665 -2.874161 -1.219962 -2.833471 -1.247306 C -2.792456 -1.27465 -2.750465 -1.299715 -2.707171 -1.322827 C -2.663878 -1.345939 -2.619282 -1.367097 -2.574036 -1.385978 C -2.528789 -1.404532 -2.482566 -1.421134 -2.435367 -1.435457 C -2.388492 -1.44978 -2.340967 -1.461498 -2.292791 -1.471264 C -2.244615 -1.480704 -2.195788 -1.487866 -2.146961 -1.492748 C -2.098133 -1.497631 -2.048981 -1.49991 -2.000153 -1.49991 C -1.951001 -1.49991 -1.901848 -1.497631 -1.853021 -1.492748 C -1.804193 -1.487866 -1.755692 -1.480704 -1.707516 -1.471264 C -1.659339 -1.461498 -1.611489 -1.44978 -1.564615 -1.435457 C -1.517415 -1.421134 -1.471517 -1.404532 -1.425945 -1.385978 C -1.380699 -1.367097 -1.336103 -1.345939 -1.29281 -1.322827 C -1.249516 -1.299715 -1.207525 -1.27465 -1.16651 -1.247306 C -1.125821 -1.219962 -1.086433 -1.190665 -1.048348 -1.159415 C -1.010588 -1.128491 -0.974131 -1.095288 -0.939301 -1.060782 C -0.904471 -1.025952 -0.871594 -0.989493 -0.840344 -0.951733 C -0.80942 -0.913647 -0.780124 -0.874259 -0.752781 -0.833243 C -0.725437 -0.792553 -0.700373 -0.750561 -0.677261 -0.706941 C -0.653824 -0.663647 -0.632991 -0.619376 -0.614111 -0.574129 C -0.595232 -0.528556 -0.578956 -0.482332 -0.564633 -0.435457 C -0.55031 -0.388256 -0.538266 -0.34073 -0.528826 -0.292553 C -0.519387 -0.244376 -0.5119 -0.195873 -0.507343 -0.147045 C -0.50246 -0.0982172 -0.499856 -0.0490635 -0.499856 0.0000901423 Z M -0.499856 0.0000901423 " stroke="#ffffff" stroke-width="1" stroke-opacity="1" stroke-miterlimit="4"/><g fill="#ffffff" fill-opacity="1"><g transform="translate(224.307984, 2510.046049)"><g><path d="M 20.609375 -23.203125 C 21.910156 -23.328125 23.207031 -23.617188 24.5 -24.078125 C 25.789062 -24.546875 26.941406 -25.171875 27.953125 -25.953125 C 28.972656 -26.734375 29.796875 -27.671875 30.421875 -28.765625 C 31.054688 -29.867188 31.375 -31.140625 31.375 -32.578125 C 31.375 -34.015625 31.046875 -35.367188 30.390625 -36.640625 C 29.734375 -37.910156 28.832031 -39.007812 27.6875 -39.9375 C 26.550781 -40.863281 25.203125 -41.59375 23.640625 -42.125 C 22.078125 -42.65625 20.390625 -42.921875 18.578125 -42.921875 C 16.753906 -42.921875 15.0625 -42.65625 13.5 -42.125 C 11.9375 -41.59375 10.582031 -40.863281 9.4375 -39.9375 C 8.300781 -39.007812 7.40625 -37.910156 6.75 -36.640625 C 6.09375 -35.367188 5.765625 -34.015625 5.765625 -32.578125 C 5.765625 -31.140625 6.082031 -29.867188 6.71875 -28.765625 C 7.351562 -27.671875 8.175781 -26.734375 9.1875 -25.953125 C 10.207031 -25.171875 11.359375 -24.546875 12.640625 -24.078125 C 13.929688 -23.617188 15.234375 -23.328125 16.546875 -23.203125 C 16.878906 -23.203125 17.046875 -23.160156 17.046875 -23.078125 C 17.046875 -22.992188 16.878906 -22.953125 16.546875 -22.953125 C 14.941406 -22.734375 13.429688 -22.316406 12.015625 -21.703125 C 10.597656 -21.097656 9.367188 -20.304688 8.328125 -19.328125 C 7.296875 -18.359375 6.472656 -17.21875 5.859375 -15.90625 C 5.242188 -14.601562 4.9375 -13.125 4.9375 -11.46875 C 4.9375 -9.863281 5.203125 -8.332031 5.734375 -6.875 C 6.265625 -5.414062 7.085938 -4.132812 8.203125 -3.03125 C 9.328125 -1.9375 10.742188 -1.050781 12.453125 -0.375 C 14.171875 0.300781 16.210938 0.640625 18.578125 0.640625 C 20.941406 0.640625 22.976562 0.300781 24.6875 -0.375 C 26.40625 -1.050781 27.820312 -1.9375 28.9375 -3.03125 C 30.0625 -4.132812 30.882812 -5.414062 31.40625 -6.875 C 31.9375 -8.332031 32.203125 -9.863281 32.203125 -11.46875 C 32.203125 -13.125 31.894531 -14.601562 31.28125 -15.90625 C 30.664062 -17.21875 29.84375 -18.359375 28.8125 -19.328125 C 27.78125 -20.304688 26.554688 -21.097656 25.140625 -21.703125 C 23.722656 -22.316406 22.210938 -22.734375 20.609375 -22.953125 C 20.304688 -22.992188 20.15625 -23.035156 20.15625 -23.078125 C 20.15625 -23.078125 20.1875 -23.097656 20.25 -23.140625 C 20.3125 -23.179688 20.429688 -23.203125 20.609375 -23.203125 Z M 15.09375 -35.8125 C 15.09375 -36.488281 15.132812 -37.195312 15.21875 -37.9375 C 15.300781 -38.675781 15.46875 -39.332031 15.71875 -39.90625 C 15.96875 -40.476562 16.316406 -40.953125 16.765625 -41.328125 C 17.210938 -41.710938 17.816406 -41.90625 18.578125 -41.90625 C 19.335938 -41.90625 19.945312 -41.710938 20.40625 -41.328125 C 20.875 -40.953125 21.222656 -40.476562 21.453125 -39.90625 C 21.691406 -39.332031 21.851562 -38.675781 21.9375 -37.9375 C 22.019531 -37.195312 22.0625 -36.488281 22.0625 -35.8125 L 22.0625 -30.109375 C 22.0625 -29.222656 22.019531 -28.398438 21.9375 -27.640625 C 21.851562 -26.878906 21.679688 -26.203125 21.421875 -25.609375 C 21.171875 -25.015625 20.8125 -24.546875 20.34375 -24.203125 C 19.882812 -23.867188 19.296875 -23.703125 18.578125 -23.703125 C 17.773438 -23.703125 17.140625 -23.878906 16.671875 -24.234375 C 16.203125 -24.597656 15.851562 -25.078125 15.625 -25.671875 C 15.394531 -26.265625 15.25 -26.941406 15.1875 -27.703125 C 15.125 -28.460938 15.09375 -29.265625 15.09375 -30.109375 Z M 15.09375 -15.96875 C 15.09375 -16.644531 15.125 -17.363281 15.1875 -18.125 C 15.25 -18.882812 15.394531 -19.582031 15.625 -20.21875 C 15.851562 -20.851562 16.203125 -21.367188 16.671875 -21.765625 C 17.140625 -22.171875 17.773438 -22.375 18.578125 -22.375 C 19.421875 -22.375 20.070312 -22.171875 20.53125 -21.765625 C 21 -21.367188 21.347656 -20.851562 21.578125 -20.21875 C 21.816406 -19.582031 21.957031 -18.882812 22 -18.125 C 22.039062 -17.363281 22.0625 -16.644531 22.0625 -15.96875 L 22.0625 -7.296875 C 22.0625 -5.265625 21.847656 -3.601562 21.421875 -2.3125 C 21.003906 -1.019531 20.054688 -0.375 18.578125 -0.375 C 17.097656 -0.375 16.144531 -1.019531 15.71875 -2.3125 C 15.300781 -3.601562 15.09375 -5.265625 15.09375 -7.296875 Z M 15.09375 -15.96875 "/></g></g></g><g fill="#ffffff" fill-opacity="1"><g transform="translate(262.403418, 2510.046049)"><g><path d="M 1.71875 -21.421875 C 1.71875 -18.679688 2.070312 -15.988281 2.78125 -13.34375 C 3.5 -10.695312 4.566406 -8.347656 5.984375 -6.296875 C 7.398438 -4.253906 9.175781 -2.597656 11.3125 -1.328125 C 13.445312 -0.0546875 15.953125 0.578125 18.828125 0.578125 C 21.660156 0.578125 24.15625 -0.0546875 26.3125 -1.328125 C 28.46875 -2.597656 30.25 -4.253906 31.65625 -6.296875 C 33.070312 -8.347656 34.140625 -10.695312 34.859375 -13.34375 C 35.578125 -15.988281 35.9375 -18.679688 35.9375 -21.421875 C 35.9375 -24.171875 35.578125 -26.851562 34.859375 -29.46875 C 34.140625 -32.09375 33.070312 -34.429688 31.65625 -36.484375 C 30.25 -38.535156 28.46875 -40.179688 26.3125 -41.421875 C 24.15625 -42.671875 21.660156 -43.296875 18.828125 -43.296875 C 15.953125 -43.296875 13.445312 -42.671875 11.3125 -41.421875 C 9.175781 -40.179688 7.398438 -38.535156 5.984375 -36.484375 C 4.566406 -34.429688 3.5 -32.09375 2.78125 -29.46875 C 2.070312 -26.851562 1.71875 -24.171875 1.71875 -21.421875 Z M 23.96875 -31.5625 L 23.96875 -11.15625 C 23.96875 -9.164062 23.867188 -7.492188 23.671875 -6.140625 C 23.484375 -4.796875 23.175781 -3.707031 22.75 -2.875 C 22.332031 -2.050781 21.796875 -1.460938 21.140625 -1.109375 C 20.484375 -0.753906 19.710938 -0.578125 18.828125 -0.578125 C 17.941406 -0.578125 17.171875 -0.753906 16.515625 -1.109375 C 15.859375 -1.460938 15.316406 -2.050781 14.890625 -2.875 C 14.472656 -3.707031 14.164062 -4.796875 13.96875 -6.140625 C 13.78125 -7.492188 13.6875 -9.164062 13.6875 -11.15625 L 13.6875 -31.5625 C 13.6875 -33.550781 13.78125 -35.222656 13.96875 -36.578125 C 14.164062 -37.929688 14.472656 -39.019531 14.890625 -39.84375 C 15.316406 -40.664062 15.859375 -41.253906 16.515625 -41.609375 C 17.171875 -41.972656 17.941406 -42.15625 18.828125 -42.15625 C 19.710938 -42.15625 20.484375 -41.972656 21.140625 -41.609375 C 21.796875 -41.253906 22.332031 -40.664062 22.75 -39.84375 C 23.175781 -39.019531 23.484375 -37.929688 23.671875 -36.578125 C 23.867188 -35.222656 23.96875 -33.550781 23.96875 -31.5625 Z M 23.96875 -31.5625 "/></g></g></g><g fill="#ffffff" fill-opacity="1"><g transform="translate(300.498852, 2510.046049)"><g><path d="M 14.453125 -23.328125 L 14.453125 -28.71875 L 1.578125 -26.5625 L 1.578125 -25.484375 L 4.9375 -26.046875 L 4.9375 -1.015625 L 1.578125 -1.015625 L 1.578125 0 L 17.171875 0 L 17.171875 -1.015625 L 14.453125 -1.015625 L 14.453125 -18.703125 C 14.453125 -19.460938 14.585938 -20.285156 14.859375 -21.171875 C 15.140625 -22.054688 15.53125 -22.878906 16.03125 -23.640625 C 16.539062 -24.398438 17.132812 -25.023438 17.8125 -25.515625 C 18.488281 -26.003906 19.226562 -26.25 20.03125 -26.25 C 20.957031 -26.25 21.628906 -25.78125 22.046875 -24.84375 C 22.472656 -23.914062 22.6875 -22.144531 22.6875 -19.53125 L 22.6875 -1.015625 L 19.96875 -1.015625 L 19.96875 0 L 34.921875 0 L 34.921875 -1.015625 L 32.203125 -1.015625 L 32.203125 -18.640625 C 32.203125 -19.523438 32.367188 -20.429688 32.703125 -21.359375 C 33.046875 -22.285156 33.476562 -23.109375 34 -23.828125 C 34.53125 -24.546875 35.125 -25.140625 35.78125 -25.609375 C 36.4375 -26.078125 37.082031 -26.3125 37.71875 -26.3125 C 38.851562 -26.3125 39.585938 -25.738281 39.921875 -24.59375 C 40.265625 -23.457031 40.4375 -21.660156 40.4375 -19.203125 L 40.4375 -1.015625 L 37.71875 -1.015625 L 37.71875 0 L 52.671875 0 L 52.671875 -1.015625 L 49.953125 -1.015625 L 49.953125 -18.578125 C 49.953125 -21.535156 49.101562 -23.835938 47.40625 -25.484375 C 45.71875 -27.128906 43.269531 -27.953125 40.0625 -27.953125 C 38.789062 -27.953125 37.710938 -27.789062 36.828125 -27.46875 C 35.941406 -27.15625 35.191406 -26.753906 34.578125 -26.265625 C 33.960938 -25.785156 33.460938 -25.257812 33.078125 -24.6875 C 32.703125 -24.113281 32.367188 -23.597656 32.078125 -23.140625 C 31.359375 -24.742188 30.269531 -25.9375 28.8125 -26.71875 C 27.351562 -27.5 25.25 -27.890625 22.5 -27.890625 C 21.363281 -27.890625 20.367188 -27.757812 19.515625 -27.5 C 18.671875 -27.25 17.941406 -26.921875 17.328125 -26.515625 C 16.722656 -26.117188 16.1875 -25.644531 15.71875 -25.09375 C 15.257812 -24.550781 14.835938 -23.960938 14.453125 -23.328125 Z M 14.453125 -23.328125 "/></g></g></g><path stroke-linecap="butt" transform="matrix(0.000000000000000046, 0.75, -0.75, 0.000000000000000046, 184.97658, 2441.718245)" fill="none" stroke-linejoin="miter" d="M 0.000672958 0.0000227133 L 288.00069 0.0000227133 " stroke="#ffffff" stroke-width="15" stroke-opacity="1" stroke-miterlimit="4"/><path stroke-linecap="butt" transform="matrix(-0.000000000000000121, 0.750014, -0.75, -0.000000000000000121, 185.348738, 2464.499476)" fill="none" stroke-linejoin="miter" d="M 59.999585 0.00144222 L 1616.975887 0.00144222 " stroke="#ffffff" stroke-width="16" stroke-opacity="1" stroke-miterlimit="4"/><path stroke-linecap="butt" transform="matrix(-0.00000000000000193, 12.000223, -11.999999, -0.00000000000000193, 185.348738, 2464.499476)" fill-opacity="1" fill="#ffffff" fill-rule="nonzero" stroke-linejoin="miter" d="M 3.499979 0.0000901386 C 3.499979 0.0492438 3.4977 0.0980719 3.492817 0.1469 C 3.487935 0.196054 3.480773 0.244556 3.471333 0.292733 C 3.461568 0.34091 3.449524 0.388437 3.435527 0.435312 C 3.421204 0.482512 3.404603 0.528736 3.385723 0.573983 C 3.367169 0.619556 3.34601 0.663827 3.322899 0.707121 C 3.299787 0.750416 3.274397 0.792408 3.247054 0.833424 C 3.220036 0.874114 3.19074 0.913502 3.15949 0.951588 C 3.128241 0.989674 3.095364 1.025806 3.060534 1.060637 C 3.026029 1.095468 2.989572 1.128345 2.951486 1.159595 C 2.913727 1.19052 2.874339 1.219817 2.833324 1.247161 C 2.792635 1.274504 2.750318 1.299569 2.707025 1.323007 C 2.663731 1.346119 2.619461 1.366952 2.573889 1.385832 C 2.528643 1.404713 2.482419 1.420989 2.435545 1.435312 C 2.388346 1.449634 2.340821 1.461679 2.292644 1.471119 C 2.244468 1.480884 2.195966 1.488046 2.147139 1.492929 C 2.097986 1.497486 2.049159 1.50009 2.000007 1.50009 C 1.950854 1.50009 1.902027 1.497486 1.852874 1.492929 C 1.804047 1.488046 1.755545 1.480884 1.707369 1.471119 C 1.659193 1.461679 1.611667 1.449634 1.564468 1.435312 C 1.517594 1.420989 1.471371 1.404713 1.426124 1.385832 C 1.380552 1.366952 1.336282 1.346119 1.292988 1.323007 C 1.249695 1.299569 1.207378 1.274504 1.166689 1.247161 C 1.125674 1.219817 1.086287 1.19052 1.048527 1.159595 C 1.010442 1.128345 0.973984 1.095468 0.939479 1.060637 C 0.904649 1.025806 0.871772 0.989674 0.840523 0.951588 C 0.809273 0.913502 0.779977 0.874114 0.752634 0.833424 C 0.725616 0.792408 0.700226 0.750416 0.677114 0.707121 C 0.654003 0.663827 0.632844 0.619556 0.61429 0.573983 C 0.59541 0.528736 0.578809 0.482512 0.564486 0.435312 C 0.550489 0.388437 0.538445 0.34091 0.52868 0.292733 C 0.51924 0.244556 0.512078 0.196054 0.507196 0.1469 C 0.502313 0.0980719 0.500034 0.0492438 0.500034 0.0000901386 C 0.500034 -0.0490635 0.502313 -0.0982172 0.507196 -0.147045 C 0.512078 -0.195873 0.51924 -0.244376 0.52868 -0.292553 C 0.538445 -0.34073 0.550489 -0.388256 0.564486 -0.435457 C 0.578809 -0.482332 0.59541 -0.528556 0.61429 -0.574129 C 0.632844 -0.619376 0.654003 -0.663647 0.677114 -0.706941 C 0.700226 -0.750561 0.725616 -0.792553 0.752634 -0.833243 C 0.779977 -0.874259 0.809273 -0.913647 0.840523 -0.951733 C 0.871772 -0.989493 0.904649 -1.025952 0.939479 -1.060782 C 0.973984 -1.095288 1.010442 -1.128491 1.048527 -1.159415 C 1.086287 -1.190665 1.125674 -1.219962 1.166689 -1.247306 C 1.207378 -1.27465 1.249695 -1.299715 1.292988 -1.322827 C 1.336282 -1.345939 1.380552 -1.367097 1.426124 -1.385978 C 1.471371 -1.404532 1.517594 -1.421134 1.564468 -1.435457 C 1.611667 -1.44978 1.659193 -1.461498 1.707369 -1.471264 C 1.755545 -1.480704 1.804047 -1.487866 1.852874 -1.492748 C 1.902027 -1.497631 1.950854 -1.49991 2.000007 -1.49991 C 2.049159 -1.49991 2.097986 -1.497631 2.147139 -1.492748 C 2.195966 -1.487866 2.244468 -1.480704 2.292644 -1.471264 C 2.340821 -1.461498 2.388346 -1.44978 2.435545 -1.435457 C 2.482419 -1.421134 2.528643 -1.404532 2.573889 -1.385978 C 2.619461 -1.367097 2.663731 -1.345939 2.707025 -1.322827 C 2.750318 -1.299715 2.792635 -1.27465 2.833324 -1.247306 C 2.874339 -1.219962 2.913727 -1.190665 2.951486 -1.159415 C 2.989572 -1.128491 3.026029 -1.095288 3.060534 -1.060782 C 3.095364 -1.025952 3.128241 -0.989493 3.15949 -0.951733 C 3.19074 -0.913647 3.220036 -0.874259 3.247054 -0.833243 C 3.274397 -0.792553 3.299787 -0.750561 3.322899 -0.706941 C 3.34601 -0.663647 3.367169 -0.619376 3.385723 -0.574129 C 3.404603 -0.528556 3.421204 -0.482332 3.435527 -0.435457 C 3.449524 -0.388256 3.461568 -0.34073 3.471333 -0.292553 C 3.480773 -0.244376 3.487935 -0.195873 3.492817 -0.147045 C 3.4977 -0.0982172 3.499979 -0.0490635 3.499979 0.0000901386 Z M 3.499979 0.0000901386 " stroke="#ffffff" stroke-width="1" stroke-opacity="1" stroke-miterlimit="4"/><path stroke-linecap="butt" transform="matrix(-0.00000000000000193, 12.000223, -11.999999, -0.00000000000000193, 185.348738, 3722.255282)" fill-opacity="1" fill="#ffffff" fill-rule="nonzero" stroke-linejoin="miter" d="M -0.500105 0.0000901386 C -0.500105 0.0492438 -0.502384 0.0980719 -0.507267 0.1469 C -0.512149 0.196054 -0.519311 0.244556 -0.528751 0.292733 C -0.538516 0.34091 -0.550235 0.388437 -0.564557 0.435312 C -0.57888 0.482512 -0.595481 0.528736 -0.614036 0.573983 C -0.632915 0.619556 -0.654074 0.663827 -0.677185 0.707121 C -0.700297 0.750416 -0.725362 0.792408 -0.752705 0.833424 C -0.780048 0.874114 -0.809344 0.913502 -0.840594 0.951588 C -0.871518 0.989674 -0.90472 1.025806 -0.939225 1.060637 C -0.974055 1.095468 -1.010513 1.128345 -1.048272 1.159595 C -1.086358 1.19052 -1.125745 1.219817 -1.16676 1.247161 C -1.207449 1.274504 -1.24944 1.299569 -1.293059 1.323007 C -1.336353 1.346119 -1.380623 1.366952 -1.425869 1.385832 C -1.471442 1.404713 -1.517665 1.420989 -1.564539 1.435312 C -1.611738 1.449634 -1.659264 1.461679 -1.70744 1.471119 C -1.755616 1.480884 -1.804118 1.488046 -1.852945 1.492929 C -1.901772 1.497486 -1.950925 1.50009 -2.000078 1.50009 C -2.04923 1.50009 -2.098058 1.497486 -2.146885 1.492929 C -2.196037 1.488046 -2.244539 1.480884 -2.292715 1.471119 C -2.340892 1.461679 -2.388417 1.449634 -2.435291 1.435312 C -2.48249 1.420989 -2.528714 1.404713 -2.57396 1.385832 C -2.619532 1.366952 -2.663802 1.346119 -2.707096 1.323007 C -2.750389 1.299569 -2.792381 1.274504 -2.833395 1.247161 C -2.874085 1.219817 -2.913472 1.19052 -2.951557 1.159595 C -2.989643 1.128345 -3.025775 1.095468 -3.060605 1.060637 C -3.095435 1.025806 -3.128312 0.989674 -3.159561 0.951588 C -3.190811 0.913502 -3.219781 0.874114 -3.247125 0.833424 C -3.274468 0.792408 -3.299858 0.750416 -3.32297 0.707121 C -3.346081 0.663827 -3.366914 0.619556 -3.385794 0.573983 C -3.404674 0.528736 -3.421275 0.482512 -3.435272 0.435312 C -3.449595 0.388437 -3.461639 0.34091 -3.471079 0.292733 C -3.480844 0.244556 -3.488006 0.196054 -3.492888 0.1469 C -3.497446 0.0980719 -3.50005 0.0492438 -3.50005 0.0000901386 C -3.50005 -0.0490635 -3.497446 -0.0982172 -3.492888 -0.147045 C -3.488006 -0.195873 -3.480844 -0.244376 -3.471079 -0.292553 C -3.461639 -0.34073 -3.449595 -0.388256 -3.435272 -0.435457 C -3.421275 -0.482332 -3.404674 -0.528556 -3.385794 -0.574129 C -3.366914 -0.619376 -3.346081 -0.663647 -3.32297 -0.706941 C -3.299858 -0.750561 -3.274468 -0.792553 -3.247125 -0.833243 C -3.219781 -0.874259 -3.190811 -0.913647 -3.159561 -0.951733 C -3.128312 -0.989493 -3.095435 -1.025952 -3.060605 -1.060782 C -3.025775 -1.095288 -2.989643 -1.128491 -2.951557 -1.159415 C -2.913472 -1.190665 -2.874085 -1.219962 -2.833395 -1.247306 C -2.792381 -1.27465 -2.750389 -1.299715 -2.707096 -1.322827 C -2.663802 -1.345939 -2.619532 -1.367097 -2.57396 -1.385978 C -2.528714 -1.404532 -2.48249 -1.421134 -2.435291 -1.435457 C -2.388417 -1.44978 -2.340892 -1.461498 -2.292715 -1.471264 C -2.244539 -1.480704 -2.196037 -1.487866 -2.146885 -1.492748 C -2.098058 -1.497631 -2.04923 -1.49991 -2.000078 -1.49991 C -1.950925 -1.49991 -1.901772 -1.497631 -1.852945 -1.492748 C -1.804118 -1.487866 -1.755616 -1.480704 -1.70744 -1.471264 C -1.659264 -1.461498 -1.611738 -1.44978 -1.564539 -1.435457 C -1.517665 -1.421134 -1.471442 -1.404532 -1.425869 -1.385978 C -1.380623 -1.367097 -1.336353 -1.345939 -1.293059 -1.322827 C -1.24944 -1.299715 -1.207449 -1.27465 -1.16676 -1.247306 C -1.125745 -1.219962 -1.086358 -1.190665 -1.048272 -1.159415 C -1.010513 -1.128491 -0.974055 -1.095288 -0.939225 -1.060782 C -0.90472 -1.025952 -0.871518 -0.989493 -0.840594 -0.951733 C -0.809344 -0.913647 -0.780048 -0.874259 -0.752705 -0.833243 C -0.725362 -0.792553 -0.700297 -0.750561 -0.677185 -0.706941 C -0.654074 -0.663647 -0.632915 -0.619376 -0.614036 -0.574129 C -0.595481 -0.528556 -0.57888 -0.482332 -0.564557 -0.435457 C -0.550235 -0.388256 -0.538516 -0.34073 -0.528751 -0.292553 C -0.519311 -0.244376 -0.512149 -0.195873 -0.507267 -0.147045 C -0.502384 -0.0982172 -0.500105 -0.0490635 -0.500105 0.0000901386 Z M -0.500105 0.0000901386 " stroke="#ffffff" stroke-width="1" stroke-opacity="1" stroke-miterlimit="4"/><path stroke-linecap="butt" transform="matrix(0.0195461, 0.74764, -0.749744, 0.0196011, 184.221525, 2359.927234)" fill="none" stroke-linejoin="miter" d="M -0.00190235 -0.0015582 L 161.459394 -0.00196621 " stroke="#ffffff" stroke-width="15" stroke-opacity="1" stroke-miterlimit="4"/><g fill="#ffffff" fill-opacity="1"><g transform="translate(208.265016, 3720.056595)"><g><path d="M 6.28125 -33.46875 C 6.363281 -33.46875 6.46875 -33.46875 6.59375 -33.46875 C 6.757812 -33.46875 6.925781 -33.488281 7.09375 -33.53125 C 7.644531 -33.613281 8.289062 -33.757812 9.03125 -33.96875 C 9.769531 -34.1875 10.519531 -34.429688 11.28125 -34.703125 C 12.039062 -34.984375 12.769531 -35.269531 13.46875 -35.5625 C 14.164062 -35.851562 14.789062 -36.128906 15.34375 -36.390625 L 15.34375 -1.015625 L 11.921875 -1.015625 L 11.921875 0 L 28.265625 0 L 28.265625 -1.015625 L 24.84375 -1.015625 L 24.84375 -42.59375 L 19.53125 -42.59375 C 17.832031 -41.113281 15.894531 -39.613281 13.71875 -38.09375 C 11.539062 -36.570312 9.1875 -35.367188 6.65625 -34.484375 C 5.976562 -34.234375 5.640625 -33.976562 5.640625 -33.71875 C 5.640625 -33.550781 5.851562 -33.46875 6.28125 -33.46875 Z M 6.28125 -33.46875 "/></g></g></g><g fill="#ffffff" fill-opacity="1"><g transform="translate(246.36045, 3720.056595)"><g><path d="M 14.453125 -17.875 C 14.453125 -18.550781 14.484375 -19.289062 14.546875 -20.09375 C 14.609375 -20.894531 14.703125 -21.53125 14.828125 -22 C 15.128906 -22.84375 15.640625 -23.644531 16.359375 -24.40625 C 17.078125 -25.164062 17.960938 -25.546875 19.015625 -25.546875 C 20.078125 -25.546875 20.890625 -25.351562 21.453125 -24.96875 C 22.023438 -24.59375 22.445312 -24.054688 22.71875 -23.359375 C 23 -22.660156 23.160156 -21.847656 23.203125 -20.921875 C 23.242188 -19.992188 23.265625 -18.976562 23.265625 -17.875 L 23.265625 -10.265625 C 23.265625 -8.910156 23.242188 -7.640625 23.203125 -6.453125 C 23.160156 -5.273438 23 -4.242188 22.71875 -3.359375 C 22.445312 -2.472656 22.015625 -1.773438 21.421875 -1.265625 C 20.828125 -0.753906 19.984375 -0.5 18.890625 -0.5 C 17.796875 -0.5 16.941406 -0.773438 16.328125 -1.328125 C 15.710938 -1.878906 15.265625 -2.597656 14.984375 -3.484375 C 14.710938 -4.367188 14.554688 -5.390625 14.515625 -6.546875 C 14.472656 -7.710938 14.453125 -8.929688 14.453125 -10.203125 Z M 32.515625 -36.203125 C 32.515625 -38.222656 31.59375 -39.921875 29.75 -41.296875 C 27.914062 -42.671875 25.414062 -43.359375 22.25 -43.359375 C 20.21875 -43.359375 18.0625 -42.828125 15.78125 -41.765625 C 13.5 -40.710938 11.382812 -39.179688 9.4375 -37.171875 C 7.5 -35.171875 5.882812 -32.710938 4.59375 -29.796875 C 3.300781 -26.878906 2.65625 -23.539062 2.65625 -19.78125 C 2.65625 -16.945312 3.046875 -14.289062 3.828125 -11.8125 C 4.617188 -9.34375 5.71875 -7.1875 7.125 -5.34375 C 8.539062 -3.507812 10.242188 -2.050781 12.234375 -0.96875 C 14.222656 0.101562 16.441406 0.640625 18.890625 0.640625 C 21.128906 0.640625 23.21875 0.28125 25.15625 -0.4375 C 27.101562 -1.15625 28.785156 -2.148438 30.203125 -3.421875 C 31.617188 -4.691406 32.738281 -6.203125 33.5625 -7.953125 C 34.382812 -9.710938 34.796875 -11.644531 34.796875 -13.75 C 34.796875 -15.945312 34.425781 -17.878906 33.6875 -19.546875 C 32.945312 -21.222656 31.929688 -22.597656 30.640625 -23.671875 C 29.359375 -24.753906 27.847656 -25.566406 26.109375 -26.109375 C 24.378906 -26.660156 22.546875 -26.9375 20.609375 -26.9375 C 18.867188 -26.9375 17.566406 -26.671875 16.703125 -26.140625 C 15.835938 -25.617188 15.085938 -24.976562 14.453125 -24.21875 L 14.453125 -30.484375 C 14.453125 -32.722656 14.671875 -34.59375 15.109375 -36.09375 C 15.554688 -37.59375 16.148438 -38.796875 16.890625 -39.703125 C 17.628906 -40.617188 18.484375 -41.265625 19.453125 -41.640625 C 20.429688 -42.023438 21.445312 -42.21875 22.5 -42.21875 C 23.851562 -42.21875 25.015625 -42.015625 25.984375 -41.609375 C 26.960938 -41.210938 27.453125 -40.84375 27.453125 -40.5 C 27.453125 -40.332031 27.175781 -40.25 26.625 -40.25 C 25.394531 -40.25 24.441406 -39.765625 23.765625 -38.796875 C 23.085938 -37.828125 22.75 -36.789062 22.75 -35.6875 C 22.75 -34.289062 23.210938 -33.140625 24.140625 -32.234375 C 25.078125 -31.328125 26.285156 -30.875 27.765625 -30.875 C 29.285156 -30.875 30.457031 -31.410156 31.28125 -32.484375 C 32.101562 -33.566406 32.515625 -34.804688 32.515625 -36.203125 Z M 32.515625 -36.203125 "/></g></g></g><g fill="#ffffff" fill-opacity="1"><g transform="translate(284.455884, 3720.056595)"><g><path d="M 1.71875 -21.421875 C 1.71875 -18.679688 2.070312 -15.988281 2.78125 -13.34375 C 3.5 -10.695312 4.566406 -8.347656 5.984375 -6.296875 C 7.398438 -4.253906 9.175781 -2.597656 11.3125 -1.328125 C 13.445312 -0.0546875 15.953125 0.578125 18.828125 0.578125 C 21.660156 0.578125 24.15625 -0.0546875 26.3125 -1.328125 C 28.46875 -2.597656 30.25 -4.253906 31.65625 -6.296875 C 33.070312 -8.347656 34.140625 -10.695312 34.859375 -13.34375 C 35.578125 -15.988281 35.9375 -18.679688 35.9375 -21.421875 C 35.9375 -24.171875 35.578125 -26.851562 34.859375 -29.46875 C 34.140625 -32.09375 33.070312 -34.429688 31.65625 -36.484375 C 30.25 -38.535156 28.46875 -40.179688 26.3125 -41.421875 C 24.15625 -42.671875 21.660156 -43.296875 18.828125 -43.296875 C 15.953125 -43.296875 13.445312 -42.671875 11.3125 -41.421875 C 9.175781 -40.179688 7.398438 -38.535156 5.984375 -36.484375 C 4.566406 -34.429688 3.5 -32.09375 2.78125 -29.46875 C 2.070312 -26.851562 1.71875 -24.171875 1.71875 -21.421875 Z M 23.96875 -31.5625 L 23.96875 -11.15625 C 23.96875 -9.164062 23.867188 -7.492188 23.671875 -6.140625 C 23.484375 -4.796875 23.175781 -3.707031 22.75 -2.875 C 22.332031 -2.050781 21.796875 -1.460938 21.140625 -1.109375 C 20.484375 -0.753906 19.710938 -0.578125 18.828125 -0.578125 C 17.941406 -0.578125 17.171875 -0.753906 16.515625 -1.109375 C 15.859375 -1.460938 15.316406 -2.050781 14.890625 -2.875 C 14.472656 -3.707031 14.164062 -4.796875 13.96875 -6.140625 C 13.78125 -7.492188 13.6875 -9.164062 13.6875 -11.15625 L 13.6875 -31.5625 C 13.6875 -33.550781 13.78125 -35.222656 13.96875 -36.578125 C 14.164062 -37.929688 14.472656 -39.019531 14.890625 -39.84375 C 15.316406 -40.664062 15.859375 -41.253906 16.515625 -41.609375 C 17.171875 -41.972656 17.941406 -42.15625 18.828125 -42.15625 C 19.710938 -42.15625 20.484375 -41.972656 21.140625 -41.609375 C 21.796875 -41.253906 22.332031 -40.664062 22.75 -39.84375 C 23.175781 -39.019531 23.484375 -37.929688 23.671875 -36.578125 C 23.867188 -35.222656 23.96875 -33.550781 23.96875 -31.5625 Z M 23.96875 -31.5625 "/></g></g></g><g fill="#ffffff" fill-opacity="1"><g transform="translate(322.551318, 3720.056595)"><g><path d="M 14.453125 -23.328125 L 14.453125 -28.71875 L 1.578125 -26.5625 L 1.578125 -25.484375 L 4.9375 -26.046875 L 4.9375 -1.015625 L 1.578125 -1.015625 L 1.578125 0 L 17.171875 0 L 17.171875 -1.015625 L 14.453125 -1.015625 L 14.453125 -18.703125 C 14.453125 -19.460938 14.585938 -20.285156 14.859375 -21.171875 C 15.140625 -22.054688 15.53125 -22.878906 16.03125 -23.640625 C 16.539062 -24.398438 17.132812 -25.023438 17.8125 -25.515625 C 18.488281 -26.003906 19.226562 -26.25 20.03125 -26.25 C 20.957031 -26.25 21.628906 -25.78125 22.046875 -24.84375 C 22.472656 -23.914062 22.6875 -22.144531 22.6875 -19.53125 L 22.6875 -1.015625 L 19.96875 -1.015625 L 19.96875 0 L 34.921875 0 L 34.921875 -1.015625 L 32.203125 -1.015625 L 32.203125 -18.640625 C 32.203125 -19.523438 32.367188 -20.429688 32.703125 -21.359375 C 33.046875 -22.285156 33.476562 -23.109375 34 -23.828125 C 34.53125 -24.546875 35.125 -25.140625 35.78125 -25.609375 C 36.4375 -26.078125 37.082031 -26.3125 37.71875 -26.3125 C 38.851562 -26.3125 39.585938 -25.738281 39.921875 -24.59375 C 40.265625 -23.457031 40.4375 -21.660156 40.4375 -19.203125 L 40.4375 -1.015625 L 37.71875 -1.015625 L 37.71875 0 L 52.671875 0 L 52.671875 -1.015625 L 49.953125 -1.015625 L 49.953125 -18.578125 C 49.953125 -21.535156 49.101562 -23.835938 47.40625 -25.484375 C 45.71875 -27.128906 43.269531 -27.953125 40.0625 -27.953125 C 38.789062 -27.953125 37.710938 -27.789062 36.828125 -27.46875 C 35.941406 -27.15625 35.191406 -26.753906 34.578125 -26.265625 C 33.960938 -25.785156 33.460938 -25.257812 33.078125 -24.6875 C 32.703125 -24.113281 32.367188 -23.597656 32.078125 -23.140625 C 31.359375 -24.742188 30.269531 -25.9375 28.8125 -26.71875 C 27.351562 -27.5 25.25 -27.890625 22.5 -27.890625 C 21.363281 -27.890625 20.367188 -27.757812 19.515625 -27.5 C 18.671875 -27.25 17.941406 -26.921875 17.328125 -26.515625 C 16.722656 -26.117188 16.1875 -25.644531 15.71875 -25.09375 C 15.257812 -24.550781 14.835938 -23.960938 14.453125 -23.328125 Z M 14.453125 -23.328125 "/></g></g></g><path stroke-linecap="butt" transform="matrix(0.000000000000000046, 0.75, -0.75, 0.000000000000000046, 184.97658, 3651.729031)" fill="none" stroke-linejoin="miter" d="M 0.00191759 0.0000227133 L 288.001934 0.0000227133 " stroke="#ffffff" stroke-width="15" stroke-opacity="1" stroke-miterlimit="4"/><path stroke-linecap="butt" transform="matrix(-0.000000000000000121, 0.750014, -0.75, -0.000000000000000121, 184.598738, 3676.690661)" fill="none" stroke-linejoin="miter" d="M 59.99988 0.00144228 L 1616.976182 0.00144228 " stroke="#ffffff" stroke-width="16" stroke-opacity="1" stroke-miterlimit="4"/><path stroke-linecap="butt" transform="matrix(-0.00000000000000193, 12.000223, -11.999999, -0.00000000000000193, 184.598738, 3676.690661)" fill-opacity="1" fill="#ffffff" fill-rule="nonzero" stroke-linejoin="miter" d="M 3.499997 0.0000901423 C 3.499997 0.0492438 3.497719 0.0980719 3.492836 0.1469 C 3.487953 0.196054 3.480792 0.244556 3.471026 0.292733 C 3.461586 0.34091 3.449542 0.388437 3.435545 0.435312 C 3.421223 0.482512 3.404621 0.528736 3.385741 0.573983 C 3.366862 0.619556 3.346029 0.663827 3.322917 0.707121 C 3.299806 0.750416 3.274415 0.792408 3.247072 0.833424 C 3.220054 0.874114 3.190758 0.913502 3.159509 0.951588 C 3.128259 0.989674 3.095382 1.025806 3.060552 1.060637 C 3.026048 1.095468 2.98959 1.128345 2.951505 1.159595 C 2.913745 1.19052 2.874358 1.219817 2.833343 1.247161 C 2.792653 1.274504 2.750337 1.299569 2.707043 1.323007 C 2.66375 1.346119 2.61948 1.366952 2.573908 1.385832 C 2.528661 1.404713 2.482438 1.420989 2.435564 1.435312 C 2.388364 1.449634 2.340839 1.461679 2.292663 1.471119 C 2.244487 1.480884 2.195985 1.488046 2.147158 1.492929 C 2.098005 1.497486 2.049178 1.50009 2.000025 1.50009 C 1.950872 1.50009 1.90172 1.497486 1.852892 1.492929 C 1.804065 1.488046 1.755563 1.480884 1.707387 1.471119 C 1.659211 1.461679 1.611686 1.449634 1.564486 1.435312 C 1.517612 1.420989 1.471389 1.404713 1.425817 1.385832 C 1.38057 1.366952 1.3363 1.346119 1.293007 1.323007 C 1.249713 1.299569 1.207396 1.274504 1.166707 1.247161 C 1.125692 1.219817 1.086305 1.19052 1.048545 1.159595 C 1.01046 1.128345 0.974002 1.095468 0.939498 1.060637 C 0.904668 1.025806 0.871791 0.989674 0.840541 0.951588 C 0.809292 0.913502 0.779996 0.874114 0.752652 0.833424 C 0.725635 0.792408 0.700244 0.750416 0.677133 0.707121 C 0.654021 0.663827 0.632863 0.619556 0.614309 0.573983 C 0.595429 0.528736 0.578827 0.482512 0.564505 0.435312 C 0.550182 0.388437 0.538464 0.34091 0.528698 0.292733 C 0.519258 0.244556 0.512097 0.196054 0.507214 0.1469 C 0.502331 0.0980719 0.500053 0.0492438 0.500053 0.0000901423 C 0.500053 -0.0490635 0.502331 -0.0982172 0.507214 -0.147045 C 0.512097 -0.195873 0.519258 -0.244376 0.528698 -0.292553 C 0.538464 -0.34073 0.550182 -0.388256 0.564505 -0.435457 C 0.578827 -0.482332 0.595429 -0.528556 0.614309 -0.574129 C 0.632863 -0.619376 0.654021 -0.663647 0.677133 -0.706941 C 0.700244 -0.750561 0.725635 -0.792553 0.752652 -0.833243 C 0.779996 -0.874259 0.809292 -0.913647 0.840541 -0.951733 C 0.871791 -0.989493 0.904668 -1.025952 0.939498 -1.060782 C 0.974002 -1.095288 1.01046 -1.128491 1.048545 -1.159415 C 1.086305 -1.190665 1.125692 -1.219962 1.166707 -1.247306 C 1.207396 -1.27465 1.249713 -1.299715 1.293007 -1.322827 C 1.3363 -1.345939 1.38057 -1.367097 1.425817 -1.385978 C 1.471389 -1.404532 1.517612 -1.421134 1.564486 -1.435457 C 1.611686 -1.44978 1.659211 -1.461498 1.707387 -1.471264 C 1.755563 -1.480704 1.804065 -1.487866 1.852892 -1.492748 C 1.90172 -1.497631 1.950872 -1.49991 2.000025 -1.49991 C 2.049178 -1.49991 2.098005 -1.497631 2.147158 -1.492748 C 2.195985 -1.487866 2.244487 -1.480704 2.292663 -1.471264 C 2.340839 -1.461498 2.388364 -1.44978 2.435564 -1.435457 C 2.482438 -1.421134 2.528661 -1.404532 2.573908 -1.385978 C 2.61948 -1.367097 2.66375 -1.345939 2.707043 -1.322827 C 2.750337 -1.299715 2.792653 -1.27465 2.833343 -1.247306 C 2.874358 -1.219962 2.913745 -1.190665 2.951505 -1.159415 C 2.98959 -1.128491 3.026048 -1.095288 3.060552 -1.060782 C 3.095382 -1.025952 3.128259 -0.989493 3.159509 -0.951733 C 3.190758 -0.913647 3.220054 -0.874259 3.247072 -0.833243 C 3.274415 -0.792553 3.299806 -0.750561 3.322917 -0.706941 C 3.346029 -0.663647 3.366862 -0.619376 3.385741 -0.574129 C 3.404621 -0.528556 3.421223 -0.482332 3.435545 -0.435457 C 3.449542 -0.388256 3.461586 -0.34073 3.471026 -0.292553 C 3.480792 -0.244376 3.487953 -0.195873 3.492836 -0.147045 C 3.497719 -0.0982172 3.499997 -0.0490635 3.499997 0.0000901423 Z M 3.499997 0.0000901423 " stroke="#ffffff" stroke-width="1" stroke-opacity="1" stroke-miterlimit="4"/><path stroke-linecap="butt" transform="matrix(-0.00000000000000193, 12.000223, -11.999999, -0.00000000000000193, 184.598738, 4934.446612)" fill-opacity="1" fill="#ffffff" fill-rule="nonzero" stroke-linejoin="miter" d="M -0.500099 0.0000901423 C -0.500099 0.0492438 -0.502378 0.0980719 -0.50726 0.1469 C -0.512143 0.196054 -0.519304 0.244556 -0.528744 0.292733 C -0.53851 0.34091 -0.550228 0.388437 -0.564551 0.435312 C -0.578874 0.482512 -0.595475 0.528736 -0.614029 0.573983 C -0.632909 0.619556 -0.654067 0.663827 -0.677179 0.707121 C -0.700291 0.750416 -0.725355 0.792408 -0.752698 0.833424 C -0.780042 0.874114 -0.809338 0.913502 -0.840587 0.951588 C -0.871511 0.989674 -0.904714 1.025806 -0.939218 1.060637 C -0.974049 1.095468 -1.010506 1.128345 -1.048266 1.159595 C -1.086351 1.19052 -1.125738 1.219817 -1.166753 1.247161 C -1.207443 1.274504 -1.249434 1.299569 -1.293053 1.323007 C -1.336346 1.346119 -1.380616 1.366952 -1.425863 1.385832 C -1.471435 1.404713 -1.517658 1.420989 -1.564532 1.435312 C -1.611732 1.449634 -1.659257 1.461679 -1.707433 1.471119 C -1.75561 1.480884 -1.804111 1.488046 -1.852938 1.492929 C -1.901766 1.497486 -1.950918 1.50009 -2.000071 1.50009 C -2.049224 1.50009 -2.098051 1.497486 -2.146878 1.492929 C -2.196031 1.488046 -2.244533 1.480884 -2.292709 1.471119 C -2.340885 1.461679 -2.38841 1.449634 -2.435284 1.435312 C -2.482484 1.420989 -2.528707 1.404713 -2.573954 1.385832 C -2.619526 1.366952 -2.663796 1.346119 -2.707089 1.323007 C -2.750383 1.299569 -2.792374 1.274504 -2.833389 1.247161 C -2.874078 1.219817 -2.913466 1.19052 -2.951551 1.159595 C -2.989636 1.128345 -3.025768 1.095468 -3.060598 1.060637 C -3.095428 1.025806 -3.128305 0.989674 -3.159555 0.951588 C -3.190804 0.913502 -3.219775 0.874114 -3.247118 0.833424 C -3.274462 0.792408 -3.299852 0.750416 -3.322963 0.707121 C -3.346075 0.663827 -3.366908 0.619556 -3.385788 0.573983 C -3.404667 0.528736 -3.421269 0.482512 -3.435266 0.435312 C -3.449588 0.388437 -3.461633 0.34091 -3.471072 0.292733 C -3.480838 0.244556 -3.487999 0.196054 -3.492882 0.1469 C -3.497439 0.0980719 -3.500043 0.0492438 -3.500043 0.0000901423 C -3.500043 -0.0490635 -3.497439 -0.0982172 -3.492882 -0.147045 C -3.487999 -0.195873 -3.480838 -0.244376 -3.471072 -0.292553 C -3.461633 -0.34073 -3.449588 -0.388256 -3.435266 -0.435457 C -3.421269 -0.482332 -3.404667 -0.528556 -3.385788 -0.574129 C -3.366908 -0.619376 -3.346075 -0.663647 -3.322963 -0.706941 C -3.299852 -0.750561 -3.274462 -0.792553 -3.247118 -0.833243 C -3.219775 -0.874259 -3.190804 -0.913647 -3.159555 -0.951733 C -3.128305 -0.989493 -3.095428 -1.025952 -3.060598 -1.060782 C -3.025768 -1.095288 -2.989636 -1.128491 -2.951551 -1.159415 C -2.913466 -1.190665 -2.874078 -1.219962 -2.833389 -1.247306 C -2.792374 -1.27465 -2.750383 -1.299715 -2.707089 -1.322827 C -2.663796 -1.345939 -2.619526 -1.367097 -2.573954 -1.385978 C -2.528707 -1.404532 -2.482484 -1.421134 -2.435284 -1.435457 C -2.38841 -1.44978 -2.340885 -1.461498 -2.292709 -1.471264 C -2.244533 -1.480704 -2.196031 -1.487866 -2.146878 -1.492748 C -2.098051 -1.497631 -2.049224 -1.49991 -2.000071 -1.49991 C -1.950918 -1.49991 -1.901766 -1.497631 -1.852938 -1.492748 C -1.804111 -1.487866 -1.75561 -1.480704 -1.707433 -1.471264 C -1.659257 -1.461498 -1.611732 -1.44978 -1.564532 -1.435457 C -1.517658 -1.421134 -1.471435 -1.404532 -1.425863 -1.385978 C -1.380616 -1.367097 -1.336346 -1.345939 -1.293053 -1.322827 C -1.249434 -1.299715 -1.207443 -1.27465 -1.166753 -1.247306 C -1.125738 -1.219962 -1.086351 -1.190665 -1.048266 -1.159415 C -1.010506 -1.128491 -0.974049 -1.095288 -0.939218 -1.060782 C -0.904714 -1.025952 -0.871511 -0.989493 -0.840587 -0.951733 C -0.809338 -0.913647 -0.780042 -0.874259 -0.752698 -0.833243 C -0.725355 -0.792553 -0.700291 -0.750561 -0.677179 -0.706941 C -0.654067 -0.663647 -0.632909 -0.619376 -0.614029 -0.574129 C -0.595475 -0.528556 -0.578874 -0.482332 -0.564551 -0.435457 C -0.550228 -0.388256 -0.53851 -0.34073 -0.528744 -0.292553 C -0.519304 -0.244376 -0.512143 -0.195873 -0.50726 -0.147045 C -0.502378 -0.0982172 -0.500099 -0.0490635 -0.500099 0.0000901423 Z M -0.500099 0.0000901423 " stroke="#ffffff" stroke-width="1" stroke-opacity="1" stroke-miterlimit="4"/><path stroke-linecap="butt" transform="matrix(0.0195461, 0.74764, -0.749744, 0.0196011, 183.766032, 3572.118395)" fill="none" stroke-linejoin="miter" d="M -0.00162847 0.000499871 L 161.459668 0.0000918643 " stroke="#ffffff" stroke-width="15" stroke-opacity="1" stroke-miterlimit="4"/><g fill="#ffffff" fill-opacity="1"><g transform="translate(212.015016, 4932.247732)"><g><path d="M 10.453125 -37.28125 C 10.078125 -37.28125 9.75 -37.234375 9.46875 -37.140625 C 9.195312 -37.054688 8.894531 -36.972656 8.5625 -36.890625 C 8.601562 -37.316406 8.84375 -37.8125 9.28125 -38.375 C 9.726562 -38.945312 10.300781 -39.488281 11 -40 C 11.695312 -40.507812 12.53125 -40.929688 13.5 -41.265625 C 14.46875 -41.609375 15.523438 -41.78125 16.671875 -41.78125 C 17.898438 -41.78125 18.914062 -41.609375 19.71875 -41.265625 C 20.519531 -40.929688 21.148438 -40.328125 21.609375 -39.453125 C 22.078125 -38.585938 22.40625 -37.394531 22.59375 -35.875 C 22.789062 -34.351562 22.890625 -32.429688 22.890625 -30.109375 C 22.890625 -27.109375 22.65625 -24.675781 22.1875 -22.8125 C 21.71875 -20.957031 20.832031 -19.3125 19.53125 -17.875 C 19.0625 -17.363281 18.53125 -16.78125 17.9375 -16.125 C 17.34375 -15.476562 16.75 -14.835938 16.15625 -14.203125 C 15.570312 -13.566406 15.015625 -12.984375 14.484375 -12.453125 C 13.953125 -11.921875 13.539062 -11.53125 13.25 -11.28125 C 11.007812 -9.289062 9.367188 -7.378906 8.328125 -5.546875 C 7.296875 -3.710938 6.632812 -2.328125 6.34375 -1.390625 L 6.34375 0 L 30.625 0 L 33.46875 -11.734375 C 33.550781 -12.023438 33.613281 -12.265625 33.65625 -12.453125 C 33.695312 -12.640625 33.71875 -12.820312 33.71875 -13 C 33.71875 -13.332031 33.550781 -13.5 33.21875 -13.5 C 32.914062 -13.5 32.660156 -13.179688 32.453125 -12.546875 C 32.203125 -11.785156 31.914062 -11.085938 31.59375 -10.453125 C 31.28125 -9.828125 30.878906 -9.289062 30.390625 -8.84375 C 29.910156 -8.394531 29.3125 -8.046875 28.59375 -7.796875 C 27.875 -7.546875 26.960938 -7.421875 25.859375 -7.421875 L 11.859375 -7.421875 C 12.535156 -8.097656 13.21875 -8.675781 13.90625 -9.15625 C 14.601562 -9.644531 15.375 -10.109375 16.21875 -10.546875 C 17.070312 -10.992188 17.992188 -11.4375 18.984375 -11.875 C 19.972656 -12.320312 21.101562 -12.84375 22.375 -13.4375 C 25.632812 -14.914062 28.171875 -17.050781 29.984375 -19.84375 C 31.796875 -22.632812 32.703125 -25.78125 32.703125 -29.28125 C 32.703125 -31.988281 32.269531 -34.226562 31.40625 -36 C 30.539062 -37.78125 29.410156 -39.207031 28.015625 -40.28125 C 26.617188 -41.363281 25.054688 -42.125 23.328125 -42.5625 C 21.597656 -43.007812 19.863281 -43.234375 18.125 -43.234375 C 16.101562 -43.234375 14.285156 -42.925781 12.671875 -42.3125 C 11.066406 -41.695312 9.703125 -40.90625 8.578125 -39.9375 C 7.460938 -38.96875 6.617188 -37.867188 6.046875 -36.640625 C 5.484375 -35.410156 5.203125 -34.1875 5.203125 -32.96875 C 5.203125 -31.0625 5.664062 -29.585938 6.59375 -28.546875 C 7.519531 -27.515625 8.742188 -27 10.265625 -27 C 11.828125 -27 13.113281 -27.460938 14.125 -28.390625 C 15.144531 -29.328125 15.65625 -30.597656 15.65625 -32.203125 C 15.65625 -33.972656 15.179688 -35.257812 14.234375 -36.0625 C 13.285156 -36.875 12.023438 -37.28125 10.453125 -37.28125 Z M 10.453125 -37.28125 "/></g></g></g><g fill="#ffffff" fill-opacity="1"><g transform="translate(250.11045, 4932.247732)"><g><path d="M 1.71875 -21.421875 C 1.71875 -18.679688 2.070312 -15.988281 2.78125 -13.34375 C 3.5 -10.695312 4.566406 -8.347656 5.984375 -6.296875 C 7.398438 -4.253906 9.175781 -2.597656 11.3125 -1.328125 C 13.445312 -0.0546875 15.953125 0.578125 18.828125 0.578125 C 21.660156 0.578125 24.15625 -0.0546875 26.3125 -1.328125 C 28.46875 -2.597656 30.25 -4.253906 31.65625 -6.296875 C 33.070312 -8.347656 34.140625 -10.695312 34.859375 -13.34375 C 35.578125 -15.988281 35.9375 -18.679688 35.9375 -21.421875 C 35.9375 -24.171875 35.578125 -26.851562 34.859375 -29.46875 C 34.140625 -32.09375 33.070312 -34.429688 31.65625 -36.484375 C 30.25 -38.535156 28.46875 -40.179688 26.3125 -41.421875 C 24.15625 -42.671875 21.660156 -43.296875 18.828125 -43.296875 C 15.953125 -43.296875 13.445312 -42.671875 11.3125 -41.421875 C 9.175781 -40.179688 7.398438 -38.535156 5.984375 -36.484375 C 4.566406 -34.429688 3.5 -32.09375 2.78125 -29.46875 C 2.070312 -26.851562 1.71875 -24.171875 1.71875 -21.421875 Z M 23.96875 -31.5625 L 23.96875 -11.15625 C 23.96875 -9.164062 23.867188 -7.492188 23.671875 -6.140625 C 23.484375 -4.796875 23.175781 -3.707031 22.75 -2.875 C 22.332031 -2.050781 21.796875 -1.460938 21.140625 -1.109375 C 20.484375 -0.753906 19.710938 -0.578125 18.828125 -0.578125 C 17.941406 -0.578125 17.171875 -0.753906 16.515625 -1.109375 C 15.859375 -1.460938 15.316406 -2.050781 14.890625 -2.875 C 14.472656 -3.707031 14.164062 -4.796875 13.96875 -6.140625 C 13.78125 -7.492188 13.6875 -9.164062 13.6875 -11.15625 L 13.6875 -31.5625 C 13.6875 -33.550781 13.78125 -35.222656 13.96875 -36.578125 C 14.164062 -37.929688 14.472656 -39.019531 14.890625 -39.84375 C 15.316406 -40.664062 15.859375 -41.253906 16.515625 -41.609375 C 17.171875 -41.972656 17.941406 -42.15625 18.828125 -42.15625 C 19.710938 -42.15625 20.484375 -41.972656 21.140625 -41.609375 C 21.796875 -41.253906 22.332031 -40.664062 22.75 -39.84375 C 23.175781 -39.019531 23.484375 -37.929688 23.671875 -36.578125 C 23.867188 -35.222656 23.96875 -33.550781 23.96875 -31.5625 Z M 23.96875 -31.5625 "/></g></g></g><g fill="#ffffff" fill-opacity="1"><g transform="translate(288.205884, 4932.247732)"><g><path d="M 1.71875 -21.421875 C 1.71875 -18.679688 2.070312 -15.988281 2.78125 -13.34375 C 3.5 -10.695312 4.566406 -8.347656 5.984375 -6.296875 C 7.398438 -4.253906 9.175781 -2.597656 11.3125 -1.328125 C 13.445312 -0.0546875 15.953125 0.578125 18.828125 0.578125 C 21.660156 0.578125 24.15625 -0.0546875 26.3125 -1.328125 C 28.46875 -2.597656 30.25 -4.253906 31.65625 -6.296875 C 33.070312 -8.347656 34.140625 -10.695312 34.859375 -13.34375 C 35.578125 -15.988281 35.9375 -18.679688 35.9375 -21.421875 C 35.9375 -24.171875 35.578125 -26.851562 34.859375 -29.46875 C 34.140625 -32.09375 33.070312 -34.429688 31.65625 -36.484375 C 30.25 -38.535156 28.46875 -40.179688 26.3125 -41.421875 C 24.15625 -42.671875 21.660156 -43.296875 18.828125 -43.296875 C 15.953125 -43.296875 13.445312 -42.671875 11.3125 -41.421875 C 9.175781 -40.179688 7.398438 -38.535156 5.984375 -36.484375 C 4.566406 -34.429688 3.5 -32.09375 2.78125 -29.46875 C 2.070312 -26.851562 1.71875 -24.171875 1.71875 -21.421875 Z M 23.96875 -31.5625 L 23.96875 -11.15625 C 23.96875 -9.164062 23.867188 -7.492188 23.671875 -6.140625 C 23.484375 -4.796875 23.175781 -3.707031 22.75 -2.875 C 22.332031 -2.050781 21.796875 -1.460938 21.140625 -1.109375 C 20.484375 -0.753906 19.710938 -0.578125 18.828125 -0.578125 C 17.941406 -0.578125 17.171875 -0.753906 16.515625 -1.109375 C 15.859375 -1.460938 15.316406 -2.050781 14.890625 -2.875 C 14.472656 -3.707031 14.164062 -4.796875 13.96875 -6.140625 C 13.78125 -7.492188 13.6875 -9.164062 13.6875 -11.15625 L 13.6875 -31.5625 C 13.6875 -33.550781 13.78125 -35.222656 13.96875 -36.578125 C 14.164062 -37.929688 14.472656 -39.019531 14.890625 -39.84375 C 15.316406 -40.664062 15.859375 -41.253906 16.515625 -41.609375 C 17.171875 -41.972656 17.941406 -42.15625 18.828125 -42.15625 C 19.710938 -42.15625 20.484375 -41.972656 21.140625 -41.609375 C 21.796875 -41.253906 22.332031 -40.664062 22.75 -39.84375 C 23.175781 -39.019531 23.484375 -37.929688 23.671875 -36.578125 C 23.867188 -35.222656 23.96875 -33.550781 23.96875 -31.5625 Z M 23.96875 -31.5625 "/></g></g></g><g fill="#ffffff" fill-opacity="1"><g transform="translate(326.301318, 4932.247732)"><g><path d="M 14.453125 -23.328125 L 14.453125 -28.71875 L 1.578125 -26.5625 L 1.578125 -25.484375 L 4.9375 -26.046875 L 4.9375 -1.015625 L 1.578125 -1.015625 L 1.578125 0 L 17.171875 0 L 17.171875 -1.015625 L 14.453125 -1.015625 L 14.453125 -18.703125 C 14.453125 -19.460938 14.585938 -20.285156 14.859375 -21.171875 C 15.140625 -22.054688 15.53125 -22.878906 16.03125 -23.640625 C 16.539062 -24.398438 17.132812 -25.023438 17.8125 -25.515625 C 18.488281 -26.003906 19.226562 -26.25 20.03125 -26.25 C 20.957031 -26.25 21.628906 -25.78125 22.046875 -24.84375 C 22.472656 -23.914062 22.6875 -22.144531 22.6875 -19.53125 L 22.6875 -1.015625 L 19.96875 -1.015625 L 19.96875 0 L 34.921875 0 L 34.921875 -1.015625 L 32.203125 -1.015625 L 32.203125 -18.640625 C 32.203125 -19.523438 32.367188 -20.429688 32.703125 -21.359375 C 33.046875 -22.285156 33.476562 -23.109375 34 -23.828125 C 34.53125 -24.546875 35.125 -25.140625 35.78125 -25.609375 C 36.4375 -26.078125 37.082031 -26.3125 37.71875 -26.3125 C 38.851562 -26.3125 39.585938 -25.738281 39.921875 -24.59375 C 40.265625 -23.457031 40.4375 -21.660156 40.4375 -19.203125 L 40.4375 -1.015625 L 37.71875 -1.015625 L 37.71875 0 L 52.671875 0 L 52.671875 -1.015625 L 49.953125 -1.015625 L 49.953125 -18.578125 C 49.953125 -21.535156 49.101562 -23.835938 47.40625 -25.484375 C 45.71875 -27.128906 43.269531 -27.953125 40.0625 -27.953125 C 38.789062 -27.953125 37.710938 -27.789062 36.828125 -27.46875 C 35.941406 -27.15625 35.191406 -26.753906 34.578125 -26.265625 C 33.960938 -25.785156 33.460938 -25.257812 33.078125 -24.6875 C 32.703125 -24.113281 32.367188 -23.597656 32.078125 -23.140625 C 31.359375 -24.742188 30.269531 -25.9375 28.8125 -26.71875 C 27.351562 -27.5 25.25 -27.890625 22.5 -27.890625 C 21.363281 -27.890625 20.367188 -27.757812 19.515625 -27.5 C 18.671875 -27.25 17.941406 -26.921875 17.328125 -26.515625 C 16.722656 -26.117188 16.1875 -25.644531 15.71875 -25.09375 C 15.257812 -24.550781 14.835938 -23.960938 14.453125 -23.328125 Z M 14.453125 -23.328125 "/></g></g></g><path stroke-linecap="butt" transform="matrix(0.000000000000000046, 0.75, -0.75, 0.000000000000000046, 184.97658, 4863.919976)" fill="none" stroke-linejoin="miter" d="M 0.00253239 0.0000227133 L 288.002549 0.0000227133 " stroke="#ffffff" stroke-width="15" stroke-opacity="1" stroke-miterlimit="4"/><path stroke-linecap="butt" transform="matrix(-0.000000000000000121, 0.750014, -0.75, -0.000000000000000121, 184.973738, 4883.572375)" fill="none" stroke-linejoin="miter" d="M 60.001345 0.00144225 L 1616.977647 0.00144225 " stroke="#ffffff" stroke-width="16" stroke-opacity="1" stroke-miterlimit="4"/><path stroke-linecap="butt" transform="matrix(-0.00000000000000193, 12.000223, -11.999999, -0.00000000000000193, 184.973738, 4883.572375)" fill-opacity="1" fill="#ffffff" fill-rule="nonzero" stroke-linejoin="miter" d="M 3.500089 0.0000901404 C 3.500089 0.0492438 3.497485 0.0980719 3.492927 0.1469 C 3.488045 0.196054 3.480883 0.244556 3.471118 0.292733 C 3.461678 0.34091 3.449634 0.388437 3.435311 0.435312 C 3.420989 0.482512 3.404713 0.528736 3.385833 0.573983 C 3.366953 0.619556 3.34612 0.663827 3.323009 0.707121 C 3.299572 0.750416 3.274507 0.792408 3.247164 0.833424 C 3.21982 0.874114 3.190524 0.913502 3.1596 0.951588 C 3.128351 0.989674 3.095474 1.025806 3.060644 1.060637 C 3.025814 1.095468 2.989682 1.128345 2.951596 1.159595 C 2.913511 1.19052 2.874124 1.219817 2.833434 1.247161 C 2.79242 1.274504 2.750428 1.299569 2.707135 1.323007 C 2.663841 1.346119 2.619571 1.366952 2.573999 1.385832 C 2.528753 1.404713 2.482529 1.420989 2.43533 1.435312 C 2.388456 1.449634 2.340931 1.461679 2.292754 1.471119 C 2.244578 1.480884 2.196076 1.488046 2.146924 1.492929 C 2.098097 1.497486 2.049269 1.50009 2.000117 1.50009 C 1.950964 1.50009 1.901811 1.497486 1.852984 1.492929 C 1.804157 1.488046 1.755655 1.480884 1.707479 1.471119 C 1.659303 1.461679 1.611452 1.449634 1.564578 1.435312 C 1.517704 1.420989 1.471481 1.404713 1.425908 1.385832 C 1.380662 1.366952 1.336392 1.346119 1.292773 1.323007 C 1.249479 1.299569 1.207488 1.274504 1.166799 1.247161 C 1.125784 1.219817 1.086397 1.19052 1.048311 1.159595 C 1.010552 1.128345 0.974094 1.095468 0.939264 1.060637 C 0.904759 1.025806 0.871557 0.989674 0.840633 0.951588 C 0.809383 0.913502 0.780087 0.874114 0.752744 0.833424 C 0.725401 0.792408 0.700336 0.750416 0.677224 0.707121 C 0.654113 0.663827 0.632954 0.619556 0.614075 0.573983 C 0.59552 0.528736 0.578919 0.482512 0.564596 0.435312 C 0.550274 0.388437 0.538555 0.34091 0.52879 0.292733 C 0.51935 0.244556 0.512188 0.196054 0.507306 0.1469 C 0.502423 0.0980719 0.500144 0.0492438 0.500144 0.0000901404 C 0.500144 -0.0490635 0.502423 -0.0982172 0.507306 -0.147045 C 0.512188 -0.195873 0.51935 -0.244376 0.52879 -0.292553 C 0.538555 -0.34073 0.550274 -0.388256 0.564596 -0.435457 C 0.578919 -0.482332 0.59552 -0.528556 0.614075 -0.574129 C 0.632954 -0.619376 0.654113 -0.663647 0.677224 -0.706941 C 0.700336 -0.750561 0.725401 -0.792553 0.752744 -0.833243 C 0.780087 -0.874259 0.809383 -0.913647 0.840633 -0.951733 C 0.871557 -0.989493 0.904759 -1.025952 0.939264 -1.060782 C 0.974094 -1.095288 1.010552 -1.128491 1.048311 -1.159415 C 1.086397 -1.190665 1.125784 -1.219962 1.166799 -1.247306 C 1.207488 -1.27465 1.249479 -1.299715 1.292773 -1.322827 C 1.336392 -1.345939 1.380662 -1.367097 1.425908 -1.385978 C 1.471481 -1.404532 1.517704 -1.421134 1.564578 -1.435457 C 1.611452 -1.44978 1.659303 -1.461498 1.707479 -1.471264 C 1.755655 -1.480704 1.804157 -1.487866 1.852984 -1.492748 C 1.901811 -1.497631 1.950964 -1.49991 2.000117 -1.49991 C 2.049269 -1.49991 2.098097 -1.497631 2.146924 -1.492748 C 2.196076 -1.487866 2.244578 -1.480704 2.292754 -1.471264 C 2.340931 -1.461498 2.388456 -1.44978 2.43533 -1.435457 C 2.482529 -1.421134 2.528753 -1.404532 2.573999 -1.385978 C 2.619571 -1.367097 2.663841 -1.345939 2.707135 -1.322827 C 2.750428 -1.299715 2.79242 -1.27465 2.833434 -1.247306 C 2.874124 -1.219962 2.913511 -1.190665 2.951596 -1.159415 C 2.989682 -1.128491 3.025814 -1.095288 3.060644 -1.060782 C 3.095474 -1.025952 3.128351 -0.989493 3.1596 -0.951733 C 3.190524 -0.913647 3.21982 -0.874259 3.247164 -0.833243 C 3.274507 -0.792553 3.299572 -0.750561 3.323009 -0.706941 C 3.34612 -0.663647 3.366953 -0.619376 3.385833 -0.574129 C 3.404713 -0.528556 3.420989 -0.482332 3.435311 -0.435457 C 3.449634 -0.388256 3.461678 -0.34073 3.471118 -0.292553 C 3.480883 -0.244376 3.488045 -0.195873 3.492927 -0.147045 C 3.497485 -0.0982172 3.500089 -0.0490635 3.500089 0.0000901404 Z M 3.500089 0.0000901404 " stroke="#ffffff" stroke-width="1" stroke-opacity="1" stroke-miterlimit="4"/><path stroke-linecap="butt" transform="matrix(0.0195461, 0.74764, -0.749744, 0.0196011, 184.596525, 4782.1287)" fill="none" stroke-linejoin="miter" d="M 0.000314558 -0.00150044 L 161.461611 -0.00190845 " stroke="#ffffff" stroke-width="15" stroke-opacity="1" stroke-miterlimit="4"/></svg>