<?xml version="1.0" encoding="UTF-8"?><svg id="Layer_1" xmlns="http://www.w3.org/2000/svg" viewBox="0 0 1500 750"><defs><style>.cls-1{fill:#e4dee4;}.cls-2{fill:#b6b2b6;}.cls-3{fill:#231f20;}</style></defs><g><path class="cls-2" d="M969.51,493.01s87.59,3.29,103.67,0c16.08-3.29,72.38-10.31,63.11-22.97s-5.36-8.05-5.36-8.05l14.96,1.42s35.93-22.89,45.75-27.28c9.81-4.39,6.34-17.91,5.74-18.97s-35.44-25.37-47.73-29.19c-12.3-3.82-47.48-23.5-143.23-39.41-95.75-15.9-167.02-15.83-174.71-34.94-7.68-19.1-24.34-56.39-35.7-67.95-11.36-11.56-34.81-26.46-29.18,0,5.63,26.46,9.91,61.5-4.96,61.64-14.87,.14-154.9,18.43-150.33,18.73,4.57,.3-189.59-154.85-311.55-140.52,0,0,89.5,42.32,129.29,79.09s112.15,89.31,112.15,89.31c0,0,12.12,52.52-3.01,63.11,0,0,25.02-20.44,28.68-26.83,3.66-6.39,22.76-23.99,42.55-4.63l19.16-3.27,43.69,22.84s198.45,62.13,202.35,62.73c3.9,.6,94.64,25.13,94.64,25.13Z"/><path class="cls-2" d="M895.94,445.76s-143.32,105.36-190.97,116.28c-1.74,.4-3.35,.67-4.82,.81-41.83,3.9,198.99-4.27,296.28-94.34,97.29-90.07-100.49-22.75-100.49-22.75Z"/><path class="cls-2" d="M686.96,410.86c-2.94,2.5-5.87,5.01-8.89,7.42l2.53,4.17,7.03-10.84c.8-1.24-1.95-5.42-2.84-4.12-2.78,4.1-5.67,8.13-8.54,12.17l3.25,4.72c2.61-5.06,4.22-10.73,4.98-16.36,.18-1.31-.66-2.83-1.43-3.82-.5-.64-1.5-1.76-2.27-.91-2.9,3.18-5.16,6.95-6.6,11.01l4.01,4.63c-.2-3.8-.5-7.6-.76-11.39-.1-1.41-.85-3.04-1.8-4.09-.34-.38-1.89-1.85-2.29-.74-2.19,6.03-2.57,12.44-1.26,18.71,.28,1.36,1,2.75,1.95,3.76,.5,.53,1.46,1.34,2.08,.52,2.55-3.37,3.17-7.53,2.59-11.63-.18-1.24-.87-2.58-1.66-3.54-.46-.57-1.22-1.42-2.06-1.15-1.93,.61-3.59,2.14-4.46,3.97-1.2,2.51-1.08,5.13-.36,7.76,.24,.87,.79,1.94,1.37,2.64,.39,.47,.94,1.16,1.6,1.22,2.97,.25,6.39,.13,9.13-1.17l-3.2-6.26c-1.22,1.24-2.41,2.48-3.44,3.89-.72,.98,.83,4.88,2.25,4.4,1.54-.52,2.96-1.26,4.39-2.02,1.17-.62,.29-3.02-.1-3.87-.49-1.06-1.4-2.85-2.8-2.67s-2.79,.48-4.22,.59-2.87,.12-4.31,0l2.97,3.86c.12,.48,.15,.59,.1,.32-.03-.17-.03-.16,0,.05,.08,.46,0-.2,0-.3-.04-.48-.04,.13,0-.15,.03-.2,.05-.39,.09-.59,.14-.72,.34-1.22,.77-1.92,.82-1.34,2.01-2.26,3.52-2.74l-3.72-4.69c-.09-.64,.02,.53,.02,.65,0,.2,0,.39,0,.59,0,.33,0,.39,0,.2-.05,.78-.2,1.57-.4,2.33-.38,1.45-1.12,2.78-2,3.98l4.02,4.28c-.12-.55-.3-1.54-.34-1.84-.03-.26-.13-1.2-.16-1.7-.09-1.26-.11-2.49-.02-3.72,.19-2.64,.7-5.26,1.59-7.76l-4.08-4.83c.28,3.85,.51,7.71,.85,11.56,.13,1.53,.98,3.13,2.06,4.21,.74,.74,1.72,1.23,2.1-.06,1.22-4.1,3.39-7.86,6.16-11.1l-3.69-4.73c-.62,5.57-2.17,10.82-4.41,15.94-.49,1.11,.32,2.71,.97,3.6,.35,.49,1.65,2.12,2.29,1.12,2.69-4.27,5.35-8.56,8.12-12.77l-2.84-4.12-6.92,10.99c-.47,.74,.27,2.14,.64,2.74,.23,.37,1.28,1.93,1.89,1.43,2.97-2.43,6.02-4.76,9.07-7.09,1.38-1.05-1.53-5.54-2.51-4.7h0Z"/><path class="cls-2" d="M652.25,433.69l-.9,.39c-1.39,.59,.44,4.76,1.69,4.82s2.24,.09,3.42-.11,2.25-.39,3.37-.61c2.24-.44,4.47-.93,6.68-1.47,4.34-1.08,8.62-2.48,12.81-4.04,8.45-3.13,16.62-7.09,24.25-11.88,4.32-2.72,8.48-5.68,12.47-8.87l-3.44-6.71c-10.34,12.01-27.14,14.44-41.47,18.89-4.43,1.37-8.77,3-12.88,5.16-1.32,.7-.58,3.27-.18,4.32s1.37,3.46,2.89,3.21c18.19-2.99,34.03-13.25,51.46-18.66,4.93-1.53,9.98-2.64,15.12-3.11l-2.96-7.6c-16.66,7.99-33.56,15.43-50.71,22.31-1.41,.56-.61,3.46-.25,4.44,.41,1.11,1.37,3.58,2.93,3.34,13.87-2.17,27.47-7.55,38.82-15.84,.43-.31,.41-1.54,.39-1.93-.04-.81-.25-1.6-.52-2.36-.21-.57-1.4-3.33-2.42-2.69-12.02,7.45-24.96,12.72-38.95,15.06l2.68,7.78c17.25-6.89,34.27-14.38,50.99-22.48,1.36-.66,.47-3.42,.07-4.4-.5-1.21-1.44-3.34-3.03-3.2-18.3,1.61-34.25,11.63-51.21,17.73-4.92,1.77-9.96,3.22-15.12,4.11l2.71,7.52c14.48-7.62,31.61-8.41,45.68-16.96,3.64-2.21,6.97-4.94,9.73-8.2,1.24-1.46-1.97-7.9-3.44-6.71-13.85,11.25-29.9,19.86-46.99,25.03-2.43,.74-4.87,1.45-7.33,2.08-1.16,.3-2.33,.58-3.5,.85-.62,.14-1.25,.24-1.86,.41-.66,.18-1.27,.53-1.91,.8l2.22,4.6,.7-.8c.74-.85-.74-4.73-2.02-4.18h0Z"/><path class="cls-2" d="M697.36,410.96c-6.04,3.1-11.5,7.33-16.05,12.37l3.01,6.65c2.5-3.66,4.93-7.36,7.39-11.05,.89-1.34,.24-3.52-.34-4.87-.24-.56-1.73-3.29-2.62-2.03-3.75,5.32-8.32,9.99-13.54,13.88l3.07,3.09c-.81-2.7-1.46-5.68-1.76-8.67-.32-3.2-.34-6.4-.06-9.61,.13-1.53-.36-3.29-1.14-4.61-.43-.72-1.34-1.98-2.24-1.2-3.18,2.78-5.4,6.68-6.22,10.82-.45,2.28-.51,4.55-.37,6.87,.11,1.9,.31,3.68,.12,5.37s-1.14,3.48-2.33,4.64c-.75,.73-1.68,1.23-2.6,1.7-1.06,.55-1.86,1.47-2.9,2-1.13,.57-2.52,.79-3.74,1.07s-2.53,.6-3.79,.89-2.57,.48-3.86,.69-2.76,.62-4.11,.54c-1.72-.11-.53,4.9,.94,5.08,.83,.1,1.55,.23,2.38,.1,.72-.12,1.45-.23,2.17-.35,1.59-.27,3.16-.6,4.73-.95,3.06-.69,6.1-1.45,9.13-2.27,5.9-1.6,11.71-3.6,17.43-5.76,11.57-4.37,22.86-9.66,33.46-16.04,6.02-3.62,11.76-7.62,17.33-11.91,1.75-1.35-1.1-7.53-2.53-6.55-20.12,13.86-42.1,25.24-65.45,32.54-3.32,1.04-6.63,2.06-9.98,2.99-1.67,.46-3.36,.88-5.03,1.35-.83,.24-1.67,.47-2.5,.7-.93,.25-1.57,.57-2.39,1.06l1.55,5.09c1.64-1.11,3.79-1.64,5.64-2.33,1.97-.74,4.01-1.31,6.02-1.91,.94-.28,1.86-.54,2.83-.72,1.12-.22,2.11,.12,3.22,.15,1.52,.03,3.09-.45,4.45-1.08,6.35-2.95,2.71-12.19,3.72-17.34,.73-3.74,2.81-6.99,5.69-9.44l-3.37-5.81c-.76,8.03,.12,16.15,2.48,23.86,.29,.94,1.56,4.26,3.07,3.09,5.18-3.99,9.69-8.75,13.44-14.11l-2.96-6.89c-2.48,3.76-4.99,7.5-7.44,11.29-.85,1.31-.17,3.44,.42,4.73,.3,.66,1.62,3.06,2.59,1.92,4.34-5.09,9.52-9.22,15.43-12.35,1.91-1.01-.75-7.51-2.39-6.67h0Z"/><path class="cls-2" d="M725.16,423.85c2.08-2.63,.09-6.65-1.97-8.66-.45-.44-.81-.04-.94,.42-.22,.77,.03,1.69,.28,2.42,1.55,4.6,5.12,7.86,9.51,9.76,4.11,1.78,9.06,2.9,13.54,2.78,1.18-.03,.71-2.99,.6-3.49-.25-1.15-.8-3.22-2.09-3.66-3.06-1.05-5.84-2.66-8.34-4.72-1.03-.85-1.46,.49-1.5,1.33-.06,1.4,.36,3.25,1.29,4.33,1,1.17,1.93,2.4,2.68,3.75,.33,.59,.62,1.15,.86,1.68,.17,.39,.32,.79,.48,1.18,.25,.64,0-.06,.22,.65l.9-4.07c-4.44-1.9-8.96-3.65-13.44-5.46-1.37-.55-1.29,2.2-1.23,2.77,.15,1.38,.7,3.86,2.02,4.64,2.96,1.73,5.91,3.46,8.87,5.2,2.73,1.61,5.44,3.47,8.33,4.76,2.35,1.04,5.09,1.25,7.01-.71,2.59-2.63,1.44-7.21-.16-10.03l-1.67,5.1,.09,.16-1.27-4.21,.02,.15,.16-1.68c.17-.53,.31-.2,.08-.31l-.41,.29c.21-.21,.47-.16,.76,.16l1.75,3.02-.06-.17c-.36-1-.87-2.61-1.94-3.08-.97-.43-1.26,.42-1.41,1.26-.31,1.78,.53,4.28,1.67,5.64,.5,.6,1.31,1.38,2.18,1.22,3-.55,.82-6.28,.07-7.55-.56-.96-2.14-2.6-2.79-.79s.23,4.33,1.11,5.89c-.16-3.96-.47-5.16-.92-3.61,.09,.08,.04,.17-.15,.28-.21,.35-.55,.71-.88,.94-.6,.42-1.43,.59-2.14,.57-2.21-.08-4.34-1.58-6.2-2.63-4.3-2.43-8.59-4.86-12.88-7.29l1.28,7.69c4.44,1.71,8.86,3.48,13.34,5.09,2.08,.75,.78-4.47,.57-5.04-1.39-3.92-3.43-7.61-6.26-10.68l-.21,5.66c2.91,2.18,5.99,4.06,9.2,5.74l-1.07-7.13c-6.87-1.03-16.41-.43-20.37-7.52l.08,3.54c.72-.08,1.09-.06,1.31,.77s-.05,1.71-.46,2.44c-.15,.27,.28,1.48,.51,1.18h0Z"/><path class="cls-2" d="M1008.64,494.12c1.25,1.24,2.33,2.64,3.58,3.89s2.6,2.44,3.99,3.55c2.77,2.19,5.82,4.25,9.06,5.67,1.3,.57,1.4-1.97,1.38-2.58-.05-1.48-.44-3.58-1.63-4.61-4.53-3.92-10.91-5.4-16.63-3.44-1.3,.44-1.06,2.77-.92,3.76,.17,1.24,.65,3.61,2.02,4.13,2.86,1.1,5.72,2.2,8.58,3.31s5.51,2.3,8.4,2.94c2.43,.54,5.04,.7,7.36-.36,2.48-1.14,4-2.93,4.82-5.53,.49-1.54,.03-3.74-.61-5.18-.37-.83-1.27-2.39-2.35-1.6-.81,.6-1.59,1.23-2.38,1.86-1.84,1.47,.03,9.38,2.31,7.83,.82-.55,1.63-1.1,2.43-1.69l-2.96-6.78c-.44,1.39-2.42,2.6-3.93,3.06-2.32,.72-4.73,.39-7.02-.26-5.17-1.48-10.23-3.6-15.28-5.45l1.1,7.89c4.98-1.81,10.76-1.05,14.88,2.38l-.25-7.19c-2.94-1.22-5.79-2.5-8.47-4.25-2.5-1.63-5.29-3.68-7.08-6.09-.82-1.11-1.51-.51-1.63,.67-.14,1.31,.28,3.1,1.24,4.05h0Z"/><path class="cls-1" d="M1006.82,474.63c-2.63,.54-1.22,3.83,0,4.99,2.45,2.3,5.3,2.24,8.36,1.66,6.19-1.17,12.13-3.09,18.01-5.34,12.07-4.63,23.92-9.89,35.83-14.91,6.93-2.92,13.85-5.87,20.79-8.77,2.03-.85-2.47-3.77-3.05-3.99-2.5-.92-5.01-1.32-7.63-.68-2.47,.61-4.7,1.8-6.8,3.21-3.86,2.58-7.56,5.44-11.14,8.4-7.25,5.99-13.81,12.62-20.12,19.58-.46,.5,.16,1.63,.42,2.01,.56,.79,1.28,1.43,2.06,2,.83,.6,1.78,1.18,2.76,1.48,.7,.22,1.89,.63,2.56,.18,8.2-5.41,16.12-11.31,24.08-17.08s15.3-11.09,22.96-16.63l-8.7-6.65c-1.94,2.26-4.07,4.36-6.02,6.63s-3.85,4.55-5.73,6.87c-3.75,4.63-7.29,9.41-10.88,14.16-.61,.8-.04,2.17,.39,2.87,.71,1.17,1.66,2.15,2.71,3.03,1.11,.94,2.38,1.85,3.75,2.38,1.01,.39,2.53,1.03,3.6,.52,4.93-2.38,9.61-5.49,14.06-8.65s8.91-6.78,13.02-10.59l-11.72-8.88c-4.9,6.6-8.8,13.78-11.73,21.46-.38,.98,.98,3.04,1.45,3.66,.98,1.28,2.15,2.38,3.45,3.34,1.74,1.28,4.93,3.38,7,1.74,7.98-6.28,15.9-12.63,23.8-19.02l-11.9-9.22c-2.91,5.34-5.79,10.7-8.63,16.08-1.23,2.35,1.64,5.17,3.19,6.53,1.19,1.04,2.55,2.06,4.03,2.65,1.13,.46,2.72,1.13,3.92,.6,6.15-2.68,11.73-6.76,16.35-11.62l-12.21-8.46c-.28,2.67-.51,5.35-.74,8.03-.21,2.43,2.49,5.1,4.2,6.41,1.92,1.47,4.65,3.29,7.19,2.67,3.04-.75,5.82-2.3,8.18-4.35l-9.35-3.75c3.09,3.13,7.6,6.56,12.28,6.25l-8.8-10.95c-2.86,1.15-5.71,2.25-8.48,3.61s-5.37,2.69-7.99,4.17c-4.01,2.26,4.77,10.29,8.14,9.36,3.15-.87,6.25-1.84,9.35-2.86s5.93-2.22,8.87-3.42c2.56-1.05,.24-4.51-.79-5.78s-2.25-2.47-3.62-3.35c-1.2-.77-2.91-1.94-4.4-1.82-.26,.03-.51,.04-.77,.03-.44-.06-.51-.05-.2,.03,.88,.4,1.02,.46,.41,.17,1.18,.61,2.22,1.38,3.13,2.33-1.56-1.61-3.33-2.97-5.42-3.79-1.27-.5-2.78-.97-3.93,.05-.74,.65-1.51,1.25-2.33,1.79l.76-.5c-1.67,1.05-3.45,1.84-5.35,2.36l11.39,9.08c.28-2.71,.57-5.43,.8-8.14s-3.11-5.57-5.09-6.94c-1.62-1.12-5.31-3.42-7.13-1.51-2.54,2.67-5.35,5.03-8.41,7.08l.75-.5c-2.3,1.52-4.72,2.86-7.21,4.05l11.15,9.78c2.92-5.36,5.79-10.74,8.64-16.13,1.36-2.57-2.15-5.81-3.97-7.17-1.96-1.46-5.56-3.91-7.93-2.05-7.86,6.18-15.69,12.39-23.47,18.68l11.91,8.74,.17-.43-.33,.82c3-7.39,6.71-14.41,11.37-20.89,.64-.89,.05-2.25-.39-3.05-.81-1.46-2.26-2.89-3.59-3.86s-2.98-2.06-4.69-2.41c-1.07-.22-2.17-.38-3.04,.45-4.6,4.41-9.52,8.45-14.7,12.17l.69-.49c-3.6,2.57-7.38,4.81-11.13,7.16l10.44,8.8c2.99-5.14,6.31-10.09,9.71-14.97,1.65-2.37,3.34-4.72,5.06-7.04s3.52-5,5.46-7.32c.51-.61,.01-1.73-.29-2.27-.6-1.09-1.68-2.16-2.67-2.89-1.45-1.07-4-2.79-5.75-1.5-7.54,5.6-15.08,11.2-22.61,16.8s-15.59,11.45-23.09,17.52l7.81,5.67c5.24-7.03,11.38-13.48,17.87-19.36,3.2-2.9,6.53-5.65,9.97-8.26,2.76-2.1,6.96-5.53,10.68-4.23l-3.91-4.29c-10.65,4.65-21.33,9.22-31.99,13.84-10.22,4.42-20.35,9.28-30.92,12.85-2.89,.98-5.81,1.89-8.77,2.64-1.26,.32-2.53,.46-3.79,.7-.87,.17,1.74-1.1,1.25,1.12,.03-.12-.1-.28-.07-.42,.09-.49,.05-.8,.58-.99,.92-.33-.3-1.67-.63-1.97-.72-.65-1.77-1.3-2.78-1.09h0Z"/><path class="cls-1" d="M963.82,478.24l.47,.97c-.03-.11,0-.18,.07-.22,.12-.04,.37-.3,.46-.36l-3.53-1.11c2.18,2.04,5.37,3.16,8.12,4.24,2.45,.97,4.97,1.79,7.51,2.5,5.07,1.41,10.28,2.21,15.49,2.89,10.62,1.38,21.28,2.15,31.99,2.28,21.84,.27,43.75-1.88,65.16-6.21,5.82-1.18,11.6-2.51,17.34-4.01,2.87-.75,5.68-1.5,8.42-2.63,1.21-.5,2.5-.94,3.61-1.63,1.2-.76,2.15-1.81,3.2-2.75s-1.3-3.16-1.81-3.58c-1.37-1.13-3.15-2.22-4.98-2.2-1.51,.02-3.05-.09-4.55,.02s-2.82,.4-4.22,.66c-2.81,.52-5.55,1.09-8.31,1.82-4.96,1.3-9.95,2.49-14.97,3.55-10.21,2.16-20.52,3.85-30.89,5.02-20.21,2.27-40.6,2.6-60.9,1.52-5.44-.29-10.86-.74-16.28-1.41-2.37-.29-4.73-.64-7.04-1.25-1.23-.32-2.46-.69-3.66-1.11s-2.74-1.39-4.02-1.29c-.7,.06-1.14,.32-.96,1.12,.49,2.24,3.13,5.94,5.87,5.16,.96-.28-1.16-1.91-1.59-1.97h0Z"/><path class="cls-1" d="M1111.17,468.47c-7.83,2.31-16.02,3.66-24.06,5.05s-16.28,2.61-24.46,3.61c-16.29,1.98-32.67,3.14-49.08,3.48-9.29,.19-18.68,.37-27.95-.44-1.78-.16-1.41,1.66-.8,2.76,.79,1.42,2.54,3.64,4.34,3.84,10.98,1.2,22.32,.52,33.2-1.3s21.8-4.64,32.19-8.42c5.73-2.09,11.77-4,17.08-7.05,1.69-.97-.02-3.25-.94-4.22-1.31-1.38-3.49-3.25-5.58-2.88-5.43,.98-10.68,2.86-15.95,4.45s-10.27,3.24-15.44,4.74c-10.09,2.93-20.38,5.61-30.81,7-5.91,.79-11.92,1.05-17.88,1.05l4.75,6.66c8.21-.19,16.42,.09,24.63-.06s16.54-.52,24.79-1.09c16.59-1.15,33.12-3.14,49.5-5.96,9.24-1.59,18.37-3.77,27.61-5.32,1.64-.28-.21-2.95-.67-3.45-.91-1.01-2.89-2.9-4.47-2.44h0Z"/><path class="cls-1" d="M993.19,472.13l.11,.12-1.22-1.74,.04,.11-.15-.93c.02-.08,.07-.15,.13-.19-1.22,.15-.4,.78,2.49,1.88l.96,1.88-.02-.06-.19,.86c.22-.17,.17-.5,.34-.66,.22-.21,.55-.25,.85-.28,.97-.11,2.02,.08,3,.11,2.42,.07,4.85,.09,7.28,0,4.75-.17,9.47-.56,14.16-1.3,9.16-1.44,18.23-3.68,26.93-6.9,2.34-.87,4.76-1.7,7-2.81,2.38-1.18,4.65-2.57,6.86-4.04,.58-.39,.05-1.78-.14-2.14-.46-.9-1.11-1.67-1.84-2.37-1.12-1.08-3.51-3.12-5.26-2.49-10.48,3.73-20.63,8.17-31.45,10.91-5.28,1.34-10.62,2.27-15.98,3.15-2.6,.43-5.21,.74-7.82,1.07-1.29,.16-2.57,.31-3.87,.44-1.16,.11-2.44,.1-3.55,.5-3.99,1.42-.15,6.64,2.68,7.02,.51,.07,1.4-.05,1.75-.48,1.03-1.25-1.19-3.29-1.93-3.93-.49-.43-1.95-1.37-2.45-.52s.79,2.27,1.28,2.8h0Z"/><path class="cls-1" d="M996.59,469.21c-1.5,1.05-2.94,2.18-4.61,2.95-.97,.45-.05,1.76,.35,2.3,5.94,7.88,16.63,5.36,24.76,3.27,8.9-2.29,17.43-5.87,25.54-10.18,8.21-4.36,16.06-9.42,23.56-14.9s14.32-11.8,22.95-15.02c5.22-1.95,10.69-2.24,16.2-1.65,2.63,.28,5.19,.9,7.79,1.39,1.35,.25,2.69,.5,4.03,.78s2.63,.2,4,.3c1.22,.08,1.01-1.14,.59-1.83-.78-1.26-2.16-2.17-3.49-2.75s-2.56-1.3-3.93-1.73-2.86-.89-4.3-1.31c-2.35-.69-4.76-1.17-7.18-1.54-5.12-.78-10.24-1.04-15.36-.08-8.87,1.66-16.09,7.52-22.98,12.97-13.91,11.02-28.66,21.3-45.41,27.49-4.61,1.71-9.35,3.08-14.17,4.04-2.04,.41-4.16,.83-6.25,.8-1.46-.02-3.47-.34-4.27-1.14l1.11,2.68c1.38-1.43,3.01-2.49,4.63-3.64,.98-.7-2.25-4.12-3.54-3.21h0Z"/><path class="cls-1" d="M1112.53,436c-1.4-1.6-.49-.42-.18,.14,.2,.37,.41,.74,.62,1.1,.55,.94,1.15,1.85,1.77,2.75,1.11,1.61,2.34,3.12,3.64,4.57,2.79,3.11,6.04,5.84,9.54,8.12,3.16,2.06,6.63,3.75,10.21,4.95s7.6,2.31,11.49,1.64c1.64-.29,.06-2.85-.35-3.42-1.11-1.5-2.73-2.95-4.61-3.32-1.68-.34-3.36-.64-5.05-.93-.78-.13-1.55-.27-2.32-.44-.41-.09-.82-.18-1.23-.29-.09-.02-1.03-.28-.54-.14-1.51-.44-3-.98-4.44-1.61-.67-.29-1.33-.59-1.97-.92,.68,.35-.25-.14-.39-.22-.37-.2-.74-.42-1.11-.63-1.21-.71-2.38-1.46-3.48-2.3-.63-.48-1.24-.98-1.84-1.5-.85-.74,.24,.27-.38-.35-.26-.26-.53-.51-.79-.77-.52-.52-1.02-1.06-1.52-1.61-.31-.36-.33-.37-.04-.04-.12-.14-.24-.29-.36-.43-.28-.34-.55-.68-.82-1.02-1.08-1.4-1.54-2.11-2.42-3.65l.49,1.27v-.23c-.13-1.86-2.66-4.36-4.45-4.66-2.58-.42,.02,3.33,.54,3.92h0Z"/><path class="cls-1" d="M1118,443.73c4.49,2.13,8.81,4.61,13.47,6.4s9.56,2.96,14.57,2.9c4.5-.05,8.68-1.41,12.42-3.89,3.28-2.18,6.11-4.94,8.9-7.69,3.13-3.08,6.38-5.9,10.57-7.39l-4.87-5.65c-6.42,3.24-13.03,6.11-19.71,8.75s-13.39,5.22-20.29,7.02l5.56,7.36c4.31-1.56,8.52-3.48,12.75-5.24s8.47-3.53,12.7-5.29c3.22-1.34-2.99-8.91-5.74-8.35-9.22,1.89-18.18,4.75-26.92,8.25-2.04,.82-.42,3.66,.45,4.87s1.84,2.34,3.05,3.15c.67,.45,1.91,1.36,2.76,1.06,5.62-2,10.65-5.19,14.82-9.46,1.37-1.41-.75-4.32-1.58-5.38-.76-.97-1.65-1.94-2.68-2.62-.76-.51-1.89-1.3-2.86-1.08-7.18,1.64-14.01,4.73-19.96,9.07-.69,.5-.33,1.89-.14,2.47,.43,1.3,1.36,2.66,2.27,3.66,1.07,1.16,3.97,4.19,5.81,2.87,4.34-3.11,8.55-6.39,12.62-9.84,1.54-1.3-.93-4.63-1.69-5.58-1.23-1.54-3.55-4.1-5.79-3.81-2.11,.27-4.22,.54-6.34,.82l7.5,9.41c7.17-4.04,15.28-5.95,23.42-6.77,4.13-.42,8.28-.57,12.42-.58,2.14,0,4.27,.05,6.41-.04,1.99-.08,3.96-.41,5.94-.59,1.87-.17,.13-3.24-.27-3.83-1.07-1.59-2.99-3.74-5.02-4.04-2.23-.33-4.47-.79-6.72-.98s-4.59-.24-6.9-.24c-4.35,0-8.7,.16-13.02,.61-8.53,.89-16.9,3.08-24.41,7.33-.72,.41-.3,2.04-.13,2.52,.42,1.13,1.08,2.14,1.83,3.08,1.23,1.54,3.57,4.11,5.81,3.82,2.1-.28,4.2-.55,6.31-.84l-7.47-9.4c-4.02,3.49-8.17,6.82-12.46,9.97l7.95,8.99c5.55-4.14,11.78-7.1,18.51-8.71l-7.12-9.08c-3.74,3.94-8.32,7.13-13.35,9.21l6.87,8.82c8.25-3.81,16.96-6.61,25.79-8.72l-6.29-8.12c-4.29,1.95-8.57,3.89-12.86,5.84s-8.33,3.61-12.36,5.68c-.56,.29-.16,1.64-.04,1.95,.35,.87,.89,1.64,1.49,2.35,.65,.76,1.4,1.52,2.25,2.04,.58,.35,1.64,1.07,2.34,.79,6.68-2.67,13.45-5.08,20.03-8s12.94-6.12,19.27-9.48c2.35-1.25-2.94-6.05-4.87-5.65-7.67,1.58-12.96,8.02-18.78,12.68-3.14,2.51-6.64,4.37-10.63,5.06-4.35,.76-8.79,.1-12.99-1.15-4.92-1.45-9.74-3.55-14.13-6.19-1.09-.65-2.81-.97-2.35,.87s2.27,3.3,3.82,4.04h0Z"/><path class="cls-1" d="M1193.43,422.55c-1.13,.66-2.45,.91-3.62,1.48-.85,.41-1.66,.91-2.49,1.37-1.9,1.05-3.74,2.2-5.6,3.32-3.77,2.27-7.53,4.55-11.24,6.93s-7.24,4.64-10.85,6.96-7.42,4.63-10.92,7.25c-1.72,1.29,3.05,7.04,5.06,5.87,3.76-2.2,7.3-4.74,10.89-7.19s7.3-4.99,10.96-7.48,7.07-4.97,10.57-7.51c1.74-1.26,3.51-2.5,5.2-3.82,.83-.65,1.74-1.27,2.49-2.01,.81-.8,1.47-1.74,2.39-2.44,.82-.62-1.83-3.3-2.85-2.71h0Z"/><path class="cls-1" d="M1000.13,456.28c-1.55,1.52,1.28,3.77,2.45,4.47,1.81,1.08,4.08,1.28,6.15,1.33,4.22,.1,8.39-.65,12.37-2.02,8.22-2.83,15.43-7.83,22.56-12.68,7.66-5.21,15.52-9.94,23.99-13.71s17.33-6.67,26.38-8.67c10.06-2.21,20.25-3.13,30.5-3.86,1.07-.08,.56-1.12,.12-1.66-.7-.85-1.82-1.63-2.95-1.73-17.47-1.57-35.52,2.21-51.77,8.55-8.15,3.18-15.97,7.15-23.36,11.83s-13.6,9.52-20.78,13.7c-3.88,2.26-8.01,4.21-12.38,5.33-2.05,.53-4.15,.87-6.26,.97-1.1,.05-2.21,.03-3.31-.03-.49-.03-.98-.08-1.47-.14,.07,0-.36-.11-.37-.1,.27-.16,.67,1.33,.6,.29-.04-.66-1.78-2.58-2.49-1.89h0Z"/><path class="cls-1" d="M1143.29,421.69c12.72-3.02,25.83-2.27,38.39,1.24,.85,.24,.54-.83,.34-1.23-.39-.8-1.13-1.54-1.97-1.86-12.69-4.72-26.73-5.42-39.99-2.85-1.61,.31,1.53,5.1,3.23,4.69h0Z"/><path class="cls-1" d="M1138.33,423.7c-17.22,3.68-34.24,8.28-50.96,13.82-4.65,1.54-9.22,3.37-13.77,5.18-.74,.29,1.11,3.12,1.97,2.83,16.77-5.48,33.65-10.68,50.81-14.8,4.83-1.16,9.68-2.24,14.54-3.26,1.31-.27-1.26-4.06-2.6-3.77h0Z"/><path class="cls-1" d="M1067.95,444.58c12.36-8.9,29.15-11.55,43.84-7.95,4.08,1,8.01,2.53,11.67,4.58,.65,.36,2.14,1.01,2.18-.26s-1.36-2.62-2.24-3.33c-4.45-3.59-9.06-6.95-13.79-10.15l2.05,4.72c3.41,.32,6.72,1.22,9.87,2.55,1.44,.6,2.81,1.28,4.15,2.08,.74,.44,1.16,.72,1.67,1.09,.34,.24,.68,.49,1.01,.75,.11,.09,1.11,.9,.66,.51l.66-3.57c-3.94-2.03-7.9-4.03-11.85-6.03l1.75,5.48c1.28,.38,2.85,.96,3.85,1.48,.62,.32,1.22,.68,1.81,1.06,.33,.21,.83,.59,1.5,1.14l-.91-5.06c-1.58-.72-3.1-1.56-4.57-2.5-.89-.57-.94-.61-1.64-1.13s-1.38-1.07-2.05-1.63l2.28,5.47c2.8-.24,5.63,.04,8.34,.81,1.19,.34,2.33,.84,3.46,1.34s-.48-.31,.59,.3c.3,.17,.59,.34,.88,.52s.58,.37,.86,.56c.77,.51-.39-.31,.41,.31l-.87-5.48c-6.99-2.91-14.11-5.84-21.59-7.22s-14.46-.68-21.51,1.51-13.75,5.08-20.45,7.96-13.85,6.14-20.66,9.47c-7.45,3.64-14.87,7.43-21.81,11.99-1.28,.84,.75,3.7,1.34,4.38,.87,1.02,2.53,2.85,4.04,2.17,6.75-3.07,13.32-6.51,19.96-9.82s13.26-6.43,20-9.4c6.59-2.9,13.26-5.73,20.05-8.13,6.65-2.35,13.52-3.88,20.6-3.1,7.93,.88,15.36,3.83,22.7,6.79,1.08,.44,2.37,.37,2.17-1.11-.22-1.66-1.77-3.41-3.04-4.37-6.04-4.55-13.24-7.05-20.85-6.24-1.04,.11-.68,1.5-.45,2.07,.54,1.35,1.63,2.49,2.73,3.4,3.55,2.9,7.47,5.3,11.68,7.14,1.01,.44,2.19,.26,1.99-1.06-.24-1.59-1.71-3.05-2.9-4-3.34-2.67-7.08-4.58-11.19-5.72-1.65-.46-1.17,1.6-.78,2.35,.87,1.66,2.37,2.93,4.04,3.74,3.93,1.91,7.85,3.82,11.8,5.7,.93,.44,2.01,.18,1.81-1-.25-1.48-1.62-2.73-2.71-3.62-6.36-5.26-13.88-8.48-22.12-9.16-1.1-.09-1.17,.79-.82,1.63,.55,1.32,1.71,2.33,2.87,3.1,4.26,2.84,8.39,5.87,12.4,9.06l-.06-3.6c-14.14-7.77-31.69-9.14-46.66-2.91-4.13,1.72-8.07,3.95-11.67,6.61-1.09,.8,2.25,4.66,3.55,3.73h0Z"/><path class="cls-1" d="M1039.54,451.86c-3.75,1.74-7.96,3.03-12.13,2.46l3.16,4.15c6.1-3.31,12.22-6.61,18.54-9.48,6.29-2.86,12.73-5.36,19.28-7.53l-4.58-6.04c-17.41,6.56-34.41,14.36-50.72,23.31-4.59,2.52-9,5.22-13.3,8.21-1.13,.79,1.02,3.37,1.55,3.91,.88,.89,2.47,2.43,3.83,1.74,8.23-4.15,16.25-8.67,24.43-12.93,8.1-4.22,16.28-8.29,24.61-12.04,4.7-2.12,9.43-4.16,14.18-6.15,1.39-.59,.14-2.54-.47-3.32s-1.34-1.53-2.19-2.07c-.47-.3-1.35-.86-1.92-.65-12.95,4.84-25.81,10.96-37.08,19.02-1.24,.88,2.32,4.58,3.55,4.17,3.95-1.3,7.93-2.02,11.69-3.9,.77-.39-1.51-3.28-2.43-2.86h0Z"/><path class="cls-1" d="M561.05,346.97l-.37-.23,.44,.28c.28,.15,.62,.27,.92,.38,.45,.17,.91,.32,1.37,.46,1.06,.35,2.13,.7,3.2,1.03,2.1,.65,4.17,1.37,6.25,2.08,4.01,1.36,8.2,2.98,11.9,4.63,7.87,3.51,15.74,7.83,22.77,12.52,4.32,2.88,8.28,6.33,12.72,9.03,1.24,.76,3.19,1.04,4.59,.59,.95-.3,1.94-1.33,1.07-2.31-3.05-3.42-7.14-5.98-10.94-8.5s-8-5.12-12.17-7.39c-8.21-4.48-16.96-8.12-25.84-11-2.54-.82-5.1-1.53-7.69-2.19-1.25-.32-2.5-.61-3.76-.86-.63-.12-1.26-.24-1.9-.34-.36-.05-.73-.12-1.09-.15-.33-.03-1.64-.27-.51,.05-.64-.18-2.37-.56-2.73,.35s1.15,1.45,1.78,1.57h0Z"/><path class="cls-1" d="M593.76,365.17c-1.92-.64-3.85-1.24-5.7-2.05-.79-.35-1.61-.64-2.31-1.15-.84-.62-1.59-1.08-2.59-1.45s-2.92-.56-3.8,.3,.02,1.84,.9,2.26c5.25,2.52,10.57,4.87,15.72,7.61s10.2,5.7,15.1,8.88l4.73-2.91c-7.89-4.96-15.92-9.7-23.89-14.53s-16.02-9.47-23.85-14.47c-1.4-.89-3.63-1.26-5.24-.8-1.2,.35-2.11,1.38-1.28,2.59,4.72,6.82,13.16,9.58,20.69,11.99,3.57,1.14,6.77,2.19,10.35,3.65,1.81,.74,3.59,1.53,5.34,2.39,.44,.22,.88,.44,1.31,.67-.91-.48,.15,.09,.47,.27,.91,.51,1.81,1.04,2.68,1.6,.34,.22,.68,.46,1.02,.7,.22,.16,.45,.32,.67,.48,.06,.05,.62,.45,.16,.11s.08,.07,.15,.12c.21,.17,.43,.33,.64,.5,.42,.34,.84,.69,1.25,1.05,1.46,1.27,2.79,2.69,4.23,3.98,2.61,2.33,5.9,3.52,9.37,3.82,2.02,.17,4.05,.18,6.08,.33s4.07,.41,6.09,.69c.36,.05,1.12,.27-.32-.05,.21,.05,.43,.07,.65,.11,.5,.08,1.01,.17,1.51,.26,1,.18,2.01,.38,3,.59,2.07,.44,4.13,.93,6.17,1.49,.42,.12,.84,.23,1.26,.35,.28,.08,.56,.16,.84,.24,.71,.2-.59-.18-.57-.18,.96,.06,2.2,.7,3.1,1.02,2.13,.74,4.23,1.54,6.31,2.41,1.07,.45,2.14,.92,3.2,1.4,.26,.12,.53,.28,.79,.37-.34-.12-1.04-.5-.3-.14,.52,.25,1.04,.51,1.56,.77,2.07,1.04,4.11,2.15,6.11,3.33,.94,.55,1.87,1.12,2.79,1.7,1.86,1.17,3.66,1.94,5.83,2.47,2.7,.65,8.91-.5,6.53-4.51,.43,.72,.19,.29-.07-.12-.63-.97-1.4-1.61-2.38-2.25-.85-.56-1.73-1.06-2.62-1.56-1.78-1.01-3.58-1.96-5.42-2.87-4.02-1.98-8.12-3.8-12.33-5.34-8.64-3.15-17.57-5.32-26.68-6.54-4.03-.54-8.07-.82-12.12-.98-.5-.02-1.84-.34-.29,.07,.69,.18,1.15,.57,1.75,.9-.84-.45-1.58-1.49-2.29-2.12-1.69-1.5-3.58-2.82-5.47-4.06-7.27-4.76-15.37-8.03-23.64-10.59-3.95-1.22-7.73-2.12-11.29-3.51-.47-.18-.94-.38-1.4-.58-.26-.11-1.48-.71-.68-.3-.89-.46-1.75-.95-2.59-1.48-.02-.01-.52-.35-.2-.13,.29,.21-.29-.22-.34-.26-.39-.3-.77-.61-1.14-.94-.83-.74-1.25-1.19-1.87-1.98l-6.52,1.79c16.27,9.3,31.99,19.55,48.19,28.96,1.5,.87,4.08,1.26,5.61,.27,1.62-1.04,.24-2.5-.88-3.18-5.16-3.1-10.43-6.02-15.82-8.7s-11.07-5.39-16.83-7.45l-2.19,2.85c1.16,.31,2.21,.44,3.4,.47,.95,.02,1.87,.27,2.79,.47,2.03,.43,4,1.06,5.98,1.67,.8,.25,1.74-.43,.61-.8h0Z"/><path class="cls-1" d="M686.76,386.1c-2.12,.26-4.24,.6-6.37,.66s-4.04-.28-6.07-.28c-.85,0-2.46,.15-2.66,1.25s1.24,1.84,2.05,2.11c3.57,1.19,7.29,1.97,10.93,2.89,3.42,.86,6.83,1.73,10.24,2.58,5.66,1.42,11.61,2.97,16.9,4.52,5.71,1.67,11.37,3.53,16.9,5.7,2.75,1.08,5.47,2.24,8.16,3.47,.61,.28,1.22,.56,1.82,.85,.3,.14,.6,.29,.9,.44,.7,.33-.89-.46,.25,.12,1.36,.7,2.71,1.41,4.04,2.16,2.84,1.6,5.62,3.3,8.29,5.18s4.61,3.51,7.34,5.9l2.71-5.52c-2.26,.2-4.56,.92-6.69,1.67-1.43,.5-2.41,1.7-1.57,3.18,.95,1.69,3.17,2.36,4.95,2.6,2.65,.36,5.38,.69,8.06,.52,1.42-.09,3-.65,3.66-1.98s.03-2.61-.96-3.54c-9.39-8.85-21.4-15.17-33.47-19.51-12.08-4.35-24.62-7.2-37.17-9.8-3.71-.77-7.42-1.51-11.13-2.26-4.21-.85-8.43-1.9-12.69-2.45l1.73,3.38c.81-.24,1.47-.69,2.26-.96s1.65-.56,2.49-.77c1.96-.48,3.99-.68,5.99-.96,1.38-.19-.07-1.26-.88-1.16h0Z"/><path class="cls-1" d="M696.45,401.74c2.17,1.19,4.6,1.56,6.95,2.3,2.16,.68,4.42,1.38,6.15,2.07,4.47,1.78,8.01,3.67,11.83,6.32,1.85,1.28,3.67,2.7,5.08,3.95,1.8,1.6,3.45,3.46,5.49,4.78,2.69,1.74,6.09,2.85,9.27,1.96,2.44-.68,3.94-2.66,3.82-5.18-.15-3.03-2.62-5.48-5.19-6.74-3.22-1.57-6.77-1.74-10.28-1.47-1.32,.1-3.2,.69-2.98,2.37s2.36,2.83,3.81,3.24c8.16,2.35,16.21,5.22,24.21,8.04,1.99,.7,3.97,1.42,5.95,2.14,.41,.15,.3,.11-.31-.12,.3,.11,.6,.22,.91,.34,.45,.17,.91,.34,1.36,.51,.98,.37,1.96,.74,2.94,1.12,1.96,.75,3.91,1.51,5.85,2.29,3.14,1.25,6.77,2.83,10.04,1.08,.75-.4,1.18-1.21,1.08-2.05-.39-3.35-5.03-4.55-7.65-5.47-2.05-.73-4.11-1.45-6.17-2.15-3.97-1.36-7.96-2.66-11.95-3.94-8.17-2.61-16.43-4.77-24.68-7.09l.83,5.62c.97-.08,1.95-.16,2.92-.14-1.01-.03,.96,.16,.27,.03-.57-.11,.1,.05,.17,.06-.48-.2-.55-.22-.23-.07,.25,.13,.24,.12-.02-.02-.16-.14-.37-.25-.53-.4,.45,.4,.14,.12,.03-.04,.11,.16,.46,.84,.41,.7,.14,.38,.16,1.03,.04,1.43,0,.02-.19,.42-.05,.17,.15-.28-.16,.19-.22,.24-.24,.2-.03,.05,.02,0-.22,.23-.5,.02-.07,.03-.17,0,1.79-.04,1.03-.07-.51-.02,.34,.06,.38,.07,1.07,.3-.21-.14-.53-.34,.75,.46-.49-.42-.63-.54,0,0-.49-.42-.2-.17s-.22-.2-.22-.2c-.92-.82-1.87-1.62-2.84-2.4-6.55-5.29-14.11-9.28-22.08-11.96-2.33-.78-4.68-1.41-7.1-1.85-2.14-.39-4.67-1.05-6.79-.41-1.11,.33-1.06,1.39-.08,1.93h0Z"/><path class="cls-1" d="M696.56,396.95c8.59,4.81,18.47,5.76,28.13,6.07,4.65,.15,9.3,.18,13.95,.46,2.31,.14,4.61,.32,6.91,.55,1.08,.11,2.15,.23,3.23,.35,.57,.06-.12-.01-.2-.02,.29,.04,.57,.07,.86,.11,.64,.08,1.28,.17,1.92,.26,4.56,.64,9.09,1.45,13.59,2.43,2.25,.49,4.49,1.02,6.72,1.6,1.04,.27,2.09,.54,3.13,.84-1.26-.36,.49,.14,.73,.21,.62,.18,1.24,.37,1.86,.55,4.33,1.32,8.6,2.8,12.81,4.44,2.14,.83,4.27,1.71,6.38,2.62,1.06,.45,2.11,.92,3.16,1.39,.46,.21,.92,.42,1.37,.63,.71,.33-.77-.37-.06-.03,.32,.16,.65,.31,.97,.46,9.42,4.51,18.6,9.71,27.38,15.34,1.57,1.01,4.17,1.37,5.84,.45,1.43-.78,1.77-2.44,.35-3.56-14.81-11.7-32-19.97-49.98-25.56-18.18-5.65-37.09-8.66-56.15-8.53-5.21,.04-10.42,.21-15.62-.2-2.26-.18-4.28-.43-6.81-.99-2.22-.49-4.43-1.21-6.65-2.29-1.28-.63-3.18-1.09-4.47-.23s-.32,2.11,.66,2.66h0Z"/><path class="cls-1" d="M744.59,420.94c3.79,.56,7.55,1.56,11.29,2.44s7.49,1.82,11.22,2.77c7.31,1.87,14.58,3.88,21.86,5.88,1.7,.47,3.4,.94,5.1,1.42,.09,.03,1.62,.46,.55,.16,.46,.13,.92,.26,1.38,.39,1.08,.31,2.15,.62,3.23,.93,3.53,1.02,7.06,2.07,10.57,3.14,7.35,2.24,14.66,4.58,21.94,7.03,3.95,1.33,7.88,2.71,11.84,4.03,1.99,.67,3.99,1.32,5.98,1.97,2.4,.78,4.87,1.67,7.36,2.09l-.11-5.77c-2.8-.06-5.71-1.01-8.55-1.67-.8-.18-2.13-.07-2.49,.81s.61,1.59,1.32,1.91c2.27,1.02,4.53,2.04,6.81,3.03l-1.4-.85c.65,.5,.81,.63,1.36,1.07,1.79,1.46,4.73,2.26,6.87,1.07s1.35-3.29-.46-4.39c-3.37-2.06-7.42-3.3-11.13-4.62s-7.28-2.49-10.94-3.67c-7.35-2.35-14.73-4.6-22.14-6.75-14.93-4.32-29.96-8.24-45.15-11.56-4.23-.93-8.46-1.81-12.71-2.68s-8.54-1.55-12.71-2.65c-1.27-.34-3.92-.17-4.24,1.48s2.1,2.8,3.36,2.99h0Z"/><path class="cls-1" d="M758.27,419.31c12.23,2.99,24.34,6.52,36.37,10.22,11.94,3.67,23.81,7.65,35.54,11.96,6.72,2.47,13.4,5.03,20.09,7.56l4.01-5.82c-1.81-.56-3.64-1.01-5.47-1.45-.4-.1-.8-.19-1.2-.29,.21,.06,.74,.23-.22-.07-.87-.28-1.75-.56-2.62-.83-3.1-.98-6.2-1.97-9.3-2.95-6.03-1.92-12.05-3.87-18.08-5.82s-12.35-4.01-18.53-6.02c-5.24-1.7-10.56-3.24-15.68-5.27-2.69-1.07-4.65-1.98-7.1-3.56-2.07-1.33-3.77-3.11-5.19-5.11l-4.07,2.93c5.63,.9,11.19,2.13,16.68,3.66,.37,.1,.73,.2,1.1,.31-.19-.06-.81-.24,.1,.03,.65,.19,1.3,.38,1.94,.58,1.37,.42,2.74,.84,4.1,1.29,2.73,.89,5.44,1.84,8.12,2.85,10.59,3.96,20.9,8.68,30.74,13.57,6.06,3.02,12,6.38,18.21,9.07l3.22-7.39c-3.69-.89-7.33-1.94-10.98-2.97-1.75-.49-3.49-.98-5.24-1.47-.79-.22-1.59-.45-2.38-.67-.48-.13-.95-.27-1.43-.4-.16-.04-1.76-.5-.43-.12-7.16-2.03-14.29-4.2-21.42-6.33-13.9-4.15-27.9-8.14-41.65-12.77-3.45-1.16-6.88-2.43-10.2-3.92-.4-.18-.79-.36-1.19-.54-.26-.12-.52-.25-.78-.37,.44,.21,.41,.2-.08-.05-.77-.4-1.54-.8-2.3-1.23s-1.51-.85-2.25-1.3c-.37-.22-.74-.45-1.1-.69-.24-.16-.49-.31-.73-.47-.42-.28-.48-.32-.18-.11l-4.35,4.29c13.03,2.31,26,5.02,38.76,8.5,.82,.22,1.63,.45,2.45,.68,.94,.26-1.48-.43-.02,0,.44,.13,.88,.25,1.33,.38,1.62,.47,3.24,.96,4.85,1.45,3.08,.95,6.15,1.94,9.2,2.98,6.25,2.12,12.45,4.44,18.59,6.87,3.43,1.36,6.85,2.78,10.23,4.25,1.77,.77,3.56,1.5,5.34,2.25,.86,.36,1.73,.71,2.6,1.05,.36,.14,.73,.29,1.09,.43,.2,.08,2.06,.82,.89,.26,1.39,.67,2.71,1.16,4.28,1.21,1.11,.03,2.76-.15,3.68-.89,1.96-1.56,.96-4.06-1.1-5.04-1.47-.7-2.86-1.61-4.31-2.36-1.81-.94-3.65-1.84-5.49-2.7-3.07-1.42-6.21-2.71-9.33-3.99-6.28-2.57-12.63-4.91-19.07-7.03-13.24-4.36-26.75-8.01-40.42-10.7-7.84-1.54-15.71-2.72-23.66-3.56-1.31-.14-3.36,.4-3.88,1.74-.56,1.44,.56,2.6,1.69,3.35,2.92,1.93,5.75,3.83,8.9,5.39s6.52,3.03,9.9,4.29c6.55,2.45,13.26,4.48,19.91,6.62,14.28,4.58,28.58,9.07,42.91,13.47,8.07,2.48,16.21,4.85,24.18,7.62,2.46,.85,5.91,1.2,7.94-.79,1.86-1.83,.31-4.34-1.62-5.43-5.44-3.06-11.29-5.51-16.97-8.09-5.38-2.45-10.8-4.83-16.27-7.09-11.06-4.57-22.42-8.55-34.06-11.36-6.63-1.6-13.33-2.74-20.1-3.5-1.37-.15-4.56,1.14-3.02,3.05,7.08,8.76,18.19,12.28,28.45,15.8,12.39,4.26,24.84,8.37,37.21,12.67,3.44,1.2,6.89,2.39,10.33,3.59,.94,.33,1.88,.65,2.82,.98l.94,.33s1.42,.42,.76,.2c2.06,.71,4,1.82,6.06,2.56s5.63,1.02,7.03-1.09-1.36-4.02-3.02-4.72c-11.71-4.96-23.73-9.15-35.82-13.06-12.16-3.93-24.49-7.34-36.92-10.31-3.64-.87-7.28-1.75-10.94-2.52-1.17-.25-3.44-.72-5.13-1.06-1.87-.37-3.73-.79-5.59-1.17-1.21-.25-3.38,.02-3.84,1.39s1.04,2.53,2.23,2.82h0Z"/><path class="cls-1" d="M672.43,379.57c-2.27,2.02,.38,4.9,2.21,6.01,3.21,1.93,7.41,2.01,11.04,2.33,7.8,.7,15.66,.37,23.47,0s15.24-.85,22.87-.74c6.96,.1,13.93,.61,20.82,1.56s13.82,2.26,20.63,3.89c1.74,.42,3.48,.85,5.21,1.31,.72,.19,1.45,.38,2.17,.58,0,0,1.41,.39,.63,.17,.58,.16,1.15,.32,1.73,.49,3.46,.99,6.89,2.06,10.31,3.19,13.51,4.47,26.7,9.86,39.65,15.75,14.5,6.59,29.67,14.39,44.63,21.11,1.01,.45,2.8,.54,3.63-.32s.11-1.89-.76-2.4c-12.04-7.03-24.51-13.39-37.14-19.31-12.94-6.07-26.07-11.79-39.56-16.54-13.34-4.7-27.02-8.57-40.95-11.05s-28.72-3.44-43.22-2.77c-8.32,.39-16.63,1.23-24.96,1.4-4.29,.09-8.6,.03-12.87-.29-1.05-.08-2.1-.15-3.14-.29,.18,.02-.6-.2-.12-.03-.31-.11-.36-.13-.7-.33-.84-.49-1.81-1.13-.93-2.05,.8-.83-.8-1.8-1.41-2.02-1.06-.39-2.38-.44-3.26,.34h0Z"/><path class="cls-1" d="M702.74,394.75c-1.09-.52-2.18-1.08-3.1-1.87-.98-.85-1.01-1.63-.85-2.85l-2.01,.9c11.98,.7,23.96,1.28,35.93,2.31s23.08,2.38,34.61,4.17c23.41,3.62,46.37,8.69,68.8,15.29,12.83,3.78,25.54,8.06,38.14,12.52,1.31,.46,3.73,.68,4.65-.65,.96-1.41-1.06-2.53-2.07-2.93-22.48-8.92-45.85-15.58-69.42-20.9-23.59-5.33-47.53-8.99-71.62-11.07-13.41-1.16-26.93-1.87-40.39-1.47-.41,.01-1.43,.31-1.41,.88,.09,3.35,3.88,5.72,6.59,7,.71,.33,1.83,.65,2.55,.14,.66-.47,.22-1.18-.38-1.47h0Z"/><path class="cls-1" d="M741.13,400.4c13.97-.59,27.88,3.42,40.86,8.08,13.81,4.96,27.18,11.04,40.81,16.45,28.59,11.33,58.35,20.45,88.58,26.23,8.53,1.63,17.18,2.83,25.87,2.95,8.46,.11,17.4-.71,25.38-3.7,1.31-.49,1.63-1.89,.72-2.9-1.07-1.19-2.99-1.56-4.51-1.26-3.65,.71-7.31,1.45-11.02,1.8s-7.42,.43-11.12,.36c-7.39-.13-14.76-1.03-22.04-2.28s-14.52-2.85-21.72-4.54c-3.71-.87-7.41-1.79-11.09-2.74-.46-.12-.92-.24-1.38-.36,.84,.22-.67-.18-.67-.18-.92-.24-1.84-.49-2.76-.74-1.84-.5-3.68-1-5.52-1.52-14.54-4.08-28.9-8.8-43.03-14.14-13.79-5.21-27.26-11.27-41.17-16.13-15.58-5.45-31.57-9.11-48.12-9.43-1.21-.02-3.48,.44-2.75,2.16s3.2,1.96,4.7,1.89h0Z"/><path class="cls-1" d="M785.74,409.11c-3.46-.31-7.15-.37-10.54-1.14l.09,2.71c2.78,.05,5.56-.3,8.34-.44s5.43-.23,8.15-.27c5.39-.07,10.77-.04,16.15,.22,10.66,.51,21.3,1.74,31.82,3.53,10.79,1.84,21.48,4.26,32.06,7.08s20.73,6.13,31.07,9.26c5.94,1.8,11.91,3.54,17.97,4.89s12.55,2.75,18.83,2.19c.82-.07,1.76-.67,1.59-1.59-.19-1.01-1.49-1.5-2.34-1.71-5.27-1.31-10.71-1.91-16.02-3.08s-10.61-2.58-15.85-4.11c-10.34-3.01-21.15-6.52-31.78-9.37-21.2-5.68-42.92-9.87-64.88-10.97-6.17-.31-12.41-.48-18.59-.19-2.99,.14-5.98,.34-8.96,.61s-6.34,.45-9.36,1.27c-.73,.2-1.08,.87-.68,1.52,.44,.73,1.68,1.16,2.48,1.13,1.67-.06,3.39,.21,5.06,.33,1.85,.13,3.69,.37,5.53,.57,.72,.08,2.32,.09,2.29-1.02s-1.64-1.39-2.43-1.46h0Z"/><path class="cls-1" d="M804.34,422.63c20.6,3.9,41.24,7.5,62.05,10.08,20.51,2.54,41.16,4.06,61.8,4.86,11.56,.45,23.14,.7,34.69-.05,1.03-.07,2.71-.54,2.38-1.92s-2.28-1.74-3.42-1.8c-10.29-.47-20.58-.56-30.88-.85-10.18-.29-20.35-.77-30.51-1.46-20.36-1.38-40.71-3.5-60.91-6.37-11.5-1.63-22.97-3.5-34.36-5.84-1-.21-2.91-.34-3.27,.96-.34,1.23,1.51,2.21,2.43,2.39h0Z"/><path class="cls-1" d="M816.26,426.26c27.48,8.38,55.36,15.3,83.62,20.49,7.96,1.46,15.94,2.79,23.94,4.03,1.43,.22,4.19,.16,4.54-1.72s-2.28-2.85-3.64-3.21c-9.8-2.59-20.52-5.2-30.85-7.41-8.48-1.82-16.99-3.48-25.53-4.98-4.92-.87-9.85-1.61-14.77-2.41l-.65,5.37c9.63,.47,19.25,1.37,28.8,2.73,2.33,.33,4.65,.69,6.97,1.07,1.28,.21,2.56,.43,3.84,.66,.48,.09,.96,.17,1.44,.26,.6,.11,.64,.12,.11,.02,.32,.06,.64,.12,.95,.18,4.77,.91,9.5,1.96,14.23,3.05l1.99-6.18c-19.08-3.06-38.16-6.13-57.23-9.2-5.07-.82-10.14-1.63-15.21-2.45l.6,6.55c2.28,.04,4.56,.08,6.84,.11,1.37,.02,3.29-.46,4.06-1.73s.02-2.46-.93-3.35c-9.44-8.87-23.03-12.85-35.8-11.46-1.27,.14-2.93,.84-3.21,2.26-.31,1.53,1.03,2.54,2.1,3.32,10.41,7.61,22.39,12.98,34.91,16.03,1.71,.42,4.54,.42,5.73-1.2s-.3-3.38-1.65-4.21c-13.37-8.28-27.48-15.42-42.08-21.25l-1.64,6.26c4.08,.18,8.15,.49,12.21,.99,1.99,.24,3.98,.52,5.96,.84,.99,.16,1.99,.32,2.98,.5,.46,.08,.92,.16,1.37,.25,.3,.06,.61,.11,.91,.17-.44-.09-.89-.17-.18-.03,8.03,1.61,15.94,3.73,23.68,6.43,.22,.08,.44,.15,.66,.23,.86,.3-1.14-.42-.29-.1,.58,.21,1.16,.42,1.73,.64,1.01,.38,2.01,.77,3.02,1.16,2.22,.88,4.4,1.84,6.59,2.78l3.69-7.04c-17.17-3.37-34.09-7.99-50.74-13.34l-2.06,8.05c17.48,3.65,34.94,7.39,52.4,11.12,2.4,.51,6.28,.68,7.57-1.94,1.29-2.63-1.81-4.73-3.79-5.71-9.63-4.77-20.37-7.47-31.1-7.96-2.28-.1-6,.51-6.05,3.45s3.56,4.51,5.92,5.26c9.93,3.15,19.88,6.28,29.82,9.4l.08-8.78c-10.76-1.28-21.64-1.39-32.43-.47-1.6,.14-3.33,.88-4.03,2.38s.03,2.9,1.12,4.02c8.77,9,19.16,16.14,30.51,21.46,2.21,1.04,6.27,1.32,8.34-.33,1.87-1.49,1.8-3.87-.01-5.45-3.95-3.44-8.16-6.61-12.56-9.46l-7.01,6.8c.54,.24,1.08,.48,1.62,.73,.27,.12,.54,.25,.81,.38,.67,.32,.54,.25-.39-.19,.22-.08,1.36,.68,1.59,.79,.53,.27,1.05,.54,1.58,.82,1.96,1.04,3.89,2.14,5.79,3.3s3.75,2.38,5.57,3.66c.48,.34,1.01,.65,1.45,1.03-1.31-1.14,.21,.16,.49,.37,.94,.72,1.87,1.45,2.79,2.2l8.26-5.91c-10.09-3.28-20.39-5.92-30.82-7.8-1.49-.27-3-.25-4.47,.13-1.04,.27-2.39,.79-2.96,1.79-1.3,2.26,.43,4.33,2.33,5.52,11.03,6.87,22.57,12.84,34.46,18.06,2.29,1,5.59,.94,7.77-.23,1.63-.88,2.86-3.04,1.43-4.77-5.55-6.67-11.53-12.96-18-18.74l-9.82,5.41c5.27,3.13,10.55,6.26,15.82,9.38,2.3,1.36,5.41,1.74,7.95,1.03,1.8-.51,3.95-1.97,3.35-4.18-1.77-6.47-4.5-12.71-8-18.44l-10.74,4.32,12.82,7.11,6.84-7.05c1.82,.5,3,1.52,3.54,3.06-.04-.14-.06-.28-.06-.43l.05,1.21c.01-.33,.07-.61,.17-.92l-.45,1.12c.03-.07,.14-.42,.22-.44l.14-.2-.56,.56c.82-.63-2.08,.73-1.95,.71-1.09,.22-2.56,.07-3.64-.28l-.9-.4,.35,.2,.34,.22-.64-.46c.63,.67,1.76,1.32,2.44,1.79,3.8,2.62,8.53,3.27,12.9,1.89l-8.92-7.98c-1.42,.51,1.34-.24-.13,.06-.29,.06-.57,.12-.85,.17-.12,.02-1.26,.1-1.3,.17,.04-.09,1.71-.07,.45-.06-1.63,.02-3.26,.01-4.9,0-3.61-.03-7.33,.21-10.69,1.65-2.75,1.17-5.58,3.09-7.13,5.72-1.7,2.89-1.7,6.15,0,9.03,2.08,3.51,6.26,5.28,10.04,6.16s7.97,.35,11.7-.97c2.9-1.03,5.57-2.62,8.39-3.82,1.31-.55,2.64-1.06,3.98-1.53,.35-.12,.71-.24,1.06-.36-.12,.04,1.28-.41,.73-.24s.86-.24,.74-.21c.43-.12,.87-.23,1.3-.34,1.74-.44,3.5-.81,5.27-1.1,.3-.05,.59-.1,.89-.14,.39-.06,1.42-.39,1.78-.25-.07-.03-1.64,.16-.4,.05,.45-.04,.89-.09,1.34-.12,1.79-.14,3.59-.21,5.39-.21,.9,0,1.8,.03,2.69,.06,.3,0,.6,.03,.89,.03-2.2,.03-.12,0,.38,.04l-3.89-8.08c-.82,.3-1.63,.59-2.45,.88-.16,.06-1.62,.56-.84,.29s-.47,.16-.62,.21c-1.66,.55-3.32,1.08-4.99,1.58-3.33,1.01-6.69,1.94-10.08,2.77s-6.76,1.6-10.17,2.24c-1.6,.3-3.21,.57-4.82,.83-.84,.14-1.69,.27-2.53,.39-.21,.03-1.59,.39-.43,.1-.75,.19-1.57,.19-2.34,.29l7.12,5.91c1.75-1.42,3.59-2.72,5.52-3.88,.37-.22,.75-.43,1.13-.64s1.77-.9,.81-.43c.23-.11,.45-.22,.68-.33,1.03-.49,2.07-.95,3.13-1.38s2.13-.82,3.21-1.18c.48-.16,.97-.31,1.45-.47-.93,.3-.27,.08-.07,.03,.37-.1,.74-.21,1.11-.3,2.23-.59,4.5-1.06,6.78-1.43,.58-.09,1.15-.18,1.73-.26,.31-.04,2.12-.32,.79-.11,1.16-.18,2.35-.24,3.52-.32,2.37-.17,4.75-.26,7.13-.28,1.2,0,2.4,0,3.6,.03,.27,0,.53,.01,.8,.02,1.02,.03-.11,.03-.24,0,.61,.16,1.39,.06,2.01,.09,2.42,.13,4.83,.31,7.24,.53,5.44,.5,10.86,1.15,16.3,1.64,1.54,.14,3.66-.22,4.61-1.56,.81-1.14,.53-2.72-.73-3.49-1.41-.86-2.96-1.71-4.23-2.59-1.78-1.22-4.43-1.55-6.36-.47-1.67,.93-1.97,2.94-.3,4.09,1.13,.78,2.42,1.89,3.64,2.83l5.17-4.84c-10.94-2.05-22.02-3.14-33.16-3.13-10.07,.01-20.27,1.26-29.74,4.78-5.3,1.97-10.36,4.73-14.85,8.16-1.39,1.06-1.2,2.82-.09,3.99,1.36,1.44,3.84,2.3,5.8,2.09,4.64-.5,9.36-.96,13.93-1.88-1.35,.27,.47-.06,1.19-.18,.39-.06,.79-.13,1.18-.2,.86-.15,1.73-.3,2.59-.46,1.65-.3,3.29-.62,4.93-.96,6.54-1.36,13.01-3.04,19.4-5.02,1.86-.58,4.66-2.01,3.82-4.5s-3.81-3.81-6.23-4.08c-8.27-.92-16.76-.39-24.86,1.55-4.05,.97-8.06,2.24-11.9,3.88-1.68,.72-3.32,1.55-4.97,2.33-.79,.37-1.58,.73-2.39,1.03-.35,.13-.93,.2-1.22,.42,.05-.04,1.17-.25,.51-.16-.28,.04-.56,.12-.84,.16-.16,.03-.49,.13-.64,.09,.09,.02,1.72-.11,.78-.1-1.08,.02,1.86,.29,.41,.03s1.43,.47,.41,.11c-.24-.08-.82-.35,.2,.12,1.1,.5,.28,.15,.08,0-.53-.42,.71,.57,.65,.48-.1-.14-.35-.3-.49-.41s-.56-.56,.04,.08,.1,.1,0-.09c-.5-.98,.1,.67-.07-.17-.09-.44-.18-.84-.2-1.29l.05,1.21c0-.76,.14-1.45,.41-2.16l-.46,1.13c.23-.54,.84-2,1.43-2.21-.5,.51-.55,.58-.15,.2,.18-.16,.36-.31,.55-.45,.29-.22,.59-.41,.88-.62,.52-.31,.41-.26-.32,.16,.22-.11,.44-.21,.66-.31,.43-.19,.95-.28,1.36-.5-.98,.27-1.16,.33-.52,.18,.23-.05,.46-.08,.69-.12,1.35-.24-1.53,.07,.22-.01,5.4-.24,10.62,.26,15.82-1.64,1.16-.42,2.39-1.48,2.61-2.76s-.59-2.68-1.53-3.48c-2.76-2.34-6.64-2.82-10.01-1.74,1.61-.54,3.21-.53,4.83,.05,.99,.5,1.16,.58,.51,.24-.18-.1-.35-.21-.52-.32-.39-.26-.23-.14,.49,.35,.02-.03-2.93-2.09-3.32-2.31-3.37-1.88-7.97-2.76-11.64-1.23-2,.83-3.66,2.53-3.97,4.74-.46,3.32,2.6,5.66,5.38,6.63s6.62,1.14,8.78-1.09c2.04-2.11,.19-4.78-1.95-5.97l-12.8-7.13c-2.4-1.34-6.09-2.02-8.71-.81-2.11,.98-3.38,2.91-2.03,5.13,.78,1.28,1.52,2.58,2.22,3.91,.35,.66,.68,1.33,1.01,2.01,.04,.08,.65,1.41,.22,.46,.15,.34,.3,.68,.45,1.03,1.21,2.83,2.2,5.73,3.01,8.69l11.3-3.15c-5.27-3.13-10.54-6.25-15.81-9.38-2.67-1.58-6.61-1.98-9.37-.46-2.46,1.35-2.52,4.01-.45,5.87,2.99,2.67,5.88,5.43,8.67,8.31,1.39,1.44,2.76,2.9,4.1,4.39,.31,.34,.62,.68,.92,1.03-.86-1,.16,.18,.26,.31,.71,.81,1.4,1.64,2.09,2.47l9.19-5c-1.44-.62-2.86-1.26-4.29-1.91-.81-.37-.01-.02,.34,.16-.35-.17-.71-.33-1.06-.5-.71-.33-1.42-.67-2.12-1.01-2.75-1.32-5.48-2.69-8.18-4.11-5.4-2.84-10.7-5.88-15.89-9.1l-5.09,7.44c4.82,.86,9.61,1.88,14.36,3.06,1.17,.29,2.33,.59,3.5,.9,.34,.09,1.65,.24,1.86,.5-1.07-.3-1.23-.34-.46-.13,.23,.07,.46,.13,.69,.2,2.39,.69,4.77,1.41,7.14,2.18s6.15,1.36,8.35-.45c1.82-1.49,1.8-3.94-.09-5.46-8.28-6.68-17.3-12.16-27.02-16.48-2.57-1.14-6.67-1.24-8.8,.83s-.22,4.67,1.79,5.97c1.9,1.23,3.82,2.48,5.59,3.88-1.36-1.07,.26,.21,.52,.41,.36,.28,.71,.56,1.07,.85,.94,.76,1.87,1.54,2.78,2.33l8.33-5.78c-.46-.22-2.56-1.31-.74-.34-.57-.3-1.15-.58-1.72-.88-1.21-.63-2.4-1.29-3.58-1.98-2.42-1.41-4.77-2.92-7.06-4.54-.53-.37-1.05-.75-1.57-1.14-.29-.21-.57-.43-.86-.64-.68-.5,1.21,.95,.08,.06-1.07-.84-2.13-1.7-3.17-2.59-2.13-1.82-4.17-3.73-6.13-5.73l-2.91,6.4c2.57-.22,5.19-.48,7.77-.47-1.93,0,.3,0,.67,0,.49,0,.97-.01,1.46-.02,1.3-.01,2.6,0,3.89,.02,5.03,.09,10.05,.44,15.04,1.04,2.29,.27,6.02-.7,6.05-3.52,.03-3.06-3.59-4.52-5.98-5.26-9.93-3.11-19.85-6.23-29.79-9.32l-.13,8.71c2.27,.09,4.51,.31,6.76,.58,.62,.09,.6,.08-.08-.02,.3,.05,.6,.1,.89,.15,.59,.11,1.19,.22,1.78,.34,1.03,.21,2.06,.45,3.09,.71s2.04,.55,3.05,.85c.29,.09,.58,.18,.86,.27-1.07-.36-1.23-.41-.5-.16,.57,.2,1.14,.4,1.71,.61,2.12,.79,4.2,1.69,6.23,2.68l3.78-7.65c-17.46-3.62-34.91-7.24-52.35-10.93-1.61-.34-3.39-.53-5-.02-1.03,.33-2.46,1.14-2.67,2.35-.57,3.21,3.21,4.94,5.62,5.72,16.63,5.4,33.61,9.55,50.76,12.91,2.26,.44,5.85,.84,7.14-1.64,1.22-2.34-1.57-4.59-3.45-5.4-16.1-6.95-33.5-11.39-50.91-13.35-4.76-.54-9.54-.89-14.32-1.08-1.61-.06-4.29,.11-4.81,2.09-.49,1.87,1.67,3.58,3.17,4.18,7.07,2.81,14.01,5.92,20.81,9.34,.83,.42,1.66,.84,2.49,1.27,.41,.21,.83,.43,1.24,.64-1.03-.53,.34,.18,.44,.23,1.64,.88,3.28,1.77,4.9,2.68,3.39,1.9,6.73,3.88,10.03,5.92l4.09-5.41c-1.42-.34-2.84-.72-4.25-1.13-.16-.05-1.35-.41-.56-.16s-.4-.13-.55-.18c-.7-.23-1.39-.46-2.08-.7-2.76-.97-5.48-2.08-8.14-3.31-.27-.12-.53-.25-.8-.37-.13-.06-1.44-.73-.37-.17-.65-.34-1.31-.66-1.95-1.01-1.23-.65-2.44-1.33-3.64-2.04-2.59-1.53-5.09-3.19-7.52-4.97l-1.11,5.58c1.32-.15,1.74-.18,3.03-.17,.66,0,1.33,.03,1.99,.07,.27,.02,.53,.04,.8,.06,1.05,.07-.75-.11-.06,0,1.19,.18,2.37,.35,3.54,.61,.31,.07,.68,.1,.97,.23-.31-.14-.94-.26-.25-.06,.64,.19,1.28,.38,1.91,.6,.57,.19,1.13,.4,1.69,.62,.25,.1,.49,.2,.74,.3,.59,.23-.84-.4,.05,.03,1.08,.52,2.15,1.06,3.18,1.67,2.06,1.21,3.93,2.72,5.68,4.38l3.13-5.08c-2.3-.03-4.61-.05-6.91-.08-1.7-.02-4.51,.93-4.29,3.06,.23,2.23,3.03,3.19,4.89,3.49,19.13,3.05,38.26,6.1,57.4,9.16,5.09,.81,10.19,1.63,15.28,2.44,1.75,.28,4.86-.31,5.42-2.3s-1.71-3.49-3.43-3.88c-19.75-4.5-39.99-6.82-60.23-7.43-1.41-.04-3.64,.86-3.46,2.57,.19,1.82,2.44,2.62,3.98,2.84,18.56,2.66,37.02,6.36,55.27,10.61,4.7,1.09,10.51,2.46,15.64,3.75l.9-4.93c-28.03-3.98-55.89-9.57-83.32-16.56-7.72-1.97-15.41-4-23.07-6.2-1.12-.32-3.07-.49-3.79,.7s.78,2.19,1.73,2.48h0Z"/><path class="cls-1" d="M887.35,436.06c18.54,3.64,37.06,7.35,55.56,11.19,5.14,1.07,10.24,2.35,15.39,3.33,1.72,.33,4.89,.05,5.28-2.14,.41-2.29-2.56-3.41-4.21-3.83-17.61-4.54-35.38-8.37-53.3-11.47-5.06-.88-10.13-1.7-15.21-2.46l.47,6.45c2.36-.09,4.71-.13,7.07-.07,.57,.01,1.14,.03,1.7,.05,.61,.03,.65,.03,.11,0,.32,.02,.65,.03,.97,.05,1.13,.06,2.27,.14,3.4,.23,4.53,.37,9.04,.93,13.53,1.64,9.15,1.43,18.19,3.42,27.23,5.4,1.89,.42,5.39-.21,5.73-2.55,.37-2.55-2.92-3.66-4.76-4.09-16.8-3.93-33.61-7.82-50.42-11.72l-1.25,6.8c10.68,1.51,21.36,3.03,32.04,4.57,5.36,.78,10.72,1.55,16.08,2.32,2.72,.39,5.44,.79,8.17,1.18,2.94,.43,5.97,1.03,8.94,.38s5.73-2.38,6.26-5.53c.57-3.39-2.09-6.02-5.11-6.96-1.82-.56-3.95-.67-5.71,.17-1.27,.61-2.44,1.89-1.98,3.42,1.7,5.65,3.39,11.3,5.09,16.95,1.37,4.53,12.34,5.05,11.4-.63s-1.86-11.28-2.79-16.91l-11.49,.64c2.15,8.57,5.52,16.78,9.88,24.46,1.27,2.23,4.87,2.8,7.12,2.47,2.12-.31,4.43-1.61,3.95-4.1l-3.8-19.51-11.49,.64c2.7,6.28,5.38,12.57,8.07,18.85,1.03,2.41,3.55,3.44,6.06,3.53,2.16,.07,5.06-.65,5.52-3.13,1.12-6.04,1.06-12.22,0-18.26-.19-1.11-1.5-2.14-2.4-2.62-1.26-.68-3.02-1.07-4.44-.94-2.39,.22-5.09,1.4-4.65,4.21,1.29,8.3,1.42,16.77,.44,25.29-.26,2.25-.85,4.42,.49,6.48,1.76,2.7,5.54,3.87,8.59,3.03,2.22-.61,3.74-2.42,2.97-4.72-1.22-3.67-6.5-3.93-9.23-1.97-1.82,1.31-.36,3.68,1.16,4.44,2.1,1.05,4.62,1.07,6.55-.32l.14-.1-1.82,.9,.12-.04-6.27-1.9-.36-1.34c-.04,.24-.02,.2,.07-.11,.11-.29,.13-.35,.05-.18-.45,.8,.24,.38,2.07-1.27l2.7-.15,1.07,.23,2.23,1.19,.76,1.21-.06-.24c.22,.24,0,.75,.15,.03,.08-.43,.08-.88,.14-1.31,.17-1.36,.34-2.73,.46-4.1,.26-2.82,.39-5.65,.4-8.48,.03-5.77-.45-11.54-1.33-17.23l-11.49,.65c.93,5.31,.84,10.69-.17,16.17l11.57,.39c-2.69-6.28-5.38-12.56-8.07-18.85-1.09-2.56-4.15-3.79-6.84-3.55-2.3,.21-5.19,1.39-4.65,4.2l3.75,19.51,11.07-1.63c-2.13-3.76-3.51-6.61-5.12-10.64s-2.83-7.82-3.86-11.84c-1.2-4.68-12.46-5.04-11.49,.64s1.93,11.27,2.88,16.91l11.4-.63c-1.71-5.59-3.44-11.17-5.16-16.75l-7.7,3.59c-.95-.29-2.12-1.43-2.28-1.81,.04,.1,.08,.25,.08,.36,0-.15,.09-.87-.04-.26-.06,.26-.09,.51-.15,.77l.08-.24c.12-.31,.1-.32-.05,0l-.15,.21,.36-.42c-.2,.21-.44,.16,.13-.06,.07-.03,.87-.15,.33-.1-.6,.06,.43,0,.45-.01-.2,.07-.61,.03-.8,.04-1.09,.06,1,.14-.09,0-.59-.07-1.19-.14-1.78-.21-4.59-.59-9.18-1.24-13.76-1.86-9.19-1.24-18.38-2.47-27.56-3.74-5.28-.73-10.55-1.46-15.83-2.19-1.97-.27-5.51-.14-5.98,2.41s2.83,3.95,4.72,4.39c16.9,3.86,33.8,7.73,50.7,11.56l.97-6.64c-18.71-3.98-37.56-7.76-56.79-7.19-1.68,.05-4.23,.93-4.06,3.01s2.71,3.17,4.52,3.44c17.91,2.69,35.71,6.07,53.38,10.02,4.99,1.12,9.97,2.29,14.94,3.51l1.07-5.97c-9.07-1.62-18.23-2.78-27.32-4.28-9.22-1.52-18.45-3.03-27.66-4.6-5.35-.91-10.69-1.82-16.04-2.73-.88-.15-2.38,.15-2.68,1.13s.84,1.77,1.68,1.93h0Z"/><path class="cls-1" d="M982.92,432.22c4.11,11.74,4.66,25.07,1.9,37.17-.16,.7-.48,1.46-.53,2.17-.08,1,.6,1.88,1.3,2.52,1.54,1.41,3.84,1.8,5.83,1.52,2.92-.41,5.31-2.45,6.44-5.12,2.35-5.54,2.95-11.5,3.42-17.44,.51-6.52,.91-13.17,3.88-19.13l-8.11-.27c6.62,13.65,8.16,28.99,7.16,43.96-.27,4.02,8.16,5.31,8.98,1.33,3.28-15.83-.55-32.38-7.98-46.49-1.39-2.64-6.65-3.16-8.11-.27-3.36,6.66-3.69,14.22-4.28,21.51-.29,3.52-.65,7.05-1.52,10.48-.4,1.56-.87,3.16-1.61,4.6-.38,.74-.56,.86-1.05,1.33-.32,.24-.35,.27-.08,.09l-.27,.14c1.24-.3,3.07-.3,3.85,.86l.39,1.44c1.57-6.79,2.19-13.87,1.6-20.82-.3-3.55-.85-7.1-1.66-10.57s-2-6.72-3.29-9.98c-.98-2.47-7.31-1.99-6.27,.97h0Z"/><path class="cls-1" d="M573.21,357.14c-1.42-.88-2.89-1.69-4.11-2.85l-1.09,1.05c3.13,.71,6.43,.93,9.62,1.36s6.39,.88,9.59,1.34c6.3,.91,12.59,1.81,18.88,2.77,12.57,1.91,25.1,4.03,37.6,6.37,25.06,4.7,49.98,10.14,74.67,16.51,13.83,3.57,27.63,7.24,41.35,11.18,.62,.18,1.65,.11,1.81-.65s-.93-1.46-1.5-1.64c-24.49-7.64-49.26-14.18-74.29-19.81-24.8-5.58-49.8-10.24-74.94-14-7.33-1.1-14.67-2.15-22.04-3.02-3.56-.42-7.13-.83-10.7-1.22s-7.13-1.04-10.64-.99c-1.62,.02-.73,1.29,.21,1.68,1.7,.71,3.18,1.73,4.73,2.71,.84,.53,1.98-.1,.85-.81h0Z"/><path class="cls-1" d="M590.24,359.57c-1.78-.96-3.62-1.87-5.33-2.96l-1.34,1.9c2.57,.91,5.33,1.42,7.98,2.07s5.27,1.32,7.91,1.93c5.19,1.2,10.38,2.37,15.58,3.52,10.48,2.31,20.97,4.55,31.49,6.64,20.94,4.16,41.95,7.9,63.04,11.22,12.05,1.89,24.14,3.54,36.24,5.03,.83,.1,1.85-.33,1.63-1.29s-1.63-1.73-2.53-1.87c-21.22-3.22-42.42-6.58-63.56-10.29-21-3.68-41.95-7.62-62.83-11.94-5.83-1.21-11.66-2.44-17.49-3.71-2.86-.62-5.73-1.22-8.6-1.82s-6.05-1.52-9.09-1.86c-.57-.06-1.42,.14-1.38,.86,.04,.76,1.03,1.28,1.62,1.53,1.74,.72,3.4,1.64,5.09,2.48,.58,.29,1.78,.76,2.33,.17s-.26-1.31-.75-1.58h0Z"/><path class="cls-1" d="M560.38,346.98c-.64-.61-1.29-1.2-1.89-1.85-.48-.52-3.46-1.76-2.95-.03,1.07,3.61,2.78,7.05,3.96,10.63s2.19,7.33,2.99,11.08c.28,1.33,2.07,2.38,3.23,2.74,.69,.21,2.84,.56,2.72-.8-.57-6.37-2.28-12.74-4.43-18.74l-5.9-1.05c4.41,8.76,6.42,18.73,6.07,28.51-.06,1.64,1.64,2.98,2.92,3.66,.96,.52,3.32,1.44,4.08,.09,2.33-4.14,4.53-8.35,6.84-12.5,1.48-2.66-5.23-6.93-6.91-4.38l-5.72,8.65c-.9,1.36,.97,3.15,1.9,3.83,1.03,.76,3.51,2.13,4.78,1.11,4.05-3.28,7.03-7.47,8.91-12.31,.94-2.41-2.41-4.43-4.28-4.99-2.71-.81-5.42-1.63-8.13-2.44-1.22-.36-3.12-.2-2.98,1.46,.15,1.76,2.11,3.12,3.53,3.79,4.78,2.26,9.56,4.52,14.34,6.77,1.14,.54,3.89,1.13,4.1-.78s-2.27-3.53-3.68-4.24-2.68-1.37-4.02-2.06l1.53,5.59c2.01,.32,3.52,.89,5.45,1.86l-3.05-5.41c-8.1,4.38-15.68,9.68-22.6,15.76l7.42,4.96c.24-10.09-.32-20.24-1.42-30.27-.31-2.83-7.73-6.49-7.36-2.34,.83,9.57,.96,19.15,.63,28.75-.06,1.64,1.41,3.17,2.7,3.99,.67,.42,1.38,.78,2.13,1.02,.56,.18,2.05,.44,2.59-.05,6.87-6.19,14.41-11.59,22.47-16.11,.98-.55,.71-1.75,.28-2.56-.71-1.31-2.02-2.22-3.33-2.85-2.99-1.46-6.14-2.36-9.41-2.86-1.31-.2-2.44,.67-2.09,2.02,.43,1.68,2.19,2.84,3.63,3.57,1.34,.67,2.68,1.35,4.02,2.02l.43-5.02c-4.78-2.22-9.56-4.44-14.34-6.65l.55,5.25c2.7,.79,5.4,1.57,8.1,2.36l-4.28-4.99c-1.64,4.43-4.48,8.37-8.07,11.42l6.68,4.94,5.51-8.79-6.91-4.38c-2.22,4.2-4.55,8.35-6.75,12.56l7,3.76c.05-10.95-2.64-21.55-7.62-31.27-.68-1.33-2.41-2.38-3.85-2.6-.96-.15-2.57,.14-2.05,1.55,2.21,6.03,3.52,12.16,4.64,18.47l5.87,1.41c-1.19-3.95-2.57-7.84-4.15-11.64s-3.17-7.73-5.46-11.12l-2.43,.59c.8,.53,1.56,1.11,2.33,1.68,.42,.31,1.27,.73,1.79,.43s.29-.83-.07-1.18h0Z"/><path class="cls-1" d="M384.78,212.22c14.36,7.91,28.73,15.79,42.94,23.96s28.26,16.63,42.14,25.36,26.61,17.02,39.58,26.01c11.62,8.06,22.98,16.55,33.41,26.12,10.24,9.4,19.34,19.82,26.69,31.63,.91,1.47,1.79,2.96,2.64,4.47,1.18,2.1,3.53,4.14,6.05,4.26,2.06,.1,3.51-1.35,2.4-3.41-6.97-12.95-16.48-24.41-27.08-34.54s-22.63-19.23-34.88-27.61c-13.27-9.07-26.88-17.66-40.57-26.08s-28.5-17.16-42.98-25.34c-14.47-8.17-29.08-16.21-44.01-23.53-1.86-.91-3.72-1.82-5.58-2.72-.42-.21-1.52-.68-1.85-.07s.7,1.29,1.09,1.5h0Z"/><path class="cls-1" d="M770.44,548.32c-.88-.85-2.3-.64-3.38-.34-1.57,.44-1.64,2.09-1.36,3.47,.13,.65,.34,1.83,1.16,1.92,7.41,.79,15.07-.11,22.36-1.53s14.6-3.35,21.76-5.54c14.04-4.29,27.93-9.17,41.71-14.21,27.46-10.04,54.37-21.42,80.99-33.49,7.25-3.28,14.33-6.85,21.52-10.26,3.61-1.71,7.23-3.42,10.8-5.23,1.79-.9,3.58-1.81,5.36-2.73s3.4-1.92,5.23-2.49l-.8,.23c.88-.23,1.71-.31,2.58,0l-.79-.3c.15,.06,.28,.14,.4,.24,.22,.16,.17,.12-.13-.12l-.93-2.72,.43,1.7-.59-3.32c.06,.65,1.87-8.42,1.53-7.16-.03,.1-.61,.61-.02,.06,.48-.45-.11,.02-.36,.1l.81-.19c-.15,.03-.24,.03-.39,0l.76,.33c-.63-.39-.35,.14,.85,1.58l.44,3.24v-.2c-.06-1.38-.18-3.18-.92-4.42-.44-.73-1.26-1.47-2.17-.94-2.45,1.41-2.99,6.18-2.9,8.62,.07,1.97,.3,6.25,3.08,6.43,1.82,.12,3.17-1.56,3.93-2.97,.93-1.73,1.27-3.8,1.42-5.74,.18-2.2-.01-5.06-1.21-7.03-.94-1.55-2.7-2.37-4.48-2.01-1.89,.38-3.49,1.33-5.15,2.27-1.81,1.02-3.63,2.04-5.45,3.05-3.65,2.03-7.29,4.08-10.94,6.11-7.57,4.2-15.3,8.05-23,12.01s-14.75,7.52-22.26,11.03c-14.9,6.96-29.95,13.61-45.15,19.88-15,6.19-30.14,12.01-45.42,17.47-15.45,5.52-31.15,10.98-47.48,13.19-2.03,.28-4.03,.65-6.05,.99l1.05,1.38c-.05,1.05-.03,1.23,.07,.51l.07-.49c.15-.48,.44-.8,.87-1.03,.7-.38,1.35-.2,1.89,.36,.28,.29,.65-1.29,.24-1.69h0Z"/><path class="cls-1" d="M979.64,470.65c-1.93,1.68-4.28,2.73-6.4,4.16-2.25,1.52-4.43,3.18-6.64,4.76-4.43,3.16-8.88,6.28-13.42,9.27-8.99,5.94-18.18,11.58-27.62,16.78s-19.24,10.46-29.18,15.11-20.14,8.84-30.35,12.93c-11.61,4.65-23.45,8.79-35.35,12.6-2.47,.79-3.72,9.81-.77,9.13,21.42-4.96,42.14-12.31,62.03-21.68,20.16-9.5,39.48-20.67,57.61-33.65,5.29-3.79,10.5-7.71,15.61-11.74,2.43-1.92,4.8-3.9,7.16-5.9,2.6-2.2,4.71-4.96,7.38-7.06,.93-.73,1.16-2.2,1.13-3.3-.02-.67-.24-2.24-1.2-1.41h0Z"/><path class="cls-1" d="M1128.09,401.22c-.17,.12-.34,.27-.53,.37-.37,.19-.07,.13-.53,.04-.28-.05-.39-.24-.7-.15-.25,.07-.35,.24-.49,.46-.34,.52-.62,1.09-.86,1.66-.57,1.39-.89,2.84-1.04,4.33-.34,3.44,.41,7.04,2.05,10.07,1.25,2.31,3.26,4.27,5.77,5.16,2.24,.79,4.84,.87,7.08,.04,1.23-.46,2.53-1.18,3.42-2.17,1.1-1.23,1.75-2.77,2.11-4.36,.21-.94,.03-2.08-.35-2.95-.14-.32-.85-1.54-1.32-.91-2.23,2.94-6.46,4.62-10.12,4.09-2.05-.3-3.61-1.24-4.88-2.7-.23-.27,.18,.25-.03-.04-.08-.11-.16-.23-.24-.34-.13-.2-.25-.42-.38-.62,.33,.5-.07-.15-.15-.33-.04-.08-.16-.32-.16-.39-.03,.25,.16,.5,.02,.03-.02-.05-.25-.65-.2-.71,0,.01,.13,.68,.05,.19-.02-.14-.05-.28-.07-.42-.06-.33-.17-.17,.01,.17-.04-.08-.03-.37-.04-.43-.01-.22,0-.96-.02-.36,.02-.33,.03-.66,.06-.98,0-.06,.07-.51,.02-.24s.06-.29,.07-.35c.12-.64,.26-1.14,.45-1.64,.26-.67,.66-1.29,.82-1.99,.13-.56-.07-1.24,.09-1.76,.11-.36,.48-.81,.67-1.12s-.05-2-.59-1.64h0Z"/><path class="cls-1" d="M1139.8,402.87c.37,.04,.56,.48,.81,.66,.2,.14,.34,.18,.58,.26,.51,.16,1.05,.29,1.57,.36,1.07,.15,2.14,.27,3.22,.41l-1.4-2.52c.2,2.25,.42,4.5,.33,6.76-.06,1.47-.52,3.46-1.38,4.89-1.74,2.89-5.31,5.27-8.78,4.8-1.53-.21-1.66,5.36-.31,5.82,2.04,.7,4.08,.72,6.06-.21s3.58-2.64,4.68-4.47c3.29-5.48,2.55-12.58,1.42-18.56-.1-.51-.52-1.9-1.27-1.82-1,.11-2.01,.19-3,.33-.5,.07-.99,.17-1.48,.32-.2,.02-.39,.09-.56,.19-.2,.33-.48,.57-.84,.74-.57,.05-.24,1.97,.35,2.03h0Z"/><path class="cls-1" d="M642.85,378.21c-2.02-2.26-4.44-4.13-7.05-5.65-1.27-.74-2.6-1.28-3.92-1.91-1.53-.74-2.85-1.45-4.54-1.72-1.1-.18-.93,1.63-.81,2.17,.3,1.32,1.08,2.61,2.12,3.45,5.93,4.79,13.24,6.89,20.45,8.92,8.32,2.34,16.64,4.66,24.97,6.93,4.94,1.35,9.87,2.75,14.79,4.16,1.89,.54,2.12-1.41,1.74-2.84-.46-1.74-1.79-4.53-3.71-5.13-10.72-3.4-21.24-7.09-31.48-11.78l2.97,8.55c8.87,1.21,17.76,2.63,26.57,4.24,1.88,.34,1.58-2.9,1.34-3.77-.59-2.19-1.87-4.52-3.76-5.84-5.09-3.54-10.76-5.75-16.91-6.52-.94-.12-1.58,.89-1.7,1.67-.17,1.11,.06,2.21,.4,3.26,.77,2.43,2.43,5.34,4.9,6.39,5.52,2.35,11.58,3.46,17.56,3.11l-4.69-12.34c-7.9,.6-15.8,1.26-23.72,.79-3.9-.23-7.79-.75-11.58-1.71-2.11-.53-3.17-.87-5.22-1.69-1.84-.73-3.63-1.56-5.39-2.46-4.01-2.05-7.81-4.49-11.62-6.87l2.71,13.29c17.1,4.79,33.92,10.39,50.74,16.09,4.79,1.62,9.63,3.1,14.42,4.72,.93,.31,1.82,.45,2.46-.47s.49-2.64,.27-3.62c-.61-2.74-2.37-6.58-5.17-7.78-4.12-1.76-8.25-3.49-12.4-5.19-4.38-1.79-8.89-3.29-13.36-4.84-8.61-3-17.29-5.76-26.02-8.37-4.87-1.45-9.76-2.85-14.66-4.21-1.04-.29-1.89,.84-2.11,1.67-.32,1.23-.19,2.52,.06,3.74,.6,2.94,2.11,6.24,4.75,7.88,7.12,4.42,14.36,8.61,22.5,10.86,7.86,2.18,16.11,2.42,24.2,1.89,4.63-.3,9.25-.81,13.85-1.38,2.78-.34,1.92-4.23,1.2-6.02-.64-1.6-1.51-3.24-2.75-4.46-.76-.75-1.97-1.98-3.14-1.86-5.37,.57-10.62-.03-15.53-1.87l3.59,11.32c2.49,.18,4.59,.55,6.85,1.28,1.14,.37,2.27,.78,3.38,1.24,.51,.22,1.02,.45,1.53,.69,.31,.15,.62,.31,.93,.47,.68,.36-.8-.48,.36,.2l-2.42-9.61c-8.7-.66-17.43-1.55-26.09-2.63-1.87-.23-1.17,3-.9,3.78,.66,1.9,1.96,3.93,3.86,4.77,10.08,4.48,20.53,8.53,31.2,11.36l-1.97-7.98c-8.29-2.01-16.55-4.11-24.82-6.22-7.73-1.97-15.65-3.5-23.24-5.96-3.7-1.2-7.35-2.73-10.5-5.04l1.32,5.63c1.16,.11,2.27-.05,3.43,.02s2.38,.62,3.44,1.08c2.31,1.01,4.27,2.54,5.98,4.38,.42,.45,1.06,.71,1.29,0s-.51-1.78-.95-2.27h0Z"/><path class="cls-1" d="M694.67,384.8c-4.43-1.17-8.92-2.2-13.22-3.77-1.43-.52-1.61,1.04-1.4,2.09,.29,1.48,1.24,3.28,2.64,3.99,9.77,4.94,19.9,9.13,29.95,13.47,10.01,4.32,19.95,8.89,30.07,12.95,2.87,1.15,3.41-2.08,2.98-4.25-.65-3.31-2.39-6.48-5.25-8.34-17.45-11.33-38.24-15.77-58.59-18.41-5.76-.75-11.53-1.36-17.31-1.97-3.12-.33-2.29,4.85-1.76,6.49,.95,2.98,2.72,6.46,5.93,7.42,14.66,4.39,29.31,8.83,43.97,13.22,1.07,.32,1.96-.89,2.18-1.73,.33-1.28,.19-2.6-.07-3.87-.65-3.17-2.23-6.26-4.92-8.15-8.19-5.76-17.24-10.32-26.68-13.67l3.29,13.66c23.35,2.63,45.07,8.17,66.72,17.14,5.86,2.43,11.55,5.36,17.61,7.23,2.37,.73,2.86-1.57,2.51-3.42-.52-2.74-2.23-5.46-4.51-7.07-5.29-3.73-11.14-6.5-17.06-9.07-5.26-2.28-10.6-4.38-16.01-6.29-11.23-3.96-22.76-7.13-34.43-9.48-6.35-1.28-12.76-2.29-19.19-3.06-2.85-.34-2.29,4.2-1.93,5.69,.38,1.57,.99,3.18,1.89,4.54,.81,1.23,1.9,2.91,3.34,3.43,9.34,3.39,18.07,8.04,26.21,13.72l-2.8-13.76c-14.75-4.35-29.52-8.65-44.28-13l4.17,13.92c10.15,1.02,20.3,2.07,30.36,3.8,5,.86,9.98,1.89,14.89,3.18,1.17,.31,2.33,.63,3.49,.97,.54,.16,1.09,.32,1.63,.49-.62-.19,.06,.02,.16,.05,.4,.13,.81,.26,1.21,.39,2.41,.79,4.8,1.64,7.16,2.58,5.24,2.08,10.31,4.6,15.1,7.58l-2.27-12.58c-7.58-2.86-15.34-5.34-22.99-7.99-7.8-2.7-15.57-5.59-23.44-8.09-4.34-1.38-8.65-2.8-13.05-3.98l2.24,6.37c4.39,.58,8.68,1.78,12.98,2.8,1.28,.31,1.35-.98,1.09-1.93-.31-1.13-1.31-2.99-2.58-3.33h0Z"/><path class="cls-1" d="M725.74,394.48l.17,.13,1.08,1.22-.09-.15,1.07,2.54c.51,2.11-.42,1.18,.27,.8,.19-.1,.35-.25,.55-.34,.61-.29,1.34-.25,2.01-.3,1.82-.14,3.64-.25,5.46-.3,3.5-.11,7.08,.13,10.57,.34s7.18,.84,10.79,1.42,6.95,1.29,10.38,2.17c6.68,1.73,13.21,4.08,19.46,7,3.19,1.49,6.31,3.14,9.34,4.94,.63,.37,1.25,.75,1.87,1.13,1.19,.73-.77-.5,.41,.26,.36,.23,.72,.46,1.07,.69,1.55,1,3.09,2.01,4.65,3,6.79,4.32,13.84,8.46,21.99,9.41,1.08,.13,1.83-1.02,1.98-1.91,.2-1.26-.05-2.51-.43-3.71-.46-1.48-1.16-2.98-2.11-4.21-.9-1.16-2.02-2.55-3.46-3.03-2.17-.72-4.43-1.25-6.64-1.83s-4.24-1.37-6.35-2.09c-4.39-1.5-8.78-2.99-13.15-4.52l-25.89-9.1c-4.85-1.7-9.67-3.49-14.48-5.29l2.25,11.13c10.1,3.31,20.1,7.33,29.81,11.67s19.36,9.22,28.66,14.51c5.14,2.92,10.48,5.47,15.63,8.41,1.98,1.13,2.57-1.47,2.42-2.82-.27-2.35-1.56-4.99-3.47-6.44-4.6-3.47-9.24-7.04-14.13-10.09-4.52-2.82-9.26-5.35-13.98-7.82-9.36-4.9-19.16-9.06-29.06-12.74-5.96-2.22-12.02-4.01-18.12-5.79-.91-.27-1.76-.37-2.38,.51s-.5,2.47-.29,3.42c.35,1.58,.99,3.17,1.95,4.48,.75,1.03,1.72,2.31,2.97,2.72,17.56,5.86,35.02,12.08,52.42,18.4,2.43,.89,4.93,1.68,7.32,2.66s4.93,2.29,7.48,3.24l-4.02-12.86c-.8-.08-1.59-.19-2.37-.34-.46-.08-.92-.18-1.38-.28s-.02,0,.06,.02c-.26-.07-.52-.14-.78-.21-1.68-.49-3.33-1.11-4.93-1.82-3.25-1.45-6.33-3.26-9.37-5.12-6.17-3.78-12.33-7.4-19.04-10.15-6.95-2.85-14.2-4.97-21.6-6.25s-14.61-1.5-21.95-1.21c-2.06,.08-4.07,.42-6.12,.64s-4.15,.5-6.2,.84c-1.63,.27-3.22,.69-3.99,2.33-1.04,2.24,.66,6.15,3.01,6.92,1.46,.47,1.64-1.02,1.42-2.14-.28-1.43-1.26-3.44-2.7-4.06h0Z"/><path class="cls-1" d="M879.75,430.41c-.58-.92-.69-1.03-.9-1.97-.14-.61-.22-1.3-.24-1.99-.03-1.91,.47-3.73,1.26-5.47l-4.04-4.48c-.98,9.3-2.81,18.45-5.42,27.43-.44,1.52,.24,3.6,1.03,4.9,.5,.83,1.78,2.78,3.01,2.22,3.68-1.67,5.98-4.95,8.08-8.26s3.95-6.67,7.22-8.64l-4.3-7.53c-3.54,9.45-5.67,19.33-6.18,29.41-.1,2.07,.81,4.59,2.14,6.19,.94,1.13,2.21,2.3,3.58,1.2,7.78-6.24,14.28-13.96,19.94-22.12,1.37-1.98,.19-5.35-.94-7.18-.68-1.11-3.13-4.35-4.61-2.37-3.19,4.26-5.07,9.41-5.4,14.72-.15,2.31,.93,5.18,2.43,6.93,1.07,1.26,2.58,2.57,4.1,1.29,2.55-2.15,5.09-4.29,7.64-6.44l3.73-3.14c1.06-.9,2.11-2,3.41-2.56,.29-.12,.29-.11,.49-.16,.25-.05-.13-.26,.23,.03-1.13-.93-1.96-1.89-2.45-3.35-.08-.25-.34-1.89-.27-.95,.02,.28,.33,.97,.05,.32-.02-.43-.02-.44-.02-.02v.49c0,.82-.01,1.64-.02,2.46-.02,3.44-.04,6.88-.09,10.32-.03,2.43,.92,5.24,2.55,7.09,1.1,1.25,2.75,2.65,4.27,1.26,4.29-3.91,7.92-8.3,11.34-12.97l-4.34-1.26c.17,.17,.34,.35,.49,.54l-.49-.67c-.46-.94-.58-1.18-.38-.72,.2,.47,.11,.21-.28-.77,.37,1.2-.17-1.4-.02-.13,.04,.37,.1,.73,.13,1.1,.18,1.81,.36,3.55,.76,5.34,.98,4.27,3.61,9.34,7.7,11.38,5.38,2.69,8.31-2.89,11.74-5.82l-.75,.61c.53-.43,1.09-.78,1.77-.93l-.96,.15c.22-.03,.66,.08,.84,0,.34-.13-.98-.34-.38-.08s-.44-.28-.51-.34l-.75-.76c-.73-1.08-.95-1.39-.67-.93,.18,.31,.09,.13-.27-.52-.23-.36-.41-.75-.53-1.16-.44-1.21-.02,.17,.07,.49-.72-2.72,0,0,.09,.46,.13,.63,.24,1.27,.41,1.89,.58,2.14,1.52,4.17,2.8,5.98,1.81,2.54,4.6,4.66,7.85,3.59,1.72-.57,2.94-2.08,4.75-2.43l-1.01,.15s.83-.05,.83,0c-.6-.22-.68-.23-.24-.04l-.65-.42c-.7-.76-.89-.96-.57-.59,.27,.33,.15,.15-.36-.55,.13,.29,.36,.59,.52,.87,1.15,1.99,2.45,3.84,4.16,5.38,2.76,2.48,6.39,3.67,9.95,2.36,1.03-.38,1.5-1.84,1.56-2.79,.1-1.36-.15-2.67-.58-3.95s-1.09-2.75-2.04-3.81c-.77-.86-1.89-2.07-3.15-2.05-1.1,.02-2.08-.22-3.14-.43-.5-.1,.63,.29-.11-.06-.22-.11-.45-.2-.67-.3s-.42-.23-.64-.33c-.99-.5,.54,.51,.11,.08-.16-.16-.76-.74-.11-.02,.83,.93-.16-.22-.15-.22,.07-.02,.96,1.48,.46,.63-.11-.19-.23-.39-.35-.58-.75-1.27-1.54-2.56-2.53-3.66-2.01-2.24-4.78-4.07-7.86-2.87-1.64,.64-2.86,2.09-4.63,2.46l1-.15s-.82,.04-.8,0c.62,.22,.78,.27,.48,.14-.38-.17-.17-.02,.64,.47l-.17-.14c.63,.53,1.16,1.15,1.58,1.86l.67,1.29c-.18-.44-.13-.29,.15,.45,.53,1.49,0-.2-.09-.6-.12-.53-.23-1.06-.36-1.59-.97-3.79-3.25-8.51-7.14-10.04-4.87-1.92-7.22,3.61-10.33,6.16l.75-.6c-.52,.4-1.05,.67-1.64,.94-.48,.22-.58-.09,.04,.05-.3-.06-1.47-.28-.46,.13-.18-.06-.36-.14-.53-.24,.64,.46,.76,.52,.34,.19l.61,.62c-.42-.5-.29-.3,.38,.59-.12-.18-.24-.37-.35-.57,.56,1.11,.69,1.33,.39,.68,.86,2.18-.16-1.03,.18,.53,.26,1.2-.04-.42-.07-.64-.07-.5-.13-1.01-.22-1.51-.22-1.25-.47-2.51-.82-3.74-.97-3.33-2.57-6.3-5.09-8.7-.8-.76-2.59-1.55-3.39-.29-3.06,4.86-7,9.22-11.22,13.09l6.82,8.35c-.07-4.21-.11-8.43-.15-12.64-.02-2.17-.15-4.26-.78-6.36-.83-2.76-2.54-6.23-5.34-7.49-1.9-.86-3.71-.39-5.31,.83s-3.21,2.66-4.81,4c-3.22,2.71-6.45,5.42-9.67,8.13l6.53,8.23c.04-.57,.08-1.14,.14-1.71,.03-.29,.07-.57,.11-.86-.06,.38-.05,.32,.04-.19,.23-1.06,.48-2.11,.82-3.14,.67-2.03,1.55-3.79,2.75-5.58l-5.55-9.55c-5.3,8.55-12.12,15.9-19.6,22.58l5.71,7.39c.18-9.72,1.81-19.38,5.05-28.56,.55-1.55-.27-3.87-1.07-5.2-.48-.78-2.02-3.08-3.23-2.33-3.49,2.17-5.64,5.54-7.73,8.97-1.94,3.17-3.98,6.61-7.37,8.41l4.04,7.12c2.4-9.77,4.02-19.75,4.81-29.78,.12-1.51-.68-3.36-1.7-4.44-.76-.8-1.8-1.35-2.34-.04-2.36,5.68-1.15,12.18,1.68,17.45,.41,.77,1.81,2.58,2.75,1.49,.9-1.03-.02-3.45-.6-4.38h0Z"/></g><g><path class="cls-3" d="M968.4,486.8c1.89,.24,3.83,1.09,5.66,1.61,1.96,.56,3.94,1.09,5.92,1.59,3.81,.97,7.65,1.79,11.51,2.52,7.79,1.47,15.65,2.54,23.55,3.21,15.79,1.33,31.72,1.04,47.46-.83,15.73-1.87,31.27-5.33,46.29-10.36,7.57-2.54,15.02-5.46,22.29-8.77,2.28-1.04,5.35-2.34,5.41-5.26,.07-3.32-3.81-4.74-6.21-6.1-7.85-4.48-15.71-8.96-23.59-13.4-1.95-1.1-3.9-2.2-5.84-3.29-1.61-.91-3.4-1.73-4.8-2.96-1.05-.92-1.71-2.07-1.18-3.51,.3-.82,1.13-1.54,1.85-2,1.57-.99,3.37-1.07,5.13-.59,1.93,.53,3.7,1.5,5.41,2.51,.11,.06,.15-.5,.04-.58-2.78-2.04-6.31-4.55-9.9-2.95-2.29,1.02-3.7,3.39-3.03,5.88,.38,1.42,1.43,2.44,2.62,3.24,1.69,1.14,3.53,2.06,5.3,3.06,3.97,2.25,7.93,4.51,11.9,6.75s7.94,4.45,11.9,6.67c1.95,1.09,3.9,2.18,5.85,3.27,.78,.44,1.58,.85,2.32,1.36,1.07,.74,2.14,1.76,1.71,3.24s-2.51,2.5-3.77,3.11c-1.89,.91-3.81,1.77-5.73,2.61-3.67,1.61-7.38,3.11-11.13,4.52-14.92,5.57-30.42,9.57-46.17,11.97s-31.73,3.2-47.63,2.37-31.66-3.35-47.07-7.3c-1.97-.5-4.23-.86-6.08-1.72-.03-.01-.05,.15,0,.15h0Z"/><path class="cls-3" d="M1128.05,387.9c-.07,.13-.26,.14-.39,.17l-.34,.08-.66,.16-1.35,.32s0,.06,0,.06l1.35-.35,.66-.17,.32-.08c.1-.03,.34-.14,.42-.04,.03,.03,.01-.18,0-.15h0Z"/><path class="cls-3" d="M1038.82,400.79c1.71-1.59,4.03-2.77,6.03-3.94s4.05-2.28,6.13-3.3c4.23-2.08,8.62-3.85,13.09-5.32,8.99-2.95,18.4-4.6,27.86-4.83,20.91-.51,40.83,6.58,60.04,14.06,10.14,3.94,20.19,8.1,30.16,12.47,2.45,1.08,4.9,2.16,7.34,3.27s4.85,2.57,7.32,3.76c.9,.43,1.89,.91,2.52,1.72,.97,1.24-.44,3.07-1.13,4.16-1.02,1.62-2.16,3.16-3.4,4.61-10.18,11.96-25.57,17.43-38.33,25.98-3.23,2.17-6.35,4.52-9.2,7.18-.33,.3-.64,.7-1,.96-.62,.43-.97,.14-1.62-.2-1.33-.68-2.66-1.36-3.99-2.05-2.43-1.25-4.87-2.5-7.3-3.75-4.95-2.54-9.89-5.08-14.84-7.62s-9.47-5.04-14.35-7.23c-2.2-.99-4.38-1.79-6.75-2.25-.33-.06-.43,1.94,.05,2.12,8.36,3.04,16.14,7.49,24.02,11.57s16.24,8.41,24.36,12.62c.07,.07,.14,.06,.2,0,9.75-9.66,22.58-15.32,33.97-22.71,5.59-3.62,10.96-7.73,15.19-12.92,1.05-1.28,2.02-2.62,2.9-4.02s1.8-2.79,2.06-4.39c.22-1.33,.07-2.85-.86-3.89-1.16-1.29-3.17-1.9-4.73-2.49-8.82-3.36-17.37-7.43-26.1-11.02s-17.31-6.99-26.07-10.19c-16.74-6.11-34.17-11.01-52.16-10.2-16.35,.74-32.41,5.68-46.3,14.35-1.7,1.06-3.34,2.48-5.13,3.36-.04,.02,0,.16,.02,.15h0Z"/><path class="cls-3" d="M1141.1,464.82c-.06,.09-.35-.14-.41-.19-.12-.09-.22-.18-.37-.2-.26-.04-.52-.11-.76-.21s-.46-.23-.66-.39c-.19-.15-.38-.29-.53-.48-.04-.05-.06,.12-.06,.12,0,.08-.01,.19,.03,.26,.14,.26,.31,.52,.52,.72s.44,.36,.68,.49,.49,.23,.75,.3c.07,.02,.13,.04,.2,.02,.06-.02,.12-.06,.18-.1,.07-.04,.13-.07,.19-.11,.05-.03,.19-.16,.25-.1,.03,.03,.02-.18,0-.15h0Z"/><path class="cls-3" d="M1104.01,442.33c.79,.27,1.52,.7,2.26,1.08,.05,.03,.03-.18,.02-.21-1.64-3.14-5.35-5.89-8.93-3.97-2.92,1.57-2.45,5.92-.66,8.18,1.35,1.71,3.47,2.74,5.31,3.81,2.27,1.33,4.55,2.65,6.82,3.98,4.48,2.61,9.1,5.04,13.68,7.47,2.5,1.33,5,2.66,7.5,3.99,1.32,.7,2.65,1.41,3.97,2.11,.57,.3,1.16,.71,1.77,.94,.83,.31,1.07-.23,1.87-.6,.18-.08,.12-.66,.04-.79-.75-1.15-1.12-2.21-2.38-2.87-1.03-.54-2.06-1.08-3.09-1.62-1.92-1-3.83-2-5.75-3-3.96-2.07-7.94-4.11-11.92-6.14s-7.79-3.84-11.72-5.7c-2.21-1.04-9.96-4.43-5.74-7.66,1.51-1.16,3.52-1.08,5.29-.69,.87,.19,1.87,.59,2.6,1.11,.17,.12,1.21,1.28,1.13,1.33-.2,.13-2.11-.94-2.07-.91-.02-.01-.05,.14,0,.15h0Z"/><path class="cls-3" d="M1131.38,468.77c1.11,.31,1.06,1.94,.5,2.75-.27,.39-.64,.73-.99,1.06-.83,.79-1.68,1.59-2.58,2.3-1.97,1.56-4.21,2.75-6.51,3.75-4.94,2.13-10.15,3.75-15.28,5.33-10.98,3.37-22.21,5.87-33.57,7.56-22.82,3.4-45.86,3.98-68.76,1.02-6.45-.83-12.87-1.93-19.23-3.29-3.11-.66-6.2-1.39-9.28-2.18-1.61-.41-3.22-.84-4.82-1.29-.56-.16-1.19-.48-1.76-.55l-.37-.12c-.38,1-.36,1.37,.08,1.1,.21,.02,.6-.12,.58-.38l.07-.75-.09,.14c-.16,.26,.03,1.47,.23,1.14,.54-.86-.32-2.91-1.37-1.88-.56,.56-.26,2.1-.02,2.71,.5,1.26,1.54,1.53,2.73,1.86,6.34,1.8,12.75,3.32,19.21,4.57,13,2.52,26.21,3.94,39.45,4.27,26.42,.67,52.69-3.11,77.86-11.19,6.34-2.03,13.02-4.04,18.6-7.78,2.45-1.64,4.96-3.77,6.11-6.58,.44-1.06,.99-3.76-.79-3.89-.05,0-.06,.28,0,.3h0Z"/><path class="cls-3" d="M968.65,462.94s.03-.15,0-.15c-.03,0-.03,.15,0,.15h0Z"/><path class="cls-3" d="M968.59,463.58c-2.45-.03-5.01-.68-7.43-1.05s-4.95-.74-7.43-1.06l-15.12-1.99c-4.94-.65-9.87-1.33-14.81-1.94s-10.02-1.02-14.98-.22c-9,1.45-17.01,6.6-24.84,10.97-8.3,4.63-16.58,9.29-24.86,13.96-16.49,9.3-32.97,18.63-49.57,27.72-16.66,9.12-33.45,18.01-50.49,26.39-17.17,8.45-34.6,16.38-52.36,23.5-2.18,.88-4.37,1.74-6.56,2.59-.2,.08-.11,.64-.01,.77,2.43,3.09,6.84,2.83,10.37,2.78,5.06-.06,10.11-.24,15.16-.51,10.07-.54,20.12-1.45,30.12-2.73,20.01-2.55,39.88-6.44,59.41-11.49,19.74-5.11,39.21-11.23,58.46-17.96,18.86-6.6,37.55-13.73,56.02-21.35,16.39-6.76,32.87-14.52,45.98-26.73,1.64-1.52,3.21-3.11,4.72-4.76,.36-.39,.3-1.2,.25-1.68-.02-.13-.22-1.27-.53-.94-12.24,13.35-28.44,21.95-44.88,29.02-17.95,7.73-36.32,14.63-54.68,21.31-19.03,6.92-38.28,13.28-57.79,18.71-19.42,5.4-39.07,10.01-58.98,13.24-9.88,1.6-19.81,2.87-29.78,3.75-5.03,.45-10.07,.78-15.12,1.01-2.44,.11-4.88,.2-7.32,.26-2.11,.05-4.25,.18-6.35-.12-1.95-.28-3.77-.99-5.01-2.57v.77c17.68-6.89,35.04-14.6,52.13-22.85,16.96-8.19,33.65-16.91,50.2-25.9s33.14-18.35,49.62-27.67c8.28-4.68,16.56-9.37,24.85-14.02,4.18-2.35,8.36-4.69,12.55-7.01s8.3-4.57,12.75-6.18,9.31-2.32,14.18-2.16,9.86,.94,14.76,1.58c9.98,1.3,19.96,2.71,29.97,3.82,2.43,.27,5.05,.3,7.42,.9,.02,0,.04-.15,0-.15h0Z"/><path class="cls-3" d="M702.75,563.67c19.78-.05,39.48-1.37,59.14-3.54s39.12-5.5,58.42-9.78,38.54-9.55,57.41-15.72c18.78-6.14,37.27-13.21,55.36-21.16,8.58-3.77,17.2-7.6,25.55-11.87,7-3.58,14-7.95,18.48-14.59,1.1-1.62,1.99-3.35,2.7-5.17,.21-.54,.24-1.22,.1-1.78-.05-.18-.34-1.01-.55-.45-2.96,7.63-9.38,12.88-16.19,17.01-7.95,4.82-16.58,8.66-25.05,12.48-17.86,8.07-36.12,15.26-54.68,21.55-18.64,6.32-37.59,11.73-56.75,16.22s-38.4,7.89-57.8,10.76c-19.49,2.88-39.13,4.54-58.79,5.64-2.45,.14-4.89,.26-7.34,.36-.01,0-.01,.06,0,.06h0Z"/><path class="cls-3" d="M973.3,437.27c.81,5.08,1.99,10.06,2.11,15.23s-.62,10.1-1.93,15.01c-.19,.71-.23,1.57,0,2.27,.11,.31,.45,1.04,.78,.43,1.06-2.01,1.65-4.25,2.57-6.32,.07-.16,0-1.12-.18-.83-.95,1.46-2.23,2.66-3.06,4.18l.78,2.7c1.63-5.57,2.29-11.44,2.12-17.24-.08-2.84-.36-5.67-.86-8.47-.42-2.37-.99-5.01-2.3-7.05-.03-.05-.04,.08-.04,.09h0Z"/><path class="cls-3" d="M990.6,439.47c-1.26-1.33-1.97-3.27-2.37-5.03l-.4,.94c1.52,4.66,1.81,9.63,1.35,14.49s-1.75,9.25-2.66,13.89c-.13,.68-.13,1.6,.16,2.25,.14,.32,.56,.84,.83,.27,.88-1.91,1.55-3.92,2.37-5.86,.08-.18-.01-1.31-.29-.94-.91,1.22-2,2.35-2.84,3.61l.89,2.9c1.43-5.29,2.36-10.95,2.7-16.43s-.09-10.43-2.16-15.27c-.31-.72-.46,.78-.35,1.09,.61,1.72,1.62,2.88,2.76,4.24,.01,.01,.04-.11,.01-.15h0Z"/><path class="cls-3" d="M999.72,437.26c-.91-1.2-1.47-3.38-.8-4.78l-.45-.73c.1,2.44,.44,4.86,.48,7.31s-.27,4.81-.53,7.2c-.25,2.27-.63,4.54-1.1,6.77-.52,2.48-1.61,4.88-1.99,7.37-.22,1.41-.27,3.19,.43,4.49,.55,1.02,1.24,.77,1.6-.31,.73-2.19,1.58-4.32,2.5-6.43,.08-.19,.14-1.79-.26-1.49-.53,.4-1.04,.84-1.61,1.18-.27,.16-.52,.22-.81,.33s-.57,.38-.83,.48l.78,6.48c.78-1,.99-2.73,1.31-3.95,.39-1.52,.75-3.04,1.06-4.58,.58-2.94,.95-5.93,1.08-8.93s-.09-5.8-.35-8.69c-.23-2.59-.4-5.38-1.27-7.85-.16-.46-.4-.12-.44,.18-.34,2.35-.08,4.07,1.2,6.08,.02,.04,.05-.1,.02-.13h0Z"/><path class="cls-3" d="M1010.14,431.91c.02,.2-.15-1.76,.02-1.79l-.35-.72c.56,3.32,.96,6.52,.63,9.89-.28,2.9-.5,6.1-1.58,8.83l.59-1.03c-1.25,1.53-1.73,3.52-2.36,5.39-.68,2.02-1.29,4.07-1.96,6.1-.91,2.76-.89,6.51,.46,9.11,.38,.73,.84,1.42,1.73,1.16,1.09-.32,1.4-2.05,1.61-2.96-2.68-7.01-4.12-8.64-4.33-4.89-.04,.64-.05,1.28-.03,1.91,.04,1.56,.22,4.87,1.83,5.85s2.31-1.91,2.53-2.87c.71-3.11,1.52-6.21,2-9.36,.28-1.86,.27-4.03,.45-5.63s.44-3.19,.59-4.79c.29-3.1,.32-6.18,.03-9.28-.27-2.81-.6-5.75-1.64-8.4-.35-.89-.65,.98-.45,1.42,.27,.58,.19,1.47,.18,2.1,0,.11,.06,.07,.05-.02h0Z"/><path class="cls-3" d="M981.01,436.05c-.27,0-1.42,.09-1.48-.26-.01-.06,1.72-.67,1.92-.75,1.17-.43,2.34-.81,3.53-1.17,2.19-.65,4.41-1.18,6.65-1.67,4.58-1,9.19-1.84,13.79-2.75,8.91-1.78,17.72-4.19,25.17-9.6,4.49-3.26,8.33-7.32,12.01-11.44,.03-.04,0-.2-.02-.17-6.48,6.95-13.57,13.26-22.56,16.7s-17.68,4.38-26.56,6.31c-4.9,1.07-9.75,2.54-14.32,4.63-.01,0-.01,.06,0,.07,.63,.06,1.25,.09,1.87,.25,.03,0,.04-.16,0-.15h0Z"/><path class="cls-3" d="M1048.87,402.84c-7.72,8.32-13.1,20.18-24.63,23.97-.13,.04-.07,.51,.01,.48,11.82-3.44,17.49-15.47,24.62-24.39,0-.01,0-.07,0-.06h0Z"/><path class="cls-3" d="M1133.76,400.14c-.33-.47-.56-1-.82-1.5,0,0-.01-.02-.02-.02-4.13,1.39-5.55,5.83-5.68,9.81-.08,2.38,.2,4.98,1.19,7.17s3.05,3.68,5.53,3.86c5.34,.4,9.52-4.98,10.4-9.78,.93-5.1-1.69-11.2-7.42-11.61-6.12-.44-9.2,6.57-7.44,11.7,.24,.71,.46-.55,.42-.78-.25-1.59,.66-3.1,1.65-4.28,1.22-1.45,2.92-2.33,4.82-2.38s3.69,.59,5.1,1.74c1.48,1.21,2.08,2.77,1.83,4.64-.53,4.14-4.6,8.42-8.86,8.6-2.13,.09-4.26-.78-5.39-2.66-1.04-1.74-1.33-4.03-1.31-6.03,.02-2.15,.51-4.29,1.55-6.18,.51-.93,1.16-1.78,1.97-2.47,.34-.29,.79-.72,1.22-.86,.69-.23,.99,.6,1.26,1.17,.02,.03,.05-.1,.02-.13h0Z"/><path class="cls-3" d="M1137.06,405.13c-.15-.9-.14-1.86-.16-2.77,0-.02-.01-.18-.06-.16-1.47,.49-2.88,1.28-3.9,2.45-1.1,1.26-1.92,2.78-2.34,4.41-.71,2.78-.27,7.66,3.53,7.68,3.56,.02,5.72-3.63,6.09-6.76,.22-1.84,.01-3.72-.67-5.44-.31-.79-.68-1.76-1.41-2.26-.82-.56-1.78-.07-2.53,.38-3.16,1.93-4.93,5.61-4.97,9.25-.02,1.74,.3,3.76,1.53,5.09,1.16,1.25,2.88,1.25,4.29,.43,1.52-.89,2.65-2.52,3.39-4.08,.91-1.95,1.33-4.14,.89-6.27-.33-1.62-1.32-3.08-3.07-3.25-1.54-.15-3.06,.69-3.94,1.92-1.25,1.74-1.5,4.03-1.53,6.12-.03,1.8-.08,4.94,2.41,4.92,3.7-.04,5.01-4.54,4.7-7.51-.1-.98-.36-1.93-.84-2.79-.07-.15-.18-.24-.34-.26-1.3,.37-2.5,1.04-3.2,2.24-.9,1.53-.9,3.7-.34,5.34,.37,1.08,1.16,2.24,2.41,2.33,1.13,.08,1.82-1,2.11-1.95,.43-1.43,.47-3.7-.58-4.88-.7-.78-1.73-.64-2.36,.13-1.45,1.77-1.55,7.47,1.75,7.21,2.15-.17,2.21-3.13,1.85-4.69-.17-.72-.5-1.49-1.18-1.85-.52-.28-1.14-.28-1.53,.21-.51,.65-.52,1.62-.47,2.41,.02,.27,.21,2.06,.77,1.87,.5-.17,.83-.49,1.23-.82s.84-.66,1.26-1c.25-.2,.29-1.3-.04-1.46-.74-.36-1.73-1.06-2.56-1.09l.3,4.28c.18-.22,.4-.29,.68-.19,.14,.05,.24,.16,.36,.24,.05-.02,.08,.02,.09,.12-.56-2.75-.59-3.71-.06-2.89-.51,.38-1.11,.58-1.73,.23s-.17-.53-.13,.81c.02,.29,0,.57-.08,.85-.05,.1-.05,.1,0,.01,.06-.04,.13-.23,.18-.29,.37-.43,.88-.33,1.22-.18,.07,.12,.08,.13,.04,.04-.23-.46-.29-.97-.19-1.52,0-.14,.03-.29,.06-.43,.05-.11,.06-.11,.01-.03-.15,.08-.26,.4-.48,.52-.56,.3-1.27,.04-1.67-.4-.08-.09-.16-.24-.22-.31,0,.07-.01,.02-.06-.15,.07,.2,.09,.41,.09,.62,.02,.88-.09,.55,.25,.09,.56-.75,1.48-1.24,2.35-1.5l-.34-.26c.04,.07,.22,.54,.16,.36-.02-.07-.02-.34,0,.01,0,.03-.05-.61-.02-.31,.02,.21,.13-.29-.02,.1,.02-.06,.07-.24-.02,.08-.07,.22-.14,.41-.24,.61-.47,.9-1.26,1.67-2.23,2-.5,.17-1.16,.28-1.67,.1-.2-.07-.61-.41-.33,.04,.1,.16,0-.19,0-.27,0-.22-.01-.45-.01-.67,.01-.97,.35-2.36,1.22-3.21,.8-.79,1.93-1.23,3.05-1.12,.51,.05,.97,.22,1.36,.54,.21,.17,.31,.38,.48,.58,.07,.08,.03,.12,.05,.09s0-.3-.01-.33c.06,.26-.2,.91-.35,1.3-.24,.59-.55,1.17-.9,1.71-.69,1.08-1.67,2.17-2.89,2.67-1.05,.43-2.34,.23-3.09-.67-.27-.32-.45-.73-.53-1.08-.11-.49,0,.22-.04-.28,0,.1-.02,.26,0-.07-.02,.28,0-.02,0-.07,.04-.3-.02,0,.04-.31,.52-2.49,2.21-4.74,4.45-5.96,.63-.34,1.38-.5,1.98,0,.42,.35,.7,.89,.87,1.41,.32,.97,.25,1.95-.06,2.91-.73,2.3-2.94,4.54-5.53,4.26-1.28-.14-2.32-1.11-2.5-2.39s.38-2.79,.94-3.94c.66-1.36,1.61-2.61,2.66-3.69,.51-.53,1.14-1.21,1.8-1.54,.11-.06,.17-.18,.31-.11,.07,.04,.06,.62,.07,.75,.05,.57,.13,1.16,.12,1.74,0,.12,.07,.11,.05,0h0Z"/><path class="cls-3" d="M1149.62,404.74c.11,2.98-.62,6.19-1.63,8.98s-2.58,5.36-4.82,7.26c-3.88,3.29-9.84,4.46-14.31,1.65-.05-.03-.08,.25-.02,.29,4.62,3.21,11.04,1.73,14.93-1.98,2.07-1.97,3.51-4.52,4.44-7.2,1.03-2.95,1.15-5.92,1.45-8.98,0-.09-.05-.13-.05-.02h0Z"/><path class="cls-3" d="M1128.7,402.41c.03-.74-.14-1.44-.77-1.9-.91-.67-1.85,.9-2.32,1.61-1.47,2.18-1.85,4.95-1.92,7.53-.16,5.35,.47,12.71,5.77,15.58,2.62,1.42,5.87,1.29,8.03-.89,.05-.05,.02-.33-.03-.29-2.1,1.73-4.99,1.48-7.35,.42-2.75-1.24-4.41-3.82-5.24-6.65s-1.09-6.28-.87-9.35c.13-1.76,.47-3.51,1.22-5.12,.33-.7,.74-1.36,1.23-1.95,.17-.2,.36-.47,.58-.61,.95-.63,1.84,.55,1.63,1.58-.01,.06,.04,.17,.05,.06h0Z"/><path class="cls-3" d="M1147.25,410.67c.07,.71-.13,1.53-.29,2.22-.15,.63-.34,1.24-.58,1.84-.45,1.12-1.04,2.18-1.77,3.14-1.43,1.91-3.38,3.44-5.58,4.37-.03,.01-.01,.13,0,.12,2.36-.95,4.33-2.59,5.79-4.67,.72-1.02,1.29-2.14,1.71-3.32,.2-.56,.36-1.13,.48-1.72,.13-.64,.12-1.33,.27-1.96,.03-.11-.06-.18-.04-.03h0Z"/><path class="cls-3" d="M1022.99,456.36c14.35-1.02,29.84-2.53,41.68-11.53,3.14-2.38,5.74-5.33,8.63-7.99s6.11-4.77,9.81-6.13c7.04-2.59,14.78-2.6,22.15-1.89,9.82,.94,19.41,3.06,28.98,5.35,.04,0,.06-.22,0-.24-8.5-2.48-17.38-4.05-26.16-5.12-7.39-.9-15.09-1.25-22.34,.73-3.38,.92-6.62,2.38-9.46,4.46-3.24,2.37-5.86,5.43-8.81,8.13-5.55,5.07-12.4,8.31-19.6,10.31-8.11,2.25-16.5,3.16-24.87,3.87-.01,0-.01,.06,0,.06h0Z"/><path class="cls-3" d="M1129.32,436.41c-7.33-2.12-15.24-1.5-22.15,1.75-.05,.02-.03,.26,.03,.23,6.88-3.3,14.78-3.99,22.12-1.93,0,0,.02-.06,0-.06h0Z"/><path class="cls-3" d="M1087.84,441.56c-.39,.25-.79,.2-1.16-.04-.7-.45-.75-1.13-.73-1.87,.03-.8,.15-1.14,.75-1.61,.39-.3,.87-.5,1.34-.64,1.75-.51,3.76-.38,5.56-.44,4.2-.13,8.41-.14,12.6,.15,7.74,.53,15.56,2.07,22.54,5.57,3.63,1.82,6.95,4.16,9.86,7,.02,.02,.04-.14,0-.18-5.89-6.02-13.86-9.6-22-11.37-4.84-1.05-9.83-1.41-14.78-1.47-2.51-.03-5.01,.02-7.52,.12-2.08,.08-4.45-.07-6.45,.59-1.14,.38-2.21,1.24-2.08,2.54,.12,1.21,.9,1.85,2.06,1.8,.04,0,.02-.17,0-.15h0Z"/><path class="cls-3" d="M1133.52,429.15c14.71-6.28,31.32-8.16,47.07-5.43,4.53,.79,8.85,2.12,13.24,3.45,.04,.01,.08-.33,0-.36-7.36-2.98-15.72-4.28-23.61-4.63-7.98-.36-15.99,.42-23.73,2.4-4.44,1.14-8.77,2.65-12.96,4.52-.02,0,0,.06,0,.06h0Z"/><path class="cls-3" d="M1053.16,409.96c-.74,.06-1.49-.06-2.23-.14-1.19-.11-1.01-.19,.03-.52,1.6-.5,3.21-1.01,4.81-1.51,3.13-.98,6.27-1.94,9.42-2.87,6.14-1.82,12.31-3.55,18.55-5,12.38-2.88,25.1-4.65,37.83-4.1,7.14,.31,14.2,1.41,21.09,3.3,.02,0,.04-.17,0-.18-23.84-7.04-49.55-2.52-72.86,4.37-6.78,2-13.49,4.2-20.21,6.39,0,0,0,.04,0,.04,1.17,.1,2.43,.08,3.57,.38,.03,0,.04-.16,0-.15h0Z"/><path class="cls-3" d="M1132.86,405.12l-9.58,1.58s-.02,.12,0,.12l9.58-1.64s0-.06,0-.06h0Z"/><path class="cls-3" d="M668.09,388.79c19.32-4.29,39.21-5.52,58.92-3.84,19.38,1.65,38.44,5.93,57.15,11.14,18.76,5.22,37.23,11.4,55.88,17.01,18.76,5.65,37.78,10.67,57.19,13.57s39,3.81,58.11,.4c2.37-.42,4.73-.91,7.08-1.44,.05-.01,.02-.25,0-.24-19.04,3.81-38.49,4.1-57.75,1.83-19.57-2.3-38.77-6.99-57.67-12.46-18.71-5.42-37.18-11.63-55.89-17.05s-37.45-10.04-56.7-12.32c-19.69-2.33-39.58-1.87-59.08,1.83-2.42,.46-4.83,.97-7.24,1.52-.02,0,0,.06,0,.06h0Z"/><path class="cls-3" d="M967.96,430.17c-2.02,.3-4.26,.04-6.3,.02l-6.06-.06-12.37-.12s-.01,.06,0,.06l12.37,.09,6.06,.04c2.05,.01,4.29-.21,6.31,.12,.03,0,.03-.16,0-.15h0Z"/><path class="cls-3" d="M596.9,320.35c1.28,0,2.59,.32,3.87,.48,1.37,.17,2.74,.32,4.12,.44,2.66,.24,5.33,.39,8,.46,5.34,.15,10.69-.1,16.01-.52,10.73-.84,21.37-2.5,32-4.14,10.69-1.66,21.36-3.41,32.11-4.69,10.77-1.28,21.59-2.25,32.42-2.9,5.99-.36,11.99-.62,17.98-.79,3.04-.08,6.08-.14,9.12-.18s6.32,.24,9.36-.36c.38-.07,.33-1.62-.04-1.69-2.67-.54-5.43-.33-8.15-.3s-5.42,.08-8.14,.15c-5.42,.14-10.85,.36-16.26,.66-10.83,.6-21.65,1.51-32.43,2.73s-21.48,2.76-32.16,4.6-21.24,3.94-31.97,5.26c-5.88,.72-11.78,1.2-17.7,1.38-2.99,.09-5.97,.11-8.96,.01-1.45-.05-2.9-.12-4.35-.23-1.58-.11-3.31-.11-4.83-.53-.02,0-.04,.15,0,.15h0Z"/><path class="cls-3" d="M758.54,313.16c1.68-5.4,7.7-7.54,11.3-11.42,2.03-2.18,3.06-4.8,3.38-7.74,.43-3.99,.42-8.07,.33-12.07-.2-8.22-1.3-16.44-3.15-24.45-.83-3.62-2.01-7.14-2.87-10.74-.72-3.01-1.35-6.4-.23-9.39,1.19-3.18,4.2-5.06,7.5-5.32,3.59-.28,6.92,1.14,9.76,3.24s5.46,4.96,7.93,7.66,4.99,5.67,7.32,8.64c9.18,11.7,16.65,24.77,22.05,38.63,2.75,7.07,4.6,14.52,7.96,21.34,2.82,5.73,7.39,11.6,13.62,13.84,1.38,.5,2.92,.63,4.38,.64,.27,0,.25-1.14-.03-1.21-6.78-1.76-12.27-6.31-15.88-12.23-4.15-6.81-6-14.7-8.77-22.11-5.2-13.94-12.45-27.09-21.42-38.96-4.35-5.76-9.08-11.47-14.39-16.38-4.6-4.25-12.38-8.23-18.03-3.33-4.68,4.06-3.64,11.36-2.31,16.69,.93,3.73,2.1,7.38,2.95,11.13,.95,4.17,1.65,8.4,2.13,12.65,.47,4.24,.72,8.51,.75,12.78,.02,2.13-.03,4.26-.13,6.38s-.3,4.54-1.29,6.57c-2.48,5.08-8.45,7.32-11.5,11.99-.63,.96-1.08,1.99-1.38,3.1,0,.03,.02,.13,.04,.07h0Z"/><path class="cls-3" d="M839.48,316.59s.03-.15,0-.15c-.03,0-.03,.15,0,.15h0Z"/><path class="cls-3" d="M835.76,317.77c.28,.53-.53,.57-.81,.52-1.05-.21-.74-1.56,.11-1.87,1.07-.4,2.35,.07,3.38,.37,3.15,.9,6.29,1.81,9.46,2.64,6.43,1.68,12.88,3.25,19.35,4.73,12.83,2.94,25.75,5.53,38.7,7.91,25.82,4.75,51.79,8.68,77.69,12.96s49.6,8.52,74.1,14.3c23.21,5.48,46.15,12.16,68.37,20.84,22.31,8.72,43.95,19.4,63.94,32.65,2.46,1.63,4.9,3.3,7.31,5.01,.15,.1,.35-1.14,.06-1.34-20.29-14.37-42.4-25.92-65.46-35.16s-47.6-16.5-72.08-22.3-51.63-10.64-77.64-14.87c-27.4-4.45-54.86-8.55-82.15-13.66-13.62-2.55-27.2-5.35-40.67-8.58-6.68-1.6-13.33-3.3-19.97-5.06-1.05-.28-5.03-1.7-5.37,.38-.09,.54,.2,.87,.75,1.05,.68,.22,1.13,.03,.97-.63-.02-.1-.05,.06-.03,.11h0Z"/><path class="cls-3" d="M639.66,336.28c3.76-1.2,7.78-1.84,11.64-2.66s7.78-1.63,11.68-2.39c7.66-1.49,15.34-2.81,23.07-3.9,15.18-2.14,30.47-3.3,45.8-3.23,29.64,.13,59.08,4.43,88.09,10.21s58.09,13.12,87.19,19.44c28.99,6.29,58.3,11.63,87.96,13.4,29.42,1.76,59.35,.21,88.06,8.01,3.57,.97,7.09,2.1,10.57,3.38,.01,0,.04-.16,0-.18-27.86-10.62-58.1-9.93-87.43-11.03-29.86-1.12-59.3-5.61-88.53-11.66-29.18-6.04-58.07-13.37-87.22-19.51s-58.05-11.01-87.56-12.13c-30.99-1.18-61.46,2.91-91.68,9.53-3.85,.84-7.74,2-11.64,2.56-.04,0-.02,.16,0,.15h0Z"/><path class="cls-3" d="M535.15,361c3.72,.79,4.93,5.86,5.93,8.95,1.21,3.73,2.13,7.56,2.71,11.44,1.17,7.77,1.03,15.75-.41,23.48-.81,4.35-2.05,8.6-3.68,12.71-.04,.11-.06,.92,.2,.75,5.64-3.62,10.95-7.4,15.42-12.45s8.02-10.4,12.18-15.48c7.05-8.6,17.25-17.24,29.19-14.85,5.6,1.12,11.05,4.68,12.78,10.37,.03,.11,.11,.4,.28,.3,2.89-1.75,5.92-3.28,9.06-4.53,1.57-.62,3.16-1.18,4.77-1.67s3.24-1.18,4.92-1.6c.16-.04,.11-.63-.01-.61-1.74,.31-3.45,.47-5.15,.99s-3.22,1.06-4.8,1.69c-3.1,1.24-6.09,2.74-8.96,4.46l.28,.3c-1.45-4.8-5.2-8.28-9.82-10.07-5.11-1.97-10.61-1.78-15.67,.24-12.09,4.82-18.91,16.73-26.65,26.42-2.43,3.04-5.02,5.95-7.97,8.49-3.11,2.67-6.55,4.91-9.98,7.14l.2,.75c5.97-15.32,6.56-32.76,1.34-48.39-.98-2.93-2.31-8.61-6.16-8.88-.02,0-.02,.06,0,.06h0Z"/><path class="cls-3" d="M621.09,383.18c1.56-2.44,5.39-1.33,7.58-.65,3.54,1.11,7.08,2.22,10.62,3.33,7.1,2.23,14.17,4.61,21.39,6.43,.06,.02,.09-.39-.01-.42-7.26-2.63-14.71-4.69-22.11-6.91-3.5-1.05-7-2.31-10.56-3.14-1.27-.3-2.61-.5-3.92-.33s-2.06,.72-3.02,1.56c-.04,.03,0,.17,.02,.14h0Z"/><path class="cls-3" d="M668.32,406.57c1.29-3.26,5.26-4.59,8.4-5.13,3.75-.64,7.58-.7,11.37-.79,8.51-.2,17.19,.13,25.38,2.62,2.36,.72,4.67,1.61,6.89,2.72,.71,.36,2.87,1.25,1.41,2.27-1.26,.88-1.92-1.43-.46-1.79,.07-.02,.06-.36,0-.36-1.12-.05-1.37,1.31-1.1,2.18,.4,1.32,1.83,.96,2.2-.19,.51-1.61-.73-2.15-2-2.78-2.29-1.13-4.69-2.05-7.14-2.77-10.42-3.08-21.84-2.95-32.58-2.14-2.53,.19-5.05,.58-7.39,1.6-1,.43-1.96,.98-2.79,1.69-.94,.8-1.5,1.75-2.19,2.74-.03,.04,0,.17,.02,.14h0Z"/><path class="cls-3" d="M671.53,403.44c-1.43-.52-2.52-.22-3.46,1.06-.61,.84-.92,1.86-.86,2.9,.1,1.92,1.06,3.65,1.37,5.52,.47,2.76-1.3,5.06-2.99,7.04-4.73,5.52-11.04,9.24-17.11,13.07-3.54,2.23-7.03,4.55-10.16,7.34-.34,.3-.33,1.65,.05,1.93,4.83,3.47,11.09,2.67,16.63,1.96,6.59-.84,13.14-1.98,19.63-3.4,12.98-2.84,25.68-6.86,37.95-11.95,3.48-1.44,6.93-2.98,10.34-4.59,1.63-.77,3.26-1.57,4.88-2.36,.71-.35,1.43-.71,2.14-1.06,.39-.2,.85-.37,1.21-.61,.63-.42,1.05-1.16,1.5-1.75,.15-.19,.27-1.25-.09-1.31-.74-.11-1.26-.23-1.95,.09-.75,.35-1.47,.8-2.21,1.19-1.7,.9-3.42,1.78-5.15,2.62-2.93,1.42-5.88,2.78-8.87,4.08-6.04,2.62-12.19,4.98-18.43,7.07-12.33,4.13-25.02,7.26-37.87,9.27-6.25,.98-13.99,2.75-19.6-1.18l.05,1.93c5.36-4.89,11.79-8.3,17.72-12.42,2.93-2.03,5.83-4.25,8.17-6.96,2.01-2.34,4.41-5.3,4.51-8.52,.06-2.12-.98-3.91-1.4-5.93-.35-1.7-.05-3.4,1.29-4.57,.75-.66,1.85-1.05,2.7-.31,.01,.01,.05-.13,0-.15h0Z"/><path class="cls-3" d="M728.83,413.72c.07-.14,.47,.08,.57,.14,.15,.09,.29,.2,.41,.33,.26,.29,.43,.65,.52,1.03,.18,.75,.07,1.64-.44,2.25-.27,.32-.64,.52-1.05,.58-.05,0-.03,.19,0,.18,1.81-.33,2.12-3.18,.8-4.23-.19-.15-.41-.26-.64-.31,0,0-.26-.09-.18-.11-.02,0-.02,.01-.03,.04,0,.02,.01,.15,.04,.11h0Z"/><path class="cls-3" d="M730.29,419.93c1.29,.13,2.59,.64,3.84,1,1.34,.39,2.7,.7,4.05,1.04,2.62,.66,5.22,1.38,7.83,2.04,5.05,1.27,10.08,2.66,15.08,4.14,10.14,3,20.21,6.29,30.22,9.71,20.04,6.84,39.86,14.31,60.04,20.73,11.38,3.62,22.87,6.9,34.51,9.56,.44,.1,.51-3.06,.03-3.39-.91-.62-2.09-.86-3.13-1.21-.18-.06-.15,1.22,0,1.37,.95,1.05,1.87,2.32,3,3.17l.03-3.39c-20.61-4.61-40.69-11.2-60.66-18.03-19.94-6.82-39.78-14.08-60.12-19.65-5.72-1.57-11.47-3.03-17.25-4.34-2.81-.64-5.64-1.17-8.48-1.66-1.49-.26-2.98-.55-4.48-.72s-3.06-.14-4.5-.52c-.02,0-.04,.15,0,.15h0Z"/><path class="cls-3" d="M723.24,410.9c.4-.07,.97,.23,1.34,.4s.75,.38,1.1,.6c.67,.43,1.27,.95,1.82,1.52,1.17,1.19,2.1,2.59,2.51,4.23s.21,3.52-1.08,4.67c-.94,.84-3,1.26-3.66-.15-.05-.11-.08,.28-.07,.33,.38,1.15,1.58,1.86,2.78,1.71,1.51-.19,2.25-1.96,2.48-3.25,.54-2.95-.47-6.09-2.61-8.18-.58-.56-1.29-.99-2.02-1.32-.36-.16-.73-.29-1.11-.4-.46-.13-1.08-.1-1.5-.32-.04-.02-.04,.16,0,.15h0Z"/><path class="cls-3" d="M721.29,427.15c.01-.63-.17-1.22,.5-1.43,.4-.13,1.67,.75,2.12,.96,.98,.46,1.97,.92,2.95,1.39,2.1,1,4.16,2.08,6.17,3.24,3.82,2.21,7.41,4.89,11.32,6.94,3.43,1.8,7.08,2.56,10.64,.67,1.52-.81,2.76-2.02,3.83-3.37,.48-.61,.92-1.24,1.34-1.89,.69-1.06,.82-2.08,1.09-3.3,.03-.13,.09-1.38-.19-1.29s-.44,.17-.72,.11c-.14,.04-.23,.13-.28,.27-1.55,2.94-3.52,6.42-6.82,7.65-3.7,1.37-7.48-.22-10.69-2.07-3.41-1.97-6.66-4.13-10.25-5.77s-7.18-2.92-10.96-3.93c-.02,0-.03,.07-.03,.08-.02,.57-.03,1.14-.08,1.7,0,.06,.04,.15,.04,.04h0Z"/><path class="cls-3" d="M636.88,389.02c-2.49,.71-5.39,.71-7.96,.8s-5.36-.04-8.02-.36c-.03,0-.05,.03-.06,.05-.57,.9-.53,2.05-.08,3.01,.82,1.71,2.69,2.11,4.43,2.19,4.92,.21,9.76,.31,14.65,1.06s9.77,1.77,14.52,3.24c2.34,.72,4.63,1.59,6.97,2.3,1.15,.35,2.32,.66,3.5,.88,1.29,.24,2.29,.14,3.56-.19,.09-.02,.08-.4-.01-.42-.98-.28-1.91-.63-2.92-.79-1.11-.18-2.21-.44-3.3-.74-1.97-.55-3.89-1.26-5.83-1.91-4.18-1.39-8.46-2.49-12.8-3.26s-8.59-1.1-12.91-1.17c-2.08-.03-4.2,.18-6.27,.03-.92-.07-1.89-.27-2.63-.86-.35-.28-.64-.63-.83-1.04-.67-1.45,.17-1.57,1.19-1.49,2.43,.2,4.88,.21,7.31,.05,2.56-.17,4.96-.89,7.48-1.22,.04,0,.02-.16,0-.15h0Z"/><path class="cls-3" d="M615.42,383.06c1.05,.09,2.11-.2,3.16-.27,1.15-.08,2.3-.06,3.45,.04,2.26,.18,4.49,.6,6.68,1.16,4.1,1.06,8.17,2.4,12.09,3.99,7.89,3.18,15.31,7.38,22.94,11.12,1.97,.97,3.95,1.9,5.97,2.77,2.17,.93,4.47,2.07,6.78,2.59,.22,.05,.3-.63,.31-.72,.13-.88,.61-1.55,1.24-2.13,.12-.11,.15-1.1-.07-1.07-.83,.11-1.4,.48-1.74,1.25l.29-.15c-1.84-.88-3.82-1.51-5.7-2.31s-3.85-1.72-5.76-2.62c-3.82-1.8-7.58-3.73-11.37-5.61-7.38-3.66-15.13-7.55-23.3-9.03-2.53-.46-5.12-.78-7.7-.71-2.28,.06-5.32,.17-7.27,1.46-.04,.02-.04,.23,.02,.24h0Z"/><path class="cls-3" d="M679.36,403.71l3.44-.68s.02-.16,0-.15l-3.44,.68s-.02,.16,0,.15h0Z"/><path class="cls-3" d="M685.78,402.33c-1.55-.07-3.1-.37-4.66-.43-1.65-.06-3.22,.06-4.84,.34-2.62,.44-5.41,1.01-7.78,2.26-5.23,2.76-3.43,8.71-2.72,13.38,.39,2.56-.84,4.58-2.69,6.27-.91,.83-1.93,1.46-2.91,2.18-1.08,.79-2.09,1.67-3.23,2.38-2.84,1.77-5.85,3.29-8.8,4.86-1.47,.78-2.94,1.56-4.41,2.35-1.23,.65-2.52,1.29-3.52,2.28-1.45,1.45-2.15,4.02-1.04,5.89,.99,1.67,3.43,1.35,4.05-.44,.05-.14-.07-.89-.18-.66-.38,.82-1.28,1.01-2.11,.84-1.8-.38-2.09-2.2-1.03-3.6,1.53-2.02,4.47-3.03,6.65-4.16,2.5-1.29,4.98-2.62,7.51-3.84,1.3-.62,2.58-1.29,3.93-1.78,.89-.32,1.83-.63,2.67-1.09,3.6-1.99,6.15-5.38,6.26-9.56,.06-2.34-.55-4.55-.97-6.82-.21-1.11-.29-2.11,.23-3.15s1.46-1.89,2.44-2.52c2.33-1.51,5.26-2.3,7.94-2.96,2.94-.72,6.19-1.78,9.23-1.85,.03,0,.03-.15,0-.15h0Z"/><path class="cls-3" d="M672.52,405.23s.03-.15,0-.15c-.03,0-.03,.15,0,.15h0Z"/><path class="cls-3" d="M671.18,404.2c4.18-.95,8.6-1.34,12.89-1.56s8.73-.03,13.05,.58c8.74,1.24,17.29,4.14,24.93,8.56,.24,.14,.51-1.56,.02-1.73-.45-.16-.91-.29-1.36-.44-.13-.04-.08,.64,0,.71,.45,.48,.89,.97,1.35,1.45l.09-1.7c-7.58-4.43-15.93-7.26-24.63-8.36-4.32-.54-8.69-.67-13.04-.38-2.26,.15-4.48,.47-6.7,.91s-4.39,1.12-6.58,1.79c-.04,.01-.02,.16,0,.15h0Z"/><path class="cls-3" d="M602.44,384.46l-.69-.69s-.03,.05-.03,.05c0,.03,0,.07,.02,.09l.69,.69s.03-.05,.03-.05c0-.03,0-.07-.02-.09h0Z"/><path class="cls-3" d="M598.43,377.24c-2.31-1.05-4.61-1.59-7.12-1.94s-5.16,.11-7.57,.67c-4.88,1.14-9.35,3.42-13.25,6.55s-7.07,6.76-9.89,10.74c-2.99,4.22-5.24,8.9-8.16,13.17-3.24,4.73-8,9.02-14.04,9.09l.22,2.97c1-.97,1.88-2.06,2.15-3.46,.04-.19-.15-1.19-.34-.65-.37,1.05-1.01,1.43-2.04,1.14-.57-.16-.9,3.04,.07,3.03,10.95-.15,15.71-11.86,20.66-19.69,5.39-8.53,12.81-16.23,22.48-19.73,5.28-1.91,11.27-2.51,16.82-1.71,.03,0,.03-.16,0-.18h0Z"/><path class="cls-3" d="M590.07,377.56c1.95-.27,4.32,.45,6.19,.99,2.01,.57,3.96,1.3,5.82,2.26,3.72,1.93,6.99,4.66,9.53,7.99,.03,.04,.08,.11,.14,.05,.45-.49,1.33-.78,1.89-1.15,.61-.41,1.2-.86,1.82-1.27,1.47-.98,3.03-1.75,4.74-2.21s3.24-.47,4.91-.59c1.8-.13,2.8-1.12,3.64-2.68,.07-.12,.13-1.13-.11-1.07-.86,.21-1.65-.09-2.51-.06s-1.73,.19-2.59,.25c-1.95,.15-3.82,.62-5.61,1.44-1.63,.74-3.12,1.71-4.33,3.04-.34,.38-.63,.76-.9,1.2-.22,.35-.59,1.56-.88,1.75-.46,.3-1.33-1.17-1.6-1.46-2.56-2.74-5.71-4.92-9.15-6.42-1.67-.73-3.41-1.33-5.2-1.67-.89-.17-1.78-.3-2.69-.38-1.03-.09-2.1,0-3.11-.17-.03,0-.03,.16,0,.15h0Z"/><path class="cls-3" d="M998.17,497.91c.21-.32,.47-.98,.78-1.21,.57-.41,1.17,.1,1.67,.38,.88,.48,1.76,.97,2.64,1.47,1.82,1.04,3.61,2.12,5.39,3.22,3.49,2.14,6.89,4.41,10.2,6.82,2.8,2.04,5.77,4.93,9.44,5.07s6.68-2.25,9.44-4.58c1.71-1.44,3.39-2.92,5.04-4.44s3.67-3.07,4.88-4.97c.18-.28,.18-2.28-.3-2.03-.62,.32-1.23,.64-1.83,1.01-.13,.08-.12,.73,.05,.77,.63,.17,1.27,.29,1.91,.4l-.14-2.18c-1.02,.53-1.84,1.66-2.65,2.46-.89,.87-1.79,1.73-2.7,2.58-1.82,1.7-3.68,3.35-5.59,4.95-1.78,1.49-3.75,3.04-5.95,3.86s-4.55,.23-6.57-.88-3.82-2.56-5.72-3.84c-2.01-1.35-4.06-2.66-6.13-3.91-4.15-2.5-8.44-4.72-12.84-6.75-.01,0-.01,0-.02,0l-1.02,1.71s0,.07,.01,.05h0Z"/><path class="cls-3" d="M1001.68,498.51c-.49-.87-.87-1.81-1.29-2.72l-.05,.47c5.49,5.93,11.74,10.97,18.76,15.01,3.33,1.91,6.74,2.89,10.52,1.71,3.48-1.09,6.67-3.33,9.58-5.48,1.75-1.3,3.44-2.7,5.04-4.18,.75-.69,1.48-1.4,2.19-2.13,1.02-1.05,1.34-2.18,2-3.46,.07-.13,.08-1.27-.12-1.18-.6,.28-1.1,.06-1.63,.53-.77,.67-1.43,1.49-2.16,2.21-1.31,1.29-2.69,2.52-4.11,3.69-2.94,2.41-6.14,4.8-9.64,6.35-3.67,1.63-7.17,1.53-10.77-.23-3.35-1.63-6.54-3.66-9.6-5.78-3.43-2.38-6.83-4.87-10.03-7.56-.09-.07-.08,.41-.05,.47,.46,.79,.95,1.58,1.34,2.4,.02,.03,.04-.1,.02-.13h0Z"/><path class="cls-3" d="M302.6,185.69c2.67-.6,5.61-.48,8.33-.65s5.56-.28,8.35-.31c5.57-.06,11.14,.16,16.69,.64,11.05,.95,22.01,2.84,32.76,5.53,21.95,5.49,42.91,14.29,62.96,24.68,20.01,10.37,39.28,22.22,58.22,34.41,20.21,13.01,40.45,25.98,60.73,38.89,10.23,6.51,20.45,13.03,30.68,19.54,5.11,3.26,10.23,6.51,15.34,9.77s9.89,6.48,14.99,9.43c1.56,.9,3.47,.99,4.52-.69,.11-.17,.05-1.28-.1-1.17-1,.75-2.04,.08-2.98-.41-1.16-.59-2.23-1.26-3.33-1.96l-7.67-4.88c-5.01-3.19-10.05-6.31-15.08-9.46-10.14-6.36-20.29-12.71-30.43-19.07-20.35-12.75-40.71-25.5-61.13-38.14-19.05-11.79-37.97-23.82-57.74-34.39s-39.83-19.5-61.14-25.57-43.49-9.12-65.63-7.35c-2.77,.22-5.56,.93-8.33,1-.04,0-.03,.16,0,.15h0Z"/><path class="cls-3" d="M300.01,185.92c19.09,7.77,37.71,16.8,55.61,27.01,17.69,10.1,34.62,21.59,50.71,34.08,15.7,12.2,30.38,25.58,44.81,39.24,7.04,6.66,14.03,13.36,21.11,19.98s14.13,13.49,21.48,19.94c7.34,6.44,14.98,12.44,22.68,18.44s15.95,12.01,24.3,17.42c.96,.62,1.92,1.36,2.93,1.89,.66,.35,.86,.23,1.49-.12s1.21-.68,1.82-1.02c.75-.42,.67-2.07,.67-2.77,0-1.13,0-2.49-.63-3.47-.54-.84-1.07-1.69-1.6-2.53-.41-.66-.74-1.44-1.45-1.82-1.03-.55-2.23-.91-3.32-1.37-2.12-.9-4.21-1.85-6.31-2.79-4.24-1.89-8.36-4.26-12.33-6.67-8.02-4.86-15.55-10.45-22.91-16.25s-14.73-12.04-21.89-18.29-14.26-13.03-21.32-19.61c-14.31-13.35-28.75-26.56-44.2-38.59-16.06-12.51-32.99-23.89-50.62-34.06s-35.42-19.11-54.11-26.68c-2.31-.94-4.62-1.85-6.95-2.75-.09-.03-.19,.7,.02,.79h0Z"/><path class="cls-3" d="M537.83,361.11c.92-.38,1.15-1.13,.7-2l-.05,.55c2.57,3.15,4.11,6.59,5,10.55s1.59,8.08,1.97,12.17c.76,8.17-.18,16.21-4.27,23.43-1.09,1.92-2.28,3.78-3.49,5.62s-1.76,4.16-2.04,6.26c-.05,.36-.16,4.37,.81,4.05,1.4-.47,2.2-1.32,3.21-2.35s2.04-1.95,3.02-2.97c.32-.33,.15-2.3-.22-2.04-.91,.64-1.92,1.22-3.04,1.42-.5,.09-1.02,.01-1.53,.07-.57,.07-1.05,.26-1.58,.48l.81,4.05c.49-4.4,2.98-8.27,5.05-12.08s3.41-8.16,4.03-12.54c1.26-8.95,.03-18.18-1.99-26.94-.48-2.07-1.01-4.18-2.02-6.06-.42-.78-.92-1.53-1.5-2.21-.7-.81-1.23-1.16-2.23-1.48-.12-.04-.06,.53,0,.59,.19,.75-.03,1.19-.66,1.29-.04,0-.01,.16,0,.15h0Z"/><path class="cls-3" d="M322.67,193.77c20.48,.15,40.75,4.07,60.14,10.53s38.63,15.75,56.61,26.26c18.05,10.55,35.2,22.52,52.04,34.89s34.1,25.69,51.43,38.16,34.79,24.21,53.45,34.23c2.36,1.27,4.73,2.5,7.11,3.71,.03,.02,.06-.21,.01-.23-18.94-9.89-36.96-21.51-54.41-33.82s-34.36-25.3-51.49-38-34.14-24.88-52.21-35.82-35.94-20.08-55.23-27.18c-19.16-7.05-39.25-11.68-59.69-12.6-2.59-.12-5.17-.17-7.76-.17-.01,0-.01,.06,0,.06h0Z"/><path class="cls-3" d="M545.41,337.76c2.37-.35,4.99-.04,7.4-.04s4.93,0,7.4-.02c5.01-.03,10.03-.09,15.04-.23,9.86-.27,19.71-.68,29.56-1.23,19.77-1.12,39.52-2.82,59.19-5.1,11.11-1.29,22.19-2.76,33.23-4.48,.03,0,.02-.12,0-.12-19.6,2.82-39.26,5.22-58.99,6.99s-39.51,2.95-59.3,3.55c-5.59,.17-11.17,.31-16.76,.42-2.71,.05-5.42,.09-8.13,.13-1.4,.02-2.79,.03-4.19,.04s-3,.16-4.44-.06c-.03,0-.03,.16,0,.15h0Z"/><path class="cls-3" d="M660.16,318.56c1.7,.19,3.46,1.73,4.58,2.92,1.37,1.46,2.39,3.23,3.17,5.06,1.7,3.97,2.32,8.31,2.76,12.57,1.1,10.59,.36,21.32-2.12,31.67-.02,.07,.05,.27,.09,.12,2-8.31,2.89-16.86,2.59-25.41-.23-6.8-.71-14.36-3.95-20.5-.74-1.4-1.64-2.73-2.77-3.84-1.32-1.3-2.81-1.85-4.36-2.75-.03-.02-.05,.15,0,.15h0Z"/><path class="cls-3" d="M667.7,317.78c1.7,.73,3.33,2.54,4.53,3.9s2.18,2.78,3.06,4.31c2.02,3.53,3.31,7.47,3.94,11.48,1.52,9.56-.55,19.21-2.58,28.53,0,.04,.03,.14,.04,.06,2.97-13.37,5.95-28.46-1.77-40.86-.92-1.48-1.99-2.88-3.2-4.15s-2.72-2.23-4.02-3.42c-.02-.02-.06,.13-.01,.15h0Z"/><path class="cls-3" d="M681.49,312.33c12.59,11.61,11.32,30.11,8.35,45.43,0,.03,.03,.14,.04,.06,3.07-15.33,4.3-33.97-8.38-45.55,0,0-.02,.05,0,.06h0Z"/><path class="cls-3" d="M878.04,406.61c2.19,.74,2.64,3.28,2.67,5.32,.03,2.22-.18,4.47-.41,6.68-.48,4.59-1.35,9.13-2.6,13.57-2.39,8.54-6.09,16.67-11,24.06-.02,.03,0,.2,.03,.16,8.6-12.81,13.52-27.96,14-43.39,.07-2.31-.08-5.61-2.7-6.46,0,0-.02,.05,0,.06h0Z"/><path class="cls-3" d="M888.3,412.47c.7-.24,1.16-.65,1.11-1.46-.04-.62-.51-1.23-1.2-1-.6,.2-.82,1.05-.69,1.62,.09,.41,.37,.48,.57,.78,.56,.82,.34,2.57,.37,3.56,.24,9.49-1.54,19.04-5.14,27.83-1.95,4.76-4.45,9.31-7.38,13.54-.03,.04,.01,.18,.03,.17,9.33-12.96,13.69-29.23,12.36-45.13,0-.02,0-.05-.03-.05-1.18-.28-.88-2.43,.32-2.26s.84,2.69-.32,2.26c-.03-.01-.03,.17,0,.15h0Z"/><path class="cls-3" d="M898.64,412.07c2.6,2.86,2.82,7.75,2.52,11.37s-1.21,7.44-2.26,11.03c-2.13,7.3-5.31,14.28-9.32,20.74-.02,.04,0,.2,.03,.16,4.62-7.19,8.05-15.1,10.16-23.38,.89-3.49,1.62-7.06,1.59-10.68-.02-1.63-.19-3.28-.61-4.86-.45-1.67-1.26-3.03-2.1-4.52-.02-.03-.05,.1-.02,.14h0Z"/><path class="cls-3" d="M1031.21,354.93c-1.89-2.22-4.35-.39-5.29,1.74-1.59,3.57-2.6,7.52-3.6,11.29-2.08,7.86-3.36,15.94-3.89,24.05-.3,4.61-.35,9.24-.13,13.85,0,.11,.08,.11,.07,0-.34-9.66,.31-19.32,2.08-28.82,.89-4.76,2.03-9.47,3.43-14.11,.67-2.22,1.25-4.64,2.31-6.7,.48-.93,1.16-1.83,2.2-2.15s2.33-.12,2.78,.97c.03,.07,.07-.08,.03-.12h0Z"/><path class="cls-3" d="M1037.28,357.52c-.03-.68-.63-1.14-1.32-.93-1.21,.36-1.81,2.56-2.26,3.56-1.55,3.45-2.78,7.05-3.68,10.73-1.79,7.3-2.24,14.9-1.41,22.37,.48,4.28,1.39,8.49,2.75,12.58,.05,.15,.1-.05,.08-.12-2.59-8.25-3.56-16.94-2.75-25.55,.41-4.33,1.22-8.63,2.46-12.8,.58-1.93,1.25-3.84,2-5.71,.38-.94,.78-1.86,1.21-2.78,.26-.55,.48-1.16,.86-1.64,.25-.36,.58-.58,1.01-.65,.57-.03,.9,.28,.99,.91-.02,.09,.06,.16,.06,.04h0Z"/><path class="cls-3" d="M1044.21,406.56c.47,2.3-.81,4.91-2.07,6.75-1.36,1.99-3.1,3.7-4.95,5.24-3.71,3.09-7.96,5.64-12.31,7.73s-8.71,3.36-13.22,4.53c-5.46,1.41-10.99,2.56-16.53,3.61-4.94,.94-9.92,1.69-14.81,2.84-.09,.02-.06,.37,0,.36,10.51-1.6,21.05-3.55,31.35-6.22,9.57-2.48,18.75-6.27,26.16-13,1.92-1.74,3.73-3.71,4.99-5.99,1.06-1.91,1.4-3.74,1.42-5.89,0-.13-.07-.05-.05,.04h0Z"/><path class="cls-3" d="M1067.53,408.57c-1.26-1.51,2.55-2.35,3.23-2.51,1.46-.34,2.92-.66,4.38-.97,2.86-.6,5.72-1.18,8.59-1.71,5.67-1.04,11.39-1.84,17.13-2.41,11.48-1.14,23.05-1.33,34.56-.58,6.54,.43,13.06,1.07,19.54,2.04,.03,0,.04-.17,0-.18-24.58-4.12-49.83-3.59-74.26,1.28-3.42,.68-6.8,1.52-10.17,2.42-1.21,.33-3.79,.99-3.02,2.74,.03,.06,.05-.09,.02-.13h0Z"/><path class="cls-3" d="M1145.07,407.1c8.99-1.45,18.08,.03,26.7,2.74,4.47,1.41,8.81,3.2,13.06,5.18,4.01,1.87,7.87,4.21,12.03,5.73,.05,.02,.08-.37,0-.42-3.91-2.65-8.34-4.62-12.62-6.58-3.93-1.8-7.93-3.44-12.05-4.75-8.72-2.78-18.09-3.8-27.12-1.96-.01,0,0,.06,0,.06h0Z"/><path class="cls-3" d="M1100.24,440.19c-1.5,.8-2.54,1.97-2.63,3.73-.06,1.18,.28,2.49,1.45,3,1.02,.45,2.47,.34,3-.76,.21-.42,.25-.93,.2-1.4-.09-1.01-1.13-2.27-.9-3.24,.02-.07,.02-.78-.13-.65-.64,.53-1.21,.86-1.67,1.58-.41,.65-.69,1.36-.86,2.11-.37,1.58-.26,3.26,.2,4.81,.01,.04,.14,.39,.26,.35,3.31-1.11,4.35-4.54,3.99-7.74-.01-.09-.18-1.26-.47-1.12-2.85,1.34-2.91,6.34-1.03,8.51,.83,.96,2.27,1.2,3.36,.53,1.98-1.24,1.45-4.86,1.12-6.71-.08-.44-.33-1.81-1-1.83-.74-.02-1.15-.2-1.83,.19-.79,.46-1.12,1.35-1.37,2.19-1.06,3.55-.66,7.77,.74,11.14,.17,.43,.47,.7,.9,.79,2.53-.99,4.3-2.63,5.6-5,1.15-2.09,.88-5.41,.55-7.65-.1-.68-.85-4.74-2.2-3.49-1.62,1.5-1.88,4.2-1.99,6.25-.14,2.88,.03,6.6,1.85,9.01,2.05,2.72,5.7,1.13,6.75-1.66,.97-2.6,1.05-5.71,.45-8.41-.29-1.32-1.14-4.29-2.55-2.14-1.58,2.42-1.56,5.98-1.38,8.73s.69,5.55,2.63,7.47c.34,.28,.66,.28,.99-.02,1-.68,2-1.35,3.01-2.03l-2.06-10.24c-1.01,4.03-1.13,9.86,1.86,13.17,.69,.76,1.56,1.34,2.47,1.8,1.11,.57,2.48,1.25,3.73,1.28,.43-.11,.72-.39,.86-.83,.55-1.42,.86-2.79,.88-4.32,.01-.85-.04-1.7-.16-2.54-.07-.5-.62-3.02-.12-.49,.53,2.71-.05-.47-.21-1.08s-.32-1.28-.63-1.83c-.46-.8-1.23-1.12-2.05-1.44-.93-.36-1.82-.71-2.66-1.26-.38-.25-.74-.52-1.07-.83,0,0-.55-.55-.39-.41,.08,.1,.07,.07-.02-.07-.7-1.29-.47-.04,.69,3.75l-.18,3.11-.14,.64c.59-2.35,.65-5.09,.11-7.46-.19-.85-.79-3.72-2.17-2.78-1,.68-2,1.36-3,2.05l.99-.02c-.26-.25-.51-.93-.17,.14,.67,2.12-1.42,8.81,.32,6.09l-2.1-10.55c-.21,.59-.14,.51-.64,.9-.42,.32-.86,.47-1.39,.51-.46,.03-.84-.04-1.23-.25-.12-.08-.22-.17-.32-.27l.1,.17-.14-.24c.38,1.49,.51,1.86,.38,1.11l.32,3.08c.06,1.28-.09,2.51-.46,3.7-.15,.25-.12,.25,.11,0l-1.66-11.14c-.79,1.57-2.22,2.92-3.82,3.65l.9,.79,.4,1.25,.14,4.22c.12,.11-.39,.88,.05-.04,.22-.46,.44-.97,.82-1.34l-.86-.36c.72-4.37,.62-5.89-.33-4.56-.07,.11-.16,.21-.26,.29-.15,.13-.29,.27-.45,.37-.41,.27-.94,.46-1.43,.37-.24-.04-.35-.2-.57-.27l-.14-.15c-.06,1.27,0,1.62,.16,1.06,.39-.62,.56-1.08,1.15-1.56l-.54-.7c.35,1.7-1.89,3.58-3.24,4.12l.26,.35c-.64-1.97,.36-4.7,1.95-6.03l-.13-.65c-.15,.66-.12,1.26,.1,1.9,.38,1.14,1.29,2.65-.41,3.02-.82,.18-1.77-.09-2.38-.66-1.5-1.41,.66-4.01,1.75-4.98,0,0,0-.06,0-.06h0Z"/><path class="cls-3" d="M1120.5,459.5c.68-.69,1.7-1.23,2.54-1.72l-.08-.75c-.46,.56-.92,1.05-1.33,1.65-.25,.37-.29,1.9,.22,2.08,2.1,.76,4.44-.26,5.4-2.25,.23-.48,.2-1.16,.12-1.67-.02-.15-.18-1.03-.49-.76-1.45,1.31-1.56,3.51-1.18,5.32,.04,.18,.22,1,.55,.72l2.08-1.75c.67-.56,1.33-1.26,2.09-1.69,.58-.33,.48-3.65-.23-3.57-1.47,.17-2.27,2.31-2.54,3.52-.51,2.35-.34,4.88,.58,7.1,.12,.28,.34,.42,.59,.25,1.57-1.07,2.75-2.46,3.73-4.08,.49-.81,.41-2.33,.3-3.22-.05-.39-.2-2.13-.85-2.07-1.11,.11-1.67,1.1-1.93,2.08-.47,1.78-.45,4.24,.48,5.86,.08,.22,.23,.35,.45,.4,1.03-.02,2.12-.34,3.02-.85l-.65-6.19c-1.51,1.87-2.07,4.15-2.22,6.51-.01,.22,.04,4.68,1.07,4.33,2.79-.92,4.33-3.3,4.77-6.13,.19-1.26,.16-2.77-.25-3.99-.23-.68-.66-1.32-1.18-.49,.21-.34-.2,.32-.26,.43-.11,.19-.2,.38-.3,.57-.21,.39-.44,.72-.73,1.05-.61,.69-1.37,1.3-2.22,1.67l1.07,4.33c.02-.36,.01-.35-.03,.03,.05-.32,.05-.35,0-.09,.02-.12,.12-.48,.12-.5,.18-.54,.47-1.08,.79-1.54,.75-1.06,.71-2.73,.56-3.97-.05-.38-.4-2.9-1.21-2.22-.4,.34-.68,.63-1.19,.81-.43,.15-.88,.23-1.33,.27l.45,.4-.09-.15,.13,3.7c.07-.06,.08-.18,.16-.24,.22-.19,.35-.32,.64-.4l-.55-5.29c-.77,1.56-1.93,2.86-3.31,3.92l.59,.25s-.12-.39-.14-.39c.07,.03,.07,.5,.08,.52,.02,.57,0,.17,.09-.11,.37-1.04,1.03-1.8,1.62-2.71l-.49-3.32c-.6,.72-1.37,1.33-2.06,1.97l-2.07,1.91,.55,.72c-.05-.16-.06-.1-.03,.18,.03-.14,.07-.28,.13-.41,.13-.34,.34-.62,.58-.89l-.36-2.43c-.82,1.89-3.03,2.87-5,2.3l.22,2.08c.4-.94,.7-1.91,1.05-2.87,.03-.09,.01-.83-.11-.71-.74,.76-1.57,1.77-2.47,2.32-.04,.02,0,.16,.02,.15h0Z"/><path class="cls-3" d="M725.39,413.26c.27,0,.41,.23,.63,.32,.14,.06,.29,.06,.44,.08,.35,.05,.7,.13,1.03,.25,.7,.26,1.33,.69,1.89,1.18,.92,.81,1.82,2.13,1.56,3.41s-1.24,2.27-2.27,3.03c-.57,.42-1.22,.75-1.91,.93-.32,.08-.65,.13-.99,.15s-.65-.05-.98-.03c-.12,0-.09,.43,0,.48,.96,.62,2.46,.46,3.48,.08,1.14-.42,2.01-1.27,2.57-2.34,1.22-2.34,.58-5.4-1.42-7.09-.53-.44-1.17-.76-1.83-.94-.33-.09-.68-.15-1.02-.16-.18,0-.38-.03-.54,.05-.24,.1-.37,.38-.63,.46-.03,.01-.03,.16,0,.15h0Z"/><path class="cls-3" d="M729.77,417.4c1.15-.69,2.39,.67,2.7,1.68,.57,1.86-1.2,2.72-2.63,3.1-2.61,.69-5.19,1.48-7.78,2.25-5.8,1.74-11.64,3.37-17.51,4.88-11.64,3-23.41,5.45-35.06,8.41-3.28,.83-6.59,1.47-9.91,2.08-3.49,.64-6.94,1.45-10.42,2.16-.21,.04-.17,.86,.02,.85,3.49-.25,6.98-.49,10.44-.97s6.61-.97,9.93-1.35c6.75-.77,13.34-2.13,19.96-3.61,6.64-1.48,13.21-3.18,19.75-5.05,3.31-.95,6.61-1.93,9.9-2.96,1.61-.5,3.21-1.01,4.81-1.52s3.19-.87,4.64-1.56c2.08-.99,4.32-3.02,4.32-5.5,0-.77-.19-1.57-.65-2.2-.69-.96-1.46-1.01-2.53-.85-.05,0-.02,.17,.01,.15h0Z"/><path class="cls-3" d="M735.73,423.78s.03-.15,0-.15c-.03,0-.03,.15,0,.15h0Z"/><path class="cls-3" d="M733.05,421.98c-.23,.06-.52-.1-.74-.17-.25-.08-.5-.15-.75-.22-.5-.13-1.01-.25-1.52-.34-1.01-.18-2.03-.28-3.05-.29-.3,0-.28,1.39,.03,1.38,1.11-.03,2.22-.15,3.33-.23l3.33-.23c.11,0,.1-.48-.01-.48l-3.34-.22c-1.11-.07-2.23-.19-3.34-.22l.03,1.38c.98-.21,1.97-.35,2.97-.4,.48-.02,.96-.03,1.45-.02,.25,0,.5,.02,.75,.04,.26,.02,.64,0,.86,.16,.03,.02,.04-.16,0-.15h0Z"/><path class="cls-3" d="M729.5,423.17c-.85-.03-1.69-.27-2.52-.44-.95-.19-2.12-.28-2.96-.79l-.04,.68c.69,.32,1.2,.66,1.94,.67,.63,0,1.27-.03,1.9-.02,1.59,.02,3.18,.12,4.76,.22,3.04,.19,6.05,.66,9.04,1.27,5.56,1.13,11.08,2.62,16.54,4.18,10.8,3.07,21.38,6.87,31.84,10.95,20.93,8.15,41.51,17.34,62.9,24.25,5.9,1.91,11.85,3.63,17.88,5.1,2.72,.66,5.49,1.44,8.3,1.59,1.2,.06,2.52,.04,3.67-.37,.55-.19,1.29-.5,1.68-.93,.57-.63,.93-1.78,1.23-2.55,.08-.2,.19-1.24-.12-1.29-.39-.07-.98-.37-1.35-.36s-.84,.31-1.22,.42c-1.13,.31-2.28,.46-3.45,.44-2.41-.04-4.77-.64-7.1-1.18-5.45-1.28-10.85-2.77-16.2-4.43-10.65-3.29-21.09-7.21-31.45-11.31-20.8-8.24-41.34-17.24-62.83-23.57-6.1-1.8-12.24-3.42-18.51-4.5-3.21-.56-6.46-.97-9.72-1.09-1.68-.06-3.32-.03-4.99,.18-.79,.1-1.58,.22-2.37,.36-1.09,.2-1.49,.58-2.37,1.3-.1,.08-.09,.72,.05,.69,.87-.23,1.85,.08,2.74,.21s1.87,.2,2.75,.48c.02,0,.04-.15,0-.15h0Z"/><path class="cls-3" d="M973.65,463.29c-2.2,.56-4.82,.33-7.08,.24-2.37-.09-4.74-.32-7.09-.65-4.76-.66-9.48-1.61-14.17-2.65-9.28-2.05-18.59-4.49-28.15-4.68-9.33-.19-18,2.29-26.08,6.89s-15.08,10.47-22.69,15.61c-8.74,5.91-18.32,10.29-27.93,14.57s-19.33,8.2-28.92,12.5c-19.08,8.54-37.72,17.78-55.54,28.73-8.63,5.3-17.21,10.74-26.3,15.22-4.59,2.26-9.31,4.17-14.11,5.93-4.43,1.62-8.89,3.21-13.13,5.31-2.16,1.07-4.24,2.28-6.22,3.67-.38,.26-.4,2.58,.16,2.56,19.64-.77,39.24-2.34,58.74-4.81,19.5-2.47,38.86-5.96,58.03-10.27s38.28-9.59,57.13-15.47c18.77-5.85,37.18-12.76,55.28-20.45,9.05-3.85,18.02-7.89,26.89-12.13,4.44-2.12,8.85-4.29,13.24-6.5,3.39-1.72,7.75-3.34,9.77-6.8,.96-1.65,1.14-3.64,.91-5.51-.05-.42-.12-1.5-.71-1.34-.5,.14-.37,2.1-.33,2.39,.15,1.22-2.23,3.1-3.24,3.82-1.87,1.33-3.99,2.28-6.04,3.31-4.31,2.18-8.65,4.3-13,6.38-8.64,4.12-17.37,8.05-26.18,11.78-17.72,7.5-35.78,14.16-54.02,20.27-18.17,6.09-36.67,11.2-55.32,15.56-18.74,4.38-37.67,7.88-56.7,10.74-19.03,2.85-38.19,4.91-57.4,6.04-2.37,.14-4.74,.26-7.11,.38l.16,2.56c8.12-5.76,17.89-8.24,26.92-12.15s17.82-9.13,26.32-14.4,17.54-10.89,26.65-15.8c9.41-5.07,19.02-9.74,28.73-14.22s19.1-8.7,28.64-13.09c9.43-4.34,19.06-8.24,28.06-13.44,15.94-9.2,29.43-24.33,48.63-26.41,19.06-2.06,37.17,6.93,56.12,6.85,2.35-.01,4.75-.48,7.08-.4,.03,0,.02-.16,0-.15h0Z"/><path class="cls-3" d="M968.42,492.33c.67,.34,1.29,.92,2.02,1.14,.64,.19,1.34,.25,1.99,.38,1.66,.32,3.29,.6,4.98,.77l9.45,.92c6.16,.6,12.33,1.07,18.5,1.54,12.32,.96,24.68,1.71,37.05,1.45,12.15-.25,24.19-1.64,36.06-4.28,11.7-2.61,23.15-6.19,34.53-9.93,3.04-1,6.1-1.94,9.1-3.04,2.59-.95,5.19-2.12,7.24-4,1.9-1.74,3.11-4.1,3.52-6.64,.35-2.15,.33-4.8-1.26-6.49-.17-.18-.18,1.12-.11,1.28,2.03,5.02-2.68,9.16-6.81,11.07-4.75,2.2-9.99,3.56-14.97,5.17-10.78,3.5-21.65,6.81-32.74,9.21s-22.66,3.71-34.17,3.98c-11.63,.27-23.25-.36-34.84-1.22-6.57-.49-13.13-1.12-19.7-1.56l-9.69-.65c-1.66-.11-3.3-.21-4.96-.16l-2.48,.07c-1.15,.03-1.62,.45-2.71,.83-.03,.01-.03,.14,0,.15h0Z"/></g></svg>