<?xml version="1.0" encoding="UTF-8"?><svg id="Layer_1" xmlns="http://www.w3.org/2000/svg" viewBox="0 0 1500 750"><defs><style>.cls-1{fill:#e4dcd5;}.cls-2{fill:#cdc0b6;}.cls-3{stroke:#231f20;stroke-miterlimit:10;stroke-width:1.4px;}.cls-3,.cls-4{fill:#231f20;}.cls-5{fill:#b68b69;}</style></defs><g><path class="cls-5" d="M814.44,442.7c1.55,0,26.29,.47,37.35,22.05,11.07,21.57,2.67,12.08,2.67,12.08,0,0,25.1,3.09,30.21,3.05,5.11-.05,68.75-18.29,63.38-61.38l-82.87,1.8-50.74,22.41Z"/><path class="cls-5" d="M431.09,431.32s137.38-136.79,248.89-157.08c111.51-20.29,193.81-22.99,255.37-13.58,61.57,9.41,266.38,54.35,262.9,73.42-3.48,19.07-11.01,26.91-82.18,48.61l-19.86,1.72s2.22,9.25-1.52,10.33-86.51,13.17-106.93,17c-20.42,3.83-180.24,39.74-192.94,40.44s-287.18,29.03-287.18,29.03c0,0-19.06,54.71-17.63,48.98,7.16-28.65-12.4-51.69-26.1-45.24-13.7,6.44-19.5,11.44-19.5,11.44,0,0,12.12,65.92-25.1,88.25-37.23,22.33,13.21-48.44-17.25-79.76-30.46-31.32-67.14-88.7-66.61-93.15l-32.86,2.68s15.04,.04,9.05-13.75c-5.99-13.8-10.01-20.79-8.67-22.66s16.9-21.07,57.03,2.98c40.13,24.05,71.1,50.33,71.1,50.33Z"/><path class="cls-5" d="M721.08,231.77c-1.5-5.25-3.97-9.55-7.64-13.58-1.7-1.87-11-2.23-9.38,1.56,3.25,7.59,7.91,14.18,13.92,19.84,1.58,1.48,11.97,2.12,10.97-1.53-2.87-10.42-8.98-18.72-15.64-27.05l-11.54,2.07c7.86,7.46,16.11,14.43,24.8,20.9,2.24,1.67,5.39,2.01,8.08,1.52,1.1-.2,5.5-1.56,3.88-3.55-6.41-7.85-13.34-15.15-20.97-21.83l-10.66,3.48c10.4,6.43,20.32,13.51,29.82,21.21,2.46,1.99,6.41,2.38,9.41,1.63,2.08-.53,4.92-2.18,2.69-4.41-8.03-8.04-16.07-16.09-24.1-24.13l-11.41,3.52c7.3,4.75,14.07,10.11,20.41,16.09l12.59-2.71c-9.25-7.21-17.49-15.45-24.69-24.7l-11.6,3.4c8.3,5.28,15.55,11.83,21.85,19.39l12.76-2.55c-8.37-7.22-16.01-15.15-22.9-23.79l-11.77,3.26c14.31,8.12,24.67,21.1,37.04,31.65,6.56,5.6,13.64,10.52,21.53,14.05,4.37,1.96,8.89,3.39,13.57,4.41,2.58,.56,8.83,.19,10.39,2.63,1.94,3.04,14.74,3.38,13.51-1.28-2.21-8.36-13.05-7.27-19.77-8.78-9.26-2.09-17.57-6.46-24.91-12.42-13.82-11.22-24.99-25.43-40.66-34.33-2.48-1.41-16.14-2.21-11.77,3.26,6.92,8.67,14.59,16.63,22.99,23.87,2.51,2.17,6.65,2.69,9.81,1.99,2.37-.53,5.03-2.05,2.95-4.53-6.91-8.28-14.99-15.23-24.09-21.01-2.6-1.66-15.76-1.94-11.6,3.4,7.23,9.28,15.51,17.55,24.78,24.79,2.61,2.04,6.54,2.58,9.73,1.82,2.04-.49,5.27-2.26,2.86-4.53-7-6.6-14.57-12.46-22.66-17.64-2.49-1.6-6.62-1.68-9.34-.77-1.95,.65-4.13,2.27-2.07,4.29,8.16,8.05,16.32,16.1,24.48,24.14l12.1-2.78c-10.28-8.21-21.06-15.74-32.29-22.59-2.34-1.43-6.28-1.53-8.78-.58-1.69,.64-3.99,2.24-1.88,4.06,7.48,6.45,14.37,13.46,20.69,21.06l11.33-2.79c-8.83-6.46-17.24-13.41-25.21-20.91-1.87-1.76-5.5-1.84-7.82-1.4-1.09,.21-5.27,1.54-3.72,3.47,6.56,8.14,13.09,16.45,16.22,26.58l10.75-2.27c-6.14-5.21-10.99-11.3-14.69-18.45l-8.87,2.1c3.37,3.28,5.59,7.44,6.84,11.96,.93,3.37,10.44,2.23,9.67-.48h0Z"/><path class="cls-5" d="M707.87,215.98c-9.69,9.38-16.85,21.66-23.62,33.22l13.41,1.9c3.71-10.79,6.76-21.82,10.61-32.56,1.42-3.97-12.31-6.15-14.15-2.52-4.3,8.47-7.97,17.22-11.25,26.13l16.06,1.64c-.67-4.53-1.34-9.07-2.03-13.6-.82-5.35-16.44-6.99-16.26-1.78,.11,3.2,.2,6.41,.28,9.61l15.59-.06-9.03-9.14c-2.24-2.26-6.22-3.02-9.27-2.99-1.57,.01-6.9,.51-6.64,3.06,.69,6.84,1.85,13.61,3.72,20.22l16.2-1.14c-3.84-5.07-7.01-10.46-9.58-16.27-1.69-3.82-16.5-7.12-16.81-1.3-.26,4.8,1.1,8.65,3.83,12.54l15.33-1.84c-2.16-3-3.21-6.39-3.65-10.03l-16.73-.49c4.07,6.57,5.08,13.37,3.7,20.92-1.01,5.54,12.45,6.92,15.46,4.83,2.07-1.44,3.37-2.88,3.9-5.41,1.09-5.17-14.13-8.13-16.25-4.03-2.84,5.5-5.69,11-8.53,16.5s12.34,9.12,15.53,5.19,5.09-8.18,6.05-13c1.06-5.33-13.67-7.8-15.78-3.03-2.81,6.34-6.65,14.48-14.15,15.89l11.95,5.62c2.79-5.43,5.22-11.02,7.13-16.81,.95-2.89,1.77-5.82,2.46-8.78,.43-1.88,.69-6.96,3.11-7.42l-6.48-.25,1.31,.34c1.87,.48,5.45,1.28,7.22-.13,1.44-1.15,1.32-2.66-.35-3.7-6.97-4.31-16.06-3.29-18.5,5.24-2.73,9.52-5.17,18.36-10.04,27.11-2.52,4.53,7.66,6.35,10.34,5.91,11.5-1.89,16.95-10.15,21.8-19.99l-15.78-3.03c-1.11,4.23-2.96,7.54-5.8,10.85l15.53,5.19c2.92-5.56,5.84-11.11,8.76-16.67l-16.25-4.03c-.05,.8-.42,1.41-1.11,1.8l15.46,4.83c1.9-8.03,.28-16.43-3.95-23.44-1.79-2.98-5.58-4.08-8.87-4.36-1.56-.13-8.33-.23-8,2.75,.58,5.16,2.14,9.25,5.19,13.47s19.72,4.38,15.33-1.84c-1.77-2.5-2.33-5.29-2.19-8.29l-16.81-1.3c2.96,6.63,6.54,12.81,10.79,18.69,2.38,3.29,18,5.16,16.2-1.14-1.7-5.96-3.07-11.93-3.85-18.09l-15.91,.07,9.34,9.1c2.25,2.19,6.04,2.96,9.08,2.93,1.62-.02,6.64-.47,6.51-2.99-.17-3.29-.34-6.58-.49-9.87l-16.26-1.78c.73,4.58,1.49,9.16,2.24,13.73,.88,5.34,14.31,7.01,16.06,1.64,2.78-8.54,5.96-16.93,9.35-25.25l-14.51-1.64c-2.94,11.13-6.7,22.05-9.82,33.14-1.12,3.99,11.71,5.19,13.41,1.9,6.05-11.77,14.19-22.62,19.69-34.6,1.62-3.53-7.71-2.77-9.16-1.36h0Z"/><path class="cls-5" d="M709.03,228.38c-15.54,7.33-29.03,18.15-39.74,31.58-3.27,4.11,9.01,5.85,11.26,4.69,18.1-9.35,36.18-19.08,56.33-23.13l-9.71-6.25c-17.51,9.83-35.09,19.55-52.58,29.41l12.43,5.4c13.19-10.24,27.33-19.08,42.24-26.6,2.63-1.32,.74-3.68-.94-4.77-2.41-1.57-6.68-2.7-9.49-1.7-11.34,4.01-22.21,9.03-32.38,15.47-4.84,3.06-9.49,6.4-13.98,9.95s-10.16,11.11-15.95,11.53l9.62,6.52c14.99-10.95,34.06-17.45,51.85-22.05s36.68-7.03,55.32-8.41l-8.65-7.45c-30.98,10.66-63.39,16.43-95.66,21.61l10.59,8.68c14.87-3.73,29.58-8.04,44.64-11.01,15.71-3.1,31.08-4.23,47.07-4,2.27,.03,7.2-.31,6.45-3.72-.72-3.23-6.85-4.32-9.36-4.47l-1.74-.1c-2.19-.13-6.32,.26-6.36,3.15s5.16,4.34,7.13,4.64l1.73,.26-.76-7.95c-17.11-1.92-35.06,.2-51.92,3.17s-32.86,6.99-48.94,11.7c-3.21,.94-1.23,4.13,.34,5.48,2.49,2.13,6.94,3.83,10.25,3.2,32.69-6.27,65.47-12.22,96.88-23.52,2.67-.96,3.48-2.82,1.38-4.91-2.4-2.4-6.89-2.81-10.03-2.53-19.78,1.74-39.59,4.55-58.82,9.59-19.25,5.05-36.64,12.98-53.9,22.72-5.97,3.37,6.52,7.13,8.69,7.16,6.29,.08,10.35-3,14.91-6.99,5.43-4.75,10.81-9.37,16.79-13.44,10.52-7.18,21.97-13.07,33.97-17.32l-10.42-6.47c-15.52,7.84-30.14,17.19-43.87,27.87-2.26,1.76,2.21,4.38,3.26,4.85,2.53,1.13,6.59,2.01,9.17,.55,17.35-9.81,34.62-19.76,51.95-29.61,2.35-1.34,.89-3.35-.81-4.5-2.46-1.66-6-2.35-8.9-1.76-20.89,4.27-39.86,14.14-58.29,24.51l11.26,4.69c9.62-13.03,21.75-23.64,35.86-31.58,3.9-2.2-5.6-5.31-8.17-4.1h0Z"/><path class="cls-5" d="M681.13,249.33c-.89,3.82,3.88,5.96,7.01,6.39,5.27,.73,10.48-2.2,15-4.56,10.27-5.37,19.99-12.35,31.44-14.99l-10.24-4.02c.95,6.34,3.03,11.97,6.29,17.49,1.46,2.48,13.11,5.9,13.51,1.32,1.06-12.16-14.67-16.91-24.27-14.24-2.31,.64-4.46,1.73-6.35,3.19-1.09,.85-2.31,1.87-3.21,2.93l-1.32,.94c3.13,.65,3.7,.53,1.72-.36-3.74-3.38-10.17-5.3-14.98-6.14l3.91,8.14c6.58-.12,12.8-1.44,19.25-2.6,3.94-.71,9.87-2.22,13.28,.61l9.16-3.7c-4.81-2.36-9.61-4.74-14.43-7.08l-2.07,7.07c9.41,.95,18.82,1.89,28.23,2.84,1.69,.17,9.4-.44,6.08-4.22s-7.52-6.26-12.57-7.53c-2.2-.55-7.1-1.36-8.44,1.24s2.6,4.77,4.45,5.56c14.81,6.27,30.99,11.87,47.19,12.34,5.48,.16,6.59-4.44,1.03-5.95-14.27-3.87-28.49-6.8-42.21-12.51l-3.99,6.8,.23,.22,6.08-4.22c-9.35-.94-18.7-1.88-28.05-2.81-1.83-.18-5.89-.57-6.62,1.9s2.88,4.37,4.55,5.17c4.8,2.3,9.62,4.55,14.43,6.82,2.33,1.1,6.49,2.25,9.03,.97,2.13-1.07,1.92-3.21,.14-4.67-6.55-5.35-14.61-8-23.03-8.24-9.42-.26-18.21,3.35-27.52,3.68-2.21,.08-5.38,.65-4.36,3.52s5.73,4.12,8.26,4.62c2.28,.45,5.35,3.45,7.73,4.44,3.47,1.45,7.38,2.37,11.15,1.89,3.32-.43,5.73-1.84,8.06-4.19,1-1,2.87-3.6,4.44-3.53-1-.74-.91-.44,.28,.9,.45,.94,.67,1.93,.64,2.98l13.51,1.32c-3.25-4.71-5.43-9.78-6.6-15.38-.72-3.44-7.52-4.66-10.24-4.02-7.36,1.73-14.09,4.81-20.61,8.6-3.82,2.22-7.53,4.63-11.32,6.89-2.47,1.48-6.55,5-9.45,5.12l5.18,1.34-.89-.58,1.99,2.04-.16-1.17c.91-3.37-9.52-6.02-10.32-2.59h0Z"/><path class="cls-5" d="M724.13,249.03c11.3,2.79,22.65,5.1,34.16,6.83,10.6,1.6,22.2,4.11,32.93,2.97,4.3-.46,1.12-3.39-1.28-3.95-10.57-2.49-21.87-2.53-32.63-3.99s-21.72-3.25-32.5-5.29c-4.37-.83-4.97,2.36-.68,3.42h0Z"/><path class="cls-5" d="M737.38,247.71c18.38,.22,37.49,1.19,53.15,11.84,2.03,1.38,5.44,2.47,7.86,1.56,2.18-.81,2.55-2.13,.74-3.73-17.08-15.08-42.04-14.65-63.4-14.13-6.04,.15-2.55,4.41,1.65,4.46h0Z"/><path class="cls-5" d="M707.52,190.26c10.11,5.47,18.25,13.56,24.44,23.2,.97,1.52,7.16,2.39,5.77-.09-6.04-10.77-15.02-19.08-25.77-25.06-2.26-1.26-8.74-.37-4.44,1.95h0Z"/><path class="cls-5" d="M706.47,184.5c-.3,.25,7.18,6.99,8.39,8.17,3.76,3.66,7.34,7.48,10.81,11.41,6.03,6.82,11.66,14.01,17.05,21.33,1.14,1.54,8.05,2.84,6.39,.21-7.14-11.32-15.79-21.5-25.39-30.8-2.64-2.56-18.16-19.74-22.14-11.61-.76,1.54,4.07,1.98,4.9,1.29h0Z"/><path class="cls-5" d="M672.84,171.94c2.65-4.87,16.76,.67,20.65,1.74,7.26,2,14.33,4.8,20.28,9.52,11.33,8.99,18.85,22.34,28.58,32.92,.96,1.05,7.43,2.75,5.88,.03-8.69-15.28-20.4-31.75-36.3-40.12-8.13-4.28-17.12-6.7-26.06-8.61-6.58-1.4-14.04-3.81-19.2,1.7-1.67,1.78,4.95,5.04,6.17,2.82h0Z"/><path class="cls-5" d="M665.8,180.76c-1.74-1.81-3.31-3.63-5.15-5.37-.93-.87-4.83-2.18-5.71-.56-4.98,9.24-2.99,20.3,3.89,28.01,1.01,1.13,7.35,2.87,6.88,0-1.64-9.96-5.38-18.62-9.41-27.77-.87-1.98-8.31-3.55-7.61-.73,1.41,5.72,3.45,11.23,6.07,16.5,1.09,2.19,9.64,3.93,8.67,.83-2.24-7.16-5.65-13.67-10.21-19.63-.78-1.02-7.06-3.11-7.05-.69,.02,9.1,3.38,16.95,7.34,24.99,.99,2.01,7.75,2.58,6.84,.65-3.59-7.53-7.34-15.43-6.81-23.99l-7.05-.69c3.93,5.69,6.62,11.82,8.28,18.52l8.67,.83c-2.87-5.36-5.2-10.83-7.13-16.6l-7.32-.23c5.24,8.12,7.93,18.11,9.55,27.54h6.88c-6.64-7.33-7.69-17.1-4.46-26.21l-5.44,.16c2.44,1.77,4.94,3.31,7.43,4.98,.56,.37,3.91,.56,2.85-.55h0Z"/><path class="cls-5" d="M651.87,173.38c-1.79-2.22,11.97-4.82,13.2-4.95,5.56-.55,10.98,.21,16.44,1.23,3.2,.6,3.73-1.98,.76-3.05-7.72-2.77-16.02-3.26-24.08-1.76-3.04,.57-16.73,3.45-11.3,8.84,.99,.98,6.52,1.6,4.98-.31h0Z"/><path class="cls-5" d="M668.45,168.28c6.7-.83,21.57-1.04,22.39,8.32,.14,1.64,5.43,3.45,6.06,1.6,2.04-6.03-4.89-9.7-9.62-11.45-7.5-2.77-15.61-3.48-23.52-2.57-4.24,.49,2.39,4.38,4.69,4.09h0Z"/><path class="cls-5" d="M849.22,449.36l-.25,.1c-3.42-1.46-6.63,.03-2.5,2.82,5.6,3.79,8.43,10.36,9.45,16.85,.38,2.41,8.3,6.07,8.43,2.83,.4-10.07-6.85-18.15-15.39-22.5l3.14,3.41,.14-.55-1.18,.48,1.28-.04c3.2-.1-1.49-3.44-3.15-3.4h0Z"/><path class="cls-5" d="M580.57,477.25c2.86,3.76,8.65,5.34,12.99,6.57,1.85,.53,9.51,.06,5.36-3.01-2.5-1.85-5.03-3.65-7.57-5.46-1.77-1.26-5.11-2.03-7.19-1.21-1.85,.72-2.36,1.96-.55,3.26,3.67,2.64,7.53,4.87,11.65,6.73,1.07,.49,8.27,2.38,8.17-.52-.05-1.59-.1-3.18-.16-4.77l-8.24,.45c3.44,1.62,6.83,2.38,10.61,2.08,5.71-.45,1.47-4.29-1.68-5.03-1.24-.29-2.48-.58-3.72-.87l1.65,5.07c15.11-.23,30.69-.72,45.52-3.9,2.09-.45,2.39-1.8,1.11-3.28-1.48-1.7-5.08-2.31-7.15-2.11-14.64,1.42-29.13,3.48-43.86,3.95-5.78,.19-1.45,4.36,1.65,5.07,1.25,.28,2.51,.57,3.76,.85l-1.68-5.03-.14,.17c-1.04-.49-8.37-2.47-8.24,.45,.07,1.63,.15,3.26,.22,4.88l8.17-.52c-3.53-1.59-6.77-3.47-9.91-5.73l-7.74,2.05c2.61,1.86,5.22,3.71,7.86,5.52l5.36-3.01c-3.97-.99-7.48-2.85-11.31-4.18-.95-.33-6.81-.93-4.94,1.53h0Z"/><path class="cls-5" d="M642.64,473.51c-.1,.72-.25,1.46-.46,2.16-.19,.63-.3,1.35-.63,1.89-1.69,2.81,6.73,4.92,8.37,2.78,.61-.8,1.28-1.85,1.28-2.88,0-1.35-.42-2.28-1.12-3.4s-3.03-1.63-4.23-1.69c-.85-.04-3.04-.07-3.2,1.13h0Z"/><path class="cls-5" d="M474.8,369.17c-.1-1.56-.4-2.45-1.48-3.59s-8.94-2.79-7.73-.1c2.23,4.94,4.85,9.57,7.88,14.06l8.56-.48c-2.84-3.8-5.68-7.59-8.51-11.39-1.67-2.23-11.6-3.19-9.18,.51,1.86,2.84,3.71,5.68,5.57,8.53l9.62-.54-4.15-5.05c-1.43-1.74-11.1-4.25-10.35-.13,.55,3,1.93,5.49,3.99,7.72,1.59,1.72,4.48,2.37,6.72,2.38,1.07,0,4.64-.3,3.78-2.25l-6.5-14.81-10.64-.13c5.41,5.14,10.72,10.42,16.37,15.28,1.72,1.48,4.98,1.97,7.14,1.64,1.23-.19,3.76-1.25,2.04-2.84-3.55-3.27-15.32-6.33-16.31,1.13-.45,3.39,8.74,5.13,10.49,2.87,3.86-4.98,2.22-11.52-2.79-14.98-2.07-1.43-5.21-2.36-7.72-1.74-2.24,.56-2.44,1.95-.77,3.42,2.46,2.17,4.91,4.34,7.37,6.51l4.86-3.24c-3.82-1.11-9.2-1.19-11.89,2.29s-.88,7.37,2.07,9.79c1.82,1.49,4.76,2.22,7.06,1.97,1.27-.14,3.79-1.07,2.17-2.75-1.04-1.08-1.69-2.23-1.42-3.79,.06-.66,.31-1.25,.76-1.77,1.34-.69,1.37-.97,.11-.87,2.34,.67,8.54,0,4.86-3.24-2.49-2.19-4.97-4.39-7.46-6.58l-8.49,1.68c3.16,2.19,3.33,6.91,1.12,9.83l10.49,2.87c-.07-.46,.04-.84,.35-1.15,1.32-1.62-.28-2.19-4.8-1.72l9.94-.53c-4.88-5.11-10.22-9.82-15.37-14.66-1.79-1.68-4.39-2.4-6.8-2.41-1.07,0-4.71,.31-3.83,2.28,2.21,4.94,4.42,9.88,6.64,14.82l10.5,.13c-1.74-1.87-2.7-3.86-3.27-6.34l-10.35-.13,4.43,5.03c1.82,2.07,12.34,3.3,9.62-.54-2.01-2.83-4.01-5.67-6.02-8.5l-9.18,.51c3.04,3.78,6.09,7.57,9.13,11.35,1.64,2.04,10.96,2.76,8.56-.48-3.07-4.15-5.87-8.47-8.39-12.97l-7.17,.39,1.09,1.69c.61,1.68,7.36,3.11,7.23,1h0Z"/><path class="cls-2" d="M926.9,351.09c-1.87-.13-3.66-.65-5.35-1.55l4.6,6.36c15.46-4.34,30.92-3.14,46.69-4.75,15.84-1.62,33.84-9.54,49.19-2.31l-7.13-8.72c-5,8.08,3.18,16.91,9.56,21.2,9.29,6.23,19.65,3.95,29.76,7.15,2.94,.93,1.52-2.78,.86-3.86-1.71-2.78-4.56-5.19-7.52-6.54-5.27-2.39-10.44-2.64-16.12-2.97-2.26-.13-4.8-.19-6.94-.95,1.69,.6,.47,1.25,.67-.66,.17-1.64,.19-2.56,1.07-4.02,2.02-3.37-6.32-8.36-8.53-9.36-14.9-6.73-31.73-1.68-46.9,1.14-16.72,3.11-36.39-.74-51.78,7.64-2.65,1.45,5.57,8.96,7.57,6.75,1.38-.35,2.74-.32,4.08,.11,1.9,.38-1.9-4.42-3.78-4.66h0Z"/><path class="cls-2" d="M1020.07,338.07c-2.07,6.79,2.3,12.63,6.88,17.22,5.64,5.66,12.78,10.04,20.29,12.71,13.82,4.91,28.94,4.93,42.41-1.1,6.82-3.05,12.69-9.6,20.08-10.91,8.59-1.52,17.89-1.11,26.59-1.5s17.98-.57,26.93-1.34c8.04-.69,15.12-2.63,22.69-5.18l-7.66-9.14c-7.8,3.96-17.52,5.78-26,7.66-6.97,1.55-14.01,2.87-21.09,3.85-14.49,2.01-29.07,3.57-43.63,4.92l7.21,14.55c12.47-1.27,24.27-5.21,35.41-10.9,3.87-1.98-6.78-13.17-8.87-13.93-6.66-2.41-13.98-1.01-18.86,4.3-3.5,3.81,7.29,12.76,9.99,14.03,3.24,1.53,6.51,3.02,9.77,4.5l-9.48-15.07c-7.88,2.14-15.69,4.49-23.53,6.78-1.28,.37-1.51,.99-1.32,2.38,1.17,8.34,9.71,17.24,18.19,18.22,4.31,.5,8.85-.77,13.07-1.53,5.57-1.01,11.12-2.12,16.64-3.37,10.51-2.38,20.88-5.26,31.13-8.57s19.97-6.32,29.13-11.08c3.43-1.78-7.26-16.7-11.91-15.26-16.07,4.94-31.66,11.02-47.93,15.38-7.8,2.09-15.64,4.01-23.53,5.68-3.66,.77-7.33,1.52-11.02,2.17-1.37,.24-2.73,.52-4.12,.58-4.2,.18-3.93-2.04,.15,3.2l3.73,6.06-.07-.29-.42,2.1c7.8-2.44,15.62-4.81,23.36-7.4,2.12-.71-1.85-6.88-2.21-7.4-2.02-2.91-4.79-6.04-8.14-7.39-3.16-1.28-6.33-2.54-9.51-3.76l9.99,14.03c3.26-4.54,8.51-6.62,13.86-4.43l-8.87-13.93c-10.32,5.23-21.27,8.39-32.62,10.46-2.45,.45,3.93,15.07,7.99,14.43,14.38-2.27,28.76-4.34,42.97-7.53,7.85-1.76,15.68-3.58,23.41-5.83,8.22-2.38,16.06-6.01,24.26-8.32,3.29-.93-4.42-9.1-6.61-9.47-7.86-1.33-15.45-2.56-23.44-2.94s-15.36,.19-23.02,.6-15.08,.84-22.62,1.3c-6.75,.41-14.14,.02-20.31,3.17-5.31,2.71-9.58,6.98-15.05,9.5s-11.83,4.14-17.92,4.76c-5.42,.55-10.97,.34-16.3-.84-5.71-1.26-12.01-2.09-11.4-9.3,.22-2.57-7.79-9.79-8.69-6.86h0Z"/><path class="cls-2" d="M967.94,347.62c-8.11,.69-16.59,1.89-24.31,4.51-2.25,.76,4.83,9.27,7,9.37,21.67,.99,43.59-.55,65.08-3.38,2.95-.39-5.04-12.34-9.15-11.82-24.01,3.05-47.72,7.55-71.43,12.38-3.78,.77,6.6,14.21,11.02,13.8,23.12-2.16,46.16-5.56,69.18-8.58l-12.48-15.77c-20.34,7.72-40.64,15.53-60.92,23.39-3.2,1.24,8.8,18.45,13.69,17.3,25.01-5.92,50-12.22,75.73-13.89l-13.98-17.2c-25.3,6.56-50.67,12.82-76.02,19.17-4.95,1.24,8.07,18.56,13.6,17.7,36.58-5.66,73.2-11.45,110.31-11.64l-13.58-17.85c-20.38,4.21-40.76,8.4-61.14,12.59-4.63,.95,7.83,18.83,13.56,17.79,25.19-4.54,50.4-8.99,75.6-13.52l-14.15-17.71c-3.59,1.42-7.15,2.08-11,2.27l14.09,17.74c9.39-4.94,18.78-7.39,29.28-8.33l-12.72-18.7-13.36,10.34c-3.2,2.47,4.67,12.22,5.92,13.56l.74,.79-4.95-7.25c-1.56-3.6-.69-1.06-2.04,.4s-3.12,1.64-4.87,1.78c-3.73,.3-7.64-.08-11.38-.1-7.17-.03-14.34,.03-21.51,.17-15.31,.3-30.61,1-45.89,2.08-30.19,2.14-60.26,5.82-90.08,10.93l9.99,17.28c14.36-4.62,28.35-11.02,42.3-16.79,2.53-1.05-5.21-12.59-8.39-11.82-14.92,3.65-30.25,6.71-44.83,11.49-3.57,1.17,5.68,18.05,10.93,17.12,34.23-6.12,68.81-10.23,103.51-12.36,17-1.05,34.02-1.62,51.05-1.71,4.26-.02,8.51,.07,12.77,.02,2.84-.03,6.93,.14,9.37-1.56,6.85-4.79-1.47-15.46-4.99-19.29l5.92,13.56,13.49-10.16c4.08-3.08-8.55-19.05-12.72-18.7-11.24,.92-22.67,4.57-32.61,9.81-4.14,2.18,10.05,17.94,14.09,17.74,4.56-.22,8.78-1.23,13.02-2.91,3.45-1.37-9.27-18.59-14.15-17.71-25.34,4.56-50.67,9.2-76.01,13.75l13.56,17.79c20.38-4.18,40.77-8.37,61.15-12.54,5.21-1.06-8.36-17.86-13.58-17.85-37.08,.1-73.83,5.79-110.33,11.79l13.6,17.7c25.45-6.6,50.89-13.28,76.39-19.67,5.11-1.28-8.79-17.47-13.98-17.2-25.31,1.34-50.03,7.13-74.48,13.49l13.69,17.3c19.9-8.24,39.78-16.52,59.63-24.89,3.26-1.38-8.32-16.39-12.48-15.77-22.87,3.44-45.89,6.49-68.61,10.83l11.02,13.8c22.91-5.92,46.24-10.34,69.55-14.36l-9.15-11.82c-20.7,3.69-41.41,5.15-62.41,5.67l7,9.37c7.29-3.21,13.93-5.35,21.95-5.7,1.91-.08-2.44-8.25-5.17-8.02h0Z"/><path class="cls-2" d="M960.63,362.4c-6.08,1.66-12.62,1.89-18.81,3.09s-12.05,2.68-17.94,4.5c-11.71,3.61-22.98,8.47-33.74,14.32-2.95,1.6,7.73,16.43,12.35,14.23,7.96-3.78,15.67-7.96,23.02-12.83,5.9-3.91,13.21-7.76,15.94-14.67,1.42-3.59-7.85-15.08-11.75-13.3-7.29,3.32-14.58,6.63-21.87,9.94-3.65,1.66-7.29,3.32-10.94,4.97-3.39,1.54-6.82,3.76-10.65,3.31l13.03,16.8c7.89-6.16,15.22-13.01,23.01-19.3,3.21-2.6-8.87-15.74-12.44-14.43-9.6,3.54-1.01,15.15,3.41,19.58l-5.54-11.52c-3.14,2.08-5.41,3.84-6.22,7.72-.66,3.2,6.56,12.73,10.11,11.72,3.23-.92,5.59-2.8,8.56-4.27,3.58-1.77-6.12-12.13-7.27-13.13l-.8-.7,6.35,7.59c1.21,2.18,0,1.13,1.12-.15,.68-.78,.72-1.67,1.89-2.1l-12.44-14.43c-8.3,5.11-16.5,10.33-23.72,16.92-2.26,2.07,2.39,7.96,3.47,9.35,2.04,2.62,5.82,7.44,9.56,7.45,3.39,.01,6.21-1.79,9.12-3.35,3.73-1.99,7.47-3.98,11.2-5.98,7.47-3.99,14.94-7.98,22.41-11.96l-11.75-13.3c-2.44,6.26-11.73,10.21-17.1,13.39-7.27,4.3-14.58,8.52-22.06,12.44l12.35,14.23c10.84-6.51,22.3-11.92,34.29-15.95,11.25-3.79,24.13-7.85,36.11-7.6,3.26,.07-2.01-6.36-2.47-6.84-1.82-1.88-6.63-6.61-9.77-5.75h0Z"/><path class="cls-2" d="M896.34,365c3.21,11.38,9.95,22.16,20.01,28.7,1.59,1.03,2.4,.59,2.14-1.19-.32-2.18-2.68-4.57-4.24-5.91-4.66-4.01-7.93-8.48-9.42-14.55-.68-2.75-2.68-5.37-4.88-7.11-.77-.61-4.4-2.72-3.62,.06h0Z"/><path class="cls-2" d="M926.98,365.33c-20.17,6.24-40.7,10.91-61.55,14.2l6.91,10.73c7.78-1.28,15.13-3.66,22.23-7.08,2.58-1.24-5.07-11.33-7.79-10.96-7.17,.97-14.25,2.9-20.99,5.51l9.92,11.29c3.45-1.31,1.73-3.1-5.16-5.4-.46,.73-1.02,1.36-1.7,1.9-1.54,1.31-3.42,1.89-5.31,2.45-3.58,1.07-6.95,1.89-9.36,4.96l10.9,8.08,.65,1.42-8.32-6.89c-1.16-1.63-2.1,1.65-2.34,2.84-.31,1.57,.11,3.17,.81,4.57,1.93,3.89,5.85,7.57,9.8,9.3,3.33,1.46,6.63,1.07,10.14,.62,5.4-.7,10.81-1.39,16.21-2.09l-10.53-11.38c-9.1,4.13-18.47,7.5-28.18,9.92-3.4,.85,7.04,11.83,11.2,11.16,12.98-2.11,25.96-4.21,38.94-6.37l-11.08-11.66c-33.7,5.72-66.62,14.88-98.51,27.17-4.16,1.6,6.01,13.98,9.98,12.97,19.77-5.02,39.32-10.87,59.1-15.86,19.59-4.94,39.25-9.67,59-13.95,19.68-4.27,39.49-8.34,59.42-11.27,9.36-1.38,18.81-2.28,28.23-3.15s19.47-.64,29.01-2.27c3.56-.61-6.19-13.19-10.1-13.2-10.91-.04-21.71,1.99-32.5,3.49-9.74,1.35-19.41,3.06-29.12,4.62-19.51,3.13-38.93,6.55-58.26,10.67-19.34,4.12-38.58,8.72-57.76,13.56-18.99,4.79-38.11,9.2-56.98,14.41l10.74,12.67c31.8-12.91,65.06-22.2,98.84-28.18,2.98-.53-1.42-5.62-2.13-6.37-1.85-1.96-5.83-5.84-8.95-5.3-13.02,2.26-26.04,4.57-39.05,6.88l11.2,11.16c9.44-2.5,18.62-5.66,27.51-9.7,4.09-1.86-7.07-11.8-10.53-11.38-4.02,.49-8.04,.97-12.05,1.46-1.85,.23-3.71,.47-5.56,.68-4.24,.46-3.41-1.22,.51,3.68l2.49,4.16c-.75-2.18,1.85-4.92,1.34-7.52-.61-3.18-3.72-6.47-6.13-8.42-1.61-1.3-4.48-3.46-6.7-2.58-2.35,.93-1.89,3.1-.86,4.99,.89,1.64,8.55,11.05,10.9,8.08,3.98-5.01,17.73-4.43,16.58-13.12-.7-5.28-10.36-17.57-16.24-13.11-2.71,2.06,6.52,12.89,9.92,11.29,5.91-2.78,11.81-4.57,18.24-5.67l-7.79-10.96c-6.55,3.47-13.43,5.81-20.72,7.13-3.03,.55,3.59,11.31,6.91,10.73,20.93-3.65,41.57-8.89,61.76-15.48,2.87-.94-4.24-10.33-7.11-9.44h0Z"/><path class="cls-2" d="M1073.48,389.85c-21.14-1.91-42.54,.12-63.69,1.47-20.82,1.33-41.61,3.1-62.36,5.17-20.93,2.09-41.81,4.55-62.65,7.38-20.42,2.78-41.49,4.87-61.54,9.69l5.99,13.47c7.19-3.23,14.32-6.59,21.47-9.91,2.27-1.05-2.54-10.61-5.26-9.85-7.4,2.09-14.82,4.11-22.2,6.29-2.92,.86,2.32,13.89,5.99,13.47,20.84-2.43,41.55-7.02,62.32-10.15,20.55-3.1,41.16-5.9,61.79-8.4,20.81-2.52,41.66-4.65,62.53-6.55,20.44-1.85,41.41-1.99,61.51-6.16,1.68-.35-2.39-5.79-3.89-5.92h0Z"/><path class="cls-2" d="M886.08,381.73c-4.1,2.73-8.81,4.18-13.14,6.56-4.62,2.53-8.64,5.83-12.21,9.68-2.93,3.16,9.78,12.68,12.98,11.73,11.45-3.39,21.88-8.76,30.51-17.08,2.79-2.69-9.12-12.9-12.69-10.93-5.5,3.03-8.8,7.66-10.64,13.59-1.08,3.48,9.36,13.13,12.71,11.69s6.58-2.9,9.84-4.4l-13.07-12.33c-2.6,5.63-6.65,10.25-12.51,12.6l12.51,10.66c-1.04-5.19,1.7-9.87,6.01-12.56l-12.12-11.72c-2.78,4.72-6.49,8.67-10.73,12.11-2.93,2.37,8.7,13.39,11.99,12.04s6.72-2.91,10.05-4.46c4.1-1.9-7.08-13.9-11.05-12.54-7.09,2.45-13.66,6.09-19.39,10.95-3.65,3.09,8.63,12.3,11.39,12.42,7.84,.34,15.44-.69,22.92-3.03,3.89-1.22-6.67-13.81-10.98-12.61-21.03,5.84-42.01,11.71-62.7,18.67-4.45,1.5,6.64,13.44,10.57,13.12,28.84-2.33,57.03-8.27,85.09-15.16,14.12-3.47,28.19-7.14,42.27-10.77,7.11-1.83,14.22-3.67,21.33-5.51,6.51-1.69,13.17-2.41,19.37-5.08,2.62-1.13-7.71-13.05-11.07-12.64-7.7,.94-14.95,3.69-22.47,5.53-6.92,1.69-13.84,3.39-20.76,5.09-13.68,3.36-27.35,6.78-41.05,10.08-27.42,6.61-55.17,12.53-83.26,15.35l10.57,13.12c20.73-7.31,41.72-14.08,63.11-19.19l-10.98-12.61c-7.41,2.02-14.89,2.96-22.57,2.89l11.39,12.42c5.43-4.87,11.31-8.32,18.29-10.5l-11.05-12.54c-3.71,1.59-7.37,3.19-10.99,4.95l12.74,11.68c3.95-3.62,7.12-7.65,10.12-12.07,2.51-3.69-8.44-13.6-12.12-11.72-6.08,3.11-8.37,9.46-7.31,15.93,.51,3.12,8.74,12.26,12.51,10.66,6.29-2.67,11.28-6.83,13.97-13.23,1.57-3.71-8.45-14.41-12.29-12.68-3.34,1.5-6.66,3.02-9.96,4.6l13.48,11.33c1.19-5.71,4.64-10.14,9.55-13.2l-12.69-10.93c-8.74,7.53-18.78,13.27-30.07,15.89l12.98,11.73c6.62-6.54,15.93-12.41,25.55-10.92,6.2,.97,.48-7.18-.93-8.88-2.17-2.62-9.14-10.34-12.99-7.77h0Z"/><path class="cls-2" d="M504.32,468.14c36.22-16.19,74.73-26.97,114.09-31.98l-11.37-9.25c-15.03,4.85-30.12,9.61-45.28,14.02l10.03,12.08c15.4-4.85,29.43-12.45,42.72-21.5,2.99-2.03-6.85-13.1-10.03-12.16-14.32,4.26-28.44,9.55-42.07,15.66l10.22,11.28c10.93-7.64,21.71-15.47,32.63-23.12,2.73-1.91-7.32-12.31-10.95-10.62-22.36,10.41-44.97,20.3-67.48,30.4l11.15,12.34c24.33-12.23,48.73-24.26,73.63-35.3,4.14-1.84-7.1-13.27-11.1-12.15-18.32,5.13-35.43,12.64-52.14,21.66-2.8,1.51,8.35,13.28,12.1,12.04,27.81-9.18,57.36-19.92,87.15-16.45,4.02,.47,1.79-3.7,.47-5.58-2.54-3.59-6.27-6.93-10.47-8.39-2.11-.73-4.25-1.34-5.69-3.11l.91,6.03c25.08,.87,48.57,5.38,71.45,15.97l-10.6-16.94c-19.56-6.17-39.15-12.24-58.66-18.56l9.22,16.51c33.5,8.75,66.74,18.96,99.42,30.42l-11.9-17.47c-53.22,2.12-105.64,12.21-157.59,23.47l11.41,20.13c43.58-10.72,88.28-17.23,133.11-19.48l-12.47-18.63c-19.41,1.04-38.83,1.88-58.25,2.59-18.41,.68-37.14-.06-55.57-.52l10.92,19.61c21.74-3.52,43.36-7.74,64.97-11.97,5.2-1.02-6.53-19.78-12.21-18.85-21.62,3.54-43.24,7.09-64.72,11.41-3.35,.67,6.78,19.54,11.96,19.41,38.45-1.02,76.91-1.83,115.36-3.04,4.06-.13-.79-7.88-1.59-9.09-1.94-2.91-6.65-9.66-10.88-9.54-44.6,1.27-88.71,7.32-132.04,17.98-3.62,.89,5.05,21.51,11.41,20.13,52.65-11.41,105.43-23.88,159.5-25.85,3.71-.14-.63-6.89-1.24-7.8-2.54-3.73-6.27-8.09-10.66-9.67-32.24-11.63-64.91-21.47-98.16-29.75-4.32-1.08-2.34,3.82-1.15,5.98,2.03,3.69,6.05,9.2,10.37,10.53,20.06,6.2,40.04,12.64,60.05,18.99,4.71,1.49,2.02-4.56,.9-6.37-2.73-4.42-6.75-8.4-11.5-10.57-22.82-10.4-49.22-16.02-74.31-13.88-2.99,.26,.34,5.29,.91,6.03,6.97,9.04,16.44,16.28,27.33,19.86l-11.24-14.09c-30.43-1.76-59.12,7.56-87.25,18.12l12.1,12.04c15.65-9.34,32.87-16.18,50.37-21.16l-11.1-12.15c-24.92,10.88-49.66,22.35-73.68,35.11-2.77,1.47,6.83,14.41,11.15,12.34,22.41-10.74,44.73-21.68,67.28-32.11l-10.95-10.62c-10.59,7.55-21.31,14.91-31.9,22.46-2.85,2.04,6.63,12.93,10.22,11.28,13.32-6.12,26.94-10.87,41.14-14.51l-10.03-12.16c-13.1,8.68-27.43,15.49-42,21.3-3.93,1.57,6.23,13.52,10.03,12.08,15.45-5.84,31.02-11.41,46.61-16.86,2.66-.93-1.81-4.93-2.62-5.6-2.25-1.87-5.66-4.11-8.75-3.65-38.85,5.75-76.44,17.36-111.8,34.45-2.6,1.26,6.11,8.1,9.08,6.77h0Z"/><path class="cls-2" d="M664.8,445.54c10.41-2.66,20.8-5.38,31.21-8.02,3.53-.9-3.68-8.7-4.94-9.48-13.38-8.21-27.95-12.75-43.51-14.45-2.53-.28,.7,5.01,1.05,5.51,1.51,2.16,3.99,5.06,6.8,5.44,12.8,1.71,25.06,4.64,37.3,8.69l-8.31-12.83c-13.79,2.08-27.62,1.19-40.97-2.89l8.34,12.84c28.17-.54,56.04,4.05,82.52,13.69l-8.39-12.87c-35.74,1.1-71.16,6.59-105.73,15.62-3.6,.94,5.25,12.69,8.88,12.38,34.23-2.95,68.46-6.24,102.61-10.04l-9.26-11.93c-37.7,7.55-76.1,12.92-114.5,15.14-2.98,.17,4.68,12.48,8.81,12.45,20.89-.18,41.95-1.98,62.73-4.05,20.26-2.02,40.54-4.28,60.65-7.53,19.46-3.14,38.57-7.81,57.82-11.96,19.23-4.15,38.44-6.76,57.9-9.38,2.8-.38-4.86-11.22-8.21-11.25-20.53-.19-41.07,5.14-60.91,9.97-19.21,4.68-38.43,9.13-57.97,12.23-40.11,6.36-80.48,6.02-120.82,9.52l8.81,12.45c38.51-4.07,76.79-9.08,114.95-15.65,3.22-.55-5.39-12.24-9.26-11.93-34.11,2.71-68.2,6.02-102.23,9.6l8.88,12.38c34.72-9.21,70.38-13.96,106.26-14.91,2.71-.07-.31-5.01-.77-5.71-1.77-2.73-4.45-6.01-7.62-7.16-27.07-9.86-55.73-14.67-84.54-14.1-2.73,.05,.28,5.02,.73,5.71,1.7,2.62,4.47,6.17,7.61,7.13,14.01,4.28,28.52,5.49,43.02,3.3,4.53-.68-6.07-12.16-8.31-12.83-12.26-3.68-25.12-6.02-37.87-7.02l7.84,10.95c13.77,.73,27.1,5.2,38.89,12.28l-5.51-9.31c-10.01,3.01-20.03,5.96-30.04,8.97-1.78,.54,2.99,9.85,6.06,9.07h0Z"/><path class="cls-2" d="M734.71,432.65c4,2.21,8.32,2.93,12.72,4.02,4.83,1.2,9.63,2.52,14.45,3.73,8.99,2.27,17.93,4.72,26.89,7.1,1.75,.46-.38-3.66-.46-3.8-.99-1.73-2.88-4.5-4.9-5.16-8.61-2.8-17.27-5.15-26.12-7.09-4.14-.91-8.33-1.61-12.52-2.27-3.27-.51-9.09-2.61-11.95-.6-.96,.68,1.24,3.72,1.88,4.07h0Z"/><path class="cls-2" d="M757.6,448.46c12.28-2.1,24.92-2.57,37.29-4.05,12.31-1.47,24.6-3.16,36.84-5.1,23.47-3.71,47.43-7.73,70.03-15.16,1.3-.43-4.43-8.85-6.79-8.51-23.01,3.28-45.77,8.39-68.69,12.29-13.01,2.21-26.04,4.23-39.11,6.04-11.77,1.63-23.74,3.74-35.62,4.03-2.21,.05,2.39,11.09,6.05,10.46h0Z"/><path class="cls-2" d="M429.99,499.05c-1.02-.5,.49,.47,.78,.73,.52,.49,.99,1.02,1.44,1.57,1.16,1.43,2.09,3.03,2.85,4.71,1.56,3.43,1.7,6.5,4.39,9.27,1.07,1.1,3.23,2.21,4.8,1.79l.99-.26c.37-.18,.54-.47,.5-.88-.37-8.86-7.25-15.2-13.8-20.18-.99-.75-5.15-3.43-6.37-1.61s3.42,4.37,4.42,4.86h0Z"/><path class="cls-2" d="M428.81,496.86c3.95,5.49,7.07,11.25,8.65,17.87,.76,3.17,1.15,6.41,1.19,9.66,.05,3.43-.53,6.4,.43,9.74,.57,2,6.08,6.21,8.04,4.21,4.28-4.38,1.13-15.99-.43-21.25-2.2-7.44-6.34-14.18-11.79-19.67-1.17-1.17-8.87-4.41-6.09-.56h0Z"/><path class="cls-2" d="M438.63,498.32c-1.47,3.52,1.39,9.62,1.71,13.38,.46,5.52-.05,10.95-1.5,16.29l10.41,6.08c.28-15.43-3.09-30.88-8.22-45.37-1.07-3.03-7.9-8.36-11.06-5.93-2.65,2.04-3.74,4.52-3.63,7.83,.1,2.92,8.07,9.37,10.88,7.27,10.96-8.2,23.02-15.2,35.44-20.94,6.21-2.87,12.58-5.37,19.04-7.59,5.51-1.9,13.35-3.05,17.9-6.79,2.91-2.39-5.84-6.11-7.42-6.23-13.72-.97-28.92,5.71-41.07,11.42-12.54,5.89-23.85,13.44-34.58,22.13l11.47,6.82c-.15-2.84,.73-4.64,3.03-6.39l-11.06-5.93c5.99,13.97,8.38,28.48,8.87,43.6,.1,3,9.57,10.09,10.41,6.08,2.22-10.6,1.5-25.01-5.7-33.72-.44-.53-4.27-3.56-4.92-2.02h0Z"/><path class="cls-2" d="M450.81,479.71c-5.03,2.28-10.03,4.44-15.67,2.61l6.21,7.47c4.41-6.98,10.77-11.42,17.73-15.6s14.43-8.38,21.81-12.26c15.29-8.03,31.06-15.19,47.14-21.48s32.5-11.64,49.19-16.02c8.05-2.12,16.17-4.01,24.33-5.68,3.75-.76,7.5-1.52,11.26-2.23s8.63-.88,11.76-2.96c2.72-1.8-6.34-5.74-7.6-5.84-9.31-.7-19.22,1.79-28.32,3.62-8.64,1.74-17.23,3.74-25.76,6-16.47,4.38-32.69,9.73-48.53,16.01s-31.24,13.56-46.17,21.73c-7.55,4.13-15.08,8.42-22.3,13.11-5.76,3.75-11.18,7.87-13.19,14.69-.86,2.93,8.07,9.36,8.87,6.33,.94-3.58,8.34-5.51,11.26-7.29,.57-.35-1.36-2.52-2.01-2.23h0Z"/><path class="cls-2" d="M438.28,478.25l-1.2-.22,4.56,4.63c-.35-1.53,6.95-5.3,8.14-6.13,3.35-2.32,6.64-4.74,10.01-7.05,7.04-4.83,14.23-9.44,21.5-13.91,13.88-8.54,28.11-16.48,42.76-23.64s29.65-13.58,44.93-19.25c7.65-2.84,15.36-5.48,23.15-7.92,3.61-1.13,7.24-2.23,10.88-3.28s8.16-.64,11.33-2.7c2.43-1.58-5.18-9.29-7.27-9.23-4.17,.12-7.86,2.45-11.82,3.63s-7.72,2.23-11.55,3.42c-7.13,2.21-14.2,4.6-21.21,7.14-14.03,5.09-27.82,10.88-41.3,17.3-26.39,12.56-51.55,27.55-75.02,44.97-3.89,2.89-14.09,7.97-10.63,13.78,1.11,1.86,7.75,6.96,7.21,1.91-.11-.99-3.43-4.73-4.46-3.45h0Z"/><path class="cls-2" d="M615.7,396.48c-10.13-3.92-20.06-.79-29.87,2.51-10.76,3.63-21.36,7.71-31.83,12.1-20.6,8.64-40.67,18.52-60.09,29.56-2.85,1.62,4.68,13.8,8.18,12.21,39.03-17.78,79.54-35.53,122.82-38.97l-9.19-11.61c-49.17,11.56-96.72,28.94-142.04,51.18-2.79,1.37,6.24,12.74,9.43,12.1,31.36-6.32,62.62-13.22,93.79-20.4l-9-12.43c-36.69,12.14-73.54,23.8-110.52,34.99-2.32,.7,5.26,13.75,9.06,12.66,39.43-11.32,79.98-20.79,120.7-25.98l-11.45-10.55c-44.71,5.85-89.44,12.23-131.27,29.94-3.11,1.32,6.62,12.82,9.92,12.48,35.77-3.63,71.1-10.47,105.57-20.68,3.48-1.03-6.66-13.03-10.86-11.81-33.92,9.88-68.69,16.57-103.88,19.74l9.92,12.48c42.01-17.31,87.44-24.45,132.04-31.6,2.9-.47-1.87-5.43-2.48-6-2.05-1.93-5.85-5.05-8.97-4.56-39.63,6.22-78.78,13.4-117.59,23.66l9.06,12.66c36.66-12.19,73.47-23.97,110.43-35.21,2.31-.7-5.33-13.19-9-12.43-31.49,6.49-62.93,13.37-94.23,20.72l9.43,12.1c44.64-23.07,92.13-40.18,141.09-51.43,3.72-.85-5.5-11.87-9.19-11.61-43.22,3.12-83.05,20.11-121.82,38.37l8.18,12.21c18.71-10.92,37.95-20.89,57.74-29.7,9.59-4.27,19.32-8.22,29.08-12.08s20.99-9.75,31.4-6.64c2.18,.65,1-2,.53-2.93-.98-1.94-3.05-4.22-5.14-5.03h0Z"/><path class="cls-2" d="M592.76,469.7c8.79,.05,17.83-1.78,26.48-3.19,2.41-.39-3.64-9.04-6.55-8.7-8.36,.97-17.48,1.47-25.52,4.05-2.68,.86,3.43,7.83,5.59,7.84h0Z"/><path class="cls-2" d="M607.58,405.87c-7.6-1.73-14.39,3.01-20.89,6.36-7.36,3.8-14.55,7.88-21.62,12.2-14.34,8.76-28.14,18.16-40.54,29.53-1.9,1.74,4.83,9.36,7.09,7.82,13-8.83,25.73-18.08,38.96-26.57,6.44-4.13,13.01-8.05,19.6-11.95,3.15-1.86,6.32-3.68,9.52-5.46,3.59-2,7.86-5.04,12.14-3.92,2.15,.56,1.21-1.91,.72-2.98-.78-1.7-2.97-4.58-4.96-5.04h0Z"/><path class="cls-2" d="M601.58,407.87l.49-2.3c1.08-2.48-3.72-6.3-5.69-7.03-6.55-2.4-12.35,1.45-18.23,4.34-6.97,3.42-13.75,7.19-20.31,11.34-12.91,8.16-24.8,17.56-35.59,28.37-2.33,2.33,5.52,11.71,7.62,9.76,10.48-9.7,21.67-18.78,33.53-26.74,5.81-3.9,11.8-7.55,17.92-10.94,6.45-3.56,13.02-7.38,20.28-8.89l-7.32-6.21,.8,3.7c.22,1.77,6.29,6.76,6.49,4.59h0Z"/><path class="cls-2" d="M481.37,483.13l.22-.23c.61-.64-.3-1.92-.64-2.42-1.73-2.53-3.84-3.9-6.86-3.89-.74,0-.77,1.05-.62,1.49,1.08,3.33,3.21,6.44,4.92,9.49,1.94,3.45,3.94,6.79,6.47,9.84,.63,.76,5.98,4.62,5.28,1.51-1.45-6.43-6.44-12.26-9.42-18.06l-.22,1.88,.43-.02-5.26-3.5,.29,.4-.64-2.42-.21,.25c-1.45,1.71,4.71,7.32,6.27,5.68h0Z"/><path class="cls-2" d="M585.94,482.18c5.47,2.88,11.05,7.04,17.13,8.53,1.75,.43,1.66-1.11,1.24-2.3-.69-1.98-2.55-4.11-4.3-5.23,.94,.6,3.29,2.84,1.05,.85-.85-.75-1.79-1.37-2.77-1.95-1.65-.98-3.38-1.77-5.12-2.56-3.3-1.51-6.72-2.88-9.96-4.51-1.74-.88-2.55-.09-1.99,1.72,.64,2.08,2.79,4.45,4.71,5.46h0Z"/><path class="cls-2" d="M586.4,480.88c4.69,2.66,10.17,2.96,15.49,3.4,5.65,.47,11.28,.51,16.94,.1,10.52-.77,20.92-2.68,30.45-7.37,2.59-1.27-5.82-10.4-8.58-9.93-10.25,1.76-20.43,4.12-30.79,5.21-4.68,.49-9.41,.82-14.11,1-3.41,.13-10.92-1.38-13.36,1.28-1.57,1.71,2.72,5.6,3.97,6.31h0Z"/><path class="cls-2" d="M849.41,451.77l-.03-.29c-.15-1.52-1.08-3.01-2-4.17-.52-.66-2.06-2.69-3.13-2.45l-.9-.24c-1.14-.39-1.98-.02-1.88,1.31,.32,4.28,1.18,8.47,2.11,12.66,.54,2.42,2.29,5.01,4.19,6.57,.95,.78,3.27,2.11,3.14-.26-.25-4.95-.54-10.22-2.44-14.84l.42,2.38,.17-.39-.7,.49,.26,.02-5.07-7.21-.04,.22c-.34,2.02,1.45,4.38,2.73,5.71,.51,.53,3.4,2.9,3.15,.48h0Z"/><path class="cls-1" d="M919.11,356.38c-1.26,.36-2.48,.21-3.64-.47l5.86,10.72c15.51-4.58,30.99-9.27,46.8-12.74,15.61-3.42,32.08-4.21,47.38-8.74,3.09-.91-4.16-8.8-6.45-8.99-16.06-1.36-32.56,2.13-48.2,5.56s-31.25,7.83-45.99,14.28c-2.67,1.17,4.18,12.49,6.45,10.62l2.23-.96c2.57-.18-1.72-9.59-4.46-9.29h0Z"/><path class="cls-1" d="M1023.31,344.19l-.18-.18,2.95,4.83-.06-.23,.12,1.36c-.02-.14,.02-.25,.11-.34,1.44-.68,.51-1.81-2.81-3.41-.3-.59-.31-.57-.04,.06l.39,.97c.53,1.33,1.08,2.64,1.65,3.95,.88,2.07,2.48,4.75,4.59,5.76s1.26-1.98,.88-2.9c-1.71-4.14-3.35-9.39-7.21-12.01-1.12-.76-2.49-.95-3.11,.51-.32,.77-.02,1.67,.25,2.41,.62,1.71,1.7,3.26,2.96,4.56,.63,.65,2.74,2.26,2.63,.26s-1.78-4.24-3.1-5.61h0Z"/><path class="cls-1" d="M929.28,379.03c-1.32-.2-2.61-.52-3.87-.97l3.49,10.47c8.48,1.76,18.39,.17,26.88-1.03,9.41-1.33,18.74-3.17,28.06-5.03,18.84-3.75,37.3-6.69,56.48-8.2s38.81-2.46,58.09-4.85c9.3-1.15,18.58-2.5,27.76-4.42,7.15-1.5,15.6-2.97,20.67-8.67,1.59-1.78-5.03-7.91-6.91-7.51-17.73,3.79-35.34,6.36-53.42,7.99-18.23,1.65-36.51,2.63-54.76,4.04-18.09,1.41-35.82,3.84-53.54,7.79-8.96,2-17.89,4.15-26.93,5.77-4.16,.75-8.33,1.36-12.51,1.93-4.55,.63-9.47,.53-13.89,1.7-2.21,.58,1.75,11.52,4.56,10.45,.95-.42,1.93-.73,2.95-.95,2.05-.55-1.41-8.21-3.1-8.54h0Z"/><path class="cls-1" d="M1112.82,342.64c-3.69,.41-7.37,.91-11.08,1.16l4.09,9.66c11.53-1.54,23.16-2.86,34.61-4.93,1.74-.31-1.31-10.58-4.14-10.03-8.52,1.64-17.47,1.91-26.13,2.18-9.15,.28-18.81,.35-27.8-1.56l3.27,10.76c7.87,1.09,16.32,0,24.26-.18,8.88-.19,17.77-.25,26.65-.17,17.6,.15,35.93,.53,53.33,3.26,2.04,.32-1.16-10.87-4.32-11.36-17.04-2.63-33.79-4.4-51.12-4.52-8.45-.06-16.89,.15-25.33,.46s-18.72-.37-27.25,1.72c-2.11,.52,1.47,11.04,4.28,10.81,8.61-.71,17.46-.02,26.1-.08,9.43-.06,18.78-1.03,28.19-1.3l-4.14-10.03c-11.56,1.33-23.07,3.45-34.56,5.31-1.72,.28,1.37,9.81,4.09,9.66,3.81-.21,7.65-.19,11.47-.24,2.59-.04-1.16-10.95-4.48-10.58h0Z"/><path class="cls-1" d="M1188.86,341.06c-18.1,2.02-35.67,3.05-53.25,8.34-1.98,.6,1.5,10.98,4.05,10.5,17.72-3.32,36.22-7.41,54.33-7.28,.98,0-1.29-11.99-5.13-11.56h0Z"/><path class="cls-1" d="M1100.16,348.38c-17.82,.79-35.83,2.75-51.96,10.92-1.96,.99,2.28,10.25,4.48,9.46,16.74-5.99,33.83-11.19,51.81-10.39,2.12,.09-1.5-10.11-4.33-9.99h0Z"/><path class="cls-1" d="M992.27,363.25c3.92-1.71,8.52-3.82,11.98-6.29,1.54-1.1-2.38-7.11-4.09-6.86-35.05,5.18-69.29,15.62-103.34,25.34-2.13,.61,2.41,12.51,5.58,11.62,39.06-10.99,78.45-21.99,118.49-28.88,1.45-.25-2.89-10.38-5.6-10.07-35.41,4.13-70.49,12.44-104.62,22.61l6.55,10.91c10.22-3.21,20.24-7.16,30.31-10.81,1.84-.67-1.95-9.79-4.33-9.15-10.85,2.95-21.82,5.64-32.54,9.04-1.88,.6,3.31,11.89,6.55,10.91,34.06-10.25,68.67-17.33,103.67-23.46l-6.11-10c-39.63,7.98-79.15,15.72-117.96,27.26l5.58,11.62c33.85-10.39,68.04-19.7,101.85-30.1l-4.09-6.86c-1.51,1.62-2.65,3.47-4.55,4.65-1.74,1.08-4.04,1.56-6,2.05-1.28,.32,1.15,7.11,2.67,6.45h0Z"/><path class="cls-1" d="M956.56,352.55c-15.26,4.9-30.52,9.81-45.8,14.67s-30.47,9.05-45.31,14.5l6.16,10.75c4.31-3.04,8.9-5.39,13.85-7.18,1.62-.59-2.3-7.88-4.34-7.66-5.47,.58-10.61,1.95-15.66,4.1-2.18,.93,3.24,11.55,6.16,10.75,15.32-4.19,30.39-9.66,45.51-14.51,15-4.81,30.01-9.58,45.02-14.34,2.09-.66-2.56-12.03-5.57-11.06h0Z"/><path class="cls-1" d="M911.05,353.34c-5.55,4.41-12.29,7.06-18.55,10.34s-12.46,7.19-18.32,11.39c-2.57,1.84,4.34,11.92,7.28,11.25,8.27-1.89,16.41-4.08,24.59-6.27l-5.8-8.24c-11.46,6.86-23.15,13.3-34.8,19.82-1.87,1.04,2.48,6.5,3.19,7.22,2.6,2.62,4.76,3.05,8.3,2.22,5.51-1.28,10.91-3.21,16.28-4.97l-6.04-8.23c-9.89,4.26-20.58,6.77-31.19,8.46l6.43,9.02c4.27-3.02,8.4-6.25,12.5-9.5,2.05-1.63-4.37-9.58-6.55-9.19-3.56,.64-7.84,1.76-8.16,6.03-.28,3.76,3.11,7.98,5.8,10.22,3.75,3.12,4.27,.43,2.21-3.02-.66-1.11-1.5-2.1-2.38-3.04-3.58-3.85,1.67,3.99,2.54,3.39,.56-.38,.86-1.96,1.56-2.58,1.2-1.05,2.96-1.39,4.46-1.68l-6.55-9.19c-4.06,3.3-8.22,6.47-12.37,9.67-2.01,1.55,4.3,9.43,6.43,9.02,10.82-2.09,20.99-5.54,31.29-9.38,1.59-.59-3.4-8.91-6.04-8.23-3.29,.85-6.59,1.68-9.85,2.64-1.29,.38-8.41,3.32-9.28,2.45l3.19,7.22c11.56-6.8,23.07-13.67,34.83-20.14,1.85-1.01-3.46-8.55-5.36-8.34-8.67,.99-17.29,1.97-25.93,3.26l6.69,11.35c11.62-6.77,25.99-14.67,39.8-14.23,5.61,.18-5.8-22.25-10.21-18.75h0Z"/><path class="cls-1" d="M578.96,407.26c7.71-.12,14.88-1.41,22.15-3.96,2.3-.81-3.42-7.31-5.55-7.03-6.64,.86-13.21,3.46-19.57,5.5-5.98,1.92-11.93,3.91-17.82,6.06-12.28,4.47-24.42,9.3-36.41,14.5-11.98,5.19-23.8,10.74-35.44,16.64-5.94,3.01-11.87,6.06-17.68,9.33-5.4,3.03-12.41,5.99-16.49,10.72-1.67,1.94,2.08,9.43,4.73,8.85,6.45-1.41,12.72-6.19,18.5-9.33s11.35-6.22,17.09-9.22c11.72-6.13,23.62-11.91,35.67-17.34s23.69-10.26,35.74-14.87c6.7-2.56,13.41-5.1,20.16-7.51,5.77-2.06,12.08-3.54,17.48-6.46l-6.37-6.7c-3.91,7.31-12.9,6.06-20.07,5.4-.93-.09,1.67,5.46,3.88,5.43h0Z"/><path class="cls-1" d="M439.03,472.78c-3.54,4.41-7.73,8.76-12.8,11.43-2.41,1.27,4.18,7.81,6.36,6.69,10.48-5.39,20.43-11.87,30.76-17.56,10.84-5.97,21.71-11.88,32.78-17.42,21.91-10.97,44.4-21.03,66.97-30.56,2.15-.91-4.89-6.55-7.32-5.73-23.42,7.93-45.95,17.52-68.05,28.64-10.62,5.34-21.19,10.88-31.45,16.9s-21.05,11.95-30.48,19.28l7.22,6.21c3.51-4.77,7.02-9.21,9.69-14.54,.59-1.17-2.89-4.33-3.68-3.34h0Z"/><path class="cls-1" d="M496.33,518.31c1.76,0-.61-3.28-.91-3.62-1.19-1.36-2.95-2.8-4.84-2.8-1.76,0,.61,3.28,.91,3.62,1.19,1.36,2.95,2.8,4.84,2.8h0Z"/><path class="cls-1" d="M433.46,490.91c-.53,3.63,.84,7.25,1.75,10.73,1.08,4.13,2.28,8.23,3.44,12.34,.6,2.13,3.2,4.03,5.12,4.89,1.16,.52,3.73,1.22,3.11-.98-2.24-7.92-3.84-16.76-8.04-23.9-.37-.62-5.03-5.42-5.38-3.08h0Z"/><path class="cls-1" d="M582.45,410.7c-8.02,1.69-16.04,3.4-24.07,5.08l5.5,8.01c18.16-5.83,36.22-11.94,54.28-18.07l-7.05-8.77c-33.25,15.16-66.01,31.27-98.51,47.97l6.83,9.48c20.31-13.82,44.91-20.06,68.4-26.17,25.54-6.65,51.34-12.2,77.39-16.48,2.6-.43-5.01-9.39-8.23-9.17-2.31,.16-4.37,.43-6.62,.99-2.75,.68,4.85,7.72,6.63,7.88,2.8,.26,5.41,.41,8.22,.3l-8.23-9.17c-25.66,3.65-51.15,8.68-76.17,15.43-23.58,6.36-47.76,13.1-68.22,26.91-2.19,1.48,4.22,10.85,6.83,9.48,32.52-16.99,65.51-33.1,98.73-48.69,1.9-.89-4.17-9.78-7.05-8.77-17.77,6.22-35.53,12.45-53.19,18.97-1.62,.6,3.7,8.34,5.96,7.87,8.1-1.7,16.2-3.36,24.3-5.04,2.34-.48-3.11-8.6-5.74-8.05h0Z"/><path class="cls-1" d="M619.14,404.43c5.47-2.89,12.59-.42,18.27,.66,6.68,1.27,13.35,2.65,20,4.11,6.27,1.38,12.51,2.92,18.7,4.61,3.43,.94,6.86,1.89,10.3,2.78,2.72,.71,5.39,1.9,8.13,1.13,1.97-.56-3.58-6.84-4.3-7.32-5.87-3.9-13.25-5.59-20.01-7.37s-13.51-3.36-20.33-4.77-13.54-2.55-20.38-3.28c-5.41-.57-10.14-.58-14.89,2.3-1.6,.96,2.72,8.1,4.53,7.15h0Z"/><path class="cls-1" d="M631.55,416.4c8.49-.73,16.82,.4,24.99,2.78,.93,.27-1.26-5.77-3.29-6.38-8.21-2.43-16.47-3.3-25.01-3.24-1.65,.01,1.26,7.01,3.32,6.84h0Z"/><path class="cls-1" d="M1043.71,334.48c-5.37,4.55,2.66,13.14,6.95,15.01,6.86,2.98,12.55-2.58,14.58-8.72l-7.18-5.67c.83,2.82-1.22,6.29-3.14,8.2-1.61,1.6,2.94,7.48,4.88,6.95,5.28-1.45,6.53-6.15,5.27-11.11-.33-1.32-6-8.84-7.18-5.67-1.09,2.95-2.58,5.92-5.43,7.54-.63,.36-1.3,.64-2.01,.8-.58,.13-1.81-.05-2.33,.14-1.08-.26-.86,.19,.67,1.34l-.06-.94c.26-.73,.23-1.59,.5-2.36,.58-1.63-3.91-6.88-5.53-5.51h0Z"/><path class="cls-1" d="M1049.98,343.55c2.18-.81,3.95-2.45,6.14-3.3,1.02-.39,2.2-.73,3.32-.68,.66-.01,1.28,.13,1.86,.42-.93-2.21-1.31-2.39-1.15-.55-.27,1.75,4.2,8.12,5.51,5.73,2.52-4.59-3.5-11.02-7.34-12.78-4.9-2.25-10.55,1.15-12.98,5.54-.92,1.66,2.83,6.29,4.64,5.63h0Z"/><path class="cls-1" d="M857.97,462.93c.15-2.12-.55-3.78-1.26-5.73-.57-1.57-1.83-3.78-3.37-4.59-1.32-.69-1.73-.1-1.5,1.35,1.24,7.75,5.69,15.08,11.82,19.94,1.39,1.11,2.18,.42,1.9-1.2-.36-2.1-1.98-4.12-3.5-5.52-2.7-2.5-4.26-5.55-5.08-9.1l-1.18,1.56,.35,.19-1.68-1.56c.16,.58,.29,1.17,.38,1.77,.15,.8,2.99,4.8,3.12,2.89h0Z"/><path class="cls-1" d="M857.39,460.32l-1.35-.3,2.5,2.09-.9-1.21,2.26,5.35,.05-.87-1.02,1.29c11.61,2.58,23.87,2.57,35.65,1.28,5.32-.58,10.68-1.39,15.87-2.7s12.83-2.76,16.23-7.11c1.6-2.05-2.18-8.19-4.55-8.46-5.33-.61-10.98,1.85-16.15,3.06-5.94,1.39-11.92,2.65-17.98,3.41-11.34,1.41-22.51,.9-33.88,.44-2.14-.09-.36,4.05-.04,4.72,1.56,3.29,3.19,5.99,6.94,6.65,1.73,.3-1.3-7.11-3.63-7.63h0Z"/><path class="cls-1" d="M935.06,448.95l1.56-1.03c1.69-.62-1.33-8.02-3.36-7.63-4.84,.93-9.33,4.09-13.48,6.65s-8.41,5.65-12.49,8.64c-2.25,1.65,2.27,10.62,3.94,9.51,4.49-2.97,9.09-5.78,13.6-8.73,4.14-2.71,8.68-5.06,12.05-8.72l-4.02-6.56-.47,3.06c-.26,.96,1.54,6.06,2.66,4.8h0Z"/><path class="cls-5" d="M635.25,288.13s34.78-31.74,27.43-55.21c-7.35-23.47-20.96-49.18-13.98-49.09,6.98,.09,53.7-7.52,60.37-4.03,6.68,3.48,24.67,25.69,31.92,33.61s29.42,30.42,53.83,34.96c24.4,4.54,74.12,2.41,88.49,6.95,14.37,4.54,85.03,24.49,20.7,25.89-64.34,1.39-240.11,31.09-240.11,31.09,0,0-79.66,25.67-78.64,23.28,1.03-2.39,50-47.44,50-47.44Z"/></g><g><path class="cls-4" d="M445.16,498.53c3.85-2.67,7.45-5.71,11.21-8.51s7.82-5.74,11.7-8.66c.22-.16,.16-1.16-.14-1-4.17,2.23-8.07,4.81-11.84,7.66s-7.72,5.98-11.07,9.51c-.17,.18-.14,1.19,.14,1h0Z"/><path class="cls-4" d="M462.5,476.83c1.35,7.44,10.52,8.73,15.92,12.17,7.95,5.05,11.5,14.68,12.05,23.71,.19,3.13,.1,6.26-.13,9.39s-.73,6.14-.77,9.22c0,.43,.41,1.11,.58,.36,.61-2.62,.76-5.39,.98-8.06s.36-5.51,.31-8.26c-.08-4.88-.72-9.78-2.39-14.39-1.47-4.07-3.71-7.91-6.85-10.92-2.91-2.79-6.43-4.31-10.08-5.89s-8.02-3.53-9.14-7.83c-.2-.76-.57,.13-.5,.52h0Z"/><path class="cls-4" d="M490.36,529.29c-.19,.75,.03,1.82,.99,1.82,1.47,0,2.16-1.62,2.69-2.69,2.08-4.15,3.84-8.47,5.47-12.81,3.26-8.67,5.71-17.69,7.5-26.77,.48-2.42,.81-4.87,1.28-7.29,.17-.89,.42-1.81,.95-2.57,.56-.8,1.41-1.21,2.1-1.85,.38-.36,.34-1.34-.04-1.68-2.56-2.28-4.06,3.94-4.3,5.46-.68,4.27-1.51,8.52-2.49,12.73-1.99,8.48-4.63,16.82-7.78,24.94-.91,2.33-1.89,4.63-2.84,6.94-.4,.98-.7,2.28-1.43,3.05-.18,.19-1.68,1-1.69,.85-.04-.32-.29-.53-.4-.11h0Z"/><path class="cls-4" d="M508.18,477.79c.48,.23,.87,.33,1.4,.4s1.06,.11,1.6,.11c1.07,0,2.12-.08,3.18-.25,2.09-.33,4.07-.91,6.03-1.7,.22-.09,.15-.97-.07-.91-1.99,.53-4.05,.92-6.1,1.16-1.02,.12-2.04,.23-3.06,.32-.53,.05-1.06,.1-1.59,.17-.23,.03-.45,.05-.68,.09-.27,.04-.44,.14-.7,.24-.09,.04-.07,.33,0,.37h0Z"/><path class="cls-4" d="M512.94,479.76c7.93-.97,15.9-3.36,23.38-6.13,3.81-1.41,7.56-2.98,11.23-4.71,1.84-.86,3.66-1.77,5.45-2.71s3.83-1.78,5.1-3.52c.14-.19,.2-1.08-.14-1.11-1.84-.19-3.69,1.4-5.28,2.24-1.73,.92-3.48,1.8-5.25,2.64-3.6,1.72-7.28,3.29-11.01,4.7s-7.72,2.79-11.66,3.95-7.91,2.04-11.86,3.08c-.46,.12-.41,1.64,.04,1.58h0Z"/><path class="cls-4" d="M569.3,470.25c12.8,1.06,25.77,.58,38.61,.25,12.84-.33,25.68-.92,38.51-1.74,25.65-1.64,51.25-4.19,76.75-7.43,25.56-3.25,51.02-7.21,76.4-11.65,25.55-4.47,51.02-9.41,76.44-14.6,25.31-5.16,50.63-10.41,75.73-16.48,3.12-.75,6.23-1.51,9.35-2.27,.32-.08,.21-1.3-.03-1.25-25.32,4.75-50.5,10.15-75.72,15.35-25.28,5.22-50.61,10.22-76.02,14.78-25.37,4.56-50.82,8.68-76.35,12.18s-51.3,6.36-77.08,8.31c-12.81,.97-25.64,1.72-38.48,2.21-12.86,.5-25.71,.51-38.57,.77-3.19,.06-6.37,.14-9.55,.32-.3,.02-.28,1.23,.03,1.25h0Z"/><path class="cls-4" d="M953.49,417.12c5.14,.04,10.23-.51,15.34-1.05s10.21-1.17,15.32-1.8l30.39-3.72,30.39-3.72c9.54-1.17,19.14-2.09,28.63-3.58,4.16-.65,8.35-1.55,12.23-3.23s7.4-3.97,9.26-7.68c.1-.21,.09-1.8-.24-1.54-1.35,1.06-2.5,2.33-3.88,3.37s-2.91,1.98-4.51,2.73c-3.44,1.63-7.18,2.58-10.91,3.27-4.18,.77-8.41,1.23-12.62,1.77l-15.07,1.92-60.27,7.69c-5.68,.73-11.37,1.41-17.04,2.23s-11.43,1.58-17.02,3.03c-.08,.02-.08,.33,0,.33h0Z"/><path class="cls-4" d="M1009.37,383.1c1.77,.14,3.56-.14,5.33-.27s3.55-.25,5.33-.35c3.48-.2,6.96-.33,10.44-.4,7.05-.14,14.1-.06,21.14,.27s13.91,.9,20.83,1.73c3.46,.41,6.91,.89,10.36,1.43,2.85,.45,5.86,.73,8.57,1.77,1.23,.47,2.49,1.13,3.36,2.13,.58,.66,.98,1.38,.76,2.28s-.83,1.79-1.41,2.51c-2.08,2.56-5.37,4.22-8.6,4.74-.32,.05-.29,1.39,.03,1.42,3.06,.26,5.88-.77,8.05-2.95,2.03-2.04,3.25-4.81,2.63-7.7-1.23-5.73-9.66-5.94-14.17-6.61-15.37-2.28-30.97-3.39-46.5-3.08-4.37,.09-8.75,.27-13.11,.56-2.1,.14-4.2,.3-6.3,.48-2.24,.2-4.61,.23-6.77,.85-.27,.08-.25,1.18,.03,1.2h0Z"/><path class="cls-4" d="M1012.18,380.89c5.55,.17,11.1-.18,16.64-.36s11.3-.38,16.95-.51c11.22-.27,22.44-.32,33.66-.18,6.4,.08,12.8,.24,19.2,.45l-.07-2.79c-2.13,.94-4.32,1.74-6.56,2.39-1.04,.3-2.1,.57-3.16,.8-1.19,.26-2.16,.69-3.26,1.2-.32,.15-.27,1.6,.11,1.66,1.14,.16,2.09,.22,3.22-.03s2.27-.55,3.38-.88c2.16-.64,4.27-1.43,6.33-2.35,.58-.26,.63-2.77-.07-2.79-22.49-.68-45.08-.75-67.56,.45-6.28,.33-12.58,.92-18.87,.87-.45,0-.44,2.06,.05,2.07h0Z"/><path class="cls-4" d="M1087.38,382.7c-.35-.35-.7-.58-1.21-.59-.44,0-.87,.12-1.27,.28-.86,.34-1.5,1.06-2.32,1.45-.56,.26-1.38,.3-1.98,.2-.27-.04-.57-.1-.8-.25-.07-.05-.17-.16-.22-.18,.02,.02,.01,0-.02-.04,.07,.14,.09,.29,.05,.46,.02,.28-.04,.56,.06,.34,.15-.33,.14-.75,.08-1.09-.01-.07-.17-.72-.33-.5-.59,.83-.5,2.26,.14,3.05,.49,.6,1.39,.98,2.17,.93,1.03-.07,1.81-.87,2.59-1.46,.92-.68,1.81-1.41,3.02-1.32,.34,.03,.17-1.14,.02-1.29h0Z"/><path class="cls-4" d="M429.06,442.01c36.67-44.28,80.26-82.32,129.36-112.27,48.85-29.8,102.64-51.56,158.54-63.87,27.87-6.13,56.25-9.9,84.76-11.17,35.09-1.56,70.25,.55,105.16,4.06,68.55,6.9,136.63,19.73,202.78,39,16.43,4.79,32.79,9.78,49.03,15.19,8.13,2.71,16.57,5.14,24.33,8.8,6.71,3.17,13.08,7.89,15.6,15.16,3.64,10.5-5.26,16.58-13.49,20.21-7.5,3.31-15.23,6.18-23,8.82-15.74,5.34-31.9,9.45-48.28,12.27-8.19,1.41-16.44,2.48-24.72,3.26-.87,.08-.69,3.45,.08,3.38,17.5-1.66,34.85-4.7,51.86-9.2,15.71-4.15,31.65-9.22,46.35-16.22,5.76-2.74,11.15-6.62,12.63-13.17,1.23-5.44,0-11.36-2.85-16.1-7.57-12.6-25.7-16.17-38.59-20.46-67.62-22.5-137.55-38.6-208.13-48.39-67.6-9.37-136.64-14.4-204.37-3.54-58.02,9.3-114.34,28.84-165.88,57s-98.41,65.06-137.42,109.04c-4.86,5.48-9.52,11.15-14.09,16.88-.25,.31-.03,1.77,.35,1.31h0Z"/><path class="cls-4" d="M474.79,386.26c-3.26-4.32-6.43-8.65-8.7-13.59s-3.67-10-4.27-15.29l-.53,1.72c5.85,1.13,11.37,3.56,16.13,7.14,2.34,1.76,4.48,3.78,6.36,6.02,.96,1.15,1.86,2.35,2.68,3.6,.67,1.02,1.23,2.49,2.27,3.19,.45,.3,.5-.91,.47-1.08-.6-2.91-2.76-5.58-4.61-7.82-1.95-2.35-4.18-4.49-6.62-6.34-4.91-3.74-10.67-6.34-16.75-7.41-.61-.11-.56,1.5-.53,1.72,.67,5.57,2.19,11.02,4.57,16.1s5.23,9.69,9.34,13.19c.32,.27,.34-.95,.19-1.15h0Z"/><path class="cls-4" d="M462.63,360.75c-.08-.92-1.05-1.89-2.01-1.57-.3,.1-.34,.55-.33,.82,.08,1.75,.5,3.59,1.05,5.26s1.3,3.24,2.53,4.46c1.07,1.06,2.35,1.69,3.86,1.71,1.24,.01,2.63-.33,3.56-1.18,1.19-1.09,1.69-2.61,1.47-4.21-.03-.19-.12-.61-.39-.56s-.28,.6-.28,.78c0,.84-.77,1.47-1.45,1.82-.97,.5-1.94,.8-3.05,.78-2.73-.06-4.48-2.14-5.42-4.53-.61-1.55-.75-3.2-1.26-4.77l-.1,1.12c.45-.47,1.46-.53,1.72,.17,.04,.11,.08-.08,.08-.11h0Z"/><path class="cls-4" d="M466.24,362.54c2.27,2.49,4.14,5.31,5.53,8.38l-.04-1.73c.07-.14-.06,.06-.09,.07-.05,.04-.09,.08-.14,.11-.12,.08-.3,.17-.44,.19-.27,.04-.5-.15-.68-.22-.15-.06-.23,.13-.25,.24-.1,.59,.03,1.17,.49,1.57,.3,.26,.72,.49,1.14,.43,.83-.13,.97-1.21,.87-1.88-.11-.75-.62-1.53-.98-2.19-1.35-2.52-3.02-4.87-4.97-6.96-.34-.36-.58,.1-.66,.43-.1,.43-.12,1.2,.21,1.56h0Z"/><path class="cls-4" d="M462.78,360.46c-.39-.37-.65-.77-.72-1.31l-.08,.54c.21-.35,.18-.71,.26-1.03l-.77,.02c.75,3.1,2.3,5.98,4.31,8.45,.31,.38,.6-.03,.7-.34,.16-.49,.17-1.2-.08-1.66-.73-1.35-1.7-2.48-2.96-3.37-.64-.45-.66,1.38-.64,1.58,.12,1.35,.31,2.7,.58,4.03,.13,.65,.22,1.36,.51,1.96,.19,.38,.32,.94,.68,1.19s.35-.88,.31-1.01c-.07-.24-.09-.52-.12-.77-.03-.29-.04-.31-.04-.08,.02-.22,.01-.44-.02-.66-.08-.6-.26-1.19-.37-1.78-.22-1.19-.38-2.39-.48-3.59l-.64,1.58c1,.71,1.86,1.63,2.46,2.72l.62-2.01c-1.82-2.17-3.12-4.65-4.07-7.31-.07-.2-.18-.54-.46-.48s-.33,.54-.35,.75c-.04,.31-.05,.62-.03,.92,.02,.23,.07,.96,.44,.95h.06l-.15-.14c.25,.46,.56,.89,1,1.19,.1,.07,.12-.29,.06-.35h0Z"/><path class="cls-4" d="M654.06,166.12c5.77-1.87,11.74-3.06,17.82-2.86s12.57,1.63,18.44,3.9c12.09,4.67,22.22,12.98,31.1,22.26,17.52,18.32,31.42,41.4,54.31,53.75,6.74,3.64,14.07,5.97,21.58,7.4,3.92,.75,7.88,1.24,11.85,1.61s8.11,1.11,11.94,.33c.67-.14,.54-2.26-.06-2.45-3.38-1.07-7.06-.94-10.58-1.24s-7.02-.71-10.52-1.23c-6.95-1.04-13.82-2.74-20.26-5.61-11.72-5.23-21.56-13.83-30.28-23.11-17.35-18.48-31.81-41.86-55.89-52.35-12.05-5.25-27.55-7.66-39.49-.87-.11,.06-.08,.52,.04,.48h0Z"/><path class="cls-4" d="M651.19,167.33c-.43-1.09-1.16-1.85-2.3-2.19-.37-.11-.44,.43-.48,.68-1.1,7.61-.83,15.61,.37,23.2s3.26,14.99,6.73,21.8c.34,.67,.51-.67,.39-.97-2.72-6.97-4.94-14.14-6.08-21.54s-1.19-14.6-.62-21.99l-.37,.71c.85-.19,1.66-.06,2.27,.62,.12,.13,.11-.25,.09-.3h0Z"/><path class="cls-4" d="M666.82,163.85c-.81-.26-2.32-1.18-2.28-2.18l-.41,.65c8.58-1.33,17.08,1.34,24.74,5.06,6.71,3.25,13.05,7.22,18.96,11.77,12.01,9.24,22.16,20.69,31.2,32.79,5.15,6.89,10.07,13.94,14.79,21.13,.38,.58,.65-.51,.44-.86-8.16-13.1-16.9-25.83-27.26-37.31s-22.03-21.51-35.68-28.39c-8.36-4.21-17.75-7.5-27.22-5.93-.37,.06-.4,.6-.42,.89-.07,1.76,1.38,3.59,3.15,2.44,.01,0,.01-.05,0-.05h0Z"/><path class="cls-4" d="M523.63,450.38c9.24-6.87,18.43-13.78,27.93-20.29s19.49-12.65,29.54-18.48c5.67-3.29,11.42-6.44,17.25-9.45,.27-.14,.15-1.25-.14-1.1-20.88,10.24-40.72,22.43-59.26,36.47-5.29,4.01-10.43,8.15-15.36,12.59-.05,.05-.03,.31,.04,.26h0Z"/><path class="cls-4" d="M848.56,339.28c.45-.74,.42-1.5,.51-2.34,.08-.69,.07-2.42-.7-2.79s-1.05,1.17-1.07,1.62c-.13,2.74,1.1,5.29,1.87,7.87s1.41,4.95,1.98,7.46c1.04,4.59,1.81,9.23,2.94,13.79,.24,.96,.8,.4,.86-.3,.44-5.2-.16-10.46-1.31-15.54-.54-2.39-1.16-4.78-1.9-7.12s-1.52-4.89-2.66-7.12c-.09-.18-.43-.89-.79-.79l-.16,.04c-1.23,.35-1.21,4.59,.11,4.56h.53l-.19-.45-.09,.95s.02,.23,.06,.15h0Z"/><path class="cls-4" d="M870.19,335.59c-.97-.07-1.82-.28-2.73-.6l.17,1.29c.1-.34,.18-.65,.26-1l-.29,.45,.76,.12-1.35-5.46c-.48,3.31-.43,6.71-.28,10.05s.37,6.61,.77,9.88c.37,3.06,.99,6.09,1.69,9.09,.64,2.71,1.43,5.45,2.71,7.93,.81,1.56,1.15-1.16,1.1-1.7-.49-5.97-1.38-11.92-2.07-17.88-.16-1.35-.32-2.7-.46-4.06-.07-.72-.13-1.44-.19-2.15,.04,.49,0-.06-.02-.25-.02-.32-.04-.64-.06-.96-.2-3.09-.24-6.37-.6-9.16-.11-.85-.91-3.78-2.12-2.13-1.08,1.48-.71,4.17-.14,5.73l.09,.24-.08-1.11c-.09,.54-.18,1.07-.24,1.61-.02,.2,0,1.11,.4,.94,.9-.38,1.74-.65,2.7-.78,.03,0,.03-.11,0-.11h0Z"/><path class="cls-4" d="M884.02,329.14c.94-1.27-.08-3.75-1.29-4.47-.6-.36-.79,.96-.82,1.23-.94,7.39-1,14.96-1,22.41,0,3.35-.09,6.83,.42,10.16,.36,2.36,1.09,5.21,3.64,5.99,.72,.22,.56-1.64,.29-1.95-1.64-1.86-2.05-4.13-2.03-6.53,.03-3.23,.15-6.46,.18-9.69,.05-6.64,.23-13.31-.13-19.95l-.65,1.75c.56-.19,1.79-.7,1.28,.72-.02,.06,0,.49,.12,.34h0Z"/><path class="cls-4" d="M900.06,327.61c.54-1.03,.25-2.04-.2-3.03,.29,.64-.34-1.08-.32-1.03-.16-.41-.36-.82-.68-1.13-.63-.62-1.51-.51-2.31-.19-1.17,.46-1.97,1.73-2.55,2.78-.91,1.65-1.69,3.41-2.33,5.17-2.8,7.62-3.41,16.38-2.25,24.38,.56,3.87,1.64,7.67,3.66,11.03,.63,1.05,1.61,2.11,2.93,2.12,2.02,.02,2.25-3.01,1.88-4.44s-1.73-2.34-2.07-3.48c-.13-.42-.21-.86-.31-1.29-.35-1.5,.14,.87-.12-.57-.13-.73-.28-1.47-.44-2.19-.07-.29-.13-.58-.19-.87,.13,.65,.13,.68,.02,.09-.26-1.55-.51-3.1-.71-4.66-.05-.42-.1-.84-.14-1.26l-.04-.42c-.06-.69-.05-.56,.03,.39-.14-.17-.06-1.04-.07-1.27-.02-.56-.03-1.13-.03-1.69v-.42c.01-.68,.01-.56-.01,.35-.13-.45,.06-1.23,.1-1.7,.08-.98,.16-1.98,.33-2.96-.24,1.38,.02-.06,.06-.29,.08-.43,.16-.85,.24-1.27,.2-.99,.46-1.97,.7-2.95,.35-1.38-.27,.79,.17-.59,.18-.57,.35-1.13,.55-1.7,.34-1,.74-1.97,1.09-2.96,.25-.7,.44-1.91,1.01-2.44,.33-.3,.59-.31,.91-.66,.4-.43,.61-.98,.86-1.51l-.46,.51c.21,.01,.41,.06,.62,.07l-.27-.83-.02,.3c0,.11,.15,.97,.34,.61h0Z"/><path class="cls-4" d="M921.2,326.43c.13-.36,.56-2.22,.94-2.29,.76-.16,.59-2.06,.21-2.48-.61-.68-1.34-1.37-2.19-1.72-.91-.38-1.86,.14-2.7,.5-1.69,.74-2.89,2.09-3.94,3.58-2.67,3.78-4.12,8.79-4.85,13.3-.86,5.29-1.02,10.78-.07,16.06,.76,4.2,2,8.5,5.06,11.63,1.24,1.27,2.65,2.3,4.34,2.88,.84,.29,1.74,.52,2.63,.61,.98,.09,1.84-.22,2.74-.58,.69-.28,.63-2.86-.08-3.1-3.06-1.04-5.46-2.61-7.28-5.32-.88-1.31-1.51-2.72-2.11-4.18-.14-.35-.28-.69-.42-1.04-.07-.18-.13-.35-.19-.53,.02,.07,.17,.55,.04,.11-.24-.81-.44-1.62-.63-2.45-.04-.17-.07-.34-.11-.51,.02,.08,.11,.74,.04,.18-.07-.5-.16-1-.22-1.5-.05-.43-.1-.86-.14-1.29-.02-.21-.04-.43-.07-.64-.1-.79,.04,.95,.01,.16s-.32-2.06-.06-2.78c0,.03-.05,1,0,.36,.01-.21,.02-.43,.03-.64,.03-.57,.08-1.14,.14-1.71,.04-.34,.19-1.27,.04-.42,.07-.42,.14-.85,.22-1.27,.17-.91,.36-1.83,.6-2.72,.49-1.84,1.19-3.63,1.93-5.38,.77-1.85,1.64-3.53,2.84-5.16,.55-.75,1.17-1.22,1.9-1.77,.87-.66,1.58-1.53,2.43-2.23l-.67-.91c.09,.93-.36,2.09-.55,3-.02,.08,.07,.48,.15,.26h0Z"/><path class="cls-4" d="M879.64,330.71c-.22-.56-.12-1,.3-1.3,.12-.14,.25-.17,.39-.08l-.05-2.16c-.66,1.24-.62,2.99-.73,4.38-.13,1.72-.23,3.44-.29,5.16-.13,3.5-.08,7.01,.12,10.5s.57,7.05,1.16,10.53c.54,3.19,1.09,6.58,2.43,9.55,.45,1.01,.86-.47,.84-.91-.38-6.61-1.59-13.18-2.13-19.79-.25-3.08-.39-6.17-.48-9.26-.05-1.68-.07-3.35-.06-5.03,.01-1.54,.17-3.18-.18-4.69-.12-.5-.52-.89-.77-.23-.31,.8-.87,1.2-.93,2.13-.04,.56,.02,1.02,.31,1.51,.07,.12,.11-.24,.08-.3h0Z"/><path class="cls-4" d="M866.61,330.05c-.79,1.8-1.05,3.97-1.3,5.89-.26,2.06-.36,4.11-.4,6.18-.07,3.77,.22,7.57,.84,11.28,.34,2.03,.69,4.07,1.32,6.03,.53,1.68,1.29,4.14,3.01,4.99,1.22,.6,2.68,0,3.57-.88,1.21-1.23,1.72-2.71,1.86-4.41,.05-.52,.06-2.16-.61-2.4-.62-.22-1.35-.81-1.86-1.23-.36-.3-.7-.56-.98-.93-.18-.23-.31-.5-.46-.74-.11-.18-.35-.61-.13-.17-.15-.3-.26-.62-.39-.93-.27-.64,.17,.8,.06,.12-.09-.55-.26-1.11-.38-1.65-.15-.66-.4-1.38-.45-2.06,.04,.47,.13,.76,.03,.11-.06-.39-.13-.77-.19-1.16-.2-1.32-.34-2.64-.46-3.96-.08-.88-.15-.03,.01,.22-.11-.18-.05-.73-.06-.94-.04-.71-.07-1.41-.08-2.12-.01-.63-.01-1.26-.02-1.88,0-.39,0-.78,0-1.18,0-.57-.01-.46,0,.04-.02-.95,.07-1.9,.06-2.86,0,.92,0-.2,.01-.38,.02-.65,.05-1.3,.03-1.95-.04-1.2-.18-3.16-1.16-4.01-.9-.78-1.48,.09-1.87,.96h0Z"/><path class="cls-4" d="M848.34,336.3l3.91-1.4c-.02-1.07-.43-5.31-2.39-4.76s-1.66,4.84-1.52,6.16c.44,4.08,1.39,8.1,1.91,12.18,.25,1.95,.45,3.91,.66,5.87s.6,4.56,1.56,6.42c.72,1.4,1.71,1.47,2.39-.06,1.05-2.38,1.14-5.59,1-8.13s-.38-5.03-.77-7.53c-.7-4.48-1.41-9.53-3.51-13.6-.55-1.07-1.52-2.02-2.45-.71-1.07,1.51-.97,3.83-.79,5.56h0Z"/><path class="cls-4" d="M614.93,373.68c4.4-.41,8.76-1.13,13.15-1.65s8.98-.85,13.49-1.08c8.9-.45,17.8-.43,26.71-.07,18.14,.72,36.22,2.59,54.35,3.52s36.99,1.22,55.49,1.24c9.21,.01,18.42-.04,27.64-.11,4.37-.03,8.82,.15,13.16-.36,2.04-.24,4.07-.67,5.98-1.46,1.56-.64,2.93-1.56,4.36-2.45,2.97-1.85,5.41-4.44,8.49-6.13,3.6-1.97,7.67-2.14,11.57-1.05s7.81,3.35,11.38,5.6c2.85,1.79,5.48,4.09,7.12,7.08,.89,1.63,.66,2.87-.52,4.31-.24,.3-.05,1.87,.17,1.68,2.21-1.93,2-5.25,1.09-7.79-1.14-3.16-3.69-5.75-6.39-7.66-6.28-4.45-15.1-9.35-22.91-6.12-3.38,1.4-6.34,3.95-9.07,6.34-3.18,2.79-6.68,4.39-10.89,4.97-4.48,.61-9.09,.42-13.6,.47-4.77,.05-9.55,.1-14.32,.14-19.17,.16-38.35,.15-57.51-.49-18.91-.63-37.73-2.31-56.62-3.34-9.32-.51-18.65-.8-27.98-.56s-18.66,.89-27.68,2.87c-2.27,.5-4.46,1.07-6.66,1.83-.06,.02-.05,.28,0,.27h0Z"/><path class="cls-4" d="M615.73,386.95c.91,.3,1.8,.7,2.74,.88,1.06,.2,2.12,.38,3.18,.58,1.97,.37,3.94,.75,5.9,1.14,3.85,.77,7.69,1.61,11.53,2.46,7.81,1.74,15.57,3.72,23.26,5.92,15.31,4.38,30.38,9.63,45.08,15.74,7.42,3.08,14.75,6.39,21.97,9.92s13.85,7.39,21.43,9.29c8.09,2.02,16.39,.81,24.4-.99,8.12-1.83,16.18-3.93,24.23-6.07s16.22-4.58,24.26-7.05,16.05-4.85,23.81-7.92c1.93-.76,3.74-1.57,5.57-2.56,.27-.15,.21-1.65-.1-1.6-4.11,.6-8.04,1.98-11.99,3.23s-7.87,2.46-11.8,3.69c-7.96,2.49-15.96,4.86-23.98,7.11s-16.24,4.54-24.41,6.65-16.23,4.28-24.56,3.58-15.27-4.34-22.36-7.86c-7.08-3.52-14.25-6.83-21.53-9.93-14.51-6.18-29.38-11.53-44.53-15.92-15.18-4.41-30.6-7.93-46.21-10.39-.98-.15-1.97-.3-2.95-.45s-1.97-.05-2.95-.03c-.14,0-.12,.56,.01,.6h0Z"/><path class="cls-4" d="M847.47,409.2l-.37-.12c-.18-.06-.27,.48-.28,.55-.32,1.9,.39,4.09,2.28,4.86,2.1,.85,4.46-.73,6.16-1.82,.21-.14,.08-1.19-.07-1.12-1.78,.73-3.75,1.45-5.68,.82-.66-.21-1.25-.69-1.65-1.25-.19-.26-.34-.53-.43-.79,.05,.15,0-.12,0,.02,.01,.09,0,.19,.02,.28-.01,.13-.01,.11,0-.05,.02-.14,.03-.28,.02-.42,0-.23-.04-.45-.09-.68v.23c.03-.09,.08-.18,.13-.27,.03-.05-.01-.28-.04-.25h0Z"/><path class="cls-4" d="M1117.21,350.81c-.06,0-.11,0-.17,0l.06,.05c-.07-.16-.15-.31-.23-.45-.03-.08-.09-.12-.16-.14-2.2,.8-2.42,3.75-1.88,5.68,.24,.87,.79,1.66,1.63,2.04,.79,.35,1.67,.16,2.42-.2,.94-.45,1.64-1.25,1.92-2.26,.08-.29,.08-.64,0-.93-.04-.13-.16-.42-.29-.18-.33,.62-.98,1-1.66,1.13-.83,.16-1.59-.05-2.34-.34l.12,.05c-.24-.1-.47-.23-.67-.39-.1-.09-.19-.18-.28-.28-.05-.06-.05-.06,0,0-.02-.03-.04-.06-.06-.09-.03-.05-.06-.09-.09-.14-.02-.03-.07-.18-.1-.2,.05,.13,.06,.15,.03,.06l-.02-.05c-.04-.11-.04-.31,0,0,0-.05-.02-.11-.03-.16,.1,.4,.03,.16,.01,.04,.06,.45,.02,.24,.01,.13,.03,.47,0,.19,0,.07,0,.39-.02,.17,0,.06,0-.07,.03-.14,.03-.21,0,.27-.02,.1,0,0,.02-.07,.04-.14,.06-.21,.04-.16-.06,.13,.02-.06,.1-.23,.26-.54,.36-.68,.17-.22,.36-.43,.58-.6,.11-.08,.24-.14,.34-.23,.27-.23,.26-.78,.25-1.1l-.08,.4c.09-.06,.18-.11,.27-.16,.11-.06,.1-.63-.04-.64h0Z"/><path class="cls-4" d="M1117.98,350.51c.27,.5,.49,1.23,1.08,1.43,.45,.15,1.07,.19,1.54,.25,1.06,.13,2.12,.18,3.18,.35,2.09,.32,4.07,.91,6.1,1.47l-.09-3.63c-2.54-.29-5.01-.21-7.46,.62-1.14,.39-2.24,.9-3.25,1.54-.52,.33-1,.74-1.53,1.05-.27,.16-.56,.28-.88,.27-.07,0-.3-.08-.35-.05-.1,.06-.05-.04,.03,.2l.14,.92v-.1l-.09,.85c.03-.13,.26-.62,.44-.4,.21,.26,.26-1.03,.24-1.13-.06-.29-.16-.73-.52-.77-.23-.03-.4,.23-.52,.26-.27,.07-.32,.49-.36,.71-.14,.77-.1,1.83,.41,2.47,.42,.53,1,.4,1.54,.14,.61-.29,1.13-.75,1.71-1.1,.65-.4,1.33-.75,2.03-1.03,2.63-1.07,5.73-1.48,8.5-.8,.58,.14,.8-3.3-.09-3.63-2.25-.83-4.73-1.25-7.11-1.51-1.15-.12-2.42-.3-3.57-.04-.25,.06-.43,.14-.59,.36s-.52,.84-.55,1.1c0,.07-.03,.15,0,.22h0Z"/><path class="cls-4" d="M1122.6,353.83c-.18,.05-.37,.04-.55-.01-.2-.06-.35-.17-.51-.29s-.31-.22-.44-.37l-.03-.03s.02,.03,0,0c-.01-.02-.03-.04-.04-.06-.03-.04-.05-.08-.07-.12-.01-.02-.02-.04-.03-.06-.03-.07,.02,.05,0,0-.02-.04-.03-.09-.04-.13,0,0,.02,.1,.01,.04v-.04c-.02-.07,0,.12,0,.02,0-.02,0-.06,0,.03,0,.11,0,.02,0,0,0,0,0,.12,0,.08,0,0,0-.05,0-.05,0,0-.01,.11,0,.07,0-.02,0-.03,0-.05,0-.01,0-.02,0-.03,0-.04-.02,.08,0,.04,0-.03,.02-.06,.02-.08,0-.03,0,.02,0,.02,0-.02,.02-.04,.03-.06,.08-.19,.08-.44,.04-.64-.02-.09-.1-.34-.2-.16-.16,.28-.2,.63-.18,.95,.02,.34,.09,.68,.26,.98,.12,.21,.27,.4,.46,.54,.09,.07,.19,.13,.31,.16,.1,.03,.2,.04,.3,.04,.26,0,.51-.09,.72-.24,.08-.06,.07-.56-.04-.53h0Z"/><path class="cls-4" d="M1155.92,362.69c-.32,.34-.71,.56-1.16,.68-.51,.14-.96,.31-1.5,.32-.49,0-1-.07-1.45-.27s-.84-.29-1.19-.62c-.14-.13-.21,.29-.21,.34-.03,.23-.02,.5,.09,.71,.27,.51,.69,1.12,1.22,1.38,.49,.24,1.03,.38,1.58,.4s1.14-.05,1.59-.32c.51-.31,.93-.77,1.24-1.28,.15-.25,.12-.65,.07-.92-.01-.08-.13-.59-.29-.42h0Z"/><path class="cls-4" d="M1050.32,338.43c.3,.35,.59,.69,.84,1.08,.12,.19,.24,.4,.37,.58,.11,.16,.26,.22,.43,.31,.08,.06,.16,.06,.24,0,.59-.53,.79-1.34,.84-2.1,.06-.89-.03-1.98-.57-2.73-.05-.11-.13-.17-.24-.19-1.32,.48-2.37,1.38-3.06,2.6-.21,.37-.22,.88-.21,1.28,0,.38,.03,.95,.27,1.27,.81,1.1,2.17,1.54,3.49,1.23,.61-.14,1.22-.43,1.69-.85,.63-.57,.94-1.35,1.09-2.17,.09-.46,.07-.95,0-1.41-.04-.26-.1-.75-.36-.91-1.1-.68-2.46-.31-3.35,.56-.5,.48-.86,1.11-1.03,1.79-.28,1.13-.28,2.44,.17,3.54,.07,.16,.17,.44,.39,.46,1.59,.13,3.21-.64,4.18-1.9,.27-.35,.5-.72,.67-1.13,.38-.92,.36-2.2-.22-3.04-.36-.52-.82-.87-1.42-1.08-1.06-.38-2.28-.17-3.21,.44-.48,.32-.89,.79-1.11,1.33-.19,.45-.3,.92-.35,1.4-.07,.65-.08,1.57,.34,2.11,.13,.17,.3,.31,.48,.44,1.53,1.09,3.5,.18,4.47-1.19,.2-.27,.15-.82,.09-1.13-.02-.13-.13-.68-.36-.51-.64,.46-1.48,.53-2.24,.37-.39-.08-.78-.15-1.14-.32-.38-.19-.74-.43-1.03-.73l.38,2.39s.01-.09,.02-.13c.02-.13,.01-.09-.04,.14,.03-.02,.05-.15,.05-.18,.05-.2-.11,.19,0,.03,.04-.07,.07-.15,.12-.22,.03-.05,.07-.1,.1-.15-.12,.16,0,0,.03-.03,.1-.1,.2-.21,.31-.3,.45-.37,.88-.55,1.45-.65s1.14-.08,1.67,.11c-.09-.03,.07,.03,.09,.04,.07,.03,.15,.07,.22,.11,.11,.06,.21,.13,.31,.21,.11,.09,.22,.19,.31,.3-.13-.15,0,.02,.02,.04,.05,.07,.09,.15,.13,.22l-.07-2.79c-.68,1.67-2.46,2.75-4.32,2.61l.39,.46c-.02-.06-.04-.12-.07-.18-.06-.14,.08,.32,.03,.07,.04,.17,.05,.35,.06,.52-.01-.28-.01,.35,0,.18,0-.16-.06,.4-.01,.14,0,.04-.08,.28-.02,.12,0-.03,.05-.23,.02-.08s.02-.03,.04-.07c.05-.1,.1-.19,.16-.29,.03-.05,.07-.1,.1-.15-.07,.09,0,0,.04-.04,.16-.18,.33-.34,.52-.48,.69-.52,1.68-.74,2.45-.27l-.37-2.32c-.05,.24,.09-.27,.01-.05-.09,.25,.02,.01,0,0,.02,.01-.19,.37-.2,.38s-.13,.19-.07,.11-.07,.08-.09,.1c-.09,.1-.19,.2-.29,.28-.42,.36-.89,.59-1.42,.71s-1.09,.14-1.62,0c-.25-.06-.44-.14-.66-.27-.12-.07-.24-.16-.35-.25-.05-.04-.1-.09-.15-.14-.02-.02-.16-.2-.08-.09l.06,2.55c.55-1.04,1.49-1.88,2.58-2.32l-.24-.19c.05,.07,.09,.14,.14,.21,.05,.08,.02,.09,0,0-.08-.4,.02,.31-.04-.21v-.49c.01-.18,.02-.22,0-.12-.02,.11,.11-.18,0,0,.07-.11,0,0-.03,.05-.06,.12-.13,.19-.23,.29h.24c-.11-.06-.31-.22-.44-.22s-.36,.15-.47,.2c-.28,.12-.59,.12-.89,.14-.15,.01-.07,.47-.01,.54h0Z"/><path class="cls-4" d="M1053.8,337.43c.7-.37,1.48-.11,2.06,.36,.32,.26,.53,.52,.73,.88,.02,.04,.04,.08,.07,.13,.06,.11-.04-.11,0,0,.04,.1,.07,.2,.11,.3-.09-.25-.01,.07,.02,.1-.05-.05-.03-.23-.02-.08,.03,.26,0-.3,0-.05,0-.01,.02-.32,0-.12,0-.02,.05-.27,.01-.09-.04,.17,0-.03,.02-.05-.01,.04-.03,.09-.04,.13-.04,.14-.01,.03,0,0-.02,.05-.05,.1-.08,.15-.06,.1-.08,.13-.12,.19-.26,.32-.64,.59-1.03,.72-.79,.27-1.71,.19-2.47-.15-.46-.2-.89-.49-1.24-.84-.17-.17-.29-.32-.43-.53-.06-.1-.12-.2-.17-.3-.06-.13,.06,.18-.02-.05-.02-.07-.05-.15-.08-.22l-.37,2.17c.95,.8,2.16,1.25,3.4,1.23,.61-.01,1.24-.1,1.79-.37,.6-.29,1.14-.68,1.62-1.15,.22-.22,.22-1.66-.17-1.47-.49,.24-1.02,.37-1.56,.41-.58,.05-1.16,.13-1.75,.08-1.15-.1-2.27-.48-3.17-1.22-.29-.24-.45,.48-.47,.6-.08,.52-.06,1.06,.11,1.56,.67,2.03,3.11,3.54,5.2,2.67,1.21-.5,1.73-1.62,1.82-2.87,.09-1.33-.27-2.73-1.18-3.73-.75-.83-1.86-1.12-2.83-.48-.44,.29-.24,2.35,.24,2.1h0Z"/><path class="cls-4" d="M1048.42,330.58c-5.77-1.4-8.85,5.85-8.17,10.53,.9,6.11,6.66,10,12.46,10.73,4.71,.6,9.23-.65,13.57-2.36,.29-.11,.26-1.29-.03-1.25-7.32,1.02-15.89,2.76-22-2.62-2.57-2.27-4.12-5.48-2.74-8.81,1.2-2.88,3.84-4.93,6.92-5.39,.2-.03,.17-.77-.02-.82h0Z"/><path class="cls-4" d="M1049.74,333.57c2.29-1.4,4.84-2.37,7.55-2.27s5.36,1.01,7.32,2.96c1.85,1.83,3.08,4.52,2.92,7.15s-1.81,5.11-3.88,6.75c-2.42,1.92-5.71,2.95-8.79,2.56-.27-.03-.29,1.21,.03,1.31,3.04,.91,6.18,.39,8.81-1.37s4.16-4.54,4.56-7.63c.79-6.15-2.51-12.77-9.02-13.85-1.72-.29-3.56-.04-5.2,.52-1.83,.63-3.23,1.58-4.39,3.14-.08,.11-.1,.85,.08,.73h0Z"/><path class="cls-4" d="M1038.09,341.78c-1.16,4.87,2.56,9.41,6.85,11.19,6.22,2.59,13.19-.29,18.56-3.54,.23-.14,.14-1.3-.08-1.23-5.23,1.56-10.61,4.18-16.21,3.27-4.51-.73-9.22-4.45-8.93-9.38,0-.08-.12-.62-.19-.31h0Z"/><path class="cls-4" d="M1065.3,342.54l.19-.18c.21,.27,.3,.57,.26,.88,.02,.31-.04,.65-.1,.95-.11,.57-.29,1.12-.52,1.65-.46,1.04-1.13,1.98-1.91,2.81-1.59,1.67-3.66,2.9-5.88,3.55-5.69,1.67-11.57,.04-17.24-.86-.28-.04-.3,1.28-.03,1.39,7.32,2.95,16.65,5.03,22.93-1.18,2.28-2.25,3.62-5.3,3.41-8.53-.03-.52-.32-2.13-1.15-1.31-.24,.24-.44,1,.04,1.05,.05,0,.05-.2,0-.22h0Z"/><path class="cls-4" d="M1036.01,344.76c.38,1.2,.61,2.21,1.29,3.29,.55,.86,1.18,1.67,1.89,2.41,1.48,1.56,3.36,2.74,5.34,3.55,3.98,1.62,8.32,1.69,12.1-.5,.28-.16,.13-1.47-.1-1.39-3.55,1.27-7.65,1.26-11.22,.05-1.87-.63-3.61-1.62-5.13-2.88s-2.48-2.69-3.63-4.23c-.02-.05-.06-.07-.11-.08-.18,.03-.32-.42-.37-.51-.05-.11-.09,.25-.07,.3h0Z"/><path class="cls-4" d="M824.69,443.82c10.41,3.56,20.43,9.48,25.65,19.58,1.25,2.43,2.16,5.07,2.57,7.78,.36,2.34-.11,5.58,1.95,7.25,.95,.77,2.28,1,3.45,1.22,1.51,.28,3.02,.51,4.54,.7,2.77,.33,5.57,.51,8.36,.53,23.11,.16,45.71-9.52,61.96-25.91,9.75-9.83,18.79-22.95,16.35-37.5-.05-.3-.19-1.57-.73-1.52-1.25,.12-2.28,.35-3.47,.74-.75,.25-.72,2.87,.07,3.05,1.22,.28,2.25,.4,3.5,.4l-.65-1.02c1.06,6.01-1.24,12.14-4.16,17.31s-6.88,10.02-11.12,14.34c-7.85,8-17.09,14.68-27.25,19.44s-21.13,7.78-32.28,8.22c-2.79,.11-5.59,.02-8.36-.2s-5.59-.47-8.24-1.17c-1.72-.46-2.65-1.41-2.8-3.24-.11-1.35-.21-2.67-.46-4-.46-2.47-1.24-4.89-2.32-7.16-2.45-5.11-6.26-9.46-10.81-12.8s-10.03-6.04-15.71-6.91c-.22-.03-.23,.84-.03,.91h0Z"/><path class="cls-4" d="M861.51,462.04c-2.5,3.5-4.83,7.17-7.07,10.84-.19,.31-.35,2.89,.33,2.64,6.62-2.47,12.46-6.57,16.98-12.02,.37-.44,.56-3.34-.36-2.92-5.84,2.62-10.67,6.83-14.3,12.07-.33,.47-.55,4,.45,3.79,4.02-.84,8.01-2.59,11.7-4.36s7.49-4.06,10.93-6.57c.77-.56,.61-4.4-.47-3.95-6.42,2.69-12.17,6.42-17.51,10.87-.86,.72-1.13,5.49,.39,5.59,2.84,.18,5.81-.39,8.59-.97s5.63-1.37,8.3-2.45c5.43-2.19,10.38-5.16,14.83-8.97,.75-.64,.63-5.33-.35-4.95-1.54,.59-3.15,1-4.69,1.6s-3.09,1.32-4.58,2.1c-2.97,1.55-5.75,3.42-8.32,5.56-.85,.71-.9,2.46-.92,3.41-.03,1.37,.12,2.81,.77,4.04,1.65,3.14,5.7,1.6,8.28,.81,3.59-1.1,7.18-2.34,10.61-3.87s6.88-3.32,10.15-5.31c1.68-1.02,3.34-2.07,4.95-3.19s3.04-2.35,4.82-3.22c1.29-.63,1.02-7.06-.48-6.83-1.23,.19-2.28,.39-3.43,.86-1.49,.61-1.46,3.35-1.4,4.69,.03,.68,.24,4.86,1.63,4.62,.07-.08,.06-.12-.01-.11l-.6-1.72,.06,.27-.12-4.89-.04,.25,.52-1.76c.03-.05-.86,.18-.91,.2-.6,.17-1.18,.37-1.78,.55-1.04,.31-2.08,.61-3.13,.9-2.25,.62-4.51,1.23-6.78,1.79-4.51,1.11-9.06,2.05-13.56,3.19-9.17,2.32-18.49,4.08-27.84,5.48-1.12,.17-1.01,4.28,.11,4.47,2.12,.35,4.25,.8,6.39,.96s4.4,.3,6.61,.36c4.22,.13,8.46,.11,12.67-.26,8.62-.74,16.86-3.1,24.9-6.24,2.14-.84,4.67-1.37,5.42-3.81,.51-1.65,.88-10.5-2.53-8.77l1.03,8.96c1.22-.96,2.23-2.03,3.29-3.16l-.79-6.7c-2.57,2.35-5.97,3.86-9.07,5.43s-6.5,3.15-9.83,4.5-6.6,2.65-9.99,3.74c-1.61,.52-6.6,2.78-7.9,.74l-.15,7.45c2.38-2.51,4.97-4.8,7.78-6.82s5.82-4.1,9-5.23l-.35-4.95c-4.5,3.33-9.52,6.04-14.79,7.94-2.59,.93-5.21,1.75-7.91,2.33-2.84,.61-5.73,.78-8.58,1.26l.39,5.59c4.57-5.44,10.56-9.69,17.15-12.32l-.29-4.02c-3.35,2.36-6.89,4.45-10.56,6.25s-7.74,3.11-11.69,4.55l.45,3.79c3.14-5.59,8.04-9.98,13.85-12.65l-.36-2.92c-4.42,5.4-10.17,9.6-16.69,12.1l.33,2.64c2.37-3.95,4.67-7.98,6.78-12.07,.13-.26,.02-1.65-.29-1.22h0Z"/><path class="cls-4" d="M869.99,472.52c3.26,1.84,6.67,2.15,10.33,1.62,3.84-.56,7.52-1.82,11.18-3.05,7.64-2.57,15.28-5.31,22.65-8.6,2.12-.95,4.26-1.87,6.34-2.92s4.46-2.09,6.46-3.45c.19-.13,.16-1.19-.08-1.12-1.93,.52-3.79,1.45-5.65,2.17s-3.65,1.48-5.47,2.22c-3.76,1.52-7.51,3.06-11.28,4.54s-7.6,2.91-11.44,4.26-7.31,2.67-11.06,3.63-8.16,1.48-11.96,.17c-.09-.03-.12,.47-.01,.54h0Z"/><path class="cls-4" d="M929.26,451.93c-.44,.37-.98,.53-1.44,.91-.53,.44-1.08,.84-1.62,1.27-1.08,.85-2.12,1.74-3.25,2.53-2.21,1.57-4.58,2.87-6.99,4.09-4.99,2.53-10.56,4.15-16.11,4.82-.36,.04-.32,1.42,.03,1.42,5.66-.04,11.06-1.31,16.21-3.64,2.55-1.16,4.92-2.7,7.14-4.41,1.17-.9,2.35-1.83,3.37-2.9,.49-.51,.95-1.05,1.41-1.59,.54-.64,.84-1.33,1.33-2,.06-.08,.02-.59-.09-.5h0Z"/><path class="cls-4" d="M566.69,468.08c-.85-.6-.98,.73-.9,1.32,.2,1.66,1.52,2.24,2.82,3.03,4,2.41,8,4.83,12,7.24,7.89,4.76,15.86,9.4,23.81,14.07,3.9,2.28,7.75,4.69,11.73,6.84,3.21,1.73,6.62,2.92,10.31,2.73,3.39-.18,6.41-1,9.33-2.76s5.47-4.18,7.52-6.91c5.38-7.19,7.17-16.35,8.55-25.03,.15-.92,.46-5.16-1.29-5.12-1.28,.03-1.88,1.21-2.54,2.16s-.95,2.11-1.07,3.26c-.02,.18,.14,2.12,.68,1.63,.32-.29,.82-.54,1.26-.55,.64,0,1.14,.39,1.84,.35l-1.29-5.12c-1.06,7.06-2.21,14.4-5.48,20.83-3.03,5.96-7.83,10.3-14.07,12.72-2.9,1.13-6.04,1.38-9.07,.67-3.8-.89-7.24-3.37-10.58-5.31-7.15-4.15-14.31-8.3-21.46-12.45-3.99-2.31-8.02-4.55-12.04-6.82-2.01-1.13-4.01-2.26-6.02-3.39l-3.01-1.7c-.4-.22-.83-.4-1.09-.8-.08-.13-.11-.31-.17-.45-.26-.63,.11,.37,.24,.33,.21-.08,.18-.64,.02-.75h0Z"/><path class="cls-4" d="M603.91,492.37l-.16-.28,.06,.83c.49-1.28,2.88,.07,3.6,.4,1.41,.65,2.83,1.28,4.24,1.92,2.81,1.27,5.61,2.74,8.53,3.76,2.39,.83,5.18,1.2,7.08-.84,1.57-1.69,2.53-4.78,1.48-6.97-.04-.08-.17-.38-.32-.34h-.06c-.11,.04-.18,.16-.21,.27-.42,1.52-2.47,2.49-3.91,2.68-2.82,.37-5.45-.62-8.08-1.5s-5.31-1.76-7.96-2.65c-1.07-.35-2.42-.99-3.55-.59-.9,.31-1.26,1.29-1.44,2.16-.09,.41-.13,1.48,.3,1.77,.1,.07,.2,.14,.31,.2,.24,.14,.15-.71,.1-.8h0Z"/><path class="cls-4" d="M611.24,492.23c-1.04-.45-2.13-.89-3.1-1.46-1.42-.83-2.32-2.01-3.08-3.45-.84-1.58-1.65,1.14-1.72,1.65-.19,1.33-.18,3.51,.92,4.52,1.26,1.17,2.54,2.4,4.07,3.21,1.33,.7,2.83,1.18,4.27,1.58,2.93,.82,5.95,1.06,8.99,.76s6.02-1.16,8.77-2.63c1.46-.78,2.46-1.95,3.71-3,1.41-1.2,2.53-2.61,3.39-4.25,.47-.9,.48-2.07,.29-3.04-.05-.25-.54-2.02-1.09-1.38-.86,1-2.07,.81-3.21,.51-.99-.26-1.78-.22-2.78-.08-2.14,.3-4.27,.65-6.41,.97-4.18,.63-8.55,1.64-12.8,.9l.18,7.17c4.91,.58,9.6,.3,14.4-.97s9.24-3.48,13.97-4.93l-1.36-3.46c0,.07,0,1.06,.03,.5-.03,.46,0,.19-.08,.62-.12,.56-.3,1.11-.52,1.64-.58,1.34-1.45,2.54-2.49,3.56-2.12,2.08-4.67,3.69-7.65,4.08-.78,.1-.7,2.86,.07,3,3.4,.58,6.78-.4,9.2-2.88,2.85-2.9,3.94-6.59,3.98-10.59,0-.61-.31-4.07-1.69-3.32-4.28,2.31-9.12,3.95-13.85,5.09s-9.57,1.68-14.18,.48c-1.4-.36-1.87,6.51,.18,7.17,4.22,1.35,8.57,2.89,13.09,2.3,2.17-.28,4.28-.93,6.23-1.93,1.17-.6,2.18-1.26,3-2.32,.67-.86,1.87-2.72,3.06-2.77l-.12-4.85c-1.22,.46-2.29,1.11-3.41,1.79-1.19,.71-2.59,.98-3.87,1.51-2.59,1.08-5.47,1.8-8.25,2.11s-5.83,.18-8.65-.4c-1.45-.3-2.79-.79-4.18-1.26-1.27-.43-2.58-.78-3.78-1.4l.16,6.48c.57-.64,.99-1.07,1.86-1.27,.42-.1,.91-.12,1.33-.09,1.04,.08,2.11,.37,3.13,.61,.11,.03,.12-.44,.01-.48h0Z"/><path class="cls-4" d="M466.45,365.14c-.43-.4-.75-.86-1.14-1.3-.35-.39-.76-.78-1-1.24-.14-.26-.27-.45-.57-.34-.51,.19-.66,1.03-.79,1.5-.15,.56-.25,1.15-.29,1.73-.1,1.38,.03,2.77,.43,4.1,.65,2.19,1.93,4.27,3.93,5.45,.56,.33,.92-.49,1.04-.88,.24-.82,.27-1.84,.01-2.66-1.09-3.45-2.22-6.89-3.22-10.36l-1.72,3.31c.66,1.38,1.51,2.65,2.6,3.72,.98,.96,2.34,2.32,3.8,2.3,.64,0,.85-1.12,.91-1.54,.14-.89,.07-1.86-.28-2.69-.16-.38-.34-.74-.61-1.06-.46-.55-.88,.16-.95,.62-.12,.74-.17,1.47-.17,2.22l1.26-2.41c-.27-.25-.49-.49-.82-.67-.27-.15-.54-.31-.8-.49-.49-.33-1.1-.81-1.44-1.14-.32-.31-.81-.88-1.14-1.33-.18-.25-.35-.52-.52-.78-.07-.12-.05-.09,.04,.08-.04-.07-.08-.14-.11-.21-.09-.16-.17-.32-.24-.49-.14-.29-.43-.78-.83-.77s-.67,.51-.79,.81c-.46,1.22-.35,2.61,.09,3.82,.02,.07,.28,.62,.19,.43-.04-.14-.03-.11,.04,.11l.13,.38c.13,.38,.25,.76,.38,1.14,.28,.83,.56,1.65,.84,2.48,.56,1.65,1.12,3.31,1.68,4.96l1.05-3.54c-.36-.2-.7-.42-1.02-.68-.16-.12-.31-.25-.46-.39,0,0-.15-.15-.27-.29-.27-.3-.49-.62-.72-.96-.08-.12-.08-.13,0,0-.05-.1-.11-.2-.16-.3-.09-.18-.17-.37-.25-.55s-.03-.07,.01,.06c-.03-.09-.06-.17-.08-.26-.03-.11-.06-.22-.09-.32-.02-.05-.1-.35-.02-.08,.08,.3-.01-.08-.02-.15-.01-.09-.03-.18-.04-.27-.02-.11-.02-.22-.04-.33-.05-.25,.01,.39,.01,.12,0-.11,0-.23,0-.34,0-.25-.03-.02,0,.08-.02-.1,.02-.25,.03-.35,0-.03,.04-.33,.01-.14-.03,.21,.04-.22,.04-.21,.02-.09,.05-.19,.06-.28,.08-.41,.08-.82,.09-1.23l-.55,1.38c.39-.11,.77,.05,1.15,.16,.45,.13,.87,.16,1.3,.36,.11,.05,.08-.27,.03-.32h0Z"/><path class="cls-4" d="M466.3,362.42c-.02,.16-.04,.32-.06,.47-.02,.19-.05,.37-.04,.56l.02,.47c.01,.21,0,.43,.07,.64,.02,.07,.05,.17,.13,.19,.07,.02,.12-.05,.14-.12,.11-.34,.09-.72,.1-1.07,.02-.39-.06-.78-.1-1.16,0-.06-.04-.24-.14-.24s-.12,.18-.13,.24h0Z"/><path class="cls-4" d="M306.14,369.88c-2.33-.39-3.61,1.49-4.03,3.56-.53,2.58,.14,5.03,1.66,7.15,1.98,2.77,4.85,4.82,6.28,7.99s1.21,6.78,.38,10.1c-.98,3.93-2.74,7.62-4.6,11.21-.19,.37-.29,2.26,.48,2.15,15.68-2.28,32.94-1.7,45.77,8.78,.34,.27,.42-.97,.21-1.2-8.81-9.61-22.56-11.73-35.02-11.2-3.69,.16-7.37,.55-11.03,1.1l.48,2.15c3.53-6.96,7.31-15.64,4.56-23.5-.63-1.81-1.61-3.45-2.89-4.88s-2.87-2.8-4.1-4.39c-1.13-1.45-1.87-3.05-1.39-4.91,.42-1.63,1.56-3.09,3.24-3.49,.18-.04,.17-.57-.01-.6h0Z"/><path class="cls-4" d="M336.73,415.24c-.75,9.41,4.81,17.64,10.67,24.47,3.38,3.94,7.01,7.67,10.51,11.51,3.81,4.17,7.58,8.38,11.3,12.64,7.55,8.63,14.9,17.42,22.06,26.38,6.58,8.24,13.78,16.61,17.58,26.58,4.54,11.94,2.53,25.11,.39,37.34-.09,.53,.41,2.04,.67,.89,2.37-10.62,4.09-21.72,2-32.54-2.02-10.5-7.93-19.24-14.41-27.51-14.08-17.96-29.08-35.19-44.75-51.77-7.33-7.75-15.46-16.61-15.71-27.91,0-.28-.27-.47-.3-.08h0Z"/><path class="cls-4" d="M305.52,369.4c18.87-7.03,38.2,2.56,54.61,11.45,17.17,9.29,33.15,20.56,48.49,32.59,4.32,3.39,8.55,6.9,12.78,10.41,2.08,1.72,4.17,3.44,6.26,5.15s4.22,3.66,6.52,5.22l.2-3.74c-1.08-.2-2.22-.18-3.31-.24-.9-.05-.64,1.83-.11,2.15,1.06,.62,2.11,1.33,3.23,1.84,1.57,.71,1.43-2.82,.75-3.49-1.77-1.74-3.79-3.24-5.71-4.81s-3.82-3.14-5.76-4.68c-3.86-3.07-7.74-6.13-11.65-9.14-7.91-6.09-15.83-12.15-24.05-17.81s-16.44-10.86-25.11-15.52-17.39-8.79-26.84-11.25c-4.99-1.3-10.13-2.2-15.31-2.15s-10.33,1.16-15.03,3.72c-.09,.05-.07,.36,.05,.31h0Z"/><path class="cls-4" d="M417.25,481.49c5.86-6.4,11.47-13.03,17.28-19.46s11.89-13.04,18.01-19.38c.16-.17,0-.95-.17-.79-12.56,12.24-24.82,25.1-35.25,39.22-.08,.1-.02,.58,.12,.42h0Z"/><path class="cls-4" d="M305.8,412.23c.48,.59,.26,.45,.8,.52,.51,.07,1.2-.14,1.71-.2l2.94-.34c2.13-.25,4.24-.56,6.36-.88l12.47-1.89c3.84-.58,7.95-1.39,11.81-.53,3.01,.68,6.31,2.69,7.2,5.8,.28,.97,.8-.14,.7-.67-.65-3.2-2.76-5.75-5.75-7.06-3.77-1.64-7.95-1.16-11.88-.51-4.54,.75-9.08,1.55-13.62,2.32-2.29,.39-4.57,.77-6.84,1.24l-3.17,.65c-.57,.12-1.14,.23-1.71,.35-.75,.16-.59,.07-1.01,.81-.06,.1-.07,.28,0,.38h0Z"/><path class="cls-4" d="M300.82,412.89c1.07,.82,2.81-2.86,3.25-3.54,1.08-1.67,2.08-3.38,3.09-5.09s1.96-3.32,2.94-4.97,2.07-3.32,2.48-5.25l-.46,1.09c1.96-2.62,1.55-7.16,.27-9.99-.62-1.37-1.71-2.4-2.66-3.54-.37-.45-.72-.9-1.06-1.37-.21-.29-.42-.59-.61-.89-.04-.06-.48-.76-.28-.43,.24,.4-.3-.55-.35-.64-.14-.25-.27-.51-.4-.77-.16-.32-.28-.67-.46-.98-.12-.27-.12-.26-.01,.03,.25,.69,.38,1.41,.38,2.16l-.31,3.24c0,.6-.22,1.05-.62,1.35-.18,.14-.12,.09,.19-.17,.24-.2,.49-.38,.74-.57,.56-.42,1.14-.83,1.72-1.22,1.19-.79,2.43-1.51,3.7-2.16,2.4-1.23,4.86-2.12,7.47-2.73s5.3-.62,8.05-.7c1.32-.04,2.63,.05,3.95,0,.55-.03,1.18,.09,1.72,0,.79-.12,1.15-.55,1.98-.42,.94,.15,1.27-1.98,1.32-2.49,.11-1.11,.08-2.9-.75-3.77-.75-.8-1.2-1.81-1.98-2.57-.72-.71-1.59-1.35-2.44-1.9-1.4-.91-3.38-1.54-5.03-1.71-3.4-.34-6.9,.26-10.11,1.34-3.43,1.15-6.67,2.7-9.66,4.74-1.65,1.12-3.41,2.31-4.38,4.09-1.99,3.67-1.44,8.47,.12,12.2,.92,2.18,2.2,4.28,3.62,6.17,.63,.84,1.33,1.62,2.03,2.41,.34,.38,.66,.79,1.03,1.15,.67,.66,1.18,.76,2.07,1l-1.27-4.49c-.52,1.85-1.85,3.64-2.76,5.32-1.07,1.97-2.14,3.94-3.21,5.91s-2,3.92-2.98,5.9c-.53,1.06-1.52,3.38-.33,4.3h0Z"/><path class="cls-4" d="M304.33,375.85c-2.31-1.34-4.37,.81-4.8,3-.63,3.25,1.59,5.81,3.91,7.74,2.55,2.12,6.23,4.85,6.32,8.54,.06,2.49-2.15,4.7-3.69,6.41-1.04,1.16-2.13,2.28-3.1,3.51s-1.65,2.53-2.35,3.87l.57-.77c-1.03,.69-1.49,1.92-1.8,3.06-.4,1.47-.33,3.22,.11,4.67,.19,.63,.87,2.48,1.89,2.25,2.94-.66,5.86-1.8,8.18-3.76,2.66-2.24,4.43-5.03,5.66-8.27,.36-.93,.4-2.05,.1-3.01-.12-.39-.71-1.66-1.32-1.11-1.69,1.55-3.75,2.87-5.72,4.03-2.25,1.31-4.57,2.38-7.14,2.86l1.89,2.25s-.2-.6-.2-.6c.02,0,.15,.79,.09,.39-.05-.37-.02-.94-.07,.42-.05,1.29-.1,.75,.11,.33,.17-.34,.31-.69,.5-1.02,.66-1.17,1.51-2.24,2.34-3.29,1.71-2.16,3.51-4.28,4.54-6.88,1.21-3.04,1.17-6.43-.15-9.44-1.4-3.18-4.04-5.19-6.66-7.3-1.16-.94-3.22-2.58-2.96-4.28s1.82-3.68,3.67-3.02c.21,.07,.21-.49,.06-.58h0Z"/><path class="cls-4" d="M311.56,400.44c-1.58,2.18-3.08,4.47-4.78,6.56s-3.57,4.02-5.48,5.89c-.56,.55-.53,1.9-.42,2.6,.06,.4,.4,1.84,1.06,1.66,3.13-.85,6.18-1.92,9.34-2.65s6.54-1.29,9.85-1.63c2.75-.28,5.47-.74,8.24-.68,2.13,.04,4.6,.51,5.92,2.34,.26,.37,.52-.07,.62-.29,.19-.41,.09-1-.07-1.39-2.27-5.41-8.91-5.64-13.92-5.24-3.47,.28-6.95,.97-10.32,1.79s-6.9,1.76-10.07,3.25l.92,4.17c3.41-5.08,6.74-10.38,9.27-15.96,.04-.1-.02-.62-.16-.42h0Z"/><path class="cls-4" d="M409.39,581.75c2.72,3.97,8.07,4.57,12.17,2.48,2.34-1.19,4.21-3.16,5.69-5.29,1.6-2.29,3.15-5.11,3.73-7.85,.06-.28,.07-1.89-.52-1.59-.86,.43-1.41,1.6-1.93,2.36-.67,.97-1.37,1.93-2.08,2.88-1.43,1.91-3.15,3.74-5.22,4.94-3.4,1.97-8.35,2.61-11.52-.13-.33-.29-.52,.57-.54,.71-.08,.47-.05,1.09,.23,1.49h0Z"/><path class="cls-4" d="M405.08,582.56c.08-1.43-.6-2.73-1.78-3.55-1.52-1.06-2.69-.2-3.06,1.45-.97,4.36,.99,10.02,5.62,11.29,4.31,1.18,9.43-.69,13.4-2.31,4.76-1.94,9.01-5,12.41-8.83,.32-.36,.67-3.07-.22-2.89-6.44,1.31-12.55,3.93-18.94,5.51-2.79,.69-6.3,1.23-8.8-.59-.42-.3-.7-.63-1-1.04,.03,.04-.44-.67-.28-.39-.28-.48-.05,.2-.11-.32,.05,.28,.07,.32,.05,.11-.01-.19-.01-.17,0,.06,.4,.22,.4,.14,.89,.15,.77,.02,1.51,.58,1.63,1.35,.04,.23,.19,.24,.2,0h0Z"/><path class="cls-4" d="M402.4,585.87c-1-.41-2-.81-3-1.22l.18,2.31c1.29-1.52,2.17-3.61,3.12-5.36s1.82-3.56,2.67-5.37c1.78-3.78,3.41-7.64,4.89-11.55,2.99-7.9,5.74-16.27,6.37-24.73,.35-4.73-.19-9.75-1.51-14.3-.22-.76-.83-1.91-1.61-.97s-.54,2.78-.32,3.87c.88,4.41,1.62,8.98,1.85,13.34,.25,4.61,.17,8.51-.21,12.96-.2,2.33-.47,4.66-.78,6.98-.06,.47-.13,.93-.19,1.4-.07,.47-.14,.93-.2,1.4-.08,.54-.09,.62-.03,.24-.16,1.08-.33,2.15-.51,3.23-.81,4.88-2.02,9.76-2.53,14.68-.19,1.8-.05,4.46,1.13,5.98,1,1.29,2.12,.35,2.58-.89,1.21-3.28,2.18-6.64,3.3-9.95s2.06-6.5,2.89-9.81c1.61-6.46,2.52-13.02,3.33-19.62,.06-.47-.11-3.58-1.25-2.87s-2.32,1.29-3.26,2.27-1.64,2.11-2.29,3.26c-1.53,2.71-2.38,5.61-3,8.64-1.63,8-2.45,16.21-2.08,24.37,.08,1.75,.26,3.96,1.39,5.41,.74,.96,1.89,1.14,2.55-.06,2.62-4.78,4.95-9.68,6.94-14.75s3.4-9.88,5.13-14.8l-3.49-8.29c-2.96,8.85-5.23,17.96-7.78,26.94-.78,2.74-.88,5.69,.01,8.42,.25,.75,.62,1.83,1.35,2.26,.83,.49,1.38-.07,1.91-.69,6.05-7.04,10.58-15.5,13.19-24.4,.8-2.73,.87-5.73-.01-8.45-.24-.75-.62-1.84-1.34-2.27s-1.54-.05-1.89,.7c-3.53,7.34-6.29,14.89-8.35,22.76-.59,2.26-.43,5.62,.58,7.78,.25,.54,.59,1.3,1.12,1.63,.85,.51,1.36-.09,1.88-.69,5.22-6.07,9.74-12.77,13.24-19.97,1.27-2.62,1.41-6.01,.64-8.82-.35-1.29-1.89-4.79-3.34-2.23-2.27,4.03-4.6,8.02-6.92,12.02-1.16,2.01-2.32,4.01-3.48,6.01-.69,1.18-1.45,2.35-1.95,3.62s-.92,2.62-1.37,3.93c-.64,1.85-.67,4.26-.15,6.15,.19,.67,1.07,3.33,2.22,2.28,.63-.58,1.29-1.13,1.89-1.74,.88-.89,1.42-2.12,2.04-3.2,1.15-2,2.3-4.01,3.45-6.01,2.31-4.01,4.6-8.04,6.95-12.02l-2.69-11.05c-3.67,7.16-8.06,13.87-13.3,19.97l3.58,8.72c.03-.1,.44-1.58,.12-.48,.13-.45,.25-.89,.38-1.34,.21-.74,.44-1.48,.67-2.22,.53-1.7,1.1-3.38,1.72-5.05,1.21-3.29,2.49-6.26,3.84-9.01l-3.25-10.03c-.67,2.17-1.42,4.32-2.3,6.42-.22,.52-.44,1.05-.68,1.56-.06,.14-.57,1.23-.24,.53-.49,1.02-1.01,2.03-1.56,3.03-2.12,3.87-4.65,7.5-7.49,10.87l3.28,9.99c2.65-9.58,5.59-19.14,7.85-28.83,.56-2.39,.52-6.03-1.03-8.08s-2.79,.86-3.12,2.2c.25-1.03-.41,1.61-.47,1.87-.08,.31-.16,.62-.25,.93-.15,.53-.17,.62-.07,.26-.37,1.14-.83,2.26-1.26,3.37-.88,2.25-1.8,4.49-2.78,6.7-1.16,2.63-1.92,4.09-3.12,6.62-.23,.48-.27,.56-.12,.26-.14,.28-.27,.56-.41,.84-.28,.56-.56,1.11-.84,1.67-.57,1.11-1.15,2.21-1.75,3.3l3.94,5.35c-.08-1.78-.15-3.56-.19-5.34-.02-.81-.02-1.62-.02-2.43,0-.48,0-.97,.01-1.45,0-.16,.03-1.51,.01-.69s.02-.55,.03-.7c.04-.83,.08-1.65,.1-2.48,0-.4,0-.8,.01-1.21,0-.38,0-.32,0,.19l.02-.5c.08-1.81,.27-3.62,.48-5.42,.04-.31,.07-.62,.11-.93s.12-.82,.03-.23c.11-.7,.23-1.4,.37-2.09,.25-1.21,.5-2.44,.85-3.63,.39-1.3,.97-2.51,1.69-3.66s1.53-2.47,2.69-3.33l-1.25-2.87c-.54,5.78-1.92,11.51-3.68,17.03-.88,2.77-1.86,5.51-2.95,8.21-.51,1.26-.99,2.49-1.71,3.63s-1.41,2.28-2.1,3.43l3.11,7.2c.63-2.45,.91-5.01,1.28-7.51,.42-2.79,.82-5.59,1.18-8.39,.63-5,1.08-10.01,1.28-15.05,.41-10.24,.1-21-3.42-30.74l-1.54,4.02c.76,1.58,1.28,3.07,1.44,4.82s.11,3.69-.05,5.52c-.31,3.73-1.15,7.41-2.15,11.02-2.1,7.57-4.67,15-7.84,22.19-.91,2.07-1.89,4.1-2.84,6.14s-2.2,4.07-3.02,6.2c-.13,.33-.28,2.23,.41,2.15l3.05-.36c.25-.03,.23-.83,.03-.91h0Z"/><path class="cls-4" d="M419.28,584.98c1.15,.46,2.21,.18,3.42,.05,1.31-.14,2.45-.36,3.66-.88,2.2-.94,4-2.58,5.61-4.31,3.39-3.64,5.74-8.18,7.88-12.63,5.02-10.43,8.36-21.48,10.68-32.8,1.32-6.45,2.29-12.93,3.15-19.45,.07-.52-.46-1.8-.7-.7-2.2,10.37-4.52,20.76-7.74,30.87-1.62,5.11-3.42,10.16-5.59,15.06-2.01,4.54-4.28,9.09-7.3,13.05-1.72,2.25-3.66,4.09-5.81,5.9-1.11,.93-2.31,1.77-3.49,2.6-1.29,.91-2.75,1.47-3.83,2.63-.09,.1-.11,.54,.05,.6h0Z"/><path class="cls-4" d="M449.8,491.69c.91,6.41,1.74,12.73,1.75,19.22s-.66,12.4-1.9,18.47c-2.52,12.37-7.58,24.22-14.68,34.65-2.09,3.07-4.19,6.11-6.44,9.07s-4.99,5.85-7.43,8.83c-.29,.35-.24,2.57,.42,2.18,2.65-1.57,5.01-3.89,7.23-6.02s4.43-4.62,6.4-7.14c4.13-5.3,7.4-11.51,10.08-17.66,5.5-12.64,8.37-26.38,8.39-40.17,.01-7.37-.64-15.23-3.06-22.23-.4-1.17-.85,.21-.77,.8h0Z"/><path class="cls-4" d="M302.59,414.7c.94,.09,1.8,.38,2.74,.37s1.82,0,2.73-.08c1.74-.14,3.47-.31,5.2-.46l10.66-.94c3.47-.31,6.94-.66,10.41-1.01s7.47-.51,10.89-1.68c.3-.1,.3-1.26-.03-1.31-3.46-.49-7.21,.11-10.67,.44s-7.11,.67-10.65,1.05l-10.4,1.12c-1.82,.2-3.64,.38-5.45,.59-.83,.1-1.65,.25-2.47,.41-1.06,.2-1.92,.65-2.96,.95-.13,.04-.12,.53,.01,.54h0Z"/><path class="cls-4" d="M652.01,173.92c2.01-2.14-.04-6.2-2.66-6.7-1.9-.36-3.67,.9-4.68,2.4-1.17,1.74-1.47,3.87-1.35,5.92,.16,2.7,1.1,5.25,1.96,7.79,.94,2.76,1.87,5.51,2.81,8.27,1.93,5.67,3.86,11.34,5.79,17.01s3.81,11.18,5.7,16.78,4.28,11.09,3.69,16.9c-.56,5.48-3.25,10.66-5.48,15.62-2.1,4.68-4.28,9.35-7.03,13.69-2.98,4.7-6.68,8.94-11.3,12.09s-9.74,4.76-15.1,5.74c-.56,.1-.5,2.12,.05,2.23,2.29,.47,4.34,.52,6.61-.06,2.08-.53,4.12-1.32,6-2.33,3.93-2.12,7.38-5.11,10.24-8.53,6.31-7.54,10.14-16.83,13.8-25.86,1.88-4.63,3.41-9.47,3.33-14.53-.09-5.32-1.92-10.35-3.63-15.31-3.62-10.47-7.22-20.96-10.83-31.43-1.02-2.97-2.05-5.94-3.07-8.91s-2.47-6.04-2.75-9.16c-.24-2.61,1.35-5.6,4.04-6.25,2.2-.53,5.37,1.63,3.77,4.04-.07,.11,.01,.69,.1,.6h0Z"/><path class="cls-3" d="M711.16,178.67s-61.67,9.9-59.17,19.09c0,0-24.76-31.17,7.43-35.35,32.19-4.18,51.73,16.26,51.73,16.26Z"/></g></svg>