<?xml version="1.0" encoding="UTF-8"?><svg id="Layer_1" xmlns="http://www.w3.org/2000/svg" viewBox="0 0 1500 750"><defs><style>.cls-1{fill:#b98d77;}.cls-2{fill:#e1dcd9;}.cls-3{fill:#231f20;}</style></defs><g><path class="cls-1" d="M997.02,360.7s-109.62-44.54-229.93-41.79c-120.32,2.75-156.99,.07-232.07,26.73-75.08,26.66-230.9,111.09-232.96,115.63s3.17,12.09,20.41,14.77c17.25,2.68,40.58,3.94,40.58,3.94,0,0,6.8,8.09,9.38,8.37s111.18,3.48,155.41-2.36c44.24-5.84,130.06-18.78,158.04-27.24,27.98-8.47,192.56-68.68,313.76-54.42,0,0,29.92,49.6,38.38,51,8.46,1.39,32.36,24.65,32.36,24.65,0,0-22.49-53.24-12.12-63,10.36-9.76,94.34-61.48,94.34-61.48l17.78,3.61s-12.65-12.13,8.48-31.27c21.13-19.13,25.21-19.88,15.43-18.95-9.78,.93-197.28,51.82-197.28,51.82Z"/><path class="cls-1" d="M563.09,342.64s34.63-29.75,43.37-47.51c8.74-17.76,48.32-63.98,55.07-57.56,6.75,6.41,3.88,13.61,9.03,34.24s16.86,42.46,31.72,45.29c14.85,2.83-67.13,25.55-67.13,25.55h-72.06Z"/><path class="cls-1" d="M886.5,334.85s45.41-31.85,54.04-32.07c8.63-.21-1.46,42,6.51,50.19,7.97,8.19-60.56-18.12-60.56-18.12Z"/><path class="cls-1" d="M901.75,400.6s-20.83,13.23,15.34,36.7c36.17,23.47,24.67,7.84,22.13,4.01-2.53-3.83-9.34-17.07-4.21-23.2s17.7-19.06,17.7-19.06l-50.96,1.55Z"/><path class="cls-1" d="M742.83,430.68s25.32,21.15,52.26,18c26.94-3.15,34.59-15.72,31.77-17.39-3.66-2.16,3.28-11.26,3.28-11.26,0,0-6.33-13.16-8.68-13.46-2.35-.3-78.62,24.11-78.62,24.11Z"/><path class="cls-1" d="M504.46,478.86s39.05,24.52,47.19,27.22,51.31,10.83,46.18,3.2c-5.14-7.63-11.36-24.81-1.38-37.54,9.97-12.73-91.98,7.12-91.98,7.12Z"/><path class="cls-2" d="M301.98,466.37c1.89,3.5,7.17,2.79,10.82,3.12,5.32,.49,10.64,.97,15.96,1.46,8.25,.76,15.14,1.22,20.12-6.49,.45-.7,1.81-3.22,.24-3.51-2.35-.44-5.72,.9-8.3,.83-4-.11-8.01-.48-12.01-.73-7.57-.47-17.14-2.82-24.05,.66-1.05,.53-3.48,3.31-2.76,4.66h0Z"/><path class="cls-2" d="M311.39,464.68l-1.68-2c-.44-2.01-8.88,4.55-6.04,7.41,4.08,4.09,12.44,5.14,17.91,5.93,6.75,.98,13.31,1.09,19.9-.78,1.63-.46,7.45-7.67,4.38-7.98-6.07-.61-12.16-.13-18.24-.95s-12.41-3.63-18.72-4.23l-3.32,7.64,4.46-2.34c.48-.15,2.16-2.38,1.34-2.7h0Z"/><path class="cls-2" d="M307.98,468.86c5.61,1.21,11.85-1.1,17.33-2.22,6.1-1.24,11.92-1.34,18.07-.39,10.59,1.63,22.09,5.31,32.21,.02,1.96-1.03,3.82-2.95,4.88-4.89,.32-.58,1.73-3.67-.01-3.54-5.69,.4-10.89,1.21-16.64,.53-6.18-.73-12.32-1.96-18.55-2.27-11.37-.56-23.07,3.48-33.96,6.33-1.37,.36-5.83,5.91-3.34,6.45h0Z"/><path class="cls-2" d="M356.15,465.21c-3.9,.08-7.48-.17-11.37,.51-1.64,.28-8.04,7.11-5.61,8.42,6.69,3.61,14.84,4.39,21.98,1.85,2-.71,3.7-2.76,4.72-4.53,.35-.61,1.98-3.78,.18-3.75-7.31,.15-13.49,.02-20.56-2.11l-5.08,8.61c3.48-1.05,7.54-2.23,11.18-2.13,2.56,.07,6.3-6.9,4.57-6.86h0Z"/><path class="cls-2" d="M331.69,477.9c9.12,3.04,20.63,1.92,30.16,2.12,10.63,.23,21.44,.55,31.9-1.53,1.3-.26,6.33-5.5,4-6.05-9.65-2.3-20.26-1.44-30.15-1.5-10.33-.06-21.54-1.45-31.74,.38-1.31,.23-6.13,5.93-4.17,6.59h0Z"/><path class="cls-2" d="M364.42,478.54c6.27,7.55,15.32,14.56,25.03,8.24,.71-.46,6.98-7.4,3.97-7.33-4.47,.11-8.27,.23-12.47-1.67-3.88-1.76-7.19-4.33-10.38-7.12-1.88-1.65-7.89,5.79-6.15,7.88h0Z"/><path class="cls-2" d="M370.79,468.83l-1.21-1.02-6.01,8.32c4.62,.74,10.12-.66,14.77-1.19,5.41-.62,10.8-1.33,16.18-2.1,10.64-1.52,23.62-1.93,33.03-7.43,.74-.43,6.25-5.44,4.35-6.54-3.46-2.01-9.23,0-13.04,.57-5.62,.85-11.21,1.89-16.83,2.76-5.62,.87-11.24,1.69-16.87,2.49s-11.58,1.11-17.1,2.69c-1.78,.51-7.71,8.16-4.49,8.75l1.71,.94c1.87,1.7,7.84-7.15,5.51-8.24h0Z"/><path class="cls-2" d="M362.89,470.45c4.16,2.52,12.16-1.52,15.03-2.17,1.83-.41,3.66-.81,5.49-1.2,4.58-.97,9.19-1.84,13.81-2.62,5.04-.85,10.11-1.62,15.22-1.89,4.38-.23,8.74,.19,13.11-.22,1.56-.14,8.78-6.1,6.65-7.63-3.96-2.85-9.61-2.56-14.29-2.29-5.67,.33-11.33,1.38-16.91,2.39s-11.63,2.24-17.39,3.6c-6.28,1.48-12.78,2.48-17.94,6.49-.66,.51-4.32,4.62-2.79,5.55h0Z"/><path class="cls-2" d="M363.3,473.8c31.53-1.3,60.74-15.08,91.86-18.99l5.47-8.22c-19.19,8.21-39.2,15.12-59.17,21.16-2.95,.89-5.67,3.57-7.3,6.11-.94,1.46-2.41,4.37,.5,4.02,29.14-3.53,58.54-5.7,87.91-4.66l12.13-12.4c-26.77,2.87-53.75,6.13-80.71,4.91-4.98-.22-18.03,15.48-12.37,16.83,21.96,5.26,46.27,3.89,68.43,.6,4.2-.62,8.59-4.95,11.1-8.05,.64-.79,5.37-7.59,1.76-7.46-13.84,.51-27.68,.95-41.53,1.38s-27.34-.25-40.51,1.78c-4.51,.69-8.22,5.03-10.67,8.6-1.14,1.67-5.24,8.04-1.35,8.83,5.94,1.22,11.85,2.17,17.91,2.53,5.15,.3,18.72-15.4,13-16.73-9.1-2.11-18.23-2.31-27.51-1.57-4.52,.36-8.49,4.74-11.04,8.16-1.06,1.42-5.64,8.19-1.66,8.82,30.56,4.85,62.62-1.09,92.95-5.3,30.34-4.21,60.59-9.09,90.84-13.95,4.97-.8,9.73-3.39,13.5-6.7,1.29-1.13,5.92-6.53,1.04-5.93-30.88,3.84-61.76,7.68-92.68,11.11-31.07,3.44-61.69,6.47-92.95,3.8l-11.28,16.78c8.63-1.5,17.32-.55,25.79,1.53l13-16.73c-6.42-.48-12.69-1.47-18.89-3.23l-12.02,17.44c12.44-.27,24.96-2.54,37.4-3.44,14.14-1.02,28.21-1.54,42.39-1.56l12.86-15.51c-11.38,1.3-22.83,1.69-34.27,1.27s-22.12-2.36-33.24-3.29l-12.37,16.83c27.25-4.11,54.87-5.33,82.15-9.36,3.72-.55,7.53-3.65,10.02-6.26,.56-.58,5.11-6.09,2.11-6.15-31.65-.62-63.26,1.09-94.42,6.95l-6.81,10.12c20.64-7.47,41.01-15.5,61.49-23.39,1.68-.65,9.91-8.6,5.47-8.22-32.1,2.7-61.62,17.48-93.67,20.64-2.26,.22-6.38,6.97-4.65,6.9h0Z"/><path class="cls-2" d="M440.91,453.53c-1.08-.44-2.15-.92-3.2-1.42-2.84-1.31-6.69,8.62-4.42,9.15,12.01,2.78,24.03,2.02,36.15,.37s25.58-5.07,37.86-3.14l6.75-13.03c-5.06,.86-10.04,2.45-15,3.75-3.28,.86-5.62,4.41-6.99,7.32-.53,1.13-2.85,7.03,.25,6.75,2.07-.19,4.13-.39,6.2-.6l5.67-13.95c-3.91,1.56-7.47,3.59-10.9,6.02-1.69,1.2-10.17,13.4-4.78,13.6,4.36,.16,8.37-.53,12.52-1.79l5.55-14.68c-2.04,1.06-4.07,2.14-6.1,3.22-3.06,1.62-5.42,4.58-7.02,7.61-.6,1.13-3.21,6.6-.98,7.36,3,1.03,6,2.05,9.01,3.04l8.46-15.11c-18.51,9.18-38.47,14-59.02,15.34-5.2,.34-11.68,17.76-6.17,17.59,33.25-1.03,66.03-6.37,98.86-11.41,33.12-5.08,66.19-10.51,99.02-17.19,4.71-.96,9.18-5.52,11.79-9.33,1.37-1.99,3.96-7.4-.78-6.51-33.11,6.21-66.43,11.19-99.79,15.88-33.94,4.78-68.55,11.62-102.94,10.96l-6.17,17.59c20.67-1.75,40.63-8.15,58.9-17.84,3.16-1.68,5.6-4.51,7.32-7.62,.6-1.08,3.42-6.77,1.14-7.49-3.17-1.01-6.34-1.98-9.52-2.94l-8,14.97c2.15-1.15,4.29-2.29,6.43-3.45,3.55-1.92,6.3-5.75,7.65-9.51,.77-2.15,1.57-6.44-2.1-5.18s-7.15,1.74-10.95,1.77l-4.78,13.6c2.74-2,5.61-3.56,8.73-4.89s5.23-5.23,6.34-8.04c.45-1.13,2.17-6.27-.67-5.91-2.06,.26-4.12,.52-6.18,.81l-5.69,13.76c4.98-1.53,10.1-2.82,14.94-4.73,2.82-1.12,5.04-4.61,6.19-7.23,.45-1.03,2.22-5.8-.44-5.54-6.11,.59-12.24,.5-18.35,1.26-6.44,.8-12.84,1.93-19.25,2.98-12.77,2.09-25.8,4.02-38.75,2.41l-3.87,9.21c1.49-.51,2.98-1.01,4.48-1.48,1.25-.4,4.57-5.47,2.59-6.31h0Z"/><path class="cls-2" d="M462.78,466.32c11.04-1.66,22.3-2.31,33.39-3.65l4.41-9.93c-10.28,3.65-20.9,7.01-31.78,8.17l-6.39,11.99c4.5-.64,8.73-2.25,12.7-4.46,2.73-1.52,4.76-4.59,5.96-7.39,.48-1.12,2.21-5.44-.33-5.38-9.43,.24-18.85,1.28-28.2,2.47-9.38,1.2-18.66,3.43-28.03,4.51l-5.96,15.36c15.44-2.87,31.55-5.57,46.56-10.19,3.14-.97,5.34-4.05,6.88-6.8,.53-.95,3.78-7.29,1.46-7.89-8.85-2.29-17.7-1.07-25.73,3.27-2.95,1.59-5.15,5-6.44,7.98-.47,1.1-2.41,6.02,.33,5.8,15.48-1.28,31.07-2.78,46.32-5.84l6.23-12.78c-3.26,1.61-5.33,3.71-7.58,6.6-.71,.91-5.27,9.35-1.29,7.55,1.2-.54,2.36-1.15,3.59-1.65,2.81-1.14,5.09-4.76,6.31-7.33,.41-.87,2.48-5.78-.08-5.45-15.44,2.01-30.81,4.03-46.38,4.8l-6.11,13.78c6.82-3.48,14.23-4.13,21.63-2.21l8.34-14.69c-16.15,1.42-32.55,5.09-48.09,9.69-3.31,.98-5.45,5.43-6.59,8.39-.35,.91-2.39,7.9,.63,6.97,17.83-5.47,37.2-6.87,55.62-9.27l5.63-12.76c-3.47,2.24-6.99,3.78-10.98,4.93-2.84,.81-4.9,3.7-6.22,6.22-.29,.56-2.65,6.49-.17,5.77,11.56-3.38,23.19-6.28,34.5-10.46,2.22-.82,7.1-10.37,4.41-9.93-11.95,1.96-23.87,4.64-35.86,6.27-2.3,.31-4.65,7.84-2.68,7.54h0Z"/><path class="cls-2" d="M424.34,490.43c12,6.19,27.99,2.16,40.58,.14,15.01-2.41,29.87-5.3,44.48-9.55,2.03-.59,6.57-8.4,4.09-8.15-14.36,1.44-28.47,4.41-42.73,6.62s-29.01,4.99-43.45,2.62c-2.34-.38-5.11,7.22-2.98,8.32h0Z"/><path class="cls-2" d="M495.92,488.75l-.16,.49,2.51-2.84-.47-.8-1.88,5.13s3.85,.06,4.26,.03c1.86-.15,3.71-.36,5.57-.55,4.34-.45,8.69-.9,13.01-1.49,8.13-1.12,16.25-2.43,24.34-3.83,15.83-2.73,31.59-5.9,47.26-9.47,31.98-7.29,63.65-15.87,95.15-24.95,19-5.48,37.98-11.06,56.87-16.92,2.73-.85,5.76-3.23,7.41-5.53,.66-.92,2.44-4.13-.37-3.43-2,.5-3.97,1.05-5.94,1.67-2.63,.83-5.51,2.9-7.16,5.1-.77,1.02-2.36,3.59,.28,3.27,1.57-.19,3.08-.43,4.63-.76l7.04-8.96c-67.62,18.77-134.75,38.77-204,50.85-9.64,1.68-19.32,3.16-28.99,4.7-5.17,.83-10.73,1.12-15.78,2.49-2.7,.73-4.03,2.26-5.22,4.77-.42,.87-1.57,3.48-.37,4.23,.9,.56,1.77,.08,2.56-.45,1.21-.81,2.69-3.38,2.03-4.87l-.11-.24c-.57-1.28-2.36,2.06-2.46,2.38h0Z"/><path class="cls-2" d="M581.25,473.31c14.66,.63,29.36-1.3,43.81-3.65s29.46-5.49,43.9-9.47c28.7-7.89,56.4-19.33,85.65-25.23l9.14-10.98c-22.95,6.32-45.76,12.66-69.05,17.66s-47.16,9.17-70.86,13.04c-4.4,.72-8.1,5.01-10.59,8.44-.62,.86-5.51,8.82-1.77,8.5,38.29-3.35,74.93-15.06,110.91-27.96,4.26-1.53,8.61-5.4,11.15-9.06,1.19-1.71,3.46-6.1-.76-5.26-34.69,6.87-69.13,14.51-103.67,22.08-4.44,.97-7.98,5.36-10.39,8.97-.87,1.3-5.28,8.42-1.47,8.67,5.74,.38,9.44-1.45,14.09-4.66,2.9-2.01,5.45-5.68,6.84-8.89,.34-.79,2.26-6.08-.34-5.44-2.78,.69-5.87,1.08-8.72,1.35l-10.52,17.31c32.95-11.31,67.61-19.31,102.03-24.5l12.16-14.89c-35.67,10.98-71.69,21.52-108.94,25.35l-12.37,16.93c24.1-4.22,47.92-9.63,71.59-15.82,24.46-6.4,49.05-13.04,72.98-21.21,3.7-1.26,7.87-4.16,10.03-7.47,1.82-2.79,.88-4-2.33-3.13-15.33,4.11-30.73,7.93-45.89,12.68-14.37,4.5-28.6,9.41-43.12,13.37-14.08,3.85-28.32,7.12-42.7,9.64-15.65,2.75-31.46,4.38-47.14,6.87-1.77,.28-5.77,6.67-3.64,6.76h0Z"/><path class="cls-2" d="M630.56,425.03c8.07-.35,16.4-2.63,24.37-3.99s15.26-2.5,22.9-3.68c16.28-2.5,32.63-4.54,49.01-6.33s31.93-3.09,47.94-4.05c14.95-.9,32.5,.05,46.27-6.72,.95-.47,8.74-7.62,6.07-7.79-3.83-.25-7.82,.87-11.6,1.37-4.11,.55-8.26,.89-12.4,1.17-7.76,.53-15.55,.75-23.32,1.16-16.41,.87-32.8,2.15-49.15,3.85s-32.4,3.92-48.51,6.49-32.34,4.47-47.31,9.57c-1.83,.62-6.96,9.06-4.28,8.94h0Z"/><path class="cls-2" d="M637.41,432.79c-1.9-.66-6.17-1.2-7.08-3.26l-4.62,7.68c4.93,1.05,11.38-1.72,16.24-2.85,6.07-1.41,12.15-2.74,18.24-4.04,12.35-2.64,24.7-5.18,37.16-7.26s24.33-3.71,36.56-5.05c13.07-1.44,26.31-2.38,39.23-4.91,2.44-.48,10.83-10.08,7.54-10.43-12.56-1.34-25.63,.18-38.13,1.65-12.86,1.51-25.67,3.39-38.42,5.64-12.42,2.19-24.83,4.63-37.08,7.61-6.37,1.55-12.7,3.29-19,5.07s-13.38,3.25-18.95,6.74c-1.65,1.03-2.97,3.37-3.44,5.22-.17,.67-.64,3.72,1.03,2.42,3.24-2.53,6.15-2.17,9.67-1.02,.76,.25,1.83-2.95,1.06-3.22h0Z"/><path class="cls-2" d="M632.96,420.24c-9.88,9.5-17.22,20.99-22.38,33.64-1.76,4.29,1.91,3.34,3.72,.67,5.66-8.36,12.37-16.62,20.94-22.16l3.07-8.55c-8.89,5.98-16,14.09-21.95,22.94-1.18,1.75-4.06,8.93,.6,5.89,10.77-7.03,20.71-15.13,29.81-24.22,.81-.81,7.09-10.74,3.65-10.06-4.98,.98-9.32,2.91-13.44,5.86l2.32,3.42c.66-1.43,1.33-2.86,1.99-4.29,.34-.74,1.55-3.52,.34-4.18-1.72-.94-2.92-.82-4.65,.02-2.7,1.32-4.82,4.32-6.11,6.92-.33,.67-2.44,5.68-.06,5.16,1.04-.22,2.08-.45,3.12-.68l3.96-10.49c-4.49,4.12-8.43,8.77-11.72,13.9-.5,.78-4.75,7.35-1.58,7.59,5.8,.44,11.17-.36,16.69-2.12l5.28-11.82c-6.92,3.53-13.88,7.01-20.82,10.5-2.99,1.5-5.41,4.84-6.67,7.87-.73,1.76-1.73,5.13,1.32,4.23,26.81-7.96,54.08-14.01,81.17-20.86l6.96-13.6c-12.7,3.98-25.59,7.37-38.33,11.23s-25.16,8.39-38.02,11.33c-3.45,.79-6.02,5.5-7.41,8.41-.5,1.05-3.26,7.64-.12,7.22,20.06-2.72,40.16-8.28,59.8-13.21,19.69-4.95,39.84-8.75,59.11-15.21,4.14-1.39,7.85-5.06,10.41-8.46,.85-1.14,4.93-6.68,1.61-7.15-3.5-.49-6.71,.75-9.89,2.1s-6.41,4.58-8.39,7.38c-.45,.63-3.45,5.38-.87,5.22,2.13-.13,3.78,.5,5.81,1.1l13.34-15.8c-21.56,2.35-42.73,7.79-63.87,12.44-10.1,2.23-20.15,4.72-30.16,7.34s-20.54,5.04-30.43,9.04l-5.41,14.79c11.94-5.33,24.79-8.91,37.25-12.8,12.79-3.99,25.62-8.09,38.6-11.37,3.13-.79,6.16-5.25,7.61-7.81,.41-.72,3.22-6.58,.43-6.05-28.42,5.41-56.31,13.9-83.86,22.63l-5.35,12.1c6.96-3.6,13.91-7.22,20.89-10.78,2.91-1.49,5.27-4.76,6.52-7.72,.7-1.65,1.74-5.05-1.23-4.1-4.86,1.56-9.78,1.96-14.84,1.57l-1.58,7.59c2.01-3.09,4.21-5.66,6.95-8.14,1.95-1.77,3.7-4.36,4.57-6.82,.21-.6,1.28-4.11-.61-3.67-1.06,.25-2.11,.5-3.16,.75l-6.17,12.08,1.51,.1,.34-4.18c-.64,1.42-1.29,2.84-1.93,4.26-1.1,2.43-1.02,5.84,2.32,3.42,2.99-2.17,6.16-3.56,9.78-4.33l3.65-10.06c-8.54,8.66-17.85,16.36-27.95,23.14l.6,5.89c4.29-6.79,9.76-12.25,15.92-17.36,1.66-1.38,3.56-4.05,3.75-6.26,.16-1.8-.44-2.61-2.12-1.27-9.92,7.97-18.68,16.31-25.78,26.97l4.54-.57c3.34-9.17,8.56-17.25,15.33-24.26,1.18-1.22,3.06-3.46,2.99-5.28-.05-1.3-.28-2.34-1.71-.97h0Z"/><path class="cls-2" d="M630.05,453.98c4.88-2.02,10.69-2.02,15.9-2.9s10.53-1.87,15.77-2.93c10.83-2.18,21.66-4.45,32.4-7.03s21.05-5.09,31.45-8.08c11.42-3.28,23.56-6.12,34.19-11.55,1.09-.56,8.08-8.07,5.35-8.15-5.05-.14-10.22,1.45-15.09,2.6-5.33,1.26-10.66,2.56-15.98,3.83-10.89,2.61-21.73,5.39-32.62,7.97-10.66,2.53-21.31,5.09-31.99,7.51-5.52,1.25-11.05,2.46-16.56,3.75-2.93,.69-5.88,1.31-8.81,2.04-3.19,.79-6.76,2.32-10.09,2.08-2.28-.16-3.75,3.78-4.33,5.4-.11,.31-1.8,6.37,.41,5.45h0Z"/><path class="cls-2" d="M810.45,403.68c-1.73-.69-2.84-1.57-4.35-2.63l-4.98,9.18c8.01,.46,16.71-1.65,24.69-2.53,8.34-.93,16.68-1.83,25.02-2.65,16.63-1.65,33.28-3.1,49.96-4.1,16.62-.99,33.28-1.65,49.93-1.99,8.31-.17,16.61-.2,24.92-.27s16.88,.96,24.7-.99c1.37-.34,11.23-6.41,8.51-7.58-3.96-1.7-8.84-1.53-13.09-1.72-3.95-.18-7.91-.35-11.86-.47-8.65-.27-17.31-.32-25.96-.3-16.92,.04-33.83,.54-50.72,1.48-16.84,.94-33.67,2.21-50.43,4.06-8.51,.94-17.02,2.01-25.49,3.25s-17.56,1.94-25.67,4.57c-2.05,.67-3.5,3.16-4.38,4.99-.26,.54-1.93,4.62-.11,4.26,1.78-.59,3.59-.6,5.42-.03,1.87,.66,5.27-5.97,3.91-6.52h0Z"/><path class="cls-2" d="M818.51,399.72c31.22-2.61,62.39-5.27,93.75-5.38,15.4-.05,30.83,.31,46.22,1.04,16.37,.77,32.89,3.07,49.27,2.64,1.48-.04,7.6-4.9,5.98-5.42-14.71-4.67-31.47-4.88-46.78-5.9-16.07-1.07-32.15-1.51-48.26-1.39-32.31,.24-64.79,2.08-96.65,7.69-1.87,.33-4.95,6.85-3.52,6.73h0Z"/><path class="cls-2" d="M642.77,419.12c88.94-19.37,179.01-30.66,270.14-30,26.03,.19,52.08,1.16,78.07,2.52,1.81,.09,3.79-1.56,5.03-2.72,.32-.3,2.99-3.12,1.5-3.28-90.93-9.78-184.1-4.48-274.18,10.44-25.93,4.3-51.63,9.64-77.08,16.19-2.09,.54-4.91,7.16-3.48,6.85h0Z"/><path class="cls-2" d="M629.98,410.79c10.55-.81,20.95-3.32,31.37-5.11,10.96-1.89,21.97-3.53,32.99-5.09,21.83-3.08,43.77-5.34,65.75-6.91,43.41-3.1,87-3.55,130.5-2.56,25.11,.57,50.2,1.67,75.3,2.42,2.43,.07,7.88-6.43,6.44-6.56-87.83-7.85-177.73-7.61-265.22,3.97-12.2,1.61-24.34,3.54-36.43,5.79-12.96,2.41-26.14,4.68-38.6,9.11-1.06,.38-3.51,5.04-2.1,4.93h0Z"/><path class="cls-2" d="M840.05,411.16c-1.35-.03-4.73,.44-5.27-1.51l-4.24,6.17c7.3-.27,14.67-1.9,21.92-2.8,6.83-.84,13.69-1.5,20.54-2.17,14.82-1.46,29.7-2.26,44.58-2.71,14.63-.44,29.28-.48,43.92-.32,14.68,.16,30.73,2.05,45.19-.89,.89-.18,6.38-3.77,4.83-4.52-5.77-2.76-14.33-2.13-20.62-2.38-7.44-.31-14.87-.57-22.31-.74-14.91-.33-29.83-.44-44.75-.14s-29.79,1.1-44.63,2.5c-14.82,1.41-30.75,3.03-44.96,7.63-1.61,.52-3.3,2.72-3.82,4.29-.39,1.17-.74,3.11,1.11,1.72,2.44-1.83,4.8-1.99,7.58-2.46,.43-.07,1.37-1.67,.93-1.68h0Z"/><path class="cls-2" d="M855.07,404.16c.44,0,1.08-1.61,.7-1.61-.44,0-1.08,1.61-.7,1.61h0Z"/><path class="cls-2" d="M854.9,402.59c-4.74,1.18-9.5,2.34-14.33,3.09-4.29,.67-7.96,2.13-10.68-1.95l-4.11,5.94c4.35,.96,8.5,2.08,12.56,3.93l5.38-7.93c-9.51-1.08-18.92-2.36-27.45-6.96-6.94-3.74-13.51-7.92-21.36-4.21-1.2,.57-7.31,8.37-4.99,9.04,7.55,2.17,15.06,4.45,22.58,6.75,6.56,2.01,13.12,3.88,18.84,7.8l6.64-8.82c-8.9-2.5-17.79-5.04-26.68-7.58-7.47-2.14-14.62-4.25-21.4-8.13-2.18-1.25-7.77,8.2-5.58,9.84,6.11,4.58,13.71,6.25,20.97,8.07,8.85,2.23,17.7,4.48,26.55,6.76,2.12,.55,8.56-7.53,6.64-8.82-5.85-3.94-12.53-5.82-19.21-7.85-7.75-2.35-15.48-4.71-23.19-7.19l-4.99,9.04c8.34-3.41,16.46,3.4,23.89,6.13s15.79,3.5,23.82,4.17c2.11,.18,6.84-7.49,5.38-7.93-4.78-1.42-9.57-2.28-14.58-2.11-1.29,.05-5.2,5.05-3.79,6,2.33,1.57,8.93-.65,11.52-1.16,5.44-1.07,10.88-2.05,16.29-3.26,.84-.19,1.7-2.76,1.3-2.66h0Z"/><path class="cls-2" d="M779.98,398.84c6.97,.9,14.36,.01,21.36-.34,7.49-.38,14.96-.87,22.44-1.36,15.44-1.01,30.86-1.94,46.24-3.53,2.39-.25,6.52-8.13,4.72-8.07-15.19,.53-30.32,1.74-45.48,2.86s-31.43,1.03-46.26,4.52c-1.21,.29-4.23,5.77-3.03,5.93h0Z"/><path class="cls-2" d="M810.29,399.8c33.13-5.27,66.97-7.91,100.49-8.58,16.67-.33,33.34-.03,50,.68,17.13,.73,34.2,2.73,51.34,3.09,1.97,.04,8.35-5.77,6.73-6.14-16.52-3.71-33.78-4.43-50.66-5.3s-34.92-1-52.38-.53c-34.74,.93-68.97,4.76-103.21,10.55-1.74,.3-3.64,6.43-2.31,6.22h0Z"/><path class="cls-2" d="M1010.29,394.98l-.35-1.14c.53-2.58-2.71-.97-3.6-.33-1.67,1.21-4.5,4.21-4.45,6.52,.2,8.95,5.82,16.32,11.63,22.69s13.92,14.82,23.02,15.98c2.35,.3,9.08-4.26,7.39-7.09-2.28-3.79-6.46-6.17-9.9-8.84s-6.66-5.34-9.73-8.33c-6.41-6.24-11.71-12.75-14.38-21.38l-5.43,7.97,1.37-.66-1.57,.22,.93,.59c1.98,1.24,6.73-5.17,5.08-6.19h0Z"/><path class="cls-2" d="M1021.93,394.13l.35-4.26c.32-.61,.84-2.57-.47-2.6-1.44-.04-2.89-.07-4.33-.11-3.03-.08-9.23,4.73-8.58,8.16,1.49,7.82,15.32,8.2,21.36,8.37l8.55-10.13c-4.46,.44-8.93,.34-13.37,.74l1.24,3.08c1.79-3.3,1.9-6.39-.65-9.27s-10.41,5.01-10.07,7.74c.91,7.17,2.81,14.25,5.99,20.76,2.81,5.75,7.14,14.03,13.26,16.66,3.01,1.29,11.89-4.48,11.21-7.96l-.31-1.59c-.86-4.38-10.22,3.1-10.88,5.26l-.66,2.13,11.64-6.55c-1.28-2.98-4.08-5.12-6.12-7.61-2.25-2.74-4.28-5.65-6.07-8.71-3.58-6.12-6.18-12.56-7.72-19.48l-10.07,7.74c.4,.38,2.11,2.41,1.55,3.2s-2.5,3.85-.46,4.26c4.51,.92,9.4,.35,13.92-.25,3.12-.41,6.29-3.19,8.06-5.66,1.14-1.6,2.61-4.51-.48-4.48-4.88,.05-18.47,.51-20.48-5.5l-8.58,8.16c3.39-.08,5.6-.69,7.45,2.61,.69,1.22,5.4-3.14,4.72-4.7h0Z"/><path class="cls-2" d="M1032.42,395.6l-6.97-1.28c-.59-.11-1.81,1.38-1.38,1.45l7.08,1.16c.53,.09,1.69-1.26,1.27-1.34h0Z"/><path class="cls-2" d="M1019.08,391.55c-1.79-1.49-3.83-2.82-4.58-5.21l-4.79,4.14c7.46,2.23,16.1,2.59,23.86,2.59,1.99,0,7.96-5.74,5.79-6.09-8.31-1.35-17.3-1.85-25.7-1.11-1.46,.13-5.29,4.57-3.94,4.62,3.08,.1,5.15,1.16,7.9,2.47,.42,.2,1.84-1.1,1.47-1.4h0Z"/><path class="cls-2" d="M1027.18,395.09c2.58,2.18,3.11,3.66,6.61,4.58,1.67,.44,8.31-3.95,6.63-5.73-1.12-1.18-2.24-2.33-3.43-3.44-2.14-2.01-7.23,3.23-7.9,4.99-3.7,9.73,12.76,2.58,9.57-3.31-.34-.32-.74-.44-1.22-.35h-.59c-2.94-.03-7.15,3.71-7.62,6.56-1.32,8.05-.02,16.02,2.76,23.62l9.35-7.3c-6.84-7.1-3.32-18.07,4.16-22.9,9.31-6.01,20.08-10.29,30.1-14.96,21.87-10.19,44-19.84,65.99-29.78,1.55-.7,4.17-2.48,4.68-4.21,.4-1.35,.07-2.23-1.68-1.53-26.86,10.75-53.5,21.99-79.59,34.51-10.93,5.25-22.89,10.25-31.03,19.6-6.48,7.44-9.88,18.95-1.98,26.57,2.48,2.4,10.53-4.3,9.35-7.3-2.84-7.2-3.46-14.32-3.08-21.98l-7.62,6.57-.34-.41,6.37-5.48,.36-1.74-7.9,4.99c1.52,1.07,3.08,2.05,4.66,3.03l5.64-6c-2.28-.12-5.92-.63-7.7-2.14-1.3-1.1-5.51,2.75-4.56,3.56h0Z"/><path class="cls-2" d="M1033.38,388.64c-3.32,1.16-6.87,2.42-10.43,2.36l-4.13,6.48c49.93-23.31,100.19-45.55,150.95-67.01,1.96-.83,8.66-5.91,2.8-5.49-13.89,1-27.54,8.89-40.17,14.3-12.61,5.41-25.13,11.05-37.36,17.27-12.73,6.48-25.23,13.51-37.05,21.55-10.81,7.35-23.59,15.62-31.11,26.54-1.15,1.67,.6,2.21,1.91,2.25,2.28,.07,5.34-1.56,7.06-2.9,9.69-7.5,18.44-16.05,28.39-23.25,9.73-7.05,20.05-13.28,30.64-18.95,10.81-5.79,21.92-11.02,33.11-16.02,5.62-2.51,11.26-4.96,16.91-7.38s12.88-6.9,19.03-6.46l5.65-6.21c-25.27,8.94-49.89,19.45-74.35,30.38-25.04,11.19-49.92,22.78-74.21,35.51-1.42,.75-5.61,3.26-5.37,5.31,.26,2.27,2.98,.71,4.28-.06,3.65-2.17,7.6-3.84,11.59-5.28,.99-.36,4.02-3.7,1.85-2.94h0Z"/><path class="cls-2" d="M1052.09,381.18c-7.93,5.35-15.04,12.77-18.78,21.69-.92,2.2-1.84,6.29,1.75,6.32,3.85,.03,8.28-4.74,10.7-7.19,3.14-3.18,0-3.65-2.63-1.57-3.12,2.46-2.5-.8-1.58-2.76,.7-1.49,1.51-2.94,2.41-4.32,2.07-3.17,4.71-5.74,7.73-8,.91-.68,3.11-2.61,2.89-3.96s-1.58-.83-2.51-.21h0Z"/><path class="cls-2" d="M1054.86,387.25c-9.9,6.4-17.8,15.13-23.4,25.49-2.52,4.66,4.26,1.35,5.66,.27,16.09-12.39,32.22-24.69,48.81-36.43,1.56-1.1,5.78-3.99,5.15-6.39s-4.33-.32-5.52,.38c-11.35,6.72-22.14,14.12-32.21,22.66-8.98,7.62-21.09,16.55-23.93,28.61-.91,3.87,3.39,3.12,5.74,1.95,13.23-6.58,24.31-16.03,35.55-25.47,11.85-9.96,23.61-20.02,35.52-29.92,1.5-1.25,5.71-5.31,4.01-7.73s-6.91,.18-8.63,1.16c-14.58,8.35-28.37,18.36-41.03,29.4-11.04,9.63-26.36,21.53-28.84,36.85-.97,5.95,13.07-2.57,13.97-3.29,26.44-20.96,52.74-42.11,79.01-63.28,1.73-1.39,6.56-5.89,3.91-8.26s-8.87,1.6-11,2.88c-27.83,16.57-53.41,37.29-75.28,61.17l13.29,.51c8.63-9.55,15.58-20.3,19.35-32.69,2.42-7.94-11.81-.95-13.95,.83-10.92,9.12-19.41,20.26-24.42,33.63l18.33-8.71c.25-3.45,.5-6.9,.75-10.35s-5.71-1.61-7.02-1.07c-4.07,1.69-7.85,4.73-10.28,8.41-5.89,8.9-7.84,20.92-.48,29.55,3.99,4.68,19.9-5.9,17.03-11.38-3.56-6.78-4.98-15.66-.36-22.27l-17.3,7.34c-.32,3.33-.64,6.66-.95,9.98-.38,4.01,6.94,1.23,8.2,.64,4-1.9,8.41-5.1,10.13-9.35,3.45-8.52,8.66-16.25,15.8-22.12l-13.95,.83c-3.42,10.4-8.45,19.7-15.69,27.94-2.38,2.71-1.41,5.46,2.23,5.24,4.36-.26,9.73-3.28,12.6-6.47,18.7-20.78,40.08-38.93,64.24-53.07l-4.58-6.87c-26.39,21.08-52.75,42.18-78.97,63.47l13.97-3.29c.89-5.79,5.34-9.83,9.26-13.81,4.13-4.19,8.47-8.16,12.95-11.97,9.11-7.77,18.89-14.49,29.14-20.66l-4.62-6.56c-10.19,8.85-20.49,17.57-30.74,26.35-8.92,7.64-17.58,15.82-27.77,21.78l6.91-1.96-1.39-.54,.93,2.8c2.12-8.17,11.39-14.74,17.52-19.93,7.35-6.21,15.22-11.98,23.44-16.99l-.36-6.01c-17.49,12.47-34.78,25.3-51.35,38.98l5.66,.27c3.56-7.54,8.6-14.02,15.29-19.04,2.57-1.93,4.27-6.5-.31-3.55h0Z"/><path class="cls-2" d="M1036.96,423.67c-1.95-1.62-4.6-4.19-5.08-6.84-.13-.73-.67-.95-1.37-.95h-.49c-3.03-.01-6.33,3.16-7.42,5.76-1.86,4.42,2,11.51,3.84,15.63,2.56,5.73,5.88,11.16,9.98,15.91,3.07,3.55,15.4-5.37,12.7-9.02-4.77-6.44-9.69-12.75-14.61-19.08-2.94-3.78-15.59,5.13-12.96,9.15,3.36,5.14,6.45,10.44,9.8,15.59,2.63,4.06,5.07,8.76,10.56,8.39l-2.26-.78c1.17,1.53,1.7,3.28,2.79,4.84,3.22,4.58,13.32-5.89,13.96-8.95s.15-5.32-2.21-7.53c-1.02-.96-2.64-.93-3.9-.5l-1.38,.47,2.89-.12c-4-.81-6.7-6.15-9.03-9.21-2.82-3.72-5.69-7.44-8.25-11.34l-12.96,9.15c4.91,6.35,9.82,12.7,14.87,18.94l12.7-9.02c-4-4.04-7.73-8.22-10.87-12.98-2.27-3.45-7.16-9.98-6.74-14.27l-3.13,4.52,.61-.47-4.03,1.82c2.3,.06,4.69,3.65,5.72,5.32,1.33,2.15,7.75-3.21,6.28-4.42h0Z"/><path class="cls-2" d="M1031.98,406.12l-.57,.07,1.14,.69c-.94-2.71,13.59-11.13,15.69-12.42,6.12-3.76,12.53-6.99,19.02-10.06,12.69-5.99,25.64-11.37,38.02-18.02,1.58-.85,5.18-3.32,5.14-5.45s-2.27-1.61-3.83-.93c-28.59,12.61-55.46,27.97-81.98,44.42-1.77,1.1-7.57,5.4-5.77,8.1s8.15-1.23,9.71-2.16c12.84-7.7,25.81-15.09,39.27-21.7l.45-9.07c-13.25,7.39-26.85,14.16-40.84,20.02l1.99,7.58c6.41-5.22,12.78-10.5,19.16-15.76,1.45-1.19,5.02-4.36,4.59-6.67s-2.68-2.34-4.58-1.75c-13.86,4.31-25.87,11.8-35.99,22.2-1.37,1.41-3.82,4.74-1.81,6.44s6.55-.71,8.4-1.63c9.07-4.52,17.69-9.84,25.87-15.82,2.25-1.65,6.39-4.91,6.55-8,.14-2.69-2.12-3.22-4.56-2.42-8.3,2.69-14.86,7.63-20.97,13.75-1.16,1.16-2.32,2.3-3.52,3.42,1.41-1.31,1.86-.35,.33-.87-2.8-.95-5.34-1.46-6.28-4.79l-17.36,12.86c5.03,10.2,12.8,17.99,23.98,20.87,4.82,1.24,19.57-10.89,13.68-13.96-8.74-4.57-16.75-11.76-20.72-20.9-2.04-4.7-18.47,7.75-17.36,12.86,1.86,8.56,11.7,9.05,18.53,6.5,5.29-1.97,9.94-5.25,14.19-8.92,1.64-1.42,3.16-2.96,4.69-4.49,.74-.74,1.69-1.46,2.33-2.28,.79-1.03,1.59-.76-.48-.07l1.99-10.42c-6.6,4.84-13.54,9.01-20.85,12.69l6.59,4.81c3.74-3.83,8.41-6.67,13.51-8.32v-8.42c-6.31,5.25-12.65,10.48-18.95,15.76-1.6,1.34-5.34,4.59-4.49,7.06s4.84,1.25,6.49,.52c16.34-7.26,32.21-15.24,47.77-24.06,2-1.13,7.39-5.08,6.38-8.01s-6.5-.63-8.22,.23c-14.98,7.45-29.71,15.56-43.65,24.83l3.94,5.94c23.3-17.22,49.05-31.33,75.39-43.31l1.31-6.37c-15.35,8.24-31.64,14.55-46.98,22.81-7.35,3.96-14.59,8.36-21.08,13.63-3.29,2.67-13.69,9.41-10.95,14.6,.27,.25,.59,.34,.96,.27l.63-.13c1.75-.36,3.56-1.62,4.53-3.14,.49-.78,1.48-2.85-.36-2.62h0Z"/><path class="cls-2" d="M914.44,397.73c-3.23,5.43,13.25,3.07,14.98,2.97,9.55-.53,19.11-1.12,28.66-1.73,19.79-1.26,39.76-1.96,59.46-4.28l-3.63-.85c-.46,2.48,.98,2.44,4.31-.13-1.02-.15-8.7,1.51-6.84,3.19,4.16,3.77,14.99-1.74,14.76-7.05-.03-.78-1.93-.92-2.28-.92-16.79,0-33.71,1.78-50.46,2.92-8.02,.54-16.04,1.05-24.05,1.64-4.03,.3-8.06,.59-12.09,.89-1.08,.08-14.49,.68-14.47,.63,.64-1.58-3.08-.69-3.38-.6-1.76,.51-4.01,1.68-4.98,3.3h0Z"/><path class="cls-2" d="M940.74,401c-1.03-.56-3.6-1.37-3.27-3.06l-8.18,4.08c14.86,3.44,30.45,1.43,45.54,1.11,7.84-.17,15.49,.29,23.25,1.38,7.28,1.02,14.51,.41,20.9-3.59,3.48-2.18,3.36-4.88-1.32-4.1l-3.14,.52c-1.2,.2-7.53,1.97-6.92,4.3l2.19,.88-2.19-.88,.16,.62,4.41-3.94c2.27-1-.56-.47-1.71-.62-1.46-.19-2.91-.46-4.37-.66-2.95-.4-5.91-.66-8.88-.84-6.67-.41-13.37-.29-20.04,0-13.59,.58-27.11,1.4-40.72,.71-2.32-.12-5.22,.95-6.91,2.53-1.26,1.17-1.99,2.86,.6,2.6,2.25-.05,4.37,.41,6.34,1.37,1.16,.48,5.3-1.83,4.25-2.4h0Z"/><path class="cls-2" d="M638.97,264.4c.79-.82,1.18-1.21,1.45-2.31,.09-.33,0-.59-.29-.79-9.42-4.27-17.74,13.12-20.89,19.24l9.8-1.99c1.85-3.78,4.13-7.07,6.95-10.19l-10.14,1.38c-1.15,3.04-2.29,6.08-3.42,9.12-1.26,3.41,8.81,.03,9.73-.67,2.02-1.54,4.04-3.07,6.06-4.61l-9.89,.62c-.46,2.77-.92,5.54-1.37,8.32-.69,4.16,9.65-.12,10.83-1.25,2.08-1.99,3.94-4.09,5.65-6.4l-11,1.2c-.5,2.7-1.01,5.4-1.51,8.09-.73,3.89,9.11,.51,10.34-.45,2.89-2.26,5.38-4.68,7.57-7.63l-11.34,1.73c.27,2.43,.54,4.85,.81,7.28,.38,3.37,10.35-.1,11.46-1.68,1.52-2.15,2.93-4.34,4.23-6.62l-12.06,2.24c.53,1.78,1.06,3.55,1.59,5.33,1.15,3.87,10.81,0,12.19-2.07,1.09-1.64,2.18-3.28,3.27-4.92l-12.29,2.02c.73,2.18,1.46,4.36,2.2,6.54,1.16,3.44,11.41,.77,12.41-1.95,1.08-2.91,1.73-5.73,2.16-8.81l-12.62,2.55c.87,1.65,1.75,3.3,2.62,4.95,1.66,3.13,11.38,1.3,12.52-1.79,.56-1.54,1.13-3.08,1.69-4.62l-12.52,1.73c.73,1.3,1.47,2.6,2.2,3.9,1.57,2.77,11.9,1.66,12.51-1.68,.29-1.59,.39-2.66-.12-4.24-1.09-3.42-13.34-.99-12.61,2.31s1.53,6.55,3.53,9.43c1.52,2.19,11.84,.53,11.41-2.59s-1.65-6.08-2.32-9.15l-12.61,2.31c.43,.93,.54,1.9,.33,2.93l12.51-1.68c-.73-1.32-1.47-2.64-2.2-3.96-1.71-3.07-11.37-1.42-12.52,1.73-.57,1.56-1.14,3.12-1.7,4.68l12.52-1.79c-.87-1.67-1.75-3.35-2.62-5.02-1.77-3.39-12.12-1.09-12.62,2.55-.36,2.61-.99,5.05-1.86,7.53l12.41-1.95c-.77-2.2-1.55-4.4-2.32-6.6-1.34-3.79-10.86-.23-12.29,2.02-1.06,1.66-2.12,3.32-3.17,4.98l12.19-2.07c-.58-1.83-1.15-3.67-1.73-5.5-1.15-3.66-10.87-.04-12.06,2.24-.98,1.87-1.97,3.62-3.16,5.36l11.46-1.68c-.31-2.44-.63-4.88-.94-7.32-.43-3.36-10.23,.18-11.34,1.73-1.71,2.38-3.56,4.47-5.85,6.31l10.34-.45c.46-2.72,.92-5.43,1.37-8.15,.65-3.87-9.8-.48-11,1.2-1.67,2.32-3.47,4.44-5.5,6.46l10.83-1.25c.39-2.79,.78-5.57,1.16-8.36,.53-3.78-8.69-.33-9.89,.62-1.97,1.56-3.95,3.12-5.92,4.67l9.73-.67c1.04-3.04,2.06-6.09,3.09-9.14,1.12-3.35-9.06,.12-10.14,1.38-2.96,3.47-5.25,7.22-6.99,11.44-.9,2.19,8.59,.78,9.8-1.99,1.32-3.04,2.77-6,4.51-8.83,.71-1.16,1.46-2.29,2.23-3.4,.3-.43,2.49-2.89,1.59-2.49l-4.71,.91,1.21,.75c.66,1.47,4.4-.38,5.09-1.09h0Z"/><path class="cls-2" d="M556.5,502.99c-8.85,3.47,1.76,7.77,5.96,9.05,1.36,.41,9.83-1.5,7.37-3.77-1.72-1.58-3.44-3.17-5.17-4.75l-8,3.94c2.51,.53,5.02,1.01,7.54,1.5,1.77,.34,9.56-.09,8.82-3.39-.45-1.98-1.29-2.9-3.04-3.86l-6.88,4.67c1.39,.16,3.68,1.11,5.82,.83,2.55-.33,4.59-1.12,6.36-2.95,.41-.38,.59-.85,.56-1.4l-.22-.75-10.31,2.98c5.23,3.2,12.32,2.78,16.49-1.94l-3.33,1.71,2.66-.9-7.2,.59,1.78,.54c2.57,1.26,9.44,1.25,10.77-2.08,.58-1.45,.78-2.71,.67-4.27l-10.99,2.74c4.39,2.38,12.94,3.02,15.53-2.4l-11.69,1.3c1.97,2.8,4.1,3.74,7.35,4.49,1.68,.39,11.52-1.39,7.47-4.26-1.3-.92-2.35-1.67-3.29-2.97-1.96-2.73-10.36-1.74-11.69,1.3l.31-.03,7.27-1.27-1.25-.15c-2.12-1.15-11.38-1.27-10.99,2.74,.25,.99,.13,1.96-.33,2.89l10.77-2.08c-2.84-1.4-5.73-2.09-8.92-1.43-1.32,.27-2.83,.66-3.99,1.38-3.99,2.47,5.4,1.96,1.95-.03-1.7-.98-11.53-.48-10.31,2.98l.17,.12,4.62-2.04-1.05,.21,5.01,.43c-1.81-.68-3.29-1.29-5.22-1.48-1.46-.14-11.22,2.45-6.88,4.67l1.34,1.7,8.82-3.39c-2.66-.47-5.31-.94-7.97-1.37-1.12-.18-10.96,1.6-8,3.94,1.97,1.55,3.94,3.11,5.9,4.66l7.37-3.77c-2.24-.55-7.5-1.26-8.06-4.04l-3.75,2.4,.63-.05c.94-.08,4.39-.96,3.99-2.57s-3.82-.74-4.73-.38h0Z"/><path class="cls-2" d="M923.77,315.01c.81-.16,1.37-.22,1.68-1.02,.71-1.82-5.1-2.45-6-2.35-4.4,.46-8.67,5.36-11.64,8.32-2,2,7.08,4.77,9.09,3.38,3.63-2.52,7.27-5.03,10.91-7.54l-9.68-3.97c-2.1,2.17-3.68,4.45-5.04,7.16s8.31,4.56,9.82,3.99c3.29-1.23,6.08-2.77,8.78-5.04l-11.04-3.67c-.63,2.27-1.25,4.53-1.89,6.8-.89,3.12,7.66,4.46,9.44,4.31,2.17-.18,3.77-.63,5.33-2.16l-11.37-3.87c-.32,1.91-.64,3.82-.97,5.73-.61,3.62,9.43,5.59,11.61,4,1.49-1.09,2.69-2.24,3.83-3.69l-11.83-4.12c-.23,2.33,0,4.26,.98,6.41,1.11,2.45,9.96,6.32,11.99,3.55l1.64-2.24-12.09-3.61c1.26,5.64,11.2,10.48,16.38,7.48,2.37-1.37-4.1-4.09-4.47-4.21,1.03,.57,1.21,.26,.55-.92-.83-3.24-10.5-6.01-12.5-3.04l-1.55,2.3,12.4,3c-.89-1.84-1.25-3.01-1.11-5.15,.23-3.75-10.2-6.41-12.23-3.57-.95,1.33-1.97,2.27-3.22,3.27l11.61,4c.24-1.95,.47-3.9,.71-5.85,.39-3.24-9.43-5.95-11.37-3.87-.35,.72-.9,1.12-1.65,1.19l9.44,4.31c.57-2.3,1.15-4.6,1.73-6.9,.81-3.22-9.16-5.3-11.04-3.67-2.1,1.82-4.31,3.32-6.88,4.42l9.82,3.99c.99-2.41,2.16-4.38,3.85-6.38,2.08-2.46-7.59-5.62-9.68-3.97-3.44,2.71-6.88,5.42-10.33,8.12l9.09,3.38c2.37-3.11,5.04-6.82,8.33-9.02l-6.72-1.18-.06-.2c-.53,1.61,4.45,2.24,5.31,2.07h0Z"/><path class="cls-2" d="M359.27,448.23c-1.01,.91-1.52,1.71-1.78,3.04-.16,.83-.23,1.69-.05,2.53,.53,2.42,2.63,3.8,4.93,4.31,2.91,.64,6.44,.28,9.02-1.26,1.92-1.15,3.15-2.81,1.86-4.96-.86-1.42-3.65-1.36-5-1.21s-3.58,.56-3.8,2.18c-.04,.32-.26,.59-.44,.87-.1,.16-.2,.36-.32,.51,.19-.24-.03,0-.11,.1-.22,.29-.31,.1,0,.01,.33-.09,.63-.24,.98-.3,.24-.04,3.41-.01,3.52,.28-.03-.08-.34-.25-.42-.35-1.4-1.67-.98-3.51-1.42-5.45-.25-1.11-1.92-1.33-2.84-1.37-1.33-.07-3.1,.13-4.13,1.06h0Z"/><path class="cls-2" d="M369.28,448.54c.41-.38,.17-.3-.7,.26l-2.04,.29c-.6,.07-1.17,0-1.7-.21,.12,.08,.23,.16,.34,.26,.27,.43,.51,.78,.64,1.28,.29,1.09,.15,2.29,.07,3.39-.11,1.36,2.82,1.51,3.63,1.49,1.13-.03,3.31-.26,3.55-1.67,.4-2.29,.58-4.74-1.29-6.45-2.18-2-6.07-2.07-8.72-1.2-.75,.25-2.21,.72-2.19,1.76,.02,.7,.81,1.14,1.35,1.37,.96,.41,2.17,.53,3.2,.5,1.13-.03,3-.19,3.86-1.08h0Z"/><path class="cls-2" d="M478.25,420.77l.86-.99-4.31,.13c.31,6.3,.43,12.03-1.42,18.16-.51,1.69,5.27,1.29,5.76-.35,1.79-5.96,2.55-12.77,.56-18.77-.64-1.92-5.64,.38-4.75,1.21l.41,1.03c-.03,.87,2.62,.08,2.89-.42h0Z"/><path class="cls-2" d="M483.05,419.13c2.46,1.08,2.35,4.98,2.47,7.27,.16,2.91,.36,5.83,.35,8.74,0,1.25,4.1,.91,4.37-.32,1.04-4.8,2.47-14.85-3.39-17.18-1.04-.41-5.35,.81-3.79,1.49h0Z"/><path class="cls-2" d="M493.14,418.84c2.1,5.46,3.53,10.34,2.28,16.25-.26,1.21,4.52,1.24,4.96,.03,2.05-5.69,1.42-12.57-3.12-16.95-.7-.68-4.7-.84-4.11,.67h0Z"/><path class="cls-2" d="M503.01,420.28c.65,7.23,2.42,13.82,1.39,21.18-.17,1.21,4.19,1.22,4.54-.11,1.89-7.09,2.23-15.23-2.06-21.57-.51-.75-3.97-.66-3.87,.5h0Z"/><path class="cls-2" d="M472.13,427.25l.39-1.46-4.14,.08c-.75,5.8-.52,11.71-1.25,17.53-.16,1.31,5.37,1.36,5.52-.41,.48-5.66,1.09-11.83-.07-17.43-.3-1.44-4.71-.62-4.11,.53l.36,1.41c.04,.91,3.25,.73,3.29-.24h0Z"/><path class="cls-2" d="M816.99,435.59c1.37-.54,2.18-1.29,2.73-2.67,.76-1.92-5.14-2.24-6.02-1.92-5.39,1.95-9.8,7.35-12.09,12.45-.82,1.83,6.83,4.08,7.98,1.79,1.23-2.45,2.62-4.75,4.43-6.82,1.67-1.9,3.85-3.29,5.5-5.18l-6.1-.91c.6,.7,.74,1.43,.39,2.24-.42,.98,2.72,1.18,3.18,1h0Z"/><path class="cls-2" d="M827.87,422.39c.02-.33,.16-.62,.41-.85l-.67,.3,.5-.07c1.89-.26,.74-1.62-.28-2.07-1.27-.56-3.57-1.08-4.74-.1-1.02,.87-1.98,1.77-2.69,2.91-.29,.47-.63,.96-.84,1.47-.31,.77-.07,1.64,.06,2.46,.14,.86,2.08,1.39,2.72,1.53,.8,.18,2.48,.49,3.11-.22,.41-.46,.94-.89,1.29-1.39s.51-1.2,.76-1.77c.47-1.08,.92-2.2,1.5-3.22l-4.74-.1c.05,.24,.12,.48,.21,.71,.25,.76,3.18,1.37,3.39,.4h0Z"/></g><g><path class="cls-3" d="M359.19,479.01c-13.05-.51-26.12-2.15-38.9-4.85-5.52-1.17-11.55-2.11-15.9-6.01-1.54-1.38-2.86-3.39-2.02-5.62,.43-1.14,2.44-2.11,3.41-2.66,2.92-1.63,5.92-3.14,8.88-4.7,23.28-12.32,46.55-24.63,69.96-36.7,23.19-11.96,46.52-23.66,70.07-34.89,23.55-11.23,47.23-22.31,71.52-31.86,23.77-9.34,48.15-16.99,73.26-21.81,25.2-4.83,50.81-7.17,76.42-8.43,52.54-2.58,105.62-2.62,157.94,3.27s100.17,16.75,147.92,33.77c3.37,1.2,6.45,2.88,9.7,4.34,2.67,1.21,5.52,2.09,8.27,3.11,.65,.24,1.62-6.09-.17-6.76-3.05-1.15-6.08-2.45-9.26-3.18s-6.22-1.43-9.29-2.44c-6.22-2.04-12.47-4-18.75-5.86-12.59-3.74-25.24-7.29-37.99-10.44-25.53-6.3-51.41-11.21-77.48-14.64-54.18-7.12-109.11-7.41-163.63-5.12-26.73,1.12-53.49,3.27-79.84,8.06-26.05,4.73-51.33,12.47-75.97,22.1-49.96,19.53-97.94,44.4-145.52,69.04-24.2,12.54-48.29,25.31-72.35,38.12-3.62,1.93-8.38,3.62-8.86,8.31-.33,3.29,1.43,6.07,3.88,8.1,4.12,3.42,9.44,4.38,14.52,5.47,6.6,1.42,13.27,2.58,19.99,3.23s13.46,.94,20.21,.94c.48,0,.47-1.89-.05-1.91h0Z"/><path class="cls-3" d="M699.29,315.67c-.1-.02-.21,.02-.28,.09-.09,.08-.13,.15-.18,.26-.04,.08-.06,.17-.08,.25-.03,.16-.04,.3-.04,.46,0,.15,.02,.32,.06,.47,.06,.19,.15,.37,.35,.4,.05,0,.1-.01,.15-.03s.09-.05,.12-.08c.05-.04,.07-.09,.09-.15,.02-.08,.04-.17,.03-.25,0-.07-.01-.14-.03-.21-.01-.05-.05-.16-.11-.19-.04-.02-.08-.04-.11-.07l.05,.05s-.05-.05-.06-.08l.05,.08s-.02-.05-.03-.07l.04,.12s-.02-.07-.03-.11l.03,.15s0-.02,0-.03v.18s.01-.03,.01-.05v0c0-.09-.01-.18-.03-.27l-.02-.1,.03,.17s0-.05,0-.07l.02,.18s0-.04,0-.06v.19s0-.05,0-.07l-.03,.17s0-.04,.02-.07l-.04,.14s.02-.04,.03-.06l-.06,.11s.03-.05,.05-.07l-.07,.07s.05-.04,.09-.06l-.08,.03s.08-.01,.13,0c.05,0,.09-.02,.11-.06,.04-.04,.08-.09,.09-.15,.03-.07,.05-.15,.06-.23,.02-.09,.02-.18,.02-.27,0-.16-.02-.34-.1-.49l-.06-.11c-.04-.06-.09-.09-.15-.09h0Z"/><path class="cls-3" d="M894.97,331.3c1.29-.04,2.09-1.13,3.01-1.95,1.19-1.06,2.39-2.1,3.61-3.12,2.22-1.86,4.49-3.65,6.82-5.37,4.77-3.54,9.75-6.78,14.9-9.74,2.58-1.48,5.2-2.89,7.86-4.21,1.23-.61,2.47-1.21,3.72-1.79,1.38-.64,2.98-1.4,4.55-1.17,3.06,.45,2.99,3.74,2.91,6.13-.11,3.41-.15,6.83-.13,10.24,.02,3.77,.16,7.54,.41,11.3s.23,7.81,.97,11.59c.11,.55,.83,1.93,1.41,.9,.63-1.1,1.11-2.18,1.49-3.39,.12-.37,.31-2.1-.39-2.11-.81,0-1.34,.28-2,.75l1.35,2.48c-.18-3.63-.94-7.21-1.24-10.84s-.5-7.15-.63-10.73-.17-7.05-.12-10.57c.04-2.3,.01-5.01-1.33-6.99-1.66-2.46-4.51-1.83-6.84-.8-2.85,1.25-5.62,2.69-8.36,4.17-5.57,3-10.93,6.37-16.06,10.07-2.83,2.05-5.59,4.19-8.28,6.43-1.34,1.12-2.66,2.26-3.96,3.43-1.49,1.33-2.94,2.5-3.8,4.33-.07,.14-.18,.97,.12,.96h0Z"/><path class="cls-3" d="M985.77,357.43c6.02,2.72,12.51,2.01,18.78,.62,6.95-1.54,13.83-3.49,20.72-5.26,14.16-3.64,28.32-7.27,42.47-10.96,28.31-7.37,56.59-14.86,84.94-22.04,7.88-2,15.75-4.03,23.62-6.07s15.68-3.91,23.75-3.05l-.53-3.36c-2.39,8.13-11.65,11.1-18.39,14.69-3.75,2-7.5,4.18-10.41,7.34-3.62,3.93-5.38,9.04-5.86,14.29-.61,6.53,.87,13.58,4.95,18.83l.14-7.11c-1.97,1.86-4.6,1-6.65-.32-2.48-1.59-4.62-3.56-7.02-5.24-1.12-.78-2.29-1.38-3.56-1.86-1.61-.61-3.33-.03-4.8,.75-1.22,.65-2.31,1.61-3.43,2.43-1.47,1.08-2.94,2.16-4.41,3.24-11.64,8.54-23.27,17.07-34.9,25.62s-23.17,17.38-34.86,25.93c-4.79,3.5-9.79,7.22-11.82,13.05-2.44,7-1.07,14.76,1.84,21.38,1.48,3.37,3.3,6.58,4.99,9.85,1.57,3.03,3.11,6.49,3.99,9.34,.52,1.69,.96,3.4,1.33,5.13-.18-.87,.1,.55,.11,.59,.08,.43,.15,.87,.22,1.3,.13,.87,.25,1.75,.34,2.62,.05,.44,.11,.88,.13,1.32-.04-1.06-.01,.4,0,.49,.03,.88,.03,1.77,.02,2.65,0,.11-.07,1.57-.01,.5-.02,.44-.04,.87-.07,1.31-.07,1.02-.18,2.03-.31,3.04l2.67-3.56c-2.78-2.11-5.7-4.05-8.64-5.94s-5.82-3.99-8.66-6.1c-1.45-1.07-2.94-2.11-4.27-3.33s-2.72-2.63-4.17-3.82c-2.73-2.24-5.44-4.54-8.06-6.92-5.21-4.75-10.13-9.23-14.89-14.36s-8.96-10.32-12.75-16.01c-1.09-1.64-2.13-3.3-3.13-5-.22-.38-.44-.77-.66-1.15-.02-.04-.32-.59-.11-.19,.24,.44-.24-.45-.28-.53-.45-.84-.88-1.68-1.31-2.53-.85-1.71-1.65-3.44-2.39-5.2-.44-1.04-1.03-1.99-1.55-2.99-.22-.41-.43-.82-.64-1.23-.08-.15-.15-.31-.23-.47-.09-.19-.19-.37-.29-.55-.27-.44-.3-.52-.08-.23-.18-.51-.76-1.43-1.43-1.42s-1.18,.96-1.36,1.49c-.8,2.25-.59,4.79,.17,7.01l.13,.37-.56-2.17c1.16,7.99,5.3,15.4,9.46,22.19,3.65,5.96,7.9,11.53,12.55,16.75s10.08,10.4,15.56,15.12c2.69,2.32,5.48,4.51,8.31,6.66,1.38,1.05,2.74,2.09,4.2,3s3.02,1.79,4.43,2.85c3.2,2.39,6.51,4.65,9.66,7.1s6.56,5.06,10.06,7.26c1.78,1.12,2.6-2.66,2.67-3.56,.25-3.38,.29-6.76,.04-10.14l-.14-1.71c-.05-.57-.05-.59-.01-.05-.06-.64-.1-1.29-.16-1.93-.07-.73-.16-1.46-.26-2.19-.25-1.85-.6-3.68-.99-5.5-1.47-6.84-4.23-13.11-7.64-19.18-1.6-2.85-3.25-5.7-4.45-8.76-.1-.26-.2-.52-.3-.79,.02,.05-.42-1.24-.23-.62-.2-.65-.36-1.31-.5-1.98,.24,1.13-.09-1.9-.06-.38,0-.26-.02-.53-.02-.79,0,1.51,.28-1.12,.02,.02,1.13-5,5.91-8.44,9.92-11.42,11.15-8.25,22.5-16.23,33.68-24.45,11.22-8.24,22.43-16.49,33.64-24.75l4.81-3.54c1.41-1.04,2.82-2.38,4.4-3.14,2.63-1.28,5.92-.54,8.37,.8,2.61,1.43,4.88,3.62,7.87,4.2,2.52,.49,5.56,.05,7.39-1.89,.84-.89,.9-2.63,.86-3.77-.05-1.28-.18-2.72-1.04-3.72-1.39-1.61-2.44-3.57-3.03-5.61-.33-1.15-.39-1.62-.51-2.62-.13-1.11,0,.32-.03-.34-.01-.3-.02-.59-.02-.89,0,.15-.03,.51,0-.19,.02-.36,.03-.71,.07-1.06,.44-3.93,2.89-7.86,6-10.66,6.06-5.44,13.92-8.28,20.19-13.45,3.28-2.71,5.98-6.32,7.16-10.44,.17-.58,.44-3.26-.53-3.36-7.09-.72-14.1,.69-20.93,2.44-7.06,1.8-14.09,3.73-21.11,5.65-14.14,3.87-28.3,7.66-42.46,11.44-28.16,7.5-56.31,14.99-84.44,22.59-7.81,2.11-15.61,4.27-23.44,6.32-7.02,1.84-14.71,3.39-21.76,.8-.22-.08-.36,1.32-.03,1.47h0Z"/><path class="cls-3" d="M379.47,471.9c.34,.54,.82,.92,1.44,1.09,.57,.16,1.38,.41,1.92,.16,.46-.22,.31-1.91-.15-2.08-1.65-.6-3.93-.41-5.66-.27-1.88,.15-3.75,.51-5.56,1-1.64,.44-3.23,1.02-4.78,1.71-.86,.38-1.71,.8-2.53,1.26-.67,.37-1.52,.74-1.99,1.37-.95,1.29-.42,3.24,.33,4.47s1.77,2.4,2.89,3.35c2.42,2.05,5.62,3.03,8.77,2.68,.34-.04,.3-1.28-.03-1.34-2.73-.47-5.36-1.55-7.59-3.22-1.1-.82-2.11-1.73-2.94-2.83-.22-.29-.42-.77-.69-1.01l-.16-.26c-.24,.6-.22,.73,.07,.4,.61-.22,1.22-.78,1.8-1.1,2.75-1.52,5.73-2.61,8.8-3.26,1.5-.32,3.02-.5,4.55-.64,.76-.07,1.53-.12,2.3-.14,.81-.02,1.67,.09,2.47-.07l-.15-2.08c-.44,.56-.8,1.14-1.58,1.17-.59,.02-1.13-.26-1.5-.71-.04-.05-.08,.27-.04,.33h0Z"/><path class="cls-3" d="M373.29,490.98c-.59-.37-1.16-.78-1.77-1.1l-.88-.47c-.14-.07-.26-.15-.41-.19-.16-.04-.31-.08-.47-.13-.11-.03-.09,.45-.01,.51l.43,.32c.14,.1,.28,.16,.44,.24l.91,.42c.56,.26,1.17,.45,1.75,.66,.04,.02,.05-.22,0-.25h0Z"/><path class="cls-3" d="M369.72,488.41c.43,.41,.97,1.12,1.53,1.34,.47,.19,1.22,.15,1.71,.21,1.3,.16,2.61,.31,3.91,.46,2.53,.29,5.06,.56,7.59,.82,4.98,.5,9.97,.91,14.96,1.26,9.98,.69,19.98,1.14,29.98,1.34,20.08,.41,40.19-.12,60.22-1.63,5.56-.42,11.11-.95,16.65-1.56,.97-.11,2.27-.11,3.05-.81s.83-2.01,.77-2.92c-.04-.65-.13-1.68-.82-1.98-.6-.26-1.07,.15-1.29,.68-.08,.2-.17,1.83,.24,1.6,.85-.48,.72,1.72,.8-.5l.23-1.08c-.3,.68-1.47,.79-2.09,.86-1.14,.14-2.28,.24-3.42,.35-2.28,.23-4.57,.43-6.86,.64-4.57,.41-9.15,.83-13.73,1.16-9.24,.68-18.5,1.15-27.76,1.42-18.35,.52-36.74,.16-55.06-1-5.15-.33-10.3-.72-15.45-1.14-2.61-.21-5.22-.44-7.83-.68-1.22-.11-2.45-.23-3.67-.36-.6-.06-1.35-.26-1.96-.2-.67,.06-1.17,.58-1.72,.98-.16,.12-.11,.62,.02,.75h0Z"/><path class="cls-3" d="M511.73,488.31c.99,.31,1.97,.74,3,.72s2-.26,2.97-.39l6.44-.84,12.39-1.61,24.28-3.16c16.04-2.09,32.09-4.08,48.09-6.4,16.01-2.32,31.95-5.06,47.71-8.67,15.44-3.54,30.7-7.79,45.85-12.44,8.51-2.61,16.98-5.34,25.44-8.12,4.3-1.42,8.6-2.85,12.9-4.29,2.15-.72,4.3-1.44,6.44-2.16,1.07-.36,2.16-.7,3.22-1.08s1.91-1.06,2.83-1.64c.31-.2,.32-1.95-.13-1.92-.93,.05-1.87,.03-2.78,.26s-1.85,.62-2.76,.92c-1.99,.67-3.99,1.33-5.98,2-3.84,1.28-7.68,2.55-11.52,3.82-7.53,2.48-15.07,4.91-22.64,7.27-15.13,4.71-30.37,9.11-45.75,12.88-31.43,7.71-63.51,11.72-95.53,16.02l-27.25,3.65-13.87,1.86-6.94,.93c-1.15,.15-2.32,.27-3.47,.47-1.09,.18-2.02,.95-2.96,1.51-.08,.05-.06,.38,.03,.41h0Z"/><path class="cls-3" d="M755.54,418.98c-.39,.12-.79,.22-1.14,.43-.47,.27-.83,.63-1.22,1-.75,.73-1.52,1.44-2.26,2.18s-1.43,1.43-1.95,2.28c-.62,1.01-.81,2.2-.73,3.36,.12,1.84,1.11,3.57,3.1,3.74s3.75-1.38,5.14-2.61c.26-.23,.24-1.74-.19-1.54-1.33,.63-2.85,1.32-4.36,1.15-.67-.08-1.28-.32-1.83-.7-.21-.14-.44-.29-.6-.49-.08-.09-.13-.27-.23-.35,.13,.11,.14,.58,.06,.67,.09-.09,.24-.51,.35-.69,.19-.31,.41-.59,.64-.87,.58-.69,1.18-1.35,1.76-2.04,.61-.74,1.22-1.47,1.83-2.21,.72-.87,1.2-1.89,1.69-2.9,.02-.05,.06-.47-.05-.43h0Z"/><path class="cls-3" d="M752.87,427.8c-.92-.67-2.07-.49-2.46,.63-.1,.3-.22,1.65,.28,1.7,1.2,.11,2.54-.33,3.73-.53,1.32-.22,2.65-.42,3.98-.61,2.58-.37,5.17-.68,7.76-.94,5.19-.51,10.4-.8,15.61-.87,10.42-.13,20.89,.52,31.2,2.07,5.72,.86,11.4,2.16,17.18,2.58,.31,.02,.3-1.36,.03-1.47-4.85-2.06-9.99-3.14-15.17-3.97s-10.49-1.45-15.77-1.83c-10.41-.75-20.88-.48-31.25,.67-2.99,.33-5.97,.73-8.94,1.21-1.41,.23-2.81,.47-4.21,.73s-3,.37-4.28,1l.45,1.22c.04-.85,1.12-1.41,1.86-1.34,.06,0,.04-.23,0-.25h0Z"/><path class="cls-3" d="M785.02,404.43c1.22,3.43,4.87,5.29,8.12,6.39,3.79,1.28,7.82,1.52,11.74,2.16,4.88,.8,9.74,1.85,14.47,3.26,2.32,.69,4.7,1.4,6.92,2.37,1.51,.66,3.53,1.72,3.94,3.49l.63-3.91c-2.78-.97-4.87,1.32-5.65,3.81-1.15,3.67-.31,7.91,1.05,11.4,.13,.32,.45,1.14,.94,.74,1.15-.94,1.74-2.1,2.48-3.35,.26-.45,.43-2.49-.29-2.64-.54-.11-.95-.29-1.48-.24-.47,.05-.94,.29-1.35,.51l.94,.74c-.28-.89-.62-1.78-.8-2.7-.08-.39-.13,.09-.04-.29,.07-.29,.26-.59,.42-.83,.83-1.21,2.42-2.18,3.91-1.99,1.2,.15,.66-3.89,.48-4.43-.9-2.79-3.64-4.05-6.22-4.96-3.65-1.29-7.41-2.33-11.2-3.15s-7.82-1.38-11.8-1.67c-2.95-.21-5.91-.41-8.82-.93-1.66-.3-3.31-.76-4.81-1.55-1.28-.67-2.26-1.92-3.54-2.49-.08-.04-.05,.23-.04,.26h0Z"/><path class="cls-3" d="M748.07,437.54c.64,1.01,1.09,1.7,2.11,2.34s2.06,1.1,3.12,1.53c1.94,.79,3.96,1.36,5.99,1.84,4.64,1.09,9.35,1.99,14.03,2.92s9.28,1.86,13.93,2.76c3.9,.76,7.86,1.42,11.85,1.39,4.19-.02,9.09-.75,12.03-4.03,.18-.2,.28-1.79-.12-1.67-1.72,.53-3.31,1.35-5.05,1.83s-3.66,.82-5.55,.92c-3.84,.21-7.68-.3-11.46-.97-9.11-1.61-18.19-3.46-27.28-5.18-2.45-.46-4.91-.97-7.27-1.78-1.21-.42-2.39-.91-3.52-1.5-.47-.25-.97-.59-1.48-.74-.45-.14-.83-.04-1.32,0-.1,0-.06,.29-.02,.34h0Z"/><path class="cls-3" d="M808,448.46c.66,.21,1.45-1.57,1.8-2.06,.02-.02,.18-.24,.34-.43s.31-.37,.47-.55c.36-.39,.73-.76,1.11-1.14,1.55-1.57,3.41-2.75,5.41-3.64l-.34,.15c.79-.34,1.6-.63,2.43-.84,.39-.1,.78-.19,1.16-.32,.57-.19,.95-.5,1.46-.79l-1.38-4.88c-.1,.57,0,.6-.4,.99-.34,.33-.6,.53-1.1,.44-.54-.1-.31,1.94-.04,2.18,.35,.32,.86,.68,1.31,.84,.21,.08,.36,.1,.55,.22,.14,.09,.26,.22,.42,.28,.2,.15,.39,.15,.57-.01l.08-.06c.75-.62,.77-2.39,.74-3.24-.02-.56-.08-1.13-.19-1.68-.06-.28-.32-1.37-.7-1.52-.44-.17-.81-.44-1.29-.49-.43-.05-.85,.03-1.26,.13-.77,.18-1.52,.42-2.25,.72-1.58,.64-3.02,1.49-4.32,2.59-3.09,2.61-5.44,6.62-5.4,10.73,0,.67,.07,2.14,.86,2.4h0Z"/><path class="cls-3" d="M813.97,432.11c.09,.11,.17,.22,.25,.33l-.06-.22c.04,.33,.08,.61,.21,.91,.06,.15,.12,.31,.16,.47l-.12-1.04c-.02,.53,.06,.99,.23,1.49,.02,.05,.03,.1,.05,.15-.02-.07-.04-.15-.01-.03,.01,.06,.02,.13,.04,.19,.05,.14-.03-.24-.01-.09,0,.06,.01,.12,.02,.19,.03,.19,0-.1,0-.14,0,.11,0,.23,.01,.33,.02,.16,.02-.3,0-.14,0,.06,0,.12-.01,.18,0,.17,0-.07,.01-.11-.02,.05-.02,.13-.03,.18,0,.03-.02,.2,0,.04s0,0-.01,.04c-.03,.11-.06,.21-.1,.32-.04,.11-.07,.23-.11,.35-.02,.05-.03,.11-.05,.16,0,.03-.07,.17-.03,.09-.2,.49-.5,.94-.78,1.39-.12,.2-.11,.54-.08,.76,.01,.11,.06,.49,.23,.49,.48-.01,.85-.32,1.14-.69,.43-.54,.59-1.25,.67-1.92,.11-.91,.11-1.84-.13-2.72-.1-.36-.21-.69-.38-1.03-.12-.25-.34-.33-.56-.48-.05-.04-.1-.04-.15,0-.22,.14-.19,.13-.33,.04-.13-.08-.12,.45-.06,.52h0Z"/><path class="cls-3" d="M832.91,415.89c.47,.19,1.01,.49,1.5,.6,.68,.16,1.49-.11,2.17-.23,1.44-.25,2.89-.5,4.33-.74,2.81-.47,5.62-.92,8.44-1.36,5.55-.86,11.11-1.68,16.68-2.45,11.14-1.55,22.31-2.85,33.5-3.9,22.47-2.11,45.03-3.22,67.6-3.32,6.35-.03,12.71,.02,19.06,.15,3.09,.06,6.19,.15,9.28,.25,3.28,.11,6.49,.29,9.76-.05,.43-.04,.39-1.88-.05-1.96-5.58-1.09-11.43-.91-17.11-1.05-5.62-.14-11.24-.21-16.86-.22-11.24-.02-22.49,.2-33.72,.68-22.55,.95-45.05,2.91-67.42,5.87-6.3,.83-12.59,1.75-18.86,2.78-3.06,.5-6.11,1.02-9.16,1.56-1.61,.28-3.21,.57-4.81,.87-.76,.14-1.68,.18-2.41,.44s-1.34,.9-1.93,1.37c-.11,.09-.13,.64,.02,.7h0Z"/><path class="cls-3" d="M830.28,407.53c23.29-4.35,46.77-7.66,70.39-9.56,23.55-1.89,47.19-2.43,70.8-1.64,13.32,.45,26.61,1.38,39.93,1.69,.24,0,.25-1.19-.03-1.24-11.7-1.93-23.52-2.75-35.37-3.16-11.88-.41-23.78-.49-35.66-.23-23.62,.52-47.2,2.34-70.62,5.49-13.24,1.78-26.41,4-39.49,6.73-.49,.1-.32,1.98,.05,1.91h0Z"/><path class="cls-3" d="M895.26,408.63c-.86-.13-1.16,.09-1.52,.87s-.5,1.74-.53,2.62c-.09,2.17,.53,4.24,1.4,6.21,1.97,4.47,4.72,8.54,8.14,12.03,6.43,6.55,14.64,10.86,23.27,13.73,2.51,.83,5.05,1.55,7.62,2.17,1.22,.29,2.44,.57,3.66,.82,1.3,.27,2.89,.33,4.12,.82,1.88,.76,1.3-4.56,1-5.32-.68-1.67-1.19-3.23-2.02-4.87-.51-1.01-1.12-1.96-1.71-2.93-1.1-1.82-2.28-3.6-3.42-5.4s-2.27-3.44-3.2-5.26c-.04-.07-.36-.77-.35-.76,.36,.06,.11,4.63-.04,3.93,.13-.4,.14-.46,.04-.18l.16-.32c.18-.28,.33-.57,.53-.83,.98-1.29,2.31-2.31,3.56-3.32,1.7-1.38,3.38-2.78,5.04-4.22,1.73-1.51,3.39-3.06,4.98-4.73,1.68-1.76,3.51-3.24,4.67-5.41,.37-.7,.72-3.9-.47-4.08s-1.99,.42-3.06,1.02-2.13,1.12-3.21,1.67c-2.07,1.07-4.01,2.46-5.94,3.77-3.4,2.33-7.47,4.78-8.84,8.9-1.14,3.45-.95,7.53,.13,10.97,.77,2.44,2.23,4.59,3.57,6.74,1.26,2.02,2.51,4.07,3.89,6.01,.75,1.04,1.48,2.08,2.36,3,.34,.36,.68,.84,1.13,1.08s.77,.23,1.19,.51l.16-6.22c-.93,.11-1.95-.14-2.88-.26-1.03-.14-2.05-.29-3.08-.45-1.99-.32-3.97-.69-5.94-1.12-4.01-.88-7.97-2.03-11.78-3.58-7.48-3.05-14.24-7.63-18.95-14.28-1.49-2.11-2.79-4.37-3.81-6.75-.37-.88-.78-1.85-.82-2.81s.61-2.1,1.05-2.87c.09-.16,.16-.87-.11-.91h0Z"/><path class="cls-3" d="M949.89,405.72c-.31,.26-.32,.39-.78,.06-.07-.05-.13-.05-.2,0-2.82,2.01-5.74,3.94-8.86,5.47-.28,.13-.25,1.49,.1,1.47,.96-.05,1.88-.16,2.8-.44s1.82-.7,2.68-1.19,1.64-1.09,2.38-1.8c.38-.36,.71-.78,1.04-1.19,.24-.31,.27-.53,.36-.91,.09-.43,.31-.7,.55-1.05,.05-.07,.01-.49-.07-.42h0Z"/><path class="cls-3" d="M936.91,301.54c-.38-1.17-.57-1.19-1.48-1.05-.41,.07-.79,.28-1.16,.46-.78,.38-1.57,.77-2.31,1.25-1.52,.99-2.91,2.15-4.23,3.39s-2.59,2.56-3.73,3.97c-1.28,1.57-2.6,3.28-3.33,5.18-.39,1.01-.31,2.36-.14,3.39,.06,.35,.36,2.03,1.02,1.88,2.13-.48,4.02-2.66,4.66-4.71,.16-.52,.16-1.17,0-1.69-.07-.23-.36-.79-.59-.32-.36,.72-.84,1.1-1.64,1.2-.88,.11-1.53-.16-2.29-.58l.15,5.98c.76-.66,1.24-1.66,1.81-2.48,.55-.78,1.12-1.54,1.69-2.3,1.22-1.6,2.56-3.12,3.98-4.54s2.95-2.81,4.44-4.2c.85-.79,1.7-1.52,2.45-2.42,.49-.59,.95-1.61,.7-2.4h0Z"/><path class="cls-3" d="M938.87,300.99c-.38-.29-.76-.57-1.16-.84-.2-.15-.4-.15-.59,.01-2.72,1.61-5.14,3.36-7.28,5.7s-4.54,5.27-5.86,8.29c-.84,1.93-.89,4.25-.41,6.29,.26,1.1,1.05,3.18,2.19,1.59,1.95-2.72,4.16-5.17,6.38-7.66,1.93-2.16,3.56-4.56,5.49-6.7,.4-.44,.53-3.32-.35-2.94-.59,.25-1.16-.02-1.73,.35s-1.04,.9-1.5,1.35c-.96,.95-1.83,1.98-2.64,3.06-1.69,2.28-2.86,4.83-3.68,7.55-.38,1.27-.38,2.78-.08,4.07,.11,.46,.57,2.11,1.33,1.51,2.72-2.17,5.06-4.8,7.22-7.53,1.05-1.33,2.05-2.7,2.99-4.12,.47-.72,.93-1.44,1.37-2.18,.41-.68,.81-1.79,1.44-2.26,.88-.67,.58-5.46-.36-5.08-1.53,.62-2.64,1.95-3.75,3.15-1.21,1.31-2.24,2.73-3.17,4.25-2.1,3.4-3.77,7.07-4.68,10.97-.4,1.7-.25,3.98,.39,5.62,.35,.9,1.24,1.97,1.95,.68,1.35-2.47,2.43-5.07,3.94-7.44,1.38-2.17,2.77-4.35,4.15-6.52l-1.41-4.81c-1.55,4.3-2.81,8.64-3.5,13.17-.19,1.26-.2,2.73,.28,3.94,.23,.57,.96,1.45,1.4,.47,1.09-2.39,2.04-4.83,2.82-7.34,.38-1.2,.71-2.42,1.01-3.65s.44-2.62,.86-3.82l-1.83-4.83c-.7,1.65-.87,2.8-1.12,4.57s-.48,3.68-.69,5.52c-.37,3.29-.65,6.61-.8,9.92-.06,1.26,0,2.51,.27,3.74,.15,.67,.49,2.09,1.32,2.29,1.81,.44,1.82-3.98,1.83-4.82,.02-1.28-.2-2.46-.56-3.68l.42,2.46c-.04-.53,0-.98,.05-1.51,.04-.44-.29-3.46-1.11-2.28-.11,.15-.21,.31-.32,.46l.43-.35c-.52-.03-.8-.05-1.21,.26l2.27,5.93c.31-3.22,.57-6.44,.85-9.66,.3-3.48,.71-6.97,.49-10.47-.05-.77-.09-3.11-1.13-3.36s-1.23,1.94-1.26,2.5c-.11,2.02-.91,4.22-1.51,6.14-.67,2.17-1.46,4.31-2.38,6.39l1.67,4.41c.6-4.11,1.55-8.2,3.06-12.08,.46-1.18,.36-2.87-.02-4.05-.22-.69-.73-1.73-1.4-.76-1.37,1.97-2.74,3.94-4.11,5.92-1.24,1.79-2.84,3.22-4.22,4.9l1.74,7.72c1.2-3.2,2.2-6.39,3.79-9.43,.81-1.55,1.69-3.08,2.57-4.59,1.01-1.73,2.25-3.32,3.16-5.1l-1.19-4.04c-.47,1.49-1.78,2.91-2.73,4.13s-1.97,2.38-3.02,3.5c-2.18,2.3-4.61,4.3-7.04,6.31l1.25,5.58c.71-2.47,1.79-4.83,3.12-7.03,.67-1.1,1.41-2.15,2.23-3.14,.43-.52,.9-1,1.34-1.5,.64-.72,.87-1.67,1.48-2.41l-.47-2.78c-1.56,2.17-3.74,3.94-5.83,5.59-1.96,1.55-4.05,2.77-6.57,3.02l.64,9c1.2-1.51,2.11-3.25,3.24-4.82,1.02-1.42,2.05-2.83,3.16-4.18,1.22-1.47,2.4-2.98,3.64-4.44,.68-.8,1.4-1.55,2.11-2.33,.9-.98,1.15-2.27,1.57-3.52,.18-.54,.27-1.84-.26-2.24h0Z"/><path class="cls-3" d="M942.14,307.54c.04-.24,.28-1.97,.3-1.97,1.09-.06,1-4.05-.1-4.23l-.22-.04c-.37-.06-.67,.69-.74,.9-1.12,3.46-1.51,7.21-1.72,10.82-.23,3.9-.14,7.83,.32,11.71,.79,6.6,2.26,14.12,6.83,19.21,.84,.93,.71-2.03,.6-2.37-1.99-6.34-4.12-12.97-4.89-19.39-.33-2.78-.47-5.6-.32-8.41,.08-1.47,.21-2.93,.41-4.39,.3-2.18,.8-4.31,.49-6.52l-1.06,2.41c.15,.26-.06,1.76-.07,2.14,0,.12,.12,.36,.16,.11h0Z"/><path class="cls-3" d="M300.01,466.11c.97,.16,1.94-.42,2.84-.77,1.1-.43,2.18-.91,3.27-1.34,1.99-.78,4.01-1.5,6.04-2.16,4.15-1.35,8.37-2.41,12.64-3.28,8.48-1.73,17.16-2.46,25.81-2.15,4.95,.18,9.83,.59,14.76,1.07,.23,.02,.24-1.02-.03-1.08-8.47-2.14-17.41-2.46-26.09-1.87-8.8,.6-17.49,2.27-25.87,5.02-2.32,.76-4.62,1.6-6.89,2.52-2.11,.85-5.03,1.66-6.52,3.42-.08,.1-.14,.58,.04,.61h0Z"/><path class="cls-3" d="M352.18,457.45c13.3,1.09,26.61,.59,39.9-.51,13.19-1.09,26.3-2.88,39.28-5.42,7.33-1.43,14.9-2.82,21.94-5.37,.28-.1,.22-1.28-.03-1.24-6.49,.98-12.91,2.7-19.35,3.99-6.57,1.31-13.17,2.4-19.79,3.4-13.08,1.97-26.27,3.25-39.49,3.84-7.49,.33-14.99,.66-22.48,1-.07,0-.06,.3,0,.31h0Z"/><path class="cls-3" d="M367.23,451.62l.18-.51-.03,.03,.46,.1c.2,.04,.36-.38,.4-.48,.06-.17,.12-.34,.18-.52,.2-.56,.18-1.24,.08-1.81-.04-.23-.1-.45-.2-.66-.03-.08-.07-.15-.14-.21-.05-.08-.13-.13-.23-.14-.39-.12-.77-.02-1.12,.16h.33l-.53-.44c-.32-.26-.65,.06-.8,.32-.43,.73-.58,1.56-.66,2.39-.11,1.24,.03,2.55,.45,3.72,.08,.22,.18,.45,.31,.64,.17,.26,.35,.49,.68,.54,.13,.02,.26,.02,.39,0,.33-.05,.68-.2,.95-.39,.31-.22,.56-.55,.77-.86,.24-.36,.41-.77,.52-1.19,.17-.64,.26-1.09,.32-1.75s.03-1.4-.04-2.1c-.04-.38-.1-.76-.2-1.13-.14-.5-.29-1.07-.6-1.5-.25-.35-.45-.57-.87-.66-.23-.05-.45,.06-.66,.16-.23,.11-.43,.37-.55,.58s-.22,.44-.3,.67c-.26,.78-.31,1.63-.3,2.45,.01,.56,.08,1.11,.2,1.65,.09,.41,.24,.8,.45,1.17,.13,.25,.33,.4,.61,.43,.27-.05,.47-.2,.58-.46,.33-.58,.69-1.12,.82-1.79,.06-.33,.09-.67,.08-1.01-.01-.48-.08-1.02-.33-1.44-.06-.12-.16-.19-.29-.2-.13,.02-.22,.1-.28,.22h0l.13-.16h-.01l.15-.05c-.05,.02-.11,0-.16-.02l.18,.06s-.08-.03-.12-.06c-.1-.06-.2-.09-.32-.13l.39,.28c-.07-.11-.17-.2-.26-.3l.2,.22c-.07-.08-.13-.15-.18-.24l.48,2.78c0-.06,.01-.13,.02-.19l-.1,.79v-.03l-.16,.67s.01-.04,.02-.05l-.23,.52s.03-.07,.06-.1l-.27,.34c.06-.08,.14-.13,.24-.17l-.31,.13c.13-.05,.25-.06,.38-.02l-.32-.11c.06,.03,.11,.06,.15,.1l-.3-.33c.09,.11,.17,.23,.23,.35l-.26-.52c.03,.06,.06,.13,.08,.19l-.2-.67c.02,.06,.03,.12,.04,.18l-.14-.79c0,.05,.01,.1,.02,.16l-.06-.88s0,.06,0,.1l.02-.88c0,.05,0,.11-.01,.16l.1-.79c0,.08-.02,.15-.04,.22l.17-.67c-.03,.11-.06,.21-.1,.31l.23-.52c-.08,.17-.17,.34-.29,.48l.27-.34c-.19,.24-.43,.43-.71,.55l.31-.13c-.23,.09-.48,.13-.73,.09l.6,.44c-.08-.1-.16-.2-.22-.31l.24,.5s-.04-.08-.05-.12l.19,.64s-.02-.09-.03-.14l.13,.75s-.01-.08-.01-.12l.06,.83s0-.09,0-.13l-.02,.82c0-.06,0-.11,.01-.17l-.09,.73c.01-.08,.03-.17,.05-.25l-.15,.61c.02-.06,.04-.12,.05-.18,.13-.42,.2-.86,.24-1.3,.05-.54,.03-1.16-.06-1.7l-.16,2.25c.02-.06,.04-.11,.06-.17,.2-.56,.19-1.16,.2-1.74l-.42,1.72c.15-.15,.32-.28,.52-.36l-.16,.07c.2-.08,.4-.11,.61-.08l-.49-2.81c-.04,.17-.09,.34-.13,.5-.09,.34-.15,.66-.16,1.01-.01,.47,.05,.93,.2,1.37l-.04-.58c-.02,.1-.04,.21-.05,.31-.02,.16,.02,.33-.02,.49l-.13,.53s.01,.11,.03,.06h0Z"/><path class="cls-3" d="M363.62,445.08c-.26,.08-.47,.25-.71,.04-.06-.04-.12-.04-.18,0-1.82,.97-2.67,3.19-3.03,5.12-.41,2.24-.2,4.69,.79,6.76,1.84,3.83,6.56,5.75,10.41,3.67,.27-.15,.24-1.52-.11-1.47-3.47,.52-7.56-.86-9.49-3.93-.83-1.32-1.06-2.79-.64-4.29,.24-.87,.64-1.64,1.13-2.39,.27-.42,.54-.83,.84-1.23,.38-.51,.6-1.12,1.04-1.58,.08-.09,.13-.77-.05-.71h0Z"/><path class="cls-3" d="M362.5,446.38c1.51-.21,2.92-.59,4.48-.46s3.12,.71,4.39,1.67,2.19,2.24,2.46,3.76c.24,1.4-.23,2.87-.89,4.09-.88,1.63-2.31,3.03-3.98,3.83-.26,.12-.19,1.32,.09,1.27,3.86-.8,5.72-4.75,5.68-8.41-.05-3.99-2.57-7.28-6.49-8.15-2.03-.45-4.35-.16-5.8,1.45-.11,.12-.21,1,.07,.96h0Z"/><path class="cls-3" d="M465.64,424.25c.35,5.84,.03,11.67-1.05,17.42l.76-1.36-.81-.15,1.64,2.56c-.3-1.05-.54-1.97-1.33-2.74l1.03,2.72c-.04-.25-.03-1.03-.19-1.15,.22,.17-.17,3.06,.23,1.54,.16-.61,.39-1.21,.68-1.77,.17-.33,.4-3.14-.35-2.88-.43,.15-.86,.26-1.22,.54-.17,.13-.31,.3-.45,.46l-.23,.29c-.22,.25-.16,.25,.17,0-.3,.06-.52,.23-.64,.52-1.17,2.03-1.12,4.28-.92,6.57,.07,.8,.77,4.73,2.33,3.6s1.32-4.94,1.11-6.47l-.17-1.26-.04,2.1c1.09-6.97,1.34-14.03,.62-21.05-.04-.35-.17-1.33-.69-1.23s-.5,1.44-.48,1.73h0Z"/><path class="cls-3" d="M474.66,422.74c.03-.09-.04-5.26-.26-2.35-.02,.3-.04,.6-.05,.9-.04,.68-.08,1.36-.13,2.04-.1,1.26-.22,2.51-.4,3.76-.37,2.65-.88,5.28-1.49,7.88-1.35,5.68-3.31,11.19-5.29,16.67-.12,.33,.01,2.5,.52,1.81,3.26-4.4,5.17-9.73,6.54-14.99,.74-2.85,1.27-5.76,1.64-8.69,.41-3.24,.96-6.8,.52-10.05-.07-.52-.29-2.38-1.17-1.93-.8,.4-.66,2.84-.55,3.47l.04,1.23c-.02,.07,.03,.42,.09,.25h0Z"/><path class="cls-3" d="M481.63,418.45c1.03,5.58,1.5,10.76,.71,16.26-.4,2.77-1.04,5.48-1.92,8.14-.44,1.35-.95,2.67-1.52,3.96-.67,1.51-1.64,2.98-2.06,4.58l1.99,1.53c-.17-1.6-.04-3.32-.03-4.93,0-.8-.64-2.28-.96-.73-.14,.68-.34,1.35-.48,2.04-.1,.48-.1,1.08-.3,1.53-.6,1.37-.62,3.03-.37,4.48,.1,.57,.47,2.67,1.43,2.04,.65-.43,.96-1.4,1.29-2.08,.37-.78,.72-1.56,1.05-2.35,.74-1.78,1.41-3.6,1.98-5.44,1.08-3.54,1.8-7.18,2.19-10.86,.75-7.09,.52-14.77-1.65-21.61-.26-.81-.83-1.07-1.2-.19-.46,1.1-.36,2.51-.15,3.64h0Z"/><path class="cls-3" d="M493.7,417.86c-.79-.86-1.71-1.85-2.17-2.96-.41-1-.71,.53-.7,.9,.07,1.45,.59,2.79,1.01,4.17s.74,2.72,.99,4.1c.43,2.41,.61,4.89,.48,7.34-.14,2.58-.61,5.15-1.36,7.62-.84,2.79-2.24,5.34-3.18,8.09l.62-.78c-.18,.07-.47,.28-.63,.29l.54,1.47c-.16,.5-.1,.64,.18,.41,.42-.23,.41-2.28-.16-2.28-.36,0-.53,.15-.72,.43-.28,.41-.26,.66-.3,.94-.13,1.14-.12,3.17,.98,3.88,.16,.12,.32,.12,.48-.01,1.07-.94,1.7-2.33,2.24-3.62,.63-1.49,1.19-3.01,1.64-4.57,.93-3.23,1.46-6.57,1.61-9.92,.27-6.23-.46-13.13-3.57-18.66-.06-.13-.16-.2-.29-.22l-.15,.06,.06,2.51c.78-.15,1.86,.97,2.37,1.41,.1,.08,.14-.49,.04-.6h0Z"/><path class="cls-3" d="M500.79,417.11c-.13,2.34,.65,4.55,1.23,6.78,.25,.95,.48,1.91,.7,2.88,.09,.42,.17,.85,.26,1.27-.27-1.23,.03,.67,.02,.51,.01,.21,.05,1.35,.05,1.87,0,.11,0,1.05,0,.41,0,.36-.03,.72-.05,1.08-.08,1.43-.15,2.05-.47,3.65-.47,2.37-1.52,5.13-2.78,7.45l2.25,6.13c.32-1.57,.13-3.08,.58-4.63,.34-1.18,.71-2.35,1.09-3.51,.11-.34-.05-2.7-.57-1.93-.47,.69-.92,1.39-1.36,2.1-.26,.43-.38,.63-.79,.86-.58,.31-.84,.35-1.2,.99-.97,1.74-.83,4.32-.4,6.19,.2,.88,1.18,3.34,2.14,1.57,3.74-6.87,4.8-14.86,4.2-22.58-.2-2.62-.73-5.09-1.55-7.58-.27-.84-1.45-5.62-2.52-5.52-.69,.06-.81,1.57-.84,2.02h0Z"/><path class="cls-3" d="M514.2,419.97c-.19-1.11-2.03-.48-2.73-.61-.3-.06-.51-.19-.78-.29-.08-.05-.15-.11-.21-.18,.31,1.29,.35,2.56,.11,3.81,.68-.45,2.15-1.64,2.94-.55l-.53-1.98c.63,4.34,.53,8.48-.38,12.89-.44,2.12-1.08,4.24-1.87,6.26-.41,1.05-.88,2.08-1.38,3.09-.28,.57-.61,1.12-.9,1.69-.38,.75-.55,1.56-.82,2.36l1.76,1.28c-.11-1.07-.2-2.14-.23-3.22,0-.29-.04-1.45-.45-1.58s-.57,.44-.62,.77c-.15,1.13-.36,2.25-.61,3.36-.13,.57,.03,5.33,1.28,4.36,.38-.3,.7-.43,.99-.85s.46-.92,.67-1.35c.5-1.04,.97-2.09,1.4-3.16,.82-2.06,1.54-4.15,2.08-6.3,1.17-4.62,1.72-9.37,1.67-14.14-.03-2.36-.21-4.73-.56-7.07-.26-1.74-1.01-3.81-3.17-3.34-1.43,.31-2.42,1.45-2.81,2.82-.57,1.97-.64,5.33,.93,6.92,1.01,1.02,2.93,.67,3.76-.45,.65-.86,.54-2.55,.66-3.57,.05-.45,.05-.85-.08-1.29-.07-.24-.13,.25-.12,.32h0Z"/><path class="cls-3" d="M516.68,448.56c-.5-.36-1-.7-1.51-1.04l.04,1.55c1.05-1.09,1.97-2.23,3.24-3.09,1.45-.98,3.08-1.7,4.73-2.29,4.04-1.45,8.24-2.51,12.36-3.67,8.86-2.49,17.78-4.76,26.65-7.24,5.07-1.42,10.14-2.84,15.21-4.27,.43-.12,.32-1.76-.04-1.7-9.3,1.45-18.45,3.41-27.55,5.82-4.57,1.21-9.12,2.48-13.64,3.85-4.25,1.29-8.55,2.5-12.71,4.05-3.55,1.32-7.4,3.29-8.55,7.19-.05,.18-.16,1.43,.23,1.37,.52-.08,1.03-.17,1.54-.29,.07-.02,.05-.22,0-.25h0Z"/><path class="cls-3" d="M551.66,436.1c5.91,.19,11.69-2.1,17.04-4.37,5.84-2.48,11.61-5.15,17.43-7.67,11.9-5.16,23.94-10,36.05-14.67,6.9-2.66,13.84-5.22,20.78-7.78l-.52-4.77c-5.58,8.31-11.3,16.53-16.84,24.87-2.75,4.14-5.49,8.27-8.24,12.41-1.42,2.15-2.84,4.29-4.25,6.45-1.24,1.91-2.61,3.79-3.62,5.84-.58,1.18-.95,2.49-1.39,3.72-.41,1.17-.68,2.38-.81,3.61-.31,2.81,.07,5.57,1.26,8.13l.36-5.59c-.79,.03-1.56-.06-2.34-.02-.93,.04-1.38-.3-2.02-.93-.36-.36-.55,.81-.56,.91-.07,.57-.09,1.43,.25,1.93,1.21,1.81,2.64,3.56,4.82,4.1,.68,.17,.88-1.96,.89-2.22,.07-1.07,.04-2.43-.53-3.37-.19-.32-.35-.6-.45-.96-.05-.17-.03,.36,.02,.02,.13-.81,.33-1.71,.71-2.45s.92-1.37,1.33-2.08c.53-.92,1.1-1.81,1.69-2.7,2.48-3.72,4.94-7.46,7.39-11.2,4.99-7.64,9.98-15.27,14.82-23,2.75-4.4,5.63-8.72,8.44-13.07,.36-.55,.42-5.15-.52-4.77-24.19,9.63-47.89,20.48-71.42,31.61-3.15,1.49-6.33,2.94-9.62,4.12s-6.7,2.1-10.15,2.92c-.23,.05-.21,.97,.02,.98h0Z"/><path class="cls-3" d="M611.44,410.04c-2.58-.84-5.26-.98-7.88-.21-.91,.27-.86,3.92,.1,3.95,2.74,.09,5.73-.47,8.42-.97s5.57-1.1,8.33-1.74c5.52-1.28,10.98-2.81,16.37-4.59l-.15-6.27c-3.68,1.4-7.31,2.92-10.9,4.53s-7.11,2.95-10.72,4.28c-1.49,.55-1.45,3.39-1.4,4.67,.03,.76,.19,4.74,1.62,4.6,3.24-.31,6.34-1.79,9.34-3.03s6.15-2.68,9-4.48l-.95-8.32c-2.87,2.41-6.31,4.12-9.42,6.22s-5.99,4.16-8.69,6.64c-1.18,1.09-1.05,3.69-.96,5.09,.04,.54,.45,4.37,1.58,3.96,4.5-1.59,8.81-4.39,12.67-7.16s7.43-6.07,11.04-9.22c1.03-.9,.91-3.23,.83-4.41-.03-.47-.39-3.78-1.37-3.44-1.8,.63-3.59,1.24-5.23,2.23s-3.1,2.05-4.53,3.24c-3.03,2.53-5.48,5.89-7.5,9.26-1.02,1.7-.97,4.56-.71,6.45,.11,.84,.27,1.69,.55,2.5,.11,.31,.71,1.79,1.38,1.63,2.25-.54,4.29-1.9,5.87-3.56l-2-8.89c-1.31,3.64-3.51,7.01-6.15,9.89l1.17,9.83c3.68-4.71,6.59-10.01,10.28-14.72,.85-1.08,.83-2.74,.67-4.04-.06-.49-.47-2.95-1.42-2.25-2.48,1.83-4.66,3.68-6.37,6.29-.87,1.32-1.5,2.74-2.04,4.22-.21,.59-.64,1.69-1.47,1.59l.42,.32-.03-.03,.42,1.91c0-.09,0-.19,0-.28l-.53,1.72,.19-.07c.95-.37,.41-3.6-.08-3.41-.15,.06-.32-.21-.57-.07-.31,.17-.42,.83-.48,1.13-.23,1.27-.09,2.69,.34,3.91,.27,.77,.81,2,1.81,1.84s1.55-1.3,1.87-2.09c1.61-4.06,3.51-8.12,7.27-10.67l-.74-6.29c-3.31,3.95-7.39,7.23-10.7,11.18-1.35,1.61-1.33,4.34-1.06,6.32,.07,.52,.96,4.87,2.23,3.52,3.12-3.34,5.6-7.2,7.42-11.38,.91-2.09,.96-4.47,.59-6.69-.12-.71-.89-4.2-2.24-3.04-1.5,1.29-3.04,1.93-4.92,2.46l1.21,10.58c1.83-3.28,4.13-6.1,6.68-8.85s5.77-5.56,8.96-7.82l-.88-7.7c-1.56,1.83-3.19,3.49-5.09,4.97s-3.79,2.77-5.79,4-3.96,2.29-6.02,3.28-4.38,1.8-6.55,2.77l1.02,8.88c2.57-2.7,5.39-5.2,8.41-7.38,1.46-1.06,2.96-2.08,4.47-3.07s3.06-2.11,4.79-2.8c2.22-.89,1.21-9.1-.21-8.64-3.08,.99-6.06,2.23-9.1,3.35s-6.35,1.97-9.29,3.54l1.02,8.92c3.24-2.46,6.64-4.77,10.27-6.61s7.2-3.47,10.88-5.03c1.64-.69,.75-6.61-.15-6.27-5.38,1.99-10.83,3.78-16.35,5.33-2.68,.75-5.38,1.44-8.09,2.08s-5.88,1.22-8.62,2.21l.27,3.88c2.22-1.77,4.78-2.9,7.62-3.21,.12-.01,.09-.43-.01-.46h0Z"/><path class="cls-3" d="M637.73,413.98c18.24-1.24,36.43-3.13,54.61-5.04l54.59-5.73c10.27-1.08,20.52-2.22,30.76-3.59,.26-.03,.2-1.15-.03-1.14-18.24,1.39-36.41,3.46-54.6,5.37s-36.4,3.78-54.59,5.83c-10.27,1.16-20.52,2.38-30.75,3.83-.11,.02-.09,.47,.01,.46h0Z"/><path class="cls-3" d="M623.74,447.07l-.88,.88s-.03,.09-.02,.13c0,.01,.02,.1,.04,.07l.88-.88s.03-.09,.02-.13c0-.01-.02-.1-.04-.07h0Z"/><path class="cls-3" d="M620.29,449.01c9.7-1.56,19.33-3.76,28.93-5.89s19.09-4.27,28.62-6.47c19.06-4.41,38.07-8.99,57.04-13.76,10.82-2.72,21.59-5.68,32.22-9.06,.33-.1,.21-1.39-.03-1.34-19.18,4.05-38.11,9.19-57.14,13.88s-38.06,9.18-57.15,13.5c-10.84,2.45-21.77,4.68-32.52,7.54-.41,.11-.31,1.66,.04,1.6h0Z"/><path class="cls-3" d="M560.2,387.13c15.22-2.01,30.28-5.18,45.45-7.61,15.35-2.45,30.74-4.65,46.18-6.51,30.72-3.71,61.59-6.2,92.51-7.45,30.92-1.26,61.9-1.29,92.82-.09s61.8,3.63,92.54,7.25c30.57,3.6,60.93,8.61,91.21,14.08,3.85,.69,7.69,1.41,11.53,2.14,.13,.02,.24-1.23-.03-1.29-30.24-6.94-60.77-12.12-91.53-16.07s-61.55-6.61-92.46-8.05-61.88-1.66-92.81-.65c-30.93,1.01-61.82,3.25-92.58,6.72-30.61,3.45-61.07,8.14-91.3,14.09-3.89,.77-7.71,1.87-11.53,2.92-.12,.03-.09,.53,.01,.52h0Z"/><path class="cls-3" d="M518.1,488.39c-.26,.29-1.36-.04-.1,.41,.23,.08,.54,.15,.72,.24,.62,.29,1.19,.84,1.73,1.24,1.19,.89,2.39,1.76,3.6,2.61,2.43,1.7,4.91,3.32,7.44,4.87s5.15,3.05,7.71,4.57,5.21,3.15,7.95,4.44c5.33,2.51,10.74,4.99,16.41,6.64s11.02,2.46,16.71,2.99c6.16,.57,12.52-.71,18.01-3.54,.95-.49,.99-2.77,.97-3.61-.03-1.25-.24-2.64-1.15-3.56-2.89-2.91-5.01-6.55-5.82-10.53-.34-1.65-.44-3.15-.23-4.96,.16-1.38,.78-3.49,1.58-5.11,.68-1.38,1.41-2.54,1.55-4.12,.06-.71,.12-1.46,.06-2.16-.06-.75-.54-3.13-2.08-2.1-.45,.3-.72,1.17-.93,1.63-.27,.6-.54,1.2-.77,1.82-.44,1.19-.79,2.41-1.08,3.64-1.17,4.99-1.18,10.33-.11,15.34s3.42,10.06,7.23,13.73l-.18-7.17c-11.11,6.03-24.42,4.11-35.98,.58-3.05-.93-6.15-1.68-9.18-2.68-3.07-1.02-6.08-2.26-9.11-3.4-6.03-2.28-11.59-5.43-16.98-8.94-1.6-1.04-3.18-2.12-4.73-3.22-.77-.55-2.73-2.59-3.77-1.76-.57,.45-.85,1.62-.48,2.27,.27,.48,.81,.64,1.02,.05,0-.03,0-.26-.05-.21h0Z"/><path class="cls-3" d="M560.61,509.17c-.03-.17-.54-.76-.5-.21l-.16,.83c.57-1.11,3.66,.37,4.45,.6,1.75,.5,3.52,.94,5.29,1.33,3.53,.76,7.1,1.25,10.7,1.44,3.16,.17,6.47,.03,9.34-1.44,1.11-.57,2.2-1.37,3.05-2.29,.15-.17,.41-.59,.6-.71s.41-.06,.61-.18c.54-.32,.83-1.11,1.04-1.64,.45-1.13,.39-2.67,.17-3.82-.07-.34-.49-2.38-1.22-2.12-4.04,1.47-7.96,2.84-12.21,3.63s-8.9,.6-13.24-.27l.24,9.82c4.08-.1,8.2-.47,12.18-1.39,1.96-.45,3.89-1.03,5.78-1.73,.95-.35,1.92-.89,2.9-1.13,1.18-.29,1.92-.32,2.87-1.22,1.37-1.31,1.29-4.12,1.04-5.83-.08-.58-.86-4.45-2.17-3.24-.25,.24-1.43,1.44-1.65,1.34-1.47-.7-1.02,3.74-.8,4.29,.6,1.51,1.4,3.34,3.13,3.63l-.23-9.44c-1.33,.11-1.77,.77-2.85,1.42-.87,.53-1.92,.83-2.88,1.16-1.9,.65-3.83,1.18-5.8,1.59-3.89,.8-7.8,1.12-11.76,.74-.64-.06-1.1,1.08-1.24,1.47-.38,1.05-.49,2.38-.44,3.49,.06,1.52,.17,4.3,1.92,4.87,4.37,1.42,8.94,1.52,13.44,.63,2.2-.43,4.47-1.33,6.43-2.4,2.26-1.23,4.12-2.64,5.83-4.56l-1.68-4.26c-.06,.5-.12,1-.2,1.5-.01,.45-.03,.53-.05,.24-.13,.21-.26,.41-.41,.61-.53,.73-1.18,1.33-1.92,1.84-1.76,1.2-3.82,1.75-5.92,1.98-4.52,.49-9.28-.13-13.76-.74-2.32-.32-4.62-.73-6.9-1.25-1.18-.27-3.54-1.31-4.16,.37-.23,.62-.24,2.24,.78,2.06,.54-.1,.86-.85,.48-1.27-.13-.14-.15,.24-.14,.29h0Z"/><path class="cls-3" d="M325.86,454.5c20.51-5.74,41.21-10.92,62.09-15.12,5.93-1.19,11.88-2.31,17.83-3.39,.18-.03,.13-.74-.02-.72-21.12,3.06-41.98,7.64-62.53,13.4-5.85,1.64-11.63,3.54-17.39,5.47-.09,.03-.05,.38,0,.36h0Z"/><path class="cls-3" d="M356.49,442.62c13.95-3.23,28-6.23,42.16-8.41,14.23-2.2,28.49-3.65,42.85-4.67,8.01-.57,16.04-.87,24.07-1.07,.15,0,.14-.67-.02-.67-28.74-.87-57.57,2.32-85.65,8.36-7.91,1.7-15.68,3.74-23.41,6.11-.09,.03-.06,.38,0,.36h0Z"/><path class="cls-3" d="M380.31,449.96c.07,0,.07-.31,0-.31-.07,0-.07,.31,0,.31h0Z"/><path class="cls-3" d="M380.36,449.43c2.61-.02,5.21-.53,7.79-.9s5.36-.82,8.03-1.26c5.29-.89,10.55-1.9,15.8-2.98,.24-.05,.17-1.01-.02-.98-5.29,.71-10.56,1.49-15.82,2.39-2.6,.45-5.19,.9-7.78,1.41s-5.42,.93-8.02,1.8c-.12,.04-.12,.52,.01,.52h0Z"/><path class="cls-3" d="M411.92,421.32c.15-.54-.45-.82-.82-.36-.15,.19-.1,.45-.06,.66,.14,.82,.64,1.23,1.44,1.18,2.64-.18,5.36-1.03,7.96-1.56,2.79-.57,5.59-1.12,8.39-1.64,11.13-2.06,22.35-3.71,33.59-5.04,6.32-.75,12.64-1.47,18.98-2.05,.24-.02,.21-1.04-.03-1.03-19.16,.62-38.12,3.03-56.91,6.82-2.64,.53-5.27,1.07-7.89,1.67-1.28,.29-2.53,.7-3.81,.99-.42,.09-.94,.21-1.36,.24-.47,.03,.49-.19,.46-.04,0,.04,.04,.27,.07,.15h0Z"/><path class="cls-3" d="M540.45,346.31c2.11-.03,4.13-.13,6.17,.58s3.67,1.84,5.12,3.28c3.18,3.16,5.17,7.37,7.05,11.38,3.94,8.41,6.83,17.3,8.73,26.39,1.11,5.34,1.83,10.75,2.17,16.19,.04,.63,.48,.64,.44-.01-.49-9.79-2.13-19.53-5.06-28.89-1.48-4.74-3.26-9.38-5.33-13.89-1.89-4.11-3.87-8.56-7.01-11.89-2.84-3.01-8.26-6.13-12.31-3.54-.08,.05-.09,.41,.03,.4h0Z"/><path class="cls-3" d="M549.66,334.16c4.79,6.28,11.52,10.42,17.11,15.89s9.77,11.66,12.7,18.68c1.7,4.06,2.87,8.32,3.52,12.67,.09,.63,.41,.14,.36-.26-1-7.45-3.47-14.74-7.33-21.2-2.01-3.35-4.37-6.49-7.04-9.34s-5.63-5.21-8.67-7.57c-3.69-2.87-7.49-5.72-10.56-9.28-.11-.13-.15,.31-.08,.4h0Z"/><path class="cls-3" d="M565.9,335.03c14.52,7.55,22.23,22.57,26.66,37.67,1.37,4.67,2.53,9.4,3.69,14.14,.17,.68,.44-.23,.37-.56-3.69-15.95-7.81-32.9-20.06-44.63-3.12-2.98-6.63-5.32-10.62-6.97-.11-.04-.12,.3-.03,.35h0Z"/><path class="cls-3" d="M534.99,359.14l-4.39,1.79c-.09,.04-.03,.38,.03,.35l4.39-1.74c.12-.05,.08-.45-.03-.4h0Z"/><path class="cls-3" d="M524.44,365.35h-.88s-.04,.15,0,.15h.88s.04-.15,0-.15h0Z"/><path class="cls-3" d="M524.41,361.97c19.55-9.1,39.58-17.17,60.02-24.01,5.76-1.93,11.56-3.72,17.37-5.47,.22-.07,.13-.87-.02-.83-20.86,5.49-41.14,12.96-60.8,21.8-5.63,2.53-11.14,5.32-16.62,8.17-.08,.04-.05,.39,.04,.35h0Z"/><path class="cls-3" d="M515.35,372.93c7.71-2.84,15.2-6.29,22.83-9.34,7.69-3.07,15.47-5.91,23.3-8.63,15.77-5.48,31.81-9.99,48-14.04,9.13-2.28,18.32-4.29,27.55-6.08,.3-.06,.21-1.23-.03-1.19-16.45,2.65-32.71,6.23-48.73,10.8s-31.85,10-47.32,16.27c-8.68,3.52-17.46,7.1-25.63,11.71-.1,.06-.05,.54,.04,.51h0Z"/><path class="cls-3" d="M785.45,319.09c7.06,3.46,9.44,11.51,11.33,18.54,2.44,9.08,3.85,18.42,4.24,27.81,.02,.6,.41,.6,.4,0-.23-9.9-1.66-19.74-4.33-29.28-1.79-6.39-4.33-15.42-11.63-17.42-.08-.02-.09,.32,0,.36h0Z"/><path class="cls-3" d="M800.62,314.76c1.62,7.61,5.89,14.37,8.75,21.54,3.02,7.56,4.51,15.69,4.51,23.82,0,4.64-.55,9.26-1.52,13.8-.06,.3,.2,1.16,.35,.51,1.89-7.81,2.26-16.03,1.13-23.98-.56-3.99-1.49-7.92-2.76-11.74s-3.13-7.78-4.94-11.57c-2-4.2-3.86-8.38-5.35-12.78-.11-.32-.2,.31-.18,.41h0Z"/><path class="cls-3" d="M817.9,319.01c2.33,7.62,4.65,15.19,6.23,23.01s2.64,15.89,3.09,23.92c.25,4.52,.35,9.04,.25,13.56,0,.41,.34,.7,.36,.12,.63-16.27-1.23-32.53-5.52-48.23-1.18-4.32-2.49-8.63-4.25-12.76-.12-.29-.2,.27-.17,.38h0Z"/><path class="cls-3" d="M762.57,358.09c16.93-1.61,33.99-2.36,51-2.15s33.88,1.48,50.69,3.77c9.51,1.29,18.97,2.8,28.42,4.48,.12,.02,.17-.73-.02-.77-16.65-3.63-33.58-5.8-50.57-7.04s-33.86-1.65-50.8-1.01c-9.6,.36-19.18,1.17-28.72,2.26-.11,.01-.08,.47,.01,.46h0Z"/><path class="cls-3" d="M841.69,375.48c5.01,.32,10.07,.22,15.09,.17s10.05-.04,15.08,.03c10.05,.15,20.11,.54,30.14,1.18,20.06,1.28,40.08,3.46,59.93,6.62,11.18,1.78,22.34,3.7,33.44,5.94,.12,.02,.19-.83-.02-.88-19.63-4.66-39.45-8.11-59.48-10.52-19.96-2.41-40.06-3.71-60.16-4.05-5.67-.1-11.35-.11-17.03-.05s-11.4,.17-17.01,.94c-.14,.02-.13,.61,.02,.62h0Z"/><path class="cls-3" d="M958.24,348.63c3.11,9.43,2.93,19.4-1.05,28.55-.07,.15,.04,.86,.14,.67,4.3-9,4.91-20.2,.97-29.44-.06-.14-.08,.16-.06,.22h0Z"/><path class="cls-3" d="M967.17,351.35c1.13-.25,1.94,.82,2.34,1.77,.58,1.4,.37,3.05,.3,4.54-.14,2.97-.51,5.93-1.1,8.85-1.18,5.85-3.25,11.55-6.03,16.83-.11,.2,.03,1.16,.19,.89,3.48-6.13,5.76-12.79,6.81-19.76,.49-3.26,.89-6.73,.67-10.03-.11-1.59-1.02-4.93-3.21-3.64-.1,.06-.07,.58,.04,.56h0Z"/><path class="cls-3" d="M976.96,353.02c1.51,11.2-.41,22.4-6.38,32.1-.1,.17,.01,.98,.16,.75,6.14-9.5,8.86-21.84,6.3-32.97-.04-.18-.09,.05-.08,.12h0Z"/><path class="cls-3" d="M572.45,333.72c6.34-3.22,11.37-8.3,15.84-13.73,5.1-6.19,9.85-12.69,14.72-19.06,10.29-13.45,20.33-27.11,30.77-40.45,4.82-6.17,9.94-12.17,15.97-17.19,2.8-2.33,6.17-4.69,9.97-4.71,2.96-.02,5.52,1.54,7.13,3.97,3.38,5.1,2.9,11.81,2.93,17.63,.03,7.46,.16,15.01,1.77,22.32s4.72,13.49,9.45,18.99c2.25,2.62,4.73,5.02,7.31,7.3,1.36,1.2,2.75,2.36,4.15,3.51s3.03,2.2,4.26,3.52c.08,.09,.26,.4,.37,.44l.11,.15,.21-.27s-.35,.03-.43,0c-.06-.02-.44-.19-.49-.19-.03,0-.12-.12-.14-.12v.77c-.25,.64-.18,.88,.21,.72,.49,.05,.54-1.95-.05-2.01-1.02-.1-1.04,.98-.91,1.85,.11,.71,.68,2.28,1.6,2.26,1.35-.03,1.36-2.62,1.22-3.45-.28-1.66-1.43-2.76-2.69-3.77-6.23-4.99-12.62-10.09-17.25-16.68s-6.69-14.61-7.4-22.69c-.36-4.14-.4-8.31-.43-12.47-.02-3.46,.08-6.95-.35-10.39-.66-5.2-2.54-11.84-8.23-13.47-3.72-1.07-7.45,.66-10.43,2.78-3.39,2.4-6.41,5.4-9.26,8.41-5.75,6.09-10.74,12.84-15.78,19.51-5.59,7.39-11.18,14.77-16.77,22.15s-11.27,14.96-16.89,22.45c-4.7,6.27-9.51,12.69-15.87,17.38-1.54,1.13-3.15,2.14-4.84,3.03-.38,.2-.22,1.7,.2,1.49h0Z"/><path class="cls-3" d="M658.99,241.62c.61-.44,.51-1.29,.3-1.94-.56-1.77-2.12-1.73-3.61-1.01-3.12,1.52-6.07,4-8.66,6.28-5.32,4.67-9.82,10.32-13.14,16.57-1.92,3.61-3.67,7.51-4.51,11.53-.14,.67-.21,1.93,.31,2.47s.8-.19,.92-.67c.23-.96,1.42-2.16,1.99-2.97,.14-.21,.08-1.52-.23-1.27-.25,.19-1.92,1.75-2.23,1.59l.37,3.02c1.44-3.57,2.6-7.18,4.4-10.61s3.93-6.73,6.35-9.78,5.22-5.93,8.23-8.47c1.48-1.25,3.03-2.43,4.63-3.53,.77-.53,1.55-1.05,2.33-1.57,.6-.4,1.18-.75,1.94-.74,.35,0,1.29-.08,.56,.7-.07,.07-.05,.47,.05,.4h0Z"/><path class="cls-3" d="M654.6,242.85c.51-.68,.41-1.95-.24-2.53-1.13-.98-2.4,.72-3.08,1.46-2.41,2.59-4.72,5.29-6.91,8.07-4.5,5.72-8.44,11.9-11.87,18.32-.48,.91-.52,2.1-.39,3.1,.06,.43,.32,2.11,1.03,1.98,2.78-.5,5.03-2.33,6.93-4.31,2.21-2.3,4.25-4.77,6.3-7.21s4.15-5.04,6.16-7.62,3.99-5.49,6.18-8.08c.81-.96,.63-3.1,.41-4.2-.1-.53-.6-2.61-1.53-1.9-4.24,3.19-7.92,7.27-11.34,11.31s-6.48,8.31-9.19,12.82c-1.71,2.85-3.86,5.94-3.95,9.34-.05,1.77,.15,5.73,2.54,6.21,1.03,.21,2.06-.41,2.79-1.09,2.13-2.02,4.05-4.34,5.98-6.54s3.92-4.57,5.81-6.92c4.17-5.19,7.94-10.66,11.77-16.1,.96-1.36,.81-3.7,.53-5.22-.12-.63-.82-3.3-1.95-2.37-4.79,3.94-8.99,8.61-12.43,13.78s-6.23,10.78-7.85,16.64c-.54,1.94-.7,4.15-.15,6.12,.2,.73,1.02,3.24,2.22,2.26,4.89-4.02,9.25-8.55,13.05-13.62,1.89-2.52,3.65-5.13,5.32-7.81s3.04-5.54,4.95-7.98c.78-.99,.64-2.98,.42-4.1-.11-.53-.61-2.55-1.53-1.86-1.98,1.48-3.95,2.92-5.6,4.78-1.76,1.98-3.41,4.05-4.89,6.25-3.15,4.68-5.55,10-6.98,15.46-.5,1.92-.28,4.36,.32,6.21,.21,.64,1.23,3.02,2.31,1.95,6.74-6.66,12.69-14.14,17.21-22.49,.96-1.78,.96-4.17,.46-6.09-.26-1.02-1.29-3.2-2.38-1.53s-2.55,3.07-3.78,4.61-2.32,3.38-3.25,5.19c-2.26,4.36-3.8,9.12-4,14.06-.08,1.91-.05,3.94,.74,5.73,.3,.67,1.3,2.4,2.3,1.46,4.74-4.44,8.61-9.69,11.74-15.37,1.26-2.28,1.28-5.54,.6-8-.42-1.51-1.51-4.02-3.08-2.02-4.31,5.52-5.31,13.72-4.28,20.45,.11,.73,1.14,5.75,2.91,4.14,1.5-1.36,2.77-2.93,3.68-4.74l-2.94-8.94c.28-.64-.21,.26-.3,.39-.33,.52-.56,1.04-.86,1.59-.44,.8-.97,1.53-1.62,2.18-.78,.77-.88,2.12-.86,3.16,.02,.81,.12,2.71,1.01,3.11s1.95,.81,2.94,.78c1.28-.04,2.07-1.22,2.63-2.27,1.21-2.3,1.32-5.39,.61-7.87-.35-1.21-1.78-4.25-3.13-1.98-.72,1.22-1.54,2.13-2.67,2.99l2.91,4.14c-.04-.27-.08-.53-.12-.8-.07-.66-.07-.53,.01,.39-.02-.27-.02-.54-.03-.81,0-.67,0-.54-.01,.38,.01-.27,.04-.54,.06-.81-.11,.76-.12,.83-.03,.22,.03-.14,.32-1.57,.18-.98s.26-.82,.31-.95,.61-1.44,.37-.94c.48-.99,1.08-1.9,1.69-2.81l-2.48-10.02c-2.59,5.42-6.26,10.07-10.78,14.03l3.04,7.2c.02-.56,.06-1.11,.12-1.66,.04-.34,0-1.56,.02-.23,0-.4,.15-.85,.23-1.24,.06-.27,.12-.55,.19-.82-.14,.51-.14,.49,.02-.04,.27-.81,.53-1.62,.84-2.41s.73-1.75,.99-2.26c.88-1.72,1.82-3.41,2.74-5.1,.99-1.84,1.95-3.86,3.23-5.51l-1.91-7.62c-4.42,7.39-9.93,14-16.71,19.34l2.33,9.31c.81-2.46,1.54-4.91,2.55-7.3s1.93-4.28,3.24-6.64,2.65-4.43,4.17-6.52c1.66-2.28,3.23-4.62,5.07-6.76l-1.41-5.63c-1.36,2.57-3.24,4.93-4.97,7.27s-3.49,4.67-5.36,6.9c-3.65,4.34-7.84,8.44-12.84,11.16l2.07,8.38c1.78-5.66,3.9-10.9,7.06-15.94s6.97-9.56,11.39-13.52l-1.42-7.59c-3.6,5.49-7.79,10.62-12.13,15.54-2.18,2.47-4.43,4.88-6.74,7.23-1.1,1.12-2.22,2.23-3.35,3.32-.48,.46-.94,.97-1.52,1.3-.05,.03-.54,.2-.57,.23-.25,.22-.27-.21,0,.21l.58,7.97c2.62-5.7,5.87-11.24,9.5-16.39s8.08-10.02,12.46-14.81l-1.12-6.1c-3.32,5.5-7.55,10.58-11.59,15.56-1.93,2.38-3.88,4.76-5.95,7.03-1.91,2.1-4.03,4-6.75,4.92l.64,5.08c2.7-5.69,5.76-11.21,9.17-16.5,1.67-2.59,3.4-5.14,5.22-7.62,.95-1.31,1.93-2.59,2.93-3.87,.47-.6,.95-1.21,1.44-1.8,.25-.31,.48-.68,.82-.89,.24-.16,1.03-.2,1.03-.23l.14-.72-.14,.24c-.17,.3-.03,1.87,.34,1.37h0Z"/><path class="cls-3" d="M626.79,269.69c-.02-1.68-.07-2.14-.16-1.37,0,.12,0,.25,0,.37,0,.35,.05,.68,.17,1.01,.18,.49,.48,.96,.74,1.4,.56,.95,1.3,1.76,2.12,2.5,1.62,1.46,3.53,2.47,5.62,3.03,4.14,1.12,9.02,.15,12.11-2.95,.26-.26,.26-1.85-.21-1.59-3.37,1.91-7,2.25-10.77,1.45s-6.94-2.83-9.05-5.86c-.29-.41-.55,.07-.64,.34-.16,.49-.14,1.2,.08,1.67h0Z"/><path class="cls-3" d="M653.98,240.03c2.57,.05,5.18-.26,7.73,.41s5.16,2.51,6.04,5.09c.57,1.65,.42,3.5,.32,5.22-.13,2.13-.38,4.24-.73,6.35-.73,4.38-1.94,8.54-3.29,12.76-.1,.3,.11,2.28,.5,1.61,3.73-6.35,5.1-14.27,5.25-21.53,.07-3.3-.17-7.03-2.23-9.78-1.49-1.98-3.69-3.26-6.1-3.77-3.11-.66-5.9,.54-7.54,3.26-.04,.06-.07,.38,.05,.38h0Z"/><path class="cls-3" d="M1193.12,309.37c.2,.12,.44,1.43,.38,.83-.04-.4-.11,.4-.18,.62-.12,.37-.29,.71-.47,1.06-.85,1.59-2.12,2.9-3.55,3.97-3.11,2.32-6.94,3.36-10.46,4.87-6.39,2.75-11.43,7.25-14.22,13.72-1.69,3.92-2.89,9.03-2.14,13.29,.07,.4,.16,1.46,.64,1.66s.7-.23,.82-.64c.48-1.66,.61-3.4,1.14-5.02,.58-1.78,1.33-3.54,2.24-5.18,1.96-3.54,4.64-6.68,7.94-9.04,3.72-2.66,8.17-3.82,12.14-6.02s6.95-5.57,7.8-10.01c.28-1.47,.33-3,.17-4.48-.08-.76-.2-3.13-1.21-3.34-1.38-.29-2.05,3.1-1.04,3.7h0Z"/><path class="cls-3" d="M1163.75,355.03c.62-2.78,3.66-4.58,6.38-4.37,1.38,.1,2.69,.7,3.66,1.7,.48,.5,.88,1.11,1.14,1.76,.1,.24,.14,.45,.23,.7,.06,.18,.07,.46,.05,.18,0,.1-.01,.37-.14,.71-.21,.55-.59,1.05-1.03,1.44-.95,.85-2.14,1.19-3.4,1.18-2.4-.02-5.23-1.41-5.94-3.74-.25-.82-.99-1.44-1.56-.52-.91,1.46-3.73-2.73-4.09-3.29-1.39-2.16-3.15-3.62-5.6-4.45-4.88-1.65-9.63,.01-13.97,2.34-2.44,1.31-4.37,3.38-6.29,5.34-2.08,2.12-4.07,4.33-6.21,6.4-4.48,4.34-9.33,8.28-14.37,11.96-10.08,7.37-20.82,13.69-31.47,20.2s-21.09,13.68-29.23,23.31c-4.41,5.21-8,11.16-10.44,17.54-1.26,3.31-2.22,6.77-2.78,10.28-.72,4.49-1.35,9.6,.02,14,.31,.99,1.03,3.06,2.43,2.6s1.73-2.82,1.87-4.03c.18-1.57,.35-3.06,.71-4.6,.39-1.65,.78-3.29,1.16-4.94,.23-1.01,.22-2.42-.36-3.32-.51-.79-1.06-.55-1.44,.24-.62,1.26-1.23,2.53-1.83,3.8-.49,1.03-1.16,1.76-1.87,2.64l3.64,6.19c-.28,1.86,.11-.45,.16-1.08,.07-.79,.05-1.33,.04-2.04,0-.41,0-.82-.01-1.22-.02-1.19,.02,.4-.03,.41,.05,0,.11-1.78,.13-2.02,.03-.4,.07-.81,.12-1.21,.04-.35,.14-1.63,0-.14,.13-1.33,.49-2.67,.83-3.96,0-.01,.35-1.3,.14-.55s.17-.53,.17-.54c.25-.78,.52-1.55,.81-2.31,1.97-5.2,4.95-9.95,8.44-14.26,7.46-9.22,17.71-16.07,27.73-22.31,10.4-6.48,21.04-12.55,30.98-19.73,4.89-3.53,9.59-7.38,13.97-11.53,2.23-2.11,4.39-4.3,6.42-6.6s3.83-4.54,5.94-6.64,4.21-4.41,7.28-5.35c2.4-.73,5.09-.9,7.51-.18,1.15,.34,2.22,.97,3.13,1.75,.85,.73,1.45,1.72,2.21,2.56,1.48,1.63,4.02,3.6,5.57,.97l-1.56-.52c.92,2.86,3.41,5.02,6.46,5.2s5.65-1.72,6.75-4.55c1.95-4.98,.03-14.67-7.21-12.35-3.08,.99-5.37,3.49-5.48,6.78,0,.15,.12,.61,.21,.23h0Z"/><path class="cls-3" d="M1055.95,430.44c.75,1.61-.33-.73-.43-.96-.27-.63-1.02-1.83-1.88-1.17-1.69,1.3-3.04,3.43-4.24,5.17-1.55,2.24-2.75,4.81-3.73,7.35-2.33,6.08-2.8,12.68-1.29,19.01,.35,1.46,1.97,4.38,3.5,2.1,4.31-6.37,7.7-13.34,10.1-20.65,.83-2.52,.88-5.39,0-7.9-.46-1.33-1.97-3.52-3.26-1.47-5.48,8.71-7.94,18.78-8,29.01,0,1.65,.3,3.88,1.37,5.23,.8,1,1.79,1.01,2.54-.06,4.2-6.07,7.15-12.84,8.99-19.98l-4.57-6.04c-1.65,6.86-2.68,13.89-3.05,20.94-.11,2.14-.1,5.07,1.35,6.86,1.21,1.51,2.47,.38,3.08-1.03,2.71-6.3,4.76-12.91,6.13-19.63l-4.8-4.59c-1.04,8.89-.96,17.88,.08,26.76,.14,1.25,.54,3.08,1.58,3.93,.82,.66,1.66,.63,2.27-.36,5.32-8.59,4.44-19.29,3.13-28.86l-4.18,6.06c.86,1.83,1.67,3.67,2.42,5.54,.35,.86,.68,1.73,1.01,2.6,.08,.22,.48,1.35,.19,.52,.18,.51,.36,1.03,.53,1.54,1.25,3.75,2.28,7.58,3.11,11.44,.34,1.57,2.17,4.32,3.68,2.1,1.61-2.37,1.31-5.76,.74-8.39l-4.13-19.29-3.98,7.51c-.34-.94,.19,.57,.25,.76,.17,.52,.34,1.04,.5,1.56,.28,.89,.54,1.79,.78,2.69,.28,1.03,.62,2.12,.77,3.18-.19-1.35,.04,.19,.07,.38,.1,.54,.2,1.07,.29,1.61,.17,1,.31,2,.44,3,.06,.46,.11,.93,.16,1.39,.03,.31,.06,.62,.09,.93-.06-.77-.07-.92-.04-.46,.06,1.01,.14,2.02,.16,3.03,.01,.46,.04,.94,0,1.4,.03-.85,.03-.92,0-.23-.05,.7-.07,1.4-.05,2.09l3.31-5.93c-1.12-.65-1.58-1.49-2.66-2.1l1.15,1.86c-.3-.89-.33-.8-.41-1.59-.07-.73-.53-2.53-1.56-2.5s-1.34,1.83-1.44,2.58c-.21,1.55-.2,3.23,.12,4.76l-.05-2.18c-.18,3.78,.83,7.25,3.03,10.31,.7,.97,1.62,.93,2.44,.25,1.01-.86,1.43-2.71,1.48-3.97,.43-10.7-1.63-21.54-5.29-31.56-.25-.69-1.05-1.77-1.92-1.75-.77,.02-1.26,.76-1.57,1.35-1.27,2.39-1.03,5.35-.49,7.91l4.13,19.29,4.42-6.28c-1.8-8.31-4.6-16.42-8.23-24.11-.63-1.34-2.06-2.54-3.16-.88-1.28,1.93-1.33,4.73-1.02,6.93,.24,1.71,.48,3.43,.64,5.15,.16,1.62-.04-1.02,.02,.25,.02,.42,.05,.83,.07,1.25,.01,.33,.28,2.27,.03,2.48,.03-.87,.04-1.07,.01-.6,0,.2-.02,.41-.04,.61-.03,.41-.07,.81-.11,1.22-.13,1.37,.26-1.22-.01,.13-.08,.39-.15,.79-.25,1.18-.11,.47-.17,1.13-.06,.29-.05,.37-.27,.78-.4,1.13-.1,.25-.2,.49-.31,.74-.19,.4-.23,.48-.1,.24,.13-.24,.09-.17-.13,.23-.13,.24-.27,.47-.42,.7l3.86,3.56c-.11-.98-.21-1.95-.3-2.93-.12-1.33,.06,1.12-.02-.33-.02-.41-.05-.82-.08-1.23-.11-1.88-.16-3.76-.16-5.64,0-.49,0-.98,.01-1.47,0-.18,.02-1.57,0-.66s.02-.48,.03-.66c.02-.49,.05-.98,.08-1.47,.12-1.96,.29-3.92,.52-5.87,.17-1.45,.06-3.29-.37-4.7-.26-.86-.56-1.88-1.29-2.47-1.74-1.42-2.84,1.1-3.14,2.58s-.66,3.07-1.04,4.59c-.19,.76-.4,1.52-.61,2.27-.03,.11-.38,1.29-.21,.73,.16-.53-.24,.76-.23,.73-.95,3-2.05,5.93-3.29,8.82l4.42,5.83c.17-3.2,.48-6.39,.92-9.57,.08-.57,.05-.48,0,.04,.06-.47,.15-.95,.23-1.42,.12-.71,.25-1.42,.39-2.13,.32-1.65,.68-3.3,1.07-4.93,.59-2.47,.55-6.23-1.12-8.32s-3.06,.77-3.44,2.27c-.11,.42-.22,.84-.34,1.27-.24,.92,.12-.33-.06,.22-.25,.76-.49,1.52-.76,2.28-.51,1.44-1.09,2.85-1.72,4.25-.15,.33-.3,.66-.46,.99-.04,.09-.49,1.01-.33,.69s-.31,.59-.36,.68c-.21,.38-.42,.77-.63,1.14-.79,1.39-1.65,2.74-2.55,4.06l3.91,5.17c0-.18,.04-1.96,0-.95s.05-.78,.07-.95c.06-.87,.09-1.78,.27-2.63-.32,1.46,.09-.45,.14-.72,.08-.43,.17-.87,.27-1.3s.2-.86,.3-1.29c.04-.15,.44-1.59,.29-1.08s.3-.92,.35-1.07c.14-.42,.29-.83,.44-1.25,.33-.9,.69-1.78,1.08-2.65,.69-1.56,1.43-2.92,2.53-4.68l-3.26-9.37c-2.29,6.97-5.1,12.62-9.16,18.61l3.5,2.1c-.08-.28-.14-.56-.21-.84,.15,.74,.17,.8,.07,.18-.23-1.25,.12,1.31,0-.29,0-.46-.01-.28-.03,.55,.01-.28,.03-.56,.06-.85,.03-.28,.06-.56,.1-.84-.11,.73-.11,.79,0,.17,.1-.42,.19-.84,.29-1.26,.15-.54,.15-.56,0-.04,.09-.28,.18-.56,.27-.83,.34-.98,.72-1.94,1.15-2.89,.9-2.02,1.89-3.89,2.86-5.82,.5-1.01,.97-2.07,1.55-3.03,.33-.56,.75-1,.99-1.63,.43-1.1,.49-2.34,.47-3.51l-.41,2.87c.59-1.61,.98-3.41,.2-5.08h0Z"/></g></svg>