<?xml version="1.0" encoding="UTF-8"?><svg id="Layer_1" xmlns="http://www.w3.org/2000/svg" viewBox="0 0 1500 750"><defs><style>.cls-1{fill:#9f938f;}.cls-2{fill:#231f20;}.cls-3{fill:#e5d7d2;}</style></defs><g><path class="cls-1" d="M781.95,525.19s191.16,21.06,237.85,15.62l46.68-5.44-.77-3.93s109.9-8.46,119.42-14.79c9.52-6.32,28.07-7.19,0-22.86-28.07-15.67-174.6-96.44-207.89-101.71-33.29-5.28-186.3-71.1-198.13-80.45-11.84-9.36-4.64-79.22-51.26-105.6s-28.55,18.98-35.69,42.74c-7.13,23.75-11.62,70.42-60.78,83.67l-178.73-.43s-139.98-175.77-144.84-178.91-14.81-5.35,0,33.04c14.81,38.39,55.4,114.79,75.04,139.07,19.64,24.28,5.19,94.06,.61,96.49-4.58,2.43,31.05-2.93,63.88-56.99,0,0,203.15,117.23,226.51,123.73s108.1,36.76,108.1,36.76Z"/><path class="cls-1" d="M693.99,470.25s-48.12,49.13-143.54,96.7c-95.42,47.56,29.7,26.65,57.01,18.83,27.3-7.83,222.19-85.23,222.19-85.23l-135.65-30.29Z"/><path class="cls-1" d="M491.97,401.86c-.05-.86,.05-1.61,.11-2.45,.1-1.51-4.23-3.42-4.26-1.92-.04,2.33,.42,4.57,1.29,6.73,.45,1.12,1.75,1.98,2.84,2.38,.63,.24,2.14,.69,2.25-.4,.44-4.63-.39-9.36-1.89-13.74-.42-1.24-1.9-2.22-3.05-2.68-.64-.25-2.42-.81-2.48,.39-.19,3.73,.49,6.99,3.67,9.33,2.28,1.67,6.76,3.52,8.87,.6,1.01-1.39-2.19-3.61-3.02-3.98-.96-.44-1.92-.87-2.89-1.29l3.6,4.8c3.19-2.05,6.39-4.09,9.58-6.15l-6.12-4.88-7.92,7.8c-.99,.97,1.33,3.05,1.88,3.49,.96,.77,3.09,2.22,4.41,1.53,.44-.23,.28-.31,.72-.19l-5-5.09c-1.25,1.24-2.49,2.5-3.73,3.76-.98,1,1.33,3.07,1.89,3.52,1.2,.96,2.86,1.93,4.45,1.54,3.75-.93,7.43-2.15,10.98-3.68,1.78-.76,3.52-1.6,5.23-2.5,1.58-.84,3.74-1.68,4.69-3.22,.68-1.09-.99-2.59-1.7-3.15-1.12-.88-2.52-1.68-3.98-1.38-1.9,.4-3.6,1.73-5.32,2.62s-3.33,1.65-5.05,2.37c-3.5,1.48-7.11,2.66-10.79,3.57l6.34,5.06c1.24-1.25,2.48-2.51,3.71-3.77,.74-.76-.7-2.39-1.11-2.81-1.06-1.09-2.41-1.92-3.89-2.28-1.12-.27-2.32-.25-3.34,.31l6.29,5.02,7.74-7.92c.95-.97-1.27-2.96-1.83-3.4-.84-.67-3.14-2.26-4.3-1.48-3.16,2.12-6.32,4.25-9.48,6.37-2.19,1.47,2.53,4.37,3.6,4.8,.67,.27,1.35,.52,2.02,.77l-3.86-4.35c-.27,.46-.57,.75-1.09,.86,0,0-.5,.06-.47-.02,.04-.12,1.74,.79,1.68,1.06-.01,.07-.39-.84-.4-.87-.12-.36-.21-.73-.27-1.1-.16-.95-.16-1.93-.18-2.89l-5.53-2.29c1.69,4.24,2.25,8.62,2.16,13.16l5.08,1.98c-1.01-2.01-1.69-4.14-2.03-6.37l-4.18-1.58c.56,1.04,1.13,2.04,1.62,3.12,.2,.45,2.51,1.93,2.45,.92h0Z"/><path class="cls-1" d="M534.56,413.61c3.35,8.64,6.08,17.44,7.34,26.64l5.92,2.33c-.79-5.52-1.46-11.03-1.8-16.6l-5.85-3.27c.91,9.88,1.36,20.28-1.89,29.81-.6,1.77,4.53,5.44,5.68,3.68,6.34-9.66,14.32-18.36,22.83-26.15l-5.96-4.13c-6.29,5.52-12.03,11.72-17.97,17.63-.46,.46,.03,1.53,.26,1.92,.44,.75,1.1,1.35,1.78,1.87,.92,.71,3.59,2.43,4.81,1.46,5.38-4.29,10.66-8.72,16-13.06l-7.36-5.5c-3.45,3.72-6.92,7.43-10.37,11.14-1.14,1.23,1.12,3.55,1.88,4.22,1.04,.93,3.51,2.75,5.04,1.92,3.14-1.69,6.27-3.41,9.39-5.13l-6.93-6.15c-3.54,3.88-7.38,7.48-11.51,10.73-1.97,1.55-4,3.02-6.11,4.39s-4.21,3.04-6.51,4.29l5.96,5.8c6.53-10.05,7.65-21.98,8.86-33.59l-7.07-4.29c.26,4.02,.51,8.04,.81,12.06,.06,.78,1,1.89,1.49,2.38,.69,.68,1.46,1.26,2.33,1.71,.79,.41,3.38,1.4,3.51-.3,.15-2.04,.3-4.07,.45-6.11l-5.06-.73c1.45,1.14,2.89,2.28,4.34,3.42,.71,.56,4.03,2.98,4.9,1.38,.32-.59,.65-1.18,.97-1.77l-7.02-3.99c.77,1.81,.69,3.55,.43,5.46l7.18,3.26c-.39-.84-.79-1.68-1.18-2.51-.75-1.59-2.43-3.02-4.09-3.56-1.02-.33-2.83-.38-2.42,1.28,.18,.74,.37,1.48,.55,2.21,.47,1.88,2.18,3.41,3.82,4.3,1.07,.58,3.1,1.38,3.63-.25,.86-2.64,.21-5.8-.92-8.25-.71-1.54-2.11-2.83-3.56-3.64-.62-.35-2.91-1.44-3.46-.35-.3,.6-.6,1.19-.9,1.79l4.9,1.38c-1.49-1.13-2.98-2.26-4.48-3.39-.55-.41-4.92-3.21-5.06-.73-.13,2.12-.25,4.24-.38,6.36l7.33,3.8c-.33-3.85-.71-7.69-1.06-11.54-.15-1.66-2.35-3.26-3.66-3.94-.76-.39-3.25-1.35-3.37,.28-.83,11.04-2.05,22.87-8.22,32.39-.85,1.31,.64,3.03,1.51,3.88s3.1,2.66,4.46,1.92c2.4-1.3,4.95-2.38,7.23-3.88,2.41-1.59,4.78-3.27,7.06-5.04,4.22-3.27,8.14-6.89,11.76-10.8,1.13-1.23-1.13-3.55-1.89-4.22-1.04-.92-3.52-2.76-5.04-1.94-3.13,1.7-6.26,3.41-9.37,5.14l6.92,6.14c3.44-3.81,6.88-7.62,10.33-11.43,.48-.53,.09-1.55-.16-2.04-.47-.93-1.38-1.86-2.22-2.46-1.29-.92-3.53-2.26-4.99-1-5.15,4.44-10.38,8.81-15.48,13.31l7.28,4.89c5.58-6.07,11.48-11.96,16.65-18.39,.9-1.12-1.25-2.94-2.01-3.47-1-.7-2.87-1.69-3.95-.66-8.4,7.96-15.61,16.83-22.4,26.17l5.53,4.1c1.88-4.79,2.7-9.67,2.82-14.81s-.38-10.28-.76-15.41c-.11-1.53-1.47-2.73-2.74-3.43-.53-.29-3.18-1.33-3.11,.16,.26,5.87,.76,11.75,1.74,17.54,.26,1.53,2.23,2.86,3.56,3.37,1.07,.41,2.6,.51,2.36-1.04-1.51-9.62-4.39-19.13-9.09-27.69-.54-.98-1.64-1.82-2.7-2.12-.58-.16-1.86-.19-1.46,.84h0Z"/><path class="cls-1" d="M545.16,419.91c-.01,3.82,.41,7.62,.72,11.43s.65,7.86,1.22,11.75c.21,1.46,2.01,2.98,3.21,3.65,.8,.45,2.88,1.51,3.61,.42,2.56-3.83,4.16-8.36,4.42-12.97,.15-2.67-.02-5.01-1.85-7.12-1.21-1.4-2.93-2.54-4.76-2.91-1.07-.21-2.48-.09-3.07,.97-.99,1.79,1.77,3.98,3,4.72l3.98,2.39,1.79,1.07c.33,.2,.66,.41,.99,.6,.87,.49-.19-.1-.42-.36l-1.17-1.56c-.45-.74,.37-1.18,.97-1.01l1.81,.76-.13-.08,2.48,2.2-.09-.11,.77,1.52,.07,.35-2.08,.86c.33,.05,.65,.1,.98,.19-.3-.11-.34-.12-.1-.02,.27,.12,.21,.07-.19-.13,.78,.78-.67-.69,.15,.07-.85-.8-.04,0,.09,.13-.57-.63,.14,.33-.22-.27,.17,.28,.33,.58,.44,.89-.13-.36,.04,.23,.07,.35,.09,.38,.13,.76,.16,1.14l5.75,.64c-1.09-1.11-2.26-2.1-3.48-3.06-.84-.67-2.56-1.74-3.73-1.22s-.39,2.02,.13,2.7c.88,1.16,1.78,2.26,2.81,3.29,1.09,1.1,6.03,4.12,5.75,.64-.44-5.51-6.32-10.69-11.64-11.33-.9-.11-1.79-.19-2.08,.86-.33,1.21,.8,2.56,1.57,3.35,1.17,1.19,2.96,2.35,4.68,2.38,2.07,.03,2.51-1.71,1.7-3.36-1.14-2.33-3.54-3.67-5.68-4.92l-5.58-3.27,3,4.72c.35-.67-1.87-.92-2.26-1.25l-1.48-1.49c-.21-.26-.07-.53-.08,0,0,.18,.03,.39,.04,.58,.03,.72,0,1.46-.06,2.18-.1,1.38-.33,2.76-.66,4.1-.68,2.74-1.87,5.26-3.46,7.59l6.81,4.06c-.59-4-1.43-7.99-2.26-11.95s-1.63-8.16-2.75-12.17c-.26-.95-1.19-1.74-2.04-2.15-.38-.19-1.85-.74-1.86,.17h0Z"/><path class="cls-1" d="M487.09,343.23c.25-4.34,2.69-8.32,6.53-10.4l-4.04-4.03c-1.65,2.05-3.74,3.76-6.17,4.81l4.52,5.21c1.64-2.91,3.13-5.8,5.12-8.5,.76-1.03-.45-2.63-1.09-3.39-.77-.92-2.24-2.44-3.6-2.21-3.25,.55-6.21,2.37-8.09,5.08-.84,1.2,.58,3.05,1.39,3.91s2.45,2.5,3.75,1.77c4.92-2.76,9.02-6.77,11.85-11.65l-3.2-1.04c5.52,4.64,11.05,9.27,16.56,13.92l-.04-4.48c-5.69-3.28-11.89-5.6-18.38-6.65-1.36-.22-1.42,1.03-1.04,1.99,.61,1.54,2.03,3.04,3.46,3.85,4.24,2.38,8.43,5.06,12.87,7.05,1.26,.57,2.21-.06,1.8-1.42-.53-1.74-2.13-3.07-3.58-4.02-3.81-2.52-7.98-4.58-11.97-6.81l2.41,5.83c5.38,.85,10.56,2.55,15.3,5.25,.81,.46,2.66,1.27,2.72-.31s-1.67-3.26-2.76-4.17c-5.5-4.58-10.99-9.19-16.48-13.78-.37-.31-2.67-2.01-3.2-1.04-2.7,4.91-6.63,8.98-11.45,11.82l5.14,5.67c1.71-2.57,4.22-4.34,7.25-4.96l-4.69-5.61c-1.97,2.85-3.93,5.98-5.11,9.25-.42,1.15,1.22,2.86,1.92,3.49s2.13,1.85,3.15,1.17c2.36-1.56,4.27-3.54,5.69-5.98,.89-1.52-2.51-4.96-4.04-4.03-4.19,2.55-6.46,7.19-6.08,12.06,.07,.9,1.13,1.84,1.82,2.28,.3,.19,1.72,.95,1.77,.09h0Z"/><path class="cls-1" d="M859.08,534.82c1.71,4.37,4.83,8,8.72,10.62,.47,.32,2.25,1.17,1.99-.25-.82-4.45-3.56-8.25-7.15-10.92-.41-.3-1.27-.89-1.79-.47s-.15,1.41,.09,1.85c2.52,4.7,5.09,9.38,7.66,14.05,.31,.56,3.79,4.4,4.31,2.32,1.05-4.14-.09-8.47-2.49-11.94-.74-1.07-2.3-3.28-3.87-3.01s-.31,2.73,.11,3.38c1.51,2.34,2.99,4.7,4.48,7.05,.76,1.2,2.27,3.17,3.87,3.22s1.08-1.77,.67-2.72c-1.39-3.27-3.27-6.3-5.48-9.09l-1.35,3.87c1.81,1.49,3.63,2.98,5.46,4.46,.42,.34,2.04,1.47,2.63,.74,2.47-3.14,6.19-4.82,10.18-4.56l-5.07-7.32c-2.36,1.86-4.71,3.72-7.07,5.59-1.32,1.04,.55,3.85,1.25,4.73,.82,1.02,2.7,3.25,4.25,2.42,2.95-1.57,5.9-3.15,8.85-4.72l-5.44-7.17c-1.96,1.57-3.91,3.15-5.86,4.73s-4.02,3.07-5.78,4.85c-1.15,1.16,.35,3.54,1.11,4.52,.69,.89,2.61,3.25,4,2.38,2.13-1.33,4.05-3.04,6.03-4.6s3.96-3.14,5.94-4.71c1.31-1.05-.51-3.83-1.22-4.73-.8-1.02-2.68-3.27-4.22-2.44-2.97,1.58-5.94,3.16-8.91,4.74l5.5,7.15c2.38-1.87,4.75-3.74,7.13-5.6,1.2-.94-.39-3.44-.94-4.24-.94-1.36-2.36-2.96-4.12-3.08-4.27-.27-8.52,1.64-11.1,5.07l2.63,.74c-1.8-1.47-3.61-2.93-5.43-4.38-.66-.53-2.39-1.54-2.89-.27s.79,3.22,1.54,4.14c1.3,1.6,2.4,3.34,3.36,5.39l4.55,.5c-1.6-2.34-3.21-4.67-4.78-7.03l-3.17,1.21c-.32-.45,.13,.33,.04,.13-.05-.1,.18,.42,.22,.51,.17,.45,.31,.97,.39,1.45,.2,1.2,.16,2.45-.07,3.64l4.31,2.32c-2.63-4.46-5.27-8.92-7.95-13.36l-1.35,2.02c1.68,1.11,2.35,2.52,2.84,4.53l1.36-1.11c-2.4-1.44-4.22-3.6-5.64-5.99-.32-.54-1.05-1.4-1.74-1.51-.57-.09-.8,.37-.59,.89h0Z"/><path class="cls-1" d="M865.93,537.19l.81,.34,.84,1.62,.04,.34-.64,.19c2.24,.95,4.46,1.91,6.84,2.49,2.51,.61,5.06,1.05,7.63,1.29s4.96,.3,7.44,.11c2.66-.2,4.87-.56,7.03-2.2,.68-.51-.13-1.93-.43-2.4-.49-.78-1.24-1.74-2.23-1.85-1.88-.22-3.63-.36-5.52-.13-1.6,.19-3.2,.29-4.8,.35-3.25,.12-6.48-.02-9.69-.52-1.54-.24-3.06-.61-4.59-.89-.87-.16-2.86-1.09-3.47-.04-.65,1.12,.36,2.91,1.16,3.64,.52,.48,1.67,1.01,1.68-.13,0-.56-1.59-3.26-2.11-2.2h0Z"/><path class="cls-1" d="M897.07,536.47c-3.91,2.99-7.93,5.82-11.94,8.69-.85,.61,.99,3.59,1.83,3.05,4.14-2.7,8.26-5.43,12.48-8,.69-.42-.12-1.92-.41-2.36-.25-.38-1.31-1.87-1.96-1.38h0Z"/><path class="cls-3" d="M1189.4,508.54c-13.27,1.38-26.41,3.58-39.58,5.69-13.27,2.12-26.57,4.12-39.87,6.05-26.48,3.84-53.05,7.08-79.67,9.72-15.27,1.51-30.57,2.74-45.86,3.96-1.28,.1-.37,6.63,1.3,6.51,26.55-1.86,53.07-4.67,79.49-7.91,26.52-3.25,52.99-7.04,79.3-11.72,7.45-1.32,14.89-2.71,22.3-4.23,7.53-1.54,14.94-3.31,22.35-5.4,.64-.18,.77-2.72,.26-2.67h0Z"/><path class="cls-3" d="M795.42,510.04c1.35-2.81,5.56-2.83,8.19-2.63,4.64,.34,9.28,1.18,13.89,1.76,9.96,1.24,19.92,2.38,29.92,3.27,19.8,1.76,39.65,3.15,59.51,3.99,19.84,.84,39.69,1.25,59.54,1.23s39.71-.46,59.54-1.32c19.8-.87,39.56-2.23,59.29-4.12,2.42-.23,4.85-.47,7.27-.71,1.36-.14-1.61-5.45-3.26-5.31-19.92,1.63-39.88,2.88-59.84,3.82-19.92,.94-39.85,1.45-59.79,1.53s-39.88-.27-59.8-1.06c-19.9-.78-39.78-1.89-59.63-3.46-9.84-.78-19.69-1.58-29.52-2.44-4.91-.43-9.81-.88-14.71-1.36-3.22-.32-6.93-.92-9.89,.81-1.29,.75-1.9,2.15-2.14,3.56-.09,.52,1.14,3.09,1.44,2.46h0Z"/><path class="cls-3" d="M1081.09,511.42c-32.52,3.39-65.27,4.83-97.95,5.26s-65.45-.31-98.1-2.29c-18.35-1.11-36.66-2.54-54.98-4.11-.68-.06-1.29,2.42-.82,2.48,32.52,4.25,65.31,6.49,98.07,7.65,32.83,1.16,65.71,.94,98.52-.5,18.39-.81,36.77-2.06,55.13-3.39,1.24-.09,1.09-5.2,.13-5.1h0Z"/><path class="cls-3" d="M798.29,506.61c.77,2.32,2.03,4.18,4.19,5.39,1.82,1.03,3.93,1.5,5.98,1.82,6.09,.96,12.35,1.32,18.5,1.82,12.99,1.05,25.99,1.99,39,2.82,25.88,1.65,51.81,2.63,77.73,3.28,7.36,.18,14.72,.34,22.08,.38s14.69,.24,22.01-.03l-2.58-5.45c-9.3,.75-18.67,.8-27.99,1.09s-18.86,.59-28.29,.88c-18.64,.57-37.27,1.22-55.9,1.85-5.16,.17-10.31,.38-15.47,.5-2.43,.06-4.87,.09-7.3,.06-1.21-.01-2.42-.04-3.63-.12-.55-.04-1.11-.08-1.66-.12-2.41-.19-2.1,.61-5.16,2.75l6.17,.06c-3.31-2.81-2.59-2.9-5.56-3.22-.84-.09-1.69-.2-2.53-.31-1.76-.25-3.51-.55-5.24-.94-3.37-.74-6.64-1.81-9.88-3.01-3.46-1.28-6.97-2.33-10.47-3.51s-6.84-2.18-10.41-2.77l1.4,7.07c30.13,4.21,60.34,7.67,90.64,10.48,30.15,2.8,60.34,5.12,90.57,6.87,8.46,.49,16.92,.99,25.38,1.29,4.28,.15,8.56,.28,12.84,.35,2.13,.04,4.26,.1,6.39,.09s4.16-.39,6.21-.3c1.2,.05,.11-2.31-.1-2.75-.42-.87-1.61-3.21-2.83-3.26-1.87-.08-3.8-.5-5.66-.74-1.99-.26-4.01-.33-6.01-.47-3.81-.28-7.63-.56-11.45-.8-7.4-.47-14.8-.88-22.2-1.32-15.01-.89-30.01-1.89-45.01-3.01-29.86-2.22-59.68-4.92-89.45-8.07-17.02-1.8-34.05-3.51-51.05-5.46-.94-.11-.27,3.2-.21,3.42,.2,.82,.86,3.54,1.95,3.69,2.71,.37,5.36,1.01,7.97,1.8s4.79,1.94,7.22,2.9c5.36,2.12,10.95,3.85,16.64,4.81,12.2,2.05,24.79,1.03,37.08,.51,24.62-1.03,49.23-2.09,73.85-3.19,6.91-.31,13.83-.62,20.74-.93,7-.31,14.01-.75,21.02-.72,1.27,0-1.04-5.37-2.58-5.45-6.27-.3-12.57-.28-18.84-.43s-12.51-.28-18.77-.43c-12.98-.3-25.96-.69-38.93-1.2-25.07-.99-50.13-2.33-75.17-4.01-7.07-.47-14.13-.96-21.21-1.4-2.66-.16-5.38-.21-7.96-.93-1.98-.55-4.35-1.55-5.08-3.65-.16-.45-.61-1.36-1.07-.75s-.07,2.17,.12,2.76h0Z"/><path class="cls-3" d="M1040.75,531.33c-31.22-.91-62.38,.5-93.59,1.09-30.9,.58-62.03-.06-92.47-5.9-8.5-1.63-16.96-3.49-25.38-5.53-4.26-1.03-8.53-2.02-12.8-3.05-2.11-.51-4.16-1.07-6.23-1.74-2.33-.76-4.75-1.33-7.06-2.14l.46,4.33c7.18,1.34,14.48,1.98,21.74,2.77s14.48,1.44,21.73,2.07c14.36,1.24,28.74,2.37,43.12,3.22,28.68,1.69,57.4,2.71,86.13,3.05,15.98,.19,31.93-.27,47.9-.94,1.38-.06-.85-5.42-2.33-5.43-14.29-.13-28.57-.53-42.86-.61s-28.28-.32-42.42-.72c-28.81-.82-57.62-2.27-86.37-4.34-7.82-.56-15.63-1.22-23.45-1.8s-15.9-1.51-23.87-1.66c-.87-.02-.42,4.16,.66,4.39,1.82,.38,3.61,.97,5.42,1.38s3.7,.9,5.54,1.47c3.72,1.16,7.45,2.33,11.2,3.4,7.52,2.14,15.1,4.17,22.74,5.86,15.15,3.35,30.49,5.54,45.96,6.71,31.13,2.35,62.45,.56,93.6-.22,17.49-.44,34.99-.69,52.45,.5,1.31,.09,1.56-6.13,.15-6.17h0Z"/><path class="cls-3" d="M955.34,531.1c22.71-1.62,45.27-4.84,67.82-7.94,22.36-3.07,44.68-6.49,66.98-9.97,12.51-1.95,24.93-4.32,37.37-6.72,.69-.13-.55-3.82-1.63-3.68-11.2,1.47-22.41,2.81-33.57,4.55s-22.2,3.41-33.3,5.05c-22.06,3.27-44.12,6.61-66.19,9.8-12.4,1.79-24.76,3.83-37.06,6.19-.71,.14-.93,2.76-.4,2.72h0Z"/><path class="cls-3" d="M1176.38,505.47c-26.56,2.23-53.11,4.4-79.6,7.44-26.45,3.04-52.86,6.66-79.11,11.1-14.82,2.51-29.56,5.38-44.28,8.42-.88,.18-1.63,3.67-.85,3.53,26.33-4.64,52.75-8.95,79.2-12.88,26.44-3.93,52.96-7.32,79.54-10.15,14.87-1.58,29.76-3.07,44.68-4.08,.88-.06,.97-3.44,.42-3.4h0Z"/><path class="cls-3" d="M961.23,534.72c23.69-2.24,47.4-4.41,71.09-6.62s47.2-4.61,70.8-6.98c6.63-.66,13.25-1.42,19.87-2.15,3.23-.36,6.44-.79,9.65-1.25s6.72-1.12,10.1-1.35l-1.85-4.31c-17.93,1.29-35.81,2.89-53.71,4.48s-35.69,3.47-53.52,5.27c-10.03,1.01-20.06,2.03-30.09,3.06l-1.28,7.09c9.22-4.27,19.47-5.52,29.46-6.64,10.95-1.23,21.91-2.4,32.88-3.5,21.9-2.2,43.82-3.96,65.75-5.79,6.36-.53,12.73-1.03,19.1-1.58,3.2-.28,6.45-.44,9.64-.88s6.25-.99,9.37-1.52c1.06-.18-.04-5.09-1.29-5.14-5.46-.2-10.85-.23-16.31,.06s-10.7,.65-16.05,1.04c-10.87,.79-21.73,1.8-32.58,2.79-21.99,2.02-43.95,4.3-65.88,6.84-11.28,1.31-22.67,2.58-33.12,7.29-1.29,.58-2.52,7.22-1.28,7.09,20.44-2.09,40.87-4.22,61.3-6.39,2.91-.31,5.82-.62,8.73-.93,1.41-.15,2.83-.3,4.24-.45l2-.21c2.71-.29,2.05-.53,5.2-3.32l-6.07,.34c3.32,1.97,3.03,2.75,5.53,2.49,.71-.08,1.41-.15,2.12-.23,1.41-.16,2.82-.31,4.23-.48,2.51-.29,5.03-.57,7.54-.85,5.07-.57,10.14-1.13,15.21-1.7,10.26-1.15,20.5-2.57,30.74-3.93,.68-.09-.57-4.48-1.85-4.31-5.97,.76-12.06,.62-18.05,1.13s-11.63,.97-17.45,1.49c-11.76,1.06-23.51,2.25-35.26,3.37-23.48,2.25-46.95,4.65-70.42,7.05-13.15,1.35-26.3,2.72-39.46,4.06-1.21,.12-.45,5.69,.96,5.55h0Z"/><path class="cls-3" d="M1098.27,511.28c1.15-.56,2.62-.33,3.88-.31,1.34,.02,2.68,.04,4.02,.05,2.52,.03,5.03,.03,7.55,.01,5.02-.03,10.04-.06,15.06-.09,10.04-.06,20.08-.23,30.12-.39,2.85-.05,5.69-.1,8.54-.17,1.34-.03,2.68-.07,4.02-.15,.75-.05,1.51-.1,2.26-.15,2.09-.13,1.57-.27,3.92-2.18,.11-.12,.11-.24,0-.35-2.35-1.9-1.72-2.06-3.66-2.13l-1.74-.06c-1.24-.04-2.48-.07-3.73-.07-2.48,.01-4.97,.02-7.45,.06-5.05,.07-10.1,.14-15.15,.21-10.03,.14-20.05,.39-30.08,.64-2.72,.07-5.45,.12-8.17,.24-1.41,.06-2.82,.12-4.22,.18s-3.16,.47-4.39-.22c-.66-.37-1.26,2.46-1.29,2.65-.03,.22-.32,2.65,.52,2.24h0Z"/><path class="cls-3" d="M1182.83,507.83c-24.89,3.11-49.79,6.15-74.66,9.41l-21.29,2.79c-1.32,.17-1.63,4.72-1.04,4.65,24.9-3.08,49.79-6.26,74.68-9.5l21.28-2.77c1.3-.17,1.61-4.65,1.03-4.58h0Z"/><path class="cls-3" d="M946.5,519.49c16.91-.78,33.78-4.01,50.13-8.28,4.71-1.23,9.29-2.74,13.88-4.36,.69-.24-.06-3.15-.75-2.99-16.46,3.72-32.86,7.59-49.44,10.76-4.74,.9-9.47,1.8-14.19,2.75-.48,.1-.15,2.14,.37,2.12h0Z"/><path class="cls-3" d="M1013.24,504.07c.17,.16-1.99-2.03-1.51-1.22,.07,.12,.11,.19,.21,.29,.18,.2,.39,.38,.58,.56,.48,.44,.99,.82,1.54,1.18,.78,.51,1.13,.86,1.93,1.62,.92,.88,1.17,1.17,2.11,1.63,.68,.33,1.37,.61,2.04,.94,1.13,.56,2.28,1.06,3.46,1.49s2.54,.65,3.81,.86c.7,.11,.46-2.26,.44-2.47-.07-.57-.18-1.16-.4-1.69-.13-.32-.35-1.04-.72-1.14-1.72-.48-3.44-1.06-5.12-1.66-.78-.28-1.6-.55-2.33-.94-.34-.18-.67-.39-.99-.59-1.5-.93-1.1-.48-4.05-.18l2.77,.36c-.68-.38-1.32-.76-2.07-1l.5,.27c-1.3-1.14-2.25-2.73-2.55-.65-.09,.6-.17,1.88,.36,2.35h0Z"/><path class="cls-3" d="M1036.82,496.77c-2.52,2.5-5.69,4.26-9.08,5.27-.64,.19-.49,2.58-.06,2.48,3.55-.77,6.75-2.66,9.3-5.22,.37-.37,.36-1.12,.33-1.6,0-.13-.17-1.25-.49-.93h0Z"/><path class="cls-3" d="M1026.11,487.57c-.25-1.29-.67-2.43-1.9-3.05-.93-.47-2.03-.58-3.02-.25-3.14,1.08-3.59,5.5-3.47,8.29,.13,2.94,1.13,5.88,3.35,7.9,1.72,1.57,4.23,2.55,6.55,1.95,2.49-.65,4.25-2.77,5.16-5.09,.73-1.87,.97-4,.86-6-.08-1.6-.37-3.34-1.23-4.73-2.27-3.67-8.01-4.37-10.46-.49-1.12,1.78-1.48,4.04-1.55,6.1s.15,4.08,.83,5.97c.93,2.54,2.68,5.2,5.53,5.72,2.07,.38,4.39-.56,5.74-2.15,1.14-1.34,1.68-2.94,1.95-4.66,.36-2.3,.32-4.87-.49-7.08-.91-2.49-2.86-4.78-5.66-5.07-2.56-.26-4.93,1.5-6.13,3.64-1.06,1.89-1.42,4.1-1.47,6.24s.28,4.26,1.2,6.16c1.12,2.32,3.34,3.84,5.75,4.58,1.11,.34,2.44,.59,3.6,.37,1.8-.35,2.59-1.89,3.02-3.53,.63-2.43,.53-4.95,.19-7.41-.23-1.7-.59-3.39-1.24-4.98-1.07-2.57-3.02-4.98-5.97-5.32-1.18-.13-2.58,.2-3.46,1.03-1.17,1.11-1.79,2.77-2.06,4.32-.32,1.86-.51,4.54,.67,6.17,.61,.84,1.05-.07,1.21-.74,.31-1.24,.25-2.56-.07-3.79l-.42-.74,.42,.74c.14,.55,.17,1.13,.11,1.7-.02,.19-.07,.95-.27,1.11,.07-.06,.18-.33,.23-.41-.22,.33,.08-.09,.12-.13,.4-.4,1.01-.82,1.52-1,1.66-.59,3.48,.22,4.69,1.35,.16,.15,.31,.32,.47,.48,.25,.27,0-.07,.23,.3s.43,.78,.66,1.17c.08,.18,.07,.15-.04-.11,.05,.11,.09,.23,.13,.34,.07,.19,.13,.39,.19,.58,.06,.21,.2,.48,.2,.7-.11-.48-.13-.53-.05-.16l.05,.24c.05,.24,.09,.48,.13,.72,.04,.26,.08,1.08,0-.06,.01,.2,.03,.41,.06,.6-.02-.76-.03-.97-.03-.62,0,.35,.01,.14,.04-.62-.06,.71,.18-.85,.2-.9l-.06,.18c.17-.37,.18-.42,.04-.16l.11-.13c-.06,.07-.13,.14-.21,.2-.21,.16-.41,.28-.65,.38l.37-.15c-1.59,.51-3.5,.04-5-.57l.37,.16c-.99-.43-1.92-.99-2.69-1.74-.19-.18-.36-.38-.54-.57-.1-.12-.15-.21-.03-.03-.07-.11-.14-.21-.21-.32-.08-.13-.39-.53-.36-.68-.02,.09,.17,.52,.06,.12-.15-.58,.09,.61,.03,.19-.07-.47,.08,.89,.04,.41-.02-.22-.01-.14,0,.26,.02,.24,.02,.48,0,.72,0,.22-.02,.44-.07,.66-.06,.34-.07,.4-.03,.2,.1-.42-.23,.67-.08,.26,.05-.12,.09-.26,.13-.38,.11-.35-.23,.41-.04,.1,.15-.23,.26-.48,.42-.7,.02-.03,.25-.33,.14-.2s.14-.15,.17-.18c.19-.2,.39-.38,.6-.55,.45-.36,.94-.65,1.47-.88l-.37,.14c1.29-.5,2.62-.49,3.89,.04l-.36-.16c.48,.22,.93,.49,1.34,.83,.2,.17,.4,.35,.58,.55,.09,.1,.18,.2,.26,.3,.35,.41-.11-.25,.15,.22,.03,.05,.36,.7,.38,.7-.04,0-.2-.64-.04-.11,.03,.11,.06,.27,.11,.38-.03-.05-.16-.81-.08-.27-.07-.44-.1-.87-.09-1.32,.03-1.24,.06-.81,.03-.51,.02-.29,.07-.56,.15-.83,.09-.3,.09-.32,.01-.07-.14,.38,.11-.07,.08-.14,.01,.02-.18,.33-.17,.32-.12,.21-.25,.41-.4,.6,.26-.31-.22,.2-.29,.26-.2,.19-.42,.36-.64,.51-.8,.56-1.62,.86-2.6,.94-2.43,.19-4.04-1.43-5-3.4-.05-.09-.16-.45-.01,0-.05-.14-.1-.28-.14-.43-.02-.07-.09-.41-.12-.43,.21,.15-.1,.6,.04,.13l-.02-.11c-.04-.27-.02-.15,.04,.37-.03-.25,.03-.72,0,.35,0,.06-.12,.99-.02,.36l-.08,.48c.06-.27,.06-.29,0-.04-.09,.43,.03-.03,.06-.14,.09-.35-.2,.29,0,0,.08-.12,.14-.26,.23-.38,.03-.05,.3-.42,.14-.22-.14,.18,.08-.08,.12-.12,.08-.08,.15-.15,.24-.22,.18-.16,.37-.3,.58-.43,1.37-.84,3.52-.79,4.96-.09,.39,.19,.76,.43,1.09,.71,.17,.14,.32,.29,.47,.44,.07,.08,.14,.16,.21,.24,.23,.25-.05-.11,.05,.07s.2,.4,.31,.57c.18,.27-.16-.43-.04-.1,.06,.15,.05,.49,.04,.07-.02-.69,0,.57-.04-.28s0,.62-.02-.39-.06,.57,.01-.44c.03-.37,.03-.41,0-.13,.1-.55,.12-.69,.06-.43-.09,.38,.22-.56,.06-.2-.05,.11-.09,.24-.13,.36-.03,.08-.22,.43-.06,.15s-.04,.07-.09,.14c-.3,.5-.5,.8-.78,1.09-.71,.74-1.6,1.35-2.57,1.68-2.12,.71-4.47,.03-6.12-1.41-.41-.36-.85-.83-1.14-1.24-.17-.25-.31-.51-.44-.78-.06-.12-.11-.24-.17-.36-.09-.2,.05,.21-.06-.15-.04-.13-.07-.26-.11-.38-.17-.62,.06,.5-.02-.15,.01,.09,.03,.64,.02,.12v.4c.01-.28,.01-.28,0-.02-.14,.61,.12-.38,0,.13-.11,.41,.12-.33-.03,.12,.1-.32,.19-.58,.32-.81,.59-1.11,1.65-1.88,2.9-2.01,.51-.05,1.05-.01,1.54,.13,.25,.08,.46,.2,.71,.25,.19,.04,.36,.05,.53,.16,.47,.29,.5-1.35,.46-1.56h0Z"/><path class="cls-3" d="M1027.87,487.64c1.39-1,3.34-.7,4.68,.26,.14,.1,1.53,1.56,1.36,1.6-.31,.07,.44-1.86-.14-.5-.22,.52-.54,1.02-.85,1.5-1.31,2.01-3.01,3.82-4.75,5.45-.87,.82-1.79,1.59-2.73,2.32-1.13,.87-2.11,1.87-3.16,2.85-.6,.55-.61,1.79-.59,2.53,0,.25,.13,2.21,.68,2.02,.67-.23,1.33-.47,1.98-.75,.72-.31,1.32-.85,1.92-1.34,1.17-.95,2.28-1.98,3.33-3.06,2.2-2.28,4.56-4.9,5.48-7.99,.8-2.69,1.19-7.36-1.65-9.11-1.81-1.12-4.23-.98-5.78,.52-.55,.53-.54,1.64-.49,2.34,.02,.26,.18,1.75,.73,1.35h0Z"/><path class="cls-3" d="M1022.02,497.26c1.82,1.79,3.84,3.49,6.33,4.24,2,.61,4.57,.41,6.21-1.01,2.25-1.96,2.64-5.53,2.2-8.3s-1.85-4.71-3.39-6.84c-.47-.64-.77,.23-.87,.67-.19,.81-.2,1.86,.16,2.63,1.06,2.26,2.38,4.58,2.86,7.05,.06,.31,.13,.93,.11,1.05,.01-.09-.15,.43-.17,.5-.28,.72-.71,1.39-1.21,1.97-1.18,1.36-2.8,2.43-4.32,3.37-1.73,1.07-3.58,1.93-5.45,2.73-1,.43-.71,4.97,.09,4.75,4.45-1.21,9.25-2.79,11.49-7.2,3.01-5.94,1.06-12.75-2.85-17.7l-.57,3.49c.59,.85,1.11,1.73,1.56,2.66,.09,.18,1.12,2.74,.99,2.76-.15,.01,.3-.66,0-.17-.19,.31-.34,.61-.6,.88-.57,.6-1.35,1.1-2.12,1.39-3.73,1.41-7.27-.94-9.97-3.29-.62-.54-.91,1.3-.95,1.57-.09,.78-.19,2.19,.45,2.82h0Z"/><path class="cls-3" d="M997.96,533.25c15.2,.42,30.5,.3,45.45-2.81,1.74-.36,3.48-.74,5.21-1.16,1.84-.44,3.9-.73,5.65-1.41l.47,.06c-.02-2.29-.18-3.02-.48-2.18-.14,.11-.29,.45-.43,.59-.5,.51-1.18,.8-1.82,1.07-1.57,.66-3.23,1.13-4.86,1.62-6.62,1.99-13.5,3.34-20.37,4.07-3.95,.42-7.94,.69-11.91,.94s-8.03-.28-12.01-.7c-1.1-.12-1.66,4.75-.49,4.94,3.89,.65,7.82,.75,11.73,1.17s7.72,.42,11.65,.1c8.05-.65,15.92-2.31,23.57-4.92,3.06-1.04,6.58-2,6.84-5.79,.12-1.76-.18-4.23-1.5-5.56-.67-.67-1.11-.36-1.96-.17-1.02,.23-2.06,.39-3.1,.57-7.85,1.4-15.79,2.55-23.72,3.36-9.25,.94-18.51,1.59-27.81,1.11-1.15-.06-1.34,5.06-.13,5.1h0Z"/><path class="cls-3" d="M992.66,539.73c6.85,1.23,13.67,1.71,20.63,1.58s14.12-.75,20.99-2.59c1.17-.31,.32-5.26-.89-5.16-6.68,.58-13.32,1.58-20.03,1.87-6.84,.3-13.76,.12-20.58-.33-1-.07-1.24,4.43-.11,4.63h0Z"/><path class="cls-3" d="M1047.85,529.65c-8.11,.98-16.27,1.62-24.38,2.55-8.27,.95-16.51,2.14-24.73,3.39-4.74,.72-9.47,1.46-14.2,2.24-1.15,.19-1.13,4.38-.42,4.27,16.55-2.43,33.16-4.43,49.79-6.27,4.92-.54,9.84-1.05,14.77-1.49,.98-.09,.34-4.83-.81-4.69h0Z"/><path class="cls-3" d="M800.27,511.62c-1.9,1.04-3.56,2.14-5.24,3.52-1.78,1.47-3.47,3.07-5.19,4.6-.97,.87,.29,5.95,1.79,5.77,6.24-.74,12.44-1.9,18.64-2.88l-1.74-6.33c-4.92,1.47-9.83,2.95-14.75,4.42-1.61,.48,.17,6.23,1.54,6.5,4.77,.95,9.64,1.05,14.43,.23,1.57-.27-.19-6.54-1.66-6.69-5.53-.59-11.06-1.17-16.6-1.76l1.75,6.93c3.06,.22,6.09,.65,9.15,.87s6.25,.45,9.37,.68l17.71,1.29c11.78,.86,23.57,1.62,35.36,2.38l20.15,1.29c1.29,.08,.13-8.05-2.49-8.22-23.77-1.52-47.54-3.01-71.33-4.33l-9.93-.55c-3.37-.19-6.74-.17-10.11-.36-1.01-.06-.36,3.08-.28,3.38,.21,.82,.91,3.45,2.03,3.55,5.51,.51,11.02,1.02,16.52,1.53l-1.66-6.69c-4.52,.84-9.11,.86-13.63,.01l1.54,6.5c4.87-1.54,9.74-3.08,14.61-4.63,1.54-.49-.1-6.62-1.74-6.33-6.15,1.06-12.35,1.96-18.45,3.27l1.79,5.77c1.59-1.67,3.23-3.31,4.76-5.03,1.67-1.87,3.08-3.82,4.46-5.9,.28-.42-.23-3.11-.83-2.78h0Z"/><path class="cls-3" d="M855.05,524.17c-.19,0-.24,.02-.16,.04l.39,1.2v-.12l-.26,2.54c-.29,1.12-.23,.2,.09,.26,.14,.03,.49-.02,.66-.01,.89,.07,1.82,.33,2.7,.49,1.8,.32,3.61,.51,5.42,.73,3.54,.42,7.09,.82,10.63,1.18,7.18,.73,14.38,1.15,21.59,1.47,14.48,.64,28.99,.78,43.48,.32,8.13-.25,16.22-.87,24.31-1.63,1.54-.15,.2-7.59-1.87-7.48-15.32,.79-30.69,1.32-46.04,1.38s-31.13-.55-46.68-1.32c-4.26-.21-8.53-.61-12.79-.6-1.51,0-2.29,.97-2.7,2.37-.23,.76-.82,4.87,.96,3.99,.92-.46,1.22-4.98,.25-4.81h0Z"/><path class="cls-3" d="M971.42,528.5c-5.21,0-10.42,.17-15.61,.74s-10.4,1.47-15.55,2.42c-.84,.16-.77,3.3-.16,3.22,10.33-1.43,20.77-2.32,31.16-3.16,.79-.06,.86-3.22,.16-3.22h0Z"/><path class="cls-3" d="M435.27,360.74c23.8,6.38,47.13,14.28,69.41,24.88,6.35,3.02,12.64,6.2,18.84,9.52,.86,.46,2.07,.66,2.98,.22,.74-.36,.92-1.11,.11-1.56-21.87-12.33-45.33-22.12-69.43-29.13-6.87-2-13.79-3.77-20.79-5.22-.46-.1-1.37-.07-1.67,.38s.11,.8,.55,.92h0Z"/><path class="cls-3" d="M454.51,372.21c17.69,5.61,35.21,11.95,52.26,19.28s33.87,15.76,50.17,24.9c9.26,5.19,18.37,10.7,27.35,16.36,.81,.51,2.07,.66,2.93,.22,.78-.4,.86-1.12,.12-1.63-15.43-10.68-31.67-20.12-48.43-28.54-16.91-8.49-34.32-15.94-52.13-22.34-10.13-3.64-20.38-6.78-30.78-9.57-.56-.15-1.59-.23-2.02,.28s.01,.89,.53,1.06h0Z"/><path class="cls-3" d="M464.79,374.62c5.16,2.12,10.18,4.56,15.26,6.84s10.21,4.61,15.28,6.98c10.05,4.71,20.06,9.53,30.01,14.45,20.2,9.99,39.96,20.74,59.64,31.71,11.14,6.21,22.17,12.6,33.14,19.09,.97,.58,2.33,.84,3.4,.33,.87-.42,1.09-1.35,.19-1.92-18.94-12.03-38.37-23.22-58.18-33.76-20-10.64-40.3-20.75-60.97-30.04-5.8-2.61-11.61-5.18-17.45-7.7s-11.98-4.87-17.92-7.42c-.73-.31-1.78-.33-2.46,.12-.57,.37-.64,1.01,.06,1.3h0Z"/><path class="cls-3" d="M480.65,381.37c7.64,4.05,15.24,8.18,22.91,12.16,7.84,4.07,15.71,8.1,23.59,12.1,16.06,8.16,32.12,16.33,48.19,24.46,8.94,4.52,17.96,8.86,26.96,13.26,.81,.4,2.22,.56,2.97-.07s.12-1.38-.56-1.74c-15.58-8.15-31.21-16.18-46.91-24.08s-31.8-16.1-47.79-23.97c-9.1-4.48-18.27-8.82-27.39-13.24-.56-.27-1.46-.32-1.99,.05-.47,.33-.53,.78,.03,1.08h0Z"/><path class="cls-3" d="M445.81,363c15.57,6.79,30.97,14.01,46.18,21.58s31,16.02,46.13,24.68c8.44,4.83,16.88,9.64,25.21,14.66,.7,.42,1.71,.65,2.5,.31,.64-.28,.82-.91,.16-1.33-14.52-9.26-29.34-17.97-44.49-26.16-15.32-8.28-30.95-16.07-46.8-23.29-8.97-4.09-18.05-7.93-27.17-11.67-.57-.23-1.68-.4-2.18,.07s-.07,.92,.46,1.15h0Z"/><path class="cls-3" d="M475.76,378.47c19.58,9.72,39,19.78,58.52,29.63,19.3,9.74,38.53,19.6,57.91,29.17,10.98,5.42,21.97,10.82,33.06,16.02,.71,.34,1.9,.49,2.55-.07s.12-1.22-.48-1.54c-18.96-10.12-38.2-19.68-57.43-29.26-19.52-9.73-39.03-19.49-58.6-29.1-10.99-5.39-21.99-10.74-32.92-16.26-.75-.38-1.86-.44-2.61,0-.63,.37-.72,1.06,0,1.42h0Z"/><path class="cls-3" d="M492.98,391.46c15.74,11.26,32.16,21.5,49.23,30.64s34.23,17.23,52.08,24.13c10.35,4,20.83,7.57,31.45,10.78,.71,.21,2.02,.33,2.48-.43s-.55-1.38-1.14-1.57c-17.95-5.98-35.66-12.88-52.93-20.64-17.46-7.85-34.33-16.81-50.81-26.53-9.35-5.52-18.54-11.34-27.52-17.44-.66-.45-1.57-.51-2.31-.22-.46,.19-1.2,.82-.54,1.29h0Z"/><path class="cls-3" d="M495.83,384.61c2.78,1.34,5.69,2.35,8.55,3.5s5.58,2.25,8.35,3.43c5.52,2.34,10.94,4.88,16.35,7.46,11.02,5.28,21.77,11.1,32.47,16.98,20.62,11.33,41.2,22.85,62.5,32.87,5.93,2.79,11.92,5.48,18.01,7.9,3.1,1.24,6.23,2.42,9.37,3.55,1.49,.53,2.98,1.06,4.47,1.58,.81,.28,1.61,.56,2.42,.83,1.42,.46,2.65,.62,4.14,.69l-6.6-9.09c.28-.14,.2-.08-.24,.17-.26,.16-.51,.32-.77,.48-.51,.32-1.03,.64-1.54,.95-3.85,2.39,1.07,8.8,4.64,8.19,1.46-.25,3.02-.69,4.5-.7,1.86-.01,2.83-1.79,2.67-3.44-.21-2.06-1.73-4.3-3.53-5.33-1.32-.76-2.48-1.37-3.93-1.81,1.17,.35,.18,.05-.11-.03-.35-.11-.71-.22-1.06-.32-1.47-.45-2.94-.92-4.4-1.41-2.81-.94-5.6-1.93-8.37-2.96-5.4-2.01-10.75-4.1-16.06-6.34-10.78-4.54-21.33-9.59-31.78-14.84-21.26-10.69-42.27-21.81-64.05-31.45-5.9-2.61-11.88-5.06-17.92-7.34-3.08-1.16-6.17-2.3-9.3-3.34s-6.15-2.14-9.35-2.67c-.6-.1-1.06,.23-.97,.85,.11,.71,.92,1.36,1.52,1.65h0Z"/><path class="cls-3" d="M538.65,411.58c15.77,8.66,32.28,15.89,48.49,23.68,16.05,7.72,32.21,15.24,48.17,23.16,4.41,2.19,8.81,4.37,13.21,6.57,2.16,1.07,4.31,2.17,6.48,3.21,2.55,1.23,5.23,2.9,8.02,3.45l-3.66-12c-.42-.01-.84-.06-1.26-.04,1.06-.04-.2-.03-.46-.07-1.16-.18-2.32-.33-3.48-.44-.43-.04-.87-.07-1.3-.12,.66,.09-.73-.13-.73-.13-.93-.15-1.86-.29-2.78-.44-1.79-.28-3.3,.43-3.25,2.45s1.64,4.27,3.48,5.02c4.01,1.63,8.08,3.25,11.92,5.24,2.26,1.17,5.54,.94,6.22-1.91,.72-3-1.52-6.29-3.86-7.95-2.16-1.53-4.63-2.41-7.05-3.42-2.07-.86-4.16-1.7-6.24-2.54-4.08-1.64-8.16-3.27-12.23-4.91-8.01-3.22-15.97-6.57-23.93-9.91-16.45-6.89-32.92-13.73-49.32-20.73-8.78-3.75-17.6-7.44-26.63-10.55-.58-.2-.99,.06-.97,.67,.02,.66,.63,1.42,1.18,1.72h0Z"/><path class="cls-3" d="M544.27,417.59c3.86,1.55,7.55,3.63,11.3,5.46s7.18,3.48,10.8,5.13c7.15,3.24,14.26,6.55,21.33,9.94,14.21,6.81,28.18,14.05,41.93,21.74,3.8,2.12,7.68,4.11,11.51,6.17,1.98,1.07,3.96,2.14,5.93,3.22,2.32,1.27,4.53,2.6,7.09,3.35l-3.57-12.59c-.72,.05-1.44,.1-2.16,.16-2.82,.21-3.75,2.62-3.05,5.13,.86,3.09,3.31,5.33,6.26,6.39,.84,.3,1.68,.6,2.52,.91,2.27,.81,4.95-.59,5.11-3.09,.19-2.99-1.72-5.96-4.04-7.71-3.57-2.7-7.99-4.38-12.02-6.31-3.5-1.67-7-3.33-10.5-4.98-6.86-3.22-13.92-6.08-20.91-9.01-7.67-3.22-15.21-6.72-22.87-9.97-6.99-2.97-13.97-5.97-20.98-8.88-3.91-1.63-7.87-3.14-11.84-4.62s-8.33-2.66-12.32-4.36c-.95-.4-1.65,.16-1.57,1.16,.09,1.07,1.03,2.34,2.03,2.74h0Z"/><path class="cls-3" d="M576.78,434.42c1.38,.59,2.63,1.52,3.88,2.37,1.53,1.03,3.06,2.06,4.6,3.07,2.82,1.85,5.68,3.62,8.56,5.36,5.76,3.48,11.61,6.8,17.54,9.98,12.17,6.51,24.72,12.27,37.52,17.42,7.05,2.84,14.19,5.44,21.41,7.84l-1.5-11.24c-2.61-.52-5.78-.88-8.39-.29-1.34,.3-1.71,1.9-1.58,3.05,.18,1.54,1.22,3.34,2.52,4.21,2.67,1.8,5.87,3.3,8.96,4.28,2.77,.87,5.17-1.23,4.71-4.08-.51-3.16-3.07-6.28-6.21-7.16-12.68-3.53-25.18-7.74-37.41-12.63-.42-.17-.83-.33-1.25-.5-1.37-.55,.86,.36-.52-.21-.7-.29-1.39-.57-2.08-.86-1.53-.63-3.05-1.28-4.57-1.93-3.02-1.3-6.01-2.67-8.99-4.06-5.93-2.78-11.8-5.69-17.58-8.77-3.28-1.75-6.52-3.58-9.76-5.4-1.55-.87-3.09-1.75-4.63-2.65s-3.22-1.77-4.54-2.98c-1.1-1-3.65-2.02-3.99,.24-.31,2.04,1.56,4.23,3.31,4.97h0Z"/><path class="cls-3" d="M611.67,442.63c3.09,1.55,6.43,2.38,9.77,3.22,3.07,.77,6.15,1.54,9.22,2.29,6.27,1.55,12.61,2.88,18.91,4.28,12.59,2.79,25.2,5.68,37.9,7.92,7.14,1.26,14.27,2.51,21.44,3.57,1.28,.19,1.56-1.35,1.3-2.23-.36-1.23-1.48-2.54-2.77-2.84-24.18-5.6-48.57-10.22-72.81-15.52-3.29-.72-6.58-1.4-9.88-2.09-2.85-.59-5.68-1.23-8.55-1.73-1.68-.29-3.31-.59-5.02-.46-2.13,.16-.68,3.01,.47,3.59h0Z"/><path class="cls-3" d="M518.63,387.07c-1.88-.44-3.56-.97-5.28-1.87-.65-.34-1.31-.21-1.48,.55-.19,.84,.43,1.96,1,2.53,6,5.94,12.64,11.05,19.91,15.34,7.24,4.28,14.89,7.81,22.68,10.95,17.01,6.86,34.65,12.33,52.25,17.44,18.13,5.26,36.44,9.89,54.85,14.08s36.74,7.98,55.23,11.33c18.61,3.36,37.24,6.57,55.99,9.05,2.31,.31,4.63,.53,6.95,.78,1.15,.12,2-.49,1.74-1.74s-1.47-2.43-2.72-2.72c-18.9-4.39-38.05-7.58-57.11-11.15-18.2-3.41-36.39-6.85-54.5-10.7s-36.18-8.09-54.07-12.92c-17.74-4.79-35.36-10.12-52.68-16.3-15.24-5.44-30.41-12.08-43.09-22.32-1.55-1.25-3.06-2.56-4.52-3.92l.74,3.66c1.7-.23,3.18,.07,4.84,.43,1.34,.29,.21-2.29-.73-2.51h0Z"/><path class="cls-3" d="M515.99,391.06c8.11,5.37,16.76,9.72,25.62,13.7,8.74,3.93,17.65,7.48,26.67,10.71,18.11,6.48,36.65,11.65,55.35,16.14,18.79,4.51,37.72,8.38,56.67,12.12,19.07,3.76,38.15,7.47,57.1,11.81,18.73,4.29,37.33,9.25,55.73,14.76,2.27,.68,4.55,1.3,6.83,1.96,1.01,.29,1.82-.42,1.72-1.43-.11-1.15-1.09-2.32-2.14-2.76-18.2-7.57-37.29-12.81-56.47-17.28-19.08-4.44-38.3-8.26-57.54-11.97-18.78-3.62-37.59-7.11-56.27-11.18s-36.88-8.61-54.92-14.36c-8.99-2.87-17.89-6.03-26.64-9.57-8.65-3.5-17.06-7.51-25.54-11.39-2.09-.96-4.18-1.93-6.28-2.87-.83-.37-.27,1.35,.11,1.6h0Z"/><path class="cls-3" d="M612.01,450.92c5.15,1.52,10.67,1.93,15.99,2.64s10.69,1.36,16.04,2.03c10.57,1.32,21.14,2.56,31.72,3.75,21.41,2.42,42.82,4.86,64.25,7.1,11.85,1.24,23.72,2.19,35.63,2.79,1.29,.06,1.61-1.24,1.3-2.27-.39-1.27-1.49-2.37-2.82-2.58-20.9-3.29-41.95-5.41-63-7.44-21.29-2.06-42.58-4.26-63.9-6.04-5.82-.49-11.64-.98-17.46-1.46-2.95-.24-5.89-.45-8.84-.67s-6.12-.53-9.12-.19c-1.09,.12-.6,2.1,.21,2.33h0Z"/><path class="cls-3" d="M648.47,458.71c7.42,2.07,15.07,3.2,22.68,4.31,7.44,1.09,14.89,2.14,22.34,3.15,15.02,2.04,30.11,3.61,45.18,5.18,8.67,.9,17.4,1.39,26.11,1.82,3.85,.19,1.69-6.08-1.14-6.41-7.9-.94-15.83-1.98-23.76-2.64-7.42-.62-14.84-1.28-22.25-1.97-14.81-1.38-29.62-2.8-44.42-4.26-8.28-.81-16.62-1.9-24.95-1.71-1.23,.03-.67,2.29,.2,2.53h0Z"/><path class="cls-3" d="M676.34,464.8c-.55-.71-1.25-1.46-1.57-2.12-.34-.7-1.27-2.25-2.24-1.4s-1.43,2.82-1.57,4.05c-.19,1.69-.12,3.39,.17,5.07,.64,3.68,2.42,7.07,5,9.75,.48,.5,1.45,.86,2,.25,2.76-3.08,2.02-7.96-.29-11.09-.47-.64-1.3-1.44-2.19-1.15s-1.05,1.42-1.1,2.21c-.16,2.78-.32,5.56-.48,8.34l4.38,.64c-.98-4.11-1.82-8.94-2.3-13.4l-3.71,2.11c.83,1.27,1.65,2.54,2.48,3.8,.7,1.07,2.23,2.08,3.22,.79s.6-3.63-.08-4.99c-2.08-4.15-5.05-7.65-8.91-10.26l.33,7.85c18.12,5.43,36.83,8.13,55.76,7.81,2.64-.04,5.27-.22,7.9-.47s5.45-.89,8.15-1.39c1.59-.29,1.15-3.21,.88-4.14-.38-1.27-1.54-3.64-3.19-3.58-4.64,.16-9.27,.05-13.91,.2s-9.18,.17-13.77,0c-9.17-.35-18.32-1.35-27.35-3.03-5.18-.96-10.37-2.1-15.45-3.51-1.66-.46-2.05,2.05-2.01,3.08,.07,1.76,.8,3.77,2.34,4.77,1.28,.83,2.37,1.75,3.43,2.89,.72,.78,1.78,2.35,2.17,3.09l3.14-4.19c-.84-1.25-1.68-2.51-2.53-3.76-.56-.83-1.69-1.8-2.72-1.2s-1.12,2.22-.99,3.31c.62,5.23,1.63,10.4,3.03,15.48,.31,1.12,1.27,2.86,2.6,3.04s1.76-1.37,1.78-2.39c.07-2.85,.13-5.69,.2-8.54l-3.29,1.06c.45,.56,.06,.04,.01-.15-.09-.38,.05-.56-.06-.08,.05-.23-.03,.16-.08,.29-.08,.25-.22,.51-.38,.72l2,.25c-1.36-1.24-2.12-2.6-2.44-4.03-.5-2.27,.13-4.28,.29-6.52l-1.62,.64c.82,.58,1.4,1.51,2.02,2.29,.42,.54,1.2,.8,1.55,.07,.37-.77-.16-1.88-.63-2.47h0Z"/><path class="cls-3" d="M666.16,465.65c1.7,3.51,5,6.2,8.87,6.88,.63,.11,.96-.17,1.34-.63,1.14-1.39,.69-3.19,.41-4.81-.19-1.13-.44-2.25-.74-3.36-.66-2.45-1.56-4.83-2.69-7.1-.4-.82-1.01-1.91-2.02-2.09-.9-.16-1.48,.62-1.66,1.41-1.55,6.62,3.54,13.1,10.08,13.94,5.72,.74,12.32-2.49,17.66,.53l-.45-7.19c-4.96-.16-9.92-.32-14.88-.48-1.72-.06-1.97,2.1-1.74,3.4,.31,1.7,1.15,3.55,2.91,4.09,2.43,.75,4.79,1.64,7.27,2.25s4.72,1.1,7.09,1.55c4.84,.92,9.72,1.57,14.63,2.02,9.8,.9,19.63,.99,29.46,.69,5.6-.17,11.18-.28,16.71-1.21,3.97-.67,1.03-7.99-2.14-8.18-4.92-.3-9.78,0-14.71,.2s-9.79,.28-14.69,.33c-9.64,.09-19.31-.32-28.85-1.79-2.66-.41-5.3-.9-7.92-1.47s-5.4-1.09-8.01-1.89l1.17,7.5c4.92,.13,9.84,.27,14.76,.4,1.54,.04,1.86-1.62,1.78-2.86-.1-1.55-.79-3.52-2.23-4.33-4.68-2.61-9.9-1.37-14.92-.83-2.22,.24-4.82,.32-6.86-.72-.8-.41-1.49-1.04-1.88-1.5-.12-.13-.34-.39-.1-.11-.19-.21-.29-.33-.05-.04l-.09-.33c.05,.13,.08,.26,.07,.39,.12,.17,.07-.34,.03-.14l-3.68-.68c1.63,3.23,2.73,6.62,3.29,10.2l1.64-3.68c-2.93-.24-5.42-1.6-7.06-4.06-.57-.85-1.57-.74-2.01,.13-.54,1.09-.29,2.51,.22,3.56h0Z"/><path class="cls-3" d="M670.1,474.19c.37,2.77,2.98,4.37,5.65,4.27,2.81-.11,4.95-2.16,6.6-4.23,.95-1.18,1.65-1.79,3.2-1.59,1.79,.23,3.56,.66,5.36,.89,3.54,.45,7.09,.84,10.64,1.17,7.14,.67,14.31,1.25,21.48,1.57,6.61,.29,13.24,.68,19.85,.42,3.63-.15,7.23-.53,10.79-1.21,1.73-.33,3.41-.78,5.07-1.35,.81-.28,1.71-.52,2.44-.97,.91-.57,1.76-1.33,2.59-2.02,1.63-1.36-.55-6.28-2.65-5.97-1.54,.22-3.04,.32-4.53,.78s-3.09,.83-4.65,1.16c-3.06,.66-6.14,1.05-9.26,1.25-6.24,.4-12.5,.09-18.75-.17-6.81-.28-13.61-.42-20.42-.77-3.38-.18-6.76-.4-10.13-.69-3.17-.27-6.48-.91-9.66-.64-3.46,.29-4.09,3.91-6.14,6.07-1.92,2.02-4.41,2.52-6.7,.87-.72-.52-.85,.76-.79,1.17h0Z"/><path class="cls-3" d="M711.93,478.66c4.88,.16,9.73,.62,14.6,.96s9.79,.56,14.68,.84c9.78,.55,19.57,1.09,29.35,1.63,2.76,.15,5.49,.24,8.25,.26s5.56-.17,8.38-.46c1.08-.11,.91-2.14,.75-2.76-.26-1.03-.89-2.28-2.04-2.5-2.42-.47-4.79-.91-7.24-1.14s-4.79-.45-7.19-.55c-4.86-.21-9.71-.43-14.57-.64-9.66-.42-19.33-.85-28.99-1.26-5.51-.23-11.02-.21-16.53-.57-1.43-.09-1.73,1.58-1.63,2.7,.09,1.01,.8,3.45,2.18,3.49h0Z"/><path class="cls-3" d="M765.83,484.73c-1.24-.79-2.4-1.67-3.47-2.69-.45-.43-.92-.87-1.31-1.36-.57-.7-.81-1.58-1.28-2.34l-.19,3.06c8.88-.66,17.9-1.64,26.5,1.37,3.25,1.14,6.4,2.92,8.97,5.22,1.27,1.14,2.19,2.15,3.15,3.53,.08,.11,.76,1.16,.52,.77,.19,.31,.36,.64,.53,.96,.49,.97,.88,1.98,1.37,2.95l.55-4.86c-.13,.03-.6,.07-.61,.05-.54-.48-1.27-.56-1.74,.03-.54,.67-.38,1.72-.17,2.48,.58,2.04,2.05,3.66,4.12,4.19,1.58,.41,1.87-2.23,1.69-3.13-1.69-8.53-9.59-14.94-17.41-17.75-9-3.23-19.45-2.24-28.45,.44-1.35,.4-.48,2.71,.08,3.4,.49,.59,1.17,.88,1.7,1.42s1.04,1.11,1.61,1.63c1.13,1.04,2.36,1.96,3.67,2.77,.98,.61,.87-1.68,.17-2.13h0Z"/><path class="cls-3" d="M767.19,471.94c-.65-.76-1.31-1.5-1.95-2.27l.39,5.33c6.21-4.88,15.29,.6,20.12,4.97,2.84,2.56,5.24,5.44,7.38,8.52,1.13,1.63,2.21,3.3,3.23,5,1.1,1.83,2.06,4.02,3.56,5.54,1.86,1.89,3.09-.67,2.9-2.4-.1-.97-.19-1.94-.28-2.91s-.62-2.35-1.56-2.83c-.82-.42-1.58,.08-1.78,.95-.19,.79-.37,1.59-.58,2.38l4.03,1.5c-1.1-3.56-3.54-6.92-5.61-10-1.96-2.91-4.1-5.74-6.49-8.32-4.4-4.75-10.16-9.14-16.67-10.36-3.67-.69-7.62-.25-10.55,2.24-1.49,1.27-.66,4.07,.39,5.33,.65,.78,1.28,1.58,1.91,2.37,.87,1.08,2.16,.64,2.55-.57,.47-1.45-.02-3.31-1-4.44h0Z"/><path class="cls-3" d="M786.92,467.84c-.27-.55-.54-1.1-.82-1.64l-2.09,3.76c2.8,2.87,5.73,5.45,9.03,7.75s6.56,4.34,10.26,5.61c1.07,.37,1.71-1.07,1.85-1.82,.24-1.31-.07-2.88-.83-3.99-1.95-2.86-4.06-5.79-5.63-8.87l-2.72,3.2c3.59,6.6,6.04,12.83,7.26,20.14l4.94-1.24c-1.56-5.4-3.5-10.72-5.26-16.05-.43-1.32-1.33-3.53-3.07-3.42s-1.95,2.19-1.91,3.53c.15,5.62,.95,11.2,2.54,16.6,.39,1.32,1.24,3.28,2.82,3.54,1.49,.25,2.21-1.39,2.32-2.61,.48-5.21,.13-10.39-.81-15.54-.25-1.39-1.51-3.66-3.18-3.56-1.79,.11-2.02,2.26-2,3.66,.11,6.55,1.37,12.95,3.46,19.15,.35,1.03,1.34,2.33,2.48,2.53,1.06,.19,1.99-.68,2.2-1.68,1.23-5.82,1.14-11.82-.58-17.54-.41-1.37-1.22-3.4-2.87-3.7-1.47-.27-2.4,1.39-2.44,2.66-.14,5.08,.35,10.11,1.7,15.02,.4,1.44,1.4,3.85,3.26,3.76s2.23-2.33,2.14-3.79c-.28-4.54-.56-9.09-.86-13.63l-4.59,2.15,.17,.32-.87-2.15c.02-1.37-.01-1.66-.11-.87-.05,.26-.1,.52-.16,.77-.12,.71-.18,1.42-.13,2.14,.12,1.75,.79,3.57,1.98,4.87,.64,.7,1.48,1.28,2.44,1.4,1.49,.19,2.33-.91,2.81-2.16,.66-1.72,.08-4.16-1.04-5.55-.91-1.12-2.47-1.87-3.47-.35,.48-.55,.98-.69,1.49-.44,1.18,.8,1.65,2.1,1.41,3.91,.16-.46,.23-1.05,.29-1.54,.26-2.09-.29-4.02-1.28-5.85-.56-1.04-1.91-2.1-3.11-1.51-1.27,.62-1.56,2.38-1.48,3.66,.29,4.56,.61,9.11,.91,13.67l5.4-.03c-.26-.92-.5-1.85-.7-2.79-.1-.47-.18-.94-.28-1.41-.09-.55-.11-.63-.05-.24-.03-.24-.07-.47-.1-.71-.12-.95-.21-1.91-.26-2.86-.03-.48-.05-.96-.06-1.44,0-.24-.01-.48-.01-.72,0-.52,0-.64,0-.35l-5.31-1.04c.75,2.45,.95,3.48,1.08,5.77,.09,1.69,0,3.63-.37,5.45l4.68,.85c-.06-.16-.23-.67-.08-.23-.12-.37-.23-.74-.34-1.12-.18-.6-.34-1.2-.5-1.8-.35-1.36-.64-2.72-.89-4.1-.14-.76,.07,.52-.04-.25-.05-.31-.09-.62-.13-.92-.09-.69-.17-1.39-.23-2.09-.13-1.39-.19-2.79-.22-4.19l-5.17,.1c.22,1.21,.51,3.71,.59,5.53s.04,3.58-.13,5.65l5.15,.94c-1.52-4.95-2.27-9.17-2.34-14.38l-4.98,.11c1.81,5.72,3.46,11.52,5.48,17.17,.45,1.25,1.97,3.05,3.45,2.29,1.56-.81,1.46-3.17,1.12-4.6-1.87-8.05-4.96-16.08-9.85-22.79-.66-.91-1.96-1.75-2.76-.48s-.37,3.25,.4,4.37c2.01,2.92,3.64,6.21,5.27,9.36l2.03-4.78c-3.15-1.79-6.44-3.31-9.5-5.26s-5.85-3.91-8.48-6.16c-.87-.74-1.9-.75-2.37,.42-.49,1.23-.13,2.97,.65,4.01,.35,.46,.71,.92,1.07,1.37,.57,.72,1.59,1.43,2.33,.5s.44-2.49-.04-3.46h0Z"/><path class="cls-3" d="M809.57,480.27c.48-1.5,.97-3,1.45-4.5,.06-.18-.3-.13-.37-.11-.18,.05-.38,.15-.44,.33-.56,1.51-1.11,3.01-1.67,4.52-.1,.27,.21,.26,.4,.22,.25-.05,.55-.21,.64-.46h0Z"/><path class="cls-3" d="M813.32,466.84c-.33-1.78-1.49-3.29-2.91-4.36-1.33-1-4.34,.35-4.88,1.75-.7,1.8-.73,3.99-.9,5.9-.16,1.81-.27,3.62-.31,5.44-.09,3.76,.13,7.52,.6,11.25,.94,7.42,2.77,14.83,5.98,21.6,.65,1.37,3.16,.74,4.22,.34,.86-.33,3.62-1.54,3.05-2.94-2.84-6.86-5.21-13.86-6.45-21.2-.61-3.6-.99-7.26-1.16-10.91-.08-1.78-.1-3.56-.06-5.34s.45-3.82,.12-5.62l-4.51,2.26c1.79,.35,2.89,1.49,3.38,3.22,.34,1.2,4.1-.07,3.85-1.38h0Z"/><path class="cls-3" d="M823.84,467.46c.47-.67,.19-.74,.06-1.39-.14-.76-1.56-.68-2.06-.65-2.12,.12-3.84,1.32-4,3.49s-.15,4.32-.11,6.46c.08,4.18,.4,8.37,.76,12.54s.84,8.33,1.42,12.48c.3,2.11,.67,4.21,1.06,6.3s.69,4.21,1.49,6.18c.6,1.47,3.31,.88,4.4,.5,1.33-.47,3.33-1.35,3.24-3.02-.11-1.95-.61-3.81-1.01-5.72-.38-1.81-.71-3.62-1.06-5.44-.72-3.7-1.39-7.4-1.95-11.13s-1.01-7.3-1.38-10.97c-.19-1.91-.38-3.82-.6-5.73-.11-.95-.21-1.9-.31-2.85-.05-.43-.38-1.44-.09-1.8l-2.02,1.03,.4-.09-1.89-.05h.04c-.38,1.38,3.17,.5,3.62-.13h0Z"/><path class="cls-3" d="M823.97,477.17c-1.45-3.48-7-1.3-8.67,.76-1.32,1.62-1.71,3.71-1.85,5.74-.16,2.32-.23,4.66-.13,6.99,.18,4.47,.98,8.97,2.13,13.29s2.79,8.88,5.16,12.88c.85,1.43,3.29,.89,4.56,.4,.86-.33,3.99-1.74,3.27-3.21-3.21-6.52-6.02-13.05-7.43-20.22-.68-3.47-1.15-7.03-1.35-10.56-.09-1.53-.29-3.24,.19-4.72,.12-.38,.4-1.01,.67-1.16-.54,.31-.19-.05-.07,.13,.1,.16,.71,.39,.9,.58,.49,.5,2.97-.07,2.62-.9h0Z"/><path class="cls-3" d="M836.97,475.86c-.54-1.87-.13-3.6,1.4-4.86l-5.57-.11c-.75,8.02-.53,16.05,.69,24.01,.6,3.9,1.42,7.76,2.46,11.57,.5,1.84,.93,3.86,1.75,5.59,.91,1.92,2.56,2.77,4.67,2.65,1.74-.09,4.14-.81,5.12-2.39,1.05-1.7-1.11-1.91-2.21-2.03,1.85,.2,1.13,.26,.62-.68-.39-.73-.64-1.56-.92-2.35-.61-1.68-1.17-3.38-1.68-5.09-1.05-3.49-1.91-7.04-2.57-10.63-1.32-7.17-1.84-14.5-1.69-21.79,.02-1.11-2.56-.84-3.06-.75-1.18,.22-2.63,.7-3.18,1.88-.92,1.99-1.29,4.37-1.03,6.55,.19,1.56,5.73,.25,5.2-1.58h0Z"/><path class="cls-3" d="M842.08,482.63c-.59-1.44-1.67-2.85-2.77-3.94-1.2-1.19-5.23-.11-5.61,1.56-.66,2.93-.03,6.36,.26,9.32,.31,3.12,.82,6.2,1.47,9.27s1.36,5.94,2.21,8.86,1.85,6.19,3.38,8.99c.79,1.45,3.17,1.07,4.47,.64,1.07-.35,3.79-1.42,3.36-3.02-.8-2.97-2-5.84-2.99-8.75s-1.82-5.74-2.57-8.65-1.37-5.85-1.98-8.79c-.31-1.5-.59-3.02-.84-4.53s-.37-3.12-.95-4.57l-5.23,2.2c1.64,.57,2.41,1.51,2.8,3.19s5.67-.12,4.99-1.79h0Z"/><path class="cls-3" d="M320.36,189.71c1.12,3.5,3.13,6.46,5.09,9.53s3.93,6.07,5.96,9.06c3.97,5.84,8.2,11.51,12.56,17.07,8.72,11.1,18.05,21.69,27.13,32.5,17.31,20.61,34.33,42,44.91,66.99,5.66,13.37,9.37,27.59,9.75,42.15,.02,.84,1.06,1.38,1.73,1.5,1.01,.17,2.31-.22,3.18-.7,1.88-1.03,3.92-2.93,3.7-5.27-2.5-26.23-14.57-50.45-29.84-71.55-16.38-22.64-36.43-42.27-54.18-63.79-5.04-6.11-9.84-12.39-14.51-18.78-2.39-3.28-4.73-6.6-7-9.96s-4.23-6.73-7.05-9.59c-.32-.33-1.57,.37-1.43,.83h0Z"/><path class="cls-3" d="M445.98,360.56c-2.24-.29-4.51,.55-6.43,1.65-2.19,1.25-3.67,2.81-5.07,4.86-1.14,1.66-2.09,3.45-3.19,5.14-1.31,2-2.81,3.84-4.37,5.66-3.31,3.85-6.89,7.48-10.37,11.18-3.66,3.88-7.27,7.82-10.89,11.73-2.04,2.2-4.08,4.4-6.12,6.6-1.02,1.1-2.04,2.21-3.06,3.31-1.24,1.35-2.68,2.66-3.75,4.14l1.57-1.43-.29,.22,3.21-1.35-.4,.06,2.37,.24,.27,.53-1.17,1.95,.1-.1-5.35,1.89,.18,.05c1.89,.47,8.18-2.26,5.94-4.7l-.1-.11c-.88-.96-3.34,.07-4.21,.47-1.28,.58-3.59,2.21-3.24,3.94,.45,2.2,3.9,1.14,5.19,.59,3.23-1.35,5.5-4.58,7.85-7.08,3.9-4.15,7.78-8.33,11.67-12.5s7.74-8.32,11.58-12.51,7.29-8.01,10.31-12.53c1.34-2,2.39-4.16,3.71-6.18,.59-.91,1.22-1.6,1.96-2.6-.07,.09-.31,.37,.07-.09,.36-.43-.25,.1,.27-.22,.64-.39-.82,.23,.09,0,.83-.21,2.14-.73,2.56-1.58,.37-.76-.18-1.12-.91-1.22h0Z"/><path class="cls-3" d="M532.92,596.36c7.01,4.57,16.37,1.95,23.95,.43,9-1.8,17.93-3.95,26.78-6.41,17.53-4.86,34.75-10.84,51.77-17.25s34.74-13.48,52.06-20.35c17.48-6.94,35.02-13.73,52.42-20.85,16.38-6.7,32.6-13.89,47.84-22.95,.94-.56,1.88-1.13,2.82-1.71,.4-.25,.8-.5,1.2-.75,.14-.09,1.25-.67,.62-.54h-2.25l.3,.02-3.72-.91,.3,.14-1.62-.92c-.28-.31-.52-.46,0-.59l5.39,.33-.14-.05,3,1.71-.08-.16c-.76-1.58-3.93-2.07-5.45-2.2-.65-.06-4.33-.27-3.59,1.25,.69,1.43,3.09,1.98,4.42,2.25,1.43,.28,3.89,.69,5.14-.42,2.67-2.37-4.66-4.02-5.95-4.13-1.5-.13-3.05-.11-4.4,.62-1.02,.55-1.97,1.24-2.94,1.86-1.9,1.22-3.83,2.41-5.77,3.56-7.92,4.72-16.16,8.9-24.52,12.81-16.69,7.8-33.83,14.64-50.81,21.76-17.61,7.39-35.22,14.77-52.89,21.98-17.19,7.01-34.51,13.75-52.19,19.4-8.76,2.8-17.59,5.36-26.51,7.58-4.32,1.07-8.66,2.07-13.03,2.96-3.82,.78-7.86,1.88-11.8,1.57-1.72-.13-3.42-.66-4.86-1.62-1.05-.7-2.56-.49-3.71-.16-.31,.09-2.76,1.1-1.79,1.73h0Z"/><path class="cls-3" d="M794.68,508.4c-10.68,3.85-21.04,8.53-31.44,13.08-10.19,4.46-20.39,8.93-30.58,13.39-10.1,4.42-20.19,8.87-30.28,13.32-10.08,4.44-20.22,8.75-30.23,13.33-11.15,5.1-22.32,10.15-33.4,15.4-1.48,.7,.6,1.57,1.25,1.73,1.61,.4,3.55,.45,5.11-.19,20.66-8.47,41.12-17.4,61.55-26.41s40.3-17.79,60.43-26.71c11.1-4.92,22.38-9.59,33.06-15.37,.89-.48-1.5-1.36-1.6-1.39-1.17-.33-2.69-.6-3.87-.17h0Z"/><path class="cls-3" d="M793.82,490.76c3.39,2.76,3.84,7.85,3.37,11.92-.6,5.21-3.33,9.79-6.29,13.99l8.56,1.39c2.64-4.85,5.53-9.55,8.87-13.94,1.06-1.39-2.52-2.05-3.22-2.13-1.7-.2-4.47-.41-5.83,.94-1.81,1.81-3.09,3.96-3.97,6.36-.4,1.1,3.01,1.77,3.44,1.83,.85,.12,1.71,.17,2.56,.15,.75-.02,2.26-.12,2.93-.6,3.03-2.2,5.2-4.83,6.79-8.22l-10.12-.94c-.84,2.04-2.01,3.87-3.42,5.56l10.42,1.54c1.07-2.46,1.49-5.06,1.24-7.74-.16-1.75-3.4-2.23-4.65-2.42-1.17-.18-2.41-.28-3.59-.13-.73,.09-2.29,.19-2.69,.91-2.79,5.05-7.01,9.15-11.65,12.53-1.08,.79-1.79,1.24-3.13,2.01-1.23,.71-2.5,1.36-3.79,1.94-.65,.29-1.31,.57-1.97,.82-.36,.14-.73,.27-1.09,.41-1.11,.42,1.31-.43-.49,.17s.67-.19-.46,.15c-.36,.11-.72,.22-1.09,.32-.73,.21-1.46,.39-2.2,.55l11.59,4.66c6.33-2.3,12.18-5.54,17.64-9.47,.69-.5,.25-1.45-.18-1.92-.8-.86-2.01-1.41-3.1-1.76-3-.97-6.62-1.49-9.72-.69-5.59,1.43-10.68,3.91-15.22,7.49-.89,.7-.05,1.9,.54,2.37,1.09,.86,2.43,1.31,3.75,1.68,3.24,.91,7.11,1.3,10.32,.04,2.53-1,4.86-2.63,6.61-4.72,2-2.38-3.93-4.07-5.28-4.36-3.13-.66-7.59-1.28-10.34,.83l-3.44,2.64c-.44,.33-.44,1.15-.2,1.59,.56,.99,1.77,1.5,2.76,1.91,2.82,1.18,6.08,1.61,9.11,1.36,2.32-.19,4.37-.83,6.59-1.45,.53-.15,2.25-.37,.08-.13l.35-.03c-2.64,.19-5.19-.25-7.64-1.29-.68-.46-.77-.5-.29-.11-.25-.3-.28-.34-.08-.1,.28,.38,.56,.75,.85,1.13,1.26,1.67,2.72,3.21,4.46,4.37,3.1,2.08,6.98,2.97,10.66,3.41,1.77,.21,4.07,.37,5.72-.48,1.11-.56,1.38-1.56,.29-2.38-.26-.19-.48-.43-.73-.62-.56-.44,.59,.68-.11-.18-.83-1.01-1.99-1.62-2.95-2.51-.19-.18-.38-.36-.57-.56,.3,.34,.29,.32-.04-.06-.32-.43-.64-.86-.96-1.28-.88-1.15-1.82-2.12-3.04-2.89-4.41-2.78-10.35-3.22-15.38-2.38-1.12,.19-2.19,.52-3.27,.86-.49,.15-.99,.31-1.49,.44-.25,.06-.49,.12-.74,.17,1.11-.14,1.31-.18,.61-.11l11.68,4.86,3.37-2.66-15.62-3.53c-.7,.86-1.48,1.65-2.37,2.33-.06,.05-.7,.49-.35,.26s-.32,.17-.38,.21c-.52,.29-1.05,.53-1.59,.75l14.61,4.09c.44-.36,.89-.71,1.34-1.05,.12-.09,1.38-.97,.84-.62,.95-.63,1.94-1.19,2.95-1.71s2.05-.99,3.1-1.41c.5-.2,1.05-.49,1.58-.59-1.35,.27,.43-.12,.69-.19l-13.01-4.37c-2.47,1.92-4.28,3.14-7.05,4.7s-5.39,2.78-8.22,3.88c-.77,.3-1.53,1.16-1,2.02s1.64,1.35,2.57,1.73c3.01,1.21,6.85,1.69,10.03,.91,6.09-1.5,11.68-4.33,16.46-8.4,4.44-3.78,7.51-8.7,9.99-13.93l-11.18-1.14c.42,2.65,.18,5.28-.73,7.81-.22,.62,1.14,1.34,1.43,1.47,.96,.43,1.98,.67,3.01,.82,1.11,.16,2.3,.26,3.42,.12,.77-.1,2.06-.19,2.56-.87,1.49-2.01,2.61-4.26,3.35-6.64,.61-1.96-9.13-3.67-10.12-.94-1.06,2.92-2.99,5.4-5.4,7.34l9.44,1.01c.67-2.18,1.82-4.07,3.37-5.74l-9.04-1.19c-3.09,4.4-5.96,8.95-8.4,13.74-1.09,2.15,7.33,3.23,8.56,1.39,2.97-4.44,5.74-9.49,6.03-14.94,.26-4.97-2.06-9.47-5.66-12.78-1.06-.98-3.24-1.08-4.6-.98-.72,.06-2.57,.45-1.41,1.4h0Z"/><path class="cls-3" d="M861.5,530.61l1.98,3.07c.26,.41,.77,.65,1.2,.81,.33,.13,.68,.22,1.03,.28,.37,.09,.75,.14,1.13,.15h.69c.37-.02,.72-.09,1.07-.23l.32-.21c.16-.16,.19-.35,.08-.55l-1.07-3.03c-.13-.22-.31-.38-.53-.5-.27-.2-.56-.35-.88-.45-.39-.15-.79-.26-1.2-.32-.43-.1-.87-.16-1.31-.17h-.8c-.43,.02-.84,.11-1.24,.26l-.37,.24c-.19,.19-.22,.41-.1,.64h0Z"/><path class="cls-3" d="M848.68,476.51c.2,3.23,.13,6.47,.35,9.7s.64,6.59,1.2,9.86c1.09,6.4,2.84,12.68,5.18,18.73,.51,1.33,5.62,1.29,5.07-.17-2.25-5.98-3.89-12.15-4.88-18.46-.49-3.12-.8-6.27-.96-9.43s-.28-6.66,.2-9.94c.24-1.66-6.27-1.98-6.17-.3h0Z"/><path class="cls-3" d="M840.62,496.54c-1.2-1.76-2.74-2.92-4.77-3.52l-1.15,1.15c12.59,3.51,25.64,5.71,38.55,7.64,13.01,1.94,26.12,3.28,39.24,4.25,26.07,1.93,52.25,2.29,78.37,1.96,14.91-.19,29.82-.57,44.73-.95,.59-.02,1.58-.29,.96-.97s-2.16-.75-3-.74c-25.83,.55-51.68,1.1-77.52,.68-25.84-.42-51.69-1.83-77.31-5.31-7.19-.98-14.37-2.08-21.51-3.37s-14.24-2.89-21.36-4.34c-.51-.1-1.93-.43-2.29,.14s.78,.93,1.14,1.01c1.56,.34,2.84,1.01,3.84,2.27,.36,.45,2.36,.5,2.08,.09h0Z"/></g><g><path class="cls-2" d="M784.7,522.79c19.39,4.2,38.91,7.82,58.52,10.83s39.3,5.42,59.05,7.23c19.75,1.81,39.54,3.17,59.36,3.7,19.9,.53,39.82,.45,59.71-.25,9.3-.32,18.7-.51,27.88-2.14,4.4-.78,8.75-1.93,12.88-3.64,1.23-.51,3.17-.98,3.69-2.34,.36-.96,.44-2.41,.05-3.38-.34-.84-.65-.56-1.01,.07-.13,.23,.04,1.26,.2,.98,.28-.5,.35-.05,0,.33-.69,.74-2.08,1.09-2.99,1.47-1.99,.83-4.02,1.53-6.09,2.12-4.16,1.19-8.44,1.94-12.74,2.44-8.89,1.04-17.9,1.24-26.84,1.54-18.81,.62-37.63,.7-56.44,.24s-37.78-1.26-56.62-2.74-37.44-3.5-56.07-6.06c-18.62-2.56-37.17-5.65-55.61-9.27-2.32-.46-4.63-.92-6.94-1.39-.05,0-.07,.25,0,.27h0Z"/><path class="cls-2" d="M1000.38,532.84h-.95s-.04,.17,0,.17h.95s.04-.17,0-.17h0Z"/><path class="cls-2" d="M1003.09,534.09c-1.51-.17-2.93-.87-4.46-1.03-1.37-.14-2.68,.02-3.93,.6-.02,.01-.02,.13,0,.13,20.64-.14,41.28-.39,61.93-.7,2.36-.04,4.81-.27,7.16,.09,1.97,.3,4.63,1.16,4.79,3.55,.02,.27,.17,.27,.15,0-.22-3.44-4.29-4.16-7.09-4.19-6.06-.06-12.14,.16-18.2,.24-12.27,.16-24.54,.36-36.8,.62l-10.44,.22c-.13,0-.99,0-.99,.02,.04-.23,.88-.37,1.02-.4,.65-.14,1.33-.17,2-.14,1.56,.08,3.48,.42,4.86,1.16,.03,.02,.05-.16,0-.17h0Z"/><path class="cls-2" d="M998.49,537.74s.04-.17,0-.17c-.04,0-.04,.17,0,.17h0Z"/><path class="cls-2" d="M993.35,534.75c16.87-.97,33.74-1.95,50.62-2.95l50.61-3c16.22-.96,32.5-1.54,48.69-3,14.96-1.35,30.07-3.7,43.97-9.65,2.84-1.21,6.31-2.44,8.34-4.88s2.05-6.38,.85-9.34-3.72-5.77-6.24-7.88-5.26-3.61-8.26-4.78c-1.51-.59-3.08-1.1-4.64-1.56-.16-.05-.27,1.09,.03,1.21,3.36,1.28,6.43,3.23,9.21,5.5,2.53,2.06,4.99,4.28,7.08,6.8,.98,1.18,2.11,2.66,2.45,4.2,.35,1.62-1.3,3.11-2.48,3.98-2.73,2.01-6.17,3.29-9.3,4.53-13.44,5.35-27.88,7.58-42.2,8.95-15.49,1.49-31.03,2.59-46.55,3.8l-47.85,3.73c-18.11,1.41-36.22,2.83-54.33,4.28-.02,0-.01,.07,0,.07h0Z"/><path class="cls-2" d="M773.78,308.79c-.04-.61,.12-5.38-.23-5.6,.22,.14,.48,1.66,.56,1.9,.22,.63,.46,1.24,.74,1.85,1.1,2.44,2.66,4.63,4.5,6.56,4.18,4.41,9.6,7.49,15.06,10.03,6.16,2.86,12.59,5.15,18.93,7.59,7.24,2.79,14.5,5.55,21.76,8.29,29.09,10.98,58.3,21.66,87.44,32.55s58.14,21.95,86.88,33.74c28.74,11.79,57.2,24.3,85.08,38.03,27.99,13.78,55.3,29.06,81.55,45.93,1.56,1,3.08,2.06,4.66,3.02,1.38,.83,2.96,1.36,4.44,1.99,.19,.08,.26-1.5,.02-1.71-1.5-1.31-2.94-2.75-4.61-3.83s-3.32-2.07-4.99-3.09c-3.22-1.98-6.46-3.94-9.72-5.87-6.5-3.87-13.07-7.64-19.66-11.35-13.1-7.36-26.39-14.36-39.83-21.06-27.12-13.53-54.7-26.07-82.66-37.75-27.94-11.66-56.19-22.56-84.55-33.15s-57.15-21.01-85.71-31.56c-14.2-5.24-28.38-10.54-42.52-15.93-11.43-4.36-25.24-8.36-33.14-18.38-2.02-2.56-3.48-5.42-4.26-8.59-.05-.2-.11,0-.1,.1,.11,2.11,.28,4.21,.34,6.32,0,.12,.05,.07,.05-.02h0Z"/><path class="cls-2" d="M645.43,326.17c-.03-.82-1.67-.1-.88,.72,.96,.99,3.51-.14,4.58-.39,2.18-.49,4.35-1.01,6.53-1.49,8.82-1.93,17.77-3.22,26.78-3.85,5.1-.36,10.21-.59,15.32-.59,.09,0,.09-.33,0-.34-9.36-.19-18.68,.37-27.96,1.67-4.59,.65-9.15,1.47-13.68,2.45-2.27,.49-4.53,1.02-6.76,1.66-1.02,.29-2.04,.67-3.08,.9-.4,.09-1.11,.26-1.48,0-.42-.51-.43-.84-.04-1.01,.28-.19,.49-.13,.61,.2-.05,.11,.07,.21,.06,.06h0Z"/><path class="cls-2" d="M646.44,323.38c1.14-.67,2.55-1.01,3.78-1.5s2.49-1.04,3.72-1.61c2.45-1.13,4.83-2.39,7.13-3.8,4.47-2.74,8.59-6.03,12.08-9.94,6.03-6.74,9.83-15.06,12.19-23.72,4.98-18.31,4.12-37.51,8.04-56,1.92-9.06,5.13-17.92,10.74-25.37,1.77-2.35,3.75-4.19,6.91-3.69,2.74,.44,5.18,2.14,7.47,3.62,4.26,2.75,8.33,5.79,12.17,9.09,15.58,13.37,27.51,31.04,34.03,50.52,3.18,9.52,4.52,19.41,6.47,29.22,1.82,9.15,4.23,18.75,10.23,26.14,1.34,1.65,3.02,3.06,4.72,4.31,.31,.23,.36-1.06,.11-1.3-14.84-14.44-14.13-36.32-19.44-54.95-5.55-19.47-16.31-37.31-30.83-51.41-3.68-3.57-7.6-6.9-11.73-9.94-2.07-1.52-4.19-2.97-6.36-4.34s-4.62-2.95-7.29-3.23-4.63,1.18-6.23,3.2c-1.45,1.83-2.76,3.78-3.93,5.79-2.23,3.82-3.99,7.91-5.36,12.12-5.89,18.09-5.32,37.53-8.3,56.17-1.49,9.31-4.06,18.56-9.07,26.64-5.62,9.08-14.1,15.85-23.59,20.57-1.16,.58-2.33,1.12-3.51,1.64-1.29,.56-2.75,1.39-4.15,1.6-.07,.01-.03,.19,.01,.17h0Z"/><path class="cls-2" d="M451.69,334.26c-.69-.86-1.83-1.28-2.7-.37-.02,.02-.03,.15,.01,.16,8.33,.95,16.69,1.39,25.07,1.54,4.1,.08,8.21,.08,12.31,.02s8.57-.02,12.79-.5c.1-.01,.08-.4,0-.4-4.58-.05-9.19,.32-13.78,.38s-8.86,.03-13.29-.07-8.86-.3-13.28-.57c-2.29-.14-4.58-.25-6.87-.38-.49-.03-.98-.06-1.47-.09-.32-.02-1.52,.12-1.06-.3,.7-.62,1.98-.04,2.26,.71,.03,.07,.07-.09,.03-.14h0Z"/><path class="cls-2" d="M477.46,333.69c4.1-2.96,8.24-5.88,12.29-8.9,1.99-1.48,6.85-4.07,4.96-7.27l-.1,.94c3.02,2.23,6.03,4.47,9.04,6.71,2.72,2.02,5.39,4.11,8.27,5.89,4.95,3.07,10.99,5.44,16.56,2.49,.1-.05,.05-.5-.05-.45-5.8,2.7-12.22-.35-17.17-3.52-5.74-3.69-11.11-8.05-16.6-12.11-.21-.16-.17,.82-.1,.94,.94,1.6-2.64,3.7-3.55,4.38-1.52,1.14-3.04,2.28-4.54,3.44-3.02,2.34-6.05,4.68-9.07,7.02-.1,.08-.03,.51,.05,.45h0Z"/><path class="cls-2" d="M520.92,333.66c.67,.04,1.3,.25,1.97,.32,.72,.08,1.48,.06,2.21,.09,1.47,.06,2.94,.11,4.42,.16,2.86,.1,5.73,.18,8.59,.25,5.56,.13,11.13,.21,16.69,.22,11.29,.01,22.58-.2,33.86-.65,22.54-.89,45.08-2.67,67.49-5.22,3.17-.36,6.33-.74,9.49-1.14,1.54-.19,3.08-.39,4.62-.59,1.62-.21,3.24-.21,4.86-.44,3.01-.42,6.29-.57,9.22-1.41,3.22-.92,6.44-1.82,9.66-2.73,.15-.04,.12-.68-.02-.67-2.83,.17-5.66,.33-8.5,.43s-5.67,.7-8.49,1.15-5.48,1.08-8.25,1.5-5.51,.82-8.27,1.2c-11.19,1.57-22.41,2.97-33.66,4.01-22.49,2.07-45.06,3.23-67.63,3.47-6.38,.07-12.76,.07-19.14,.01-3.11-.03-6.22-.07-9.32-.14-1.64-.03-3.27-.07-4.91-.11-.82-.02-1.64-.06-2.45-.07s-1.63,.18-2.45,.16c-.04,0-.04,.17,0,.17h0Z"/><path class="cls-2" d="M302.91,149.95c.17,3.24,.09,6.49,.31,9.73,.2,3.01,.51,6.01,.91,9,.84,6.22,2.13,12.37,3.77,18.43,3.25,12.01,7.83,23.63,13.2,34.85,11.33,23.64,26.19,45.33,40.24,67.39,7.07,11.09,14.05,22.29,20.12,33.97,5.97,11.47,11.1,23.64,12.89,36.52s.36,26.03-3.24,38.58c-1.78,6.23-3.91,12.66-6.83,18.47-.71,1.42-1.94,2.39-2.11,4.06-.18,1.84,.4,3.69,1.98,4.74,2.05,1.36,4.67,.76,6.78-.09,2.55-1.03,4.68-2.8,6.82-4.48,2.42-1.89,4.8-3.83,7.15-5.81,4.81-4.07,9.45-8.33,13.93-12.76,8.82-8.74,16.95-18.19,24.34-28.16,.84-1.14,1.71-2.26,2.5-3.44,.96-1.43,1.65-3.09,2.41-4.63,.4-.81,.12-5-1.31-3.55-.88,.89-1.87,1.73-2.64,2.72-.96,1.24-1.83,2.57-2.75,3.84-1.77,2.42-3.58,4.8-5.45,7.14-3.73,4.69-7.64,9.24-11.73,13.61-8.17,8.74-17,16.87-26.4,24.28-2.33,1.84-4.65,3.85-7.39,5.05-1.21,.53-2.56,.89-3.9,.79s-1.98-1.1-3.15-1.42l1.23,4.39c1.43-4.78,3.49-9.33,5.1-14.05s2.9-9.19,3.96-13.89c2.08-9.27,3.07-18.84,2.39-28.33-1.31-18.56-9.27-35.96-18.32-51.93-9.67-17.08-20.71-33.32-31.28-49.85-10.61-16.58-20.84-33.48-28.75-51.54s-13.39-36.66-14.55-56.06c-.15-2.48-.34-5.04-.19-7.52,0-.1-.07-.15-.06-.02h0Z"/><path class="cls-2" d="M436.11,363.64c1.04,.31,1.93,.99,2.94,1.35s2.08,.61,3.12,.94c2,.62,3.98,1.28,5.96,1.98,4.12,1.46,8.18,3.07,12.19,4.82,7.73,3.37,15.28,7.15,22.64,11.25,14.81,8.25,28.92,17.67,43.04,27.02,14.74,9.75,29.63,19.24,44.9,28.13s31.59,17.67,47.82,25.67c8.05,3.97,16.16,7.8,24.33,11.49s16.21,7.4,24.57,10.39c2.06,.73,4.14,1.39,6.22,2.06,.07,.02,.12-.54,0-.59-4-1.92-7.97-3.89-12.06-5.61-4.47-1.87-8.91-3.79-13.34-5.74-8.27-3.65-16.49-7.44-24.63-11.38-16.22-7.84-32.16-16.23-47.8-25.15-15.44-8.81-30.53-18.19-45.38-27.96-14.21-9.35-28.32-18.9-43.06-27.4-14.42-8.31-29.46-15.57-45.45-20.3-.97-.29-1.94-.56-2.91-.83-1.03-.28-2.09-.07-3.13-.3-.03,0-.04,.16,0,.17h0Z"/><path class="cls-2" d="M680.74,483.81c-.68,.11-.77,1.11-.43,1.57,.1,.14,.25,.23,.42,.26,.03,0,.04-.16,0-.17-.57-.1-.71-.87-.37-1.27,.1-.12,.23-.2,.39-.22,.04,0,.03-.18,0-.17h0Z"/><path class="cls-2" d="M682.69,483.82c.04-.25,.17-.47,.3-.69s.24-.42,.38-.62c.25-.37,.53-.71,.84-1.03,.62-.64,1.34-1.17,2.14-1.57,.03-.01,.01-.14-.01-.13-.81,.43-1.53,.99-2.15,1.66-.29,.32-.56,.66-.8,1.02-.12,.19-.24,.38-.35,.58-.05,.1-.11,.2-.16,.3s-.11,.31-.21,.36c-.06,.03,.01,.24,.03,.13h0Z"/><path class="cls-2" d="M755.6,475.22c-.5,6.24-9.15,6.62-13.79,6.73-7.51,.17-14.95,.12-22.42-.82s-14.45-2.52-21.47-4.68c-4.73-1.45-12.42-4.48-14.89,1.95-1.22,3.17-.71,6.67-2.05,9.83s-3.86,5.78-6.98,7.27c-.14,.07-.04,.69,.04,.66,2.6-1.01,4.81-2.77,6.34-5.11,1.65-2.52,1.96-5.27,2.3-8.19,.4-3.37,1.75-6.36,5.5-6.75,3.04-.32,6.05,.88,8.89,1.79,7.41,2.39,15.1,3.98,22.83,4.86s15.32,1.2,22.88,.37c4.73-.52,12.48-1.84,12.84-7.89,0-.03-.02-.06-.02-.02h0Z"/><path class="cls-2" d="M677.22,491.59c-22,21.34-50.47,33.91-77.54,47.42-14.82,7.4-29.36,15.34-43.56,23.88-7.18,4.32-14.28,8.79-21.28,13.4-3.43,2.26-6.83,4.55-10.21,6.87-1.62,1.11-3.23,2.23-4.83,3.36-1.51,1.06-3.33,2.06-4.47,3.54-1.31,1.7-1.3,4.2,.1,5.85,1.79,2.11,4.9,2.83,7.52,3.09,8.46,.84,16.98,.79,25.46,.13,17.06-1.33,33.82-5.13,50.24-9.82,16.63-4.75,33.04-10.31,49.43-15.85,16.53-5.59,33.02-11.29,49.43-17.19s32.76-11.97,49.05-18.23c8.14-3.13,16.26-6.3,24.37-9.51,3.97-1.57,7.93-3.16,11.89-4.75,1.78-.72,3.55-1.52,5.36-2.17,1.62-.58,3.24-1.11,4.81-1.83,1.3-.6,2.7-1.26,3.81-2.17,1.35-1.1,2.38-2.54,3.35-3.96,.55-.8,.38-2.37,.18-3.26-.12-.54-.46-1.65-1.03-.83-.93,1.35-2.18,2.35-3.39,3.43-1.4,1.25-2.79,2.44-4.36,3.48-3.25,2.17-6.77,3.56-10.37,5.04-7.92,3.24-15.85,6.45-23.8,9.61-15.73,6.25-31.52,12.34-47.38,18.26-31.88,11.9-64,23.27-96.44,33.54-15.91,5.04-32.03,9.62-48.52,12.36-8.2,1.37-16.48,2.27-24.79,2.53-4.15,.13-8.31,.1-12.46-.09-3.37-.15-7.08-.07-10.16-1.64-1.34-.68-2.94-1.79-2.62-3.46,.38-1.99,2.52-3.12,4.06-4.21,3.35-2.38,6.72-4.73,10.12-7.05,6.79-4.63,13.68-9.13,20.65-13.48,13.87-8.66,28.08-16.78,42.59-24.31,26.23-13.62,53.97-25.32,76.75-44.57,2.77-2.34,5.45-4.79,8.03-7.34,.01-.01,0-.07,0-.06h0Z"/><path class="cls-2" d="M904.86,422.36s.04-.17,0-.17c-.04,0-.04,.17,0,.17h0Z"/><path class="cls-2" d="M903.97,424.3c-1.29,.6-2.8,.87-4.17,1.26-1.24,.35-2.47,.71-3.7,1.07-2.47,.72-4.93,1.46-7.38,2.22-4.91,1.51-9.81,3.09-14.67,4.77-9.73,3.36-19.38,6.99-28.91,10.88-.08,.03-.03,.28,0,.27,14.99-6.07,30.24-11.49,45.65-16.37,2.15-.68,4.31-1.35,6.46-2.01s4.49-1.68,6.72-1.91c.05,0,.03-.19-.01-.17h0Z"/><path class="cls-2" d="M842.31,461.05c.16-1.86,.54-3.73,.83-5.58,.01-.08-.03-.87-.22-.59-2.26,3.17-3.57,7.29-4.45,11.05s-1.25,7.85-1.04,11.79,.93,7.75,2.19,11.44c.53,1.55,1.05,3.39,2.31,4.52,1.01,.9,2.5,1.18,3.28-.12,.07-.11,0-.72-.11-.61-1.15,1.25-2.83-.53-3.54-1.46-.98-1.3-1.46-3.17-1.93-4.72-1.04-3.4-1.58-6.95-1.65-10.51s.32-7.18,1.2-10.66,2.38-6.71,3.9-9.99l-.23-.49c-.18,1.94-.28,3.92-.6,5.84-.01,.07,.05,.2,.06,.06h0Z"/><path class="cls-2" d="M832.11,450.38c.4-.11,.55-.55,.3-.92-.81-1.17-3.02,1.45-3.47,2.01-2.25,2.86-2.72,6.94-3.08,10.43-1.02,9.82-.87,19.79,.46,29.57,.05,.38,.33,1.63,.88,.94,1.77-2.24,2.18-5.44,1-8.05-.23-.52-.31,.5-.28,.66,.31,1.54-.25,3.24-1.24,4.46l.74,1.11c-.94-7.42-1.3-14.92-.92-22.39,.17-3.3,.38-6.62,1.05-9.85,.31-1.5,.75-2.92,1.37-4.32,.32-.74,.68-1.46,1.12-2.15,.27-.43,.57-.86,.9-1.25,.44-.53,.43-.67,1.18-.42-.03-.01-.04,.18,0,.17h0Z"/><path class="cls-2" d="M842.3,437.14c16.21-7.82,33.04-14.27,50.29-19.4,.07-.02,.04-.28,0-.27-17.26,5.13-34.09,11.73-50.29,19.6-.02,0,0,.07,0,.06h0Z"/><path class="cls-2" d="M818.76,450.6c.48-.45,.72-1,.73-1.66,0-.8-.08-1.9-.61-2.52-.13-.15-.25-.18-.37,0-3.4,5.33-4.94,12.02-5.35,18.27s.25,13.2,2.71,19.13c.38,.91,.89,.28,1.02-.37,.54-2.77,.68-5.64,.09-8.41-.09-.42-.3-.01-.28,.21,.14,2.16-.05,4.16-.89,6.16l1.04,.32c-1.74-5.44-2.82-10.87-2.48-16.61s2.15-11.51,4.56-16.94l-.28,.11c.73,.57,.75,1.56,.12,2.24-.01,.01,0,.07,0,.06h0Z"/><path class="cls-2" d="M805.59,444.95c-.16-.92-.21-1.85-.31-2.78,0-.04-.09-.34-.16-.18-5.68,12.64-5.08,28.22,.16,40.89,.2,.48,.5,.71,.87,.28,.43-.51,.34-1.56,.27-2.16-.18-1.66-.5-3.22-.45-4.9,.06-1.81,.3-3.6,.68-5.37,.03-.16-.14-.94-.27-.52-1.13,3.7-1.77,7.98-1.3,11.84l1.14-1.88c-2.6-6.04-4.04-12.52-4.12-19.1-.04-3.39,.27-6.77,.9-10.09,.32-1.69,.75-3.35,1.2-5,.24-.88,.47-1.77,.77-2.63,.15-.42,.09-.75,.27-.07,.15,.55,.22,1.18,.29,1.73,.01,.12,.07,.02,.06-.05h0Z"/><path class="cls-2" d="M806.53,440.31c.36-1.22,.91-2.4,1.38-3.58,.05-.13-.02-.97-.22-.69-1.97,2.79-3.62,5.64-4.84,8.84s-2.13,6.85-2.63,10.38c-.59,4.19-.63,8.4-.27,12.61,.17,2.01,.48,3.99,.86,5.98,.18,.96,.37,1.92,.61,2.87,.1,.41,.22,.81,.33,1.22,.04,.15,.42,1.46,.35,1.04,.13,.82,.49,3.36,1.78,3.32s1.59-2.58,1.61-3.41c.02-.63,.04-1.26,.05-1.89,0-.52,.01-.92,0-.16,.03-1.07,.05-2.14,.03-3.21-.03-1.42-.09-2.85-.08-4.27,0-.4-.21-1.23,0-.07-.05-.27,.02-.62,.04-.9,.04-.75,.08-1.5,.15-2.24s.13-1.49,.21-2.24c.04-.37,.08-.75,.12-1.12,.02-.21,.17-1.27,.02-.23,.21-1.42,.44-2.84,.73-4.25,.15-.74,.31-1.48,.49-2.22,.2-.81-.27,.96,.12-.45,.08-.29,.16-.59,.25-.88,.42-1.46,.89-2.91,1.41-4.35,.63-1.74,1.1-3.45,1.54-5.25,.34-1.39,.47-5.39-1.11-6.33l.15,.19,.77,2.46c-.46,2.77-.46,3.58,0,2.44,.09-.3,.17-.6,.24-.9,.13-.63,.13-1.33,.05-1.97-.34-2.58-.62,3.98-.11,2.39,.08-.26,.16-.5,.19-.77,.1-.93-.27-4.91-1.92-4.33-.84,.29-1.12,1.22-1.25,2.04-.36,2.22-.19,4.39,.85,6.4l.19-7.91c-.47,.51-.97,1-1.33,1.6-.47,.79-.78,1.78-1.12,2.65-.56,1.44-1.07,2.91-1.53,4.39-1.01,3.26-1.84,6.6-2.41,9.96-.64,3.77-.93,7.53-1.01,11.34s.06,7.62,1.1,11.28l2.25-6.33c.24,.35-.18-.52-.07-.19-.13-.39-.24-.78-.36-1.18-.24-.79-.47-1.58-.67-2.38-.43-1.77-.55-2.52-.78-4.26s-.29-2.51-.33-4.14-.02-3.03,.07-4.56c.44-6.93,2.41-13.98,5.46-20.21l-.22-.69c-.38,1.36-.68,2.77-1.18,4.09-.02,.04,.03,.2,.05,.12h0Z"/><path class="cls-2" d="M819.62,447.71c.84-1.44-1.36-2.45-2.4-1.35s-1.42,3.11-1.86,4.47c-.55,1.69-.99,3.4-1.32,5.14-.73,3.79-1.05,7.63-1.03,11.48,.01,4.14,.5,8.21,.83,12.33,.06,.75,.5,2.93,1.62,2.9s1.39-2.21,1.48-2.98c.27-2.45,.43-4.91,.62-7.37,.1-1.26,.22-2.52,.36-3.77,.07-.63,.15-1.26,.23-1.88,.08-.58,.08-.63,.02-.15,.05-.31,.09-.62,.14-.93,.19-1.37,.23-1.68,.13-.95,.05-.32,.09-.63,.14-.95,.1-.63,.2-1.26,.31-1.89,.21-1.26,.45-2.52,.71-3.77,.57-2.73,1.38-4.9,1.77-7.53,.28-1.91,.33-4.09-.43-5.91-.38-.93-1.45-2.11-2.2-.71-1.39,2.62-1.93,5.92-2.61,8.79s-1.28,5.94-1.69,8.95c-.82,5.99-1.28,12.12-.61,18.15l2.59-3.97c-1.98-4.35-1.99-9.83-1.67-14.49,.19-2.73,.6-5.44,1.15-8.13,.29-1.41,.62-2.81,1.02-4.2,.18-.64,.38-1.34,.75-1.91,.29-.44,.59-.76,1.12-.8,.19-.09,.35-.08,.49,.04,.4,.21,.5,.62,.31,1.22-.06,.04,0,.2,.03,.16h0Z"/><path class="cls-2" d="M831.46,452.01c-.75,1.58-1.68,3.05-2.38,4.67-.74,1.73-1.38,3.51-1.9,5.32-1,3.46-1.61,7.02-1.87,10.61-.55,7.76,.57,15.55,3.41,22.8,.18,.45,.48,.8,.91,.43,.46-.39,.48-1.5,.46-2.02-.07-1.46-.12,.52-.01-.48,.05-.48,.08-.96,.08-1.45,0-.8-.02-1.61-.02-2.41,0-1.49,.02-2.97,.07-4.46,.09-3.26,.33-6.5,.57-9.75,.46-6.35,1.36-12.65,2.62-18.89,.29-1.46,.36-3.83-.61-5.08s-1.63,.52-1.81,1.38c-1.43,6.74-2.38,13.59-2.89,20.46-.26,3.44-.31,6.91-.27,10.36,.02,1.69,.07,3.37,.16,5.06,.09,1.77,.36,3.53,.47,5.29l1.36-1.59c-2.57-6.13-3.85-12.82-3.63-19.46,.12-3.53,.64-7.05,1.52-10.48,.42-1.65,.93-3.28,1.52-4.88,.64-1.74,1.3-3.71,2.27-5.3,.03-.04-.01-.19-.03-.15h0Z"/><path class="cls-2" d="M845.35,455.98c.54,.15,.66-.66,.38-.99-.89-1.1-1.86,1.49-2.04,1.94-1.59,3.99-2.62,8.18-3.15,12.44-1.14,9.17,.04,18.51,3.41,27.1,.18,.45,.5,.77,.92,.42,.45-.38,.49-1.45,.46-1.96-.29-6.6-.51-13.21-.82-19.81-.15-3.22-.33-6.44-.53-9.66-.1-1.65-.2-3.3-.31-4.95-.06-.96-.09-1.92-.37-2.84s-.71-1.5-.81-2.45c-.05-.5-.32-.25-.31,.12,.01,1.12-.51,2.16-.61,3.27-.08,.89,0,1.8,.04,2.69,.07,1.57,.15,3.14,.22,4.71,.15,3.22,.33,6.44,.53,9.66,.39,6.44,.88,12.87,1.3,19.31l1.39-1.54c-2.49-5.93-3.79-12.32-3.83-18.75-.02-3.32,.32-6.64,.96-9.9,.33-1.69,.75-3.37,1.25-5.02,.24-.79,.5-1.57,.77-2.34,.15-.44,.29-.98,.51-1.39l.33-.46c.51-.37,.61-.29,.31,.24-.02-.02-.08,.15,0,.17h0Z"/><path class="cls-2" d="M821.7,438.55c1.39-1.03,3.13-1.72,4.67-2.51s3.14-1.59,4.71-2.38c3.22-1.6,6.46-3.16,9.72-4.69,6.46-3.02,12.97-5.91,19.54-8.69,.03-.01,.02-.14-.02-.13-6.52,2.67-12.96,5.51-19.33,8.54-3.18,1.52-6.35,3.07-9.5,4.66-1.5,.76-3,1.53-4.49,2.3-1.71,.89-3.49,2.11-5.32,2.72-.06,.02-.02,.19,.01,.17h0Z"/><path class="cls-2" d="M810.73,433.39c1.81-2.79,4.65-4.5,7.6-5.88,3.51-1.64,7.13-3.08,10.69-4.6,7.66-3.27,15.29-6.57,22.92-9.9,.05-.02,.03-.22-.02-.19-7.81,3.32-15.6,6.67-23.39,10.06-3.52,1.53-7.11,2.97-10.57,4.65-2.83,1.38-5.52,3.1-7.25,5.8,0,.01,0,.08,.01,.06h0Z"/><path class="cls-2" d="M868.03,462.58c2.05-.08,4.24,.45,6.28,.71,2.27,.29,4.53,.57,6.8,.85,4.36,.54,8.72,1.08,13.08,1.59,8.55,.99,17.1,1.97,25.65,2.93,17.1,1.91,34.21,3.75,51.33,5.51,34.41,3.54,68.86,6.79,103.33,9.72,19.42,1.66,38.85,3.3,58.29,4.64,.02,0,.03-.13,0-.13-34.48-2.82-68.97-5.55-103.42-8.76-34.45-3.21-68.86-6.73-103.25-10.55-9.6-1.07-19.2-2.16-28.79-3.27-4.88-.57-9.77-1.13-14.65-1.68-2.44-.27-4.88-.55-7.32-.83s-5.01-.28-7.32-.92c-.02,0-.04,.17,0,.17h0Z"/><path class="cls-2" d="M1046.71,505.54c1.19-.28,2.49-.23,3.71-.3,1.32-.07,2.64-.14,3.96-.21,2.56-.13,5.11-.25,7.67-.36,5.11-.21,10.23-.38,15.35-.49,10.23-.23,20.47-.35,30.71-.24,20.31,.21,40.6,1.17,60.84,2.9,5.5,.47,11.02,1.29,16.53,1.55,2.99,.14,7.12-.26,8.09-3.66,0-.03,.02-.24-.03-.24-7.6,1.02-15.24,1.24-22.9,.81-.04,0-.04,.2,0,.2,5.68,.43,11.39,.38,17.07-.09,1.3-.11,2.59-.24,3.89-.39,.46-.05,1.65-.45,1.67,.18,.02,.4-.69,1.06-.96,1.3-1.39,1.24-3.43,1.55-5.23,1.62-2.27,.09-4.55-.29-6.8-.51-2.87-.29-5.75-.56-8.63-.82-5.76-.51-11.52-.97-17.28-1.36-22.9-1.55-45.86-2.13-68.8-1.74-6.44,.11-12.87,.35-19.31,.64-3.22,.15-6.43,.31-9.65,.5-1.65,.1-3.3,.2-4.94,.3s-3.34,.41-4.94,.25c-.04,0-.03,.18,0,.17h0Z"/><path class="cls-2" d="M1024.98,491.5c.19,.2,.39,.15,.5-.09,.12-.26,.11-.62,0-.88-.14-.37-.48-.46-.81-.25-.4,.25-.53,.8-.55,1.24-.13,2.08,2.17,3.73,4.12,3,2.14-.8,2.05-3.76,1.12-5.43-.5-.9-1.52-1.69-2.6-1.54s-2.03,.85-2.51,1.81c-.64,1.29-.57,3.11,.17,4.34,.58,.97,1.7,1.73,2.87,1.6s1.84-1.03,2.16-2.04c.23-.73,.28-1.54,.19-2.3-.07-.63-.23-1.31-.61-1.83-.61-.83-1.61-1.13-2.59-.81s-1.8,1.12-2.15,2.13c-.47,1.32-.34,3.14,.49,4.29,.62,.86,1.57,1.41,2.62,1.56s2.09-.17,2.88-.88c.94-.85,1.43-2.14,1.6-3.37,.11-.83,.13-1.68,.02-2.51-.06-.41-.14-.81-.25-1.22-.03-.12-.07-.24-.11-.36-.12-.31-.24-.39-.53-.46-1.29-.3-2.34,.69-2.71,1.84-.21,.64-.3,1.38-.21,2.05,.01,.08,.05,.42,.19,.38s.13-.43,.13-.53c0-.06,0-.05,.08-.11,.08-.08,.17-.13,.27-.19,.23-.14,.43-.31,.68-.42,.62-.26,1.21-.42,1.86-.19l-.32-.4c.03,.09,.06,.18,.09,.27-.05-.19,0,.02,.02,.09,.05,.24-.02-.2,0,.05,0,.05,0,.1,.02,.14,.03,.19,0-.27,0-.08,0,.07-.03,.35,0,.15s-.01,.09-.01,.15c0,.15,0-.1,0-.1l-.02,.14s-.02,.09-.02,.14c.01-.1,.03-.12,0,0-.02,.09-.05,.18-.08,.27,0,.03-.08,.25-.04,.13-.07,.19-.16,.37-.26,.55-.18,.31-.4,.59-.66,.84-1.04,1-2.65,1.18-3.92,.5-.3-.16-.58-.37-.81-.61-.1-.11-.16-.18-.24-.31-.04-.07-.08-.14-.12-.21-.05-.08,0,0,0,.02-.02-.05-.04-.1-.06-.15-.08-.18,.02,.14-.01-.05,0,0,.03,.25,.02,.11-.02-.15,.01,.16,.01,.15,0,.06-.03,.46,0,.27,0,.02-.06,.17-.01,.07,0-.01,.05-.17,.02-.09,.06-.17,.27-.51,.46-.72,.82-.88,2.52-1.46,3.4-.32,.03,.04,.06,.09,.09,.13,.02,.03,.1,.2,.05,.09,.02,.04,.03,.07,.04,.11,.04,.1-.01-.05-.01-.06,0,.05,.07,.13,0,0-.01-.08-.01-.09,0-.03,0,.07,0,.05,0-.04,.03-.14,0-.07,0,0,0,0,.01-.27,0-.13,0,.13,.01-.09,.01-.09,0,.04,0,.08-.02,.12-.03,.11,0-.04,.01-.05-.01,.04-.02,.08-.03,.12-.04,.14,0,.05-.05,.15-.27,.6-.76,1.08-1.41,1.23-.79,.18-1.59-.09-2.19-.62-.25-.22-.49-.51-.62-.81-.01-.03-.1-.24-.05-.13-.06-.16,0,0,0,.1,0,0,0,.2,0,.07,0-.12,0,.03,0,.05,0,0,.04-.14,.01-.06-.03,.08,.03-.08,.03-.1,.23-.6,.79-1.14,1.4-1.45s1.44-.43,2.11-.3c1.25,.26,1.82,1.6,1.25,2.69-.69,1.32-2.43,1.58-3.68,.94-.56-.29-1.2-.84-1.3-1.5-.05-.33,.14-.74,.44-.89,.19-.1,.57-.15,.61,.14,.03,.26-.19,.54-.45,.39-.01,0-.01,.05,0,.06h0Z"/><path class="cls-2" d="M1022.78,483.68c-3.38-.86-6.57,1.19-8.19,4.09-1.49,2.66-1.41,5.79-.25,8.56,2.63,6.26,9.86,10.41,16.55,10.13,3.39-.14,6.61-1.7,8.32-4.69,.04-.07,0-.38-.06-.29-2.93,4.87-9.59,5.05-14.44,3.4-6.12-2.08-13.46-9.04-10.36-16.09,1.43-3.24,4.77-5.83,8.43-5.04,.01,0,.02-.06,0-.07h0Z"/><path class="cls-2" d="M1028.77,486.27c-.85-.31-1.71-.62-2.48-1.1-.31-.19-.59-.39-.86-.64-.86-.79-.99-1.4-.94-2.56,.05-1.09,.11-1.5,1.04-1.95,.46-.22,.92-.31,1.43-.37,.73-.07,1.48-.05,2.2,.06,3.16,.46,6.01,2.46,7.72,5.13,4.35,6.78-.23,15.35-7.04,18.21-3.63,1.53-7.79,1.63-11.55,.55-.04-.01-.07,.25,0,.27,4.34,1.25,9.1,1.09,13.14-1.06,3.61-1.92,6.18-5.43,7.01-9.42,.71-3.4,.04-6.97-2.13-9.72s-6.92-5.46-10.64-3.93c-1.3,.54-1.71,1.85-1.38,3.14,.53,2.03,2.68,2.83,4.45,3.45,0,0,.02-.06,0-.07h0Z"/><path class="cls-2" d="M1010.81,500.77c-.04-.87,0-1.74,.03-2.61,0,0,0-.05-.02-.03-.71,2.74,.03,5.56,1.64,7.85,2.08,2.97,5.39,4.65,8.86,5.43,6.33,1.42,16.11,1.58,19.55-5.15,1.28-2.51,1.45-5.61-.29-7.94-.02-.03-.04,.09-.02,.12,2.59,3.57,.74,8.55-2.63,10.89s-7.3,2.58-11.08,2.41-8.05-.88-11.39-3.1c-1.57-1.04-2.89-2.46-3.77-4.13-.57-1.07-.96-2.24-1.09-3.45-.02-.22,.15-2.52,.21-2.47,.16,.14-.05,2.04-.06,2.16,0,.1,.06,.15,.05,.02h0Z"/><path class="cls-2" d="M1040.11,488.56l.95-.95s.02-.08,.02-.11c0,0-.01-.08-.03-.06l-.95,.95s-.02,.08-.02,.11c0,0,.01,.08,.03,.06h0Z"/><path class="cls-2" d="M1041.67,484.4c2.12,3.31,2.64,7.91,2.01,11.71-.58,3.47-2.2,6.8-4.65,9.33-4.56,4.72-11.62,6.66-17.96,5.03-.04-.01-.07,.25,0,.27,7.22,2.18,15.58-.59,19.89-6.84,1.97-2.85,2.98-6.35,3.11-9.8s-.8-6.68-2.39-9.85c-.02-.04-.05,.11-.02,.15h0Z"/><path class="cls-2" d="M796.12,500.57c28.44,3.39,56.99,5.64,85.6,6.83,14.22,.59,28.45,.93,42.68,1.02,13.92,.08,27.88,.07,41.79-.58,15.15-.71,30.35-2.46,44.84-7.12,.09-.03,.04-.35,0-.34-12.91,4.15-26.4,6-39.9,6.84s-27.86,.89-41.77,.86c-28.46-.06-56.92-1.14-85.3-3.24-16-1.18-31.98-2.6-47.93-4.33-.01,0-.02,.07,0,.07h0Z"/><path class="cls-2" d="M1007,501.81s.03-.17,0-.17c-.03,0-.03,.17,0,.17h0Z"/><path class="cls-2" d="M1012.8,511.57c-20.12,1.77-40.33,2.86-60.52,3.29-20.2,.43-40.42,.13-60.6-.91-11.37-.58-22.72-1.41-34.05-2.45-.03,0-.03,.13,0,.13,20.12,1.9,40.31,3.08,60.52,3.53,20.2,.44,40.42,.15,60.61-.88,11.37-.58,22.73-1.53,34.05-2.64,.02,0,.01-.07,0-.07h0Z"/><path class="cls-2" d="M813.81,499.37c.03-.68,.16-.66,.38,.07,.16,.17,.25,.35,.28,.56,.1,.29,.13,.64,.2,.94,.18,.77,.38,1.54,.58,2.3,.38,1.39,.79,2.78,1.24,4.15,.95,2.88,2.07,5.7,3.35,8.45,2.61,5.61,5.9,10.86,9.79,15.68,0,.01,.03-.1,0-.13-4.95-6.24-9-13.2-11.88-20.63-1.41-3.62-2.44-7.3-3.32-11.08-.32-1.38-1.16-.28-.62-.13,.05,.01,.02-.2-.01-.17h0Z"/><path class="cls-2" d="M824.09,501.63c-.26,2.89-.52,5.62-.11,8.53,.39,2.72,1.17,5.39,2.27,7.9,2.43,5.53,6.45,10.46,11.56,13.73,2.88,1.84,6.06,3.13,9.42,3.79,.02,0,.03-.13,0-.13-7.11-1.51-13.37-5.94-17.61-11.78-2.1-2.89-3.73-6.14-4.73-9.58-.54-1.84-.9-3.73-1.06-5.64-.18-2.16-.27-4.63,.32-6.73,.02-.07-.03-.22-.05-.08h0Z"/><path class="cls-2" d="M409.21,356.46c3.13-.32,6.42,.04,9.56,.13s6.37,.21,9.55,.36c6.24,.28,12.48,.61,18.71,1.01,12.58,.8,25.14,1.92,37.67,3.26,25.24,2.72,50.36,6.4,75.41,10.46s49.92,8.49,74.88,12.76c25.06,4.29,50.15,8.4,75.35,11.78s50.16,6.07,75.38,7.29c3.18,.15,6.37,.29,9.55,.4,.04,0,.04-.2,0-.2-25.23-1.11-50.4-3.42-75.45-6.58s-50.33-7.18-75.39-11.41-49.9-8.67-74.88-12.82c-25.05-4.15-50.15-7.99-75.37-10.94s-50.2-5.03-75.42-5.48c-3.15-.06-6.44,.19-9.56-.19-.04,0-.04,.18,0,.17h0Z"/><path class="cls-2" d="M527.08,393.28c16.9,5.87,33.94,11.35,51.1,16.42,17.16,5.07,34.44,9.73,51.82,13.98s34.86,8.09,52.42,11.52c17.56,3.43,35.2,6.44,52.9,9.03,17.7,2.59,35.46,4.7,53.27,6.4,2.2,.21,4.41,.41,6.61,.61,.03,0,.04-.2,0-.2-17.81-1.68-35.58-3.79-53.31-6.25-17.72-2.46-35.37-5.34-52.95-8.64-17.58-3.3-35.08-7.01-52.48-11.13s-34.71-8.66-51.9-13.6c-17.19-4.94-34.26-10.29-51.19-16.04-2.1-.71-4.19-1.43-6.28-2.16,0,0-.02,.06,0,.07h0Z"/><path class="cls-2" d="M791.35,468.89c-21.29-1.51-42.53-3.99-63.61-7.38-21.07-3.39-41.99-7.75-62.65-13.08-11.61-2.99-23.14-6.29-34.58-9.88-.01,0-.03,.12,0,.13,20.36,6.43,41.02,11.92,61.89,16.43,20.86,4.51,41.94,8.13,63.14,10.6,11.91,1.39,23.85,2.47,35.81,3.24,.01,0,.01-.07,0-.07h0Z"/><path class="cls-2" d="M772.58,321.24c-1.01,.55-2.26,.81-3.34,1.19s-2.09,.76-3.12,1.17c-1.88,.75-3.74,1.56-5.56,2.43-3.89,1.85-7.64,3.98-11.25,6.35-7.23,4.75-13.84,10.43-19.71,16.79-12.54,13.59-21.44,30.16-27.21,47.66-3.34,10.15-5.65,20.61-7.12,31.18,0,.06,.05,.23,.07,.1,2.68-18.97,8-37.7,17.12-54.61,8.32-15.43,19.87-29.17,34.25-39.3,3.85-2.71,7.88-5.15,12.08-7.27,2.16-1.09,4.35-2.1,6.59-3.01,1.21-.49,2.43-.96,3.66-1.4,1.11-.4,2.36-1,3.54-1.1,.06,0,.03-.19-.01-.17h0Z"/><path class="cls-2" d="M747.93,369.34c-14.34,15.6-24.71,34.73-30.04,55.24-1.49,5.76-2.58,11.62-3.27,17.53,0,.03,.02,.06,.03,.02,2.43-21.04,10.13-41.38,22.16-58.8,3.38-4.89,7.1-9.54,11.13-13.92,.01-.01,0-.07,0-.06h0Z"/><path class="cls-2" d="M757.51,384.52c-.69,1.29-1.64,2.47-2.45,3.69-.89,1.33-1.77,2.68-2.63,4.04-1.57,2.46-3.08,4.96-4.54,7.49-2.96,5.12-5.7,10.36-8.22,15.72-5.04,10.7-9.17,21.83-12.34,33.22-1.82,6.54-3.31,13.17-4.49,19.86,0,.02,.02,.08,.02,.03,4.12-23.46,12.24-46.17,23.94-66.92,1.58-2.8,3.22-5.56,4.93-8.29,.85-1.36,1.72-2.71,2.61-4.06,1-1.52,1.96-3.3,3.21-4.63,.05-.05,0-.2-.03-.16h0Z"/><path class="cls-2" d="M765,392.05c-6.56,12.09-12.05,24.74-16.39,37.79-2.12,6.38-3.97,12.86-5.53,19.4s-2.92,12.97-3.29,19.6,.35,13.57,3.28,19.71c.03,.06,.05-.06,.04-.1-5.63-12.15-3.07-25.96-.13-38.47,3.02-12.87,7.14-25.47,12.3-37.64,2.92-6.9,6.18-13.64,9.74-20.23,0-.02,0-.08-.01-.06h0Z"/><path class="cls-2" d="M612.32,328.93c-.94-.25-1.69-.58-2.69-.55s-1.9,.28-2.79,.64c-1.92,.79-3.57,2.06-5.12,3.41-2.72,2.34-5.27,4.88-7.62,7.59-4.83,5.55-8.85,11.78-12,18.42-6.24,13.18-9.04,28.06-7.98,42.6,.59,8.09,2.4,16.06,5.44,23.59,.04,.1,.08-.09,.06-.14-5.49-13.6-6.85-28.64-4.48-43.07,2.32-14.1,8.15-27.69,17.05-38.89,2.5-3.14,5.24-6.09,8.2-8.8,1.56-1.43,3.17-2.86,5.01-3.93s4.92-2.2,6.92-.69c.03,.02,.08-.15,0-.17h0Z"/><path class="cls-2" d="M610.71,337.19c-11.26,4.18-15.36,17.39-18.39,27.83-4.17,14.35-6.61,29.21-7.27,44.14-.36,8.19-.16,16.4,.56,24.57,0,.09,.06,.02,.05-.04-1.25-14.71-.79-29.57,1.39-44.17,1.07-7.16,2.55-14.25,4.44-21.23,1.67-6.2,3.49-12.5,6.41-18.25s6.87-10.55,12.82-12.78c.02,0,.01-.07,0-.06h0Z"/><path class="cls-2" d="M515.05,336.99c.55-.85-.69-1.43-1.37-.84-.72,.62-1.02,1.87-1.36,2.7-.6,1.44-1.15,2.9-1.66,4.37-1.88,5.42-3.18,11.03-3.9,16.72s-.84,11.34-.38,17.01c.41,4.99,1.05,10.24,2.95,14.92,1.7,4.17,4.75,8.37,9.64,8.62,.06,0,.06-.2,0-.2-8.76-.5-10.99-11.95-11.93-18.78-1.38-10.05-.89-20.37,1.41-30.25,.64-2.75,1.42-5.47,2.34-8.14,.46-1.34,.96-2.67,1.49-3.98,.25-.62,.5-1.25,.78-1.86,.13-.28,.26-.59,.45-.83,.43-.53,2.27-.67,1.54,.47,0,.02,0,.08,.02,.06h0Z"/><path class="cls-2" d="M526.82,335.79c-.87-.13-1.54-.37-2.43-.08-.83,.27-1.56,.83-2.16,1.45-1.52,1.57-2.34,3.56-3.02,5.6-1.54,4.67-2.64,9.49-3.31,14.36-1.36,9.84-.97,19.96,1.2,29.65,1.25,5.57,3.08,11,5.45,16.2,.03,.06,.05-.06,.04-.1-7.92-17.61-9.54-37.91-4.42-56.53,.7-2.56,1.38-5.31,2.83-7.57,1.08-1.69,3.61-4.36,5.81-2.81,.04,.03,.08-.16,0-.17h0Z"/><path class="cls-2" d="M539.59,339.84c-.82-1.5-2.69-1.84-4.22-1.26-1.91,.72-2.89,2.77-3.57,4.55-1.88,4.95-3.19,10.17-4.11,15.37-1.89,10.64-1.98,21.62-.22,32.29,.99,5.95,2.55,11.8,4.64,17.46,.04,.1,.08-.09,.06-.14-6.99-19.1-7.72-40.4-1.96-59.91,.75-2.54,1.43-5.56,3.01-7.74,1.41-1.93,4.87-3.21,6.34-.56,.02,.03,.03-.03,.02-.05h0Z"/><path class="cls-2" d="M307.78,153.17c1.31,1.23,2.37,2.81,3.5,4.21,1.21,1.49,2.43,2.98,3.64,4.48,2.37,2.91,4.74,5.83,7.14,8.72,4.66,5.64,9.33,11.29,13.99,16.93,9.33,11.29,18.66,22.59,27.99,33.88,18.78,22.74,37.57,45.47,56.27,68.28,5.29,6.46,10.59,12.91,15.88,19.37,2.65,3.23,5.29,6.46,7.94,9.68,1.43,1.74,2.7,3.43,3.79,5.4,1.17,2.13,2.35,4.26,3.52,6.39l2.01-5.94c-.75-.92-1.74-1.06-2.74-1.61s-1.87-1.24-2.76-2.01c-1.23-1.06-1.29,2.27-.75,2.97,.87,1.12,1.69,2.22,2.4,3.44s1.17,2.76,2.2,3.72c1.41,1.3,2.25-.6,2.48-1.86,.29-1.57,.16-4-1.28-5.03-1.22-.88-2.45-1.75-3.67-2.63-.56-.4-1.12-.78-1.67-1.2-.91-.68-1.58-1.59-2.3-2.46-2.39-2.86-4.79-5.71-7.18-8.57-4.68-5.59-9.36-11.17-14.04-16.76-9.37-11.18-18.75-22.35-28.08-33.56-18.8-22.61-37.6-45.21-56.4-67.82-5.31-6.38-10.62-12.76-15.92-19.15-2.64-3.18-5.3-6.35-7.97-9.51-1.28-1.51-2.56-3.03-3.83-4.54-1.38-1.63-2.95-3.22-4.13-4.99-.03-.05-.08,.1-.04,.15h0Z"/><path class="cls-2" d="M449.46,329.62c-.14-1.46-.13-2.95-.18-4.42l-.28,.34c1.71,5.66,7.1,7.91,12.48,8.9,3.39,.62,6.81,.74,10.25,.85l12.94,.41c.97,.03,.95-4.05-.1-4.02-.85,.02-1.71,.52-2.5,.83-.4,.16-.36,1.36-.04,1.58,.84,.59,1.65,1.29,2.63,1.61l-.1-4.02-12.19-.25c-3.32-.07-6.67,.06-9.98-.15-4.72-.3-11.14-1.49-13.18-6.42-.18-.44-.29,.34-.27,.47,.16,1.43,.38,2.87,.45,4.31,0,.12,.07,.08,.06-.02h0Z"/><path class="cls-2" d="M450.64,332.36c-1.1,2.43,2.96,2.69,4.43,2.71,4.74,.08,9.47,.2,14.21,.24,9.55,.08,19.1,.03,28.65,.05,.18,0,.13-.65,.01-.72-.84-.53-1.71-.98-2.59-1.45-.09-.05-.1,.33-.03,.39,.85,.61,1.68,1.22,2.57,1.77v-.72l-24.4,.02c-3.99,0-7.97,.06-11.96,.13l-5.98,.1c-.91,.01-1.89,.12-2.79-.05-.51-.1-3.39-1.06-2.11-2.3,.05-.05-.01-.19-.03-.16h0Z"/><path class="cls-2" d="M460.7,332.34c.08,1.22,1.03,1.77,2.15,2.08,2.28,.62,4.71,.71,7.05,.89,5.03,.39,10.06,.71,15.1,.93l7.67,.34,3.46,.15c1.11,.05,2.53,.36,3.62,.11,1.5-.33,2.56-1.67,2.6-3.17,.03-.89-.27-2.2-1.42-1.97-.15,.03-.14,.58,.01,.6,.4,.06,1.12,.47,.84,1.05-.13,.26-.78,.31-1.01,.33-.67,.05-1.39-.1-2.07-.11-1.88-.03-3.75-.11-5.63-.16l-11.38-.33c-3.79-.11-7.58-.09-11.37-.08-1.82,0-3.63-.03-5.43,.15-1.04,.1-3.8,.69-4.15-.86-.02-.09-.06,0-.06,.04h0Z"/><path class="cls-2" d="M467.33,336.3c7.93-2.77,15.33-6.7,21.79-12.1,.8-.67,1.59-1.35,2.36-2.05s1.55-1.68,2.42-2.29c.5-.35,.52-.29,.95,.18,.36,.4,.73,.79,1.1,1.18,.75,.77,1.51,1.53,2.3,2.25,3.01,2.78,6.34,5.21,9.9,7.25,3.87,2.22,8.4,3.21,12.74,4.09,.17,.03,.2-.79-.02-.87-2.68-.97-5.22-2.22-7.68-3.66-2.31-1.35-4.64-2.71-6.89-4.15-4.44-2.85-8.41-6.32-11.9-10.29-.11-.08-.21-.08-.31,0-7.6,8.15-16.8,15.13-26.78,20.11-.07,.04-.04,.35,.02,.33h0Z"/><path class="cls-2" d="M508.65,335.27c-.57-.69-.93-1.36-.74-2.45,.05-.3,.3-1.06,.58-1.21,.45-.23,1.56,.79,1.9,1.01,1.18,.77,2.44,1.42,3.74,1.97,2.52,1.08,5.12,1.75,7.83,2.14,6.07,.87,12.21,1.17,18.33,1.46,12.77,.6,25.54,.79,38.32,.52,25.59-.54,51.2-2.94,76.5-6.82,7.03-1.08,14.05-2.26,21.03-3.59,3.49-.67,6.98-1.36,10.47-2.08,1.83-.38,3.64-.84,5.45-1.28,.93-.23,1.72-.53,2.6-.93,1.06-.49,1.64-1.51,2.38-2.4,.2-.24,.25-1.22-.03-1.42-.58-.41-1.3-1.14-1.99-1.34s-1.72-.03-2.38,.06c-1.59,.21-3.17,.57-4.75,.87-3.02,.56-6.02,1.2-9.04,1.77-6.19,1.18-12.4,2.28-18.62,3.29-12.45,2.02-24.95,3.69-37.49,5-24.99,2.6-50.16,3.79-75.28,3.86-7,.02-14-.16-21-.17-3.04,0-6.07-.16-9.1-.41s-6.03-.88-8.67-2.38c-.02-.02-.04-.02-.06,0-1.11,1.32-1.25,3.35,.02,4.61,0,0,.02-.05,0-.06h0Z"/><path class="cls-2" d="M637.24,327.81c.94-.45,2-.73,2.96-1.16s1.94-.89,2.91-1.36c1.92-.93,3.84-1.89,5.69-2.97,3.66-2.14,7.2-4.51,10.61-7.04,6.88-5.1,13.1-10.99,18.58-17.58,3.17-3.82,6.11-7.83,8.81-12,.11-.16,0-.93-.17-.69-4.92,6.96-10.6,13.37-16.81,19.21-6.21,5.84-12.84,11.22-20.01,15.83-2.03,1.3-4.05,2.61-6.12,3.84-1.06,.64-2.14,1.26-3.22,1.86s-2.15,1.37-3.25,1.88c-.04,.02-.03,.19,.02,.17h0Z"/><path class="cls-2" d="M673.34,300.42c-1.02,1.24-2.36,2.29-3.53,3.38-1.07,.99-2.13,1.99-3.2,2.98l-1.42,1.32c-.29,.27-.62,.53-.89,.83-.04,.04-.49,.56-.1,.19,.9-.88,1.66-1.98,2.45-2.97,2.95-3.72,5.65-7.65,8.1-11.72,4.88-8.12,8.76-16.81,11.87-25.76,6.33-18.23,9.64-37.35,12.24-56.41,.56-4.11,1.32-8.24,3.12-12.01,1.54-3.22,4-6.36,7.7-7.05,4.78-.89,8.71,2.45,11.69,5.75,3.29,3.65,6.4,7.49,9.53,11.27,12.81,15.49,25.18,31.94,33.02,50.6,1.93,4.58,3.58,9.29,4.85,14.1,1.35,5.1,2.15,10.27,2.78,15.51,.68,5.67,1.41,11.38,3.32,16.79,.78,2.2,1.76,4.31,3,6.29,1.14,1.82,2.52,3.79,4.4,4.92,.74,.44,1.63,.48,2.45,.68,.99,.24,1.93,.71,2.92,.99,.53,.15,.48-1.98,.06-2.24-1.02-.64-2.08-1.32-2.85-2.27-.84-1.02-1.51-2.16-2.35-3.18-1.43-1.71-2.82-3.52-3.95-5.44-2.37-4.04-3.67-8.5-4.6-13.06-1.02-5.07-1.65-10.21-2.81-15.25-1.06-4.61-2.46-9.15-4.13-13.57-6.77-17.86-17.9-33.44-29.78-48.23-3.08-3.84-6.23-7.61-9.4-11.37-2.9-3.44-5.68-7.22-9.12-10.16-2.9-2.47-6.68-4.05-10.44-2.64-3.17,1.19-5.24,4.15-6.6,7.11-1.49,3.24-2.34,6.78-2.85,10.3-.69,4.75-1.32,9.51-2.07,14.26-1.48,9.36-3.26,18.69-5.59,27.88-4.67,18.39-11.69,36.5-23.07,51.83-1.37,1.85-2.81,3.66-4.3,5.42-.03,.03,0,.18,.03,.15,1.59-1.52,3.19-3.03,4.78-4.55s3.05-3.25,4.8-4.46c.06-.04,0-.21-.03-.16h0Z"/><path class="cls-2" d="M784.58,505.88c-1.02,.8-2.28,1.35-3.41,1.97-1.28,.7-2.56,1.39-3.84,2.08-2.29,1.23-4.6,2.45-6.9,3.66-4.76,2.49-9.55,4.91-14.35,7.3-9.62,4.8-19.35,9.37-29.19,13.7-19.82,8.72-40.06,16.47-60.64,23.2-11.53,3.78-23.16,7.23-34.88,10.37-.04,0-.02,.14,0,.13,20.84-5.55,41.41-12.11,61.62-19.67,20.06-7.5,39.76-15.98,59-25.39,5.39-2.63,10.72-5.36,16.02-8.17,2.72-1.44,5.43-2.91,8.12-4.39,1.35-.74,2.7-1.49,4.04-2.24,1.42-.79,2.89-1.86,4.43-2.41,.06-.02,.01-.19-.01-.17h0Z"/><path class="cls-2" d="M861.41,540.29c-.29-.1-.49-.31-.61-.61-.52-1.14-.42-2.09,.28-2.85,.47-.17,1.09,1.14,1.28,1.41l2.22,3.27,4.17,6.13c1.4,2.06,2.68,4.31,4.28,6.22,1.04,1.24,2.41,1.81,3.9,.9,1.64-1,3.02-2.72,4.43-4.03,1.66-1.54,3.4-3,5.21-4.36,1.7-1.28,3.46-2.47,5.27-3.57,.97-.59,1.99-1.1,2.95-1.69,1.06-.66,1.94-1.57,2.95-2.3,.07-.05,.06-.48-.03-.46-.95,.24-1.95,.33-2.86,.72s-1.68,.91-2.49,1.41c-1.7,1.04-3.36,2.15-4.96,3.34-3.29,2.44-6.36,5.16-9.06,8.26-1.38,1.58-3.07,3.12-4.94,1.2-1.54-1.57-2.69-3.68-3.96-5.49-2.7-3.84-5.4-7.69-8.11-11.53-.01-.02-.03-.04-.05-.02-1.36,1.27-.96,3,.14,4.23,.01,.01,.07-.14,.01-.17h0Z"/><path class="cls-2" d="M535.24,418.19c-.12,3.16,.92,5.93,1.65,8.97,.79,3.26,1.23,6.58,1.22,9.94,0,6.64-1.62,13.3-4.75,19.16-.84,1.58-2.25,3.81-.84,5.52,1.48,1.8,4.58,.53,6.28-.16,5.97-2.42,11.55-5.69,16.88-9.29,3.02-2.04,5.97-4.19,8.9-6.37,1.29-.96,2.83-1.86,3.94-3.04,1.49-1.58,1.37-4.03,.75-5.96-.21-.67-.78-1.09-1.25-.41-.32,.47-.87,.9-1.11,1.44-.15,.32-.08,2.29,.41,1.67,.16-.12,.33-.15,.52-.07l-.3-.32c.05-.41,.07-.39,.08,.08,.01,.35,.06,.7,.15,1.04l.17,.56c.34,.74,.32,.56-.04-.54l.04-1.9c.14-.58-.37,.27-.47,.37-.19,.19-.41,.37-.61,.54-.57,.5-1.15,1.01-1.72,1.51-1.15,1-2.31,2.01-3.47,3-2.2,1.89-4.43,3.75-6.71,5.55-4.69,3.7-9.6,7.16-14.87,9.99-1.8,.97-4.73,2.94-6.87,1.79-1.75-.95-.16-3.15,.47-4.36s1.15-2.35,1.63-3.56c1.97-4.89,3.01-10.15,3.08-15.42,.04-2.81-.2-5.62-.72-8.39-.26-1.4-.61-2.78-1.03-4.14-.7-2.27-1.72-4.74-1.33-7.15,.01-.07-.05-.19-.06-.06h0Z"/><path class="cls-2" d="M494.41,392.94c-.89-.9-1.49-1.42-2.73-1.67-1.06-.22-2.11-.23-3.18-.22-2.11,.02-4.22,.18-6.32,.46-.96,.13-.87,3.57-.09,3.9,3.1,1.27,5.71,3.7,6.74,6.94,.88,2.75-1.06,6.91,1.46,9.05,1.18,1,2.76,.62,4.06,.09,2.04-.83,3.93-2.07,5.84-3.16,2.06-1.17,4.14-2.31,6.17-3.53s4.23-2.37,6.13-3.85c.08-.06,.09-.56-.04-.53-2.15,.49-4.2,1.49-6.24,2.29-1.84,.73-3.66,1.53-5.48,2.3-2.06,.87-4.1,1.76-6.14,2.67-1.04,.46-3.71,1.33-4.28-.19-.2-.54,.16-1.62,.19-2.23,.04-.93,0-1.86-.12-2.78-.21-1.64-.68-3.23-1.41-4.72-1.41-2.88-3.77-5.2-6.8-6.28l.1,3.96c2.09-.38,4.19-.65,6.31-.77,.98-.06,1.95-.06,2.92-.2,.49-.07,.99-.12,1.45-.29,.61-.22,.96-.68,1.44-1.1,.03-.03,.03-.13,0-.17h0Z"/><path class="cls-2" d="M1041.87,424.43c-12.88,2.52-25.29,7.24-36.65,13.82s-21.84,15.14-30.58,25.09c-4.87,5.56-9.21,11.57-12.95,17.94-.02,.04,0,.23,.04,.17,6.67-11.38,15.27-21.58,25.29-30.17s21.42-15.54,33.64-20.48c6.85-2.77,13.96-4.88,21.21-6.32,.02,0,.01-.07,0-.07h0Z"/><path class="cls-2" d="M1046.72,433.78c.4-1.92-2.32-1.94-3.59-1.52-3.55,1.18-7.02,2.99-10.38,4.61-7.08,3.41-13.92,7.28-20.49,11.58s-12.99,9.11-19.02,14.27c-5.78,4.94-11.51,10.17-16.18,16.2s-8.29,13.15-8.1,20.91c0,.08,.05,.08,.05,0-.05-14.73,11.89-26.01,22.14-35.04,10.72-9.44,22.53-17.58,35.08-24.39,3.55-1.93,7.17-3.74,10.84-5.43,1.95-.9,3.92-1.88,5.94-2.61,.62-.22,1.25-.32,1.91-.27,.59,.05,2.48,.45,1.76,1.59-.03,.05,.02,.23,.04,.12h0Z"/><path class="cls-2" d="M1149.7,468.68c-16.39,2.15-31.7,9.94-43.08,21.93-.03,.03,0,.14,.01,.13,11.38-11.87,26.78-19.74,43.07-21.99,.02,0,.01-.07,0-.07h0Z"/><path class="cls-2" d="M1164.15,480.83c-1.38-3.87-6.36-2.99-9.52-2.3-4.57,1-8.99,2.66-13.11,4.89-8.27,4.48-15.73,11.51-20.05,19.94-1.83,3.57-3.17,8.47-.23,11.85,.05,.05,.06-.14,.03-.17-3.51-4.03-.86-9.82,1.55-13.69,2.23-3.59,4.95-6.87,8.02-9.77,6.12-5.78,13.64-10.13,21.76-12.39,2.02-.56,4.17-1.15,6.27-1.19,1.96-.03,4.95,.49,5.22,2.91,.02,.13,.07-.01,.05-.08h0Z"/><path class="cls-2" d="M1181.9,493.2c.25-.75,.24-1.35-.28-2-1.12-1.41-3.02-.87-4.43-.26-3.08,1.32-6.12,2.81-9.09,4.35-6.01,3.13-11.91,6.99-16.36,12.15-2.34,2.72-4.2,5.8-5.44,9.16-.01,.03,.01,.16,.03,.09,2.66-7.17,8.18-12.59,14.43-16.77,3.1-2.07,6.38-3.87,9.69-5.57,1.65-.85,3.32-1.67,5-2.47,1.12-.54,2.27-1.22,3.51-1.44,.65-.12,1.33-.12,1.94,.2,.73,.39,1.64,1.51,.97,2.42-.04,.05,0,.21,.03,.14h0Z"/><path class="cls-2" d="M781.95,525.1c-1.8-.4-3.57-1.27-5.29-1.93l-.03,1.61c2.25,.69,4.75,.89,7.07,1.28s4.71,.78,7.07,1.17c4.72,.77,9.44,1.51,14.16,2.23,9.52,1.45,19.08,2.62,28.65,3.71,18.93,2.16,37.9,3.95,56.9,5.37,19.1,1.43,38.22,2.47,57.36,3.15,19.04,.67,38.1,.97,57.15,.89,18.29-.07,37.1,.4,55.02-3.79,2.2-.51,4.37-1.11,6.52-1.77,.72-.22,.66-3.12-.08-3.29-2.07-.48-4.38-.35-6.49-.42-.24,0-.2,1.05,.03,1.14,2.11,.89,4.31,2.06,6.54,2.57l-.08-3.29c-17.56,5.44-36.2,5.37-54.4,5.55s-38.11-.01-57.15-.58c-19.14-.57-38.27-1.52-57.37-2.84s-37.99-3-56.93-5.06c-19-2.06-38-4.31-56.96-6.79-2.31-.3-4.73-.86-7.06-.86-.37,0-.37,1.61,.04,1.64,1.74,.13,3.63,.09,5.33,.49,.03,0,.04-.16,0-.17h0Z"/><path class="cls-2" d="M424.46,363.7c2.08-1.18,5.18-1.08,7.47-.78,2.48,.32,4.88,1.07,7.21,1.96,4.66,1.77,9.23,3.86,13.79,5.87,8.81,3.89,17.48,8.07,26.05,12.47,17.15,8.8,33.72,18.66,50.25,28.56s32.9,20.05,49.46,29.9c16.59,9.87,33.32,19.57,50.47,28.44,8.57,4.43,17.33,8.49,26.05,12.61,4.65,2.2,9.28,4.42,13.94,6.59,1.09,.51,2.2,.98,3.27,1.51,1,.49,2.08,1.5,3.18,1.67,3.07,.46,3.61-2.72,3.55-5.05-.01-.61-.02-2.43-.68-2.85-.6-.38-.69,.25-1.16,.32-.52,.08-.33,2.4,.06,2.35,.31-.05,.18,.23,.34,.3-1.44-.64,1.51-2.98,.32-2.86-.41,.04-.73,.21-1.18,.15s-.86-.26-1.27-.44c-.56-.25-1.09-.3-1.7-.41-2.22-.38-4.37-1.12-6.52-1.8-4.36-1.37-8.63-2.86-12.89-4.52-8.78-3.42-17.25-7.52-25.7-11.66-16.71-8.19-32.94-17.24-48.97-26.67-16.17-9.52-32.18-19.31-48.34-28.84-8.02-4.74-16.03-9.58-24.25-13.96s-16.37-8.76-24.63-12.98-16.67-8.28-25.17-12.06c-4.13-1.84-8.28-3.65-12.49-5.29s-8.9-3.61-13.65-3.87c-1.16-.06-2.32-.02-3.47,.16s-2.21,.72-3.35,1.03c-.05,.01-.02,.19,.01,.17h0Z"/><path class="cls-2" d="M512.28,600.13c2.47-.63,5.29-.58,7.83-.83s5.22-.54,7.82-.83c5.12-.57,10.24-1.18,15.36-1.85,10.31-1.35,20.59-2.98,30.84-4.77,20.48-3.59,40.83-7.76,60.98-12.85s39.92-10.9,59.5-17.63c19.67-6.75,39.07-14.28,58.15-22.55,9.42-4.08,18.76-8.33,28.07-12.65,4.67-2.17,9.29-4.43,13.88-6.77,1.8-.92,4.48-1.74,5.38-3.72,.55-1.23,.93-4.38-.56-5.17-1.26-.66-2.04,.49-2.24,1.55-.11,.6,.39,2.63,.66,1.17l.04-.23-.3,.59c.7-.2,.8,.19,1.41,.43,.4,.16,.26,1.86,.16-.85-.06-1.71,.12-1.19-.47-.61-.39,.38-.88,.65-1.35,.91-2.13,1.15-4.33,2.21-6.5,3.29-4.48,2.24-8.93,4.53-13.41,6.77-9.05,4.52-18.25,8.72-27.52,12.77-18.3,8-36.9,15.31-55.74,21.91s-37.94,12.64-57.2,17.95-38.72,10.04-58.34,13.82c-19.6,3.77-39.35,6.84-59.16,9.22-2.36,.28-4.94,.88-7.31,.76-.05,0-.03,.18,0,.17h0Z"/><path class="cls-2" d="M683.84,476.9c-.16,.61-.55,1.22-.83,1.79s-.59,1.16-.87,1.75c-.61,1.32-1.33,2.59-2.13,3.81-1.69,2.55-3.76,4.8-5.57,7.25-.07,.1-.08,.76,.11,.67,1.23-.54,2.4-1.6,3.28-2.59,1-1.11,1.87-2.29,2.64-3.57s1.47-2.64,2.06-4.04c.31-.73,.54-1.49,.75-2.26,.24-.88,.33-1.81,.59-2.69,.01-.04-.02-.2-.04-.12h0Z"/><path class="cls-2" d="M675.13,489.62l-2.61,.25,.03,1.32c2.59-.28,4.35-2.21,5.58-4.36,.72-1.26,1.22-2.61,1.73-3.97s.96-3,2.08-4.03c2.86-2.61,7.04,.83,9.79,1.99,3.31,1.39,7.23,1.21,10.74,.82,.28-.03,.25-1.18-.03-1.21-4.05-.44-7.66-2.16-11.24-4.02-2.7-1.4-6.28-4.48-9.35-2.25-1.25,.91-1.91,2.45-2.45,3.84s-1.05,2.8-1.57,4.2c-1.12,3.06-2.5,5.93-5.37,7.69-.28,.17-.12,1.42,.15,1.27,.84-.49,1.68-.99,2.52-1.48,.01,0,.01-.07,0-.07h0Z"/><path class="cls-2" d="M684.64,476.91c9.92,5.95,22.05,6.79,33.33,7.64,12.52,.95,25.11,1.16,37.65,.64,2.71-.11,5.99,.22,8.49-1.02,1.42-.7,2.71-2.74,1.57-4.26-.21-.28-.2,.61-.19,.69,.1,.59-1.63,1.34-1.97,1.46-1.06,.39-2.13,.42-3.25,.49-2.8,.18-5.61,.34-8.42,.45-5.7,.23-11.4,.31-17.1,.24-11.09-.14-22.31-.65-33.32-2.05-5.71-.72-11.56-1.9-16.8-4.35-.01,0-.02,.06,0,.06h0Z"/><path class="cls-2" d="M762.15,480.18c-7.42,2.45-14.97,4.13-22.79,4.54-.04,0-.04,.2,0,.2,7.77-.17,15.62-1.61,22.79-4.67,.02,0,0-.07,0-.07h0Z"/><path class="cls-2" d="M321.52,185.09c.54,1.48,.88,3.03,1.45,4.51,.52,1.35,1.12,2.68,1.78,3.97,1.4,2.73,3.08,5.32,4.88,7.8,4.05,5.57,8.72,10.69,13.21,15.9,9.97,11.57,19.95,23.14,29.93,34.7,16.8,19.48,34.07,39.3,45.19,62.72,6.16,12.98,10.11,27,10.35,41.43,0,.12,.11,.12,.1,0-.41-25.11-11.97-48.04-26.22-68.12-7.42-10.45-15.61-20.32-23.94-30.04-9.9-11.56-19.85-23.07-29.78-34.61-5.32-6.18-10.77-12.28-15.93-18.6-2.37-2.9-4.62-5.91-6.53-9.13s-3.88-6.92-4.41-10.61c-.02-.12-.1-.02-.07,.07h0Z"/></g></svg>