<?xml version="1.0" encoding="UTF-8"?><svg id="Layer_1" xmlns="http://www.w3.org/2000/svg" viewBox="0 0 1500 750"><defs><style>.cls-1{fill:#ece4e2;}.cls-2{fill:#bea094;}.cls-3{fill:#907a71;}.cls-4{fill:#231f20;}</style></defs><g><path class="cls-2" d="M859.46,425.96s110.76-25.1,131.39-16.21c20.63,8.9,87.17,38.7,100.18,43.73,0,0-12.52-42.72,22.33-59.03l34.84-16.31,14.86,13.22s41.47-54.85,36.53-57.96c-4.95-3.12-37.69-10.58-186.23,48.13l-63.15-5.86s39.51-1.55,41.89-2.73c0,0-31.7-19.79-37.54-33.97s-22.9-2.28-32.15,1.14c-9.25,3.42-62.82,14.38-97.34,10.48-34.52-3.9-135.19-12.69-151.41-6.45l60.52-10.52s-39.42-18.72-50.73-39.11c-11.31-20.38-28.65-3.08-66.08,20.24-37.43,23.33-87.5,27.57-107.51,30.52-20.01,2.95-171.2,36.62-200.89,49.18-29.69,12.56,23.82,19.63,23.82,19.63l53.45,11.96s-5.46,2.05,8.57,2.72c14.03,.67,204.76,16.71,204.76,16.71,0,0,143.14,4.6,211.67-3.64l48.74,24.1,55.08-39.19s-46.87,2.39-55.62-.78Z"/><path class="cls-1" d="M302.98,403.88c4.86,1.31,9.87,2.15,14.81,3.1s9.74,1.81,14.63,2.62c9.85,1.63,19.74,3.03,29.66,4.2,19.83,2.34,39.76,3.75,59.72,4.23,11.19,.27,22.4,.33,33.58-.14,.04,0,.09-1.39-.03-1.42-3.28-.85-6.65-1.44-9.96-2.15,.01,0-.04,.33,0,.34,3.32,1.08,6.62,2.29,9.99,3.23l-.03-1.42c-19.97,.44-39.89,.46-59.84-.68-19.91-1.14-39.78-3.2-59.5-6.18-5.45-.82-10.89-1.71-16.32-2.67s-11.12-2.26-16.71-3.09c0,0,0,.05,0,.05h0Z"/><path class="cls-1" d="M309.99,403.97c1.01,.32,1.91,.85,2.96,1.05,.81,.16,1.64,.25,2.45,.37,1.8,.27,3.6,.53,5.4,.79,3.6,.51,7.21,1.01,10.82,1.45,7.13,.87,14.28,1.53,21.44,2.13s14.32,1.08,21.49,1.46c3.62,.19,7.25,.35,10.88,.49s7.28,.76,10.9,1.17c3.96,.45,7.93,.87,11.9,1.25,1.98,.19,3.97,.38,5.95,.55,2.09,.18,4.37,.64,6.44,.26,.46-.09,.21-4.36,.19-4.81-.03-1.13-.07-2.27-.17-3.39-.01-.13-.19-1.44-.25-1.4-1.25,.72-.9,.61-1.93,.53-.44-.03-.87,.02-1.3,.11-.11,.02-.11,2.16,.06,2.29,2.03,1.56,2.81,3.54,3.24,6.03l-.06-8.96c-1.79-.25-3.65,.17-5.43,.38s-3.62,.42-5.43,.62c-3.62,.4-7.23,.77-10.86,1.11s-7.23,.69-10.85,.94-7.12-.05-10.63-.16c-14.41-.42-28.81-1.29-43.16-2.61-3.93-.36-7.87-.69-11.8-1.07-1.96-.19-3.93-.39-5.89-.6-.98-.1-1.96-.21-2.94-.32-1.2-.13-2.23,.15-3.42,.21,0,0,0,.12,0,.12h0Z"/><path class="cls-1" d="M302.54,399.58c1.01,.45,1.93,1.07,2.95,1.52,1.06,.48,2.14,.91,3.23,1.33,2.1,.8,4.25,1.48,6.43,2.02,4.45,1.1,9.02,1.37,13.59,1.49s9.44-.01,14.16,.09,9.4,.34,14.08,.69c2.71,.21,5.42,.41,8.13,.64,1.31,.11,2.62,.24,3.93,.37,1.48,.14,3.01,.43,4.14-.7,.09-.09,.05-.84-.02-.93-1.62-1.94-4.8-1.78-7.15-2.04s-4.76-.51-7.14-.66c-4.68-.29-9.38-.45-14.07-.49-9.3-.08-18.61,.75-27.89-.07-2.47-.22-4.93-.62-7.34-1.19-1.17-.28-2.32-.61-3.46-.97s-2.46-.68-3.57-1.21c.01,0-.02,.11,0,.12h0Z"/><path class="cls-1" d="M315.74,404.63c-.46-.14-.34,.09-.37,.38-.03,.25,.13,.56,.21,.78,.38,.99,.62,1.21,1.58,1.6s1.83,.7,2.68,1.18c.99,.57,1.91,1.21,2.94,1.72,1.75,.88,3.73,1.4,5.6,1.96,3.74,1.12,7.6,1.77,11.43,2.47s7.46,1.33,11.21,1.95c14.89,2.45,29.97,4.16,44.99,5.59,2.97,.28,6.01,.49,8.96-.13,1.37-.29,2.81-.7,3.74-1.8,.63-.75,.87-1.66,1.17-2.58,.42-1.29,.88-2.52,1.18-3.85,.05-.23,.16-2.02-.07-2.11-.32-.13-.7-.15-1-.28-.49-.22-.7-.7-1.27-.76-.97-.09-2.14,.69-3.07,.95-2.24,.64-4.63,.71-6.94,.6-6.7-.32-13.43-1.24-20.1-1.97-13.93-1.53-27.83-3.37-41.7-5.31-3.84-.54-7.74-1.06-11.63-1.02-.97,.01-1.94-.01-2.89,.14s-1.9,.51-2.88,.68-1.93,.11-2.89,.18c-.11,0-.64,.09-.7,.07-.12,.02-.23,.02-.35,0-.15-.28-.09-.42,.17-.4,0,0,0-.05,0-.05h0Z"/><path class="cls-1" d="M311.69,402.76c-.87-.37-1.7-.9-2.5-1.41v.34c.63,.38,.99,.92,1.58,1.29,.47,.29,1.07,.47,1.59,.67,1.07,.42,2.15,.77,3.26,1.08,2.07,.57,4.2,.96,6.33,1.21,4.42,.51,8.89,.44,13.33,.18,4.77-.27,9.52-.71,14.28-1.09,2.47-.2,4.94-.38,7.41-.6,1.31-.12,2.64-.21,3.95-.37,1.53-.19,2.61-.61,3.92-1.4,.05-.03,.03-.66-.02-.68-1.39-.55-2.47-.75-3.97-.65-1.32,.09-2.64,.24-3.95,.37-2.47,.24-4.94,.53-7.4,.8-4.75,.51-9.51,1.08-14.27,1.49-4.42,.38-8.89,.58-13.32,.19-2.13-.19-4.25-.51-6.33-1.03-1.1-.27-2.19-.6-3.26-.98-.51-.18-1.07-.52-1.59-.62-.26-.23-.52-.23-.78,0-.27,0-.53-.08-.77-.2,.02,0-.05,.31,0,.34,.85,.35,1.71,.72,2.49,1.19-.01,0,.02-.11,0-.12h0Z"/><path class="cls-1" d="M368.84,396.23c.17-.55,.31-1.04,.26-1.62-.02-.28-.07-.56-.16-.83-.07-.23-.18-.46-.29-.67-.3-.55-.35-.63-.52-1.5,0-.07-.02-.14-.06-.2-1.25,.93-2.29,2.22-2.79,3.72-.36,1.1-.38,2.28-.38,3.43,0,1.49,.04,3.04,.37,4.5,.29,1.27,1.06,2.79,2.45,3.09,.72,.15,1.3-.18,1.85-.63,.58-.48,1.1-1,1.46-1.67,.44-.84,.57-1.72,.57-2.66,0-.7,.07-1.56-.46-2.1,.02,.02-.03,.55-.03,.59,0,.2-.05,.56,.05,.75s.16,.38,.24,.57c.27,.62,.3-1.28,.02-.75-.12,.23-.22,.42-.42,.6-.37,.33-.91,.65-1.41,.66-.63,.01-1.24-.26-1.8-.52-.6-.28-1.2-.75-1.62-1.26s-.74-1.15-.9-1.8c-.12-.47,.06,.22-.05-.26,.87,3.61-.12,4.18,.15,2.77,.09-.45,.22-.89,.38-1.33,.33-.92,.75-1.8,1.23-2.65,.22-.39,.44-.77,.64-1.16,.14-.28,.29-.56,.44-.84,.22-.41,.17-.88,.2-1.34l-.03,.17c.12-.18,.21-.19,.29-.04,.09,.1,.17,.22,.24,.34,.07,.13,.13,.27,.18,.41,.21,.6,.29,1.55-.11,2.11-.02,.03,.01,.1,0,.12h0Z"/><path class="cls-1" d="M367.21,393.06c-.32,.98-.15,2.43-.08,3.5,.08,1.15,.25,2.3,.58,3.41,.54,1.84,1.71,3.73,3.37,4.77s3.61,1.18,5.35,.28c1.92-.99,3.61-2.44,4.82-4.23,.15-.22-.15-1.06-.03-1.17-1.07,.92-2.52,1.4-3.93,1.31-1.54-.1-3.13-.49-4.57-1.03s-2.71-1.25-3.74-2.4c-.49-.55-.89-1.12-1.21-1.77-.13-.25-.24-.5-.33-.77-.05-.14-.07-.29-.12-.44-.01-.07-.02-.14-.04-.2,.03,1.04,.05,1.16,.06,.36,0-.4,0-.81-.04-1.21,0-.05-.06-.49-.1-.39h0Z"/><path class="cls-1" d="M378.73,392.46c.79,1.03,1.7,1.93,2.22,3.15,.13,.3,.23,.6,.32,.91,.05,.2,.05,.71,.17,.86,0-.45,0-.56-.02-.33l-.02,.13c-.02,.13-.06,.27-.1,.4-.07,.24-.16,.46-.28,.68-.5,.98-1.27,1.8-2.21,2.36-1,.59-2.13,.8-3.18,1.26l.11,1.48c.02-.8,.83-1.5,1.55-1.67,.06-.01,.03-.77-.02-.78-.69-.1-1.51,.25-1.66,1-.07,.35-.04,.73-.03,1.08,0,.14-.04,.78,.1,.85,1.31,.67,2.84-.06,3.86-.93,1.13-.96,1.79-2.26,1.99-3.72s.2-3.13-.33-4.5c-.36-.93-1.3-2.46-2.47-2.29,0,0,0,.04,0,.05h0Z"/><path class="cls-1" d="M382.34,393.43c-.39-.09-.08-.48,.1-.6,.44-.29,.48,.86,.68,1.22,.34,.6,.67,1.25,.85,1.93s.31,1.36,.41,2.03c.04,.29,.08,.57,.12,.86,.04,.27,.05,.29,.01,.05,.04,.34,.04,.28-.01-.18-.08-3-.11-3.5-.08-1.5,.05,1.56,.06,1.5,.02-.18-.03-.63-.03-1.25,0-1.88,.04-.43,.05-.51,.02-.23-.03,.2-.03,.2,0,0-.02,.1-.04,.2-.07,.3-.04,.15-.08,.29-.12,.44-.24,.8-.56,1.57-.97,2.3l.1-.18c-.54,.9-1.2,1.72-2.01,2.39-.4,.33-.82,.64-1.27,.9-.23,.13-.46,.25-.7,.36-.1,.05-.22,.12-.32,.14-.38,.08-.24-.09-.52,.39l.1-.17c-.2,.28-.42,.5-.79,.46l.19,4.06c.1-.88,.31-1.61,.95-2.25,.16-.15,.08-2.03-.05-2.05-.41-.06-1.02,.03-1.17,.42-.24,.63-.12,1.63-.11,2.25,.01,1.08,.07,2.16,.19,3.23,.08,.72,.22,1.46,.48,2.14,.09,.23,.22,.45,.31,.68s.16,.9,.5,.95c.27,.04,.87-.41,1.11-.55,.38-.22,.74-.48,1.07-.76,4.06-3.43,4.01-9.3,3.78-14.14-.04-.9-.12-1.8-.25-2.7,.16,1.05-.03-.25-.08-.51-.07-.36-.11-.85-.39-1.12-.17-.16-.32-.1-.48-.16-.36-.14-.43-.45-.96-.37l-.03,.05c-.49,1.52-.22,.65-.65,1.17-.05,.06-.09,.13-.12,.2-.05,.11-.09,.25-.07,.38,.02,.17,.07,.22,.21,.36,0,0,.02-.12,0-.12h0Z"/><path class="cls-1" d="M388.66,396.76c-5.88,1.27-11.87,1.49-17.8,.39l.04,1.64c.73-.08,1.43-.05,2.17-.15s1.45-.19,2.18-.27c1.41-.15,2.81-.3,4.22-.44,2.88-.29,5.79-.4,8.69-.47l-.09-3.71c-2.17,1.65-5.07,1.8-7.39,.34,.07,.05-.1,.62,.02,.73,2.03,1.94,4.72,2.66,7.46,2.63,.21,0,.14-3.71-.09-3.71-2.92,.07-5.8,.41-8.67,.91-1.42,.25-2.82,.57-4.21,.96-.67,.19-1.34,.38-2,.59-.82,.25-1.53,.63-2.32,.94-.15,.06-.05,1.63,.04,1.64,5.95,.68,12.07,.16,17.76-1.74,.04-.01-.01-.29,0-.29h0Z"/><path class="cls-1" d="M356.35,396.88c-.11-.02-.7-.32-.63-.49,.06-.14,.58-.1,.7-.12,.69-.07,1.39-.12,2.09-.18,1.71-.15,3.39-.46,5.08-.72,3.39-.53,6.8-.97,10.2-1.42,3.11-.41,6.24-.88,9.38-1.02,1.42-.06,2.83-.01,4.22,.23s2.63,.72,3.96,1.11l-.09-2.4c-.26,1.02-.52,2.03-.79,3.05-.06,.22,.12,.7,.03,.86,.29-.52,.58-1.03,.87-1.55,.19-.34,.19-2.11-.09-2.4-2.45-2.61-6.32-2.54-9.63-2.27-3.96,.32-7.92,.87-11.84,1.51s-8.16,1.26-12.09,2.44c-1.29,.39-2.17,1.06-2.17,2.48,0,.58,.04,1.2,.81,1.01,0,0,0-.12,0-.12h0Z"/><path class="cls-1" d="M393.06,400.31c.09,.25,.53-.65,.53-.7,.01-.07,0-.15,0-.22,.02-.42-.1-.88-.16-1.28-.05-.31-.12-1.18-.33-1.5-.29-.43-.52-.34-.96-.29-3.01,.32-6.02,1.25-8.93,2.04-.49,.13-.21,4.04-.2,4.5,0,.33,.3,4.53,.42,4.49,1.12-.36,2.07-1.4,3.08-2.01s2.2-1.14,3.28-1.71c2.08-1.1,4.2-2.11,6.38-2.99,.33-.13-.02-3.43-.08-3.43-.77,.02-1.04-.29-1.58-.8-.47-.44-.94-.56-1.58-.53-1.02,.04-2.11,.36-3.12,.53-2.03,.35-4.03,.89-6.03,1.36-.97,.23-1.95,.45-2.92,.72-1.09,.3-1.93,.76-2.88,1.36-.73,.46-1.46,.97-2.36,.92-.19-.01-.41-.14-.57-.15-.24,3.18-.19,4.14,.17,2.88,.09-.22,.23-.41,.42-.56,.33-.31-.11-3.31-.08-3.32-.78,.17-.7,1-.72,1.66-.02,1.3-.02,2.68,.3,3.95,.63,2.49,3.21,3.49,5.55,2.82,2.55-.72,5.05-1.62,7.57-2.45,1.31-.43,2.59-.98,3.87-1.49,.71-.28,1.37-.51,1.93-1.07,.81-.8,1.04-1.84,2.09-2.41l-.08-3.43c-2.12,.45-4.27,.75-6.43,.94-1.04,.09-2.08,.26-3.12,.3s-2.31-.39-3.33-.09l.22,8.99c1.63-.99,3.28-1.97,4.88-3.03s3.89-2.09,4.86-3.73l-.16-1.48c-.18-3.93,.01,.84,.06,1.2h0Z"/><path class="cls-1" d="M382.22,412.91c-1.26-.27-2.48-.8-3.7-1.22-.52-.18-1.42-.31-1.85-.66-.74-.58-1.33-1.85-1.9-2.61l.11,4.36c.6,.56,.93,.9,1.76,1.04,.5,.08,1,.17,1.5,.23,1.15,.16,2.32,.06,3.48,.03,2.23-.05,4.47-.11,6.7-.2,4.46-.19,8.93-.4,13.39-.62,8.93-.45,17.85-.91,26.77-1.46,17.84-1.09,35.67-2.39,53.47-4.03,4.94-.46,9.89-.93,14.83-1.43,1.31-.13,2.66-.17,3.95-.43s2.42-.94,3.68-1.37c2.56-.87,5.05-1.92,7.61-2.8,.1-.03,.02-1.41-.03-1.41-2.25-.29-4.46-.78-6.71-1.07-1.11-.15-2.15-.38-3.23-.63s-2.33-.06-3.47,.05c-4.45,.43-8.9,.85-13.35,1.25-8.9,.8-17.81,1.56-26.72,2.26-17.82,1.4-35.66,2.59-53.51,3.43-4.96,.23-9.92,.45-14.88,.64-2.56,.1-5.13,.21-7.69,.34-1.23,.06-2.5,.04-3.72,.19-.58,.07-1.16,.23-1.73,.37-.32,.07-.69,.1-.99,.23-.51,.22-.82,.63-1.22,1.04-.34,.36-.14,1.72-.12,2.18,0,.2,.28,2.14,.23,2.18,.49-.36,1.24-1.26,1.8-1.43,.39-.11,1.45,.41,1.85,.53,1.23,.36,2.52,.65,3.7,1.15,0,0,.02-.12,0-.12h0Z"/><path class="cls-1" d="M514.47,398.94c1.7-1.55,4.4-1.65,6.46-.89v-.36c-4.99,4.05-11.9,3.79-17.96,4.16-7.52,.45-15.04,1.01-22.56,1.53-14.9,1.03-29.77,2.2-44.65,3.43-4.14,.34-8.29,.67-12.41,1.18-2.15,.27-4.3,.6-6.44,.92s-4.49,.6-6.43,1.57l.08,3.42c.62-1.08,1.48-2.29,2.58-2.89,1-.54,2.05-.85,3.18-.96,.05,0,.03-.97-.02-.98-2.01-.18-4.07,.45-5.82,1.4-.24,.13-.11,3.36,.08,3.42,1.71,.55,3.69,.5,5.48,.47,1.99-.04,3.98-.07,5.97-.17,3.73-.19,7.45-.57,11.17-.92,7.53-.7,15.06-1.54,22.56-2.49,14.88-1.9,29.76-3.94,44.55-6.45,3.76-.64,7.57-1.16,11.29-2.03,3.37-.78,6.71-1.94,9.34-4.26,.02-.02,0-.36,0-.36-2.42-.75-4.35-.06-6.45,1.13-.02,.01,.02,.11,0,.12h0Z"/><path class="cls-1" d="M416.15,413.82c.57-.37-.45-.9-.81-.65-.22,.16-.21,.43-.18,.68,.1,.77,.81,1.04,1.51,1.13,1.63,.21,3.42,0,5.07-.02,1.82-.03,3.65-.06,5.47-.09,3.65-.07,7.3-.12,10.95-.24,14.59-.49,29.18-1.03,43.78-1.03,8.29,0,16.57,.21,24.84,.75l-.05-1.84-39.4,2.19c-12.75,.71-25.54,1.26-38.23,2.83-7.16,.89-14.28,2.13-21.28,3.9-.17,.04,.04,1.95,.05,1.95,3.67-.31,7.34-1.09,10.97-1.65,.04,0,0-.54-.01-.54-3.65,.06-7.37-.08-11.01,.24l.05,1.95c12.31-3.13,24.95-4.57,37.6-5.48,12.94-.94,25.91-1.55,38.87-2.28l22.44-1.27c.05,0,.04-1.83-.05-1.84-25.16-1.61-50.43-.26-75.57,1.2-3.48,.2-6.96,.39-10.44,.57-1.43,.07-3.26,.48-4.65,.06-.36-.11-1.1-.48-.59-.88,.17-.13,1.06-.05,.66,.32,0,0,0,.05,0,.05h0Z"/><path class="cls-1" d="M412.18,420.32c-1.79,.34-3.7,.32-5.52,.49s-3.67,.4-5.49,.65c-3.65,.5-7.28,1.16-10.88,1.95-.04,0,.01,.43,.01,.43,5.5-.95,10.99-1.96,16.48-2.98v-.47c-2.57,1.03-5.14,1.9-7.86,2.35s-5.41,.67-8.14,.72c-.08,0-.11,2.06,.05,2.07l7.09,.66-.08-3.15c-1.66,1.2-3.74,1.28-5.5,.26l.1,4.22c1.8,.12,3.58,.33,5.38,.25,1.95-.08,3.91-.15,5.86-.21,3.75-.11,7.49-.15,11.24-.22,7.42-.14,14.84-.1,22.25,.11,14.87,.42,29.68,1.94,44.43,3.91,8.33,1.11,16.67,2.32,24.96,3.71,.13,.02,.11-4.64,.1-5.01-.03-1.18-.07-2.36-.15-3.54-.02-.21,0-1.39-.2-1.46-23.82-8.22-49.03-12.16-74.23-11.76-7.15,.11-14.28,.58-21.39,1.39-.6,.07-.08,10.2,.25,10.19,21.32-.52,42.67-1.03,63.93-2.92,5.99-.53,11.96-1.18,17.92-1.95,.48-.06,.04-10.19-.25-10.19-23.09-.46-46.19-.2-69.26,.8-6.47,.28-12.94,.62-19.41,1.01l.25,10.19,70.25-5.89,19.93-1.67-.25-10.19-3.72,1.43c-.15,.06-.13,1.62-.12,1.5-.03,1.2,0,2.41,.02,3.61,0,.37,.25,5.11,.35,5.09,1.29-.26,2.45-.48,3.58-1.17,1.04-.62,2.06-1.28,3.06-1.96,.59-.4,1.11-.78,1.72-1.17,.43-.27,.85-.55,1.27-.84,1.1-.74,2.17-1.82,3.32-2.41,.21-.11,.03-1.84,.03-2.07,0-.18-.2-2.03-.13-2.07-.91,.46-2.33,.53-3.36,.7s-2.01,.36-3.03,.3-2.07,0-3.11-.04c-1.25-.06-2.38,.28-3.6,.52l.25,10.19,3.72-1.43c.17-.07,.15-1.6,.15-1.5,.04-1.2,.02-2.41-.01-3.61-.01-.38-.13-5.11-.39-5.09l-70.25,5.89-19.93,1.67c-.6,.05-.05,10.21,.25,10.19,23.05-1.39,46.14-2.07,69.23-2.02,6.48,.02,12.96,.09,19.44,.22l-.25-10.19c-21.16,2.75-42.49,3.78-63.81,4.41-6.01,.18-12.02,.32-18.04,.47l.25,10.19c25.02-2.85,50.49-1.37,75.01,4.37,6.95,1.63,13.83,3.55,20.6,5.81l-.25-10.01c-14.73-2.31-29.51-3.67-44.41-4.2s-29.65-.62-44.45-.02c-4.16,.17-8.3,.44-12.45,.77-2.11,.17-4.23,.35-6.34,.54s-4.2,.66-6.32,1.14c-.23,.05-.18,4.15,.1,4.22,1.98,.53,3.96,.07,5.48-1.33,.27-.25-.01-3.16-.08-3.15l-7.06,.42,.05,2.07c5.43-.94,10.83-2.64,15.95-4.67,.06-.02-.02-.47-.01-.47-5.5,.99-10.99,1.97-16.48,3.03v.43c3.61-.86,7.24-1.58,10.89-2.16,1.75-.28,3.5-.52,5.25-.73,1.87-.22,3.87-.6,5.76-.5,0,0,0-.13,0-.12h0Z"/><path class="cls-1" d="M376.61,406.12c19.27-1.87,38.54-3.75,57.82-5.51,19.28-1.77,38.58-3.42,57.88-4.95,10.94-.87,21.88-1.71,32.81-2.62,.01,0,0-.24,0-.24-19.33,1.2-38.63,2.79-57.92,4.42-19.3,1.63-38.58,3.37-57.86,5.23-10.92,1.05-21.84,2.2-32.75,3.39-.02,0,0,.29,0,.29h0Z"/><path class="cls-1" d="M520.81,398.62c.65-1.01,.97-2,.77-3.18-.06-.33-.15-.66-.28-.97-.22-.53-.1-.47-.61-.37-.19,.03-.55,.33-.67,.42-1.12,.74-2.2,1.55-3.25,2.39-3.88,3.11-7.3,6.79-10.09,10.91-2.64,3.9-5.16,8.36-5.57,13.14-.32,3.69,.34,7.69,3.68,9.85,5.22,3.37,11.59,.11,16.32-2.54,.08-.04-.06-.47-.01-.49-3.78,1.84-7.86,3.71-12.17,3.07-3.93-.58-7.38-3.22-7.76-7.39s1.99-8.57,4.03-12.02,4.66-6.92,7.55-9.91c1.61-1.67,3.34-3.23,5.16-4.67,.81-.64,1.85-1.72,2.8-2.09,.42-.17,.11-.43,.52-.02,.19,.19,.3,.63,.35,.87,.2,.95-.09,2.16-.77,2.88-.02,.03,.02,.1,0,.12h0Z"/><path class="cls-1" d="M513.67,405.93c-.4-.28-.88-.79-1.34-.95-.39-.13-.69,.02-1.09,.22-.69,.34-1.32,.81-1.84,1.38-.94,1.04-1.52,2.38-1.74,3.75-.52,3.19,.32,6.62,1.55,9.53,1.81,4.29,4.71,7.73,8.19,10.76,1.63,1.42,3.43,2.66,5.27,3.79,.87,.54,1.78,1.02,2.69,1.48,.83,.42,1.49,.94,2.41,.62,1.72-.61,3.12-1.63,3.78-3.38,.27-.72,.29-1.45,.29-2.21,0-.48,.13-1.32-.1-1.76,0,.01-.03,.33-.03,.3v.08l.03-.37c-.47,.57-2.26-.49-2.75-.76-.73-.4-1.3-.97-1.98-1.42-.73-.49-1.66-.77-2.46-1.15-3.63-1.73-7.16-3.81-10.36-6.26-2.32-1.77-6.07-3.6-6.49-6.85-.23-1.78,.63-3.89,1.64-5.33,.45-.65,1.01-1.24,1.65-1.7,.26-.19,.84-.64,1.17-.64,.37,0,1.2,.69,1.53,.89,0,0,0-.04,0-.05h0Z"/><path class="cls-1" d="M512.47,406.02c.33-.15,.38-.48,.29-.8-.16-.58-.73-.91-1.31-.88-.77,.05-1.32,.69-1.84,1.18-1.05,.98-2.09,2.04-3.04,3.12-.37,.42-.82,.73-1.1,1.21-.31,.54-.5,1.17-.63,1.77-.16,.75-.2,1.52-.22,2.28-.06,2.16,0,4.33,.16,6.48,.13,1.78,.35,3.54,1.13,5.17,.7,1.46,1.79,2.71,3.29,3.36,.68,.3,1.42,.47,2.17,.44,.43-.01,.63-.04,.93-.34,.46-.47,.81-1.13,1.09-1.72,.91-1.87,1.22-3.71,1.2-5.78-.01-1.28,.27-3.2-1.23-3.74,.13,.05-.16,1.77,.05,2,.53,.57,.7,1.16,.98,1.86,.36-2.13,.33-2.83-.09-2.1-.04,.06-.09,.12-.15,.17-.1,.08-.21,.19-.33,.24-.41,.17-.86-.09-1.24-.27-.41-.19-.61-.34-1.05-.33-.27,0-.54,.08-.81,.09-2.61,.03-4.81-1.99-5.58-4.38-.07-.23-.13-.45-.19-.68-.59-2.25-.22,6.69,.12,4.25,.12-.82,.26-1.61,.47-2.41,.52-2,1.12-3.98,2.12-5.8,.79-1.43,1.86-2.71,2.83-4.01,.39-.53,.79-1.27,1.47-1.46s1.13,.66,.49,1.03c0,0,0,.05,0,.05h0Z"/><path class="cls-1" d="M500.71,413.29c-1.59,.26-2.15,2.44-2.31,3.78-.24,2.07-.17,4.45,.55,6.43,.64,1.76,1.85,3.28,3.51,4.18s3.53,1.11,5.38,.66c2.25-.55,4.11-2.04,5.28-4.01,.1-.17-.12-.68-.02-.78-2.17,2.28-5.7,2.68-8.64,2.07-1.61-.33-3.1-1.15-4.17-2.4-.54-.63-.97-1.35-1.28-2.12-.15-.37-.27-.75-.36-1.14-.04-.18-.08-.36-.12-.55-.02-.11-.03-.23-.05-.34-.08-.49,.02,.56,0,.59,.1-.12,.05-.62,.07-.79,.04-.25,.08-.51,.14-.76,.11-.48,.26-.95,.42-1.41,.4-1.18,1.02-2.27,1.6-3.37,0,0,0-.05,0-.05h0Z"/><path class="cls-1" d="M493.77,419.13c-1.5,.69-1.86,2.37-1.56,3.87,.64,3.13,4.27,4.13,6.96,4.71,8.04,1.71,16.23,1.75,24.26,.04,.03,0-.01-.34,0-.34-6.59,1.1-13.44,1.28-20.06,.41-2.8-.37-6.05-.69-8.59-2.03-1.13-.6-2.11-1.48-2.49-2.74-.45-1.5,.09-3.15,1.49-3.87,0,0,0-.05,0-.05h0Z"/><path class="cls-1" d="M496.91,414.52c1.06-1.1,2.44-1.68,3.97-1.45v-.44c-1.4,1.12-2.76,2.28-4.24,3.28-.67,.45-1.37,1-2.12,1.31-.71,.29-1.41,.13-2.15,.24-.32,.05-.25,6.56,.16,6.63,2.43,.41,4.82,.59,7.29,.44s4.78-.8,7.11-1.45c.62-.18-.03-7.84-.19-7.84-4.18,.01-8.25,.59-12.21,1.94-.19,.06-.18,1.53-.18,1.44-.05,1.16-.03,2.32,0,3.48,.01,.39,.05,4.91,.42,4.91,5.33-.02,10.69-.52,16.01-.82l-.25-10.09-4.83,2.59c-.96,.52-2.4,1-2.8,2.13-.37,1.04-.24,2.37-.25,3.43,0,1.92,.04,3.85,.21,5.77,.1,1.05,.2,2.3,1.45,2.57,1.07,.23,2.27-.43,3.21-.82,1.6-.66,3.35-.93,5-1.45,3.38-1.07,6.79-2,10.19-3.01,.16-.05-.03-1.85-.05-1.85-1.9,.1-3.81,.23-5.71,.19-2.01-.05-3.99-.29-5.99-.45-1.76-.14-3.55-.23-5.13-1.06-.96-.5-2.61-1.46-2.86-2.6l.24,2.33v-.23l-.02,7.45c.17-1.28,2-1.87,2.98-2.4l4.61-2.51c.21-.11,.18-1.5,.18-1.48,.05-1.19,.04-2.38,0-3.57-.01-.39-.1-5.06-.44-5.03-5.33,.33-10.71,.47-16.01,1.07l.24,9.83c3.88-1.78,7.96-3.16,12.16-3.93l-.19-7.84c-4.46,1.66-9.63,2.3-14.37,2.22l.16,6.63c.69-1.23,1.24-2.57,2.06-3.72,.65-.92,1.37-1.79,2.09-2.65,1.33-1.61,2.77-3.12,4.19-4.64,.03-.04,0-.44-.01-.44-1.56,.13-2.9,.66-3.96,1.84,0,0,0,.04,0,.05h0Z"/><path class="cls-1" d="M505.2,430.24c-4.89-.26-9.87-.29-14.73-.9,.04,0-.16,2.01,.05,2.06,4.56,1.16,9.42,1.59,14.1,2.15s9.4,1.11,14.1,1.64c9.48,1.06,18.98,2.05,28.48,2.97,18.73,1.81,37.44,4.46,56.26,5.24,5.2,.22,10.41,.28,15.62,.1,2.59-.09,5.19-.23,7.77-.48,1.19-.12,2.71-.59,3.87-.29,.65,.17,1.32,.41,1.95,.65,.22,.08,.51,.29,.73,.33,.33,.06,1.11-.18,1.44-.23,.26-.04,.03-9.92-.24-9.96-21.82-2.93-43.86-3.9-65.86-2.99-6.23,.26-12.46,.67-18.67,1.23-.35,.03,.06,10.17,.25,10.17,22.15-.16,44.31-.5,66.45-1.01,3.16-.07,6.33-.15,9.49-.23,.75-.02,1.5-.01,2.25-.06,.9-.06,1.47-.52,2.23-.98,.32-.19,.68-.38,.98-.6,.54-.39,.88-.52,1.48-.82,.82-.41,1.65-.82,2.47-1.23,.15-.07,.05-3.26-.08-3.32-1.34-.58-2.84-1.06-4.04-1.83-.64-.41-1.36-.74-2.03-1.1-.8-.44-1.61-.3-2.51-.28-2.75,.07-5.49,.14-8.24,.21-5.58,.14-11.16,.26-16.74,.37-10.99,.22-21.98,.4-32.98,.53-6.33,.08-12.66,.14-18.99,.19l.25,10.17c21.92-1.97,43.98-2.05,65.92-.31,6.22,.49,12.42,1.1,18.61,1.87l-.24-9.96c-.6,.11-1.18,.14-1.68,.45-.56,.35-1.1,.75-1.67,1.11-1.18,.74-2.24,.84-3.61,.98-2.26,.24-4.52,.49-6.79,.67-4.62,.35-9.25,.5-13.89,.5-9.38,0-18.77-.44-28.14-.89-9.42-.45-18.84-.97-28.25-1.57-9.42-.6-18.83-1.55-28.22-2.45-5.28-.51-10.55-1.04-15.83-1.6-2.63-.28-5.27-.55-7.91-.79s-5.42-.61-8.14-.57l.05,2.06c4.84-.68,9.81-.78,14.68-1.11v-.05h0Z"/><path class="cls-1" d="M680.38,436.52c-8.4,1.42-16.93,2-25.45,1.69-8.48-.3-17.18-1.27-25.34-3.64l.04,1.74c13.59,1.46,27.33,1.42,40.99,1.68s27.32,.17,40.97-.17c3.31-.08,6.62-.08,9.93-.07s6.95-.18,10.42-.34c6.78-.31,13.56-.67,20.34-1.1,13.57-.87,27.1-2.12,40.63-3.44,15.35-1.5,30.67-3.17,45.99-4.87l-.25-10.04c-23.56,3.88-47.45,5.52-71.3,5.73-23.88,.21-47.75-1-71.56-2.71-13.42-.96-26.83-2.09-40.23-3.22l.25,10.19c22.41-.81,44.81-1.61,67.22-2.51,22.4-.9,44.8-1.88,67.19-3.04,12.61-.65,25.21-1.36,37.81-2.15,.26-.02-.03-10.19-.25-10.19l-69.06-.23-69.06-.23-19.45-.06-9.47-.03-4.99-.02c-.82,0-1.68-.08-2.49,.1s-1.65,.38-2.48,.57l.22,8.82,3.34-1.44c.53-.23,.9-.48,1.43-.67s1.12-.36,1.67-.55l3.11-1.09c1.08-.38,2.24-.96,3.35-1.18,.34-.07-.18-3.93-.1-3.95-1.05,.2-2.28,.08-3.37,.12l-3.13,.11c-.56,.02-1.13,.1-1.69,.1-.51,0-.92-.05-1.45-.12-1.1-.14-2.27-.1-3.38-.15-.16,0-.07,4.08-.06,4.42,.01,.41-.12,4.31,.28,4.41,1.43,.34,2.78,.69,4.26,.7h4.49l8.73,.04,17.2,.06,34.41,.11,69.06,.23,38.89,.13-.25-10.19c-22.38,1.39-44.77,2.55-67.17,3.57s-44.8,1.91-67.21,2.74c-12.61,.47-25.23,.92-37.84,1.38-.17,0-.22,10.15,.25,10.19,23.89,2.01,47.79,4.02,71.75,5.11,23.79,1.09,47.66,1.27,71.44-.36,13.37-.92,26.69-2.46,39.91-4.7,.21-.04-.02-4.62-.03-5.02,0-.37-.19-5.02-.22-5.02-27.2,3.16-54.41,6.2-81.63,9.19-6.77,.74-13.54,1.46-20.31,2.14-3.39,.34-6.77,.67-10.16,.98s-6.76,.78-10.16,1.19c-6.73,.81-13.56,1.15-20.33,1.6s-13.55,.82-20.34,1.12c-7.69,.33-15.38,.48-23.07,.49-7.69,.01-15.38-.21-23.07-.1-.01,0-.07,1.72,.04,1.74,8.42,1.4,16.76,2.6,25.32,2.66,8.54,.06,17.06-.76,25.43-2.41v-.05h0Z"/><path class="cls-1" d="M615.53,403.58c-.24-1.87-2.57-2.86-4.04-1.65-.01,0,0,.14,0,.14,10.32,2.06,20.8,2.1,31.28,2.06s21.3-.09,31.94-.13c21.51-.09,43.03-.18,64.54-.26,42.92-.18,85.86-.15,128.74-2.23,11.9-.58,23.8-1.3,35.68-2.23,11.49-.9,23.56-1.28,34.52-5.15,.07-.02-.07-.72-.02-.73-10.2,2.35-20.56,3.33-30.98,4.17-11.01,.89-22.04,1.61-33.07,2.19-21.96,1.15-43.96,1.77-65.94,2.17-22,.4-44.01,.56-66.02,.75s-44.11,.38-66.16,.56c-10.97,.09-21.95,.19-32.92,.28-5.34,.05-10.69,.1-16.03-.12-2.61-.1-5.21-.23-7.82-.46-1.25-.11-2.49-.25-3.73-.4-.72-.09-1.45-.19-2.17-.3-.35-.05-1.68-.15-1.44-.47,.35-.47,1.49-.29,1.93-.15,.96,.31,1.61,1.02,1.7,2.06,0,.05,0-.08,0-.1h0Z"/><path class="cls-1" d="M934.87,394.42c-1.83,1.17-4.01,1.96-6.04,2.73s-4.14,1.47-6.26,2.07c-4.17,1.19-8.44,2.06-12.72,2.76-9.07,1.47-18.26,2.27-27.39,3.25-19.58,2.1-39.17,4.17-58.78,6.01-19.52,1.83-39.04,3.59-58.6,4.87-19.63,1.29-39.29,2.18-58.97,2.47-9.79,.15-19.57,.2-29.36,.06-4.94-.07-9.89-.18-14.83-.34-3.69-.12-7.82,.15-11.31-1.27-1.29-.52-2.68-1.26-3.5-2.41,.22,.31-.17,1.3,.03,1.72,.69,1.52,1.65,2.77,3.2,3.47s3.22,.97,4.87,1.12c4.51,.41,9.1,.36,13.62,.46,9.88,.22,19.77,.26,29.65,.14,19.67-.23,39.34-1.2,58.97-2.54s39.29-3.13,58.89-5.15c19.52-2.02,39.01-4.41,58.49-6.8,9.48-1.16,18.97-2.22,28.43-3.58,8.69-1.24,17.4-2.92,25.58-6.19,2.05-.82,3.99-1.93,6.04-2.71,.02,0-.02-.12,0-.12h0Z"/><path class="cls-1" d="M635.6,414.55s0-.12,0-.12c0,0,0,.12,0,.12h0Z"/><path class="cls-1" d="M617.33,411.98c1.08,.14,2.19-.57,2.51-1.61,0-.01,0-.04,0-.05-.33,1.04-1.43,1.75-2.51,1.61,0,0,0,.05,0,.05h0Z"/><path class="cls-1" d="M615.66,409.44c-1.95-.38-4.05-1.11-5.69-2.21,.21,.14-.24,1.34,.04,1.54,1.6,1.16,3.62,1.72,5.51,2.31s3.69,1.05,5.55,1.53c3.63,.94,7.29,1.79,10.98,2.5,7.47,1.43,14.96,2.23,22.52,2.91-.05,0,.24-3.41-.09-3.49-6.69-1.59-13.34-3.37-19.96-5.22-3.26-.91-6.51-1.87-9.75-2.88-1.64-.51-3.26-1.14-4.85-1.8-.84-.35-1.59-.83-2.31-1.39-.86-.66-1.85-1.15-2.77-1.74-.05-.03-.11,1.39-.11,1.18-.03,.95-.01,1.9,.01,2.85s.05,1.9,.13,2.84c.01,.18,0,1.11,.17,1.18,7.1,2.77,14.53,3.45,22.08,3.87,3.74,.21,7.48,.37,11.2,.72s7.76,.69,11.21,2.09l-.22-8.84c-4.03-.44-8.14-.23-12.18-.3s-7.81-.27-11.71-.6c-7.85-.67-15.63-2.23-22.88-5.4,0,0-.18,4.67-.17,5.07,.03,1.19,.07,2.39,.17,3.58,.03,.41-.02,1.15,.24,1.48,4.3,5.4,9.5,10.04,15.36,13.69,2.87,1.79,5.89,3.33,9.01,4.62s6.48,2.63,9.84,2.85c1.94,.13,3.36-.77,3.79-2.76,.25-1.17,.1-2.52,.05-3.7-.01-.35,.21-2.15-.45-1.99-.28,.07-.07,4.02,.11,4.39l.16-.28v-4.12c-.4,.16-1.22-.33-1.64-.41-.87-.18-1.61-.61-2.45-.91-1.89-.69-3.84-1.15-5.75-1.79-3.65-1.21-7.18-2.76-10.53-4.64-6.83-3.82-12.88-8.95-17.75-15.07l.25,10.13c7.24,3.15,15.03,4.71,22.87,5.36,3.89,.33,7.8,.37,11.7,.33s8.17-.03,12.16-.69c.4-.07,.18-8.79-.22-8.84-1.9-.23-3.77-.72-5.66-1.02-1.76-.28-3.54-.48-5.32-.65-3.8-.37-7.62-.54-11.43-.76-7.4-.43-15.02-1-22.07-3.46l.2,8.05c.83,.02,1.69,.15,2.5,.13,.88-.03,1.63-.14,2.51,.05,1.54,.34,3.09,.7,4.6,1.14,3.31,.98,6.64,1.91,9.97,2.79,6.59,1.73,13.24,3.14,19.94,4.35l-.09-3.49c-7.53-.27-15.11-1.31-22.52-2.65-3.68-.66-7.34-1.4-10.97-2.27-1.86-.44-3.69-.95-5.54-1.41-.84-.21-1.68-.39-2.52-.6-1.07-.26-1.87-.49-2.96-.38l.04,1.54c1.8-.27,3.93,.22,5.66,.8,0,0,.01-.12,0-.12h0Z"/><path class="cls-1" d="M627.94,415.27c-.91,1.6,.56,3.18,1.9,3.92,1.63,.9,3.63,1.33,5.39,1.88,1.94,.6,3.89,1.16,5.85,1.68,3.91,1.04,7.86,1.91,11.84,2.63s7.93,2.23,11.98,2.89l-.19-7.87c-2.08-.18-4.12-.38-6.2-.42s-4.13-.1-6.2-.19c-4.13-.18-8.25-.35-12.38-.66-.19-.01-.11,4.56-.1,4.93,.01,.44-.09,4.85,.34,4.92,6.62,1.16,13.29,1.08,19.89-.19,.51-.1,.07-10.07-.25-10.1-7.25-.55-14.35-2.24-21.06-5.04l.25,10.1,18.88,4.17c.12,.03,.14-4.68,.13-5.06-.03-1.19-.07-2.38-.16-3.57-.02-.2-.02-1.43-.22-1.48-5.44-1.38-11.04-1.93-16.65-1.63-.33,.02-.15,4.66-.14,5.06,.03,1.19,.07,2.38,.16,3.57,.02,.28-.03,1.32,.22,1.48,6.64,4.26,15.19,4.03,22.77,4.57l26.51,1.9,15.11,1.08-.25-10.13c-21.92,5.58-44.36,9.08-66.94,10.4-3.23,.19-6.45,.34-9.68,.43-1.99,.06-4.63,.09-5.64-1.98l.25,10.15,63.41,.55,17.97,.16c.09,0,.16-10.16-.25-10.17l-63.45-2.24-17.99-.63,.25,10.19c2.76-.45,5.53-.86,8.29-1.35s5.59-1.87,8.25-2.87c5.35-2.02,11-3.38,16.52-4.93,.22-.06-.04-2.68-.07-2.68-5.51,.25-11.12,.74-16.63,.46-2.61-.13-5.48-.57-8.08-.21-2.85,.39-5.69,.93-8.53,1.39-.56,.09-.07,10.18,.25,10.19l63.45,2.22,17.99,.63-.25-10.17-63.41-.53-17.97-.15c-.35,0-.18,9.28,.25,10.15,.88,1.8,3.05,2.01,4.84,2,2.69-.02,5.38-.18,8.06-.32,5.65-.29,11.29-.72,16.91-1.28,11.25-1.12,22.45-2.79,33.54-4.98,6.34-1.25,12.64-2.69,18.9-4.28,.42-.11,.12-4.6,.1-5.07-.01-.41,0-5.03-.35-5.06l-26.75-1.91c-8.53-.61-17.13-.94-25.63-1.9-4.21-.48-8.4-1.41-12.01-3.72l.25,10.11c5.61-.3,11.2,.25,16.65,1.63l-.25-10.11-18.88-4.16c-.1-.02-.13,4.68-.12,5.06,.03,1.19,.07,2.38,.16,3.57,.02,.23,0,1.39,.21,1.48,6.72,2.79,13.81,4.48,21.06,5.03l-.25-10.1c-6.54,1.26-13.29,1.4-19.88,.43l.24,9.85c4.12,.2,8.25,.35,12.37,.26,1.98-.04,3.96-.11,5.94-.2,2.18-.1,4.27-.42,6.42-.78,.56-.09-.13-7.87-.19-7.87-3.32,.29-6.64,.95-9.99,1.08s-6.7-.37-9.94-.76-6.41-.83-9.59-1.41c-1.23-.22-8.47-1-7.24-3.5,.07-.14-.08-.41-.01-.54h0Z"/><path class="cls-1" d="M627.26,412.65c-.86,.2-1.78,.31-2.64,.07-.01,0,0,.57,0,.62,.53,7.23,7.83,12.04,13.96,14.38,6.99,2.68,14.49,3.45,21.85,4.54,2.08,.31,4.15,.64,6.21,1.05,.99,.2,1.98,.41,2.96,.64,.55,.13,1.12,.34,1.68,.42,.86,.13,1.15-.28,1.63-1.02l-.17-7.07c-1.49,1.14-3.39,2.25-5.29,2.4-1.78,.14-3.5-.03-5.27-.11,.02,0-.11,1.58,.04,1.66,1.64,.81,3.5,1.28,5.31,1.56s3.67,.93,5.39,1.56c.01,0,.1-3.26,.1-3.54-.02-1.01,.21-2.6-.27-3.53-.45-.88-.77-1.55-1.7-1.89-.52-.19-1.14-.25-1.68-.36-1.12-.22-2.25-.42-3.39-.6-2.28-.35-4.57-.62-6.86-.87-4.49-.48-9.01-.8-13.48-1.42s-8.63-1.39-12.8-2.69c-3.14-.98-7.64-1.7-8.2-5.69v.68c.8-.45,1.72-.63,2.63-.67,0,0,0-.12,0-.12h0Z"/><path class="cls-1" d="M640.6,419.34c-1.12-.29-2.21-.81-3.29-1.23-.6-.24-.96-.33-1.42-.82-.66-.7-1.11-1.55-1.91-2.08,.06,.04-.06,1.66-.05,1.83,.01,.54-.09,1.32,.14,1.83,.94,2.04,1.91,4.16,3.41,5.86,1.33,1.51,2.88,2.53,4.45,3.74,.05,.04,.15-1.67,.14-1.42,.03-1.14,.02-2.28-.01-3.42s-.07-2.28-.16-3.42c-.02-.29,.03-1.24-.21-1.41-1.07-.78-2.39-1.28-3.58-1.86l-3.13-1.53-6.71-3.27,.25,10.06c9.81,2.69,19.84,4.39,29.99,5.1,2.53,.18,5.06,.3,7.6,.26s5.09-.56,7.59-1.04,5.07-.97,7.57-1.56,5.15-1.17,7.54-2.17c.18-.08,.02-2.76-.07-2.78-2.49-.41-5.09-.44-7.61-.66s-5.1-.45-7.63-.8-5.08-.85-7.64-1-5.07-.26-7.61-.44c-10.12-.71-20.18-2.4-29.99-4.97-.08-.02-.14,4.66-.13,5.04,.03,1.19,.07,2.37,.16,3.56,.02,.24-.01,1.36,.21,1.47l6.71,3.19,3.13,1.49c1.14,.54,2.34,1.31,3.57,1.59l-.24-9.67c-1.49-.07-3.11-.88-4.4-1.59-1.15-.64-2.38-1.03-3.31-1.99l.09,3.66c.77,.04,1.15-.5,1.84-.73,.52-.17,.89,.03,1.4,.19,1.1,.36,2.24,.66,3.29,1.14-.01,0,.02-.12,0-.12h0Z"/><path class="cls-1" d="M657.24,440.09c-.8-.55-1.91-1.61-2-2.65s.41-1.04,1.28-.98c.74,.05,1.47,.06,2.22,.07,2.71,.02,5.42,.05,8.13,0,5.34-.08,10.67-.2,16.01-.36,10.75-.32,21.49-.83,32.23-1.55,21.36-1.44,42.7-3.31,63.97-5.69,11.93-1.33,23.91-2.28,35.85-3.57l-.2-8.29c-17.16,10.78-37.57,14.17-57.35,16.57-22.7,2.75-45.61,4.52-68.48,3.55-12.87-.55-25.7-1.99-38.32-4.59l.25,10.19c23.05,.9,46.13,.95,69.19,.14,23.05-.81,46.08-2.47,69.01-4.99,12.89-1.42,25.76-3.1,38.58-5.05l-.33-10.01c-1.58,5.46-9.54,5.52-14.04,5.99-7.67,.8-15.34,1.52-23.02,2.16-15.2,1.27-30.42,2.23-45.65,2.88-8.61,.37-17.23,.63-25.84,.8-.36,0-.3,10.18,.25,10.19,31.56,.82,63.17-.22,94.61-3.15,4.42-.41,8.84-.86,13.25-1.35,.98-.11,1.96-.22,2.94-.33,1.12-.13,2.37-.13,3.43-.54,1.14-.44,2.27-.88,3.41-1.33,.49-.19,.97-.38,1.46-.57,.65-.26,1.26-.68,1.94-.77,.42-.05-.13-6.24-.15-6.24-.89,.11-2.03-.29-2.96-.42-.99-.14-1.97-.28-2.96-.43-1.99-.29-3.9,.06-5.89,.28-3.92,.44-7.85,.85-11.78,1.23-7.86,.76-15.72,1.4-23.6,1.93-15.75,1.05-31.53,1.64-47.32,1.75-8.88,.06-17.76-.02-26.64-.26l.25,10.19c30.82-.61,61.62-2.48,92.29-5.61,3.47-.36,7.11-.48,10.48-1.47,2.7-.8,5.12-2.28,5.93-5.12,.25-.87-.03-10.05-.33-10.01-22.81,3.47-45.74,6.1-68.74,7.87-23,1.77-46.06,2.69-69.13,2.75-12.97,.03-25.94-.21-38.9-.71-.36-.01-.23,4.7-.22,5.1,.03,1.2,.07,2.4,.19,3.6,.02,.22,.04,1.44,.28,1.49,22.47,4.63,45.52,5.53,68.39,4.42,11.4-.55,22.78-1.64,34.11-2.98,10.28-1.22,20.59-2.55,30.67-4.95,11.11-2.65,21.86-6.88,30.94-13.92,.17-.13,.13-1.19,.13-1.22,.03-.98,.02-1.96,0-2.93,0-.3-.21-4.17-.33-4.14-10.32,2.35-20.7,4.65-31.13,6.48s-20.51,3.16-30.79,4.43c-20.81,2.57-41.68,4.29-62.6,5.61-5.82,.37-11.64,.69-17.47,.97s-11.84,.4-17.72,.97c-.02,0-.02,.13-.02,.12-.09,1.88,.43,3.56,2.23,4.48,0,0,0-.04,0-.05h0Z"/><path class="cls-1" d="M801.18,431.01c.02,.15-1.2-.04-.53-.36,.82-.4,2.37,1.1,2.98,1.51,1.93,1.29,3.93,2.48,5.98,3.59,4.21,2.29,8.6,4.23,13.03,6.06,9.01,3.73,18.49,6.85,26.72,12.18,2.5,1.62,4.96,3.31,7.22,5.25,2.39,2.06,4.68,4.21,7.01,6.32-.07-.06,.15-2.3,.15-2.41,.01-1.64-.04-3.28-.12-4.91-.09-1.9-.11-3.76-1.48-5.2-1.13-1.18-2.67-1.9-4.15-2.53-4.14-1.78-8.29-3.54-12.43-5.31-8.35-3.56-16.72-7.06-25.09-10.58l-14.27-6.01,.25,10.19c17.29,4.72,35.03,7.78,52.92,8.99,5.11,.34,10.23,.53,15.35,.58,.27,0,.13-4.71,.12-5.1-.03-1.2-.07-2.4-.16-3.6-.02-.2-.02-1.44-.21-1.49-15.83-3.64-32.04-5.5-48.29-5.53-.35,0-.34,10.18,.25,10.19,18.31,.31,36.62-.34,54.91-1.33,.31-.02,.11-10.18-.25-10.19-20.48-.42-40.93-2.51-61.07-6.27-1.44-.27-2.87-.57-4.31-.83-.49-.09-.99-.18-1.49-.14-.59,.05-.78,.38-1.27,.53-.1,.03-.8-.06-.87-.06-.29,0-.57,.03-.86,.04-.63,.02-1.27,.04-1.9,.03-1.27,0-2.55,.08-3.83,.04-.06,0-.21,3.87,.1,4.19,2.05,2.13,4.2,4,6.73,5.55,.22,.14,.6,.44,.88,.4,.12-.02,.24-.24,.37-.28,.44-.14,.74-.26,1.23-.25,1.1,.01,2.23,.36,3.31,.57,5.03,.97,10.08,1.83,15.14,2.6,10.13,1.52,20.32,2.63,30.54,3.31,5.84,.39,11.69,.64,17.54,.76l-.25-10.19c-18.28,.99-36.59,1.64-54.91,1.33l.25,10.19c16.25,.03,32.45,1.89,48.29,5.53l-.25-10.19c-17.93-.16-35.82-2.16-53.34-5.92-5.01-1.07-9.98-2.29-14.92-3.64-.11-.03-.17,4.72-.15,5.1,.03,1.2,.07,2.4,.17,3.6,.02,.24,0,1.39,.23,1.49,16.03,6.75,32.04,13.52,48.1,20.2,1.93,.8,3.95,1.5,5.78,2.51,.69,.38,1.37,.83,1.94,1.38,.3,.29,.59,.62,.8,.99,.27,.46,.39,1.56,.31,.27l-.03-8.31c-2.28-1.49-4.63-2.64-7.13-3.72s-4.88-2.27-7.38-3.29c-5.07-2.07-10.16-4.08-15.33-5.89-10.22-3.57-20.76-6.69-30.09-12.34-.68-.41-2.61-1.72-3.13-.32-.05,.13-.07,.59,0,.73,.26,.58,1.04,.55,.9-.12,0,.03,0,.09,0,.13h0Z"/><path class="cls-1" d="M893.09,431.87c.97,.04,1.58-.39,1.63-1.35,0-.12,0-1.4-.06-1.39-1.67,.23-3.32,.52-4.97,.87s-3.25,.47-4.87,.82c-3.19,.67-6.45,1.6-9.45,2.91-6.16,2.69-12.33,5.61-18.11,9.05-.25,.15-.24,1.39-.25,1.47-.07,1.17-.06,2.36-.03,3.52,.01,.37,.39,5.02,.52,4.97,12.43-5.01,24.86-10.02,37.27-15.09l-.25-10.19c-14,6.06-27.17,13.85-39.6,22.67-.28,.2-.28,1.34-.29,1.5-.09,1.19-.08,2.41-.05,3.61s.08,2.41,.22,3.6c.02,.14,.21,1.56,.36,1.48,3.43-1.7,6.83-3.48,10.17-5.36,.8-.45,1.61-.89,2.4-1.36,.93-.55,1.6-1.35,2.37-2.11,1.51-1.5,3.27-2.79,4.88-4.18,.81-.7,1.59-1.42,2.31-2.21,.75-.83,1.62-1.53,2.49-2.25,1.49-1.24,3.05-2.41,4.55-3.64s2.99-2.43,4.47-3.67,2.99-2.93,4.76-3.75c.21-.1-.11-1.42-.04-1.45-3.42,1.19-6.54,3.73-9.48,5.8-3.16,2.23-6.27,4.53-9.32,6.92-6.02,4.7-12.16,9.61-17.39,15.19-.3,.32,.17,2.73,.07,2.76,1.66-.62,3.14-2.23,4.05-3.71,.15-.24-.15-.86-.03-1.02-1.14,1.45-2.34,1.72-4.09,1.97l.07,2.76c2.88-2.46,5.58-5.12,8.43-7.62s5.92-5.08,8.96-7.51,6.03-4.7,9.13-6.94c3.22-2.32,6.74-4.42,9.63-7.15l-.04-1.45c-1.27,1.4-3,2.33-4.59,3.35s-3.09,1.97-4.68,2.88-3.03,1.77-4.57,2.57c-.75,.39-1.54,.76-2.32,.98-.87,.24-1.7,.46-2.54,.8-1.6,.63-3.26,1.42-4.94,1.81-.89,.2-1.58,.23-2.4,.68s-1.6,.91-2.4,1.36c-3.34,1.87-6.74,3.65-10.17,5.36l.25,10.19c12.43-8.82,25.6-16.61,39.6-22.67,.22-.1,.22-1.52,.22-1.5,.06-1.2,.05-2.41,.02-3.61-.01-.38-.41-5.12-.49-5.09-12.43,5.07-24.85,10.19-37.26,15.32l.24,9.96c6.1-3.69,11.87-7.91,18.05-11.49,3.16-1.83,6.24-3.84,9.38-5.71,1.52-.91,3-1.93,4.61-2.68,1.69-.79,3.42-1.53,5.15-2.23l-.06-1.27c-.03,1.06-.65,1.97-1.55,2.47,0,0,0,.05,0,.05h0Z"/><path class="cls-1" d="M841.57,428.57c-1.39-.14-2.77-.6-4.13-.92,0,0-.01,.24,0,.26,1.81,2.77,6.52,1.95,9.3,1.96,4.32,.01,8.64,.06,12.96,0l26.15-.41,7.22-.11c1.16-.02,2.33-.03,3.49-.05,1.41-.03,2.6-.39,3.97-.63,.01,0,0-.29,0-.29-1.11-.16-2.13-.48-3.25-.49s-2.16,.04-3.24,.06l-6.47,.14-12.95,.28c-8.72,.19-17.43,.38-26.14,.73-2.24,.09-4.49,.28-6.73,.25-1.6-.02-3.32-.28-4.3-1.68v.26c1.37,.24,2.81,.37,4.13,.78,0,0,.01-.12,0-.12h0Z"/><path class="cls-1" d="M902,429.7c-1.91,1-4.09,1.63-6.09,2.41s-4.06,1.58-6.08,2.42c-3.89,1.63-7.77,3.28-11.64,4.96-7.93,3.45-15.73,7.2-23.5,11-.05,.03,.03,.33,0,.34,7.8-3.61,15.67-7.05,23.51-10.57,3.87-1.74,7.75-3.45,11.64-5.13,1.96-.85,3.9-1.73,5.84-2.59,2.05-.91,4.16-2.07,6.31-2.71,.02,0-.01-.12,0-.12h0Z"/><path class="cls-1" d="M859.89,439.37c.97-.49,4.79-1.51,4.66,.65-.07,1.23-1.87,1.75-2.82,2.11-1.39,.53-2.81,1.01-4.24,1.44-2.73,.82-5.52,1.46-8.34,1.92-1.5,.24-2.97,.42-4.5,.38-.71-.02-1.36-.16-2.05-.33-.33-.08-.85-.11-1.14-.3-.63-.4-.57-1.17-1.4-1.28-.24-.03-.19,3.58-.19,3.87,.03,.91,.06,1.82,.15,2.73,.02,.19,.02,1.06,.23,1.13,3.69,1.2,7.64,1.65,11.43,2.51s7.52,1.7,11.24,2.74l-.25-10.01c-4.67-.83-9.35-1.61-14.04-2.38-2.17-.36-4.36-.67-6.52-1.09-.83-.16-1.67-.35-2.44-.72-.29-.14-.84-.67-1.16-.64-.38,.04-.36,.43-.79,.3l.14,4.06c.19-1.2,.65-2.43,1.96-2.71,.13-.03,.11-2.19-.06-2.24-2.8-.9-2.28,3.41-2.21,4.83,.08,1.78,.22,4.03,1.15,5.6,.65,1.11,2.31,1.44,3.47,1.67,6.85,1.35,13.83,2.29,20.74,3.34,.31,.05,.27-4.64,.26-5.02-.03-1.18-.07-2.36-.2-3.54-.02-.23-.04-1.39-.3-1.46-3.7-.94-7.44-1.8-11.23-2.32s-7.65-1.14-11.38-.65l.19,7.73c.81-.21,.74-.99,1.33-1.47,.34-.28,.94-.41,1.35-.6,.88-.41,1.76-.68,2.7-.95,1.77-.52,3.58-.86,5.36-1.36,3.49-.99,6.88-2.31,10.14-3.9,1.55-.75,3.97-1.72,3.5-3.87-.44-2.03-3.63-.88-4.75-.23,0,0,0,.05,0,.05h0Z"/><path class="cls-1" d="M811.03,416.59c2.17,1.03,3.77-.82,5.83-1.16,.53-.09,1.07-.09,1.57,.12,.67,.29,.55,.55,.97,1.15,.3-2.07,.19-2.66-.33-1.76l-.16,.13c-.38,.05-.48,.13-.86-.08l.1,3.94h6.08c.93,0,1.81,.09,2.74-.03,1.11-.14,2.23-.24,3.34-.36l11.83-1.29c8-.87,15.97-1.92,23.96-2.83,15.91-1.8,31.76-4.22,47.6-6.49l26.98-3.86-.25-10.12c-34.16,7.06-68.27,14.31-102.41,21.49l-28.75,6.04c-.72,.15-.43,4.54-.41,5.11,.01,.4,.15,5.16,.66,5.08,22.34-3.15,44.59-6.9,66.73-11.25,6.25-1.23,12.5-2.51,18.73-3.83l-.25-10.19c-12.86,2.86-26.43,1.92-39.52,1.9-3.47,0-6.94,.1-10.41,.17-1.67,.04-3.25,.39-4.88,.71s-3.51,.54-5.18,1.01c-3.18,.89-6.75,1.19-10.06,1.75-.87,.15-1.55,.35-2.44,.37-.82,.02-1.63,.06-2.45,.09-1.84,.07-3.67,.11-5.51,.2-3.86,.18-7.76,.32-11.63,.36-1.88,.02-3.78-.91-5.55-1.49l-3.09-1.02c-.96-.32-2.12-.96-3.09-.98l.19,7.68c3.4-.17,6.85-.17,10.24-.45s6.63-.69,9.94-1c6.73-.64,13.47-1.21,20.21-1.72,13.29-1.02,26.6-1.7,39.93-2.06,7.67-.21,15.34-.34,23.02-.36,.39,0,.45-10.07-.25-10.1-22.61-.99-45.26-.91-67.87,.26-22.6,1.17-45.15,3.41-67.53,6.72-12.62,1.87-25.2,4.08-37.7,6.62-.59,.12-.3,4.55-.29,5.07,.01,.38,.18,5.11,.54,5.05,39.58-6.57,79.39-11.79,119.32-15.64,20.07-1.94,40.17-3.53,60.3-4.77,9.86-.61,19.73-1.14,29.6-1.58,5.03-.23,10.1-.24,15.11-.66s10.05-.89,15.1-1.18c11.28-.63,22.55-1.44,33.84-1.86,5.64-.21,11.28-.38,16.92-.54s11.3-.53,16.92-.47c.08,0,.08-4.09-.1-4.1-5.04-.05-10.09-.47-15.13-.62s-10.09-.28-15.13-.39c-10.09-.22-20.18-.64-30.27-.68s-20.18-.38-30.25,.03c-9.87,.4-19.74,.89-29.6,1.46-40.06,2.32-80.03,6-119.84,11.05-22.4,2.84-44.75,6.12-67.03,9.82l.25,10.12c22.18-4.51,44.57-7.97,67.07-10.35,22.51-2.38,45.12-3.69,67.75-3.92,12.76-.13,25.52,.09,38.27,.65l-.25-10.1c-26.85,.06-53.75,1.42-80.43,4.41-3.82,.43-7.63,.88-11.44,1.37s-7.63,1.44-11.4,2.24c-.68,.14-.14,7.68,.19,7.68,.84-.01,1.62-.5,2.43-.77l2.43-.81c1.79-.59,3.63-1.41,5.47-1.81,1.5-.33,3.37,.03,4.9,.07,1.74,.05,3.47,.11,5.21,.15,3.47,.08,6.95,.28,10.42,.4s6.83,1.08,10.14,1.65c.87,.15,1.64,.2,2.46,.46,.78,.25,1.66,.33,2.46,.48l5.54,1.09c3.24,.64,6.82,.34,10.11,.41,6.76,.15,13.54,.08,20.31,.05,7.37-.03,14.75-.31,21.97-1.92,.59-.13,.29-4.58,.28-5.11-.01-.37-.23-5.15-.53-5.09-22.07,4.69-44.26,8.78-66.55,12.27-6.3,.99-12.6,1.92-18.91,2.81l.25,10.19,102.4-21.52c9.58-2.01,19.17-4.03,28.74-6.08,.49-.1,.2-4.59,.19-5.07-.01-.37-.18-5.09-.44-5.05-31.86,4.78-63.78,9.3-95.46,15.14l-13.33,2.46c-2.21,.41-4.54,.67-6.66,1.4-2.27,.79-4.64,1.36-6.95,2.04-.3,.09-.19,3.86,.1,3.94,1.94,.49,1.74-4.44,1.26-5.37-.69-1.35-2.66-.29-3.49,.31-1.5,1.09-2.83,2.96-4.9,2.67,0,0,0,.05,0,.05h0Z"/><path class="cls-1" d="M981.92,403.12c-1.78,.29-3.68,.21-5.49,.28l-5.99,.23-11.48,.45-22.96,.89-45.91,1.79c-30.61,1.19-61.22,2.35-91.82,3.61l-51.4,2.12s0,.1,0,.1c30.61-1.18,61.22-2.33,91.82-3.58l91.82-3.74,25.45-1.04,12.97-.53,6.49-.26c2.13-.09,4.36-.38,6.49-.2v-.12h0Z"/><path class="cls-1" d="M619.79,399.96c33.72,2.05,67.49,2.93,101.27,2.65,33.6-.27,67.18-1.65,100.69-4.12,18.89-1.39,37.76-3.15,56.53-5.68,.02,0,0-.34,0-.34-33.63,3.05-67.24,6.14-100.98,7.77-33.56,1.62-67.17,2.15-100.76,1.57-18.92-.33-37.84-.93-56.74-1.89,0,0,0,.05,0,.05h0Z"/><path class="cls-1" d="M621.14,396.78c.22-1.17-1.68-.96-1.88,0-.56,2.71,7.14,2.56,8.4,2.68,11.83,1.12,23.75,1.25,35.63,1.13,23.84-.25,47.68-1.37,71.5-2.16,24.03-.8,48.06-1.7,72.09-2.56l71.75-2.58c24.03-.87,48.07-1.71,72.08-3.02l8.84-.48s0-.44-.01-.44c-22.68,.4-45.35,1.05-68.02,1.86l-68.01,2.45-68.35,2.46c-22.67,.82-45.33,1.74-68,2.62-11.21,.44-22.42,.92-33.65,.99-5.6,.04-11.21-.03-16.8-.24-2.8-.11-5.59-.24-8.39-.4-2.37-.14-5.24,.08-7.5-.69-.85-.29-2.09-1.38-1.02-2.19,.36-.27,1.61-.36,1.34,.45-.01,.04,.01,.09,0,.12h0Z"/><path class="cls-1" d="M656.27,406.31c-3.5-1.99-7.59-2.35-11.38-.97-.08,.03-.02,1.07,.03,1.07,14.7,1.83,29.52,1.91,44.31,2.11,7.47,.1,14.94-.08,22.41-.14,7.3-.05,14.61-.03,21.91-.1,14.77-.15,29.54-.36,44.31-.61s29.13-.37,43.64-1.38c8.16-.57,16.32-1.73,24.35-3.24s16.28-3.15,24.17-5.71c.13-.04-.04-1.8-.04-1.8-7.29,.08-14.57,.51-21.86,.65s-14.32,.25-21.48,.34c-7.34,.09-14.68,.66-22.01,.98-7.17,.31-14.35,.55-21.53,.85-29.53,1.24-59.04,2.77-88.55,4.32-16.54,.86-33.08,3.07-49.67,2.65l.03,1.07c3.58-1.72,7.76-1.75,11.35-.05,0,0,0-.04,0-.05h0Z"/><path class="cls-1" d="M816.66,402.81l-43.07,4.01s0,.37,0,.37c36.3-2.72,72.62-4.74,108.99-6.33s71.21-3.03,106.79-1.39c19.99,.92,39.94,2.94,59.62,6.56l-.07-2.78c-25.7-.67-51.4-.36-77.09,.47-25.69,.83-51.37,2.02-77.05,3.12-14.44,.62-28.87,1.3-43.31,1.91l.15,6.23c5.39-.25,10.79-.3,16.17-.58s10.78-.52,16.17-.86l32.33-2.04,64.93-4.09c12.14-.77,24.29-1.63,36.44-2.23l-.25-9.99c-16.66,4.71-34.26,2.38-51.31,2.05-17.99-.35-35.99,.04-53.94,1.17-10.12,.64-20.36,1.23-30.41,2.65l.25,10.16,3.85-2.54,1.8-1.18c.68-.45,1.29-1.09,2.05-1.35,.29-.1,.09-2.44,.08-2.73,0-.21-.2-2.73-.22-2.73-.66,.23-1.36,.07-2.08,.1l-1.82,.09-3.91,.19c-.5,.02-.01,10.18,.25,10.16,9.06-.72,18.08-1.79,27.15-2.41,8.88-.61,17.78-1.03,26.68-1.28s18.17-.31,27.25-.18c8.71,.12,17.41,.57,26.12,.79,9.53,.24,19.31,.03,28.46-2.95,.35-.12,.02-4.54,0-5,0-.36-.16-5-.25-4.99-21.52,1.96-43.09,3.41-64.63,5.09l-64.91,5.05c-6.03,.47-12.05,1-18.07,1.54s-12.22,1.32-18.34,1.9c-.4,.04,.02,6.24,.15,6.23,25.63-2.29,51.28-4.49,76.96-6.05,25.66-1.56,51.35-2.59,77.06-2.93,14.45-.2,28.9-.19,43.35,.04-.09,0,.05-2.76-.07-2.78-35.07-6.09-70.79-7.01-106.3-6.23-35.94,.8-71.87,2.85-107.74,5.25-20.44,1.37-40.88,2.86-61.3,4.54v.37l43.07-4.33v-.05h0Z"/><path class="cls-1" d="M1006.82,396.95c9.17,.88,18.49,.63,27.67,0,4.51-.31,9-.95,13.52-1.05s9.28-.36,13.91-.76l-.16-6.33c-1.44,.44-2.95,.76-4.36,1.27s-2.91,1.14-4.35,1.71c-2.99,1.17-5.97,2.37-8.93,3.6-2.64,1.1-5.29,2.45-8.03,3.26-2.09,.62-4.53,.85-5.66-1.4l.13,9.73c9.47-.25,18.85-1.92,27.8-5.03,.26-.09,.28-1.49,.28-1.49,.08-1.19,.08-2.4,.04-3.59-.01-.38-.2-5.14-.58-5.07-6.83,1.31-13.27,4.05-18.95,8.06-.28,.2-.27,1.34-.29,1.5-.08,1.19-.08,2.41-.04,3.6,.01,.45,.01,5.07,.58,5.08l4.42,.08c1.3,.02,3.31,.45,4.41-.22l-.24-9.59c-1.12,.98-2.24,1.96-3.31,3-.59,.57-.89,.52-1.68,.59-.57,.05-1.12,.07-1.69,.06-2.17-.05-4.35-.22-6.51-.43-4.4-.43-8.79-1.14-13.12-2.07-.02,0-.2,2.6,.07,2.88,1.93,1.95,4.63,2.44,7.28,2.49,3.31,.07,6.66-.26,9.96-.57,7.16-.66,14.16-2.37,21.05-4.39,.09-.03-.02-.83-.02-.83-6.99,1.13-14.06,1.69-21.1,2.35-3.29,.31-6.65,.63-9.96,.57-2.64-.05-5.35-.54-7.28-2.49l.07,2.88c4.33,.92,8.7,1.54,13.12,1.84,2.17,.15,4.33,.2,6.5,.24,.49,0,.96,.03,1.45,.07,.84,.07,1.31,.01,1.95,.6,1.1,1,2.26,1.91,3.45,2.81,.15,.11,.31-1.68,.29-1.41,.09-1.12,.08-2.27,.05-3.39s-.08-2.26-.22-3.39c-.04-.34-.04-1.19-.36-1.4-1.1-.69-3.12-.36-4.43-.38l-4.42-.08,.25,10.18c5.67-4.02,12.12-6.77,18.95-8.08l-.25-10.15c-8.96,3.12-18.32,4.92-27.8,5.28-.61,.02-.41,9.09,.24,9.9,1.21,1.5,3.82,1.1,5.42,.61,2.79-.85,5.46-2.36,8.12-3.56,2.91-1.32,5.81-2.68,8.69-4.06l4.57-2.19c1.57-.75,3.05-1.77,4.56-2.63,.5-.28,.23-2.68,.22-3.17,0-.23-.21-3.21-.37-3.16-4.57,1.52-9.17,2.91-13.82,4.15-4.4,1.17-8.97,1.57-13.5,1.99-9.21,.85-18.41,.91-27.65,.98-.05,0-.07,1.02,.03,1.02h0Z"/><path class="cls-1" d="M1052.39,402.26l-2.68-1.66c-1.94-1.2-2.83-1.98-3.42-4.6l-.09,5.6c.53,.89,.64,1.1,1.73,1.13,.63,.02,1.24-.16,1.84-.29,1.47-.32,2.92-.68,4.37-1.09,2.6-.72,5.19-1.46,7.78-2.22,5.34-1.56,10.64-3.27,15.92-5.04,10.56-3.54,21.03-7.38,31.37-11.51,2.97-1.19,6.19-2.18,8.83-3.99,3.03-2.08,6.56-4.2,8.7-7.22,.17-.24,.19-2.26-.06-2.39-2.22-1.11-5.6-.22-7.98,.14-1.25,.19-2.37,.37-3.54,.85-1.32,.55-2.65,1.09-3.98,1.62-5.17,2.09-10.36,4.1-15.58,6.04-10.45,3.88-21.03,7.37-31.64,10.78-3.04,.98-6.09,1.93-9.14,2.85-1.54,.47-3.07,.92-4.59,1.44-.68,.24-1.41,.43-2.07,.73-1.19,.54-1.63,1.09-2.11,2.26-.43,1.05-.17,2.66-.11,3.77,.03,.55-.04,1.33,.18,1.83,.06,.12,.06,.58,.23,.3,.95-1.49,.68-1.98,1.92-1.54,.51,.18,.97,.5,1.44,.76l2.68,1.49s0-.04,0-.05h0Z"/><path class="cls-1" d="M1129.54,371.73c-.19,.76,1.02,.51,1.06-.09,.13-1.93-5.32,.18-6,.37-7.37,2.14-14.65,4.6-21.85,7.25-14.54,5.34-28.62,12.06-42.21,19.45-3.88,2.11-7.7,4.31-11.46,6.62-1.85,1.14-3.65,2.35-5.44,3.57-2,1.36-4.05,2.67-5.76,4.4-.07,.07,0,.69,.02,.68,1.52-.43,2.88-1.26,4.24-2.03,1.55-.88,3.1-1.74,4.66-2.6,3.04-1.66,6.03-3.42,9.04-5.14,6.07-3.49,12.24-6.8,18.49-9.95,12.42-6.24,25.12-11.92,38.04-17.05,3.7-1.47,7.43-2.87,11.17-4.25,1.73-.64,3.58-1.55,5.39-1.9,.42-.08,2-.14,1.57,.79-.14,.31-1.21,.46-.95,0,.02-.03-.01-.1,0-.12h0Z"/><path class="cls-1" d="M1053.4,402.19c-.95,.09-1.84,.38-2.61,.96-.37,.28-.61,.73-.96,.99-.1,.35-.32,.42-.66,.19l-.47-.12c-2.36-.58-4.67-1.08-7.08-1.4-4.82-.63-9.64-.96-14.5-.97-9.68-.04-19.11,1.21-28.59,3.08-.22,.04,0,1.94,.05,1.93,9.89-1.48,19.87-1.64,29.75,.02,9.84,1.66,19.37,4.87,28.12,9.68,4.82,2.64,9.44,5.49,13.83,8.8-.08-.06,.13-.69-.02-.83-14.65-13.82-34.96-21.03-54.97-21.26-5.65-.06-11.25,.42-16.76,1.66l.05,1.93c8.27-2.09,16.97-3.02,25.48-3.25,4.29-.12,8.57,0,12.85,.25,2.06,.12,4.11,.29,6.16,.5,2.19,.23,4.4,.28,6.58,.56h0c.82-1.44,2.11-2.38,3.73-2.68,0,0,0-.05,0-.05h0Z"/><path class="cls-1" d="M1047.64,406.99c-1.41-1.13,1.5-2.21,2.06-2.42,1.23-.45,2.45-.93,3.67-1.42l7.1-2.83,7.1-2.83c2.35-.94,4.84-2.3,7.34-2.72l-.03-1.25c-3.65,.65-6.99,2.94-9.7,5.39-1.37,1.23-2.64,2.58-3.78,4.03-.9,1.14-1.95,2.36-2.23,3.84-.16,.9-.34,7.3,2.1,5.14,.61-.54,.82-1.76,1-2.48,.2-.86,.33-1.73,.37-2.6,.06-1.25-.04-2.46-.35-3.67h0c-2.57,1.08-3.25,3.89-3,6.44,.16,1.6,.83,3,1.75,4.3,1.41,1.98,2.97,3.79,4.7,5.48l-.1-3.91c-.63-.43-1.3-.84-1.83-1.39-.5-.51-.88-1.15-1.39-1.65-.88-.86-1.9-1.5-2.97-2.06-.94-.49-1.9-.96-2.82-1.48-.68-.38-1.58-.83-1.72-1.67l.31,2.96-.02-.38-.02,4.84c.05-.77,.6-1.8,.95-2.52,.53-1.11,1.18-2.16,1.93-3.14,1.32-1.71,2.92-3.21,4.61-4.55,3.88-3.09,8.32-5.47,12.72-7.72,4.88-2.5,9.88-4.75,14.9-6.95,2.68-1.17,5.39-2.27,7.97-3.64s5.17-2.89,7.71-4.42c5.98-3.6,11.99-7.04,18.15-10.32,.43-.23-.19-2.89-.07-2.93-3.33,1.12-6.66,2.33-10.04,3.3s-6.7,1.81-10.05,2.71c-6.78,1.83-13.12,4.71-19.5,7.61-6.1,2.78-12.21,5.71-17.89,9.3-4.61,2.92-9.13,6.63-11.26,11.8-.89,2.16-1.11,4.34-1.12,6.66-.01,1.97,.02,4.05,.39,5.99,.14,.74,.31,1.42,.85,1.98,1.06,1.09,3.06,1.29,4.46,1.71,.85,.26,1.81,.47,2.71,.3,.46-.09,.87-.43,1.34-.53,.6-.12,1.21,.02,1.8,.1,.03,0,.42-3.71-.1-3.91-1.49-.57-3.28-1.22-4.39-2.41-1.53-1.64-2.32-3.96-1.67-6.15,.24-.8,.63-1.57,1.21-2.19,.27-.29,.6-.61,.95-.79,1.35-.67,.8,2.46,.57,3.28-.27,.91-1.63,2.99-2.73,1.73-.11-.15-.19-.31-.25-.49-.07,1.24-.06,1.56,.04,.98,.14-.29,.16-.66,.29-.97,.38-.85,1.03-1.62,1.59-2.37,1.2-1.59,2.55-3.08,4.02-4.43,2.95-2.72,6.33-4.7,9.67-6.9,.23-.15-.14-1.18-.03-1.25-1.41,.91-3.02,1.46-4.57,2.1l-4.58,1.9-9.16,3.79-4.58,1.9c-1.24,.51-2.83,.96-3.87,1.84-.56,.48-1.27,1.44-.47,2,0,0,0-.04,0-.05h0Z"/><path class="cls-1" d="M1127.32,373.03c-1.96,.75-4.14,1.1-6.18,1.62s-4.11,1.06-6.17,1.61c-4.11,1.09-8.2,2.22-12.29,3.38-8.17,2.33-16.31,4.8-24.39,7.41-.01,0,0,.1,0,.1,8.09-2.62,16.22-5.11,24.39-7.45,4.09-1.17,8.18-2.31,12.29-3.41,2.05-.55,4.11-1.09,6.17-1.62s4.12-1.26,6.18-1.51c.01,0,0-.12,0-.12h0Z"/><path class="cls-1" d="M877.29,442.7c.9-.31,1.46-.73,1.52-1.71,0-.03-.02-.32-.02-.32-5,3.05-9.49,6.84-13.4,11.2-1.91,2.13-3.95,4.42-5.34,6.93-.74,1.33-1.54,3.78-.38,5.13-.02-.02,.06-.49,0-.61-1.15-2.43,1.55-5.26,2.94-7.09,1.56-2.05,3.24-4,5.03-5.85,3.37-3.48,7.15-6.59,11.16-9.32l-.02-.32c-.04,.87-.58,1.75-1.49,1.85-.02,0,0,.13,0,.12h0Z"/><path class="cls-1" d="M861.11,459.77c10.32-8.68,20.1-17.99,30.37-26.73,.08-.06-.05-.36,0-.39-10.52,8.52-21.01,17.27-30.36,27.07,0,0,0,.05,0,.05h0Z"/><path class="cls-1" d="M511.66,416.08c.51-.35,1.06-1,1.56-.38,.27,.34,.42,.96,.65,1.34,.55,.95,1.22,1.84,1.96,2.65,1.28,1.39,2.77,2.54,4.4,3.49,3.73,2.18,7.94,3.37,12.14,4.23,10.45,2.12,21.14,2.31,31.66,.57,6.01-.99,11.9-2.71,17.56-4.93,.08-.03-.02-.49-.01-.49-9.69,3.35-20,5.1-30.26,5.14-5.16,.02-10.3-.26-15.4-1.05-4.43-.68-8.89-1.6-13.01-3.4s-7.76-4.58-9.9-8.7h0l-1.34,1.47s0,.05,0,.05h0Z"/><path class="cls-1" d="M516.97,413.61c.86,5.62,6.29,8.8,11.19,10.6,7.13,2.61,14.81,3.94,22.37,4.43,15.5,.99,31.22-.74,46.53-3.04,4.34-.65,8.67-1.45,12.95-2.42,4.55-1.04,8.91-2.48,13.31-4.04,.16-.06,.01-1.27-.03-1.27-1.9,.21-3.83,.27-5.72,.51-1.99,.25-3.98,.61-5.97,.89-3.84,.54-7.67,1.22-11.5,1.85-7.78,1.28-15.57,2.46-23.4,3.43-14.72,1.82-30,2.89-44.6-.43-5.82-1.32-13.86-3.71-15.12-10.54,0,0,0,.03,0,.04h0Z"/><path class="cls-1" d="M516.26,411.65c-.9-.8-1.75-1.77-2.51-2.71h0c-1.35,2.87,.02,6.58,1.98,8.78,3.5,3.94,8.93,4.17,13.82,3.68,5.82-.58,11.62-1.5,17.42-2.27s11.84-1.62,17.75-2.52c6.74-1.02,13.47-2.07,20.2-3.14,.06,0,0-.54-.01-.54-11.02,1.2-22.06,2.36-33.05,3.84l-16.52,2.23c-4.93,.67-10.19,1.73-15.06,.19-2.3-.73-4.32-2.2-5.64-4.24-.81-1.25-1.31-2.66-1.21-4.17,.01-.17,.08-1.05,.22-1.15,.46-.36,.76,.21,1.05,.5,.53,.53,1.08,1.05,1.56,1.63-.02-.02,.02-.1,0-.12h0Z"/><path class="cls-1" d="M541.74,431.91c-.77-.13-1.55-.29-2.33-.34-.02,0-.08,.85,.02,.87,5.26,1.34,11.09,.93,16.43,.36s10.96-1.6,16.43-2.42c11.14-1.67,22.32-2.96,33.56-3.68,5.37-.34,11.18-1.16,16.22,1.2l-.04-1.51c-1.51,1.03-3.15,1.88-4.73,2.79-.08,.05,.04,.52,.01,.54,1.57-.62,3.13-1.34,4.75-1.81,.12-.04,.08-1.41-.04-1.51-3.74-3.3-9.45-2.35-14.02-2.07-5.58,.35-11.15,.83-16.71,1.44-5.56,.61-11.11,1.34-16.63,2.27s-11.1,2.11-16.68,2.95c-3.05,.46-6.12,.82-9.2,.94s-6.25-.15-9.4-.35l.02,.87c.78-.1,1.54-.3,2.31-.48v-.05h0Z"/><path class="cls-1" d="M527.27,417.86c-.57-2.44-3.03-4.06-5.51-3.52-.03,0,0,.26,0,.29,1.04,4.4,5.89,6.1,9.82,6.98,5.71,1.28,11.61,1.26,17.43,1.1,11.58-.31,23.35-1.63,34.6-4.48,6.48-1.65,12.78-3.74,18.98-6.25,.07-.03-.03-.48-.01-.49-10.86,3.51-22.09,6.31-33.37,8.1-5.68,.9-11.41,1.52-17.15,1.85s-11.52,.51-17.23-.11c-4.57-.5-11.73-1.59-13.05-6.97v.29c2.39-.61,4.91,.83,5.5,3.26,0,0,0-.03,0-.04h0Z"/><path class="cls-3" d="M352.26,397.2c-.33-.2-.65-.28-.99-.42-1.27-.53-1.53-1.17-2.6-2.45-.45-.53-.65,3.08-.65,3.38s-.05,4.53,.69,4.57c.67,.04,.96,.08,1.61-.15,.55-.2,1.08-.42,1.62-.65,.95-.4,1.9-.79,2.86-1.16,2-.77,4.03-1.49,6.07-2.15s4.23-1.25,6.21-2.33c2.13-1.16,4.95-2.1,6.09-4.36,.26-.52,.26-2.24-.07-2.73-1.3-1.91-4.15-1.75-6.25-1.86-2.26-.12-4.34,.58-6.45,1.3s-4.21,1.55-6.26,2.49c-.96,.44-1.91,.89-2.85,1.37-1.23,.63-2.02,1.28-2.94,2.28l.8,5.93,.09-1.44-.16,.99c.35-.8,.86-1.74,1.47-2.37,.51-.54,1.01-.47,1.71-.2,0,0,0-.04,0-.05h0Z"/><path class="cls-3" d="M364.44,392.82c-.07,.23-.23,.44-.33,.67-.13,.3-.21,.61-.26,.93-.17,1.14-.23,2.3-.22,3.45,.02,2.67,.27,5.46,1.37,7.93,.65,1.47,1.65,2.73,3.28,3.06,.69,.14,1.38,.11,2.07-.04,.75-.16,1.47-.25,2.18-.57,1.54-.68,2.87-1.67,3.52-3.27,.1-.24,.05-.59,.04-.84,0-.07-.07-.54-.11-.47-.53,.96-1.58,1.72-2.69,1.82-1.3,.12-2.68-.32-3.77-.99-1.22-.75-2.34-1.64-3.25-2.76-.51-.63-.98-1.3-1.34-2.03-.13-.28-.26-.57-.35-.86-.06-.18-.11-.36-.16-.54-.02-.08-.15-.61-.09-.34-.03-.13-.1-.7-.06-.29,0-.08-.02-.17-.03-.25-.04-.32,.03,.53,0-.04,0-.05-.02-.34,0-.06,.02,.33,0-.25,0-.26,0,.34,0-.19,0-.25,.03-1.25,.03-2.62,.21-3.89,0-.02,0-.12-.01-.1h0Z"/><path class="cls-3" d="M385.51,391.8c3.13,1.18,6.3,2.25,9.29,3.77s5.68,3.08,8.33,4.88c-.03-.02,.06-.33,0-.39-2.54-2.3-5.25-4.23-8.35-5.7s-6.03-2.6-9.27-3c-.02,0-.06,.41,.01,.44h0Z"/><path class="cls-3" d="M369.2,393.03c.19-.62,.55-1.22,.83-1.81,.25-.54,.5-1.08,.77-1.6l-.09-.16c.36,1.84,1.06,3.75,2.19,5.27,.97,1.3,2.25,2.52,3.87,2.91,.03,0,.05-.57-.02-.63-2.5-2.51-4.89-5.12-5.97-8.57,0,.01-.04-.15-.07-.06-.24,.78-.51,1.54-.77,2.32l-.35,1.06c-.13,.38-.22,.82-.42,1.17-.02,.03,0,.13,0,.11h0Z"/><path class="cls-3" d="M348.41,395.19c7.18-2.81,14.78-4.78,22.43-5.68,3.47-.41,7.18-.86,10.67-.47,2.35,.26,5.97,1.19,6.23,4.03,.02,.2,.04-.07,.04-.13-.42-6.63-10.65-5.06-14.88-4.64-8.5,.84-16.71,3-24.5,6.5-.08,.03,0,.39,0,.39h0Z"/><path class="cls-3" d="M383.88,389.64c2.15,2.17,5.36,3.11,8.34,2.42,.02,0,0-.15,0-.15-2.96,.72-6.18-.17-8.33-2.32,0,0,0,.04,0,.05h0Z"/><path class="cls-3" d="M516.75,406.7c.98-.76,2.26-1.21,2.38-2.63,.08-.9-.16-1.7-.88-2.27s-1.42-1.04-2.33-1.3c-.69-.2-1.66-.48-2.36-.35-1.35,.27-2.62,1.2-3.37,2.33-1.14,1.71-1.41,3.75-1.51,5.76-.15,3.25-.16,6.81,.81,9.95,.47,1.52,1.3,2.88,2.38,4.05s2.43,1.55,3.94,1.73c4.57,.53,9.54-1.47,13.53-3.49,.24-.12,.05-1.77-.04-1.76-3.11,.44-6.22,.52-9.25-.42s-5.36-2.82-7.46-5.12c-.88-.97-1.78-1.81-2.4-2.98-.24-.45-.46-.94-.61-1.43-.04-.13-.05-.26-.09-.39,.22,.69,.16,4.52,.11,2.81l.07,2.58v.16c.03-.12,.04-.26,.07-.38,.77-2.63,2.63-4.59,4.32-6.64,.7-.85,1.34-1.7,2.09-2.51,.43-.46,1.35-1.77,2.01-1.78,.9-.02,.96,1.39,.68,1.94-.41,.81-1.27,1.63-2.1,2.02-.03,.01,.01,.12,0,.12h0Z"/><path class="cls-3" d="M521.83,400.25c-.3,0-.62-.21-.91-.3-.31-.1-.62-.17-.93-.23-.34-.06-.62-.09-.94-.22-.3-.12-.63-.21-.95-.29-.3-.08-.55-.14-.86-.14-.18,0-.29,0-.46-.06-.14-.05-.24-.11-.39-.13-.08,0-.17-.02-.25-.02-.09-.05-.17-.1-.25-.16-.1-.02-.27,.04-.37,.06-.28,.06-.55,.13-.83,.21-.59,.19-.99,.59-1.41,1.04-.53,.57-.8,1.16-1.08,1.87-.64,1.57-1.02,3.29-1.02,5,0,.11,.09,.73,.1,.72,.15-.32,.22-.66,.4-.97,.12-.2,.26-.25,.41-.41,.14-.14,.25-.28,.42-.38,.23-.15,.4-.22,.58-.42s.36-.39,.56-.57c.49-.46,.96-.91,1.44-1.38,.25-.24,.51-.46,.77-.69,.29-.27,.52-.6,.8-.89,.15-.16,.26-.34,.44-.47,.12-.09,.26-.16,.39-.23,.3-.16,.56-.37,.85-.54,.28-.16,.57-.32,.86-.45s.55-.12,.87-.12c.52,0,1.34-.02,1.77,.3,0,0,.02-.13,0-.12h0Z"/><path class="cls-3" d="M510.81,408.74c-.23,.26-.63,.3-.89,.05-.58-.55-.11-1,.36-1.35,.92-.7,1.89-1.33,2.81-2.03,1.95-1.47,3.82-3.06,5.72-4.59,3.82-3.07,7.63-6.14,11.45-9.21,.09-.07-.05-.41-.01-.44-4.2,3.1-8.41,6.19-12.61,9.29-2.1,1.55-4.2,3.08-6.22,4.73-1.14,.93-2.2,1.82-1.95,3.41,0,0,.01,.1,.04,.11,.5,.11,.87,.7,1.32,.08,0,0,0-.05,0-.05h0Z"/><path class="cls-3" d="M515.91,422.87c-2.9-2.38-6.61-5.62-7.24-9.47-.15-.94-.27-.39-.31,.21-.06,.95-.05,1.99,.13,2.92,.51,2.64,2.16,4.99,3.64,7.2,1.32,1.96,2.75,3.85,4.35,5.59,3.21,3.52,7.29,7.06,11.88,8.59,5.39,1.79,11.25,1.53,16.86,1.67,5.88,.15,11.76,.16,17.64-.13,1.77-.09,3.35-.37,5.04-.9,.79-.25,1.59-.48,2.38-.71,.87-.25,1.55-.7,2.37-1.02,.76-.3,1.62-.34,2.38-.64,.81-.32,1.53-.8,2.36-1.11,1.74-.64,3.46-1.32,5.17-2.04,.26-.11,.01-2.49-.06-2.49-1.42,.04-2.85,.06-4.27,.04s-2.86-.37-4.3-.36-2.84-.39-4.32-.51-2.89-.44-4.34-.48c-2.88-.09-5.8,.26-8.68,.34s-5.8,.1-8.7,.13c-5.6,.06-11.27,.26-16.86-.24-4.74-.43-9.13-1.86-12.79-4.96-2-1.7-3.73-3.75-5.28-5.85-1.46-1.97-2.58-4.37-4.28-6.14l.13,5.23c1.47-.88,1.54-.26,2.26,.57,.5,.58,1.02,1.14,1.56,1.69,1.03,1.04,2.13,2,3.28,2.9,0,0,0-.04,0-.05h0Z"/><path class="cls-3" d="M531.73,430.7c5.52,2.5,12.29,2.64,18.27,2.53s12.12-.73,18.14-1.35c6.24-.64,12.4-1.56,18.7-1.37,5.93,.18,11.82,.93,17.76,1,3.29,.04,6.8,.14,10.01-.71,1.59-.42,3.15-1.31,4.6-2.08,1.72-.91,3.45-1.88,4.84-3.24,.17-.16,.07-2.09-.05-2.1-1.36-.09-2.72,.18-4.08,.23-1.49,.05-2.94-.05-4.42-.21-2.9-.32-5.96,.18-8.88,.15-5.91-.07-11.8-.64-17.71-.2-6.26,.47-12.47,1.69-18.6,3.01s-11.98,3.1-18.1,4.1c-3.4,.55-6.85,.96-10.3,.96s-6.77-.54-10.16-.8c0,0,0,.05,0,.05h0Z"/><path class="cls-3" d="M517.53,401.31c-.1-.44-.07-1.3-.54-.78-.15,.17-.24,.49-.3,.69-.35,1.14-.34,2.47-.38,3.64-.08,3.11-.03,6.38,.66,9.43,.75,3.33,2.57,6.34,5.21,8.52,2.95,2.43,6.61,3.81,10.28,4.72,3.99,.99,8.13,1.61,12.23,1.97,1.26,.11,2.49,.22,3.74,.04s2.49-.57,3.7-1.03c2.56-.97,5.1-2.06,7.25-3.77,.28-.22,.25-2.81-.07-2.88-1.98-.43-3.99-.54-5.97-.96-2.11-.45-4.17-1.18-6.32-1.41-3.95-.41-7.86-.7-11.77-1.43-6.64-1.23-14-3.64-17.15-10.17-.36-.75-.69-1.55-.9-2.36-.04-.14-.06-.27-.09-.41l-.06-.33,.17,4.69c.09-.47,.14-.95,.22-1.43,.36-2.21,.55-4.83,.11-6.76h0Z"/><path class="cls-3" d="M511.56,407.96c-.02-.29-.03-.41-.23-.66-.1-.12-.27-.18-.39-.26-.79-.51-.87-.45-1.78-1.29l-.06,.08c-.27,.55-.26,1.17-.27,1.77-.04,1.29,0,2.59,.19,3.86,.3,2.13,.96,4.21,1.98,6.11,1.56,2.88,3.93,5.28,6.55,7.21,5.49,4.06,12.18,6.54,18.82,7.89,14.83,3.02,30.01,.78,44.77-1.5,2.25-.35,4.5-.7,6.76-1.03s4.57-.51,6.76-1.24c1.12-.37,2.27-.68,3.37-1.08,1.18-.44,2.15-1.17,3.36-1.51,2.29-.65,4.49-1.62,6.76-2.35,.16-.05,.1-1.86-.05-1.9-1.94-.5-3.92-1.09-5.88-1.45-.82-.15-1.64-.12-2.44-.39-1.15-.39-2.2-.61-3.42-.72-1.81-.16-3.53-.28-5.34-.03-1.93,.27-3.86,.55-5.79,.85-7.32,1.11-14.62,2.34-21.99,3.05-13.38,1.28-27.54,.81-39.9-5-3.04-1.43-5.95-3.21-8.45-5.46-1.25-1.12-2.38-2.3-3.45-3.59-.47-.57-.89-1.19-1.37-1.75-.29-.34-.8-.65-.91-1.1l.18,3.46c.02-.81,.22-2.19,1.13-2.55,.51-.2,1.05-.04,1.09,.63,0,.03,0,0,0-.01h0Z"/><path class="cls-3" d="M671.32,339.77c-.1,.41-.04,.85,.12,1.23,.53,1.32,1.88,1.52,3.15,1.34,4.22-.6,8.45-.85,12.67-1.34,8.4-.98,16.78-1.86,25.23-2.24,2.4-.11,4.79-.28,7.19-.42,1.19-.07,2.46-.05,3.59-.46,1.22-.44,1-1.81,1.86-2.66,.51-.5,1.27-.65,1.9-.96,.11-.05,.07-1.22-.03-1.27-.65-.29-1.4-.38-1.94-.85-.94-.82-.7-2.15-1.99-2.52s-2.59-.17-3.85-.11c-2.41,.13-4.79,.32-7.19,.63-4.96,.66-9.88,1.54-14.77,2.58s-9.83,2.27-14.6,4.01c-2.34,.85-4.64,1.79-6.98,2.63-.33,.12-4.46,1.45-4.36,.52,0-.03-.01-.09,0-.11h0Z"/><path class="cls-3" d="M729.63,334.51c-1.21-1.66-2.96-3.06-4.95-3.72-1.88-.62-3.93-.64-5.88-.79-4-.31-8.01-.05-12,.2-7.9,.51-15.91,1.83-23.57,3.81-2.09,.54-4.17,1.15-6.22,1.84-2.74,.91-4.58,2.42-6.44,4.61-.47,.55-.19,2.29-.18,2.97s.04,1.4,.12,2.09c.01,.1,.19,.87,.2,.86,.38-.5,.76-1.23,1.19-1.66,.35-.36,.82-.65,1.21-.97,.21-.18,.07-2.48-.06-2.49-.3-.02-.96,.04-1.24-.05-.42-.14-.86-.54-1.25-.75l.15,5.92c.98,.27,1.71,.39,2.74,.41s1.83-.2,2.74-.53c1.91-.7,3.82-1.36,5.77-1.94,3.82-1.16,7.7-2.08,11.61-2.84,7.89-1.54,15.96-2.05,23.84-3.65,2.15-.44,4.31-.96,6.39-1.64,1.01-.33,1.98-.78,2.99-1.07,.5-.14,1.02-.3,1.5-.43s.83-.04,1.35-.05c0,0,0-.11,0-.12h0Z"/><path class="cls-3" d="M675.93,288.25c.04-.77-.5-1.17-1.3-1.14-1.13,.04-1.65,.87-1.53,1.9,.22,2.01,2.41,3.5,3.76,4.74,2.25,2.07,4.47,4.16,6.74,6.2,9.09,8.19,18.53,16.1,28.38,23.36,2.52,1.86,5.13,3.65,7.87,5.16,1.35,.74,2.79,1.45,4.29,1.8,.71,.17,1.34,.33,2.02,.11,.83-.27,1.65-.83,2.48-1.15,.14-.05,.1-1.53-.04-1.61-1.24-.67-2.16-1.84-3.39-2.44-1.04-.51-2.15-.89-3.2-1.39-2.08-.98-4.08-2.11-6.02-3.33-4.12-2.61-8.24-5.22-12.37-7.82-8.14-5.13-15.91-10.82-23.44-16.8-2.02-1.6-4.27-3.17-6.02-5.08-.86-.94-1.65-2.81-.08-3.42,.62-.24,1.97-.25,1.83,.8,0,.02,0,.14,0,.1h0Z"/><path class="cls-3" d="M706.18,323.98c-1.03,.15-1.18,1.38-.72,2.13,.56,.91,1.78,1.38,2.71,1.8,1.17,.54,2.38,.98,3.64,1.29,5.01,1.21,10.32,.79,15.1-1.14,.03-.01-.01-.19,0-.2-3.83,1.48-7.97,1.98-12.04,1.46-1.99-.26-3.96-.76-5.85-1.43-.88-.31-1.79-.65-2.59-1.12-.61-.36-1.1-.8-1.11-1.54,0-.63,.24-1.07,.87-1.2,0,0,0-.05,0-.05h0Z"/><path class="cls-3" d="M944.45,343.07c-.31-.88-.63-1.83,.33-2.37,.36-.2,.51-.32,.77,.14,.32,.58,.41,1.4,.64,2.04,.72,2.02,1.63,3.96,2.69,5.83,1.84,3.26,4.11,6.25,6.61,9.03s5.4,5.62,8.27,8.25,5.71,5.46,9.05,7.5c.97,.59,1.98,1.11,3.04,1.51,1.14,.44,2.14,.42,3.34,.26s2.13-.73,3.22-1.06c1.45-.44,2.49-1.74,3.61-2.69,.15-.13,.11-1.84-.05-1.9-1.13-.42-2.13-1.2-3.28-1.6-.64-.22-1.15-.3-1.76-.62s-1.15-.62-1.75-.89c-1.08-.48-2.07-1.08-3.18-1.48s-2.1-.85-3.09-1.42c-3.78-2.18-6.96-5.39-10.17-8.31-6.13-5.6-12.04-11.53-16.33-18.7-.24-.4-.47-.82-.73-1.21-.31-.45-.29-.64-.63-.03-.58,1.07-.93,2.25-1.08,3.46-.18,1.43-.35,3.14,.47,4.39,0-.01,0-.09,0-.12h0Z"/><path class="cls-3" d="M980.61,367c-.16-.38,1.08,4.11,.73,2.45-.03-.15-.06-.31-.1-.46-.19-.78-.43-1.57-.76-2.3-.43-.95-.7-1.42-1.7-1.67-1.57-.4-3.33,.29-4.83,.72-3.82,1.1-7.71,1.9-11.65,2.46-7.98,1.12-16.05,1.22-24.03,.09-1.82-.26-3.74-.47-5.45-1.17-.67-.27-1.15-.49-1.86-.59-.23-.03-.9,.02-1.04-.18l.19,5.36c.39-1.09,.85-2.15,1.3-3.22,.13-.3-.14-2.61-.09-2.63-.46,.21-.89,.47-1.4,.49-.35,.02-.11,3.79-.09,4.11,.18,2.08,.46,4.24,1.83,5.91,.93,1.13,2.76,1.43,4.14,1.67,4.22,.74,8.51,1.13,12.79,1.19,8.45,.14,16.85-1.03,24.94-3.49,1.98-.6,3.81-1.58,5.77-2.18,.55-.17,.8-.31,1.14-.83,.28-.43,.34-.71,.37-1.22,.05-.75,.03-1.51,0-2.26-.02-.65,.05-1.61-.21-2.24h0Z"/><path class="cls-3" d="M1004.63,407.3c.97,.56,1.62,1.23,2.34,2.07s1.73,1.27,2.57,1.94c1.65,1.31,3.31,2.37,5.13,3.45,3.14,1.87,6.42,3.36,9.75,4.83,6.19,2.74,12.55,5.09,18.48,8.39,5.38,2.99,10.16,6.88,15.27,10.29,2.51,1.68,5.1,3.25,7.85,4.49,2.3,1.03,4.95,2.06,7.49,2.22,2.94,.18,6.08-.85,8.71-2.11,2.83-1.36,5.45-3.29,7.5-5.67,.34-.39-.3-2.33-.06-2.49-4.34,2.85-9.62,2.29-14.36,.75-2.58-.84-5.27-1.21-7.82-2.16-2.72-1.02-5.28-2.43-7.74-3.97-5.16-3.23-9.89-7.11-15.11-10.24-5.6-3.36-11.77-5.64-17.89-7.86-3.62-1.31-7.31-2.65-11.09-3.43-1.79-.37-3.7-.87-5.52-.79-.31,.01-.6,.05-.92,.05-.59,0-1.27-.26-1.84-.19-.33,.04-.61,.25-.91,.37-.64,.25-1.19,.15-1.83,.03,0,0,0,.05,0,.05h0Z"/><path class="cls-3" d="M1011.84,410.27c-.99-.39-2.1-.98-2.93-1.64l.02,.86c1.78,1.79,4.48,2.77,6.66,3.99s4.4,2.37,6.56,3.63c4.2,2.43,8.44,4.78,12.61,7.26,4.15,2.48,8.28,5.01,12.36,7.61,3.71,2.37,7.29,4.77,11.55,6.05,4.7,1.41,9.46,1.5,13.89-.79,.26-.13-.07-1.94-.05-1.95-4.36,1.01-8.74-.8-12.43-3.03-4.01-2.43-7.62-5.46-11.62-7.93s-8.07-4.68-12.28-6.71-8.22-3.86-12.5-5.26c-2.37-.78-4.74-1.52-7.13-2.23-1.26-.37-2.54-.69-3.82-1.01-1.18-.3-2.63-.81-3.84-.47-.08,.02-.04,.85,.02,.86,.93,.06,2.07,.51,2.91,.91,0,0,.02-.12,0-.12h0Z"/><path class="cls-3" d="M1086.72,427.07c-2.31,1.03-4.24,2.75-5.21,5.11l.45,.4c-.24-1.01-.47-2.02-.71-3.03-.16-.67-.32-1.64-.37-2-.03-.22-.05-.44-.07-.66,0-.04-.06-.75-.02-.27s-.02-.24,0-.26c-.02,.05,.04,.84,.02,.25s.01,.18,0,.25c0-.04,.02-.75,0-.26-.02,.56,.08-1.06,.03-.53,.31-3.48,1.29-6.9,2.66-10.11,2.76-6.5,7.13-12.28,12.16-17.2,10.06-9.85,22.7-17.12,36.11-21.32,7.6-2.38,15.49-3.77,23.45-4.12l.11-.18c.46-1.61,1.16-3.21,1.12-4.91s-.81-3.25-1.36-4.82l-.12-.18c-15.22,.66-30.21,5.14-43.3,12.94-12.79,7.62-25.28,18.77-30,33.31-1.55,4.78-2.24,9.75-2.29,14.78-.03,3.16,.13,6.34,.6,9.47,.31,2.08,.67,4.41,1.74,6.25,.35,.6,.53-1.06,.53-1.05,.59-4.2,2.23-8.23,4.49-11.8,0,0,0-.05,0-.05h0Z"/><path class="cls-3" d="M1088.21,409.45c-1.05,1.19-1.97,2.47-2.71,3.87-.39,.73-.73,1.48-1.02,2.25-.2,.54-.36,1.78-.87,2.12-.43,.29,.21,1.82,.05,1.95,1.86-1.47,3.63-3.27,5.25-5.01,1.95-2.1,4.01-4.09,6-6.15,4.28-4.43,8.92-8.56,13.84-12.26,9.93-7.44,21.09-13.26,32.98-16.84,3.11-.94,6.3-1.84,9.58-1.9,1.64-.03,3.04,.35,4.62,.67,1.32,.27,2.37-.66,3.48-1.25,.29-.15,.06-2.02-.03-2.3-.67-2.05-1.4-4.1-2.81-5.78-.97-1.15-2.68-1.31-4.13-1.4-2.82-.19-5.63,.38-8.34,1.12-5.99,1.64-11.83,3.84-17.42,6.54-11.33,5.47-21.69,13.03-30.19,22.32-5.44,5.95-9.88,12.83-12.9,20.31l.18,1.43c.26-3.58,2.14-6.97,4.45-9.66,0-.01,0-.04,0-.05h0Z"/><path class="cls-3" d="M1149.22,372.7c.25,.16,.52,.32,.75,.5,.32,.26,.52,.63,.75,.97,.5,.75,1.09,1.46,1.62,2.19,.77,1.07,1.67,2.02,2.52,3.02,1.65,1.93,3.27,3.87,5.04,5.69l.11-.17c.34-.79,.43-1.65,.51-2.5s.22-1.72,.4-2.58c.22-1.02,.38-2.04,.43-3.07,0-.11-.11-1.4-.11-1.39-.13,.08-.08,.28-.17,.38-.2,.22-.86-.24-1.13-.18-.04,0-.24,.16-.27,.16-.13,0-.51-.46-.61-.55-.22-.2-.45-.36-.7-.52-.93-.61-1.86-1.13-2.91-1.49-.91-.31-2.04-.74-3-.61-.49,.07-1,.13-1.51,.2-.31,.05-.52,.31-.81,.29-.27-.02-.67-.28-.93-.38,0,0,0,.04,0,.05h0Z"/><path class="cls-3" d="M1194.41,335.49l1.7,1.67-.16-6.41c-.18-.08-.81-.51-.96-.5-.21,.01-.74,.63-.92,.78-.74,.63-1.42,1.34-2.1,2.04-1.24,1.26-2.45,2.54-3.64,3.84-2.51,2.74-4.85,5.64-7.1,8.59-4.39,5.74-8.37,11.81-11.9,18.11-2.07,3.69-3.95,7.48-5.75,11.31l.57,9.73c5.94-16.52,15.56-31.22,28.87-42.76l-.25-10.19c-11.67,10.6-23.43,21.34-32.55,34.3-2.6,3.69-4.93,7.54-6.98,11.55l.53,9.82c1.21-3.32,1.38-6.75,2.13-10.18,.11-.52,.06-1.13,.02-1.65,0-.11-.09-.9-.19-.76-.19,.25-1.03-.06-1.36,.21-.2,.17-.28,.45-.39,.68-.31,.6-.51,1.23-.74,1.87-.25,.7-.24,1.64-.27,2.35-.05,1.3-.04,2.63,.04,3.93,.06,1.01,.1,2.05,.33,3.04,.04,.18,.19,1,.44,.5,7.08-14.07,18.02-25.69,29.38-36.4,3.25-3.07,6.56-6.08,9.87-9.08,.29-.26,.28-1.25,.3-1.5,.09-1.19,.08-2.41,.05-3.61s-.08-2.41-.23-3.6c-.02-.14-.29-1.56-.37-1.48-10.35,8.96-18.83,20.06-24.76,32.4-1.69,3.51-3.22,7.12-4.43,10.82-.62,1.9-.41,4.26-.28,6.22,.07,1,.11,2.04,.36,3.01,.04,.16,.26,1.04,.49,.5,5.89-13.48,14.16-25.84,23.73-36.97,1.33-1.55,2.67-3.08,4.05-4.58,.74-.81,1.52-1.59,2.24-2.41,.34-.38,.79-.8,1.06-1.23,.43-.69,.65-1.67,.95-2.42,.44-1.09,.14-2.8,.09-3.95-.03-.62,0-1.32-.17-1.91-.03-.1-.08-.62-.21-.32-.51,1.13-.81,2.36-1.18,3.54,.55-1.75-.31,.69-.3,.97,0,.02-.01,.09,0,.11h0Z"/><path class="cls-3" d="M398.09,402.76c-1.59-1.46-3.42-2.23-5.62-2.13-.05,0-.11,1.53,.04,1.61,3.66,1.96,7.83,1.95,11.87,1.59,4.68-.41,9.36-.98,14.03-1.48,9.61-1.02,19.21-2.14,28.82-3.23,19.29-2.18,38.59-4.36,57.88-6.55,5.39-.61,10.76-1.32,16.14-2s11-1.29,16.38-2.42c.04,0,0-.44-.01-.44-4.8,.08-9.65,.61-14.42,1.08s-9.61,.91-14.41,1.42c-9.61,1.02-19.21,2.16-28.81,3.24-19.29,2.17-38.6,4.24-57.88,6.52-5.36,.63-10.71,1.29-16.06,1.92-4.54,.53-9.35,.94-13.55-1.25l.04,1.61c.99-.63,1.82-.94,3-.73,.98,.17,1.94,.61,2.58,1.38-.02-.02,.02-.1,0-.12h0Z"/><path class="cls-3" d="M606.38,394.53c-.4-1.14-1.11-2.52-2.49-2.49l-.04,.07c-.33,1.26-.41,3.39,.06,4.62,.31,.81,.87,.69,1.68,.69l4.1-.02,16.08-.07c10.67-.05,21.33-.13,32-.12,21.34,.03,42.68,.1,64.02,.03,21.23-.07,42.46-.2,63.7-.39,10.67-.1,21.33-.32,32-.61s21.32-1,31.98-1.39c10.66-.38,21.32-1.12,31.97-1.62l31.98-1.48,7.91-.37s.03-1.27-.03-1.27c-20.93-.35-41.86-.59-62.78-1.14-10.36-.27-20.71-.26-31.07-.48s-20.7-.16-31.06-.05c-41.4,.45-82.79,1.86-124.17,3.13-11.61,.36-23.23,.68-34.84,.98l-17.07,.43-8.83,.22-4.41,.11c-.92,.02-2.89,.56-3.2-.61l.17,2.46c0,1.66,.25-.25,1.12-.61,.42-.17,.83-.19,1.23,0,0,0,0-.04,0-.05h0Z"/><path class="cls-3" d="M942.86,388.22c-41.16,2.4-82.31,4.77-123.5,6.58-40.99,1.81-82.01,2.91-123.04,3.54-23.02,.35-46.03,1.06-69.05,1.5-.03,0-.03,.78,.02,.78,20.72,.53,41.47,1.06,62.2,.8,20.52-.25,41.02-.69,61.53-1.34,41.02-1.31,82.01-3.26,122.95-6.11,22.99-1.6,45.96-3.4,68.89-5.7v-.05h0Z"/><path class="cls-3" d="M624.62,403.27c21.43,2.85,42.96,2.17,64.5,1.43,21.67-.74,43.34-1.53,65.01-2.37,43.34-1.68,86.67-3.62,129.98-5.89,24.31-1.28,48.61-2.74,72.91-4.22,.01,0,0-.29,0-.29-43.31,2.17-86.64,4.1-129.96,6.13-43.33,2.03-86.65,4.01-129.99,5.71-24.17,.95-48.33,2.04-72.44-.54,0,0,0,.05,0,.05h0Z"/><path class="cls-3" d="M966.16,389.51h-4.15s0,.12,0,.12h4.15s0-.12,0-.12h0Z"/><path class="cls-3" d="M925.46,388.72l-17.09,.38s0,.28,0,.28c9.56,.57,19.11,1.35,28.68,1.87s18.95,1.03,28.42,1.53c19.11,1.02,38.22,1.95,57.34,2.82,10.71,.49,21.44,.83,32.16,1.18,0,0,0-.39,0-.39-19.03-1.19-38.07-2.21-57.11-3.21-19.11-1.01-38.23-1.85-57.34-2.78-10.71-.52-21.43-.81-32.15-1.3v.28l17.09-.61v-.05h0Z"/><path class="cls-3" d="M627.3,346.27c-1.96-.96-3.67-2.37-5.62-3.35l.03,1.28c17.84-.3,35.68-.47,53.52-.12,17.84,.35,35.67,1.13,53.47,2.33s35.39,2.78,53.03,4.74c17.72,1.98,35.39,4.37,53,7.2s35.13,6.06,52.58,9.73c2.16,.45,4.32,.91,6.47,1.38-.01,0,.01-.19,0-.2-17.42-3.92-34.94-7.42-52.53-10.5s-35.25-5.74-52.96-7.98-35.29-4.02-53.01-5.34c-17.79-1.32-35.62-2.22-53.45-2.69-17.82-.47-35.7-.67-53.52-.08-2.21,.07-4.41,.15-6.62,.24-.03,0-.09,1.22,.03,1.28,1.8,.87,3.8,1.3,5.59,2.2-.01,0,.02-.11,0-.12h0Z"/><path class="cls-3" d="M622.8,349.05c-1.86-3.02-5.07-4.77-8.62-4.62-.02,0-.01,.45,.01,.45,23.87-.19,47.71-.47,71.59,.16s47.47,1.88,71.15,3.72,47.56,4.23,71.24,7.17c23.57,2.93,47.06,6.44,70.45,10.54,23.45,4.11,46.84,8.69,70.16,13.48,2.86,.59,5.73,1.19,8.59,1.79-.04,0,.05-.66-.02-.68-23.21-5.91-46.54-11.06-70.11-15.31-23.36-4.21-46.84-7.84-70.38-10.88-23.66-3.05-47.39-5.52-71.19-7.28-23.67-1.75-47.39-2.89-71.11-3.49-23.85-.6-47.72-.63-71.57,.04-2.94,.08-5.88,.15-8.81,.29v.45c3.48-.28,6.73,1.29,8.62,4.23,0-.01,0-.04,0-.05h0Z"/><path class="cls-3" d="M969.47,369.04c-2.54-.2-5.07-.61-7.6-.84s-5.06-.48-7.59-.75c-5.06-.54-10.11-1.12-15.16-1.73-10.07-1.22-20.1-2.76-30.14-4.18-5.6-.79-11.23-1.9-16.87-2.31,.02,0-.04,.57,.01,.59,4.85,1.58,9.97,2.53,14.98,3.51s10,1.8,15.04,2.52c10.01,1.43,20.13,2.35,30.22,2.89,2.77,.15,5.54,.27,8.31,.38,2.94,.11,5.87,0,8.81,.05,0,0,0-.12,0-.12h0Z"/><path class="cls-3" d="M903.87,370.44c-1.44-1.24-2.99-2.33-4.67-3.21s-3.79-1.26-5.29-2.41c.18,.14-.2,1.06,.03,1.24,1.81,1.45,4.4,1.94,6.58,2.64s4.39,1.4,6.58,2.08c4.31,1.33,8.62,2.67,12.98,3.8,8.73,2.27,17.52,4.18,26.37,5.87,17.65,3.38,35.54,6.01,53.51,6.51,10.06,.28,20.11,.13,30.15-.66,.02,0,.03-1.55-.04-1.56-17.86-2.48-35.74-4.74-53.63-6.98-17.82-2.23-35.5-4.99-53.19-8.09-4.87-.85-9.74-1.67-14.61-2.53-2.43-.43-4.85-.87-7.27-1.33-1.25-.24-2.5-.48-3.74-.72s-2.5-.6-3.72-.26l.03,1.24c1.62-.49,3.8,.69,5.27,1.4,1.68,.82,3.23,1.84,4.67,3.02,0,0,0-.04,0-.05h0Z"/></g><g><path class="cls-4" d="M411.64,418.75c-4.72-1.31-9.05-1.94-13.89-.62-4.58,1.26-8.62,3.94-11.51,7.71-.03,.04-.02,.41,.01,.41,29.17,3.26,58.42,5.79,87.69,8.04,29.27,2.25,58.56,4.27,87.84,6.35,29.09,2.07,58.17,4.26,87.27,6.12,28.78,1.84,57.57,3.25,86.42,2.89,14.34-.18,28.7-.78,43-1.88,7.14-.55,14.27-1.27,21.38-2.16,3.53-.45,7.18-.77,10.65-1.58,1.82-.43,2.48-1.67,2.51-3.44,.01-.7,.39-3.4-.8-2.76-.49,.26,.42,2.99,.08,3.17,.33-.18,.53-.2,.67,.17l-.08-.83c-.02-.4,0-1.68-.21-1.62-.13,.04-.23,.45-.39,.56-.32,.22-.5,.41-.89,.54-1.8,.58-4.02,.62-5.9,.96-3.68,.66-7.36,1.32-11.06,1.9-7.51,1.19-15.05,2.19-22.61,3.01-14.97,1.62-30.03,2.31-45.08,2.56-30.48,.51-61-1.2-91.39-3.25-30.72-2.07-61.44-4.28-92.15-6.43-30.83-2.16-61.66-4.27-92.46-6.78-15.47-1.26-30.93-2.61-46.37-4.11-3.79-.37-7.58-.74-11.37-1.13-.98-.1-1.96-.2-2.95-.3-.65-.07-2.45,.05-2.95-.3-.42-.3-.44,.15-.29-.38,.06-.21,.43-.52,.57-.68,.52-.59,1.08-1.15,1.66-1.67,4.03-3.61,9.44-5.66,14.84-5.74,2.58-.04,5.43,.29,7.77,1.42,0,0,.02-.12,0-.12h0Z"/><path class="cls-4" d="M808.64,442.1c17.83,5.54,34.11,14.64,50.25,23.85,1.77,1.01,3.9,1.98,5.81,.78,1.51-.94,2.53-2.69,3.61-4.06,2.5-3.17,5.06-6.27,7.83-9.2,5.53-5.85,11.74-11.07,18.39-15.59,7.51-5.11,15.66-9.26,24.2-12.35,.26-.09-.08-2.36-.06-2.36-18.99,2.88-38.24,3.78-57.41,2.7l.05,2.15c1.33-.98,2.45-2.23,3.75-3.27,.2-.16-.16-1.08-.03-1.17-1.22,.83-2.59,1.42-3.77,2.29-.18,.13-.02,2.14,.05,2.15,19.17,1.16,38.42,.32,57.42-2.48l-.06-2.36c-15.25,5.44-29.16,14.3-40.51,25.85-2.82,2.87-5.48,5.89-7.96,9.06-1.28,1.63-2.47,3.33-3.58,5.08s-2.41,3.44-4.79,3.05c-2.13-.34-4.09-1.75-5.93-2.8-2-1.13-4-2.26-6.01-3.37-4.09-2.26-8.21-4.47-12.39-6.57-9.28-4.67-18.82-8.7-28.86-11.41,0,0,0,.05,0,.05h0Z"/><path class="cls-4" d="M862.63,424.88c1.9-.42,3.89-.51,5.81-.84,2.13-.36,4.26-.71,6.4-1.07,3.88-.64,7.76-1.31,11.63-2,7.95-1.41,15.91-2.77,23.89-4.03,15.94-2.51,31.95-4.61,48.04-5.87,7.91-.62,15.91-1.27,23.84-.96s14.94,2.03,21.87,5.37,12.84,7.28,19.26,10.89c6.58,3.7,13.29,7.16,20.12,10.37,7.66,3.6,15.48,6.88,23.41,9.84,3.88,1.44,7.79,2.81,11.73,4.1,2.01,.66,4.03,1.29,6.05,1.91,1.05,.32,2.14,.57,3.17,.95,1.16,.42,2.16,1.16,3.21,1.81v-.07c.53-4.06,.08-8.45-.39-12.5-.27-2.29-.62-4.56-.87-6.85-.23-2.11-.13-4.09,.2-6.19,1.21-7.77,4.94-14.96,9.84-21.04,10.64-13.19,26.48-20.18,41.98-25.97,.98-.37,1.97-.71,2.97-1.05,.49-.17,.99-.34,1.48-.51,.43-.15,1.55-.8,1.98-.72,.3,.06,.99,.97,1.22,1.19,.54,.53,1.09,1.05,1.64,1.58,.96,.91,1.94,1.82,2.92,2.71,1.96,1.78,3.95,3.52,6,5.19,.27,.23,2.95,2.57,3.08,2.47,.21-.16,.19-1.89,.22-2.17l.29-2.96c.06-.57-.17-1.25-.04-1.8l-.32,1.37c-.04,.16-.08,.52-.16,.69-.31,.59,0,.3-.52,.03-1.32-.67-2.61-2.18-3.72-3.14-2.37-2.05-4.71-4.12-7-6.25-1.05-.98-2.09-2.35-3.28-3.14-.59-.39-.07-.34-.9-.22-.3,.05-.73,.26-.99,.36-.74,.28-1.48,.56-2.22,.85-2.71,1.05-5.44,2.04-8.14,3.1-10.49,4.12-20.88,9.06-29.49,16.46-7.75,6.66-14.05,15.47-16.41,25.53-1.17,5-1.15,10.17-.8,15.27,.21,3.07,.7,6.11,1.08,9.16,.17,1.37,.65,3.02,.05,4.3-.35,.75-.34,.6-1.07,.65-.35,.02-.7,.08-1.05,.06-.79-.05-1.61-.38-2.38-.61-23.27-6.85-45.72-16.47-66.73-28.61-5.02-2.9-9.95-5.99-15.19-8.51s-11.2-4.41-17.26-5.06c-6.21-.66-12.47-.36-18.68,0s-12.96,.92-19.42,1.58c-25.85,2.64-51.6,6.97-77.05,12.16-1.45,.3-2.9,.59-4.36,.89-1.65,.34-3.27,.9-4.93,1.15-.01,0,0,.13,0,.12h0Z"/><path class="cls-4" d="M1011.06,381.43c1.86-1.01,4.01-1.67,5.98-2.44s4-1.57,6-2.34c4-1.55,8.02-3.06,12.04-4.58,7.97-3.02,15.98-5.93,24.03-8.74,16.17-5.65,32.49-10.87,48.93-15.69s33.01-9.2,49.68-13.16c8.35-1.98,16.79-4.11,25.39-4.48,4.05-.17,8.28,0,12.23,.98,1.45,.36,3.04,.96,3.9,2.25,1.28,1.94-.7,4.21-1.86,5.74-5.4,7.14-10.81,14.26-16.21,21.39-2.58,3.41-5.08,6.86-7.97,10.02l-8.15,8.93c-.65,.72-1.33,1.42-1.96,2.15-.98,1.13-1.46,2.68-2.07,4.04-.27,.6-.1,1.62-.08,2.27,0,.18,.2,2.26,.2,2.26,.79-.36,1.48-.57,1.98-1.3,.78-1.14,1.49-2.33,2.24-3.5l4.18-6.52c2.67-4.16,5.26-8.36,8.22-12.31l16.66-22.23c1.36-1.81,2.81-3.58,4.06-5.47,.78-1.19,1.36-2.43,1.37-3.87,0-1.07-.12-2.12-.81-2.98-1.01-1.25-2.7-1.75-4.21-2.06-8.54-1.77-17.47-.53-25.91,1.23-17.31,3.61-34.46,8.31-51.45,13.17-17.03,4.86-33.92,10.18-50.66,15.96s-33.2,11.94-49.52,18.66c-2.03,.84-4.09,1.93-6.2,2.52-.02,0,0,.12,0,.12h0Z"/><path class="cls-4" d="M384.68,422.65c-16.87-3.58-33.83-6.58-50.81-9.59-12.71-2.26-26.34-4.06-33.46-16.16l.04,4.55c63.26-20.66,127.06-41.14,192.95-51.57,31.72-5.02,65.16-4.88,95.13-17.58,13.75-5.83,26.53-13.66,39.01-21.8,6.21-4.05,12.35-8.2,18.56-12.26s12.66-9.13,19.55-11.89c7.35-2.94,13.27,1.87,17.78,7.26,5.11,6.1,9.76,12.38,15.5,17.94,11.38,11.03,24.81,19.78,39.45,25.84l-.1-3.95c-21.55,2.95-43.15,5.69-64.65,9.02l.08,3.36c49.09-11.24,99.69,1.68,148.8,6.08,22.47,2.01,45.3,2.52,67.63-1.21,10.94-1.83,21.72-4.7,31.99-8.89,5.04-2.06,9.79-4.6,14.64-7.04,4.29-2.16,10.18-4.47,14.23-.6,1.91,1.82,2.77,4.48,3.83,6.83,1.13,2.54,2.46,4.99,3.97,7.33,2.83,4.39,6.27,8.36,10.17,11.82,8.25,7.31,18.42,12.13,29.31,13.85l-.08-3.07c-18.93,5.51-38.91,5.87-58.03,1.06,.17,.04-.32,3.18,.08,3.29,23.84,6.52,49.19,9.49,73.8,6.59,.13-.02,0-2.29-.06-2.29-25,.75-49.61-1.05-73.82-7.58l.08,3.29c19.14,4.74,39.11,4.29,58.02-1.28,.16-.05,.02-3.06-.08-3.07-19.08-2.98-35.86-15.79-43.65-33.48-2.07-4.71-4.46-9.06-10.37-8.37-5.16,.6-9.8,3.96-14.36,6.19-9.98,4.87-20.57,8.38-31.41,10.76-46.33,10.16-93.63,.26-139.9-4.84-28.36-3.13-56.71-4.07-84.87,1.29-.29,.05,.06,3.37,.08,3.36,21.59-2.48,43.12-5.57,64.66-8.43,.13-.02,.21-3.82-.1-3.95-13.22-5.5-25.46-13.17-36.07-22.78-5.16-4.67-9.93-9.78-14.23-15.26-3.75-4.78-7.4-10.7-13.17-13.27-6.92-3.08-13.29,1.94-18.95,5.47-6.46,4.03-12.8,8.24-19.14,12.44-12.46,8.26-24.96,16.53-38.33,23.26s-28.71,11.65-44.15,14.26-32.54,3.87-48.77,6.1c-32.97,4.54-65.51,11.8-97.63,20.46-36.18,9.75-71.82,21.3-107.5,32.7-.61,.19-.24,4.07,.04,4.55,6.14,10.48,21.41,12.2,32.17,13.91,17.36,2.76,34.7,5.55,52.15,7.72,0,0,.03-.33,0-.34h0Z"/><path class="cls-4" d="M520.48,408.05c-1.34,.31-2.19-.6-3.14-1.37l.04,1.79c8.38-9.9,17.53-18.84,28.22-26.23s21.89-13.03,33.93-17.1c5.95-2.01,12.05-3.61,18.23-4.75,3.09-.57,6.2-1.03,9.33-1.37,1.38-.15,2.86-.34,4.22,.06,.71,.21,1.37,.58,1.8,1.21,.62,.9,.15,1.88-.1,2.85-1.85,7.29-4.3,14.44-5.64,21.85-1.16,6.35-1.46,12.97-.26,19.35,1.3,6.93,4.63,12.81,10.09,17.29,5.66,4.66,12.66,7.29,19.46,9.81l-.1-3.95c-4.36,.58-8.87,.63-13.27,.66s-8.91-.15-13.37-.31c-8.86-.33-17.64-.37-26.47,.55-16.32,1.69-33.04,5.26-49.31,1.41-4.1-.97-8.1-2.38-11.82-4.36-1.8-.96-3.54-2.04-5.16-3.26-.9-.67-1.73-1.43-2.41-2.33-.26-.35-.51-.72-.71-1.11-.13-.24-.27-.49-.34-.76-.09-.21-.07-.19,.06,.08,.11,.35,.21,.29,.3-.16,.22-.45,.15-1.11,.11-1.59,0-.12-.12-1.09-.29-.9-1.09,1.22-.88,3.28-.68,4.78,.24,1.83,1.07,3.36,2.36,4.68,2.63,2.7,6.37,4.63,9.78,6.14,7.39,3.27,15.43,4.46,23.45,4.82,9.15,.41,18.22-.69,27.28-1.75,9.54-1.12,18.99-1.84,28.6-1.58,5.27,.14,10.54,.42,15.81,.42,2.66,0,5.33-.06,7.99-.23s5.47-.74,8.17-1.25c.45-.09,.39-3.8-.1-3.95-6.04-1.88-12.2-3.83-17.56-7.29-5.62-3.63-9.48-9.14-11.19-15.6-1.85-6.97-1.02-14.13,.53-21.07,.85-3.77,1.91-7.49,2.96-11.2,.92-3.27,2.26-6.74,2.48-10.15,.16-2.56-.21-5.24-3.18-5.73-1.43-.23-2.92,0-4.34,.17-1.56,.18-3.12,.39-4.67,.63-6.34,.98-12.61,2.43-18.74,4.33-12.13,3.76-23.77,9.24-34.36,16.25-11.77,7.78-22.81,17.47-31.22,28.84-.18,.25-.21,1.59,.04,1.79,.92,.72,2.26,.13,3.19-.3,.02,0,0-.13,0-.12h0Z"/><path class="cls-4" d="M518.14,412.98c-.22,3.14,1.26,6.42,3.95,8.12-.01,0,.04-.17,0-.2-2.54-1.76-4.14-4.73-3.92-7.85,0-.03-.02-.16-.02-.07h0Z"/><path class="cls-4" d="M509.53,403.29c.96-.08-.06-1.79-.68-1.9-.98-.17-1.44,1.35-1.74,2.04-.53,1.23-.92,2.52-1.24,3.83-.67,2.71-.94,5.52-.92,8.31,.01,1.38,.09,2.76,.25,4.13,.15,1.24,.23,2.72,.75,3.87v-2.54c-.83,.07-1.41-.12-2.16-.44,0,0-.1,.68,.02,.78,.81,.66,1.51,1.37,2.14,2.2,.14,.19,.2-.59,.2-.6,.04-.52,0-1.05-.07-1.57-.27-1.84-.69-3.61-.71-5.48s.19-3.62,.56-5.39,.94-3.57,1.61-5.29c.27-.69,.51-1.46,.97-2.04,.2-.25,.55-.77,.93-.67,.43,.11,.42,.49,.08,.72,0,0,0,.05,0,.05h0Z"/><path class="cls-4" d="M495.95,401.94c-1.55,.81-2.34,2.54-2.9,4.13-.61,1.73-.89,3.54-.94,5.37-.09,3.9,.79,7.82,3.21,10.95v-2.11c-1.39-1.01-2.37-2.01-2.21-3.91,0-.06-.04-.5-.07-.29-.29,2.2,.47,5,2.32,6.35,.08,.05,.14-.92,.14-.93,0-.31,.05-.91-.15-1.17-1.92-2.48-3.15-5.68-2.96-8.85,.21-3.51,1.87-6.49,3.54-9.49,0,0,0-.05,0-.05h0Z"/><path class="cls-4" d="M484.13,403.15c-.94,.01-1.37,2.53-1.54,3.25-.36,1.53-.52,3.1-.55,4.67-.05,3.23,.49,6.43,1.77,9.4,.09,.2,.21-.67,.21-.68,.02-.45,.05-1.03-.12-1.46-.64-1.64-1.54-3.23-2.28-4.84,.01,.03-.07,.41-.03,.54,.73,2.09,1.33,4.28,2.16,6.32l.1-2.14c-.98-2.22-1.56-4.68-1.45-7.12,.13-2.76,1.18-5.23,1.73-7.9,0,0,0-.05,0-.05h0Z"/><path class="cls-4" d="M476.63,401.3c-3.14,5.33-3.17,12.46-1.17,18.21,.06,.18,.09-.09,.1-.14,.05-.21,0-.49-.02-.7-.09-.6-.22-1.2-.36-1.79-.03-.14-.04,.17-.04,.21,.09,.78,.17,1.56,.3,2.34l.08-.84c-2.04-5.74-1.3-11.67,1.11-17.17,.01-.03-.01-.11,0-.12h0Z"/><path class="cls-4" d="M379.67,395.45c-1.11,.31-2.33,.03-3.19-.74,0,0,0,.04,0,.05,.86,.76,2.08,1.05,3.19,.74,0,0,0-.05,0-.05h0Z"/><path class="cls-4" d="M376.67,391.97c-2.17-.17-3.65,1.6-4.17,3.56s-.28,4.39,1.23,5.85,3.95,1.76,5.91,1.05c.93-.34,1.84-.92,2.48-1.69,.75-.91,1.02-2.07,1.08-3.22,.09-1.87-.12-3.85-.86-5.59-.36-.84-.86-1.6-1.31-2.39-.25-.43-.51-.88-.84-1.25-.29-.32-.69-.51-.99-.82l.13,.14c-.25-.33-.56-.8-.92-1.01-.26-.16-.64-.2-.94-.24-.6-.07-1.14-.02-1.71,.16-1.16,.37-2.16,1.13-2.85,2.14-.49,.73-.74,1.55-.94,2.4-.43,1.84-.39,3.84-.35,5.71,.02,.72,.07,1.42,.13,2.14-.16-1.92,.08,.67,.11,.92-.02-.14-.1-.77-.04-.29,.03,.26,.06,.51,.09,.77,.05,.38,.04,.9,.33,1.17,.05,.05,.12-.44,.11-.37,.03-.26,.06-.52,.07-.78,0-.11,.01-.23,.02-.34,.01-.23,0-.15-.02,.22,.02-.2,.01-.13-.03,.23l-.2,.43c.17-.05,.26-.15,.36-.31,.16-.26,.14-.56,.25-.83-.2,.49,.02-.02,.06-.13,.27-.69,.61-1.32,1.09-1.88l-.17,.18c.87-.94,1.92-1.37,3.12-1.69,.29-.08,.57-.16,.86-.2s.65-.05,.93-.17c.29-.13,.53-.47,.82-.55,.27-.07,.58,.06,.85,.02,.24-.04,.47-.12,.71-.15,.29-.03,.41,.07,.66,.21,.42,.23,.7,.63,.92,1.05,.09,.17,.16,.34,.22,.52,.03,.09,.03,.2,.06,.25,.08,.12-.01-.15-.02-.2,0-.01,.06-.55,0-.34-.09,.31-.09,.66-.19,.97s-.22,.64-.37,.94c-1.03,2.05-3.32,3.07-5.56,2.9-2.05-.16-4.26-1.6-4.37-3.84-.06-1.16,.54-2.44,1.24-3.33,.75-.94,1.86-1.73,3.02-2.06,.03,0,.01-.24,0-.24h0Z"/><path class="cls-4" d="M375.72,398.64c-.18-.31-.25-.74-.35-1.08-.12-.38-.21-.77-.31-1.16,0,0-.01-.05-.02-.03-.02,.05-.21,.24-.25,.26-.11,.05-.09,.44-.1,.52-.1,1.73,.13,3.7,1.63,4.81,.59,.43,1.31,.64,2.04,.6,.35-.02,.71-.09,1.04-.23,.36-.14,.67-.47,.93-.75,.66-.71,1.1-1.58,1.28-2.54,.02-.13,.02-.27,0-.4,0-.03-.04-.22-.05-.18-.22,.6-.73,1.01-1.31,1.26-.33,.14-.69,.2-1.03,.31-.36,.13-.75,.2-1.13,.2-1.51,0-2.85-1.17-3.15-2.62,0,.04-.02-.09-.01-.08-.05-.26,.01,.35,0,.25,.03,.68,.05-.33,0-.39,.01,.02-.05,.44,0,.24,.02-.08,.03-.17,.04-.25,.01-.09,.02-.18,.04-.28,.04-.21,.02-.15,.1-.1,.17,.11,.23,.56,.3,.75,.11,.33,.24,.65,.31,.99,0,0,.02-.09,0-.11h0Z"/><path class="cls-4" d="M380.12,398.63c-.22,1.28-1.45,2.09-2.63,2.39s-2.64,.11-3.51-.77c.03,.03-.04,.23,0,.29,.41,.56,.97,1.01,1.66,1.15s1.35,.09,2-.11c1.33-.41,2.32-1.53,2.49-2.92,0,0,0-.04,0-.04h0Z"/><path class="cls-4" d="M370.09,391.47c.45-.33,.73-.64,.69-1.22-.01-.23-.07-.46-.18-.66-.07-.11-.17-.31-.31-.35-.24-.08-.7,.38-.91,.54-1.96,1.53-4.02,3.38-4.85,5.8-.61,1.8-.47,3.95,.51,5.59,1.22,2.04,3.52,3.36,5.83,3.7,3.73,.55,7.32-1.07,10.63-2.56,.07-.03-.01-.39,0-.39-4.9,1.83-11.5,3.98-15.68-.52-.97-1.05-1.66-2.46-1.52-3.92s.84-2.7,1.67-3.8,1.79-2.01,2.81-2.88c.27-.23,.55-.46,.83-.68,.08-.06,.54-.51,.62-.52,.78-.12,.66,1.71-.14,1.75-.02,0,0,.12,0,.12h0Z"/><path class="cls-4" d="M387.64,391.47c-.66-1.24-1.23-2.53-1.83-3.79l-.02,4.14c.66,.96,1.48,1.73,2.12,2.7,.53,.8,.77,1.57,1.06,2.46-.13-.41-.08-2.39-.09-1.86,.04-.79,.05-1,.02-.64-.01,.13-.01,.15,0,.05-.09,.48-.17,.93-.33,1.39-.31,.91-.76,1.77-1.3,2.56-3.03,4.41-8.3,6.89-13.01,9.06-.12,.06-.04,1.03,.03,1.02,4.24-.08,9.33-.04,12.64-3.17,1.39-1.32,2.1-3.19,2.42-5.03,.27-1.52,.28-3.08,.25-4.62s-.11-3.06-.46-4.53c-.31-1.29-1.56-4.54-3.38-3.6-.58,.3,.05,4.31,.11,4.29,.57-.12,1.21-.33,1.79-.3,0,0,0-.11,0-.12h0Z"/><path class="cls-4" d="M346.09,398.53c1.46-1.36,3.44-2.38,5.19-3.32s3.55-1.76,5.39-2.47c3.77-1.45,7.7-2.49,11.7-3.04,8.02-1.11,16.31-.37,23.97,2.24,2.12,.72,4.19,1.58,6.18,2.59,1.06,.53,2.09,1.1,3.1,1.71,.48,.29,.95,.59,1.42,.89,.95,.62,1.45,1.39,2.14,2.32l-.02-2.08c-4.44,1.44-8.52,3.88-12.44,6.37-.14,.09,.03,.97,.02,.98,4.33-1.29,8.6-2.87,12.47-5.23,.2-.12,.09-2.11-.05-2.12-.38-.04-.83,.05-1.2-.07-.44-.14-.85-.52-1.24-.76-.89-.57-1.8-1.11-2.73-1.61-1.8-.98-3.66-1.85-5.57-2.59-3.83-1.49-7.83-2.5-11.9-3.03-8.12-1.06-16.59-.24-24.3,2.56-2.11,.77-4.16,1.7-6.14,2.76-.99,.53-1.96,1.1-2.91,1.7-1.04,.66-2.01,1.49-3.09,2.07-.03,.02,.01,.11,0,.12h0Z"/><path class="cls-4" d="M361.3,409.19c.46,.18,.88,.64,1.31,.9s.9,.49,1.38,.69c1.01,.4,2.09,.64,3.18,.7,2.16,.12,4.32-.44,6.1-1.67,0,0,0-.05,0-.05-1.76,1.22-3.88,1.79-6.01,1.7-1.03-.05-2.06-.25-3.03-.6s-2.29-.93-2.94-1.79c0,0-.03,.11,0,.12h0Z"/><path class="cls-4" d="M418.75,382.69c1.87,0,1.79-6.19-.15-6.19s-1.79,6.19,.15,6.19h0Z"/><path class="cls-4" d="M412.51,382.05c.06-.44-.42-.45-.7-.16-.4,.43,.35,.8,.71,.83,.67,.05,1.38-.23,2.02-.39l2.4-.61c1.64-.42,3.27-.84,4.9-1.29,.02,0,0-.15,0-.15-2.25,.57-4.49,1.19-6.72,1.8-.54,.15-1.09,.3-1.63,.45-.37,.1-.77,.2-1.16,.13s-.88-.53-.39-.84c.08-.05,.19-.09,.28-.1,.05,0,.12-.02,.16,0,.03,.01,.37,.1,.12,.22-.02,.01,0,.13,0,.12h0Z"/><path class="cls-4" d="M407.61,421.88c.17-1.02-.57-1.52-1.41-2-1.1-.62-2.42-.7-3.67-.79s-2.65-.19-3.92-.06c-4.96,.53-10.26,2.86-14.08,6.04-.24,.2-.17,2.81,.07,2.86,10.43,2.37,21.03,3.1,31.7,2.48,.03,0,.02-.39,0-.39-10.74,.06-21.52-1.73-31.76-4.95l.07,2.86c3.52-2.55,7.21-4.57,11.44-5.66,2-.52,4.08-1,6.12-1.28,.81-.11,5.84-1.21,5.43,.77,0,.03,0,.12,0,.11h0Z"/><path class="cls-4" d="M403.77,428.38c6.72,.26,13.52,1.52,20.21,2.25s13.48,1.47,20.22,2.2c13.48,1.46,26.97,2.89,40.46,4.27,26.71,2.74,53.44,5.3,80.2,7.49,53.45,4.38,107.06,7.4,160.71,7.46,14.73,.02,29.48-.07,44.2-.66,7.3-.29,14.6-.8,21.86-1.67s14.56-1.4,21.44-3.94c.27-.1-.17-2.66-.07-2.68-6.41,1.18-12.67,3.04-19.1,4.18s-12.98,1.59-19.47,2.01c-13.29,.84-26.64,1.05-39.95,1.2-26.8,.29-53.61-.16-80.4-1.19-53.62-2.06-107.12-6.5-160.52-11.74-14.84-1.46-29.68-2.98-44.51-4.53-7.55-.79-15.1-1.59-22.65-2.39-3.77-.4-7.54-.8-11.32-1.18s-7.6-.54-11.32-1.2c0,0-.01,.12,0,.12h0Z"/><path class="cls-4" d="M806.55,440.93c16.06,7.65,32.08,15.39,48.07,23.18,1.99,.97,3.97,2.06,6.01,2.91s3.15-.1,4.59-1.47c2.9-2.76,5.78-5.53,8.77-8.18,5.93-5.26,12.12-10.22,18.52-14.89,7.3-5.32,14.78-10.34,22.58-14.9,.16-.1-.05-1.66-.04-1.66-18.45,1.52-37.25,.74-55.63-1.29l.07,2.68c9.51-1.63,19.06-3.01,28.59-4.54,9.56-1.54,19.11-3.13,28.7-4.47,.09-.01,0-1.22-.03-1.22-9.59,.8-19.2,1.65-28.74,2.87-9.57,1.22-19.1,2.93-28.59,4.68-.17,.03-.07,2.67,.07,2.68,9.24,.84,18.51,1.28,27.78,1.32s18.55-.47,27.82-1.05l-.04-1.66c-13.84,7.77-26.81,16.89-38.78,27.32-3.02,2.64-5.98,5.35-8.87,8.13-.7,.67-1.39,1.34-2.08,2.02-.64,.64-1.23,1.4-2,1.89-1.75,1.11-3.98-.44-5.6-1.17l-24.02-10.79c-9.09-4.08-18.12-8.28-27.16-12.45,0,0,0,.04,0,.05h0Z"/><path class="cls-4" d="M864.35,424.82c4.11-.17,8.25-.95,12.33-1.47,4.11-.52,8.23-1.01,12.34-1.54,8.23-1.06,16.45-2.1,24.68-3.1,16.46-2.01,32.94-3.89,49.44-5.65,4.62-.49,9.24-.98,13.86-1.45s9.3-.72,13.86-1.62c.03,0,0-.49-.01-.49-4.14,.01-8.27,.61-12.38,1.04s-8.25,.87-12.37,1.32c-8.25,.89-16.49,1.82-24.73,2.77-16.48,1.91-32.95,3.94-49.4,6.1-4.61,.6-9.21,1.26-13.81,1.92s-9.3,1.05-13.8,2.11c0,0,0,.05,0,.05h0Z"/><path class="cls-4" d="M1053.82,439.15c-1.68-2.86-4.05-5.19-6.95-6.8,.05,.03-.06,.35,0,.39,12.96,8.97,27.69,15.12,43.26,17.66,0,0,.03-.33,0-.34-15.4-3-30.24-8.94-43.26-17.71v.39c2.89,1.5,5.26,3.69,6.95,6.46,0-.01,0-.04,0-.05h0Z"/><path class="cls-4" d="M1061.53,429.86c8.73,5.74,18.08,10.73,27.95,14.21-.01,0,.02-.18,0-.2-9.69-3.95-19.09-8.46-27.95-14.06,0,0,0,.04,0,.05h0Z"/><path class="cls-4" d="M1075.17,424.14c2.91,3.46,7.38,5.45,11.91,5.07,0,0,0-.15,0-.15-4.47,.24-8.97-1.56-11.9-4.97,0,0,0,.04,0,.05h0Z"/><path class="cls-4" d="M986.01,371.6c-2.83,.7-6.03,.68-8.93,.83s-5.98,.24-8.97,.23c-5.98,0-11.96-.42-17.89-1.21,0,0,0,.14,0,.15,5.93,.83,11.91,1.29,17.89,1.33,2.91,.02,5.82-.07,8.73-.28,1.53-.11,3.06-.25,4.59-.41s3.06-.49,4.58-.51c0,0,0-.12,0-.12h0Z"/><path class="cls-4" d="M302.32,401.29c1.2,.87,2.25,1.79,3.62,2.42s2.75,1,4.19,1.23c3.07,.5,6.19,.3,9.26-.04,3.48-.39,6.94-.96,10.44-1.21,3.94-.28,7.9-.28,11.85,.01,4.5,.33,8.94,1.06,13.33,2.09,0,0,.02-.14,0-.15-9.79-2.48-20.02-3-30.03-1.73-3.98,.51-7.96,1.12-11.98,1.04-3.66-.07-8.15-.86-10.69-3.79,0,0-.03,.1,0,.12h0Z"/><path class="cls-4" d="M394.82,398.76c1.92,.42,3.77,1.17,5.69,1.6s3.87,.75,5.83,.97c4.03,.46,8.1,.54,12.15,.4,8.42-.28,16.82-1.16,25.21-1.82,17.42-1.38,34.83-2.77,52.25-4.15l29.36-2.33s0-.15,0-.15c-17.42,1.37-34.83,2.73-52.25,4.1l-26.13,2.05c-8.48,.67-16.96,1.47-25.45,1.92-4.44,.24-8.9,.34-13.33,0-2.27-.17-4.53-.45-6.76-.89s-4.59-.87-6.58-1.85c0,0-.02,.12,0,.12h0Z"/><path class="cls-4" d="M616.57,401.68c28.52,2.8,57.16,3.85,85.81,3.87,28.68,.02,57.35-.99,85.99-2.39,28.85-1.41,57.67-3.23,86.51-4.83,28.67-1.58,57.35-2.95,86.06-3.47s57.32-.15,85.93,1.56c3.58,.21,7.15,.45,10.73,.71,0,0,.01-.24,0-.24-28.58-2.23-57.25-2.86-85.91-2.55-28.7,.3-57.39,1.53-86.05,3.06-28.84,1.54-57.67,3.37-86.51,4.89-28.65,1.5-57.32,2.68-86.01,2.92-28.63,.23-57.27-.54-85.83-2.69-3.57-.27-7.14-.56-10.71-.88,0,0,0,.05,0,.05h0Z"/><path class="cls-4" d="M1051.18,387.5c2.14-.18,4.29-.04,6.44-.27s4.12-.57,6.15-1c4-.84,7.96-1.93,11.89-3.07,7.72-2.23,15.33-4.83,22.91-7.48,15.04-5.25,30.05-10.75,45.62-14.26,8.69-1.96,17.52-3.26,26.43-3.53,0,0,0-.2,0-.2-15.87,.49-31.37,4.24-46.45,9s-30.2,10.59-45.49,15.33c-4.3,1.33-8.64,2.61-13.02,3.66-2.34,.56-4.69,1.04-7.07,1.36s-5.04,.71-7.4,.32c0,0,0,.13,0,.12h0Z"/><path class="cls-4" d="M1170.72,360.03c-2.61,1.06-5.55,1.58-8.27,2.34s-5.35,1.5-8.02,2.26c-5.42,1.54-10.83,3.14-16.23,4.78-10.8,3.28-21.56,6.68-32.28,10.21-6.06,1.99-12.1,4.03-18.14,6.1-.02,0,.01,.14,0,.15,21.35-7.31,42.89-14.02,64.52-20.44,2.98-.88,5.97-1.76,8.96-2.62,1.57-.46,3.15-.91,4.72-1.36s3.13-1.04,4.73-1.28c.01,0,0-.12,0-.12h0Z"/><path class="cls-4" d="M646.71,352.3c11.26,21.19,12.15,45.91,9.18,69.26-.4,3.14-.87,6.27-1.4,9.39-.26,1.55-.54,3.1-.83,4.65-.17,.88-.21,1.95-.83,2.66-.36,.41-1.22,1.15-1.56,.26,0-.02-.02,.1,0,.13,.27,.72,.94,.38,1.38-.03,.89-.84,.91-2.19,1.12-3.32,.58-3.09,1.11-6.2,1.57-9.31,.93-6.27,1.6-12.57,1.9-18.9,.55-11.79-.15-23.73-3.02-35.21-1.7-6.82-4.19-13.43-7.51-19.63,0,0,0,.03,0,.05h0Z"/><path class="cls-4" d="M654.24,345.98c8.05,10.48,13.67,22.76,16.44,35.68,1.49,6.93,2.16,14.03,1.96,21.12-.22,7.45-1.64,14.69-3.16,21.96-1.55,7.41-3,14.9-2.57,22.51,0,.07,.01,0,.01-.03-.47-8.51,1.43-16.84,3.16-25.11,1.38-6.65,2.48-13.29,2.61-20.1,.25-12.53-2.18-25.12-7.07-36.67-2.94-6.93-6.76-13.46-11.38-19.41,0,0,0,.04,0,.05h0Z"/><path class="cls-4" d="M846.12,358.75c11.76,10.08,17.25,26.54,14.65,41.73-.71,4.16-2.05,8.19-3.96,11.95-.01,.02,.01,.09,0,.09,7-13.64,5.86-30.8-2.1-43.79-2.32-3.78-5.21-7.17-8.6-10.04,0,0,0,.04,0,.05h0Z"/><path class="cls-4" d="M854.57,360.52c-.23-.37-.56-.81-.68-1.23-.16-.56,.31,.3,.42,.46,.55,.75,1.08,1.51,1.59,2.29,1.06,1.61,2.04,3.26,2.94,4.97,1.75,3.31,3.23,6.76,4.36,10.33,2.54,7.98,3.47,16.48,2.64,24.81-.45,4.52-1.41,8.97-2.87,13.27-.02,.05,.02,.16,.01,.19,4.99-14.51,4.05-30.86-2.16-44.86-1.9-4.29-4.34-8.32-7.24-12.01,0,0,0,.04,0,.05,.33,.61,.68,1.21,.97,1.84,0-.02,.02-.09,0-.12h0Z"/><path class="cls-4" d="M445.71,365.08c-1.79,.54-3.18,1.24-3.82,3.12-.02,.05-.04,.22,0,.26,2.99,2.81,4.51,6.64,5.45,10.55,1.05,4.36,1.74,8.85,2.44,13.27,1.65,10.33,2.43,20.89-.35,31.1-.02,.06,.02,.29,.03,.25,2.12-7.43,2.24-15.24,1.53-22.88-.39-4.18-1.02-8.33-1.74-12.46-.64-3.64-1.2-7.34-2.18-10.91s-2.42-6.81-5.2-9.19v.27c.53-1.59,2.01-3.28,3.82-3.26,.02,0,0-.13,0-.12h0Z"/><path class="cls-4" d="M445.72,374.79c-.67-.49-1.23-1.07-1.65-1.79-.23-.4-.42-.84-.56-1.28-.21-.67-.52-3.67,.44-3.15,.53,.29,1.09,1.55,1.42,2.06,.54,.81,1.06,1.64,1.56,2.47,1.79,2.98,3.35,6.11,4.66,9.33,2.77,6.82,4.47,14.07,4.94,21.42,.3,4.67,.08,9.36-.6,13.99,0,.02,.01,.16,.02,.1,2.03-13.34-.09-27.3-5.96-39.45-1.8-3.72-3.95-7.26-6.41-10.58h0c-.87,2.53-.05,5.34,2.15,6.92,0,0,0-.04,0-.05h0Z"/></g></svg>