<?xml version="1.0" encoding="UTF-8"?><svg id="Layer_1" xmlns="http://www.w3.org/2000/svg" viewBox="0 0 1500 750"><defs><style>.cls-1{fill:#495954;}.cls-2{fill:#c4a181;}.cls-3{fill:#768b84;}.cls-4{fill:#c2d8d0;}.cls-5{fill:#231f20;}</style></defs><g><path class="cls-2" d="M502.51,294.71c-11.78,2.95-23.45,6.34-34.97,10.19-11.43,3.82-22.82,7.75-34.04,12.17l.1,4.13c2.25-1.46,4.77-2.45,7.23-3.5s4.97-2.29,7.48-3.39c5.1-2.23,10.18-4.52,15.34-6.62,10.62-4.32,21.57-7.73,32.65-10.64,6.28-1.65,12.62-3.04,18.97-4.38l-.25-10.14c-22.19,4.87-43.79,13.29-63.81,23.97-2.78,1.48-5.53,3.02-8.25,4.6-.72,.42-1.52,.79-2.15,1.33-.82,.7-1.44,1.76-2.11,2.6-1.38,1.73-2.79,3.43-4.19,5.14-.19,.23-.07,2.58,.06,2.57,1.2-.07,2.39-.11,3.59-.13,1.44-.02,2.58,.27,3.86-.49,2.48-1.46,4.97-2.88,7.5-4.25,4.96-2.71,10.01-5.26,15.14-7.64,10.34-4.81,20.99-8.94,31.86-12.36,6.19-1.95,12.46-3.62,18.76-5.2,.6-.15,.28-4.55,.27-5.08-.01-.37-.26-5.12-.52-5.06-11.17,2.71-22.34,5.53-33.3,8.99-10.9,3.45-21.83,7.42-31.72,13.23-2.9,1.7-5.76,3.56-8.42,5.61s-5.3,4.59-8.08,6.7c-.34,.26-.15,1.7-.14,2.07,0,.16,.19,2.09,.24,2.06,11.1-5.47,22.38-10.57,33.97-14.9s23.15-8.13,34.93-11.54c0,0,0-.05,0-.05h0Z"/><path class="cls-3" d="M1211.34,251.23s-84.31,13.25-122.99,27.51c-38.68,14.26-113.22,59.33-113.22,59.33,0,0-39.04-18.06-44.38-23.64-5.35-5.58-2.19-11.19-7.56-14.21-5.36-3.01-38.66,9.16-44.35,7.66-5.68-1.5-87.6-18.98-108.28-23.8-6.48-1.51-25.14-3.58-48.43-5.68l7.46-4.54c-35.4-9.21-44.48-51.04-44.99-65.79-.51-14.75,6.37-41.47,6.37-41.47-32.06,7.74-51.77,34.01-70.29,58.32-12.83,16.84-30.93,33.36-44.19,45.15-32.03,4.91-134.55,37.45-164.46,50.96-32.08,14.49-67.82,31.1-84.79,38.68-43.63,19.5,40.65,25.59,37.21,32.08s133.01,40.31,134.59,41.84c.39,.38,5.65,.46,13.9,.48,3.57,22.43,8.18,51.58,10.13,64.53,3.39,22.52,22.43,88.53,33.7,82.44,.57-.31,1.11-.69,1.62-1.11,.07,1.01,.24,3.32,1.17,3.45,3.15,.45,4.96-2.54,5.98-5.38,.13,.36,.28,.7,.5,.96,1.04,1.29,1.44-1.51,1.5-2.14,.61-6.22,1.19-12.44,1.98-18.64,.11-.84,.15-1.76,.14-2.69,.01-.06,.03-.12,.04-.17,1.18-5.03,1.94-10.12,2.19-15.29,.09-1.86,.15-3.79,.14-5.75,1.62-7.29,3.61-15.15,6.3-23.41,11.62-35.63,35.61-62.93,40.57-71.99,37.49,7.09,147.63-18.56,147.63-18.56,0,0,14.33,5.37,27.68,20.54,13.35,15.17,23.83,33.58,23.09,10.78-.73-22.8,29.24-37.76,29.24-37.76l-3.52-1.44c.14-.47,.42-.94,.65-1.32,.17-.29,.06-.97,.05-1.28,0-.13-.17-.97-.13-1.01-.1,.12-.34,.51-.48,.61-.08,.11-.14,.23-.2,.35-.22-.2-.44-.41-.67-.61-.63-.64-1-1.07-1.94-1.06-.72,0-1.56,.33-2.27,.22-.75-.12-1.61-.77-2.3-1.1-1.09-.53-2.19-1.05-3.28-1.58-.82-.76-1.39-1.75-2.12-2.61,17.11,2.38,37.57-8.95,55.89-7.65,8.58,3.59,17.17,7.17,25.75,10.78,6.85,2.89,13.92,6.14,18.5,12.25l.11-.19c.04-.19,.06-.38,.09-.57l.06,.06-.05-.13c.29-1.78,.29-3.57,.56-5.35,.25-1.7,.5-3.41,.75-5.11,.09-.62,.05-1.29,0-1.91-.01-.16-.14-.98-.17-.88-.3,.93-.54,1.83-1.07,2.59-.06,.08-.13,.18-.21,.28-.02-.9-.06-1.79-.16-2.68-.04-.32-.01-.98-.27-1.2-1.88-1.63-4.12-2.82-6.43-3.87l-.51-1.33s.87-.55,2.31-1.42c5.4-3.28,18.79-11.1,23.96-11.36,6.55-.34-6.55,.34-10.25-2.7s40.18-8.97,40.18-8.97c-2.26,43.84,88.69,73.97,88.69,73.97,0,0,2.37-13.25-8.41-29.9-10.78-16.65-9.29-38.31,2.82-61.03,12.11-22.72,99.29-72.34,99.29-72.34,0,0,7.58,5.54,11.44,7.41,3.85,1.87,27.77-29.78,33.03-32.33,5.26-2.55,5.09-8.31,5.09-8.31Zm-402.68,142.39c.18-.39,.41-.75,.68-1.07,.29,.11,.63,.27,1.05,.5,.06,.63,.14,1.24,.31,1.82,.16,.57,.37,1.09,.6,1.59-.08-.04-.16-.06-.24-.1-.27-.14-.52-.3-.77-.48-.68-.84-1.27-1.64-1.64-2.27Z"/><path class="cls-4" d="M373.94,378.71c-2.26-.32-4.01-1.1-5.68-2.65l-.13,2.31c4.63,2.45,10.86,1.91,16.02,2.26,6.3,.42,12.59,.91,18.88,1.47,12.25,1.09,24.49,2.26,36.77,3,11.91,.72,23.83,1.31,35.75,1.89,6.29,.31,12.57,.57,18.86,.67,2.98,.05,5.95-.07,8.92-.41,1.3-.15,7.32-2.14,7.92-1.73l-.25-4.22-.69,.78c-.71,.29-.67,3.53,.09,3.73,2.11,.55,1.75-3.57,1.48-4.75-1.18-5.22-8.5-5.06-12.8-5.61-14.33-1.81-29.25-1.09-43.67-1.31s-29.08-.08-43.63,.26c-6.94,.17-13.88,.42-20.82,.43-3.64,0-7.27,0-10.91,.01-3.88,0-8.34-.5-11.87,1.17-.48,.22-.51,2.1-.04,2.35,1.94,1.06,3.59,1.58,5.84,1.58,.26,0,.26-1.2-.03-1.24h0Z"/><path class="cls-4" d="M508.29,391.74c-2.45,3.72-6.91,3.92-10.97,3.67-5.76-.36-11.5-1.18-17.24-1.7-11.95-1.09-23.91-1.75-35.89-2.4-23.85-1.3-47.83-2.56-71.72-2.07-.53,.01-.53,2.67,.07,2.74,15.95,1.84,31.19,5.71,47.4,4.86,.77-.04,.72-3.79-.1-3.96-8.46-1.75-17-2.87-25.56-3.99-6.83-.89-15.22-.78-20.54-5.77l-.08,5.92c8.01,0,16.03,.27,24.02,.86s16.02,2.56,23.86,2.48l-.13-5.49c-3.42,.88-6.46,1.53-10,1.85-.49,.04-.43,2.39,.06,2.41,3.54,.11,6.61,.56,10.08,1.24,.83,.16,1.14-5.08-.13-5.49-7.4-2.41-16.15-2.58-23.88-3.17s-16-.82-24.02-.7c-1.35,.02-.78,5.28-.08,5.92,5.11,4.67,12.51,4.65,19.02,5.39,9.15,1.05,18.28,2.15,27.48,2.5l-.1-3.96c-15.57,1.97-32.37,1.15-47.37-3.64l.07,2.74c24.47,2.89,49.19,3.97,73.78,5.03,11.96,.51,23.89,1.01,35.86,1.02,5.67,0,11.53,.39,17.17-.19,3.76-.38,7.08-1.41,9.06-4.83,.17-.29-.08-1.32-.12-1.27h0Z"/><path class="cls-4" d="M367.76,387.34c21.26,11.71,45.59,18.96,69.03,24.89,11.9,3.01,23.88,5.4,35.96,7.52,6.17,1.08,12.34,2.08,18.53,3.02s12.48,1.31,18.53,2.74c3.63,.86,1.12-17.4-.89-15.31-1.22,1.27-2.64,2.68-4.6,2.7-.72,0-.34,3.06-.03,3.43,1.99,2.36,3.29,5.34,4.52,8.14l.62-14.56c-6.19-.18-12.37-1.49-18.52-2.26s-11.73-1.45-17.59-2.19c-11.98-1.5-23.96-3.12-35.91-4.85-11.52-1.67-23.02-3.5-34.42-5.91s-23.46-5.98-35.21-8.87c-.25-.06-.29,1.38-.02,1.53h0Z"/><path class="cls-4" d="M504.34,422.16c-18.52-2.24-37.42-5.64-55.59-9.89-18.23-4.26-36.18-10.01-53.42-17.31-.59-.25-1.45,5.75-.09,6.44,17.82,8.91,36.55,16.29,55.65,21.96,9.66,2.87,19.43,5.32,29.37,6.96,6.25,1.03,19.02,4.41,21.23-4.05,.15-.58-.26-5.24-.78-4.59-1.38,1.72-9.75-1.66-11.74-1.99-4.18-.69-8.39-1.22-12.58-1.81-9.21-1.28-18.42-2.84-27.5-4.85-18.44-4.07-36.13-10.14-53.32-17.96l-.09,6.44c17.36,6.98,35.1,12.68,53.4,16.64,8.95,1.94,18.03,3.68,27.14,4.66s18.87,.75,28.33,.58c.2,0,.2-1.21-.03-1.24h0Z"/><path class="cls-4" d="M439.93,397.69c-12.46-4.98-27.14-10.06-36.76-19.59l-.33,6.1c4.25,2.39,9.66,2.8,14.42,3.71,5.68,1.09,11.38,2.09,17.09,3.03,11.11,1.83,22.26,3.33,33.43,4.71,22.55,2.77,45.22,4.82,67.86,6.65,45.98,3.72,92.02,6.45,138.1,8.56,12.55,.58,25.21,1.55,37.77,1.16,13.37-.41,26.39-2.18,39.67-3.25l-.12-4.81c-5.22,1.71-9.85,2.99-15.32,3.68-5.13,.65-10.27,1.12-15.43,1.48-10.64,.74-21.33,1.1-32,1.32-21.09,.42-42.21-.24-63.28-1.25-42.24-2.03-84.46-5.26-126.56-9.22-21.83-2.05-44.35-3.54-65.02-11.42-.18-.07-.47,1.93,.05,2.17,18.09,8.38,37.62,10.95,57.25,13.18,21.22,2.41,42.48,4.61,63.77,6.21,41.88,3.16,84.1,6.19,126.12,5,11.68-.33,23.3-1.04,34.91-2.38,5.8-.67,11.58-1.5,17.36-2.31,6.22-.88,12-1.43,18.26-1.64,.74-.02,.75-4.69-.12-4.81-11.69-1.71-23.15-4.16-34.91-5.56s-22.53-1.77-33.83-2.3c-22.87-1.05-45.73-2.25-68.58-3.58-45.56-2.66-91.12-5.35-136.68-8.03-12.1-.71-24.2-1.29-36.27-2.31-6.34-.54-12.68-1.15-18.99-1.96-5.82-.75-13.1-3.19-18.86-2.23-1.32,.22-1.18,6.15,.16,6.32,6.78,.83,12.73,4.65,18.91,7.41s11.9,5.04,17.97,7.28c.1,.04,.29-1.19-.03-1.32h0Z"/><path class="cls-4" d="M411.21,384.21c36.34,16.95,77.08,23.36,116.48,28.78,41.5,5.7,83.47,10.25,125.34,11.85,23.92,.92,48.21-1.68,71.43-7.52,.62-.16,.46-3.5-.09-3.49-20.99,.08-41.86-1.08-62.82-1.94-20.96-.86-41.88-1.99-62.8-3.52-40.92-2.99-81.99-6.54-122.67-11.99-21.96-2.94-43.51-7.57-64.86-13.47-.18-.05-.27,1.18-.02,1.3h0Z"/><path class="cls-4" d="M718.62,413.16c-15.23,5.06-32.52,5.31-48.44,5.66-17.04,.38-34.1-.24-51.11-1.21-34.01-1.95-67.74-6.74-101.65-9.67-18.28-1.58-36.63-3.8-54.26-9.07-.21-.06-.39,1.82,.05,2.02,30.86,14.13,63.72,18.6,97.13,22.11s68.74,6.45,103.16,3.47c18.53-1.6,38.31-3.55,55.15-11.98,.27-.13,.09-1.36-.03-1.32h0Z"/><path class="cls-4" d="M462.94,401.23c31.14,10.16,63.95,13.18,96.42,15.92,34.46,2.91,68.95,5.77,103.51,7.23,19.45,.82,38.9,1.01,58.36,.55,.26,0,.23-1.56-.04-1.55-34.3,.33-68.63-1.19-102.84-3.52-33.74-2.3-67.69-4.43-101.24-8.78-18.31-2.37-36.48-5.86-54.2-11.09-.13-.04-.28,1.14,.03,1.24h0Z"/><path class="cls-4" d="M681.51,427.96c-11.8,2.05-23.69,4.12-35.7,4.02-5.59-.05-11.03-.77-16.54-1.66-5.09-.82-9.99-1.37-14.82,.78-.38,.17-.37,2.09,.05,2.14,13.91,1.78,27.39,1.44,41.36,.71s27.11-1.01,40.66-1.97,26.34-2.3,39.44-4.06,24.63-3.3,36.21-8.49c2.52-1.13,2.34-12.58,.11-14-4.77-3.04-9.02-.04-13.49,2.22-5.49,2.78-11.53,3.98-17.56,4.94-13.17,2.09-26.42,3.7-39.69,5-27.03,2.65-54.44,3.17-81.18,8.23-.92,.17-.8,4.69,.12,4.89,26.42,5.76,53.74,4.36,80.45,1.9,13.02-1.2,26.01-2.73,38.94-4.66,6.02-.9,12.13-1.87,17.73-4.37,4.62-2.06,9.31-6.34,14.57-4.16l-.8-13.98c-10.24,7.03-24.75,8.14-36.67,10.18-13.1,2.24-26.25,4.14-39.39,6.11-26.66,3.99-53.77,9.92-80.86,9.36l.05,2.14c4.52-2.21,9.13-2.08,14-1.37,5.79,.85,11.47,1.67,17.35,1.67,12.02,.02,23.91-2.13,35.7-4.26,.27-.05,.14-1.35-.03-1.32h0Z"/><path class="cls-4" d="M679.4,418.1l-2.91,1.81c-.29,.18-.21,1.96,.11,1.9,39.08-6.23,77.81-14.93,116.79-21.81,19.26-3.4,38.6-6.19,57.95-9.01,9.83-1.43,19.71-2.67,29.47-4.54,10.1-1.94,19.61-5.48,29.37-8.62l-.11-4.42c-9.55,3.6-19.18,5.53-29.11,7.72-9.24,2.04-18.44,4.29-27.7,6.25-18.57,3.92-37.28,7.23-56.01,10.33s-38.7,6.19-57.99,9.66c-9.72,1.75-19.41,3.61-29.08,5.61-10.3,2.14-20.59,5.01-31.01,6.41-.97,.13-.73,4.88,.12,4.83,39.13-2.34,78.3-8.93,116.81-16.01,19.08-3.51,38.1-7.36,57.03-11.59,16.96-3.79,36.5-6.43,50.86-16.9,.67-.49,.59-5.28-.3-5.2-9.04,.82-18.05,3.79-26.81,6.05l-27.88,7.18c-17.91,4.61-35.82,9.12-53.85,13.25s-35.08,8.37-52.69,12.29c-18.2,4.05-36.48,8.26-55.05,10.23-.66,.07-.57,3.48,.09,3.49,18.6,.52,36.99-1.1,55.17-5.07,17.78-3.87,35.22-9.11,52.64-14.33,17.86-5.34,35.8-10.32,53.8-15.2l26.91-7.3c9.1-2.47,18.25-5.87,27.8-5.3l-.3-5.2c-7.66,4.84-16.64,7.02-25.29,9.36-9.31,2.52-18.68,4.84-28.07,7.02-18.6,4.32-37.35,8.08-56.12,11.56-38.13,7.07-76.47,11.62-114.86,16.83l.12,4.83c10.19-2.16,20.74-2.9,31.06-4.34,9.73-1.35,19.42-2.85,29.11-4.46,19.36-3.23,38.66-6.91,57.97-10.43,18.7-3.41,37.42-6.72,56-10.78,9.29-2.03,18.58-4.12,27.68-6.87,9.78-2.95,19.24-6.7,29.07-9.51,.83-.24,.57-4.47-.11-4.42-9.9,.66-19.75,.76-29.51,2.78-9.86,2.04-19.62,4.5-29.41,6.86-19.24,4.65-38.47,9.33-57.84,13.41-38.82,8.18-78.07,14.61-116.75,23.42l.11,1.9,2.89-2.03c.32-.22,.08-1.8-.16-1.64h0Z"/><path class="cls-4" d="M397.2,376.4c93.85,2.34,187.74,3.61,281.62,4.86,26.63,.36,53.26,.67,79.89,.83,.25,0,.25-1.55-.04-1.55-93.87-1.56-187.75-2.53-281.62-4.17-26.63-.47-53.25-.91-79.88-1.29-.27,0-.27,1.31,.03,1.32h0Z"/><path class="cls-4" d="M528.59,386.06c-4.66-.78-8.73-2.67-12.19-5.9l-.02,1.57c25.75,5.24,52.65,5.67,78.84,5.93,26.32,.25,52.66-.09,78.97-.91,53.3-1.66,106.56-7.04,159.57-12.58,15.07-1.57,30.2-2.99,45.2-5.18s30.2-6.55,45.04-10.6c.76-.21,.6-4.17-.1-4.19-13.48-.32-26.89-.45-40.37,.16s-26.94,3-40.28,4.71c-26.19,3.37-52.41,6.56-78.66,9.43-53.06,5.79-106.38,11.03-159.71,13.37-29.69,1.31-58.93,1-88.52-1.74-.34-.03-.22,1.4-.02,1.57,3.71,3.05,7.54,4.89,12.3,5.6,.18,.03,.26-1.19-.03-1.24h0Z"/><path class="cls-4" d="M916.72,369.63c-22.78,4.26-46.51,4.48-69.59,5.86-23.77,1.42-47.54,3-71.3,4.58-46.39,3.09-92.72,7.49-139.19,9.23-12.57,.47-25.15,1.48-37.73,1.2-12.75-.29-25.47-1.76-38.01-4.04-.37-.07-.53,2.52,.07,2.72,21.62,7.05,44.76,11.05,67.45,12.52s46.18-.6,68.99-2.62c47.15-4.18,94.09-10.52,140.96-17.06,13.19-1.84,26.37-3.72,39.57-5.47s26.06-2.72,38.83-5.59c.27-.06,.13-1.35-.03-1.32h0Z"/><path class="cls-4" d="M550.18,392.49c48.05,7.91,97.04,8.11,145.6,7.82,47.99-.28,96.09-2.37,143.65-9.12,27-3.83,54.09-7.86,78.32-21.02,.51-.28,.27-2.95-.07-2.87-11.4,2.7-23.21,3.34-34.74,5.45s-23.42,4.28-35.18,6.08c-23.59,3.62-47.26,6.25-71.02,8.46-47.99,4.46-96.43,7.42-144.63,8.29-27.43,.49-54.75-.52-81.95-4.32-.19-.03-.27,1.19,.03,1.24h0Z"/><path class="cls-4" d="M905.43,371.51c-31.18,9.03-64.03,9.86-96.1,13.43-33.44,3.72-66.7,8.7-100,13.4-18.61,2.63-37.42,4.76-56.24,4.76-.39,0-.4,2.14,.05,2.17,33.37,2.24,66.34-4.38,99.16-9.43s66.18-9.08,99.42-12.87c18.15-2.07,36.24-4.78,53.75-10.14,.29-.09,.09-1.36-.03-1.32h0Z"/><path class="cls-4" d="M655.88,405.15c6.98,3.96,14.77,4.24,22.61,3.96,9.68-.34,19.34-1,29.01-1.56,19.18-1.11,38.33-2.4,57.47-4.09,19.13-1.69,38.21-3.89,57.14-7.17,19.55-3.39,38.63-8.98,57.54-14.91,.68-.21,.44-3.48-.08-3.42-18.62,2.29-37.29,4.22-55.79,7.36-19.04,3.23-38.02,6.84-57.05,10.12-18.73,3.23-37.53,5.94-56.39,8.25-9.4,1.15-18.85,2-28.29,2.82-8.85,.77-17.94,1.6-26.1-2.64-.21-.11-.33,1.12-.06,1.27h0Z"/><path class="cls-4" d="M751.28,401.98c-20.28,3.58-41.55,5.8-62.15,4.31l.04,1.71c34.65-7.4,69.11-14.59,104.21-19.65,35.14-5.07,70.23-10.09,105.5-14.18,9.66-1.12,19.29-2.43,28.9-3.89,10.26-1.55,20.82-2.8,30.84-5.54,.68-.19,.6-3.57-.09-3.65-17.21-2.08-35.99-.73-53.19,1.12-17.69,1.9-35.3,4.31-52.89,7.01-35.35,5.44-70.18,13.13-104.87,21.76-19.52,4.86-39.18,9.57-58.46,15.3-.35,.1-.3,1.72,.04,1.71,20.97-.18,41.43-.96,62.14-4.7,.29-.05,.16-1.35-.03-1.32h0Z"/><path class="cls-4" d="M753.39,383.52l-15.32,1.42c-.26,.02-.19,1.26,.03,1.24l15.32-1.42c.25-.02,.18-1.26-.03-1.24h0Z"/><path class="cls-4" d="M762.36,379.33c36.47-7.05,73.25-11.86,110.33-14.1,37.11-2.25,74.24-1.3,111.34-3.1,.37-.02,.37-2.35-.06-2.41-36.75-4.62-74.63-2.27-111.38,1.4-37,3.7-73.87,9.33-110.26,16.97-.29,.06-.17,1.28,.03,1.24h0Z"/><path class="cls-4" d="M980.94,366.42c-40.18,1.99-80.16,8.32-119.92,14.17s-79.76,12.71-119.79,17.73c-.48,.06-.37,2.35,.06,2.33,40.36-2.35,80.05-8.38,119.85-15.27s79.66-13.05,119.83-17.63c.24-.03,.18-1.33-.03-1.32h0Z"/><path class="cls-4" d="M745.55,407.74c37.1-5.21,74.19-10.43,111.35-15.2,18.41-2.37,36.79-4.91,55.19-7.4,9.21-1.25,18.4-2.57,27.59-3.95,8.65-1.3,17.86-1.91,25.86-5.69,1.48-.7,.2-6.38-.15-6.22-4.54,2.09-9.58,3.38-13.95,5.62l.82,6.4c.18-2.16,1.13-3.64,2.84-4.42,.31-.19,.26-2.24-.13-2.21-1.29,.09-2.25,.3-3.54,.24-1.69-.09-.7,7.85,.18,7.51,4.79-1.85,9.17-4.83,13.92-6.91l-.15-6.22c-7.73,3.48-16.59,4-24.89,5.25-9.2,1.38-18.39,2.82-27.58,4.34-18.71,3.09-37.44,6.14-56.13,9.36-37.05,6.39-74.16,12.34-111.27,18.29-.28,.05-.19,1.27,.03,1.24h0Z"/><path class="cls-4" d="M962,374.06c-84.61,10.07-168.75,27.49-250.86,50.17-23.55,6.5-46.99,13.44-70.3,20.77-.47,.15-.18,2.09,.05,2.02,81.68-24.55,164.94-44.36,248.86-59.54,24.03-4.35,48.16-8.24,72.27-12.09,.26-.04,.16-1.34-.03-1.32h0Z"/><path class="cls-4" d="M498.18,428.66c1.4-1.51,2.95-2.22,5-2.32,.41-.02,.37-2-.05-2-10.14-.09-20.08-1.18-29.64-4.7-.48-.18-.94,3.72-.06,4.12,5.1,2.29,10.03,1.89,15.04-.51,.54-.26,.31-2.52-.06-2.41-5.1,1.54-10.06,.88-14.92-1.2l.1,4.19c9.62,3.34,19.57,4.64,29.59,2.51l-.05-2c-2.37,.43-3.59,1.17-5.08,3.05-.2,.26,.02,1.39,.13,1.27h0Z"/><path class="cls-4" d="M419.38,397.23c-2.38-1.14-4.78-1.56-7.3-2.3-.48-.14-.31,2.1-.04,2.36,4.2,4.17,11.91,4.63,17.56,5.71,6.45,1.23,12.91,2.41,19.4,3.4,5.7,.87,11.43,1.53,17.11,2.51,2.58,.45,5.14,1,7.63,1.83s4.93,2.66,7.51,2.82l-.56-8.71-3.21,.65c-.64-.28-.44,2.18-.24,2.49,.55,.87,3.33,4.97,3.34,4.97,1.05,1.95,1.72-1.55,1.8-2.17,.23-1.85,.16-4.4-.99-5.97-5.91-8.07-21.84-6.86-30.67-7.76-6.46-.65-12.92-1.28-19.37-1.99-5.46-.6-14.59-3.25-19.35-.12l.15,2.36c2.58-.5,4.74,.16,7.17,1.17,.28,.11,.36-1.14,.08-1.28h0Z"/><path class="cls-4" d="M445.19,399.78c-9.56-.82-22.56-1.51-29.75-8.65l-.39,7.02c6.98,3.91,16.84,4.4,24.65,5.73,8.81,1.5,17.64,2.8,26.53,3.77,17.99,1.95,35.49,1.65,53.46-.39,.64-.07,.57-3.06-.08-3.11-17.54-1.12-35.15-2.78-52.63-4.63-8.56-.91-17.11-2.06-25.6-3.55-4.41-.78-8.8-1.68-13.17-2.63s-8.79-2.68-13.06-2.33c-1.56,.13-1.37,7.26,.18,7.27,4.77,.01,9.66,2,14.5,2.4,5.11,.42,10.28,.38,15.4,.43,.26,0,.26-1.29-.03-1.32h0Z"/><path class="cls-4" d="M487.09,366.35c.22-2.69,.27-5.3,.15-7.99-.02-.39-.06-1.46-.6-1.54-5.51-.8-4.14,18.13-3.89,21.12,.76,9.28,3.43,18.65,9.86,25.61,.82,.89,.76-1.9,.61-2.27-2.65-6.42-4.9-13-6.37-19.8-1.39-6.43-2.94-15.65,.14-21.77l-.84-.91c.31,2.46,.47,4.91,.49,7.4,0,.51,.39,.89,.45,.15h0Z"/><path class="cls-4" d="M510.51,365.79l1.6,3.07,.63-8.35c-3.71,1.84-5.04,7.55-6.11,11.23-1.53,5.27-2.47,10.73-2.9,16.2s-.34,11.06,.79,16.44c.62,2.96,1.45,8.32,4.41,9.93,.72,.39,.94-1.16,.97-1.52,.48-7.11-.34-14.27,.13-21.39,.53-8.17,3.79-15.61,5.05-23.62,.28-1.76,.48-4.38-.45-6.03-.45-.8-1.59-2.31-2.32-.72,.66-1.42-2.44,3.51-1.79,4.76h0Z"/><path class="cls-4" d="M499.23,351.93c-6.19,9.02-7.2,23-7.23,33.58-.01,4.09,2.21,27.58,10.03,16.85,.57-.78,.77-3.96-.56-4.18-4.43-.74-2.99-13.39-2.74-16.63,.53-6.79,2.78-13.08,4.45-19.63,.42-1.65-.73-14.69-3.95-9.99h0Z"/><path class="cls-4" d="M529.17,373.04c-1.37-1.22-2.3-4.62-2.95-6.32-.49-1.28-1.19-2.45-2.63-1.84-3.49,1.47-5.03,8.63-6.14,12.01-1.43,4.35-2.47,8.83-3.11,13.36-1.15,8.15-1.19,17.93,2.72,25.45,.79,1.51,1.5-1.39,1.53-1.73,.53-6.15,1-12.31,2.05-18.41,1.19-6.98,4.77-13.03,6.22-19.86l-1.5,3.45c1.01-1.14,2.68-4.18,3.85-4.83,.32-.17,.19-1.07-.03-1.27h0Z"/><path class="cls-4" d="M534.58,377.05c-2-3.59-4.7,4.81-5.02,5.88-1.55,5.11-2.68,10.51-3.34,15.81-.38,3.11-1.46,18.2,5.28,15.5,1.06-.43,.6-3.28,.11-3.98-1.1,.43-1.24,.02-.4-1.23l.44-1.59c.41-1.8,.59-3.68,.84-5.51,.56-4.11,1.21-8.2,1.79-12.3,.55-3.84,2.04-9.46,.3-12.57h0Z"/><path class="cls-4" d="M567.03,379.41c43.76,.42,87.57-3.68,131.07-8.06,43.61-4.39,87.15-9.6,130.83-13.28,24.75-2.08,49.56-3.7,74.38-4.6,.31-.01,.27-1.56-.04-1.55-87.69,1.82-174.52,16.01-261.88,22.53-24.77,1.85-49.58,2.93-74.4,3.72-.28,0-.26,1.24,.03,1.24h0Z"/><path class="cls-4" d="M627.79,384l-7.34,1.15c-.39,.06-.28,1.67,.04,1.63,43.44-5.31,86.7-12.01,130.23-16.59s86.36-6.74,129.64-6.81c24.89-.05,49.78-.28,74.67,.48,.43,.01,.46-2.6-.06-2.64-43.95-3.65-87.73-4.22-131.75-1.44-43.31,2.73-86.39,8.09-129.33,14.28-24.5,3.53-49.01,7.09-73.44,11.11l.04,1.63,7.33-1.46c.32-.06,.22-1.36-.03-1.32h0Z"/><path class="cls-4" d="M872.7,391.5c-1.1-.66-2.2-1.32-3.3-1.98l-.08,4.62c6.67,.21,13.72-1.72,20.36-2.52s13.67-1.09,20.45-2.25l-.09-3.49c-5.96,1.57-12.12,2.25-18.2,3.16s-12.25,2.63-18.25,1.08c-.8-.21-1.34,5.38,.13,5.39,11.56,.06,23.44-.66,34.84,1.53l-.16-6.42c-6.48-.05-12.78,.7-19.17,1.61-1.13,.16-1.01,5.22,.13,5.41,4.88,.81,9.75,1.63,14.63,2.44,4.5,.74,9.74,.81,13.18,4.15l.09-6.28c-5.07-.71-10.84-1.7-14.65-5.3-1.46-1.38-1.96,3.73-1.99,4.22-.12,1.85-.3,5.93,1.37,7.31,3.68,3.06,8.71,4.96,12.89,7.33,2.84,1.61,7.66,6.6,10.9,5.8s1.51-10.24,.6-12.1c-2.32-4.79-6.72-6.88-11.43-8.99-3.73-1.67-8.7-3.93-12.79-3.77l.29,11.94c4.32-2.03,10.33-.56,14.97-.05,1.38,.15,.81-5.61,.09-6.28-3.23-3.01-7.64-3.16-11.83-3.71-5.48-.72-10.96-1.42-16.44-2.12l.13,5.41c6.36-.95,12.79-.93,19.2-.6,1.2,.06,1.27-6.09-.16-6.42-11.21-2.58-23.42-.9-34.82-.5l.35,5.29c5.66-3.14,12.6-3.29,18.92-4.14,5.74-.77,11.48-1.77,17.27-1.9,.74-.02,.7-3.32-.09-3.49-6.87-1.47-13.58-.94-20.51-.14s-14.06,1.35-20.33,3.69c-1.29,.48-.38,4.91,.12,4.7l3.35-1.42c.27-.11,.26-1.08,.02-1.22h0Z"/><path class="cls-4" d="M898.01,395.14c9.61,3.35,20.25,3.02,30.11,1.27,.49-.09,.43-2.23-.06-2.33-9.73-1.91-20.36-2.89-30.08-.26-.3,.08-.24,1.22,.03,1.32h0Z"/><path class="cls-4" d="M942.29,367.54c-1.91,.55-3.73,.83-5.71,.5-2.88-.48-5.82-1.93-2.23-3.64,1.63-.77,5.89-.04,7.76-.08l7.76-.17c10.35-.22,20.69-.46,31.03-.87,.37-.01,.34-1.63-.04-1.63-7.76,.04-15.52,.16-23.28,.34l-11.64,.28c-3.84,.09-8.45-.43-12.19,.44-1.72,.4-3.22,1.16-2.85,3.17,.81,4.39,8.6,3.76,11.41,2.9,.34-.1,.19-1.31-.03-1.24h0Z"/><path class="cls-4" d="M967.67,366.31c7.92-2.93,16.01-.21,23.62,2.49,.45,.16,.52-1.43,.12-1.58-7.74-2.96-15.78-5.49-23.84-2.2-.32,.13-.14,1.38,.1,1.29h0Z"/><path class="cls-4" d="M969.46,364.51c1.1-2.69,15.07,1.86,17.39,2.52,6.69,1.91,13.16,4.58,19.38,7.67,.35,.17,.46-1.3,.11-1.5-6.74-3.72-13.78-6.59-21.22-8.57-2.98-.8-14.59-4.88-16.01-1.04-.1,.28,.11,1.55,.36,.92h0Z"/><path class="cls-4" d="M970.73,362.47c.13,1.2,.8,2.01,2,2.45,1.06,.81,2.13,1.62,3.19,2.44,2.08,1.52,4.25,2.93,6.37,4.4,3.89,2.68,7.76,5.37,11.52,8.24s7.24,5.86,10.57,9.15c2.53,2.51,5.57,7.48,9.46,7.5,1.62,0,.93-4.86,.13-5.53-.33-.28-.43-.23-.91-.2-.86,.06-.53,2.33-.35,2.79l.06-.6,1.67-1.28c-3.5-8.45-12.51-15.35-20.01-20.21-3.9-2.53-8.17-4.67-12.49-6.39-3.05-1.21-8.2-3.9-11.54-3.35-.33,.06-.27,.82-.26,1.02l.03,.33c0,.1,.08,.53,.26,.51l.27-.03c.32-.04,.28-1.11,.03-1.22h0Z"/><path class="cls-4" d="M973.06,366.97c-2.27-1.08-4.6-1.98-6.35-3.93l-.44,3.42c6.47,5.86,15.92,9.24,23.34,13.94,7.3,4.63,14.33,9.73,20.52,15.77,1.45,1.42,2.35-2.81,2.43-3.3,.36-2.3,.11-4.91-1.04-6.95-2.08-3.68-6.03-5.84-9.49-8.11-3.79-2.49-7.7-4.82-11.72-6.92-6.38-3.34-16.49-9.23-23.95-8.08-1.06,.16-.73,3.88,.09,3.73,2.2-.42,4.56,.91,6.51,1.72,.34,.14,.4-1.13,.1-1.28h0Z"/><path class="cls-4" d="M1021.45,381.47c-1.89,1.03-2.95,2.07-4.04,3.91l.87,3.3c3.2-5.49,6.77-10.9,10.1-16.34,3.65-5.97,7.87-11.68,12.43-16.99,9.9-11.53,21.74-21.43,34.09-30.22,28.57-20.32,61.33-33.68,90.04-53.7,.48-.33,.52-3.14-.21-3.12-17.39,.47-34.92,6.96-50.26,14.79s-30.32,17.01-44.28,27.27c-25.37,18.65-49.85,43.42-53.11,76.17-.11,1.08,.81,3.72,1.46,1.44,.43-2.03,1.46-3.77,3.08-5.24,.19-.21,.24-1.49-.17-1.27h0Z"/><path class="cls-4" d="M1167.62,267.48c-32.5,5.3-62.74,23.8-87.1,45.45-27.6,24.53-48.8,54.08-66.38,86.39-.35,.63,.02,3.75,.7,2.73,19.19-28.55,40.59-56.73,66.05-80s54.66-40.48,86.75-53.25c.29-.11,.22-1.36-.03-1.32h0Z"/><path class="cls-4" d="M967.72,366.17l.48-2.44-.48,2.44c.36-.39,7.07,1.37,7.73,1.49,2.59,.47,5.15,.99,7.69,1.68,5.41,1.47,10.71,3.41,15.73,5.9,8.79,4.35,17.63,9.96,24.86,16.61,.67,.62,.82-2.54,.43-3.06-6.86-9.33-14.83-16.77-25.35-21.78-9.03-4.29-21.23-8.69-31.32-6.6-1.39,.29-1.11,3.35-.84,4.27l.18,.6c.06,.2,.47,1.34,.89,.88h0Z"/><path class="cls-4" d="M831.02,367.81l-2.41-.29,.04,1.53c16.45-2.54,32.72-6.01,49.26-8.04,17.02-2.09,34.18-2.97,51.32-2.6,16.87,.36,33.67,1.92,50.31,4.78,15.34,2.64,31.28,5.68,44.48,14.39,.73,.48,1.34-4.75,.27-5.61-1.26-1.01-.82-.86-2.25-1.11-.66-.11-.28,2.74-.14,3.04,1,2.14,.85,1.89,2.12,3.68l.27-5.61c-12.62-8.16-27.34-11.01-41.99-13.14-16.94-2.47-34.09-3.82-51.21-3.99-34.47-.33-69.01,4.59-102.47,12.69-.33,.08-.29,1.51,.04,1.53l2.4,.09c.26,0,.27-1.28-.03-1.32h0Z"/><path class="cls-4" d="M1021.68,372.57c-7.08-5.25-15.43-5.07-23.89-5.19-9.54-.13-19.05,.1-28.58,.42-19.36,.66-38.76,2.7-58.04,4.6-.51,.05-.41,2.51,.06,2.48,19.05-.96,38.07-.97,57.14-1.25,9.2-.14,18.4-.18,27.6-.35,8.61-.16,17.12,.52,25.7,.59,.25,0,.18-1.17,.01-1.3h0Z"/><path class="cls-4" d="M1015.07,376.59c-.45,.28-.9,.56-1.35,.84-.21,.13-.2,1.45,.09,1.45,2.23-.04,4.97-1.35,7.05-.83,.67,.17,.4-3.05,.17-3.39-3.05-4.58-9.28-1.69-12.58,1.21-1.61,1.41-1.91,13.36,.81,13.02,2.41-.3,4.78-.79,7.09-1.55s4.37-1.95,6.67-2.56c3.53-.94,1.17-13.66-.32-13.12-4.54,1.64-9.06,4.18-12.65,7.41-1.65,1.48-1.87,13.79,.84,13.26,3.19-.63,6.19-1.66,9.09-3.14l-1.9-9.55c-.23,1.08-2.51,1.71-3.35,2.33-1.09,.8-1.37,1.09-2.77,.78-.96-.22-1.86-.75-2.73-1.2s-.67,3.21-.21,3.75c1.14,1.35,2.31,2.53,3.63,3.7,.96,.85,2.1,2.63,3.41,2.92,2.48,.55,4-2.37,4.63-4.22,.39-1.13,.84-10.27-1.45-9.77-2.89,.63-5.73,.97-8.69,.89l.84,13.26c3.74-2.8,7.39-5.25,11.62-7.29l-.82-12.88c-3.53,2.81-8.88,3.5-13.26,3.72l.81,13.02c1.53-2.18,3.38-4,5.5-5.6s4.52-2.74,5.86-5.24l-.47-3.31c-1.6,2.12-4.34,2.63-6.87,2.92l.09,1.45c.44-.33,.89-.66,1.33-.99,.24-.18,.07-1.39-.12-1.27h0Z"/><path class="cls-4" d="M942.84,369.79l-3.17-1.06c-.13-.04-.3,1.13,.03,1.24l3.17,1.06c.12,.04,.29-1.13-.03-1.24h0Z"/><path class="cls-4" d="M919.62,370.85c-5.66,.33-10.55,.67-16.04-.66l.14,5.53c11.16,.38,22.16,.36,33.31-.19s22.31-2.3,33.28-1.72l-.37-14.89c-13.36-.35-27.18,2.93-40.22,5.59s-26.46,6.13-39.47,10.04c-3.88,1.17-2.53,17.87,.43,17.39,23.27-3.79,46.97-8.08,69.72-14.28,3.53-.96,2-15.66-.37-15.17-11.92,2.45-24.07,3.1-35.67,7.14s-23.46,8.88-35.37,12.87c-.94,.32-.69,4.53,.11,4.42,11.85-1.5,23.72-1.88,35.62-2.64,12.16-.78,23.72-4.76,35.68-6.62l-.37-15.17c-23.19,4.8-46.42,8.26-69.78,12.06l.43,17.39c13.02-3.91,26.19-7.31,39.47-10.23s27.08-4.25,40.16-7.91c3.57-1,1.74-15.42-.37-14.89-10.73,2.7-22.25,3.24-33.2,4.87s-22.14,3.83-33.16,6.4c-1.58,.37-.37,5.75,.14,5.53,5.24-2.27,10.33-2.92,15.94-3.63,.27-.03,.22-1.26-.03-1.24h0Z"/><path class="cls-4" d="M910.68,389.98c-3.28,.5-6.57,1.1-9.87,1.39l.05,2.1c4.99,.45,10.04-1.02,14.96-1.74s10.07-1.42,15.12-1.98l-.18-7.3c-8.16,1.43-16.08,3.31-23.92,5.99-2.14,.73-1.36,9.89,.24,9.59,7.85-1.47,15.66-3.11,23.45-4.84l-.24-9.77c-5.43,2.63-10.52,5.78-15.58,9.05-.51,.33-.51,3.3,.21,3.35,5.53,.39,10.57-.32,15.61-2.63,2.01-.92,1.46-10.1-.24-9.77-7.85,1.56-15.66,3.2-23.45,5.02l.59,9.41c7.28-4.11,15.49-5.99,23.51-8.1,1.7-.45,.99-7.53-.18-7.3-9.77,1.92-21.53,3.54-30.03,8.96-.34,.21-.2,2.15,.13,2.06,3.24-.89,6.57-1.48,9.86-2.17,.3-.06,.19-1.35-.03-1.32h0Z"/><path class="cls-4" d="M762.57,414.88l-.28-.83-.43,2.86c2.8,.76,4.78,3.39,7.2,4.86,2.62,1.59,5.52,2.84,8.21,4.33,4.91,2.71,10.1,5.17,14.55,8.61,4.22,3.26,8.1,7.12,11.49,11.23,2.35,2.85,6.86,10.91,10.96,10.61,2.06-.15,1.07-7.43,.43-8.49-1.3-2.15-1.8,4.03-1.8,3.97l1.8-3.97c-2.82-4.68-7.35-8.83-10.77-13.21-3.89-4.98-8.36-8.97-13.4-12.74-4.53-3.39-9.16-6.43-14.54-8.3-2.64-.92-5.47-2.1-8.29-2.05-1.87,.03-4.94-.16-6.09,1.45-.65,.91,.05,4.29,.53,3.45,.34-.61,.65-1.06,.43-1.76h0Z"/><path class="cls-4" d="M772.46,416.57c17.79-4.7,35.36-10.25,52.8-16.09,.41-.14,.2-1.7-.04-1.63-17.74,5-35.41,10.34-52.79,16.48-.3,.1-.16,1.29,.03,1.24h0Z"/><path class="cls-4" d="M616.81,435.99c-1.4-4.89-4.65-10.35-9.2-12.81-1.93-1.04-4.4-1.02-6.52-1.24-3.56-.36-7.13-.7-10.71-.95-7.1-.49-13.45,1.26-20.4,2.34s-14.24,1.86-21.41,2.52c-1.22,.11-1.11,5.67,.14,5.74,6.57,.4,13.12,1,19.58,2.3s12.91,3.8,19.6,4.42c5.79,.54,11.71,1.04,17.52,1.26,3.72,.14,7.49-2.74,11.18-1.25,.47,.19,.28-2.12,.22-2.33h0Z"/><path class="cls-4" d="M612.75,436.93c-17.8,15.81-29.79,37.82-36.69,60.41-3.65,11.97-5.56,24.24-6.72,36.68-.71,7.61-1.02,15.3-2.3,22.84-1.15,6.78-3.59,13.3-4.71,20.07-.49,2.99-.48,6.92,.62,9.81,.46,1.2,2.03,3.73,2.95,1.2l-3.66-4.76c.08,.53,2.1,9.05,3.66,4.76,4.62-12.77,3.48-27.81,4.34-41.21,.94-14.65,2.34-29.12,6.44-43.28,7.02-24.25,20.29-45.53,36.25-64.88,.24-.3,.06-1.85-.18-1.64h0Z"/><path class="cls-1" d="M686.11,172.87l.22,.26,.06,.02,.35-.13c.22-.08,.23-.42,.25-.61l.04-.36c.03-.26,.03-.98-.25-1.14-2.93-1.68-11.32,4.1-13.83,5.58-5.92,3.5-11.47,7.77-16.45,12.51-9.6,9.15-17.47,20.04-23.05,32.08-.18,.39,.1,2.13,.38,1.6,5.72-11.23,13.19-21.36,22.5-29.88,4.5-4.12,9.32-7.95,14.43-11.3,2.36-1.55,4.77-3.06,7.21-4.48,1.34-.78,2.7-1.52,4.07-2.25,.55-.29,5.36-2.57,4.15-3.11-.35-.15-.23,1.03-.08,1.2h0Z"/><path class="cls-1" d="M684.57,171.47c-11.8,4.73-23.14,12.96-33.35,20.45-9.45,6.93-18.15,15.04-22.99,25.89-.32,.71,0,4.76,.82,3.5,7.55-11.71,18.04-21.33,29.19-29.56s22.49-16.15,34.61-21.48l-.56-4.91c-5.64,4.73-8.78,12.95-11.21,19.7-2.71,7.55-4.13,15.32-4,23.35,.01,.87,.66,2.41,1.05,.78,1.54-6.46,3.03-12.98,5.31-19.22,2.56-6.99,6.48-13.22,9.6-19.94,.28-.6,.39-5.49-.76-4.65-11.52,8.39-24.45,14.7-35.85,23.37s-20.35,17.84-28.2,29.09l.82,3.5c5.28-10.96,13.7-19.52,23.16-26.97,10.28-8.11,21.73-14.16,32.44-21.56,.24-.16,.11-1.38-.09-1.29h0Z"/><path class="cls-1" d="M688.13,173.78l.28-.22c.49-.37,.3-1.52,.14-2-.25-.73-.24-.82-.91-1.18-.09-.07-.19-.06-.28,0-1.86,1.25-2.06,4.73-2.45,6.76-.96,4.94-1.23,10.13-1.87,15.12-1.25,9.88-2.87,19.79-3.01,29.76l3.47-.09c-.78-15.89,1.01-31.46,3.25-47.17,.13-.93,.51-8.94-1.85-8.37-10.94,2.64-20.89,10.39-29.82,16.98l1.96,16.18c9.61-7.18,19.4-14.07,29.58-20.43l-1.87-15.48c-7.46,6.06-13.33,13.04-17.32,21.83-.91,2-2.02,17.91,2.62,15.27,6.27-3.57,10.26-8.47,14.4-14.21l-3.03-13.25c-5.95,8.91-7.86,20.26-9.07,30.7-.28,2.41-.25,7.41,1.59,9.44,1.63,1.8,2.82,.69,3.55-1.4,2.45-6.98,4.71-14.02,7.05-21.04l-4.55-11.8c-3.65,11.62-5.25,23.6-4.97,35.76,.06,2.78,2.65,12.68,5.31,5.83,4.83-12.45,8.93-24.34,8.66-37.9-.04-1.92-.2-6.4-1.98-7.66-1.62-1.15-2.58-.11-3.15,1.82-6.64,22.72-12.53,48.04-1.9,70.58,3.99,8.47,9.47,15.85,16.65,21.87,4.32,3.62,18.73,15.32,24.21,9.12,2.27-2.57,1.86-7.16,.77-10.16l-.13-.36c-.37-1.03-1.05-1.92-2.18-1.43-.3,.08-.56,.24-.77,.46-2.37,1.89-.66,11.65,1.3,10.08l.34-.27-1.96-1.3,.36,.7-.52-6.99-.06,.42,1.93-3.05c-1.54-.12-3.7-2.04-5.13-2.72-1.72-.81-3.47-1.53-5.18-2.37-3.38-1.66-6.6-3.65-9.56-5.98-5.64-4.43-10.44-10.3-13.93-16.55-9.06-16.23-4.96-33.35,.17-50.24l-5.13-5.84c-.02,8.81-4.02,17.93-7.39,25.94l5.31,5.83c-.18-8.16,1.04-16.03,3.47-23.81,1.12-3.58,1.26-8.42-.29-11.91-1.24-2.78-3.19-3.1-4.26,.1-2.33,7.03-4.74,14.02-6.96,21.09l5.14,8.04c.58-8.17,3.74-15.5,6.8-22.99,1.19-2.91,.89-7.21-.04-10.13-.47-1.5-2.01-4.58-3.5-1.9-2.9,5.2-8.04,8.81-13.31,11.33l2.62,15.27c3.98-7.83,9.18-15.04,15.9-20.76,2.89-2.46,1.83-17.67-1.87-15.48-10.22,6.07-20.18,12.57-29.67,19.72-3.69,2.78-1.07,18.44,1.96,16.18,9.63-7.18,20.12-13.72,28.64-22.2l-2.54-5.33c.03,15.91,.22,31.88-2.93,47.53-.3,1.47-.65,5.62,.79,6.64s1.98-.11,2.33-1.8c1.73-8.32,2-17,2.67-25.45,.34-4.28,.68-8.57,1.04-12.85,.17-1.97,.44-3.96,.51-5.93,.04-1,.03-2.01-.02-3.01-.29-1.31-.1-2.55,.56-3.71l-.05-2.06-.25,.41c-.18,.3-.14,2.36,.35,1.98h0Z"/><path class="cls-1" d="M673.77,185.06l-1.41-2.51c.08-.3,.18-1.06-.16-1.26-1.87-1.14-3.11,.33-4.61,1.57-2.79,2.32-5.42,4.86-8.01,7.4-5.22,5.12-10.18,10.5-14.9,16.07-.37,.43,0,2.12,.24,1.86,2.28-2.68,4.57-5.36,6.85-8.05,.26-.31-.05-1.65-.26-1.41-2.27,2.53-4.55,5.07-6.82,7.6l.24,1.86c5.94-6.96,12.22-13.56,18.86-19.86,1.65-1.56,5.76-6.66,7.8-5.22,.92,.65,.47,2.37,2.08,3.23,.32,.17,.42-1.09,.1-1.28h0Z"/><path class="cls-1" d="M657.86,193.05c-5.42,4.81-10.07,10.2-13.96,16.31-.23,.35-.34,1.67,.14,1.91,2.35,1.16,4.08-.45,5.99-1.84,3.43-2.49,6.78-5.12,10.09-7.78,6.63-5.31,13.05-10.87,19.28-16.64,.37-.34,.13-2.08-.23-1.8-6.93,5.58-14.17,10.51-19.47,17.81-.61,.83-.33,6.16,.92,5.23,6.71-5.01,13.03-10.52,18.34-17.02l-.71-4.04c-4.16,6.76-8.7,13.31-13.16,19.88-.6,.88-.81,4.38,.58,4.7,3.03,.7,5.01-2.62,6.9-4.58,2.79-2.89,5.47-5.95,8.41-8.67l-.51-4.03c-4.86,5.13-8.69,10.94-11.63,17.36-.37,.8-.73,7.6,1.15,6.29,3.78-2.64,6.8-5.79,9.46-9.53l-1.38-5.55c-2.42,4.31-5.18,9.42-4.39,14.53,.47,3.06,3.48,7.07,6.14,3.24l-2.1-3c.27,6.98,1.47,13.3,4.66,19.56,.8,1.57,1.12-1.47,.95-2.05-1.66-5.7-2.76-11.64-2.91-17.58-.02-.73-.73-4.94-2.1-3-.33,.43-.75,.62-1.28,.57-1.03,.32-1.06-.17-.1-1.46,.35-1.78,1.66-3.7,2.52-5.26,.68-1.23,.05-7.57-1.38-5.55-2.47,3.47-5.39,6.12-8.93,8.44l1.4,5.74c2.3-6.93,5.8-13.09,10.44-18.72,.7-.85,.1-4.67-.51-4.03-2.27,2.39-4.79,4.56-7.19,6.82-1.9,1.79-4.81,5.91-7.74,5.4l.58,4.7c4.26-6.84,8.45-13.77,13.02-20.42,.47-.68,.12-4.78-.71-4.04-6.08,5.38-12,10.86-18.5,15.76l.92,5.23c4.81-8.06,11.38-14.92,18.54-20.94l-.23-1.8c-5.35,4.91-10.83,9.67-16.47,14.25-2.82,2.29-5.67,4.53-8.56,6.73-2.21,1.68-6.88,6.59-9.94,5.06l.14,1.91c3.84-6.22,8.36-11.82,13.69-16.84,.27-.26,.06-1.47-.16-1.27h0Z"/><path class="cls-1" d="M844.19,414.88c1.18-.47,1.72-.92,2.42-1.96,.16-.24,.22-1.34-.16-1.43-6.16-1.39-13.62,5.18-18.21,8.6-6.5,4.83-12.37,10.32-18.04,16.08-.42,.42-.16,2.73,.28,2.39,11.61-9.12,23.81-17.4,36.08-25.56l-.22-1.4c-.48,1-1.22,1.67-2.23,1.99-.29,.14-.09,1.37,.09,1.29h0Z"/><path class="cls-1" d="M845.73,411.41c-4.53,1.3-8.28,3.45-11.66,6.74-.32,.31-.06,1.86,.19,1.64,3.37-2.96,7.34-5.42,11.51-7.07,.33-.13,.2-1.39-.03-1.32h0Z"/><path class="cls-1" d="M512.71,418.84l-.5-.17c-.14-.05-.21,.05-.26,.18-.33,.81-.42,1.53-.17,2.42,.23,.81,.65,1.11,1.09,1.74,1.53,2.19,2.93,4.08,3.74,6.71,2.24,7.29,1.88,16.09,2.1,23.65,.52,17.93,.21,35.83,2.94,53.62,4.46,29.01,13.39,60.13,36.07,80.34,5.97,5.32,10.43-14.87,1.84-16.4-.89-.21-1.57-.71-2.05-1.51-2.72-2.94-3.01,4.66-2.72,5.81l.54,4.59,6.5-7.74c-21.03-19-30.29-45.21-33.78-72.72-2-15.79-3.52-31.64-5.31-47.45-.72-6.39-1.04-12.89-2.87-19.1-.59-1.99-1.3-3.96-2.27-5.8-.71-1.34-1.52-2.63-2.48-3.79-.11-.13-2.64-3.17-2.46-3.15,.31,.04,.32-1.12,.04-1.22h0Z"/><path class="cls-1" d="M513.43,421.16c7.88,12.62,10.34,28.34,12.32,42.85s2.07,28.21,4.12,42.24,5.98,27.89,11.84,40.94c2.71,6.03,5.6,11.99,8.83,17.76,3.1,5.55,6.46,12.33,11.63,16.17,2.28,1.7,4.15-2.51,4.55-3.9,.9-3.1,.66-7.11-.89-9.97l-6.88,6c.1,2.67,1.74,10.43,5.88,7.39,3.51-2.58,2.78-10.09,1-13.39-3.36-6.22-8.07-11.66-11.49-17.91-3.23-5.91-6.2-11.99-8.86-18.18-5.65-13.12-8.85-26.68-11.41-40.68-2.28-12.42-4.33-24.94-7.01-37.27-2.54-11.67-6.13-23.99-13.27-33.73-.44-.59-.6,1.29-.35,1.69h0Z"/><path class="cls-1" d="M512.49,422.28c2.7,11.65,6.34,23.03,8.83,34.75,2.44,11.49,5.05,22.96,6.88,34.57,.22,1.42,1.21,.82,1.12-.37-.89-12.12-2.21-24.21-5.13-36.03-2.77-11.18-5.91-23.45-11.32-33.68-.32-.6-.43,.56-.38,.76h0Z"/><path class="cls-1" d="M519.49,441.58c5.63,21.1,9.2,42.66,10.58,64.45,.06,.91,.74,.92,.68-.02-1.29-22.05-4.87-43.83-10.79-65.11-.23-.82-.58,.27-.47,.68h0Z"/><path class="cls-1" d="M883.94,309.11l-.21-.49-.09,1.42c2.53-1.53,7.19-1.61,10.07-2.14,4.01-.74,8.04-1.4,12.07-2.03,4.99-.78,20.63-5.35,21.61,3.07,.01,.1,.21,1.32,.54,.96,1.33-1.45,.78-4.42,.12-6.05-2.07-5.06-7.76-3.81-12.09-3.2-6.87,.97-13.7,2.18-20.47,3.67-3.04,.67-11.06,.83-12.14,4.3-.08,.25-.19,1.28,.16,1.41l.27,.11c.33,.13,.23-.9,.17-1.04h0Z"/><path class="cls-1" d="M919.3,303.05c.09,.44,2.89-.02,3.49,.12,1.56,.35,2.81,1.28,3.68,2.6,1.77,2.69,1.2,5.97,2.59,8.73,.13,.25,.37,.46,.64,.25,.41-.32,.61-.61,.79-1.1,.23-.62,.52-2.51-.19-2.97l-.08-.05c-.49-.32-.53,1.26-.52,1.4v.23l.46-1.64c-.21-.01-1.4-6.45-1.66-7.16-.76-2.05-1.9-3.77-3.96-4.67-1.64-.72-3.82-.94-5.17,.45s-.85,3.05-.36,4.61c.19,.61,.33-.63,.3-.81h0Z"/><path class="cls-1" d="M919.67,303.23c.56-1.42,1.5-2.06,2.81-1.93,1.6,.92,2.75,2.19,3.44,3.82,.8,1.47,1.29,3.16,1.93,4.7,1.57,3.77,3.22,7.51,4.99,11.18,1.28,2.65,2.54,5.69,4.7,7.79,2.62,2.54,4.23,1.73,7.11-.03,.74-.45,.58-3.36-.09-3.82-8.84-6.03-10.77-16.12-17.29-23.91-2.77-3.32-8.64-2.28-7.95,2.54,.12,.85,.4,.14,.37-.34h0Z"/><path class="cls-1" d="M1169.66,275.81c-.59,1.11-1.09,1.01-1.52-.29l-1.25,4.96c1.76-.12,3.11-.8,4.81-1.27l-.96-13.02c-2.28,1.49-4.07,3.14-5.66,5.37-1.87,2.62-1.54,7.46-.98,10.39,.24,1.28,1.41,6.43,3.68,4.72,.94-.49,1.85-1.03,2.73-1.6l.18-8.28-.32,1.13,1.75-2.12-.75-.05,2.43,14.07c1.45-4.09,2.23-8.37,4.92-11.9s6.62-5.64,10.5-7.44c4.47-2.08,9.14-4.47,11.82-8.81,1.14-1.84,2.56-4.35,1.83-6.6-2.76-8.54-17.27-1.17-21.65,1.86-7.49,5.19-10.57,14.42-12.29,22.99-.61,3.02-.93,8.81,1.33,11.29s3.49-.9,3.96-3.07c1.09-5.07,1.54-20.25-7.64-17.73l1.91,15.42c1.34-2.63,2.69-5.13,4.41-7.54,1.5-2.09,1.23-5.98,.79-8.31-.16-.82-1.3-5.37-2.95-3.77-3.36,3.26-5,6.54-5.55,11.16-.03,.22,.26,3.14,.94,2.41,1.13-1.2,2.59-1.41,3.68-2.68,.23-.27,.03-1.46-.16-1.27h0Z"/><path class="cls-1" d="M1207.15,254.04c-4.93-.48-10.91,3.73-15.14,5.95-5.23,2.74-10.38,5.61-15.43,8.67-10.5,6.37-20.65,13.29-30.63,20.43-.51,.37-.23,2.71,.28,2.39,9.87-6.16,19.95-11.95,30.11-17.62,4.87-2.72,9.73-5.46,14.61-8.16,5.43-3.01,12.2-5.7,16.29-10.44,.15-.18,.27-1.18-.09-1.22h0Z"/><path class="cls-1" d="M1160.36,282.89c4.12-2.4,8.19-5.07,12.51-7.1,.37-.17,.28-2.02-.13-1.96-10.14,1.6-19.9,8.63-28.48,13.94-9.95,6.15-19.77,12.54-29.57,18.93-9.65,6.29-19.2,12.73-28.54,19.49-7.85,5.68-16.55,11.81-21.3,20.51-.4,.74-.06,5.37,.78,4.51,2.57-2.61,4.48-5.65,5.62-9.13,.14-.42-.14-2.47-.57-1.47-1.21,2.86-2.93,4.53-5.64,5.83l.78,4.51c12.98-16.8,32.69-27.83,50.3-39.22,9.29-6.01,18.64-11.9,27.99-17.8s20.03-11.12,28.75-18.14l-.22-1.92c-3.93,2.88-8.27,5.27-12.43,7.82-.26,.16-.11,1.34,.13,1.2h0Z"/><path class="cls-1" d="M1141.3,292.43c-33.51,17.54-64.15,40.54-91.25,66.87-.3,.29-.03,1.61,.17,1.42,27.47-26.24,58.21-48.3,91.22-67.01,.28-.16,.13-1.41-.14-1.27h0Z"/><path class="cls-1" d="M983.26,382.54c0-1.07-.09-4.68-.05-5.14l-3.16,1.14c2.83,9.59,9.7,18.38,16.15,25.87,6.62,7.68,14.19,15.18,22.25,21.35,15.84,12.11,33.66,22.01,53.07,27.02,2.91,.75,4.01-13.48-.36-14.75l-2.53,5.48,2.53-5.48c-18.54-5.37-36.35-13.3-51.61-25.37-7.63-6.03-14.59-12.32-20.95-19.7-2.98-3.45-5.83-7.02-8.59-10.65-2.59-3.41-4.62-7.87-8.17-10.36-1.76-1.23-3.08,7.15-.72,8.61l1.6,1.99c.03,.77,.51,.77,.51-.01h0Z"/><path class="cls-1" d="M985.4,379.06c13.56,14.22,26.8,29.35,41.44,42.48,6.78,6.08,14.1,11.4,21.83,16.18,4.09,2.53,7.46,5.11,12.03,6.75,3.76,1.35,7.7,2.65,11.7,2.97l-1.6-9.24c-1.6,3.99-1.66,4.88,.6,8.52,1.67,2.69,2.71-2.51,2.77-3.32,.15-1.82,.2-6.24-2.04-6.83-4.26-1.12-8.56-1.83-12.75-3.29-3.4-1.18-6.85-1.59-10.13-3-7.98-3.44-15.23-8.61-21.99-14.01-14.82-11.84-26.85-26.87-41.76-38.5-.27-.21-.33,1.04-.1,1.28h0Z"/><path class="cls-1" d="M1068.87,438.5c-8.49-8.65-10.6-20.65-13.27-32-1.36-5.77-2.99-11.59-3.77-17.47s.42-11.05,2.52-16.45c3.82-9.83,9.64-19.14,16.7-26.97,3.41-3.78,7.23-7.09,10.84-10.67,4.29-4.26,7.91-9.22,12.49-13.17,.61-.52,.64-4.48-.3-4.19-5.24,1.65-10.35,2.36-14.99,5.65-4.9,3.47-9.11,8.07-12.97,12.64-8.27,9.8-15.38,21.11-18.86,33.54-4.22,15.08-1.09,30.06,3.72,44.58,3.44,10.38,8.95,19.2,17.8,25.77,.28,.21,.32-1.05,.1-1.28h0Z"/><path class="cls-1" d="M1065.48,345.17c24.71-19.54,50.75-37.24,77.8-53.38l-.32-2.86c-5.87,6.56-14.1,9.53-21.79,13.39-8.86,4.45-17.38,9.51-25.63,15.01-14.69,9.8-28.55,20.78-37.52,36.28s-15.74,31.4-12.53,48.71c1.51,8.16,5.02,15.54,9.56,22.44,2.41,3.66,5.18,7.01,7.84,10.49,1.37,1.79,2.68,3.64,4,5.47,.65,.91,1.31,1.81,1.97,2.72,1.58,2.4,1.61,1.54,.09-2.58l1.5-4.06-.79,1.1c-1.79,2.48-1.98,7.32,.24,9.65,.78,.82,1.38,1.4,2.39,1.87,1.16,.55,2.39,.05,3.17-.88,6.17-7.36,.89-16.44-4.76-21.96s-10.93-11.08-15.43-17.4c-5.58-7.82-7.99-15.43-6.23-25.04,1.75-9.54,6.23-18.76,11.06-27.1,9.25-15.97,23.97-27.23,39.07-37.34,7.8-5.22,15.86-10.08,24.07-14.62,7.03-3.88,14.55-7.24,20.05-13.27,.4-.44,.36-3.26-.32-2.86-27.48,15.97-53.38,34.51-77.63,55.04-.26,.22-.08,1.38,.15,1.19h0Z"/><g><path class="cls-4" d="M313.03,370.24c4.21,2.15,8.61,2.21,13.26,2.33,5.95,.15,11.89,.25,17.84,.3,11.9,.1,23.76,.19,35.65-.43,.41-.02,.38-1.91-.05-1.94-11.23-.84-22.45-1.04-33.7-1.2-5.28-.07-10.57-.15-15.85-.13-5.67,.01-11.71,.68-16.97-1.85-.56-.27-.81,2.6-.17,2.93h0Z"/><path class="cls-4" d="M315.76,366.54c-1.33-.6-2.6-1.17-3.87-1.9-.43-.25-.43,1.79-.12,2.11,4.87,5.04,14.07,7.45,20.69,9.07,7.72,1.88,15.63,2.63,23.57,2.64,.44,0,.45-2.21-.06-2.25-7.73-.65-15.32-2.07-22.76-4.26-3.42-1-6.78-2.18-10.13-3.4-3.53-1.29-7.5-3.95-11.29-3.94l.05,2.18c1.35,.25,2.58,.64,3.88,1.05,.19,.06,.29-1.18,.02-1.3h0Z"/><path class="cls-4" d="M316.6,367.09c.45,.38-.64,2.91-.23,3.69,.31,.58,1.37,.92,1.9,1.22,2.2,1.24,4.53,2.3,6.81,3.39,4.18,2,8.45,3.87,12.81,5.44,8.63,3.11,17.02,2.61,25.08-1.79,.58-.32,.25-2.98-.2-2.82-7.17,2.68-14.6,.84-21.68-1.22-8.24-2.41-16.13-6.05-24.14-9.14-.17-.12-.33-.12-.49,.01l-.38,.47,.87,1.8c-.03-.71-.11-.83-.37-1.05h0Z"/><path class="cls-4" d="M322.02,369.54c1.89,3.26,4.81,3.45,8.34,4.2,4.45,.95,8.91,1.93,13.42,2.58,9.91,1.43,19.13,1.55,28.66-1.84,.55-.2,.51-2.58-.06-2.56-8.86,.31-17.98,.09-26.81-.76-4.48-.43-8.95-.92-13.41-1.48-2.89-.36-7.35-2.04-10.07-1.37-.33,.08-.19,1.03-.07,1.23h0Z"/><path class="cls-4" d="M371.83,366.56l.15,.11s.09,.04,.14,0l.06-.03c.4-.22,.22-1.35,.1-1.67-.69-1.95-2.61-.51-3.2,.73-1.4,2.91-.99,8.08,.8,10.75,1.97,2.92,4.93,1.34,6.62-.91s2.79-5.22,3.12-7.98c.03-.27-.13-3.32-.81-2.26-1.08,1.67-2.86,1.63-4.7,1.74-.58,.03-1.12,.14-1.7,.19-.64,.05-.96-.16-1.48-.25-1.02-1.06-.92-.06,.28,2.98l.2-.9c.07-.29,.31-2.29,.69-2.37l-.33-.73,.02,.17,.16-.99-.15,.17c-.2,.24-.26,1.07,.03,1.27h0Z"/><path class="cls-4" d="M376.91,365.85c.04,.31,.31,1.36,.17,1.67-.11,.24-.21,.2-.41,.38-.48,.43-1.1,.58-1.65,.89-.69,.38-1.22,.95-1.95,1.26-.32,.14-.78,.38-1.13,.41-.6,.05-.76-.48-.75,.39,0-.45-.61-2.51-.94-1.13-.47,1.97-.15,4.02,.82,5.8,.83,1.53,3.05,4.21,5.02,2.61s2.42-5.02,2.43-7.36c0-2-.21-3.96-1.3-5.68-.25-.39-.32,.65-.31,.75h0Z"/><path class="cls-4" d="M375.03,363.7c.02-1.65-1.27-3.49-2.83-2.09-1.99,1.8-2.56,4.97-2.5,7.51s.81,6.54,3.86,7.2c3.21,.7,5.27-3.44,6.53-5.64,.19-.33,.3-3.15-.33-2.89-1.96,.81-4.36,.87-6.4,.33-.22-.06-1.28-.67-1.41-.67-.04,1.7,.06,2.01,.3,.9l.2-.6c.2-.62,.4-1.27,.66-1.88,.14-.33,1.49-1.99,1.5-1.99,.06,.77,.42,.36,.43-.19h0Z"/><path class="cls-4" d="M348.5,379.33c-.22-.35-.2-.45-.53-.58-.79-.33-.52,2.31-.18,2.7,3.23,3.74,11.11,4.47,15.68,4.97,5.97,.65,11.94,.29,17.9-.23,12.38-1.08,24.62-3.42,36.99-4.39,.58-.05,.49-2.4-.06-2.56-12.01-3.61-23.21-2.18-35.38-.5-5.67,.78-11.35,1.35-17.07,1.58-5.06,.21-13.2,.75-17.88-1.56l.33,2.05,.18-.33c.24-.21,.18-.89,.02-1.14h0Z"/><path class="cls-4" d="M360.34,378.71l-1.94-3.39-.76,4.78c4.75,2.47,10.69,2.51,15.95,3,6.21,.59,12.39,.96,18.62,1.2,11.84,.46,24.74,.21,36.14-3.39,.6-.19,.51-2.6-.07-2.79-11.12-3.71-23.72-4.62-35.37-4.89-5.55-.13-11.09-.29-16.64-.22-5.86,.07-13.09-.83-18.54,1.49-2.02,.86-.07,6.04,.38,5.59l2.15-.17c.22,.15,.29-1,.08-1.2h0Z"/><path class="cls-4" d="M367.58,387.06c-1.39-.57-2.34-1.63-2.83-3.18-.99-2-1.51,4.65-1.21,5.6,1.26,3.96,3.95,5.89,7.76,7.34,5.91,2.25,12.22,3.81,18.33,5.4,12.91,3.35,25.44,3.88,38.67,4.64,.62,.04,.66-3.16-.08-3.34-11.81-2.84-23.27-6.94-35.08-9.83-9.74-2.38-20.84-3.61-28.67-10.16l-.12,6.96c1.53-.34,2.21-1,3.26-2.23,.17-.2,.24-1.04-.03-1.2h0Z"/><path class="cls-1" d="M373.79,358.47c-.74-.93-1.63-.98-2.67-.41-.87,.48-1.68,1.1-2.31,1.86-1.67,2.02-2.49,4.87-2.38,7.46,.02,.57,.09,2,.86,2.13,.64,.11,1.33-.96,1.7-1.38,.77-.87,1.48-1.8,2.31-2.62,.91-.9,2-1.74,2.53-2.94,.47-1.08,.78-3.09-.03-4.1h0Z"/><path class="cls-1" d="M375.65,357.64c-1.95-1.33-4.66,.35-6.07,1.79-2.21,2.27-3.3,6.02-3.09,9.13,.07,.96,.12,2.53,1.33,2.34,1-.16,1.79-1.69,2.31-2.43,1.81-2.55,4.31-4.96,5.74-7.72,.36-.69,.55-2.59-.22-3.12h0Z"/><path class="cls-1" d="M364.28,372.78c2.92,.62,6.57-3.59,8.93-5.04,4.07-2.51,6.82-4.97,9.42-9.07,.51-.81,.54-2.8-.25-3.47-3.71-3.13-6.9-2.82-10.86-.35s-7.32,5.64-8.7,10.23c-.53,1.76-1.17,7.13,1.46,7.68h0Z"/><path class="cls-1" d="M380.43,360.19c3.37,3.68,5.64,7.78,5.99,12.86,.07,.99,.68,1.01,.66-.02-.14-5.28-2.23-10.67-6.5-13.99-.26-.2-.33,.95-.15,1.14h0Z"/><path class="cls-1" d="M381.63,359.18c.64,2.04,2.07,3.36,3.06,5.23,1.37,2.6,1.87,5.47,1.78,8.4,0,.29,.45,2.18,.74,1.08,1.49-5.53-.22-12.2-4.61-16.02-.11-.07-.22-.07-.33,0l-.52,.33c-.24,.15-.2,.76-.13,.97h0Z"/><path class="cls-1" d="M366.62,369.13c-.26-.1,1.77,4.69,2.16,5.17,1.02,1.26,2.27,2.25,3.79,2.82,3.55,1.34,6.8-.1,9.25-2.77,.31-.34,.18-2.19-.24-1.87-3.9,3.07-10.46,2.69-13.35-1.64-.25-.37-.79-2.72-1.75-2.31-.51,.22-.4,.97-.36,1.39,.01,.14,.07,.48,.27,.5l.19,.02c.33,.03,.31-1.19,.04-1.3h0Z"/><path class="cls-1" d="M384.23,368.97c-.8,.17-1.45,.82-2.26,1.07-1.11,.34-2.31,.29-3.44,.57-2.82,.69-4.61,2.96-7.7,2.82-.99-.05-.49,2.74-.08,3.13,2.13,2.05,5.78,5.1,8.8,3.21s4.92-6.18,5.09-9.53c0-.15,0-1.36-.41-1.27h0Z"/><path class="cls-1" d="M364.93,371.15c1.75,8.97,14.42,8.94,20.35,4.72,.45-.32,.38-2.43-.28-2.17-6.5,2.56-13.89,.62-19.05-3.78-.13-.08-.25-.08-.38,0l-.51,.3c-.24,.14-.16,.72-.12,.92h0Z"/><path class="cls-1" d="M362.86,388.18c9.15,.31,18.6-3.9,27.74-4.82,4.14-.41,7.97-.06,12.03,.68s7.48,1.53,10.95-.79c.27-.18,.24-1.75-.11-1.68-8.21,1.68-16.29-1.78-24.69-.69-4.24,.55-8.42,1.55-12.59,2.5-4.45,1.01-9.27,1.58-13.42,3.51-.27,.12-.24,1.28,.1,1.29h0Z"/><path class="cls-1" d="M409.2,382.01c.87,.54,1.69,1.31,2.01,2.3,.52,1.61-.24,3.42-.77,4.95-.11,.31,.18,1.87,.38,1.39,1.21-2.85,2.96-9.57-1.58-10.63-.4-.09-.37,1.78-.04,1.98h0Z"/></g></g><g><path class="cls-5" d="M507.43,420.01c1.55,3.26,2.54,6.91,3.56,10.36s1.86,6.73,2.62,10.14c1.55,6.96,2.66,14.01,3.54,21.08,1.75,13.99,2.68,28.07,4.45,42.06,2.88,22.76,8.48,46.39,22.78,64.89,3.83,4.96,8.26,9.47,13.25,13.26,1.99,1.51,5.85,4.5,8.15,1.87,1.1-1.25,1.43-4.51-.13-5.55-.25-.17-.32,.93-.09,1.13,.34,.23,.53,.55,.54,.99l.17-.5c-.52,.5-1.07,1.18-1.74,1.48-1.45,.67-3.2-.15-4.43-.92-2.29-1.42-4.41-3.23-6.42-5.02-3.99-3.56-7.54-7.58-10.64-11.94-6.41-8.99-10.98-19.19-14.22-29.71s-5.46-21.64-6.89-32.73c-1.68-13.02-2.65-26.11-4.36-39.13-.93-7.09-2.08-14.15-3.66-21.12-.8-3.52-1.71-7.03-2.78-10.48s-2.49-6.81-3.65-10.25c-.02-.06-.05,.06-.03,.09h0Z"/><path class="cls-5" d="M562.59,580.99c1.04-.38,2-.52,2.96-1.12,.8-.5,1.49-1.15,2.08-1.88,1.3-1.6,2.11-3.56,2.69-5.52,1.51-5.08,1.58-10.55,2.16-15.79,1.34-12.14,3.21-24.23,5.79-36.16,5.04-23.38,13.31-46.38,27.35-65.94,1.94-2.7,4-5.31,6.11-7.88s4.09-5.66,4-9.2c-.07-2.71-1.15-5.54-3.84-6.59-.93-.36-1.96-.54-2.89-.05-1.2,.64-1.51,2.78-1.56,3.99-.01,.23-.02,2.23,.64,2.1,.22-.04,.41,0,.63,.03,.45,.04,.5,.02,.94-.09,.81-.21,1.77-.18,2.57,.1,.68,.24,1.3,.7,1.85,1.15,.12,.1,.15,.25,.24,.38-.4-.59,.05-.35-.1,.1-.28,.83-.62,1.58-1.08,2.33-1.45,2.34-3.39,4.38-5.07,6.56s-3.42,4.59-5.01,6.96c-6.33,9.42-11.47,19.63-15.6,30.19-8.28,21.17-12.5,43.63-14.89,66.17-.33,3.16-.63,6.32-.9,9.49-.25,2.9-.36,5.82-.83,8.69-.42,2.6-1.1,5.25-2.43,7.54-1.13,1.94-3.34,4.36-5.81,4.33-.04,0-.03,.14,0,.12h0Z"/><path class="cls-5" d="M510.61,422.55c-1.51-.43-2.31-2.44-2.32-3.86,0-.8,.25-2.07,.95-2.61,.67-.51,1.64,.37,2.29,.71,2.91,1.54,5.92,2.91,8.98,4.12,6.05,2.4,12.46,3.9,18.85,5.04,13.3,2.36,26.94,2.61,40.41,3.25l12.44,.59,6.47,.3c2.09,.1,4.04,.28,5.99-.59,.17-.08,.13-.76-.02-.84-2.95-1.57-6.75-1.17-10.01-1.31l-10.2-.45c-6.57-.29-13.14-.56-19.71-.9-11.93-.61-24.01-1.52-35.67-4.25-6.71-1.57-13.18-3.72-19.41-6.65-.02-.01-.04-.01-.06,0-1.05,1.03-1.5,2.45-1.36,3.91,.16,1.71,1.06,2.71,2.4,3.66,.02,.01,.05-.11,0-.12h0Z"/><path class="cls-5" d="M610.4,446.37c.3-1.48-.71-3.01-2.34-2.89-.12,0-.11,.52,.01,.52,.68,.01,1.29,.09,1.95,.29s1.26,.18,1.95,.19c1.46,.02,2.92,.07,4.38,.03,2.59-.07,5.18-.19,7.77-.3,5.34-.23,10.68-.54,16.01-.94,10.66-.79,21.31-1.71,31.94-2.79,21.33-2.16,42.58-5.15,63.64-9.2,5.88-1.13,11.76-2.33,17.61-3.58,2.93-.63,5.85-1.27,8.78-1.93,1.42-.32,2.84-.65,4.26-.97,.76-.18,1.64-.27,2.37-.56,.86-.35,1.4-1.29,1.96-1.98,.37-.46,.5-2.19-.06-2.57-.46-.31-1.03-.83-1.56-.98-.63-.18-1.28,.11-1.9,.25-1.42,.34-2.84,.68-4.26,1.02-2.53,.6-5.05,1.18-7.59,1.76-5.22,1.18-10.45,2.32-15.69,3.4-10.49,2.17-21.02,4.14-31.56,6.02-21.16,3.77-42.49,6.89-63.9,8.82-5.97,.54-11.96,1.02-17.94,1.5-2.99,.24-5.98,.47-8.98,.68-1.46,.1-2.91,.26-4.37,.42-.79,.09-1.65,.08-2.42,.25-.9,.2-1.48,.57-2.41,.67v.52c1.26-.25,2.79,.77,2.3,2.3-.01,.04,.02,.15,.03,.07h0Z"/><path class="cls-5" d="M760.24,418.72l-.02-.95h.38c.3-.02,.82,.28,1.15,.42,.53,.23,1.05,.49,1.57,.75,1.16,.58,2.3,1.21,3.42,1.87,2.11,1.26,4.14,2.67,6.1,4.16,3.83,2.93,7.37,6.21,10.89,9.5,7.98,7.47,15.85,15.07,23.77,22.61,1.48,1.41,3.24,3.74,5.51,3.7,1.46-.03,2.53-1.12,3.19-2.33,1.74-3.18,1.48-7,2.14-10.46,1.5-7.88,5.54-15.25,11-21.09,6.18-6.6,14.27-11.34,23.18-13.06,.74-.14,.55-2.76-.07-3.01l-21.14-8.39c-3.25-1.29-6.48-2.79-9.82-3.83-1.23-.38-2.55-.68-3.85-.58-1.55,.12-2.28,.92-3.03,2.23-.09,.15-.16,1.4,.15,1.31,.56-.18,1.1-.13,1.67-.23s1.05-.26,1.63-.27c1.31-.03,2.62,.29,3.86,.7,3.37,1.11,6.64,2.58,9.94,3.89l20.68,8.17-.07-3.01c-16.5,3.2-30.19,16.66-34.31,32.87-.51,1.99-.87,4.01-1.1,6.05-.21,1.88-.27,3.76-.95,5.56-.6,1.59-1.79,3.15-3.68,2.87-1.17-.17-2.08-1.02-2.92-1.79-1.16-1.06-2.3-2.13-3.45-3.19-8.23-7.61-16.3-15.42-24.74-22.79-4.23-3.7-8.81-7.13-13.75-9.83-1.24-.67-2.5-1.3-3.79-1.87-.8-.35-2.59-1.44-3.51-1.14-.67,.22-.77,1.21,.03,1.27,.03,0,.02-.14,0-.12h0Z"/><path class="cls-5" d="M829.66,403.19c-1.28-.17-2.56-.62-3.81-.95-1.61-.43-2.9-.99-4.21-2.01l-.14,2.13c.79,.46,1.64,.42,2.53,.49,.97,.08,1.95,.15,2.92,.2,2.11,.12,4.22,.18,6.34,.19,4.06,0,8.13-.15,12.17-.52s8.02-.85,12.01-1.5,7.9-1.36,11.89-1.64c7.83-.54,15.41,1.36,22.62,4.29,7.45,3.03,14.67,6.63,21.96,10.01,3.91,1.81,7.79,3.85,11.82,5.38,3.4,1.29,6.86,1.88,10.1-.09,.56-.34,.56-1.84,.57-2.33,.01-.95-.09-1.9-.48-2.76-1.97-4.28-3.89-8.57-5.91-12.82-.44-.92-.87-1.84-1.33-2.74-.24-.48-.5-.96-.73-1.46-.06-.12-.12-.24-.16-.37-.39-1.24-.39-.49-.02,2.26,.19-.23,.6-.98,.9-1.38,.56-.75,1.2-1.47,1.86-2.13,2.44-2.39,5.46-4.26,8.65-5.46,1.59-.59,3.23-1.03,4.9-1.3,.9-.15,1.8-.23,2.7-.37,.97-.15,1.78-.49,2.7-.84,.83-.32,.81-3.65,.06-4.05-.96-.51-1.8-.96-2.9-1.07-1.04-.1-2.07,0-3.1,.13-2.04,.27-4.06,.78-5.98,1.53-3.63,1.42-7.03,3.63-9.69,6.49-1.92,2.06-2.54,4.56-2.45,7.35s1.13,5.24,2.42,7.76c2.3,4.5,4.85,8.87,7.3,13.29l.08-5.09c-2.63,2.09-6.37,1.3-9.26,.25-3.72-1.34-7.28-3.24-10.87-4.89-7.17-3.31-14.29-6.79-21.58-9.84-6.79-2.84-14-5.22-21.45-4.89-7.97,.36-15.54,3.19-23.34,4.57-4.47,.79-9.06,1.2-13.59,1.33-2.27,.07-4.55,.07-6.82,0-1.14-.03-2.27-.08-3.41-.15-1.06-.06-2.41-.41-3.4-.02-.56,.22-.35,2.31,.05,2.2,1.4-.4,2.6-.33,4.02-.03,1.34,.29,2.75,.49,4.05,.94,.02,0,.04-.12,0-.12h0Z"/><path class="cls-5" d="M906.59,389.4c-2.75-2.28,2.83-3.8,4.08-4.17,2.07-.62,4.18-1.08,6.31-1.42,4.23-.68,8.54-.87,12.82-.77s8.69,.43,12.99,1.13,8.52,2.09,12.88,2.58c.16,.02,.15-.74,.01-.81-1.81-.97-3.52-1.68-5.51-2.18s-4-.93-6.03-1.28c-4.05-.7-8.15-1.13-12.26-1.22-7.88-.19-16.28,.76-23.6,3.82-1.18,.49-2.33,1.2-2.51,2.57-.1,.75,.06,1.5,.81,1.81,0,0,0-.04,0-.05h0Z"/><path class="cls-5" d="M921.34,381.9c-.8-.36-1.54-.87-2.29-1.33v.53c9.92,.79,20.07,.12,29.99-.56s19.93-1.8,29.5-4.33l-.38-.33c.38,.59,.42,1.01,.56,1.69,.05,.23,.21,1.12,.61,1.09,1.04-.09,2-.9,2.45-1.82,.11-.22-.01-1.57-.21-1.37-.66,.71-1.27,.37-1.97-.1l.38,1.16-.07-.7-.12,2.17c.51-2.07,.21-4.58-.98-6.38-.07-.18-.2-.29-.38-.33-9.76,2.67-19.43,5.37-29.43,7.07-4.92,.84-9.85,1.38-14.83,1.72s-10.08,.34-15.13,.49c-.13,0-.1,.5,.01,.54,.76,.28,1.57,.53,2.29,.92,.02,.01,.04-.11,0-.12h0Z"/><path class="cls-5" d="M974.59,376.4c10.34,15.42,20.44,31.23,33.91,44.17,11.83,11.37,25.57,20.56,40.67,26.99,4.17,1.78,8.44,3.32,12.78,4.64,2.14,.65,4.3,1.24,6.47,1.78,1.12,.28,2.24,.54,3.37,.79,1.22,.27,2.71,.36,3.8,1,.53,.31,.72-.73,.78-1.02,.43-2.09,.19-4.28-.25-6.35-.07-.36-.33-.7-.5-.18-.64,1.94-.83,4.01-.57,6.04l.62-2.78c-.94,.2-1.85-.08-2.79-.27-1.06-.22-2.12-.44-3.17-.69-1.98-.45-3.95-.95-5.9-1.5-3.91-1.09-7.76-2.38-11.56-3.8-7.59-2.83-14.92-6.38-21.86-10.55s-13.37-8.77-19.37-14.06c-6.55-5.79-12.38-12.29-17.77-19.16-6.43-8.19-12.47-16.71-18.65-25.09,0-.01-.01,.03,0,.04h0Z"/><path class="cls-5" d="M1076.69,445.78c.37-2.75-1.19-5.49-3.97-6.27s-5.31,1.48-5.85,4.15,.68,5.79,3.46,6.73c2.6,.87,6.58-.26,6.92-3.42,.21-1.96-1.09-4.36-1.81-6.14s-1.66-3.64-2.59-5.41c-1.89-3.6-3.97-7.12-6.16-10.54-4.18-6.51-8.7-12.86-11.99-19.89s-4.9-13.7-3.76-21.08c1.3-8.44,5.59-16.28,10.87-22.88,5.7-7.1,12.86-12.93,20.2-18.24,7.92-5.74,16.12-11.12,24.21-16.62s16.96-11.51,25.44-17.26c4.28-2.9,8.56-5.8,12.82-8.72,2.13-1.47,4.24-2.98,6.4-4.4s4.33-2.66,6.44-4.09,4.28-2.91,6.42-4.37l-.81-.29c2.53,3.55,5.98,6.29,10.07,7.82,.36,.13,.62,.07,.8-.33,3.29-7.14,7.75-13.67,13.4-19.15,2.76-2.67,5.75-5.1,8.93-7.25,1.6-1.07,3.26-2.03,4.92-3,.89-.52,1.86-.99,2.71-1.57,.94-.63,1.79-1.42,2.7-2.1,.58-.43,.64-4.02-.26-3.9s-1.93,.16-2.82,.42-1.81,.79-2.65,1.21c-1.71,.85-3.35,1.9-4.94,2.96-3.36,2.25-6.5,4.81-9.39,7.64-5.69,5.59-10.48,12.16-13.79,19.44l.52-.43c-3.73-1.34-6.99-3.84-9.28-7.07-.21-.3-.46-.52-.81-.29-7.07,4.77-14.01,9.72-21.11,14.45-7.07,4.71-14.08,9.51-21.12,14.28-7.04,4.76-14.08,9.51-21.13,14.26-6.53,4.41-13.14,8.73-19.51,13.37-11.87,8.65-22.91,19-28.58,32.84-2.86,6.98-4.14,14.58-3.5,22.11,.55,6.51,2.62,12.75,5.55,18.56,5.74,11.4,14.22,21.12,20.15,32.4,.72,1.37,1.43,2.73,2.06,4.14l-.07-2.71c-1.43,3.58-8.74,3.97-8.36-.81,.18-2.22,1.87-4.28,4.16-4.42,2.87-.17,5.92,2.88,5.04,5.82-.02,.05,.04,.14,.05,.05h0Z"/><path class="cls-5" d="M979.61,338.31c-.04,.14-.48,.42-.61,.43-.67,.04-.52-.36-.55-.88-.05-.88,.27-1.14,.89-1.68,.76-.67,1.53-1.33,2.31-1.97,1.56-1.29,3.14-2.55,4.76-3.77,3.13-2.36,6.33-4.62,9.61-6.76,6.66-4.34,13.62-8.2,20.7-11.81,14.53-7.4,29.48-14.07,44.35-20.77,15.44-6.96,31.02-13.64,46.93-19.49,15.65-5.76,31.72-10.55,48.05-13.95,16.16-3.37,32.64-5.23,49.15-5.17,2.06,0,4.12,.05,6.18,.12l-.17-2.69c-2.09,2.32-3.97,4.74-5.85,7.23-.19,.25-.04,1.58,.15,1.4,2.1-1.93,4.08-3.86,5.98-5.99,.29-.33,.5-2.67-.17-2.69-17.39-.45-34.75,1.48-51.75,5.09s-33.85,8.96-50.29,15.02-32.42,12.97-48.31,20.19c-15.6,7.1-31.3,14.15-46.46,22.14-7.37,3.88-14.58,8.06-21.44,12.8-3.43,2.37-6.75,4.88-9.93,7.56-1.49,1.25-3.31,2.52-4.51,4.05-.37,.47-.8,1.27-.3,1.81,.39,.43,1.17,.41,1.32-.19,0-.01,0-.05-.02-.02h0Z"/><path class="cls-5" d="M409.04,383.68c1.26-.18,2.58,.04,3.84,.16,.06,0,.07-.33,0-.34-8.04-1.49-16.31-1.76-24.47-1.44s-16.64,1.28-24.72,3.12c-.39,.09-.3,1.04-.28,1.28,.5,6.48,7.69,10.29,12.85,12.76,8.04,3.85,16.69,6.39,25.25,8.77,7.66,2.13,15.29,4.08,22.79,6.74,14.16,5.02,28.19,10.41,42.54,14.87,7.75,2.41,15.63,4.68,23.65,5.93,3.85,.6,7.76,.98,11.66,.87,1.84-.05,3.68-.21,5.49-.52,.96-.16,1.92-.36,2.86-.61,.77-.2,1.64-.63,2.43-.43l-.22-3.21c-.22,.26-1.24-.74-.88,.14l.05,2.14c.09-.35,.49-.7,.62-1.07,.17-.5,.14-1,.09-1.52-.1-1.16-.57-.21-.51,.46l.02,.2,.16-1.05c-.98,.48-1.27,.72-1.23,2,.02,.61,.11,1.36,.64,1.77,.42,.33,1.21,.4,1.52-.1,.27-.44,.48-3.02-.34-3.05-.71-.02-1.34,.41-2.02,.61-.8,.24-1.62,.45-2.44,.63-1.66,.36-3.34,.6-5.03,.74-3.3,.27-6.63,.17-9.92-.15-6.86-.67-13.62-2.36-20.26-4.17-14.35-3.9-28.27-9.12-42.24-14.16-4.98-1.8-9.95-3.72-15.04-5.19-3.34-.97-6.71-1.83-10.07-2.73-8.5-2.28-17.03-4.65-25.18-7.99-3.96-1.62-7.93-3.47-11.38-6.02-2.32-1.72-4.99-4.13-5.24-7.21l-.28,1.28c8.12-1.86,16.42-2.66,24.72-3.14,8.13-.47,16.3-.62,24.43-.21v-.34c-1.29,0-2.57,.1-3.84,.06-.03,0-.02,.13,0,.12h0Z"/><path class="cls-5" d="M509.55,416.45c8.35,26.99,8.38,55.41,11.34,83.26,2.48,23.35,7.46,47.28,20.49,67.23,3.5,5.36,7.61,10.33,12.27,14.73,2.04,1.93,3.95,3.77,6.68,4.62,.97,.3,2.15,.59,3.18,.4,1.26-.23,2.07-2.07,2.36-3.16l-.42,.9c.91-1.01,1.12-2.34,1.11-3.67,0-.36-.08-1.49-.58-1.58s-.61,.86-.65,1.18c0,.07-.16,.16-.33,.14-.31-.05-.58-.25-.86-.38-.87-.4-1.91-.12-2.87-.28-2.3-.39-4.02-1.67-5.7-3.2-4.15-3.78-7.82-8.11-11.05-12.69-6.34-9-11.1-19.17-14.42-29.64s-5.79-21.79-7.34-32.91c-1.9-13.54-2.91-27.19-4.49-40.77-1.74-14.95-3.97-29.86-8.7-44.2,0-.03-.02,.01-.02,.02h0Z"/><path class="cls-5" d="M562.91,581.1c1.58-1.24,3-2.26,4.13-3.98,1.06-1.61,1.8-3.42,2.36-5.26,1.36-4.4,1.89-9.07,2.62-13.61,1.69-10.45,2.94-20.97,4.55-31.44,.78-5.07,1.66-10.19,2.97-15.15s2.34-10.12,3.87-15.1c3.14-10.24,7.53-19.9,13.14-29.03,3.15-5.12,6.59-10.05,10.05-14.96,1.75-2.48,3.52-4.94,5.31-7.39,.85-1.17,1.71-2.34,2.56-3.51,1.1-1.51,1.8-3.11,2.45-4.86,.13-.36,.27-3.36-.56-3.05-.96,.35-1.69,.73-2.39,1.49-.95,1.02-1.77,2.21-2.62,3.31-1.56,2.02-3.11,4.05-4.65,6.09-3.22,4.28-6.28,8.67-9.15,13.2-5.67,8.94-10.6,18.39-14.14,28.38-1.83,5.15-3.3,10.41-4.59,15.71-1.37,5.62-2.19,11.37-2.97,17.1-1.44,10.56-2.58,21.15-3.77,31.74-.65,5.75-1.09,11.57-2.14,17.27-.46,2.48-1.08,4.97-2.16,7.26-.99,2.1-2.65,4.73-4.88,5.68-.04,.02,0,.14,.02,.12h0Z"/><path class="cls-5" d="M611.35,431.38c-.15,.16-.08-.06,.02-.12,.1-.06,.2-.09,.32-.08,.33,.03,.72,.28,1.02,.42,.68,.32,1.3,.69,1.87,1.19,1.07,.94,1.96,2.29,2.14,3.73,.15,1.2-.44,2.42-1.15,3.35-.97,1.27-2,2.47-3.42,3.25-.19,.1-.19,.95,.07,.95,1.59,0,3.07-.54,4-1.87,1.03-1.48,1.51-3.3,1.44-5.1-.07-1.7-.62-3.38-1.72-4.69-.91-1.08-2.39-2.22-3.88-2.23-.55,0-.9,.54-.96,1.05-.04,.32,0,.36,.27,.26,.04-.02,0-.14-.02-.12h0Z"/><path class="cls-5" d="M609.86,449.69c-.04-.16,.04-.43,.07-.6s.07-.32,.12-.47c.09-.3,.22-.59,.36-.87,.29-.55,.67-1.05,1.11-1.48,.88-.85,2.03-1.41,3.25-1.52,.02,0,.02-.1,0-.1-1.3,.14-2.5,.78-3.4,1.72-.44,.46-.81,1-1.07,1.58-.13,.28-.23,.57-.31,.87-.03,.13-.06,.25-.08,.38-.01,.08,0,.41-.07,.47-.08,.07,.07,.19,.02,.03h0Z"/><path class="cls-5" d="M615.07,442.98c-.65-1.81-1.15-3.67-1.72-5.51l-.5,3.18c1.12,.48,2.1,.91,3.33,1.04s2.59,.05,3.87,.06c2.5,.02,5,.02,7.5,0,5-.03,10-.06,15-.19,9.92-.26,19.83-.78,29.71-1.57,19.78-1.58,39.47-4.21,58.96-7.89,5.47-1.03,10.92-2.15,16.35-3.34,2.68-.59,5.35-1.2,8.02-1.82,1.41-.33,2.83-.67,4.23-1.03,.55-.14,1.12-.24,1.64-.47,.8-.35,1.23-1.37,1.7-2.06,.33-.48,.44-1.87-.06-2.29-.42-.36-1-1.06-1.54-1.22-.48-.14-1.2,.17-1.65,.28-1.25,.3-2.51,.6-3.76,.9-2.43,.58-4.87,1.15-7.31,1.7-4.8,1.08-9.62,2.1-14.44,3.05-9.66,1.9-19.36,3.54-29.1,4.93-19.56,2.78-39.28,4.52-59.03,5.21-5.48,.19-10.96,.3-16.45,.33-2.82,.01-5.65-.02-8.47-.07-1.37-.02-2.74-.05-4.11-.09-1.62-.04-2.83,.24-4.33,.81-.98,.37-.63,3.12-.07,3.73,.73,.79,1.56,1.55,2.19,2.42,.03,.04,.03-.08,.02-.1h0Z"/><path class="cls-5" d="M754.38,416.46c2.28,.17,4.72,1.22,6.83,2.05s4.09,1.95,6.09,2.98c4.02,2.07,7.78,4.59,11.36,7.34,7.56,5.81,14.39,12.53,21.31,19.06,3.99,3.76,8.17,7.47,11.81,11.57,.47,.53,1.06,1.48,1.63,1.88,.3,.21,.39,.28,.81,.19,.82-.16,1.3-.86,1.76-1.51,1.16-1.6,1.65-3.62,2.03-5.53,.4-2.01,.61-4.08,.75-6.12,.07-.99,.1-1.98,.17-2.97,0-.12,.15-1.52,.07-.86,.07-.6,.16-1.19,.27-1.79,.74-3.79,3.19-7.6,5.93-10.51,3.58-3.81,8.25-6.5,13-8.58,2.55-1.12,5.16-2.06,7.81-2.94,.55-.18,1.23-.29,1.63-.71s.96-1.95,1.09-2.51c.3-1.29-.37-2-1.11-3-.09-.23-.25-.36-.48-.41-7.97,2.45-16.13,5.35-22.41,11.02-2.83,2.55-5.14,5.68-6.5,9.25-1.51,3.95-1.89,8.27-1.97,12.47-.02,1.07,0,.47,0,.23,0,.32-.01,.64-.02,.95-.02,.5-.03,1.01-.06,1.51-.06,1.1-.09,1.52-.32,2.63-.45,2.17-1.57,4.09-2.52,6.07l.45-.19c-2.27-1.35-4.21-3.3-6.15-5.06s-3.98-3.6-5.94-5.43c-3.74-3.49-7.45-7.01-11.22-10.47-6.74-6.16-13.85-12.1-22.01-16.3-2.16-1.11-4.36-1.89-6.67-2.63-1.14-.36-2.29-.7-3.45-.98-1.3-.32-2.68-.44-3.96-.83-.02,0-.03,.12,0,.12h0Z"/><path class="cls-5" d="M849.45,416.61c-.17-.11-.27-.32-.4-.47-.12-.14-.19-.14-.36-.15-.3-.02-.57-.05-.86,.04-.55,.17-1.09,.38-1.61,.63s-1.06,.6-1.42,1.03c-.23,.27-.48,.55-.66,.86-.1,.17-.15,.37-.26,.54-.1,.16-.21,.31-.31,.47-.08,.13-.08,1.01,.14,.88,.1-.06,.21-.13,.32-.17,.13-.05,.22,.02,.34,0,.21-.05,.43-.18,.63-.26,.26-.1,.48-.28,.72-.43s.49-.28,.73-.44c.47-.31,.97-.6,1.49-.85,.27-.13,.5-.3,.74-.47,.13-.09,.27-.17,.36-.29,.18-.24,.22-.55,.42-.78,.02-.02,.02-.1,0-.12h0Z"/><path class="cls-5" d="M362.37,388.14c-1.43-.06-2.86-.5-4.26-.75s-2.82-.54-4.22-.86c-2.8-.65-5.57-1.45-8.29-2.38-5.43-1.87-10.69-4.2-15.93-6.53-2.74-1.22-5.49-2.44-8.23-3.65-2.05-.91-4.93-1.72-6.3-3.64-1.89-2.64,2.03-4.6,3.93-5.53,2.69-1.3,5.37-2.62,8.05-3.94,6.13-3.04,12.21-6.17,18.3-9.3,.1-.05,.06-.47-.05-.42-5.99,2.78-11.99,5.54-17.94,8.4-2.99,1.44-5.99,2.86-8.95,4.36-1.77,.89-3.82,2.09-4.22,4.21-.33,1.78,.51,3.33,1.93,4.37,2.3,1.68,5.32,2.57,7.91,3.7,5.78,2.51,11.53,5.16,17.46,7.32,3.28,1.2,6.61,2.25,10.01,3.07,1.7,.41,3.41,.76,5.13,1.05,1.88,.32,3.8,.31,5.66,.65,.03,0,.03-.12,0-.12h0Z"/><path class="cls-5" d="M318.93,363.72c17.4-7.76,34.75-15.62,52.09-23.51s34.69-15.79,52.04-23.66c16.6-7.53,33.27-14.94,50.46-21.04s35.13-10.56,53.25-13.89,37.25-6.57,55.87-9.84c1.05-.19,2.11-.36,3.16-.56,1.27-.24,2.46-.73,3.68-1.17,.36-.13,.34-1.7-.04-1.7-4.71,0-9.36,1.21-13.99,2.07l-14.24,2.64c-9.26,1.72-18.52,3.41-27.77,5.19-18.22,3.5-36.36,7.49-53.93,13.53s-33.64,13.2-50.05,20.7c-17.25,7.89-34.45,15.88-51.66,23.83s-34.88,16.08-52.26,24.24c-2.21,1.04-4.41,2.07-6.62,3.11-.01,0,0,.05,0,.05h0Z"/><path class="cls-5" d="M582.32,269.55c16.56-12.86,28.56-29.95,40.96-46.61s24.57-31.99,41.12-43.53c8.98-6.26,18.98-10.99,29.75-13.12l-.44-2.56c-5.43,17.76-10.99,36.11-9.62,54.91,.6,8.23,2.38,16.52,5.92,24s9.03,14,15.59,19.22c3.65,2.9,7.56,5.41,11.61,7.7,2.03,1.15,4.09,2.26,6.16,3.33,1.03,.54,2.06,1.1,3.12,1.6,.95,.44,2.09,.45,3.12,.57,.7,.09,.38-2.06,.06-2.34-.79-.71-1.6-1.64-2.49-2.22-.84-.55-1.85-.94-2.74-1.39-1.77-.91-3.53-1.83-5.28-2.79-3.41-1.87-6.77-3.86-9.99-6.04-6.47-4.38-12.21-9.73-16.28-16.45-8.68-14.3-9.1-31.73-6.26-47.77,1.82-10.27,4.85-20.26,7.87-30.22,.1-.33,.29-2.71-.44-2.56-19.36,3.85-35.71,15.87-49.12,29.88-14.37,15.01-25.49,32.65-38.2,49-7.49,9.64-15.32,19.07-24.46,27.21-.04,.04-.02,.22,.03,.19h0Z"/><path class="cls-5" d="M726.34,278.72c.46-.07,.99,.09,1.46,.1s.91-.02,1.37-.08c.88-.12,1.72-.38,2.52-.76,.1-.05,.06-.38,.05-.46-.17-.83-.3-1.65-.38-2.49-.01-.15-.05-.55-.25-.59-.89-.17-1.77,.1-2.63,.33-.8,.22-1.6,.47-2.38,.74-1.6,.57-3.15,1.27-4.65,2.07-.4,.22-.38,2.37,.16,2.37,.89,0,1.81,.08,2.69-.06s1.71-.29,2.58-.37l5.26-.5c.15-.01,.14-.67-.02-.68l-5.29-.43c-.87-.07-1.73-.22-2.59-.34s-1.8-.04-2.69-.03l.16,2.37c1.51-.86,3.09-1.6,4.72-2.21,.79-.29,1.58-.56,2.39-.79s1.66-.43,2.4-.88l-.24-.2c.27,.66,.45,1.32,.61,2.01l.05-.46c-.79,.48-1.65,.84-2.55,1.06-.42,.1-.84,.17-1.27,.21-.45,.04-1.03,.12-1.46-.06-.03-.01-.03,.13,0,.12h0Z"/><path class="cls-5" d="M618.91,271.1c17.43,.11,34.88,.8,52.27,2.05s34.93,3.09,52.32,5.38,34.57,5.07,51.76,8.23,34.39,6.62,51.5,10.32,34.35,7.78,51.46,11.96c2.13,.52,4.14,.95,6.33,1.13,.28,.02,.27-1.47-.04-1.6-4.07-1.7-8.42-2.56-12.7-3.61s-8.64-2.08-12.97-3.08c-8.48-1.95-16.98-3.82-25.5-5.62-17.18-3.64-34.41-7-51.72-9.97s-34.42-5.58-51.7-7.86c-17.29-2.28-34.63-4.13-52.02-5.42s-34.98-2.07-52.49-2.03c-2.17,0-4.34,.02-6.51,.05-.01,0,0,.05,0,.05h0Z"/><path class="cls-5" d="M876.54,308.47c9.12-1.58,18.17-3.74,27.19-5.83,4.49-1.04,8.98-2.09,13.47-3.17,2.02-.48,4.18-1.17,6.27-.7,1.53,.34,2.77,1.32,3.64,2.61,1.7,2.52,2.18,5.74,2.93,8.63,.87,3.37,2.35,6.49,4.4,9.29,4.56,6.21,11.18,10.82,18.21,13.79,4.37,1.85,8.87,3.3,13.41,4.67,2.36,.71,4.85,1.6,7.33,1.77s4.94-.7,7.42-1.2c.27-.05,.23-1.26-.03-1.26-2.21,0-4.49-.9-6.57-1.63s-4.31-1.19-6.45-1.82c-4.04-1.19-8.1-2.41-12.09-3.77-7.28-2.49-14.73-5.66-19.91-11.56-2.48-2.83-4.3-6.1-5.3-9.73-.77-2.78-1.27-5.74-2.72-8.27-1.6-2.81-4.21-3.97-7.41-3.42-4.46,.76-8.89,2.15-13.28,3.27-10.2,2.61-20.47,5.11-30.51,8.27-.01,0,0,.05,0,.05h0Z"/><path class="cls-5" d="M975.14,338.13c1.46-1.36,3.25-2.47,4.85-3.66s3.26-2.4,4.91-3.59c3.24-2.33,6.53-4.58,9.81-6.85,6.66-4.61,13.46-9.01,20.4-13.19,13.88-8.37,28.28-15.87,43.08-22.45s30.23-12.43,45.85-17.23c15.51-4.77,31.33-8.55,47.3-11.4s32-4.68,48.15-5.5c.99-.05,1.97-.1,2.96-.14,1.08-.05,2.12-.38,3.16-.63,.33-.08,.3-1.45-.04-1.5-.98-.16-1.98-.39-2.98-.39-1.05,0-2.12,.1-3.17,.15-2.04,.11-4.09,.23-6.13,.37-4.09,.28-8.17,.63-12.24,1.04-8.08,.81-16.13,1.88-24.14,3.2-16.04,2.64-31.88,6.32-47.46,10.94s-30.83,10.11-45.67,16.62-29.53,14.04-43.57,22.39c-14.04,8.35-27.52,17.55-40.27,27.77-1.59,1.28-3.12,2.8-4.81,3.93-.03,.02,0,.14,.01,.12h0Z"/><path class="cls-5" d="M374.17,366.52c0-.09,.06-.18,.08-.28s.02-.19,.03-.28v-.11c.02-.12,.01-.1-.01,.08,0,0,.06-.22,.06-.23,.03-.18,.03-.37,.03-.55v-.56c0-.07-.12-1.08-.41-.82-.44,.4-.63,.98-.7,1.56-.1,.83-.06,1.83,.26,2.61,.22,.54,.64,1.08,1.18,1.32,.13,.06,.27,.11,.41,.15,.16,.04,.36-.09,.51-.17,.26-.14,.5-.33,.7-.55,.71-.78,1.01-1.77,1.1-2.81,.04-.48,0-.98-.14-1.44-.08-.28-.18-.55-.48-.64-.34-.1-.64-.04-.95,.1-.33,.15-.54,.39-.77,.67l.15-.18c-.24,.27-.43,.5-.54,.86-.18,.57-.24,1.16-.24,1.76,0,.94,.19,1.95,.86,2.66l.18,.06c.66-.26,1.17-.7,1.48-1.35,.58-1.2,.62-2.58,.35-3.87-.04-.21-.24-.95-.59-.89-1.4,.23-2.42,1.27-2.88,2.58-.19,.54-.2,1.19-.12,1.76,.03,.27,.09,.54,.19,.79,.06,.18,.16,.33,.3,.46,.25,.1,.51,.18,.78,.22,.23,.03,.4-.02,.62-.1,.25-.1,.55-.2,.75-.39,.08-.07,.14-.18,.21-.26,.11-.13-.06,.03,.07-.04,.11-.06,.21-.16,.3-.24,.81-.73,1.44-1.75,1.5-2.86,.01-.2,0-.43-.09-.61-.05-.09-.17-.19-.23-.04-.17,.37-.33,.63-.65,.87s-.69,.34-1.11,.38l.13,.04c-.19-.08-.35-.15-.56-.17-.17-.01-.33-.04-.49-.08s-.31-.07-.47-.1c-.17-.02-.34-.06-.51-.12l.17,.06s-.1-.04-.15-.06l.36,3.01c.11-.29-.1,.19,0,0,.04-.07,.07-.14,.11-.21,.08-.14,.17-.27,.27-.39l-.15,.19c.34-.4,.76-.71,1.24-.92l-.17,.07c.23-.09,.46-.15,.7-.19l-.59-.89c-.06-.34-.07-.43-.05-.27,.02,.18,.01,.07-.02-.32,0,.26,.03-.54,0-.26s.07-.48,.03-.22c-.04,.24,.12-.41,.03-.13-.01,.04-.03,.16-.07,.19l.08-.19s-.03,.07-.05,.1c-.06,.12-.14,.23-.22,.33l.15-.19c-.23,.28-.51,.5-.84,.64l.18-.07-.05,.02,.18,.06-.03-.03,.16,.18c-.05-.06-.09-.12-.13-.18-.1-.15,.13,.28,.07,.15-.05-.12-.05-.27,.07,.23-.05-.2,.06,.36,.05,.32-.03-.25,.03,.52,.02,.34,0-.2-.03,.58,0,.34,.02-.22-.07,.48-.04,.29,.05-.25-.12,.42-.04,.14,.02-.08,.05-.16,.07-.24,.01-.04,.03-.08,.04-.12,.03-.1-.15,.28-.05,.11,.04-.07,.08-.13,.13-.2l-.14,.18c.17-.21,.38-.39,.64-.5l-.16,.06c.21-.08,.43-.11,.65-.07l-.62-2.08s0,.08,0,.12c-.02,.15,0,.08,.03-.21-.01,.06-.03,.12-.03,.18,.04-.36,.06-.22,.02-.09-.02,.07-.05,.14-.07,.2-.03,.08-.01,.04,.05-.11-.02,.04-.04,.08-.05,.11-.03,.06-.06,.11-.09,.16-.07,.13-.16,.24-.24,.36l.13-.16c-.27,.34-.61,.62-1,.81l.15-.06c-.11-.02-.21-.04-.31-.07l.15,.05c-.28-.1-.53-.28-.73-.5l.13,.15c-.16-.19-.27-.42-.45-.6-.09-.09,.03,.02,.04,.05,0-.03-.05-.07-.07-.1-.02-.02-.03-.05-.04-.07,.11,.33,.15,.42,.11,.27,.03,.18,.04,.23,.03,.15,0-.1,.02-.25,0,.08,0-.09,.03-.21,0,.08,.03-.24-.03,.15,0,0,.03-.15-.05,.16,0,0,.02-.05,.03-.09,.05-.14,.03-.06,.02-.06,0,.01,.01-.03,.03-.06,.04-.09,.05-.1,.12-.2,.19-.29l-.46-.5c.04,.41,.03,.88,.25,1.24l-.08-.21c.03,.14,.05,.3,.09,.44,.03,.08,.11,.16,.11,.25,0,.07,.04,.04,.04-.02h0Z"/><path class="cls-5" d="M375.96,358.82c-1.05,.4-2.16,.51-3.19,1.02s-2.05,1.24-2.9,2.09c-1.48,1.5-2.52,3.44-2.81,5.53-.57,4.13,2.07,8.09,5.96,9.47s7.69-.57,9.44-4.13c1.93-3.92,1.19-9.27-.92-12.96-.69-1.2-1.71-2.67-2.99-3.29s-2.56-.52-3.8,.15c-2.24,1.2-3.59,3.75-5.47,5.39-.34,.3-.24,1.25,.04,1.54,.6,.64,1.24,1.26,2.18,1.09,.89-.15,1.58-.56,2.3-1.08,1.55-1.11,2.91-1.91,4.81-1.03,2.85,1.32,4.23,4.39,3.86,7.42-.46,3.67-3.13,6.76-7.02,6.7s-7.71-3.26-8.23-7.16c-.35-2.63,.77-5.28,2.51-7.22,.78-.88,1.7-1.63,2.72-2.22,.96-.55,2.37-1.29,3.51-1.19,.04,0,.02-.13,0-.12h0Z"/><path class="cls-5" d="M314.92,372.36c4.01-.66,7.96-1.7,11.95-2.45s7.88-1.4,11.84-1.96c8.02-1.14,16.08-1.75,24.17-2.07,4.65-.18,9.28-.35,13.93-.32,.06,0,.06-.29,0-.29-16.17-.87-32.44,.38-48.31,3.64-4.55,.93-9.2,1.85-13.59,3.4-.01,0,0,.05,0,.05h0Z"/><path class="cls-5" d="M389.17,373.04c-1.3-.33-2.61-.61-3.88-1.02v.3c3.57,.19,7.22-.16,10.79-.21s6.87-.06,10.3-.04c7.03,.04,14.06,.21,21.08,.52,14.05,.62,28.06,1.7,42.03,3.35,7.94,.94,15.87,2.06,23.79,3.21,.07,0,.09-.37,0-.39-13.84-2.51-27.83-4.14-41.84-5.33-14.01-1.19-28.05-1.82-42.11-1.88-3.92-.02-7.85,0-11.77,.08-2.04,.04-4.09,.08-6.13,.14s-4.12,0-6.13,.25c-.07,0-.06,.29,0,.3,1.3,.19,2.59,.5,3.88,.77,0,0,.01-.05,0-.05h0Z"/><path class="cls-5" d="M485.08,357.88c-.43-.86-.54-1.28-.53-2.43,0-.23-.38-3.06-1.25-2.28-1.1,.99-1.41,2.92-1.77,4.28-.43,1.6-.79,3.22-1.09,4.85-.63,3.53-.99,7.09-1.07,10.67-.16,6.81,.62,14.09,2.85,20.56,.18,.53,.48,1.65,1.25,1.63,.66-.02,.91-.86,1.07-1.35,.41-1.28,.6-4.45-.86-5.26-.02-.02-.05-.03-.08-.04l.46,.61c-.35-.81-.23-2.18-.29-3.04-.05-.7-.62-1.23-.7-.21-.04,.53-.08,1.06-.13,1.59-.02,.2-.24,1.2,0,1.11l1.62,1.51c-1.45-5.46-2.44-10.82-2.44-16.49,0-2.64,.18-5.29,.56-7.91,.46-3.2,1.67-6.37,1.86-9.59l-.87,1.78,1.38,.1c.02,.06,.05-.06,.03-.09h0Z"/><path class="cls-5" d="M504.12,356.26c-.65-.75-1.23-1.38-1.66-2.28-.03-.07-.08-.17-.17-.17-1.34-.03-2.83,1.76-3.64,2.71-1.17,1.37-1.96,3.07-2.59,4.74-1.45,3.87-2.14,8.02-2.58,12.12-1.05,9.64-.43,19.58,1.82,29.01,.14,.59,.59,1.66,1.35,1.45s1.01-1.62,1.04-2.24c.07-1.31-.26-2.66-.11-3.96,.14-1.17,.57-2.3,1.05-3.37,.16-.37-.14-2.27-.56-1.59-1.15,1.87-2.24,4.02-2.83,6.14l1.1-1.57h-.13l1.17,1.51c-2.2-8.08-2.93-16.37-2.07-24.7,.38-3.73,1-7.45,2.4-10.95,.65-1.62,1.41-3.21,2.32-4.7,.5-.81,1.05-1.64,1.65-2.39,.28-.36,.65-.93,1.24-.81,.35,.07,.95,.86,1.22,1.1,0,0,.01-.04,0-.04h0Z"/><path class="cls-5" d="M515.57,362.94c.3-1,0-1.75-.55-2.6-.01-.02-.03-.03-.05-.03-.58,.19-1.22,.18-1.76,.5-.6,.36-1.12,1.06-1.57,1.6-1.03,1.25-1.87,2.65-2.57,4.11-1.6,3.32-2.27,6.96-2.8,10.58-1.35,9.11-1.63,18.41-1.19,27.6,.05,1.05,.28,3.85,1.81,3.86s1.6-3.09,1.62-3.95c.02-1.07-.03-2.18,.07-3.25,.11-1.17,.34-2.34,.47-3.52,.05-.41-.4-2.17-.87-1.09-.39,.89-.66,1.86-1.09,2.73-.32,.65-.83,1.22-1.24,1.82l2.67,3.31c-.58-8.16-.34-16.16,.55-24.27,.37-3.33,.8-6.28,1.62-9.62,.4-1.62,.92-3.2,1.62-4.72,.36-.78,.8-1.5,1.22-2.24,.19-.33,.35-.67,.51-1.02,.13-.27,.26-.55,.39-.82,.28-.94,.65-.61,1.12,1,0,.01,0,.05,.02,.02h0Z"/><path class="cls-5" d="M529.6,366.18c-.05-.8-.97-1.5-1.76-1.25s-1.36,1.17-1.95,1.69c-.67,.6-1.39,1.19-1.95,1.91-1.31,1.68-2.3,3.75-3.24,5.65s-1.73,3.96-2.39,6c-2.94,9-3.82,19-2.23,28.36l3.32-3.29c-.45-1.23-.74-2.11-2.06-2.47l.98,.86c-.37-.89,.02-2.03,.29-2.9,.09-.31-.19-2.3-.72-1.51-.71,1.07-1.12,2.24-1.45,3.48-.57,2.17-.85,4.68-.15,6.83,.32,.97,1.17,2.74,2.37,1.65s1.17-3.51,.96-4.94c-.14-.95-.29-1.91-.4-2.87-.05-.41-.09-.82-.13-1.23,.07,.79-.04-.59-.05-.74-.05-.89-.09-1.79-.09-2.68,0-.41,0-.82,0-1.24,0-.27,0-.55,.02-.82-.01,.41,0,.36,.01-.14,.26-3.7,.67-6.43,1.58-10.07,.86-3.42,2.11-6.76,3.55-9.97,.79-1.76,1.65-3.48,2.38-5.27,.41-1.01,.9-1.97,1.38-2.95,.2-.4,.36-.82,.6-1.2,.02-.03,1.02-1.26,1.07-.84,0,.07,.05,.04,.05-.02h0Z"/><path class="cls-5" d="M535.98,376.56c-.62-.51-.96-1.04-1.79-.64-.41,.2-.92,.56-1.29,.83-.94,.68-1.74,1.72-2.38,2.67-1.57,2.36-2.55,4.99-3.3,7.71-.8,2.89-1.08,5.91-1.13,8.89-.02,1.53,.07,3.08,.28,4.59s.41,4.21,1.95,4.97c.32,.19,.63,.18,.94-.02,1-.89,1.54-2.68,1.5-4.03-.02-.67-.2-2.4-1.19-2.22-1.17,.21-.78,2.71-.32,3.35l.14,.2-.41-1.14,.02,.19,.35-2.3,.27-.16,.84,1.82c-.03-.26-.06-.52-.1-.77-.05-.29-.11-.57-.17-.86-.11-.57-.13-.68-.08-.33,.09,.49-.04-.3-.05-.39-.03-.26-.06-.51-.09-.77-.04-.45-.05-.79-.02-.14-.01-.25-.03-.5-.04-.76s-.02-.51-.02-.76c0-.01,.03-1.19,0-.53-.03,.59,.02-.23,.03-.34,.02-.31,.05-.63,.08-.94,.03-.25,.06-.5,.09-.75-.06,.41-.06,.37,.02-.01,.12-.56,.23-1.11,.36-1.67,.06-.25,.12-.49,.19-.74,.18-.67-.28,.8,.11-.35,.71-2.11,1.63-4.11,2.61-6.11,.54-1.11,1.08-2.23,1.67-3.31,.7-1.29,.91-2.47,1.18-3.88,.07-.39,.09-1.03-.26-1.31h0Z"/><path class="cls-5" d="M545.44,398.76c-1.65,0-3.38-.38-5.02-.6-.02,0-.02,.09,0,.1,11.51,3.57,23.45,5.08,35.43,5.91,12.36,.86,24.77,1.26,37.16,1.54,25.06,.57,50.14,.26,75.18-.93,14.13-.67,28.25-1.61,42.34-2.93,.04,0,.03-.15,0-.15-25.73,2.08-51.51,3.48-77.32,3.85-25.53,.37-51.17,.06-76.66-1.67-6.86-.46-13.7-1.13-20.49-2.26-3.41-.57-6.81-1.22-10.18-2.02-.37-.09-5.04-1.19-5.02-1.32,0-.04,4.19,.5,4.57,.59,.02,0,.03-.12,0-.12h0Z"/><path class="cls-5" d="M575.75,386.65c-.67,.37-1.39,.47-2.12,.27-.31-.09-1.02-.36-1.22-.65-.18-.26-.43-1.48-.16-1.8,.39-.48,2.4-.83,2.94-1.01,.98-.33,1.96-.66,2.95-.98,3.51-1.15,7.05-2.24,10.59-3.3,7.38-2.21,14.82-4.19,22.31-5.96,14.87-3.52,29.91-6.27,45.01-8.57,30.53-4.65,61.31-7.86,92.12-9.92s62.28-2.89,93.44-2.45c31.16,.44,62.31,2.14,93.34,5.1s61.58,7.3,92.17,12.49c3.87,.66,7.74,1.34,11.61,2.03,.03,0,.05-.23,0-.24-30.3-5.92-60.89-10.31-91.59-13.55-30.54-3.22-61.21-5.23-91.92-6.01s-61.74-.34-92.56,1.34-61.52,4.59-92.07,8.75c-29.88,4.06-59.97,9.27-88.65,18.79-3.53,1.17-7.03,2.4-10.51,3.69-.02,0-.01,.07,0,.08,.61,1.98,2.46,2.64,4.36,2.03,.04-.01,.02-.13,0-.12h0Z"/><path class="cls-5" d="M606.14,339.78c6.32-2.51,13.66-3,20.36-3.71s13.54-1.39,20.32-1.98c13.56-1.18,27.15-2.05,40.75-2.6,27.33-1.11,54.71-.94,82.02,.5,27.19,1.43,54.31,4.1,81.25,8.01s53.7,9.06,80.17,15.44c26.61,6.41,52.83,14.17,78.77,22.89,3.16,1.06,6.31,2.14,9.46,3.24,.01,0,.04-.18,0-.19-25.61-9.24-51.73-17.08-78.13-23.76-26.52-6.71-53.34-12.18-80.37-16.41s-53.99-7.18-81.16-8.91c-27.17-1.72-54.42-2.2-81.63-1.42-13.61,.39-27.2,1.1-40.78,2.13s-27.62,1.97-41.17,4.33c-3.36,.58-6.58,1.55-9.88,2.33-.04,0-.01,.13,0,.12h0Z"/><path class="cls-5" d="M1097.83,303.74c-20.96,12.89-39.92,29-56.01,47.62-4.45,5.15-8.65,10.5-12.63,16.02-.01,.02,0,.11,.02,.08,14.42-19.78,31.76-37.4,51.41-52,5.57-4.14,11.31-8.03,17.21-11.67,.01,0,0-.05,0-.05h0Z"/><path class="cls-5" d="M979.16,376.25c3.18,2.18,6.29,4.31,9.75,6.06,3.23,1.63,6.59,3,10.04,4.1,7.19,2.29,14.84,3.32,22.38,2.9,.05,0,.04-.19,0-.19-7.46,.1-14.83-.87-21.98-3.01s-14.34-5.39-20.18-9.97c-.02-.01-.04,.1,0,.12h0Z"/><path class="cls-5" d="M979.3,372.91c.4,3.9,.84,7.67,1.89,11.46s2.39,7.38,4.22,10.81c3.95,7.4,9.71,13.26,16.3,18.37,7.12,5.52,14.66,10.55,22.02,15.75s14.4,10.77,22.47,14.53c4.3,2,8.87,3.41,13.49,4.47,2.37,.54,4.76,.98,7.15,1.37s4.91,.96,7.41,.43c.44-.09,.39-1.54,.04-1.72-1.92-.98-3.84-1.32-5.96-1.68s-4.05-.71-6.06-1.12c-4.16-.86-8.3-1.88-12.29-3.38-8.05-3.03-14.97-8.16-22-13s-14.58-9.95-21.79-15.04c-6.62-4.67-12.93-9.79-17.7-16.4-5.11-7.08-8.93-16.04-9.16-24.87,0-.09-.05-.06-.04,.02h0Z"/><path class="cls-5" d="M783.37,421.62v-2.48c0-.07-.05-.07-.05,0v2.48c0,.07,.05,.07,.05,0h0Z"/><path class="cls-5" d="M779.4,418.28c6.49,5.61,13.59,10.89,19.12,17.49,5.16,6.16,8.74,13.55,10.48,21.38,.03,.15,.09-.06,.08-.12-1.67-7.77-5.17-15.09-10.23-21.23-5.55-6.74-12.73-12.07-19.45-17.57,0,0-.01,.04,0,.05h0Z"/><path class="cls-5" d="M513.15,426.58c2.75-.37,5.74-.06,8.52-.02s5.68,.13,8.52,.24c5.6,.22,11.19,.5,16.77,.93,11.24,.86,22.45,2.23,33.57,4.11,6.24,1.05,12.44,2.29,18.63,3.55,.02,0,.03-.14,0-.15-10.97-2.6-22.14-4.44-33.32-5.87-11.18-1.43-22.44-2.4-33.71-2.78-3.08-.1-6.16-.14-9.24-.16-1.62,0-3.24,0-4.87,0s-3.27,.18-4.87,0c-.03,0-.02,.13,0,.12h0Z"/><path class="cls-5" d="M520.51,438.06c-.29-.57,.14-1.21,.59-1.51,.38-.25,.86-.42,1.31-.51,1.06-.2,2.23-.1,3.3-.12,2.37-.04,4.73-.05,7.1-.03,4.65,.03,9.3,.15,13.95,.37,9.38,.44,18.73,1.21,28.05,2.4,5.34,.68,10.65,1.56,15.97,2.37,.03,0,.04-.18,0-.19-10.15-2.01-20.52-3.17-30.83-4.02-10.33-.85-20.7-1.19-31.06-1.05-1.05,.01-9.89-.61-8.38,2.34,0,.01,.01-.03,0-.04h0Z"/><path class="cls-5" d="M518.11,445.62c2.47-.59,5.21-.6,7.74-.8s5.17-.38,7.76-.52c5.18-.27,10.37-.39,15.55-.37,10.37,.05,20.75,.7,31.04,1.94,2.82,.34,5.63,.72,8.43,1.15,.72,.11,1.44,.22,2.16,.34,.04,0,.87,.07,.96,.16,.29,.29,.23,.15-.09,.5-.79,.85-2.21,.99-3.26,.74-.02,0-.03,.14,0,.15,1.48,.37,2.9-.11,3.84-1.3,.02-.03,.04-.18-.01-.19-19.04-3.1-38.39-4.19-57.66-3.21-2.75,.14-5.5,.32-8.25,.55s-5.52,.78-8.23,.74c-.03,0-.02,.13,0,.12h0Z"/><path class="cls-5" d="M522.24,454.77c2.32-.57,4.89-.61,7.28-.82s4.86-.41,7.3-.56c4.95-.31,9.91-.47,14.87-.49,9.84-.04,19.68,.48,29.46,1.55,1.29,.14,2.59,.3,3.88,.46,.73,.09,1.45,.19,2.18,.28,.11,.02,.65,.02,.73,.1,.22,.24,.02,.26-.26,.48-1.92,1.51-4.33,2.2-6.75,2.01-.03,0-.03,.14,0,.15,2.8,.27,5.46-.64,7.5-2.58,.03-.03,.04-.22-.01-.23-17.09-2.3-34.39-2.91-51.59-1.79-2.35,.15-4.7,.34-7.05,.56-2.47,.23-5.04,.76-7.52,.75-.03,0-.02,.13,0,.12h0Z"/><path class="cls-5" d="M518.19,467.46c18.24-4.13,36.83-4.79,55.37-2.65,.04,0,.05-.23,0-.24-18.36-2.52-37.34-1.32-55.37,2.84-.01,0,0,.05,0,.05h0Z"/><path class="cls-5" d="M518.07,481.75c20.19-3.63,40.71-5.1,61.2-4.45,.03,0,.03-.14,0-.15-20.49-.65-41.03,.89-61.2,4.54-.01,0,0,.05,0,.05h0Z"/><path class="cls-5" d="M514.84,492.94c2.13-.71,4.52-.94,6.74-1.33s4.51-.76,6.77-1.1c4.52-.68,9.06-1.24,13.61-1.69,9.1-.9,18.24-1.32,27.39-1.31,.04,0,.04-.19,0-.19-9.14,.01-18.29,.48-27.38,1.4-4.55,.46-9.09,1.04-13.61,1.74-2.26,.35-4.52,.72-6.77,1.12s-4.5,1.07-6.74,1.23c-.03,0-.01,.13,0,.12h0Z"/><path class="cls-5" d="M525.53,500.87c1.6-.37,3.32-.42,4.95-.6l4.96-.53,9.91-1.07,19.82-2.13s.02-.1,0-.1l-19.82,2.18-9.66,1.06-4.96,.55c-1.71,.19-3.49,.54-5.2,.51-.03,0-.02,.13,0,.12h0Z"/><path class="cls-5" d="M523.08,510.99c1.66-.45,3.46-.55,5.16-.79l5.16-.73,10.32-1.46,20.65-2.93s.02-.15,0-.15l-20.65,3-10.08,1.46-5.16,.75c-1.77,.26-3.62,.69-5.41,.72-.03,0-.02,.13,0,.12h0Z"/><path class="cls-5" d="M521.46,521.86c1.76-.44,3.66-.51,5.45-.73l4.96-.61,10.66-1.31,10.42-1.28,5.21-.64c.73-.09,1.51-.27,2.25-.27,.22,0,1.26,.01,1,.58-.04,.1-.62,.16-.56,0,.02-.04-.01-.21-.03-.17-.31,.75,1.19,.43,.57-.32-.29-.35-.86-.29-1.25-.26-1.16,.09-2.32,.3-3.47,.44l-6.94,.89-13.89,1.78-6.94,.89c-2.43,.31-4.99,.88-7.44,.89-.03,0-.02,.13,0,.12h0Z"/><path class="cls-5" d="M526.57,530.13c1.75-.42,3.63-.47,5.42-.67l4.93-.55,10.59-1.19,10.35-1.17c1.73-.19,3.45-.39,5.17-.6,.59-.07,1.12-.12,1.7,.03s2.29,.78,1.46,1.77c-.03,.04,0,.2,.02,.19,1.15-1.32-1.22-2.29-2.26-2.35-1.89-.12-3.98,.41-5.86,.64l-6.4,.78-12.31,1.51-6.4,.78c-2.1,.26-4.29,.73-6.4,.72-.03,0-.02,.13,0,.12h0Z"/><path class="cls-5" d="M530.57,540.3l17.69-2.51,8.6-1.22,4.42-.63c.34-.05,1.98-.52,2.21-.31l.07-.07-.42,.19c-.42,.18-.84,.4-1.25,.6-.04,.02-.01,.15,0,.15,.7-.3,1.4-.61,2.09-.93,.04-.02,.03-.19,0-.19l-33.4,4.88s0,.05,0,.05h0Z"/><path class="cls-5" d="M533.81,546.45c9.59-.02,19.1-1.55,28.22-4.54,.06-.02,.03-.25,0-.24-9.1,3.04-18.62,4.64-28.21,4.73-.01,0,0,.05,0,.05h0Z"/><path class="cls-5" d="M533.74,553.75c-.16,1.14,1.08,1.56,2.04,1.63,1.41,.11,2.92-.18,4.31-.34,1.47-.17,2.95-.37,4.41-.6,5.94-.96,11.79-2.47,17.42-4.59,.04-.01,.02-.15,0-.15-4.71,1.69-9.51,3.09-14.42,4.08-2.45,.49-4.92,.88-7.41,1.18-1.06,.13-6.69,1.31-6.34-1.18,0-.01,0-.05-.01-.02h0Z"/><path class="cls-5" d="M512.47,425.3c-1.66-2.32-2.97-4.95-4.42-7.41-.07-.12-.12,.22-.09,.29,5.15,10.92,7.66,22.58,9.08,34.51,1.38,11.6,1.52,23.31,2.46,34.94,.96,11.89,2.52,23.6,5.62,35.14s7.07,21.63,12.28,31.76c2.92,5.68,6.21,11.16,9.84,16.42,1.83,2.64,3.72,5.25,5.69,7.79,.95,1.22,1.9,2.43,2.88,3.63,.52,.64,1.06,1.5,1.78,1.93,.62,.37,1.11,.25,1.8,.15,.81-.11,.91-1.39,.79-1.99-.16-.78-.25-1.63-.52-2.39-.3-.83-.85-1.47-1.4-2.13-.99-1.19-1.98-2.39-2.94-3.61-1.88-2.4-3.69-4.86-5.41-7.39-3.3-4.85-6.32-9.89-9.11-15.05-5.54-10.23-9.91-21.16-12.99-32.38-6.31-23.03-5.78-47.16-10.09-70.55-1.19-6.47-2.68-12.89-4.75-19.14-.99-2.99-2.12-5.93-3.42-8.8-.32-.7-.62-1.71-1.09-2.32s-.22-.23-.1,.11c.17,.48,.6,.96,.87,1.39,1.08,1.72,2.28,3.41,3.22,5.21,.03,.06,.06-.06,.03-.1h0Z"/><path class="cls-5" d="M521.09,424.18c11.29,15.92,8.56,36.88,10.53,55.26s7.56,37.66,16.12,54.77c4.85,9.69,10.67,18.84,17.41,27.31,.07,.08,.11-.15,.06-.21-12.14-15.56-21.45-33.28-27.27-52.14-2.89-9.38-4.93-19.02-6.06-28.77s-1.04-18.84-1.92-28.24c-.92-9.86-3.01-19.82-8.86-28.02-.01-.02-.02,.03,0,.04h0Z"/><path class="cls-5" d="M429.64,338.08c-1.69,.14-3.32-.29-4.64-1.4-.23-.2-1.12-.93-1.12-1.21-.01-.63,1.08-1.65,1.52-1.95,.83-.57,2.08-.87,3.01-1.25,3.89-1.57,7.82-3.05,11.78-4.45,7.78-2.75,15.69-5.14,23.66-7.28,16.02-4.3,32.29-7.72,48.59-10.79,33.31-6.28,66.98-10.62,100.79-12.99,33.81-2.37,67.76-2.78,101.62-1.22,33.78,1.56,67.53,5,100.87,10.64s64.9,13.49,96.06,24.8c3.83,1.39,7.63,2.84,11.41,4.33,.01,0,.06-.26,0-.29-30.4-12.51-62.22-21.04-94.48-27.11-32.66-6.15-65.79-9.96-98.95-12.04s-66.82-2.27-100.18-.54-66.96,5.4-100.07,10.98c-16.53,2.79-32.99,6.02-49.32,9.8-15.76,3.65-31.5,7.88-46.58,13.79-3.49,1.37-6.94,2.83-10.36,4.36-.03,.01-.02,.11,0,.13,1.17,2.57,3.59,3.98,6.41,3.71,.01,0,0-.05,0-.05h0Z"/><path class="cls-5" d="M472.65,324.29c7.77-2.86,16.09-4.7,24.11-6.74s15.89-3.88,23.89-5.58c16.16-3.44,32.45-6.23,48.82-8.41,32.95-4.39,66.21-6.34,99.44-6.02s66.01,2.86,98.72,7.37,64.98,10.93,96.91,18.99,63.8,17.88,94.99,29.02c3.83,1.37,7.67,2.72,11.5,4.1,0,0,.03-.13,0-.15-30.85-11.61-62.35-21.57-94.19-30.06-31.98-8.52-64.39-15.43-97.11-20.42-32.62-4.97-65.54-8.04-98.53-8.9s-66.22,.47-99.08,4.26-65.7,10.1-97.68,19.04c-3.93,1.1-7.83,2.45-11.8,3.37-.04,0-.01,.13,0,.12h0Z"/><path class="cls-5" d="M695.53,293.58c-2.86-.45-3.48,3.18-3.95,5.26-.9,3.98-1.69,7.99-2.37,12.02-1.35,8-2.22,16.07-2.66,24.17s-.44,15.96,.03,23.92c.4,6.76,1.21,13.53,2.92,20.09,1.9,7.29,4.98,14.29,9.76,20.16,.04,.05,.06-.09,.03-.13-8.48-10.6-11.42-24.22-12.43-37.47-1.13-14.88-.49-29.94,1.54-44.72,.59-4.29,1.29-8.57,2.13-12.82,.34-1.73,1.64-12.38,5.01-10.37,.03,.02,.05-.11,0-.12h0Z"/><path class="cls-5" d="M709.65,294.14c-2.56-1.06-4.65,1.01-5.88,3.07-1.61,2.7-2.18,6-2.88,9.03-1.68,7.32-2.72,14.78-3.12,22.28-.78,14.75,.86,29.62,4.86,43.84,2.29,8.13,5.34,16.04,9.17,23.57,.05,.09,.08-.09,.06-.14-12.86-25.91-17.15-55.65-11.97-84.14,.71-3.88,1.46-7.87,2.69-11.62,.92-2.82,3.45-7.31,7.07-5.85,.01,0,.02-.04,0-.05h0Z"/><path class="cls-5" d="M730.66,298.35c-1-1.47-2-2.93-3-4.4,0,0-.02,0-.02,0-3.07,5.01-4.35,10.77-5.31,16.5-1.09,6.46-1.83,12.97-2.27,19.5-.86,12.91-.49,25.91,1.11,38.75,.91,7.28,2.23,14.5,3.94,21.64,.02,.09,.06-.03,.05-.07-6.11-26.24-7.07-53.52-2.65-80.1,.57-3.45,1.26-6.91,2.41-10.22,.29-.82,.6-1.64,.95-2.44,.32-.73,.78-2.19,1.35-2.72,.4-.36,.33-.56,.83-.16,.38,.3,.68,.99,.96,1.38l1.64,2.37s.02-.03,0-.04h0Z"/><path class="cls-5" d="M569.61,277.11c-.46-.84-1.24-1.27-2.22-1.14-1.32,.17-2.16,1.38-2.77,2.45-1.75,3.05-3.09,6.36-4.2,9.69-2.24,6.72-3.38,13.74-4.03,20.78s-.91,14.44-1.12,21.66-.23,14.2,.59,21.26c.9,7.68,2.87,15.26,6.69,22.04,.04,.07,.06-.07,.04-.1-6.61-11.92-7.54-25.75-7.33-39.1,.11-6.8,.36-13.62,.8-20.4s1.17-13.41,2.71-19.96c.89-3.8,2.06-7.54,3.6-11.13,.77-1.8,1.58-3.71,2.67-5.35,.53-.79,1.23-1.58,2.2-1.77s2.05,.18,2.33,1.18c.02,.08,.06-.03,.04-.08h0Z"/><path class="cls-5" d="M581.55,280.22c-2-.89-4.2,.13-5.42,1.82-1.51,2.1-1.84,4.91-2.34,7.38-1.29,6.34-2.27,12.74-2.92,19.18-1.3,12.73-1.4,25.58-.31,38.33,.64,7.39,1.68,14.75,3.14,22.02,.02,.1,.07,.02,.06-.04-4.71-24.31-5.08-49.32-.95-73.74,.54-3.22,1.06-6.49,1.9-9.64,.78-2.93,3.23-6.83,6.84-5.26,.01,0,.02-.04,0-.05h0Z"/><path class="cls-5" d="M543.81,284.16c-4.08-.96-4.91,5.75-5.38,8.29-.98,5.29-1.67,10.64-2.06,16.01-.79,10.76-.42,21.6,1.14,32.28,.89,6.11,2.17,12.15,3.81,18.1,.03,.12,.09-.04,.07-.1-5.46-19.99-6.75-41.13-3.68-61.63,.42-2.81,.8-5.71,1.54-8.45,.55-2.06,1.97-5.05,4.57-4.45,.01,0,.01-.04,0-.05h0Z"/><path class="cls-5" d="M875.82,315.05c-4.48-.55-6.65,4.79-7.98,8.15-1.9,4.79-3.44,9.73-4.58,14.76-2.22,9.89-2.86,20.26-.91,30.25,1.07,5.48,2.92,10.83,5.65,15.71,.04,.07,.06-.07,.04-.1-9.6-17.96-7.87-39.37-1.12-57.99,1.39-3.83,3.56-11.35,8.9-10.72,.01,0,.01-.05,0-.05h0Z"/><path class="cls-5" d="M889.23,319.88c.94-.81,.45-2.47-.8-2.62h0c-8.39,14.6-12.32,31.54-11.35,48.34,.27,4.7,.92,9.37,1.99,13.96,.03,.12,.08-.04,.07-.1-3.59-16.68-2.37-34.17,3.69-50.15,.83-2.2,1.75-4.36,2.76-6.48,.55-1.15,1.12-2.3,1.73-3.42,.25-.47,.46-1.11,.82-1.5,1.07-1.19,2.26,.92,1.1,1.94-.01,0,0,.06,0,.05h0Z"/><path class="cls-5" d="M901.73,325.65c.2-1.2-.93-2.1-2.09-2.03-1.98,.13-3,2.64-3.76,4.14-2.43,4.82-4.1,10-5.22,15.28s-1.69,10.68-1.98,16.07c-.27,5.06-.54,10.24-.14,15.3,.35,4.45,1.52,9.21,5.47,11.82,.06,.04,.08-.19,.02-.23-3.43-2.38-4.73-6.44-5.19-10.43-.51-4.38-.27-8.89-.11-13.28,.33-9.32,1.34-18.75,4.38-27.61,.82-2.39,1.79-4.73,2.92-7,.59-1.17,1.2-2.58,2.27-3.41s3.76-.77,3.41,1.35c0,.02,.01,.05,.02,.02h0Z"/><path class="cls-5" d="M913.67,329.03c-.52-1.12-1.52-1.65-2.78-1.51-1.43,.16-2.38,1.27-2.94,2.53-.75,1.7-1.01,3.64-1.39,5.44-.46,2.18-.89,4.38-1.27,6.58-1.4,8.13-2.14,16.51-.92,24.71,.67,4.54,1.99,8.95,4.07,13.05,.06,.12,.1-.11,.07-.17-6.85-14.06-4.74-30.13-1.71-44.9,.41-2,.65-4.42,2.03-6.02,1.11-1.29,4.31-1.93,4.78,.37,.02,.1,.07,0,.04-.06h0Z"/><path class="cls-5" d="M923.82,333.15c-.49-.39-1.21-1.52-1.81-1.54-.45-.02-.97,.49-1.24,.8-.91,1.04-1.15,2.52-1.4,3.83-.76,4.07-1.34,8.19-1.71,12.32-.76,8.36-.69,16.81,.15,25.16,.48,4.77,1.22,9.49,2.23,14.18,.02,.08,.07-.01,.06-.06-1.98-9.77-2.98-19.72-2.82-29.69,.08-5.01,.44-10.02,1.08-15,.32-2.53,.69-5.06,1.18-7.56,.21-1.04,.47-2.16,1.14-3.01,.46-.59,.99-1.05,1.8-.65,.46,.22,.99,.96,1.32,1.34,.03,.04,.06-.08,.02-.11h0Z"/><path class="cls-5" d="M404.92,383.78c1.44-.57,3.09,.08,4.19,1.05v-.37c-4.12-.54-8.16-1.16-12.33-1.3-2.06-.07-4.12-.19-6.18-.23s-3.96,.15-5.92,.3c-8.14,.65-16.15,2.08-24.01,4.25-.85,.23-.44,2.58-.05,3.05,5.64,6.86,14.21,9.99,22.38,12.69,10.54,3.48,21.1,6.91,31.65,10.37,10.44,3.42,20.86,6.91,31.37,10.09,5.16,1.56,10.38,2.91,15.47,4.69,2.65,.93,5.25,2.11,7.92,2.93s5.31,1.58,7.95,2.41c2.93,.91,5.87,1.75,8.92,2.16s5.95,.72,8.94,.95,5.98,.36,8.98,.39c1.48,.01,3.02,.08,4.5-.06,.88-.09,1.48-.6,2.21-1.09s1.64-.71,2.5-.98c.97-.31,.89-2.34,.87-3.13-.02-.7-.04-2.91-1.03-3.08-.62-.11-1.32-.15-1.91-.35-.72-.25-1.31-.77-2-1.07-1.15-.48-2.95-.09-4.2-.08-2.68,.02-5.36-.01-8.03-.14-5.27-.24-10.49-1-15.75-1.36-2.64-.18-5.29-.13-7.92-.41s-5.25-.57-7.89-.75c-5.27-.35-10.42-1.77-15.48-3.21-10.42-2.98-20.72-6.36-31.03-9.69s-21.21-6.84-31.81-10.26c-9.46-3.05-19.86-6.04-26.43-14.03l-.05,3.05c7.85-2.17,15.91-3.69,24.01-4.52,4-.41,8.05-.9,12.07-1.04s8.23-.39,12.3-.2c.09,0,.06-.33,0-.37-1.32-1.02-2.63-1.03-4.22-.81-.04,0-.01,.13,0,.12h0Z"/><path class="cls-5" d="M360.3,388.77c-1.49-.15-2.99-.69-4.44-1.08-1.64-.44-3.25-.93-4.85-1.5-3.03-1.09-6.09-2.09-9.13-3.13-5.98-2.04-11.75-4.6-17.43-7.37-2.86-1.39-5.67-2.88-8.4-4.52-1.13-.68-2.43-1.26-3.39-2.18,.02,.02-.52-.59-.51-.59l-.08,1.02c.1-.2,.21-.39,.35-.57,.41-.54,1-.98,1.56-1.35,2.51-1.66,5.65-2.58,8.41-3.73,3.2-1.33,6.41-2.65,9.61-3.96,7.18-2.95,14.07-6.58,21.08-9.89,.28-.13,.13-1.36-.09-1.29-7.03,2.37-14.2,4.42-21.09,7.17-3.51,1.4-7.02,2.79-10.53,4.18-1.68,.66-3.36,1.32-5.04,1.98-1.3,.52-2.62,1.06-3.71,1.97-2.24,1.87-2.68,5.48-1.32,8.01s5.1,3.83,7.62,5.11c6.05,3.07,12.28,5.57,18.75,7.6,3.66,1.15,7.39,2.3,11.2,2.86,1.89,.28,3.8,.41,5.69,.68s3.89,.27,5.75,.7c.02,0,.03-.12,0-.12h0Z"/><path class="cls-5" d="M344.68,353.35c14.29-8.37,28.85-16.31,43.71-23.62,14.99-7.38,30.29-14.11,45.85-20.18s31.22-11.72,47.21-16.37,32-8.79,48.2-12.32c8.15-1.78,16.33-3.41,24.55-4.82s16.48-2.4,24.74-3.55c1.12-.16,2.24-.32,3.36-.54,1.2-.24,2.24-.84,3.33-1.38,.34-.17,.37-1.73-.04-1.8-1.14-.18-2.22-.44-3.37-.33s-2.24,.26-3.36,.41c-2.14,.3-4.28,.59-6.42,.9-4.14,.6-8.23,1.5-12.36,2.21-8.23,1.41-16.43,2.97-24.6,4.7-16.28,3.44-32.42,7.51-48.3,12.48-15.96,4.99-31.79,10.39-47.36,16.49s-30.77,12.91-45.73,20.25-29.79,15.27-44.07,23.98c-1.79,1.09-3.58,2.2-5.36,3.31-.04,.03-.02,.21,.02,.19h0Z"/><path class="cls-5" d="M584.95,265.7c-1.94,.03-3.67,1.05-3.66,3.18,0,.02,.01,.11,.05,.09,8.87-4.61,14.79-12.94,20.42-20.91s11.56-16.11,17.77-23.84c12.58-15.63,26.6-30.44,43.07-42.03,4.54-3.19,9.27-6.13,14.17-8.75,1.4-.75,14.37-7.6,14.96-5.82l-.16-1.35c.04-.64,.26-.66-.25-.35-.39,.24-.4-.26-.26,.4l-.03,1.16,.1-.13c.19-.24,.2-1.81-.28-1.59-1.06,.48-.31,2.84,.97,2.55,.8-.18,.77-1.46,.69-2.07-.12-.99-.64-1.9-1.72-1.98s-2.24,.58-3.2,.98c-1.36,.56-2.7,1.14-4.04,1.75-2.54,1.16-5.04,2.4-7.5,3.73-9.88,5.33-19,11.96-27.41,19.38-17.22,15.19-31.3,33.67-44.21,52.55-3.61,5.28-7.02,10.72-11.1,15.66-2.21,2.68-4.64,5.21-7.37,7.36-.63,.5-1.27,.97-1.93,1.43-.57,.39-1.37,1.14-2.03,1.29-.37,.09-.89,.98-.45-.71,.12-.47,.6-.97,.97-1.27,.66-.53,1.57-.87,2.4-.59,.04,.01,.04-.12,0-.12h0Z"/></g></svg>