<?xml version="1.0" encoding="UTF-8"?><svg id="Layer_1" xmlns="http://www.w3.org/2000/svg" viewBox="0 0 1500 750"><defs><style>.cls-1{fill:#655b66;}.cls-2{fill:#3a7d62;}.cls-3{fill:#b5a2b3;}.cls-4{fill:#337e7c;}.cls-5{fill:#231f20;}</style></defs><g><path class="cls-3" d="M1197.44,234.88c.99-2.17,.69-5.18,.52-7.49-.04-.6-.47-5.08-1.35-4.21-2.86,2.83-5.07,5.99-6.85,9.35-.02,0-.05-.01-.07,0-1.09,.57-2.03,1.29-2.87,2.09-.04-.51-.08-1.01-.11-1.45-.04-.54-.63-5.16-1.37-4.22-1.22,1.54-2.43,3.08-3.65,4.62-.21-.72-.5-1.18-.87-.85-7.18,6.46-13.94,13.38-20.19,20.74-3.06,3.6-5.99,7.3-8.8,11.1-2.26,3.06-4.71,6.17-6.66,9.5-6.92,6.61-13.66,13.42-20.27,20.34-7.75,6.74-15.5,13.47-23.25,20.21-.21-1.58-.56-3.53-.89-3.35-5.74,3.2-11.33,6.65-16.77,10.33-1.4-3.69-2.53-6.33-2.53-6.33,0,0-2.59,.13-6.94,.3,0-.36,0-1.04-.05-1.78,.3,.05,.6,.07,.9,.05,.33-.15,.52-.42,.57-.8,.02-.05,.04-.1,.06-.14,.78-.27,1.54-.55,2.25-.82,.48-.18,.39-2.82,0-3.09l-.05-.03c.09-1.03-.07-2.46-.49-2.64-1.33-.57-1.39-2.59-2.16-3.48-.46-.53-1.06-.9-1.71-1.23-.87-.44-1.78-.82-2.64-1.28-1.65-.88-3.29-1.77-4.87-2.75-.44-.27-.87-.56-1.29-.85-.86-1.3-1.69-2.63-2.5-4.05-1.57-2.77-3.27-5.21-4.04-8.37-.06-.24-.25-1.24-.22-1.04-.09-.57-.09-.61-.08-1.09,0-1.38,.28-3.21,.51-4.73,.07-.46,.15-.93,.23-1.39,.69-1.88,1.4-3.7,1.63-5.74-.04-.07-.09-.13-.13-.2,.21-.6,.41-1.2,.58-1.81,.18-.69,.23-1.46,.21-2.23l.5-.62c.31,.28,.62,.55,.93,.83,0,0,.01-.05,0-.06-.83-.84-1.26-1.31-1.61-2.08-.02-.13-.05-.25-.08-.36,.09-.21,.19-.41,.32-.59,.23-.29,.15-1.38-.04-1.67-.26-.4-.5-.62-.71-.71-.13-1.01-.35-1.88-.75-1.88-.98,0-1.84,1.38-2.45,2.08-.96,1.08-1.89,2.19-2.83,3.29-1.73,2.04-3.45,4.09-5.1,6.19-2.74,3.48-5.39,7.02-7.99,10.6,.16-1.3,.28-2.61,.35-3.9,.56-.54,.4-2.74,.35-3.16-.11-.88-.38-1.55-.69-2.43,.02,.07-.29-.97-.46-.41-.02,.05-.03,.1-.04,.15-.07-.31-.17-.59-.31-.71-.25-.21-.23-.21-.46,.01-.18,.17-.28,.65-.35,1.16-1.01,.28-1.94,.76-2.81,1.39-.32,.07-.68,.25-1.11,.6-.71,.58-1.29,1.35-1.82,2.14-.78,.87-1.51,1.76-2.2,2.58-3.01,3.58-5.81,7.29-8.42,11.17-5.1,7.57-10.23,15.75-12.7,24.66-.39,.23-.78,.46-1.16,.69-.05,.03-.09,.09-.12,.17-30.7-2.24-141.41-11.79-136.51-13.72,4.95-1.95,17.22-5.34,28.47-7.46,0,0-34.59-22.25-48.68-57.47-14.09-35.22-30.72-20.88-48.56-5.35-17.84,15.53-29.62,24-28.13,19.51,1.49-4.49,8.97-16.33,8.97-16.33,0,0-33.44,45.78-51.26,70.64-17.82,24.86-19.13,14.64-37.34,16.08-18.2,1.44-159.66,17.52-223.06,31.81-63.4,14.29-147.48,34.92-157.9,44.48-10.42,9.56-21.21,19.11-2.24,22.57,18.98,3.46,36.38,16.32,49.87,20,13.49,3.68,43.73,24.75,59.01,24.9,0,0-6.78,22.45,31.96,26,38.74,3.55,168.4,4.14,187.38,3.38,8.98-.36,37.26,3.6,64.57,7.22,.06,.3,.15,.56,.32,.65,.84,.45,1.65,.93,2.47,1.4,4.11,2.68,7.18,6.63,10.59,10.15,2.4,2.47,6.17,5.62,10.05,6.6,.2,1.2,.58,2.35,1.32,2.94,.04,.64,.08,1.27,.14,1.91,.02,.17,.26,1.84,.37,1.78,1.54-.93,3.1-1.91,4.59-2.98,.14,1.83,.34,3.66,.58,5.45,.14,1,.34,.93,.45-.01,.31-2.65,.95-5.24,1.88-7.73,3.01-2.63,5.4-5.77,6.28-9.78,.99-.38,1.99-.75,2.98-1.13,3.3-1.06,6.54-2.28,9.72-3.65,.63,.02,1.23,.03,1.79,.03,.01,.27,.03,.54,.04,.8,0,.04,.25,3.08,.43,3.01,1.26-.47,2.34-1.08,3.29-1.8,.05,.16,.12,.31,.16,.48,.08,.29,.15,.29,.21,0,.15-.4,.3-.79,.45-1.19,1.15-1.06,2.06-2.29,2.74-3.66,11.61,1.25,23.36,.67,34.99-.95,12.06,.24,24.15,.34,36.19-.12,6.05-.23,12.65-1.09,16.94-5.82,.26-.28,.2-1.6,.2-1.79,0-.19,0-.39,0-.58,18.8-1.37,38.31-6.1,56.05-17.84,62.14-41.1,88.03-59.94,88.03-59.94,0,0,87.05-.94,82.21-2.91-4.84-1.97-24.75-7.28-23.02-16.06l1.73-8.79-39.7,.71s20.33-9.01,25.88-15.17c.92-1.02,2.64-2.45,4.87-4.13,.22,1.8,.56,4.13,.83,3.97,3.4-1.97,6.79-3.96,10.14-6.03,2.03-1.14,4.07-2.24,6.13-3.31,4.14-.66,8.25-1.67,12.31-2.69,2.38-.59,4.75-1.23,7.11-1.9,9.23,21.19,18.69,42.46,32.15,61.37,.61,.86,1.21-.58,1.5-1.52,1.35,3.29,2.7,6.58,4.05,9.87,.4,1.2,.79,2.41,1.15,3.64,.12,.37,.48,1.45,1.04,1.7,.36,.89,.73,1.77,1.09,2.66,.25,.62,.64,1.35,1.08,1.58,.02,1.82,.27,3.89,1.32,4.95,1.45,1.47,2.16-1.49,2.29-2.55,.14-1.14,.27-2.32,.39-3.51,.25-.55,.42-1.17,.52-1.66,.42-2.11,.59-4.86,.05-7.23,.07-5.33-.48-10.68-2.35-15.46,0-.85,0-1.7,0-2.55,0-1.32-.08-4.96-1.49-5.84-.82-.51-1.34,.31-1.65,1.23-.09-1.63-.17-3.26-.26-4.89l.04-.12c.41,.53,.93,.71,1.4-.34,.25-.56,.48-1.13,.7-1.7,.18,.2,.38,.33,.62,.34,1.5,.1,1.36-5.6,1.36-6.13,0-.1,0-.18,0-.28,2.17-8.12,2.79-16.73,4.01-25.04,.34-1.89,.67-3.77,.99-5.66,.04-.22,.07-.46,.1-.69,2.95-8.51,5.91-17.01,8.88-25.51,.06-.01,.11-.04,.17-.11,4.69-5.92,9.07-12.07,13.15-18.41,.17,.14,.33,.13,.49-.17,.47-.9,.91-1.82,1.37-2.72,.05-.08,.1-.15,.14-.22,.06-.1,.1-.24,.15-.36,1.47-2.91,2.91-5.84,4.31-8.79,.23,.54,.5,.83,.78,.43,2.37-3.28,4.63-6.62,6.77-10.04,.28,1.54,.85,3.81,1.56,2.96,2.57-3.1,4.66-6.48,6.4-10.1l.03-.05h0c.1-.21,.21-.41,.31-.62,.98-2.1,.64-5.42,.36-7.62,0-.06-.04-.22-.08-.44,.37-1.15,.75-2.31,1.11-3.46,.73-2.33,.53-5.24,.27-7.61-.01-.11-.07-.47-.16-.92,.67-2.63,1.31-5.26,1.92-7.9,3.87-9.01,7.59-18.08,11.64-27.02Zm-77.18,134.09c.05-1.6,.12-3.19,.16-4.78,.44-.97,.87-1.94,1.3-2.92-.47,2.37-.9,4.75-1.3,7.14-.06,.19-.11,.38-.16,.57Zm-7.1,3.48c-.02,.4-.04,.79-.07,1.19-.05-.13-.1-.25-.15-.38,.07-.27,.14-.54,.21-.8Zm4.15-12.77c.04-.39,.07-.79,.11-1.18,0,.22,0,.43,0,.65-.03,.26-.06,.52-.08,.78l-.03-.25Zm-8.57-9.47c-.35,.73-.72,1.45-1.06,2.18-.08-.32-.15-.63-.23-.95,.43-.53,.88-1.06,1.3-1.6,0,.12,0,.25,0,.37Zm-1.2-11.66c.67-1.21,1.34-2.41,2.02-3.61-.09,.41-.15,.84-.2,1.26-.6,.79-1.21,1.57-1.83,2.36Zm4.22-6.17c-.24,.41-.48,.82-.72,1.24-.04-.05-.08-.1-.13-.12-.05-.03-.1-.04-.15-.05,.33-.37,.67-.73,1-1.09v.03Zm-13.5,10.11c-.35,.02-.7,.03-1.05,.06-.05-.05-.09-.1-.14-.15,.69-.54,1.4-1.06,2.09-1.61-.3,.57-.6,1.13-.9,1.7Zm-40.5-40.84c.06,.17,.11,.34,.17,.51-.05,.08-.1,.16-.15,.24,0-.25,0-.5-.02-.75Zm-32.81,4.55c-.03,.16-.05,.32-.07,.49-.09,.04-.18,.08-.27,.13,.12-.21,.23-.41,.34-.62Zm18.4-5.35c-.27-.16-.55-.27-.87-.34,.25-.43,.49-.85,.74-1.28,1.29-2.18,2.6-4.34,3.92-6.5-1.34,2.67-2.6,5.38-3.8,8.12Zm-4.9-20.44s-.06,.09-.08,.13c.03-.12,.07-.24,.11-.38,.05-.32,.15-.62,.28-.91-.1,.39-.2,.77-.3,1.15Zm12.04,34.65c0,.36,.01,.73,.03,1.09-.45,0-.9,.01-1.36,.01,.45-.35,.89-.72,1.33-1.1Zm-8.95-37.77s.04-.01,.06-.02l-.03,.15-.02-.13Z"/><path class="cls-2" d="M429.06,402.6l-1.99-1.16-.82,.31c-4.2,4.47-3.75,15.34-.19,20.13,2.45,3.3,7.03,3.33,9.43-.05,3.79-5.35,3.29-16.63-.88-21.74-3.53-4.33-8-1.7-10.05,2.54-2.9,6-2.9,13.59-1.38,19.97,.89,3.72,3.05,10.33,8,9.62,8.06-1.17,13.5-9.59,11.87-17.36-.62-2.95-1.98-.01-1.95,1.46,.03,1.57-3.04,2.45-4.14,2.37-2.61-.18-4.11-1.76-5.45-3.79-.56-.85-1-1.77-1.57-2.61-.52-.78-.65-1.02-.37-.7,.58,1.57,.75,3.22,.51,4.95l-.33,2.05c-.02,.18,.04,.15,.19-.09,.31-.35,.71-.47,1.19-.36,2.25,1.21,1.88-.88-1.12-6.27l.96-7.22c.82-.91,.83-1.04,.04-.39-.33,.1-.67,.14-1.02,.13-.38,.09-.69,0-.93-.26-.55-.52-.67-.62-.36-.3l1.35,3.3,.34,2.38c-.14,2.17-.14,2.65,0,1.42,.23-1.02,.31-2.22,.29-3.25-.05-1.95-.5-3.52-1.61-5.08h0Z"/><path class="cls-2" d="M433.68,408.74c-2.6-2.35-7.77-3.43-10.46-.67-3.58,3.67-1.98,11.65,.04,15.6,2.73,5.34,8.94,7.99,14.13,4.03,5.46-4.17,6.78-12.18,7.76-18.52,.12-.76-.49-5.11-1.47-2.79-1.17,2.78-2.27,5.37-4.96,6.95-2.53,1.49-5.89,2.19-8.83,1.91-1.39-.13-2.72-.53-3.84-1.42-.59-.38-1.04-.87-1.36-1.49,.06,1.54,.29,1.74,.71,.6,1.04-.46,1.97-2.6,3.31-3.26,1.82-.89,3.23-.6,4.83,.56,.33,.24,.42-1.23,.12-1.5h0Z"/><path class="cls-2" d="M435.27,408.55c.63-1.95,3.3-1.76,4.78-1.05,2.48,1.2,2.3,3.17,.99,5.21-1.52,2.37-8.26,8.23-10.48,3.38-.69-1.5-1.01,1.4-.89,1.91,.84,3.38,4.15,6.76,7.9,5.98,4.61-.96,6.72-6.64,7.21-10.76,.4-3.37,.21-9.17-3.81-10.39-3.04-.92-6.01,1.23-6.46,4.24-.06,.4,.37,2.71,.76,1.48h0Z"/><path class="cls-2" d="M433.96,409.46c-3.71-1.93-10.02-3.44-13.42-.15s-2.74,9.96-1.22,13.98c2.1,5.56,6.58,7.47,11.85,4.44,7.12-4.09,13.85-9.82,19.68-15.55,.65-.64,.42-4.23-.47-3.61-6.13,4.3-14.97,10.44-22.82,10.36-1.83-.02-3.81-.57-4.94-2.14-.91-1.26-.77-.22-.13-1.61,2.03-4.41,7.13-5.97,11.35-4.2,.42,.18,.49-1.31,.12-1.5h0Z"/><path class="cls-4" d="M430.02,404.97c-2.23-.96-4.37-1.37-6.21-3.11-.42-.28-.83-.27-1.24,.03-4.99,1.99-4.61,10.87-3.99,15.04,.77,5.21,3.51,11.67,8.95,13.55,10.93,3.78,21.57-11.58,25.92-19.32,.43-.77,.35-6.25-.95-5.16-5.06,4.23-10.23,10.49-17.69,9.15-2.92-.52-5.98-2.46-8.44-4.11-.63-.44-1.23-.92-1.8-1.45-1.4-2.03-1.42-.68-.06,4.06,.41-.88,.71-1.79,.91-2.73,.63-3.18,2.15-4.68,4.56-4.49,.39-.02,.34-1.31,.04-1.44h0Z"/><path class="cls-4" d="M435.63,408.23c1.93,.19,3.75,1.02,5.24,2.26,2.51,2.08,2.43,4.36,.58,6.84-1.24,1.67-2.75,3.17-4.62,4.12,.14-.07-6.24,1.81-4.78-.57,.32-.52,.08-3.62-.56-3-2.34,2.27-1.56,6.42-.03,8.95,2.89,4.81,8.37,3.6,11.28-.55,3.07-4.39,4.14-10.86,2.52-15.98-1.4-4.46-5.64-7.12-9.79-4.23-.4,.28-.45,2.09,.16,2.15h0Z"/><path class="cls-1" d="M302.93,412.54c21.38,6.71,42.3,13.69,62.47,23.6,17.02,8.36,36.07,17.96,54.84,8.76,.45-.22,.1-2.08-.13-1.97-20.06,9.01-40.75-3.24-58.72-11.57s-38.35-16.24-58.49-20.27c-.24-.05-.32,1.35,.04,1.46h0Z"/><path class="cls-1" d="M366.4,439.64c27.15,12.84,57.89,17.57,87.76,17.32,15.51-.13,30.97-1.23,46.39-2.82,4.43-.46,15.13,.46,16.93-4.85,.5-1.47,.62-5.41-1.89-4.29-.38,.17-.41,.86-.42,1.21l-.03,.53c-.02,.34,.48,2.83,.76,1.45l.66,.31,.31-3.33c-1.52,1.2-6.61,.35-8.54,.54-3.25,.32-6.49,.72-9.74,1.06-6.23,.66-12.47,1.26-18.7,1.86-12.77,1.22-25.52,1.82-38.33,2.11-25.65,.57-51.23-2.6-75.07-12.52-.31-.13-.4,1.27-.09,1.41h0Z"/><path class="cls-1" d="M337.62,419.05c11.66,7.45,24.56,11.62,38.34,12.73,7.42,.6,14.88,.48,22.32,.4,7.77-.08,15.68,.45,23.04-2.35,.46-.18,.43-1.96-.05-2.1-7.25-2.13-14.7-1.07-22.14-.53-7.12,.51-14.25,1.11-21.4,1.07-14.18-.06-27.74-3.57-40.01-10.72-.26-.15-.42,1.29-.09,1.5h0Z"/><path class="cls-1" d="M328.8,416.33c-7.36,.71-14.15-1.16-20.16-5.5l-.04,2.48c3.08,1.29,4.28,2.23,7.43,3.05,1.86,.48,3.72,.97,5.58,1.44,4.35,1.11,8.71,2.19,13.09,3.21,9.04,2.1,18.14,3.96,27.33,5.28s17.6,2.23,26.48,2.4c8.85,.17,18.75,.16,27.24-2.59,1.31-.42,1.07-6.22-.15-6.13-8.81,.68-17.4,2.54-26.29,2.77-9.15,.24-18.33-.29-27.4-1.54s-17.66-2.93-26.39-4.89c-4.38-.98-8.74-2.03-13.09-3.1-2.17-.54-4.34-1.08-6.51-1.64-2.68-.68-4.7-.52-7.37-.8-.52-.05-.41,2.24-.04,2.48,6.16,4.08,13.01,5.59,20.34,4.52,.35-.05,.26-1.49-.04-1.46h0Z"/><path class="cls-1" d="M378,431.77c-1.24-.85-2.47-1.69-3.7-2.56l-.21,3.56c6.41,4.03,14.99,5.34,22.38,6.41s16.86,2.63,24.45,.79l-.22-9.09c-6.58,2.94-13.51,4.14-20.56,5.5-.64,.12-.5,2.87,.07,2.84,7.05-.45,13.86-.87,20.71,.76,1.3,.31,2.24-8.85-.22-9.09-7.7-.75-15.7,.67-23.48,.26s-15.65-2.69-23.06-1.99c-.81,.08-.75,3.59,.09,3.68,1.25,.14,2.49,.3,3.73,.47,.32,.04,.25-1.38,.02-1.53h0Z"/><path class="cls-1" d="M394.69,440.48c4.92,1.98,12.55,6.07,17.82,4.57,1.87-.53,1.09-8.04-.19-7.76-5.87,1.27-9.8-2.62-11.79-7.83l-.99,3.73c.1-1.78,.12-1.66,.06,.36,.02,1.02,.13,2.03,.32,3.04,.29,1.3,.77,2.4,1.35,3.61,1.42,2.95,3.27,5.96,5.42,8.46,3.97,4.62,9.32,7.61,14.97,9.69,5.76,2.12,11.35,2.95,16.99,.24s12.2-6.53,15.98-11.77c.41-.57,.88-4.25-.28-4.31-2.29-.12-4.54,.72-6.86,.7-2.19-.02-4.6-.4-6.77-.77-2.41-.41-4.63-1.48-7.01-2.01s-5.09-.53-7.6-1.02c-8.98-1.73-17.2-6.17-24.4-11.72l-.18,11.85c4.37-1.26,7.65,2.99,10.69,5.39l.12-7.63c-3.08-.74-5.84,.38-8.89,.9s-5.84,.64-8.78,.73c-.36,.01-.27,1.43,.04,1.56h0Z"/><path class="cls-1" d="M394.56,439.32c-1.47-2.44-2.94-4.89-4.41-7.33l-.27,1.75c7.63,12.62,22.17,20.9,36.22,24.27,6.91,1.66,13.41,2.08,19.94-1.08,5.74-2.78,9.89-7.6,11.38-13.83,.17-.7-.35-5.55-1.06-4.07-2.32,4.86-9.14,4.98-13.84,4.89-6.35-.13-12.75,.45-19.09-.14s-12.08-2.01-17.76-4.12-10.26-5.65-15.69-7.8c-.37-.15-.24,1.68-.11,1.88,1.49,2.28,2.99,4.57,4.48,6.85,.24,.37,.37-.98,.2-1.27h0Z"/><path class="cls-1" d="M428.15,395.05c-12.51-2.22-26.77,8.45-31.09,19.8-.25,.65-.04,5.58,.71,4.79,1.32-1.39,2.54-2.42,4.11-3.5,.53-.36,.16-3.02-.18-2.87-1.5,.66-2.62,1.04-4.25,1.22l.33,5.16c4.37-4.73,7.54-9.91,12.88-13.79s11.63-6.38,17.59-9.36c.26-.13,.22-1.38-.09-1.44h0Z"/><path class="cls-1" d="M401.38,411.02c10.27-5.97,20.9-12.43,33.17-12.5,9.98-.05,20.17,4.19,25.42,13,.29,.48,.43-1.37,.25-1.75-4.53-9.24-14.27-14.02-24.33-14.21-12.61-.23-24.77,6.53-34.69,13.69-.34,.25-.14,1.95,.19,1.76h0Z"/><path class="cls-1" d="M438.76,399.09c-1.05,.32,4.59,5.8,4.91,6.06,2.44,1.99,4.94,3.9,7.38,5.88,3.96,3.2,7.64,5.91,12.33,7.89,.58,.24,.31-2.88,.05-3.24-5.64-7.53-14.2-15.78-23.42-18.74l-.18,.09-1.75,1.04c-.11,.02-.16,.19-.18,.27-.21,1.03-.33,1.68,.42,2.48l.06,.03,.41-.2c.34-.17,.19-1.63-.04-1.56h0Z"/><path class="cls-1" d="M421.28,404c1.72-.99,2.37-2.04,2.91-3.9,.08-.28,.22-2.56-.36-2.44-4.77,.99-9.66,4.17-13.25,7.34-.83,.73-11.04,12.72-10.25,13.16l.32,3.16,.19-.33c.67,.38,.56-2.64,.18-3.09l-.25-.29c-.09-.08-.18-.08-.26,0-1.92,1.12-.69,4.48,.86,5.16,.15,.13,.3,.13,.45-.01,1.74-1.44,2.63-3.85,3.9-5.71,1.62-2.37,3.44-4.54,5.45-6.59,3.92-4,8.33-6.79,12.86-9.99l-.57-1.75c-.09,1.81-.87,3.07-2.33,3.79-.3,.21-.12,1.66,.16,1.5h0Z"/><path class="cls-1" d="M414.04,402.52c-3.23,1.24-5.34,6.26-6.88,9.18-2.09,3.95-3.99,8.14-5.19,12.45-.25,.91,.48,8.04,1.34,6.84,2.33-3.23,4.92-5.99,6.71-9.59,.26-.51-.1-3.32-.44-2.92-1.72,2.05-3.97,4.4-6.8,4.44l.8,7.65c1.85-4.42,3.25-9,5.13-13.41s4.16-8.68,5.51-13.31c.04-.13,.07-1.43-.19-1.32h0Z"/><path class="cls-1" d="M410.04,439.21c14.62,3.3,31.3-.11,45.03-5.41,4.21-1.63,9.63-3.17,10.26-8.28,.4-3.22-.97-9.51-4.36-10.65-.61,.16-1.02,.55-1.22,1.17-2.98,5.91-6.45,11.01-11.79,15.07-2.39,1.82-5.03,3.26-7.5,4.96-.93,.64-5.57,4.4-6.92,3.47l.15,6.26c3.76-4.64,8.49-8.5,12.32-13.14,3.25-3.95,5.92-8.13,8.08-12.77,.33-.71-.13-4.83-.63-4.22-4.96,5.94-7.3,12.84-14.16,17.21-3.48,2.22-7.64,3.92-11.54,5.26s-6.86,1.6-10.92,1.09c-1.1-.14-.55,3.84-.08,4.32,16.98,17.4,32.86-9.64,37.46-24.02l-.92-3.62c-2.02,5.09-4.61,10.2-8.1,14.45-2.82,3.43-7.36,8.25-11.93,9.08-1.2,.22-.97,3.44-.88,4.13,1.31,10.01,9.9,9.27,16.7,4.29,3.76-2.75,6.93-6.14,9.54-10,1.28-1.89,2.5-3.88,3.41-5.98,1-2.32,1.04-4.72,1.74-7.09l-.89,1.3,.46-.51,.38-3.83c-1.9,3.75-9.31,5.53-13.04,6.94-4.24,1.6-8.58,2.91-12.99,3.96-9.23,2.2-18.38,2.7-27.73,3.92-.62,.08-.54,2.52,.07,2.65h0Z"/><path class="cls-1" d="M425.31,444.93c11.71,5.51,25.53,1.51,32-9.79,.29-.51,0-3.09-.49-2.37-3.03,4.51-3.26,9.87-.77,14.68l.26-2.49c-1.54-1.75-3.12-3.45-4.39-5.43l-.35,3.35c4.35,3.89,13.4,2.38,18.63,1,6.37-1.67,11.9-5.48,16.68-9.89,.54-.5,.31-3.66-.36-3.26-5.6,3.4-11.72,5.26-18.06,6.7-2.9,.66-5.85,1.03-8.82,1.1s-5.53-.68-8.15,.82c-.69,.4-.5,3.1,.09,3.53,1.79,1.3,3.12,3.05,4.58,4.7,.33,.37,.46-2.1,.26-2.49l.8-9.82-.39-2.51c-6.58,10.04-20.09,14.86-31.41,10.66-.39-.14-.45,1.34-.1,1.5h0Z"/><path class="cls-1" d="M478.61,441.85h-9.8c-.32,0-.3,1.46,.04,1.46h9.8c.32,0,.3-1.46-.04-1.46h0Z"/><path class="cls-1" d="M432.49,449.01c-2.56,.76-6.56,2.83-9.13,1.03-.9-.63-1.54,4.64-.35,5.56,6.78,5.22,17.74,3.4,25.78,3.06,8.81-.37,17.6-1.02,26.4-1.62,8.8-.6,17.6-1.35,26.39-2.07,7.48-.61,17.16-2.99,24.01,1.03l.3-20.01c-10.31,.96-20.6,1.3-30.74,3.51-10.27,2.24-19.98,4.89-30.61,4.42-.72-.03-.76,3.49,.09,3.66,10.52,2.12,20.49,6.12,30.92,8.51,10.26,2.35,20.49,1.55,30.84,.26,4.41-.55,3.59-18.2,.3-20.01-6.85-3.78-14.28-2.22-21.7-1.37-9.44,1.07-18.89,2.07-28.32,3.28-9.12,1.16-18.25,2.24-27.33,3.63-8.52,1.31-20.09,1.68-26.48,8.18l.83,5.24c2.02-2.97,5.7-3.63,8.82-4.73,.4-.14,.21-1.63-.04-1.56h0Z"/><path class="cls-1" d="M369.66,433.71c4.2,4.31,10.07,6.37,15.51,8.7,5.09,2.18,10.25,4.02,15.52,5.71,11.02,3.52,22.2,6.33,33.57,8.43,22.73,4.19,45.67,1.26,68.31-2.14,.9-.14,.78-4.11-.1-4.12-22.8-.25-45.09-4.91-67.64-7.73-10.95-1.37-21.87-3.27-32.64-5.68-5.34-1.19-10.64-2.59-15.98-3.81s-11.28-3.98-16.5-2.78c-.93,.21-.53,2.93-.06,3.42h0Z"/><path class="cls-1" d="M509.33,438.18c-13.02-1.77-26.02-3.6-39.07-5.17-.28-.03-.35,1.5,.04,1.56,13,1.84,26.04,3.43,39.06,5.08,.25,.03,.32-1.42-.04-1.46h0Z"/><path class="cls-1" d="M442.33,436.39c6.43,.98,13.27,.09,19.75-.17,6.25-.25,12.5-.51,18.75-.79,12.83-.56,25.65-1.36,38.47-2.13,25.63-1.56,51.34-2.98,76.86-5.92,.45-.05,.37-2.12-.05-2.1-25.65,.91-51.27,3-76.89,4.55-12.49,.76-24.99,1.4-37.48,2.19-6.57,.41-13.15,.82-19.73,1.21s-13.39,.16-19.72,1.71c-.33,.08-.3,1.41,.04,1.46h0Z"/><path class="cls-1" d="M452.06,433.33l.87-4.46-.87,4.46c1.97,.28,3.24,1.15,5.38,1.23,3.24,.12,6.47-.02,9.7-.28,6.79-.55,13.58-1.12,20.36-1.81,13.29-1.35,26.53-3.33,39.81-4.78,12.95-1.42,26.06-2.48,38.94-4.44,6.82-1.04,13.72-2.32,20.44-3.89,1.87-.44,16.56-5.32,17.24-3.92l-.24-3.93-.88,1.02c-.59,.34-.48,3.2,.21,3.41,2.71,.85,2.11-4.77,1.32-6.13-1.09-1.88-3.33-1.99-5.23-2.27-3.89-.56-7.84-.86-11.77-1.09-16.38-.99-32.54,.78-48.79,2.69-16.21,1.9-32.47,4.2-48.54,7.07-7.8,1.39-15.51,3.24-23.2,5.12-3.85,.95-7.68,2.88-11.56,3.55-2.4,.42-3.45-.1-4.07,2.47-.25,1.01-.77,5.74,.87,5.97h0Z"/><path class="cls-1" d="M468.87,418.29c16.28-.88,32.54-2.69,48.83-3.6,16.03-.89,32.11-1.35,48.17-1.27,32.54,.16,64.83,2.49,97.23,5.21,18.39,1.54,36.82,2.8,55.13,5.19,.6,.08,.77-3.7-.1-3.93-16.02-4.35-32.2-8.77-48.6-11.45-15.92-2.6-31.9-4.29-48.02-5.04-32.46-1.5-65-.49-97.27,3.43-18.5,2.25-37.43,4.93-55.42,9.91-.34,.09-.28,1.57,.04,1.56h0Z"/><path class="cls-1" d="M503.87,423.06c-7.8-.96-15.59-1.91-23.39-2.87l.06,2.47c27.76-6.16,56.91-6.38,85.18-4.57,29.54,1.89,59.01,4.96,88.44,8.16,57.99,6.29,116.17,12.95,174.59,12.42,16.17-.15,32.17-1.27,48.12-3.98,16.85-2.86,33.2-7.06,49.72-11.37,1.15-.3,.78-6.02-.15-5.95-29.01,2.39-58.48,.9-87.57,1.12-29.38,.22-58.66,0-88.02-1.39-58.18-2.76-116.39-6.83-174.66-6.59-32.24,.13-64.57,.32-95.72,9.68-.52,.16-.48,2.43,.06,2.47,7.79,.62,15.57,1.24,23.36,1.86,.25,.02,.3-1.42-.04-1.46h0Z"/><path class="cls-1" d="M482.81,437.61h-9.8c-.32,0-.31,1.56,.04,1.56h9.8c.32,0,.3-1.56-.04-1.56h0Z"/><path class="cls-1" d="M463.24,441.88c7.99,1.33,17.09-.44,25.13-1.08s16.78-1.39,25.18-1.92c17.15-1.08,34.36-1.86,51.54-2.34s33.81-.51,50.71-.28c8.47,.12,16.87-.15,25.34-.49,4.24-.17,8.44-.45,12.64-1,1.62-.21,9.74-2.71,10.63-.56l-.12-4.83-.58,.59c-.87,.42-.9,4.56,.12,4.76l.73,.14,.18-.1c2.13-2.52,.1-8.08-2.12-9.92-3.06-2.53-9.29-2.76-13.05-3.34-4.53-.7-9.11-.97-13.67-1.3-19.41-1.4-39.1,.13-58.47,1.65-19.5,1.53-38.96,3.53-58.27,6.65-9.68,1.57-19.36,3.15-29,4.98-8.82,1.67-18.92,2.9-26.98,6.94-.25,.13-.22,1.38,.09,1.44h0Z"/><path class="cls-1" d="M480.91,411.46c15.46-1.11,30.82-3.85,46.26-5.24s30.95-2.23,46.45-2.62c30.48-.76,60.98,.21,91.4,2.05,61.87,3.75,123.47,10.95,185.32,15.08,32.63,2.18,66,4.06,97.04-8.18,.49-.19,.13-2.26-.05-2.2-27.45,9.33-57,8.41-85.56,6.7-30.54-1.83-61.02-4.56-91.49-7.31-61.55-5.56-123.24-11.2-185.11-10.22-17.45,.28-34.9,1.08-52.29,2.58-17.29,1.49-35.23,2.89-52.02,7.44-.43,.12-.34,1.95,.05,1.92h0Z"/><path class="cls-1" d="M968.99,407.44c-96.99,24.79-197.01,37.39-297.13,37.18-28.05-.06-56.11-1.14-84.08-3.26-.34-.03-.4,2.06,.05,2.1,99.85,9.42,200.75,4.69,299.17-14.77,27.62-5.46,54.95-12.08,82.02-19.79,.31-.09,.11-1.5-.04-1.46h0Z"/><path class="cls-1" d="M554.05,425.91c86.98,17.16,175.71,25.24,264.36,23.84,22.65-.36,46.05-1.25,66.55-11.95,.5-.26,.13-2.27-.05-2.2-18.24,7.84-38.42,9.17-58.04,9.6-22,.48-43.98,.83-65.99,.4-44.43-.87-88.81-4.09-132.89-9.66-24.77-3.13-49.44-7.01-73.98-11.59-.21-.04-.34,1.48,.04,1.56h0Z"/><path class="cls-1" d="M860.8,443.45c-17.32,6.17-35.71,5.52-53.79,4.46-18.58-1.09-37.16-2.12-55.71-3.57-18.56-1.45-37.1-3.34-55.52-6.1-9.51-1.43-18.99-3.09-28.41-5.05-7.57-1.57-18.39-2.25-23.84-8.27l-.03,2.42c17.06,5.97,34.2,12.09,51.7,16.63s33.98,7.89,51.19,10.62,34.45,4.32,51.85,4.92c8.66,.3,17.32,.34,25.99,.09,9.42-.26,18.74-.46,27.73-3.54l-.22-8.84c-15.71,7.85-33.58,7.51-50.79,6.83-16.35-.64-32.67-2.32-48.93-4.04-28.53-3.01-58.44-7.04-81.25-26.01-.75-.62-1.6,5.73-.35,6.98,10.32,10.37,26.45,11.33,40.11,13.5,17.53,2.78,35.14,5.27,52.8,7.13,17.56,1.85,35.28,2.84,52.93,3.51,17.56,.66,35.39,1.3,52.96,.5,3.78-.17,3.1-20.38-.5-20.19-17.14,.94-34.3,1.46-51.46,2.03-.83,.03-.8,4.62,.12,4.85,17.31,4.34,34.62,8.63,51.84,13.31l-.5-20.19c-17.64,.11-35.27,.92-52.92,.93-16.98,.01-33.93-.34-50.9-.77s-33.84-.91-50.74-1.87c-14.08-.8-32.14,.33-43.38-9.72l-.35,6.98c22.82,17.53,52.32,21.68,80.13,24.45,16.8,1.67,33.63,3.37,50.52,3.47,17.08,.1,33.86-3.02,50.89-2.84,1.41,.02,1.52-8.58-.22-8.84-8.97-1.38-17.88-.38-26.89,.05s-17.93,.65-26.9,.66c-17.26,.02-34.59-.78-51.79-2.27-34.59-3-69.9-9.34-102.74-20.79-.38-.13-.27,2.15-.03,2.42,4.9,5.4,13.5,6.08,20.25,7.53,9.4,2.03,18.87,3.75,28.37,5.23,19.03,2.97,38.2,4.96,57.4,6.47,19.19,1.51,38.41,2.58,57.63,3.51,18.12,.87,36.5,1.32,53.78-5.03,.37-.14,.11-1.61-.04-1.56h0Z"/><path class="cls-1" d="M591.87,476.35c8.14-2.1,15.77-5.62,22.55-10.6,3.46-2.54,6.67-5.42,9.56-8.59,2.74-3,4.82-7.93,8.08-10.27,.72-.52,.11-3.77-.35-3.44-3.8,2.78-6.76,7.46-9.56,11.21s-5.6,7.73-8.09,11.8c-.56,.92-.74,8.82,.83,8.32,16.1-5.18,27-18.84,34.17-33.39,.26-.54,.5-2.83-.19-3.19-5.85-3.01-13.11,3.3-16.65,7.44-4.53,5.3-9.44,12.21-10.64,19.19-.6,3.53-1.41,21.78,6.28,17.17,4.21-2.52,7.6-7.61,10.45-11.44s5.34-7.48,7.51-11.58c.5-.94-.3-5.28-.7-4.75-3.33,4.47-7.08,7.82-12.35,9.85-1.11,.43-2.24,.81-3.38,1.12-.5,.14-2.87,.18-3.28,.36-3.53-1.17-3.57,1.88-.12,9.16l.61-1.4c.71-1.36,1.28-2.84,1.93-4.24,2.31-5.03,4.76-10.04,8.16-14.44,1.78-2.3,3.63-4.65,5.61-6.77,2.12-2.27,4.72-3.85,6.64-6.3l-.55-2.91c-2.41,7.4-7.78,13.89-13.78,18.71-5.97,4.8-12.62,6.8-19.95,8.47l.55,8.78c5.73-9.08,12.25-18.27,16.95-27.9l-.58-3.07c-2.61,7.83-10.34,15.02-16.74,19.94-6.87,5.28-14.68,9.05-23.02,11.31-.35,.09-.16,1.51,.04,1.46h0Z"/><path class="cls-1" d="M639.61,457.48c-1.51,5.99-3.1,11.96-4.46,17.98-.08,.37,.21,2.33,.45,1.41,1.59-6.07,2.93-12.2,4.35-18.3,.07-.29-.17-1.79-.34-1.09h0Z"/><path class="cls-1" d="M621.36,483.5c1.04,2.73,1.1,3.92,3.5,5.41,1.12,.7,2.52,1.22,3.73,1.72,3.46,1.45,7.01,2.67,10.68,3.44,7.77,1.62,15.66-.6,22.92-3.44l-.91-3.81c-.36,4.94-9.12,2.16-11.41,1.54-5.67-1.54-11.35-3.08-17.16-4.05-10.88-1.81-23.83-3.95-34.66-.97l.1,4.2c1.19-.64,2.41-1.22,3.66-1.74,.47-.21,.45-2.49-.06-2.47-1.23,.07-2.47,.08-3.7,.01-.77-.02-.81,4.01,.1,4.2,6.26,1.28,12.95,.88,19.32,1.15,6.73,.29,13.42,.72,20.14,1.23,5.95,.45,11.79,1.6,17.69,2.15,2.21,.21,6.36,.72,7.3-1.86,.33-.92,.94-5.36-.56-5.63-13.05-2.29-25.89-6.35-38.53-10.22l-.52,.26c-1.79,2.65-2.86,5.66-1.63,8.89h0Z"/><path class="cls-1" d="M639.57,486.09c-23.61-1.65-47.2-3.91-70.82-5.27-11.47-.66-22.93-1.29-34.41-1.83-11.27-.53-22.4-1.51-33.63-2.38l.24,3.89c6.43-3.45,13.9-5.12,21.09-5.96,.48-.06,.37-2.23-.05-2.2-7.4,.55-14.15,2.4-21.28,4.27-.8,.21-.72,3.57-.05,3.9,9.37,4.57,20.69,4.56,30.89,4.96,12.12,.48,24.23,.87,36.36,1.22,23.88,.69,47.8,.47,71.69,.86,.28,0,.29-1.44-.04-1.46h0Z"/><path class="cls-1" d="M590.6,476.52c-12.8-1.78-25.56-3.37-38.44-4.28s-25.85,.12-38.44-1.74l.36,14.57c6.95,.77,14.41-.69,21.37-1.25,7.46-.6,14.91-1.25,22.37-1.74,14.61-.96,29.23-1.51,43.87-1.68l-.42-16.93c-26.46,.16-52.98,.51-79.42-1.03l.51,20.59,97.77-24.88c4.17-1.06,3.78-18.54,.28-20.26-5.82-2.85-12.09-.68-18.15,.49-7.57,1.46-15.12,2.99-22.66,4.6-15.08,3.2-30.09,6.7-45.04,10.45-4.83,1.21-2.76,21.28,.51,20.62,30.56-6.12,60.51-14.84,89.58-26.06,4.12-1.59,3.77-20.75-.51-20.64-31.33,.85-61.8,8.41-92.03,16.05l.51,20.65,55.02-17.4c4.49-1.42,3.67-17.99,.29-20.32-4.21-2.89-8.68-2.08-13.43-1.16-6.35,1.24-12.66,2.64-18.95,4.15-12.47,3-25.35,6.05-37.31,10.72-5.23,2.04-1.74,21.31,.5,20.45,6.29-2.41,12.64-4.19,19.1-6.06s12.71-4.31,19.09-6.38c1.59-.51,1.43-7.67-.19-7.69-6.42-.04-12.84-.5-19.26-.32-6.47,.18-12.78,.42-19.25,0l.5,20.45c11.87-3.13,23.49-7.11,35.43-10.04,5.65-1.39,11.33-2.67,17.03-3.84,4.74-.98,11.26-3.32,15.64-.31l.29-20.32-55.02,17.41c-4.91,1.55-2.49,21.41,.51,20.65,30.23-7.65,60.7-15.21,92.03-16.07l-.51-20.64c-29.07,11.23-59.02,19.95-89.58,26.08l.51,20.62c14.33-3.6,28.71-6.96,43.15-10.05,6.91-1.48,13.83-2.9,20.76-4.27,5.66-1.11,14.79-4.65,20.37-1.93l.28-20.26-97.77,24.9c-4.21,1.07-3.66,20.42,.51,20.59,26.53,1.09,53.01,.9,79.33-2.63,3.51-.47,2.88-16.97-.42-16.93-14.64,.2-29.26,.76-43.87,1.75-7.14,.48-14.28,1-21.39,1.78s-15.33,1.03-22.28,3.5c-3.55,1.26-1.31,15.12,.36,14.57,12.06-4,25.63-4.47,38.26-5.53,12.74-1.07,25.52-1.67,38.3-1.46,.29,0,.3-1.51-.04-1.56h0Z"/><path class="cls-1" d="M614.77,458.58c-12.22-5.29-26.53,.1-30.66,12.97-.49,1.52-1.17,12.43,1.69,12.18,12.8-1.14,26.4-10.06,36.14-17.93,2.52-2.03,.9-16.43-.98-15.58-10.79,4.87-23.1,9.07-32.58,16.35-2.58,1.98-2.62,19.56,1.19,19.1,10.76-1.3,21.17-3.15,31.76-5.49l-.54-8.63c-4.64,2.58-7.69,3.74-12.86,4.11-3.92,.28-7.85,.29-11.77,.01-3.66-.26-7.3-.73-10.89-1.46-4.19-.84-8.31-3.08-12.49-3.51l.31,12.7c16.58-1.65,32.71-.08,49.24,1.42l-.07-2.81c-20.61,.36-41.47-3.64-62.02-5.15-9.97-.73-20-.87-29.98-1.38-9.39-.48-18.74,1.57-27.88-1.36l.56,8.87c8.03-5.58,16.99-9.12,26.25-12.15,8.61-2.81,17.1-4.95,26.16-5.37l-.1-4.15-36.16,6.78-17.13,3.21c-6.36,1.19-12.68,1.69-19.06,2.63l.41,16.72c14.86-3.13,29.22-10.16,43.05-16.37,3.16-1.42,2.05-15.17-.36-14.58-9.34,2.26-19.2,3.13-28.7,4.6l-28.71,4.44,.48,19.46c9.79-2.61,19.38-5.84,29.12-8.65,5.01-1.45,9.85-2.86,14.68-4.83s9.6-3.95,14.75-5.07c3.09-.67,1.92-13.51-.32-13.12-17.92,3.1-36.14,3.73-54.29,4.3l.47,19.24c12.41-2.57,24.47-8.58,36.19-13.38,2.59-1.06,2.49-13.04-.32-12.99-9.41,.17-18.88,.3-28.23,1.4-4.36,.51-8.72,1.1-13.06,1.75-5.52,.83-9.76,2.42-14.77,4.86-2.87,1.4-3.12,15.23,.38,15.28,5.33,.08,9.66-.3,14.85-1.56,4.33-1.05,8.67-2.04,13.03-2.95,9.37-1.96,18.68-4.17,28.12-5.78l-.32-12.99c-12.02,1.89-24.87,3.01-36.34,7.12-4.27,1.53-2.92,19.85,.47,19.24,18.11-3.22,36-7.49,54.14-10.42l-.32-13.12c-4.93,1.02-9.82,1.2-14.84,1.54s-9.8,1.34-14.74,2.51c-9.84,2.32-19.62,4.73-29.13,8.16-4.54,1.64-2.56,20.21,.48,19.46l28.65-7.04c9.47-2.33,19.03-5.35,28.65-6.87l-.36-14.58c-14.53,3.8-29.65,7.49-43.1,14.24-3.85,1.93-1.63,17.49,.41,16.72,6.05-2.28,11.84-4.93,17.99-7l18.02-6.06,36.03-12.12c.94-.31,.59-4.28-.1-4.15-9.01,1.73-18.13,2.96-27.05,5.15s-17.12,5.39-25.82,7.66c-1.98,.52-1.59,7.93-.13,8.88,7.11,4.67,18.11,4.32,26.3,4.53,10.27,.27,20.67,.08,30.94-.16,20.84-.48,42.01-3.79,62.83-2.56,.52,.03,.58-2.7-.07-2.81-16.86-2.82-33.31-5.57-49.48-11.31-1.35-.48-2.87,11.36,.31,12.7,3.64,1.54,8.47,1.2,12.43,1.31s7.85-.06,11.75-.49,7.86-1.15,11.71-2.13c4.27-1.09,7.93-1.53,12.34-1.92,1.81-.16,1.64-8.4-.22-8.79-10.68-2.24-21.18-3.98-32.02-5.18l1.19,19.1c10.61-6,19.92-13.97,31.07-19.2l-.98-15.58c-4.98,4.13-10.29,7.82-16,10.89-6.1,3.28-12.69,5.1-18.92,8.01l1.96,10.72c2.14-12.15,15.41-21.42,27.4-20,.28,.03,.27-1.42-.04-1.56h0Z"/><path class="cls-1" d="M421.96,469.01l-.04-2.95,.28,1.05c-1.06,31.06,49.15,19.8,66.21,15.08,.85-.24,.75-3.54-.09-3.75-12.28-3.08-25.11-4.68-37.76-4.66-10.85,.02-19.88-1.47-26.36-10.75-2.01-2.88-2.36,5.14-2.24,5.98h0Z"/><path class="cls-1" d="M442.39,465.82l-2.14-4.69c-.93-4.34-3.2-4.45-3.83,.09-1.63,11.72,3.51,20.04,14.79,22.96,12.23,3.17,25.3,4.56,37.8,6.34,13.21,1.87,26.67,3.66,40.03,3.89,13.58,.24,28.22-4.19,40.78-9.06,1.16-.45,1.15-5.59-.14-5.76-11.78-1.58-23.49-3.82-35.27-5.28-11.66-1.44-23.48-1.57-35.17-2.92-11.39-1.32-22.74-3.04-34.05-4.89-6.99-1.14-20.91-1.36-25.19-8.36l.9,14.45c-.21,.77,2.04-4.9,1.49-6.78h0Z"/><path class="cls-1" d="M446.65,466.66c-3.76-2.9-7.69,.26-8.16,4.27-.69,5.88,2.49,10.34,7.74,12.75,8.05,3.7,17.8,4.73,26.48,5.99,10.24,1.48,20.49,2.31,30.83,2.55,20.56,.46,41.14-.26,61.68,1.28,19.7,1.48,40.3,9.02,59.98,4.43,4.24-.99,3.49-20.54-.5-20.52-12.8,.06-25.61-.01-38.41-.25-12.48-.24-26.47,.38-38.24,4.91l1.2,3.06c-.14-1.85,3.89-3.95,5.09-4.38,1.28-.45,.74-5.87-.14-5.67-5.03,1.12-7.08,5.28-7.2,10.1-.02,.98-.24,4.61,.94,5.16,11.5,5.29,25.32,7.15,37.87,7.37,13.13,.24,26.26,.3,39.39,.22l-.5-20.52c-16.17,3.79-32.4-1.08-48.5-2.92-16.93-1.93-33.91-1.6-50.91-.88s-33.35,2.06-50.04,2.68c-8.12,.3-16.36,.4-24.46-.24-2.99-.24-6.04-.51-8.63-2.19-1.75-1.14-2.05-1.68-1.03-3.55,1.19-2.18,3.04-3.8,5.45-2.22,.21,.14,.36-1.2,.08-1.41h0Z"/><path class="cls-1" d="M629.82,431.01c-5.22-5.07-15.25,12.67-17.34,16.25-4.47,7.65-8.42,15.44-8.11,24.5,.11,3.33,.31,9.61,4.12,11.1,2.31,.91,4.85-.57,6.73-1.83,6.51-4.36,12.21-10.96,16.55-17.41s8.45-13.38,9.95-20.81c.82-4.02,2.32-22.31-5.38-21.36-3.01,.37-6.54,4.13-8.73,6.01-3.04,2.61-5.86,5.47-8.43,8.55-5.25,6.27-9.44,13.37-12.52,20.93-1.6,3.92-1.52,8.8-.88,12.91,.16,1,1.48,8.1,3.6,5.89,9.26-9.64,18.31-21.6,30.07-28.3,6.29-3.58,13.61-4.61,20.75-4.45,3.28,.07,6.55,.4,9.8,.83,2.76,.36,8.35,.3,10.24,2.48l-1.87-4.69,.19,.86,.15-12.49-.22,.74,1.23-2.68c-2.37,2.63-7.35,.95-10.34,.66-4.59-.44-9.21-.61-13.82-.53-9.56,.17-19.01,1.53-28.27,3.85-4.35,1.09-3.77,20.42,.5,20.5,8.45,.15,16.86-1.56,24.92-3.98,8.21-2.47,16.52-4.75,24.68-7.4,1.28-.42,1.08-6.1-.15-6.04-8.48,.43-16.44,.5-24.87-.61s-16.69-2.3-25.07-2.46l.5,20.5c14.36-3.58,29.21-4.72,43.93-3.06,5.24,.59,9.93,1.09,11.5-5.03,1.44-5.61,2-17.92-5.17-19.88-12.59-3.45-28.33-3.75-39.96,2.64-12.11,6.65-21.37,18.84-30.77,28.69l2.72,18.8c3.09-7.63,7.24-14.58,12.73-20.74,2.49-2.8,5.2-5.41,8.09-7.8,1.22-1.01,2.47-2.09,3.82-2.94,.79-.72,1.7-1.2,2.73-1.45,.94-11.51,.52-14.78-1.25-9.8-3.6,6.7-6.69,13.17-11.59,19.11-1.12,1.36-14.22,16.12-16.25,12.17l1.58,8.41-.02-1.36-.64,6.93c2.93-9.47,8.08-18.6,13.24-27,2.73-4.45,5.92-8.14,7.01-13.28,.21-.99,1.55-4.72,.34-5.9h0Z"/><path class="cls-1" d="M677.37,447.37l-4.19-1.43c-.16-.05-.36,1.33,.04,1.46l4.19,1.43c.15,.05,.35-1.33-.04-1.46h0Z"/><path class="cls-1" d="M655.21,444.03c7.5-3.56,15.57-.28,22.92,2.13,8.61,2.83,17.39,5.16,26.16,7.43,17.82,4.61,35.74,8.8,53.9,11.85,36.3,6.11,73.18,9.33,110,7.76,10.6-.45,35.75-3.45,30.01-20.31-.4-1.17-.83-.32-.91,.48-.32,3.09-13.44,1.67-15.18,1.54-8.7-.64-17.16-.59-25.88-.42-16.92,.34-33.8,.5-50.73,.15-33.54-.68-67.33-3.31-100.47-8.65-9.04-1.46-18.02-3.24-27.03-4.84-7.74-1.38-15.85-3.19-22.9,1.36-.3,.2-.06,1.6,.1,1.53h0Z"/><path class="cls-1" d="M846.81,475.65c2.75-.95,4.32-2.59,5.4-5.28,.2-.51,.62-3.88-.41-3.83-5.06,.27-10.35,1.98-15.28,3.21-5.45,1.36-10.76,2.95-16.08,4.76s-10.08,3.46-15.1,5.26-10.44,2.84-14.86,5.4l1.85,16.97c12.7-9.7,26.05-17.87,40.53-24.71,1.51-.71,.49-7.49-.47-7.13-16.98,6.34-34.89,9.95-51.76,16.55-2.37,.92-2.48,10.64,.27,10.9,15.4,1.44,30.38-1.55,45.41-4.63,15.25-3.13,30.49-6.62,45.43-11.03,25.49-7.51,49.94-18.04,66.2-40.05,.63-.85,.08-5.07-.49-4.49-17.69,18-44.38,25.01-67.87,31.98-14.76,4.38-29.52,8.68-44.48,12.33-14.43,3.52-29.54,7.38-44.46,4.99l.27,10.9c17.62-5.63,34.14-14.27,51.67-20.18l-.18-7.27c-14.01,3.91-27.87,8.82-41.2,14.55-4.19,1.8-2.36,18.47,.43,17.63,4.78-1.43,9.33-4.78,13.84-7.03,4.98-2.48,9.96-4.96,14.95-7.41,10.57-5.19,22.18-10.43,31.66-17.45l-.78-3.01c-.44,3.54-2.06,5.03-4.58,6.54-.29,.17-.15,1.61,.1,1.53h0Z"/><path class="cls-1" d="M943.59,436.7c-19.95,18.86-43.91,30.89-70.2,38.22-26.75,7.46-53.91,5.71-81.23,3.93-3.87-.25-2.19,13.08-.93,14.84,2.93,4.07,7.55,4.98,12.39,4.73,6.66-.34,13.45-1.52,20.02-2.61,13.26-2.19,26.42-4.84,39.31-8.65,25.8-7.62,50.08-19.67,72.19-34.98,12.81-8.88,24.57-19.25,35.79-30.06,2.71-2.61,2.05-9.25,1.7-12.6-.11-1.08-1.35-9.27-3.71-7.04-32.71,30.93-75.09,50.18-119.89,54.54l1.3,20.2c36.74-19.35,75.56-34.23,114.29-49.04,4.67-1.79,3.12-21.43-.51-20.68-35.7,7.42-70.95,16.79-105.62,28.09-4.8,1.56-3.15,21.37,.51,20.68,28.54-5.39,56.63-12.82,84.1-22.26,4.58-1.57,3.6-21.18-.51-20.68l-110.98,13.58c-4.97,.61-3.63,21.18,.51,20.68,35.13-4.25,70.12-10.55,103.95-21.1,34.84-10.86,66.11-27.57,93.05-52.36,.82-.75,.59-5.85-.55-5.28-30.24,15-62.39,27.56-94.65,37.48-33.32,10.24-67.75,16.41-102.31,20.59l.51,20.68,110.98-13.58-.51-20.68c-27.47,9.44-55.56,16.88-84.1,22.26l.51,20.68c34.67-11.3,69.92-20.67,105.62-28.09l-.51-20.68c-39.3,15.03-78.63,30.21-115.88,49.91-3.36,1.78-2.75,20.6,1.3,20.2,45.26-4.46,88.39-24.2,121.4-55.48l-2.01-19.64c-22.98,24.3-51.85,44.02-82.21,57.94-15.71,7.2-31.61,13.54-48.31,18.08-7.87,2.14-15.83,3.69-23.9,4.88-6.27,.92-17.32,3.56-21.01-3.48l-.93,14.84c27.03,8.53,56.74,2.62,82.63-6.99s50.54-27.99,68.57-49.56c.23-.28,.03-1.68-.16-1.5h0Z"/><path class="cls-1" d="M1034.59,365.67c-11.1,10.62-22.36,21.5-34.56,30.86-12.39,9.51-25.54,18.36-38.74,26.71-27.42,17.35-56.15,32.45-86.79,43.31-18.13,6.43-34.71,17.32-53.01,23.23l.09,3.77c14.76-4.96,30.34-7.19,45.19-12.06s28.88-10.4,42.49-17.39c28.46-14.63,54.85-32.81,80.38-52,7.06-5.31,14.05-10.69,21.02-16.12s14.14-12.82,22.86-15.61l-1.26-19.75c-37.48,42.92-83.03,78.71-133.86,104.5-6.97,3.54-14.01,6.98-20.58,11.24-3.01,1.95-13.09,7.49-15.66,2.18-.91-1.89-1.5,3.12-1.43,3.6,2,12.35,14.83,13.06,24.66,9.5,13.77-5,26.82-12.65,39.4-20.07,26.21-15.46,50.83-33.64,73.31-54.15,12.84-11.71,24.86-24.25,36.19-37.43,2.57-2.99,2.13-8.8,1.74-12.43-.08-.79-1.84-9.49-3.77-6.94-9.79,12.95-24.52,22.43-37.31,32.36-12.69,9.85-25.56,19.45-38.69,28.69-26.06,18.34-53.53,35.48-82.23,49.37-8.63,4.18-17.44,8-26.42,11.39-8.46,3.2-17.07,6.47-26.12,7.35-.94,.09-.75,3.85,.09,3.77,8.05-.69,16.23,0,24.3-.88s16.04-2.26,23.82-4.16c15.03-3.66,29.88-11.35,43.69-18.2,14.9-7.39,29.46-15.83,43.06-25.43,14.14-9.98,27.02-21.07,39.25-33.27,14.05-14.02,27.38-28.43,39.03-44.55,.18-.25,.04-1.59-.15-1.41h0Z"/><path class="cls-1" d="M692.55,420.35c100.24,11.89,203.38-.07,298.37-34.11,26.43-9.47,52.79-20.54,76.84-35.13,.51-.31,.13-2.82-.17-2.69-23.11,9.65-45.85,20.06-69.3,28.93-23.64,8.95-47.79,16.55-72.29,22.78-48.43,12.3-98.09,19.91-148.07,21.41-28.48,.85-57.05-.12-85.42-2.74-.3-.03-.35,1.51,.04,1.56h0Z"/><path class="cls-1" d="M642.5,409.55c-2.95-1.29-5.68-1.75-8.92-1.41-.45,.05-.29,1.6-.03,1.81,10,8.2,23.09,8.91,35.5,8.99,15.84,.11,31.69-.05,47.53-.41,31.09-.7,62.05-1.63,93.04-4.45,61.71-5.62,122.97-16.49,182.34-34.39,33.57-10.12,66.45-21.44,101.13-27.34,.55-.09,.48-2.71-.07-2.74-30.64-2.14-59.96,9.5-88.65,18.68-29.49,9.44-59.49,17.18-89.82,23.36-60.84,12.38-122.83,18.85-184.76,22.58-17.08,1.03-34.21,1.42-51.32,1.71-14.93,.25-32.29,2.01-44.82-7.75l-.03,1.81c3.16-.43,5.89-.09,8.85,1.1,.17,.07,.37-1.38,.03-1.53h0Z"/><path class="cls-1" d="M1090.19,354.97c-18.8,1.06-37.5,5.9-55.81,10.04s-36.38,8.79-54.27,14.13-36.06,10.89-53.59,17.73-35.48,13.91-52.03,22.96c-.61,.33-.38,3.56,.22,3.41,18.17-4.33,36.02-10.72,53.88-16.18s35.1-11.53,52.7-17.09,35.48-11.11,53.29-16.49,37.61-10,55.64-17.05c.29-.11,.25-1.48-.04-1.46h0Z"/><path class="cls-1" d="M1039.31,363.17c-35.38,12.4-71.3,22.45-107.81,30.97-18.39,4.29-36.91,7.95-55.32,12.11-17.83,4.02-35.75,7.79-53.82,10.58-9.94,1.53-20.02,2.53-30.08,1.89-4.22-.27-9.75-2.16-13.79-.88-3.2,1.01-3.63,4.4-7.4,4.46-2.38,.03-4.93-.87-7.33-1.07-.46-.04-.31,1.85-.03,2.07,1.79,1.4,3.6,2.6,5.63,3.62,3.58,1.8,4.18,3.43,6.61,6.6,2.99,3.9,6.95,4.41,11.58,4.79,8.78,.71,17.69,.23,26.42-.8,18.35-2.17,36.43-7.06,54.29-11.66,37.45-9.64,73.93-23.2,109.91-37.29,20.38-7.98,40.79-15.85,61.17-23.82,.39-.15,.15-1.62-.04-1.56h0Z"/><path class="cls-1" d="M796.39,432.42c65.91-11.38,131.02-27.03,194.71-47.49,18.22-5.85,36.33-12.02,54.28-18.65,.46-.17,.17-1.9-.04-1.83-63.11,22.12-127.4,40.84-192.73,55.18-18.68,4.1-37.43,7.83-56.25,11.23-.39,.07-.25,1.61,.04,1.56h0Z"/><path class="cls-1" d="M1055.27,363.55c-51.17,16.08-99.58,46.77-133.52,88.68-.39,.48,0,2.66,.26,2.38,18.45-19.41,37.98-37.2,60.17-52.29,22.64-15.4,47.38-27.91,73.13-37.21,.37-.14,.15-1.62-.04-1.56h0Z"/><path class="cls-1" d="M1016.04,402.63c-2.44-.86-3.7-1.72-5.47-3.4l.07,2.66,3.28-3.77c.3-.34,.49-3.1-.19-3.01-6.21,.83-10.55,4.02-14.19,9.15-.62,.87-.75,7.94,.46,7.37,8.86-4.18,17.27-9.53,25.39-15l-.45-4.35c-10.55,7.5-21.6,14.2-32.45,21.23l.85,8.06c7.19-7.8,14.63-15.48,23.86-20.92,.6-.35,.28-3.53-.21-3.38-3.45,1.08-6.21,2.58-9,4.88-.42,.35-.38,3.27,.2,3.13,7.49-1.83,15.26-3.19,22.59-5.58l-.06-2.5c-.96,.45-3.13-.1-4.42,.19-1.54,.34-2.94,1.05-4.38,1.68-2.49,1.1-4.9,2.35-7.33,3.58-5.78,2.92-13.11,5.69-17.31,10.72l.83,5.62c.35-.97,.71-1.94,1.09-2.9,.17-.44,.27-4.26-.54-3.67-.44,.34-.9,.66-1.38,.94-.95,.6-.96,5.97,.39,6.05,5.17,.34,11.74-4.73,16.09-7.23,2.61-1.5,5.26-2.96,7.82-4.55,1.43-.89,2.98-1.75,4.32-2.78,1.8-1.38,3.23-4.13,4.98-5.21,.39-.24,.34-2.52-.16-2.45-7.59,1.05-15.12,3.25-22.61,4.89l.2,3.13c2.67-2.11,5.51-3.57,8.77-4.5l-.21-3.38c-8.77,4.42-17.41,9.08-24.36,16.18-1.32,1.34-.45,9.02,.85,8.06,10.85-8.1,21.28-16.75,32.06-24.94,.79-.6,.38-4.8-.45-4.35-8.19,4.43-16.64,8.02-25.12,11.84l.71,6.98c3.2-5.35,8.18-9.63,13.39-12.98l-.3-2.95-3.25,4.07c-.37,.46-.48,2.28,.07,2.66,1.86,1.32,3.39,1.89,5.65,2.19,.25,.03,.28-1.35-.04-1.46h0Z"/><path class="cls-1" d="M1069.3,359.26c-.73-.74-1.46-1.49-2.19-2.23l-.04,1.85c5.11,.5,11.42-2.24,16.24-3.85s9.57-3.57,14.19-5.79c10.32-4.96,19.64-11.3,28.32-18.75,.43-.37,.15-2.33-.25-2.02-8.6,6.59-17.97,12.3-27.72,17.01-5.27,2.54-10.7,4.79-16.22,6.74-4.74,1.67-10.32,2.38-14.69,4.82-.42,.23-.26,1.55,.04,1.81,.74,.64,1.47,1.28,2.21,1.92,.25,.22,.4-1.21,.11-1.5h0Z"/><path class="cls-1" d="M1167.15,282.29c2.31-2.68,1.43-5.63-.46-8.27l.06,2.37c4.02-6.27,7.99-12.52,12.5-18.46,.79-1.04-.01-5.49-.56-4.86-8.65,9.93-16.36,20.61-24.21,31.18-4.15,5.59-8.12,11.33-12.04,17.09-2.74,4.02-6.14,7.44-5.38,12.5,.07,.45,.19,1.62,.83,1.69,1.16,.11,1.49-.82,1.88-1.76,.25-.62,.33-2.33-.33-2.77l-.34-.22c-.77-.51-.56,2.42-.35,2.77l.3,.5,.07-3.04-1.13-.05,.65,2.23c-.1-1.39,4.45-5.49,5.39-6.66,1.77-2.2,3.52-4.43,5.25-6.67,3.26-4.2,6.44-8.44,9.59-12.73,7.09-9.67,14.14-19.33,20.57-29.46l-.94-4.34c-3.81,7.09-8.01,13.87-12.28,20.7-.32,.51-.42,2.31,.3,2.55l.4,4.38c-.22,.29,.06,1.53,.23,1.33h0Z"/><path class="cls-1" d="M1178.49,250.06c1.71-2.12,2.21-3.86,5.93-3.14,3.1,.6,4.36-16.05-.4-16.43-3.05-.25-5,3.73-6.8,5.85-2.38,2.81-4.78,5.59-7.18,8.38-4.65,5.4-9.34,10.74-14.15,16s-9.77,10.91-14.55,16.48-10.42,11.8-13.31,18.83l2.49,6.6c1.17-3.4,3.12-6.38,4.91-9.46,.37-.64,0-4.35-.64-3.67-1.54,1.63-3.41,4.42-5.63,5.12s-2.28,9.16,.23,9.41c2.73,.28,5.23-2.05,7.44-3.52,2.89-1.92,5.42-4.25,7.99-6.59,5.19-4.72,10-9.69,14.69-14.9s9.51-10.68,14.07-16.18,10.7-11.39,12.78-18.38l-4.95-5.69c.12,4.48-1.09,6.48-3.23,9.95-.18,.28-.05,1.79,.31,1.34h0Z"/><path class="cls-1" d="M1181.32,245.89c3.09-4.16,6.18-8.32,9.27-12.48l-.32-1.83c-2.23,2.5-3.85,4.04-5.67,7.15s-3.78,6.49-5.59,9.78c-3.87,7.02-7.74,14.04-11.5,21.12-7.65,14.4-15.82,28.82-21.75,44.04-.78,2,.93,10.29,2.39,6.19,2.51-7.02,7.23-13.64,11.03-20.03,.36-.61,.02-3.68-.65-2.75-1.84,2.58-3.65,5.2-5.55,7.74s-3.88,5.99-6.55,7.69l1.42,8.04c9.01-12.82,15.44-27.81,22.43-41.77,7.45-14.87,15.26-29.73,20.38-45.54,.09-.27-.02-2.19-.47-1.57-3.06,4.29-6.12,8.58-9.18,12.87-.22,.31,0,1.77,.31,1.34h0Z"/><path class="cls-1" d="M1168.66,281.08c-8.49,4.73-17.57,11.99-21.4,21.21-.97,2.34-1.13,5.02-.66,7.51,.13,.67,1.1,4.85,2.51,3.41,10.79-11.02,21.95-21.55,32.05-33.24,.63-.73,.27-4.62-.48-3.98-3.92,3.35-8.69,5.78-12.73,9.06s-7.8,6.81-11.38,10.49c-7.63,7.86-14.38,16.89-20.2,26.15-2.04,3.24-1.78,8.54-1.11,12.09,.22,1.19,1.81,7.77,4.19,5.49,3.92-3.75,5.72-8.67,8.81-13.04,2.74-3.88,5.74-7.57,8.42-11.5,5.38-7.87,10.8-15.64,15.59-23.9,.26-.44,.19-3.54-.53-2.95-5.73,4.74-12.27,8.56-17.61,13.79-4.85,4.75-9.31,9.94-13.33,15.41-9.37,12.74-15.44,27.21-18.08,42.81-.2,1.16-.28,9.26,2.33,7.74,2.12-1.23,3.79-3.12,4.82-5.34,.33-.71,.16-5.97-.88-4.91-1.22,1.23-2.83,.89-4.19,.02l.69,9.69c5.8-12.79,11.11-25.85,18.04-38.1,3.65-6.44,7.67-12.64,12.1-18.57,5.05-6.77,9.99-13.94,16.51-19.42l-.53-2.95c-4.82,6.97-9.97,14.01-16.15,19.85-2.71,2.57-5.47,5.18-8.41,7.49-3.14,2.47-6.84,2.56-9.88,5.31l3.08,17.59c5.78-10.06,11.51-20.08,17.92-29.75,3.41-5.14,6.97-10.11,10.81-14.93s7.52-10.06,12.18-13.63l-.48-3.98c-9.51,10.04-20.36,19.72-32.94,25.68l1.85,10.92c2.57-5.16,4.61-10.51,7.59-15.47,3.22-5.37,7.24-10.15,11.68-14.54,.24-.24,.23-1.73-.19-1.5h0Z"/><path class="cls-1" d="M1143.08,310.41c-3.35,1.79-5.5,6.34-7.3,9.54-2.3,4.1-4.32,8.42-6.16,12.75-3.56,8.42-6.22,17.2-8.36,26.08s-3.62,18.31-4.45,27.58c-.7,7.88-2.48,18.44,2.82,25.07,.36,.45,.72,.45,1.06-.03,3.88-5.52,3.21-12.99,3.76-19.79,.64-8.01,1.94-15.92,3.78-23.74s4.49-15.82,7.39-23.51c3.31-8.76,7.8-17.23,9.78-26.41,.26-1.22,.3-8.94-2.31-7.54h0Z"/><path class="cls-1" d="M1106.33,365.46c-.67-2.59-1.51-5.05-2.72-7.44s-5-6.05-5.05-8.82c-.03-1.6-.46-7.34-3.17-6.82s-2.15,7.3-1.99,8.81c1.32,12.47,6.23,24.85,10.3,36.64,1.96,5.67,3.89,11.43,6.24,16.94,1.32,3.1,3.78,10.25,7.66,10.75,2.71,.35,3.15-11.38-.28-11.46-1.43-.03-3.93-7.29-4.57-8.71-.71-1.56-1.02,1.64-.81,2.29,1.24,3.79,3.31,8.19,3.34,12.21l4.37-.11c-.66-12.29-6.41-23.89-10.64-35.28-1.95-5.25-3.78-10.54-5.64-15.82-1.82-5.16-3.17-10.91-6.27-15.47l-.32,12.84c3.27-3.26,4.3-.17,5.73,2.24,1.51,2.54,2.53,5.16,3.32,8,.27,.97,.62-.35,.5-.8h0Z"/><path class="cls-1" d="M1094.85,363.29c-1.69-2.4-3.67-4.63-4.3-7.6l-2.52,2.93c1.1,9.55,11.47,13.2,17.32,19.92,2.73,3.13,4.88,6.64,7.03,10.18,1.19,1.96,3.2,6.58,5.7,7.01l-.75-9.83c-1.32,.53-2.33,.3-3.03-.71-1.19-1.14-1.09,4.49-.71,5.2,.96,1.78,2.21,3.14,3.51,4.68,1.82,2.15,2.62-1.9,2.74-3.06,.96-9.57-3.11-19.65-8.96-27.06-2.63-3.32-5.64-6.5-9-9.1-2.67-2.06-7.87-5.91-11.33-4.62-4.59,1.72-2.11,15.42,1.04,13.65l3.08-.17c.28,.28,.37-1.18,.2-1.43h0Z"/><path class="cls-1" d="M1091.09,349.07l-.64,.41c-1,.63-.7,3.12-.5,3.99,3.75,16.65,27.82-1.37,35.24-5.76l-2.43-19.37c-8.9,8.41-14.22,20.19-16.71,32.03-1.47,6.98-1.9,14.24-1.31,21.34,.41,4.99,1.47,11.07,4.87,15.01,1,1.17,1.97,.44,2.36-.88,1.08-3.64,2.7-6.8,2.63-10.64-.03-1.56-1.26-2.69-1.42-.46,.29,2.16-.47,2.95-2.29,2.37l1.57,5.02c-.43-7.56-1.15-15.57,.7-23,2.04-8.17,6.51-15.18,12.03-21.41,2.81-3.17,2.77-8.47,2.26-12.45-.18-1.43-1.75-9.35-4.69-6.92-5.56,4.6-11.32,9.08-16.43,14.18-1.27,1.27-13.75,14.53-14.87,7.1-.02-.13-.12-.7-.37-.53h0Z"/><path class="cls-1" d="M1110.02,360.18c.71,14.43,2.53,28.55,5.65,42.67,1.53,6.95,3.17,13.87,4.92,20.77,1.61,6.35,2.43,15.11,6.4,20.41,2.08,2.79,3.89-.34,4.48-2.44,1.07-3.78,.84-8.22-.57-11.88-.5-1.28-.68-2.59-.57-3.95-.02-1.93-1.66-3.27-1.82-.56s-.42,5.57-.75,8.36l.97-2.62-.48,.44,3.3,10.04c2.03-8.49-1.84-16.82-4.24-24.81-2.07-6.88-4.02-13.81-5.86-20.76-3.23-12.26-6.67-24.31-10.94-36.24-.23-.65-.5,.33-.49,.56h0Z"/><path class="cls-1" d="M1135.2,326.17c-1.69-.33,.22-3.14-1.51-.92-.59,.76-.81,2.28-1.09,3.18-.81,2.62-1.47,5.28-2.1,7.95-1.17,4.95-2.15,9.95-3.01,14.96-1.87,10.93-3.38,21.95-4.41,33-.94,10.12-2.04,20.56-1.59,30.73,.25,5.5,1.49,22.75,9.63,22.46,1.19-.04,2.09-1.68,2.37-2.6,.81-2.68,3.16-15.4-2.9-14.86-1.8,.16-1.28,4.48-.78,5.49l.25-.96,2.01-4.06c.64,.92,.51,.59-.41-.99-.44-.96-.98-1.86-1.63-2.69-.29-.66-.47-1.2-.62-1.89-.76-3.35,.05-7.55,.23-10.92,.49-9.06,1.27-18.11,2.29-27.13s2.37-17.87,3.87-26.77c.78-4.66,1.62-9.31,2.27-13.99,.54-3.92,1.36-8.67-.37-12.41-.22-.47-.73-1.52-1.44-1.46h-.12c-.55,.06-.96,.77-1.09,1.22-.46,1.65-.79,2.17-.61,3.63,.02,.15,.09,.6,.33,.6h.46c.43,0,.4-1.47-.04-1.56h0Z"/><path class="cls-1" d="M1120.8,368.43c-.07-3.9-1.74-7.18-4.78-9.65-.73-.59-1.32,.61-1.49,1.1-1.52,4.2-3.52,26.37,6,19.64,8.45-5.98,9.87-17.19,9.81-26.71,0-.69-1.33-11.31-4.38-8.46-9.67,9.04-12.37,22.65-12.62,35.37-.02,1.13,1.28,12.6,4.99,9.69,7.54-5.91,11.73-14.7,15.03-23.49,4.22-11.26,8.66-22.39,13.84-33.25,5.11-10.73,10.73-21.26,16.72-31.52,4.93-8.44,10.72-16.72,11.34-26.79,.02-.32-.48-3.09-.99-1.96-2.67,5.86-6.69,10.38-10.69,15.35s-7.47,10.19-10.77,15.7c-6.78,11.33-12.67,23.27-17.76,35.45s-9.39,24.87-12.82,37.71c-1.63,6.11-2.95,12.1-2.13,18.48,.48,3.73,1.92,11.09,7.08,10.41,1.01-.13,1.62-1.31,1.9-2.15,1.45-4.44,3.88-8.57,5.48-12.97,.26-.72,0-7.19-1.46-5.7-2.06,2.09-4.31,5.71-7,6.75l2.14,.67c-.15-.16-1.63-2.06-1.68-2.05,4.99-1.16-.72,4.98,.58,2.31,.94-1.92,1.1-4.72,1.64-6.8,1.38-5.36,2.94-10.67,4.63-15.95,3.3-10.31,7.16-20.44,11.45-30.38s9.53-20.1,14.54-30.02c5.5-10.88,8.43-23.91,15.57-33.79l-.94-2.38c-2.23,9.4-9.6,16.75-15.19,24.32-5.89,7.97-11.19,16.41-16.11,25s-9.12,16.88-13.11,25.6c-3.62,7.92-6.88,16.21-13.79,21.89l4.99,9.69c.03-6.94,4.26-13.53,8.04-19.02l-4.03-1.29c-.06-3.44-.27-4.04-.62-1.79-.28,.97-.66,1.89-1.14,2.78-.85,1.62-1.97,3.06-3.3,4.31-.51,.5-1.06,.96-1.64,1.38-.25,3.87-.41,4.43-.5,1.69-.3-1.95-.27-3.99-.49-5.96l-1.38,5.25c1.94-.18,3.62-.12,4.52,2.07,.25,.61,.48-.3,.48-.53h0Z"/><path class="cls-1" d="M1185.54,254.3c1.62-3.19,2.14-7.01,4.04-10.01,1.39-2.21,1.23-5.76,.77-8.19-.12-.65-1.47-5.47-2.91-3.72-6.98,8.49-9.6,21.03-12.12,31.49-2.89,12.02-5.65,25.72-3.13,38,.4,1.96,1.34,4.13,3.32,2.85s1.58-6.82,1.3-8.49l-.67-3.93c-.05-.29-.17-1.35-.66-1.33l-1.31,.06,1.64,13.32c1.86-4.14,2.3-8.73,2.93-13.2,.79-5.57,1.64-11.1,2.8-16.6,2.31-11.05,6.37-21.62,8.82-32.62l-3.71,1.42c1.49,3.55,.11,6.39-1.44,9.63-.16,.34,.09,1.78,.32,1.34h0Z"/><path class="cls-1" d="M846.57,299.98c1.64,4.4,3.06,5.93,7.82,6.41,4,.4,8.17,.27,12.17-.02,7.98-.57,16.86-2.59,21.27-9.9,.59-.98,.68-3.62-.31-4.43-3.37-2.74-8.83-2.27-13-1.71-4.97,.67-9.83,1.93-14.84,2.43-3.82,.38-9.39-.61-11.93,2.95-.69,.97-1.67,2.95-1.18,4.27h0Z"/><path class="cls-1" d="M874.46,285.66c-.24-2.72-.78-5.28-1.86-7.8-1.18-2.75-4.38-5.63-4.75-8.48-.23-1.76-.86-5.69-3.19-4.19-2.13,1.37-1.2,7.59-.86,9.37,1.12,5.98,3.94,8.95,7.94,13.31,2.86,3.12,5.7,7.47,9.42,9.51,5.02,2.76,11.24,.07,12.23-5.57,.07-.41-.28-4.55-1.09-3.6-2.48,2.89-5.26-1.45-6.38-3.33-1.85-3.12-3.2-6.08-5.66-8.8-3.89-4.32-8.1-8.95-12.59-12.63-4.84-3.97-5.23,22.42,.45,18.27,4.84-3.53,5.17,.24,5.8,4.36,.16,1.06,.6,.2,.54-.43h0Z"/><path class="cls-1" d="M775.42,306.05c-2.91-1.77-5.62-2.21-8.86-.87-.5,.2-.51,1.93-.05,2.19,7.84,4.29,17.7,2.02,26.18,1.38,10.23-.76,20.46-1.45,30.71-1.88,20.81-.88,41.67-.9,62.5-.57,.43,0,.43-1.9-.05-1.92-20.18-1.08-40.34-1.07-60.53-.29-9.92,.38-19.83,.94-29.72,1.69-9.09,.69-20.44,3.91-28.94-.56l-.05,2.19c3.2-1.38,5.56-1.51,8.71,.06,.34,.17,.42-1.22,.1-1.41h0Z"/><path class="cls-1" d="M1045.4,315.78c-2.53,.26-4.48-.24-6.23-2.23l-.33,2.62c5.42,4.96,15.83,5.4,22.81,6.97,7.72,1.74,16.49,4.46,24.46,3.25,.82-.12,.66-2.72,.07-3.06-7.09-4.11-15.83-5.47-23.76-7.06l-12.25-2.46c-3.75-.75-7.83-2.11-11.4-.4-.56,.27-.49,2.51,.07,2.76,2.27,.99,4.06,1.56,6.59,1.17,.4-.06,.31-1.59-.04-1.56h0Z"/><path class="cls-1" d="M1063.87,309.28c1.27,1.98,1.37,4.14,2.13,6.29,.45,1.27,1.63,3.56,3.36,3.05,1.9-.56,2.8-6.75,.33-6.59-.69,.05-.56,2.55,.07,2.74,.67,.44,.8,0,.39-1.33-.1,.07-.21,.13-.33,.18-.31-.01-.62,.15-.97,.08-1.1-.22-1.73-1.36-2.06-2.33-.48-1.39-.81-4.08-2.81-3.55-.42,.11-.26,1.2-.1,1.45h0Z"/><path class="cls-1" d="M1041.52,277.81c3.42-.55,1.19-4.86,0-6.29-.45-.55-1-.69-1.4,.03-1.92,3.46-3.09,7.09-4.06,10.92-.91,3.58-2.15,7.76-1.69,11.5,.6,4.82,3.59,2.75,3.24-1.04-.03-.28-.23-1.55-.75-1.47l-.33,.06c-1.12,.19-.63,3.07-.09,3.6l.32,.32-.41-3.37c.24,2.42,.58,2.93,1.02,1.54,.37-.88,.74-1.77,1.11-2.65,.65-1.73,1.21-3.52,1.72-5.29s.95-3.51,1.32-5.29c.21-1.23,.42-2.46,.63-3.69,.37-1.1,.15-1.22-.67-.35-.4,.1-.3,1.52,.04,1.46h0Z"/><path class="cls-1" d="M1054.73,266.63c-2.36,2.49-3.06,6.64-4.05,9.82-1.58,5.04-3.46,10.15-4.51,15.34-.44,2.18-.74,10.01,3.35,7.83,.52-.28,.5-2.67-.2-2.69-2.37-.07,2.55-14.75,2.96-16.2,1.23-4.35,2.46-8.62,2.82-13.14,0-.08-.1-1.24-.38-.95h0Z"/><path class="cls-1" d="M1055.74,264.54c-4.33,12.17-8.44,24.64-11.69,37.14-.06,.24-.09,2.87,.54,2.32,2.04-1.78,3.22-3.61,3.94-6.22,.12-.44-.26-2.48-.57-1.47-.69,2.27-1.78,3.71-3.7,5.01l.54,2.32c4.46-12.4,7.99-25.33,11.35-38.07,.08-.29-.15-1.74-.4-1.03h0Z"/><path class="cls-1" d="M766.24,252.04c2.92-3.55,5.84-7.1,8.76-10.64l-.66-3.72c-3.79,5.73-24.28,49.68-10.35,51.34,.71,.08,.5-2.4,.06-2.7-5.68-3.88,1.31-18.89,3.08-24.02,2.5-7.24,5.57-14.25,8.18-21.44,.22-.61-.15-4.46-.97-3.19-2.77,4.32-5.56,8.63-8.35,12.94-.19,.29,.06,1.63,.24,1.42h0Z"/><path class="cls-1" d="M771.22,247.19l.88-2.94-.35-2.97c-3.39,7.21-6.51,14.55-9.46,21.95-3.22,8.06-6.73,16.13-8.53,24.66-.15,.71,.44,4.44,1.23,2.47,.29-.72,.58-1.45,.87-2.17,.14-.36-.1-3.09-.6-2.51-.36,.42-.72,.84-1.08,1.26l.67,3.75c4.39-6.15,6.45-14.38,9.01-21.4,3.07-8.43,5.97-16.93,8.63-25.5,.1-.31,.16-3.22-.61-2.66-2.39,1.73-3.25,5.55-.77,7.58,.28,.23,.4-1.22,.11-1.5h0Z"/><path class="cls-1" d="M772.6,247.43l-.32-.31,.11,1.55c-4.08,6.83-6.84,15.03-9.82,22.41-3.32,8.23-6.88,16.49-9.4,25-.54,1.83-.82,4.76,.16,6.49,.79,1.4,1.61,1.78,2.27-.06,2.64-7.31,6.17-13.77,7.72-21.49,.17-.85-.55-3.5-1-1.55-1.11,4.8-3.43,13.26-8.47,15.41l1.44,8.36c5.09-10.66,8.56-22.32,12.33-33.5,1.91-5.66,4.03-11.37,5.53-17.15,.56-2.14,1.13-4.22,.02-6.19-.04-.08-.1-.13-.19-.14-.78,.26-.7,.27-1,1.09-.11,.3-.19,1.22,.17,1.41l.32,.17c.4,.22,.35-1.27,.11-1.5h0Z"/><path class="cls-1" d="M772.15,257.07c1.92-.34,2.15-2.49,2.72-4.07,.28-.79,.1-8.08-1.49-6.64-9.6,8.69-17.14,20.5-23.83,31.49-7.15,11.75-13.7,24.62-17.13,38.01-.38,1.49,.73,6.58,1.57,3.12,.36-1.36,.76-2.7,1.2-4.03,.16-.48-.21-3.52-.77-2.5s-1.1,2.04-1.82,3l1.07,4.47c6.51-10.8,11.37-22.59,17.86-33.44,6.91-11.56,15.36-21.87,23.09-32.85l-2-5.42c-.6,2.82-.88,5.25-.75,8.14,0,.12,.05,.77,.28,.73h0Z"/><path class="cls-1" d="M824.69,229.21c1.88-3.62,1.63-6.94,.82-10.86-.09-.43-.34-1.23-.9-.97-7.92,3.68-14.61,10.25-21.04,16.04s-13.93,11.8-18.44,19.32c-.68,1.14,.04,6.67,1.15,5.03,4.55-6.74,12.8-12.24,19.08-17.33,5.95-4.82,12.05-9.44,18.33-13.81,1.67-1.16,7.98-6.73,9.76-5.02,1.02,.98,1.63,4.61,2.2,5.92,.77,1.78,1.61,3.53,2.41,5.29,2.78,6.07,5.08,14.37,9.67,19.31l.14-5.9-.53-.17c.07-.33-.34-2.82-.73-1.92-1.13,2.62-.44,4.67,.63,7.24,1.19,2.84,1.84-2.72,1.59-3.68-1.54-5.97-4.63-11.46-7.26-17.01-2.4-5.08-4.52-10.36-7.91-14.87-.17-.22-.35-.4-.62-.22-8.42,5.63-16.64,11.56-24.6,17.82-3.85,3.03-7.64,6.13-11.36,9.32s-7.37,7.76-11.72,9.71l.68,5.63c3.54-1.72,6.38-5.11,9.18-7.84,3.3-3.22,6.59-6.44,9.97-9.58,3.16-2.94,6.37-5.84,9.56-8.75,1.62-1.48,3.27-2.94,4.85-4.46,.92-.92,1.84-1.85,2.77-2.76,1.89-2.89,2.55-1.83,1.99,3.19-.15,.33,.08,1.8,.32,1.34h0Z"/><path class="cls-1" d="M841.24,231.05c3.45,5.72,6.43,11.59,9.54,17.49l.58-7.95c-6.85,1.48-12.19-2.7-15.85-8.16-2.19-3.27-4.56-7.85-8.48-9.36-4.47-1.73-9.92,3.04-13.06,5.79-4.34,3.79-7.33,8.65-9.62,13.89-1.28,2.93-1.39,6.34-.83,9.45,.19,1.04,1.23,5.89,3.17,4.3,4.66-3.83,8.78-8.28,12.44-13.07,3.84-5.03,6.38-10.78,10.02-15.89,.6-.85,.65-6.51-.97-5.67-7.75,4.01-13.47,10.53-16.92,18.51-.55,1.28-1.78,12.99,1.44,11.89,11.69-4.01,21.62-13.95,28.76-23.7l-2.61-11.32c-7.24,11.28-12.99,22.08-13.53,35.83-.04,.94,1.12,15.75,4.65,12.07,6.26-6.51,11.35-14.13,15.37-22.2l-4.77-15.78c-2.75,8.27-5.71,16.51-8.19,24.87-1.3,4.39-1.48,10,.35,14.27,1.54,3.6,3.66,3.44,5.1-.13,3.09-7.61,7.04-15.48,11.99-22.06l-3.83-12.66c-3.02,11.99-4.34,24.15-3.57,36.51,.04,.61,.94,9.46,3.56,7.21,4.48-3.84,7.46-8.57,9.33-14.14l-3.61,.09c2.39,7.23,4.5,14.62,7.5,21.62,.94,2.2,2.09,1.85,2.99-.07,1.14-2.42,.52-6.02-.21-8.46-1.68-5.58-3.21-11.19-4.71-16.82-.33-1.22-.61-2.46-.98-3.67-.02-.07-.8-2.76-.58-1.37-.5-3.24-.05-6.43-.79-9.73l-4.8,8.64c2.06,9.02,5.53,17.61,10.62,25.36,4.06,6.19,10.12,15.64,18.09,15.9,4.36,.14,2.37-12.52,1.07-14.44-4.52-6.66-10.93-11.26-15.74-17.72-4.39-5.9-7.55-12.42-9.73-19.44-.99-3.2-3.08-2.55-4.1,.1-1.41,3.63-.77,8.31,.29,11.93,.55,1.88,1.64,2.71,2.4,4.08,1.23,2.21,1.49,5.82,2.09,8.23,1.33,5.41,2.55,10.82,3.73,16.26l3.51-6.13c-2.01-8.35-4.75-16.5-7.29-24.7-.84-2.71-2.73-2.36-3.61,.09-1.44,4.03-3.94,7.15-7.25,9.82l3.56,7.21c-.39-8.48,.41-16.79,2.61-25,.92-3.41,1.07-7.27-.03-10.66-.64-1.97-1.91-4.4-3.8-2-5.13,6.55-9.78,12.75-13.47,20.27l4.76,15.74c3-8.18,5.49-16.57,8.2-24.85,1.33-4.08,1.28-9.22-.04-13.28-.59-1.82-2.91-6.19-4.73-2.49-3.68,7.5-8.25,14.16-13.65,20.52l4.72,9.44c-.05-9.04,5.32-19,9.12-26.98,1.28-2.68,1.33-6.18,.61-9.03-.4-1.59-1.55-4.58-3.21-2.29-7.35,10.11-16.66,16.04-27.07,22.47l2.47,10.64c2.74-8.86,7.85-16.25,14.65-22.5l-.97-5.67c-4.21,9.17-14.33,15.39-22.97,19.79l2.83,12.55c1.84-5.53,4.66-10.71,7.98-15.5,2.6-3.75,9.05-13.37,14.55-10.34,3.62,2,5.45,7.7,8.23,10.72,3.64,3.95,8.13,6.7,12.62,9.56,2.06,1.31,1.79-5.55,1.58-6.29-1.71-6.15-4.99-12.32-11.07-14.97-1.13-.49-.7,2.91-.43,3.36h0Z"/><path class="cls-1" d="M811.41,239.88c-25.15,12.87-47.22,30.62-65.58,52.07-.34,.39,0,1.99,.21,1.76,18.6-21.14,40.91-38.73,65.54-52.33,.33-.18,.17-1.67-.17-1.5h0Z"/><path class="cls-1" d="M820.77,236.7c-16.48,13.31-30.1,29.54-40.12,48.22-.22,.42,.08,2.29,.4,1.73,10.44-18.34,23.83-34.76,39.91-48.45,.32-.27,.08-1.7-.18-1.5h0Z"/><path class="cls-1" d="M825.15,242.92c-2.67,4.24-5.36,8.48-8.04,12.71-.24,.38,.05,2.06,.35,1.57,2.67-4.32,5.32-8.64,8-12.95,.2-.32-.04-1.77-.31-1.34h0Z"/><path class="cls-1" d="M828.46,254.33c-4.99,4.6-8.58,10.25-10.65,16.72-.11,.36,.19,1.92,.43,1.15,2.01-6.34,5.53-11.86,10.4-16.38,.32-.3,.04-1.7-.18-1.5h0Z"/><path class="cls-1" d="M841.06,255.85c-3.24,4.19-6.49,8.39-9.73,12.58-.26,.34-.01,1.97,.34,1.49,3.23-4.25,6.46-8.49,9.69-12.74,.23-.3,.02-1.76-.31-1.34h0Z"/><path class="cls-1" d="M1022.21,409.63c.67-1.74,1.34-3.48,2-5.23,.05-.14,.07-1.41-.2-1.29l-12.16,5.07c-.45,.19-.15,1.73,.04,1.65l12.16-5.19-.2-1.29c-.66,1.75-1.33,3.51-1.99,5.26-.11,.3,.1,1.69,.36,1.03h0Z"/><path class="cls-1" d="M1021.57,396.89c-4.11,4.37-8.86,8.11-14.04,11.14-.4,.23-.17,2.06,.21,1.85,5.34-2.92,9.96-6.62,14.03-11.14,.35-.39-.01-2.05-.2-1.85h0Z"/><path class="cls-1" d="M655.97,447.03c-9.43,5.14-16.59,11.79-17.79,23.13-.32,3.06-.49,9.3,3.33,10.44,5.17,1.54,8.64-5.16,10.18-8.75,.26-.6-.07-3.83-.65-2.83-1.57,2.71-4.66,7.11-8.32,4.66-1.61-1.08-1.24-1.42-.72-3.35,.48-1.79,1.12-3.5,1.84-5.21,2.68-6.34,6.63-12.67,12.3-16.69,.29-.21,.16-1.59-.17-1.41h0Z"/><path class="cls-1" d="M656.2,455.19c-2.14-2.36-2.11-4.42-5.83-3.3-2.01,.6-3.46,2.19-4.72,3.78-3.5,4.4-5.01,10.36-5.36,15.89-.22,3.52-.15,17.3,6.36,14.61,2.68-1.11,5.32-3.55,7.78-5.12,3.2-2.04,6.25-4.4,8.82-7.19,.59-.64,1.02-5.65-.38-5.3-3.07,.77-6.02,1.76-9.17,2.16-1.65,.21-3.41-.25-4.95-.09-2.07-.82-2.63,.78-1.68,4.8,.09-.22,.16-.45,.22-.68,1.34-2.78,2.64-5.3,4.36-7.91,.85-1.29,1.71-2.58,2.47-3.93,1.24-2.19,1.29-4.08,2.23-6.44,.14-.35,.12-1-.15-1.3h0Z"/><path class="cls-1" d="M645.23,474.06c-2.3-.98-4.55-1.83-6.62-3.24-.66-.45-.98,2.72-.24,3.29,4.05,3.13,9.63,4.94,14.45,6.65,5.38,1.91,10.79,3.72,16.23,5.42,9.88,3.1,19.88,5.72,29.88,8.43,17.77,4.82,34.8,10.97,47.21,25.17l.14-6.52c-2.55,.13-4.91-.29-7.42-.7-.69-.11-.68,2.95-.07,3.24,2.56,1.21,5.01,2.37,7.34,3.98,1.44,1,1.39-5.22,.72-6.08-10.88-14.15-28.59-20.36-45.18-24.97-9.7-2.7-19.5-5.01-29.16-7.84-5.75-1.68-11.48-3.48-17.16-5.38-5.18-1.73-11.43-4.75-16.91-4.75l.08,3.4c2.32,.03,4.43,.75,6.67,1.34,.29,.08,.35-1.31,.03-1.44h0Z"/><path class="cls-1" d="M645.28,467.23c-.67-1.58-1.55-2.54-2.72-3.78-.33-.34-.57,.62-.59,.73-1.45,8.82,6.65,12.56,13.74,14.95,10.55,3.56,21.22,6.58,31.61,10.64,9.39,3.66,19.94,7.64,27.67,14.28,8.79,7.54,17.16,16.05,24.46,25.02,2.68,3.3,4.25-1.32,4.7-3.77,.73-4.02,.88-10.32-1.6-13.9-3.93,4.49-4.87,9.14-2.83,13.93,.26,1.44,1.14,4.31,3.04,3.4s1.73-5.75,1.74-7.34c.03-7.11-2.55-11.22-7.01-16.32-3.33-3.81-6.97-7.67-11.14-10.59s-8.61-4.31-12.89-6.62c-4.62-2.5-9.16-5.11-13.92-7.36-9.21-4.34-18.79-7.61-28.61-10.25-5.05-1.36-10.32-2.57-15.51-3.23-2.2-.28-11.8,.17-12.52-2.85l-.41,2.36,2.49,1.94c.21,.44,.41-.96,.3-1.23h0Z"/><path class="cls-1" d="M713.91,498.91c6.13,3.47,11.88,7.97,16.61,13.21,2.55,2.83,4.79,5.92,6.67,9.23,1.2,2.1,1.76,4.83,4.33,5.38,.11-.02,.19-.09,.24-.2,.75-1.05,.71-2.8-.4-3.59-.08-.06-.15-.06-.23,0l-.25,.3c-.34,.4-.19,2.67,.28,2.29l.24,.12,.23-2c-.32,.32-5.49-8.24-5.92-8.85-1.64-2.37-3.47-4.62-5.47-6.69-4.66-4.83-10-8.22-16.22-10.69-.38-.15-.43,1.32-.1,1.5h0Z"/><path class="cls-1" d="M796.31,498.16c-2.69-.58-4.19-1.7-4.85-4.65-.04-.17-.19-.82-.49-.77-6.47,1.12-12.32,4.23-17.91,7.54-1.05,.62-1.03,6.12,.42,5.97,7.09-.7,13.9-1.5,21.06-1.3s14.21,.72,21.32,.71c14.75-.03,28.33-2.8,42.08-8.09,.83-.32,.65-3.7-.09-3.57-13.77,2.53-28.19,3.61-42.18,4.03-13.69,.41-29.15-2.37-42.35,2.12l.42,5.97c4.15-3.44,8.74-6.15,13.6-8.47,2.16-1.03,2.81-1.35,4.65-.26,1.59,.94,2.38,1.91,4.34,2.21,.29,.04,.36-1.38-.04-1.46h0Z"/><path class="cls-1" d="M779.29,493.25c1.04,3.45,.25,.75,0,0-.7-2.13-1.53-3.82-2.74-5.75-2.39-3.82-3.97,2.76-4.17,4.34-.33,2.57-.7,10.2,2.25,11.9,5.77,3.34,14.29,2.78,20.8,2.96,6.95,.19,13.9,.05,20.84-.41,14.15-.95,28.19-3.27,41.9-6.92,13.04-3.48,26.76-7.65,38.37-14.66,13.12-7.92,25.2-18.58,36.38-29,.84-.78,.6-5.84-.58-5.19-6.02,3.33-12.2,6.53-18.6,9.07-5.98,2.37-12.4,3.94-18.51,6.02-12.88,4.37-25.18,9.87-38.38,13.36s-26.67,5.8-40.25,6.88c-6.65,.53-13.33,.75-20,.67-3.34-.04-6.67-.17-10-.36-3.62-.2-8.16-1.05-11.6,.17l2.93,13.26c.44-2.55,2.19-3.58,1.36-6.34h0Z"/><path class="cls-1" d="M949.09,442.07c-8.85,10.05-21.89,14.19-34.13,18.54-13.63,4.85-27.33,9.4-41.11,13.79-27.58,8.78-56.91,16.53-85.97,17.26-.74,.02-.71,3.13,.08,3.2,14.65,1.36,29.47,1.02,44.04-1.13s29.61-7.21,43.81-12.37,28.04-11.52,41.85-17.68c11.52-5.14,23.49-10.1,31.59-20.2,.24-.3-.02-1.57-.16-1.41h0Z"/></g><g><path class="cls-5" d="M430.52,403.11c-5.8-.84-10.92,3.78-11.97,9.32s2.36,10.88,7.31,13.28c12.52,6.05,25.47-9.63,19.78-21.45-1.56-3.25-4.95-5.02-8.42-5.45-2.02-.25-4.37-.12-6.29,.58-1.2,.44-2.2,1-3.14,1.83-1.01,.89-2.26,1.58-3.35,2.39-.26,.2-.34,1.6,.12,1.57,.88-.06,1.75-.17,2.63-.22,.76-.05,1.46,.13,2.22,.07,1.68-.12,3.3-.59,4.97-.75,2.75-.26,5.49,.21,7.85,1.7s3.61,3.54,3.37,6.31-1.24,5.53-2.88,7.83c-3.07,4.29-8.6,6.71-13.8,5.61s-10.19-5.52-10.25-11.08c-.07-6.09,5.76-11.83,11.85-11.49,.01,0,.02-.05,0-.06h0Z"/><path class="cls-5" d="M427.75,397.43c-1.1,.08-2.15-.04-3.25,.18s-2.1,.62-3.06,1.13c-1.98,1.06-3.69,2.62-5.04,4.41-2.81,3.73-4.18,8.53-4.3,13.16s.91,8.89,3.06,12.77c1.16,2.1,2.69,4.06,4.7,5.4s4.49,2,6.92,2.2c9.6,.8,20.99-3.13,25.78-11.99,2.41-4.45,2.81-9.54,1.58-14.42-.71-2.8-1.81-5.57-2.99-8.21s-2.54-4.81-4.62-6.63c-4.34-3.79-10.55-4.2-15.81-2.31-1.43,.52-2.85,1.14-4.15,1.93s-2.44,1.98-3.54,3.06c-2.47,2.45-4.68,5.13-7.1,7.63-.42,.44-.21,2.73,.3,2.31,1.76-1.42,3.53-2.67,5.52-3.76s4.06-1.8,6.06-2.78c3.96-1.95,8.62-2.94,12.98-1.89s7.12,4.4,9.53,7.78c2.6,3.65,4.17,8.08,3,12.53-2.51,9.57-11.79,14.61-21.03,15.67-4.48,.51-9.51,.4-13.2-2.53s-5.86-8.09-6.54-12.77c-.78-5.4,.33-11.17,3.3-15.78,1.29-2.01,2.96-3.83,4.97-5.14,1.85-1.21,4.66-2.44,6.91-1.8,.03,0,.04-.15,0-.15h0Z"/><path class="cls-5" d="M409.13,416.39c-.99-.1-1.99-.19-2.98-.11s-1.9,.19-2.84,.34c-1.92,.31-3.81,.8-5.64,1.44-.21,.07-.17,.52-.13,.68,.51,2.02,2.29,3.54,4.31,3.97,2.74,.58,5.54-.59,8.03-1.61,.09-.04,.05-.42-.03-.39-2.37,.78-4.92,1.62-7.44,1.13-1.96-.38-4.04-1.5-4.59-3.56l-.13,.68c3.69-1.38,7.55-1.96,11.45-2.34,.06,0,.06-.22,0-.23h0Z"/><path class="cls-5" d="M457.81,411.82c-.46,.02-1-.29-1.44-.45s-.84-.31-1.26-.46c-.84-.31-1.68-.62-2.52-.92l-.06,2.25c.72-.21,1.47-.37,2.19-.6,.76-.24,1.54-.43,2.34-.49,1.35-.09,2.61,.25,3.62,1.17,.2,.18,.37,.38,.52,.61,.13,.19,.27,.43,.26,.52,0-.06-.02-.21-.02-.25,0-.02,0-.26,0-.08s0-.04,0-.06c0,0-.07,.2,0,.06,.08-.19-.11,.28-.03,.1-.05,.12-.13,.24-.2,.36-.55,.84-1.46,1.23-2.31,1.7-1.13,.63-2.37,.94-3.64,1.14-.32,.05-.29,1.15,.03,1.2,2.22,.39,5.42,.76,6.68-1.62,.85-1.61,.77-3.81-.11-5.39-.7-1.27-2.1-2.13-3.53-2.31-1.01-.13-2.04,.03-3.02,.31-1.06,.31-1.99,.83-2.94,1.38-.42,.24-.42,2.28,.17,2.25,.85-.05,1.7-.11,2.55-.17l1.27-.09c.44-.03,1.03-.17,1.45-.03,.05,.02,.05-.15,0-.14h0Z"/><path class="cls-5" d="M316.59,397.02c-1.72,.98-3.61,1.56-5.28,2.67s-3.18,2.37-4.57,3.79c-1.3,1.33-2.46,2.8-3.46,4.37-.82,1.29-1.83,2.8-1.91,4.38-.17,3.26,3.54,3.96,6.04,4.31,4,.57,7.95,1.39,11.85,2.42,15.82,4.2,30.47,11.76,44.93,19.25s28.65,14.95,44.15,19.46c8.12,2.37,16.45,3.73,24.9,4.04,9.2,.34,18.39-.38,27.55-1.19,9.12-.8,18.27-1.54,27.43-1.5s17.66,.99,26.29,3.14c2.11,.53,4.26,.88,6.37,1.4,.21,.05,.24-1.17,.02-1.29-1.88-1.03-3.8-2.08-5.84-2.76s-4.14-1.25-6.28-1.65c-4.22-.8-8.52-1.27-12.81-1.42-8.79-.31-17.6,.48-26.33,1.4-17.23,1.81-34.89,3.87-52.08,.65-15.47-2.9-29.94-9.46-43.94-16.45-13.94-6.96-27.66-14.49-42.32-19.86-7.31-2.68-14.84-4.78-22.54-5.92-1.72-.25-3.56-.35-5.16-1.09-.36-.17-.72-.37-1.03-.62-.7-.59-.74-.93-.83-1.91-.1-1.11,.07-1.66,.56-2.62,.24-.46,.49-.9,.76-1.34,2.05-3.4,4.85-6.35,8.13-8.58,1.58-1.08,3.52-2.5,5.42-2.91,.05-.01,.02-.16-.01-.14h0Z"/><path class="cls-5" d="M422.09,464.81c-.17-.28,.35-1.12,.57-1.26,.2-.12,.33-.14,.55-.16,.57-.04,1.12,.37,1.56,.69,.69,.51,1.34,1.07,2.05,1.55,1.46,1,3.02,1.84,4.66,2.52,3.05,1.27,6.31,2,9.6,2.28,7.56,.64,14.97-1.17,21.98-3.86,4.12-1.58,8.12-3.44,12.11-5.3,.33-.15,.16-1.43-.03-1.36-2.57,.92-5.05,2.11-7.55,3.19-.12,.05-.07,.54,.01,.51,2.52-.76,5.1-1.42,7.57-2.34l-.09-1.33c-14.11,6.83-31.92,14.91-47.09,6.21-.9-.52-1.77-1.09-2.6-1.72-.64-.49-1.44-1.23-2.33-1.1-.84,.13-1.22,.83-1,1.58,.02,.06,.05-.07,.03-.12h0Z"/><path class="cls-5" d="M423.85,463.64c-3.81,5.46,.2,13.13,4.3,17.18,4.98,4.93,11.9,7.49,18.58,9.12,8.57,2.09,17.42,2.83,26.15,3.85,9.65,1.14,19.34,1.83,29.04,2.33,19.5,1.01,39.15,.1,58.65-.54,19.45-.64,38.9-1.81,58.37-1.62,9.68,.1,19.36,.44,29.01,1.18,9.82,.75,19.36,2.94,29.06,4.46,1.13,.18,2.27,.36,3.4,.55,1.3,.22,2.41-.49,3.6-.99,.74-.31,.6-3.15,.04-3.6-.91-.73-1.96-1.88-3.08-2.27s-2.47-.47-3.64-.68c-2.27-.41-4.51-.78-6.8-.98-4.7-.41-9.42-.59-14.13-.88-9.31-.57-18.62-1.12-27.96-1.28-18.87-.33-37.73,.29-56.58,1.09-18.9,.8-37.76,2.18-56.68,2.5-18.81,.32-37.59,.48-56.27-2.01-7.43-.99-14.97-2.18-21.87-5.26-6.23-2.78-12.39-7.59-14.11-14.53-.62-2.51-.46-5.14,1-7.33,.04-.07,0-.39-.07-.29h0Z"/><path class="cls-5" d="M651.65,451.68c.89-1.1,1.98-2.08,3-3.06,.05-.05,.03-.18,0-.23-2.32-4-6.66-.1-8.88,1.86-3.38,2.98-6.69,6.21-8.87,10.21-3.52,6.45-4.46,18.64,3.71,22.1,3.56,1.51,7.82,1.1,10.57-1.76,.2-.2,.08-1.33-.13-1.16-5.7,4.45-13.99-1.15-15.16-7.36-.69-3.68,.82-7.5,2.71-10.6,2.24-3.67,5.32-6.73,8.4-9.68,1.51-1.45,3.07-2.94,5.11-3.59,.33-.11,2.19-.61,2.33,.04,.08,.35-1.11,1.35-1.3,1.55-.49,.53-.95,1.08-1.5,1.54-.04,.03,0,.15,.02,.14h0Z"/><path class="cls-5" d="M634.03,479.79c1.1-1.04,.53-2.12-.29-3.2l-.14,1.27c.46,.49,.63,.73,1.26,.85,.46,.08,.92,.14,1.38,.21,1.05,.17,2.1,.34,3.15,.53,2.11,.38,4.06,.92,6.08,1.62,3.84,1.34,7.89,2.03,11.81,3.13,7.89,2.21,15.65,4.86,23.16,8.15,14.91,6.54,28.85,15.23,41.2,25.84,6.93,5.95,13.25,12.52,19.1,19.53,.17,.14,.33,.14,.49-.01,.99-1.38,1.97-2.76,3.05-4.08,.22-.27,.39-2.53-.16-2.41-.86,.19-2.51,.7-3.29,.17-.33-.22-.64-.78-.89-1.08-.38-.46-.77-.92-1.16-1.37-1.37-1.61-2.79-3.17-4.24-4.71-2.8-2.98-5.71-5.85-8.73-8.61-6.18-5.65-12.81-10.8-19.81-15.41-13.82-9.11-29.22-16.38-45.24-20.63-2.22-.59-4.46-1.13-6.7-1.62s-4.52-1.14-6.77-1.33-4.67,.02-7.01-.22c-1.11-.12-2.22-.22-3.34-.31-.59-.05-1.18-.09-1.77-.14-.84-.06-.95-.02-1.62,.58-.25,.22-.09,1.5,.15,1.33,.67-.57,.77,.03,.3,1.79-.05,.02,0,.16,0,.14h0Z"/><path class="cls-5" d="M739.31,535.3c.02-1.62,.37-2.95,.83-4.49s.92-3.13,1.62-4.62c1.53-3.28,3.78-6.22,6.59-8.5s6.34-4.28,10.07-4.97,7.63-.51,11.31,.52c1.13,.32,1.18-3.72,1.18-4,0,.77,.05-.43,0,.28,.05-.57,.12-1.15,.19-1.72-.08,.63,.05-.23,.08-.43,.04-.27,.17-.98,.17-.99,.23-1.04,.77-2.64,1.32-3.84,1.31-2.83,3.05-5.41,5.16-7.71,4.57-4.99,10.37-8.62,16.72-10.85,13.78-4.85,28.73-4.83,42.48-9.79,6.89-2.49,13.67-6.19,18.39-11.91,.94-1.14,.82-3.16,.67-4.53-.06-.57-.39-3.2-1.44-2.53-.94,.6-1.55,1.69-2.17,2.59-.66,.95-1.31,1.63-2.2,2.36-.43,.35-.26,2.98,.19,2.81,.36-.14,.89-.44,1.26-.5,.4-.06,.88,.09,1.28,.13,.95,.12,1.58,.15,2.41-.33l-.77-7.07c-9.6,10.94-24.03,14.05-37.77,16.4s-29.97,4.91-40.33,15.94c-5.63,5.99-8.49,13.54-8.21,21.76l1.18-4c-6.35-1.5-13.21-.28-18.96,2.71s-10.07,9.3-11.73,15.69c-1.03,3.97-1.05,8.19-.23,12.21,.26,1.25,.69-.05,.7-.61h0Z"/><path class="cls-5" d="M660.27,453.24c-1.34-.74,.27-2.08,.98-2.46,1-.54,2.26-.52,3.37-.63,2.28-.23,4.57-.43,6.86-.55,4.66-.24,9.34-.15,14,.25,9.37,.82,18.57,3.03,27.46,6.05,.05,.02,.08-.31,0-.34-15.33-6.32-33.1-8.21-49.47-5.61-1.37,.22-3.04,.6-3.65,2.05-.24,.57-.14,1.01,.44,1.29,.01,0,.02-.05,0-.06h0Z"/><path class="cls-5" d="M663.5,454.98c-.62-2.88,2.37-4.07,4.65-4.46,2.53-.44,4.98,.02,7.49,.39,6.47,.95,12.93,2.02,19.37,3.16,13.04,2.3,26.03,4.87,39.1,6.99,25.06,4.07,50.49,7.17,75.92,5.72,6.92-.39,13.84-1.13,20.67-2.33s13.78-3.1,20.62-4.9c1.05-.28,.51-4.3-.1-4.13-1,.27-1.85,.52-2.89,.43l-2.91-.24c-.34-.03-.36,1.67,.04,1.77l2.68,.68c1.13,.29,2.03,.81,3.02,1.41l.06-4.06c-6.04,2.37-12.42,3.89-18.79,5.16s-12.79,2.17-19.24,2.78c-12.98,1.21-26.03,1.11-39.03,.22s-26.8-2.76-40.11-4.85c-13.5-2.12-26.99-4.32-40.53-6.24-3.7-.52-7.41-1.03-11.12-1.49s-7.27-1.08-10.9-1.24c-2.99-.13-9.03,1.06-8.02,5.28,0,.04,.02-.01,.02-.03h0Z"/><path class="cls-5" d="M587.26,434.1c.61-2.94,.33-5.68-1.06-8.39-.27-.52-.44,.68-.43,.8,.38,8.46-.78,16.7-3.82,24.63-1.45,3.77-3.38,7.37-5.63,10.73-1.21,1.8-2.48,3.68-4.05,5.18-1.4,1.33-2.89,2.55-4.42,3.72s-1.09,4.68-.47,6.13c.26,.61,.65,1.25,1.38,.91s.85-1.94,.91-2.58c.02-.23,.61-.84,.82-1.11,.4-.5,.79-1,1.19-1.5,.73-.9,1.49-1.77,2.24-2.66,.25-.29,.11-2.03-.32-1.72-.74,.54-1.47,1.1-2.23,1.61s-1.91,1.66-2.8,.89l.5,6.68c2.33-2.94,4.41-6.09,6.47-9.22s3.79-6.32,5.27-9.69c2.85-6.48,4.74-13.29,5.47-20.34,.41-3.94,.49-7.97,.06-11.91l-.42,1.04c1.35,1.94,1.89,4.4,1.29,6.72-.01,.04,.02,.18,.04,.09h0Z"/><path class="cls-5" d="M610.74,435.04c-1.08-2.43-2.16-4.86-3.23-7.29-.36-.82-.62,.42-.61,.75,.26,6.79-.26,13.4-2.27,19.93s-5.05,12.28-9.27,17.49c-2.34,2.89-5.02,5.57-7.8,8.03l1.32,5.65c.41-.97,.66-1.99,1.15-2.93,.38-.74,.86-1.43,1.3-2.14,.85-1.36,1.75-2.69,2.67-4.01,.18-.27-.02-1.64-.25-1.41-.98,1.04-1.97,2.07-3.02,3.04-.46,.43-.9,.94-1.45,1.24s-1.14,.28-1.72,.54c-.41,.18-.63,1.27-.69,1.58-.16,.84-.16,1.78-.06,2.62,.05,.43,.61,3.19,1.55,2.34,5.69-5.17,9.83-11.56,13.15-18.45s5.33-14.01,6.12-21.45c.43-4.08,.54-8.31-.02-12.38l-.51,1.18c1.21,1.9,2.42,3.8,3.63,5.7,.01,.02,.01-.04,.01-.05h0Z"/><path class="cls-5" d="M623.43,434.11c.16-2.3-.29-4.38-1.59-6.33-.35-.53-.41,1.03-.37,1.19,1.99,8.48,1.05,17.11-3,24.85-1.8,3.44-4.02,6.67-6.54,9.62-1.24,1.46-2.52,2.89-3.86,4.27-1.45,1.5-3.05,2.85-4.49,4.35l1.66,6.74c.6-2.1,.98-4.26,2.12-6.14,.98-1.62,2.12-3.07,3.51-4.36,.4-.37,.27-2.55-.28-2.2-1.46,.94-2.91,2-4.13,3.25-1.1,1.11-2.38,1.74-3.23,3.13s-.81,3.53-.5,5.08c.11,.56,.8,3.25,1.87,2.3,2.81-2.5,5.31-5.69,7.54-8.7s4.15-6.07,5.78-9.34c3.39-6.8,5.6-14.3,5.77-21.92,.09-4.05-.35-8.18-1.78-11.98l-.25,1.45c1.24,1.25,1.9,2.94,1.72,4.71,0,.06,.04,.14,.05,.04h0Z"/><path class="cls-5" d="M636.18,434.01c-.41-.92-.94-1.87-1.08-2.88s-.69-.54-.64,.26c.4,7.2-.53,14.42-2.9,21.24-1.18,3.4-2.72,6.64-4.53,9.74-.88,1.51-1.83,2.97-2.86,4.39-1.11,1.54-2.44,2.91-3.53,4.45l.74-.29c-.15-.13-.3-.2-.44-.32l.06,.39c.13-.37,.33-.69,.6-.98,.23-.27,.09-1.67-.18-1.43-1.86,1.67-1.9,4.75-.87,6.89,.14,.28,.49,1.09,.95,.67,1.46-1.3,2.64-3.15,3.76-4.75s2.11-3.2,3.03-4.87c2.03-3.68,3.64-7.62,4.83-11.65,2.27-7.67,3.06-15.8,1.98-23.73l-.29,1.17c.79,.12,1.06,1.16,1.36,1.76,0,.02,.02-.03,.01-.05h0Z"/><path class="cls-5" d="M642.13,441.24c-.02,.23-.14,.34-.34,.32l.39-.89c.26,.09,.53,.19,.8,.28,.25,.03,.48,0,.71-.07,1.04-.18,2.07-.57,3.07-.9l5.66-1.9,5.9-1.98c.96-.32,1.92-.66,2.9-.95s1.98-.76,2.91-.29,1.74,1.14,2.49,1.8c.41,.36,.72,.75,1.25,.93,.49,.17,.75,.04,1.22,.05,1.32,.03,2.83,1.42,3.67,2.38,.97,1.11,1.83,2.48,2.48,3.8,.33,.66,.17,.35,.19,.37,.08-1.21,.06-1.56-.04-1.05l-.12,.3c-.61,.79-1.04,1.64-2.06,1.97-.72,.24-.54,2.25-.06,2.64,1.25,1.04,2.88,1.17,3.91-.28,1.6-2.25,1.05-6.18,.17-8.6-.7-1.93-1.9-3.75-3.16-5.36-.63-.8-1.27-1.59-1.99-2.32s-1.6-1.25-2.45-1.86c-1.04-.75-1.53-1.4-2.79-.64s-2.06,1.89-3.2,2.69c-.86,.61-2.34,.77-3.35,1.12-1.23,.43-2.45,.88-3.68,1.32l-7.31,2.62c-1.1,.39-2.2,.79-3.3,1.18-1.04,.37-2.34,.74-3.17,1.47-.06,.06-2.01,1.7-1.27,2.19,.37,.24,.78-.1,.59-.46-.02-.03-.07,.11-.02,.13h0Z"/><path class="cls-5" d="M780.18,508.05c-1.89-.27-3.79-1.07-5.62-1.62s-3.73-1.19-5.62-1.66l.04,1.51c16.31,2.33,32.77,2.84,49.2,1.67,16.34-1.16,32.66-3.85,48.45-8.22,7.85-2.17,15.86-4.32,23.45-7.29s15.07-6.34,22.34-10.07c15.53-7.97,30.02-17.75,44.15-27.96,3.55-2.56,7.01-5.28,10.63-7.74s7.41-4.93,11.02-7.52c7.57-5.44,15.11-10.91,22.6-16.48,.93-.69,1.95-1.37,2.78-2.18,1-.98,1.63-2.47,2.33-3.67,.29-.49,.53-3.24-.36-3.3s-1.9-.29-2.74,.14c-.99,.51-1.92,1.3-2.82,1.96-1.87,1.38-3.74,2.76-5.6,4.15-3.75,2.78-7.46,5.6-11.16,8.43-7.31,5.59-14.37,11.51-21.77,16.98-14.18,10.46-28.61,20.68-44.02,29.27-7.21,4.02-14.63,7.67-22.22,10.92s-15.18,6.58-23.02,9.06c-15.69,4.98-31.84,8.52-48.21,10.32s-32.68,1.92-48.97,.59c-2.03-.17-4.06-.36-6.09-.58-.35-.04-.37,1.42,.04,1.51,1.85,.39,3.74,.63,5.61,.94s3.84,.42,5.61,.98c.02,0,.04-.14,0-.15h0Z"/><path class="cls-5" d="M999.3,421.28c-1.89,.68-4.33-.19-5.82-1.38v.48c6.01,.44,12.09,.29,18.12,.33s12.09,.08,18.13,.14l18.13,.2c5.44,.06,10.88,.13,16.3-.35,5.97-.52,11.87-1.76,17.33-4.28,.73-.34,.68-2.97-.08-3.26-6.13-2.32-11.66-6.11-16.59-10.4-1.18-1.02-2.31-2.1-3.4-3.23-.52-.54-1.02-1.09-1.52-1.65-.27-.31-.54-.61-.8-.93-.14-.16-.63-1.03-.83-1.07-.22,1.59-.17,1.94,.16,1.06l.2-.43c.2-.43,.4-.87,.6-1.3,.4-.87,.8-1.73,1.19-2.6,.8-1.75,1.57-3.51,2.36-5.27,.38-.86,.41-1.91,.31-2.83-.03-.29-.28-1.99-.83-1.81-8.33,2.74-16.93,4.64-25.65,5.63-4.11,.47-8.28,.89-12.42,1-2.81,.07-6.62,.22-8.16-2.66-.27-.5-.41,1.14-.31,1.4,1.2,3.07,4.14,4.43,7.21,5,1.87,.34,3.81,.26,5.7,.26,2.31,0,4.61-.13,6.91-.33,9.11-.79,18.11-2.58,26.84-5.29l-.53-4.64c-.93,2.02-1.87,4.04-2.78,6.07s-2.07,3.96-2.37,6.1c-.34,2.41,.31,4.39,1.85,6.21,1.21,1.44,2.52,2.82,3.88,4.11,2.73,2.59,5.74,4.82,9.01,6.68,1.61,.92,3.33,1.55,5.03,2.27s3.32,1.36,5.03,1.92l-.21-3.2c-9.71,4.99-20.95,5.36-31.63,5.57-11.95,.23-23.9,.43-35.85,.6-6.77,.1-13.6-.05-20.35,.49-.12,0-.09,.43-.01,.48,.82,.5,1.67,.89,2.62,1.08,1.12,.22,2.12,.03,3.24-.02,.04,0,.02-.15,0-.15h0Z"/><path class="cls-5" d="M1029.55,390.19c-1.1-.84-2.19-1.68-3.29-2.52v.35c.34-.15,.93,.38,1.31,.34,.41-.05,1.04-.53,1.39-.71,1.06-.54,2.12-1.08,3.18-1.62,2.06-1.04,4.12-2.08,6.19-3.1,4.08-2.02,8.18-4,12.34-5.85,8.42-3.73,17.05-7.2,25.95-9.61,2.44-.66,4.89-1.24,7.37-1.72,1.31-.26,2.64-.45,3.96-.69,.53-.1,1.28-.16,1.77-.41,.21-.11,.21-.14,.36-.3l.61-.84c.38-.25,.79-.43,1.22-.53,.36-.11,.35-1.46-.04-1.49-.25-.02-.64-.02-.9-.1-.52-.18-.74-.71-1.17-.93-.35-.18-.92-.06-1.31-.03-1.18,.09-2.36,.35-3.52,.57-2.26,.43-4.51,.94-6.74,1.52-4.54,1.18-9,2.63-13.39,4.3-8.7,3.3-16.96,7.6-25.09,12.1-2.33,1.29-4.64,2.61-6.95,3.94-1.18,.68-2.37,1.37-3.55,2.05-.52,.3-1.06,.59-1.57,.92-.73,.46-.75,1.42-1.45,1.86-.08,.05-.06,.31,0,.35,1.1,.74,2.21,1.48,3.31,2.22,.01,0,.02-.05,0-.06h0Z"/><path class="cls-5" d="M1085.59,362.79c1.57-.78,2.56,1.82,3.08,2.84,.77,1.51,1.55,3.03,2.32,4.54,1.55,3.03,3.1,6.06,4.64,9.09,3,5.86,6.06,11.7,9.09,17.54,6.05,11.65,12.35,23.17,18.38,34.84,1.56,3.02,3.14,6.02,4.87,8.94,.9,1.52,1.84,3.02,2.84,4.49s2.22,2.84,3.16,4.34c.43,.69,1.01,.12,1.17-.44,.56-1.99,1.03-3.88,1.31-5.94,.31-2.28,.62-4.56,.78-6.85,.32-4.41,.37-8.84,.2-13.26-.16-4.16-.4-8.37-1.3-12.44-.79-3.59-2.15-8.02-5.14-10.38l.23,9.21c2.53-2.16,5.07-4.32,7.54-6.55,.84-.76,.95-2.2,.98-3.23,.03-1.15-.02-2.88-.8-3.83-2.23-2.71-2.78-6.4-2.2-9.73,.05-.26-.2-2.84-.75-1.9-3.4,5.8-1.55,12.94,1.62,18.33l.18-7.06c-2.63,1.54-5.2,3.16-7.78,4.78-1.2,.75-1.29,3.46-1.24,4.64,.07,1.62,.29,3.37,1.46,4.57,.79,.81,1.82,2,2.21,2.74,.17,.32,.29,.65,.42,.98,.22,.53,.03,.02,.12,.35,.1,.36,.16,.73,.26,1.09,.12,.45-.06-.52,.04,.24s.22,1.5,.3,2.26c.04,.38,.07,.75,.11,1.13-.12-1.16,.03,.42,.04,.53,.12,1.85,.22,3.71,.28,5.57s.07,3.72,.05,5.58-.05,3.48-.1,4.92c-.12,3.46-.36,7.85-.51,11.76l1.15-1.86c-1.1-.92-1.97-2.31-2.82-3.46-.92-1.25-1.81-2.52-2.66-3.82-1.68-2.53-3.23-5.15-4.74-7.78-3.2-5.57-6.23-11.23-9.3-16.88-6.32-11.63-12.67-23.24-19.2-34.76-1.83-3.23-3.66-6.46-5.49-9.69-.84-1.48-1.59-3.08-2.55-4.48-.51-.75-1.34-1.55-2.27-1.01-.01,0,0,.06,0,.06h0Z"/><path class="cls-5" d="M1138.3,386.47c.32-3.01,3.92-3.17,6.15-2.75,1.19,.23,2.39,.8,3.26,1.65,.41,.4,.66,.83,.92,1.33,.07,.14,.12,.69,.08,.06,.02,.28-.21,.76,0,.21-.02,.05-.03,.18-.05,.21-.69,.9-1.19,1.56-2.31,2.01s-2.41,.56-3.59,.4c-1.05-.14-2.15-.57-2.88-1.36-.17-.18-.29-.42-.38-.51-.17-.18-.26-1-.03,.27,.21,1.18,.09,.48,.08,.2-.03-1.11-.12-2.23-.15-3.34-.2-8.01,.42-15.71,2.24-23.66,1.85-8.06,4.86-15.82,8.88-23.04,2.21-3.96,4.66-7.85,7.54-11.36,1.58-1.93,3.25-3.76,4.76-5.75s3.21-3.46,4.88-5.14c1.33-1.34,1.05-4.44,.42-6.02-.86-2.18-1.76-4.34-2.57-6.54l-.7,5.76c1.85,.39,3.57-.83,4.42-2.41,1.31-2.41,1.32-5.9,.24-8.38l-.71,5.95c3.7,.98,7.45-.49,10.19-3.01,3.26-3,4.87-7.12,5.8-11.37,.98-4.47,1.08-9.08,1.58-13.62s1.25-8.71,2.26-12.98c2.06-8.76,5.15-17.28,9.07-25.37,.88-1.82,1.95-3.58,2.57-5.51s.9-3.87,.86-5.84c-.04-1.75-.26-3.87-1.33-5.34-.38-.52-.8-.9-1.4-1.13-1.09-.43-1.55,.07-2.4,.75-14.52,11.66-28.62,23.9-42.07,36.79-6.76,6.48-13.34,13.14-19.81,19.92-6.24,6.53-12.13,13.4-18.48,19.82-6.2,6.26-12.96,11.92-21.07,15.54-3.94,1.76-8.17,3.03-12.44,3.68-2.15,.32-4.33,.47-6.5,.4-1.76-.05-4.21,0-5.8-.84-.51-.27-.95-.73-1.4-1.07-.12-.09-.35-.27-.35-.27,.51-.02-.46,2.92,.19,2.92,.14,0,.19-.2,.31-.19,.88,.06,.94-3.41-.09-3.49-.5-.04-.7-.44-1.22-.05-.58,.44-.69,1.49-.74,2.13-.15,1.91,.3,4.66,1.71,6.06,1.29,1.28,3.11,1.36,4.83,1.57,2.09,.26,4.2,.31,6.3,.19,8.63-.52,16.82-4.16,23.83-9.09s13.59-11.38,19.62-17.92,12.32-13.7,18.74-20.32c12.96-13.35,26.51-26.25,40.83-38.14,3.53-2.93,7.1-5.82,10.71-8.67,.9-.71,1.81-1.42,2.71-2.13,.65-.5,1.58-1.66,2.46-1.25,.24,.11,.4,.31,.61,.45,.26,.18,0,.3,.03,.04,.01-.18-.19-1.08-.08-.47-.12-.64,.08-.24-.02-.05,.21-.42,0,.01-.04,.2-.02,.07-.05,.25-.15,.59-.08,.25-.2,.62-.28,.8-.36,.87-.87,1.68-1.3,2.52-1.06,2.06-2.06,4.14-2.99,6.26-1.83,4.17-3.45,8.42-4.81,12.76-2.79,8.89-4.6,18.06-5.48,27.33-.4,4.18-.55,8.52-2.15,12.46-1.38,3.4-4.19,6.37-7.67,7.64-1.71,.63-3.53,.73-5.31,.33-.74-.17-1.02,1.89-1.05,2.16-.14,1.17-.16,2.69,.34,3.79,.65,1.42,.85-3.5-.16-2.19-.24,.31-.46,.57-.78,.81-.7,.52-1.45,.65-2.3,.49-.74-.13-1,1.78-1.03,2.09-.15,1.2-.09,2.53,.34,3.66,.86,2.27,1.63,4.58,2.43,6.88l.42-6.02c-1.8,1.59-3.35,3.43-5.13,5.04s-3.31,3.61-4.75,5.62c-2.87,3.98-5.58,8.07-7.93,12.39-4.67,8.6-8.11,17.91-10.18,27.47-1.09,5.02-1.75,10.15-2.01,15.28-.13,2.52-.17,5.05-.11,7.57,.03,1.33,.11,2.65,.22,3.98s.13,2.84,.49,4.16c.85,3.15,3.82,4.66,6.93,4.04s5.49-2.88,5.82-6.08c.36-3.53-1.47-6.5-5.14-6.78-1.56-.12-3.15,.37-4.45,1.24s-1.92,1.99-2.38,3.51c-.02,.06,.04,.19,.05,.07h0Z"/><path class="cls-5" d="M1063.73,319.48c.48-.14,.94-.12,1.42-.19s.95-.31,1.43-.49c.83-.31,1.66-.59,2.5-.89,1.9-.67,3.81-1.3,5.77-1.79,3.87-.98,7.78-1.57,11.77-1.56,.76,0,.69-2.93,.07-3.17-6.95-2.68-14.27-5.21-19.58-10.7-5.98-6.18-7.07-14.84-5.61-23,.93-5.18,2.63-10.18,4.31-15.15,.23-.69,.45-3.08-.55-3.33-5.39-1.31-9.68,3.79-12.72,7.47-3.87,4.68-7.44,9.6-10.71,14.72l.83,2.88c1.8-5.35,1.69-11.29-.32-16.56-.06-.16-.34-.75-.61-.45-5.32,5.78-10.27,11.92-14.74,18.39-2.23,3.23-4.35,6.54-6.34,9.92-.97,1.66-1.92,3.34-2.83,5.03-.49,.91-.97,1.83-1.45,2.75-.18,.35-.34,.77-.57,1.09-.13,.23-.31,.41-.54,.55-.56,.25-.64,.72-.23,1.42l-.21,.26,.18-.03c.47-.07,.34-1.77-.04-1.72h-.19c-.13-.08-.2,0-.28,.11-.62,.79-.32,3.05,.72,3.4,.75,.25,1.19-.59,1.5-1.15,.58-1.03,1.09-2.11,1.65-3.16,2.13-3.99,4.43-7.89,6.88-11.69,4.98-7.72,10.64-14.98,16.9-21.7l-.61-.45c1.41,3.74,1.47,7.62,.18,11.4-.25,.73-.22,1.7,.01,2.43,.12,.39,.44,1.05,.82,.46,3.19-4.95,6.67-9.71,10.44-14.23,2.99-3.59,7.1-8.54,12.37-7.22l-.55-3.33c-3.26,9.43-6.36,19.2-5.02,29.31,.6,4.48,2.06,8.94,4.73,12.62,2.41,3.32,5.63,5.92,9.18,7.93,4,2.27,8.44,3.9,12.92,4.91l-.08-3.22c-4.03,.61-8.07,1.39-11.97,2.62-1.77,.56-3.51,1.2-5.22,1.91-.99,.41-1.94,.9-2.89,1.41-.37,.2-.88,.4-1.22,.66-.55,.42-.99,.98-1.54,1.4-.02,.02-.02,.15,.01,.14h0Z"/><path class="cls-5" d="M908.43,293.46c-3.07,.03-6.19,0-9.24,.36s-5.95,.84-8.89,1.46c-5.95,1.25-11.77,3.06-17.4,5.36-.36,.15-.36,1.57,.04,1.66,18.05,4.12,36.22,7.66,54.61,9.85s36.8,3.46,55.25,3.82c5.1,.1,10.19,.12,15.29,.07s10.54-.03,15.76-.46c.95-.08,.94-2.52,.95-3.06,.01-1,.08-3.13-.84-3.82-1.2-.91-2.37-.86-3.82-.75-.65,.05-.33,2.18-.14,2.51,1.01,1.73,1.98,3.75,3.57,5.01l.11-6.89c-4.6,.23-9.2,.71-13.81,.99s-9.21,.5-13.82,.65c-9.21,.31-18.43,.36-27.64,.16-18.42-.4-36.74-2.34-55.01-4.65-10.25-1.29-20.4-2.98-30.51-5.09l.04,1.66c5.61-2.46,11.43-4.44,17.39-5.86,2.94-.7,5.9-1.27,8.89-1.71s6.11-.99,9.22-1.22c.01,0,.01-.06,0-.06h0Z"/><path class="cls-5" d="M784.99,234.4c1.03-.7,1.41-1.76,1.25-2.97,0-.02-.02-.15-.07-.11-4.69,3.67-8.68,8.4-12.42,13s-7.54,9.81-10.92,14.98c-6.87,10.52-13.03,21.48-19.59,32.19-1.82,2.98-3.67,5.93-5.57,8.86-.99,1.52-1.98,3.03-3,4.52-.91,1.34-1.91,2.82-3.67,2.93l.5,2.67c.39-1.19,.65-2.35,1.31-3.42s1.64-1.99,2.69-2.75c.3-.22,.15-1.53-.17-1.32-1.86,1.18-4,3.18-4.76,5.29-.16,.44-.37,2.71,.5,2.67,2.79-.15,4.35-3.5,5.67-5.53,1.77-2.7,3.48-5.44,5.16-8.19,3.37-5.53,6.62-11.13,9.88-16.72,6.5-11.15,13.09-22.32,20.79-32.7,2.24-3.02,4.59-5.95,7.02-8.81,1.19-1.4,2.42-2.78,3.67-4.13,.58-.63,1.18-1.24,1.75-1.88,.13-.15,.7-1,.88-1.02,.21,.64,.14,1.2-.22,1.67-.19,.28-.43,.52-.71,.71-.01,0,0,.06,0,.06h0Z"/><path class="cls-5" d="M782.22,237.36c.05-1.25,.22-2.5,.36-3.74,.01-.11-.15-.95-.31-.61-3.19,6.77-5.92,13.76-8.05,20.93-1.1,3.69-2.09,7.41-2.98,11.15s-1.83,7.62-1.77,11.42c0,.08,.16,.79,.32,.46,.67-1.34,.93-2.86,1.26-4.32,.41-1.8,.84-3.59,1.25-5.39,.85-3.79,1.81-7.55,2.89-11.28,2.16-7.47,4.58-14.86,7.34-22.13l-.35-.38c0,1.27,.05,2.56-.01,3.84,0,.06,.05,.14,.05,.04h0Z"/><path class="cls-5" d="M774.74,259.14c.29,.52-.47,.64-.73,.62-1.02-.06-.6-1.39-.15-1.96,.53-.68,1.38-1.19,2.05-1.72,1.39-1.12,2.77-2.26,4.14-3.4,2.63-2.2,5.26-4.4,7.9-6.59,5.41-4.52,10.81-9.03,16.15-13.64,8.81-7.61,19.71-18.65,32.59-15.19,5.42,1.46,9.04,5.81,11.55,10.6,2.67,5.1,4.45,10.63,6.89,15.84,5.31,11.36,12.07,22.03,20.17,31.61,4.2,4.96,8.79,9.51,14.27,13.04,2.67,1.72,5.48,3.2,8.42,4.39,1.42,.57,2.86,1.05,4.3,1.56,.68,.24,1.52,.52,2.25,.52s1.56-.66,2.2-1.05c.69-.41,.4-2.4-.07-2.87-.65-.64-1.27-1.49-2.09-1.89-.62-.3-1.4-.5-2.07-.68-1.53-.42-3-.9-4.46-1.51-2.74-1.15-5.38-2.54-7.89-4.12-5.03-3.15-9.79-6.93-14.03-11.08-4.57-4.48-8.4-9.46-11.92-14.81-3.83-5.82-7.2-11.88-9.99-18.27-4.3-9.86-7.96-23.45-20.82-24.36-6.5-.46-12.58,2.38-17.72,6.11-5.78,4.19-10.99,9.23-16.35,13.93-6.55,5.75-12.94,11.7-19.4,17.55-1.63,1.47-3.24,2.96-4.84,4.46-.71,.67-1.98,1.59-1.96,2.71s1.82,1.23,1.65,.13c-.02-.11-.08,0-.05,.07h0Z"/><path class="cls-5" d="M314.29,400.73c-1.94-.03-2.03-2.84-1.05-4,.54-.64,1.16-.97,1.92-1.3,1.65-.73,3.42-1.22,5.13-1.78,3.55-1.17,7.1-2.33,10.66-3.46,6.86-2.19,13.75-4.31,20.66-6.36,13.91-4.14,27.93-7.95,42.03-11.39,28.24-6.89,56.65-13.1,85.19-18.64,28.62-5.55,57.39-10.33,86.27-14.34,29.04-4.04,58.14-7.31,87.27-10.55,13.75-1.53,27.58-2.63,41.29-4.54,11.74-1.63,23.41-4.16,33.58-10.54,1.15-.72,2.41-1.42,3.43-2.32,1.29-1.14,2.31-2.73,3.33-4.1,.51-.69,.62-5.43-.51-4.79-1.36,.77-2.83,1.33-4.09,2.25s-2.43,1.8-3.73,2.59c-2.66,1.61-5.49,2.95-8.39,4.06-5.85,2.25-12.01,3.71-18.17,4.78-13.77,2.4-27.85,3.4-41.72,5.06-29.94,3.58-59.85,7.85-89.63,12.58s-59.75,9.94-89.42,15.97-58.83,13.1-87.85,21.32c-14.57,4.12-29.07,8.47-43.51,13.03-7.28,2.3-14.54,4.67-21.77,7.12-3.16,1.07-6.49,1.97-9.55,3.31-1.52,.67-3.19,1.81-3.23,3.63-.03,1.29,.65,2.17,1.86,2.55,.03,0,.05-.15,0-.15h0Z"/><path class="cls-5" d="M425.65,462.5c.48-.27,.12-.9-.16-1.2-.87-.96-2.04-.69-2.94,.09-2.24,1.95-2.41,5.88-1.84,8.55,.74,3.46,3.27,6.14,5.93,8.3,3.06,2.49,6.33,4.62,9.9,6.29,3.96,1.85,8.12,3.21,12.35,4.3,.21,.05,.29-1.04-.03-1.14-7.29-2.35-14.06-6.39-20.16-10.97-2.73-2.05-5.86-4.47-6.93-7.86-.44-1.4-.21-2.87,.54-4.12,.37-.62,.86-1.22,1.38-1.72,.23-.22,.5-.48,.78-.64-.04,.02,1.48-.59,1.16,.07,0,0,0,.06,0,.05h0Z"/><path class="cls-5" d="M432.4,483.31c13.9,7.68,29.45,11.44,45.15,13.06,16.76,1.74,33.68,1.6,50.51,1.85,18.17,.27,36.33,.1,54.5-.11,9.04-.11,18.07-.29,27.11-.47,9.11-.18,18.27-.3,27.37-.77,18.15-.93,36.29-2.27,54.43-3.44,2.3-.15,4.6-.3,6.9-.45,.14,0,.13-.69-.02-.69-18.09-.11-36.17-.22-54.26-.38-18.16-.16-36.33,.54-54.49,.9s-36.15,.54-54.22,.91c-17.03,.35-34.13,.83-51.15,.1-15.67-.68-31.75-2.61-46.38-8.55-1.84-.75-3.65-1.56-5.43-2.43-.09-.05-.13,.39-.03,.44h0Z"/><path class="cls-5" d="M675.05,497.97c1.85-.11,3.85,.34,5.7,.54s3.65,.38,5.48,.53c3.72,.3,7.44,.61,11.17,.79,.06,0,.07-.33,0-.34-3.72-.41-7.44-.69-11.17-.97-1.82-.14-3.65-.25-5.47-.34s-3.89,.03-5.69-.35c-.02,0-.03,.15,0,.15h0Z"/><path class="cls-5" d="M768.85,509.13c-.18-.94-.16-2.07,.68-2.67,.44-.31,.93-.34,1.39-.5,1.31-.45,2.47-.94,3.86-1.16,3.42-.54,6.89,.18,10.3,.48,8.65,.79,17.34,.9,26.01,.61,17.3-.59,34.54-3,51.32-7.22s31.96-10.13,46.5-18.63c7.36-4.3,14.48-9,21.61-13.66,7.49-4.89,14.98-9.78,22.47-14.67s14.98-9.78,22.48-14.67c3.75-2.45,7.49-4.89,11.24-7.34,3.37-2.2,7.1-4.2,10.13-6.85,1.52-1.33,2.08-2.94,2.48-4.89,.01-.06,.02-.74-.12-.62-.45,.37-.99,.49-1.46,.81-.72,.47-1.32,1.3-2.02,1.84-1.53,1.19-3.2,2.19-4.82,3.25-3.82,2.48-7.63,4.97-11.45,7.45-7.7,5.01-15.41,10.03-23.11,15.04s-15.27,9.94-22.9,14.9-14.73,9.69-22.28,14.22c-7.5,4.5-15.25,8.55-23.35,11.88s-16.24,5.94-24.6,8.12c-17.06,4.45-34.61,7.02-52.22,7.69-8.82,.34-17.67,.16-26.48-.29-3.42-.18-6.88-.72-10.26,.07-1.18,.27-2.66,.74-3.59,1.55-.81,.71-1.41,1.95-1.76,2.97-.26,.77-.27,1.53-.08,2.31,0,.04,.02-.01,.02-.03h0Z"/><path class="cls-5" d="M1023.63,391.18c-.7,.87-1.54,1.6-2.53,2.13-.48,.25-1.64,.99-1.83,.14-.12-.52,.31-.39,.69-.61,.35-.2,.71-.66,1.07-.9,.54-.36,1.09-.71,1.63-1.07,1.16-.75,2.32-1.49,3.48-2.23,4.56-2.88,9.2-5.62,13.96-8.16,9.39-5,19.22-9.25,29.6-11.72,2.93-.7,5.88-1.28,8.87-1.68,1.42-.19,2.85-.35,4.29-.47,.72-.06,1.44-.11,2.16-.15,.36-.02,.72-.04,1.08-.05,.22,0,.43-.02,.65-.02,.47,.16,.6,.08,.38-.25l-.05-1.84c.07-.54-.36,.21-.57-.09l.18,1.15v-.29c.02-.07-.09-1.34-.35-1.05-.57,.64-.33,2.04,.04,2.73,.21,.39,.65,.85,1.13,.66,.56-.22,.63-1.22,.67-1.73,.07-.92,0-2.68-1.09-3.02-.69-.21-1.88,.06-2.6,.1-1.01,.06-2.01,.13-3.02,.23-6.87,.65-13.61,2.22-20.14,4.43-13.49,4.57-25.94,11.68-37.77,19.52-.85,.56-1.7,1.13-2.54,1.7-.58,.39-1.3,.8-1.65,1.44s-.37,1.47-.53,2.16c-.09,.39-.17,.77-.16,1.18,.03,.68,.3,1.48,1.13,1.36,.76-.11,1.76-1.11,2.29-1.62,.6-.58,1.09-1.22,1.54-1.92,0-.01,0-.06,0-.05h0Z"/><path class="cls-5" d="M305.01,406.93c-2.32,1.01-2.99,3.73-2.53,6.03,.61,3.06,3.19,4.97,6.14,5.57,2,.4,4.07,.29,6.06-.06,.06-.01,.04-.24,0-.23-3,.48-6.34,.43-9.04-1.15-2.45-1.43-3.77-4.27-3.06-7.07,.34-1.33,1.18-2.45,2.44-3.03,.01,0,0-.06,0-.06h0Z"/><path class="cls-5" d="M302.57,409.64c-.74,.9-1.29,1.67-1.37,2.88-.07,1.13,.23,2.27,.75,3.27,1.72,3.32,5.63,4.09,9.03,4.41,7.3,.69,14.37,1.88,21.39,4.07,14.17,4.42,27.34,11.63,40.33,18.67s25.47,14.03,39.19,18.78c6.69,2.32,13.48,3.76,20.46,4.88,8.15,1.3,16.17,.9,24.3-.35,4.66-.72,9.24-1.8,13.89-2.62s9.36-1.36,14.08-1.52c9.31-.33,18.69,.74,27.76,2.86,1.06,.25,2.03,.53,3.12,.53,.63,0,1.15,.03,1.75-.15s1.16-.4,1.73-.6,.36-2.2,.03-2.53c-.95-.96-1.84-1.97-3.01-2.66-1.1-.65-2.11-1.08-3.34-1.43-2.16-.62-4.35-1.17-6.55-1.64-4.44-.95-9.03-1.39-13.56-1.59-9.15-.41-18.12,.65-27.05,2.63s-16.82,4.52-25.59,5.18c-3.38,.25-6.86,.38-10.23-.02s-6.6-1-9.85-1.79c-13.64-3.29-26.37-9.72-38.73-16.2s-24.78-13.45-37.99-18.44c-6.51-2.46-13.21-4.46-20.07-5.63-3.39-.58-6.82-.93-10.26-1.08-3.69-.16-8.45-.18-10.64-3.73-1.01-1.64-1.55-4.83,.44-6.02,.04-.02,0-.15-.01-.14h0Z"/><path class="cls-5" d="M420.55,470.09c-.63-2.23-1.15-4.67-1.39-6.98-.03-.28-.25-.57-.31-.12-1.51,11.35,7.14,22.82,18.54,24.14,.16,.02,.19-.81-.02-.86-10.4-2.14-18.57-12.26-18.2-22.88l-.28,.24c.81,2.03,1.26,4.4,1.63,6.55,.02,.09,.05-.05,.03-.09h0Z"/><path class="cls-5" d="M317.76,398.47c.29-.25,.36-.52,.25-.89-.23-.85-1.12-.93-1.85-.69-1.31,.42-2.56,1.4-3.67,2.19s-2.25,1.72-3.3,2.67c-4.12,3.76-7.29,8.47-9.28,13.68-.04,.1-.07,.49,.06,.55,9.05,3.93,19.59,3.33,28.12-1.63,.06-.04,.03-.31-.03-.28-8.58,4.56-19.09,5.05-28.04,1.27l.06,.55c1.59-4.22,3.96-8.12,6.99-11.47,1.39-1.54,2.91-2.95,4.54-4.23,.87-.68,1.76-1.31,2.69-1.9,.44-.28,.88-.58,1.33-.84,.34-.18,.72-.41,1.11-.45,.17-.05,.33-.04,.49,.04,.61,.04,.78,.49,.51,1.37-.01,.01,0,.06,0,.06h0Z"/><path class="cls-5" d="M335.11,392.13h-1.95s-.03,.15,0,.15h1.95s.03-.15,0-.15h0Z"/><path class="cls-5" d="M325.43,394.36c-2.11,.72-4.52,.92-6.72,1.33l-6.72,1.26v.55c16.15-4.91,32.23-9.98,48.46-14.57s32.59-8.79,48.99-12.84c9.31-2.3,18.64-4.49,28-6.58,.11-.02,.07-.42,0-.4-16.51,3.47-32.93,7.28-49.27,11.49s-32.62,8.7-48.76,13.63c-9.16,2.8-18.36,5.58-27.41,8.72-.15,.05-.11,.57,.01,.55l6.71-1.53c2.18-.5,4.49-1.29,6.71-1.46,.05,0,.02-.16,0-.15h0Z"/><path class="cls-5" d="M336.92,415.13c1.76-.76,3.79-1.11,5.64-1.61,2.04-.55,4.08-1.09,6.12-1.63,3.93-1.03,7.86-2.04,11.8-3.03,7.88-1.98,15.78-3.87,23.7-5.71,15.84-3.68,31.75-7.02,47.73-10.01,8.95-1.68,17.92-3.25,26.9-4.71,.03,0,.02-.12,0-.11-32.09,5.19-63.98,11.68-95.49,19.69-4.41,1.12-8.82,2.27-13.22,3.45-2.2,.59-4.4,1.18-6.6,1.78s-4.39,1.48-6.59,1.75c-.04,0-.01,.15,0,.15h0Z"/><path class="cls-5" d="M472.25,415.42c1.9-6.73,9.74-9.05,15.81-10.25,8.64-1.71,17.42-2.93,26.14-4.12,17.59-2.39,35.29-3.97,53.02-4.72,35.74-1.52,71.42,.52,106.86,5.34,35.6,4.84,70.95,11.67,106.78,14.68,34.45,2.89,69.17,2.56,103.56-.94,34.38-3.5,68.49-10.12,101.63-19.94,4.13-1.22,8.24-2.5,12.33-3.81,.04-.01,.02-.18,0-.17-33.28,10.55-67.48,18.09-102.13,22.35-34.64,4.26-69.68,5.31-104.51,3.07-35.95-2.31-71.38-8.79-106.97-13.99-35.93-5.25-72.02-8.15-108.35-7.18-17.91,.47-35.81,1.78-53.6,3.93-8.98,1.08-17.94,2.38-26.85,3.92-6.37,1.1-13.6,1.82-19.06,5.62-2.26,1.57-3.71,3.56-4.69,6.1-.01,.04,.01,.18,.03,.11h0Z"/><path class="cls-5" d="M1015.19,380.65c-2.09,.81-4.47,1.16-6.65,1.67s-4.27,1-6.41,1.48c-4.36,.99-8.73,1.94-13.11,2.86-8.76,1.83-17.55,3.51-26.36,5.08-17.72,3.15-35.54,5.72-53.42,7.69-17.8,1.96-35.66,3.33-53.55,4.12-17.98,.79-35.98,.98-53.97,.57-17.91-.41-35.78-1.46-53.62-3-2.27-.2-4.54-.4-6.82-.62-.03,0-.04,.17,0,.17,17.82,1.81,35.7,2.94,53.6,3.5,17.99,.57,35.99,.53,53.97-.1,17.9-.63,35.77-1.84,53.59-3.65s35.74-4.22,53.49-7.22,35.21-6.63,52.63-10.84c2.17-.52,4.43-1.33,6.65-1.57,.04,0,.01-.15,0-.15h0Z"/><path class="cls-5" d="M770.34,312.13c-1.39,.61-3.06,.34-4.15-.76-.66-.67-.11-.76,.61-.91,.47-.1,.95-.19,1.42-.28,1.03-.2,2.06-.4,3.09-.59,4.2-.79,8.41-1.51,12.63-2.16,8.37-1.29,16.78-2.32,25.2-3.1,16.86-1.55,33.83-2,50.75-1.34,9.51,.37,18.99,1.18,28.46,2.12,.04,0,.05-.22,0-.23-15.98-2.05-32.2-2.71-48.3-2.53-15.96,.18-31.94,1.29-47.74,3.52-8.95,1.26-17.85,2.84-26.7,4.72-.03,0-.02,.09,0,.1,.98,1.64,2.98,2.27,4.73,1.49,.02,0,0-.06,0-.06h0Z"/><path class="cls-5" d="M670.67,360.64c1.42-.67,3.06-1.01,4.56-1.45s3.05-.91,4.58-1.35c2.75-.8,5.51-1.58,8.27-2.35,5.68-1.57,11.38-3.1,17.09-4.55,11.43-2.9,22.95-5.48,34.52-7.76,23.15-4.55,46.53-7.86,70.04-9.91,13.18-1.15,26.39-1.89,39.62-2.24,.02,0,.02-.12,0-.11-23.66,.61-47.28,2.5-70.74,5.65-23.38,3.14-46.58,7.54-69.49,13.18-6.42,1.58-12.83,3.24-19.19,5.05-3.22,.91-6.44,1.85-9.65,2.82-1.53,.46-3.06,.92-4.58,1.39-1.64,.5-3.34,1.24-5.03,1.5-.04,0-.02,.16,0,.14h0Z"/><path class="cls-5" d="M1024.64,315.33c17.57-.44,35.02,3.69,50.64,11.71,.04,.02,.06-.2,.01-.22-15.53-8.18-33.12-12.1-50.66-11.55-.01,0-.01,.06,0,.06h0Z"/><path class="cls-5" d="M718.76,449.93c20.73,1.29,41.51,1.58,62.26,.94s41.48-2.22,62.11-4.63c20.56-2.4,41.02-5.61,61.33-9.58,20.41-3.99,40.68-8.71,60.77-14.08,16.24-4.34,33.49-9.07,46.34-20.51,1.56-1.39,3.03-2.87,4.42-4.44,.03-.04,.01-.25-.02-.22-21.83,16.65-49.67,22.49-76.02,27.81-29.79,6.02-59.94,10.3-90.23,12.82-16.98,1.41-34,2.27-51.04,2.59-.04,0-.04,.17,0,.17,36.39-.6,72.74-3.79,108.69-9.49,17.42-2.76,34.78-6.03,51.96-10.06,15.29-3.58,30.58-8.07,44.41-15.67,3.39-1.86,6.67-3.91,9.81-6.15,.67-.48,1.45-1.32,2.11-1.68-.54,.29-1.16,1.25-1.59,1.7-1.3,1.32-2.66,2.56-4.09,3.74-5.74,4.73-12.37,8.26-19.23,11.07s-13.97,4.92-21.11,6.87c-8.55,2.34-17.13,4.53-25.74,6.62-34.67,8.39-69.85,14.81-105.3,18.78-35.4,3.96-71.09,5.46-106.69,4.01-4.38-.18-8.76-.4-13.13-.67-.01,0-.01,.06,0,.06h0Z"/><path class="cls-5" d="M438.54,448.3c19.76-6.5,40.69-9.32,61.47-8.27,10.55,.53,20.93,2.21,31.25,4.42,10.32,2.21,20.56,4.79,30.98,6.49,11.52,1.88,23.29,2.62,34.83,.49,.03,0,.02-.12,0-.11-20.83,3.78-41.63-1.82-61.88-6.27-10.32-2.27-20.68-4.2-31.23-4.96-10.37-.75-20.81-.53-31.14,.63-11.65,1.31-23.14,3.84-34.27,7.53-.02,0,0,.06,0,.06h0Z"/><path class="cls-5" d="M536.83,445.49c26.73,9.29,55.43,9.38,83.37,8.16,29.87-1.31,59.7-3.59,89.44-6.69,16.73-1.74,33.43-3.78,50.09-6.1,.03,0,.02-.12,0-.11-29.73,4.07-59.59,7.31-89.51,9.67-14.96,1.18-29.94,2.14-44.93,2.88-14.08,.69-28.21,1.17-42.3,.45-15.67-.8-31.31-3.15-46.17-8.31,0,0-.01,.05,0,.06h0Z"/><path class="cls-5" d="M373.99,386.91c-.82,.27-1.64-.36-2.08-1.01-.47-.69-.95-2.21-.22-2.81,.6-.49,1.09,.52,1.37,.88,1.2,1.51,2.32,3.08,3.35,4.71,2.18,3.42,3.99,7.07,5.41,10.87,2.95,7.89,4.2,16.33,3.54,24.74,0,.07,.05,.16,.06,.04,1.21-15.02-3.64-30.21-13.4-41.7h0c-.65,.67-.8,1.56-.53,2.45,.39,1.27,1.3,1.72,2.5,1.98,.04,0,.03-.16,0-.15h0Z"/><path class="cls-5" d="M380.07,375.51c10.13,9.74,16.43,23.18,17.66,37.16,.37,4.21,.27,8.44-.29,12.63,0,.03,.03,.13,.04,.06,1.93-14.08-1.59-28.7-9.5-40.49-2.29-3.41-4.94-6.56-7.91-9.4,0,0-.02,.04,0,.06h0Z"/><path class="cls-5" d="M390.39,376.55c2.88-2.39,5.71,8.15,6.25,9.81,1.47,4.46,2.67,9.01,3.58,13.62,1.85,9.29,2.55,18.78,2.1,28.24,0,.05,.04,.11,.04,.03,.72-15.34-1.59-30.78-6.84-45.22-.45-1.23-2.52-8.72-5.14-6.54-.01,.01,0,.06,0,.06h0Z"/><path class="cls-5" d="M332.24,397.95c-.57-.61-.58-.91-.62-1.79-.33-.72-.16-1.12,.52-1.21l.25,.36c.49,.45,.88,1.25,1.24,1.8,.81,1.21,1.6,2.44,2.35,3.68,1.58,2.61,3.03,5.31,4.33,8.07,2.49,5.26,4.43,10.76,5.89,16.39,.03,.11,.07-.04,.06-.09-2.75-11.02-7.69-21.45-14.37-30.63,0,0-.01,0-.02,0-.71,1.15-.59,2.48,.35,3.47,.01,.02,.02-.04,0-.05h0Z"/><path class="cls-5" d="M336.93,390.46c11.03,8.35,18.34,21.1,20.03,34.82,0,.08,.05,.02,.04-.03-1.6-13.76-8.99-26.54-20.06-34.84-.01,0-.02,.05,0,.06h0Z"/><path class="cls-5" d="M693.74,341.83c1.15-.74,2.47,.01,3.32,.85,1.16,1.14,1.81,2.65,2.38,4.14,1.11,2.89,2.16,5.81,3.13,8.76,2.08,6.24,3.85,12.58,5.34,18.99,2.93,12.64,4.68,25.56,5.21,38.52,.3,7.34,.2,14.69-.27,22.02,0,.05,.04,.11,.04,.03,1.74-26.58-1.63-53.47-10-78.77-1.19-3.61-2.39-7.28-3.91-10.77-.47-1.08-1.08-2.13-1.92-2.95-1.05-1.03-1.94-1.18-3.34-.97-.05,0-.02,.16,.01,.14h0Z"/><path class="cls-5" d="M702.3,340.5c-1-.61-1.84-3.15-.04-3.73,.29-.09,.64-.09,.94-.06,.77,.07,1.46,.45,2.06,.91,1.37,1.06,2.32,2.62,3.04,4.17,1.48,3.22,2.73,6.57,3.88,9.93,2.33,6.8,4.11,13.79,5.37,20.88,2.52,14.15,3.01,28.62,2.17,42.95-.48,8.17-1.4,16.3-2.65,24.39,0,.05,.04,.19,.06,.09,2.45-15.81,3.66-31.87,2.76-47.87-.88-15.69-3.8-31.35-9.65-45.97-1.24-3.1-2.63-7.95-6.12-9.3-.95-.37-2.43-.46-2.76,.69s.19,2.16,.92,3.06c.03,.04,.06-.11,.02-.13h0Z"/><path class="cls-5" d="M856.51,325.57c.34-1.24,1.51-1.01,2.4-.55,1.11,.56,1.81,1.5,2.37,2.58,1.2,2.32,2.33,4.68,3.42,7.05,2.18,4.75,4.15,9.59,5.9,14.51,3.56,9.95,6.25,20.21,8.08,30.61,3.67,20.81,3.85,42.24,.48,63.11-1.91,11.84-4.99,23.47-9.18,34.7-.02,.04,.02,.2,.05,.12,7.63-20.38,11.5-42.09,11.63-63.84,.13-21.75-3.46-43.53-10.73-64.03-2.07-5.84-4.44-11.58-7.1-17.18-.64-1.34-1.29-2.66-1.96-3.99-.48-.95-.9-1.97-1.66-2.74-.85-.86-3.21-2.32-3.73-.39,0,.01,0,.07,.02,.04h0Z"/><path class="cls-5" d="M873.38,330.88c1.02,8.09,5.76,14.96,9.35,22.08s6.73,15.14,8.98,23.1c4.56,16.11,6.04,33.07,4.4,49.73-.93,9.43-2.88,18.75-5.83,27.75,0,.03,.02,.14,.03,.08,5.14-15.55,7.25-32.02,6.35-48.36-.9-16.33-4.77-32.51-11.52-47.41-1.92-4.23-4.16-8.29-6.35-12.38-2.47-4.6-4.73-9.37-5.39-14.6,0-.04-.02,0-.02,.02h0Z"/><path class="cls-5" d="M901.12,328.86c1.17,1.6,2.04,3.53,2.95,5.29,1.01,1.93,1.97,3.87,2.89,5.84,1.73,3.68,3.3,7.43,4.73,11.24,2.9,7.74,5.16,15.72,6.81,23.82,3.34,16.37,4.07,33.27,2.11,49.86-1.11,9.38-3.09,18.64-5.92,27.65-.01,.04,.03,.2,.05,.12,4.99-15.86,7.32-32.51,7-49.13s-3.22-33.05-8.67-48.68c-1.56-4.49-3.33-8.9-5.31-13.23-.93-2.04-1.91-4.05-2.93-6.04-1.18-2.3-2.62-4.52-3.7-6.86-.03-.06-.06,.08-.03,.12h0Z"/><path class="cls-5" d="M923.56,334.53c-.06-.19,.39-1.06,.51-1.18,.21-.19,.53-.26,.81-.28,.41-.02,.81,.11,1.14,.36,.89,.67,1.25,1.82,1.64,2.82,.74,1.88,1.44,3.77,2.11,5.68,1.39,3.94,2.65,7.93,3.76,11.96,2.19,7.9,3.86,15.94,4.99,24.05,2.26,16.23,2.36,32.75,.29,49-1.19,9.31-3.1,18.53-5.69,27.55-.01,.04,.03,.2,.05,.12,4.91-16.78,7.3-34.25,7.24-51.73-.06-17.54-2.59-35.09-7.61-51.9-1.39-4.64-2.96-9.22-4.72-13.73-.5-1.29-1.11-3.88-2.77-4.19-1.01-.19-1.88,.55-1.8,1.54,0,.11,.07,0,.05-.07h0Z"/><path class="cls-5" d="M937.01,337.6c8.93,7.28,15.29,17.18,19.13,27.98,4.39,12.32,5.24,25.59,3.86,38.53-.84,7.82-2.48,15.54-4.61,23.1-.01,.04,.03,.2,.05,.12,6.97-24.59,8.52-52.44-5.43-74.98-3.48-5.62-7.84-10.66-13-14.81-.01,0-.02,.04,0,.06h0Z"/><path class="cls-5" d="M1185.82,250.29c-1.8,2.51-4.1,4.75-6.12,7.09s-3.84,4.49-5.74,6.75c-3.81,4.54-7.54,9.13-11.21,13.78-7.26,9.19-14.29,18.57-21.08,28.11s-13.4,19.04-19.45,28.96c-5.62,9.21-10.58,19.1-12.5,29.8s-.87,22.2,5.08,31.51c.09,.14,.15-.29,.08-.4-5.61-9.14-6.75-20.3-4.9-30.72,1.91-10.78,6.95-20.73,12.6-30s12.11-18.65,18.51-27.72c6.62-9.38,13.47-18.61,20.54-27.65,3.86-4.94,7.78-9.82,11.75-14.67,1.99-2.43,3.99-4.85,6.02-7.25,1.06-1.26,2.13-2.52,3.2-3.78s2.04-2.6,3.23-3.68c.03-.03,0-.17-.02-.13h0Z"/><path class="cls-5" d="M1080.18,336.71c-.99,.65-2,1.13-2.86,1.98-.74,.73-1.32,1.57-1.79,2.49,0,.01-.01,.06,0,.06,4.19,1.48,8.59,.7,12.66-.78,4.32-1.58,8.43-3.78,12.5-5.92,8.44-4.42,16.65-9.28,24.59-14.55,4.55-3.02,9-6.17,13.37-9.44,.04-.03,.01-.19-.02-.17-8.12,6.07-16.55,11.7-25.28,16.85-4.43,2.61-8.93,5.1-13.5,7.47s-9.09,4.89-13.97,6.33c-2.54,.75-5.22,1.15-7.85,.76-.59-.09-1.58-.14-1.98-.63-.36-.44-.33-.29-.03-.78,.17-.27,.35-.54,.55-.8,.87-1.12,2.21-2.39,3.63-2.74,.05-.01,.02-.16-.01-.14h0Z"/><path class="cls-5" d="M1162.15,271.71c1.14-1.35,2.47-2.52,3.57-3.91,1-1.26,1.9-2.59,2.73-3.97,0-.01,0-.11-.02-.09-8.27,4.97-14.24,12.71-20.11,20.19s-12.08,15.51-17.39,23.78c-9.93,15.47-17.2,33.07-16.12,51.77,.55,9.48,3.32,18.77,8.86,26.55,.06,.08,.09-.19,.05-.25-10.9-15.76-10.73-36.62-4.53-54.14,6.8-19.22,19.87-35.57,32.35-51.4,3.32-4.21,6.79-8.36,10.83-11.9,1.05-.92,2.15-1.8,3.28-2.63,.51-.37,1.03-.73,1.56-1.08,.59-.39,1.32-.99,.67,.06-1.49,2.4-3.39,5.24-5.73,6.89-.04,.03,0,.15,.02,.14h0Z"/></g></svg>