<?xml version="1.0" encoding="UTF-8"?><svg id="Layer_1" xmlns="http://www.w3.org/2000/svg" viewBox="0 0 1500 750"><defs><style>.cls-1{fill:#99807a;}.cls-2{fill:#3a7d62;}.cls-3{fill:#5c4d49;}.cls-4{fill:#231f20;}</style></defs><g><g><path class="cls-1" d="M964.76,311.24c6.66-2.54,.19-1.36,0,0h0Z"/><path class="cls-1" d="M1200,283.5s-43.19,2.99-122.34,74.63l-.5,2.2s-52.86-4.6-72.82-6.08c.09-.21,.05-.49-.17-.85-1.33-2.26-34.97-39.43-38.87-41.46-.43-.22-.58-.46-.55-.69-2.48,.94-6.77,2.4-13.89,4.56-11.12,3.37-20.99,8.37-29.29,13.09-13.63,2.93-27.25,5.87-40.87,8.85-.04,0-.08,.1-.12,.23-27.73-4.84-87.76-11.69-110.57-10.95,0,0-38.34-35.74-56.48-42.21-18.14-6.47-6.97-13.87-37.21-1.32-30.24,12.55-63.35,26.41-83,30.53-19.65,4.12-131.83,30.37-154.43,31.93-22.61,1.56-161.47,8.48-135.72,24.24,25.75,15.76,74.38,34.27,74.38,34.27l9.21,5.04s.6,4.1,8.54,5.18c7.93,1.09,79.86,11.29,79.86,11.29,13.77-1.64,40-.83,64.62,.75,4.51,13.21,13.88,28.93,33.39,37.69,4.28,1.92,7.71,3.48,10.45,4.75l7.67-34.35s3.73,11.94,8.2,.65c.27-.68,.58-1.35,.92-2.01,20.68,5.04,99.87,21.33,209.03-3.81,19.47-4.48,37.12-8.35,53.06-11.69,18.32,10.32,39.28,26.85,40.76,25.75,2.2-1.62,11.19-20.71,27.33-24.08l16.15-3.36s-26.85,.4-35.85-7.91c48.34-8.98,71.22-11.31,74.9-12.85,5.66-2.37,46.86-12.92,65.12-.61,16.38,11.04,54.38,40.24,64.93,47.01,.08,.7,.28,2.12,.46,2.03,.53-.25,.92-.6,1.27-.99,.31,.17,.59,.3,.76,.35,0,0-.01-.52,0-1.44,.03-.06,.06-.11,.08-.17,.41,1.43,1,2.78,1.88,3.88,.01,.02,.25-.95,.26-1.08,.1-.85,.1-1.73,.11-2.59,0-6.18,.48-12.4,1.28-18.57,.37-1.73,.73-3.46,1.09-5.19,.66-3.21,1.25-6.43,1.82-9.66,1.89-4.54,4.32-9,7.47-12.97,14.74-18.63,27.51-31.57,29.99-46.4l35.19,5.14s-4.41-55.56,2.52-70.78Zm-80.17,149.17c-.15-1.73-.2-3.46-.22-5.19,.14-.86,.29-1.74,.46-2.65-.07,1.28-.15,2.55-.19,3.83-.04,1.34-.05,2.67-.05,4.01Zm-.43-3.84c.02,2.15,.1,4.29,.24,6.43-.04,.02-.09,.04-.13,.06-.28-.13-.56-.26-.83-.41,.16-1.82,.39-3.88,.72-6.09Z"/><path class="cls-1" d="M583.63,469.18l-.34,1.53s21.91,8.46,.34-1.53Z"/></g><path class="cls-3" d="M515.43,393.3c2.28,8.16,9.37,10.22,14.81,15.91,6.16,6.45,9.01,15.01,12.54,23s7.45,15.32,13.06,21.92c2.56,3.02,5.38,5.81,8.45,8.31,2.33,1.89,6.3,5.85,9.44,5.69,.59-.16,.97-.53,1.17-1.13,1.67-3.54,2.19-7.56,.88-11.31-1.7-4.85-7.3-6.89-11.07-10.06-8.54-7.17-14.35-15.97-18.58-26.21-4.03-9.75-8.07-20.07-15.94-27.44-2.52-2.36-7.39-6.52-11.13-4.93-1.82,.77-4.25,4.07-3.64,6.25h0Z"/><path class="cls-3" d="M353.41,364.36c3.95-.07,8.16-2.12,11.92-3.31,3.51-1.12,7.01-2.31,10.39-3.77,.36-.16,.24-1.77-.12-1.69-4.05,.92-7.99,2.26-11.91,3.59-3.47,1.18-7.28,2-10.36,4-.21,.14-.23,1.18,.09,1.17h0Z"/><path class="cls-3" d="M358.14,362.28c-1.79,.41-3.11,1.06-4.51,2.29-.25,.22-.24,1.78,.12,1.64,8.22-3.05,16.95-5.52,24.95-9.05,.34-.15,.29-1.72-.12-1.69-8.41,.66-17.72,4.88-24.95,9.09l.2,1.61c1.39-1.37,2.36-2.01,4.34-2.63,.36-.11,.26-1.34-.03-1.27h0Z"/><path class="cls-3" d="M361.26,363.95c-1.54,.87-2.35,1.18-3.98,.9l.05,1.93c6.62-2.29,14.54-4.68,20.22-8.88,.28-.21,.33-1.83-.13-1.76-6.88,1-14.16,5.54-20.24,8.75-.41,.22-.25,2.02,.14,1.89,1.51-.49,2.73-.81,4.08-1.67,.27-.17,.15-1.32-.15-1.15h0Z"/><path class="cls-3" d="M362.07,364.01c1.83,2.21,1.66,5.57,3.69,7.64,1.52,1.55,3.96,2.1,5.38,.19,.21-.29,0-1.76-.27-1.5-1.84,1.85-4.65-.23-5.61-2.01s-1.26-4.37-3.04-5.42c-.32-.19-.28,.94-.15,1.1h0Z"/><path class="cls-3" d="M367.82,362.28c-.51-.51-1.01-1.02-1.51-1.54-.4-.41-.54,1.14-.54,1.19,.07,4.26,1.07,9.44,3.89,12.78s6.75,4.1,10.07,1.21c.32-.27,.37-2.41-.16-2.27-3.1,.81-6.82-.81-8.96-3.08-2.54-2.71-2.8-6.23-4.1-9.52l-.27,2.09c.52,.1,1.03,.2,1.54,.32,.34,.07,.16-1.04,.03-1.18h0Z"/><path class="cls-3" d="M372.13,372.8c2.91,11,19.08,.72,23.2-3.77,.29-.32,.04-1.8-.19-1.58-3.15,3.07-6.92,5.51-11.11,6.91-3.51,1.18-10.12,2.44-11.59-2.34-.18-.58-.37,.56-.32,.78h0Z"/><path class="cls-3" d="M387.64,359.68c-.93-.4-1.54-1.12-1.84-2.16l-.74,2.98c2.41,2.44,4.94,4.65,7.66,6.74,2.4,1.84,4,2.68,6.98,2.34,.74-.08,.39-2,.17-2.37-1.94-3.29-3.72-5.63-7.06-7.55-2.45-1.41-4.9-2.45-7.66-3.12-1.06-.26-.55,3.51-.09,3.96,.79,.79,1.53,.73,2.55,.43,.33-.1,.3-1.09,.03-1.25h0Z"/><path class="cls-3" d="M386.9,359.71c-.86-.25-1.68-.59-2.47-1.01-.56-.27-.44,1.61-.14,1.9,2.62,2.6,5.82,4.65,8.79,6.85,2.62,1.94,4.62,3.97,7.92,4.22,.52,.04,.3-1.66,.13-1.88-2.26-2.94-4.58-4.33-7.77-6.19-2.88-1.69-5.77-3.8-8.93-4.89l-.05,1.94c.84,0,1.67,.11,2.49,.32,.28,.05,.31-1.15,.03-1.25h0Z"/><path class="cls-3" d="M395.8,366.51c.15-1.1-.07-1.51-.67-1.21-.2,.07-.39,.15-.59,.23-.44,.24-.73,.59-1.06,.97-1.3,1.49-1.89,3.09-2.32,5-.15,.66-.14,1.44-.34,2.08,.11-.34-.4,.76-.45,.92-.25,.78-.31,1.62-.29,2.44,.01,.58,.08,1.16,.21,1.73,.62,2.38,.76,.86,.41-4.56-.56,.09-.65,1.17-.69,1.58-.12,1.62,.11,4.16,1.45,5.27,1.47,1.21,2.87,.56,3.73-1.05,1.33-2.47,2.13-5.47,2.37-8.24,.06-.69,.05-1.37-.02-2.06-.06-.81-.07-.91-.01-.31-.04-.67-.09-1.34-.29-1.99-.1-.33-.26-.99-.6-1.16-.3-.15-.96,.28-.85,.35h0Z"/><path class="cls-3" d="M304.52,369.83c6.29,4.8,14.48,7.62,21.97,9.96,8.09,2.53,16.37,4.42,24.68,6.05,17.62,3.44,35.46,5.91,53.21,8.59,18.16,2.74,36.37,5.19,54.67,6.77,9.12,.79,18.27,1.35,27.42,1.62,4.58,.13,9.15,.19,13.73,.17,3.38-.02,6.41,1.17,7.73-2.49,.42-1.18,.87-4.66-.33-5.6l-.23-.18c-.13-.13-.26-.12-.38,0-.46,.18-.81,.48-1.06,.92-.55,.66-.42,2.46-.03,3.18l.07,.13c.2,.37,.39,.03,.44-.23-.07,.37,.06,.6,.38,.69l.59-4.63c-2.61,1.31-7.32,.66-10.3,.71-4.57,.09-9.15,.09-13.72,.02-9.14-.13-18.28-.56-27.4-1.19-17.62-1.23-35.17-3.26-52.68-5.54-16.83-2.19-33.71-4.37-50.42-7.34-8.32-1.48-16.61-3.25-24.73-5.58s-15.59-5.93-23.57-7.57c-.3-.06-.24,1.38-.02,1.54h0Z"/><path class="cls-3" d="M332.69,385.66c14.72,4.85,29.78,8.3,44.88,11.71,15.04,3.4,30.08,6.87,45.2,9.85,14.77,2.91,29.56,5.61,44.53,7.21s31.18,1.2,46.7,2.55c2.68,.23,3.11-16.37-.4-16.45-10.8-.24-21.6-.65-32.39-1.07s-22.09,.31-33.26,.64c-21.78,.64-43.61-.33-65.3-2.31-.39-.04-.47,2.3,.06,2.39,21.83,3.9,43.7,7.55,65.53,11.43,10.86,1.93,21.35,3.98,32.41,4.53,11.11,.55,22.24,.75,33.36,.83l-.4-16.45c-14.81,2.99-30.56,2.31-45.62,1.89-15.15-.42-30.34-1.35-45.4-3.13-14.83-1.75-29.54-4.06-44.18-6.98-15.24-3.04-30.35-6.66-45.76-8.75-.38-.05-.42,1.94,.05,2.09h0Z"/><path class="cls-3" d="M365.16,392.13c5.63,3.24,13.24,3.85,19.59,4.93s13.02,1.97,19.53,2.87c14.01,1.94,28.04,3.67,42.1,5.21,13.73,1.5,27.48,2.82,41.24,4.07,6.88,.62,13.77,1.2,20.66,1.73,7.5,.58,14.19-.29,21.58-1.46,.66-.1,.53-3.13-.08-3.34-3.05-1.03-4.37-3.95-5.75-6.6l-.44,5.64c2.59,3.02,5.36,5.97,8.27,8.67l.08-8.01c-7.41-.45-14.41-2.49-21.71-3.75l.28,4.74c1.19-1.23,2.42-1.47,3.71-.72,.25,.08,.44-2.11,.02-2.35-1.32-.76-2.54-1.23-4.02-1.67-.47-.14-1.07,4.45,.12,4.83,7.32,2.37,14.71,3.98,21.79,7.07,.84,.37,1.16-7.01,.08-8.01-2.61-2.41-5.45-4.72-8.37-6.75-.64-.44-1.35,5.02-.26,5.94,1.93,1.63,4.25,2.57,6.17,4.24l.03-3.28c-7-1.7-13.49-3.31-20.73-3.58s-13.76-.56-20.64-.91c-13.76-.71-27.49-1.72-41.21-2.94s-26.77-2.58-40.13-4.15c-6.84-.8-13.66-1.73-20.5-2.55s-15.02-2.84-21.39-1.13c-.27,.07-.23,1.13-.02,1.25h0Z"/><path class="cls-3" d="M529.98,415.93c2.27-.77-3.23-.95-3.12-.94-2.57-.23-5.13-.45-7.71-.58-5.13-.26-10.27-.39-15.4-.58-9.4-.36-18.87-.48-28.21-1.76-9.13-1.25-17.77-4.92-26.89-6-9.08-1.07-18.14,1.89-27.06,3.09-.42,.06-.29,1.71-.02,1.91,4.28,3.26,8.93,3.88,14.22,3.34,5.69-.58,10.95-.81,16.63,.16s11.19,2.75,16.87,3.78,11.69,1.38,17.59,1.48c11.73,.19,23.57,.21,35.3-.22,2.64-.1,8.44,.91,9.29-2.62,.27-1.12,.06-2.06-.87-2.65-.03-.03-.06-.03-.09,0l-.58,.35c-.21,.13-.06,1.29,.07,1.25h0Z"/><path class="cls-3" d="M405.08,406.88h-2.39c-.23,0-.22,1.2,.03,1.2h2.39c.23,0,.22-1.2-.03-1.2h0Z"/><path class="cls-3" d="M398.61,407.17l.32,.18s.06,.03,.09,0l.32-.4c.21-.26,.19-1.05-.03-1.3-1.31-1.47-4.28,1.75-4.89,2.57-.28,.38-.44,2.13,.14,2.33,9.83,3.37,20.32,4.98,30.62,6.06,10.35,1.09,20.55,1.83,30.86,.02,.51-.09,.45-2.53-.06-2.62-10.26-1.71-20.59-1.82-30.92-2.74s-20.34-2.52-30.54-3.1l.22,2.21c1.07-1.67,2.37-3.13,3.9-4.39-.12-.04-.24,1.05-.01,1.18h0Z"/><path class="cls-3" d="M410.72,410.82c-4.03-2.08-9.33-4.43-11.85-8.36l-.5,3.78c1.96,4.03,1.8,3.76,5.99,4.97,3.11,.9,6.26,1.69,9.4,2.48,6.22,1.55,12.54,2.83,18.89,3.68,6.1,.81,11.86,1.27,17.96,.35,6.68-1.01,13.28-2.77,19.73-4.76,1-.31,.84-5.15-.13-5.16-11.8-.11-23.35-2.93-35.07-4.1s-23.16-3.43-34.79-4.28c-.36,.11-.6,.36-.7,.74l-1.37,2.31c-.28,.47-.47,4.18,.39,4.06,3.12-.45,9.17,4.16,12.03,5.46,.08,.04,.26-1.05,.01-1.18h0Z"/><path class="cls-3" d="M405.97,408.69c10.06,3.53,21.24,4.98,31.69,7,10.81,2.09,21.63,4.11,32.46,6.09s20.81,4.23,31.5,4.98c5.15,.36,10.34,.5,15.5,.5s12.05,1,16.71-.93c1.88-.78,1.4-5.62,1.31-7.05,0-.1-1.05-6.65-2.01-5.1-2.07,3.33-3.46,3.78-7.19,3.8-1.59,0-3.24-.35-4.82-.52-3.53-.38-7.05-.65-10.59-.88l-21.17-1.42c-.3-.02-.38,2.2,.06,2.24l20.22,2.17c6.8,.73,19.47-.66,23.4,5.93l.48-11.56c-4.6-1.47-11,.08-15.79,.46-5.14,.41-10.27,1.06-15.39,1.67-10.83,1.29-21.56,1.6-32.37,.01-10.5-1.54-20.98-3.21-31.47-4.77s-21.84-4.03-32.57-3.9c-.24,0-.21,1.19,.03,1.27h0Z"/><path class="cls-3" d="M513.32,408.41c2.51,2.15,5.36,4.07,8.19,5.78,1.13,.68,1.89,1.13,3.26,1.08,2.04-.07,2.48-1.42,4.26-2.03,1.19-.41,.51-4.45,.04-5.22-2.5-4.01-3.65-8-7.96-10.47-2.49-1.43-4.95-2.95-7.64-3.96-1.66-.62-2.15,13.08-.13,14.81h0Z"/><path class="cls-3" d="M525.62,415.41c-2.57-1.8-6.43-2.26-8.54-4.45-.14-.15-1.28,3.82-.19,4.69,5.18,4.15,14.55,9.31,20.97,5.94,.54-.28,.46-2.57,.02-2.94-3.13-2.6-6.26-3.53-10.15-4.55-3.62-.95-7.16-2.42-10.8-3.22l.27,4.76c2.38-2.48,6.04-.52,8.38,.93,.12,.08,.27-1,.05-1.15h0Z"/><path class="cls-3" d="M531.61,420.51c-18.87-1.77-37.79-2.87-56.65-4.69-8.8-.85-17.62-1.81-26.34-3.27s-17.34-4.41-26.13-6.25c-.27-.06-.28,1.53-.02,1.69,7.36,4.54,15.99,6.25,24.44,7.72,8.99,1.57,18.08,2.55,27.16,3.42,19.16,1.84,38.33,2.59,57.58,2.66,.19,0,.2-1.25-.03-1.27h0Z"/><path class="cls-3" d="M312.8,374.59c6.17,3.01,14.66,3.07,21.43,4.15,7.77,1.24,15.55,2.47,23.34,3.56,15.57,2.18,31.16,4.22,46.76,6.12,31.22,3.79,62.5,6.98,93.83,9.61,.22,.02,.27-1.39-.03-1.42-31.02-2.94-61.99-6.41-92.88-10.45-15.29-2-30.55-4.14-45.8-6.42-7.78-1.16-15.56-2.28-23.34-3.44-3.56-.53-7.12-1.07-10.69-1.61-3.98-.61-8.63-2-12.6-1.34-.25,.04-.21,1.15-.01,1.25h0Z"/><path class="cls-3" d="M445.73,391.81c11.84,1.54,23.69,2.26,35.63,2.25,5.79,0,11.58-.17,17.36-.49,2.88-.16,5.79-.55,8.66-.6,1.89-.03,4.56,1.02,6.23,.29,.35-.15,.17-1.7-.04-1.64-1.58,.43-.12-.33-2.35-.76-.82-.16-2.07,.17-2.91,.24-2.88,.24-5.77,.45-8.66,.62-6.1,.35-12.21,.52-18.32,.52-11.88,0-23.79-.66-35.62-1.68-.2-.02-.25,1.23,.03,1.27h0Z"/><path class="cls-3" d="M568.92,399.29c51.04,1.79,102.12-.58,153.07-3.66,50.81-3.07,101.6-6.54,152.39-9.85l42.88-2.79c14.6-.95,29.34-1.4,43.88-3.04,.3-.03,.25-1.57-.04-1.57-25.57,.44-51.27,3.14-76.79,4.79l-76.79,4.98c-50.69,3.29-101.38,6.99-152.15,8.78-28.81,1.01-57.66,1.33-86.49,.71-.35,0-.35,1.63,.04,1.64h0Z"/><path class="cls-3" d="M587.98,403.28l-7.92-1.4,.04,1.45c26.48,3.43,53.2,1.95,79.8,.98,27.62-1.01,55.25-2.06,82.86-3.19,54.31-2.23,108.67-4.39,162.91-7.98,30.28-2.01,60.52-4.98,90.36-10.65,1.03-.2,.62-4.95-.12-4.84-101.27,14.87-202.28,31.77-303.7,45.66-14.16,1.94-28.41,3.59-42.71,3.99-6.64,.19-13.36,.07-19.89-1.29-2.68-.56-5.96-2.52-8.6-2.64-2.77-.13-8.01,2.86-10.59,3.79-.94,.33-.85,4.57,.11,4.56,95.03-1.79,189.58-14.25,282.65-33.21,26.56-5.41,53.52-10.44,79.6-17.87l-.16-6.34-4.45,1.42c-1.32,.42-.69,6.09,.14,5.9l4.46-.99c1.42-.31,.79-6.52-.16-6.34-23.49,4.39-46.71,10.47-70.1,15.4s-46.95,9.63-70.53,13.86c-46.47,8.34-93.25,14.98-140.29,19.07-27.02,2.35-54.16,4-81.28,4.53l.11,4.56c2.82-1.01,5.9-2.54,8.83-3.16,2.55-.55,1.37-.32,3.45,.03,1.42,.24,2.88,.97,4.29,1.34,6.15,1.62,12.54,2,18.88,1.96,12.24-.08,24.5-1.33,36.64-2.83,25.49-3.16,50.87-7.32,76.27-11.12,50.41-7.54,100.8-15.17,151.2-22.79,28.63-4.33,57.34-8.23,85.95-12.65l-.12-4.84c-53.12,10.47-107.49,12.61-161.42,15.65-54.54,3.08-109.09,5.94-163.67,8.23-30.19,1.27-60.61,3.3-90.76,.35-.25-.02-.31,1.4,.04,1.45l7.92,1.15c.19,.03,.26-1.14-.03-1.2h0Z"/><path class="cls-3" d="M914.29,391.5c-40.37,8.14-80.91,15.47-121.56,22.07-40.16,6.52-80.57,13.04-121.15,16.22-11.17,.88-22.39,1.53-33.6,1.56-11.05,.03-23.07-.56-32.98-5.94l-.14,2.54c19.61,8.96,43.14,8.32,64.21,7.7,23.55-.69,47.07-2.29,70.52-4.54,47.01-4.51,93.72-11.09,140.1-20,12.72-2.44,25.41-5.1,38.08-7.79,6.34-1.34,12.67-2.71,19-4.09s13.87-2.13,19.25-6.01c1.25-.9,1.31-9.01-.55-9.07-1.98-.07-3.29,.65-4.82,1.79-.57,.43-.5,3.24,.21,3.52,2.25,.88,3.19,1.92,4.5,3.78l.1-9.09c-5.38-1.33-11.83,1.08-17.11,2.28-5.69,1.3-11.39,2.59-17.09,3.87-11.4,2.55-22.82,5.04-34.25,7.44-22.89,4.82-45.81,9.48-68.78,13.9-45.9,8.84-92.14,15.48-138.78,18.81-12.35,.88-24.74,1.65-37.12,1.19-12.93-.47-25-2.93-37.44-6.28-.35-.09-.58,2.4,.06,2.63,18.59,6.5,37.53,5.66,56.94,4.45,20.45-1.28,40.8-3.71,61.1-6.5,40.79-5.61,81.5-12.08,121.99-19.57,23.17-4.28,46.28-8.85,69.34-13.67,.26-.05,.13-1.23-.03-1.2h0Z"/><path class="cls-3" d="M619.24,416.12c-6.8-3.72-13.75-5.76-21.16-7.84-.91-.26-1.87,7.34,.19,7.55,79.59,7.96,159.74,5.47,239.31-1.59,22.38-1.99,44.73-4.31,67.08-6.63l-.41-16.8c-5.43,.8-11.01,1.32-16.22,3.05s-10.63,3.16-16.21,4.17c-11.14,2.02-22.24,2.9-33.54,3.56-22.08,1.29-44.32,.94-66.42,.36-43.84-1.16-87.58-4.7-131.41-6.09-12.23-.39-24.48-.61-36.71-.61-12.86,0-25.95,1.43-38.63-.67-.87-.14-1.21,5.15,.13,5.43,7.12,1.49,14.72,.72,21.97,.67,7.98-.05,15.96-.2,23.94-.33,15.3-.24,30.59-.52,45.89-.82,30.59-.6,61.18-1.32,91.77-2.15,61.15-1.67,122.37-3.3,183.47-6.49,34.57-1.81,69.09-4.21,103.6-6.87,.58-.05,.48-3.15-.08-3.14-122.35,3.01-244.61,8.49-366.97,11.02-17.29,.36-34.58,.68-51.87,.96-8.65,.14-17.29,.24-25.94,.4-8.49,.16-17.65-.63-25.91,1.33l.13,5.43c5.57-1.57,10.56-2.26,16.35-2.46,5.47-.19,10.94-.31,16.4-.38,11.27-.13,22.54-.01,33.81,.34,22.26,.69,44.51,1.97,66.72,3.6,43.68,3.21,87.44,7.05,131.27,7.05,12.18,0,24.35-.32,36.51-.22,6.43,.05,12.81,.02,19.21,.69s12.67-.03,19.15-1c3.53-.53,2.39-17.11-.41-16.8-79.41,8.8-159.03,18.98-239.03,19.49-22.37,.14-44.83-.34-67.13-2.01l.19,7.55c6.89-1.19,14.23-.21,20.96,1.47,.18,.04,.22-1.06,.02-1.18h0Z"/><path class="cls-3" d="M1046.96,385.3c-7.89-4.23-16.37-3.79-25.02-3.2-9.5,.65-19,1.34-28.49,2.07-19.32,1.48-38.62,3.38-57.89,5.33-38.89,3.93-77.72,8.49-116.46,13.69-21.84,2.93-43.61,6.34-65.34,10.03-.4,.07-.26,1.84,.04,1.79,77.14-10.48,154.3-20.42,231.87-27.15,10.8-.94,21.6-1.97,32.41-2.89,9.54-.81,19.89-2.52,28.91,1.51,.05,.02,.24-1.05-.03-1.2h0Z"/><path class="cls-3" d="M750.28,408.68l.79-3.18c.06-.26,.1-.65-.02-.9-.09-.18-.18-.26-.25,0l-.79,3.18c-.06,.26-.1,.65,.02,.9,.09,.18,.18,.26,.25,0h0Z"/><path class="cls-3" d="M753.43,401.12c78.82-11.18,158.16-18.24,237.76-20.07,22.59-.52,45.2-.63,67.8-.36,.3,0,.29-1.79-.04-1.79-79.59-.89-159.22,3.08-238.32,12.02-22.47,2.54-44.87,5.56-67.22,9.01-.27,.04-.18,1.22,.03,1.2h0Z"/><path class="cls-3" d="M1046.26,380.71c-62.06-3.44-124.43-1.31-186.48,1.35-61.49,2.63-122.94,6.31-184.48,7.9-34.45,.89-69.09,.85-103.26-4.21-.24-.04-.33,1.43,.04,1.49,30.29,4.97,60.92,5.63,91.55,5.12,31.02-.51,62.04-1.75,93.03-3.2,61.49-2.89,122.96-6.53,184.51-7.77,35.05-.7,70.08-.39,105.12,.58,.19,0,.21-1.26-.03-1.27h0Z"/><path class="cls-3" d="M558.62,396.59c-.65-.72-4.18-4.73-3.16-5.98-.07,.09,2.75,2.62,2.61,2.49,2.53,2.31,5.12,4.54,7.79,6.68,5.09,4.1,10.44,7.82,16.02,11.22,10.97,6.68,22.39,11.78,34.77,15.19,.27,.07,.45-1.9-.05-2.09-11.64-4.42-23.15-9.73-33.81-16.16-4.84-2.92-9.52-6.12-14.06-9.48-2.49-1.84-4.92-3.75-7.29-5.73-2.21-1.84-4.36-4.39-6.97-5.56-.37-.17-.33,1.01-.3,1.18,.53,3.73,1.74,6.66,4.39,9.41,.09,.09,.28-.92,.06-1.16h0Z"/><path class="cls-3" d="M584.85,400.52c-3.46-.84-8-1.32-10.83-3.63l-.23,4.2c3.85,3.27,8.79,3.92,13.63,4.97,5.1,1.1,10.22,2.07,15.37,2.93,9.6,1.61,19.24,2.9,28.9,4.02,19.58,2.26,39.3,3.83,59.01,4.23,19.63,.4,39.46,.32,59.05-1.21,20.48-1.6,39.82-7.2,59.55-12.57,.73-.2,.58-3.74-.09-3.74-19.98,.25-39.87-1.21-59.86-.2-19.69,.99-39.31,1.94-59.03,1.85-19.67-.08-39.32-.51-58.95-1.73-9.63-.6-19.25-1.39-28.86-2.23-5.11-.44-10.22-.88-15.33-1.29-4.56-.36-9.32-1.4-13.49,.77-.89,.47-.19,4.47,.27,4.27,3.24-1.38,7.48,.05,10.92,.55,.19,.03,.25-1.13-.03-1.2h0Z"/><path class="cls-3" d="M790.88,402.95c-37.36-1.86-74.76-2.87-112.14-.98-17.56,.89-35.13,1.95-52.72,1.36-8.53-.29-17.08-.93-25.54-2.11-8.7-1.22-18.47-2.41-26.65-5.65-.63-.25-.84,4.26-.07,4.85,12.22,9.3,25.52,17.12,39.54,23.4,6.43,2.88,13.02,5.47,19.74,7.61,7.75,2.46,14.47,2.98,22.53,2.31,.73-.06,.55-3.18-.08-3.44-7.31-2.99-14.18-5.59-21.84-7.59-6.85-1.79-13.61-3.81-20.24-6.3-13.98-5.24-27.08-12.32-39.38-20.75l-.07,4.85c9.02,2.34,17.38,5.43,26.67,6.85,8.46,1.29,16.99,1.94,25.54,2.16,17.58,.46,35.17-.67,52.71-1.77,37.32-2.34,74.62-4.39,112.03-3.59,.2,0,.21-1.18-.03-1.2h0Z"/><path class="cls-3" d="M608.63,417.25c-.46,1.07,14.32,3.12,15.9,3.32,5.88,.74,11.78,1.37,17.68,1.96,11.45,1.15,22.94,2.18,34.44,2.62,11.15,.43,22.31,.64,33.47,.63,9.89,0,22.25,1.02,30.25-5.62,.56-.46,.4-4.36-.25-4.18-4.51,1.27-9.85,.18-14.49,.07-5.58-.14-11.15,.08-16.73,.26-11.8,.38-23.61,.51-35.41,.4-11.46-.11-22.92-.04-34.38-.38-5.56-.16-11.11-.43-16.67-.64-4.16-.16-11.64-1.89-14.87,1.14-.27,.25-.15,1.04-.02,1.34,.35,.76,.15,.6,1.01,.7,.05-.01,.08-.04,.09-.09l.16-.44c.09-.24-.08-1.39-.2-1.09h0Z"/><path class="cls-3" d="M704.86,422.12c-32.29,4.9-65.27,7.53-97.93,5.96-.36-.02-.29,1.65-.02,1.82,7.77,4.87,16.69,4.36,25.53,4.4,9.58,.04,19.16,.01,28.74-.08,19.47-.18,38.97-.47,58.42-1.56,19.37-1.08,38.77-2.77,57.98-5.47s38.97-7.8,57.92-14.42c.52-.18,.32-2.53-.06-2.47-18.65,3.14-37.46,5.54-56.18,8.25s-38.55,4.9-57.94,6.33-38.25,2.6-57.41,3.41c-9.57,.4-19.15,.74-28.72,1.14-8.89,.37-19.83,2.56-28.19-1.32l-.02,1.82c32.87,.27,65.44-1.31,97.92-6.61,.26-.04,.15-1.22-.03-1.2h0Z"/><path class="cls-3" d="M836.94,414.68c-38.92,5.96-77.54,13.42-116.76,17.33-19.34,1.93-38.76,3.08-58.2,3.06-9.7-.01-19.41-.32-29.09-.96-4.84-.32-9.69-.67-14.53-1.08-2.59-.22-12.32,.13-12.35-4.21,0-.65-.38-1.18-.45-.21-.26,3.3,1.4,5.25,4.55,6.48s6.93,1.26,10.28,1.64c4.19,.47,8.38,.82,12.59,1.08,16.46,1.01,32.98,1.04,49.45,.32,33.16-1.45,66.08-5.94,98.77-11.56,18.66-3.21,37.27-6.66,55.77-10.69,.25-.05,.14-1.22-.03-1.2h0Z"/><path class="cls-3" d="M624.52,432.03c61.62,10.89,125.25,11.37,186.74-.7,17.38-3.41,36.04-6.52,51.64-15.22,.4-.22,.33-2.74-.16-2.71-15.31,.8-30.29,6.23-45.25,9.41-15.23,3.24-30.59,5.93-46.04,7.94-31.17,4.04-62.68,5.78-94.1,4.63-17.69-.65-35.33-2.22-52.87-4.62-.19-.03-.26,1.22,.03,1.27h0Z"/><path class="cls-3" d="M859.62,412.89c-13.39,7.12-29.55,7.97-44.39,9.2-16.26,1.36-32.6,2.05-48.9,2.58s-33.31,1.06-49.94,2.1c-15.59,.98-31.16,2.34-46.79,2.56-17.53,.24-35.12-.22-52.19-4.53-.28-.07-.47,2.06,.06,2.24,30.49,10.69,61.87,7.94,93.47,5.66,32.82-2.36,65.85-2.39,98.54-6.34,16.71-2.02,35.43-3.52,50.22-12.23,.26-.16,0-1.29-.08-1.25h0Z"/><path class="cls-3" d="M566.57,380.4c29.97,5.38,60.74,3.72,91.01,2.67,31.04-1.08,62.06-2.65,93.08-4.27,61.98-3.23,123.99-6.64,186.07-6.51,34.92,.07,69.88,1.22,104.7,4,.21,.02,.26-1.54-.04-1.57-123.88-10.95-248.12,1.31-371.98,6.2-34.2,1.35-68.9,3.42-102.88-1.78-.2-.03-.28,1.21,.03,1.27h0Z"/><path class="cls-3" d="M1024.73,383.65c-15.06,1.75-30.18,1.79-45.25,.12l.04,1.71c27.16-1.6,54.38-.77,81.39,2.47l-.06-2.25c-24.98-1.11-50.02-.29-74.94,1.61-12.15,.93-24.29,2.11-36.4,3.42-12.59,1.36-25.94,1.86-38.27,4.73-.89,.21-.42,3.83,.09,3.7,4.3-1.07,8.82-1.54,13.21-2.18,.38-.05,.3-1.81-.04-1.79-4.39,.18-8.87,.54-13.25,.27l.09,3.7c12.35-.29,25.02-3.11,37.29-4.64,12.44-1.56,24.89-2.98,37.37-4.13,24.92-2.31,49.9-3.44,74.92-2.43,.38,.02,.42-2.2-.06-2.25-27.03-3.13-54.23-3.78-81.38-1.93-.32,.02-.3,1.67,.04,1.71,15.09,1.52,30.2,1.34,45.24-.56,.25-.03,.16-1.29-.03-1.27h0Z"/><path class="cls-3" d="M1020.8,388.19c.22,0,.21-1.2-.03-1.2-.22,0-.21,1.2,.03,1.2h0Z"/><path class="cls-3" d="M1035.89,387.06c-72.24,3.52-144.3,13.12-215.48,25.65-.43,.08-.27,1.99,.05,1.94,71.58-10.9,143.48-18.67,215.47-26.33,.25-.03,.2-1.28-.03-1.27h0Z"/><path class="cls-3" d="M860.82,415.16l.23,.43c.16,.3,.52-1.1,.14-1.46l-.26-.25c-.14-.13-.37,1.22-.08,1.52l.25,.27c.11,.12,.57-1.44,.02-1.56l-.25-.06c-.24-.06-.12,1.01-.06,1.12h0Z"/><path class="cls-3" d="M1047.02,384.61l-2.79-1.06c-.53-.32-1.02,2.56-.06,2.81,7.09,1.85,15.16,2.58,22.13-.09,.48-.18,.51-2.07-.05-2.09-7.45-.35-14.69,.28-22.15-.67l.07,2.86c.89-.58,1.85-.77,2.88-.55,.28,0,.28-1.14-.03-1.2h0Z"/><path class="cls-3" d="M1047.79,384.01c-2.21-.71-3.89-2.15-5.06-4.31l-1.17,4.87c.75,2.52,.87,4.01,3.32,4.98,2.81,1.11,6.23,1.37,9.21,1.74,5.68,.71,11.5,1.4,17.23,.97,11.81-.9,24.34-4.72,34.88-10.08,11.14-5.67,21.77-12.56,31.69-20.14,8.91-6.81,19.32-12.56,21.22-24.46l-2.29-4.12c-.72,4.53-5.37,7.13-8.88,9.3-3.79,2.34-7.62,4.64-11.45,6.93-7.35,4.38-14.86,8.46-22.43,12.44-16.44,8.64-33.25,16.53-50.31,23.85-.47,.2-.2,1.82,.04,1.72,17.41-7,34.57-14.63,51.47-22.79,8.39-4.05,16.72-8.23,25.04-12.42,6.89-3.46,14.45-6.42,18.41-13.42,.65-1.14,.2-8.73-1.16-7.53-2.89,2.53-5.28,5.54-8.23,8.02-4.09,3.44-8.51,6.51-12.86,9.61-9,6.41-17.93,12.93-27.77,18.02-19.37,10.03-42.9,17.33-64.34,9.6-.73-.26-1.34-.17-1.71,.69l-.98,2.26c-.32,.73-.28,6.76,.96,5.61,1.76-1.05,3.45-1.08,5.09-.09,.32,.12,.38-1.1,.09-1.23h0Z"/><path class="cls-3" d="M1052.59,388.54c-2.91-.79-5.96-1.42-8.72-2.67-.68-.31-.45,1.91-.27,2.2,4.38,6.71,16.28,5.79,23.32,5.22,.9-.07,.78-3.45-.09-3.66-4.21-1.01-8.32-2.36-12.54-3.31-3.41-.77-7.84-2.89-10.64-.43l.17,2.35c2.97,.1,5.9,.96,8.81,1.58,.23,.05,.32-1.18-.03-1.27h0Z"/><path class="cls-3" d="M990.58,350.8c1.13,.06,2.25,.11,3.38,.17,.31,.02,.3-1.46-.04-1.57-4.8-1.47-10.25-1.43-15.25-1.34s-10.56,.28-15.13,2.31c-.34,.15-.35,1.7,.04,1.72,4.98,.23,10.14-1.09,15.15-1.35s10.17,.49,15.22,.23l-.04-1.57c-1.12,.07-2.25,.13-3.37,.2-.25,.01-.23,1.18,.03,1.2h0Z"/><path class="cls-3" d="M994.55,349.94c-5-2.53-11.02-2.26-16.5-2.91-2.92-.34-5.86-.64-8.72-1.36-4.07-1.01-4.43-.21-6.21,3.48l.92,6.33c2.89-4.11,10.26-3.61,14.78-4.06s8.9-.85,13.34-1.35c.4-.04,.35-1.86-.05-1.87-4.46-.07-8.91-.07-13.36,.27-3.88,.29-11.8,3.07-14.87,.31-1.05-.94-1.05,5.53-.61,6.37,1.65,3.14,1.84,4.25,5.42,3.64,3.17-.54,6.44-1.57,9.6-2.26,5.56-1.21,11.64-2.01,16.3-5.45,.18-.13,.18-1.05-.03-1.15h0Z"/><path class="cls-3" d="M982.6,340.17c-.65-1.1-1.11-1.49-2.33-2.04-.48-.22-.47,1.86-.12,2.17,5.5,4.87,12.26,8.43,19.2,10.76,.23,.08,.37-1.58,.03-1.76-6.57-3.44-12.72-7.42-19.1-11.17l-.03,2.2c1.05-.21,1.8,.1,2.25,.93,.11,.13,.22-.9,.11-1.1h0Z"/><path class="cls-3" d="M727.73,329.05c.13-3.91-2.43-3.79-5.76-4.35-.54-.09-.45,1.71-.43,1.88l.17,1.35c.16,1.32,.53,5.03,2.42,5.24,6,.66,12.55-1.09,18.53-1.78s12.89-.1,16.84-5.18c1.35-1.74,1.43-6.67-.2-8.29-4.46-4.39-11.35-2.09-17-1.49-6.02,.63-12.76,.4-18.51,2.32-1.82,.61-2.08,3.8-2.16,5.35l-.09,1.7,.65,1.8c2.02-1.53,3.73-1.09,5.13,1.3,0,.52,.4,.91,.43,.16h0Z"/><path class="cls-3" d="M789.29,407.02c-3.44-.16-6.82-.61-10.15-1.5-5.12-1.38-7.44-3.2-10.86-7l-.1,6.95c7.28,1.17,15.31-.08,22.66-.49l22.64-1.24,45.27-2.47c1.8-.1,1.72-9.09-.23-9.34-1.8-.23-3.59-.51-5.39-.79-2.13-.33-1.13,9.17-.48,10.21,1.41,2.27,2.81,3.03,5.24,1.47,1.88-1.21,.18-9.38-.84-8.62-4.54,3.38-7.46,3.35-12.78,3.53-3.75,.13-7.51,.32-11.26,.56-7.5,.48-14.97,1.35-22.43,2.3-14.97,1.91-29.81,4.59-44.66,7.18-29.66,5.19-59.54,10.4-89.6,12.63-.58,.04-.52,2.89,.07,2.91,30.36,1.09,59.95-3.94,89.67-9.53,14.86-2.79,29.73-5.61,44.64-8.15,7.14-1.21,14.3-2.25,21.47-3.31,3.74-.55,7.48-1.05,11.23-1.49,1.87-.22,3.75-.45,5.63-.59,3.27-.25,5.46,.8,8.22,2.58l.1-8.8c-1.54-.63-2.77-1.41-3.83-2.7l-.12,10.75c1.78-.29,3.56-.58,5.35-.81l-.23-9.34-45.26,2.86-21.65,1.37c-7.67,.48-16.17,.16-23.6,2.24-1.48,.42-1.27,7.08,.17,7.07,1.67,0,2.89-.37,4.53-.15,1.87,.24,3.8,1.26,5.64,1.72,3.62,.89,7.24,1.24,10.96,1.26,.24,0,.24-1.26-.03-1.27h0Z"/><path class="cls-3" d="M705.8,427.94c37.99,1.07,76.06-2.9,113.41-9.58,.91-.16,.81-4.3-.11-4.43-10.2-1.53-21.13,1.42-30.88,4.17-10.49,2.96-20.87,6.16-31.62,8.11-20.79,3.77-43.08,4.33-63.77-.26-.36-.08-.56,2.49,.07,2.69,21,6.83,42.22,7.39,63.85,3.42,10.44-1.92,20.53-5,30.72-7.93s20.8-4.72,31.75-5.77l-.11-4.43c-37.39,7.62-75.26,11.09-113.34,12.67-.26,.01-.24,1.34,.03,1.35h0Z"/><path class="cls-3" d="M609.13,424.66c11.77-2.47,23.73,1.7,35.36,3.24,6.11,.81,12.26,1.28,18.43,1.4,6.52,.12,15.18-1.95,21.01,.97,1.78,.89,2.48-8.97,.52-10.33-3.86-2.69-9.45-3.37-14.02-4.42s-9.03-1.9-13.58-2.71c-9.68-1.72-19.3-3.7-28.91-5.8l.41,16.82c16.01,1.8,32.15,2.03,48.19,.52,8.01-.76,15.98-1.92,23.87-3.51s15.24-3.12,22.11-7.1c2.5-1.45,2.08-12.97-.89-13.84-6.06-1.79-13.95,.67-20.15,.86-8.21,.25-16.49-.19-24.69-.52s-16.48-.84-24.71-1.26c-8.52-.44-17.43-.3-25.73-2.35-.48-.12-.87,3.46,.09,3.68,14.63,3.5,31.01,1.16,45.86,.37l48.91-2.61c32.3-1.72,64.54-4.14,96.8-6.46,.56-.04,.47-2.78-.07-2.77-32.3,1.15-64.59,2.19-96.86,3.94l-47.91,2.59c-7.73,.42-15.46,.89-23.2,1.14s-15.77-.2-23.63,.11l.09,3.68c7.81-1.01,15.87,.05,23.71,.59,8.24,.56,16.48,1.09,24.72,1.68,7.9,.57,15.9,1.11,23.75,2.13,7.37,.96,17.95,1.42,22.29,8.36l.72-13.17c-7.97,.21-15.66,2.92-23.46,4.42-7.6,1.46-15.27,2.55-22.98,3.25-15.74,1.43-31.56,1.19-47.27-.56-2.97-.33-3.58,15.95,.41,16.82,9.24,2.01,18.58,3.58,27.92,5.03,4.51,.7,9.01,1.21,13.55,1.65,4.28,.42,10.54,1.54,14.49-.05l-.64-10.49c-5.46,4.12-14.3,3.27-20.9,3.28-6.15,0-12.3-.31-18.42-.96-11.69-1.23-24.02-5.53-35.29-.38-.58,.26-.41,2.87,.07,2.77h0Z"/><path class="cls-3" d="M557.95,389.51c.4,1.23,4.38,2.38,5.47,2.87,2.19,.99,4.4,1.91,6.64,2.78,3.71,1.44,7.48,2.78,11.35,3.74,9,2.22,18.09,2.77,27.32,2.92,.69,.01,.71-3.28-.08-3.36-9-.98-17.87-3.21-26.54-5.8-8.58-2.56-16.61-6.36-25.06-9.16-.61-.2-.81,1.88-.82,2.07-.1,1.83-.43,4.13,1.53,5,.33,.15,.21-.94,.17-1.07h0Z"/><path class="cls-3" d="M565.81,391.01c88.17-3.4,176.07-11.34,264.38-11.37,25.08,0,50.16,.57,75.2,1.83,.27,.01,.29-1.48-.04-1.49-88.41-4.93-176.97,.19-265.25,5.28-24.78,1.43-49.58,2.64-74.33,4.55-.27,.02-.23,1.21,.03,1.2h0Z"/><path class="cls-3" d="M626.27,382.98c-4.95-2.44-10.37-1.63-14.31,2.25-.23,.23-.31,1.61,.11,1.69,21.35,4,43.61,2.04,65.19,1.56,22.55-.5,45.09-1.04,67.63-1.64,44.74-1.19,89.53-2.49,134.23-4.76,25.51-1.29,51.01-2.72,76.51-4.23,.41-.02,.34-2.18-.05-2.17-89.82,3.01-179.62,6.62-269.44,9.67-24.39,.83-49.89,3.67-74.11-.16l.11,1.69c3.8-3.9,9.11-4.96,14.07-2.68,.24,.11,.34-1.1,.07-1.23h0Z"/><path class="cls-3" d="M1191.04,289.56c1.48,.17,2.35,.11,3.77-.35,.54-.17,.47-2.08-.06-2.24-10.88-3.3-24.16,4.17-33.55,9.07-11.94,6.24-22.97,14.2-33.92,22-.5,.35-.23,2.68,.28,2.37,10.71-6.37,21.53-12.52,32.56-18.33,5.54-2.91,11.08-5.78,16.94-8.01s11.86-3,17.75-4.87l-.15-2.2c-1.09,.84-2.31,1.29-3.65,1.35-.28,.04-.26,1.16,.03,1.2h0Z"/><path class="cls-3" d="M1196.57,288.73c.71-.06,1.41-.08,2.12-.06,.78,0,.68-3.5-.08-3.44-7.41,.57-15.19,4.28-21.84,7.46-7.34,3.51-15.23,7.48-21,13.3-.25,.25-.38,2.21,.14,2.13,7.19-1.14,14.61-5.62,21.17-8.65,7.21-3.33,15.19-6.36,21.76-10.86l-.37-3.31c-.64,.75-1.3,1.48-1.98,2.19-.14,.15-.25,1.26,.08,1.25h0Z"/><path class="cls-3" d="M1194.9,295.78c-3.88-3.5-11.63,.35-15.85,2.27-5.87,2.66-12.04,5.68-15.41,11.39-.43,.73-.12,5.48,.75,4.71,1.5-1.33,2.8-2.03,4.57-2.95,.53-.27,.31-2.92-.19-2.79-1.75,.46-2.92,.81-4.73,.66l.13,5.17c4.97,.25,10.76-5.32,15.03-7.57,5.13-2.71,12.67-4.65,15.78-9.66,.17-.27,.17-1-.08-1.23h0Z"/><path class="cls-3" d="M1193.5,301.38c-6.71,1.27-12.26,3.96-17.84,7.9-.79,.56-.56,5.03,.32,4.76,5.48-1.71,10.94-3.53,16.47-5.06l-.17-2.61c-4.58,2.42-9.29,4.24-14.04,6.25-1.32,.56-1.23,6.28,.15,6.12,4.93-.56,9.47-2.35,13.96-4.42l-.35-3.09c-4.82,2.77-9.29,5.95-13.41,9.69-.8,.72-1.15,5.93,.41,5.9,3.88-.09,7.11-1.25,10.51-3.01l-.96-5.7c-1.74,2.61-3.56,4.9-5.89,6.98-1.16,1.04-.93,4.15-.35,5.41,1.61,3.52,4.5,2.9,7.57,1.19l-1-5.74c-1.35,2.8-3.27,4.97-5.26,7.33-.75,.88-1.51,7.27,.5,7.07,2.73-.27,4.5-1.54,6.38-3.52l-.51-4.4c-2.27,1.94-4.8,3.64-7.86,3.77-2.21,.09-1.99,9.53,.23,9.48,3.15-.07,5.93-1.4,8.68-2.87l-.31-4.47c-2.28,.66-4.41,1.51-6.53,2.56-1.31,.65-1.1,7.35,.49,7.19,3.2-.34,6.37-.66,9.56-1.07l-.27-3.86c-2.68,2.2-4.12,2.23-7.22,1.43-2.03-.52-3.02-.93-5.15-.22l1.66,7.56c.31-1.61,.72-3.2,1.21-4.77,.31-.74-.11-5.23-1.12-3.79-.51,.48-1.09,.81-1.76,1-2.3,.87-2.42,9.85,.25,10.1,2.48,.23,3.38-.54,5.22-2.29,2.32-2.21,4.32-3.92,7.34-5.23,.84-.37,.58-3.58-.27-3.86-3.21-1.07-6.31-1.8-9.65-2.32l.49,7.19c1.89-1.9,3.84-3.57,6.03-5.13,.76-.54,.83-4.31-.31-4.47-2.99-.43-5.7-1.41-8.6-2.14l.99,8.82c1.94-3.22,4.34-5.98,7.38-8.18,.72-.52,.64-4.73-.31-4.49-2.11,.54-4.09,.64-6.25,.8l.5,7.07c2.34-2.69,3.95-5.76,5.69-8.85,.48-.86,.85-6.55-1-5.74-1.41,.62-4.53,1.75-5.63-.23l-.12,5.9c2.27-2.5,4.44-5.03,6.36-7.81,.59-.85,.69-6.5-.96-5.7-3.2,1.55-6.48,2.34-9.94,3.02l.41,5.9c3.92-4.64,8.21-8.76,13.09-12.38,.48-.35,.49-3.28-.21-3.15-4.61,.85-9.24,1.03-13.89,1.46l.41,6c4.63-3.33,9.05-6.72,13.92-9.7,.44-.27,.35-2.71-.17-2.61-5.48,1.11-11.02,1.94-16.53,2.87l.32,4.76c5.32-4.41,11.3-8.08,17.4-11.32,.23-.12,.17-1.3-.09-1.25h0Z"/><path class="cls-3" d="M1197.1,288.89c-3.85,.88-5.06,4.16-6.09,7.66-1.67,5.63-2.6,11.52-3.02,17.37-.48,6.65-.32,13.34,.32,19.97,.46,4.76,.81,11.42,4.58,14.89,1.46,1.34,1.82-4.05,1.83-4.26-.11,5.53,.04-1.01,.04-1.83-.01-2.56-.19-5.09-.49-7.63-.58-4.89-1.35-9.68-1.42-14.62-.15-10.2,.94-20.9,4.43-30.53,.05-.12,.1-1.08-.17-1.02h0Z"/><path class="cls-3" d="M1192.23,344.9c-.82,1.97-1,4.08-.7,6.18l.59-1.02c-.46-1-.78-1.93-.82-3.05-.03-.92-.54-.91-.56,.01-.02,1.54,.24,3.1,.9,4.5,.46,.99,.6-.97,.54-1.26-.3-1.52-.1-3.02,.39-4.48,.09-.26-.09-1.49-.34-.89h0Z"/><path class="cls-2" d="M375.38,363.91c.18,2.09,.96,4.06,2.24,5.72,.08,.1,.26,.26,.4,.12,2.24-2.19,1.9-5.89,.45-8.42-.39-.67-.86-.02-1.05,.37-1.47,3.12-.89,7.65,1.47,10.19,.63,.68,1.19,.27,1.47-.52,.46-1.31,.48-2.67,.85-4,.33-1.19,.68-2.37,1.06-3.54,.18-.56,.26-1.42-.05-1.96-.26-.46-.55-.51-.78,.02-.44,.98-.89,1.95-1.4,2.89-.46,.85-1.13,1.36-1.51,2.29l1.17-.82c-.37-.29-.76-.66-.94-1.11-.13-.31-.18,.13-.03-.35l-1.05,.37c.63,.78,.51,1.22-.12,2.18l.39-.14c-1.17-.96-1.86-2.17-2.09-3.67-.13-.87-.53-.18-.49,.35h0Z"/><path class="cls-2" d="M379.24,362.87c-1.22-1.08-3.16-.37-3.63,1.1-.77,2.38,.47,4.97,1.28,7.16,.48,1.29,1.01,2.01,2.48,2,1.12,0,1.88-.51,2.52-1.39,2.06-2.84,1.95-8.2,.17-11.12-1.42-2.32-3.91-2.2-5.44,0-2.02,2.91-1.87,7.8-.39,10.88,.54,1.13,1.46,2.35,2.88,2.26,.98-.06,1.91-.97,2.61-1.58,2.12-1.84,3.46-4.01,4.35-6.67,.21-.64,.27-1.53,0-2.16-.14-.32-.51-1-.86-.4-.67,1.16-1.77,2.97-3.33,2.82-.77-.07-1.35-.68-1.88-1.19-.26-.25-.49-.51-.75-.76-2.46-2.41,6.48,2.88-.49,6.36,.28-.14,.8-.33,1.02-.49-.07,.04-.39-6.73-.48-6.63-.24,.27-.37,.66-.57,.96-.31,.46-.97,1.45-1.62,.89-.52-.44,1.23-1.29,1.98-.82,.34,.21,.35-1.01,.11-1.23h0Z"/><path class="cls-2" d="M378.1,361.53c-.85-.64-1.99-2.14-3.18-1.83-.75,.2-1.26,.95-1.59,1.59-1.15,2.23-.74,5.49,.42,7.61,1.35,2.45,3.86,3.62,6.42,2.24,2.7-1.45,4.24-4.49,5.07-7.3,.18-.61-.25-3.58-.88-2.09-1.31,3.11-4.26,3.51-7.22,2.79-.48-.12-1.2-.35-1.65-.6-.29-.14-.55-.33-.76-.58-.23-.44-.25-.31-.06,.39,.24-.47,.4-1.58,.92-1.84,.75-.38,1.77,.51,2.39,.85,.35,.19,.37-1.03,.11-1.23h0Z"/><path class="cls-2" d="M380.11,361.01c-.69-1.66-3.23-3.43-5.05-2.43-2.56,1.41-1.77,6.2-.93,8.3,1.47,3.7,4.82,4.57,8.2,2.58,4.47-2.63,6.38-8.09,11.31-10.09,.72-.29,.43-3.13-.23-2.93-3.76,1.1-6.03,4.03-9.37,5.83-1.91,1.03-4.42,1.36-6.47,.49-3.3-1.41,1.5-2.07,2.19-.84,.34,.61,.47-.63,.35-.91h0Z"/><path class="cls-2" d="M362.32,363.87c8-2.72,16.04-4.53,24.5-4.88,.49-.02,.47-1.75-.04-1.79-8.72-.76-17.06,.98-24.55,5.5-.24,.15-.17,1.26,.09,1.17h0Z"/><path class="cls-2" d="M383.6,362.49c1.24,2.29,2.14,4.74,3.56,6.94,1.25,1.94,2.94,3.55,4.49,5.23,.7,.75,.66-1.66,.43-2.08-1.23-2.24-2.32-4.7-3.85-6.75-1.27-1.7-2.92-2.83-4.35-4.35-.36-.38-.39,.81-.28,1.01h0Z"/></g><g><path class="cls-4" d="M557.06,322.68c-.81,.08-1.63,.02-2.45,0-.5-.01-2.35,.12-.83-.14,1.65-.28,3.3-.58,4.94-.88,3.15-.59,6.27-1.25,9.39-1.97,6.31-1.46,12.58-3.12,18.78-4.98,12.12-3.63,24.02-8.02,35.6-13.14,6.69-2.95,13.27-6.16,19.74-9.58l-.06-.48c-5.38,3.46-9.96,8.04-13.4,13.44-.05,.08-.09,.5,.06,.52,.9,.12,1.58-.17,2.16-.84,.05-.05,0-.31-.03-.27-.61,.6-1.33,.76-2.15,.55l.06,.52c3.45-5.39,7.97-9.96,13.35-13.44,.1-.07,.05-.54-.06-.48-21.8,11.61-45,20.57-68.96,26.6-6.8,1.71-13.67,3.22-20.57,4.53-.02,0-.02,.1,0,.1,1.46,0,2.97-.11,4.41,.07,.03,0,.03-.12,0-.12h0Z"/><path class="cls-4" d="M628.63,305.26c-.79,.23-1.6,.32-2.41,.45-.41,.07-2.11,.61-1.15-.11,1.32-.99,2.87-1.76,4.28-2.59,2.68-1.58,5.38-3.12,8.11-4.6,5.48-2.97,11.04-5.77,16.71-8.35s11.85-5.11,17.92-7.32,11.78-4.25,17.85-5.59,12.45-1.45,18.09,1.62c5.11,2.78,9.29,7.12,13.73,10.81,9.25,7.69,19.06,14.71,29.32,20.97,11.66,7.12,23.89,13.18,36.52,18.35l.02-.92c-7.75-1.02-15.53-1.59-23.34-1.68s-15.71-.03-23.36,1.21c-.21,.03-.18,.9,.02,.89,7.8-.34,15.54-1.04,23.37-.96s15.59,.58,23.34,1.47c.2,.02,.18-.85-.02-.93-22.31-8.75-43.32-21.07-62.07-35.98-4.56-3.62-8.8-7.68-13.46-11.17s-9.91-5.45-15.87-5.12-12.27,2.47-18.12,4.45-11.33,4.06-16.87,6.4c-12.85,5.42-25.2,11.92-36.94,19.45-.01,0,0,.06,0,.06,1.43-.25,2.89-.63,4.34-.71,.04,0,.02-.13,0-.12h0Z"/><path class="cls-4" d="M738.22,329.18c-.77-1.25-2.34-1.78-3.57-.79,0,0-.01,.07,0,.07,21.24-1.01,42.54-1.1,63.78-.12,21.27,.98,42.38,3.22,63.47,6.08,5.84,.79,11.69,1.56,17.56,2.08s12.13,1.11,18.1,.25c.07-.01,.07-.32,0-.33-5.46-.43-10.94-.37-16.41-.79s-10.91-1.06-16.35-1.75c-10.82-1.39-21.62-2.82-32.48-3.85-21.82-2.07-43.75-3.02-65.67-2.84-6.08,.05-12.15,.19-18.22,.46-3.12,.13-6.23,.29-9.35,.47-.36,.02-4.21,.18-4.2,.16,.07-.39,1.34-.38,1.61-.34,.77,.12,1.43,.57,1.7,1.34,.02,.05,.04-.06,.02-.09h0Z"/><path class="cls-4" d="M889.14,336.69c18.49-4.96,36.71-10.81,54.64-17.53,4.42-1.66,8.82-3.38,13.21-5.12,3.99-1.59,8.28-2.72,11.61,.75,2.6,2.71,3.91,6.51,5.86,9.67,2.07,3.35,4.51,6.46,7.16,9.36,6.31,6.89,13.76,12.6,21.17,18.25l.03-1.91c-4.82,1.74-9.83,2.92-14.93,3.5-2.51,.28-5.03,.42-7.56,.41s-5.19-.38-7.78-.29l.04,1.7c1.22-.45,2.45-.86,3.68-1.29,.16-.05,.14-.71-.02-.7-1.23,.1-2.47,.21-3.71,.29-.39,.02-.34,1.6,.04,1.7,2.43,.66,5.05,.65,7.56,.66s5.2-.15,7.79-.45c5.1-.6,10.1-1.82,14.93-3.57,.45-.16,.36-1.66,.03-1.91-6.6-4.99-13.21-10.03-19.05-15.92-2.95-2.97-5.68-6.16-8.05-9.62-2.13-3.12-3.58-6.66-5.76-9.73s-5.31-4.62-9.18-3.66c-2.27,.57-4.43,1.62-6.58,2.51s-4.47,1.83-6.71,2.72c-8.97,3.58-18.02,6.95-27.15,10.11-10.35,3.58-20.77,6.96-31.28,10.05-.01,0,0,.05,0,.05h0Z"/><path class="cls-4" d="M980.21,354.85l-5.71-.95c-.89-.15-1.95-.5-2.85-.47-.64,.02-.64,.06,.05,.14,.5,.06,.99,.13,1.5,.17,3.99,.25,7.99,.49,11.98,.74l23.96,1.48c15.98,.99,31.96,1.9,47.93,2.96l13.48,.89c2.21,.15,6.17,.62,5.83-2.79-.03-.31-.18-.29-.21,0-.07,.89-2.44,.87-3.04,.86-1.71,0-3.43-.14-5.14-.21l-10.48-.44c-6.99-.29-13.97-.63-20.96-.96-14.06-.67-28.11-1.33-42.17-1.99-7.9-.37-15.81-.66-23.7-1.02-.05,0-.05,.21,0,.22l9.51,1.41s.01-.04,0-.05h0Z"/><path class="cls-4" d="M1071.37,357.13c2.1-1.45,4.51-2.56,6.7-3.9s4.23-2.66,6.3-4.06c4.21-2.85,8.3-5.86,12.34-8.93,7.79-5.92,15.42-12.06,23.3-17.87,15.43-11.36,31.73-21.87,49.47-29.28,9.81-4.09,20.04-7.14,30.55-8.78l-.21-1.39c-4.12,18.49-8.25,37.59-5.97,56.62,.63,5.22,1.76,10.38,3.46,15.36l.16-1.51c-5.97-.12-11.88-.87-17.77-1.85s-11.75-2.26-17.44-4.04c-.53-.16-.46,1.97-.45,2.08,1.1,7.27-3.58,14.19-8.32,19.23-5.06,5.38-11.02,9.86-15.57,15.72-8.16,10.51-11.92,23.59-13.92,36.56-1.18,7.61-1.76,15.29-2.35,22.97l.66-1.39c-5.95-1.73-11.57-4.44-16.83-7.7s-9.98-7.35-14.68-11.4-9.44-8.36-14.06-12.64-9.19-8.56-14.14-12.4c-5.5-4.27-11.31-8.11-17.59-11.14-1.44-.7-1.91,5.07-.44,5.78,11.32,5.47,20.98,13.93,30.27,22.26,4.68,4.19,9.22,8.55,14.03,12.59s9.62,7.33,14.79,10.5c5.83,3.57,12.08,6.32,18.74,7.92,.48,.11,.65-1.18,.66-1.39,.79-13.65,1.91-27.63,6.49-40.62,2.25-6.37,5.44-12.45,9.74-17.67,4.81-5.84,10.96-10.38,15.9-16.09,5.24-6.06,8.83-13.78,7.59-21.94l-.45,2.08c5.76,1.4,11.54,2.61,17.42,3.35s11.83,.93,17.75,1.04c.41,0,.23-1.31,.16-1.51-5.99-17.52-4.11-36.32-.71-54.16,.98-5.16,2.1-10.29,3.24-15.41,.04-.17,.15-1.45-.21-1.39-18.75,2.96-36.46,10.44-52.72,20.08s-32.3,22.14-47.58,34.37c-4.49,3.59-9.01,7.14-13.68,10.51-2.36,1.7-4.75,3.35-7.19,4.93s-4.85,3.38-7.46,4.45c-.03,.01,0,.13,.01,.12h0Z"/><path class="cls-4" d="M613.62,435.33c-2.79,.38-5.91-.12-8.67-.62-3.03-.55-5.99-1.42-8.83-2.6v.55c17.37,6.17,35.55,9.41,53.92,10.67,18.41,1.26,36.89,.65,55.29-.58,19.63-1.32,39.23-3.16,58.78-5.38,18.48-2.1,37-4.39,55.24-8.06s34.52-8.2,50.56-15.65c2.07-.96,4.05-2,6.01-3.19,.67-.4,.39-3.58-.37-3.24-4.26,1.97-8.42,4.15-12.72,6.04s-8.33,3.47-12.58,4.99c-8.45,3.01-17.07,5.41-25.81,7.37-17.81,4-35.94,6.44-54.04,8.72-19.52,2.45-39.08,4.54-58.69,6.16-18.38,1.52-36.84,2.57-55.28,1.92-18.15-.64-36.33-2.97-53.76-8.2-2.21-.66-4.41-1.37-6.59-2.13-.09-.03-.14,.5-.01,.55,2.73,1,5.51,1.78,8.37,2.25,3.07,.5,6.09,.34,9.17,.55,.03,0,.03-.12,0-.12h0Z"/><path class="cls-4" d="M854.58,416.58c7.64,.3,15.18,2.01,22.2,5.03,3.52,1.51,6.9,3.35,10.08,5.48s5.9,4.49,8.74,6.9,5.64,4.63,8.98,6.11c1.52,.67,3.01,1.16,4.14-.37,.88-1.19,1.62-2.48,2.51-3.66,3.71-4.91,9.08-8.53,14.58-11.15,6.66-3.18,13.84-5.16,20.97-6.97,.75-.19,.7-3.26-.08-3.31-5.89-.37-11.72-1.37-17.38-3.03-2.89-.85-5.73-1.85-8.5-3.02-1.37-.58-2.73-1.2-4.07-1.86-.51-.25-1-.5-1.53-.69-.82-.28-1.3-.22-2.14-.1-.22,.03-.14,.71-.05,.83,.92,1.19,1.76,2.13,3.13,2.83s2.82,1.37,4.26,2c2.72,1.18,5.5,2.2,8.34,3.06,5.86,1.79,11.91,2.88,18.03,3.28l-.08-3.31c-11.96,3-25.51,6.58-33.81,16.39-.99,1.17-1.92,2.42-2.72,3.73s-1.36,4-3.07,4.27-4.06-1.28-5.48-2.12c-1.51-.9-2.94-1.93-4.33-3.01-2.93-2.27-5.71-4.72-8.78-6.81s-6.34-3.88-9.74-5.37c-7.62-3.34-15.87-5.1-24.19-5.18-.01,0-.01,.05,0,.05h0Z"/><path class="cls-4" d="M901.21,404.4c.68-1.17-1.88-1.15-2,.05s1.52,1.82,2.47,1.95c2.5,.34,5.21-.34,7.69-.67,11.68-1.54,23.38-2.97,35.04-4.66s23.16-3.4,34.75-4.96c11.45-1.54,22.96-2.93,34.51-3.47,6.24-.29,12.51-.29,18.74,.24,3.1,.26,6.18,.66,9.24,1.22,1.53,.28,3.05,.6,4.56,.96,.76,.18,1.51,.37,2.26,.57,.95,.26,1.51,.15,2.45-.04,.31-.06,.21-1.18,.02-1.33-1.08-.87-1.89-1.31-3.22-1.66s-2.56-.63-3.86-.9c-2.43-.51-4.88-.91-7.35-1.22-5.03-.63-10.1-.88-15.16-.87-10.27,.02-20.54,1.03-30.73,2.23-21.22,2.48-42.35,5.99-63.41,9.56l-17.63,2.99c-1.47,.25-2.94,.48-4.41,.75-1.21,.22-2.42,.66-3.66,.66-.82,0-3.09-.74-1.87-1.84,.36-.33,2.09-.61,1.56,.4,0,0,0,.05,0,.04h0Z"/><path class="cls-4" d="M514.77,395.67c7.6,.95,12.61,7.55,15.48,14.11,1.6,3.66,2.76,7.48,4.17,11.21,1.17,3.09,2.52,6.12,4.03,9.06,6.07,11.77,14.8,22.56,25.26,30.71,5.99,4.67,12.56,8.42,19.43,11.65,.77,.36,.86-1.36,.85-1.71-.18-11.67,2.68-23.33,7.81-33.78l-.69,.26c2.58,2.01,7.12,2.44,9.5-.18,2.1-2.32,3.05-6.27,2.24-9.29-.13-.47-.29,.11-.27,.31,.36,2.86-1.49,4.36-3.85,5.47s-5.26,.61-7.25-1.02c-.25-.21-.57,.04-.69,.26-6.19,11.66-8.87,24.84-8.21,37.99l.85-1.71c-6.3-2.3-12.21-5.64-17.68-9.5s-10.7-8.29-15.17-13.33-8.34-10.54-11.52-16.46c-1.62-3.01-3.05-6.13-4.3-9.32-1.43-3.67-2.61-7.43-4.22-11.03-2.95-6.6-8.07-13.22-15.79-13.99-.07,0-.08,.27,0,.28h0Z"/><path class="cls-4" d="M603.2,420.65c.01-.8,.05-1.61,.04-2.41-.01-.59,.07,.07,.13,.29,.09,.32,.17,.65,.23,.98,.29,1.44,.37,2.93,.23,4.39-.26,2.8-1.34,5.54-2.99,7.81-.05,.06,0,.38,.07,.28,3.26-3.95,4.09-9.6,2.32-14.38-.05-.12-.1,.06-.1,.1,.02,.98,.03,1.96,.05,2.94,0,.03,.02,.03,.02,0h0Z"/><path class="cls-4" d="M554.55,377.73c-2.63,.07,1.29,6.55,1.76,7.4,2.21,4.03,4.96,7.75,8.05,11.14,6.77,7.41,15.09,12.94,24.07,17.31,5.25,2.55,10.68,4.7,16.16,6.68l-.22-1.79c-.39,1.17-.34,2.32-.09,3.52,.18,.82,.51,1.54,.06,2.32-.34,.58-.8,1.11-1.5,1.19-.23,.03-.14,.63-.02,.73,1.15,1,2.05,.12,2.44-1.1,.21-.64,.25-1.32,.19-1.99-.09-.97-.78-2.23-.48-3.17,.11-.34,.27-1.62-.22-1.79-16.24-5.69-32.92-13.48-43.97-27.17-1.41-1.75-2.71-3.58-3.89-5.5-.59-.96-1.14-1.93-1.66-2.93-.3-.58-.59-1.16-.86-1.75s-1.47-3.42,.16-2.97c.02,0,.03-.12,0-.12h0Z"/><path class="cls-4" d="M511.77,397.62c-2.33-1.17,2.34-4.53,3.16-5.19,1.58-1.27,3.22-2.46,4.89-3.61,3.25-2.22,6.64-4.21,10.18-5.92,3.76-1.81,7.85-3.67,12.1-3.7,3.59-.02,7.5,1.65,9.06,5.06,.06,.13,.09-.14,.07-.2-1.12-2.68-3.5-4.41-6.29-5.08-3.62-.87-7.38,.2-10.74,1.56-7.13,2.88-13.79,6.95-19.64,11.93-.66,.56-5.22,4.05-2.8,5.19,.01,0,.01-.04,0-.05h0Z"/><path class="cls-4" d="M523.45,385.27c-1.75,.54-3.56,.73-5.29,1.39-1.58,.61-3.06,1.49-4.41,2.51-1.17,.88-2.7,1.86-2.89,3.41s.21,3.13,1.17,4.35c2.48,3.14,6.72,2.6,10.1,3.94,2.98,1.18,5.18,3.59,6.76,6.3,1.82,3.12,3.11,6.52,4.18,9.95,.15,.49,.32-.46,.28-.63-1.53-6.71-3.7-15.14-10.72-18.13-1.96-.83-4.08-.98-6.13-1.47-1.41-.34-5.66-2.03-4.44-4.07,1.12-1.87,3.32-3.44,5.11-4.62s4.04-2.61,6.27-2.82c.04,0,.02-.13,0-.12h0Z"/><path class="cls-4" d="M479.19,388.77c-.22-.62-.51-1.43-.5-2.1,0-.21-.19-.58-.26-.19-.28,1.5,.29,3.21,.35,4.73,.08,1.84,0,3.7-.29,5.52s-.72,3.49-1.34,5.17-1.59,3.31-2.3,5.01l.73,1.12c.19-1.86,.78-3.74,1.23-5.55,.02-.09-.07-.55-.15-.31-.49,1.44-.87,3.28-1.72,4.55-.25,.38-.22,1.05-.14,1.47,.02,.12,.24,.97,.51,.67,1.19-1.33,1.88-3.32,2.49-4.98,.67-1.85,1.17-3.78,1.48-5.73,.59-3.72,.76-8.02-.47-11.63-.03-.09-.09-.18-.19-.2h-.07l-.02,.73c.33,.18,.57,1.53,.64,1.8,.02,.08,.04-.04,.03-.07h0Z"/><path class="cls-4" d="M486.39,390.39c-.17-.82-.31-1.46-.21-2.33,.04-.32-.41-2.01-.69-1.01-.44,1.59,.11,3.52,.16,5.16,.06,1.87-.06,3.74-.37,5.58s-.8,3.59-1.42,5.33c-.66,1.85-1.68,3.58-2.17,5.49-.11,.42-.15,1.39,.21,1.72s.56-.07,.62-.47c.17-1.1,.91-2.18,1.43-3.15,.08-.16,0-.98-.17-.72-.25,.36-1.2,2.09-1.71,1.99l.18,2.47c.7-.38,1.07-1.31,1.4-2,.44-.92,.84-1.86,1.19-2.82,.71-1.91,1.21-3.92,1.54-5.93,.68-4.08,.67-8.2-.12-12.26-.05-.28-.18-.6-.47-.68l-.06-.02-.05,2.08c.51,.27,.55,1.12,.67,1.61,0,.03,.02-.01,.01-.02h0Z"/><path class="cls-4" d="M492.31,392.72c-.26-1.63-.83-3.51-.75-5.16l-.4-.27c-.08,1.71,.43,3.44,.64,5.13,.23,1.82,.28,3.66,.15,5.48-.27,3.74-1.32,7.29-2.9,10.68l.8,2.49c.73-1.96,1.26-3.99,2.02-5.94s1.49-3.87,2.25-5.8c.68-1.74,1.38-3.49,1.9-5.29,.21-.74,.38-1.49,.49-2.26,.11-.82,.03-1.74,.28-2.53l-.78-.83c.04,1.84,1.22,3.56,1.74,5.32,.48,1.6,.8,3.24,.85,4.92s-.13,3.29-.53,4.88c-.45,1.78-1.43,3.34-1.92,5.08l1.27,1.92c.13-1.82,.9-3.74,1.42-5.48,.49-1.65,1.01-3.29,1.52-4.94,.05-.16-.07-.94-.22-.56-.58,1.46-1.14,2.94-1.73,4.4-.26,.64-.54,1.28-.82,1.92s-.55,1.82-1.13,2.21c-.63,.43-.53,1.84-.45,2.48,.04,.3,.34,1.85,.94,1.38,.72-.57,1.05-1.69,1.39-2.52,.42-1.05,.75-2.13,1.02-3.23,.54-2.18,.78-4.43,.78-6.67,0-4.29-1-8.56-3.22-12.25-.34-.57-.69,.13-.78,.45-.18,.64-.19,1.57,.1,2.18,.77,1.63-.25,4.2-.85,5.79s-1.38,3.15-2.12,4.71c-.66,1.4-1.3,2.81-2,4.19s-1.53,2.63-2.19,3.98c-.32,.65-.36,1.49-.16,2.19,.08,.3,.51,1.22,.85,.55,1.97-3.91,3.06-8.3,3.34-12.66,.14-2.15,.09-4.31-.16-6.46-.12-1.07-.32-2.12-.57-3.17-.15-.61-.3-1.82-.94-2.13-.34-.16-.2,.85-.13,.97,.37,.67,.41,1.74,.55,2.49l.47,2.37s.02,0,.02-.02h0Z"/><path class="cls-4" d="M506.32,387.95c.98-.14-.4-1.59-.78-1.66-.13-.02-.23,.24-.25,.31-.7,1.78,.36,3.38,1.06,4.96,.9,2.04,1.51,4.2,1.77,6.41s.17,4.37-.24,6.51-1.37,4.12-2.08,6.21l.79,.57c-.1-1.32-.36-2.55-1.15-3.65-.14-.2-.18,.48-.11,.61,.3,.55,.94,1.66,.56,2.26-.32,.49-.06,3.04,.52,2.29,1.28-1.64,1.85-4.27,2.26-6.27,.48-2.33,.66-4.74,.53-7.12-.12-2.25-.49-4.47-1.15-6.63-.33-1.08-.73-2.14-1.21-3.16-.22-.46-.43-1.01-.72-1.43l-.21-.44c-.08,.35-.09,.42-.04,.21,.02-.16,.11-.29,.26-.39,.28-.45,.34-.36,.19,.28-.02,0-.03,.12,0,.12h0Z"/><path class="cls-4" d="M401.9,403.26c-.29-.05-1.57-.54-1.67-.48,.28-.17,1.35-.03,1.72-.05,1.37-.1,2.74-.17,4.11-.22,2.83-.1,5.66-.1,8.48,0,5.57,.19,11.13,.77,16.64,1.58l-.04-.56c-.74,.62-1.46,1.26-2.18,1.89-.05,.04-.02,.3,.03,.27,.74-.53,1.48-1.06,2.21-1.61,.09-.07,.1-.53-.04-.56-5.19-.93-10.4-1.43-15.67-1.57s-10.57-.1-15.73,.72c-.03,0-.02,.11,0,.12,.71,.18,1.44,.33,2.12,.6,.03,.01,.04-.11,0-.12h0Z"/><path class="cls-4" d="M404.46,402.8c-4.79-1.47-10.83-1.06-15.19,1.55-1.79,1.07-2.99,2.68-2.9,4.82,.08,1.98,1.14,3.33,2.92,4.13,2.26,1.02,4.86,1.45,7.25,2.06,2.95,.75,5.91,1.46,8.88,2.15,5.79,1.34,11.59,2.65,17.41,3.81,23.21,4.63,46.99,6.88,70.64,7.45,6.72,.16,13.45,.17,20.17,.02,3.36-.07,6.72-.18,10.08-.33s6.79-.09,10.07-.63c.71-.12,.6-3.33-.08-3.33-1.55,0-3.03,.2-4.55,.48-.34,.06-.26,1.38,.04,1.49,1.51,.56,3,1.05,4.59,1.35l-.08-3.33c-2.78-.07-5.61,.3-8.39,.44s-5.6,.26-8.4,.35c-5.6,.18-11.2,.25-16.81,.22-11.21-.07-22.41-.56-33.58-1.47s-22.14-2.23-33.13-3.96-21.9-3.57-32.73-6.08c-3.11-.72-6.23-1.45-9.32-2.27-1.07-.28-2.15-.61-3.06-1.25-.45-.31-1.01-.76-1.11-1.33-.13-.71,.62-1.46,1.1-1.92,1.98-1.89,5.03-2.93,7.63-3.63,2.8-.75,5.67-.87,8.55-.76,.01,0,0-.04,0-.05h0Z"/><path class="cls-4" d="M385.42,404.59c-2.01,1.21-4.93,.25-6.88-.58-2.37-1.01-4.83-1.83-7.24-2.75-4.89-1.87-9.76-3.78-14.65-5.66-9.73-3.75-19.54-7.35-29.18-11.32-4.53-1.87-8.99-3.9-13.26-6.32-2.08-1.18-4.13-2.45-6.08-3.83s-3.89-2.94-4.93-5.12c-1.16-2.44-.3-4.88,2.04-6.17,1.98-1.1,4.45-1.33,6.64-1.76l15.91-3.12c12.03-2.36,24.01-5.02,35.97-7.69,.16-.03,.11-.63-.01-.61-11.45,1.88-22.9,3.75-34.3,5.93l-17.14,3.29c-4.01,.77-9.37,1.17-10.28,6.07-.85,4.54,1.81,8.21,5.27,10.8,4.19,3.13,8.85,5.64,13.58,7.86,9.96,4.68,20.45,8.26,30.74,12.15,5.94,2.24,11.87,4.51,17.83,6.71,2.89,1.07,5.85,2.41,8.85,3.09,1.26,.29,2.59,.5,3.89,.41s2.16-.55,3.23-1.25c.03-.02,.01-.13-.01-.12h0Z"/><path class="cls-4" d="M347.44,353.62c2.5-.39,5.14-.32,7.67-.47s4.93-.28,7.39-.44c5.02-.31,10.04-.64,15.05-1.03,10.03-.78,20.04-1.68,30.05-2.71,20.01-2.05,39.96-4.57,59.85-7.57s39.69-6.49,59.39-10.54c19.71-4.05,39.3-8.59,58.8-13.56,17.29-4.41,35.21-8.64,50.37-18.47,1.82-1.18,3.59-2.45,5.31-3.79l-.28-2.66c-2.28,3.41-4.42,6.87-6.51,10.4-.18,.3,.1,1.61,.22,1.45,2.29-3.01,4.48-6.05,6.58-9.19,.27-.41,.22-3.05-.28-2.66-14.25,11.08-31.96,16.11-49.12,20.71-19.35,5.19-38.85,9.84-58.44,14.05-19.59,4.21-39.28,7.99-59.04,11.35-19.85,3.38-39.79,6.27-59.78,8.68-19.89,2.4-39.85,4.32-59.83,5.83-2.43,.18-4.95,.56-7.39,.48-.03,0-.03,.12,0,.12h0Z"/><path class="cls-4" d="M633.03,303.35c1.94-1.49,4.33-2.58,6.49-3.71s4.42-2.32,6.67-3.39c4.57-2.19,9.25-4.13,14-5.89,9.38-3.47,19.01-6.24,28.69-8.74,5.48-1.42,10.96-2.8,16.42-4.26,.07-.02,.04-.29,0-.28-19.57,4.02-39.25,9.26-57.37,17.83-2.53,1.2-5.04,2.45-7.49,3.81s-4.86,3.23-7.43,4.51c-.03,.02,0,.13,.01,.12h0Z"/><path class="cls-4" d="M378.35,361.63c-.54-.43-.92-.85-1.62-.99-.79-.17-1.63-.02-2.37,.29-1.3,.53-2.25,1.55-2.79,2.83-1.06,2.52-.51,5.66,1.08,7.84,1.87,2.56,5.09,3.4,8.03,2.28,1.42-.54,2.6-1.45,3.53-2.65,.38-.49,.78-.97,1.04-1.54,.35-.77,.48-1.68,.51-2.52,.12-3.53-1.77-7.1-5.05-8.59s-7.05,.56-8.59,3.44c-1.84,3.44-1.13,8.2,1.76,10.85,1.22,1.11,2.9,1.82,4.57,1.71s3.24-1,4.36-2.22c3.25-3.55,2.49-9.39-.46-12.89-.79-.94-1.68-1.8-2.68-2.52-.49-.35-1-.67-1.53-.96-.21-.11-.46-.27-.69-.33-.35-.09-.39-.04-.71,.13-1.19,.63-2.05,1.58-2.91,2.59-.93,1.09-1.64,2.24-2.27,3.53-.1,.2-.21,1.7,.26,1.45,.88-.48,1.78-.94,2.68-1.38,.49-.24,.99-.37,1.5-.57,.55-.22,1.05-.55,1.58-.81h-.48c1.38,.67,2.67,1.38,3.82,2.41,.97,.87,2.02,1.96,2.53,3.18,.06,.13,.12,.29,.16,.43,.03,.1-.12-.11,0,.08,.16,.25,.1-.48,0-.18-.07,.21,.04-.09-.04,.28-.12,.54-.37,1.05-.66,1.52-.66,1.08-1.72,1.96-2.9,2.41-2.46,.95-5.19-.11-6.69-2.21-.34-.47-.62-.98-.78-1.53-.15-.49-.17-.6-.05-1.05,.28-1.1,1.06-2.07,1.91-2.78,1.92-1.6,4.61-2.08,6.95-1.12,2.03,.83,3.79,3.21,3.59,5.45-.46,5.08-7.33,7.75-11.16,4.48-2.15-1.83-3.06-5-2.11-7.68,.49-1.39,1.47-2.53,2.83-3.15,1.17-.54,3.12-.76,3.87,.6,.01,.03,.05-.08,.01-.11h0Z"/><path class="cls-4" d="M371.94,358.58c-1.12-1.86-3.47-1.87-5.17-.71-1.86,1.28-2.64,3.75-2.66,5.91-.07,6.04,4.81,10.12,10.4,11.22,5.28,1.04,13.39,.38,15.31-5.71,1.76-5.58-1.23-11.81-6.5-14.11-3.35-1.46-7.08-1.65-10.63-.93-2.09,.42-4.12,1.12-6.1,1.92-.93,.38-1.88,.77-2.78,1.22-1.2,.6-1.98,1.41-2.98,2.28-.2,.18-.29,1.51,.11,1.47,.72-.08,1.37,0,2.06-.21,.62-.19,1.21-.47,1.8-.73,1.47-.64,2.95-1.25,4.48-1.75,2.66-.87,5.43-1.4,8.24-1.31,4.9,.15,10.17,2.5,11.8,7.46,.85,2.57-.07,5.7-2.08,7.49s-4.88,2.38-7.49,2.55c-5.11,.32-11.21-1.03-14.05-5.72-1.66-2.74-2.07-6.42-.25-9.19,1.11-1.69,5.34-4.05,6.45-1.06,.02,.05,.04-.06,.02-.09h0Z"/><path class="cls-4" d="M365.37,361.79c-2.14,1.06-3.25,2.91-3.1,5.35,.17,2.73,2.16,4.87,4.35,6.28,3.17,2.05,7.07,3.21,10.8,3.64,3.38,.39,7.37,.11,10.02-2.29,2.36-2.15,2.89-5.13,2.03-8.08-.02-.08-.1-.22-.2-.15-.53,.38-.72,1.29-1.04,1.85-.44,.78-.98,1.48-1.62,2.12-1.3,1.29-2.92,2.24-4.58,2.99-4.22,1.91-9,1.86-13.53,1.79-.15,0-.15,.63,.02,.65,4.73,.75,9.95,1.66,14.54-.25,3.28-1.36,6.6-4.83,6.48-8.58l-.29,.52c1.03,1.82-.18,4.33-1.43,5.72-1.12,1.24-2.63,2.04-4.23,2.49-3.37,.94-7.17,.5-10.51-.34-3.14-.79-6.6-2.07-8.86-4.5-1.44-1.55-2.2-3.53-1.72-5.64,.32-1.43,1.33-3.12,2.88-3.46,.04,0,.02-.13,0-.12h0Z"/><path class="cls-4" d="M363.1,362.62c.5-.87-.85-2.44-1.4-1.49-.44,.77-.45,2.07-.44,2.93,.01,1.01,.18,2.01,.48,2.97,1.51,4.89,5.93,7.93,10.93,8.3,3.32,.24,6.51-.64,9.46-2.13,.06-.03,.02-.29-.02-.27-4.73,1.96-10.76,2.61-15.3-.2-1.97-1.22-3.59-3.02-4.52-5.15-.51-1.15-.81-2.4-.81-3.66,0-.58-.03-1.78,.33-2.26,.51-.68,1.68,0,1.28,.92,0,0,0,.05,0,.04h0Z"/><path class="cls-4" d="M390.8,362.52c-1.29-.24-2.6-.94-3.82-1.41-.03-.01-.03,.1,0,.11,2.82,1.33,5.65,2.65,8.47,3.98l4.23,1.99c1.27,.6,2.6,1.3,3.96,1.69,.05,.02,.06-.24,0-.28-1.55-.96-3.33-1.63-4.99-2.36l-5-2.2c-1.62-.71-3.23-1.42-4.85-2.13-.39-.17-.8-.41-1.21-.53-.74-.22,.17,.12,.42,.21,.91,.33,1.94,.58,2.79,1.06,.02,.01,.04-.11,0-.12h0Z"/><path class="cls-4" d="M403.09,369.92c-4.5,6.34-12.43,9.82-20.14,8.91v.49c8.76-1.03,17.56-3.9,24.96-8.76,.06-.04,.03-.3-.03-.27-7.74,4.5-15.99,7.55-24.92,8.54-.12,.01-.11,.48,.01,.49,7.85,.98,15.77-2.69,20.16-9.25,.02-.04,0-.21-.04-.16h0Z"/><path class="cls-4" d="M406.79,363.76c2.9,1.43,3.66,5.12,2.64,7.98-1.15,3.26-4.04,5.57-6.62,7.7-.06,.05-.02,.31,.03,.27,2.96-2.19,6.32-4.86,7.06-8.7,.54-2.82-.28-6.27-3.09-7.56-.08-.04-.1,.28-.02,.32h0Z"/><path class="cls-4" d="M302.36,365.95c3.49,2.31,7.63,2.94,11.69,3.5,4.86,.67,9.71,1.34,14.57,2.01,9.79,1.35,19.59,2.61,29.39,3.9l16.79,2.22s.03-.14,0-.14c-19.34-2.62-38.68-5.26-58.04-7.78-4.9-.64-10.15-.98-14.4-3.76,0,0-.01,.04,0,.05h0Z"/><path class="cls-4" d="M397.84,375.91c2.13,.18,4.25,.7,6.37,.97,2.31,.29,4.64,.49,6.96,.63,4.49,.27,8.99,.3,13.48,.24,9.02-.11,18.03-.45,27.05-.72,18.19-.54,36.39-1.13,54.58-1.77,36.38-1.28,72.76-2.76,109.13-4.43,20.6-.95,41.19-1.98,61.78-3.09,.03,0,.03-.14,0-.14-36.54,1.86-73.1,3.58-109.66,5.08s-72.76,2.8-109.15,3.91c-10.16,.31-20.33,.61-30.49,.88-5.03,.14-10.07,.21-15.1,0-2.51-.1-5.01-.27-7.51-.53s-5.08-.44-7.44-1.16c-.02,0-.03,.12,0,.12h0Z"/><path class="cls-4" d="M590.43,388.89c38.41,1.99,76.86,3.06,115.32,3.19,38.26,.13,76.53-.61,114.75-2.37,21.45-.99,42.89-2.3,64.31-3.88,.02,0,.02-.09,0-.09-38.36,2.72-76.79,4.54-115.23,5.48-38.25,.93-76.52,.94-114.77,.03-21.47-.51-42.93-1.32-64.37-2.41,0,0-.01,.05,0,.05h0Z"/><path class="cls-4" d="M633.51,372.46c60.68-4.9,121.56-7.28,182.44-6.94,60.88,.34,121.74,3.37,182.35,9.08,34.11,3.21,68.12,7.33,102.05,12.05,.02,0,.03-.18,0-.19-60.2-8.98-120.9-14.82-181.68-18.16-60.78-3.33-121.72-3.99-182.56-1.96-34.25,1.14-68.46,3.16-102.6,6.07-.01,0,0,.05,0,.05h0Z"/><path class="cls-4" d="M1151.51,334.78c1.59-.14,.73,2.38,.2,3.14-.4,.57-.96,1.01-1.47,1.47-1.35,1.22-2.72,2.41-4.1,3.59-2.56,2.18-5.18,4.28-7.83,6.33-5.33,4.11-10.86,7.97-16.57,11.54-11.78,7.35-24.32,13.49-37.35,18.28-7.24,2.66-14.64,4.89-22.14,6.7-.05,.01-.03,.19,0,.19,14.4-3.46,28.39-8.51,41.68-15.04s26.13-14.63,37.71-24.07c3.21-2.61,6.43-5.28,9.4-8.16,1.02-.99,2.38-3.32,.49-4.08-.01,0-.03,.12,0,.12h0Z"/><path class="cls-4" d="M1067.7,363.21c1.56-.39,3.25-.45,4.84-.69s3.21-.51,4.8-.81c3.18-.6,6.34-1.31,9.48-2.13,6.13-1.6,12.15-3.6,18.06-5.89,11.95-4.64,23.38-10.51,34.51-16.84,6.36-3.62,12.62-7.39,18.85-11.22,.02-.01,0-.1,0-.09-21.85,13.36-44.47,26.36-69.28,33.36-3.4,.96-6.84,1.8-10.3,2.5-1.81,.37-3.62,.7-5.45,.99s-3.7,.73-5.5,.69c-.03,0-.02,.12,0,.12h0Z"/><path class="cls-4" d="M1162.98,326.36c-1.57,1.18-3.39,2.11-5.08,3.13l-5.08,3.08c-3.32,2.01-6.63,4.02-9.95,6.03-6.71,4.06-13.42,8.12-20.11,12.22-.02,.01,0,.1,0,.09,6.64-4.01,13.27-8.05,19.9-12.1,3.25-1.98,6.49-3.96,9.74-5.94l5.08-3.1c1.8-1.1,3.59-2.4,5.5-3.3,.03-.02,0-.13,0-.12h0Z"/><path class="cls-4" d="M634.42,312.03c2.25-1.83,5.03-3.24,7.52-4.71s4.86-2.8,7.33-4.13c5.07-2.73,10.25-5.25,15.52-7.56,10.68-4.68,21.73-8.49,33.02-11.38,6.3-1.61,12.66-2.86,19.06-3.99,.04,0,.02-.14,0-.14-22.76,3.4-45.12,11.2-65.46,21.89-2.88,1.51-5.72,3.09-8.52,4.73-1.4,.82-2.79,1.66-4.18,2.51s-2.81,1.94-4.31,2.67c-.03,.02,0,.13,.01,.12h0Z"/><path class="cls-4" d="M657.93,307.45c14.53-8.71,30.31-15.31,46.73-19.5,4.56-1.16,9.17-2.11,13.79-2.98,.05,0,.03-.19,0-.19-16.55,2.63-32.77,8.17-47.76,15.61-4.35,2.16-8.61,4.51-12.76,7.02-.01,0,0,.05,0,.04h0Z"/><path class="cls-4" d="M664.32,309.86c14.29-7.48,29.38-13.4,44.95-17.61,4.36-1.18,8.75-2.23,13.16-3.18,.04,0,.02-.15,0-.14-15.74,3.14-31.12,8.25-45.74,14.84-4.19,1.89-8.31,3.91-12.37,6.05-.01,0,0,.05,0,.04h0Z"/><path class="cls-4" d="M678.81,310.2c14.76-6.57,30.2-11.51,46.02-14.75,.02,0,.02-.1,0-.09-15.83,3.25-31.27,8.21-46.02,14.79-.01,0,0,.05,0,.05h0Z"/><path class="cls-4" d="M681.21,316.66c2.26-1.13,4.87-1.82,7.25-2.66,2.12-.74,4.25-1.46,6.39-2.17,4.42-1.46,8.87-2.86,13.34-4.18,8.94-2.65,17.96-5,27.04-7.09,.04,0,.02-.15,0-.14-9.16,2.11-18.26,4.53-27.27,7.23-4.47,1.34-8.91,2.75-13.33,4.23-2.21,.74-4.42,1.5-6.62,2.27s-4.5,1.85-6.81,2.4c-.03,0-.02,.13,0,.12h0Z"/><path class="cls-4" d="M691.51,318.1c8.1-2.89,16.35-5.35,24.72-7.35s16.85-3.43,25.37-4.67c.03,0,.03-.14,0-.14-17.04,1.96-33.96,6.32-50.09,12.11-.01,0,0,.05,0,.05h0Z"/><path class="cls-4" d="M705.86,319.01c14.85-5.04,30.41-7.65,46.08-7.79,.04,0,.04-.19,0-.19-15.67,.15-31.26,2.86-46.08,7.93-.01,0,0,.05,0,.05h0Z"/><path class="cls-4" d="M715.35,321.22c7.25-1.21,14.53-2.27,21.82-3.16s14.63-1.44,21.94-2.21c.02,0,.02-.09,0-.09-7.33,.38-14.67,1.3-21.94,2.21s-14.57,1.98-21.82,3.21c-.01,0,0,.05,0,.05h0Z"/><path class="cls-4" d="M726.53,324.62c13.34-2.85,26.9-4.54,40.52-5.08,.04,0,.04-.19,0-.19-13.63,.58-27.19,2.32-40.52,5.22-.01,0,0,.05,0,.05h0Z"/><path class="cls-4" d="M730.44,327.42c13.79-2.08,27.61-4.01,41.37-6.27,.03,0,.02-.14,0-.14-13.81,1.95-27.58,4.23-41.37,6.36-.01,0,0,.05,0,.05h0Z"/><path class="cls-4" d="M732.85,328.54c22.94-1.58,45.95-.64,68.83,1.46,22.97,2.11,45.82,5.47,68.61,8.97,6.3,.97,12.59,1.97,18.89,2.91,2.79,.42,5.62,.77,8.45,.66s5.25-.92,7.55-2.57c.17-.13,.07-1.15-.07-1.1-4.53,1.63-9.61,1.5-14.32,.87-5.57-.74-11.11-1.69-16.66-2.54-11.4-1.75-22.81-3.47-34.24-5.01-22.61-3.05-45.4-5.18-68.23-5.41-12.96-.13-25.92,.39-38.82,1.71-.01,0,0,.05,0,.05h0Z"/><path class="cls-4" d="M623.48,303.96c2.14-1.22,4.63-2.02,6.91-2.95s4.35-1.75,6.53-2.6c4.31-1.68,8.63-3.34,12.97-4.93,8.79-3.22,17.67-6.18,26.65-8.83,4.54-1.34,9.07-2.72,13.65-3.92s9.11-2,13.55-.58c4.13,1.32,7.54,4.22,10.89,6.85,3.93,3.09,7.86,6.17,11.79,9.26,4.32,3.39,8.64,6.79,12.97,10.18s8.95,6.43,13.42,9.63c.11,.08,.17-.56,.04-.68-3.92-3.36-7.8-6.76-11.74-10.1s-7.85-6.24-11.79-9.34-7.86-6.19-11.79-9.29c-3.48-2.74-6.91-5.83-10.87-7.87s-8.4-2.31-12.83-1.48-9.21,2.38-13.73,3.76c-9.1,2.77-18.09,6.04-26.94,9.53-4.9,1.93-9.78,3.93-14.58,6.1-2.4,1.09-4.78,2.2-7.16,3.33-2.62,1.25-5.23,2.84-7.96,3.83-.04,.01-.01,.13,0,.12h0Z"/><path class="cls-4" d="M740.2,309.3c1.82,1.18,3.45,2.73,5.2,4.03s3.56,2.57,5.39,3.79c3.53,2.34,7.17,4.51,10.91,6.5s7.56,3.8,11.47,5.42c1.91,.79,3.83,1.54,5.77,2.24,.96,.35,1.93,.66,2.89,1,1.14,.41,2.19,1.03,3.34,1.4l.1-.05c.96-1.23,1.63-2.66,2.56-3.92,.14-.19,0-1.11-.11-.99-.67,.72-1.55,1.68-2.43,2.12s-2.58-.07-3.51-.32c-2.08-.56-4.13-1.29-6.16-2.01-4.33-1.53-8.57-3.3-12.7-5.29s-7.94-4.08-11.73-6.42c-1.83-1.13-3.64-2.31-5.41-3.52-1.87-1.27-3.91-2.53-5.56-4.08,0,0-.04,.1,0,.12h0Z"/><path class="cls-4" d="M881.69,338.29c.13,.43-.4,.22-.5,.19-.68-.16,.23-.86,.58-.96,.43-.12,1.02,0,1.46,.03,1.26,.05,2.53,.07,3.8,.04,2.43-.07,4.86-.36,7.25-.74,4.79-.76,9.49-2,14.08-3.55,9.22-3.1,17.99-7.31,26.8-11.37,4.58-2.11,9.3-3.88,14.03-5.63,2.26-.84,4.55-1.62,6.86-2.32s4.98-1.75,7.47-1.94c2.84-.21,3.9,2.06,5.04,4.22s2.41,4.37,3.73,6.48c2.6,4.16,5.46,8.16,8.57,11.95,3.53,4.3,7.39,8.31,11.52,12.02s8.88,7.09,13.56,10.39l.09-4.96c-3.15,.83-5.93,1.74-9.13,.46-.37-.15-.45,2.13-.04,2.43,2.47,1.85,6.3,3.49,9.29,2.14,1.08-.48,1.11-4.36,.09-4.96-4.63-2.69-8.95-6.17-12.97-9.69s-7.67-7.26-11.08-11.28-6.75-8.58-9.58-13.24c-1.38-2.26-2.65-4.58-3.87-6.93-1.15-2.21-2.59-4.25-5.36-4.08s-5.38,1.24-7.86,2.1-5.1,1.87-7.6,2.92c-4.87,2.04-9.55,4.57-14.3,6.88-9.72,4.73-19.28,9.93-29.48,13.57-5.52,1.97-11.15,3.42-16.97,4.17-1.46,.19-2.92,.34-4.38,.45-.56,.04-1.93,.04-2.03,.89-.07,.63,.98,.92,.94,.26,0-.11-.05-.02-.03,.04h0Z"/><path class="cls-4" d="M970.7,357.04c-.97-.28-1.9-.77-2.82-1.17v.49c3.69,.26,7.36,.58,11.07,.69s7.22,.12,10.82,.16c7.3,.08,14.59,.23,21.89,.62,14.38,.76,28.82,1.94,43.06,4.06,3.88,.58,7.75,1.3,11.66,1.64,1.88,.16,3.65,.07,5.49-.37,1.98-.47,3.96-1.27,5.8-2.11,.34-.16,.31-1.77-.04-1.73-3.5,.39-6.76-.56-10.23-.8s-6.77-.84-10.14-1.31c-7.2-1-14.44-1.71-21.69-2.22-14.34-.99-28.81-.65-43.17-.44-4.09,.06-8.2,.08-12.29,.29s-8.17,.63-12.26,1.02c-.12,.01-.1,.47,.01,.5,.94,.25,1.93,.43,2.82,.8,.03,.01,.04-.11,0-.12h0Z"/><path class="cls-4" d="M857.74,417.41c-1.25,.01-2.49-.28-3.73-.37-.14-.01-.15,.62,.02,.65,7.01,1.08,13.93,2.44,20.62,4.83,3.33,1.19,6.55,2.74,9.48,4.74s5.58,4.62,7.98,7.37,4.75,5.95,7.45,8.65c1.79,1.78,4.86,4.44,6.53,1.07,.6-1.22,.87-2.55,1.26-3.84,.44-1.45,1.36-2.73,2.37-3.83,2.39-2.61,5.5-4.51,8.43-6.45,3.89-2.57,7.91-4.99,11.74-7.64s7.99-5.31,12.11-7.75c.3-.18,.16-1.74-.11-1.65-3.67,1.17-7.31,2.45-10.9,3.86s-7.02,3.25-10.37,5.18-6.47,3.8-9.38,6.12c-2.58,2.05-4.71,4.61-5.53,7.86-.33,1.29-.4,2.71-1.01,3.92-.25,.49-.63,1.07-1.18,1.28-.82,.32-1.65-.37-2.27-.85-2.85-2.2-5.25-4.91-7.69-7.54s-4.86-5.34-7.81-7.48c-2.76-2.01-5.82-3.58-9-4.79-7.21-2.75-15.09-3.43-22.74-3.7l.02,.65c1.24-.02,2.48-.24,3.72-.16,.03,0,.03-.12,0-.12h0Z"/><path class="cls-4" d="M600.73,436.98c-.9-2.09-1.8-4.17-2.7-6.26l-.14,.85c5.21,5.85,13.27,7.14,20.59,8.45,9.06,1.62,18.28,2.69,27.46,3.39,18.24,1.4,36.56,1.65,54.84,.96,18.25-.69,36.46-2.32,54.58-4.68,18.27-2.38,36.45-5.5,54.5-9.19,18.06-3.7,35.99-7.95,53.85-12.53,2.22-.57,4.4-1.17,6.57-1.9,.95-.32,.63-4.21-.1-4.06-4.52,.88-8.96,2.17-13.42,3.31s-8.81,2.22-13.22,3.28c-8.92,2.15-17.87,4.19-26.85,6.1-17.95,3.82-36.01,7.14-54.18,9.74s-36.29,4.48-54.55,5.45c-18.18,.97-36.42,1.03-54.6-.02-9.08-.52-18.17-1.24-27.21-2.2-4.3-.46-8.62-.85-12.9-1.45-3.71-.52-7.58-1.12-10.99-2.76-1.57-.75-3.02-1.73-4.31-2.9-.19-.17-.17,.81-.1,.93,.96,1.83,1.92,3.66,2.88,5.49,0,.01,.01-.03,0-.04h0Z"/><path class="cls-4" d="M846.49,421.87c3.42-.31,6.78-.98,10.2-1.22s7.07-.16,10.58,.26c7,.83,13.85,2.74,20.14,5.96,1.75,.9,3.45,1.88,5.09,2.96,1.36,.9,3,2.47,4.66,2.71,.2,.03,.11-.78,.05-.87-1.93-2.95-5.58-4.85-8.62-6.46s-6.2-2.93-9.47-3.97c-6.82-2.15-13.96-2.91-21.09-2.26-3.95,.36-7.97,1.06-11.54,2.85,0,0,0,.05,0,.05h0Z"/><path class="cls-4" d="M875.5,412.18c-.15-.08-.36,1.05-.21-.12,.08-.61,.24-.53,.81-.71,.45-.14,.92-.25,1.37-.38,1.15-.31,2.29-.61,3.44-.91,2.08-.54,4.15-1.12,6.23-1.64,4.32-1.08,8.68-2.04,13.06-2.87,8.6-1.64,17.31-2.85,26.03-3.64,5.01-.45,10.02-.64,15.03-.9,.07,0,.07-.33,0-.33-10.69-.16-21.59,.84-32.13,2.55s-21.22,4.05-31.43,7.42c-.36,.12-3.24,.7-2.84,1.65,.17,.4,.91,.21,.65-.23-.02-.03-.05,.09-.01,.11h0Z"/><path class="cls-4" d="M536.74,410.25c1.35,3.75,2.43,7.55,4.04,11.22s3.34,6.97,5.34,10.27c4.03,6.64,8.95,12.81,14.61,18.14,3.27,3.08,6.8,5.88,10.51,8.41,.02,.01,.03-.08,0-.09-12.89-8.91-23.34-21.28-29.9-35.52-1.82-3.96-3.65-8.22-4.58-12.49-.02-.07-.05,.04-.03,.07h0Z"/><path class="cls-4" d="M552.96,418.07c-.76,.82-.67,1.86-.35,2.87,.56,1.76,1.61,3.47,2.48,5.1,2.07,3.85,4.41,7.56,6.99,11.1,5.11,7,11.19,13.25,18,18.6,.02,.01,.03-.07,0-.09-5.93-4.71-11.27-10.1-15.96-16.04-2.27-2.87-4.38-5.88-6.31-9-.95-1.53-1.85-3.08-2.71-4.66-.94-1.72-3.88-5.94-2.15-7.83,0-.01,0-.05,0-.04h0Z"/><path class="cls-4" d="M627.36,330.37c-1.05,4.77-2.39,9.43-3.21,14.26s-1.33,9.35-1.63,14.05c-.58,9.35-.2,18.77,1.19,28.03,.79,5.28,1.9,10.51,3.31,15.66,.02,.06,.04-.02,.03-.05-4.98-18.28-6.05-37.58-3.11-56.3,.4-2.52,.87-5.03,1.41-7.53,.58-2.68,1.12-5.48,2.05-8.07,.01-.04-.02-.15-.04-.07h0Z"/><path class="cls-4" d="M644.56,330.24c-1.65-.25-3.3-.88-4.91-1.33h0c-3.68,22.47-3.23,45.51,1.32,67.8,1.28,6.26,2.88,12.44,4.78,18.53,.03,.09,.06-.03,.05-.07-7.07-22.72-9.78-46.74-7.99-70.47,.24-3.18,.56-6.36,.96-9.53,.11-.85,.22-1.7,.34-2.55s.13-1.96,.41-2.77c.13-.36,.1-.69,.59-.79,.33-.07,.99,.27,1.34,.37,1.03,.29,2.13,.51,3.12,.92,.04,.01,.05-.11,0-.12h0Z"/><path class="cls-4" d="M793.5,338.61c-2.9-1.68-5.31,.87-5.71,3.72-.27,1.9-.09,3.88-.05,5.79,.06,2.45,.15,4.9,.25,7.35,.43,9.64,1.22,19.26,2.39,28.83,.67,5.51,1.47,11.01,2.38,16.48,.02,.09,.07,.02,.06-.04-2.85-17.32-4.54-34.83-5.03-52.38-.07-2.47-.49-5.4,.46-7.73,.72-1.77,3.53-3.8,5.24-1.91,.03,.03,.06-.09,.02-.11h0Z"/><path class="cls-4" d="M808.66,328.93c-3.5,20.7-3.48,42.01,.17,62.7,1.03,5.81,2.34,11.56,3.91,17.25,.02,.09,.06-.03,.05-.07-5.52-20.15-7.66-41.21-6.22-62.06,.41-5.96,1.12-11.9,2.1-17.79,0-.01-.01-.05-.02-.02h0Z"/><path class="cls-4" d="M827.71,342.94c-5.66,14.76-6.6,31.18-2.81,46.52,1.09,4.41,2.58,8.69,4.45,12.82,.02,.05,.04-.04,.03-.07-6.42-14.49-8.3-30.82-5.31-46.39,.84-4.38,2.07-8.68,3.66-12.85,0-.01,0-.06-.02-.03h0Z"/><path class="cls-4" d="M840.36,349.94c-2.8-1.03-4.32,2.51-4.75,4.68-.39,1.96-.33,4.05-.38,6.05-.06,2.39-.05,4.78,.03,7.17,.32,9.58,1.78,19.09,4.3,28.33,.02,.09,.06-.03,.05-.07-2.26-8.37-3.67-16.97-4.16-25.63-.24-4.29-.27-8.59-.06-12.89,.12-2.5,.98-9.03,4.97-7.59,.01,0,.02-.04,0-.05h0Z"/><path class="cls-4" d="M847.1,349.58c-.65,3.93-1.48,7.77-1.82,11.75s-.37,7.77-.16,11.66c.44,7.86,2.01,15.62,4.65,23.04,.03,.09,.07-.03,.05-.07-2.59-7.39-4.17-15.14-4.63-22.97-.23-3.88-.19-7.77,.12-11.64s.71-7.98,1.83-11.72c.01-.04-.03-.13-.05-.06h0Z"/><path class="cls-4" d="M862.19,345.94c-5.48,4.05-5.9,12.09-6.32,18.29-.56,8.35-.04,16.75,1.53,24.97,.89,4.63,2.11,9.19,3.63,13.65,.04,.11,.09-.04,.07-.1-2.52-7.46-4.17-15.2-4.88-23.05-.71-7.84-.79-16.07,.69-23.83,.72-3.76,2.12-7.52,5.27-9.9,.01,0,0-.05,0-.04h0Z"/><path class="cls-4" d="M1002.45,354.18c.63,.77,1.45-.7,1.01-1.28-.5-.66-1.55-.08-1.99,.34-1,.97-1.5,2.53-1.97,3.8-2.13,5.72-2.53,12.04-1.28,18,.75,3.55,2.09,6.94,3.98,10.04,.03,.04,.05-.09,.03-.12-3.17-5.19-4.79-11.24-4.68-17.32,.05-3,.51-6,1.38-8.87,.43-1.4,.93-2.8,1.59-4.11,.38-.76,.9-1.61,1.74-1.9,.53-.18,1.55-.36,1.21,1.03-.07,.3-.74,1.08-.98,.31-.02-.08-.07,.04-.03,.08h0Z"/><path class="cls-4" d="M1015.52,353.6c-7.6,3.56-9.9,14.71-4.39,21.03,.05,.06,.07-.12,.04-.16-5.47-6.27-3.14-17.25,4.36-20.82,.01,0,0-.05,0-.04h0Z"/><path class="cls-4" d="M1026.7,351.79c-7.74,6.69-8.98,19.36-2.7,27.43,.07,.09,.1-.18,.06-.24-6.13-8.06-4.92-20.42,2.65-27.14,.01,0,0-.05,0-.04h0Z"/><path class="cls-4" d="M445.73,343.02c-.85-.72,.45-1.64,1.01-1.69,.62-.06,1.12,.39,1.46,.85,.73,1.01,.92,2.5,1.23,3.68,.65,2.49,1.25,4.99,1.82,7.5,1.13,5.01,2.1,10.07,2.9,15.14,1.6,10.15,2.56,20.4,2.87,30.67,0,.06,.04,.05,.04,0-.26-9.48-1.08-18.94-2.48-28.33-.69-4.61-1.52-9.2-2.47-13.76s-1.83-9.32-3.34-13.74c-.35-1.02-1.22-2.56-2.52-1.87-.71,.38-.91,1-.53,1.65,.02,.03,.06-.08,.02-.11h0Z"/><path class="cls-4" d="M455.15,338.82c1.37,1.66,2.42,3.72,3.46,5.6s1.93,3.66,2.79,5.54c1.79,3.95,3.27,8.05,4.4,12.23,2.28,8.41,3.25,17.19,2.78,25.89-.26,4.81-.97,9.59-2.1,14.27-.01,.04,.03,.16,.05,.07,4.08-16.73,2.54-34.63-4.19-50.46-.97-2.28-2.04-4.5-3.22-6.68s-2.7-4.33-3.94-6.56c-.03-.05-.05,.06-.03,.09h0Z"/><path class="cls-4" d="M339.33,352.72c1.68,.7,3.24,2.42,4.39,3.77,1.26,1.48,2.32,3.14,3.14,4.92,1.76,3.82,2.38,8.11,1.66,12.26,0,.03,.02,.11,.04,.05,.67-3.87,.19-7.86-1.31-11.5-.78-1.89-1.83-3.68-3.12-5.28-.64-.8-1.34-1.54-2.1-2.23-.84-.77-1.83-1.36-2.68-2.11-.02-.02-.05,.1-.01,.12h0Z"/><path class="cls-4" d="M347.34,349.71c1.22,1.54,2.12,3.47,2.97,5.23s1.64,3.69,2.29,5.59c1.28,3.75,2.12,7.65,2.52,11.59,.82,8.09-.23,16.3-3.17,23.88,0,.02,.01,.11,.03,.07,2.92-7.41,4.02-15.47,3.28-23.4-.37-4.02-1.21-7.99-2.5-11.81-.64-1.91-1.4-3.78-2.26-5.6-.93-1.96-2.12-3.75-3.13-5.65-.03-.05-.05,.06-.03,.09h0Z"/></g></svg>