<?xml version="1.0" encoding="UTF-8"?><svg id="Layer_1" xmlns="http://www.w3.org/2000/svg" viewBox="0 0 1500 750"><defs><style>.cls-1{fill:#446862;}.cls-2{fill:#c1d6d2;}.cls-3{fill:#231f20;}</style></defs><g><g><path class="cls-1" d="M905.11,395.08c2.23,.15,3.75,.17,3.75,.17-1.3-.1-2.55-.15-3.75-.17Z"/><path class="cls-1" d="M726.07,412.54l32.47,6.51,23.97-17.78s-55.08,2.5-56.44,11.27Z"/><path class="cls-1" d="M935.14,345.28c1.49,.11,2.99,.18,4.49,.18,0,0-1.89-.13-4.49-.18Z"/><path class="cls-1" d="M1109.6,320.42c-11.68,2.82-23.15,5.22-31.56,6.12-30.33-.77-60.46,23.11-109.08,28.65-10.22,1.16-26.42,.33-46.83-1.77-.58-1.38-1.39-3.02-1.87-4.72-.93-3.26,8.87-3.54,14.88-3.41-19.06-1.37-36.78-10-37.44-4.02-.71,6.43-7.12,8.4-7.15,8.4-55.5-7.24-129.24-19.39-200-27.47-2.66-4.25-5.88-5.72-10.37-9.54-4.75-4.04-9.37-13.21-7.02-17.47s0-6.9,0-6.9c-4.36-8.87,7.83-32.36,7.83-32.36-5.94,.27-36.27,16.84-43.71,28.65-7.44,11.81-32.88,30.24-32.88,30.24-132.73-6.29-304.4,24.15-304.4,24.15,0,0,2.87,2.69,8.46,6.53l-.07-.03c2.16,5.37,36.28,18.41,36.28,18.41,4.99,7.89,25.22,14.96,34.41,15.33,6.08,.25,26.86,2.86,40.22,4.6,.6,.42,1.17,.84,1.72,1.26-11.38-.25-30.28-.42-44.97,.61,0,0,26.74,10.84,74.69,16.48,0,0,4-1.13,9.14-2.73,9.26,1.32,16.31,2.21,23.3-2.19,0,0,7.74,26.61,5.44,39.87-2.3,13.26,13.12,50.59,22.58,53.53,0,0,4.75-16.05,5.48-34.95,4.76-11.86,13.66-26.71,30.23-37.66,0,0-1.14-1.99-4.67-5.2,26.84,4.57,65.85,6.27,122.38,.63,69.84-6.97,132.17-17.39,187-25.42-7.39,2.27-12.8,4.94-12.08,7.19,0,0,35.39,7.03,38.68,11.95,0,0,5.95-12.37,26.89-12.11-7.14-.46-21.7-2.22-18.27-8.79,.78-1.49-.21-2.39-2.33-2.84,34.14-4.49,65.01-7.42,92.6-7.1,3.57,7.63,14.45,26.49,40.49,42.69,.28,.18,.59-.29,.91-1.22,9.68,7.56,19.29,12.89,23.3,9.95,10.91-8-16.33-12.82-12.37-23.58,3.96-10.76-1.64-22.42-1.64-22.42,89.6-26.34,96.5-55.58,96.5-55.58l13.75,9.3c11.62-17,59.28-36.31,59.28-36.31-5.59-9.57-51.84,10.53-87.74,21.23Zm-745.08,25.6c12.02,.39,17.37-.38,22.43-1.09,.32,3.52,.7,18.38-16.7,11.06,0,0-5.82-4.7-6.76-10.01,.66,.03,1.03,.04,1.03,.04Z"/></g><path class="cls-2" d="M304.66,343.75c15.05,9.95,32.59,15.62,49.78,20.64,2.41,.7,4.83,1.37,7.26,2.02,1.13,.3,2.27,.64,3.42,.87s2.37,.66,3.47,.3c1.03-.33-.78-2.83-1.19-3.11-1.87-1.23-4.22-1.75-6.37-2.32s-4.16-1.13-6.25-1.67c-4.45-1.16-8.88-2.36-13.29-3.67-8.21-2.43-16.32-5.21-24.19-8.6-4.4-1.9-8.76-3.95-13.03-6.12-.69-.35,.02,1.41,.39,1.66h0Z"/><path class="cls-2" d="M320.64,347.47c1.07,.55,1.95,1.11,3.09,1.49s2.19,.72,3.29,1.05c2.01,.61,4.05,1.11,6.09,1.61,4.14,1.02,8.31,1.92,12.52,2.6,8.37,1.36,16.86,2.41,25.35,2.01,1.31-.06-.26-3.56-1.35-3.67-8.42-.82-16.86-1.33-25.23-2.61-4.04-.62-8.08-1.29-12.09-2.1-2-.4-3.98-.87-5.98-1.31-1.05-.23-2.11-.44-3.16-.67-.44-.1-.91-.24-1.35-.3-.57-.08-1.07,.08-1.64,.07-.72-.02,.14,1.67,.46,1.84h0Z"/><path class="cls-2" d="M358.21,366.01c2.97,3.03,7.36,4.98,11.31,6.37,1.98,.7,4.03,1.3,6.1,1.67,1.01,.18,2.04,.31,3.07,.34s1.9-.2,2.91-.56c1.17-.41-.62-3.19-1.29-3.42-1.12-.39-2.16-.76-3.32-.97-1.03-.19-2.06-.35-3.09-.53-1.89-.33-3.75-.75-5.58-1.32s-3.63-1.23-5.36-2.03-3.34-1.95-5.14-2.5c-.53-.16-.48,.79-.45,1.03,.08,.67,.39,1.44,.86,1.92h0Z"/><path class="cls-2" d="M354.47,369.99c.39,.35,.63,.98,.98,1.4,.32,.39,.67,.7,1.06,1.02,.83,.68,1.71,1.32,2.65,1.84,1.85,1.03,3.91,1.75,5.96,2.29,4.39,1.16,8.98,1.76,13.48,2.24s9.17,.87,13.76,1.21c2.29,.17,4.59,.25,6.89,.35s4.39-.21,6.66-.75c.88-.21,.24-2.23,.08-2.65-.36-.93-.96-2.12-1.99-2.43-2.39-.71-4.65-1.27-7.15-1.44-2.11-.15-4.23-.32-6.34-.44-4.47-.25-8.94-.54-13.4-.93-4.19-.37-8.43-.56-12.58-1.21-1.94-.3-3.87-.74-5.7-1.47-.9-.36-1.79-.76-2.62-1.25-.69-.4-1.21-.83-2.03-.53l.68,.3-.32-.29c-.52-.46-.92-.33-.98,.38s.36,1.87,.91,2.37h0Z"/><path class="cls-2" d="M354.76,365.06c2,.14,4.03,.84,5.99,1.26s3.88,.78,5.83,1.09c3.97,.63,7.96,1.14,11.96,1.54,7.85,.78,15.7,.85,23.57,.44,1.41-.07,.18-5.66-1.71-5.63-8.13,.12-16.3-.17-24.41-.73-3.7-.26-7.39-.62-11.06-1.08-1.75-.22-3.5-.42-5.25-.64-1.9-.24-3.89-.38-5.72-.98-1.26-.41-1.07,4.62,.79,4.75h0Z"/><path class="cls-2" d="M384.98,368.46c-.9-.37-1.72-.71-2.69-.86-1.69-.26-.98,4.55,.33,5.01,3.98,1.38,8.27,2.08,12.39,2.91s8.45,1.66,12.7,2.34c8.32,1.33,16.67,2.42,25.05,3.28,4.83,.5,9.68,.99,14.53,1.22l-1.83-7.48c-15.54,1.49-31.16,.37-46.39-3.03l.42,7.38c8.71,1.91,17.44,3.72,26.31,4.71s18.42,1.42,27.67,1.25c.55-.01,.81-1.06,.87-1.4,.17-.89,.06-1.99-.15-2.86-.3-1.21-.91-3.49-2.47-3.54-8.59-.26-17.19-.84-25.73-1.74-9.01-.94-18.05-1.98-26.93-3.8-1.46-.3-1.52,1.99-1.45,2.95,.08,1.02,.47,4.14,1.87,4.43,15.83,3.31,32.12,4.27,48.24,3.14,1.25-.09,.64-3.16,.51-3.7-.24-.96-1.03-3.69-2.34-3.78-8.42-.6-16.82-1.1-25.22-1.99s-16.55-2-24.79-3.25c-4.6-.7-9.26-1.81-13.9-2.1l.91,5.09c.91-.12,1.63-.43,2.47-.79,.94-.41,.43-3.05-.4-3.39h0Z"/><path class="cls-2" d="M387.57,389.5c.19,.89,.38,1.57,1.29,1.93,1.11,.44,2.42,.61,3.59,.83,2.16,.4,4.32,.81,6.47,1.21,4.3,.8,8.63,1.44,12.95,2.14,8.25,1.35,16.51,2.94,24.88,3.22,2.32,.08,4.6,.03,6.91-.26,1.1-.14,2.2-.28,3.28-.51,1.27-.27,2.41-.95,3.51-1.62,.7-.42,.52-1.55,.37-2.22-.13-.58-.57-2.24-1.36-2.3-1.03-.09-2.06-.19-3.09-.24s-2.02,.14-3.03,.21c-2.04,.14-4.1,.15-6.15,.16-4.29,.03-8.58-.36-12.84-.85-8.78-1.01-17.51-2.48-26.29-3.44-2.27-.25-4.54-.58-6.82-.73-.86-.06-2.29-.36-3.03,.21-.56,.43-.81,1.58-.66,2.27h0Z"/><path class="cls-2" d="M414.21,384.64c-1.59,.05-1.38,.53-3.1,2.09l4.11-.26c-2.24-1.65-1.61-1.74-3.44-1.68-.63,.02-1.26,0-1.88-.02-1.36-.02-2.58,0-3.87-.48-2-.74-2.59,5.78-.54,6.38,6.29,1.83,13.04,2.35,19.55,2.97,3.23,.31,6.47,.57,9.72,.79,1.66,.11,3.33,.21,4.99,.3,.83,.04,1.66,.08,2.5,.12,3.11,.14,2.44-.28,5.98-3.33h-7.47c3.58,3.09,2.81,3.43,6.02,3.48,.96,.02,1.92,.02,2.88,.02,1.7,0,3.39,.06,5.09,.05,.61,0,.93-1.15,1.01-1.53,.21-.99,.12-2.22-.09-3.2-.27-1.26-.94-4.04-2.65-4.02-6.47,.09-12.93,.13-19.4,.08-3.1-.02-6.2-.05-9.31-.07-1.54-.01-3.09,0-4.63-.04-.5-.02-1-.04-1.5-.14-.29-.06-.57-.14-.84-.24-.42-.17-.76-.67-.3,.06l-.02,7.1c1.54-.78,2.76-1.99,3.66-3.63l-2.48,.92c.89-.18,1.77-.37,2.66-.57,.64-.14,.14-.06,.76-.12,.45-.05,.89-.1,1.34-.13-.67,.04,.56,0,.68,0,1.97-.02,2.72,.07,4.78,.25,3.96,.36,7.91,.73,11.88,1,8.19,.56,16.39,.89,24.6,.95l-3.93-.91c3.25,2.79,3.16,3.9,6.26,3.44,.74-.11,1.46-.27,2.13-.61,1.47-.74,2.22-1.87,2.54-3.48s-.16-3.6-.99-4.95c-.43-.7-1.69-2.03-2.18-.53-.16,.48-.84,.61-1.56,.69-.35,.04-.69,.05-1.04,.04-2.56-.11-2.12,.81-5.16,3.52l3.93-.91c-3.95,0-7.9-.07-11.85-.19-1.97-.06-3.95-.14-5.92-.23s-3.29-.17-5.49-.31c-8.16-.53-16.47-2-24.6-.56l5.11,.27c-1.6-.66-4.27-2.73-6.45-2.15-1.38,.37-1.35,2.76-1.29,3.82,.07,1.37,.34,3.72,1.7,4.48s2.45,1.23,3.99,1.39c1.44,.15,2.91,.09,4.35,.1,3.43,.02,6.85,.05,10.28,.07,6.67,.04,13.34,.17,20.01,.36l-1.73-8.75c-1.6,0-3.2,.06-4.8,.03-.62,0-1.24-.03-1.85-.04-2.87-.05-2.33,.51-5.61,3.4h7.47c-3.45-3.01-2.69-3.41-5.69-3.45-.81-.01-1.63-.03-2.44-.04-1.63-.03-3.26-.08-4.89-.14-3.26-.12-6.51-.29-9.77-.5-6.57-.44-13.18-1.44-19.75-1.42l.15,6.4c1.33-.6,2.56-.72,4-.87,.64-.07,1.28-.15,1.92-.19,1.95-.11,1.19-.09,3.53-2.07l-4.11,.26c2.3,1.63,1.84,1.81,3.87,1.7,1.25-.06,.66-4.81-.83-4.76h0Z"/><path class="cls-2" d="M430.69,397.61c.92-.17,1.93,.05,2.86,.14s1.91,.18,2.86,.26c1.91,.17,3.82,.33,5.73,.48,3.89,.29,7.79,.52,11.7,.59s7.67-.01,11.5-.33c1.91-.16,3.81-.43,5.7-.74,2.03-.34,4.79-.33,6.37-1.8,.93-.87,.59-2.94,.33-3.98-.2-.79-.79-2.92-1.96-2.73-.43,.07-.85-.14-1.26-.21-.51-.08-.67,.19-1.14,.2-.99,.04-.22,2.72,.08,3.11,.41,.53,.67,1.11,1.12,1.61,.41,.46,.92,.86,1.27,1.36l.33-6.03c-1.84-.59-3.96,.37-5.8,.68s-3.72,.55-5.59,.78c-3.67,.46-7.37,.7-11.07,.8s-7.5,.07-11.25-.04c-1.91-.06-3.83-.14-5.74-.22-.88-.04-1.75-.08-2.63-.13-1-.05-2.14,.03-3.09-.29-1.08-.37-1.46,2.64-1.49,3.18s.04,3.52,1.17,3.31h0Z"/><path class="cls-2" d="M447.65,382.86c2.86,.18,5.69,1.11,8.52,1.6s5.84,.84,8.8,1.02,5.74,.23,8.61,.11c1.54-.06,3.09-.4,4.62-.58s3.17-.42,4.41-1.36l-1.25-2.56c-.04,.49-.01,.55,.09,.2-.09,.23-.18,.45-.28,.67-.2,.46-.4,.92-.61,1.37-.39,.83-.87,1.6-1.52,2.25-1.37,1.37-3.17,2.49-5.15,2.35-1.55-.11-1.93,5.03-.4,5.44,2.44,.66,4.86-.37,6.37-2.34,.81-1.06,1.41-2.31,1.87-3.56,.27-.74,.51-1.49,.68-2.26,.1-.48,.2-.96,.28-1.44,.17-.99-.17,.02,.17-.39,.53-.64,.6-1.82,.57-2.59-.02-.56-.07-1.89-.68-2.19-1.23-.62-2.63-.56-3.96-.47-1.41,.09-2.78,0-4.18,.02-2.94,.06-5.85,.22-8.79,.13s-5.7-.28-8.53-.58-6.2-.49-8.92-1.58c-2.24-.9-2.82,6.6-.7,6.73h0Z"/><path class="cls-2" d="M444.85,363.18l2.82-1.6c.22-.13,.26-.55,.25-.78,0-.13-.03-.58-.26-.48l-2.82,1.18c-.12,.05-.2,.28-.24,.38-.07,.2-.11,.45-.1,.66,0,.14,.06,.81,.35,.64h0Z"/><path class="cls-2" d="M449.78,359.57c-1.15,3.15-1.61,6.52-2.23,9.8-.67,3.51-1.44,7.01-1.59,10.59-.03,.76-.06,2.47,.74,2.97s1.26-.79,1.42-1.33c1.01-3.29,1.31-6.78,1.77-10.18s1.09-6.94,1.1-10.43c0-.5,.05-1.4-.37-1.78-.35-.31-.68-.07-.83,.36h0Z"/><path class="cls-2" d="M462.11,363.51c-.14-.31-.29-.63-.43-.94-.09-.19-.28-.95-.33-.25,.04-.58-.12-3.34-1.33-2.77s-.96,3.22-.77,4.14c.3,1.48,.46,2.96,.58,4.47,.02,.43,.02,.49,.02,.19,0,.24,0,.48,0,.73,0,.36-.01,.73-.03,1.09s-.04,.73-.06,1.09c-.03,.45-.03,.48,0,.11-.02,.18-.04,.36-.06,.54-.05,.42-.11,.84-.17,1.25-.02,.11-.19,1.09-.08,.52-.15,.76-.35,1.52-.57,2.26-.35,1.21-.98,2.68-1.64,4.08l2.55,3.94c1.25-6.78,2.5-13.55,3.79-20.32l-2.5,1.48c.42,1.3,.72,2.74,.95,4.12,.06,.37,.12,.75,.17,1.12-.07-.56,.04,.46,.04,.57,.03,.38,.06,.75,.07,1.13,.01,.25,.02,.5,.03,.75,0-.36,0-.4,0-.11-.02,.75-.07,1.5-.1,2.25-.02,.29-.02,.25,.02-.13-.02,.19-.04,.37-.07,.56-.05,.37-.09,.75-.15,1.12s-.12,.74-.19,1.11c-.05,.26-.05,.25,.01-.03-.04,.18-.09,.37-.13,.55-.23,.96-.47,1.92-.7,2.88-.34,1.47-.58,3.33,.15,4.73,.58,1.12,1.42,.93,1.96-.19,1.84-3.81,2.35-8.53,2.34-12.72-.01-4.39-.67-8.58-2.14-12.72-.2-.57-.66-1.36-1.38-.98-.78,.41-.98,1.73-1.12,2.47-1.33,6.72-2.7,13.43-4.08,20.14-.27,1.3-.21,3.34,.59,4.5,.71,1.03,1.54,.32,1.97-.55,2.03-4.17,3-8.86,3.28-13.46,.13-2.19,.01-4.4-.28-6.57-.14-1-.3-1.99-.55-2.97s-.43-2.25-1.05-3.04l-.64,4.89c.6,.18,.91,.78,1.28,1.25,.35,.45,.62,0,.75-.36,.2-.55,.25-1.41,0-1.95h0Z"/><path class="cls-2" d="M469.39,369.63l.08,.31-.18-1.58c-.17,1.75,.03,3.48,.1,5.24,.03,.75,.03,1.5,.05,2.25,0,.37,.01,.74,.02,1.11,0,.25,0,.49,0,.74,0-.32,0-.34,0-.07-.04,1.47-.11,2.92-.23,4.38-.03,.36-.06,.73-.09,1.09-.01,.12-.13,1.2-.07,.75s-.09,.62-.11,.74c-.06,.43-.13,.85-.19,1.27-.15,1.01-.23,2.05-.06,3.06,.09,.55,.31,1.52,.83,1.89,1.3,.91,2.08-1.92,2.19-2.62,.64-3.89,.88-7.81,.77-11.75-.05-1.72-.21-3.44-.46-5.15-.23-1.58-.35-3.46-1.31-4.79l.34,1.34-.03-.38c-.05-.55-.42-2.42-1.27-1.43-.77,.88-.64,2.57-.36,3.59h0Z"/><path class="cls-2" d="M485.99,364.22c-.17-2.91-1.52-5.08-3.16-7.4-1.45-2.05-2.23,2.86-2.19,3.62,.1,1.95,.52,3.85,.83,5.78,.24,1.55,.46,3.29,.54,4.48,.12,1.68,.19,3.36,.24,5.04,.03,.87,.03,1.75,.03,2.62,0,.4-.01,.79-.02,1.19,.04-1.24-.03,.33-.03,.46-.09,1.65-.25,3.29-.47,4.93-.08,.62-.03,.91-.01,.13,0,.43-.15,.96-.23,1.38-.13,.73-.29,1.46-.43,2.2-.24,1.24,.42-1.11-.03,.05l.2-.5c-.21,.36-.24,.43-.09,.19,.29-.39-.36,.38-.44,.44,.41-.33-.34,.13-.4,.15-.93,.41-1.17,.67-2.07,.56-1.01-.12-1.52,1.71-1.68,2.37-.61,2.59-.08,5.2,1.7,7.17,1.29,1.43,3.28,.96,4.46-.38,1.75-1.99,2.41-4.82,2.81-7.37s.71-4.92,.87-7.4c.31-4.77,.3-9.61-.31-14.35-.28-2.17-.74-4.31-1.22-6.44-.23-1.02-.47-2.03-.76-3.03-.31-1.07-.61-2.42-1.28-3.29l-.78,6.07c1.41-.46,2.74,.87,2.94,2.24,.06,.37,.2,.76,.59,.56s.42-1.15,.4-1.47h0Z"/><path class="cls-2" d="M484.94,386.74c-.73,.41-1.02,1.13-1.34,1.87-.3,.68-.55,1.37-.81,2.06-.45,1.2-.63,2.76-.16,3.98,.11,.3,.31,.7,.68,.75,.45,.06,.82-.46,.99-.79,1.06-1.99,1.97-4.05,2.92-6.1l-1.44,.69c1.16,.93,2.33,1.85,3.49,2.77,.53,.42,1.09,.92,1.68,1.26,.64,.36,1.4,.41,2.11,.51,.66,.09,1.03-1.23,1.11-1.65,.16-.82,.29-1.97-.18-2.73s-.96-1.55-1.52-2.27c-.47-.59-1.19-1.06-1.79-1.52-1.15-.88-2.3-1.76-3.46-2.64-.85-.64-1.49,.79-1.73,1.34-.93,2.12-1.88,4.22-2.7,6.38l1.99,2.64c.42-1.82,1.04-3.79,.8-5.66-.03-.24-.17-1.17-.64-.91h0Z"/><path class="cls-2" d="M488.06,384.19c-.43-.52-.93-.85-1.42-1.29-.55-.5-.91-1.14-1.55-1.56-1.41-.92-2.63,4.59-1.16,5.43,6.07,3.48,12.74,6.15,19.33,8.47s13.25,4.93,20.15,5.77c1.95,.24,2.46-6.15,.9-6.83-6.37-2.79-13.22-4.4-19.81-6.62s-13.05-4.6-19.7-6.35l-.24,5.63c.43-.17,1.08-.65,1.57-.57s.97,.56,1.31,.87c.47,.43,.83-.75,.89-1,.14-.62,.17-1.42-.26-1.94h0Z"/><path class="cls-2" d="M547.14,416.77c12.77,3.31,25.8,5.47,38.96,6.39,13.1,.92,26.21,.84,39.32,.24,26.81-1.23,53.52-4.79,79.93-9.46,7.39-1.31,14.77-2.68,22.14-4.08,7.38-1.41,14.67-2.89,21.84-5.18,1.49-.48,.16-5.75-1.42-5.65-8.23,.54-16.27,2.02-24.39,3.46s-15.82,2.75-23.75,4.03c-15.83,2.54-31.67,4.96-47.62,6.64-4.54,.48-9.09,.92-13.64,1.3-2.23,.19-4.46,.36-6.69,.5-1.06,.07-2.12,.14-3.18,.21-.45,.03-.91,.06-1.36,.09-2.43,.15-2.11,.91-4.85,3.34h6.94c-3.29-2.2-3.27-3.26-5.91-3.12-.57,.03-1.14,.06-1.71,.08-1.38,.06-2.77,.12-4.15,.17-2.53,.09-5.05,.17-7.58,.21-5.14,.1-10.28,.06-15.41,.04-10.12-.05-20.23-.53-30.32-1.19-5.69-.37-11.33-1.08-16.95-2.04-.98-.17-1.33,3.73-.2,4.02h0Z"/><path class="cls-2" d="M529.56,394.62c22.21,2.13,44.64,1.91,66.93,1.96,22.3,.04,44.62-.43,66.91-.99,6.29-.16,12.58-.33,18.86-.52,3.14-.1,6.29-.19,9.43-.29,1.62-.05,3.25-.11,4.87-.16,.71-.02,1.42-.05,2.13-.07,3.2-.11,2.25-.49,6.08-3.77l-7.48,.35c2.11,1.79,2.59,3.38,4.79,3.31,.63-.02,1.26-.04,1.88-.06,1.05-.04,2.09-.07,3.14-.11,2.3-.08,4.61-.17,6.91-.26,4.56-.18,9.12-.37,13.69-.55,8.94-.34,17.87-.7,26.81-1.07,17.44-.71,34.97-1.04,52.37-2.52,9.6-.82,19.11-2.33,28.37-5.02,1.09-.32,.04-3.15-.15-3.64-.51-1.31-1.27-2.94-2.63-3.53-1.67-.74-3.39-1.27-5.05-2.04-.93-.43-.8,1.75-.77,2.14,.09,.91,.37,2.74,1.32,3.24,2.2,1.14,4.26,2.45,6.43,3.63l-2.32-6.95c-16.36,4.01-33.32,4.68-50.08,5.39s-35.1,1.47-52.65,2.17c-4.84,.19-9.68,.36-14.52,.54-2.33,.08-4.67,.17-7,.25-1.17,.04-2.33,.09-3.5,.13-.58,.02-1.17,.04-1.75,.07-2.89,.11-2.3,.83-5.7,3.76l7.48-.35c-.5-.42-3.33-3.13-3.94-3.25-.37-.08-.72-.05-1.1-.04-.6,.02-1.21,.04-1.81,.07-1.51,.05-3.01,.11-4.52,.16-2.71,.1-5.43,.19-8.14,.28-5.53,.19-11.05,.37-16.58,.55-11.15,.35-22.31,.67-33.47,.93-22.13,.51-44.27,.91-66.4,1.04-12.66,.08-25.31,.15-37.96,.81-1.25,.07-2.02,4.33-.88,4.44h0Z"/><path class="cls-2" d="M820.89,378.29c-28.13,6.15-56.44,11.46-84.73,16.79-14.15,2.67-28.31,5.28-42.46,7.94s-28.2,5.36-42.42,7.28c-7.95,1.08-15.95,1.94-23.96,2.31-7.91,.36-15.83,.02-23.52-2.03l-3.72,6.65c17.65,.1,35.27-.44,52.86-1.92,17.49-1.47,34.95-3.43,52.36-5.6,17.26-2.15,34.47-4.75,51.63-7.55,17.16-2.8,34.28-5.88,51.35-9.23,17.38-3.42,34.72-7.03,51.98-11.04,2.11-.49,4.22-.99,6.33-1.48l-1.49-7.73c-2.88,.73-5.76,1.49-8.63,2.27-1.91,.51-.4,8.04,1.32,7.63,2.94-.7,5.87-1.42,8.8-2.16,1.91-.48,.3-8.16-1.49-7.73-16.59,3.9-33.23,7.63-49.93,11.02-16.94,3.44-33.93,6.6-50.97,9.49s-34.13,5.5-51.26,7.84-34.24,4.59-51.41,6.41c-8.58,.91-17.17,1.7-25.78,2.26s-17.23,1.07-25.88,.96c-2.15-.03-4.29-.08-6.43-.14-1.66-.05-5.2,6.21-3.72,6.65,13.48,3.93,28.18,2.34,41.91,.73,14.51-1.7,28.89-4.37,43.24-7.08,28.9-5.46,57.82-10.88,86.59-17,16.25-3.46,32.48-7.02,48.69-10.68,1.23-.28,1.96-5.13,.76-4.86h0Z"/><path class="cls-2" d="M482.4,381.52c1,.34,1.99,.73,3.02,.92s2.12,.3,3.18,.39c2.31,.19,4.63,.44,6.95,.58,4.31,.27,8.64,.33,12.96,.49,8.82,.34,17.65,.69,26.48,.95,17.68,.52,35.36,1.04,53.03,1.56,35.31,1.03,70.62,2.03,105.93,2.72,19.89,.39,39.78,.51,59.67,.52,1.18,0,.4-5.72-1.3-5.8-34.94-1.75-69.89-2.85-104.86-3.73-35.11-.88-70.23-1.6-105.34-2.34-9.87-.21-19.74-.36-29.61-.48-4.85-.06-9.7-.12-14.55-.18-2.53-.03-5.08,.11-7.61,.19-1.29,.04-2.56,.14-3.84,.24-1.21,.1-2.38,.49-3.55,.79-.7,.18-1.36,2.91-.55,3.18h0Z"/><path class="cls-2" d="M495.09,381.66c-.51,.07-1,.16-1.52,.14-1.21-.05-1.65,3.25-1.09,3.97,.82,1.05,2.08,1.37,3.28,1.87,1.29,.54,2.58,1.05,3.9,1.51,2.46,.87,4.93,1.74,7.38,2.63,4.99,1.8,9.96,3.67,14.97,5.44,9.99,3.52,19.91,7.23,29.81,11,5.62,2.14,11.21,4.34,16.84,6.47,1.45,.55,3.02-6.73,.94-7.63-9.64-4.14-19.46-7.87-29.33-11.41-9.86-3.54-19.75-6.92-29.79-9.88-2.78-.82-5.56-1.62-8.35-2.42-1.47-.42-2.94-.83-4.44-1.15-1.4-.3-2.94-.91-4.32-.39l-.48,4.03c.57-.2,1.16-.28,1.75-.39,.97-.17,1.6-3.98,.47-3.81h0Z"/><path class="cls-2" d="M532.13,403.13c9.8,3.25,19.86,5.76,29.96,7.92s20.58,4.03,30.92,3.05c1.91-.18,2.42-7.14,.57-7.29-1.98-.16-3.99-.76-5.94-1.16s-3.94-.8-5.9-1.21c-3.86-.81-7.72-1.61-11.57-2.48-7.69-1.74-15.55-3.15-23.09-5.46l-.78,8.23c4.91,1.12,9.94,1.82,14.89,2.76s10.26,1.98,15.42,2.82c10.16,1.67,20.31,3.41,30.47,5.06,5.89,.96,11.78,1.89,17.66,2.88,.9,.15,1.7-1.22,2-1.78,.76-1.4,1.21-3.24,1.41-4.8s.38-3.39,0-5c-.22-.91-.45-1.91-1.42-2.28-25-9.5-52.11-8.45-78.08-13.26-6.9-1.28-14.06-2.96-20.3-6.26l-3.74,14.87c1.17,0,2.34,0,3.51-.06l-.76,.02c20.36,1.03,40.75,1.71,61.14,1.98,20.52,.27,41.05,.11,61.56-.49,5.74-.17,11.48-.37,17.22-.61,2.87-.12,5.74-.28,8.61-.44,1.43-.08,2.87-.17,4.3-.26,.67-.04,1.35-.08,2.02-.12,4.56-.28,4.21-2.23,9.35-7.01l-5.31,1.8c6.42-.44,12.85-.78,19.27-1.25l-8.33-1.15c3.45,2.29,6.11,6.17,10.17,5.7,.55-.06,1.1-.13,1.64-.19,1.18-.14,2.37-.29,3.55-.43,2.44-.31,4.87-.63,7.3-.97,.82-.11,1.04-1.72,1.09-2.23,.18-1.49-.05-3.25-.39-4.69s-.79-3.11-1.65-4.41c-.47-.71-.99-1.55-1.94-1.55-2.32,0-4.63,.02-6.95,.04-1.11,0-2.22,.02-3.33,.03-.59,0-1.18,.01-1.76,.02-3.85,.05-5.61,4.07-8.48,6.75l5.15-1.75c-5.8,.34-11.59,.69-17.39,.99l8.55,1.19c-2.93-2.08-5.97-6.29-9.97-6.12-.57,.02-1.13,.05-1.7,.07-1.29,.05-2.59,.11-3.88,.16-2.51,.1-5.01,.18-7.52,.29-5.02,.23-10.03,.44-15.05,.62-10.12,.37-20.24,.64-30.36,.82-20.17,.35-40.36,.31-60.53-.11-11.8-.25-23.66-.53-35.42-1.49-1.07-.09-1.85,.95-2.37,1.72-.98,1.44-1.68,3.39-2.08,5.07s-.8,3.65-.56,5.45c.13,.97,.25,2.2,1.28,2.64,6.26,2.67,12.69,4.68,19.37,6,6.46,1.28,13.01,2.05,19.55,2.73,13.3,1.39,26.68,2.3,39.87,4.6,7.2,1.26,14.39,2.92,21.34,5.18l1.99-13.86c-20.55-2.08-41.06-4.72-61.65-6.31-6-.46-12-1.3-18-1.57-1.38-.06-1.76,3.07-1.83,3.98-.07,.84-.33,4.09,1.05,4.25,7.89,.94,15.72,2.85,23.51,4.38,3.92,.77,7.82,1.61,11.73,2.44,1.84,.39,3.67,.79,5.51,1.19,1.96,.43,4.06,.7,5.95,1.35l.57-7.29c-10.19-.29-20.21-1.29-30.22-3.3-5.01-1.01-10-2.17-14.98-3.33s-10.24-2.1-15.39-2.93c-1.44-.23-2.35,5.39-.87,5.88h0Z"/><path class="cls-2" d="M730.77,392.64c-7.75-.11-15.5-.09-23.23,.41s-15.55,1.38-23.29,2.33c-15.32,1.88-30.62,4.21-46.03,5.19-8.72,.55-17.47,.61-26.17-.17l-3.21,7.69c7.74-1.81,15.67-2.72,23.58-3.41,8.21-.72,16.44-1.25,24.66-1.89,16.7-1.31,33.4-2.63,50.11-3.95,9.48-.75,18.97-1.45,28.46-2.14l1.54-10.07c-16.49,3.74-33.05,7.24-49.62,10.66-16.3,3.36-32.66,6.61-49.07,9.44-9.01,1.56-18.24,2.65-27.34,1.2l-2.71,9.83c4.53-3.31,10.02-4.57,15.52-5.18,6.24-.7,12.57-.67,18.84-.85,14.11-.41,28.22-.84,42.34-1.18,8.38-.21,16.76-.33,25.14-.61l2.97-10.3c-8.01,.27-15.98,.78-23.95,1.61-7.71,.8-15.36,2.02-23.06,2.91-2.22,.26-2.39,8.1-.98,7.93,7.56-.88,15.27-1.12,22.88-1.43,7.37-.3,14.76-.54,22.14-.72,3.14-.08,4.73-10.35,2.97-10.3-14.43,.35-28.86,.98-43.3,1.4-7.13,.21-14.27,.41-21.4,.62-6.46,.19-12.96,.18-19.39,.74s-13.39,2.16-19.11,5.91c-1.51,.99-2.51,3.83-2.93,5.48-.18,.72-1.08,4.13,.22,4.36,8.51,1.48,17.13,.9,25.64-.31,8.4-1.2,16.77-2.75,25.12-4.31,16.6-3.11,33.16-6.46,49.65-10.14,9.5-2.12,18.94-4.43,28.38-6.77,.63-.16,1.29-1.7,1.47-2.14,.41-1.03,.68-2.1,.84-3.2,.09-.62,.59-4.87-.77-4.73-16.47,1.71-32.95,3.25-49.43,4.83s-32.98,3.13-49.45,4.81c-9.12,.93-18.2,2.05-27.12,4.2-1.39,.33-2.39,2.68-2.86,3.8-.18,.42-1.42,3.81-.36,3.89,15.7,1.26,31.5,0,47.07-2.19,15.58-2.19,31.06-5.05,46.72-6.58,8.82-.86,17.74-1.45,26.58-.71,1.8,.15,2.87-5.93,1.96-5.94h0Z"/><path class="cls-2" d="M548.26,398.6c-.58-.64-.84-1.23-1.12-2.05-.35-1.01-1.11,.11-1.33,.58-.42,.87-.87,2.37-.51,3.34,1.25,3.29,3.19,6.43,5.06,9.4s3.86,5.88,5.95,8.71l2.05-6.82c-2.55-3.17-5.6-6.01-8.6-8.75s-6.26-5.35-9.63-7.73c-1.41-1-2.89,5.21-1.56,6.3,4.33,3.56,8.54,7.34,12.5,11.31l1.31-7.12c-7.14-.8-13.86-3.94-18.96-9.01l-1.29,7.7c3.85,2,7.6,4.19,11.23,6.55,1.78,1.16,3.54,2.35,5.26,3.59,.86,.62,1.72,1.25,2.57,1.89,.42,.32,.85,.64,1.27,.97,.17,.13,1.16,1.12,1.01,.55l.02-4.24-.05,.29,.96-2.51c.23,.04,.21,.02-.08-.08-1.6-.65-2.78,7.15-1.21,8.2s2.59-1.24,2.92-2.52c.52-2.08,.88-5.07-.65-6.84-.9-1.04-2.33-1.81-3.45-2.6s-2.33-1.62-3.51-2.4c-4.92-3.25-10.05-6.15-15.34-8.73-1.01-.49-1.72,2.9-1.78,3.25-.2,1.2-.52,3.48,.48,4.44,5.32,5.11,12.26,8.28,19.63,8.79,1.12,.08,1.56-2.3,1.69-2.99,.19-1.08,.55-3.25-.38-4.12-4.02-3.77-8.36-7.13-12.57-10.67l-1.56,6.3c3.31,2.41,6.47,5.02,9.44,7.84s5.6,6.02,8.29,9.16c.89,1.04,1.89-1.74,2.04-2.21,.36-1.18,.92-3.5,.01-4.61-2.07-2.51-4.04-5.08-5.92-7.73-.93-1.31-1.85-2.63-2.76-3.95s-1.66-2.65-2.68-3.82l-1.37,4.64c.74,.26,.97,.52,1.41,1.15,.4,.58,1.02-.88,1.1-1.09,.19-.53,.6-1.85,.12-2.37h0Z"/><path class="cls-2" d="M552.91,415.31l22.45,2.02c3.7,.33,7.42,.52,11.12,.76s7.62,.34,11.46-.11c1.52-.18,2.09-5.49,.58-5.86-3.74-.9-7.47-1.26-11.3-1.46s-7.43-.45-11.14-.56l-22.58-.65c-1.53-.04-2.04,5.73-.58,5.86h0Z"/><path class="cls-2" d="M512.04,387.97c-1.2-.05-2.24-1-2.13-2.27l-1.32,2.56c3.72,.31,7.45,.41,11.17,.7s7.44,.73,11.14,1.29c1.32,.2,2.17-4.78,.98-4.92-7.4-.86-15.04-1.46-22.46-.66-.85,.09-1.2,2.34-1.13,2.94,.17,1.57,1.45,2.67,3.01,2.8,.76,.06,1.22-2.41,.74-2.43h0Z"/><path class="cls-2" d="M401.39,371.21c7.34,.42,14.4,3.45,21.42,5.43s14.3,3.67,21.56,5.01c14.41,2.66,28.99,4.23,43.59,5.41,30.31,2.46,60.74,3.87,91.15,4.14,17.28,.15,34.57-.02,51.85-.51,.88-.02,1.25-2.98,.67-2.96-30.6,.73-61.23,.42-91.82-.71-15.33-.57-30.66-1.38-45.96-2.47s-29.17-2.37-43.6-4.72c-8.14-1.33-16.24-2.95-24.23-5.01-7.86-2.03-15.51-4.83-23.6-5.89-.8-.11-1.68,2.24-1.02,2.28h0Z"/><path class="cls-2" d="M415.61,372.04c42.67,2.29,85.35,4.2,128.06,5.61,42.62,1.4,85.27,2.65,127.92,3.15,24.08,.29,48.14,.26,72.22,.02,.63,0,.68-2.59,.06-2.6-21.32-.49-42.63-1.01-63.95-1.38s-42.19-.69-63.28-1.11c-42.46-.84-84.91-2.09-127.36-3.52-24.27-.82-48.54-1.58-72.81-2.53-.64-.03-1.57,2.33-.85,2.37h0Z"/><path class="cls-2" d="M719.34,388.4c24.09,.58,48.23-.59,72.27-2.13s48.39-3.78,72.47-6.78c13.7-1.71,27.35-3.71,40.93-6.24,.82-.15,1.77-3.16,1.05-3.07-23.87,3.21-47.71,6.64-71.67,9.19-24.13,2.56-48.32,4.43-72.56,5.54-13.77,.63-27.54,1.09-41.31,1.68-.56,.02-1.62,1.8-1.17,1.81h0Z"/><path class="cls-2" d="M728.89,377.43c-1.16-.36-2.25-.71-3.33-1.27l-1.12,2.39c3.61,.4,7.34,.1,10.97-.02s7.31-.23,10.96-.33c7.31-.21,14.63-.39,21.94-.61,14.75-.45,29.51-.83,44.26-1.14,29.67-.63,59.34-1.04,89.02-1.22,16.76-.1,33.5-.04,50.25-.64,.83-.03,1.12-3.35,.42-3.38-14.71-.63-29.4-.59-44.12-.49-14.76,.1-29.52,.2-44.28,.47-29.47,.54-58.94,1.33-88.4,2.39-8.32,.3-16.63,.65-24.94,1.04-4.16,.19-8.32,.39-12.48,.59s-8.48,.21-12.6,.96c-.52,.09-1.54,2.31-.99,2.4,1.21,.2,2.31,.56,3.47,.96,.58,.2,1.44-1.93,.98-2.07h0Z"/><path class="cls-2" d="M767.26,401.1c7.34-.66,14.63-1.8,21.93-2.8,7.19-.99,14.38-1.93,21.57-2.83,14.39-1.8,28.8-3.46,43.22-5.07,28.95-3.22,57.98-5.74,87.05-7.59,8.24-.52,16.49-.99,24.74-1.41s16.53-.52,24.71-1.62l.65-5.39c-2.02,.57-3.63,1.39-5.48,2.36-.37,.19-1.94,2.74-1.32,2.84,2.09,.32,4.04,.38,6.15,.19,1.26-.11,1.72-5.33,.65-5.39-7.37-.41-14.74,.13-22.1,.53s-14.37,.83-21.55,1.3c-14.37,.96-28.72,2.09-43.06,3.39-28.97,2.63-57.88,5.87-86.65,10.16-8.1,1.21-16.2,2.47-24.29,3.78s-16.33,2.56-24.34,4.47c-.75,.18-1.33,.96-1.7,1.58-.11,.18-.83,1.55-.17,1.49h0Z"/><path class="cls-2" d="M834.21,386.73c3.08-.13,6.18,.12,9.26,.18s6.1,.12,9.14,.12c5.97-.01,11.95-.03,17.92-.04,12.22-.03,24.43-.03,36.65-.1,24.41-.16,48.82-.3,73.22-.45,6.84-.04,13.67-.08,20.51-.12,3.42-.02,6.84-.04,10.26-.06,1.67,0,3.34-.02,5.01-.03,.75,0,1.55,.07,2.28-.13,.97-.26,1.93-.77,2.87-1.13,.89-.34,1.55-1.24,2.04-2.01,.19-.29,1.26-1.93,.71-2.23-1.63-.87-3.18-1.18-5.05-1.16-1.58,.02-3.15,.07-4.73,.11-3.07,.07-6.14,.14-9.21,.22-5.97,.14-11.95,.28-17.92,.42-12.2,.29-24.41,.57-36.61,.86-24.53,.57-49.05,1.13-73.57,1.8-6.83,.19-13.67,.37-20.5,.56-3.44,.09-6.88,.24-10.31,.39s-6.99,.57-10.46,.51c-.8-.01-1.94,2.33-1.51,2.31h0Z"/><path class="cls-2" d="M1025.56,370.95c-.1,.49-.13,.97-.09,1.47,.02,.31,.11,.62,.22,.91,.07,.21,.18,.45,.33,.61,.2,.2,.42,.38,.67,.52,.18,.1,.46-.19,.55-.28,.21-.24,.36-.51,.5-.8,.14-.31,.28-.64,.33-.97,.04-.26,.09-.56-.03-.81-.1-.2-.18-.41-.25-.62l.07,.23c-.06-.19-.11-.39-.17-.58l.07,.24c-.11-.34-.16-.69-.18-1.05v.36c0-.19,.02-.39,.04-.58l-.06,.45c.02-.12,.04-.25,.07-.37l-.13,.52c.03-.1,.06-.2,.09-.3,.15-.43,.25-.95,.18-1.41,0-.2-.09-.34-.26-.44-.14-.04-.26-.02-.36,.06-.39,.2-.64,.59-.86,.96-.35,.59-.61,1.23-.74,1.9h0Z"/><path class="cls-2" d="M849.89,387.3c1.27-.14,2.55-.12,3.82-.27,1.39-.17,2.77-.36,4.15-.53,2.61-.32,5.22-.63,7.83-.92,5.31-.59,10.62-1.11,15.94-1.57,10.67-.91,21.36-1.67,32.06-2.13,2.84-.12,5.69-.22,8.54-.3,3.1-.09,6.35,.14,9.37-.63,1.07-.27,1.7-2.41,1.94-3.26,.15-.55,.8-2.89-.14-3.13-2.5-.63-5.17-.28-7.72-.18-2.82,.1-5.65,.22-8.47,.36-5.32,.26-10.64,.58-15.95,.97-10.57,.78-21.11,1.9-31.62,3.28-2.94,.39-5.87,.79-8.81,1.22-1.47,.21-2.93,.43-4.4,.65-1.6,.24-3.14,.68-4.72,.97-1.5,.27-3.31,5.64-1.82,5.47h0Z"/><path class="cls-2" d="M872.94,383.27c4.73-1.26,9.84-1.58,14.69-2.16s9.78-1.06,14.68-1.47c9.77-.81,19.55-1.37,29.35-1.57,19.49-.4,38.98,.17,58.4,1.93,5.31,.48,10.59,1.18,15.9,1.72,1.96,.2,3.99,.27,5.92-.17,2.95-.68,5.17-2.61,6.92-5.04,.4-.55,1.63-2.16,1.25-2.98s-1.45,.17-1.84,.49c.32-.27-.05-.03-.23,.05-.33,.15-.65,.29-.99,.41-.83,.31-1.69,.47-2.57,.56-1.83,.17-3.68,.01-5.5-.2-4.7-.55-9.39-1.14-14.11-1.59-9.7-.94-19.41-1.56-29.16-1.78-19.45-.44-38.86,.5-58.19,2.75-5.36,.62-10.71,1.38-16.04,2.21-2.75,.43-5.5,.88-8.24,1.36s-5.4,1.14-8.13,1.32c-.91,.06-1.72,1.5-2.08,2.2-.11,.21-.89,2.19-.05,1.97h0Z"/><path class="cls-2" d="M1011.64,370.89c.7-.03,1.29-.62,1.74-1.1,.42-.45,1.37-1.5,1.19-2.25-.06-.22-.23-.43-.43-.53-.12-.06-.27-.12-.41-.11,0,0-.46,.08-.18,.03,.25-.04-.1,0-.21,.04-1.01,.35-1.96,1.59-2.43,2.51-.3,.6-.58,1.26-.22,1.89,.46,.81,1.59,1.17,2.43,1.43,1.9,.59,3.9,.9,5.41,2.31,.62,.58,1.12,1.27,1.29,2.12,.1,.47,.07,.55,0,.98-.05,.36,.15-.38-.04,.09-.12,.31,.26-.48,.27-.5,.15-.23,.18-.28,.09-.15-.15,.21-.05,.08,.31-.41,0,.01,.65-.66,.29-.33,.04-.03,.57-.48,.26-.24-.33,.26,.17-.12,.19-.13-.11,.04-.21,.14-.31,.2-.08,.05-.18,.1-.26,.15-.22,.16,.45-.21,0,0-.19,.09-.38,.18-.57,.25-.87,.36-1.79,.63-2.71,.86-.51,.13-1.16,.77-1.5,1.12-.46,.48-.87,.99-1.22,1.56-.15,.24-1.18,2.25-.22,2.09,1.56-.26,3-.7,4.39-1.45,2.14-1.16,4.01-3.26,4.94-5.5,.67-1.59,.56-3.23-.51-4.61s-2.69-2.01-4.33-2.43c-1.01-.26-2.05-.47-3.08-.65-.7-.12-1.7-.28-1.94-.97l-.14,.66v-.03l-1.26,1.76,.06-.05-1.09,.77c-.24,.05-.14,.02,0,.15,.03,.03,.07,.1,.11,.12,.05,.03-.02-.07-.02,.02l.13-.62-.02,.04,1.63-2.06-.04,.03,.7-.43,.12-.03c-.84,.04-1.67,1.07-2.11,1.7-.13,.19-1.1,1.74-.34,1.7h0Z"/><path class="cls-2" d="M477.66,390.44c1.53,2.93,5.93,3.54,7.92,.76,.63-.88,.8-2.13,.65-3.19-.09-.66-.45-1.68-1.19-.97-2.53,2.44-2.84,6.88-1.47,9.97,.33,.74,1.03,.23,1.25-.27,.42-.95,.82-1.9,1.27-2.83l-1.49-.15c.39,1.81,.46,3.63,.8,5.44s.65,3.78,.92,5.67c.5,3.54,.89,7.1,1.19,10.66,.62,7.35,.98,14.72,1.64,22.09,1.12,12.43,3.18,24.95,8.43,36.36,2.88,6.26,6.81,11.92,11.86,16.62,1.05,.98,2.16-1.17,2.38-1.83,.53-1.61,.72-3.65,.06-5.26-.72-1.76-1.46-3.6-2.81-4.98-1.76-1.8-2.51,2.44-2.36,3.53,.37,2.56,.98,4.96,1.93,7.36l2.44-7.08c-8.44-8.06-13.16-19.03-15.9-30.19-3.07-12.5-3.24-26.11-4.48-39.11-.36-3.84-.79-7.67-1.4-11.48-.33-2.02-.72-4.04-1.14-6.04-.39-1.86-1.15-3.54-1.71-5.36-.46-1.47-1.33-.61-1.7,.37s-.8,2-1.21,2.99l1.46-.77c-.09-.19-.12-.46-.22-.62-.07-.11,.03,.19-.05,.33,.28-.45,.45-.86,.84-1.26l-.54-4.16c-1.38,2.07-5.07,2.01-6.12-.35-.42-.94-1.12,.25-1.28,.68-.32,.89-.44,2.2,.02,3.07h0Z"/><path class="cls-2" d="M485.59,390.51c-.54,4.25-.48,8.58-.52,12.87-.04,3.74-.04,7.48,.01,11.22,.09,6.71,.43,13.41,1.26,20.07,1.74,13.91,5.61,27.28,12.34,39.62,3.58,6.55,7.82,12.66,12.24,18.66,1.47,2,3.21-.16,3.75-1.75,.72-2.14,1.18-5.8-.38-7.76-7.97-10.07-14.89-21.44-18.92-33.5s-5.73-25.63-6.51-38.73c-.22-3.75-.36-7.49-.44-11.25s.05-7.5-.47-11.17c-.09-.64-.53-1.23-1.17-.83-.72,.44-1.09,1.8-1.18,2.55h0Z"/><path class="cls-2" d="M727.45,416.33c.74,.01,1.21,.4,1.85,.7,.56,.26,1.13,.41,1.72,.58,1.05,.3,2.09,.61,3.13,.94,2.23,.7,4.44,1.46,6.63,2.25s4.37,1.64,6.51,2.56c1,.43,1.99,.85,3,1.26,.56,.23,1.13,.53,1.7,.7,.61,.19,1.11,.17,1.76,.17,1.29,0,1.79-2,1.96-2.95,.23-1.29,.36-3.11-.65-4.12-.51-.51-.94-.97-1.56-1.33-.55-.31-1.18-.53-1.76-.79-1-.44-2-.85-3.02-1.22-2.25-.81-4.53-1.55-6.83-2.23s-4.47-1.21-6.74-1.69c-1.13-.24-2.27-.47-3.41-.68-.62-.11-1.21-.23-1.84-.19-.72,.05-1.14,.16-1.85-.12-1.02-.41-1.53,2.44-1.58,2.96-.06,.64-.16,3.19,.97,3.21h0Z"/><path class="cls-2" d="M849.85,391.73c-.59,.77-1.1,.2-1.61-.33l-1.14,3.42c4.96,1.62,10.02,2.9,14.96,4.61,2.4,.83,4.79,1.71,7.15,2.63,2.49,.97,4.97,2.34,7.56,2.99,1.71,.43,2.82-5.05,1.52-5.84-2.15-1.31-4.67-2.02-7.05-2.82-2.52-.84-5.07-1.6-7.64-2.27-5.08-1.33-10.28-2.52-15.54-2.84-1.2-.07-1.84,3.51-.96,3.54,.98,.03,2.11-.61,2.82-1.26,.38-.34,.63-1.05,.56-1.55-.06-.41-.27-.76-.63-.29h0Z"/></g><g><path class="cls-3" d="M489.39,393.22c-1.25,.56-2.17,1.05-2.8,2.35-.45,.93-.62,1.96-.55,2.99,.09,1.45,.59,2.84,1.08,4.19,.77,2.1,1.42,4.2,1.81,6.41,1.36,7.76,.47,15.75,1.07,23.58,1.11,14.29,4.98,28.34,11.26,41.22,3.55,7.28,7.87,14.14,12.83,20.55,.3,.39,.49-.4,.49-.57-.24-12.08,1.72-24.21,5.96-35.54,2.08-5.57,4.68-10.94,7.76-16.03s6.61-9.46,10.26-13.99,7.18-9.91,6.94-16.19c-.01-.3-.21-.29-.22,0-.17,5.82-4.18,10.81-7.69,15.14s-7.2,9.1-10.18,14.14c-5.99,10.13-10.11,21.36-12.15,32.95-1.14,6.45-1.59,12.98-1.34,19.52l.49-.57c-8.75-10.72-15.29-23.22-19.42-36.42-2.05-6.55-3.5-13.29-4.31-20.11s-.56-14.27-.93-21.43c-.19-3.64-.64-7.3-1.81-10.77-.71-2.12-1.84-4.23-1.86-6.52-.02-1.74,1.13-4.86,3.34-4.75,.05,0,.04-.18-.01-.16h0Z"/><path class="cls-3" d="M507.15,393.11c1.13,.15,2.4,1.32,3.41,1.83l2.68,1.37c1.94,.99,3.88,1.98,5.81,2.97,3.41,1.74,6.84,3.46,10.2,5.31,6.38,3.5,12.63,7.56,17.41,13.12l.07-2.26c-.71,.6-1.46,1.17-2.13,1.81-.8,.77-1.43,.46-1.97-.44-.25-.41-.38,.67-.33,.81,.32,1.05,.87,1.86,1.75,2.51,.09,.05,.17,.05,.26,0,1.04-.59,1.87-1.52,2.76-2.31,.49-.44,.51-1.76,.07-2.26-4.87-5.46-11.06-9.26-17.56-12.48-3.44-1.7-6.94-3.26-10.43-4.85-1.95-.89-3.89-1.77-5.84-2.66-1.05-.48-2.09-.98-3.15-1.43-.99-.43-2.05-.67-3.01-1.19-.04-.02-.07,.15,0,.16h0Z"/><path class="cls-3" d="M544.08,420.08c3.8-.13,7.65,.34,11.45,.45,4.13,.11,8.27,.23,12.4,.35,7.95,.22,15.89,.33,23.84,.41,15.81,.15,31.62,.41,47.43,.35,15.69-.06,31.36-.58,46.99-1.99,15.21-1.38,30.35-3.43,45.45-5.69,61.64-9.23,122.95-20.82,184.97-27.36,17.43-1.84,34.91-3.29,52.42-4.2,8.8-.46,17.61-.72,26.42-1.11,4.4-.2,8.83-.35,13.21-.78s8.79-1.4,13.14-2.39c.18-.04,.15-.81-.02-.81-31.34,.41-62.82,2.04-94.03,5.02-30.87,2.95-61.6,7.23-92.24,11.98-30.99,4.8-61.89,10.12-92.84,15.15-30.58,4.96-61.18,9.16-92.19,9.93-17.67,.43-35.36,.17-53.03,.08-8.9-.05-17.8-.13-26.69-.01l-13.34,.18c-4.42,.06-8.93,.52-13.34,.3-.04,0-.04,.16,0,.16h0Z"/><path class="cls-3" d="M1018.27,370.15c.3-.69,1.33-.48,1.76-.08v-.33c-2.41,3.63-6.19,6.23-10.39,7.3-.09,.02-.06,.38,0,.37,4.46-.56,8.34-3.41,10.42-7.36,.03-.06,.05-.26-.02-.31-.26-.18-.55-.26-.88-.22-.15,.02-.29,.06-.43,.13-.17,.08-.32,.29-.49,.34-.06,.02,0,.18,.02,.15h0Z"/><path class="cls-3" d="M726.08,412.62c1.99,.34,3.99,1.27,5.9,1.92s3.93,1.35,5.91,1.99c3.93,1.28,7.87,2.54,11.81,3.81,.88,.28,1.75,.57,2.65,.79s1.91,.6,2.87,.57c1.6-.05,3.03-.92,4.15-2s2.04-2.37,3.08-3.53c1.12-1.24,2.35-2.38,3.67-3.41,3.12-2.42,6.7-4.54,10.42-5.9,.2-.07,.18-.89-.02-.87-4.19,.5-7.88,1.9-11.19,4.53-1.6,1.27-3.07,2.72-4.34,4.32s-2.63,3.6-4.75,4.27c-2.45,.78-4.66,.19-7.05-.46l-7.55-2.05c-2.51-.68-5.03-1.35-7.55-2l-3.77-.97c-1.39-.36-2.91-.6-4.24-1.17-.04-.02-.05,.15,0,.16h0Z"/><path class="cls-3" d="M832.52,397.5c1.35-.35,2.88-.3,4.28-.34,1.51-.04,3.02-.01,4.53,.07,2.93,.15,5.83,.54,8.71,1.09,5.81,1.09,11.43,2.99,16.92,5.16,2.61,1.04,5.2,2.14,7.78,3.26,1.06,.46,2.29,1.17,3.49,.94,1.03-.2,1.76-1.07,2.46-1.78,3.38-3.42,7.58-6.11,12.06-7.84,5.12-1.98,10.67-2.7,16.12-2.05,.39,.05,.24-1.33,.03-1.5-3.22-2.63-7.09-4.01-11.23-4.17-3.51-.14-9.68,.13-10.78-4.35-.1-.39-.19,.17-.17,.32,.72,4.21,4.98,5.45,8.69,5.56,2.37,.07,4.69,.08,6.99,.74s4.5,1.84,6.39,3.37l.03-1.5c-9.52-1.09-19.42,2.03-26.45,8.58-.81,.76-1.56,1.57-2.32,2.38-1.19,1.26-2.34,1.55-3.99,.94-2.69-1.01-5.3-2.23-7.98-3.28-5.14-2.02-10.39-3.82-15.8-4.97-3.23-.69-6.5-1.1-9.8-1.21-1.59-.05-3.18-.04-4.76,.03-1.73,.08-3.51,.46-5.23,.4-.04,0-.03,.17,0,.16h0Z"/><path class="cls-3" d="M878.93,348.06c4.77,1.15,10.16,2.38,14.66-.27,1.64-.97,3.01-2.42,3.67-4.23,.38-1.05,.36-2.38,1.29-3.13,.86-.7,2.12-.68,3.17-.56,2.67,.3,5.34,1.09,7.98,1.6,2.78,.54,5.58,1.02,8.38,1.47,5.76,.91,11.55,1.62,17.36,2.13,6.53,.57,13.08,.88,19.64,.92l-.03-1.24c-8.3,.27-16.59,.53-24.88,.92-1.99,.09-3.98,.17-5.97,.28-1.23,.07-2.87,.16-3.66,1.27-.73,1.02-.41,3.75,1.31,3.23,.12-.04,.1-.51-.01-.5-.61,.06-1.18-.32-1.36-.94-.3-1.06,.74-1.72,1.59-1.97,1.23-.37,2.63-.25,3.9-.28l9.71-.18c6.47-.12,12.94-.39,19.41-.6,.28,0,.26-1.24-.03-1.24-11.56-.07-23.13-.85-34.59-2.42-5.69-.78-11.34-1.77-16.96-2.93-1.66-.34-4.06-.88-5.34,.63-.57,.67-.65,1.55-.86,2.37-.34,1.29-1,2.42-1.94,3.36-4.39,4.44-10.9,3.38-16.41,2.26-.01,0-.02,.06,0,.06h0Z"/><path class="cls-3" d="M848.97,343.11c17.41,3.99,35.03,7.23,52.77,9.33s35.53,3.41,53.35,3.62c4.94,.06,9.88,.05,14.83-.03s10.21-.53,15.29-.96c.12-.01,.11-.56-.01-.56-4.46-.03-8.92-.24-13.38-.19s-8.91,.05-13.37,0c-8.91-.12-17.82-.39-26.72-.87-17.78-.96-35.51-2.82-53.14-5.33-9.92-1.41-19.8-3.1-29.62-5.06-.01,0-.02,.06,0,.06h0Z"/><path class="cls-3" d="M976.36,382.41c.48-.63-.92-1.18-.78,.11,.12,1.03,.97,2.11,1.48,3,.83,1.45,1.71,2.89,2.67,4.26,3.58,5.18,7.94,9.89,12.7,13.99,9.68,8.34,20.76,14.77,31.92,20.87,6.22,3.4,14.06,7.17,20.99,3.55,.87-.46,.61-2.91,.09-3.55-2.86-3.54-5.7-7.09-8.54-10.64-2.39-2.98-5.44-6.09-6.5-9.85-.93-3.29,.24-6.9,.5-10.22,.14-1.86,.14-3.74-.23-5.57-.28-1.4-.64-3.13-2.1-3.69-.79-.31-.53,1.68-.42,1.98,.57,1.61,1.23,3.18,1.19,4.91s-.35,3.47-.58,5.18c-.5,3.74-.66,7.49,.75,11.07s4.22,6.65,6.67,9.65c2.87,3.51,5.74,7.03,8.6,10.55l.09-3.55c-5.46,2.9-11.77,.76-16.95-1.74s-9.85-5.21-14.65-7.99c-9.25-5.34-18.27-10.99-26.1-18.32-2.18-2.04-4.23-4.21-6.12-6.51-.95-1.16-1.88-2.36-2.76-3.58-.44-.61-.87-1.23-1.28-1.85-.14-.21-.28-.42-.41-.63-.34-.54-1.18-1.19-.26-1.58-.05,.02,0,.19,.03,.14h0Z"/><path class="cls-3" d="M1011.55,387.36c8.8-1.31,17.44-3.93,25.82-6.86,8.33-2.92,16.56-6.13,24.67-9.63,16.24-7.01,32.24-15.17,47.14-24.71,3.54-2.27,6.99-4.78,9.82-7.91s4.4-6.38,5.49-10.29l-.68,.54c2.44,1.86,5.52,3.19,8.26,4.56,1.33,.67,2.66,1.34,4.02,1.93,1.51,.65,2.64,.77,4.25,.45,.5-.1,.28-1.46,.04-1.71-1.29-1.35-2.5-2.42-4.2-3.2-1.34-.62-2.69-1.21-4.02-1.85s-2.65-1.3-3.96-1.97-2.69-1.6-4.1-2.14c-.69-.27-.8,1.04-.84,1.44-.36,3.45-2.77,6.78-5.06,9.25-2.49,2.68-5.45,4.92-8.48,6.95-7.09,4.73-14.61,8.91-22.11,12.95-15.43,8.31-31.46,15.59-47.88,21.73-9.38,3.51-18.92,6.61-28.18,10.41-.01,0-.01,.06,0,.06h0Z"/><path class="cls-3" d="M1139.7,333.51c-.48,.69-1.1,1.29-1.66,1.91-.03,.03-.02,.2,.02,.17,16.91-13.75,34.36-28.78,56-34.2,.89-.22,2.54-.29,3.18-1.1,.3-.38,.5-1.33,.18-1.77-.51-.69-1.6,.31-1.01,.92,.07,.07,.08-.32,.06-.36,.05,.12,.14,.18,.27,.15l.3,.13-.16-.16c-.52,.29-1.04,.4-1.62,.54-1.15,.27-2.3,.56-3.44,.88-2.27,.64-4.5,1.39-6.7,2.23-4.29,1.65-8.44,3.65-12.44,5.91-8.42,4.75-16.13,10.67-23.55,16.84-2.09,1.73-4.16,3.48-6.16,5.31-1.01,.93-2.02,1.86-3.03,2.79-.52,.48-1.09,.94-1.59,1.45-.1,.11-.2,.25,.26-.22,.4-.4,.69-.87,1.11-1.26,.04-.04,0-.19-.03-.14h0Z"/><path class="cls-3" d="M976.67,361.79c1.4-1.12,3.19-1.83,4.74-2.72s3.19-1.79,4.81-2.65c3.16-1.68,6.38-3.26,9.63-4.75,6.75-3.08,13.67-5.77,20.69-8.16,13.9-4.73,28.17-8.28,42.49-11.46,14.47-3.21,29.02-5.98,43.45-9.34,7.22-1.69,14.41-3.48,21.55-5.47,7.77-2.16,15.46-4.6,23.19-6.89,15.43-4.58,31.12-8.8,47.22-9.98,.98-.07,2.07,0,3.03-.18,.9-.18,1.8-.88,2.61-1.34,.3-.17,.26-1.52-.04-1.67-.73-.36-1.63-1-2.44-1.15-.96-.19-2.28,.12-3.26,.19-2.01,.14-4.02,.33-6.03,.57-4.01,.47-7.99,1.11-11.95,1.87-7.97,1.54-15.82,3.6-23.61,5.85-15.13,4.36-30.1,9.2-45.37,13.06s-29.1,6.93-43.62,10.51-28.69,7.32-42.67,12.2c-13.79,4.82-27.25,10.71-39.76,18.29-1.58,.96-3.04,2.28-4.7,3.07-.04,.02,0,.17,.02,.15h0Z"/><path class="cls-3" d="M490.29,393.44c-2.17-1.48-4.79-.03-5.82,2.13-1.39,2.91-.13,6.4,.64,9.29,2.17,8.11,3.32,16.49,3.41,24.89,.04,3.84-.23,7.67,.06,11.51,.27,3.5,.85,6.98,1.69,10.39,1.74,7.12,4.55,13.94,7.84,20.47,1.88,3.74,3.93,7.39,6.09,10.98,1.06,1.77,2.15,3.52,3.24,5.27,.58,.93,1.17,1.86,1.76,2.79,.15,.23,1.83,2.45,1.73,2.61-.08,.14,0,.8,.15,.59,.53-.79,.03-1.46-.3-2.23-.71-1.65-1.89-3.16-2.84-4.69-1.97-3.16-3.9-6.34-5.74-9.57-3.57-6.27-6.91-12.67-9.37-19.47s-4.06-14.12-4.08-21.45c-.01-3.76,.16-7.5-.04-11.26s-.63-7.7-1.27-11.51c-.7-4.1-1.78-8.08-2.8-12.11-.65-2.55-1.03-5.58,1.11-7.55,1.21-1.12,2.98-1.79,4.53-1.01,.01,0,.02-.05,0-.06h0Z"/><path class="cls-3" d="M489.66,393.32c-.86,2.13-1.27,4.02-.85,6.33,.5,2.71,1.78,5.24,3.09,7.64,1.54,2.82,3.18,5.57,4.41,8.54s2.12,5.85,2.86,8.87c2.96,12.02,3.02,24.54,5.9,36.58,1.44,6.03,3.59,12.3,8.31,16.57,.07,.06,.12-.27,.05-.34-4.24-4.12-6.44-9.62-7.89-15.24s-2.23-11.34-2.95-17.07c-1.37-10.92-2.45-22.22-7.42-32.22-1.43-2.87-3.22-5.56-4.61-8.45-1.52-3.19-3.16-7.84-.87-11.08,.03-.04-.01-.2-.04-.12h0Z"/><path class="cls-3" d="M379.43,386.68c-.89-.13-1.68-.57-2.54-.78s-.28-.09,.06-.03c.44,.07,.91,.06,1.35,.1,1.94,.17,3.86,.44,5.78,.79,3.7,.68,7.31,1.68,10.91,2.78,7.23,2.19,14.31,4.86,21.59,6.87,15.35,4.24,31.4,4.88,47.24,4.67,4.47-.06,8.93-.19,13.4-.32,2.36-.07,5.77-.49,6.03-3.42,0-.1-.08-.42-.13-.16-.63,2.95-6.24,2.31-8.32,2.38-3.67,.13-7.34,.25-11.01,.32-7.49,.15-14.99,.12-22.46-.4s-14.68-1.5-21.85-3.24c-6.85-1.65-13.49-4.05-20.2-6.18-7.5-2.39-15.31-4.4-23.23-4.43-.05,0-.04,.18,0,.19,1.11,.31,2.34,.54,3.38,1.03,.04,.02,.05-.15,0-.16h0Z"/><path class="cls-3" d="M471.48,399.5h-3.38s-.04,.16,0,.16h3.38s.04-.16,0-.16h0Z"/><path class="cls-3" d="M463.06,400.43v-.84s0-.08-.03-.08-.02,.07-.02,.08v.84s0,.08,.03,.08,.02-.07,.02-.08h0Z"/><path class="cls-3" d="M449.57,354.84c.5-.43,.05-1.35-.61-1.28-.56,.06-.67,.84-.71,1.27-.09,1.14,.14,2.33,.18,3.48,.16,5.38-.59,10.73-2.47,15.78-.11,.3,.02,2.24,.52,1.58,.86-1.13,1.51-2.39,2.23-3.61,.09-.16,.01-1.1-.17-.9-.87,.91-1.77,1.76-2.5,2.77l.52,1.58c1.22-3.52,2.04-7.16,2.37-10.87,.16-1.85,.21-3.72,.1-5.58-.05-.82-.12-1.63-.22-2.44-.06-.49-.21-1.04-.2-1.53-.02-.48,.18-.8,.62-.95,.33,0,.44,.18,.33,.55-.06,.01-.01,.18,.01,.16h0Z"/><path class="cls-3" d="M458.46,352.05c-.49,7.69-1.67,15.41-3.7,22.85l1.47,.98c-.03-.32-.16-.93-.12-1.27,.07-.53,.72-1.16,1.11-1.53,.16-.15,.18-1.09-.12-.95-.63,.29-1.51,.8-1.98,1.28-.87,.89-.69,2.64-.52,3.74,.06,.42,.22,1.54,.76,1.63s.74-.72,.84-1.12c1.98-8.34,3.01-16.82,2.89-25.39,0-.71-.55-1.24-.61-.22h0Z"/><path class="cls-3" d="M466.89,352.85c.63,4.36,1.01,8.68,.48,13.08-.25,2.04-.64,4.09-1.19,6.07s-1.51,3.98-2.08,6.02l1.05,.71c-.1-1.29,1.19-2.57,2.17-3.17,.21-.13,.15-1.07-.12-.95-1.44,.64-2.68,1.86-3.1,3.41-.19,.69-.24,1.51,0,2.2,.13,.36,.44,.97,.81,.41,1.26-1.93,1.77-4.67,2.29-6.89,.57-2.44,.94-4.93,1.08-7.44,.26-4.47,.04-9.24-1.35-13.53-.02-.07-.05,.05-.05,.08h0Z"/><path class="cls-3" d="M474.04,354.81c.09-.79,.01,.63,.02,.77,0,.46,.05,.92,.07,1.38,.06,1.07,.09,2.15,.09,3.22,0,2.17-.15,4.35-.37,6.5-.46,4.28-1.51,8.45-2.97,12.5-.29,.81-.31,1.96,.07,2.75,.31,.65,.79,.71,1.07-.03,.52-1.39,.88-2.82,1.4-4.2,.56-1.47,1.34-2.8,2.21-4.11,.09-.14,0-.88-.14-.73-1.76,1.83-3.74,3.92-4.6,6.33l1.13,2.72c1.57-4.59,2.54-9.37,2.93-14.2,.36-4.47,.29-9.18-.84-13.53-.02-.07-.05-.03-.06,.02,0,.2-.02,.41-.03,.61,0,.03,.02,.06,.02,.02h0Z"/><path class="cls-3" d="M485.38,352.37c1.77,5.77,1.81,11.78,1.24,17.74-.26,2.72-.67,5.43-1.09,8.13-.19,1.18-.22,2.49-.98,3.46-.41,.53-2,2.32-2.65,1.09-.33-.63-.42,.59-.37,.8,.24,1.13,1.1,1.8,2.14,2.2,1.38,.54,2.09-1,2.44-2.08,.52-1.58,.61-3.33,.81-4.97,.24-1.91,.47-3.82,.64-5.73,.65-7.06,.59-14.36-2.06-21.04-.1-.26-.16,.29-.13,.4h0Z"/><path class="cls-3" d="M375.11,388.3c-.09-3.56,7.23-2.5,9.18-2.5,4.04,0,8.07-.14,12.1-.42s8.2-.82,12.26-1.45c2-.31,3.99-.65,5.97-1.03,.9-.17,2.87-.17,3.24-1.27,.45-1.36-1.43-1.21-.92-.23,.06,.12,.09-.24,.08-.29,.17,.04,.33,.08,.49,.12-.11,.34-.35,.52-.72,.55-.4,.13-.83,.17-1.24,.25-1.03,.2-2.06,.39-3.1,.57-2.15,.37-4.3,.71-6.46,1.01-4.16,.57-8.34,1-12.53,1.34s-8.38,.55-12.58,.61c-2.13,.03-5.37,.06-5.83,2.71-.02,.09,.06,.17,.05,.04h0Z"/><path class="cls-3" d="M347.72,364.57c1.49,.68,2.87,1.79,4.28,2.63s2.87,1.72,4.32,2.56c2.63,1.52,5.29,3,8,4.36,5.43,2.72,11.13,4.91,17.07,6.22,6.24,1.38,12.63,1.93,18.98,2.6,6.76,.72,13.51,1.44,20.28,2.1l5.44,.53,2.97,.29c.77,.08,1.75,.33,2.51,.14s2.32-2.21,.93-2.5c-.11-.02-.12,.5-.01,.55,.44,.19-.26,.3-.5,.39-.55,.21-.91,.24-1.49,.19-1.65-.14-3.3-.34-4.95-.52l-9.15-.96c-6.09-.64-12.2-1.19-18.29-1.77s-11.86-1.08-17.67-2.39c-5.44-1.23-10.65-3.23-15.7-5.55-2.98-1.37-5.9-2.88-8.79-4.44-1.32-.72-2.63-1.45-3.93-2.18-1.4-.79-2.99-1.47-4.29-2.42-.01,0-.05,.14,0,.16h0Z"/><path class="cls-3" d="M429.17,380.48c.21-.12,.75,.33,.9,.44,.26,.2,.51,.42,.73,.66,.44,.48,.85,1.04,1.12,1.63,.56,1.21,.52,2.47,.1,3.72-.01,.04,0,.34,.07,.24,.81-1.14,.6-2.89,.11-4.12-.25-.63-.61-1.28-1.13-1.73-.26-.22-.54-.41-.84-.56-.15-.07-.29-.13-.45-.19-.18-.06-.49-.09-.61-.24-.05-.06-.06,.18,0,.15h0Z"/><path class="cls-3" d="M300,339.06c2.45,.19,4.86,2.29,6.8,3.66,2.04,1.44,4.14,2.82,6.28,4.11,4.22,2.55,8.61,4.8,13.11,6.81,9.3,4.15,18.99,7.33,28.73,10.25,2.63,.79,5.25,1.65,7.92,2.28s5.1,.79,7.39-.84c.07-.05,0-.44-.02-.43-4.26,2-9.66-.32-13.83-1.52-4.88-1.4-9.75-2.86-14.57-4.46-9.57-3.18-18.97-6.96-27.77-11.92-2.41-1.36-4.77-2.81-7.06-4.36-1.16-.78-2.3-1.59-3.52-2.28-1.12-.62-2.31-.97-3.46-1.48,0,0-.04,.16,0,.16h0Z"/><path class="cls-3" d="M303.14,338.26c10.54-2.47,21.54-3.68,32.23-5.38,10.98-1.74,21.98-3.34,33.01-4.8,21.62-2.86,43.3-5.2,65.03-6.99,43.92-3.62,87.99-5.46,132.06-4.62,43.88,.84,87.77,3.77,131.37,8.72s87.61,11.87,131.34,18.3c43.91,6.46,87.83,12.61,132.19,14.87,5.48,.28,10.96,.51,16.44,.7,.16,0,.18-.98-.02-.99-44.03-3.38-88-9.1-131.71-15.36-43.97-6.29-87.85-13.34-131.94-18.77-43.63-5.37-87.42-8.82-131.37-9.69s-87.72,.21-131.44,3.54c-43.87,3.34-87.89,8.76-131.1,17.16-5.35,1.04-10.7,2.37-16.09,3.15-.03,0-.01,.16,0,.16h0Z"/><path class="cls-3" d="M598.56,316.95c12.03-4.73,21.31-13.7,30.09-22.89,9.36-9.8,18.51-19.65,30.03-26.99,6.97-4.44,14.48-8.01,22.31-10.64l-.1-.91c-2.94,6.34-5.3,12.93-6.98,19.71-.66,2.65-1.42,5.39-1.49,8.13-.04,1.89,.22,4.15,1.68,5.52,.42,.4,.91,.65,1.45,.86,.41,.16,1.51,.46,1.59,1.02,.08,.59-1.11,1.33-1.51,1.62-1.09,.8-2.59,1.58-3.06,2.94-.21,.62-.2,1.34-.03,1.97,.35,1.25,1.62,1.69,2.26,2.74,.78,1.29,.73,2.95,.95,4.39,.2,1.33,.55,2.64,1.07,3.89,1.13,2.69,2.94,5.01,5,7.05,2.22,2.2,4.79,4.58,7.7,5.74,.29,.11,.2-.76,.07-.9-1.91-1.99-4.2-3.48-6.26-5.31s-4.02-3.93-5.38-6.38c-.65-1.16-1.16-2.4-1.46-3.7s-.34-2.68-.61-4c-.21-1.02-.54-2.05-1.23-2.86-.33-.39-.75-.64-1.12-.99-.16-.15-.54-.46-.58-.7,.06,.35,.24-.24,.36-.4,1.3-1.77,5.13-2.99,4.2-5.78-.27-.81-.95-1.16-1.71-1.46-1.21-.48-2.12-1.18-2.59-2.44-1.04-2.73,.04-6.11,.67-8.82,1.67-7.23,4.1-14.27,7.22-21.01,.05-.1,.12-.98-.1-.91-13.57,4.61-26.04,12.04-36.58,21.73-9.63,8.86-17.82,19.17-27.71,27.76-5.48,4.77-11.44,9.03-18.12,11.94-.01,0-.01,.07,0,.06h0Z"/><path class="cls-3" d="M305.94,340.84l31.2,4.48c5.11,.73,10.23,1.4,15.35,2.09s10.55,1.53,15.84,2.08c.04,0,.05-.24,0-.25-5.26-.89-10.57-1.53-15.85-2.27s-10.23-1.45-15.35-2.12l-31.19-4.07s-.01,.06,0,.06h0Z"/><path class="cls-3" d="M372.63,343.35c-2.16,.15-2.73,2.72-2.27,4.47,.27,1.03,.92,1.92,1.94,2.31,1.31,.5,2.76,.15,3.89-.63s1.94-2,2.23-3.32c.08-.37,.14-.74,.16-1.11v-.1c.02-.48,0-.38-.06,.31,.03-.1,.05-.21,.06-.31,.06-.36,.07-.75,.06-1.12-.01-1.1-.43-2.75-1.4-3.44-1.37-.98-2.93-.26-3.92,.89-1.32,1.54-1.88,3.56-2.01,5.55-.09,1.45,0,3.1,.71,4.41,.38,.71,.97,1.23,1.79,1.34,.31,.04,.64,.02,.94-.06,.4-.11,.63-.37,.87-.7,.4-.58,.54-1.3,.55-1.99,0-.19,0-.36-.02-.55-.01-.1-.06-.42-.04-.27,.02,.15-.02-.12-.03-.18-.02-.11-.05-.2-.1-.3-.08-.17-.18,0-.21,.1,.1-.38-.25-.35-.44-.32-.15,.02-.31-.02-.46,0-.38,.05-.69,.16-1.08,.11s-.66-.16-.95-.46c-.12-.12-.1-.1-.16-.2-.06-.09-.1-.19-.15-.28,.06,.17,.07,.18,.01,.03-.05-.17-.05-.14,.02,.12-.02-.07-.03-.14-.04-.21,.04,.31,.06,.39,.04,.24-.02-.17-.01-.07,.02,.29,0-.23,0-.15,0,.24,0-.07,0-.15,.01-.22-.04,.33-.04,.39-.02,.18,.01-.1,.05-.23,.05-.34-.05,.25-.06,.29-.02,.11,.02-.07,.03-.15,.05-.22,.04-.14,.08-.28,.12-.43,.08-.28-.11,.24,.02-.06,.11-.25,.22-.5,.35-.74,.06-.11,.13-.23,.2-.34-.06,.1,.15-.2,.17-.23,.16-.2,.32-.4,.51-.58,.36-.36,.79-.68,1.25-.91l-.17,.08c.6-.27,1.22-.32,1.83-.07l-.17-.07c.27,.13,.54,.31,.76,.51,.05,.04,.24,.29,.17,.18,.08,.13,.15,.26,.21,.4,.05,.13,.14,.21,.28,.24h.13l-.29-.54s.03,.15,.03,.19c0,.09,0,.14-.02,.24-.05,.35-.15,.71-.29,1.03-.26,.6-.66,1.15-1.12,1.62-.87,.89-2.04,1.53-3.31,1.5-1.06-.02-2.03-.52-2.55-1.45-.48-.86-.55-1.92-.27-2.86,.31-1.03,1.07-1.85,2.16-1.99,.01,0,.01-.06,0-.06h0Z"/><path class="cls-3" d="M370.06,339.07c-1.24,.59-2.32,.87-3.34,1.87-.86,.85-1.5,1.9-1.88,3.05-.75,2.29-.42,4.83,.59,6.99,2.4,5.15,8.14,7.75,13.65,7.17,3.06-.32,5.89-1.71,8.04-3.9,.06-.06,0-.33-.03-.3-4.25,3.97-11.2,4.76-16.32,2.05-3.02-1.59-5.49-4.53-6.08-7.94-.38-2.21,.2-4.46,1.54-6.24,.84-1.12,2.35-2.55,3.83-2.58,.04,0,.01-.17,0-.16h0Z"/><path class="cls-3" d="M380.31,340.38c.87,.21,1.72,1.12,2.31,1.75,.71,.75,1.29,1.61,1.76,2.54,1.04,2.09,1.41,4.52,.8,6.79-.49,1.86-1.6,3.55-3.03,4.82-1.51,1.35-3.26,2.02-5.18,2.56-.07,.02-.06,.31,0,.31,4.33-.14,8.01-4.5,8.56-8.57,.25-1.85-.04-3.75-.78-5.46-.42-.96-.99-1.86-1.68-2.65-.82-.93-1.85-1.45-2.76-2.25-.01-.01-.05,.14,0,.16h0Z"/><path class="cls-3" d="M384.18,340.79c.67-.36-.57-1.58-.88-.63s.34,1.89,.95,2.5c.98,.98,1.98,1.67,2.58,2.98,1.2,2.61,.23,5.15-1.09,7.53-.76,1.37-1.57,2.71-2.39,4.04-.36,.58-.79,1.01-1.33,1.42-.28,.21-.55,.44-.93,.44-.32,0-.76-.13-.58-.44,.07-.12,0-.84-.11-.73-.52,.52-.38,1.47-.06,2.08,.57,1.08,1.66,1.82,2.74,1s1.74-2.15,2.42-3.26c.88-1.45,1.63-2.98,2.15-4.59,.89-2.75,1.08-5.98,.05-8.73-.43-1.14-1.09-2.21-2.05-2.97-.44-.35-.86-.53-1.37-.72-.06-.02-1.09-.42-.47-.2-.04-.01,.58,.14,.37,.14-.04,0-.02,.17,0,.16h0Z"/><path class="cls-3" d="M383.64,345.97c1.62-.15,3.33,.14,4.96,.23s3.31,.16,4.96,.23c3.31,.12,6.62,.19,9.93,.2,6.62,.02,13.25-.31,19.85-.81,.03,0,.03-.13,0-.12-6.61,.42-13.23,.59-19.85,.66-3.23,.03-6.45,.01-9.68-.06-1.65-.04-3.31-.09-4.96-.15s-3.54,.03-5.21-.33c-.03,0-.04,.16,0,.16h0Z"/><path class="cls-3" d="M421.68,362.2c-1.79-.27-3.65-1.58-5.01-2.72-.33-.27-.65-.56-.95-.86-.59-.58-.41-.54,.27-.45,1.1,.14,2.2,.38,3.3,.55,4.24,.64,8.52,1.04,12.8,1.25,8.81,.43,17.64,.26,26.45,.2l53.75-.37,53.75-.37,53.75-.37c17.92-.12,35.84-.17,53.75-.41l6.62-.09s.02-.12,0-.12c-34.78,0-69.56,.37-104.33,.59-34.6,.23-69.2,.45-103.8,.68-9.62,.06-19.25,.2-28.88,.15s-18.9-.42-28.2-2.03c-.04,0-.02,.12,0,.14,.92,.99,1.93,1.87,3.07,2.6s2.43,1.15,3.64,1.78c.03,.02,.05-.15,0-.16h0Z"/><path class="cls-3" d="M504.46,346.81c64.41-.1,128.85-.58,193.25,.88,64.27,1.46,128.45,5.3,192.29,13,35.55,4.29,71,9.62,106.24,15.96,.03,0,.05-.24,0-.25-62.85-11.66-126.33-19.69-190.09-24.25-64.42-4.61-129.04-5.55-193.61-5.63-36.03-.04-72.05,.12-108.08,.23-.01,0-.01,.06,0,.06h0Z"/><path class="cls-3" d="M344.66,365.16c2.28,1.63,4.37,3.5,6.71,5.07,2.21,1.48,4.5,2.85,6.85,4.09,4.7,2.47,9.7,4.4,14.81,5.81s10.81,2.34,16.34,2.62c6.29,.32,12.56,.26,18.83,.92,3.52,.37,7.04,.88,10.52,1.53s6.88,1.52,10.36,2.07c.09,.01,.1-.39,0-.43-5.72-2.14-11.99-3.03-18.03-3.75s-12.51-.88-18.81-1.02c-11.15-.25-22.02-2.55-32.12-7.36-2.76-1.31-5.45-2.76-8.04-4.38s-5.25-3.28-7.43-5.32c-.02-.01-.05,.12,0,.15h0Z"/><path class="cls-3" d="M393.72,384.94c-.68-.02-1.3-.12-1.99-.04s-1.32,.18-1.98,.27l-4.2,.57-8.16,1.11c-.26,.04-.22,1.06,.03,1.12,13.44,3.58,26.93,7.19,40.48,10.32,13.44,3.1,27.07,3.98,40.81,3.01,7.73-.54,15.35-1.57,22.92-3.25,.12-.03,.09-.51-.01-.5-13.5,1.73-27,3.45-40.65,2.81-6.81-.32-13.57-1.21-20.23-2.64s-13.6-3.31-20.37-5.05c-7.65-1.96-15.3-3.95-22.98-5.83l.03,1.12,8.16-1.28,3.95-.62,1.98-.31c.83-.13,1.41-.4,2.22-.66,.03-.01,.03-.16,0-.16h0Z"/><path class="cls-3" d="M484.61,396.25c.53,7.12,1.57,14.21,2.42,21.3s1.71,14.13,2.56,21.19,1.39,13.71,2.54,20.48c.55,3.25,1.3,6.51,2.56,9.56s3.08,6.14,4.87,9.06c2.07,3.38,4.35,6.65,6.65,9.88,1.08,1.53,2.14,3.08,3.26,4.57,.69,.92,2.13,2.95,3.47,1.93,.91-.69,.57-2.91,.26-3.79,.85,2.35-.14-.48-.41-1-.38-.71-.82-1.43-1.3-2.08-.94-1.26-1.92-2.49-2.85-3.77-1.96-2.69-3.93-5.36-5.98-7.98-1.88-2.4-3.95-4.67-5.69-7.18-1.88-2.7-3.26-5.66-4-8.87-1.54-6.59-2.01-13.48-2.84-20.19s-1.7-13.77-2.55-20.65c-.93-7.5-1.63-15.08-2.93-22.53-.02-.1-.05,.03-.05,.06h0Z"/><path class="cls-3" d="M510.17,491.72c1.66-.39,2.01-2.15,2.09-3.64,.14-2.69-.36-5.39-.3-8.09,.13-5.91,1.3-11.63,3.24-17.21,3.99-11.48,11.1-21.41,19.45-30.14,2.32-2.42,4.74-4.74,7.17-7.05,1.28-1.22,2.57-2.42,3.88-3.61,1.53-1.39,2.35-3.34,3.47-5.06,.12-.18,.22-1.6-.18-1.5-.56,.14-1.11,.31-1.68,.38-.63,.08-1.06,.02-1.59,.39-1.28,.88-2.43,2.08-3.6,3.11-2.28,2.02-4.49,4.12-6.63,6.29-4.16,4.22-8.07,8.69-11.54,13.5s-6.62,10.34-8.97,16.02-3.71,11.68-4.26,17.83c-.3,3.36-.22,6.72,.18,10.07,.3,2.49,2.29,7.11-.72,8.63-.01,0,0,.06,0,.06h0Z"/><path class="cls-3" d="M547.53,418.25s.03-.16,0-.16c-.04,0-.03,.16,0,.16h0Z"/><path class="cls-3" d="M544.18,420.92c.49-.3-.64-.93,.16-1.22,.16-.06,.81,.06,1,.08,.85,.1,1.69,.26,2.53,.4,2.03,.33,4.06,.64,6.09,.93,3.91,.56,7.82,1.06,11.74,1.49,7.98,.88,16.01,1.4,24.03,1.73,15.76,.65,31.55,.41,47.29-.49,31.93-1.82,63.64-6.34,95.13-11.86,31.29-5.49,62.4-11.93,93.65-17.65,31.27-5.72,62.7-10.68,94.41-13.27,16.11-1.32,32.27-2.09,48.43-2.47,8-.19,16.01-.28,24.02-.3,8.16-.01,16.35,.32,24.5,.04,4-.14,7.99-.26,11.99-.34,.17,0,.17-1.1-.03-1.12-33.48-2.21-67.36-1.34-100.83,1.01s-65.78,7.23-98.35,13.11c-32.66,5.9-65.16,12.68-97.85,18.4-32.57,5.71-65.39,10.35-98.44,12.03-16.53,.84-33.11,.93-49.64,.03-8.17-.45-16.34-1.13-24.48-2.02-4.23-.46-8.45-1.02-12.66-1.62-1.6-.23-4.25-.4-4.31,1.92-.03,.96,.64,1.97,1.63,1.33,.03-.02,.01-.17-.02-.15h0Z"/><path class="cls-3" d="M722.51,414.27c-.07-.64,.11-.5,.75-.42,.45,.05,.9,.12,1.35,.19,1.05,.16,2.1,.34,3.14,.53,2.09,.4,4.16,.88,6.21,1.44,4.08,1.12,8.09,2.53,11.96,4.24,1.87,.83,3.68,1.76,5.51,2.69,.64,.32,1.37,.72,2.1,.47,.57-.2,1.05-.84,1.4-1.33,2.04-2.81,3.86-5.53,6.54-7.81,1.47-1.26,3-2.43,4.58-3.55,1.74-1.22,3.66-2.04,5.45-3.15,.1-.06,.1-.62-.04-.61-1.79,.1-3.67,.96-5.29,1.7-1.74,.8-3.39,1.86-4.82,3.14-2.95,2.64-5.37,5.79-6.91,9.44-.34,.81-.72,1.42-1.68,1.31-.6-.07-1.15-.41-1.68-.69-1.14-.58-2.29-1.15-3.46-1.68-2-.91-4.04-1.74-6.11-2.49-4.46-1.6-9.09-2.75-13.77-3.48-1.27-.2-2.54-.37-3.81-.51-.37-.04-1.82-.39-1.96,.31-.07,.35,.47,.65,.58,.28,.03-.11-.06-.19-.05-.03h0Z"/><path class="cls-3" d="M676.59,338.51c-2.27,3.15-2.53,7.15-2.86,10.89-.41,4.62-.61,9.26-.6,13.9,.03,9.36,.93,18.72,2.68,27.91,.99,5.17,2.28,10.29,3.81,15.32,.03,.12,.08-.04,.06-.1-5.19-17.29-7.33-35.47-6.18-53.48,.3-4.73,.24-10.39,3.1-14.39,0-.01,0-.07-.01-.05h0Z"/><path class="cls-3" d="M691.01,335.09c-1.1,1.43-2.12,2.69-2.75,4.42-.6,1.63-.92,3.34-1.15,5.05-.62,4.65-.88,9.38-1.01,14.07-.27,9.33,.3,18.68,1.63,27.92,.76,5.27,1.74,10.53,3.05,15.7,.03,.12,.08-.04,.07-.1-4.11-17.78-5.63-35.98-4.03-54.17,.2-2.21,.39-4.44,.92-6.6s1.43-4.88,3.3-6.14c.05-.03,0-.19-.03-.14h0Z"/><path class="cls-3" d="M699.46,337.87c-1.23,.87-2.19,1.49-2.87,2.9-.56,1.14-.85,2.4-1.04,3.65-.63,4.24-.58,8.67-.7,12.95-.28,9.35-.15,18.72,.33,28.06,.27,5.3,.66,10.58,1.17,15.86,.01,.13,.08,.03,.07-.05-1.65-17.61-2.02-35.34-1.13-53,.1-2.04,.19-4.11,.79-6.08,.48-1.55,1.57-3.85,3.39-4.14,.06,0,.02-.18-.01-.16h0Z"/><path class="cls-3" d="M561.72,314.81c-3.66,2.27-4.86,6.67-5.71,10.63-1.07,4.98-1.97,10-2.63,15.05-1.29,9.97-1.59,20.19,.44,30.08,1.14,5.55,3.05,10.92,5.8,15.88,.05,.09,.08-.09,.05-.13-9.73-17.67-7.95-38.85-4.2-57.93,.94-4.78,1.76-10.69,6.24-13.52,.02,0,0-.07,0-.06h0Z"/><path class="cls-3" d="M569.19,315.23c-3.56-.46-3.94,5.27-4.28,7.53-.78,5.14-1.39,10.31-1.8,15.49-.82,10.38-.91,20.82-.29,31.22,.35,5.85,.93,11.68,1.73,17.48,.01,.08,.06,.02,.05-.03-2.64-19.48-2.74-39.26-.35-58.78,.35-2.83,.67-5.7,1.21-8.5,.36-1.86,1.38-4.61,3.72-4.33,.02,0,.02-.06,0-.06h0Z"/><path class="cls-3" d="M421.62,323.46c-4.91,4.43-4.53,11.9-4.45,17.94,.12,8.73,.72,17.44,1.83,26.1,.01,.08,.06,.02,.05-.03-.97-8-1.58-16.05-1.77-24.11-.16-6.51-.97-15,4.35-19.83,.01-.01,0-.07,0-.06h0Z"/><path class="cls-3" d="M425.59,325.61c-.98,1.23-1.88,2.32-2.46,3.81-.52,1.32-.84,2.71-1.12,4.09-.73,3.69-1.18,7.45-1.35,11.21-.34,7.41,.46,14.85,2.26,22.04,.03,.12,.08-.04,.07-.1-1.72-7-2.45-14.21-2.21-21.42,.12-3.6,.49-7.2,1.12-10.75,.28-1.58,.59-3.16,1.13-4.68,.5-1.42,1.29-3.22,2.6-4.08,.05-.03,0-.19-.03-.14h0Z"/><path class="cls-3" d="M301.48,339.81c12.32,11.2,27.06,19.66,43.04,24.4,4.47,1.33,9.16,2.66,13.83,2.97,.08,0,.08-.29,0-.31-3.99-1.05-8.05-1.74-12.03-2.85s-8.09-2.53-12.01-4.12c-7.66-3.12-14.99-6.93-21.83-11.6-3.84-2.62-7.5-5.48-10.98-8.55-.01,0-.02,.05,0,.06h0Z"/><path class="cls-3" d="M354.06,368.21c-.92-.32-1.78-1-2.61-1.5-.77-.47-1.54-.93-2.31-1.4v.42c2.95,.68,5.91,1.34,8.86,2.01l4.43,1c1.38,.31,3.01,.95,4.43,.81,.09,0,.07-.33,0-.37-1.23-.65-2.76-.77-4.11-1.05l-4.6-.96c-3.01-.63-6.02-1.26-9.04-1.88-.08-.02-.08,.38,0,.42,.82,.43,1.65,.86,2.47,1.28s1.74,.79,2.47,1.36c.02,.01,.06-.14,0-.16h0Z"/><path class="cls-3" d="M365.88,346.35c.49-.05,.98,.09,1.47,.17,.56,.09,1.38,0,1.59,.67,.02,.06,.08,.29,.19,.29,2.05,.09,4.11,.07,6.16-.08,.98-.07,1.95-.16,2.92-.29,.57-.07,1.08-.17,1.59-.43,.47-.24,.85-.62,1.31-.9,.1-.06,.09-.64-.04-.67-.5-.11-.95-.37-1.46-.44s-.97,.03-1.45,.1c-1.02,.16-2.04,.29-3.06,.39-2,.2-4,.28-6.01,.26-.11,0-.16,.25-.18,.3-.17,.63-1.06,.49-1.56,.5s-.99,.07-1.46-.06c-.02,0-.03,.16,0,.16h0Z"/><path class="cls-3" d="M365.87,345.37c-.85-.08-1.73-.46-2.54-.72-.1-.03-.18,.83,0,.91,1.34,.67,2.83,.84,4.3,1.07,1.61,.25,3.23,.44,4.85,.56s3.13,.18,4.69,.18c.77,0,1.58,.03,2.35-.07,.87-.12,1.67-.52,2.51-.8,.09-.03,.09-.48-.01-.5-.85-.13-1.68-.42-2.54-.45-.72-.03-1.44,.05-2.17,.06-1.56,.04-3.13,.02-4.69-.06s-3.12-.21-4.67-.41-3.09-.64-4.61-.52l.02,.93c.82-.05,1.72-.19,2.52-.06,.02,0,.03-.16,0-.16h0Z"/><path class="cls-3" d="M381.94,346.18c-.38-.83-.75-1.21-1.63-1.46-.73-.21-1.46-.41-2.2-.59s-1.5-.29-2.2-.57c-.8-.32-1.56-.65-2.4-.85-1.4-.34-2.94-.28-4.38-.35-1.59-.08-3.17-.16-4.77-.16-1.06,0-1.07,6.07,.15,6.13,3.33,.16,6.7,.3,10.04,.27,1.63-.01,3.33,.06,4.93-.33,.84-.2,1.58-.45,2.35-.84,.9-.46,1.76-.96,2.73-1.26,.33-.1,.29-1.7-.04-1.73-.91-.1-1.71-.41-2.58-.71s-1.66-.49-2.58-.62c-1.62-.23-3.3-.08-4.94-.1s-3.29-.08-4.93-.18c-1.74-.11-3.4-.35-5.12-.62l.15,6.13c1.85,.21,3.71,.31,5.57,.42s3.44,.28,5.16-.25,3.43-.52,5.14-.91c.44-.1,1.93-.61,1.56-1.42h0Z"/><path class="cls-3" d="M372.9,342.38c-.13,.17-.35,.2-.51,.33-.18,.14-.32,.38-.44,.57-.25,.38-.45,.8-.58,1.23-.27,.87-.32,1.81-.19,2.71,.28,1.9,1.56,3.46,3.39,4.07,1.03,.34,2.25,.18,3.23-.25,.09-.04,.04-.45-.01-.43-1.93,.52-4.32-.27-5.57-1.84-.68-.85-.99-1.93-.86-3.01,.07-.55,.23-1.09,.47-1.59,.13-.28,.29-.55,.47-.79,.17-.24,.35-.72,.62-.84,.05-.02,0-.16,0-.16h0Z"/></g></svg>