<?xml version="1.0" encoding="UTF-8"?><svg xmlns="http://www.w3.org/2000/svg" viewBox="0 0 1500 750"><defs><style>.cls-1{isolation:isolate;}.cls-2{fill:#353026;}.cls-3{fill:#c5c0b4;}.cls-4{fill:#544e40;}.cls-5{fill:#231f20;}.cls-6{mix-blend-mode:multiply;}</style></defs><g class="cls-1"><g id="Layer_1"><g><g><g class="cls-6"><path class="cls-4" d="M1122.72,231.94c-17.51,18.2-38.38,22.26-88.76,121.61,0,0-6.49,10.03-17.88-7.96,0,0-25.42,18.12-74.04,26.75,.12-.24,.14-.65,.15-.9,.23-.18,.46-.35,.68-.53,.03,.02,.07,.04,.11,.06-.01,0,.02-.09,0-.1-.01,0-.02,0-.04-.02l34.91-27.16c-9.96,2.36-21.03-.67-28.4-7.78-7.04,12.44-16.22,23.65-27.03,33.01-1.2,1.04-2.46,2.07-3.76,3.01-.94,.34-1.89,.68-2.83,1.02-.17,.06-.25,.44-.29,.94-.81,.43-1.65,.8-2.5,1.11,.11,.06,.22,.12,.31,.21l2.16-.49c0,.35,0,.7,.02,1.03-4.74,.39-9.64,.68-14.71,.86-75.39,2.59-190.53-13.35-266.82-24.81-1.02-.15-2.07-.29-3.12-.43-13.65-11.19-23.73-26.76-28.02-43.9-5.42-21.66-1.53-45.49,10.48-64.31-2.85-1.53-6.33-.1-9.2,1.39-32.18,16.68-60.17,41.35-80.76,71.18-10.16,14.73-18.98,31.1-29.79,45.27-50.25,8.68-91.28,19.21-91.28,19.21l-114.72,53.11s13.02-19.18-8.7-23.58c-21.72-4.4-41.95,30.07-49.43,35.59-3.64,2.69-13.32,8.72-22.16,15.62-.18-.02-.37-.04-.55-.05-1.8,.11-3.08,1.15-4.42,2.22-1.4,1.12-2.86,2.21-4.11,3.5-1.51,1.56-2.45,3.43-3.08,5.43-3.27,3.8-5.29,7.48-4.99,10.64,.4,4.26,1.99,9.37,4.66,15.06,1.26,7.92,4.35,15.38,9.64,21.61,1.54,1.82,3.24,3.51,5.08,5.04,.95,.79,1.93,1.52,2.95,2.22,.51,.35,1.03,.73,1.59,.99,.58,.27,.76,.13,1.04-.08,1.86,2.14,3.81,4.3,5.87,6.47,19.11,20.1,21.46,44.51,24.07,47.64s32.85,21.43,53.65,7.16c20.8-14.26,24.98-19.96,23.89-22.98-1.08-3.02-12.14-25.8-25.21-37.86-13.07-12.06-5.36-12.77,1.68-12.25,7.04,.52,115.46,21.13,122.3,21.68l6.84,.57c3.87,7.79,7.13,16.02,10.82,23.86,13.51,28.67,35.9,54.82,65.99,64.79,3.79-4.26,1.03-10.82-.94-16.17-5.88-15.93-2.46-34.92,8.6-47.79,1.37-1.59,4.41-2.82,5.07-.83,2.31-5.96,5.48-11.59,9.37-16.66-.05-.03-.09-.06-.14-.08,29.09-1.42,128.14-7.13,192.73-21.26,10.51,3.31,20.23,9.12,28.09,16.83,9.29-11.49,22.63-19.65,37.09-22.69-4.33-1.8-8.65-3.61-12.98-5.41l-5.35,1.02c0-.21,0-.43,0-.64,0-.12-.05-.89-.12-1.73,16.62-4.65,32.89-10.47,49.04-16.55,14.2-2.66,27.61-8.33,40.72-14.27,8.4-3.8,16.71-7.81,24.96-11.92,.77-.31,1.55-.61,2.32-.92,6.23-2.51,12.4-5.19,18.3-8.4,5.38-2.57,10.6-5.44,15.54-8.78,18.88-9.11,37.02-18.89,53.72-29.39,5.8-3.04,11.56-6.17,17.27-9.38,11.66-6.09,23.32-12.18,34.98-18.27,6.52-3.41,13.04-6.81,19.56-10.22,9.02-2.48,13.15-1.36,16.13-.11,6.92,2.9,66.1,35.52,129.72,21.56,0,0-86.86-29.96-68.91-71.38,17.95-41.42,68.76-106.2,126.61-143.5,0,0,5.76-3.72,.48-17.32-5.28-13.61,24.71-5.13,24.71-5.13,0,0,10.35-16.1,34.24-40.36,23.89-24.26-165.58,86.9-183.09,105.1Zm-180.5,138.59c-.06-.03-.13-.06-.19-.08,.06,.03,.13,.05,.19,.08h0Zm0-.1c.02-.59,.02-1.18,0-1.76l.15-.03-.15,1.8Zm-201.15,147.96c2.42-.71,4.74-1.44,6.97-2.19,0,.19-.02,.38-.03,.57,0,.04,0,.16,.01,.3l-6.95,1.32Z"/><path class="cls-4" d="M514.1,566.4l.9-.65c-.72-.78-1.43-1.57-2.11-2.39,.41,1.01,.81,2.03,1.22,3.04Z"/><path class="cls-4" d="M515,565.74c4.75,5.11,10.38,9.41,16.58,12.62-.4-11.83,3.68-23.75,11.23-32.86l-27.8,20.24Z"/><path class="cls-4" d="M910.25,375.74c.96-.15,1.88-.42,2.78-.75-.92-.5-2.25-.18-2.78,.75Z"/><path class="cls-4" d="M1001.09,420.92c-4.59,.67-9.15-.94-13.73-1.68-4.57-.74-9.95-.3-12.81,3.35l-43.59,23.14c-.14,.49-.45,.91-.83,1.24,18.62-2.04,37.64-3.65,55.67,1.21,5.86-11.01,14.58-20.47,25.07-27.21-2.64-2.11-6.44-.53-9.78-.04Z"/><path class="cls-4" d="M930.14,446.97c-1.21,.13-2.41,.27-3.62,.4,1.1,.72,2.64,.45,3.62-.4Z"/></g><path class="cls-3" d="M571.44,534.81c14.22,.07,28.41-.99,42.5-2.85,7-.92,13.97-2.02,20.96-2.99,7.04-.97,14.11-1.67,21.13-2.74,13.96-2.14,27.79-5.33,41.58-8.35s27.68-6.18,41.45-9.58c15.51-3.83,30.94-7.97,46.23-12.58l-.2-8.19c-11.34,5.49-23.41,9.21-35.53,12.54-12.49,3.43-25.02,6.74-37.57,9.95-25.27,6.46-50.79,12.25-76.7,15.47-7.17,.89-14.36,1.58-21.56,2.04-3.69,.23-7.38,.4-11.07,.5-1.77,.05-3.54,.08-5.31,.1-.49,0-.97-.02-1.45,.09-.41,.1-.8,.31-1.23,.36s-1.28,0-1.45-.48l.3,4.42v-.26l-.14,1.31,.23-.16c.48-.29,.24-2.37,.23-2.84,0-.22-.3-2.87-.37-2.83-.47,.28-.49,.62-.55,1.14-.13,1.3-.08,2.66,.07,3.96,.14,1.21,.48,2.21,1.57,2.89,1.39,.87,3.12,.63,4.67,.61,1.69-.03,3.38-.07,5.06-.12,6.74-.22,13.47-.66,20.18-1.29,13.44-1.27,26.79-3.3,40.05-5.83,26.6-5.07,52.78-12.1,78.92-19.1,14.24-3.82,28.52-7.81,41.83-14.25,.22-.11,.23-1.15,.24-1.21,.07-.96,.07-1.94,.04-2.9,0-.29-.24-4.16-.48-4.09-27.32,8.24-55.09,14.91-82.9,21.25-13.86,3.16-27.76,6.19-41.54,9.67-3.44,.87-6.85,1.83-10.27,2.75s-6.81,2.18-10.28,3.05c-7,1.76-14.04,3.37-21.14,4.65-15.7,2.85-31.57,5.01-47.51,5.75-.01,0-.01,.16,0,.16h0Z"/><path class="cls-3" d="M194.72,472.51c-2.45,2.23-3.11,5.48-3.19,8.66-.05,1.81,.08,3.61,.21,5.41,.16,2.37,.24,4.72,.57,7.08,1.15,8.18,4.32,15.89,9.57,22.3,1.34,1.63,7.21,9.12,9.22,4.86,.1-.22-.04-1.28-.1-1.21-.77,.95-3.37-2.33-3.98-2.89-1.25-1.15-2.54-2.25-3.72-3.48-2.33-2.41-4.34-5.12-6.01-8.03-3.66-6.38-5.06-13.41-5.57-20.68-.29-4.16-.18-8.86,3-11.97,0,0,0-.04,0-.04h0Z"/><path class="cls-3" d="M193.12,479.19c-1.26,2.48-1.71,5.15-1.73,7.92-.03,3.94,.25,8.18,1.41,11.95,2.13,6.89,6.16,13.12,10.55,18.77,4.63,5.97,9.98,11.22,15.75,16.08,5.49,4.63,11.18,9.14,15.62,14.84,2.47,3.17,4.69,6.81,6.13,10.57,.62,1.62,1.11,3.32,1.45,4.99,.16,.82,.38,2.04,.46,2.63,.01,.09,.11,.85,.14,1.19,.02,.21,.04,.42,.06,.63,.01,.11,.08,1.03,.04,.38,.04,.57,.17,4.41,1.47,4s.95-4.34,.88-5.16c-.61-7.34-2.78-14.85-6.34-21.32s-8.51-11.23-13.86-15.8-10.62-8.78-15.37-13.8-9.36-10.73-12.8-16.88c-.89-1.59-1.69-3.22-2.38-4.91s-1.04-3.57-1.83-5.19c-.26-.52-.48-.73-.59-1.35-.14-.79-.17-1.62-.17-2.42,0-2.4,.44-4.81,1.12-7.1,0,0,0-.04,0-.04h0Z"/><path class="cls-3" d="M194.87,497.49c1.57,2.7,2.93,5.53,4.51,8.23s3.31,5.45,5.01,8.14,3.64,5.52,5.46,8.28,3.72,5.71,5.91,8.35c.97,1.17,1.97,2.33,2.98,3.47,1.15,1.3,2.08,2.77,3.24,4.05,2.11,2.34,4.47,4.45,6.54,6.84,3.86,4.46,6.63,9.86,8.55,15.41,1.16,3.35,1.86,6.87,2.62,10.33,.18,.82,.36,1.64,.54,2.46,.24,1.11,.08,2.01,.34-1.28,.29-3.7-.15-1.86-.47-.59-.35,1.37-.39,2.88-.11,4.25,.03,.16,.29,1.26,.05,.23,.19,.78,.42,1.31,.9,1.94,.22,.19,.44,.19,.65-.02,1.26-1.56,1.21-3.93,1.09-5.82-.11-1.76-.59-3.47-1.01-5.17-.88-3.59-1.85-7.13-2.98-10.65-1.8-5.62-3.89-11.01-7.37-15.82-1.85-2.56-4.06-4.83-6.32-7.03-1.08-1.05-2.19-2.24-3.44-3.09-1.31-.9-2.41-1.84-3.54-2.95-2.04-2.01-4.01-4.1-6.12-6.04s-3.88-4-5.69-6.18c-2.14-2.58-4.1-5.28-5.9-8.1-1.92-3.01-3.91-6.1-5.44-9.33,0-.01-.02,.07,0,.09h0Z"/><path class="cls-3" d="M195.56,487.38c.15,11.55,7.91,21.17,16.17,28.47,4.83,4.27,9.97,8.17,14.8,12.44s9.16,9.11,12.53,14.77c1.87,3.14,3.42,6.47,4.61,9.93,.91,2.67,3.03,7.41,.01,9.45-.07,.05-.05,.49,.03,.46,2.03-.55,2.17-2.94,2.02-4.69-.24-2.84-1.3-5.69-2.32-8.33-2.32-6.01-5.69-11.44-9.99-16.24-8.74-9.75-20.74-15.88-29.21-25.91-4.85-5.75-8.51-12.68-8.64-20.34,0-.02,0-.02,0,0h0Z"/><path class="cls-3" d="M231.43,535.12c1.23,2.54,2.94,4.61,4.67,6.82,1.86,2.37,3.46,4.95,4.75,7.67,2.77,5.86,4.12,12.35,3.88,18.83,0,.08,.05,.19,.06,.05,.21-5.86-.81-11.7-3.06-17.12-1.18-2.83-2.68-5.53-4.48-8.02-1.96-2.7-4.63-5.13-5.8-8.32,0-.02-.02,.06,0,.09h0Z"/><path class="cls-3" d="M245.13,572.59c-.34-.32-.35-1.11-.5-.5,.07-.3,.26-.55,.45-.77,.46-.54,1.09-1.02,1.65-1.44,1.11-.83,2.34-1.48,3.63-2,2.76-1.1,5.84-1.74,8.81-1.74,5.78,0,12.55-2.2,17.38,2.12l-.2-8.13c-5.13-2.33-10.79-1.79-16.16-.72-2.34,.46-4.7,.96-6.99,1.64s-4.03,2.38-5.78,3.83c-.76,.63-1.6,1.25-2.18,2.07-.83,1.18-1.11,2.78-1.21,4.19-.03,.41-.09,1.03,.08,1.41,.55,1.23,1.65-.47,2.16-.93,1.66-1.5,3.5-1.68,5.61-2s4.38-1.1,6.56-1.58c5.93-1.29,12.35-2.32,18.1,.23,.1,.04,.23-3.76,.22-4.07-.03-.96-.06-1.92-.16-2.87-.03-.31,0-.97-.26-1.19-2.7-2.38-6.43-2.88-9.9-2.5-3.84,.42-7.09,1.92-10.59,3.42s-6.81,3.41-9.34,6.24c-.94,1.05-1.93,2.23-2.04,3.69-.04,.59-.25,1.92,.65,1.65v-.04h0Z"/><path class="cls-3" d="M251.81,567.01c-1.09-.19,.66-1.27,.67-1.27,.35-.19,.72-.34,1.09-.5,.86-.36,1.75-.66,2.65-.9,1.71-.45,3.43-.65,5.19-.78,3.81-.27,7.59,.15,11.26,1.2,7.92,2.26,14.64,6.96,21.18,11.8-.04-.03,.04-1.13,.04-1.26,0-.36,.07-.93-.1-1.26-1.58-2.99-4.38-5.03-7.3-6.61s-6.22-2.85-9.52-3.68c-6.67-1.68-13.76-1.61-20.43,.01-3.79,.92-7.41,2.37-10.79,4.33l.1,2.81c3.26-6.64,10.57-10.02,17.73-10.08,8.56-.07,16.44,3.94,23.55,8.33,2.09,1.29,4.15,2.63,6.22,3.95,.52,.33,1.04,.66,1.56,.98,.39,.25,.91,.71,1.37,.79,.82,.15,.99-.43,.99-1.07,0-.08-.02-1.18-.07-1.17-.24,.03-.29,.16-.31,.37s.04,.9,.05,.85c.12,.09,.22,.21,.3,.34l-.05-1.53c-.04,.19-.99-.76-.99-.75-.35-.3-.78-.52-1.18-.76-.98-.6-1.95-1.2-2.92-1.81-1.75-1.09-3.49-2.19-5.25-3.25-3.56-2.15-7.23-4.15-11.13-5.62-7.15-2.69-15.28-3.56-22.26,.09-3.28,1.71-6.05,4.28-7.74,7.58-.18,.36,.21,2.74,.1,2.81,12.01-6.52,27.05-7.15,39.47-1.33,3.4,1.59,6.6,3.65,8.56,6.93l-.06-2.52c-7.6-4.61-15.46-9.8-24.38-11.33-4.24-.73-8.53-.65-12.62,.77-.58,.2-6.69,2.6-4.97,3.63,0,0,.01-.1,0-.1h0Z"/><path class="cls-3" d="M244.76,568.67c1.08-3.11,4.17-4.96,7.12-6.01,3.6-1.28,7.53-1.62,11.33-1.78,4.22-.19,8.41,.4,12.28,2.13,1.86,.83,3.63,1.85,5.34,2.94s3.46,2.1,4.93,3.4c1.8,1.59,3.59,3.03,5.69,4.22,1.05,.6,2.11,1.16,3.2,1.69,.51,.25,1.07,.59,1.63,.72,.84,.18,1.1-.61,1.83-.9,.06-.02,.03-.81-.02-.87-.57-.65-.86-1.55-1.49-2.12-.41-.37-.94-.55-1.44-.77-1.02-.45-2.02-.91-3.01-1.41-1.81-.91-3.55-1.96-5.39-2.79-3.56-1.59-6.59-4.19-10.17-5.81-7.59-3.45-16.45-2.6-24.06,.4-3.45,1.36-6.22,3.44-7.77,6.85-.01,.03,.01,.08,0,.1h0Z"/><path class="cls-3" d="M263.42,560.45c2.08-2.25,5.98-2.07,8.65-1.23,1.87,.58,3.58,1.67,5.26,2.66,1.78,1.06,3.54,2.13,5.34,3.14s3.69,1.95,5.43,3.07c1.86,1.19,3.6,2.59,5.45,3.81s3.58,2.5,5.45,3.61c.87,.51,1.73,1.03,2.61,1.53,.43,.25,.86,.5,1.3,.73,.76,.41,.98,.54,1.71,0,.26-.19,.07-1.6,.06-1.89-.01-.53,.12-1.41-.16-1.89-.45-.79-.75-1.34-1.54-1.79-.43-.24-.87-.46-1.3-.69-.93-.49-1.87-.98-2.82-1.43-1.7-.81-3.47-1.48-5.2-2.23-1.85-.8-3.8-1.39-5.63-2.22s-3.63-1.92-5.43-2.87c-3.33-1.77-6.69-3.62-10.36-4.56-3.36-.87-6.3-.19-8.84,2.16-.02,.02,.02,.09,0,.1h0Z"/><path class="cls-3" d="M290.5,572.18c2.42,1.16,4.73,2.38,7.26,3.32s5.1,1.57,7.74,1.96l-.05-1.99c-.36,.35-.72,.7-1.1,1.04-.75,.68-.61,.58-1.46-.03-.93-.66-1.66,.06-2.45,.65-1.7,1.27-3.42,2.49-5.27,3.54-3.58,2.04-7.44,3.61-11.44,4.61s-7.97,1.5-11.95,1.16c-.97-.08-1.93-.22-2.88-.44s-1.8-.65-2.72-.87c-.75-.18-1.55,.32-2.36,.43-.86,.11-1.16-.48-1.92-.69,.02,0-.05,1.77,.03,1.97,.45,1.05,1.15,1.88,1.73,2.85,.36,.61,.75,1.2,1.15,1.78,.37,.54,.74,1.32,1.26,1.73,.65,.52,1.89,.73,2.68,.93,.94,.23,1.9,.39,2.87,.48,4.1,.4,8.34-.15,12.31-1.15s8.12-2.69,11.78-4.92c1.81-1.1,3.67-2.3,5.23-3.73,1.05-.96,1.64-2.04,2.11-3.36,.44-1.22,.57-1.83,1.36-2.73,.37-.42,.73-.85,1.09-1.29,.13-.16,0-1.99-.05-1.99-5,.03-10.58-.79-14.95-3.38,.01,0-.02,.09,0,.1h0Z"/><path class="cls-3" d="M245.79,579.85c-.45-.68-.85-1.39-1.27-2.09l.03,1.02c1.65,1.41,3.48,2.55,5.17,3.92,1.59,1.28,3.12,2.52,4.87,3.59,3.28,2.01,6.86,3.52,10.54,4.62s7.41,1.84,11.19,1.93c4.08,.1,7.65-2.16,11.08-4.14,.11-.06-.02-1.14-.03-1.14-3.8,.19-7.42-1.05-11.21-1.17s-7.53-.7-11.19-1.74-7.02-2.39-10.52-3.62c-.79-.28-1.61-.65-2.43-.86s-1.6-.3-2.39-.53c-1.74-.51-3.37-1.35-5.12-1.88,.05,.02-.09,.92,.03,1.02,.42,.38,.86,.74,1.24,1.16-.01-.02,.01-.08,0-.1h0Z"/><path class="cls-3" d="M253.2,585.77c-.38-.05-.8-.4-1.13-.6-.37-.22-.74-.46-1.1-.7-.74-.5-1.45-1.03-2.14-1.6-1.35-1.12-2.59-2.38-3.71-3.74,.02,.02-.02,.09,0,.12,1.11,1.34,2.35,2.58,3.7,3.68,.67,.54,1.36,1.06,2.08,1.53,.36,.24,.72,.47,1.09,.69s.86,.41,1.19,.72c0,0,.01-.1,0-.1h0Z"/><path class="cls-3" d="M242.61,577.76c1.45,2.13,3.32,3.8,5.68,4.87,1.01,.45,2.26,.81,3.37,.78,1.23-.04,2.47-.32,3.62-.74,.04-.01,0-.39,0-.39-2.35,.14-4.78-.42-7.02-1.08-2.1-.62-4.2-1.81-5.64-3.48,0,0,0,.03,0,.04h0Z"/><path class="cls-3" d="M251.99,571.11c.97-.13,1.8,.39,2.74,.56s1.9,.3,2.87,.4c1.87,.18,3.7,.62,5.58,.76l-.12-4.99-.82-.96-.09-.14c-1.35,.55-2.76,.86-4.22,.91-.38,.01-.23,3.72-.22,4.07,.03,.96,.05,1.92,.16,2.87,.02,.16,.06,1.17,.25,1.18,.72,.06,1.43,.04,2.14-.06,.34-.05,.73-.09,1.05-.22,.49-.21,.8-.72,1.1-1.13,1.21-1.68,2.48-3.28,3.47-5.12,.11-.21-.09-1.59-.04-1.61-.51,.24-1.02,.42-1.59,.4-.31,0-.61,0-.92,0-.41,0-.73-.19-1.08-.37s-.63-.38-1.03-.35c-.35,.02-.7,.16-1.05,.22-.74,.14-1.49,.17-2.25,.13l.2,8.12c.85-.05,1.69-.17,2.51-.4,.39-.11,.78-.23,1.15-.38,.14-.06,.45-.11,.56-.23,.25-.27,.29-1.77,.29-1.75l-.1,.38c.21-.2,.41-.39,.64-.56,.12-.09,.11-.67,.12-.73,.03-.58,.03-1.18,.01-1.76,0-.18-.17-2.52-.25-2.49-1.84,.61-3.63,1.41-5.52,1.84-.9,.21-1.81,.41-2.71,.64-.47,.12-.91,.22-1.35,.43-.5,.23-.94,.33-1.49,.26,0,0,0,.1,0,.1h0Z"/><path class="cls-3" d="M267.31,568.43c-.01,.91-.45,1.75-1.08,2.39s-1.46,1.27-2.3,1.68c-.9,.43-1.89,.72-2.88,.74-.52,.01-.97,.05-1.45,.23-.4,.15-.96-.02-1.36-.14,.03,0-.05,.49,.01,.55,.5,.45,1.07,.82,1.59,1.24,.45,.36,1.04,.4,1.58,.36,1.09-.08,2.13-.46,3.04-1.07,1.94-1.29,2.92-3.61,2.87-5.9,0-.05-.02-.21-.02-.07h0Z"/><path class="cls-3" d="M247.12,579.84c-.24-.35-.43-.76-.53-1.18-.17-1.67-.15-2.1,.05-1.3l.09,.29c.18,.57,.39,1.12,.62,1.67,.43,1,.95,1.96,1.54,2.87,1.32,2.02,3.02,3.76,4.97,5.17,3.89,2.81,8.59,4.18,13.37,3.5,.02,0,0-.24,0-.24-9,.8-18.29-5.16-20.75-13.96,0,0,0,0,0,0-.15,1.2,.09,2.18,.65,3.27,0-.02,.01-.07,0-.1h0Z"/><path class="cls-3" d="M314.56,569.11c.3,.11,.47-.22,.38-.49-.31-1.02-2.26,1.04-2.58,1.31-3.02,2.59-5.99,5.24-8.93,7.92s-5.85,5.31-8.75,8l-4.37,4.05c-.59,.55-1.24,1.35-1.96,1.73-.11,.06-.75,.31-.81,.25-.05-.05,.12-.46,.45-.28-.03-.02,.04-.27,0-.31-.49-.44-.61,.38-.57,.73,.13,1.18,1.19,.74,1.84,.17,3.03-2.67,5.98-5.45,8.93-8.2l8.74-8.17c1.48-1.38,2.92-2.8,4.37-4.22,.79-.78,1.56-1.57,2.36-2.33,.23-.22,.62-.72,1-.61,.33,.1,.23,.61-.09,.36,.01,0-.02,.09,0,.1h0Z"/><path class="cls-3" d="M315.47,569.22c.7-.49,1.49-.85,2.24-1.26l-.02-.82c-4.17,3.13-7.89,6.89-11.47,10.67-1.81,1.91-3.58,3.86-5.31,5.84-.87,.99-1.72,1.99-2.57,3-.45,.54-.89,1.1-1.33,1.66-.06,.08-.46,.7-.53,.69-.57-.05-.4-1.45-.39-1.5,.03-.13-.04-.37-.02-.46-.38,1.29-.08,2.78,.44,3.97l.02,.04c3.43-3.85,6.64-7.88,10.16-11.65s7.4-7.57,11.01-11.45c.14-.15-.13-.72-.02-.82-.73,.66-1.44,1.38-2.23,1.97-.02,.01,.01,.09,0,.1h0Z"/><path class="cls-3" d="M317.92,564.78c-1.05,1.69-1.95,3.4-3.19,4.97s-2.67,3.07-4.18,4.42c-3.16,2.82-6.59,5.15-10.55,6.69-.06,.02,.03,.47,.01,.47,3.86-1.03,7.66-2.83,10.69-5.46s5.79-6.16,7.26-9.93c.11-.3-.18-.93-.04-1.16h0Z"/><path class="cls-3" d="M203.12,464.26c-.93,.02-.88-.66-.91-1.38-.04-1.01,.04-1.28,.93-1.83,.71-.45,1.55-.68,2.34-.97,1.8-.67,3.57-1.4,5.32-2.19,3.45-1.56,6.76-3.39,9.95-5.43,6.21-3.99,11.92-8.77,16.92-14.2,2.96-3.21,5.61-6.67,8.01-10.32,.03-.04-.02-.18-.01-.19-9.79,14.16-23.53,25.26-39.45,31.83-1.37,.57-3.9,1.09-4.24,2.85-.17,.91,.28,1.65,1.15,1.93,0,0,.02-.1,0-.1h0Z"/><path class="cls-3" d="M191.37,478.08c1.7-4.66,5.45-8.54,9.24-11.58s8.35-5.71,12.71-8.25c9.46-5.51,18.31-11.77,25.95-19.66,4.52-4.67,8.55-9.75,12.13-15.18,.03-.05-.02-.21-.01-.23-6.59,9.47-14.61,18.03-23.7,25.14-4.26,3.33-8.77,6.25-13.41,9.02-4.37,2.61-8.8,5.17-12.82,8.31-2.08,1.63-4.05,3.41-5.77,5.42-1.82,2.13-3.08,4.44-4.33,6.92-.01,.02,0,.1,0,.09h0Z"/><path class="cls-3" d="M286.65,419.78c.15-.37,.31-.92,.56-1.24,.02-.27,.16-.37,.4-.31,.16,.37,.28,.75,.36,1.14,.3,1.36,.16,2.92-.34,4.22-.45,1.16-1.18,2.18-1.92,3.17-.67,.9-1.45,2.09-2.46,2.57-.1-.07-.19-.08-.29-.01-.09,.08-.18,.16-.27,.25-.16,.15-.27,.34-.38,.53-.44,.81-.65,1.78-.82,2.67-.33,1.63-.24,3.4-.11,5.04,.05,.63,.1,1.31,.28,1.92,.03,.1,.29,.87,.44,.4,.36-1.13,.4-2.28,.6-3.45,.17-.96,.41-1.88,.68-2.81,.08-.29,.05-.68,.03-.98,0-.06-.11-.66-.13-.63-.34,.42-.79,.34-1.37-.23l-.14,.14-.15,.19,.61,7.36c.17-.96,.51-1.86,.77-2.79,.39-1.38,.67-2.79,1.2-4.12,.84-2.11,2.02-4.05,2.79-6.19,1-2.76,1.86-6.01,.51-8.8h0c-.27,.62-.52,1.26-.84,1.86-.01,.03,.01,.09,0,.1h0Z"/><path class="cls-3" d="M286.88,418.97c.89,1.37,.81,3.33,.15,4.76-.43,.92-.97,1.75-1.49,2.62-.48,.81-.96,1.65-1.16,2.58-.3,1.4-.3,2.9-.26,4.32s.06,3.08,.47,4.5c-.02-.08,.26,.89,.41,.38,.39-1.33,.59-2.67,.62-4.06,0-.56,.14-1.96-.29-2.41-.12-.12-.14,.34-.14,.39-.04,.39-.02,.8,.02,1.19-.36-3.8-.08-1.02-.08,.18,0-.17-.07,.95-.01,.5,.03-.22,.04-.44,.07-.66,.11-.86,.31-1.73,.52-2.57,.43-1.72,.96-3.41,1.35-5.14,.28-1.25,.55-2.55,.54-3.83,0-1.06-.28-1.89-.72-2.84,0,.01-.02,.07,0,.1h0Z"/><path class="cls-3" d="M297.57,504.49c-.68,.81-1.35,1.63-1.99,2.47-.6,.79-1.28,1.55-1.8,2.39-.26,.41-.52,1.27-.12,1.69,.34,.36,.96,.19,.99-.31,0-.03-.02-.24-.02-.14-.04,.45-.73,.25-.94,.07-.31-.27-.01-.73,.17-1,.24-.36,.51-.7,.77-1.04,1.01-1.34,1.99-2.69,2.94-4.08,0,0,0-.03,0-.04h0Z"/><path class="cls-3" d="M296.42,509.39c.98,.41,1.88,.98,2.85,1.41,1.07,.48,2.19,.77,3.32,1.1,1.96,.57,3.93,1.1,5.92,1.6,4.1,1.03,8.22,2.03,12.33,3.01,8.08,1.92,16.17,3.76,24.29,5.5s16.5,3.46,24.67,5.65c2.08,.56,4.04,1.3,6.03,2.13s4.16,1.3,6.26,1.76c4.07,.88,8.17,1.57,12.28,2.25,9.31,1.53,18.64,2.92,27.99,4.15,.26,.03,.03-7.04-.06-7.67-.06-.41-.08-1.55-.43-1.86-.3-.26-.12-.2-.71,.24s-.51,.37-1.09,.42c-.14,.01-.08,2.32,.06,2.52,.79,1.07,1.2,2.12,1.5,3.43,.18,.77,.5,1.57,.6,2.36l-.06-7.67c-8.3-1.1-16.58-2.28-24.86-3.53-4.09-.62-8.17-1.38-12.27-1.9-2-.25-3.99-.52-6-.68-2.11-.17-4.11,.03-6.21,.04s-4.17-.32-6.22-.55-3.99-.43-5.98-.74c-4.17-.64-8.3-1.51-12.43-2.33-8.12-1.62-16.22-3.34-24.3-5.16-4.59-1.04-9.18-2.11-13.76-3.21-2.21-.53-4.41-1.08-6.63-1.55-1.17-.25-2.36-.58-3.54-.73s-2.35,.01-3.52-.1c0,0,0,.1,0,.1h0Z"/><path class="cls-3" d="M292.67,513.03c.85,.39,1.57,.9,2.48,1.15,.81,.22,1.65,.33,2.48,.48,1.59,.27,3.17,.44,4.78,.56s3.2,.24,4.78,.06c1.67-.2,3.3-.63,4.96-.85,.06,0,.03-.82-.02-.83-1.69-.06-3.33-.4-5-.62-1.58-.2-3.2-.16-4.79-.21s-3.18-.13-4.77-.18c-.76-.03-1.52-.1-2.28-.11-.94,0-1.72,.31-2.63,.45,0,0,0,.1,0,.1h0Z"/><path class="cls-3" d="M294.55,511.08c-.06,1.14-3.02-.67-.62-1.13,1.67-.32,3.76,.86,5.27,1.39,4.26,1.5,8.59,2.72,12.94,3.91,8.62,2.36,17.22,4.74,25.95,6.68,4.39,.98,8.8,1.86,13.21,2.74,2.21,.44,4.48,.75,6.64,1.41s4.43,1.36,6.66,1.87c4.27,.98,8.74,1.39,13.09,1.86s8.9,.9,13.36,1.24c5.01,.39,10.04,.64,15.07,.83,2.3,.09,4.6,.18,6.89,.02,1.08-.08,2.16-.21,3.22-.44,1.93-.42,2.6-2.2,3.4-3.84,.19-.38,.22-2.58-.07-2.87-.85-.86-1.6-1.81-2.9-1.65-1.14,.13-2.26,.46-3.42,.56-2.2,.19-4.41,.12-6.61,.04-4.79-.17-9.57-.43-14.35-.75s-9.39-.66-14.08-1.11c-2.38-.23-4.76-.5-7.14-.7s-4.76-.59-7.12-.58-4.73,.11-7.09,.02-4.6-.51-6.85-.81c-4.72-.64-9.43-1.39-14.13-2.2-9.31-1.61-18.57-3.35-27.73-5.67-2.61-.66-5.21-1.36-7.84-1.95-1.3-.29-2.6-.62-3.9-.9-.81-.18-1.7-.34-2.5-.03s-1.32,1.11-1.04,1.94c.24,.7,1.61,1.23,1.69,.2,0-.02,0-.12,0-.08h0Z"/><path class="cls-3" d="M416.02,526.88l-1.28-1.09c.06,.05-.03,.49,0,.6,1.05,2.57,2.31,5.06,3.57,7.54,.66,1.3,1.38,2.53,2.28,3.69,.75,.97,1.63,1.78,2.6,2.52l-.2-8.08c-.79,.36-1.61,.71-2.47,.86-.28,.05-.47,.08-.72,.21-.18,.09-.35,.21-.53,.31-.31,.17-.64,.34-.99,.41-.4,.07-.64-.01-.93-.27-.02-.02-.03-.04-.03-.06-.28-.66-.26,.02,.08,2.05,.05-.17,.08-.33,.15-.49,.14-.3,.35-.53,.61-.73,.2-.15-.05-2.01-.05-2.01-.72,.08-.9,.62-.93,1.26-.07,1.45-.04,3.05,.44,4.43,.4,1.14,1.09,2.18,2.11,2.84,.28,.19,.48,.3,.82,.25,.31-.04,.61-.13,.9-.23,.6-.2,1.18-.47,1.75-.75,.19-.09,.18-1.18,.18-1.19,.05-.95,.04-1.91,.02-2.86s-.05-1.91-.16-2.85c-.03-.27,0-1.01-.24-1.18-.84-.6-1.64-1.23-2.52-1.77-.37-.23-.75-.44-1.12-.67-.34-.21-.73-.31-1.1-.46-1.56-.63-2.65-1.96-3.52-3.37v.61l1.28,.52s0-.03,0-.04h0Z"/><path class="cls-3" d="M489.03,522.88l-2.01-2.01s-.02,.08,0,.1l2.01,2.01s.02-.08,0-.1h0Z"/><path class="cls-3" d="M480.28,517.39c12.43,2.64,25.04,3.22,37.72,3.32,12.62,.1,25.27-.3,37.87-.93s25.43-2.12,38.09-3.49c12.7-1.37,25.39-2.8,38.07-4.4,25.35-3.18,50.67-6.71,75.92-10.65,25.25-3.93,50.43-8.27,75.53-13.05,22.86-4.36,46.08-8.92,67.2-19.06,2.64-1.27,5.23-2.62,7.78-4.06,.52-.29,.15-3.55,.14-4.09,0-.35-.42-4.04-.34-4.08-18.59,10.06-39.93,13.76-60.37,18.18-22.06,4.78-44.18,9.3-66.35,13.56-44.09,8.48-88.37,16.07-132.82,22.4-12.55,1.79-25.15,3.36-37.81,4.16-6.18,.39-12.38,.59-18.57,.54-3.22-.03-6.44-.12-9.65-.3s-6.37,.46-9.6,.85c-.26,.03-.32,4.85,.12,5,2.64,.86,5.42,2.03,8.19,2.29,2.95,.28,5.95,.3,8.9,.35,5.7,.1,11.4-.01,17.08-.3,11.17-.57,22.3-1.78,33.39-3.25,22.38-2.97,44.7-6.57,66.98-10.27,44.29-7.36,88.42-15.73,132.32-25.12,11.95-2.56,23.95-5.03,35.81-8,11.24-2.82,22.34-6.37,32.57-11.91l-.2-8.18c-20.35,11.46-43.27,16.91-66,21.39-24.89,4.91-49.9,9.28-74.95,13.29-25.23,4.04-50.53,7.67-75.87,10.94-25.36,3.28-50.75,6.25-76.15,9.21-12.63,1.47-25.14,3.87-37.81,4.98s-25.15,1.38-37.75,.61c-3.15-.19-6.31-.37-9.46-.64-.03,0-.07,.69,.02,.71h0Z"/><path class="cls-3" d="M485,512.16c-1.53,.28-3.08,.41-4.62,.59-.01,0,0,.14,0,.14,27.89,2.5,56.04,.33,83.79-2.87,27.9-3.22,55.73-7.08,83.47-11.41,27.76-4.34,55.46-9.1,83.12-14.08,27.66-4.98,55.28-10.17,82.9-15.38,13.34-2.52,26.71-4.95,39.91-8.14,6.57-1.59,13.11-3.43,19.5-5.64,2.71-.94,6.12-1.65,8.49-3.29,.83-.57,1.53-1.49,1.3-2.56s-1.75-1.91-2.36-.67c-.03,.06,.03,.18,0,.24,.38-.76,1.37-.6,1.88,.02,.99,1.19-.56,2.15-1.52,2.58-2.79,1.27-5.98,1.98-8.92,2.84-6.35,1.86-12.73,3.51-19.16,5.05-12.96,3.1-26.08,5.5-39.17,7.97-27.1,5.11-54.2,10.21-81.33,15.1-27.13,4.89-54.3,9.58-81.54,13.87-27.23,4.29-54.51,8.26-81.88,11.59s-54.64,5.99-82.16,4.97c-1.59-.06-3.6,.16-5.13-.24-.96-.25,.37-.16,.74-.21,.9-.13,1.79-.27,2.7-.35,0,0,0-.1,0-.1h0Z"/><path class="cls-3" d="M873.99,457.08c-23.77,6.03-47.66,11.57-71.67,16.6-24.02,5.04-48.13,9.68-72.31,13.83s-48.49,7.8-72.84,10.95-48.78,5.81-73.24,7.99-49.01,3.5-73.49,5.52c-3.12,.26-6.25,.51-9.37,.79-.04,0-.02,.55,.01,.55,24.58,.12,49.08-1.68,73.55-3.74,24.48-2.05,48.91-4.62,73.27-7.75,24.37-3.13,48.67-6.77,72.89-10.91,24.23-4.15,48.37-8.77,72.37-14.04s47.94-11.05,71.73-17.33c3.03-.8,6.06-1.61,9.09-2.42v-.04h0Z"/><path class="cls-3" d="M481.89,518.54c11.27,2.64,22.81,4.07,34.17,6.33s22.86,3.95,34.44,4.48c22.65,1.03,45.36-.34,67.75-3.93,12.61-2.02,25.1-4.72,37.42-8.07,.45-.12,.19-3.66,.18-4.08,0-.29-.22-4.11-.38-4.07-17.08,4.37-34.29,8.26-51.68,11.21-17.25,2.93-34.68,4.91-52.17,5.43-9.9,.29-19.82,.11-29.7-.61l.2,8.22c29.25,1.44,58.64-.33,87.5-5.33,8.09-1.4,16.12-3.05,24.11-4.95,.42-.1,.18-3.71,.17-4.12,0-.3-.18-4.14-.37-4.11l-67.7,13.24-19.13,3.74,.2,8.22,8.59-2.05c.58-.14,.4-8.09-.2-8.22-1-.22-1.81-.13-2.83,0l-1.41,.16c-.53,.06-.91,.24-1.41,.33-.37,.07-1.03-.13-1.42-.15-.47-.02-.94-.04-1.42-.06-.91-.04-1.96,.08-2.83-.12,.06,.01-.31,2.75,.07,2.83,.95,.21,1.94,.78,2.86,1.15s2.03,.6,2.85,1.06c.49,.27,.93,.68,1.44,.96l1.43,.8c.95,.53,1.79,1.02,2.86,1.26l-.2-8.22-8.59,2.05c-.47,.11-.22,3.69-.21,4.12,0,.3,.17,4.15,.41,4.1l67.7-13.24,19.13-3.74-.2-8.22c-28.49,6.76-57.72,10.38-87,10.74-8.2,.1-16.41-.06-24.61-.46-.2,0-.46,8.18,.2,8.22,17.52,1.28,35.12,.84,52.6-.86,17.46-1.7,34.78-4.64,51.92-8.33,9.73-2.1,19.4-4.43,29.03-6.92l-.2-8.15c-21.88,6-44.28,9.84-66.88,11.74-11.29,.95-22.63,1.37-33.96,1.35-5.65-.01-11.32-.11-16.97-.25-2.84-.07-5.66,0-8.5-.08s-5.86-.28-8.8-.36c-6.52-.18-13.02-.57-19.5-1.3s-12.62-1.56-18.98-1.96c0,0-.02,.19,0,.2h0Z"/><path class="cls-3" d="M492.16,519.92c-1.69-1.06-3.91-2.05-5.23-3.55l.02,.71c1.01,.9,2.2,1.66,3.08,2.68,.95,1.12,1.9,2.08,3.11,2.95,1.87,1.34,3.8,2.58,5.83,3.67,3.92,2.09,7.97,3.89,12.08,5.56,8.21,3.35,16.62,6.14,25.19,8.43l.08-.15,.4-.96-.27-5.77c-.4,.89-1,1.49-1.93,1.69-.09,.02-.08,1.3,.03,1.38,.97,.68,1.58,1.6,2.03,2.71,.13,.31,.17-.3,.17-.31,.14-.48,.06-1.31,.06-1.79,0-1.11,.15-2.6-.25-3.68-.51-1.36-.26-1.27-1.43-1.58-.59-.16-1.19-.32-1.78-.48-1.04-.28-2.07-.58-3.11-.88-2.07-.6-4.12-1.23-6.17-1.89-4.3-1.39-8.58-2.87-12.8-4.49s-8.21-3.25-12.28-4.94c-1.95-.81-3.96-1.51-6-2.06-1.01-.27-1.84-.42-2.84-.29-1.09,.15-2.13-.31-3.23-.51,0,0-.07,.7,.02,.71,.92,.08,1.83,.85,2.61,1.31l2.61,1.56s0-.03,0-.04h0Z"/><path class="cls-3" d="M512.46,528.34c-1.36-.17-2.71-.24-4-.73,.04,.02-.08,.71,.02,.8,1.56,1.38,3.1,2.75,4.63,4.15,1.42,1.3,3.02,2.37,4.61,3.45,2.97,2.01,6.07,3.82,9.2,5.58,1.46,.82,2.91,1.66,4.37,2.46,1.31,.72,3.05,2.1,4.58,2.1,2.04,0,4.62-1.01,5.31-3.06,.12-.34-.22-1.42-.06-1.62-.63,.78-1.61,.42-2.37,.03-1.32-.68-2.24-1.91-3.28-2.93-1.16-1.14-2.94-1.79-4.38-2.52-1.52-.78-3.06-1.52-4.59-2.28-2.93-1.45-5.88-2.88-8.94-4.04-1.41-.54-2.85-1.15-4.35-1.38-.8-.12-1.6-.09-2.38-.25s-1.58-.35-2.38-.49l.02,.8c1.31-.27,2.65-.1,3.98-.03v-.04h0Z"/><path class="cls-3" d="M527.89,537.66c-1.08,.05-2.19,.18-3.26,.09s-1.07-.12-1.86-1.38c-.42-.68-.61-1.45-1.48-1.57-.29-.04-.24,3.17-.23,3.44,.01,.41-.12,3.28,.4,3.42,3.9,1.04,8.3,.78,12.31,.71s8.03-.26,12.03-.54c8.11-.57,16.19-1.55,24.23-2.73,16.01-2.36,31.94-5.35,47.88-8.15l26.99-4.73-.2-8.22-8.8,3.95,.2,8.22c.57-.35,1.13-.72,1.68-1.09,.6-.41,.87-.99,1.24-1.61,.9-1.47,1.74-2.85,2.89-4.14,.15-.16-.05-1.85-.05-1.85-.66,.09-1.08,.16-1.71,0-.44-.11-.87-.34-1.29-.48-.65-.22-.66-.28-1.28-.04-.59,.23-1.15,.66-1.69,.99-.18,.11-.16,1.19-.16,1.21-.04,.97-.03,1.94,0,2.91,0,.32,.36,4.11,.36,4.11l8.8-3.95c.17-.08,.17-1.23,.17-1.21,.05-.97,.04-1.94,0-2.91,0-.3-.16-4.14-.38-4.1-16.19,2.85-32.39,5.69-48.58,8.54s-31.76,5.55-47.82,6.97c-4.41,.39-8.83,.67-13.25,.81-2.29,.07-4.59,.08-6.88,.14s-4.61-.06-6.88,.35l.17,6.86c.87-.27,1-1.07,1.4-1.81l.85-1.41,.93-.28c1.06-.26,2.17-.33,3.25-.46v-.04h0Z"/><path class="cls-3" d="M520.93,526.05c-1.83-3.47-4.98-6.41-8.58-7.94,.25,.11-.4,3.06,.09,3.46,.82,.7,1.73,1.27,2.55,1.96,.87,.72,2.04,1.09,3.12,1.47,1.92,.68,3.78,.99,5.81,1.14,4.23,.31,8.5,.15,12.73,.06,9.09-.2,18.17-.69,27.24-1.32,18.14-1.26,36.22-3.14,54.25-5.49s36.04-5.14,53.98-8.23c17.96-3.1,35.87-6.49,53.75-10.04s35.72-7.26,53.56-10.99c2.27-.48,4.54-.95,6.81-1.43l-.2-8.2c-4.13,3.78-9.27,6.05-14.57,7.68-5.86,1.81-11.89,3.1-17.84,4.55-12.77,3.12-25.54,6.21-38.36,9.11-25.76,5.83-51.71,10.95-77.94,14.13-14.76,1.79-29.59,2.95-44.45,3.3l.27,8.07c.92-2.45,1.54-5.05,2.29-7.56,.07-.23-.13-1.94-.06-1.97-.79,.41-1.91,.78-2.49,1.45s-.08,8.23,.2,8.22c26.38-.62,52.62-3.83,78.58-8.46,26.05-4.65,51.82-10.69,77.52-16.95,6.85-1.67,13.77-3.2,20.55-5.12,5.98-1.69,11.87-4,16.51-8.25,.17-.15,.13-1.13,.13-1.21,.03-.97,.02-1.94,0-2.9,0-.3-.2-4.12-.33-4.1-17.84,3.73-35.67,7.47-53.54,11.06-17.87,3.59-35.77,7.05-53.72,10.22-17.93,3.17-35.91,6.06-53.94,8.52s-36.09,4.5-54.21,6.02c-9.06,.76-18.14,1.28-27.21,1.86-8.45,.53-17.01,1.31-25.46,.6-.96-.08-1.96-.34-2.88-.38s-1.81-.09-2.73-.28l.09,3.46c1.6-.26,3.36-.15,4.88,.5,1.64,.69,2.93,2.48,3.61,4.07,0-.02,.01-.07,0-.1h0Z"/><path class="cls-3" d="M705.61,505.48c18.35-3.32,36.62-7.1,54.78-11.35s36.36-8.84,54.36-13.94c17.91-5.07,35.64-10.69,53.3-16.56,17.64-5.86,35.17-12.12,52.42-19.05,16.75-6.72,33.29-14.07,48.67-23.57,1.87-1.16,3.74-2.22,5.68-3.25,.55-.29,.28-2.72,.27-3.24,0-.24-.3-3.28-.43-3.22-8.36,4.29-16.36,9.29-24.65,13.74-8.41,4.51-16.91,8.81-25.54,12.87-17.25,8.11-34.89,15.36-52.61,22.37s-35.6,13.82-53.28,21.01c-18.12,7.36-36.08,15.2-54.69,21.25-18.23,5.92-37.39,10.25-56.66,9.87-1.09-.02-3.81-.23-4.16-1.63l.29,2.45-.02-.29-.03,4,.03-.3-.32,1.21c1.12-.93,1.84-1.8,2.64-3.02,.44-.67,.88-1.35,1.33-2.02,.52-.79,1.17-2.28,1.87-2.85,.44-.36-.27-2.03-.05-2.2-.83,.69-.17,.04-.8,.13-.27,.04-.53,.08-.8,.13l-1.4,.22c-1.16,.18-2.3,.44-3.04,1.47-.28,.38-.25,.99-.29,1.44-.12,1.32-.11,2.68-.03,4,.07,1.21,.02,2.84,.76,3.89,.97,1.37,2.96,1.56,4.48,1.58,2.57,.04,5.14-.02,7.7-.14,10.13-.48,20.18-2.08,30.04-4.43,19.92-4.74,38.99-12.4,57.88-20.18,18.72-7.71,37.55-15.14,56.4-22.51,18.68-7.3,37.33-14.71,55.63-22.94,9.15-4.12,18.21-8.44,27.12-13.06s17.89-9.45,26.18-15.15c2.1-1.45,4.19-2.89,6.2-4.46l-.16-6.46c-7.11,5.71-15.46,9.98-23.53,14.16s-16.24,7.98-24.54,11.59c-17.16,7.46-34.55,14.45-52.05,21.07-17.52,6.62-35.28,12.64-53.16,18.24-17.94,5.62-36.02,10.86-54.24,15.47-18.12,4.58-36.36,8.66-54.69,12.28-2.28,.45-4.56,.89-6.85,1.33,0,0,0,.04,0,.04h0Z"/><path class="cls-3" d="M726.12,492.7c4.98,1.64,10.2,1.83,15.4,1.59s10.25-.83,15.32-1.76c10.06-1.85,20.02-4.57,29.83-7.43,19.77-5.77,39.27-12.54,58.51-19.9,19.31-7.4,38.41-15.32,57.41-23.48,18.94-8.14,37.85-16.38,56.63-24.9,9.25-4.2,18.42-8.63,27.14-13.86,4.18-2.51,8.2-5.26,12.25-7.97s8.51-5,12.22-8.14c1.2-1.01,2.12-2.29,3.16-3.45,.92-1.03,2.15-1.8,3.27-2.6,.09-.07,.02-.87-.02-.87-1.08,.09-2.25,.35-3.33,.22-1.13-.14-2.11-.5-3.25-.28-2.35,.45-4.21,1.71-6.22,2.97-4.08,2.54-8.01,5.3-12.02,7.95-8.43,5.57-17.35,10.31-26.47,14.64-18.58,8.82-37.56,16.89-56.43,25.08-18.97,8.24-38.04,16.27-57.3,23.81-19.26,7.54-38.69,14.59-58.33,21.1-9.86,3.27-19.78,6.33-29.68,9.45-5.03,1.59-10.04,3.2-15.05,4.86s-10.09,2.95-15.39,3.23c-2.53,.13-5.11,0-7.63-.3,0,0,0,.04,0,.04h0Z"/><path class="cls-3" d="M1038.91,370.43c-2.84,7.49-10.68,11.15-17.51,14.24-8.96,4.06-18.05,7.8-27.22,11.35-18.72,7.23-37.42,14.5-56.12,21.78-19.42,7.56-38.77,15.3-58.13,23l-58.13,23.1c-9.74,3.87-19.56,7.58-29.2,11.72-2.42,1.04-4.82,2.05-7.16,3.27-2.46,1.29-4.9,2.64-7.41,3.81-4.6,2.15-9.19,4.31-13.92,6.16-2.29,.9-4.62,1.66-7,2.32-.41,.12,0,2.95,.07,2.93,1.16-.24,2.31-.49,3.46-.76,1.21-.28,2.47-.28,3.71-.38,2.38-.19,4.77-.36,7.11-.79s4.51-.88,6.77-1.35,4.66-1.31,6.96-2.04c9.28-2.97,18.36-6.48,27.46-9.98,18.75-7.22,37.43-14.58,56.02-22.2s37.17-15.39,55.69-23.24c18.52-7.85,37.01-15.78,55.48-23.76,9.15-3.95,18.29-7.91,27.44-11.87,4.66-2.02,9.31-4.04,13.97-6.06,3.95-1.72,8.27-3.17,11.86-5.59,1.78-1.19,2.9-2.9,3.81-4.82,.43-.9,.21-2.47,.17-3.42-.03-.59-.05-1.2-.14-1.78-.01-.09-.22-.96-.27-.91-1.72,1.97-3.4,4.32-5.73,5.55-1.9,1.01-3.88,1.89-5.81,2.77-2.11,.96-4.13,2.31-6.2,3.38s-4.23,2.19-6.35,3.27c-8.69,4.42-17.6,8.4-26.41,12.58-18.65,8.85-37.41,17.48-56.27,25.88-18.78,8.37-37.65,16.54-56.62,24.5-18.68,7.83-37.4,15.62-56.38,22.71-9.36,3.5-18.81,6.79-28.37,9.7-4.73,1.44-9.49,2.78-14.28,4.01-1.13,.29-2.28,.53-3.4,.85-1.34,.38-2.63,1.03-3.92,1.55-2.36,.96-4.7,1.9-7.09,2.75-1.23,.44-2.46,.87-3.69,1.29s-2.47,1.02-3.71,1.23c-.3,.05-.06,2.26,.06,2.24,1.1-.19,2.33-.04,3.47-.08,1.33-.04,2.66-.09,3.99-.15,2.38-.11,4.75-.18,7.15-.31,1.21-.06,2.49-.05,3.69-.25s2.45-.6,3.66-.91c2.44-.62,4.87-1.28,7.29-1.96,9.53-2.69,18.94-5.79,28.25-9.14,19.07-6.86,37.82-14.64,56.53-22.43,19-7.91,37.9-16.04,56.69-24.44,18.8-8.4,37.49-17.03,56.08-25.89,9.14-4.35,18.25-8.76,27.24-13.41,4.25-2.2,8.5-4.42,12.55-6.96,2.06-1.29,4.25-2.55,6.19-4.03s3.88-3.27,5.76-4.93c.45-.4,.93-.98,1.46-1.28,.44-.25,.97-.36,1.46-.57,.96-.41,1.92-.84,2.87-1.29l-.15-6.22c-1.12,1.23-2.74,2.18-4.13,3.06-1.61,1.02-3.35,1.81-5.09,2.57-4.63,2.02-9.27,4.02-13.91,6.04-9.23,4-18.46,8-27.69,11.99-18.38,7.94-36.78,15.86-55.2,23.69-18.43,7.83-36.89,15.58-55.4,23.21-18.62,7.67-37.26,15.31-55.96,22.77-9.19,3.67-18.4,7.3-27.63,10.88-2.2,.85-4.42,1.69-6.64,2.49s-4.73,1.48-6.94,2.49-4.66,1.82-7,2.64-4.51,1.76-6.8,2.58c-1.12,.4-2.26,.9-3.43,1.11-1.23,.22-2.49,.34-3.73,.49l.07,2.93c4.78-.96,9.5-2.25,14.15-3.71,2.37-.75,4.73-1.53,7.1-2.31s4.79-1.36,7.19-2.03c4.98-1.37,9.82-3.39,14.61-5.31l14.6-5.84,58.39-23.37c19.47-7.79,38.98-15.5,58.39-23.42,18.92-7.72,38.02-15.15,56.38-24.15,9.26-4.53,18.43-9.25,27.53-14.09,7.23-3.85,15.71-7.59,20.73-14.36,1.15-1.55,2.03-3.24,2.66-5.07,0-.01,0-.03,0-.04h0Z"/><path class="cls-3" d="M609.64,501.75c28.92-1.32,57.7-5.32,86.04-11.14,28.45-5.84,56.52-13.3,84.4-21.39,27.93-8.1,55.77-16.52,83.47-25.39,27.69-8.87,55.22-18.26,82.42-28.53,13.67-5.16,27.23-10.56,40.65-16.35,12.62-5.44,25.59-11.04,36.83-19.05,2.88-2.06,5.6-4.26,8.19-6.68,.17-.16-.12-.96-.03-1.02-11,7.59-23.11,13.15-35.41,18.28-13.35,5.57-26.67,11.2-40.12,16.52-27.08,10.73-54.54,20.43-82.2,29.53-27.66,9.1-55.51,17.62-83.39,26.03-27.88,8.41-55.87,16.62-84.19,23.41s-56.84,12.23-85.76,14.87c-3.63,.33-7.27,.62-10.9,.86,0,0,0,.04,0,.04h0Z"/><path class="cls-3" d="M1029.14,374.68c-10.36,8.96-22.26,15.47-34.57,21.34s-25.5,11.59-38.59,16.59c-26.1,9.97-52.62,19.09-79.28,27.44-27.05,8.47-54.43,15.91-81.97,22.62-27.53,6.7-55.25,12.65-83.04,18.18-14.07,2.8-27.95,6.38-41.92,9.65s-27.92,6.28-41.93,9.21c-3.46,.72-6.92,1.45-10.38,2.17-.21,.04-.02,1.66,.04,1.65,13.99-2.17,27.96-4.47,41.98-6.43,13.99-1.95,28.11-3.56,42.01-6.06,27.87-5.02,55.61-11.23,83.16-17.79s55.08-13.85,82.19-22.33c27.05-8.46,53.67-18.06,79.55-29.64,13.09-5.86,25.95-12.35,38.79-18.74s25.06-12.51,36.13-21.01c2.75-2.11,5.35-4.37,7.82-6.81,0,0,0-.04,0-.04h0Z"/><path class="cls-3" d="M485.04,507.88c33.06-.06,66.12-3.21,98.91-7.26,32.89-4.06,65.45-9.7,97.94-16.24,31.98-6.44,63.85-13.52,95.67-20.7,15.53-3.5,31.07-7.01,46.5-10.95s30.84-8.75,46.06-13.76c30.35-9.98,60.52-20.96,89.69-34.02,3.61-1.62,7.21-3.27,10.79-4.96,.04-.02-.02-.23,0-.24-28.91,12.64-58.76,22.92-89.27,30.95-15.25,4.02-30.62,7.56-45.99,11.11-15.51,3.58-30.92,7.54-46.43,11.14-31.65,7.34-63.37,14.41-95.13,21.29-32.51,7.04-65.03,14.15-97.76,20.15-32.64,5.98-65.56,10.28-98.68,12.36-4.1,.26-8.19,.54-12.29,.77-.03,0-.02,.35,0,.35h0Z"/><path class="cls-3" d="M972.4,398.02c-23.23,13.85-47.78,25.6-72.89,35.6-25.27,10.06-51.51,17.84-77.74,24.95-26.46,7.17-53.17,13.35-79.92,19.36-29.15,6.55-58.39,12.33-87.77,17.74-29.65,5.47-59.55,9.66-89.74,10.13-3.67,.06-7.35,.06-11.02,.02-.04,0-.05,.74,.02,.75,29.86,1.95,59.87,.6,89.58-2.72,29.83-3.33,59.25-10.09,88.49-16.72,26.94-6.11,53.83-12.54,80.4-20.12s52.62-16.23,78.1-26.7c25.54-10.49,50.45-22.14,73.91-36.76,2.88-1.8,5.74-3.63,8.58-5.49,0,0,0-.04,0-.04h0Z"/><path class="cls-3" d="M698.23,494.05c11.27-.15,22.54-1.07,33.76-2,11.11-.92,22.29-1.58,33.34-3.12,22.19-3.08,44.09-7.69,65.78-13.3,10.98-2.84,22.44-5.76,31.72-12.58,.24-.17,.24-1.04,.25-1.2,.07-.95,.07-1.93,.04-2.88,0-.3-.21-4.13-.49-4.06-27.16,7.05-54.31,14.17-81.52,21.04-27.19,6.87-54.44,13.47-81.84,19.45-3.82,.83-7.64,1.66-11.48,2.44s-7.66,1.75-11.48,2.77c-1.88,.5-3.86,.78-5.77,1.12s-3.85,.82-5.78,1.26c-3.83,.88-7.68,1.42-11.6,1.74-.16,.01-.15,2.26,.06,2.28,3.55,.42,7.13,.64,10.7,.89s6.73,.16,10.16-.15,6.76-.36,10.1-.92,6.69-1.33,10.02-2.05c13.7-2.93,27.35-6.05,40.98-9.27,27.29-6.45,54.47-13.38,81.61-20.41,15.36-3.98,30.7-8.02,46.05-12.04l-.2-8.13c-8.19,6.04-18.05,8.96-27.74,11.61-10.84,2.96-21.71,5.78-32.66,8.29s-21.96,4.93-32.99,7.19-22.11,4.67-33.23,6.67c-12.53,2.25-25.18,3.61-37.78,5.34,0,0,0,.04,0,.04h0Z"/><path class="cls-3" d="M516.49,514.86c-1.55-1.2-2.63-2.81-3.11-4.72v1.29c5.49,.03,10.99-.1,16.48-.15,2.81-.03,5.58,.15,8.39,.07s5.59-.22,8.38-.38c10.97-.62,21.92-1.74,32.84-2.94,21.98-2.42,43.89-5.35,65.75-8.64,21.87-3.29,43.67-6.95,65.42-10.98s43.41-8.44,65-13.21c10.85-2.4,21.67-4.89,32.48-7.48,5.35-1.28,10.7-2.58,16.04-3.91,2.27-.56,4.75-.93,6.83-2.06,1.97-1.07,2.58-2.74,2.76-4.92,.1-1.21,.08-2.45,0-3.67-.03-.43,.06-1.17-.37-1.43,.08,.05-.05,2.61,0,2.93l.05-1.5,.12-1.2c-.21,.36-.64,.14-.94,.26-.83,.33-1.57,1.19-2.42,1.59-2.13,.99-4.58,1.35-6.85,1.92-5.24,1.3-10.49,2.58-15.74,3.83-10.4,2.49-20.82,4.89-31.26,7.2-20.98,4.65-42.04,8.96-63.16,12.94-21.22,4-42.51,7.64-63.86,10.93-21.24,3.28-42.55,6.17-63.87,8.87-10.72,1.36-21.45,2.68-32.18,4-5.28,.65-10.54,1.44-15.79,2.3s-10.7,2.08-16.09,2.96c-2.68,.44-5.38,.82-8.05,1.28-.15,.03-.02,1.22,.02,1.35,.5,1.67,1.53,2.8,3.13,3.5,0,0,0-.03,0-.04h0Z"/><path class="cls-3" d="M830.08,452.36c-1.86,.55-3.86,.79-5.77,1.12s-3.85,.67-5.78,1.01c-3.69,.64-7.39,1.28-11.08,1.92-7.55,1.3-15.15,2.23-22.66,3.76-15.15,3.08-30.22,6.44-45.32,9.74-15.13,3.31-30.25,6.67-45.39,9.95s-30.31,6.13-45.21,10.23c-16.96,4.66-33.98,9.04-51.05,13.25-.18,.04,0,1.5,.04,1.5,15.2-2.36,30.4-4.66,45.61-6.94,7.63-1.14,15.22-2.24,22.77-3.86,7.58-1.63,15.15-3.28,22.73-4.95,15.15-3.33,30.29-6.67,45.39-10.21,15.05-3.53,30.12-7.01,45.05-11.01,4.26-1.14,8.52-2.27,12.74-3.56,4.19-1.28,8.32-2.71,12.48-4.05s8.32-2.57,12.48-3.86c2.08-.65,4.16-1.29,6.24-1.94,2.2-.69,4.45-1.55,6.72-1.99,.01,0,0-.1,0-.1h0Z"/><path class="cls-3" d="M297.26,509.46c-1.37-1.93,1.51-2.19,2.68-2.04,1.79,.23,3.57,1.1,5.28,1.64,3.67,1.16,7.4,2.17,11.12,3.15,7.23,1.9,14.62,3.26,22.02,4.34s15.14,1.96,22.73,2.66c7.44,.69,14.9,1.26,22.37,1.37,4.28,.06,8.57,.1,12.84-.1,2.06-.1,4.12-.23,6.17-.38,1.11-.08,2.21-.17,3.32-.26,.47-.04,.95-.08,1.42-.12,.85-.07,1.29,.02,1.88-.63l-.18-7.31c-.89,1.41-1.85,2.69-2.96,3.94-.09,.1-.07,1.25,.03,1.3,1.17,.56,2.13,1.2,3.1,2.07,.05,.04,.14-1.27,.13-1.07,.04-.86,.02-1.73,0-2.59s-.05-1.73-.13-2.58c-.02-.25,.01-.9-.19-1.07-.53-.45-.76-.38-1.43-.31-.47,.05-.95,.1-1.42,.15-1.03,.1-2.05,.2-3.08,.29-1.98,.18-3.95,.33-5.93,.47-4.04,.28-8.07,.62-12.11,.82-7.99,.4-16,.64-23.99,.4-15.98-.48-31.79-3.02-47.49-5.91-4.23-.78-8.48-2-12.75-2.49-.98-.11-2.16-.13-2.84,.67-.48,.57-.83,1.36-.95,2.09-.09,.59-.05,1.07,.33,1.55,0,0,0-.03,0-.04h0Z"/><path class="cls-3" d="M298.71,507.47c-.21-.45-.4-.91-.6-1.38-.21-.49-.6-.81-.1-1.15,.18-.12,1.25,.13,1.48,.15,.41,.04,.83,.08,1.24,.12,1.98,.2,3.96,.39,5.94,.58,3.79,.36,7.59,.66,11.39,.96,7.68,.6,15.37,1.13,23.06,1.58,15.22,.9,30.45,1.5,45.69,1.87,8.61,.21,17.23,.32,25.84,.35l-.02-.89c-6.74,4.12-14.15,7.01-21.81,8.91-1.85,.46-3.72,.83-5.59,1.18-1.01,.19-2.03,.38-3.04,.54-.81,.13-1.7,.18-2.43,.61-.81,.49-1,1.3-.89,2.18,.09,.75,1.07,1.7,1.55,.64,.06-.12-.07-.38-.01-.47-.25,.4-.8,.3-1.08-.06-.33-.41,.16-.55,.62-.72,1.36-.5,3.03-.46,4.46-.69,3.34-.54,6.64-1.44,9.85-2.47,6.46-2.08,12.64-5.18,18.4-8.76,.08-.05,0-.89-.02-.89-29.99,.13-59.96-.89-89.87-3.03-8.42-.6-16.84-1.25-25.26-1.99-.01,0,0,.21,0,.23,.41,.89,.82,1.77,1.19,2.68,0-.02,.01-.07,0-.1h0Z"/><path class="cls-3" d="M414.58,517.36c.46-.24,.62-.68,.58-1.18-.02-.26-.1-.48-.2-.72-.31-.77-.11-1.45-.89-1.84-.03-.02-.07,.99-.07,1,.02,3.17,.35,6.34,1.23,9.39,.38,1.33,.83,2.69,1.47,3.92,.25,.47,.5,1.05,.85,1.46,.13,.16,.36,.32,.55,.4,.26,.12,.45,.05,.72,.2,0,0,.05-.8,.05-.83,0-.31,.05-.76-.08-1.05-.64-1.48-1.09-3.01-1.78-4.48-.5-1.07-1-2.15-1.41-3.26-.73-1.95-1.25-4.02-1.42-6.09l-.04,2.05c.28-.08,.97-.13,.97,.3,0,.28-.32,.55-.53,.68,0,0,0,.04,0,.04h0Z"/><path class="cls-3" d="M412.56,520.23c.29-.41,.73-.76,1.1-1.11,.3-.29,.66-.65,1.11-.56-.05,0,.14-1.33-.03-1.38-.27-.08-.38,.03-.61,.17s-.45,.27-.68,.4c-.44,.25-.88,.5-1.34,.72-.42,.21-.88,.33-1.32,.47-.25,.07-.5,.15-.74,.21-.91,.25-.7,.32-1.24-1.22l.12,7.63c.81-.67,1.85-1.07,2.9-1.1l-.2-8.04c-.89,.5-1.8,.96-2.73,1.37s-1.91,.73-2.85,1.12l.2,8.16c.35-.27,.39-.82,.5-1.22l-.05,.11c.39-.94,1.09-1.82,1.93-2.41,.63-.45,1.31-.85,1.96-1.28,.16-.11-.04-1.73-.04-1.73-.66,.04-1.33,.13-1.99,.13-.34,0-.65-.09-.96-.21-.16-.06-.33-.1-.48-.18-.26-.13-.41-.37-.57-.61l.05,.11c-.06-.18-.14-.36-.22-.54-.01-.26-.12-.37-.33-.34-.23-.01-.15,3.77-.14,4.09,.03,.96,.05,1.93,.14,2.88,.01,.12,.11,1.22,.2,1.19,.98-.28,1.93-.74,2.85-1.17s1.84-.92,2.73-1.45c.17-.1,.14-1.18,.14-1.18,.04-.94,.03-1.9,0-2.84,0-.31-.08-4.03-.34-4.01-.63,.03-1.25,.19-1.81,.48-.29,.15-.55,.36-.79,.58-.1,.09-.22,.19-.3,.31-.26,.39-.21,1.12-.24,1.54-.09,1.22-.05,2.46,.02,3.68,.02,.47,.04,.94,.11,1.4,0,.06,.08,.59,.15,.29l.12-.53-.04,.09c.44-.55,1.03-.98,1.56-1.45s1.01-.94,1.51-1.41c.45-.42,.94-.81,1.4-1.23,.54-.5,1.13-.97,1.46-1.63l-.05-1.36c-.28,.68-.65,1.24-1.13,1.79-.32,.37-.64,.86-1.04,1.14-.02,.01,.01,.08,0,.1h0Z"/><path class="cls-3" d="M382.4,521.67c-1.72-1.29-3.67-1.99-5.82-2.08,0,0-.02,.22,0,.23,5.73,2.37,12.28,1.28,18.32,1.35,6.6,.08,13.24,.7,19.75,1.8,0,0,.02-.23,0-.24-7.64-1.62-15.35-2.33-23.16-2.19-3.57,.07-7.15,.5-10.71,.07-.86-.11-1.72-.26-2.55-.49-.35-.09-.7-.19-1.04-.32-.51-.19,.18,.03,.43,.06,1.74,.17,3.35,.83,4.78,1.83,0,0,0-.03,0-.04h0Z"/><path class="cls-3" d="M402.48,524.47c-24.26-3.01-48.51-6.04-72.77-9.02-3.46-.43-6.93-.82-10.4-1.28s-6.93-1.32-10.4-1.46l.03,1.31c1.5-.58,2.98-1.12,4.52-1.6,.05-.01-.02-.43-.01-.43-1.51,.31-3.01,.53-4.54,.72-.06,0-.06,1.29,.03,1.31,2.98,.58,6.13,.63,9.15,.9s6.11,.68,9.16,1.03c6.1,.7,12.21,1.41,18.31,2.1l36.13,4.1,20.79,2.36v-.04h0Z"/><path class="cls-3" d="M428.93,535.33c2.51,2.84,4.53,6.29,6.5,9.51,2.08,3.39,4.03,6.86,5.93,10.36,3.66,6.77,6.95,13.72,10.64,20.47,1.87,3.42,3.85,6.79,5.81,10.16s4.23,6.59,6.56,9.76,4.72,6.56,7.5,9.58c2.55,2.76,5.26,5.24,8.22,7.56,3.19,2.5,6.54,4.8,10.02,6.88,1.76,1.06,3.57,2.04,5.4,2.97,.92,.47,1.84,.92,2.77,1.35,.48,.23,.99,.52,1.5,.68,.62,.2,.9-.02,1.48-.33,.28-.14,0-2.79,0-3.13-.02-.74-.04-1.47-.08-2.21-.01-.22,.05-.74-.08-.91-.34-.46-.69-1.13-1.16-1.47-.35-.26-.91-.41-1.31-.59-.87-.4-1.74-.81-2.6-1.24-1.66-.82-3.29-1.7-4.89-2.61-3.15-1.8-6.2-3.75-9.13-5.88-5.64-4.11-10.83-8.83-16.06-13.43-2.63-2.31-4.6-5.36-6.71-8.13-2.23-2.93-4.2-5.97-6.05-9.15-3.71-6.37-7.18-12.9-10.72-19.36-1.96-3.57-3.97-7.12-6.16-10.56s-4.94-6.91-7.39-10.39c.01,.02-.02,.08,0,.1h0Z"/><path class="cls-3" d="M255.91,583.6c3.8,1.54,7.66,2.1,11.72,2.52,1.9,.2,3.8,.27,5.7,.44s3.87,.19,5.68,.52c3.79,.71,7.47-.4,11.01-1.66,.96-.34,1.91-.71,2.85-1.1,.37-.15,.86-.3,1.2-.52,.63-.39,.67-.92,.87-1.59,.34-1.14,.79-2.11,.76-3.27-.03-1.25-.72-2.15-1.29-3.26l-.14-.14c-.84,.1-1.63,.61-2.41,.94s-1.49,.61-2.24,.9c-1.51,.57-3.05,1.03-4.58,1.54-1.66,.55-3.3,1.12-4.88,1.88-.72,.35-1.41,.79-2.14,1.08-.82,.33-1.74,.51-2.59,.76-6.42,1.91-12.94,1.17-19.51,.86,0,0-.01,.1,0,.1h0Z"/><path class="cls-3" d="M261.89,585.41c4.75-1.06,9.46-2.39,14.01-4.1,2.29-.86,4.54-1.82,6.76-2.83s4.62-1.95,6.56-3.37c.03-.02,0-.23,0-.24-2.25,.78-4.39,2.18-6.56,3.18s-4.48,1.95-6.76,2.83c-4.58,1.77-9.24,3.29-14,4.49,0,0,0,.04,0,.04h0Z"/><path class="cls-3" d="M722.02,519.47c-1.9,.96-1.48,3.66-.21,4.57,.25,.18,.53,.28,.81,.38,.62,.22,1.26,.4,1.88,.62,1.31,.46,2.62,.96,3.9,1.5,2.56,1.08,5.03,2.36,7.39,3.83s4.8,3.27,6.98,5.19c1.04,.92,2.05,1.88,3.02,2.89,.46,.48,.91,.96,1.35,1.46,.41,.46,.81,1.14,1.43,1.32,.38,.11,.41-3.19,.41-3.29,0-1.27,.1-2.95-.46-4.14,.63,2.47,.84,3.19,.63,2.18-.06-.32-.15-.63-.27-.93-.19-.64-.28-1.2-.61-1.79-.37-.64-.93-1.19-1.43-1.74-.98-1.07-2-2.1-3.06-3.09-2.04-1.89-4.23-3.62-6.53-5.17s-4.96-3.04-7.6-4.24c-1.32-.6-2.67-1.16-4.04-1.62-.75-.25-1.5-.48-2.26-.7-.67-.19-1.61-.27-1.97-.94l.53,4.86,.1-1.18s0,.04,0,.04h0Z"/><path class="cls-3" d="M1004.36,383.55c-.54,.32-1.06,.65-1.63,.9-.05,.02-.03,.34,0,.34,1.69-.04,3.66-1.31,5.19-1.99l5.18-2.28c3.46-1.52,6.93-3.02,10.37-4.58s6.91-3.15,10.37-4.72c2.9-1.32,5.69-2.75,7.69-5.31,.07-.09-.02-.5-.03-.49-2.35,2.18-5.73,3.17-8.6,4.5-3.53,1.63-7.08,3.23-10.59,4.9s-6.91,3.29-10.36,4.94l-5.18,2.47c-.91,.43-1.81,.87-2.7,1.35-.21,.11-.79,.33-.91,.49-.11,.09,.01,.12,.38,.1l.81-.57s0-.04,0-.04h0Z"/><path class="cls-3" d="M954.12,410.27c-2.5,.2-4.92,.16-7.39,.7-1.17,.26-2.33,.58-3.46,.98s-2.28,1.05-3.52,1.2c-.11,.01-.09,.93,.02,.94,1.87,.1,4.02-1.04,5.78-1.64,1.93-.66,3.84-1.34,5.75-2.04,3.83-1.41,7.64-2.85,11.45-4.32,7.53-2.91,15.02-5.95,22.46-9.1,15.02-6.37,29.83-13.23,44.41-20.56,4.06-2.04,8.11-4.12,12.14-6.24s8.48-4.4,12.21-7.3c.05-.04,0-.4,0-.39-3.75,1.21-7.31,3.24-10.79,5.08s-7.23,3.78-10.86,5.63c-7.2,3.66-14.46,7.2-21.78,10.63-14.78,6.92-29.77,13.36-44.97,19.3-4.24,1.66-8.49,3.28-12.75,4.86-2.14,.79-4.28,1.57-6.41,2.37s-4.81,1.39-6.64,2.79l.04,.92c1.84-1.68,4.77-2.42,7.16-2.98,2.26-.53,4.85-1,7.17-.71,0,0,0-.1,0-.1h0Z"/><path class="cls-3" d="M1006.56,389.73c.79-.43,1.56,.25,2.3,.18,.39-.04,1-.58,1.37-.76,.59-.28,1.21-.52,1.83-.74,2.47-.88,4.97-1.67,7.4-2.67,4.97-2.05,9.62-4.72,14.13-7.62s8.72-5.71,12.83-8.93,7.94-7.29,11.54-11.21c16.22-17.67,28.21-38.74,42.25-58.08,13.31-18.32,27.99-35.64,43.71-51.94s32.24-31.33,49.62-45.56c8.75-7.16,17.9-13.81,26.66-20.94,4.6-3.74,9.27-7.37,13.86-11.12s9.22-7.29,13.9-10.84c2.3-1.75,4.62-3.48,6.94-5.2,.25-.18-.14-1.4-.04-1.46-4.78,2.67-9.54,5.37-14.25,8.16s-9.48,5.41-14.03,8.39-9.21,6.02-13.61,9.34-8.93,6.84-13.33,10.35c-17.68,14.1-34.63,29.14-50.57,45.19-15.86,15.96-30.73,32.92-44.29,50.88-14.53,19.24-26.7,40.22-42.05,58.83-3.48,4.22-7.11,8.31-10.97,12.18s-8.11,8.12-12.49,11.75c-4.23,3.51-8.85,6.48-13.71,9.03-2.34,1.23-4.75,2.37-7.18,3.41s-4.9,1.8-7.3,2.82c-1.02,.43-2.18,.86-2.72,1.86-.79,1.48-1.38,2.97-1.82,4.59,0,0,0,.1,0,.09h0Z"/><path class="cls-3" d="M1160.12,241.1c-2.33,2.53-5.01,4.78-7.41,7.26-2.25,2.33-4.43,4.71-6.56,7.15-4.52,5.18-8.78,10.59-12.87,16.13-8.19,11.09-15.69,22.68-23.29,34.17s-15.33,22.92-23.98,33.66c-9.4,11.68-20.01,22.09-31.55,31.64-12.55,10.38-25.62,20.17-38.7,29.88-1.68,1.25-3.3,2.58-4.94,3.89-.04,.03,.01,.19,0,.2,6.83-4.53,13.36-9.52,19.87-14.5,6.48-4.95,12.93-9.93,19.27-15.05,11.65-9.41,22.67-19.46,32.34-30.93,8.91-10.57,16.79-21.94,24.43-33.45,7.66-11.53,15.09-23.23,23.1-34.53,8.02-11.31,16.67-22.24,26.59-31.95,1.19-1.16,2.36-2.45,3.69-3.45,.02-.02-.01-.09,0-.1h0Z"/><path class="cls-3" d="M1014.07,394.44c1.85-.92,3.88-1.59,5.78-2.42s3.94-1.77,5.89-2.71c3.59-1.74,7.08-3.66,10.5-5.71,6.45-3.87,12.58-8.23,18.44-12.96,11.68-9.43,22.24-20.19,31.96-31.61,9.97-11.7,19.09-24.09,27.84-36.71,9.5-13.7,18.55-27.7,27.97-41.46,9.5-13.89,19.12-27.74,29.79-40.76,1.34-1.64,2.69-3.27,4.03-4.91,.04-.05-.04-.24-.01-.27-5.64,5.8-10.8,12.12-15.83,18.45-5.05,6.35-9.83,12.89-14.51,19.52-9.59,13.59-18.56,27.61-27.85,41.41-8.71,12.94-17.69,25.71-27.52,37.83-9.67,11.92-20.13,23.24-31.75,33.28s-24.96,19.06-38.94,26.15c-1.88,.95-3.79,2.07-5.77,2.79-.02,0,0,.1,0,.1h0Z"/><path class="cls-3" d="M1135.58,259.94c-1.78,2.73-3.94,5.27-5.91,7.87s-3.96,5.21-5.95,7.81c-3.9,5.09-7.82,10.17-11.79,15.21-7.99,10.16-16.2,20.15-24.67,29.91-8.49,9.79-17.24,19.38-26.5,28.45s-18.5,17.17-28.38,25.08c-5.58,4.47-11.21,8.85-17.03,13-2.87,2.04-5.75,4.08-8.68,6.04-1.54,1.03-3.07,2.08-4.6,3.13-.56,.38-3.8,3.03-4.06,2.69l.22,1.07c.23,2.32,.12,.83,.7,.08,.32-.42,.68-.69,1.15-.91,.07-.03,.06-.57-.01-.59-.68-.22-.99-.1-1.61,.1-.25,.08-.44,.04-.62,.25-.43,.51-.21,1.93-.19,2.55,.03,1.12,.11,2.27,.52,3.32l.11,.1c5.72-3.11,11-6.9,16.21-10.8s10.18-7.94,15.1-12.13c9.95-8.46,19.27-17.73,28.31-27.14,18.24-18.98,35.01-39.2,51.17-59.95,4.51-5.79,8.97-11.63,13.39-17.49,2.16-2.87,4.32-5.74,6.47-8.62s4.26-6.16,6.68-8.93c.02-.02-.01-.09,0-.1h0Z"/><path class="cls-3" d="M1004.96,395.78c-.37,.76,.41,1.17,1.12,1.28,1.02,.16,1.95-.36,2.86-.76,1.34-.59,2.68-1.21,4-1.84,4.98-2.36,9.86-4.95,14.61-7.75s9.22-5.68,13.66-8.77,8.8-6.77,12.95-10.41c2.32-2.03,4.58-4.12,6.8-6.26,1.11-1.07,2.19-2.15,3.28-3.24,.48-.48,.96-.97,1.44-1.45,.6-.61,1.26-1.02,1.91-1.55l-.33-7.63c-1.15,1.61-2.09,3.4-3.11,5.09l.5,7.86c.95-2.33,.95-4.75,1.32-7.21,.02-.15,.1-1.1-.1-1.14-.24-.53-.6-.81-1.07-.84l-.15,.15c-.17,.39-.34,.78-.5,1.18-.58,1.5-.38,3.46-.28,5.03,.05,.78,.05,1.69,.33,2.43,.06,.16,.22,.82,.46,.4,1.03-1.81,2.16-3.6,3.08-5.47,.64-1.3,.35-3.39,.26-4.79-.02-.37-.39-3.19-.74-2.7-.84,1.19-1.6,2.3-2.57,3.4-.87,.99-1.75,1.96-2.65,2.92-1.9,2.04-3.84,4.04-5.83,6-3.72,3.68-7.59,7.2-11.6,10.57-8.17,6.88-16.51,13.39-25.54,19.12-2.47,1.57-4.97,3.1-7.5,4.57-1.33,.77-2.65,1.57-4.01,2.3-.41,.22-3.2,1-2.62-.46,0,0,0-.03,0-.04h0Z"/><path class="cls-3" d="M604.29,249.57c.71-1,1.8-1.89,2.38-2.96,.1-.18,.44-.57,.07-.31-.19,.13-.31,.47-.44,.67-.33,.5-.64,1.01-.96,1.52-1.14,1.86-2.25,3.76-3.28,5.69-2.12,3.96-3.55,8.24-4.76,12.55s-2.19,8.33-2.79,12.59c-.75,5.32-.77,10.74-.47,16.1,1.04,18.5,7.69,36.23,19.51,50.55,3.12,3.78,6.57,7.28,10.32,10.44s7.67,6.32,12.02,8.31l.13-7.86c-1.31,.6-2.16,1.82-3.07,2.9-.39,.46-.35,1.79,.05,2.24,.82,.91,1.74,2.22,2.88,2.72,1.71,.75,1.95-6.7,.46-7.73-3.28-2.26-6.7-4.25-9.85-6.71s-6.05-5.1-8.79-7.96c-5.55-5.79-10.28-12.35-13.93-19.49s-6.26-14.78-7.51-22.7c-.33-2.09-.56-4.19-.7-6.3,0-.09-.05-.95-.03-.5,.02,.4-.01-.29-.01-.29-.02-.56-.04-1.12-.05-1.67-.03-1.42-.03-1.41,0-2.71,.1-4.4,.32-8.81,1.05-13.15,.84-5.08,2.17-10,3.98-14.81s3.89-9.9,6.58-14.57c.04-.07-.02-.3-.02-.31-.91,1.23-1.78,2.52-2.79,3.67-.02,.02,0,.09,0,.1h0Z"/><path class="cls-3" d="M603.6,247.47c-7.88,13.71-10.2,29.72-9.6,45.33,.3,7.71,1.25,15.4,2.76,22.97s3.52,14.41,6.71,21.08c1.73,3.62,3.8,7.06,6.29,10.21,1.23,1.55,2.55,3.03,3.97,4.41,.76,.73,1.55,1.44,2.36,2.12,.64,.53,1.48,1.5,2.36,1.45,.61-.03,.57-2.92-.07-2.96-.83-.06-1.49-.53-2.16-.98-.15-.1-.18,.77-.05,.91,.79,.89,1.49,1.79,2.07,2.83l.37-2.57c-.9-1.34-2.51-2.19-3.74-3.23s-2.41-2.19-3.52-3.38c-2.25-2.43-4.21-5.12-5.91-7.96-3.49-5.8-5.88-12.21-7.57-18.75-1.85-7.11-2.9-14.46-3.46-21.78-.62-8.19-.49-16.46,.76-24.59,1.36-8.78,4.07-17.33,8.43-25.09,0,0,0-.04,0-.04h0Z"/><path class="cls-2" d="M477.42,516.04c-.24-.12-.36-.1-.37,.06,.59,.76,.97,1.59,1.14,2.5,.29,1.02,.38,1.47,1.01,2.28s1.41,1.58,2.13,2.36c1.53,1.66,3.09,3.29,4.68,4.88,3.13,3.12,6.43,6.07,10,8.67,7,5.1,15.15,8.83,23.88,9.42,1.16,.08,.47-6.96,.18-7.67-.33-.8-.86-1.33-1.25-2.07-.49-.91-.64-2.11-.83-3.12-.06-.33-.11-.49-.3-.21-.23,.34-.11,1.18-.07,1.56,.15,1.65,.38,3.28,.67,4.92,.36,2.02,.55,4.1,1.23,6.04l.18-7.67c-8.13-.55-15.78-3.82-22.44-8.4-3.5-2.4-6.74-5.16-9.81-8.08-1.51-1.44-2.99-2.92-4.43-4.42s-2.72-3.09-4.28-4.4c-.11-.18-.21-.18-.32,0-.81,1.24-1.61,1.81-1.58,3.1,0,.05,0,.3,.06,.32,.24,.09,.33,.28,.54,.03,.02-.02-.01-.09,0-.1h0Z"/><path class="cls-2" d="M479.09,511.58c-.2,.3-.57,.46-.91,.54-.4,.09-.58-.06-.95-.22l.06,.26c-.05-1.07,.03-2.33-.64-3.22-.21-.29-.31,.19-.35,.33-.15,.6-.16,1.32-.17,1.93,0,.83,0,1.66,.11,2.48,.05,.45,.05,1.09,.31,1.47,.14,.21,.31,.43,.43,.66s.17,.44,.37,.62c.23,.2,.55,.34,.82,.48,.49,.26,1,.51,1.52,.71,.56,.22,1.14,.42,1.75,.38,.25-.02,.55-.02,.79-.11,.26-.09,.5-.32,.71-.5,1.82-1.53,3.3-3.55,3.42-5.98,.02-.44,.02-.9-.06-1.33-.02-.11-.13-.51-.19-.17-.1,.61-.64,.99-1.22,1.1-.83,.16-1.58-.13-2.32-.51-.89-.46-1.9-.6-2.84-.92-.5-.17-.98-.38-1.46-.61-.25-.12-.5-.25-.75-.38-.07-.04-.22-.16-.29-.16-.17,0-.33,.26-.42,.36l.14-.13c-.14,.07-.28,.12-.42,.17l.16,6.44c.31-.12,.35-.18,.45-.52,1-3.2-.13-2.07,1.05-2.5,.36-.13,.59-.39,.91-.58,.02-.01,0-.09,0-.1h0Z"/><path class="cls-2" d="M521.04,561.03c.5,.12,.99,.31,1.51,.22,.49-.08,1.11-.65,1.47-.98,1.12-1.04,2.16-2.18,3.25-3.25,2.31-2.26,4.56-4.56,6.93-6.76,.3-.28,.32-.82,.37-1.19,.11-.93,.12-1.92,.09-2.85s-.06-1.91-.23-2.85c-.02-.11-.28-1.29-.43-1.17-4.8,4.06-9.11,8.59-13.03,13.5l.52,7.92c1.43-2.71,2.81-5.44,4.2-8.17,.26-.51,.27-1.37,.3-1.9,.06-1.05,.06-2.13-.02-3.17-.06-.81-.09-1.67-.33-2.45-.05-.17-.23-.83-.46-.4-1.92,3.5-3.48,7.46-3.83,11.46-.13,1.5-.09,3.17,.2,4.66,.09,.48,.4,1.72,.7,.58,.49-1.82,1.02-3.63,1.74-5.38,.57-1.41,1.27-2.76,1.81-4.18,.15-.38,.1-.86,.07-1.26,0-.1-.09-.85-.2-.71-1.21,1.47-1.95,3.71-3.88,4.37l.34,7.55c.25-.28,.3-.84,.39-1.2,.1-.39,.2-.77,.31-1.16,.22-.75,.47-1.5,.74-2.23,.59-1.58,1.3-3.11,2.11-4.59l-.5-7.92c-1.42,2.72-2.84,5.43-4.22,8.17-.26,.52-.28,1.35-.32,1.9-.07,1.04-.06,2.13,.02,3.17,.06,.81,.1,1.67,.34,2.45,.07,.23,.2,.77,.48,.4,3.75-4.88,8.05-9.34,12.7-13.36l-.2-8.06c-2.49,2.36-4.92,4.86-7.01,7.58-1.11,1.44-2.16,2.91-3.19,4.41-1.4,2.05-2.05,4.46-2.76,6.81,0,0,0,.04,0,.04h0Z"/><path class="cls-2" d="M530.54,544.4c-1.19-.13-1.84-3.45-1.7-3.14-.19-.42-.36,.28-.39,.39-.23,.87-.18,1.86-.18,2.75,0,.13,.08,4.33,.61,4.24,.74-.13,1.47-.24,2.21-.39,.69-.14,1.39-.25,2.09-.33,.35-.04,.72-.02,1.06-.1,.44-.1,.72-.38,1.05-.66,.37-.33,.78-.63,1.12-.99,.2-.22,.24-.43,.37-.7,.16-.32,.38-.63,.59-.92,.11-.15,.06-.56,.06-.72,0-.2,.03-.55-.1-.72-.23-.32-.47-.65-.64-1-.15-.3-.23-.55-.48-.79-.35-.32-.73-.63-1.1-.93-.3-.25-.59-.5-.99-.56-.36-.05-.78,.05-1.14,.1-.7,.1-1.4,.23-2.09,.39-.78,.18-1.48,.48-2.2,.82-.16,.13-.25,.3-.25,.52-.08,.45-.13,.9-.15,1.35l-.03,.55,.75,2.11,.02-.68-.1,.83c.19-.48,.21-1.01,.68-1.32,.26-.17,.65-.2,.91,0,0,0,.02-.1,0-.1h0Z"/><path class="cls-2" d="M535.9,547.28c-1.07-.53-.73-1.82-1.5-2.52-.26-.24-.7-.48-1.04-.57-.7-.2-1.44-.32-2.16-.33-1.55-.03-3.07,.01-4.62,.11-.65,.04-.47,3.61-.46,4.04,.03,.95,.06,1.91,.23,2.85,.05,.25,.1,1.12,.42,1.17,3.68,.64,7.44,.19,10.85-1.31l-.2-8.21c-3.26,1.97-6.26,4.36-8.91,7.09-1.3,1.34-2.53,2.74-3.67,4.23-1.55,2.02-2.58,4.52-2.99,7.03-.12,.72-.11,1.46-.04,2.19,.01,.14,.2,1.23,.31,1.01,.37-.81,.77-1.6,1.19-2.39,.21-.4,.11-1.09,.08-1.53,0-.12-.11-1.02-.24-.86-.19,.34-.5,.38-.94,.14l.12,5.02c1.37-.29,2.29-1.77,3.08-2.79,1.13-1.47,2.35-2.88,3.66-4.19,2.57-2.58,5.45-4.83,8.55-6.74,.31-.19,.34-.96,.37-1.21,.12-.95,.12-1.95,.1-2.91,0-.29-.33-4.24-.67-4.09-3.4,1.54-7.16,2.04-10.85,1.45l.2,8.06c1.56-.12,3.07-.3,4.61-.55,.73-.12,1.46-.35,2.14-.64,.34-.14,.76-.44,1.01-.71,.73-.8,.35-2.07,1.37-2.74,.01,0,.01-.11,0-.12h0Z"/><path class="cls-2" d="M424.04,486.13c1.98-2.97,1.85-6.66,1.03-4.22-.11,.32-.21,.64-.3,.96-.21,.78-.37,1.57-.53,2.36-.33,1.66-.6,3.32-.79,5-.42,3.69-.57,7.41-.42,11.12,.28,6.94,1.46,13.76,3.88,20.29,.65,1.76,1.08-1.61,1.1-1.99,.09-1.41,.3-4.29-.66-5.54l-.13-.17-.21-.13s.02,.55-.08-.16c-.08-.53-.03,.65,0-.67,.03-.99,.2-1.96,.41-2.93,.06-.26-.13-1.61-.23-1.29-1.19,3.57-1.04,7.72-.53,11.4l.97-5.65c-.94-2.43-1.69-4.93-2.23-7.48-.25-1.18-.45-2.37-.61-3.57-.1-.79-.12-.89-.18-1.68-.02-.3-.04-.59-.06-.89l-.03-.45c.01,.27,.01,.26,0-.03,0-.3-.02-.59-.02-.89,0-.09,0-1.01,0-.47,0-.53,.02-1.19,.04-1.47,.06-1.22,.18-2.43,.34-3.64,.43-3.12,1.36-6.14,1.44-9.31,.02-.7-.01-1.42-.09-2.12-.02-.14-.09-1.12-.29-1.26-.45-.31-.48,1.78-.48,1.93,0,1.13-.67,2.01-1.34,2.84-.02,.02,0,.09,0,.1h0Z"/><path class="cls-2" d="M405.9,481.05c.55,3.95,.67,4.8,.35,2.55-.03-.33-.06-.65-.1-.97-.09-.81-.25-1.56-.45-2.35l-.28,6.56c1.09,.88,2.43,.99,3.77,1.27l4.09,.84-.2-8.09c-3.55,1.52-7.29,2.47-11.13,2.9-.76,.08-.56,3.62-.55,4.13,.03,.97,.08,1.95,.26,2.9,.06,.31,.12,1.08,.49,1.19,2.85,.85,5.77,1.13,8.73,.81l-.2-8.22-7.04,2.29c-.83,.27-.56,3.48-.54,4.13,.03,.97,.08,1.95,.26,2.9,.08,.4,.13,.95,.48,1.19,2.01,1.36,4.3,2,6.72,1.9l-.2-8.22-5.99,2.77c-.86,.4-.58,3.38-.55,4.13,.03,1.01-.18,3.39,.75,4.1,1.44,1.09,3.11,1.54,4.9,1.33l-.38-8.07c-1.59,1.54-3.18,3.09-4.76,4.63-.31,.3-.34,1.59-.36,1.9-.07,.87-.06,1.75-.02,2.62,.03,.69-.07,3.25,.75,3.55,1.63,.6,3.28,.82,5.01,.67l-.2-8.22-5.61,4.7c-.86,.72-.59,3.13-.56,4.13s.08,1.95,.26,2.9c.07,.38,.13,.98,.49,1.19,.95,.55,1.89,.73,2.98,.58l-.38-8.07c-.53,.81-1.06,1.61-1.57,2.43s-.47,8.26,.38,8.05c1.04-.26,1.51-.92,2.38-1.51s1.79-.89,2.72-1.25c.43-.16,.35-2.98-.08-3.11-.86-.25-1.81-.47-2.6-.89-.96-.5-1.5-1.26-2.62-1.44l.38,8.05c.53-.79,1.05-1.6,1.57-2.4s.61-8.21-.38-8.07c-1.08,.15-2.03-.03-2.98-.58l.2,8.22,5.61-4.7c.92-.77,.77-8.31-.2-8.22-1.73,.15-3.38-.07-5.01-.67l.38,8.07c1.59-1.54,3.18-3.08,4.76-4.63,.74-.72,.49-8.17-.38-8.07-1.79,.21-3.46-.24-4.9-1.33l.2,8.22,5.99-2.77c1.15-.53,.62-8.26-.2-8.22-2.42,.11-4.71-.54-6.72-1.9l.2,8.22,7.04-2.29c.82-.27,.55-3.49,.53-4.13-.01-.38-.08-4.17-.74-4.1-2.96,.31-5.88,.04-8.73-.81l.2,8.22c3.86-.43,7.58-1.46,11.13-3.03,.81-.36,.52-3.37,.5-4.06-.02-.55,.1-3.88-.7-4.03l-3.85-.73c-1.17-.22-2.71-.82-3.84-.33-1.01,.44-.55,7.19,.18,7.17h.2c.94-.04,.26-5.33,.11-5.91h0Z"/><path class="cls-2" d="M380.46,483.43l-.72-.2c-.68-.19-.69-.09-.76-1.26l-.5,3.84c.22,.25,.39,.45,.73,.5,.26,.03,.57-.03,.82-.04,.48-.02,.95-.07,1.42-.11,1.03-.09,2.07-.13,3.1-.11s2.07,.02,3.11,.09c.48,.03,.95,.08,1.43,.13,.24,.03,.48,.06,.71,.09,.42,.06,.61,.16,.94-.16l-.44-6.99c-.25,1.19-.51,2.47-1.21,3.48-.51,.74-1.23,1.35-1.96,1.85-.18,.13-.13,1.61,.04,1.61,.71,.02,1.31-.13,1.98-.29,.32-.07,.65-.09,.95,.05,.21,.1,.43,.18,.64,.27,.34,.15,.44-3.19,.44-3.27,0-.8-.03-1.6-.12-2.39-.06-.49-.04-1.32-.36-1.72-.29-.37-.41-.46-.86-.53-.23-.04-.47-.06-.71-.08-.55-.06-1.11-.1-1.67-.13-1.16-.06-2.31-.07-3.46,.03s-2.23,.26-3.33,.48c-.53,.1-1.15,.24-1.64,.49-1.14,.58-.94,2.36-1.04,3.39,0,.1,.02,1.15,.1,1.11,.83-.4,1.5-.24,2.37-.1,0,0,0-.04,0-.04h0Z"/><path class="cls-2" d="M377.79,490.08c-1.19,.14-1.1-.46-1.39-1.93l-.3,4.26,.42,.33c.02,.23,.11,.4,.28,.51,.18,.16,.39,.21,.61,.23,.45,.05,.94,.04,1.39,.03,.89-.02,1.78-.13,2.67-.19s1.78-.19,2.66-.29l1.28-.14c.66-.07,1.03-.14,1.41-.75l-.59-6.54c-.31,1-.57,1.99-1.17,2.86-.37,.54-.82,1.05-1.23,1.56-.14,.18-.02,1.69,.07,1.66,.37-.13,.74-.28,1.11-.39,.73-.22,1.06,.3,1.51,.85,.25,.31,.37-.18,.42-.37,.18-.66,.19-1.47,.2-2.15,.01-.92,0-1.85-.12-2.76-.06-.48-.06-1.25-.37-1.64-.23-.29-.41-.5-.8-.51-.2,0-.44,.06-.64,.08l-1.49,.19c-.96,.12-1.92,.24-2.87,.4s-1.93,.3-2.87,.55c-.46,.12-1.13,.2-1.42,.63-.04,.2-.12,.38-.25,.53-.09,.15-.2,.28-.33,.4-.35,.58-.26,1.82-.29,2.38,0,.03,0,.39,.05,.38,.64-.13,1.41-.23,2.06-.08,0,0,.01-.1,0-.1h0Z"/><path class="cls-2" d="M378.5,501.34c.44,.03,.87,.12,1.31,.17s.9-.03,1.34-.05c.97-.06,1.92-.17,2.89-.16s3.21-.03,3.7,1l-.37-1.58v.13l-.07-3.35c.04-.35,0-.29-.12,.16-.09,.22-.19,.42-.3,.63-.16,.29-.34,.61-.54,.87-.52,.66-1.29,1.24-1.92,1.77s-1.29,1.02-1.96,1.51l-.84,.61c-.84,.61-.94,1.06-1.9-.32-.26-.38-.38,1.47-.39,1.57-.01,.57,0,1.15,.08,1.72,.04,.31,.04,.76,.23,1.02,.44,.61,.73,.67,1.46,.75,.57,.07,1.11,.1,1.67,.12,1.13,.03,2.26,.18,3.37,.4l-.19-7.86c-2.01,1.49-3.82,3.34-5.7,5-.9,.8-.49,8.22,.2,8.1l6.12-1.12-.33-.55c.05,.11,.09,.23,.11,.36l-.35-2.44v-2.99l.15-1.13c.04-.11,.03-.1-.02,0-.08,.07-.18,.34-.24,.43-.16,.27-.35,.52-.52,.78-.49,.76-.76,1.55-.87,2.45-.28,2.18-.25,4.6,.26,6.74,.2,.83,.53,1.52,1.28,1.98,2.04,1.22,2.57-1.77,2.69-3.17,.11-1.27,.25-2.86-.16-4.1-.14-.43-.4-.66-.86-.68-.21-.01-.11,1.58,0,1.74,.16,.22,.28,.43,.39,.68l-.1-2.18-.06,.25,.24-.44c-.49-.2-.98-.02-1.48-.05-1.73-.07-1.42-2.48-1.13,1.23v3.17c-.07,1.31-.29,1.36,.04,.75,.13-.25,.29-.48,.45-.71,.26-.39,.51-.77,.68-1.21,.41-1.06,.44-2.27,.46-3.4,.03-1.62,.07-3.62-.52-5.15-.02-.25-.13-.43-.33-.55l-6.12,1.22,.2,8.1c1.95-1.77,4.03-3.47,5.84-5.39,.63-.66,.51-7.73-.34-7.71-1.28,.03-2.56,.17-3.8,.47-.6,.14-1.28,.43-1.8,.77-.91,.59-.95,1.62-1.09,2.6l.22,1.49c.35-1.14,2.3-1.49,3.3-1.89s2.04-.7,3.12-.94c.55-.12,1.33-.08,1.83-.34,.28-.14,.36-.38,.44-.67,.31-1.17,.23-2.49,.18-3.69s-.02-3.56-1.23-4.36c-.71-.47-1.68-.44-2.49-.37-1.11,.09-2.29,.27-3.35,.65-1.21,.44-2.07,1.19-3.01,2.04-.47,.43-.43,5.09,.24,5.14h0Z"/><path class="cls-2" d="M366.85,484.93c.38,.14-.55,1.63,.32,1.64,.15,0,.34-.09,.48-.13,.36-.09,.66-.25,.99-.42,.7-.35,1.42-.66,2.16-.92,1.49-.53,3.04-.92,4.61-1.14l-.34-7.79c-.26,.44-.38,.9-.52,1.39-.13,.44-.31,.86-.47,1.29-.31,.78-.7,1.5-1.13,2.22-.73,1.22-1.66,2.31-2.63,3.34-.17,.19-.09,.84-.08,1.06,0,.07,.08,.87,.16,.83,.96-.48,1.82-1.1,2.77-1.6,.4-.21,.75-.44,1.2-.51,.19-.03,.38-.08,.56-.04,.12,.02,.17,.09,.27,.06,.14-.04,.28-.28,.36-.4,.27-.37,.28-1.46,.3-1.83,.05-.84,.04-1.69,0-2.53-.01-.3-.24-3.56-.65-3.43-1.83,.61-3.53,1.45-5.12,2.55-.79,.55-1.61,1.13-2.28,1.81-1.06,1.06-1.52,2.39-1.6,3.87-.02,.39-.02,.79,.04,1.18,0,.04,.09,.53,.18,.38,.29-.5,.57-.58,.42-.98,0-.02-.02,.09,0,.09h0Z"/><path class="cls-2" d="M367.05,495.66c.13,.02,.29,.08,.41,.07,.13-.01,.3-.13,.42-.18,.3-.13,.6-.23,.88-.4,.63-.4,1.29-.73,1.95-1.08s1.36-.65,2.07-.9c.36-.13,.72-.23,1.09-.34,.43-.14,.91-.28,1.2-.62l-.64-6.99c-.19,.69-.4,1.37-.53,2.08l.17-.68c-.44,.84-.83,1.7-1.3,2.53-.4,.71-.77,1.43-1.17,2.14-.76,1.35-1.44,2.75-2.04,4.18-.09,.22-.07,.52-.05,.75,0,.05,.08,.52,.13,.42,.61-1.03,1.29-2.02,2.04-2.96,.35-.43,.77-.82,1.19-1.18,.19-.17,.41-.36,.63-.48,.2-.11,.48-.15,.7-.23l-.11-.09c.27,.22,.54,.42,.81,.64,.2,.16,.43-1.33,.4-1.13,.13-.88,.14-1.82,.11-2.71s-.06-1.82-.24-2.7c-.07-.35-.11-.92-.46-1.11-.27-.15-.84,.11-1.11,.23-.37,.16-.73,.35-1.08,.54-.73,.4-1.44,.85-2.11,1.35s-1.32,1.12-1.91,1.75c-.75,.79-1.25,1.76-1.65,2.76-.29,.73-.23,1.67-.19,2.43,.02,.42,.04,.85,.13,1.27,.03,.14,.07,.62,.26,.64h0Z"/><path class="cls-2" d="M367.25,500.53c.19,.11,.31,.29,.49,.4,.13,.08,.29,.15,.43,.22,.3,.14,.61,.24,.92,.36s.54,.17,.85,.13l.85-.13c.57-.09,1.13-.18,1.69-.34l.84-.24c.14-.04,.35-.06,.48-.14,.19-.11,.35-.34,.5-.5l-.69-5.83c-.17,1.02-.23,2.04-.21,3.08l.03-1.47v.18l.12-1c-.3,1.47-.76,2.97-1.59,4.24-.71,1.08-1.57,2.06-2.56,2.91-.18,.15,.02,1.33,.06,1.31,.85-.36,1.64-.83,2.34-1.43,.6-.51,1.24-1.01,1.76-1.6l-.09,.08c.13-.1,.25-.21,.38-.31l-.11,.09c.34,.06,.17,.07,.33-.03,.08-.05,.17-.14,.23-.22,.09-.2,.15-.41,.17-.63,.07-.32,.11-.65,.12-.98,.05-.74,.05-1.49,.01-2.23-.03-.66-.07-1.35-.2-2-.04-.2-.13-1.01-.42-1.01-.2,0-.32-.03-.48,.09s-.32,.24-.48,.36l-.83,.63c-.66,.51-1.27,1.07-1.89,1.63l.11-.1c-.31,.28-.64,.54-.93,.83s-.51,.68-.74,1.02c-.25,.37-.5,.73-.73,1.11-.28,.46-.5,.95-.77,1.42,0,.01-.01,.09,0,.1h0Z"/><path class="cls-2" d="M369.72,506.76c.58,.15,1.15,.28,1.73,.42,.52,.12,1.07,.08,1.6,.15s1.02,.12,1.53,.11c.44-.01,1.1-.08,1.5-.29l-.44-6.5c-.19,.88-.23,1.78-.23,2.68,0,1.17,.01-.3,.02-.5,.05-.77,.01-.28,0-.1-.07,.51-.14,1.03-.25,1.53-.18,.88-.5,1.78-.86,2.6-.33,.76-.73,1.5-1.17,2.21s-.91,1.45-1.52,2.04c-.1,.1-.1,.9,.05,.97,.2,.09,.31,.16,.44,.34,.11,.16,.26,.24,.38,.39,.11,.14,.18,.21,.34,.29s.28,.17,.43,.27c.23,.15,.51,.25,.77,.34,.23,.08,.53,.22,.76,.1,.27-.14,.53-.52,.68-.77,.23-.38,.39-.85,.55-1.26,.24-.63,.58-1.18,.74-1.84,.06-.24,.05-.52,.02-.76,0-.04-.08-.44-.13-.35-.15,.32-.43,.78-.82,.69-.23-.05-.41-.21-.64-.24s-.47-.06-.67,.06c-.26,.16-.46,.45-.7,.64-.23,.18-.47,.34-.7,.52-.13,.1-.22,.15-.37,.2-.17,.06-.2,.11-.33,.21-.11,.08-.25,.14-.36,.21-.2,.12-.24,.07-.43-.02l.05,.97c.88-.86,1.81-1.6,2.55-2.59,.32-.43,.65-.84,.93-1.3,.13-.2,.22-.42,.4-.58,.14-.13,.25-.25,.34-.42l-.11,.1h.23c.17-.1,.26-.27,.27-.48l.03-.13c.28-1.43,.25-2.92,.12-4.36-.05-.54-.08-1.15-.27-1.66-.08-.23-.16-.61-.43-.34-.5,.49-.93,1.1-1.37,1.64-.48,.58-.94,1.18-1.44,1.74-.45,.52-.98,.94-1.46,1.43-.57,.57-1.14,1.11-1.77,1.61,0,0,0,.04,0,.04h0Z"/><path class="cls-2" d="M470.44,390.54c1.33,.12,2.71-.07,4,.17,1.37,.26,2.64,.03,4-.24,2.74-.54,5.48-1.06,8.22-1.62,5.35-1.08,10.68-2.21,16.02-3.32,10.8-2.25,21.6-4.48,32.47-6.41,21.74-3.86,43.63-6.86,65.61-8.96,6.1-.58,12.2-1.09,18.31-1.53,3.13-.23,6.27-.43,9.41-.62,1.53-.09,3.06-.18,4.59-.26,.79-.04,1.63-.01,2.41-.13,1.12-.16,1.64-1.08,2.37-1.91,.34-.39,.11-1.84,.09-2.33s.18-1.94-.21-2.32c-.54-.53-1.22-1.51-1.98-1.69-.58-.14-1.56,.08-2.17,.11-1.37,.07-2.74,.15-4.1,.23-2.82,.17-5.63,.35-8.44,.54-5.47,.38-10.93,.82-16.39,1.31-11,.99-21.97,2.21-32.92,3.66-21.88,2.89-43.71,6.63-65.23,11.5-6,1.36-11.98,2.83-17.9,4.51-3.06,.87-6.11,1.77-9.14,2.72-1.48,.46-3.12,.83-4.44,1.69-.79,.51-1.46,1.04-2.32,1.43s-1.56,.86-2.32,1.34c-.22,.14-.12,2.11,.05,2.12h0Z"/><path class="cls-2" d="M641.81,357.36c-.61,.07-1.21,.05-1.82,.05-.01,0-.02,.43,.01,.44,2.43,.35,4.92,.36,7.37,.45s5.07,.19,7.61,.18c4.99-.01,9.99-.12,14.98-.33,.01,0,0-.28,0-.28-5,.06-9.99,.02-14.99-.12-2.46-.07-4.91-.1-7.37-.16s-5.08-.29-7.61-.19v.44c.61-.14,1.21-.31,1.82-.39,0,0,0-.1,0-.1h0Z"/><path class="cls-2" d="M476.92,369.26c3.3-.42,6.61-.96,9.93-1.24l-.03-1.28c-4.54,.1-9.15,1.32-13.59,2.21s-9.24,1.93-13.81,3.02-9.05,2.27-13.56,3.48c-2.27,.61-4.53,1.25-6.77,1.96s-4.97,1.3-7,2.53c-.06,.04-.01,.7,.02,.71,1.14,.15,2.27-.11,3.4-.27s2.27-.3,3.4-.48c2.27-.35,4.54-.78,6.79-1.23,4.62-.92,9.22-1.9,13.81-2.97s9.07-2.21,13.56-3.43,9.44-2.3,13.78-4.26c.17-.08-.08-1.26-.03-1.28-3.26,.95-6.6,1.66-9.9,2.48,0,0,0,.04,0,.04h0Z"/><path class="cls-2" d="M480.27,368.48c-1.99,.32-4.03,.39-6.03,.67s-4.17,.59-6.25,.93c-4.09,.65-8.16,1.43-12.23,2.22-8.05,1.57-16.07,3.34-24.04,5.31-16.08,3.97-32.02,8.68-47.58,14.34-8.77,3.19-17.47,6.6-26,10.39-.04,.02,.02,.27,0,.28,15.3-6.07,30.76-11.72,46.49-16.59,15.83-4.9,31.91-9.02,48.16-12.32,4.52-.92,9.05-1.78,13.6-2.57,2.24-.39,4.47-.81,6.71-1.2,1.16-.2,2.32-.4,3.47-.6,1.24-.21,2.46-.59,3.71-.76,0,0,0-.1,0-.1h0Z"/><path class="cls-2" d="M474.81,375.77c-2.46-.3-4.99,.2-7.42,.61s-4.93,.83-7.39,1.28c-4.92,.9-9.82,1.97-14.7,3.09-9.69,2.22-19.3,4.75-28.82,7.6-19.09,5.71-37.94,12.59-56.04,20.93-5.12,2.36-10.21,4.78-15.22,7.36s-10.18,5.22-14.93,8.3c-.1,.06,.05,.61,.02,.63,4.51-1.99,8.87-4.37,13.33-6.47s9-4.29,13.54-6.34c9.06-4.08,18.21-7.95,27.48-11.51,18.64-7.15,37.74-13.08,57.15-17.72,5.46-1.31,10.95-2.48,16.45-3.61,2.68-.55,5.36-1.11,8.05-1.63,2.85-.55,5.86-.92,8.51-2.11,.03-.01,0-.39,0-.39h0Z"/><path class="cls-2" d="M294.08,500.27c-.89-.03-1.96,.19-2.84,.37-.95,.19-1.59,.68-2.14,1.45-1.39,1.93-2.11,4.44-2.54,6.75-1.16,6.29-.74,13.31,1.73,19.24,2.18,5.22,5.81,9.64,9.96,13.43,4.37,3.99,9.4,7.28,13.35,11.73,2.06,2.32,3.81,4.96,4.73,7.95,.12,.41,.41,1.34,.38,1.56,.04-.28,.15-1.69-.06-.83-.36,1.47-1,2.74-1.5,4.16l.31-.53c-1.14-.32-.23,.35-.46,1.5,.11-.57,.12-1.17,.05-1.75-.01-.1-.2-1.02-.3-.8-1.1,2.5-.34,6.2,.71,8.57l.18,.13c.93-.57,1.31-2.05,1.61-3.03,.58-1.86,.77-3.84,.82-5.78,.1-3.7-.26-7.56-1.52-11.07-1.95-5.39-5.79-9.42-10.1-13.06s-9.05-7.16-12.77-11.62c-1.7-2.05-3.22-4.26-4.4-6.65-.58-1.17-1.06-2.38-1.44-3.64-.16-.52-.3-1.05-.4-1.59,.01,.05-.2-1.07-.1-.55-.2-1.04,0,.64-.04-.42,0-.03,.07,1.21,.02,.58,0-.27,0-.24,0,.09,.03-.39,.04-.47,.01-.24,.08-.61,.17-1.21,.31-1.81,.29-1.23,.72-2.4,1.28-3.54,.72-1.5,1.46-3,2.2-4.49,.86-1.74,1.85-3.22,3-4.77,.09-.13,.11-1.35-.06-1.35h0Z"/><path class="cls-2" d="M284.04,417.03c.39,.96,.7,1.92,1.01,2.9,.09,.65,.11,.39,.05-.78-.05-.04-.06,.01-.05,.17-.15,.08-.2,.05-.35,.18-.37,.34-.49,1.12-.68,1.57-.3,.69-.64,1.36-.99,2.02-1.57,3.02-3.27,5.96-5.04,8.86l.8,6.86c.19-1.42,.07-2.82,.17-4.24,.05-.75,.16-1.5,.23-2.25,.04-.41,.07-.98-.06-1.38-.05-.15-.11-.5-.23-.17-.11,.3-.21,.61-.31,.92l.13-.23-.56,.35c-.36,.23-.38,.84-.43,1.22-.16,1.14-.15,2.31-.09,3.46,.04,.89,.08,1.81,.31,2.68,.05,.18,.27,1.24,.59,.72,2.18-3.59,4.4-7.33,6.01-11.22,.9-2.18,1.05-4.64,1.09-6.97,.03-1.68,.01-3.27-.82-4.73l-.04-.04c-.17,.06-.18-.09-.33-.1-.16,0-.22,.04-.41,.11-.02,0,0,.09,0,.1h0Z"/><path class="cls-2" d="M285.56,414.07c0-.28-.04-.47-.28-.67-.69-.59-.7,.27-.71,.76,0,.92,.27,1.54,.76,2.32,.95,1.5,1.39,3.31,1.77,5.04,.13,.6,.27,1.2,.36,1.81,0,.02-.14-.31,0,.06,.28,.71-.21-.78-.02-1.05,.05-.06,.03-.07-.03,.16-.08,.31-.11,.63-.19,.94-.19,.82-.44,1.63-.73,2.42-.99,2.68-2.34,5.19-3.72,7.69l.87,2.85c-.07-1.11,.09-2.26,.16-3.37,.03-.44,.11-1.17-.09-1.57-.15-.29-.18-.32-.26,.1-.12,.66-.22,1.32-.35,1.98l.15-.27-.31,.13c-.36,.15-.38,.89-.43,1.22-.16,1.14-.15,2.31-.09,3.46,.04,.89,.08,1.81,.31,2.68,.04,.16,.29,1.26,.58,.72,2.59-4.82,4.78-9.58,5.11-15.12,.18-3.09,.19-6.45-.65-9.46-.19-.67-.5-1.46-1.13-1.85-.34-.21-.62-.21-.95-.5-.35-.3-.76-.59-.99-.99l.11,.82v-.32l-.08,.73c.04-.11,.71-1.02,.8-.72,0,0,0-.01,0-.01h0Z"/><path class="cls-2" d="M296.09,506.93c.15-.39,.4-.75,.61-1.11,.12-.21,.47-1.08,.76-1.04,.04,0,.07-.69-.02-.74-.16-.1-.27,.05-.41,.16-.16,.12-.31,.23-.45,.37l-.85,.84c-.59,.57-1.14,1.17-1.7,1.77l-3.4,3.66c-.2,.22-.11,.87-.11,1.15,0,.15-.04,1.09,.16,1.14,1.12,.3,2.18-.09,3.09-.76s1.69-1.5,2.13-2.58c.05-.12,.03-.29,.02-.41,0-.03-.04-.27-.06-.23-.46,.84-1.28,1.53-2.22,1.74s-2.05,.16-3.02-.05l.06,2.29,3.45-3.97c.55-.64,1.1-1.27,1.63-1.93l.84-1.05c.34-.42,.71-.89,.88-1.41l-.06-.62c-.07,.54-.43,1.04-.68,1.52-.2,.38-.37,.85-.64,1.17-.02,.02,.01,.09,0,.1h0Z"/><path class="cls-2" d="M298.74,508.3c-.75-.08-1.59,0-2.29,.29s-1.31,.82-1.8,1.38c-1.09,1.24-1.46,2.81-1.3,4.44,0,0,.02,.21,.05,.2,.85-.2,1.54-.83,1.94-1.59,.04-.07-.03-.28-.02-.3-.44,.66-1.16,1-1.94,1.07l.05,.2c-.05-.65,.18-1.36,.44-1.94,.3-.68,.72-1.3,1.24-1.82,.49-.49,1.06-.87,1.66-1.22s1.28-.58,1.98-.66c0,0,0-.04,0-.04h0Z"/><path class="cls-2" d="M299.5,505.95c.53,.7,1.05,1.41,1.55,2.12,.85,1.22,.51,1.47,1.53,1.61s1.99,.2,2.99,.27c2.16,.16,4.32,.32,6.49,.47,3.99,.27,7.98,.56,11.97,.88,7.98,.65,15.96,1.15,23.95,1.67,16.13,1.06,32.25,2.08,48.38,3.09l27.43,1.71c.11,0,.47-7.55-.2-8.18-.28-.27-.42-.45-.56-.82l.3,5.03-.03-2.49-.05,.87c.16-.35,.32-.61,.57-.91,.19-.24-.17-1.8-.05-1.85-.75,.33-1.83,6.62,0,8.36l-.2-8.18-48.38-3.05c-16.12-1.02-32.25-2.15-48.38-2.85-4.49-.2-8.98-.4-13.46-.66-2.33-.13-4.65-.26-6.98-.38-1.16-.06-2.33-.15-3.49-.16-.97,0-.87-.12-1.48,.76s-1.26,1.76-1.93,2.6c-.01,.01,0,.09,0,.1h0Z"/><path class="cls-2" d="M411.5,514.33l.07-.1s0-.05,0-.06c-.2-.38-.53-.23-.6,.08-.1,.44,.41,.76,.7,.95,.91,.59,1.95,1.03,2.89,1.58,3.47,2,6.69,4.32,9.83,6.79,6.06,4.75,11.65,10.32,16.02,16.68-.08-.12,.09-.47,0-.62-3.63-5.89-8.03-11.44-13.39-15.84-2.6-2.13-5.35-4-8.28-5.63-1.48-.83-3-1.59-4.54-2.3-.71-.33-1.43-.64-2.16-.94-.16-.06-.76-.21-.86-.4-.39-.73,.47-.48,.33-.23,0,0,0,.03,0,.04h0Z"/><path class="cls-2" d="M420.61,518.27c-1.35-1.05-2.14-2.42-2.34-4.14l-.36,2.27c.23,1.16,.37,2.27,.87,3.34,.3,.64,.65,1.24,1.01,1.85,.75,1.27,1.58,2.49,2.36,3.74,1.52,2.42,3,4.86,4.45,7.32,2.89,4.91,5.65,9.89,8.3,14.93,5.16,9.85,9.57,20.02,13.73,30.33,.94,2.34,1.95,4.73,3.45,6.78,.56,.76,1.19,1.71,2.21,1.74s2.2,.12,3.18-.16c.33-.1,.21-2.25-.01-2.47-.94-.98-1.97-1.91-2.67-3.08s-1.34-2.28-2.15-3.37c-1.3-1.76-2.31-3.69-3.17-5.69-2.09-4.83-3.92-9.77-6.07-14.58-4.5-10.09-9.48-19.98-15.05-29.53-1.54-2.64-3.12-5.26-4.73-7.85-1.53-2.45-2.96-5.4-5.11-7.34l.17,6.96c.69-1.37,1.34-1.69,1.95-.96-.01,0,.02-.08,0-.1h0Z"/><path class="cls-2" d="M1033.7,384.5c-.38,.56-1.17-.1-.95-.53,.13-.25,.75-.13,.96-.16,1.19-.13,2.37-.56,3.53-.83,2.47-.56,4.87-.86,7.34-.26s4.87,1,7.28,1.6,5,.81,7.48,1.27c10.09,1.9,19.65,5.88,29.23,9.45s19.44,6.36,29.54,8.24,20.46,3.04,30.75,3.97c5.73,.52,11.46,1.05,17.2,1.42,2.82,.18,5.64,.28,8.46,.16,1.48-.06,2.95-.18,4.42-.38,.22-.03,.47-.04,.69-.1,.75-.2,.89-.5,1.36-1.18,.26-.38,.52-.87,.89-1.16s.95-.45,1.36-.65c.37-.18,0-3.78-.09-3.78-.66,.01-1.3,.14-1.84-.3-.85-.69-.97-1.3-2.11-1.13-1.31,.19-2.63,.32-3.95,.4-2.74,.16-5.48,.1-8.22-.04-5.35-.29-10.69-.81-16.02-1.28-10.77-.95-21.54-2.08-32.19-4.01-10.66-1.94-20.99-4.87-31.14-8.66-10-3.74-19.96-7.82-30.59-9.35-2.95-.42-5.68-.31-8.59,.27-1.47,.29-2.87,.66-4.26,1.23s-2.76,.93-4.22,1.31-2.94,.71-4.37,1.21c-1.11,.39-2.34,.86-2.85,2.01-.24,.54-.11,2.3,.9,1.35,.02-.02-.01-.09,0-.1h0Z"/><path class="cls-2" d="M1034.28,382.94c.33-4.3,6.21-5.21,9.53-5.65,4.66-.62,9.4-.54,14.05,.12,5.01,.7,9.82,2.62,14.36,4.78s9.23,3.72,13.88,5.37c18.48,6.58,37.14,12.77,56.52,16.1,5.33,.91,10.69,1.62,16.08,2.05,2.73,.22,5.47,.38,8.21,.45,1.41,.04,2.82,.06,4.23,.06s2.89,.13,4.24-.14c.62-.13,.16-5.54,.12-6.07-.05-.65-.25-1.39-.18-2.02-.05-.32-.04-.12,.04,.61,0-.33-.02-.66-.03-.98,0-.17,.06-1.26-.12-1.35-.07-.04-.08,.94-.08,.99,0,.18,.1,.8,0,.94-.05,.08,.12-.85,.02-.53-.09,.28-.08,.62-.1,.91l.14-.55c-1.23-.18-2.53-.03-3.77-.02s-2.51,0-3.77-.04c-2.51-.06-5.01-.18-7.51-.35-4.84-.34-9.67-.9-14.47-1.65-9.88-1.53-19.63-3.81-29.24-6.53-9.56-2.71-18.97-5.88-28.33-9.21-4.59-1.63-9.23-3.25-14.01-4.22-2.36-.48-4.82-.42-7.21-.64s-4.83-.45-7.26-.52c-5.37-.16-10.58-.32-15.84,1-3.69,.93-9.04,2.5-9.5,7.01,0,.02,0,.12,0,.08h0Z"/><path class="cls-2" d="M1242.54,185.64c-1.9,1.71-4.16,3.05-6.31,4.43s-4.11,2.64-6.31,3.68c-1.03,.49-2.03,1-3.05,1.53-1.07,.56-2.02,1.41-2.99,2.15-1.92,1.48-3.82,2.99-5.71,4.51-7.68,6.2-14.93,13.04-22.11,19.8-14.45,13.61-28.31,27.83-41.56,42.6-6.63,7.39-13.11,14.92-19.42,22.58-6.16,7.47-12.38,14.99-17.92,22.94-5.36,7.7-9.84,16.2-11.01,25.63-1.21,9.76,.2,19.85,4.67,28.63,3.98,7.81,9.93,14.54,16.41,20.38,7.24,6.53,15.21,12.28,23.66,17.16,2.06,1.19,4.15,2.32,6.26,3.4,.35,.18,.53-3.03,.53-3.03,.02-1.53,0-3.15-.4-4.64-.45-1.65-1.37-3.15-2.04-4.72-.12-.27-.26,.79-.25,.76-.05,.65-.04,1.34,.09,1.98,.59,3.02,.95,6.14,1.76,9.1l.13-7.67c-8.45-4.33-16.48-9.49-23.88-15.45-6.74-5.43-13.12-11.45-18.1-18.57-2.36-3.38-4.45-7.01-5.9-10.88-.7-1.85-1.28-3.76-1.66-5.71-.06-.32-.18-.98-.19-1.09-.03-.19-.05-.39-.07-.58,0-.07-.09-.87-.06-.48s-.03-.41-.03-.49c-.06-.67,.11,.57,0-.09-.07-.45,0,0,0,.1,0,.01,.02-1.11,0-.67,.36-8.63,5.04-16.92,9.77-23.92,5.19-7.68,11.15-14.89,17.02-22.07,6.08-7.45,12.32-14.78,18.71-21.98,12.78-14.4,26.16-28.27,40.08-41.57,6.91-6.61,13.95-13.09,21.11-19.43,3.72-3.3,7.38-6.65,11.04-10.02,2.14-1.98,3.91-4.19,5.82-6.39s3.97-4.3,6.05-6.35c1.9-1.87,3.74-3.9,5.89-5.48,.02-.02-.01-.09,0-.1h0Z"/><path class="cls-2" d="M1132.34,299.06c-.9,1.15-1.97,2.19-2.86,3.37-1.11,1.47-2.06,3.12-3.03,4.69-2.24,3.64-4.42,7.31-6.46,11.07s-3.96,7.74-5.26,11.89c-1.45,4.6-2.03,9.4-1.96,14.22,.15,9.94,3.73,19.05,10.41,26.42,6.28,6.92,14.43,11.8,22.49,16.37,10.81,6.11,21.66,12.14,32.49,18.21,.57,.32,.78-3.51,.78-3.59,0-1.39,.06-3.28-.74-4.5-.34-.52-.74-.95-1.37-1.11-.19-.05-.45,.04-.62-.02-.38-.13-.65-.53-.91-.82-.3-.33-.41,.96-.42,1.01-.05,.64-.1,1.57,.21,2.16,1.13,2.16,1.47,4.68,2.84,6.72l.04-8.08c-8.75-4.9-17.49-9.81-26.24-14.71s-17.71-9.58-25.11-16.39c-5.72-5.27-11.11-12.51-12.23-20.27-.03-.2-.05-.4-.08-.6-.06-.51,.2,.22-.02-.21-.15-.31-.01-.07,0,.13-.01-.25-.01-.51-.02-.76,.04,1.09,.04-.99,0-.18,0-.19,.02-.37,.04-.56,0-.08,.07-.81,.03-.47,.2-1.94,.68-3.85,1.25-5.71,1.14-3.71,2.8-7.23,4.6-10.66,2.11-4.03,4.5-7.9,6.58-11.95,2.57-4.98,4.28-10.13,5.57-15.57,0-.02,0-.09,0-.09h0Z"/><path class="cls-2" d="M1128.72,380.68c.11-.18,.11-.37-.15-.48-.64-.27-.27,.91-.16,1.13,.44,.84,1.25,1.57,1.92,2.23,.88,.87,1.7,1.77,2.53,2.68,1.54,1.67,3.14,3.2,4.89,4.65,6.27,5.19,13.83,8.84,21.44,11.62,4.3,1.57,8.7,2.85,13.17,3.85,.83,.18,1.09-7.32,.03-8.08-.26-.19-.41-.3-.71-.32-.25,.08-.49,.16-.74,.25-.36,.3-.66,.28-.91-.06-.58-.3-1.12-.83-1.65-1.22-.19-.14-.23,1.45-.06,1.71,.64,.99,1.34,1.97,1.93,2.99,.84,1.47,.97,3.16,1.88,4.59l.03-8.08c-8.1-1.69-15.9-4.41-23.42-7.85-3.64-1.67-7.17-3.59-10.79-5.29-1.63-.76-3.23-1.5-4.91-2.14-.81-.31-1.62-.62-2.37-1.05-.44-.25-.87-.55-1.34-.76-.22-.08-.44-.16-.66-.24-.17-.4-.16-.46,.04-.21-.02,.02,0,.09,0,.1h0Z"/></g><g><path class="cls-5" d="M242.75,455.27c15.33-7.25,30.56-14.68,45.82-22.08,15.29-7.41,30.54-14.9,45.81-22.34,14.52-7.07,29.08-14.06,44.14-19.94s30.4-10.94,46.28-14c15.62-3.01,31.79-4.33,47.62-2.36,1.01,.13,2.02,.29,3.03,.41s2.01-.04,3.01-.11c.04,0,.07-1.03-.03-1.06-.91-.34-1.84-.77-2.8-.95-1.06-.19-2.18-.24-3.26-.33-1.94-.17-3.89-.3-5.83-.39-3.98-.18-7.95-.3-11.93-.22-7.98,.17-15.95,.97-23.82,2.28-15.93,2.64-31.53,7.33-46.55,13.21-15.08,5.9-29.75,12.9-44.31,19.96s-30.36,14.83-45.53,22.26c-15.29,7.48-30.61,14.94-45.81,22.61l-5.84,2.94s0,.12,0,.12h0Z"/><path class="cls-5" d="M289.21,430.82c3.2-3.76,2.75-9.18,.9-13.45-1.15-2.66-2.93-5.04-5.27-6.77-2.85-2.1-6.23-2.86-9.72-2.7-7.49,.33-14.11,4.65-19.43,9.63-5.65,5.3-10.34,11.55-15.8,17.04s-11.76,10.8-18.33,15.33c-5.96,4.11-12.47,7.36-18.38,11.52-5.43,3.82-10.06,8.68-12.09,15.13-1.9,6.06-1.55,12.78,.06,18.87,1.78,6.72,5.17,12.92,9.48,18.35,4.82,6.07,10.52,11.36,16.03,16.79s10.84,11.09,15.01,17.65,7.41,14.08,9.25,21.8c.83,3.47,1.45,7.03,2.91,10.31s3.81,5.77,6.84,7.66c3.24,2.02,6.88,3.49,10.47,4.75s7.63,2.32,11.59,2.82c7.59,.95,15.12-.21,22-3.55,6.49-3.15,12.15-7.79,17.37-12.71,2.66-2.5,5.27-5.08,7.78-7.73,2.33-2.47,3.38-5.12,2.66-8.51-.38-1.77-1.27-3.41-2.09-5.01-.89-1.74-1.84-3.45-2.85-5.12-2.08-3.47-4.41-6.8-6.94-9.96-4.7-5.85-10.45-10.85-14.67-17.09-3.64-5.38-6.01-11.97-3.52-18.32,1.04-2.66,2.83-4.92,5.28-6.42,.29-.17,.18-1.14,.17-1.42,0-.1-.15-1.46-.24-1.41-4.77,2.92-6.62,8.32-6.77,13.68-.07,2.83,.22,5.71,1.01,8.44,.89,3.07,2.53,5.87,4.36,8.46,4.12,5.83,9.53,10.59,14.05,16.09,2.45,2.99,4.71,6.15,6.76,9.44,.98,1.58,1.91,3.18,2.79,4.82s2.6,4.05,2.46,5.99-1.8,3.46-3.02,4.71-2.46,2.52-3.7,3.76c-2.46,2.46-4.97,4.87-7.59,7.15-5.26,4.56-11.1,8.64-17.71,10.98-7.12,2.52-14.72,2.6-22.05,1.01-3.75-.81-7.41-2.03-10.96-3.5s-6.86-2.97-9.6-5.47c-5.51-5.03-5.76-13.22-7.84-19.93s-5.41-13.66-9.57-19.69c-8.48-12.29-20.88-21.1-30-32.84-8.22-10.58-14.25-26.23-6.38-38.63,3.62-5.7,9.36-9.51,15.06-12.89,6.21-3.68,12.43-7.19,18.23-11.51s11.39-9.27,16.44-14.59c5.14-5.42,9.68-11.49,15.62-16.09,5.35-4.14,12.46-6.88,19.3-5.93,2.97,.41,5.96,1.27,8.29,3.24,1.99,1.68,3.55,3.97,4.24,6.49,.87,3.19,.13,6.59-1.87,9.2-.02,.03,.01,.15,.01,.15h0Z"/><path class="cls-5" d="M289.91,517.21c.53-.05,1.05,0,1.58-.08s1.05-.23,1.58-.33c1.05-.19,2.12-.33,3.19-.43,2.15-.19,4.31-.2,6.46-.09,4.37,.23,8.71,.94,13,1.76,8.98,1.72,17.94,3.55,26.89,5.4,18.16,3.75,36.31,7.52,54.5,11.14l15.39,3.06c2.03,.4,4.08,.91,6.15,.93,.82,.01,1.82,.02,2.59-.31,.91-.38,1.84-1.57,2.42-2.34,.07-.09-.07-.55-.01-.59-.7,.47-1.17,.52-1.98,.54s-1.56,.25-2.36,.3c-1.74,.09-3.46-.23-5.16-.56-4.56-.89-9.12-1.78-13.68-2.67-9.04-1.76-18.07-3.53-27.12-5.23-18.16-3.4-36.31-6.83-54.45-10.32-4.82-.93-9.67-1.84-14.59-2.12-2.39-.14-4.78-.13-7.16,.08-1.15,.1-2.29,.26-3.42,.47-.61,.11-1.21,.24-1.81,.38-.74,.18-1.33,.55-2.01,.88-.01,0,0,.1,0,.1h0Z"/><path class="cls-5" d="M270.82,570.21c-1.89-.99-3.57-2.03-5.67-2.56s-4.13-.67-6.21-.51-3.99,.63-5.84,1.43c-2.01,.87-3.53,2.16-5.2,3.52l.03,1.04c.76-.23,1.36-.88,1.98-1.38,.71-.57,1.46-1.08,2.26-1.53,1.5-.84,3.12-1.46,4.79-1.87,3.67-.92,7.52-.86,11.23-.18,4.34,.79,8.49,2.36,12.57,4,4.39,1.77,8.77,3.57,13.15,5.36l-.06-2.24c-1.01-.2-2.09-.27-3.12-.28-.01,0-.05,.67,.02,.71,1.01,.66,2.07,1.3,3.16,1.82-.19-.09,.34-2.08-.06-2.24-4.38-1.8-8.76-3.61-13.16-5.39-4.15-1.68-8.37-3.29-12.8-4.07-3.78-.67-7.65-.66-11.36,.39-3.25,.92-7.1,2.72-8.65,5.91-.11,.23,.15,.88,.04,1.02,2.56-3.2,7.06-5.03,11.03-5.53s8.77,.14,11.86,2.7c-.01,0,.02-.09,0-.1h0Z"/><path class="cls-5" d="M248.68,571.29c-.67,.35-.77-.76-.81-1.15l-.02,1.42c1.39-.93,2,.7,2.44,1.77,.48,1.16,1.16,2.24,2,3.18,1.85,2.09,4.37,3.8,7.13,4.35s5.37,.12,7.69-1.31c1.02-.63,2.04-1.36,2.93-2.17,.41-.37,.74-.79,1.06-1.23,.15-.2,.22-.22,.33-.46,.26-.55,.17-1.97,.19-2.57,.03-.7,.02-1.39-.02-2.09,0-.1-.2-1.14-.17-1.17-.55,.61-1.15,1.1-1.82,1.56-.12,.09-.07,1.47,.04,1.5,1.35,.34,1.07,.18,1.51,2.6l-.09-6.6c-1.34,5.56-7.2,9.53-12.87,8.51-2.54-.46-4.76-1.64-6.38-3.67-.87-1.08-1.3-2.24-1.87-3.47-.41-.88-1.84-1.87-2.13-.36-.03,.14-.02,1.65,.06,1.63,.32-.08,.53,0,.83-.17,.02-.01-.01-.1,0-.1h0Z"/><path class="cls-5" d="M248.96,571.31c-.1,.13-.38,.08-.53,.15-.17,.09-.34,.2-.5,.31-.32,.22-.61,.47-.88,.74-.53,.55-.95,1.19-1.23,1.9-.01,.04,0,.38,.01,.38,.63-.22,1.24-.48,1.85-.74,.03-.01-.01-.23,0-.24-.63,.18-1.25,.37-1.86,.59v.38c.3-.73,.73-1.4,1.27-1.96,.26-.27,.55-.52,.86-.74,.16-.11,.32-.21,.48-.3,.09-.06,.17-.14,.26-.21,.07-.06,.18-.19,.27-.16,0,0,0-.1,0-.1h0Z"/><path class="cls-5" d="M254.8,572.1h-.64s0,.1,0,.1h.64s0-.1,0-.1h0Z"/><path class="cls-5" d="M252.25,572.86c.58-.41,1.28-.68,1.93-.99,.08-.04,.03-.59,0-.66-.36-.65-.94-.99-1.4-1.55,0,0-.06,.57-.06,.6,0,.3-.01,.62,.06,.91,.21,.86,.53,1.49,1.17,2.11,.53,.51,1.16,.9,1.83,1.17,1.38,.55,2.99,.64,4.4,.13,.64-.23,1.24-.59,1.72-1.09,.13-.13,.23-.3,.36-.42,.04-.04,.28-.23,.19-.11-.26,.38,.22-2.67-.07-1.88-.03,.1-.05,.2-.08,.3-.09,.26-.2,.51-.33,.75-.99,1.73-2.89,2.45-4.81,2.25-2.07-.22-4.01-1.79-4.36-3.88l-.04,1.18c.24,1.1,.4,2.29,1.1,3.2,.5,.65,1.09,1.21,1.76,1.68,1.37,.96,3.03,1.51,4.71,1.44,3.32-.12,6.21-2.56,7.14-5.7,.21-.7,.11-1.56,.07-2.27-.02-.33,.03-.81-.11-1.1-.04-.08-.03-.34-.14-.18-.85,1.26-2.51,2.84-4.13,2.93l.14,3.66c.51-1.18,.48-2.62,.47-3.87-.02-1.45-.12-2.9-.55-4.29l-.05-.07c-.9,.89-1.21,2.02-1.29,3.26-.11,1.64-.17,3.64,.55,5.16l.05,.07c2.55-1.73,2.61-4.77,2.41-7.56-.03-.47-.2-1.43-.29-.37-.14,1.9-1.04,3.73-1.73,5.49-.05,.14,0,1.48,.06,1.47,1.49-.39,1.83-2.75,1.96-4.06l-.29-1.1c-.1-1.74,.01-.83-.24-.18-.13,.33-.29,.66-.49,.95-.22,.33-1.2,1.61-1.56,1.18-.03-.07-.05-.14-.07-.21-.22-.74-.22-.12,0,1.87,.04-.13,.06-.27,.1-.4,.1-.33,.26-.66,.45-.95,.1-.15,.24-.44,.43-.42,.22,.02,.13,.43,.22,.57l-.04-1.34-.04,.26c-.07,.31-.14,.62-.22,.93-.16,.65-.1,1.39-.08,2.05,0,.14,.17,1.64,.22,1.61,.78-.43,1.61-.68,2.34-1.21s1.31-1.13,1.83-1.83l-.14-3.62c-.95,2.97-3.81,5.23-6.94,5.4-1.57,.08-3.13-.37-4.45-1.2-.68-.42-1.29-.95-1.82-1.55-.18-.2-.47-.89-.76-.97-.2-.05-.3,.11-.54-.02,.02,.01-.05,1.18,.02,1.34,.33,.75,.52,1.54,.9,2.27s.85,1.46,1.43,2.07c1.05,1.13,2.62,1.98,4.18,1.6,1.36-.33,2.58-1.36,3.12-2.65,.34-.81,.35-1.73,.36-2.59,0-1.07-.01-2.21-.36-3.23-.04-.09-.07-.09-.1,0-.99,1.76-2.98,2.66-4.96,2.64-.92,0-1.85-.21-2.67-.64-.39-.21-.76-.47-1.08-.78-.26-.26-.43-.74-.81-.76l.04,1.62c.51-.31,1.05,.18,1.36,.58l-.02-.67c-.62,.52-1.22,1.13-1.91,1.56-.02,.01,.01,.09,0,.1h0Z"/><path class="cls-5" d="M245.44,565.55c4.79-7.68,14.74-9.69,23.18-9.14,10.38,.68,20.28,4.56,29.16,9.81,5.12,3.02,9.94,6.52,14.55,10.26-.03-.03,.05-.23,0-.28-8.19-6.65-17.13-12.6-27.04-16.35-8.92-3.37-19.33-5.36-28.66-2.49-4.55,1.4-8.66,4.04-11.18,8.15,0,0,0,.03,0,.04h0Z"/><path class="cls-5" d="M222.99,454.16c-1.72,1.38-3.67,2.5-5.44,3.81s-3.47,2.7-5.06,4.22c-2.99,2.87-5.49,6.26-6.96,10.16-1.14,3.04-1.64,6.34-1.19,9.57,.54,3.87,2.61,7.21,5.25,10.01,2.91,3.09,6.35,5.71,9.7,8.29,3.61,2.78,7.3,5.46,10.94,8.21,7.26,5.5,14.43,11.36,19.87,18.74,6.29,8.54,10.47,19.19,8.54,29.91,0,.04,.02,.19,.02,.17,2.91-16.12-7.19-30.93-18.69-41.14-6.65-5.91-14.01-10.94-21.04-16.37-3.49-2.7-7.1-5.44-10.03-8.77-3.59-4.08-5.38-9.06-4.42-14.53,.83-4.74,3.3-8.99,6.53-12.5,1.79-1.95,3.77-3.7,5.85-5.33,1.93-1.51,3.96-3.18,6.12-4.34,.02-.01-.01-.09,0-.1h0Z"/><path class="cls-5" d="M233.75,471.85c7.74-1.66,15.05-4.74,22.15-8.17,7.17-3.47,14.23-7.17,21.35-10.75,14.18-7.12,28.43-14.12,42.84-20.78s28.93-12.96,43.7-18.7,29.47-10.81,44.56-15.12c15.15-4.33,30.51-7.75,46.06-10.26,1.96-.32,3.92-.61,5.89-.9,.01,0,0-.12,0-.12-15.61,2.08-31.05,5.37-46.24,9.49-15.21,4.12-30.18,9.09-44.92,14.65-14.82,5.59-29.4,11.79-43.82,18.34s-28.59,13.44-42.73,20.49c-7.12,3.55-14.22,7.15-21.32,10.75s-14.17,7.13-21.75,9.5c-1.9,.6-3.83,1.11-5.77,1.54,0,0,0,.04,0,.04h0Z"/><path class="cls-5" d="M467.15,390.02c5.51-.73,10.95-1.93,16.41-2.97s10.96-2.06,16.44-3.07c10.89-2.02,21.79-3.92,32.72-5.71,21.93-3.6,43.94-6.77,66-9.43,6.11-.74,12.22-1.44,18.33-2.1,3.1-.34,6.2-.67,9.3-.99,1.55-.16,3.1-.32,4.65-.47,.81-.08,1.64-.23,2.45-.17,.88,.07,1.56,.22,2.46,.12,.16-.02,.11-2.64-.07-2.65-1.39-.12-2.82,.26-4.19,.47-.05,0-.06,.88,.02,.9,1.38,.47,2.78,1.13,4.24,1.28l-.07-2.65c-1.35,.12-2.55,.7-3.91,.84-1.47,.15-2.94,.31-4.41,.46-2.77,.3-5.55,.6-8.32,.91-5.54,.62-11.08,1.27-16.62,1.95-10.99,1.34-21.97,2.78-32.94,4.34-22.01,3.12-43.95,6.7-65.82,10.72-6.05,1.11-12.1,2.27-18.13,3.49s-12.47,2.38-18.56,4.1c-.08,.02-.01,.63,.02,.63h0Z"/><path class="cls-5" d="M469.83,385.92c-1.02,1.25-2.91,1.11-4.22,.46l.02,1c11.2-6.42,20.3-15.67,28.09-25.86s14.83-21.99,21.92-33.18,15.45-22.93,24.71-33.27,20.02-20.26,31.34-28.9c5.67-4.33,11.56-8.39,17.62-12.16,2.97-1.85,5.99-3.62,9.05-5.33s6.34-3.83,9.79-4.79c1.77-.49,3.54-.53,5.21,.28l-.08-2c-9.92,15.62-14.12,34.3-12.65,52.69s8.42,34.08,19.84,47.36c6.22,7.23,13.66,13.37,21.93,18.12l-.17-1.35c-.04,2.59-4.04,4.64-6.27,3.77,.03,.01-.29,1.49,.04,1.61,3.57,1.4,6.47-1.2,6.51-4.82,0-.19,.08-1.21-.17-1.35-14.31-7.98-25.96-20.44-33.29-35.07-7.99-15.94-10.37-34.02-6.77-51.49,2.01-9.75,5.77-19.1,11.11-27.51,.14-.21,.18-1.87-.08-2-3.47-1.7-7.21,.34-10.3,1.96s-6.16,3.33-9.18,5.1c-6.09,3.58-12.02,7.46-17.74,11.61-11.54,8.36-22.24,17.86-31.97,28.27s-18,21.32-25.58,33.06-13.9,22.79-21.64,33.66c-7.56,10.61-16.27,20.6-27.12,27.95-1.36,.92-2.76,1.8-4.18,2.64-.15,.09-.13,.92,.02,1,1.65,.79,3.13-.08,4.2-1.36,.02-.02,0-.1,0-.1h0Z"/><path class="cls-5" d="M431.5,482.43c-1.33,.57-2.36,1.2-3.42,2.21s-2,2.01-2.73,3.23c-1.44,2.41-2.22,5.05-2.36,7.85-.17,3.51,.58,6.92,1.33,10.32,.42,1.93,.85,3.85,1.27,5.78s.68,3.84,1.35,5.63c0,.01,.07,.18,.12,.08,.34-.75,.71-1.46,1.11-2.18,.07-.13-.04-.66-.05-.64-.37,.47-.72,.89-1.18,1.28l.18,.36c-.44-3.22-1.31-6.4-2.01-9.58s-1.89-6.81-1.74-10.2c.24-5.67,3.73-10.72,8.14-14.04,.02-.01,0-.1,0-.1h0Z"/><path class="cls-5" d="M414.71,479.58c-6.17,1.97-7.95,9.78-8.29,15.45-.27,4.41,.09,8.85,.52,13.24,.37,3.79,.48,7.94,2.1,11.45,.33,.7,2.47,4.43,3.13,2.23,.09-.31,.14-1.03-.03-1.32-.2-.33-.49-.39-.62,.03-.04,.12,.05,.79,.07,.75,.21,0,.34,.09,.39,.27l.09-1.15c-1.14,.7-3.06-3.38-3.31-4.08-.61-1.71-.86-3.51-1.06-5.31-.53-4.57-1.06-9.17-1.01-13.78,.07-6.68,2.09-13.57,8.05-17.27,.08-.05,0-.52-.01-.51h0Z"/><path class="cls-5" d="M397.73,477.56c-.34-.98-.73-1.85-1.82-1.21-.56,.33-1.08,.91-1.5,1.39-.99,1.13-1.61,2.58-2.08,3.99-1.44,4.31-1.23,9.4-.59,13.83,.3,2.08,.74,4.13,1.25,6.17,.24,.96,.51,1.92,.7,2.89,.29,1.47,0-.63,.1-.61,0,0-.2,1.17-.22,1.27-.63,3.78-.58,8.32,1.45,11.7,.31,.51,.85,1.43,1.54,1.49s1.16-1.27,1.34-1.86c.32-1,.52-2.45-.02-3.41-.02-.03-.13,.81-.09,.99,.04-.16-.02-.18-.18-.08-.22,.13-.39,.06-.51-.21-.44-.34-.65-.96-.94-1.42-.43-.7-.94-1.34-1.28-2.1-.16-.36-.27-.72-.4-1.09-.39-1.06,.06,.89,0,.83-.14-.14,.41-2.74,.43-2.99,.38-4.73-.97-9.01-1.89-13.56-.24-1.18-.49-2.28-.3-3.31,.26-1.38,.78-2.73,1.48-3.94,.89-1.55,2.32-2.79,3.1-4.39,.62-1.28,.86-3.03,.4-4.37h0Z"/><path class="cls-5" d="M388.94,473.22c-3.13,2.22-5.52,5.69-7.2,9.11-1.54,3.14-2.5,6.55-2.84,10.02-.72,7.47,1.27,15.13,5.71,21.19,.04,.06,.15-1.14,.07-1.37-.22-.65-.47-1.29-.67-1.95-.03-.09-.07,.35-.05,.43,.22,.89,.38,1.8,.58,2.69l.1-1.25c-4.43-6.05-6.57-13.71-5.35-21.16,.56-3.4,1.73-6.69,3.4-9.7s3.89-5.5,6.23-7.98c0,0,0-.04,0-.04h0Z"/><path class="cls-5" d="M374.15,475.02c-3.4,1.65-6.02,3.69-7.43,7.31-1.21,3.11-1.39,6.54-1.09,9.83,.37,4.07,1.5,8.08,2.65,11.99,.49,1.67,1.04,3.33,1.79,4.9,.68,1.41,1.51,2.99,2.94,3.74l.05-.03c.43-.59,.81-1.18,1.27-1.75,.1-.12-.03-.78-.04-.77-.93,.65-1.37,.62-2.08-.29-.43-.56-.87-1.1-1.25-1.69-.84-1.31-1.44-2.74-1.94-4.2-1.12-3.23-2.13-6.59-2.77-9.95-.74-3.87-.66-7.88,1.03-11.5,1.48-3.16,4.13-5.34,6.88-7.38,.03-.03,0-.2,0-.2h0Z"/><path class="cls-5" d="M412.31,480.64c-5.39,4.7-7.77,11.76-7.02,18.8,.25,2.37,.82,4.69,1.14,7.06,.36,2.72-.03,5.37-.05,8.1-.02,1.76,.14,3.56,.73,5.23,.54,1.51,1.56,3.4,3.19,3.92,.13,.04,.35-2.48,0-2.76-.49-.38-.63-.64-.88-1.22,.02,.05-.11,.6-.04,.79,.33,.91,.54,1.84,.75,2.78l.11-2.4c-1.39-.94-2.41-1.81-3.01-3.43-.72-1.95-.45-4.06-.36-6.1,.15-3.53-.5-6.84-1.11-10.3-1.32-7.52,1.11-15.06,6.56-20.43,0,0,0-.04,0-.04h0Z"/><path class="cls-5" d="M427.73,482.45c-2.11,1.81-3.15,4.4-3.94,7.01-.83,2.77-1.24,5.66-1.29,8.54s.23,5.94,.95,8.81c.37,1.49,.89,2.93,1.38,4.39,.64,1.92,1.02,3.59,.93,5.62l.26-.9c-.38-.37-.43-1.38-.55-1.9-.1-.44-.15,.6-.12,.75,.17,.9,.37,1.8,.42,2.72,0,.05,.19,1.12,.31,.88,.54-1.08,.4-2.64,.32-3.81-.09-1.48-.39-2.92-.81-4.34-.89-3.01-2.12-5.83-2.46-8.98-.72-6.54,1.9-12.58,4.64-18.34,.03-.07,0-.48-.03-.45h0Z"/><path class="cls-5" d="M526.32,545.62c35.28-.35,70.52-2.77,105.53-7.09,35-4.32,69.76-10.58,104.07-18.74,34.33-8.17,68.11-18.36,101.36-30.14,16.59-5.88,32.9-12.43,48.77-20.06,16.22-7.81,32.01-16.48,47.78-25.16,16.16-8.89,32.31-17.79,48.47-26.69,16.14-8.89,32.15-18.1,48.48-26.63,1.93-1.01,3.78-1.61,5.86-2.21,2.28-.65,4.24-1.96,6.29-3.13,.94-.53-.6-5.22-.13-5.47-1.99,1.06-4.07,2-5.83,3.43-2.05,1.67-3.97,3.27-6.26,4.6-4,2.32-8.07,4.52-12.12,6.76l-24.24,13.39c-16.16,8.93-32.32,17.85-48.48,26.78-15.86,8.76-31.67,17.65-47.79,25.92-15.91,8.16-32.22,15.4-48.86,21.94-32.88,12.93-66.77,23.39-100.97,32.18-34.02,8.74-68.53,15.61-103.31,20.56-34.94,4.97-70.13,7.92-105.41,9.06-4.41,.14-8.82,.25-13.23,.34-.03,0-.02,.35,0,.35h0Z"/><path class="cls-5" d="M514.1,566.38c-.41-1.12-.88-2.24-1.16-3.4l-.09,.84c.6,2.07,2.52,3.66,4.02,5.14,1.41,1.38,2.88,2.69,4.42,3.93,1.44,1.17,2.94,2.27,4.49,3.3,.82,.55,1.65,1.08,2.5,1.58,1.07,.64,2.54,1.23,3.26,2.3,.17,.25,.25-.44,.25-.46,.3-2.28,.17-4.6,.46-6.89,.32-2.48,.84-4.96,1.61-7.34,1.58-4.84,3.67-9.58,6.46-13.85,.63-.97,1.6-1.84,2.11-2.88,.46-.94,.77-2.76,.45-3.83-.04-.12-.15-.25-.15-.25-.83-1.37-1.31-.11-1.78,.55-.74,1.03-1.51,2.05-2.23,3.1-2.8,4.06-4.64,8.95-5.84,13.7-.71,2.78-1.19,5.62-1.47,8.47s-.6,6.27-.01,9.22l.12-3.01c-.74,.33-1.89-.53-2.58-.93-.86-.5-1.69-1.02-2.52-1.56-1.75-1.14-3.45-2.38-5.08-3.7-1.54-1.25-3.01-2.57-4.42-3.96-.7-.69-1.39-1.41-2.06-2.13-.55-.6-1.04-1.32-1.74-1.75,.07,.04-.5,2.09,.05,2.2,.44,.09,.76,1.29,.92,1.64,0,0,0-.03,0-.04h0Z"/><path class="cls-5" d="M716.93,523.04c5.74,2.08,11.33,4.47,16.57,7.63s9.98,6.89,14.26,11.13c.03,.06,.06,.06,.09,0,2.35-2.84,5.21-5.47,8.03-7.83s5.68-4.24,8.72-6.08c6.27-3.8,13.15-6.52,20.32-8.07,.29-.06,.26-3.6-.09-3.74-2.12-.88-4.35-1.51-6.48-2.38l-3.13-1.27c-.42-.17-1.12-.63-1.57-.64-.31,.08-.6,.19-.88,.34-.3-.03-.59-.04-.89-.06-.04,0-.07,.87,.02,.94,.81,.62,1.38,1.49,2.26,1.96,.42,.22,.91,.39,1.34,.57l3.13,1.34c2.13,.91,4.15,2.04,6.27,2.94l-.09-3.74c-10.11,2.13-19.58,6.68-27.49,13.33-1.96,1.65-3.84,3.38-5.61,5.23-.77,.81-1.53,1.63-2.22,2.51-.4,.51-.8,1.28-1.29,1.7-.72,.62-1.05,.01-1.67-.55-3.92-3.6-8.22-6.65-12.89-9.19-5.21-2.84-10.87-5.1-16.71-6.16,0,0-.01,.1,0,.1h0Z"/><path class="cls-5" d="M627.78,351.34c3.43,.05,6.88,.69,10.28,1.13s6.62,.92,9.93,1.4c6.84,1.01,13.68,2.05,20.51,3.11,13.8,2.14,27.59,4.37,41.38,6.55,27.31,4.31,54.67,8.44,82.17,11.36s53.81,4.67,80.79,4.42c26.62-.25,53.27-2.55,79.41-7.71,12.72-2.51,25.4-5.76,37.65-10.02,5.84-2.03,11.58-4.38,17.05-7.27,2.77-1.46,5.49-3.06,8.07-4.85,.58-.4,1.15-.81,1.71-1.23,.11-.08,.72-.65,.85-.63,.11,.02,.68,1.14,.81,1.35l2.82,4.71c.76,1.27,1.44,2.93,2.42,4.04,.48,.54,.06,.76,.55,.29,.33-.32,.43-1.12,.6-1.56l1.06-2.75c.09-.23-.14-.72-.02-.9l-.93,1.47c-.14,.22-.4,.78-.62,.98-.46,.42,.03,.62-.51,.16-.5-.42-.88-1.49-1.21-2.06l-1.61-2.75-2.42-4.13c-.22-.38-.45-1.16-.81-1.38-.59-.37-.07-.23-.76,.07s-1.37,.97-2,1.39c-5.13,3.46-10.59,6.35-16.27,8.78-11.85,5.07-24.45,8.52-36.98,11.5-25.86,6.16-52.19,9.58-78.74,10.72-26.82,1.15-53.7,.17-80.42-2.3-27.66-2.55-55.17-6.46-82.62-10.67-27.4-4.21-54.75-9.08-82.26-12.52-3.29-.41-6.6-.46-9.89-.78,0,0,0,.1,0,.1h0Z"/><path class="cls-5" d="M1022.1,351.85c-.1,3.83,3.94,6.01,7.42,5.37,4.87-.89,6.98-6.64,8.73-10.59,4.94-11.17,10.21-22.14,16.47-32.64,12.51-20.97,27.68-40.3,44.66-57.83,17.9-18.48,37.79-34.92,58.79-49.74s44.8-29.08,68.28-41.78,47.99-25.82,73.81-34.25c3.24-1.06,6.51-2.01,9.79-2.92l-.09-3.49c-1.44,.48-2.81,1.3-4.17,1.97-.19,.1-.03,1.77,.04,1.77,1.39-.05,2.85,.02,4.21-.25,.42-.08-.04-3.5-.09-3.49-13.25,2.71-25.93,7.84-38.18,13.46-12.03,5.52-23.81,11.63-35.52,17.79-23.24,12.23-46.07,25.29-67.88,39.92s-41.23,29.76-59.59,47.31c-17.36,16.6-33.37,34.96-46.53,55.09-6.64,10.17-12.67,20.76-17.93,31.72-2.58,5.39-4.92,10.89-7,16.48-1.67,4.48-4.33,10.92-10.14,10.5-2.35-.17-5.21-1.63-5.06-4.37,0-.04-.02-.1-.02-.03h0Z"/><path class="cls-5" d="M1307.33,124.98c-10.36,11.93-20.39,24.15-30.53,36.27-1.2,1.44-2.35,3.03-3.69,4.34s-2.8,1.54-4.54,1.1c-3.66-.92-7.13-2.35-10.96-2.32-5.49,.04-11.05,3.48-11.39,9.35-.16,2.85,.7,5.3,1.66,7.92,.35,.94,.76,2,.7,3.02-.04,.72-.52,1.5-.9,2.1-.9,1.39-2.19,2.47-3.5,3.45-5.52,4.11-11.25,7.92-16.73,12.1-10.89,8.3-21.4,17.11-31.48,26.37-10.19,9.36-19.94,19.19-29.22,29.46s-18.2,20.87-26.17,32.16c-7.88,11.16-14.93,23.21-19.37,36.19-4.12,12.05-5.33,25.87,1.25,37.29,5.92,10.28,16.15,16.49,26.35,21.84,11.53,6.05,23.98,10.4,34.73,17.88,2.67,1.86,5.29,3.74,7.71,5.92,.46,.42,.52-1.69,.53-1.87,.02-.72,.2-2.68-.41-3.26-4.55-4.34-9.71-7.58-15.37-10.28s-11.48-4.87-17.29-7.12-11.02-4.36-16.19-7.36c-5.1-2.96-9.95-6.44-14.04-10.71s-7.08-8.87-8.79-14.28c-2.23-7.09-1.37-14.51,.61-21.55,3.68-13.1,10.61-25.36,18.19-36.57,7.66-11.32,16.4-21.91,25.44-32.15s18.35-19.84,28.18-29.12,20.29-18.28,31.04-26.71c5.39-4.23,10.87-8.34,16.43-12.34,2.35-1.68,4.92-3.22,6.95-5.3,1.9-1.94,2.61-4.21,2.49-6.88-.12-2.86-1.42-5.29-2.15-8-.82-3.06,2.31-5.86,4.75-7.12,2.88-1.48,6.27-1.6,9.43-1.31,1.64,.15,3.3,.21,4.95,.34s3.9,.55,5.55-.09c1.17-.46,1.98-1.5,2.76-2.44,1.27-1.51,2.53-3.03,3.79-4.55,2.41-2.89,4.81-5.77,7.22-8.66,4.94-5.93,9.86-11.86,14.78-17.81,2.42-2.93,4.84-5.85,7.22-8.81,.09-.11-.07-.44-.01-.51h0Z"/><path class="cls-5" d="M1036.72,384.7c2.28-.69,4.95-.79,7.32-.94s4.92-.08,7.36,.17c4.99,.52,9.97,1.71,14.76,3.18,9.93,3.06,19.33,7.53,29.06,11.12,19.5,7.18,40.12,11.19,60.88,11.87,5.87,.19,11.74,.12,17.6-.23,2.89-.17,5.78-.41,8.66-.71,1.37-.14,2.99-.61,4.32-.19,.31,.1,.61,.24,.92,.35,.22,.08,1.15,.52,1.37,.48,.85-.13,1.48-2.12,1.78-2.69,.19-.35,.18-1.8-.05-2.12-.27-.38-1.03-1.81-1.44-2-.68-.31-1.47,.53-2.02,.9-.61,.4-1.08,.77-1.8,.91-.67,.13-1.37,.18-2.04,.27-2.57,.33-5.15,.6-7.74,.82-5.17,.44-10.35,.67-15.53,.69-10.36,.04-20.72-.76-30.96-2.38s-20.32-4.05-30.14-7.32c-9.82-3.27-19.22-7.64-29.04-10.88-5.42-1.79-10.98-3.29-16.69-3.68-2.74-.19-5.49-.16-8.22,.15-1.38,.15-2.74,.39-4.09,.71-1.48,.35-2.83,.98-4.28,1.42-.02,0,0,.1,0,.1h0Z"/><path class="cls-5" d="M1047.22,366.62c1.98-.89,4.08-1.48,6.06-2.42s3.83-1.98,5.64-3.14c3.45-2.21,6.64-4.8,9.62-7.61,6.45-6.07,11.92-13.07,17.23-20.13,12.25-16.3,23.68-33.21,35.39-49.9,11.5-16.39,23.34-32.55,36.46-47.69s25.97-27.96,40.33-40.51c14.2-12.42,29.27-23.83,44.99-34.27,1.94-1.29,3.89-2.56,5.85-3.81,.04-.03-.02-.19,0-.2-15.96,10.01-31.17,21.17-45.57,33.33-14.35,12.12-27.87,25.21-40.44,39.17-13.27,14.73-25.28,30.5-36.77,46.64-11.84,16.63-23.19,33.6-35.23,50.09-10.39,14.22-21.4,30.03-37.67,38-1.83,.9-3.87,1.95-5.88,2.35-.02,0,0,.1,0,.1h0Z"/><path class="cls-5" d="M476.85,463.03c38.26,4.56,76.91,4.55,115.31,1.8,38.57-2.76,76.89-8.22,115.04-14.43,36.99-6.02,73.92-12.53,110.66-19.97,36.54-7.41,72.89-15.85,108.81-25.84s71.3-21.51,105.93-35.15c4.34-1.71,8.66-3.45,12.96-5.24,.06-.02-.03-.38,0-.39-34.49,14.03-69.7,26.12-105.47,36.47s-72.07,19.06-108.54,26.77c-36.52,7.72-73.26,14.39-110.07,20.6-38.12,6.43-76.38,12.33-114.9,15.79-38.33,3.45-76.98,4.46-115.35,1.03-4.8-.43-9.59-.93-14.38-1.49,0,0,0,.04,0,.04h0Z"/><path class="cls-5" d="M599.46,252.42c-2.84-2.32-6.08,2.84-7.4,4.69-2.24,3.14-4.21,6.46-5.92,9.92-3.36,6.79-5.67,14.08-7.11,21.5-3.08,15.82-2.01,32.12,1.29,47.81,2.05,9.77,4.95,19.34,8.24,28.76,0,.02,.02-.08,.01-.1-5.57-16.03-10.07-32.6-11.12-49.6-.95-15.53,1.15-31.44,7.57-45.7,1.65-3.66,3.56-7.21,5.77-10.56,1.39-2.12,5.39-9.32,8.68-6.67,0,0,0-.03,0-.04h0Z"/><path class="cls-5" d="M572.6,270.4c-1.64,1.35-3.12,2.58-4.29,4.4-1.04,1.62-1.79,3.41-2.36,5.25-1.3,4.17-1.69,8.56-2.05,12.89-.91,11-.86,22.08,.13,33.08,.55,6.14,1.4,12.25,2.53,18.31,0,.03,.01-.04,.01-.06-2.01-10.83-3.12-21.82-3.27-32.83-.07-5.33,.08-10.67,.44-15.99,.32-4.66,.64-9.41,1.82-13.95,1.02-3.94,3.1-9.09,7.04-11,.02-.01,0-.1,0-.1h0Z"/><path class="cls-5" d="M913.34,375.15c-1.09-.6-2.33-.59-3.1,.5-.01,.02-.01,.2,0,.2,5.79-.86,10.25-4.29,14.5-8.09s8.47-8.16,12.25-12.66c3.88-4.62,7.41-9.53,10.55-14.68,.37-.62,.74-1.24,1.11-1.86,.14-.24,.27-.54,.43-.75,.42-.54,.34-.52,.9-.22,.38,.2,.74,.66,1.07,.93,.55,.46,1.11,.89,1.69,1.3,2.21,1.58,4.63,2.86,7.18,3.82,5.72,2.15,11.99,2.61,17.95,1.24l-.06-2.38c-11.9,9.26-23.8,18.52-35.71,27.77l.21,1.8c.05-1.1,.09-2.2,.13-3.31,0-.09-.08-.89-.14-.48-.11,.78-.22,1.56-.33,2.33-.03,.22,.14,2.08,.18,2.05,11.9-9.27,23.8-18.53,35.71-27.79,.29-.22,0-2.4-.06-2.38-10.02,2.31-20.9-.64-28.35-7.73-.03-.06-.06-.05-.09,0-3.94,6.93-8.5,13.52-13.62,19.62-2.57,3.06-5.28,6-8.13,8.81s-5.89,5.76-9.15,8.2c-1.71,1.28-3.49,2.51-5.44,3.39-.51,.23-1.03,.42-1.57,.57-.36,.1-1.65,.55-.61-.17,.74-.51,1.8-.55,2.49,.07,0,0,.02-.09,0-.1h0Z"/><path class="cls-5" d="M930.96,445.68c-.59,1.85-2.92,2.34-4.45,1.37l.02,.65c5.05-.1,10.11-.78,15.15-1.11s9.81-.55,14.72-.56,9.77,.2,14.62,.71c2.5,.26,5,.58,7.46,1.11,1.24,.27,2.47,.57,3.7,.89,.58,.15,1.3,.25,1.84,.51,.65,.31,1.17,.81,1.85,1.09l.07-.08c3.41-5.16,6.73-10.24,10.87-14.87,2.05-2.29,4.2-4.43,6.61-6.34s4.98-3.56,7.53-5.27c.54-.36,.31-2.28,.3-2.83-.02-.61,.15-2.39-.43-2.81-2.72-1.94-5.85,.61-8.62,1.24-3.62,.82-7.17,.22-10.74-.52-3.16-.66-6.32-1.33-9.56-1-2.89,.3-5.64,2.15-7.34,4.47-.08,.11,.07,.45,.01,.51,2-2.14,4.62-2.39,7.39-2.65,3.25-.31,6.41,.38,9.56,1.07,3.59,.78,7.08,1.38,10.74,.81,2.94-.46,6.25-.15,8.69,1.72l-.14-5.65c-4.89,3.03-9.25,7.18-13.29,11.25s-7.68,8.79-10.48,13.86c-.35,.64-.58,1.4-.98,2.01-.26,.4-.28,.55-.76,.71-.34,.11-1,.2-1.36,.2-.73-.01-1.58-.3-2.3-.42-.92-.16-1.84-.3-2.77-.43-3.25-.45-6.51-.89-9.79-1.13-6.6-.48-13.25-.29-19.85,.18-3.8,.27-7.6,.67-11.39,1.11s-7.6,.81-11.33,1.57c-.07,.01-.06,.61,.02,.65,1.79,.89,3.72-.18,4.44-1.92,.01-.03-.01-.08,0-.1h0Z"/><path class="cls-5" d="M937.42,444.17c17.26-7.62,34.01-17.18,48.89-28.82,.05-.04-.02-.22,0-.24-7.69,5.57-15.46,10.95-23.64,15.79s-16.62,9.26-25.25,13.23c0,0,0,.04,0,.04h0Z"/><path class="cls-5" d="M947.27,443.96c13.94-7.29,27.56-15.21,40.65-23.92,.04-.03-.02-.19,0-.2-13.27,8.5-26.78,16.6-40.65,24.08,0,0,0,.04,0,.04h0Z"/><path class="cls-5" d="M959.47,445.37c2.65-2.12,5.7-3.87,8.53-5.74s5.71-3.76,8.56-5.64c5.74-3.77,11.47-7.55,17.24-11.28,.02-.02,0-.11,0-.12-5.77,3.68-11.53,7.38-17.24,11.16-2.8,1.85-5.58,3.73-8.36,5.62s-5.7,4.2-8.73,5.9c-.02,.01,0,.09,0,.1h0Z"/><path class="cls-5" d="M934.11,372.53c-.22-.09-.41,.17-.27,.36,.39,.51,3.56-1.92,3.95-2.19,3.38-2.28,6.59-4.77,9.66-7.45,6.01-5.25,11.45-11.14,16.19-17.56,.03-.04-.02-.18-.01-.19-4.18,5.53-8.84,10.71-13.94,15.4-2.48,2.28-5.08,4.42-7.74,6.5-1.37,1.07-2.75,2.12-4.17,3.13-.65,.46-1.3,.92-1.96,1.37-.36,.24-.71,.51-1.08,.73-.13,.1-.28,.18-.42,.26-.28,.16-.36,.07-.22-.25,0,0,.02-.09,0-.1h0Z"/><path class="cls-5" d="M928.9,371.23c10.76-7.41,20.63-16.09,29.21-25.95,.04-.04-.02-.22-.01-.23-8.79,9.71-18.54,18.53-29.2,26.14,0,0,0,.04,0,.04h0Z"/><path class="cls-5" d="M921.49,372.21c2.58-2.76,5.55-5.22,8.25-7.88s5.36-5.46,7.97-8.25c5.24-5.62,10.25-11.43,15.07-17.41,.03-.04-.02-.18-.01-.19-4.8,5.84-9.78,11.53-14.93,17.07-2.56,2.75-5.17,5.44-7.8,8.12-2.78,2.82-5.48,5.95-8.57,8.45-.02,.02,0,.1,0,.1h0Z"/></g></g></g></g></svg>