<?xml version="1.0" encoding="UTF-8"?><svg id="Layer_1" xmlns="http://www.w3.org/2000/svg" viewBox="0 0 1500 750"><defs><style>.cls-1{fill:#dfd8e2;}.cls-2{fill:#b9aebb;}.cls-3{fill:#231f20;}</style></defs><g><path class="cls-2" d="M795.37,460.09s90.36-36.21,107.95-54.39l47.85,24.26s-7.43-33.4,4.52-54.87c11.95-21.47-2.99,0-2.99,0l-11.05-3.54,15.98-9.76s29.51,4.55,36.18,4.58,10.91,.02,7.87-7.65,2.3-24.8,6.98-26.52h-10.61l34.67-19.38s55.54,62.42,82.27,59.92c26.73-2.5-4.52-28.39-4.52-28.39l-15.77-35.66,69.51-121.18,11.7,1.73,24.1-41.89s-35.23,13.57-43.2,19.42c-7.97,5.84-114.92,72.53-130.48,115.43l-28.63-1.87s-22.15-10-33.46-21.17c-11.31-11.16-6.6,16.66-39.92,19.54-33.32,2.89-91.94,.4-91.94,.4l-171.31,6.47s-177.1,30.4-208.62,42.64c-31.52,12.24-196.16,66.87-141.34,87.08,54.82,20.22,45.99,18.85,81.11,23.93,35.12,5.08,60.58,8.53,60.58,8.53,0,0-8.2,8.14,16.14,13.39,24.33,5.25,137.2,11.21,208.52,4.62,71.32-6.59,117.94-5.69,117.94-5.69Z"/><path class="cls-2" d="M666.14,447.76s83.18,116.74,107.26,129.19c24.09,12.45,71.73,32.34,70.51,20.93s-54.69-91.17-55.6-96.58,6.96-15.65,7.06-30.48,5.41-5.56-42.04-25.88c-47.45-20.31-87.19,2.82-87.19,2.82Z"/><path class="cls-2" d="M693.32,298.11c-.22-.22,78.27-115.18,85.11-125.96s7.21-13.57,12.28,20.22c5.08,33.79,13.73,78.31,56.61,93.21,42.87,14.9-154,12.53-154,12.53Z"/><path class="cls-2" d="M571.2,477.45c.55,2.08,1.51,3.93,3,5.5,.8,.84,1.88-.74,2.22-1.34,1.71-3.03,2.25-6.68,.82-9.92-.28-.63-1.13-.05-1.42,.2-.7,.6-1.14,1.45-1.43,2.31-1.03,3.15,2.02,5.58,4.92,4.1,1.58-.81,2.78-2.18,3.81-3.59,.74-1.01,1.21-2.15,2.41-2.38l.57-3.99c-2.46,2.87-6.11,6.55-10.34,4.28-.87-.47-2.03,.65-2.51,1.24-.72,.87-1.69,2.27-1.52,3.47,.68,4.63,5.83,5.92,9.67,4.29,2.38-1.01,4.4-2.65,6.29-4.39,1.59-1.47,3.07-3.07,4.96-3.88l1.13-5.15c-3.69,2.89-7.01,6.3-9.78,10.08-.69,.95-1.32,1.95-2.02,2.89-.06,.08-.61,.75-.27,.36,.41-.46-.36,.35,.01,0,.34-.32-.34,.2-.05,.04s-.44,.12-.09,.04c-.43,.09-1.05,.07-1.57-.18-.3-.15-.62-.38-.88-.6-.18-.15-.37-.42-.37-.41-.16-1.25-1.22-1.02-2.05-.45-1.12,.75-2.3,2.21-2.51,3.58-.35,2.27,.67,4.16,3.15,4.27,2.9,.13,5.35-2.29,6.99-4.42,.45-.59,.86-1.22,1.27-1.83,.04-.06,.62-.92,.18-.28,.17-.25,.35-.51,.53-.76,.39-.55,.8-1.09,1.21-1.62,.19-.24,.38-.48,.58-.72,.12-.15,.54-.64,.21-.25,1.86-2.13,3.37-3.56,5.52-5.26,1.06-.84,2.05-2.25,2.32-3.6,.15-.76-.11-2.03-1.2-1.55-2.2,.96-4.1,2.32-5.87,3.93-1.49,1.36-2.97,2.93-4.62,3.96-1.53,.95-3.25,1.44-5.03,1.01-1.41-.34-3.07-1.46-3.32-3l-4.03,4.71c6.09,3.14,11.81-2.83,15.33-7.06,.62-.74,2.41-4.41,.14-3.9-2.85,.64-4.49,3.35-6.11,5.51-.49,.65-1.11,1.4-2.17,1.4-.48,0-.94-.18-1.33-.44-.2-.13-.37-.27-.51-.46-.2-.3-.1-.54-.21-.15l-2.84,2.51c.8,1.57,1.16,3.54,.23,5.13l2.22-1.34c-1.3-1.44-2.26-3.13-2.72-5.02-.25-1.03-1.21-.44-1.7,.08-.63,.68-1.49,2.11-1.23,3.11h0Z"/><path class="cls-2" d="M567.27,477.55c.17,.72,.36,1.5,.72,2.15s.79,1.24,1.24,1.81c.85,1.08,1.88,2.08,3.07,2.78s2.55,1.24,3.92,1.56c.79,.18,1.47,.26,2.28,.16,.84-.11,1.64-.3,2.44-.59,.91-.33,1.62-1.13,2.05-1.97,.25-.47,.69-1.57-.12-1.75-.59-.13-1.18-.27-1.75-.45s-1.18-.24-1.79-.36c-1.27-.27-2.45-.75-3.57-1.4-2.24-1.31-4.1-3.03-5.51-5.23-.5-.78-1.54,.13-1.94,.59-.62,.71-1.27,1.72-1.04,2.7h0Z"/><path class="cls-2" d="M572.89,475.91c2.53,1.39,5.36,2.24,8.25,2.34,3.18,.12,6.08-.65,8.94-1.99,1.22-.57,2.22-2.12,2.62-3.35,.23-.7,.28-2.24-.96-1.75-4.87,1.93-10.69,2.05-15.57,.09-1.03-.41-2.14,.86-2.65,1.62-.33,.49-1.57,2.52-.63,3.04h0Z"/><path class="cls-1" d="M304.08,406.73c1.06,.95,2.1,2.01,3.29,2.8,1.3,.87,2.67,1.66,4.02,2.45,2.56,1.51,5.17,2.96,7.85,4.27,5.4,2.64,11.12,4.76,16.85,6.57,12.12,3.83,24.7,6,37.27,7.73,25.62,3.53,51.34,6.32,77.01,9.37,7.31,.87,14.61,1.72,21.92,2.57,4.21,.49,8.43,.98,12.64,1.48,1.79,.21,3.58,.42,5.37,.63,2.25,.27,4.44,.77,6.75,.9s4.94-.6,6.88-1.77c.76-.46,3.29-2.15,1.83-3.19-.98-.69-1.95-1.38-2.92-2.08-1.78-1.26-5.12-.22-6.89,.57-1.04,.46-4.39,2.04-2.93,3.56,.77,.8,1.54,1.61,2.31,2.41l9.71-4.8c-3.48-.64-7.1-.75-10.62-1.15s-6.74-.77-10.1-1.16c-6.79-.79-13.57-1.57-20.36-2.35-13.35-1.54-26.7-3.13-40.06-4.63-13.37-1.5-26.74-2.9-40.11-4.4s-25.72-3.18-38.27-6.39c-6.83-1.75-13.53-3.96-20.04-6.66-3.15-1.31-6.3-2.62-9.39-4.07-1.54-.72-3.08-1.47-4.59-2.25-1.71-.88-3.53-1.51-5.31-2.25-.55-.23-2.6,1.36-2.1,1.81h0Z"/><path class="cls-1" d="M331.47,421.23c8.59,5.96,19.16,9.17,29.22,11.64,10.57,2.6,21.35,4.2,32.19,5.2,11.2,1.03,22.43,1.46,33.67,1.79,12.09,.36,24.19,.65,36.29,.86,14.24,.25,28.49,.37,42.73,.31,2.57,0,6.25-.86,8.03-2.86s-1.55-2.52-2.92-2.52c-24.83,.05-49.66-.04-74.49-.56-22.05-.46-44.26-.94-65.96-5.25-6.07-1.21-12.07-2.78-17.93-4.73s-11.61-4.26-17.4-6.44c-.96-.36-4.53,1.78-3.41,2.55h0Z"/><path class="cls-1" d="M356.64,419.98c2.04,1.63,4.59,2.53,7.07,3.26s5.17,1.33,7.8,1.76c5.46,.91,11,1.12,16.53,1.12,11.71,.01,23.44-.53,35.14-.89,3.34-.1,6.68-.2,10.01-.3,3.98-.12,8.25,.18,12.03-1.22,.51-.19,3.9-1.59,3.22-2.64-.82-1.25-2.65-.87-3.94-.84-1.5,.04-3,.1-4.5,.15-3.09,.11-6.18,.22-9.26,.33-6.01,.21-12.02,.43-18.03,.64-11.17,.41-22.4,1.15-33.55,.04-3-.3-5.99-.74-8.93-1.42-3.24-.75-6.39-1.84-9.61-2.65-.87-.22-1.91,.38-2.6,.84-.24,.16-1.89,1.39-1.37,1.8h0Z"/><path class="cls-1" d="M447.09,424.14c-.51,.57-1.15,.98-1.52,1.67-.25,.46-.45,.94-.63,1.43-.36,.96-.7,1.81-.8,2.84-.19,1.87-.17,3.78,.13,5.64,.27,1.65,.87,3.01,1.93,4.31,.6,.74,1.46,1.12,2.38,1.34,2.1,.5,4.44,.26,6.47-.42,1.2-.4,2.61-.91,3.6-1.73,.57-.48,1.26-1.04,1.14-1.88-.09-.6-.77-.75-1.22-.94l.72,.32c-.47-.25-.75-.63-1.14-.98-.51-.46-1-.86-1.43-1.4l.4,.52c-1.29-1.73-2.1-3.87-2.59-5.96-.25-1.08-.25-2.23-.59-3.28-.16-.48-.22-.98-.29-1.48-.03-.21-.02-.53-.11-.72-.19-.38-.6-.38-.82-.69-.47-.7-1.85-.39-2.5-.22-1.11,.3-2.35,.77-3.13,1.65h0Z"/><path class="cls-1" d="M443.37,431.22c2.35,1.48,5.61,.37,7.87-.75,1.68-.83,4.64-2.88,3.32-5.16-1.56-2.7-6.47-1.04-8.55-.17s-5.42,2.75-4.73,5.52l10.07-3.33c-.57-1.45-1.18-2.87-1.57-4.37-.19-.72-1.54-.86-2.06-.87-1.12-.02-2.23,.19-3.3,.49-1.16,.32-2.36,.75-3.39,1.38-.74,.46-1.87,1.1-2.11,2.01-.27,1.05-.58,2.1-.78,3.16l8.26-4.19c-1.79,.14-3.59,.27-5.39,.38,.91-.05-.15,0-.37,.02-.41,.02-.81,.04-1.22,.06-.98,.04-1.95,.08-2.93,.12-3.59,.12-7.17,.13-10.76,.18-7.22,.09-14.46-.07-21.67-.4-14.26-.65-29.03-2.22-43.46-3.86-4.02-.46-8.03-.96-12.05-1.45-2.01-.25-4.01-.5-6.02-.75-1-.12-2.01-.25-3.01-.38-.5-.06-1-.12-1.5-.19s-.55-.29-.54,.1l-.71,1.15,.09-.1-3.67,2.3,.17-.06-1.91,.5-1.02-.24,.17-.94-.06,.11c-.75,1.39,.88,1.43,1.83,1.25,1.81-.34,3.51-1.31,4.84-2.57,1.58-1.49,.44-2.59-1.37-2.38s-3.65,1.14-5.06,2.28c-.79,.64-1.95,1.8-1.33,2.93,.74,1.35,3.44,1.22,4.73,1.41,2.08,.3,4.16,.61,6.24,.91,7.85,1.13,15.71,2.22,23.59,3.18,16.12,1.97,32.34,3.4,48.59,3.57,9.7,.1,19.42-.45,29.07-1.45,2.06-.21,4.2-.94,5.97-2,1.1-.66,2.3-1.44,2.31-2.83,0-.95-.09-1.91-.16-2.86l-10.88,3.61c.91,1.3,1.63,2.7,2.38,4.09,.89,1.64,4.33,.62,5.64,.16,1.19-.41,2.4-.91,3.38-1.71,.46-.37,1.31-1.09,1.05-1.78-.11-.27-.12-.43-.14-.48,.02-.11,.05-.22,.1-.32-.15,.23-.17,.27-.07,.11-1.02,.45-2.23,1.65-4.31,1.71h-1.07c-.18-.13-.14-.11,.11,.04,.16,.32,.49,.39,.47,.87,0,.24-.17,.42-.23,.64-.03,.12-.06,.23-.11,.34,.13-.19,.12-.2-.02-.02l1.09-.86,2.76-.77,1.04,.25c-.19-.08-.43-.16-.55-.34-.86-1.28-3.49-.35-4.55,.06-.34,.13-3.87,1.78-2.48,2.66h0Z"/><path class="cls-1" d="M437.35,428.23c.79-.34,3.1-1.66,1.74-2.72s-4.31,.69-5.14,1.76c-1.1,1.41-.28,2.99,.19,4.48,.61,1.95,1.23,3.9,1.84,5.85l6.47-2.84c-1.66-3.18-3.57-6.24-5.36-9.35-.65-1.13-3.1-.12-3.93,.24-.91,.4-3.12,1.41-2.85,2.72,1.01,4.92,3.41,9.25,6.91,12.84,.72,.74,3.2-.22,3.89-.52,.79-.36,3.09-1.36,3.05-2.46-.11-3.46-1.31-6.35-3.68-8.87-.36-.38-1.7-.15-2.06-.09-.85,.16-1.67,.48-2.44,.85-.53,.26-3.37,1.78-2.66,2.72,2.52,3.34,6.56,5.62,10.82,5.47,2.86-.1,6.73-1.5,8.32-4.03,1.05-1.66,.34-3.62-1.24-4.66-2.25-1.48-5.59-.64-7.94,.1-2.57,.81-5.91,2.05-7.36,4.51-1.25,2.1,.62,3.39,2.51,3.78,2.45,.5,4.97,.8,7.44,1.19l3.57-3.98c-2.89,.74-5.78,1.49-8.67,2.24-1.36,.35-3.07,1.14-3.99,2.23-.58,.7-.8,1.54,.35,1.77,20.57,4.03,41.72,5.02,62.56,2.69,6.07-.68,12.08-1.72,18.05-3.03l-.91-2.73c-.73,.31-.62,.27-1.11,.45s-1.01,.34-1.52,.5c-.78,.23-1.86,.5-2.98,.74-2.16,.46-4.3,.76-6.55,1.02-4.75,.55-9.53,.91-14.31,1.09-9.85,.37-19.76,.09-29.56-1.03-5.6-.64-11.16-1.53-16.68-2.62l-5.23,3.74c19.37,1.09,39.07,3.35,58.36,.14,5.8-.97,11.52-2.32,17.08-4.26,.9-.31,3.87-1.35,3.48-2.75s-3.77-.36-4.44-.13c-3.93,1.32-8.14,2.35-12.12,2.98-4.38,.69-8.86,1.13-13.25,1.36-9.33,.49-18.68,0-28-.39-5.52-.24-11.05-.46-16.57-.75-1.63-.09-3.62,.67-4.91,1.63-.65,.49-1.88,1.81-.32,2.11,20.69,4.02,42.08,4.93,63.03,2.51,5.97-.69,11.91-1.78,17.55-3.89,.93-.35,3.15-1.07,3.41-2.29,.25-1.15-1.64-1.12-2.32-1-19.67,3.34-39.61,4.44-59.48,2.27-5.69-.62-11.35-1.51-16.96-2.64l-3.63,4c2.9-.75,5.81-1.51,8.71-2.27,1.34-.35,3.03-1.15,3.93-2.24,.55-.66,.81-1.57-.36-1.75-1.52-.23-3.05-.46-4.57-.69-1.09-.17-2.45-.17-3.48-.58-.17-.07-.39-.16-.51-.3-.1-.12-.18-.61-.2-.63,.11,.08-1.2,.53-1.37,.76,.18-.25,1.01-.36,1.25-.34,.4,.02,.77,.22,1.09,.45,.8,.59,.9,1.27,.93,2.16,.04,1.51,2.27-2.04,3.46-1.67,.05,.01-.48-.04-.3,0-.62-.11-1.23-.2-1.83-.38-2.24-.7-4.31-2.19-5.77-4.01l-7.16,3.49c2.04,2.06,3.16,4.9,3.33,7.76l6.91-3.39c-3.37-3.28-5.68-7.54-6.75-12.11l-6.79,2.96c1.88,3.07,3.66,6.24,5.67,9.24,1.05,1.57,7.21-1.17,6.47-2.84l-2.07-4.7-.99-2.24c-.04-.1-.78-1.46-.7-1.59l-1.3,1.07,.16-.1-2.47,.82h.21l-.79-.12s.41,.12,.4,.17l1.3-1.26-.14,.09c-.43,.27-1.6,.93-1.18,1.57,.39,.61,2.06-.09,2.46-.26h0Z"/><path class="cls-1" d="M479.97,422.52c-.47-.43-.94-.87-1.4-1.3-.59-.54-2.23-.01-2.83,.2-.82,.29-1.96,.77-2.32,1.63-.56,1.33-.43,2.74-.75,4.16-.3,1.33-.61,2.65-1.11,3.92-1.01,2.55-2.62,4.7-4.71,6.45-.77,.65-1.31,1.69,0,2.04,1.49,.4,3.49-.23,4.81-.88,5.9-2.91,10.75-7.97,11.87-14.64l-8.89,2.47c.96,1.82,1.64,3.75,1.97,5.79,.35,2.16-.02,4.02-.45,6.14l10.21-2.76c-.26-1.24-.1-2.33,.33-3.51,.18-.5,.35-.85,.59-1.16,.1-.14,.21-.27,.33-.4,.18-.19,.15-.17-.09,.06l.26-.22c-.5,.31-.54,.34-.1,.09l-8.09,1.3c1.62,.73,2.51,1.96,2.7,3.73l10.45-3.29c-.67-3.36-1.76-6.52-3.7-9.37l-7.97,4.43c21.09-1.08,42.14-3.15,63.16-5.17,21.21-2.04,42.39-4.36,63.55-6.82,11.29-1.31,22.59-2.66,33.85-4.24l-5.35-3.5c-1.97,.94-4.01,1.81-6.06,2.56-.48,.17-.96,.34-1.44,.5-.99,.34-.02,.02,.15-.04-.27,.1-.57,.17-.84,.25-1.12,.32-2.26,.61-3.4,.86-.5,.11-1,.22-1.5,.32-1.62,.33,.88-.15-.28,.06-1.23,.22-2.46,.43-3.7,.61-2.29,.35-4.58,.64-6.87,.94-10.09,1.31-20.2,2.58-30.3,3.8-10.11,1.22-20.22,2.4-30.34,3.53-5.09,.57-10.17,1.14-15.26,1.67-1.14,.12-2.29,.23-3.43,.35-.65,.06-1.31,.12-1.96,.19,0,0,1.45-.14,.64-.06-.41,.04-.82,.08-1.23,.11-2.54,.23-5.08,.45-7.62,.64-1.41,.11-2.82,.21-4.24,.3-.75,.05-1.5,.1-2.25,.16-.25,.02-.5,.04-.75,.05-1.74,.12,1.62-.07-.13,.01-2.94,.14-5.88,.2-8.82,.16s-5.61-.07-8.41-.16c-.74-.02-1.48-.05-2.22-.09-.33-.01-.66-.03-.98-.05-.23-.01-1.4-.09-.25-.01-1.48-.1-2.95-.2-4.43-.33l-5.86,5.44c5.52-.45,11.05-.9,16.57-1.36,1.7-.14,3.69-.72,5.24-1.43,.82-.38,2.45-1.17,2.84-2.15,.97-2.48-4.59-1.96-5.47-1.89-5.5,.47-11,.94-16.5,1.42-2.37,.2-5.77,.98-7.55,2.75-.33,.33-.79,.89-.68,1.41,.19,.88,1.72,1.22,2.38,1.27,23.47,1.87,47.08-.99,70.4-3.58,20.81-2.31,41.6-4.81,62.37-7.5,5.7-.74,11.41-1.47,17.04-2.69,2.9-.63,5.76-1.44,8.55-2.42,1.16-.41,2.31-.86,3.43-1.37,1.52-.69,3.76-1.6,4.56-3.17,1.39-2.73-6.25-2.31-7.05-2.21-10.14,1.18-20.27,2.43-30.41,3.62-1.15,.14-2.31,.27-3.46,.4-.33,.04-.66,.08-.99,.11-.98,.11,1.33-.15,.35-.04-.66,.07-1.32,.15-1.98,.22-2.56,.29-5.11,.57-7.67,.85-5.03,.55-10.07,1.1-15.1,1.62-20.35,2.14-40.71,4.07-61.1,5.74-11.52,.95-23.05,1.88-34.57,2.96-1.55,.15-9.83,2.27-7.6,4.92,2.08,2.47,3.62,5.5,4.21,8.68,.13,.71,1.5,.85,1.96,.88,1.24,.08,2.71-.21,3.87-.6,1.41-.47,4.81-1.59,4.62-3.58-.16-1.63-1.07-3.19-2.4-4.16-3.16-2.3-7.96-.22-10.74,1.86s-4.57,5.52-3.47,9.03c.5,1.59,4.1,.67,5.04,.42,1.09-.29,2.22-.69,3.19-1.28,.63-.39,1.89-1.07,1.98-1.89,.25-2.16-.08-4.42-.48-6.55s-1.21-4.24-2.32-6.15c-.77-1.32-3.3-.64-4.4-.34-.96,.27-1.92,.63-2.77,1.14-.56,.34-1.63,.96-1.72,1.67-.3,2.36-1.05,4.71-2.39,6.69-1.42,2.1-2.78,3.29-4.67,4.29l5.72,.67c2.44-2.07,4.33-4.81,5.4-7.83,.49-1.39,.88-2.91,.88-4.38,0-.74,0-1.47-.07-2.2-.03-.35-.03-.77-.14-1.1-.14-.42-.48-.67-.79-.99l-3.53,2.5c1.33-.18,2.66-.36,3.99-.53,.17-.02,1.27-.37,.95-.67h0Z"/><path class="cls-1" d="M479.98,431.19c-1.6-.09-5.9,.26-5.93,2.59-.03,1.84,1.77,2.71,3.25,3.12,2.33,.65,4.64,1.14,7.04,1.41s4.73,.47,7.1,.61c10.06,.59,20.16,.09,30.18-.88s20.52-2.4,30.77-3.67c9.81-1.21,19.65-2.23,29.51-3.04,11.02-.91,22.07-1.74,33.11-2.27,2.07-.1,4.09-.37,6.04-1.1,1.04-.39,2.34-.85,2.55-2.09,.03-.22,.07-.44,.13-.66l-.18,.63c.3-1,.79-1.84,1.49-2.61-.31,.34,.47-.34,.65-.47,.7-.5-.5,.23,0,0,.44-.17,.2-.11-.71,.18-1.15,.38-2.34,.53-3.57,.45l-.32-4.33c-15.92,2.66-31.84,5.32-47.8,7.72-4.07,.61-8.14,1.21-12.22,1.78-1.79,.25-3.59,.5-5.38,.74-.98,.13-1.96,.26-2.94,.39-1.72,.23,1.62-.21-.1,.01-.65,.08-1.31,.17-1.96,.25-8,1.03-16.01,1.95-24.03,2.75-9.07,.9-18.18,1.79-27.29,2l.66,4.39c2.42-.6,4.92-.95,7.38-1.35,.78-.12,.64-.1-.41,.06,.32-.05,.64-.1,.97-.14,.64-.09,1.29-.18,1.93-.27,1.13-.15,2.26-.29,3.39-.41,2.42-.27,4.86-.49,7.29-.66,.49-.03,.97-.08,1.46-.09-1.8,.04,.4-.02,.74-.03,1.3-.06,2.6-.1,3.9-.14,1.81-.05,3.64-.31,5.37-.83,1.25-.37,2.93-.96,3.92-1.88,2.28-2.12-1.75-2.62-3.11-2.66-6.55-.16-13.11-.3-19.66-.45l-4.92-.11c-.82-.02-1.64-.04-2.46-.06-.28,0-.55-.02-.83-.02-1.19-.02,.97,.09,.26,.02-.58-.06-1.16-.14-1.74-.2s.82,.25,0,0c-.27-.08-.54-.16-.8-.25-.22-.07-.68-.3-.24-.06-.23-.13-.46-.28-.67-.44-.48-.36-.86-.79-1.2-1.28l.37,.56-.17-.29-10.01,4.04c17.89-1,35.77-2.1,53.64-3.38,17.29-1.24,34.57-2.58,51.84-4.12,11.06-.99,22.12-2.08,33.18-3.12l-5.63-3.94c-2.93,.84-5.88,1.6-8.85,2.27-.78,.18-1.57,.34-2.35,.51-.63,.13-1.8,.14-2.36,.47,.32-.19,1.11-.2,.25-.05-.39,.07-.79,.14-1.18,.21-.79,.14-1.58,.27-2.37,.39-1.5,.24-3.01,.45-4.52,.64-.72,.09-1.43,.18-2.15,.26-.4,.04-.8,.09-1.2,.13-.25,.03-1.66,.15-.5,.06s-.39,.03-.5,.04c-.32,.03-.64,.05-.96,.08-.8,.06-1.6,.12-2.4,.17-1.6,.1-3.2,.17-4.8,.23s-3.45,.32-4.94,.92c-.57,.23-2.03,.84-1.98,1.73,.11,2.21,6.04,1.99,7.15,1.95,13.83-.45,27.66-2.56,40.97-6.37,1.14-.33,4.73-1.4,2.74-3.01s-6.04-1.14-8.37-.92c-.99,.09-1.98,.18-2.97,.28,.02,0,1.46-.13,.61-.06-.26,.02-.52,.05-.79,.07-.75,.07-1.51,.13-2.26,.18-2.08,.15-4.15,.36-6.23,.54-4.23,.36-8.47,.72-12.7,1.06-8.45,.69-16.91,1.39-25.36,2.06-16.96,1.34-33.93,2.55-50.91,3.67-4.72,.31-9.44,.61-14.16,.9-2.32,.14-4.64,.28-6.96,.42-1.24,.07-2.49,.15-3.73,.22-.58,.03-1.16,.07-1.74,.1-.25,.01-.5,.03-.75,.04-.28,.02-.33,.02-.15,0,.27-.02,.14,0-.39,.02-2.39,.14-4.75,.46-6.98,1.39-.47,.19-3.67,1.56-3.03,2.65,1.64,2.8,4.51,3.74,7.58,4.22,3.43,.54,7.02,.38,10.48,.47,7.21,.17,14.42,.36,21.63,.52l6.19-5.36c-12.58,.35-24.89,2.08-37.21,4.58-1.04,.21-5.05,1.24-4.78,2.97s4.38,1.51,5.45,1.42c9.35-.81,18.71-1.31,28.05-2.2,8.1-.77,16.19-1.68,24.26-2.69,16.62-2.09,33.18-4.57,49.72-7.23,8.93-1.44,17.86-2.92,26.79-4.41,1.24-.21,2.47-.51,3.59-1.08,.52-.26,1.46-.74,1.41-1.47-.04-.5-.66-.87-1.04-1.06-1.19-.59-2.99-.72-4.28-.72-5.89,0-14.23,1.63-15.19,8.69l8.59-3.19c-9.79,.31-19.56,.72-29.32,1.52-9.13,.75-18.24,1.67-27.33,2.76s-18.26,2.42-27.4,3.58c-1.06,.13-2.12,.27-3.19,.39-.57,.07-1.14,.13-1.72,.2-.64,.08,.14-.01,.22-.02-.33,.04-.66,.07-.98,.11-2.29,.25-4.59,.49-6.89,.69-4.59,.41-9.2,.72-13.81,.89s-9.92,.11-14.99-.22c-2.79-.18-5.57-.36-8.37-.53-.9-.05-2.22,.02-2.78-.28-.31-.16-.67-.44-.88-.72-.03-.04-.11-.17-.15-.2-.34-.33,.26-.43-.24-.03l-1.77,.93-1.26,.29c1.02-.11,2.63-.45,3.37-1.27,.61-.67,0-1.13-.77-1.18h0Z"/><path class="cls-1" d="M463.32,451.23l-.08-.97c.08-.66-1.84-.58-2.04-.56-1.03,.07-2.33,.32-3.19,.95-1.32,.97-2.52,1.82-1.88,3.59,.43,1.19,1.09,2.11,2.12,2.85,2.33,1.67,5.39,2.58,8.12,3.35,7.07,2.01,14.92,2.9,22.13,1.21,1.48-.35,3.92-.97,4.77-2.37,.74-1.21-.46-1.84-1.64-1.95-2.92-.26-5.84-.05-8.76-.18,.52,.02,.29,.02-.09-.01s-.79-.05-1.19-.08c-.71-.06-1.42-.13-2.13-.21-1.41-.17-2.82-.4-4.21-.67-2.34-.45-4.96-1.2-7.27-2.13-.98-.4-1.98-.98-2.79-1.66-.4-.34-.53-.68-.77-1.12-.34-.63-.8-.86-1.37-1.25l-1.78,1.77c-.42,.07-.13,.09,.89,.06,.22,.02,1.7-.33,1.13-.61h0Z"/><path class="cls-1" d="M464.2,451.77c-1.02-.52-2.04-1.05-3.06-1.57-1.34-.69-3.14-.28-4.5,.21-.36,.13-3.2,1.45-2.05,2.12,1.87,1.1,3.95,2.26,6,2.96s4.36,1.28,6.57,1.72c2.82,.56,4.3,.83,7.2,1.04,2.62,.19,5.24,.26,7.86,.31,.29,0,.59,0,.88,.02-1.31-.02,.82,.02,.87,.02,.59,0,1.19,0,1.78,0,1.31,0,2.63-.01,3.94-.02,2.72-.02,5.44-.04,8.17-.08,5.35-.08,10.7-.19,16.05-.33,22.38-.57,44.73-1.83,67.09-3,12.16-.64,24.31-1.49,36.46-2.36,1.8-.13,3.6-.33,5.32-.92,.84-.29,2.54-.9,3.01-1.82,1.18-2.28-4.38-2.32-5.21-2.29-9.14,.35-18.3,.58-27.45,.65-.99,0-1.98,.02-2.98,.02,1.99,0,.26,0-.12,0-.5,0-.99,0-1.49,0-1.98,0-3.97,0-5.95,0-3.8-.02-7.61-.05-11.41-.1-15.55-.22-31.07-.83-46.6-1.64-4.29-.22-8.58-.47-12.87-.75-1.15-.07-2.31-.15-3.46-.23,.76,.05-.86-.06-.79-.05-.38-.03-3.35-.12-1.48-.1-2.3-.02-4.64-.37-6.93-.57l-5.09,4.55c3.32-.04,6.64-.1,9.96-.17,2.11-.05,4.23-.1,6.34-.17-2.07,.07,.65-.01,1.13-.02,.83-.02,1.66-.04,2.49-.07,8.18-.22,16.36-.52,24.53-.88,13.36-.59,26.71-1.41,40.05-2.41,7.46-.56,14.91-1.18,22.35-1.85,1.52-.14,3.46-.51,4.85-1.21,.63-.32,1.65-.75,1.77-1.53,.3-2.04-4.19-2-5.26-1.98-22.78,.4-45.54,1.61-68.24,3.51-6.26,.52-12.51,1.11-18.76,1.74-1.52,.15-3.46,.55-4.84,1.26-.62,.32-1.65,.75-1.76,1.52-.28,2.01,4.25,1.87,5.29,1.84,23.97-.79,47.93-2.23,71.81-4.46,6.66-.62,13.31-1.3,19.96-2.04,1.42-.16,2.83-.49,4.16-1,.74-.29,1.94-.72,2.35-1.47,.94-1.73-2.63-2.1-3.51-2.14-22.36-1.12-44.76-.5-67.11,.55-6.22,.29-12.43,.61-18.65,.94l-1.33,4.48c19.85-2.19,39.7-4.39,59.55-6.58,5.62-.62,11.25-1.25,16.87-1.89,1.55-.18,3.43-.53,4.86-1.22,.59-.29,1.66-.69,1.77-1.43,.28-1.92-4.35-1.68-5.28-1.66-21.13,.43-42.21,2.09-63.13,5.14l.51,4.13c16.3-2.51,32.66-4.57,49.08-6.14,2.29-.22,4.57-.43,6.86-.63,1.14-.1,2.29-.2,3.43-.29,.25-.02,.49-.04,.74-.06,.93-.08,.02,0-.39,.03,.65-.05,1.31-.1,1.96-.16,1.81-.14,3.61-.33,5.35-.88,.8-.26,2.56-.82,3.05-1.68,1.2-2.12-4.53-2.1-5.2-2.05-21.08,1.61-42.18,2.88-63.31,3.6l-1.35,4.3c17.6-1.85,35.11-4.37,52.51-7.63,1.11-.21,4.58-.92,4.79-2.37s-2.67-1.66-3.59-1.69c-20.6-.8-41.23-.07-61.73,2.17-1.54,.17-3.45,.54-4.86,1.24-.6,.3-1.66,.72-1.77,1.47-.28,1.95,4.33,1.8,5.3,1.74,17.64-1.12,35.28-2.23,52.91-3.35l1.27-4.54c-7.95,.91-15.88,1.91-23.83,2.83-3.97,.46-7.95,.92-11.92,1.38-1.9,.22-3.81,.42-5.72,.63l-2.98,.33c-.22,.02-1.97,.21-.81,.09,1.68-.18-1.94,.21-2.42,.26-1.56,.18-3.42,.66-4.83,1.37-.51,.26-1.94,.99-1.81,1.84s1.66,1.15,2.27,1.24c1.68,.25,3.35,.1,5.02-.09,7.94-.92,15.87-1.91,23.8-2.83l5.95-.69,2.98-.34c.44-.05,1.06-.25,1.49-.17l-.87,.08c.79-.07,1.58-.15,2.36-.24,3.97-.42,7.95-.86,11.91-1.32,1.53-.18,3.46-.59,4.85-1.31,.6-.31,1.65-.75,1.75-1.51,.25-1.98-4.33-1.78-5.33-1.71-17.62,1.15-35.23,2.3-52.85,3.46l-1.34,4.45c2.45-.27,4.91-.52,7.37-.75,1.14-.11,2.29-.24,3.44-.3-2.12,.11,.17-.01,.59-.04,.49-.04,.98-.07,1.48-.11,4.76-.35,9.53-.61,14.29-.78s9.54-.26,14.31-.25c.26,0,1.97,0,.28,0,.66,0,1.32,0,1.97,.02,1.15,.01,2.3,.03,3.46,.05,2.47,.05,4.93,.12,7.4,.22l1.19-4.07c-4.19,.79-8.4,1.53-12.61,2.23-1.7,.29,1.61-.26-.1,.02-.49,.08-.97,.16-1.46,.24-1.13,.18-2.27,.36-3.4,.54-2.03,.31-4.06,.62-6.09,.91-8.37,1.21-16.75,2.3-25.16,3.16-1.53,.16-3.45,.54-4.86,1.22-.59,.28-1.66,.69-1.77,1.43-.28,1.92,4.36,1.69,5.28,1.66,10.57-.33,21.13-.78,31.69-1.36,5.28-.29,10.55-.6,15.83-.95,2.64-.17,5.27-.35,7.91-.54,1.32-.09,2.64-.19,3.95-.29,.66-.05,1.32-.1,1.98-.15,2.16-.18,2.49-.2,.99-.08,.33-.03,.66-.05,.99-.08l1.33-4.46c-16.51,1.37-32.99,3.2-49.4,5.49-4.71,.66-9.42,1.36-14.12,2.09-1.63,.25-3.34,.53-4.86,1.21-.48,.22-1.97,.88-1.86,1.71,.25,2.01,6.27,1.34,7.23,1.2,5.03-.74,10.07-1.4,15.13-1.98,2.61-.3,5.22-.57,7.83-.83,1.14-.11,2.29-.22,3.43-.32,.65-.06,1.31-.12,1.96-.17,.33-.03,.65-.06,.98-.08-1.05,.09-1.18,.1-.39,.03,10.14-.79,20.3-1.33,30.47-1.45l1.35-4.31c-19.86,2.09-39.71,4.3-59.57,6.47l-16.88,1.84c-1.53,.17-3.44,.54-4.85,1.24-.6,.3-1.66,.72-1.76,1.48-.28,1.96,4.3,1.81,5.28,1.76,10.86-.55,21.72-1.1,32.59-1.47,5.39-.19,10.78-.33,16.18-.42,2.74-.04,5.47-.07,8.21-.08,1.33,0,2.65,0,3.98,0,.58,0,1.16,0,1.74,0,.33,0,.66,0,1,0,.25,0,1.97,0,.3,0,6.13,.02,12.28,.26,18.4,.58l3-4.62c-11.57,1.26-23.17,2.33-34.77,3.27-.41,.03-.82,.07-1.23,.1,.18-.01,1.65-.13,.38-.03-.66,.05-1.32,.1-1.98,.15-1.48,.11-2.96,.22-4.45,.33-2.96,.22-5.93,.42-8.9,.61-5.77,.37-11.54,.71-17.31,.99-6.6,.33-13.2,.58-19.8,.79l-1.31,4.62c5.51-.55,11.02-1.07,16.54-1.53,1.32-.11,2.64-.22,3.95-.32,.99-.08-1.36,.11-.38,.03,.33-.03,.66-.05,.99-.08,.74-.06,1.48-.11,2.23-.17,2.8-.21,5.61-.41,8.41-.6,10.88-.73,21.77-1.3,32.67-1.69,6.27-.23,12.55-.4,18.82-.51l1.36-4.73c-26.43,2.38-52.93,4.01-79.44,4.93-4.02,.14-8.04,.26-12.07,.35-1.82,.04-3.65,.08-5.47,.11-.5,0-1,.02-1.49,.03-.84,.02-3.8-.04-1.49,.03-.99-.03-2,.04-2.99,.06-1.78,.04-3.64,.1-5.36,.61-.94,.27-2.1,.56-2.78,1.29-1.64,1.78,1.79,2.56,3.06,2.65,16.38,1.25,32.76,2.36,49.18,2.97,16.47,.61,32.95,.83,49.43,.74,8.86-.05,17.72-.15,26.58-.35l3.11-5.02c-21.22,1.19-42.43,2.52-63.66,3.52-21.39,1.01-42.82,1.68-64.23,2.03-2.71,.04-5.41,.09-8.12,.06-.3,0-.6,0-.91-.01-.88-.01,.2,.01-.34,0-.68-.02-1.36-.05-2.05-.08s-1.35-.07-2.03-.13c-.22-.02-.44-.04-.67-.06-1.26-.09-1.63-.09-1.12-.01,.26,.04,.14,.03-.37-.01-5.54-.27-11.13-1.27-16.37-3.1l-5.7,2.75c1.33,.39,2.66,.79,3.98,1.18,1.18,.35,2.7-.03,3.79-.5,.28-.12,2.32-1.18,1.4-1.65h0Z"/><path class="cls-1" d="M546.42,439.89c-6.85,.67-13.71,1.35-20.54,2.29-6.69,.93-13.29,2.24-19.89,3.61l-3.39,4.08c13.43-3.18,26.85-6.45,40.31-9.49,1.76-.4,3.98-1.48,5.13-2.92,.9-1.12,.31-1.89-1.18-1.62-12.55,2.34-24.92,5.93-37,10.03-1.78,.6-4.21,1.73-5.32,3.37-.93,1.38,.51,1.75,1.7,1.61,11.94-1.38,23.59-5.98,33.5-12.74,.7-.48,2.37-1.6,2.21-2.66s-1.51-1-2.35-.88c-11.44,1.61-22.56,4.79-33.16,9.4-1.27,.55-2.49,1.24-3.59,2.09-.61,.47-1.6,1.21-1.78,2.02-.4,1.88,3.03,1.16,3.85,.99,9.19-1.96,18.15-4.8,26.86-8.31,1.67-.67,4.52-2.06,5.28-3.81,.22-.51,.37-.81-.03-1.25-.48-.53-1.68-.5-2.27-.4-12.52,2.05-24.67,5.48-36.44,10.23-1.73,.7-3.96,1.84-5.09,3.41-.74,1.04-.51,1.99,.9,2.07,11.73,.65,23.5-.41,34.96-3l4.93-6.41c-11.05,2.62-22.08,5.32-33.12,8-2.29,.56-4.55,1.43-6.51,2.78-.45,.31-3.23,2.23-2.41,3.2,2.62,3.12,6.79,3.17,10.57,3.41,4.62,.29,9.24,.57,13.85,.86,9.24,.57,18.47,1.15,27.71,1.72,5.28,.33,10.56,.66,15.83,.98l7.64-6.68c-2.66,.57-5.32,1.09-7.99,1.58-1.34,.24-2.67,.47-4.01,.68-.63,.1-1.26,.2-1.89,.3-.29,.04-1.36,.22-.2,.03-.39,.06-.79,.11-1.19,.17-5.46,.76-10.94,1.32-16.44,1.67-10.85,.7-21.66,.51-32.48-.51-6.34-.6-12.88-1.2-19.03-2.9-1.14-.31-2.45,.05-3.52,.42-1.65,.57-3.39,1.52-4.78,2.58-.62,.48-5.17,4.4-2.69,5.08,11.78,3.26,24.08,4.51,36.24,5.31s24.83,1.38,37.25,1.89c25.51,1.07,51.08,1.6,76.59,.32,7.86-.4,15.75-.83,23.57-1.7,2.98-.33,5.86-.76,8.67-1.88,1.3-.52,5.09-1.99,4.59-4.06s-4.99-1.47-6.32-1.26c-2.31,.36-4.65,.95-6.69,2.12-.6,.34-2.43,1.46-1.85,2.44,2.04,3.43,14.74-1.32,13.7-3.08-.07-.08-.1-.16-.1-.27l-.12,.62-1.26,1.08-6.53,2.08-1.34,.13-2.63-.2c.54,.09-.54-.41-.2-.05l-.38-.51c.07,.1,.09,.22,.07,.34l.11-.63-.07,.28,7.69-2.85c-.33,0-.67,.04-1.01,.06-.75,.04-1.5,.1-2.25,.16-1.41,.1-2.81,.2-4.22,.29-2.82,.18-5.63,.34-8.45,.48-.66,.03-1.32,.07-1.99,.1-1.09,.05-.25,.01-.03,0-.41,.02-.83,.04-1.24,.05-1.41,.06-2.82,.11-4.22,.16-2.82,.1-5.64,.17-8.45,.22-11.29,.22-22.58,.12-33.86-.2-22.74-.63-45.51-2.07-68.19-3.85-12.19-.96-24.28-2.43-36.09-5.7l-10.08,8.22c5.5,.33,10.96,1.27,16.45,1.71,5.61,.45,11.22,.72,16.85,.76,11.76,.09,23.47-.38,35.14-1.87,6.67-.85,13.32-1.95,19.9-3.36,2.62-.56,5.73-1.75,7.72-3.64,.44-.42,1.13-1.02,1.27-1.65,.19-.87-.56-1.34-1.35-1.39-17.83-1.11-35.67-2.22-53.5-3.34-2.41-.15-4.83-.24-7.23-.47-1.92-.18-3.1-.36-4.63-1.73l.47,.47c-.17-.16-.33-.34-.48-.53l-8.91,5.98c11.04-2.68,22.1-5.33,33.13-8.05,1.75-.43,3.46-1.06,5.04-1.92,1.14-.62,2.64-1.52,3.42-2.61,1.76-2.47-2.22-2.18-3.54-1.87-1.24,.29-2.49,.57-3.74,.82-.7,.14-1.41,.28-2.12,.41-.31,.06-.63,.11-.94,.17-.84,.15,.87-.12,.02,0-2.61,.35-5.22,.72-7.85,.95-1.27,.11-2.55,.2-3.82,.26-.64,.03-1.28,.06-1.92,.08-.32,.01-.64,.02-.96,.03-.16,0-.73,.02-.26,0-2.72,.05-5.43-.03-8.14-.18l-4.19,5.48c.58-.24,1.17-.47,1.75-.7,.88-.35-.06,.04-.42,.16,.37-.12,.74-.28,1.1-.41,1.18-.44,2.36-.86,3.55-1.26,1.26-.43,2.53-.85,3.8-1.24,.6-.19,1.2-.37,1.8-.55,.3-.09,.6-.18,.9-.27,1.18-.35-.82,.22-.03,0,2.5-.67,5.01-1.32,7.54-1.88,1.23-.27,2.46-.53,3.69-.77,.69-.14,1.39-.26,2.08-.39,.11-.02,1.11-.19,.44-.08-.75,.13,.69-.11,.68-.11l2.99-5.46c-.38,.15-.91,.49-1.32,.53,.99-.38,1.12-.43,.4-.15-.22,.08-.44,.17-.67,.25-.89,.33-1.78,.66-2.68,.98-1.87,.67-3.75,1.29-5.64,1.88-.45,.14-.91,.28-1.37,.42-.23,.07-.46,.14-.68,.2-.45,.13-.3,.09,.45-.13-.2,.18-1.12,.31-1.38,.38-.46,.13-.92,.25-1.38,.37-2,.53-4.01,1-6.03,1.45l-1.51,5.1c1.14-.5,2.29-.98,3.45-1.46,.7-.28,.58-.23-.37,.14,.29-.11,.58-.22,.88-.33,.44-.17,.88-.33,1.32-.49,1.17-.43,2.36-.83,3.55-1.22,.59-.19,1.19-.38,1.79-.56,.16-.05,1.92-.56,1.03-.31s.88-.24,1.04-.28c.61-.16,1.21-.32,1.82-.47,1.14-.29,2.28-.56,3.43-.81s2.3-.48,3.46-.69c.6-.11,.62-.11,.05,0,.31-.05,.62-.1,.93-.15,.62-.1,1.24-.19,1.86-.28l-.14-3.54c-.92,.64-1.85,1.36-2.84,1.9,1.47-.81-.24,.13-.52,.29-.49,.29-.99,.57-1.5,.84-.25,.14-.5,.27-.76,.4-.62,.32-.51,.26,.33-.16-.28,.26-.83,.4-1.17,.56-.52,.24-1.05,.48-1.58,.71-.26,.11-.53,.23-.8,.34-.63,.26-.53,.22,.28-.11-.93,.57-2.25,.84-3.28,1.18-.17,.06-1.58,.53-.31,.11-.55,.18-1.13,.32-1.69,.47-2.66,.7-3.73,.91-6.17,1.26l-3.62,4.98c2.81-1.02,5.63-2,8.48-2.92,.77-.25,1.54-.49,2.3-.74s-.58,.18,.2-.06c.39-.12,.78-.24,1.16-.36,1.47-.45,2.95-.89,4.43-1.31,5.85-1.68,11.76-3.08,17.69-4.48l3.02-4.34c-13.56,3.42-27.17,6.64-40.76,9.93-1.54,.37-3.49,1.38-4.46,2.66-.76,1-.24,1.7,1.08,1.42,6.29-1.34,12.7-2.21,19.1-2.86s12.19-.93,18.32-.64c2.82,.13,6.17-1.89,8.12-3.69,.57-.52,1.58-1.37,1.38-2.25-.23-1.03-1.46-.81-2.28-.73h0Z"/><path class="cls-1" d="M533.47,460.76c-.78-.74-1.55-1.49-2.33-2.24l-5.93,3c1.02,.36,2.13,.3,3.2,.36s2.22,.11,3.33,.16c2.22,.1,4.45,.2,6.67,.28,4.57,.18,9.13,.29,13.7,.37,9.64,.18,19.27,.2,28.91,.1,18.45-.2,36.9-.92,55.31-1.99,11.18-.65,22.36-1.41,33.51-2.46,2.53-.24,5.64-1.15,7.73-2.67,.46-.33,1.19-.81,1.4-1.38,.29-.79-.41-1.23-1.11-1.34-19.5-2.94-39.2,.31-58.56,2.82-2.27,.29-4.54,.58-6.81,.84-1.06,.12-2.13,.24-3.19,.36-.33,.04-.65,.07-.98,.11-.73,.08,.38-.04,.42-.04-.65,.1-1.31,.13-1.97,.2-4.59,.46-9.18,.84-13.78,1.16s-9.2,.56-13.81,.74c-2.3,.09-4.61,.16-6.91,.21-.49,.01-.99,.02-1.48,.03-.33,0-.66,.01-.99,.02-.07,0-.89,.01-.27,0s-.2,0-.27,0c-.33,0-.66,0-.99,.01-.66,0-1.32,.01-1.98,.02-10.39,.06-20.75-.29-31.11-1.2l-9.61,5.85c4,.09,8,.14,12,.14,4.21,0,8.16,.02,11.97-.09,7.89-.23,15.77-.58,23.65-1.04,15.76-.92,31.49-2.3,47.17-4.14,4.9-.58,9.79-1.18,14.68-1.83,2.11-.28,4.22-.57,6.31-.96,5.05-.95,11.11-1.19,15.13-4.72,.45-.31,.67-.72,.65-1.24-.57-.84-1.11-1.22-2.08-1.52-1.53-.46-3.19-.46-4.76-.31-1.79,.16-3.6,.57-5.3,1.16-.69,.24-3.55,1.16-3.78,2.23l1.13-.96-.26,.16c-.32,.2-1.36,.8-1.21,1.39s1.35,.64,1.72,.65c2.29,.06,5.11-.55,7.08-1.77l.26-.16-4.78,1.59c.16-.02,.32-.05,.49-.09l-2.48,.21-.86-.22,.18,.1s.42,.38,.31,.24c.16,.19,.52,.78,.82,1.08l-.39-.45c.21,.26,.36,.49,.5,.79l9.72-4.58c-4.31,.56-8.65,.91-12.96,1.46-3.61,.47-7.22,.91-10.83,1.32-7.71,.87-15.43,1.64-23.17,2.3-15.47,1.31-30.97,2.19-46.49,2.63-8.65,.24-17.31,.54-25.96,.72-3.13,.06-6.86,1.13-9.38,3.04-.56,.43-1.75,1.21-1.47,2.07s1.8,.78,2.41,.81c18.64,.78,37.38,.81,56.01-.29,9.75-.58,19.48-1.48,29.18-2.65,9.16-1.1,18.27-2.6,27.46-3.42,2.52-.23,5.03-.41,7.56-.54,.65-.03,1.3-.06,1.95-.09s-.11,0-.2,0c.41-.01,.81-.02,1.22-.03,1.22-.02,2.44-.02,3.65-.01,5.34,.06,9.7,.4,14.89,1.29l8.01-5.39c-18.87,1.44-37.75,2.79-56.66,3.63s-37.71,1.24-56.57,1.5c-5.34,.07-10.68,.09-16.01,.15-2.73,.03-5.47,.05-8.2,.07s-5.69-.21-8.45,.21c-1.2,.18-2.55,.78-3.51,1.49-.21,.16-1.55,1.25-.71,1.53,1.22,.4,2.43,.81,3.65,1.23,1.02,.35,2.25-.03,3.21-.45,.42-.18,2.05-.92,1.4-1.54h0Z"/><path class="cls-1" d="M570.81,456.98c14.42-.96,28.66-6.35,39.15-16.44,2.8-2.69,5.17-5.71,7.37-8.9l-7.38,1.79c.12,3.98-1.1,8.04-3.58,11.18l7.84-1.56c.12-3.71,.09-7.43-.04-11.15-.06-1.81-.16-3.63-.27-5.44-.12-1.99,.37-3.9,.28-5.89-.03-.66-1.64-.77-1.93-.77-1.08-.02-2.15,.17-3.2,.43-1.13,.28-2.31,.65-3.33,1.22-.63,.35-2.01,.98-2.14,1.77-1.04,6.77-1.23,13.66-.78,20.5,.05,.79,1.93,.92,2.3,.93,1.29,.02,2.56-.2,3.81-.52,1.35-.34,2.74-.79,3.96-1.47,.86-.48,2.2-1.14,2.53-2.14,1.83-5.64,2.48-11.63,2.3-17.54l-13.2,4.01c.85,8.68,2.28,17.27,4.28,25.76,.18,.75,.33,1.45,.77,2.1,.83,1.24,1.87,1.64,3.33,1.8,2.61,.3,5.65-.52,8.01-1.54,1.15-.49,2.35-1.04,3.24-1.93,.55-.55,.62-1.16,.76-1.88,.84-4.35,1.48-8.73,1.94-13.14,.54-5.16,.81-10.33,.85-15.52l-13.28,4.45c.42,6.5,.52,13.01,.84,19.51,.04,.85,2.01,1.04,2.42,1.06,1.37,.06,2.72-.15,4.05-.45,1.44-.33,2.93-.77,4.23-1.47,.85-.46,2.48-1.19,2.73-2.22,1.56-6.66,2.6-13.41,3.16-20.23l-.06,.67,.1-1.15-.06,.67c.06-.69,.12-1.38,.18-2.07l-13.45,4c-.06,6.84,.38,13.66,1.35,20.43,.12,.87,1.83,1.13,2.38,1.18,1.37,.12,2.73-.02,4.08-.26,1.45-.26,2.96-.63,4.3-1.26,.97-.46,2.37-1.04,2.83-2.09,2.83-6.41,4.53-13.58,5.15-20.55l-.06,.67c.16-1.63,.36-3.23,.62-4.85l-13.24,3.95c-.31,7.45,.46,14.91,2.34,22.12,.22,.86,1.77,1.05,2.4,1.09,1.37,.08,2.73-.09,4.07-.37,1.45-.3,2.95-.7,4.28-1.36,.83-.42,2.58-1.13,2.8-2.14,1.63-7.42,1.42-15.37,.24-22.84-.13-.85-2.05-.88-2.5-.88-1.6,0-3.44,.46-4.92,1.01-1.91,.71-5.83,2.04-5.86,4.55-.05,4.84-.22,9.67-.07,14.52,.07,2.41,.18,4.82,.34,7.23s0,5.03,1.08,7.16c.41,.82,1.49,.93,2.29,.99,1.49,.1,3.23-.22,4.65-.65,1.85-.56,5.53-1.59,5.7-3.96,.03-.48,.07-.96,.11-1.45,.04-.58-1.22-.77-1.58-.82-1.04-.13-2.14-.03-3.16,.19-2.03,.43-4.76,1.16-6.15,2.82-.43,.51-.86,1.03-1.3,1.54l12.02-1.66c.63-2.51,.1-5.1-.1-7.66s-.34-4.99-.44-7.49c-.21-4.99-.27-10-.13-15l-.03,.67,.02-.46-13.25,4.01c.47,3.28,.69,6.58,.62,9.9-.07,3.55-.58,7.01-1.06,10.52l.1-.66-.08,.52,13.55-2.78c-1.99-7.62-2.92-15.44-2.71-23.31,.02-.83-2.22-.91-2.49-.9-1.37,.03-2.71,.32-4.02,.71-1.42,.42-2.88,.96-4.14,1.74-.81,.5-2.44,1.36-2.59,2.4-.54,3.87-1.37,7.76-2.22,11.58s-2.07,7.91-3.76,11.65l13.59-2.44c-1-7.07-1.55-14.18-1.59-21.32-.02-2.5-13.2,.02-13.45,4-.04,.65-.08,1.3-.14,1.95l.06-.67c-.59,6.48-1.63,12.91-3.15,19.24l13.44-3.08c-.31-6.74-.87-13.47-1.07-20.21-.07-2.49-13.07,.5-13.28,4.45-.5,9.26-1.53,18.5-3.1,27.64l1.47-1.47-.26,.15,6.42-2.35-.26,.05,4.32-.05c.39,.25,.42,.25,.07,0-.17-.18-.3-.39-.39-.62-.24-.51-.34-1.1-.47-1.64-.31-1.31-.62-2.62-.91-3.93-.53-2.38-1-4.76-1.43-7.16-.88-4.88-1.61-9.8-2.17-14.73-.1-.84-1.97-.96-2.41-.99-1.57-.07-3.38,.29-4.86,.77s-3.18,1.07-4.47,2.07c-.72,.56-1.5,1.15-1.46,2.16,.26,5.46-.41,10.8-1.64,16.12l12.6-3.21c-1.05-6.4-1.38-12.84-1.28-19.31l-10.65,3.18c.19,.99,.47,1.84,.8,2.79,.27,.78,.51,1.51,.62,2.33,.24,1.86,.39,3.73,.53,5.6,.29,3.66,.44,7.32,.52,10.98,.02,.99,3.03,.48,3.39,.4,1.36-.29,3.58-.77,4.45-1.97,2.7-3.69,4.04-8.01,3.52-12.6-.12-1.04-3.13-.35-3.56-.24-1.29,.31-3.08,.82-3.82,2.03-3.86,6.31-9.73,11.59-16.13,15.22-.58,.33-1.34,.72-2,1.05-.45,.23-.91,.45-1.37,.66-.14,.06-1.24,.55-.91,.41-.82,.35-1.65,.67-2.48,.97-.12,.04-1.5,.51-.84,.3-.48,.16-.97,.3-1.45,.44-3.19,.92-5.57,1.27-9.13,1.18-2.13-.05-5.04,.63-6.69,2-1.83,1.52,.52,1.76,1.83,1.68h0Z"/><path class="cls-1" d="M648.67,401.48c.85-1.53,1.77-3.09,2.4-4.73,.59-1.54,1.29-3.45,1.41-5.09,.13-1.9-6.79,.35-7.32,1.99-2.85,8.74-2.25,18.19-1.28,27.19,.5,4.63,1,9.27,1.5,13.9,.25,2.27,.49,4.54,.74,6.81,.12,1.13,.25,2.27,.37,3.4s-.05,2.86,.54,3.86l12.61-3.17c-.34-.49-.77-.92-1.08-1.42s-.53-1.03-.84-1.52c-.7-1.12-1.68-1.96-2.54-2.95-1.7-1.96-3.77-3.78-6.22-4.71-.95-.36-2.27-.14-3.21,.12-.42,.12-2.06,.57-1.88,1.25,.25,.93,.87,1.69,1.31,2.55,.49,.96,1.03,1.99,1.37,3.02s.32,2.15,.54,3.2c.28,1.33,.18,2.31-.07,3.64-.14,.76,1.98,1.1,2.21,1.12,1.28,.14,2.57,.03,3.84-.17,1.37-.22,2.8-.53,4.08-1.1,.77-.34,2.52-.97,2.72-1.89,.18-.82,.21-1.31,0-2.13-.15-.57-.26-1.14-.37-1.71-.24-1.23-.48-2.46-.72-3.69-.45-2.29-.89-4.58-1.34-6.87-.91-4.65-1.81-9.31-2.72-13.96-1.71-8.8-4.03-17.79-2.24-26.77l-7.35,2.34c.05,.83,.33,1.62,.33,2.46,0,.67-.08,1.33-.16,1.99-.21,1.63-.54,3.06-1.32,4.51-.43,.79,1.84,.28,2.01,.22,.95-.3,2.16-.79,2.67-1.71h0Z"/><path class="cls-1" d="M646.43,402.69c.42,0,2.09-.91,1.14-.91-.42,0-2.09,.91-1.14,.91h0Z"/><path class="cls-1" d="M659.38,394.92c-.11-1.08-.09-1.83,.18-2.88l-6.42,1.79c.63,8.95,.78,17.9,.66,26.87-.06,4.41-.09,8.81-.27,13.22-.07,1.75,.42,3.49,2.3,4,1.49,.41,3.3,.14,4.75-.2,1.09-.26,3.44-.77,3.85-2.02,.61-1.87-5.16-.32-5.75-.09l-.34,.14,2.98-.8c3.68-.61,2.58,.64,1.8-.21-.21-.22-.3-.53-.36-.83-.17-.78-.05-1.63-.04-2.41,.02-1.81,.02-3.63,0-5.44-.04-3.87-.16-7.73-.45-11.6-.57-7.6-1.49-15.18-2.69-22.71-.22-1.39-7.1,.72-6.45,2.09,.23,.49,.51,.84,.6,1.38,.08,.5,.05,1.04,.08,1.55,.04,.85,5.74-.22,5.57-1.84h0Z"/><path class="cls-1" d="M670.63,388.24c-.11-.72-.11-1.39,.51-1.9l-4.15,.69c-.41,2.11-.17,4.46-.32,6.62-.14,1.98-.12,3.98-.23,5.96-.23,4.36-.79,8.67-1.49,12.97-1.35,8.22-2.99,16.37-4.58,24.55-.87,4.46-2.18,9.41-1.27,13.95,.18,.92,2.02,.89,2.65,.91,2,.08,4.19-.27,6.03-1.04,1.03-.43,1.87-.82,2.1-1.96,.2-.98-3.12-.89-3.41-.87-1.63,.12-3.49,.4-4.85,1.38l-.14,.08,2.03-.71-.72,.18,4.8-.39-.34-.05,1.62,.84c-.28-4.22-.08-8.28,.49-12.47s1.23-8.56,1.78-12.85c1.03-8.18,1.78-16.31,1.87-24.57,.03-2.33,.04-4.68-.14-7.01-.09-1.18-.3-2.36-.49-3.53-.18-1.1-.25-2.41-.74-3.41s-4.73,.53-4.67,1.65c.04,.74-.19,1.36-.01,2.11s3.81-.18,3.67-1.11h0Z"/><path class="cls-1" d="M668.27,447.54c-.91,.12-1.73,.22-2.64,.14-1.59-.15-3.43,.78-4.65,1.72-.75,.58-1.9,1.76-.42,2.12,.86,.21,1.89-.08,2.77-.2s1.75-.25,2.62-.39c1.83-.29,3.66-.62,5.47-.99,3.45-.71,6.86-1.56,10.25-2.52,1.47-.42,3.43-1.26,4.24-2.65s-1.21-1.17-1.95-.97c-3.09,.83-6.51,1.63-9.46,2.21-1.68,.33-3.13,.6-4.85,.89-2.07,.35-4.21,.52-6.21,1.19l-.68,3.03c1.06-.37,2.11-.61,3.21-.85,1.04-.22,2.36-.84,3.02-1.7,.53-.69,.17-1.14-.72-1.03h0Z"/><path class="cls-1" d="M688.08,400.25c25.35-5.28,50.59-11.04,75.86-16.68,24.71-5.51,49.42-11.02,74.13-16.54,23.83-5.32,47.68-10.56,71.48-16.02s45.87-10.86,68.37-17.89,43.97-15.34,64.82-25.66c2.64-1.31,5.28-2.61,7.94-3.88,1.19-.57-1.79-2.01-2.07-2.12-1.15-.46-3.39-1.28-4.62-.55-20.3,12.14-42.64,20.75-65.09,28.02-21.67,7.02-43.76,12.64-65.93,17.83-23.44,5.48-46.96,10.59-70.45,15.86-24.46,5.49-48.93,10.98-73.39,16.47-24.44,5.48-48.89,10.94-73.29,16.57-3.04,.7-6.08,1.4-9.11,2.16-.76,.19-2.59,.79-2.23,1.85s2.93,.72,3.57,.59h0Z"/><path class="cls-1" d="M687.41,395.21c24.29-2.14,48.38-5.71,72.37-10.03,23.35-4.2,46.54-9.23,69.66-14.53,23.72-5.44,47.36-11.2,71.01-16.94,23.18-5.62,46.33-11.37,69.33-17.65,21.19-5.79,42.61-11.91,62-22.48,2.36-1.29,4.68-2.65,6.97-4.06,1.38-.85-1.95-2.5-2.44-2.72-1.62-.72-3.88-1.53-5.64-.87-20.22,7.51-40.16,15.75-59.94,24.34s-39.48,17.52-59.2,26.35-39.65,17.57-59.72,25.76c-19.77,8.06-39.88,15.39-60.19,22-10.19,3.32-20.45,6.37-30.85,8.98s-20.72,4.68-31.07,7.06c-3.2,.74-6.43,1.38-9.69,1.81l7.99,6.16c2.41-.72,4.76-1.59,7.2-2.17s4.95-1.2,7.42-1.82c4.47-1.13,8.91-2.34,13.38-3.48,9.14-2.35,18.24-4.87,27.3-7.54,18.41-5.41,36.69-11.28,54.91-17.31,10.03-3.32,20.09-6.59,30.09-9.99l-9.82-2.88c-38.34,16.46-77.51,31.16-118.22,40.66-11.12,2.6-22.34,4.79-33.64,6.44l10.07,6.87c8.18-2.18,16.32-4.45,24.45-6.79s16.76-5.18,25.16-7.69c15.34-4.59,30.51-9.7,45.89-14.12,8.67-2.49,17.34-4.95,26.01-7.45l-11.54-4.25c-23.08,9.9-46.5,19.01-70.19,27.37-2.86,1.01,.51,3.14,1.82,3.66,2.74,1.1,6.62,2.07,9.55,1.08,31.49-10.68,62.75-22.12,93.37-35.08,8.84-3.74,17.64-7.56,26.4-11.46l-11.82-3.59c-25.46,12.37-51.44,23.91-77.8,34.22-7.44,2.91-14.82,6.01-22.25,8.98l11.41,4.82c24.6-11.1,49.6-21.32,74.78-31.03,7.19-2.77,14.41-5.48,21.65-8.12l-12.48-3.67c-10.62,7.09-21.57,13.63-32.8,19.71s-22.69,11.34-34.32,16.43c-2.7,1.18,.37,3.02,1.85,3.61,1.68,.67,3.48,1.14,5.28,1.31,1.35,.12,3.06,.34,4.34-.21,21.57-9.29,43.47-17.81,65.64-25.55,6.34-2.21,12.71-4.33,19.08-6.44l-12.06-4.89c-17.84,10.8-36.71,19.73-56.36,26.7l12.2,4.51c14.14-8.01,29.19-14.17,44.91-18.33l-12.14-4.69c-13.12,9.24-26.81,17.44-40.78,25.3-2.26,1.27,2.94,4.05,3.69,4.38,2.29,1.01,6.24,2.6,8.73,1.28,6.18-3.27,12.37-6.53,18.59-9.74l-12.44-5.61c-13.18,9.92-27.74,17.97-43.11,23.94-.93,.36-.36,1.55-.02,2.01,.79,1.08,2.37,2.01,3.53,2.57,2.48,1.2,5.95,2.6,8.7,1.53,15.55-6.04,30.11-14.28,43.35-24.43,2.04-1.57-2.7-3.96-3.7-4.4-2.32-1.01-6.24-2.55-8.75-1.22-6.17,3.27-12.37,6.49-18.57,9.69l12.42,5.66c14.35-7.88,28.08-17.03,41.32-26.66,1.92-1.39-2.7-3.4-3.34-3.65-2.62-1.01-6.01-1.83-8.79-1.04-16.22,4.6-31.9,11.07-46.61,19.3-2.1,1.18,2.99,3.45,3.4,3.6,2.55,.94,6.13,1.84,8.81,.91,20.14-7.03,39.56-16.13,57.85-27.1,2.05-1.23-2.78-3.49-3.28-3.7-2.49-1.01-6.1-2.07-8.77-1.2-22.42,7.33-44.54,15.65-66.34,24.64-6.23,2.57-12.44,5.21-18.62,7.9l11.46,4.71c12-5.32,23.69-11.39,35.22-17.65,11.47-6.23,22.7-12.95,33.7-19.98,2.01-1.28-3.25-3.2-3.63-3.31-2.73-.8-6.08-1.3-8.85-.36-25.45,8.69-50.5,18.34-75.16,29.07-7.03,3.06-14.03,6.18-20.99,9.37-2.65,1.21,.28,3.01,1.81,3.64,1.67,.68,3.46,1.18,5.26,1.36,1.36,.14,3.04,.36,4.34-.17,6.62-2.69,13.3-5.3,19.84-8.2s13.24-6.03,19.92-8.92c13.01-5.64,25.97-11.4,38.86-17.31,7.28-3.34,14.56-6.68,21.84-10,2.77-1.27-.85-3.05-2.18-3.44-2.91-.85-6.74-1.36-9.64-.15-30.52,12.66-61.36,24.7-92.44,35.93-8.94,3.23-17.9,6.4-26.89,9.47l11.37,4.74c23.77-8.46,47.23-17.77,70.35-27.85,2.74-1.2-.57-3.08-1.97-3.57-2.99-1.06-6.47-1.56-9.57-.68-7.79,2.24-15.58,4.52-23.37,6.76-8.24,2.37-16.47,4.56-24.78,6.63-7.62,1.9-15.18,4.03-22.75,6.12-8.17,2.25-16.4,4.27-24.55,6.61l-12.68,3.65c-2.25,.65-4.48,1.34-6.72,2.03-1.01,.31-2.02,.63-3.03,.94-.7,.22-2.64,.45-2.86,1.34-.45,1.75,2.65,3.48,3.79,4.08,2.14,1.11,5.15,2.5,7.62,2.03,20.35-3.88,40.38-9.16,60.07-15.58,19.99-6.51,39.48-14.25,58.94-22.18,11.01-4.49,22.01-8.98,32.95-13.62,2.33-.99-.55-2.53-1.55-2.83-2.52-.76-5.75-.9-8.27-.05-35.85,12.04-71.57,24.22-108.3,33.36-5.13,1.28-10.28,2.43-15.46,3.5-2.57,.53-5.14,1.05-7.71,1.55-2.43,.48-4.84,.66-7.3,.94-2.15,.24-.66,2.17,.27,3.07,1.65,1.59,4.03,3.06,6.37,3.26,10.94,.93,21.77-2.67,32.21-5.5s21.15-6.07,31.63-9.4c20.73-6.61,40.92-14.51,61.03-22.78,20.07-8.26,39.87-17.17,59.64-26.13s39.41-18.05,59.2-26.88c19.85-8.86,39.82-17.46,60.08-25.34,2.54-.99,5.08-1.96,7.63-2.93l-8.08-3.59c-18.47,11.6-39.28,18.38-60.12,24.33-22.67,6.47-45.51,12.32-68.38,18.03-23.19,5.79-46.4,11.52-69.65,17.09-22.84,5.48-45.74,10.7-68.79,15.25-23.21,4.58-46.52,8.4-69.99,11.41-2.88,.37-5.77,.72-8.65,1.06-.71,.08-2,.45-1.35,1.31s2.78,.89,3.66,.82h0Z"/><path class="cls-1" d="M754.24,437.3c-3-1-6.95-1.11-9.2,1.47-.62,.71,.75,1.36,1.22,1.56,1.19,.51,2.62,.75,3.9,.57,16.73-2.28,32.62-8.68,48.42-14.3,4.67-1.66,9.36-3.28,14.03-4.92l-7.77-2.76c-14.19,8.01-29.26,14.28-44.6,19.71l10.63,3.68c8.19-3.42,16.38-6.84,24.68-9.97,4.11-1.55,8.25-3.02,12.42-4.39,4.46-1.47,7.8-2.47,12.13-3.6,4.83-1.25,9.72-2.3,14.65-3.11l-10.16-4.47c-15.04,7.96-30.32,15.48-45.8,22.55l11.42,4.43c15.84-7.42,31.99-14.15,48.41-20.17l-12.18-4.2c-14.87,8.83-29.74,17.67-44.67,26.4l12.85,4.32c12.88-7.89,26.3-14.88,40.27-20.62l-12.27-4.23c-10.76,8.85-23.01,15.58-35.16,22.3-.86,.47-.22,1.63,.2,2.07,.83,.85,1.93,1.38,3.01,1.84,1.4,.59,2.91,1.06,4.41,1.26,1.35,.18,3.07,.45,4.37-.09,11.56-4.86,23.04-9.92,34.6-14.77l-12.21-4.56c-9.27,7.6-19.9,13.08-31.15,17.1l11.03,5.78c7.43-3.56,15.13-6.54,23.03-8.84l-11.15-5.57c-3.24,1.65-6.53,3.19-9.9,4.56s-6.74,2.46-10.09,3.75l12.08,3.88c-.02-1.02-.14-2.09-.07-3.1,.18-2.29-4.24-3.36-5.86-3.65-1.49-.27-3.12-.51-4.62-.19-.69,.15-2.12,.41-2.19,1.32s-.35,1.88-.52,2.8c-.3,1.62,2.59,2.75,3.59,3.13,2.15,.82,5.04,1.53,7.35,1.03,7.43-1.63,14.6-4.5,21.37-7.96,.78-.4,1.52-.78,1.19-1.8s-1.92-1.92-2.75-2.33c-2.78-1.34-6.51-2.34-9.58-1.44-7.85,2.29-15.52,5.15-22.92,8.64-.78,.37-1.53,.73-1.22,1.75s1.89,1.95,2.71,2.36c1.61,.82,3.38,1.43,5.16,1.7,1.4,.21,3.01,.44,4.38-.03,12.06-4.21,23.18-10.88,33.15-18.78,.76-.6,.24-1.59-.29-2.09-.87-.82-1.99-1.31-3.09-1.72-2.55-.95-6.18-1.8-8.83-.74-11.52,4.6-23.03,9.24-34.36,14.3l11.99,5.08c12.19-7.13,24.35-14.36,35.41-23.2,.75-.6,.19-1.57-.34-2.04-.89-.78-2.01-1.24-3.12-1.62-2.6-.9-6.14-1.62-8.81-.57-14.5,5.68-28.51,12.63-41.66,20.99-.83,.53-.18,1.57,.26,2.03,.92,.96,2.6,1.66,3.82,2.05,2.56,.82,6.28,1.76,8.78,.24,14.89-9.05,29.84-18.01,44.79-26.96,.83-.5,.08-1.61-.34-1.98-.88-.77-2-1.22-3.09-1.6-2.59-.89-6.07-1.61-8.74-.62-16.43,6.1-32.6,12.9-48.45,20.39-2.67,1.26,.41,3.14,1.9,3.7,1.67,.62,3.46,1.04,5.24,1.14,1.37,.07,3,.18,4.28-.41,15.46-7.12,30.69-14.73,45.66-22.82,2.2-1.19,.27-2.63-1.28-3.32-2.69-1.19-5.98-1.65-8.89-1.16-17.82,3.05-34.89,9.27-51.51,16.21-4.67,1.95-9.32,3.95-13.96,5.96-2.57,1.11,.63,2.93,1.87,3.34,2.7,.9,6.02,1.34,8.76,.34,14.61-5.35,28.45-12.59,41.74-20.63,1.65-1-.21-2.08-1.35-2.47-1.94-.66-4.43-1.05-6.42-.3-7.7,2.91-15.4,5.83-23.12,8.7s-15.05,5.55-22.76,7.74c-4.29,1.22-8.64,2.25-13.02,3.07l5.12,2.13c.35-.44,.76-.84,1.28-1.09,.19-.09,.5-.12,.67-.24,.3-.01,.21-.03-.3-.05-.2-.01-.4-.03-.61-.05,.89,.3,3.34,.89,4.07,0s-1.43-1.66-1.95-1.83h0Z"/><path class="cls-1" d="M796.03,451.64c22.44-4.99,44.27-13.46,63.61-25.96,5.22-3.37,10.41-6.96,15.04-11.11,.76-.68-1.21-1.38-1.51-1.47-.99-.28-2.71-.61-3.65,0-4.85,3.09-9.64,6.27-14.57,9.25s-9.84,5.62-14.86,8.24c-9.8,5.11-19.97,9.53-30.44,13.08-6,2.03-12.08,3.8-18.25,5.27-1.27,.3-1.49,1.15-.32,1.85,1.33,.8,3.42,1.2,4.95,.86h0Z"/><path class="cls-1" d="M869.84,414.06c-.86,.76-1.69,1.37-2.71,1.92-.74,.4-1.02,1.01-.13,1.45,.98,.48,2.45,.44,3.47,.1,3.03-1,5.91-2.66,8.71-4.17,2.61-1.41,5.2-2.86,7.75-4.37,5.17-3.04,10.19-6.33,15.14-9.73,9.9-6.8,19.39-14.14,28.75-21.65,18.58-14.9,36.83-30.29,56.75-43.42,5.52-3.64,11.18-7.08,16.98-10.27,2.9-1.59,5.84-3.11,8.81-4.57s6.07-2.58,8.83-4.34c1.44-.92-.13-1.76-1.12-2.06-1.86-.57-4.1-.59-5.96-.02-5.93,1.8-11.55,5.04-16.94,8.05-5.07,2.83-10.01,5.87-14.86,9.07-9.85,6.51-19.26,13.63-28.47,21.01-18.33,14.68-36.02,30.15-55,44-5.3,3.87-10.72,7.55-16.24,11.09-2.79,1.79-5.61,3.52-8.47,5.19-1.35,.79-2.72,1.56-4.09,2.32s-3.05,1.55-4.31,2.56l4.94,.58c.47-.88,1.02-1.42,1.77-2.08,.68-.6-.27-.99-.79-1.1-.79-.17-2.14-.14-2.8,.44h0Z"/><path class="cls-1" d="M878.93,396.34c-1.42,.34-2.61,1.83-2.76,3.24-.09,.82,1.68,1.19,2.17,1.28,1.06,.19,2.54,.3,3.5-.29,26.56-16.16,52.95-32.59,79.33-49.04,7.28-4.54,14.48-9.23,21.71-13.86,1.45-.93-.78-1.72-1.5-1.83-1.71-.25-3.66-.02-5.16,.89-26.21,15.96-52.12,32.38-78.16,48.63-7.19,4.49-14.3,9.1-21.44,13.67l5.58,.67c-.1-.32-.1-.94,.19-1.18,.37-.31,1.62,.07,1.56-.79-.05-.69-1.3-1.08-1.81-1.24-1.05-.32-2.15-.41-3.22-.15h0Z"/><path class="cls-1" d="M860.15,396.33c25.23-10.71,49.9-22.67,73.9-35.91,6.76-3.73,13.43-7.6,20.11-11.47,1.54-.89-.77-1.72-1.49-1.84-1.73-.3-3.83-.18-5.4,.7-24.74,13.87-49.74,27.46-75.97,38.33-7.36,3.05-14.81,5.82-22.41,8.21l10.93,3.68c3.9-1.73,7.81-3.44,11.7-5.17s7.95-3.78,11.9-5.68c8.32-4.01,16.61-8.06,24.91-12.1,16.21-7.88,32.33-15.93,48.46-23.98,9.07-4.52,18.12-9.07,27.11-13.76l-11.87-2.97c-4.1,2.23-8.34,4.23-12.48,6.4s-8.25,4.37-12.35,6.62c-8.12,4.46-16.2,8.99-24.18,13.7-16.16,9.54-32,19.64-47.4,30.37-4.18,2.91-8.33,5.87-12.44,8.88-2.05,1.5-4.1,3.02-6.13,4.55-.99,.74-2.01,1.45-2.91,2.29-.84,.79-1.63,1.75-2.53,2.46-1.85,1.46,1.81,3.79,2.89,4.38,1.41,.78,2.95,1.47,4.54,1.76,.89,.16,2.43,.53,3.21-.08,2-1.58,4.29-2.8,6.3-4.39,1.9-1.5,3.81-2.99,5.72-4.48,3.76-2.92,7.55-5.8,11.37-8.64,7.55-5.63,15.19-11.17,22.98-16.48,15.43-10.53,31.24-20.58,47.56-29.69,4.53-2.53,9.09-5.01,13.68-7.45s9.27-5.04,14.05-7.22c.72-.33,1.26-.99,.79-1.75-.52-.85-2.29-1.36-3.12-1.55-2.97-.71-6.68-.96-9.54,.34-15.73,7.13-31.27,14.68-46.85,22.12-16.39,7.83-32.68,15.84-48.99,23.83-4.38,2.15-8.75,4.32-13.13,6.48-4.79,2.37-9.46,5.02-14.17,7.53-2.46,1.31,.51,2.94,1.94,3.4,2.69,.87,6.27,1.41,8.98,.28,12.75-5.32,25.32-11.07,37.61-17.39s24.53-13.11,36.58-20.04c6.73-3.87,13.43-7.78,20.15-11.65l-6.89-1.14c-23.13,13.78-47.21,25.96-71.59,37.36-6.81,3.18-13.7,6.18-20.61,9.13-1.25,.53,.21,1.44,.83,1.7,1.18,.48,3.01,.86,4.25,.33h0Z"/><path class="cls-1" d="M964.42,350.54c1.77-.64,3.03-1.81,3.5-3.65,.16-.63-1.38-.92-1.68-1-2.21-.55-4.65-.43-6.81,.29-1.92,.64-3.56,1.81-5.23,2.93-3.44,2.29-6.87,4.59-10.32,6.87-6.95,4.6-13.91,9.17-20.84,13.79-13.97,9.33-27.88,18.74-41.77,28.18-7.4,5.03-14.91,9.95-22.44,14.78-.8,.51-.45,1.46-.02,2.06,.74,1.04,2.26,1.92,3.37,2.44,1.55,.71,3.23,1.33,4.93,1.49,.99,.1,2.59,.33,3.4-.39,1.14-1.01,2.19-2.1,3.38-3.08s2.5-1.95,3.81-2.88c2.64-1.88,5.28-3.75,7.92-5.63,5.38-3.83,10.78-7.63,16.18-11.44,10.87-7.66,21.79-15.27,32.71-22.87,6.29-4.38,12.67-8.72,19.23-12.69,1.21-.73-.33-1.45-1.06-1.67-1.15-.33-3.44-.69-4.53,.08-11.09,7.86-22.89,14.74-34.44,21.89-11.44,7.08-22.91,14.16-34.45,21.07-3.22,1.93-6.41,3.89-9.62,5.83-1.62,.98-3.22,2-4.89,2.88-1.95,1.02-3.94,1.92-5.91,2.89l11.68,5.6c12.34-9.59,24.92-18.88,37.49-28.16,12.43-9.17,24.73-18.5,37-27.88,3.36-2.57,6.72-5.14,10.09-7.68,1.77-1.33,3.54-2.67,5.3-4,.8-.61,1.6-1.22,2.42-1.81,.33-.23,.66-.47,1.01-.67,1.3-.75,.15,.27-1.62-.34l-.99-.82c-.32,.88-1,1.59-1.89,1.87-.33,.1-1.04,.47-1.03,.93s.74,.76,1.07,.88c1.54,.53,3.54,.43,5.06-.12h0Z"/><path class="cls-1" d="M689.22,414.59c9.22-1.04,18.41-2.13,27.57-3.65,9.01-1.49,17.96-3.31,26.88-5.25,17.8-3.88,35.43-8.47,53-13.28,17.77-4.87,35.49-9.88,53.17-15.05s35.38-10.49,53.01-15.94c17.5-5.4,34.92-11,52.25-16.93,2.16-.74,4.32-1.48,6.48-2.23,.35-.12,1.23-.33,1.26-.87s-.79-.9-1.12-1.05c-1.61-.7-4.06-.95-5.77-.43-17.75,5.46-35.5,10.9-53.24,16.38s-35.16,10.72-52.8,15.89c-17.6,5.15-35.22,10.22-52.88,15.14-17.39,4.84-34.83,9.51-52.39,13.68s-34.93,7.68-52.59,10.39c-2.19,.34-4.36,.73-6.55,1.01-1.09,.14-1.14,.84-.28,1.4,1.1,.7,2.71,.94,3.99,.79h0Z"/><path class="cls-1" d="M932.45,351.55c-33.67,13.01-68.3,23.66-103.12,33.12-34.85,9.47-70.12,17.38-105.65,23.86-9.86,1.8-19.73,3.46-29.63,5.06-4.92,.79-9.87,1.57-14.72,2.71-5.37,1.26-10.63,2.94-15.81,4.81-1.52,.55,1.24,2.84,1.69,3.18,1.38,1.01,3.39,2.33,5.2,2.01,37.34-6.51,74.63-13.46,111.54-22.15,10.25-2.41,20.47-4.96,30.65-7.68l-9.98-4.02c-19.09,5.81-38.21,11.47-57.49,16.66s-38.26,9.93-57.59,14.04c-5.48,1.16-10.97,2.27-16.47,3.32-2.83,.54-5.65,.94-8.51,1.26-2.66,.3-5.41,.41-8.03,.85-.74,.13-1.53,.24-1.38,1.2s1.58,2.11,2.24,2.6c1.42,1.05,2.99,1.96,4.64,2.58,1.22,.46,2.81,1.16,4.13,.95,18.13-2.92,36.17-6.3,54.06-10.45,17.86-4.14,35.63-8.63,53.37-13.27,4.88-1.28,9.84-2.4,14.65-3.9,5.14-1.61,10.21-3.4,15.41-4.71l-10.57-4.06c-19.98,6.93-39.96,13.86-60.07,20.38-20.03,6.49-40.21,12.5-60.63,17.67-5.63,1.43-11.27,2.81-16.93,4.09-5.76,1.3-11.66,1.86-17.42,3.1l11.38,7.43c20.96-4.51,41.9-9.1,62.81-13.86,21.11-4.81,42.2-9.69,63.31-14.5,11.71-2.67,23.4-5.55,35.17-7.95,1.42-.29,3.14-1.43,1.32-2.62-2.12-1.38-5.35-1.8-7.82-1.68-11.98,.58-23.45,3.26-34.9,6.7-10.06,3.02-20.09,6.15-30.23,8.88-20.41,5.49-40.93,11.39-61.87,14.52-5.94,.89-11.82,1.98-17.74,3.03-5.96,1.05-12.09,1.69-17.93,3.28-.93,.25-.48,1.37-.18,1.86,.69,1.13,2.14,2.19,3.22,2.86,2.2,1.38,5.61,3.38,8.35,2.64,2.57-.69,5.14-1.38,7.72-2.06s5.02-1.13,7.61-1.53c5-.78,9.98-1.56,14.98-2.34,10.06-1.57,20.14-3.07,30.22-4.5,20.63-2.93,41.48-4.71,62.22-6.6,12.5-1.14,25.02-2.07,37.53-3.08,.75-.06,1.45-.52,1.19-1.33-.3-.92-1.95-1.84-2.67-2.22-2.81-1.48-6.15-2.55-9.36-2.29-20.97,1.7-41.92,4.05-62.81,6.6-10.16,1.24-20.31,2.55-30.45,3.94-.58,.08-1.16,.16-1.74,.23-.64,.08-.13,0,0,0-.57,.06-1.14,.13-1.71,.2-1.34,.16-2.67,.31-4.01,.47-2.48,.29-4.96,.59-7.44,.9-5.05,.62-10.1,1.26-15.15,1.92-5.54,.73-11.09,1.48-16.62,2.29-1.83,.27-3.66,.54-5.49,.82-1.41,.21-2.92,.62-4.34,.65-3.38,.07-6.81,.25-10.21,.44l9.64,7.65c5.33-.33,10.61-1.58,15.85-2.59s10.35-1.81,15.4-3.11c5.55-1.43,11.04-3.11,16.63-4.4,5.18-1.19,10.35-2.43,15.51-3.72,20.39-5.09,40.49-11.05,60.44-17.65,10.83-3.59,21.39-7.16,32.84-7.88l-10.36-2.81-.02,.11,2.18-1.42c-10.48,2.34-21.07,4.22-31.6,6.32-11.09,2.22-22.18,4.4-33.28,6.59-20.81,4.1-41.66,8.06-62.41,12.42-11.72,2.46-23.45,4.93-35.17,7.4-2.47,.52,2.56,4.47,3.02,4.76,2.31,1.47,5.51,3.27,8.36,2.67,5.62-1.19,11.04-3.18,16.6-4.6,5.08-1.3,10.16-2.61,15.23-3.99,10.21-2.79,20.37-5.78,30.48-8.92,19.95-6.2,39.77-12.77,59.52-19.61,11.21-3.88,22.38-7.84,33.56-11.79,2.56-.91-.27-2.64-1.43-3.08-2.65-1.02-6.34-1.7-9.14-.98-5.25,1.35-10.55,2.31-15.88,3.31-4.26,.8-8.47,1.94-12.69,2.95-8.5,2.03-17,4.03-25.52,5.99-18.1,4.15-36.27,7.96-54.47,11.64-9.69,1.96-19.39,3.84-29.14,5.48l9.63,7.33c5.12-.9,10.09-2.67,15.19-3.72s9.71-2.03,14.55-3.11c9.68-2.17,19.32-4.51,28.92-7,19.22-4.97,38.29-10.47,57.3-16.17,10.8-3.24,21.66-6.3,32.49-9.44,2.58-.75-.62-2.67-1.63-3.06-2.54-.99-5.65-1.63-8.35-.96-35.49,8.92-71.43,15.91-107.38,22.65-10.58,1.98-21.15,3.98-31.72,6l6.9,5.19c7.83-3.04,16.4-4.36,24.65-5.83,8.83-1.57,17.66-3.09,26.47-4.76,17.9-3.4,35.73-7.17,53.47-11.32,35.39-8.29,70.47-17.96,105.08-29.07,19.52-6.27,38.89-12.98,58.23-19.77,1.2-.42-1.24-2.23-1.55-2.45-.94-.64-3.05-2.03-4.3-1.55h0Z"/><path class="cls-1" d="M728.37,434.38l-.12,.12,.89-.22h-.18l2.84,1.09-.15-.11,.88,.9c-.15-.29,1.92-.22,2.26-.23,1.07,0,2.15-.01,3.22-.01,2.09,0,4.17,0,6.26,.04,4.18,.06,8.36,.22,12.53,.51s8.27,.75,12.36,1.46c3.75,.65,7.32,1.54,10.68,2.67,3.69,1.24,7.48,2.99,11.02,5.26l1.49-1.78c-2.97-.46-5.96-.83-8.93-1.29-.62-.1-1.71-.27-2.05-.33-.24-.04-1.27-.22-1.81-.32-1.5-.27-2.99-.55-4.48-.85-5.76-1.16-11.48-2.52-17.12-4.14l1.52,3.51c1.55,.14,3.1,.32,4.63,.59-.8-.14,.64,.14,.65,.14,.38,.08,.77,.16,1.15,.25,.76,.17,1.53,.35,2.29,.54,.38,.09,.76,.19,1.13,.28,.15,.04,1.41,.37,.64,.17s.49,.14,.63,.18c.37,.11,.74,.22,1.11,.33,1.56,.47,3.1,.97,4.63,1.5,.66,.23,1.59,.41,2.19,.78l-.62-.23c.22,.08,.43,.16,.65,.24,.36,.14,.72,.27,1.08,.41,1.44,.55,2.86,1.12,4.29,1.7,3.35,1.36,6.7,3.15,10.17,4.15,.5,.14,7.57,2.04,6.69-.5-.78-2.29-3.25-3.74-5.37-4.57-1.69-.65-3.66-1.39-5.51-1.18-.93,.1-2.05,.63-.98,1.65-.13-.13-.05-.4-.07-.1s-.11,.5-.23,.77l9.74,1.36c-1.77-1.03-3.79-1.7-5.69-2.46-1.61-.64-3.21-1.26-4.83-1.88-3.5-1.33-7.01-2.6-10.58-3.72-7.09-2.22-14.33-3.83-21.74-4.45-.7-.06-3.06-.34-2.7,.99,.11,.4,.7,.81,1.01,1.03,.91,.65,2.14,1.18,3.21,1.48,6.41,1.8,12.88,3.39,19.41,4.66s13.49,2.48,20.3,2.96c.39,.03,1.32-.04,1.51-.53s-.63-1.13-.93-1.31c-18.37-11.12-39.84-13.15-60.86-12.72-1.55,.03-3.09,.07-4.64,.12-1.03,.03-2.62-.22-3.57,.27-1.22,.63,.11,1.7,.77,2.12,.76,.48,3.14,1.78,3.88,.71,.55-.78-3.66-2.91-4.54-2.01h0Z"/><path class="cls-1" d="M709.08,411.24c-1.38-.24-2.77-.47-4.13-.78s-2.6-.83-3.91-1.22l.27,1.56c4.16,0,8.35-.7,12.45-1.35s7.89-1.47,11.8-2.4c7.99-1.89,15.88-4.17,23.71-6.65,15.5-4.92,30.84-10.32,46.22-15.58,31.24-10.69,62.48-21.39,93.66-32.26,17.54-6.11,35.08-12.23,52.63-18.33,1.37-.48-.27-1.43-.81-1.62-1.37-.47-3.33-.73-4.73-.25-31.74,10.7-63.48,21.39-95.22,32.12-30.92,10.45-61.67,21.41-92.62,31.74-8.24,2.75-16.54,5.35-24.95,7.54-4.21,1.1-8.45,2.02-12.7,2.93s-8.36,1.29-12.38,2.42c-.61,.17-.35,.64,0,.92,.62,.48,1.61,.7,2.38,.76,1.32,.1,2.67,.03,3.97,.21,1.43,.19,2.85,.48,4.27,.75,.87,.16,.99-.35,.1-.5h0Z"/><path class="cls-1" d="M668.31,454.33c2.65,1.9,4.95,4.37,6.85,7.01,.95,1.32,2.27,2.47,3.37,3.69s2.22,2.52,3.29,3.8c4.4,5.3,9.02,10.39,13.25,15.84,8.75,11.26,16.44,23.3,25.09,34.63,5.04,6.59,10.59,12.6,16.68,18.23s12.53,11.04,18.81,16.53,12.32,10.58,18.67,15.64c6.02,4.8,12.07,9.59,18.48,13.85,12.39,8.25,26.42,14.91,41.44,16.13,2.12,.17,4.25,.22,6.38,.2,1.67-.02,3.47-1.72,3.94-3.24,.51-1.62-.51-2.56-2.07-2.52-14.58,.37-28.43-5.13-40.67-12.66-6.2-3.81-12.29-8.11-17.8-12.86s-11.35-10.21-16.86-15.49c-2.91-2.8-5.79-5.63-8.64-8.5s-5.39-5.99-7.97-9.05c-5.09-6.03-9.8-12.38-14.73-18.55-8.71-10.9-16.41-22.56-24.68-33.79-4.56-6.19-9.29-12.2-14.67-17.69-2.69-2.74-5.61-5.17-8.7-7.46-1.43-1.06-2.85-2.15-4.45-2.92-1.7-.82-3.35-1.76-5.04-2.61s-3.19-1.61-4.76-2.5c-1.78-1.01-7.25,2.81-5.2,4.29h0Z"/><path class="cls-1" d="M671.59,455.02c2.23,1.41,4.6,2.62,6.91,3.9s4.83,2.33,6.91,3.86c1.21,.89,5.7-1.54,4.74-3.08-1.85-2.96-6.13-4.65-5.78-8.7,.03-.29,.26-.72,.25-.98,.08-.18,.1-.22,.06-.13-.2,.19-.42,.35-.66,.5-.68,.47,.08,.01,.38-.08,.51-.16,1.03-.31,1.55-.46,2.13-.63,4.25-1.26,6.37-1.92,8.58-2.7,17.1-5.49,25.58-8.47,1.46-.51,4.19-1.61,4.34-3.47s-2.87-1.31-3.8-1.04c-10.05,2.93-20.06,6-29.95,9.43-4.1,1.42-12.03,3.45-11.46,9.18,.45,4.48,4.96,7.03,8.37,9.21l4.48-3.34c-2.62-.91-5.13-2.36-7.64-3.54s-5.04-2.45-7.64-3.51c-1.07-.44-4.33,1.8-3.02,2.62h0Z"/><path class="cls-1" d="M893.72,403.49l.81-1.17-5.73-.07c.35,1.48,2.85,2.18,4.15,2.57,2.21,.67,4.44,1.02,6.73,1.29,.87,.1,1.75,.19,2.62,.31,.14,.02,.49,0,.6,.08-.08-.06-1.18-.19-.17-.03,.59,.1,1.18,.2,1.76,.34,.19,.04,1.26,.38,.74,.19-.57-.21,.1,.05,.17,.08,.26,.11,.52,.21,.78,.33,.39,.17,.77,.36,1.15,.55,.19,.1,.38,.2,.57,.3,.7,.35-.89-.51,.27,.15,7.94,4.52,16.24,8.46,24.4,12.55,2.88,1.44,5.82,3.26,9.03,3.78,2.65,.43,6.54,.4,8.71-1.45,1.44-1.22,1.16-3.05-.33-4.1-1.97-1.39-4.72-1.84-7.1-1.53-1.6,.21-4.48,.72-4.7,2.73,1.47-1.14,1.79-1.54,.95-1.18l3.13-.77-.35,.04,3.75,.09c2.18,.74,2.72,.86,1.62,.34l-.89-.45-1.79-.9c-1.19-.6-2.39-1.2-3.58-1.79-2.24-1.12-4.47-2.24-6.71-3.35-4.52-2.26-9.07-4.44-13.61-6.63-5.13-2.47-10.32-4.05-16.05-4.1-2.1-.02-4.2,.11-6.3,.11-.28,0-.55,0-.83,0,.46,.02,.42,.01-.11,0-.3-.03-1.14-.11-1.2-.12-1.29-.21-2.48-.66-3.79-.8-.7-.08-3.74,.06-3.63,1.38s2.92,1.18,3.74,1.05l.75-.13-.7-.09,.53,.48c.1,.11,.6,.14,.61-.07h0Z"/><path class="cls-1" d="M954.51,356.87c1.83,.35,3.69,.44,5.52,.77,1.69,.31,3.37,.71,5.03,1.13,3.47,.88,6.87,2.01,10.26,3.15,8.08,2.72,16.12,5.3,24.76,5.28,2.34,0,4.95-.26,7.14-1.16,1.13-.46,2.15-1,3.04-1.83,1.01-.95,.94-1.91,.3-3.04-1.35-2.35-6.06-2.43-8.25-1.59-1.2,.46-2.25,.91-3.32,1.63-.17,.12-.35,.22-.54,.32,.54-.24,.59-.26,.13-.07-.19,.06-.99,.29-.36,.15-.23,.04-.46,.08-.69,.11,.91-.07,1.05-.09,.44-.04-.23,.01-.47,.02-.7,.03-.66,0-.46,.01,.6,.03-.86-.29-2.14-.11-3.06-.19-.56-.05-1.19-.04-1.74-.18,1.63,.42-.25-.05-.61-.1-1.02-.16-2.05-.34-3.07-.52-2.2-.38-4.39-.83-6.57-1.33-4.44-1.02-8.84-2.22-13.31-3.1-2.47-.48-4.94-.87-7.45-1.05-2.35-.17-4.82-.36-7.14,.08-.41,.08-1.27,.22-1.38,.73s.57,.74,.95,.82h0Z"/><path class="cls-1" d="M1041.22,304.37c.32,4.6,3.03,8.99,6.3,12.14,1.18,1.14,2.96,1.65,4.56,1.68,.61,.01,3.28-.16,2.59-1.44-2.53-4.75-7.31-8.05-12.16-10.09-.69-.29-5.15-1.26-4.59,.72,.27,.96,.56,1.92,.84,2.88l5.7-.33c.81,.5,.45,.43,.31-.05-.09-.31-.1-.62-.08-.93,.05-.62,.26-1.28,.63-1.77,1.07-1.4,3.05-1.66,4.67-1.92l-6.14-3.07c-.44,2.11-1.44,3.72-3.06,5.14-1.92,1.69,3.5,3.56,4.36,3.71,1.25,.22,2.5,.43,3.75,.64l-2.25-4.45c-.49-.01-.47,.01,.05,.07,.62,.13,1.21,.36,1.76,.69,.37,.3,.39,.31,.05,.02,.19,.22,.21,.24,.06,.05-.39-.52-.67-1.19-.62-1.86,.11-1.5-1.31-2.44-2.5-3.09-1.66-.9-3.87-1.64-5.78-1.39-1.55,.2-3.08,.77-3.52,2.43-.32,1.2-.25,2.58,.17,3.74,.6,1.67,1.71,3.25,2.62,4.77s2.03,3.09,3.09,4.6c4.29,6.09,8.96,11.99,13.97,17.51,4.98,5.49,10.45,10.56,16.41,14.96,6.93,5.12,14.49,9.14,22.43,12.48,8.34,3.5,17.12,5.5,26.11,6.31,1.33,.12,3.26-.12,4.03-1.37,.81-1.31,0-2.4-.86-3.46-1.47-1.83-3.11-3.51-4.71-5.23-1.9-2.04-5.3-3.06-8-2.91-1.74,.09-4.46,1.28-2.91,3.49s2.93,4.19,4.56,6.17l3.17-4.83c-.85-.05-1.69-.12-2.53-.2-1.4-.13,1,.17-.38-.05-.28-.04-.55-.08-.83-.12-1.66-.26-3.31-.6-4.95-.95-.76-.16-1.51-.33-2.26-.51-.34-.08-.68-.17-1.02-.26-.25-.07-1.64-.44-.22-.05-1.62-.45-3.22-1.05-4.8-1.63-.67-.25-1.34-.51-2.01-.78-.38-.15-.8-.4-1.2-.49l.93,.41c-.26-.12-.53-.24-.79-.36-1.44-.66-2.86-1.37-4.26-2.11-.38-.2-.77-.41-1.14-.62-1.26-.7,.84,.52-.39-.23l-1.51-.83c.88,.48,1,.55,.38,.2-.25-.15-.5-.29-.74-.44-1.48-.9-2.91-1.87-4.35-2.83-5.33-3.57-10.27-7.73-14.83-12.24-2.32-2.3-4.57-4.68-6.72-7.13-.53-.6-1.04-1.2-1.54-1.82-.15-.18-.76-.93-.17-.2-.27-.34-.55-.68-.82-1.03-1.08-1.37-2.15-2.77-3.19-4.17-2.18-2.95-4.2-6.01-6.35-8.99-1.04-1.45-2.15-2.88-3.13-4.37-.53-.81,.08,.29-.12-.23-.13-.33-.26-.66-.29-1.01,.05,.57,0-.38,.07-.3,.13-.27,.11-.27-.06,0-.42,.16-.46,.18-.12,.06l-9.25-3.63c.95,5.67,8.19,8.76,13.34,8.31,1.49-.13,2.17-1.16,1.1-2.34-1.32-1.46-3.54-2.02-5.4-2.22-1.22-.13-2.44-.26-3.66-.39l5.39,3.84c1.55-1.78,2.6-3.94,3.06-6.26,.2-1.04-1.17-1.82-1.89-2.19-1.22-.61-2.87-1.12-4.25-.88-2.77,.48-6.1,1.11-7.59,3.79s.06,5.21,2.43,6.47c1.19,.63,2.64,1.05,3.99,.94,.56-.05,2.12-.31,1.71-1.27s-.83-2.01-1.26-3l-4.59,.72c3.47,1.19,5.57,3.91,7.21,7.05l7.16,.23c-3.39-3.13-5.13-6.88-6.65-11.16-.4-1.13-2.44-1.53-3.42-1.63-.57-.06-3.16-.2-3.08,.89h0Z"/><path class="cls-1" d="M1051.24,295.17c.25-1.23-1.7-1.8-2.61-1.88-1.59-.14-1.78,.96-1.41,2.23,.92,3.11,2.17,6.08,3.59,9,2.92,5.95,6.48,11.42,10.97,16.3,.68,.74,1.73,1.17,2.74,1.19,.54,.01,1.76-.24,1.13-1.03-3.15-3.93-6.12-8.09-8.71-12.41-1.32-2.21-2.54-4.47-3.64-6.8-.39-.82-3.44-6.51-2.72-6.95l-.88,.2,.23,.02-1.93-.71-.21-.2c-.51,.83,3.2,2.27,3.45,1.05h0Z"/><path class="cls-1" d="M1061.23,292.26c.56-.33,1.2-.6,1.73-.96s1.01-.97,1.45-1.47c.92-1.06,1.85-2.13,2.71-3.24,1.62-2.08,3.33-4.1,5.08-6.07,3.55-4,7.13-7.95,10.91-11.73,7.63-7.63,15.67-14.86,23.55-22.22,16.87-15.75,33.39-31.89,49.47-48.45,4.53-4.66,9.02-9.36,13.48-14.09,2.42-2.57,4.83-5.14,7.24-7.72,1.08-1.16,2.16-2.32,3.23-3.49s2.62-2.46,3.43-3.9c.36-.64-.31-1.56-.67-1.99-.74-.89-1.91-1.67-2.94-2.17-1.51-.73-4.08-1.88-5.49-.44-.91,.93-2.01,1.69-3.03,2.51-2.27,1.81,5.08,6.11,7.17,4.93,1.5-.85,2.97-1.72,4.54-2.42l-8.27-5.43c-1.19,.88-2.13,2.14-3.12,3.23s-2.06,2.27-3.1,3.4c-1.96,2.14-3.93,4.28-5.9,6.41-4.08,4.41-8.21,8.78-12.36,13.13-8.12,8.52-16.35,16.93-24.68,25.24s-16.47,16.17-24.87,24.08c-7.92,7.46-16.05,14.7-23.66,22.47-4.15,4.24-8.29,8.58-11.96,13.24-1.8,2.29-3.5,4.67-5.15,7.08-.81,1.19-1.54,2.39-2.23,3.65-.38,.69-.72,1.37-1.05,2.09-.38,.83-.36,1.69-.42,2.6-.12,1.72,3.78,2.39,4.89,1.74h0Z"/><path class="cls-1" d="M1058.87,270.33c-.49,.93-.93,1.78-1.68,2.53s-1.81,1.17-2.49,2.06c-.99,1.3,3.75,3.94,4.99,2.73,3.82-3.7,7.7-7.34,11.45-11.11s7.59-7.63,11.4-11.44c7.55-7.55,15.07-15.13,22.61-22.69,15.05-15.09,30.14-30.13,45.42-44.98,4.18-4.06,8.36-8.12,12.55-12.17,2.38-2.31,4.77-4.6,7.15-6.9,2.18-2.1,4.28-4.34,6.66-6.21,.45-.35-.07-1.42-.23-1.71-.46-.84-1.28-1.65-2.03-2.22-.83-.63-3.32-2.41-4.36-1.24-3.75,4.21-7.9,8.07-11.88,12.06s-7.57,7.59-11.35,11.39c-7.67,7.71-15.31,15.44-22.99,23.13-15.02,15.05-30.02,30.12-44.81,45.39-4.15,4.29-8.3,8.58-12.44,12.88-4.13,4.29-8.11,8.7-12.15,13.08l4.99,2.73c.51-.8,.46-1.87,.84-2.75,.33-.77,.89-1.29,1.46-1.88,.91-.95-2.63-3.62-3.12-2.69h0Z"/><path class="cls-1" d="M459.33,417.86c-.37,0-.73,.02-1.1,.08l.66,.09c-2.01-.68-4.1-.19-5.68,1.23-.93,.83-1.51,2.21-1.54,3.46-.09,3.54,2.92,5.97,5.94,7.15,3.64,1.42,8.41,1.39,11.79-.74,1.31-.82,2.54-1.8,3.39-3.1,.73-1.12,1.42-2.49,1.45-3.87,.02-.77-.06-1.61-.4-2.31-.67-1.38-1.9-2.18-3.35-2.62-1.3-.39-3.76-.95-4.49,.6-.32,.68,.18,1.56,.26,2.28l-.04-.51c.08,1.27-.27,2.52-.85,3.64l.25-.46c-.46,.83-1.03,1.56-1.73,2.19-.23,.21-.47,.4-.71,.59,0,0-.6,.41-.26,.19-.45,.29-.92,.55-1.4,.79-.27,.13-.54,.24-.81,.36-.52,.23,.45-.07-.16,.05-.24,.05-.62,.23-.87,.18l.37-.05c-.15,.01-.3,.02-.45,.02,.54,.02,.62,.02,.23,0-.3-.03-.27-.02,.09,.03,.35,.06,.38,.06,.08,0-.38-.09-.27-.05,.33,.11-.13-.04-.26-.08-.39-.13-.26-.1-.26-.1,.01,.01,.27,.12,.28,.11,.02,0-.13-.06-.25-.13-.37-.2,.52,.47,.08,.04-.07-.08-.11-.08-.22-.17-.33-.26,.19,.18,.19,.18-.01-.01-.33-.35-.67-.71-.92-1.13,.1,.17-.15-.33-.15-.32-.11-.25-.21-.51-.29-.77-.11-.4-.17-.78-.15-1.19,.05-.89,.36-1.76,.74-2.56,.14-.3,.3-.61,.47-.9,.1-.16,.22-.3,.33-.45,.27-.38,.2-.45,.14-.96l-.36,.21c.21-.02,.4-.03,.61-.02,.19,0,.57-.05,.51-.31s-.62-.31-.8-.31h0Z"/><path class="cls-1" d="M466.3,417.38c-.14-.03-.67-.33-.48-.15-.06-.05,.41,.29,.25,.16-.26-.21,.26,.35,.28,.39,.34,.57,.57,1.45,.62,2.18,.12,1.7-.32,3.58-.79,5.2-.45,1.52-1.08,3.03-2.23,4.15-.55,.53-.99,.85-1.64,1.12-.05,.02-.63,.22-.36,.14,.25-.07-.38,.06-.38,.06-.14,.02-.32,0-.46,.05,.12-.05,1.04,.06,.46-.03-.76-.11-2.83-.23-2.81,.99s1.97,1.97,2.87,2.19c2.93,.7,5.87,.47,8.26-1.51,1.77-1.47,2.74-3.71,3.18-5.92s.86-5.07-.11-7.25c-1.24-2.8-4.54-4.54-7.54-4.23-.55,.06-1.74,.26-1.47,1.09s1.62,1.21,2.36,1.37h0Z"/><path class="cls-1" d="M456.44,425.8c-.39,.57-.47,.86-.32,1.53,.12,.56,.35,1.06,.63,1.56,.53,.93,1.31,1.65,2.21,2.23,2.54,1.62,5.92,2.37,8.85,1.48,2.34-.72,4-2.4,5.05-4.58s1.06-4.95,.61-7.35c-.25-1.35-.67-2.69-1.33-3.9-.89-1.64-2.29-2.66-4.07-3.21-3.29-1.01-6.38-.09-8.69,2.39-3.2,3.44-4.77,8.84-1.88,12.97,1.83,2.61,5,4.16,8.02,4.9,2.85,.69,6.38,.83,8.57-1.46,1.08-1.12-.98-2.44-1.84-2.83-1.33-.6-3.45-1.27-4.79-.32-.17,.12-.34,.24-.53,.34,.4-.22-.2,.07-.23,.08-.13,.05-.25,.1-.38,.14l-.19,.06c-.3,.08-.26,.07,.12-.02-.22,.14-.71,.1-.98,.14-.69,.11,.81,.05,.11,0-.91-.07,.39,.08,.12,.04-.39-.07-.39-.25,.19,.07l-.19-.05c-.41-.13-.26-.07,.45,.19-.11-.06-.25-.11-.37-.15-.71-.27,.8,.49,.16,.09-.11-.07-.39-.31-.52-.32,.36,.04,.51,.4,.21,.14-.15-.13-.31-.27-.46-.4-.41-.35,.29,.42-.13-.15-.22-.3-.44-.59-.64-.91-.34-.54,.1,.26-.07-.14-.08-.19-.16-.38-.23-.57-.3-.82-.49-1.73-.51-2.6-.03-1.76,.46-3.59,1.23-5.16,.72-1.47,1.79-2.82,3.21-3.65l.22-.09c-.15,.03-.15,.03,0,0l.11-.02c-.75,.1-1.49-.04-2.21-.44-.19,.09-.41-.47-.13,.04,.02,.03,.1,.14,.14,.21,.55,.93,.83,2.13,1.04,3.18,.63,3.21,.13,7.54-2.47,9.83-.33,.29-.51,.41-.88,.59-.18,.09-.38,.17-.57,.24,.43-.14-.12,0-.22,.02,.6-.14,.04-.02-.12,0-.32,0-.26,0,.16,.01-.13,0-.26-.02-.39-.04,.02-.04,.76,.17,.2,.02,.86,.24-.04-.03-.22-.1,.65,.26,.13,.02,.07,.01-.23-.13-.24-.13-.04,0-.12-.08-.24-.16-.35-.24-.24-.18-.66-.51-.78-.62-.76-.71-1.14-1.68-1.79-2.48-.38-.47-1.03-.72-1.6-.84-.36-.07-1.31-.24-1.58,.16h0Z"/><path class="cls-1" d="M475.82,423.64c2.81,.04,5.62-.14,8.43-.01s5.49,.3,8.21,.61c.45,.05,1.56,0,1.53-.65s-1.22-.99-1.7-1.1c-3-.66-5.98-1.08-9.05-1.16s-6.08-.12-8.95,.57c-.51,.12-.85,.47-.49,.95,.41,.53,1.39,.79,2.02,.8h0Z"/><path class="cls-1" d="M471.73,422.92c2.68,.03,5.39-.65,8.04-1.05,2.5-.38,5-.82,7.51-1.18,5.03-.73,10.08-1.33,15.15-1.75,10.14-.85,20.3-1.04,30.46-.86,5.79,.1,11.57,.45,17.33,.95,.79,.07,2.76,0,2.48-1.25s-2.66-1.61-3.59-1.7c-21.05-2.13-42.24-1.58-63.17,1.5-2.78,.41-5.55,.86-8.31,1.36-1.4,.26-2.78,.57-4.16,.88s-2.86,.47-4.04,1.18c-1.51,.92,1.68,1.91,2.31,1.92h0Z"/><path class="cls-1" d="M525.03,421.02c6.23-.49,12.51-.59,18.75-.91s12.17-.61,18.25-.95c12.11-.67,24.22-1.38,36.33-2.13,6.74-.42,13.47-.94,20.21-1.44,.73-.05,1.88-.31,1.25-1.25-.58-.87-2.31-1.27-3.27-1.23-24.51,.99-49,2.38-73.49,3.95-6.86,.44-13.74,1.12-20.61,1.36-.91,.03-2.09,.42-1.16,1.44,.87,.96,2.52,1.25,3.74,1.16h0Z"/><path class="cls-1" d="M531.72,420.7c-.73,2.24,2.54,3.45,4.19,3.74,3.41,.6,6.96-.89,10.23-1.7,7.77-1.93,15.54-3.85,23.36-5.58,15.69-3.49,31.53-6.36,47.43-8.69,4.49-.66,8.98-1.24,13.48-1.84,2.38-.31,4.76-.61,7.15-.89,2.21-.26,4.49-.45,6.65-.99,.67-.17,1.06-.61,.57-1.19-.57-.67-1.89-.87-2.7-.88-4.28-.08-8.61,.57-12.87,1.03-3.68,.4-7.34,.85-11.01,1.35-7.35,.99-14.68,2.12-21.99,3.38-14.67,2.54-29.25,5.8-43.66,9.52-4,1.03-7.97,2.16-11.93,3.33-1.57,.47-3.27,1.27-4.9,1.45-.39,.04-1.06,.09-1.43-.09,.5,.25,.01,0,.04-.2,.05-.34,.02-.55,.19-.88,.36-.72-2.5-1.79-2.81-.85h0Z"/><path class="cls-1" d="M631.68,391.44c-5.09,4.03-8.21,10.07-9.1,16.47l6.73,1.9c-.15-6.2,1.86-12.29,6.17-16.84l-6.26-2.42c.53,4.2,.91,8.41,1.34,12.62,.13,1.3,2.34,2.2,3.33,2.5,.67,.21,3.28,.89,3.52-.32,.72-3.56,1.31-7.15,1.94-10.73l-6.78-2.16c.23,4.47,.32,8.94,.66,13.4s.9,8.97,1.46,13.43c.28,2.19,7.06,4.15,6.81,1.69-.46-4.45-.79-8.9-1.15-13.35s-.81-8.96-.97-13.46c-.04-1.27-2.37-2.21-3.29-2.5-.67-.21-3.26-.87-3.49,.34-.69,3.57-1.41,7.13-2.01,10.71l6.85,2.19c-.58-4.23-1.2-8.46-1.67-12.7-.12-1.08-1.9-1.91-2.73-2.23s-2.77-.95-3.53-.18c-4.75,4.87-7.53,11.68-6.94,18.53,.16,1.86,6.59,3.73,6.73,1.9,.45-6.26,3.02-12.07,6.86-16.99,1.04-1.34-3.47-2.59-4.47-1.8h0Z"/></g><g><path class="cls-3" d="M668.85,454.62c8.31,12.09,16.7,24.13,25.4,35.95s17.65,23.36,27.13,34.51c9.38,11.02,19.28,21.61,29.88,31.46s22.13,19.28,34.37,27.31c12.2,8,25.61,14.73,40.07,17.34,3.56,.64,7.19,1.06,10.81,1.11,2.65,.04,5.77-.33,7.5-2.59,2.11-2.78,1.33-6.86,.33-9.9-1.21-3.69-2.87-7.19-4.78-10.57-4.03-7.13-8.9-13.82-13.41-20.65-4.73-7.17-9.56-14.27-14.34-21.4s-9.39-13.74-13.98-20.68c-4.05-6.11-8.03-12.71-8.94-20.13-.4-3.25-.03-6.64,1.25-9.67s3.15-5.48,4.8-8.16c3.47-5.64,5.44-12.7,1.78-18.8-3.01-5.02-8.74-7.55-14.11-9.21-7.68-2.37-15.51-4.34-23.25-6.5-3.95-1.1-7.9-2.22-11.85-3.35-1.82-.52-1.97,4.59-.5,5.02,7.9,2.3,15.79,4.63,23.68,6.97,6.35,1.88,13.19,3.32,18.99,6.63,2.18,1.25,4.36,2.86,5.58,5.11,1.06,1.96,.93,3.55,.04,5.7-1.18,2.84-3.05,5.32-4.68,7.9-1.87,2.96-3.42,6.05-4.12,9.51-1.56,7.72,.06,15.66,3.31,22.73,3.17,6.9,7.79,13.08,12.04,19.34,9.49,14,19.07,27.93,28.72,41.82,4.16,6,8.8,11.95,11.79,18.64,.65,1.45,1.5,3.14,1.57,4.76s-1.25,2.88-2.67,3.49c-2.85,1.22-6.47,.75-9.46,.49-14.35-1.22-27.9-6.92-40.17-14.21s-23.82-16.23-34.55-25.73c-10.53-9.32-20.4-19.38-29.75-29.89-18.95-21.31-35.61-44.45-52.15-67.64-1.98-2.78-3.96-5.56-5.93-8.34-.25-.36-.5,.13-.57,.35-.13,.39-.05,.93,.18,1.27h0Z"/><path class="cls-3" d="M797.19,459.24c.89,.35,1.27,.41,2.2,.12s1.85-.59,2.78-.89c1.78-.58,3.56-1.17,5.33-1.78,3.54-1.21,7.07-2.47,10.57-3.78,7.07-2.64,14.05-5.51,20.95-8.57,13.74-6.09,27.23-12.92,40.18-20.56,3.62-2.14,7.19-4.35,10.73-6.62,1.77-1.13,3.53-2.28,5.28-3.44,.88-.58,1.75-1.16,2.63-1.75,1.05-.71,1.72-1.46,2.43-2.5,.22-.33,.37-2.25-.27-2.25-1.75,0-3.09,1.28-4.49,2.22-1.56,1.05-3.14,2.08-4.72,3.1-3.16,2.04-6.35,4.04-9.56,5.99-6.44,3.92-12.92,7.75-19.56,11.33-13.32,7.18-27.05,13.56-41.08,19.23-3.87,1.56-7.76,3.06-11.67,4.5-1.98,.73-3.97,1.44-5.96,2.13-1,.35-1.99,.69-2.99,1.03-1.27,.43-1.88,.7-2.8,1.73-.11,.13-.19,.68,.02,.76h0Z"/><path class="cls-3" d="M851.66,430.97c3.32-1.42,6.5-3.17,9.72-4.82s6.46-3.38,9.69-5.09c6.38-3.39,12.75-6.79,19.13-10.18,1.54-.82,3.08-1.64,4.61-2.46s3.13-1.78,4.88-2.1c3.37-.6,6.82,1.62,9.78,2.94,6.66,2.97,13.32,5.94,19.98,8.92,7.42,3.32,14.84,6.63,22.24,10,.85,.39,.57-2.06,.45-2.37-4.87-13.43-4.6-28.55,.4-41.9,1.44-3.84,3.3-7.53,5.46-11.01,.29-.47,.57-3.65-.41-3.55-12.31,1.22-24.64,2.34-36.93,3.78-.71,.08-.59,2.92,.07,2.87,12.33-.76,24.64-1.85,36.95-2.83l-.41-3.55c-8.52,13.22-11.74,29.99-9.25,45.48,.7,4.36,1.87,8.6,3.42,12.73l.45-2.37c-13.52-5.82-26.97-11.78-40.44-17.7-2.95-1.3-6.04-3.12-9.23-3.73-3.37-.65-6.4,1.5-9.22,3.02-6.52,3.51-13.04,7.03-19.56,10.55-3.66,1.98-7.34,3.92-10.98,5.96s-7.42,4-10.94,6.28c-.24,.15-.17,1.27,.14,1.14h0Z"/><path class="cls-3" d="M941.76,372.42c3.44-2.13,6.92-4.22,10.37-6.33,1.71-1.05,3.43-2.08,5.15-3.11,1.84-1.09,3.76-2.1,5.31-3.6,.17-.16,.26-1.4-.1-1.33-1.93,.41-3.64,1.62-5.32,2.62s-3.44,2.07-5.15,3.13c-3.56,2.2-7.04,4.52-10.49,6.89-.39,.27-.18,1.98,.22,1.74h0Z"/><path class="cls-3" d="M944.85,369.03c-1.44-.8-1.97,3.27,.06,3.45,1.65,.15,3.15-1.81,4.25-2.78,1.47-1.31,2.95-2.6,4.44-3.87,6-5.1,12.07-10.09,18.44-14.73,12.71-9.27,26.23-17.51,40.32-24.5,3.97-1.97,7.98-3.83,12.04-5.59,2.1-.91,4.22-1.79,6.34-2.65,1.06-.43,2.12-.85,3.19-1.26,.46-.18,.95-.33,1.4-.54,.66-.3,1.02-.77,1.5-1.31,.4-.45,.55-2.42-.18-2.65-1-.31-1.46-.19-2.42,.18-.87,.34-1.73,.68-2.59,1.02-1.73,.69-3.44,1.4-5.15,2.13-3.22,1.37-6.41,2.8-9.57,4.29-6.59,3.12-13.06,6.51-19.37,10.16-12.56,7.27-24.41,15.68-35.53,25-3.15,2.64-6.26,5.34-9.24,8.18-1.53,1.45-3.04,2.92-4.54,4.41-.69,.68-1.36,1.53-2.2,2.03-.32,.19-1.26,.66-1.64,.27-.27-.29,.06-.44,.43-.41,.23,.02,.18-.74,.02-.83h0Z"/><path class="cls-3" d="M1033.99,311.39c-.42,0,.63,1.27,.77,1.49,.24,.37,.46,.75,.69,1.12,.52,.84,1.08,1.65,1.65,2.45,1.08,1.53,2.17,3.06,3.27,4.57,2.25,3.09,4.55,6.14,6.94,9.12,4.75,5.92,9.81,11.61,15.23,16.93s10.93,9.98,17,14.2c6.35,4.42,13.21,8.47,20.54,10.99,4.22,1.45,8.66,2.36,13.14,2.16,2.31-.1,4.59-.49,6.8-1.18s4.38-1.46,5.99-3.04c.3-.29,.49-2.47-.18-2.32-2.05,.47-3.87,1.63-5.89,2.26s-4.2,1.02-6.35,1.15c-4.34,.25-8.68-.54-12.79-1.89-7.91-2.6-15.29-7.08-22.03-11.89-13.03-9.32-23.93-21.15-33.75-33.73-2.75-3.53-5.42-7.13-8.01-10.78-.44-.62-2.41-4.01-3.43-2.59-.26,.37-.17,2.01,.43,1.37,.05-.05,.09-.39-.03-.39h0Z"/><path class="cls-3" d="M1126.52,367.98c.37-1.94-.36-4.29-1.05-6.08-.93-2.41-2.24-4.64-3.62-6.81-2.9-4.58-5.91-9.04-8.61-13.75s-5.48-9.81-8.25-14.7c-2.55-4.51-5.21-9.01-7.08-13.86-.53-1.37-.94-2.75-1.28-4.17-.21-.85-.55-2.42-1.74-2.29-1.3,.15-1.3,2.24-1.16,3.13,.07,.49,.6,2.12,1.39,1.39,.62-.58,.53-1.77,.36-2.51l-.02-.08c-.09-.38-.52-1.16-.92-.55l-.03,.05,.54-.18,.32,.75-.34,2.34,.04-.06-.44,.3c-.09,0-.6-1.91-.14-.07,.04,.17,.1,.34,.15,.51,.14,.51,.28,1.03,.44,1.54,.35,1.14,.71,2.27,1.12,3.38,.75,2.06,1.62,4.08,2.59,6.05,1.96,3.99,4.22,7.82,6.41,11.69,4.59,8.08,9.2,16.21,14.68,23.74,1.29,1.77,2.75,3.42,3.96,5.26,.55,.84,1.06,1.74,1.52,2.63,.41,.81,.52,1.72,.98,2.49,.09,.15,.19-.06,.21-.14h0Z"/><path class="cls-3" d="M1096.76,301.16c2.58-3.44,4.78-7.16,7.09-10.79s4.69-7.35,7.03-11.02c4.77-7.48,9.4-15.06,14.08-22.6,9.33-15.03,18.65-30.07,27.99-45.1,2.59-4.16,5.16-8.33,7.74-12.5,2.42-3.92,6.06-8.31,4.04-13.18l-.47,3.66c3.95,.18,7.86,.74,11.7,1.69,.18-.03,.31-.13,.4-.3,2.45-4.26,4.79-8.52,6.91-12.96,.24-.49,.27-1.17,.12-1.7-.09-.29-.3-.87-.62-.43-1.27,1.77-2.64,3.54-3.74,5.41-1.19,2.03-2.38,4.06-3.58,6.09l.4-.3c-3.84-.98-7.75-1.57-11.7-1.78-1.12-.06-.68,3.13-.47,3.66-.09-.23,.19-.41-.06-.11-.12,.14-.17,.47-.25,.64-.18,.39-.39,.76-.61,1.12-.53,.91-1.1,1.8-1.66,2.69-1.15,1.84-2.29,3.68-3.44,5.52-2.2,3.53-4.38,7.07-6.57,10.61-4.47,7.22-8.94,14.44-13.41,21.66-8.85,14.3-17.86,28.52-26.55,42.92-2.48,4.1-4.95,8.21-7.42,12.32s-5.22,8.39-7.49,12.77c-.24,.46-.31,1.08-.14,1.59,.1,.29,.36,.82,.68,.4h0Z"/><path class="cls-3" d="M1026.5,282.87c7.61-11.42,15.66-22.45,24.82-32.69s19.31-20.08,29.92-29.1c22.7-19.29,47.86-35.46,73.59-50.38,7.3-4.23,14.65-8.36,22.03-12.45s14.75-8.38,23.19-9.35l-.36-2.88c-6.9,11.82-13.98,23.56-20.67,35.5-.32,.57-.31,1.39-.15,2.01,.08,.31,.42,1.07,.76,.51,7.1-11.66,13.81-23.56,20.69-35.35,.23-.4,.51-2.98-.36-2.88-7.29,.84-13.9,4.19-20.25,7.68-6.7,3.68-13.36,7.41-19.99,11.2-13.29,7.6-26.42,15.47-39.2,23.91-23.91,15.79-46.82,33.64-66.18,54.85-10.62,11.64-20.56,24.27-28.21,38.08-.18,.33,.02,1.88,.37,1.35h0Z"/><path class="cls-3" d="M688.77,297.99c-.64-1.15-1.2-2.54-2.04-3.55l-.06,2.07c18.03-6.81,28.69-24.63,38.84-39.91,12.57-18.91,24.67-38.14,36.27-57.65,2.92-4.91,5.81-9.84,8.67-14.79,2.68-4.63,5.24-9.37,8.3-13.76,1.47-2.11,3.06-4.27,4.96-6.02,1.53-1.4,4.25-3.04,6.05-1.11,1.42,1.52,.85,4.67,.83,6.53-.02,2.75-.04,5.51-.04,8.26,.04,21.35,1.22,43.28,9.01,63.41,6.32,16.31,17.12,31.6,32.5,40.43,1.89,1.08,3.81,1.99,5.85,2.75,1.2,.45,1.32-3.39,.34-3.87-8.02-3.92-15.24-8.8-21.32-15.39-6.09-6.6-10.96-14.27-14.61-22.47-8.76-19.63-10.15-41.56-10.3-62.77-.02-2.76-.02-5.51,0-8.27,0-2.45,.19-4.96-.1-7.4-.21-1.79-.76-4-2.39-5.03-1.95-1.23-4.22-.14-5.8,1.18-1.86,1.55-3.4,3.61-4.82,5.55-1.58,2.15-3,4.41-4.36,6.71-2.84,4.79-5.54,9.67-8.34,14.49-11.52,19.85-23.54,39.4-36.03,58.66-5.69,8.78-11.31,17.68-17.6,26.05-5.59,7.43-12.03,14.54-20.13,19.29-1.95,1.14-3.98,2.13-6.07,2.96-.52,.21-.34,1.73-.06,2.07,.63,.74,1.61,1.2,2.43,1.74,.05,.03,.03-.14,.02-.16h0Z"/><path class="cls-3" d="M826.02,277.7c7.74,3.25,16.26,4.6,24.6,5.35s17.05,.75,25.58,.5c17.87-.53,35.71-2.07,53.4-4.61,2.5-.36,5.01-.74,7.5-1.14,1.41-.22,4.3-.09,4.91-1.74,.26-.7,.44-3.5-.93-3.1-1.05,.31-.93,2.32-.34,2.96,.26,.29,.41-.64,.42-.7,.06-.49,.02-1.03-.19-1.47l-.08-.17,.18,1.67,.02-.1-.22,.58c.5-.36,.64,.79,.43-.57l.08-1.45c-.16,.65-1.7,.7-2.18,.78-.97,.17-1.93,.33-2.9,.49-1.93,.32-3.87,.63-5.81,.93-3.88,.6-7.76,1.14-11.65,1.64-7.61,.98-15.25,1.78-22.91,2.39s-15.61,1.06-23.43,1.29c-7.31,.22-14.64,.31-21.95-.19-8.36-.58-16.46-2.18-24.53-4.35-.15-.04-.22,.91-.02,1h0Z"/><path class="cls-3" d="M937.89,277.25c4.55,.04,8.75-3.88,11.94-6.74,1.83-1.64,3.6-3.36,5.42-5.01s3.86-3.74,6.29-4.67c2.58-.99,4.87,0,6.8,1.78s3.43,3.62,5.3,5.28c3.81,3.37,8.17,6.12,12.84,8.14,2.49,1.08,5.07,1.96,7.71,2.62,2.85,.71,5.77,1.26,8.71,.79,.36-.06,.3-1.37-.04-1.47-2.49-.7-5.04-1.03-7.56-1.59s-5.23-1.4-7.73-2.42c-4.7-1.93-9.11-4.59-12.99-7.87-1.93-1.63-3.6-3.47-5.37-5.27-1.65-1.67-3.7-3.22-6.19-2.93s-4.52,2.03-6.31,3.6-3.63,3.4-5.42,5.12c-1.96,1.89-3.96,3.76-6.14,5.4-2.32,1.73-4.88,3.04-7.28,4.62-.1,.07-.11,.61,.04,.61h0Z"/><path class="cls-3" d="M974.08,279.3c9.25,.9,18.55,1.17,27.79,2.28,4.57,.55,9.12,1.23,13.66,2.03s9.13,1.95,13.75,2.55c.24,.03,.25-1.09-.03-1.18-4.45-1.5-9.14-2.27-13.76-3.06s-9.09-1.43-13.65-1.95c-9.17-1.05-18.55-1.88-27.76-1.06-.09,0-.08,.39,0,.39h0Z"/><path class="cls-3" d="M670.66,352.01c12.26,0,24.57-1.01,36.8-1.77s24.75-1.66,37.11-2.68c24.6-2.02,49.17-4.51,73.68-7.46,24.51-2.95,48.97-6.36,73.35-10.23s48.69-8.2,72.91-12.98c24.21-4.78,48.46-9.74,72.36-15.9,2.96-.76,5.91-1.53,8.87-2.31,.28-.08,.17-1.17-.03-1.13-24.09,5.27-48.13,10.8-72.3,15.69s-48.49,9.34-72.85,13.32-48.8,7.51-73.3,10.57-49.05,5.66-73.64,7.8-49.23,3.84-73.89,5.07c-3.04,.15-6.07,.33-9.11,.6-.35,.03-.31,1.41,.03,1.41h0Z"/><path class="cls-3" d="M1161.15,171.31c-2.16,1.34-3.97,3.24-5.85,4.94s-3.75,3.4-5.62,5.12c-3.81,3.51-7.56,7.08-11.31,10.65-7.45,7.08-14.84,14.23-22.16,21.45-14.7,14.49-29.14,29.25-43.31,44.26-8.05,8.53-15.9,17.23-23.64,26.04-.17,.19,0,.99,.11,.87,14.02-15.02,28.1-30,42.44-44.71s29.07-29.3,44-43.54c4.15-3.96,8.32-7.9,12.51-11.82,2.17-2.02,4.31-4.07,6.47-6.1s4.56-4.05,6.46-6.4c.09-.12,.1-.87-.09-.76h0Z"/><path class="cls-3" d="M952.82,366.98c4.74-4.81,11.81-5.47,18.19-4.64,7.89,1.03,15.23,4.54,23.15,5.41,2.32,.25,4.74,.32,7.05-.09,1.46-.26,2.77-.85,3.33-2.3,.29-.74,.25-2.15-.31-2.76-.99-1.11-2.2-1.86-3.04-3.14-.71-1.08-1.25-2.26-1.59-3.5-.7-2.59-.49-5.27,.36-7.79,2.27-6.73,8.21-11.66,13.56-15.96,.62-.49,.46-3.86-.39-3.46-5.02,2.34-10.35,3.02-15.83,3.09-.58,0-.55,2.52,.07,2.65,5.44,1.17,11.15,.02,16.15-2.27l-.39-3.46c-6.2,4.93-12.81,10.65-14.63,18.74-.79,3.52-.79,7.3,.2,10.78,.44,1.54,1.07,3.04,1.98,4.37,.79,1.15,2.08,2.89,3.5,3.23l-.53-2.48c-.23,1.61-3.34,1.69-4.5,1.78-1.99,.15-3.99,.06-5.97-.2-4.03-.51-7.94-1.66-11.84-2.76-6.48-1.82-13.28-3.42-20.01-1.93-3.32,.73-6.38,2.28-8.75,4.75-.39,.41-.03,2.22,.24,1.95h0Z"/><path class="cls-3" d="M451.38,452.22c-.38-.02,.02-.32,.24-.15,.38,.3,.28,.71,.27,1.1-.02,.65-.04,1.27,.07,1.91,.26,1.44,1.03,2.66,2.06,3.67,2.31,2.27,5.49,3.63,8.56,4.54,3.38,1,6.88,1.46,10.36,1.93,4.07,.55,8.14,1.07,12.21,1.55,16.13,1.91,32.32,3.28,48.54,4.2,32.63,1.84,65.33,1.65,97.99,.75,9.19-.25,18.38-.61,27.56-1.06,2.29-.11,4.59-.23,6.88-.35,1.15-.06,2.29-.12,3.44-.19,1.01-.06,2.21,.05,3.18-.21,1.36-.36,1.79-2.07,1.89-3.3,.05-.62,.1-1.67-.27-2.23-.32-.48-.37-.25-.81-.13-.7,.19-.34,2.87,.07,2.76l.23,.04c.58-2.34,.54-3.15-.11-2.41-.14,.06-.33,.21-.46,.3-.64,.39-1.1,.44-1.86,.5-1.96,.17-3.93,.34-5.89,.5-3.77,.31-7.53,.61-11.3,.88-7.7,.57-15.41,1.08-23.12,1.51-15.43,.87-30.84,1.3-46.3,1.31-30.84,.03-61.7-1.34-92.38-4.58-8.36-.89-16.79-1.73-25.09-3.14-3.57-.61-7.16-1.47-10.32-3.29-1.47-.85-3.07-1.93-3.98-3.41s-.06-3.1-.86-4.57c-.03-.08-.09-.13-.18-.15-.75,.05-1.08,.63-1.07,1.38,0,.36,.05,.78,.44,.39,0,0,.01-.05,0-.06h0Z"/><path class="cls-3" d="M303.48,409.11c7.87,9.46,19.7,15.18,31.08,19.25,12.88,4.6,26.42,7.51,39.84,10.05,29.01,5.49,58.49,8.05,87.88,10.52,8.36,.7,16.73,1.41,25.09,2.11,4.28,.36,8.56,.73,12.84,1.08s8.56,.89,12.83,.78c.7-.02,.67-3.08-.08-3.21-3.74-.68-7.57-.82-11.36-1.12s-7.57-.56-11.35-.84l-22.21-1.63c-14.73-1.08-29.46-2.15-44.16-3.55s-29.14-3.17-43.6-5.6c-13.63-2.29-27.32-4.99-40.55-9.05-6.8-2.08-13.48-4.62-19.75-7.99s-11.36-7.32-16.44-11.84c-.15-.13-.22,.84-.06,1.03h0Z"/><path class="cls-3" d="M493.35,444.54c.29,.94,.12,.93,.86,1.3,.46,.23,.96,.4,1.44,.59,1.2,.49,2.4,.97,3.6,1.45,2.26,.9,4.52,1.77,6.79,2.62,4.67,1.74,9.43,3.28,14.19,4.75l-.06-2.36c-2.83-.46-5.58-.43-8.4,.06-.33,.06-.27,1.48,.04,1.47,2.82-.1,5.67,.19,8.42,.84,.35,.08,.53-2.17-.06-2.36-8.87-2.86-17.69-5.96-26.38-9.34-.08,.02-.13,.07-.16,.15-.07,.14-.37,.57-.29,.84h0Z"/><path class="cls-3" d="M451.69,449.78c-.54,.15-1.13,.51-1.42,.99-.39,.65-.51,1.43-.49,2.18,.02,1.42,.52,3.02,1.98,3.53,.15,.05,.23-.94,.02-1.05-.5-.27-.91-.68-1.2-1.17-.13-.23-.24-.47-.31-.72,0-.02-.03-.13-.04-.18-.02-.12,0,.03-.02-.1,0-.06-.02-.13-.02-.19,0,.13,0-.09,0-.12,0-.05,0-.04,0,.02,0-.04,0-.09,0-.13,0-.12,0,.04,0-.1s.03-.27,.06-.41c.06-.28,.15-.54,.27-.79,.28-.62,.61-1.1,1.18-1.48,.05-.03,.03-.29-.02-.28h0Z"/><path class="cls-3" d="M304.99,407.22c-3.45-2.74-2.14-7.07,.59-9.74,2.21-2.16,5.07-3.59,7.7-5.16,5.8-3.49,11.66-6.88,17.59-10.15,11.93-6.59,24.1-12.73,36.47-18.45,25.04-11.58,50.87-21.41,77.14-29.83,26.11-8.37,52.66-15.28,79.42-21.17,26.8-5.89,53.87-10.31,81.04-14.08,29.57-4.1,59.24-7.43,88.97-10.08,3.88-.35,7.67-.72,11.5-1.43,1.79-.33,1.5-8.03-.2-8-7.96,.12-15.91,1.47-23.79,2.5s-15.84,2.11-23.75,3.24c-15.29,2.19-30.56,4.56-45.8,7.13-28.21,4.76-56.28,10.36-84.2,16.57-27.84,6.19-55.44,13.49-82.59,22.23-26.82,8.63-53.18,18.74-78.72,30.64-12.79,5.96-25.38,12.38-37.7,19.28-6.21,3.48-12.41,7.02-18.41,10.84-4.3,2.74-8.54,6.22-8.16,11.81,.14,2.08,.94,3.97,2.8,5.05,.31,.18,.35-1,.1-1.2h0Z"/><path class="cls-3" d="M303.37,402.05c1.74,7.6,11.79,8.45,18.02,9.71,9.84,1.99,19.75,3.68,29.7,5.07,19.89,2.78,39.95,4.36,60.03,4.72,5.67,.1,11.34,.11,17,.02,2.75-.04,5.51-.11,8.26-.2,2.9-.09,5.86-.08,8.73-.5,.48-.07,.43-2.06-.05-2.09-4.9-.23-9.9,.3-14.81,.41s-9.72,.15-14.57,.12c-9.8-.06-19.59-.42-29.37-1.06-19.55-1.28-39.03-3.71-58.29-7.28-5-.93-10.09-1.75-14.99-3.07-3.55-.95-8.2-2.74-9.21-6.72-.27-1.05-.55,.44-.45,.87h0Z"/><path class="cls-3" d="M461.75,417.97c-1.43,1.77-2.12,4.41-1.44,6.62,.49,1.58,2.09,3.33,3.86,2.31,.6-.35,.97-1.03,1.15-1.68,.31-1.06,.33-2.18,.24-3.28-.07-.88-.26-1.74-.53-2.58-.24-.75-.64-1.71-1.38-2.1-.86-.45-1.64,.14-2.16,.82-.68,.89-.89,2.14-.86,3.23s.25,2.27,.97,3.1c.53,.61,1.29,.98,2.1,1.01,.7,.02,1.46-.24,1.95-.76,.77-.82,.95-2.02,.91-3.1-.04-.99-.26-2.13-.94-2.9-.24-.28-.51-.52-.86-.65-.09-.04-.23-.11-.32-.11-.12,0-.24,.11-.34,.18-.2,.14-.4,.28-.59,.43-.89,.71-1.5,1.61-1.71,2.74s-.19,3,.93,3.76c.51,.35,1.2,.45,1.77,.2,.53-.23,.65-1.02,.7-1.54,.02-.2,0-.73,.01-.17,0-.27,.02-.48-.02-.75-.03-.25-.09-.56-.25-.77-.18-.24-.36-.06-.44,.17,.04-.12,.12-.21,.16-.24,0,0-.07-.02-.07-.02,0,0,.16,.05,.05,.01-.2-.07-.22-.06-.41,.04-.15,.07,.1-.02,0,0-.05,.02-.11,.03-.16,.04-.17,.03-.34,.03-.5,0-.05,0-.25-.06-.22-.05,.09,.03-.1-.04-.09-.04-.05-.02-.09-.04-.14-.07-.08-.05-.15-.1-.23-.16-.03-.02-.06-.06-.09-.08,.22,.2,.04,.03,.04,.03-.02,0-.14-.22-.03-.02l.04,.08c-.05-.13-.03-.07,.05,.17,.07,.27,.1,.6,.07,.88l-.03,.22c.03-.15,.02-.13-.02,.07,0-.01,.07-.18,.07-.18-.08,.21-.02,.05,0,.01,.08-.13,.16-.25,.25-.37,.03-.04,.14-.16,.23-.25,.12-.13,.26-.24,.39-.36,.24-.2,.49-.42,.76-.57-.07,.04-.16-.07-.03,.03,.04,.03,.1,.05,.14,.07,.11,.06,.22,.13,.32,.22,.04,.03,.08,.07,.11,.1-.12-.12,0,0,.02,.04,.05,.07,.21,.38,.09,.11,.02,.05,.04,.1,.06,.14,.1,.19-.03-.08-.03-.11,0,.04,.06,.34,.02,.03-.04-.28-.01-.03,0,.04,0,.04,0-.73-.02-.54,0,.12-.06,.33,.02-.13-.03,.17-.06-.03,.03-.11-.02,.01-.05,.14-.05,.15,.05-.21,.07-.12,.02-.05-.04,.06-.07,.11-.11,.17-.07,.11,.08-.08-.01,.02-.06,.06-.12,.12-.19,.18-.4,.33-.88,.46-1.4,.45s-.97-.16-1.37-.47c-.04-.03-.24-.23-.16-.14-.09-.11-.16-.23-.24-.34-.1-.15,.12,.23,0-.03-.08-.15-.05,0,.01,.07-.04-.04,0-.14-.04-.18,.04,.22,.05,.28,.03,.16-.02-.13-.01-.06,.01,.2,0-.27,0,.13-.01,.15,0-.03,.02-.35,0-.08-.02,.23,0,.02,.01-.04,.03-.19-.11,.29,0,.01,.03-.07,.17-.36,.06-.18,.08-.13,.15-.27,.25-.4,.23-.3,.77-.72,1.23-.5,.12,.06,.24,.15,.33,.24-.08-.08,.12,.15,.14,.18,.03,.05,.07,.1,.1,.15,0,0,.14,.26,.07,.12-.06-.12,.03,.06,.04,.09,.04,.09,.07,.17,.1,.26,.03,.08,.13,.26,0-.02,.02,.04,.03,.11,.05,.16,.03,.11,.06,.22,.09,.33,.03,.13,.06,.25,.09,.38,.03,.14-.02,.25-.01-.07,0,.08,.03,.18,.04,.26,.01,.1,.06,.25,.04,.35,.04-.2,0-.18,0-.06,0,.07,0,.15,0,.22,.01,.36,.03-.38,0,.05,0,.05-.02,.11-.02,.17,0-.36,.02-.19,0-.05-.03,.17-.05-.04,.02-.08-.01,0-.04,.12-.05,.15-.02,.06-.05,.12-.07,.18-.03,.13,.1-.14,.01-.04-.07,.08-.11,.2-.17,.29-.09,.13-.03,.04,0,.01-.05,.05-.1,.11-.16,.16-.43,.39-1.03,.52-1.59,.35-.28-.09-.54-.26-.76-.45-.12-.1-.21-.2-.31-.33-.04-.05-.08-.11-.11-.16-.02-.02-.15-.26-.08-.13-.03-.06-.05-.12-.08-.18-.12-.28,.04,.2-.03-.09-.02-.07-.03-.24,0,.04,.05,.36,0-.01,0-.08,0,.36,0,.02,0,.01-.02,.12-.02,.13,0,.04,0-.06,.02-.12,.03-.18,.04-.21,.02-.12,.01-.07,.03-.12,.07-.23,.11-.35,.12-.36,.27-.7,.43-1.04,.23-.46,.43-.93,.64-1.4,.19-.43,.14-1.08,0-1.52-.1-.29-.28-.62-.56-.28h0Z"/><path class="cls-3" d="M463.37,416.63c-.33,.09-.67,.17-.95,.37-.36,.26-.69,.58-1,.9-.58,.6-1.1,1.27-1.51,1.99-.85,1.47-1.31,3.11-1.26,4.81,.04,1.48,.4,3.11,1.43,4.23,1.08,1.18,2.64,1.32,4.11,.87,1.81-.56,3.35-1.86,5.31-2,.27-.02,.23-.95-.02-1.01-1.77-.45-3.52,.43-5.17,1s-3.35,.48-4.35-1.04c-.88-1.35-.69-2.97-.18-4.41,.35-.97,.85-1.87,1.46-2.7,.32-.43,.68-.84,1.06-1.21s.75-.8,1.12-1.23c.06-.07,.12-.6-.04-.55h0Z"/><path class="cls-3" d="M462.66,418.41c.35,.11,.68,.3,1.03,.4,.31,.09,.63,.12,.93,.22,.6,.2,1.2,.5,1.73,.86,1,.68,1.91,1.73,2.15,2.95,.22,1.11-.36,2.21-.99,3.08-.73,1.02-1.9,1.9-3.07,2.35-.24,.09-.21,1.11,.08,1.11,1.55-.02,2.8-.81,3.66-2.09,.93-1.38,1.25-3.2,1.01-4.83s-1.06-3.04-2.36-4c-.61-.45-1.29-.79-2.04-.93-.35-.06-.8-.15-1.15-.08s-.73,.33-1.03,.52c-.1,.06-.08,.41,.03,.44h0Z"/><path class="cls-3" d="M465.77,413c-.83-1.2-1.84-1.58-3.29-1.42-1.33,.14-2.66,.72-3.75,1.47-2.42,1.66-4.53,4.16-5.7,6.85-2.1,4.86-.75,10.94,3.45,14.25s10.46,2.43,13.97-1.51c2.01-2.26,2.73-5.17,2.87-8.14s.1-6.56-1.14-9.44c-1.11-2.56-3.33-4.21-6.14-4.36s-5.06,1.25-6.3,3.68c-.16,.32-.17,.75-.1,1.09,.02,.09,.19,.73,.39,.5,2.25-2.69,7.18-3.11,9.88-.93,1.96,1.58,2.3,4.21,2.39,6.57,.11,2.73-.04,5.48-1.66,7.78-2.48,3.53-7.44,5.35-11.55,3.82s-7.25-6.25-5.9-10.64c.87-2.83,2.96-5.36,5.26-7.17,1.07-.84,2.3-1.62,3.63-1.98,1.24-.34,2.42-.07,3.67-.05,.11,0,.06-.32,.03-.37h0Z"/><path class="cls-3" d="M481.06,415.52c.58,.2,1.15,.44,1.76,.47,.57,.02,1.17-.07,1.74-.11l3.48-.21c2.32-.14,4.65-.27,6.97-.44l13.68-.99,27.61-2.01,55.46-4.03,15.42-1.12,7.71-.56c2.65-.19,5.4-.32,7.95-1.12,.22-.07,.21-.98-.02-1.01-2.29-.38-4.67-.19-6.98-.02l-6.96,.52-13.93,1.03-27.61,2.05-55.46,4.11-15.67,1.16c-2.57,.19-5.14,.41-7.71,.63l-3.73,.32c-.65,.06-1.35,.05-1.99,.17s-1.18,.45-1.75,.73c-.09,.05-.07,.41,.03,.44h0Z"/><path class="cls-3" d="M634.45,389.97c.46,.78,.58-.49,.51-.82-.25-1.16-1.78-.21-2.42,.11-2.12,1.07-4.03,2.79-5.57,4.58-3.32,3.85-5.17,8.65-5.18,13.74,0,.32,.32,1,.39,.32,.42-3.72,1.76-7.39,3.88-10.47,1.09-1.6,2.41-3.05,3.88-4.3,.72-.61,1.48-1.18,2.27-1.69,.57-.37,1.88-1.58,2.58-1.29l-.15-.58-.17,.04c-.1,.02-.05,.31-.02,.37h0Z"/><path class="cls-3" d="M643.6,391.51c-.87-.11-1.75-.25-2.6-.47l.03,1.33c.51-.05,.99-.01,1.49,.07l.14-4.5c-.99-.43-1.43,0-1.96,.87-.61,.99-1.01,1.98-1.31,3.1-.57,2.16-.72,4.42-.73,6.65s.23,4.43,.45,6.63c.1,.98,.2,1.95,.29,2.93,0,0,.07,.81,.03,.35s.03,.34,.03,.34c.05,.59,.09,1.18,.14,1.76,.03,.3,.05,.7,.02,.17,.17,2.34,.23,4.68,.2,7.02,0,.32-.02,.65-.02,.97,0,.6,0-.03,0-.13-.02,.56-.05,1.13-.08,1.69-.06,1.2-.13,2.41-.24,3.61,0,.03-.11,.81-.03,.3,.08-.55-.06,.38-.08,.5-.09,.52-.18,1.05-.27,1.57-.23,1.25-.5,2.49-.68,3.76-.28,1.94-.49,3.88-.55,5.83-.1,2.88,.08,5.8,.88,8.59,.63,2.18,1.94,5.31,4.14,6.4,3.33,1.65,3.47-6.09,3.21-7.59l-.05-.28c-.22-1.27-.87-4.37-2.72-4.33s-2.29,3.16-2.51,4.46l-.05,.28,3.96-3.74c-.42-.56-.91-1.06-1.32-1.62,.44,.6,.13,.19-.05-.2-.07-.15-.12-.31-.2-.45-.28-.53,.34,1.22,.08,.17-.04-.16-.08-.33-.13-.48-.18-.59,.14,.68,.14,.65,.01-.3-.07-.74-.14-1.03-.01-.06,.08,1.44,.07,.76,0-.18-.02-.36-.02-.53-.01-.42,0-.84,0-1.26,0-.68-.03,.77-.02,.71,.02-.18,.02-.37,.03-.55,.02-.37,.05-.73,.09-1.09,.08-.78,.19-1.56,.25-2.35,.08-1.03,.16-2.07,.22-3.1,.04-.65,.06-1.3,.08-1.96,.01-.4,.02-.79,.04-1.19,.02-.42,.07-.61,.02-.09,.44-4.36,.27-8.86-.04-13.23-.29-4.07-1-8.02-1.52-12.06-.06-.47-.1-.93-.16-1.4-.06-.49,0,.03,0,.12-.02-.27-.03-.54-.05-.8,0-.2-.01-.4-.02-.6,0-.07-.01-.86-.01-.45,0,.43,.01-.22,.01-.25,.02-.26,.04-.52,.07-.79,0-.06,.11-.69,.02-.21,.05-.26,.1-.51,.16-.77,.09-.41,.16-.82,.28-1.23,.14-.52,.37-1.01,.5-1.53,.07-.28,.11-.57,.15-.85,.03-.25,.27-1.96,.05-.71,.17-.92,.21-2.12-.32-2.95-.44-.69-.92-.49-1.25,.21-.42,.92-.74,1.85-.99,2.83-.03,.13-.06,1.09,.27,1,.84-.24,1.71-.4,2.57-.52,.1-.01,.09-.33,0-.34h0Z"/><path class="cls-3" d="M654.33,386.04c-.92-.1-1.04-.07-1.7,.7-.56,.65-.93,1.4-1.28,2.19-.81,1.82-1.24,3.79-1.51,5.76-.56,4.1-.37,8.27-.34,12.39,.07,8.71-.44,17.61,.95,26.24,.4,2.48,.79,4.99,1.31,7.45s1.72,5.28,3.07,7.53c.79,1.31,1.89,2.15,3.1,.78l.29-.33c1.45-1.64,1.29-4.84,.86-6.78-.24-1.07-1.35-4.27-3.04-3.06l-.31,.22,2.5,1.35c-.87-1.6-1.73-3.18-2.41-4.88-.31-.77-.71-1.47-1.06-2.22-.08-.18-.38-.86-.33-.75,.12,.31-.09-.31-.09-.3-.09-.33-.19-.65-.27-.97-.25-1.01-.2-.81-.39-1.84-.18-.96-.34-1.93-.48-2.89-.25-1.69-.44-3.65-.57-5.2-.31-3.71-.43-7.84-.54-11.71s-.31-7.82-.31-11.72c0-1.79,.14-3.61,.55-5.36,.21-.87,.53-1.7,.86-2.53,.48-1.18,.87-2.28,1.25-3.49,.04-.12,.09-.55-.11-.58h0Z"/><path class="cls-3" d="M667.39,384.1c-.27-.33-1.6-.3-2.01-.23-.71,.13-1.28,.86-1.71,1.38-1.01,1.24-1.77,2.34-2.54,3.93-1.66,3.4-2.09,7.41-2.33,11.15-.29,4.44-.34,8.91-.28,13.35,.06,4.74,.19,9.5,.96,14.18,.89,5.39,2.38,10.6,4.52,15.63l2.41-10.02-.33-.14c-3.84-1.64-4.5,9.94-1.17,11.5l.33,.16c1.72,.81,2.73-1.54,3.02-2.81,.54-2.39,.37-4.95-.6-7.21-.19-.44-.37-.87-.55-1.31-.09-.22-.5-1.3-.23-.56-.38-1.03-.73-2.08-1.05-3.14-.27-.9-.51-1.81-.73-2.72-.06-.23-.11-.45-.16-.68-.04-.18-.18-1.14-.1-.42,.08,.68-.02-.11-.03-.22-.06-.32-.12-.63-.17-.95-.72-4.27-1-7.66-1.03-11.9-.01-2.03,.01-4.05,.06-6.08,.02-.93,.05-1.87,.06-2.8,.02-1.12-.05,1.23,0,.1,.02-.44,.04-.87,.06-1.31,.09-1.63,.26-3.25,.44-4.87,.02-.19,.14-1.37,.07-.64s0,.06,.01-.08c.09-.57,.18-1.13,.26-1.7,.05-.4,.17-1.12,.02-.29,.08-.46,.16-.92,.25-1.38,.38-1.82,1.13-3.19,1.76-5.04,.19-.55,.27-1.13,.47-1.68,.17-.44,.44-.85,.55-1.31,.16-.62,.21-1.39-.21-1.91h0Z"/><path class="cls-3" d="M678.6,381.79c1.59,.12,2.16-1.02,2.33-2.45,.05-.4,.02-1.68-.6-1.74h-.13c-.17,.01-.3,.1-.38,.25-.99,1.45-1.4,3.66-1.81,5.35-.48,2-.91,4.02-1.31,6.04-.83,4.13-1.54,8.29-2.08,12.46-1.06,8.24-1.8,16.63-1.81,24.94,0,2.31,.05,4.63,.12,6.94,.09,2.52-.23,5.81,1.04,8.06,.97,1.72,2.04,.63,2.5-.73,.7-2.07,.19-4.56,.06-6.7s-.2-4.14-.25-6.22c-.09-3.98-.11-7.97-.04-11.96,.14-7.99,1.19-16.09,2.59-23.95,.41-2.3,.93-4.57,1.35-6.86s1.14-4.7,.66-6.95l-1.03,1.1c.05,.48-.94,1.46-1.27,1.71-.13,.1-.17,.7,.06,.72h0Z"/><path class="cls-3" d="M622.74,376.72c.5,.69,.27,.62,1.01,.67,.49,.03,.98,.04,1.46,.06,1.14,.06,2.27,.13,3.41,.22,2.11,.16,4.21,.38,6.31,.6,4.34,.45,8.64,1.14,12.98,1.62,.21,.02,.21-.94-.02-1.01-4.24-1.31-8.59-2.03-13-2.51-2.1-.23-4.2-.36-6.31-.44-1.13-.04-2.27-.07-3.41-.08-.48,0-.98-.02-1.46,0-.73,.02-.51-.03-.98,.64-.04,.05-.03,.19,0,.24h0Z"/><path class="cls-3" d="M632.53,371.33c3.57,.61,7.29,.6,10.91,.77s7.11,.44,10.64,.91,6.95,1.14,10.33,2.12,6.59,2.44,9.94,3.52c.17,.05,.17-.88,.02-1-2.85-2.09-6.21-3.31-9.59-4.28s-6.97-1.65-10.53-2.1-7.23-.7-10.85-.83-7.33-.23-10.88,.33c-.13,.02-.12,.54,.01,.56h0Z"/><path class="cls-3" d="M702.68,378.59c2.32,1.29,4.87,1.65,7.48,1.89s5.5,.3,8.25,.42c5.79,.25,11.58,.46,17.36,.64,11.58,.35,23.16,.57,34.75,.59,23.17,.04,46.33-.51,69.47-1.66,13.06-.65,26.13-1.39,39.13-2.89,.22-.03,.18-.97-.02-.96-11.57,.47-23.12,1.26-34.68,1.86-11.57,.6-23.14,1.05-34.72,1.35-22.99,.6-46,.61-68.99,.1-6.53-.15-13.07-.34-19.6-.58-3.21-.12-6.42-.27-9.62-.39-2.99-.11-5.88-.32-8.77-1.13-.14-.04-.16,.69-.02,.78h0Z"/><path class="cls-3" d="M703.13,377.68c20.75-.72,41.48-3.22,62.03-6.06,20.38-2.81,40.66-6.28,60.84-10.25,20.31-3.99,40.52-8.48,60.64-13.3,20.15-4.83,40.23-10,60.25-15.34,19.95-5.32,39.92-10.62,59.67-16.65,2.52-.77,5.03-1.54,7.55-2.3,.3-.09,.17-1.23-.03-1.18-20.06,5.01-39.98,10.56-59.95,15.93-19.92,5.36-39.88,10.56-59.92,15.45-20.11,4.91-40.3,9.5-60.59,13.61s-40.62,7.74-61.07,10.72-40.96,5.42-61.54,6.87c-2.64,.19-5.29,.34-7.93,.46-.52,.02-.47,2.05,.05,2.03h0Z"/><path class="cls-3" d="M697.68,432.4c24.34-3.36,48.4-8.76,72.26-14.59,11.92-2.91,23.79-6.01,35.6-9.3,11.53-3.21,23.03-6.54,34.35-10.43,6.15-2.12,12.24-4.41,18.22-6.97,6.08-2.6,12.01-5.38,17.52-9.04,.16-.11,.05-.88-.06-.83-5.29,2.38-10.49,4.95-15.81,7.25-5.39,2.33-10.88,4.42-16.41,6.36-11.07,3.88-22.36,7.14-33.64,10.37-23.62,6.75-47.44,12.66-71.41,18.01-6.67,1.49-13.35,2.92-20.05,4.29s-13.73,2.96-20.59,4.48c-.11,.02-.08,.41,0,.39h0Z"/><path class="cls-3" d="M567.54,473.41c1.65,3.83,3.61,7.48,5.83,11.01,.82,1.31,1.79,3.44,3.44,3.88s3.51-.95,4.82-1.67c3.2-1.74,6.18-3.85,8.88-6.29,1.35-1.22,2.62-2.51,3.82-3.87,.59-.67,1.17-1.35,1.72-2.05,.63-.82,.99-1.76,1.41-2.7,.13-.28,.09-2.6-.54-2.11-1.3,1.01-2.15,2.25-3.21,3.51s-2.27,2.53-3.49,3.7c-2.48,2.35-5.21,4.45-8.13,6.22-.7,.42-1.41,.83-2.13,1.22-.77,.41-1.73,1.07-2.62,1.07-1.74,0-2.89-2.55-3.72-3.79-2.06-3.11-3.93-6.38-5.69-9.67-.19-.36-.39,.11-.45,.27-.14,.36-.09,.95,.06,1.3h0Z"/><path class="cls-3" d="M503.34,318.84c8.46,4.94,15.78,11.24,21.59,19.15,6.38,8.68,10.76,18.63,14.27,28.77,2.06,5.94,3.91,11.95,5.77,17.95,.15,.49,.34-.17,.27-.41-5.68-20.37-12.32-42.13-28.33-56.95-4.02-3.72-8.41-6.86-13.56-8.79-.09-.03-.09,.23-.02,.27h0Z"/><path class="cls-3" d="M516.67,316.98c2.86,.3,4.99,2.26,6.84,4.31,1.68,1.87,3.35,3.76,4.95,5.69,3.34,4.02,6.46,8.2,9.31,12.59,5.79,8.91,10.68,18.41,14.69,28.25,2.27,5.57,4.22,11.27,5.86,17.05,.09,.32,.22-.11,.18-.26-2.76-10.44-6.59-20.61-11.58-30.19s-10.92-18.49-17.56-26.89c-1.91-2.42-3.85-4.88-6.01-7.09-1.84-1.88-3.97-3.58-6.69-3.75-.08,0-.08,.27,0,.28h0Z"/><path class="cls-3" d="M516.67,336.64c24.58-5.44,49.37-9.86,74.28-13.49,7.12-1.04,14.25-2,21.4-2.88,.13-.02,.1-.52-.01-.51-25.02,2.9-49.88,6.85-74.57,11.88-7.05,1.44-14.09,2.96-21.11,4.55-.12,.03-.08,.47,.01,.45h0Z"/><path class="cls-3" d="M579.84,335.33c18.54-3.28,37.18-6.05,55.89-8.14s37.49-3.49,56.3-4.63c10.63-.64,21.27-1.08,31.91-1.46,.14,0,.13-.62-.02-.62-18.84,.18-37.66,1.18-56.43,2.86s-37.49,3.91-56.13,6.66c-10.54,1.56-21.05,3.3-31.52,5.22-.03,0-.02,.12,0,.11h0Z"/><path class="cls-3" d="M467.5,361.98c11.99-3.06,23.91-6.34,35.92-9.32s24.12-5.75,36.25-8.29c24.27-5.09,48.72-9.41,73.28-12.82,13.89-1.92,27.8-3.65,41.75-5.06,.22-.02,.17-.92-.02-.9-24.7,2.22-49.3,5.4-73.75,9.52s-48.76,9.23-72.84,15.22c-13.63,3.39-27.23,6.94-40.59,11.27-.11,.03-.07,.41,0,.39h0Z"/><path class="cls-3" d="M888.31,286.78c6.4,3.42,11.04,10.51,11.05,17.84,0,.5,.27,.49,.28,0,.15-7.67-4.18-15.01-11.31-18.05-.05-.02-.06,.19-.02,.22h0Z"/><path class="cls-3" d="M901.03,290.81c5.86,5.89,9.22,14.08,9.12,22.39,0,.25,.19,.44,.2,.08,.39-8.6-2.98-17.04-9.3-22.91-.05-.05-.11,.35-.03,.44h0Z"/><path class="cls-3" d="M840.4,302.8c4.82-.78,9.65-1.5,14.45-2.43s9.48-1.81,14.23-2.66c9.5-1.7,19.02-3.22,28.58-4.55,19.18-2.66,38.45-4.74,57.76-6.23,10.93-.84,21.86-1.61,32.79-2.38,.22-.02,.19-.96-.02-.96-19.37,.48-38.7,2.17-57.95,4.35-19.26,2.18-38.44,5-57.56,8.18-5.4,.9-10.79,1.84-16.18,2.83s-10.76,2.27-16.11,3.61c-.06,.01-.04,.23,0,.23h0Z"/><path class="cls-3" d="M1001.94,287.94c4.01,4.17,5.99,10.18,4.98,15.9-.02,.13,.08,.57,.14,.25,1.17-5.94-.69-12.29-5.1-16.48-.04-.04-.08,.26-.02,.33h0Z"/><path class="cls-3" d="M1008.64,287.42c4.72,5.45,6.56,13.05,4.62,20.02-.04,.14,.06,.85,.17,.51,2.29-7.18,.49-15.48-4.77-20.91-.03-.04-.09,.3-.02,.38h0Z"/><path class="cls-3" d="M1019.57,291.17c3.93,6.99,4.55,15.45,1.56,22.91-.06,.15,.05,.82,.13,.63,3.31-7.6,2.72-16.72-1.66-23.78-.04-.07-.07,.19-.04,.24h0Z"/><path class="cls-3" d="M745.33,345.28c2.62,5.38,4.47,11.16,5.43,17.07,.07,.45,.3,.1,.26-.19-.91-6.05-2.76-11.84-5.55-17.29-.13-.26-.21,.27-.15,.4h0Z"/><path class="cls-3" d="M751.63,348.8c4.72,9.18,7.76,19.24,8.8,29.51,.05,.5,.32,.11,.29-.2-.94-10.39-3.95-20.41-9-29.55-.09-.16-.14,.16-.09,.24h0Z"/><path class="cls-3" d="M757.91,352.4c3.22,8.52,6.26,16.99,7.97,25.97,1.69,8.91,2.28,17.97,1.86,27.03-.24,5.18-.83,10.34-1.69,15.45-.05,.32,.25,1.22,.4,.53,3.88-18.05,2.59-37.27-2.74-54.89-1.47-4.88-3.25-9.82-5.72-14.29-.08-.14-.1,.14-.08,.2h0Z"/><path class="cls-3" d="M767.32,353.82c4.95,10.36,8.34,21.26,10.08,32.6,1.71,11.16,1.97,22.5,1.41,33.76-.32,6.4-.85,12.79-1.48,19.17-.05,.5,.38,1.05,.48,.29,2.98-22.69,3.49-46.77-3.17-68.89-1.81-6-4.12-11.84-7.22-17.29-.08-.14-.14,.28-.1,.36h0Z"/><path class="cls-3" d="M781.03,360.22c12.2,19.68,12.68,43.84,6.95,65.71-1.72,6.58-4.1,12.92-6.53,19.27-.08,.2,.09,1.01,.27,.59,4.89-11.05,8.27-23.1,9.71-35.1s.72-23.11-2.58-34.15c-1.77-5.92-4.37-11.55-7.75-16.72-.09-.13-.14,.29-.08,.39h0Z"/><path class="cls-3" d="M452.76,447.2c-.54-.17-1.04-.25-1.61-.19-.65,.06-.91,.4-1.27,.94-.73,1.07-1.04,2.4-1.13,3.68-.22,3.18,1.13,5.95,3.62,7.89,2.86,2.23,6.54,3.57,9.92,4.78,3.63,1.3,7.34,2.32,11.09,3.19,15.87,3.69,32.15,5.65,48.41,6.56,16.38,.92,32.81,.73,49.19,0,8.22-.37,16.44-.83,24.65-1.36s16.38-1.27,24.59-1.56c8.45-.3,16.88-.88,25.32-1.42,4.22-.27,8.44-.53,12.66-.83,2.15-.15,4.3-.31,6.45-.47l2.98-.22c1.28-.09,2.18-.07,3.39,.42,.97,.39,2.11,1.1,3.13,1.31,.91,.19,2.28-1.07,3.05-1.56,.95-.61,.93-3.19,.89-4.1-.03-.71-.1-1.43-.24-2.13-.08-.37-.38-1.7-.86-1.92-.74-.34-2.05-1.28-2.88-1.24-.44,.02-1.04,.59-1.41,.8-.47,.27-.94,.55-1.41,.82-1.04,.61-1.86,1.1-3.08,1.2l-3.47,.3c-3.97,.34-7.94,.69-11.91,1.07-8.1,.76-16.2,1.54-24.31,2.31-3.94,.38-7.85,.99-11.79,1.4s-7.71,.71-11.56,1.02c-7.88,.65-15.77,1.25-23.66,1.76-31.18,2-62.83,2.14-93.72-3.01-8.33-1.39-16.77-2.96-24.77-5.73-3.73-1.29-7.95-2.77-11.01-5.37-.98-.83-2.41-2.22-2.02-3.64,.2-.71,.64-1.19,1.07-1.76,.56-.75,.95-1.34,1.77-1.84,.22-.14,.19-1.02-.08-1.11h0Z"/><path class="cls-3" d="M669.76,455.32c.62,.83,.89,1.9,1.37,2.81,.63,1.17,1.36,2.27,1.96,3.46,1.02,2.02,2.27,3.85,3.59,5.68,2.49,3.46,5.01,6.89,7.55,10.31,5.04,6.82,10.05,13.66,15.11,20.46,9.73,13.08,19.2,26.38,29.6,38.94,9.9,11.95,21,22.74,33.21,32.32,6.02,4.73,12.25,9.19,18.61,13.45,6.26,4.18,12.64,8.21,19.33,11.67s13.42,6.27,20.59,8.04c3.56,.88,7.2,1.48,10.86,1.73,3.43,.23,7.14,.38,10.47-.66,.76-.24,1.7-.51,2.24-1.1,.71-.79,1.25-1.85,1.75-2.78,.27-.51,.57-3.65-.39-3.67-.62-.01-1.37-.29-1.97-.24-.74,.07-1.63,.66-2.37,.85-1.61,.43-3.28,.58-4.94,.62-3.67,.1-7.35-.19-10.96-.8-7.27-1.21-14.28-3.68-20.94-6.81s-13.1-6.97-19.33-10.99-12.58-8.41-18.6-12.98c-12.11-9.18-23.35-19.38-33.33-30.86-10.72-12.33-20.22-25.73-29.93-38.86-4.98-6.73-10-13.44-15-20.16-2.48-3.32-4.95-6.65-7.43-9.97-1.27-1.71-2.58-3.39-3.88-5.08-1.14-1.49-2.36-2.75-3.75-3.97-1.02-.89-1.93-2.3-3.33-2.63-.32-.07-.19,1.08-.09,1.21h0Z"/><path class="cls-3" d="M842.66,586.23c-.93,1.22,.17,3.19,.87,4.25,.86,1.3,1.53,2.65,1.41,4.25-.22,3.05-2.5,5.94-5.17,7.3-.23,.12-.15,1.32,.08,1.27,3.21-.69,5.02-3.6,5.56-6.68,.29-1.64,.24-3.38-.22-4.98-.21-.74-.52-1.46-.93-2.11-.51-.8-1.64-1.91-1.51-2.93,0-.04-.03-.45-.09-.37h0Z"/><path class="cls-3" d="M795.36,460.26c.31,.31,.71,.89,1.17,.98,.39,.08,.85-.17,1.23-.29,.99-.32,1.99-.65,2.98-.98,1.84-.61,3.68-1.24,5.52-1.88,3.74-1.3,7.46-2.66,11.16-4.07,7.36-2.8,14.58-6.01,21.72-9.31s14.17-7.04,21.43-10.21c3.57-1.56,7.12-3.02,10.56-4.87s6.91-3.93,10.31-5.99c3.86-2.33,7.68-4.72,11.45-7.18,1.82-1.18,3.66-2.35,5.44-3.6,.99-.7,1.87-1.59,2.73-2.44,.45-.45,1.03-.78,1.46-1.23,.48-.5,.82-1.23,1.16-1.82s.58-3.44-.39-3.62c-.36-.06-.77-.2-1.13-.11-.43,.1-.83,.5-1.23,.69-.8,.38-1.63,.67-2.43,1.05-1.79,.86-3.43,2.19-5.09,3.27-3.34,2.18-6.7,4.32-10.09,6.42-6.79,4.2-13.75,8.08-20.4,12.51-3.41,2.27-6.85,4.46-10.49,6.32-3.55,1.81-7.12,3.57-10.72,5.28-7.2,3.42-14.49,6.65-21.86,9.67-4.12,1.69-8.22,3.43-12.37,5.06-2.12,.83-4.25,1.65-6.38,2.45-1.06,.4-2.12,.79-3.19,1.18-.42,.15-1.09,.26-1.44,.53-.53,.4-.83,1.31-1.11,1.87-.04,.09-.05,.24,.02,.31h0Z"/><path class="cls-3" d="M942.03,373.13c.65,.22,.95,.32,1.57-.03,.81-.46,1.53-1.08,2.27-1.64,1.45-1.09,2.9-2.18,4.36-3.27,2.98-2.23,5.96-4.46,8.94-6.69,5.87-4.38,11.79-8.69,17.83-12.83s12.18-8.3,18.6-11.86,12.69-6.94,19.22-10.03c3.81-1.8,7.67-3.48,11.59-5.01,1.89-.74,3.8-1.45,5.71-2.12s4.09-1.09,5.71-2.44c.46-.39,.56-2.79-.2-2.93-1.76-.33-3.54,.6-5.2,1.19s-3.42,1.23-5.11,1.89c-3.37,1.31-6.71,2.72-10,4.22-6.69,3.05-13.25,6.41-19.49,10.28-12.61,7.81-24.85,16.08-36.75,24.94-3.3,2.46-6.58,4.94-9.83,7.47-1.68,1.31-3.36,2.63-5.04,3.95-.81,.63-1.65,1.24-2.43,1.91-.92,.78-1.32,1.55-1.8,2.64-.03,.07-.05,.34,.05,.38h0Z"/><path class="cls-3" d="M1032.64,313.3c.15,.27,.26,.55,.41,.82l-.17-.83c.01,.53,.04,1.08,.25,1.57,.08,.19,.22,.36,.35,.52,.2,.26,.45,.49,.69,.73l1.36,1.35,.66,.66c.2,.2,.43,.32,.67,.46,.23,.13,.45,.26,.68,.39s.47,.2,.72,.28c.19,.06,.25-.61,.26-.67,.02-.33,.01-.72-.15-1.02-.36-.63-.74-1.22-1.15-1.81-.21-.3-.41-.63-.65-.91-.18-.21-.39-.39-.58-.59l-1.2-1.22c-.4-.4-.77-.84-1.25-1.16-.1-.08-.19-.08-.28,0l-.53,.38c-.24-.07-.12,.95-.06,1.05h0Z"/><path class="cls-3" d="M849,431.65c.05,0,.05-.23,0-.23-.05,0-.05,.23,0,.23h0Z"/><path class="cls-3" d="M847.31,431.42c.75,.28,1.25-.06,1.94-.41,1.03-.53,2.03-1.12,3.05-1.68,1.84-1,3.68-1.98,5.54-2.95,3.85-2,7.73-3.93,11.65-5.78,7.82-3.69,15.78-7.12,23.85-10.25,4.46-1.73,9.06-3.19,13.38-5.24,.19-.09,.13-1.04-.07-1-4.13,.82-8.12,2.41-12.06,3.88s-8.09,3.12-12.09,4.8c-7.75,3.26-15.36,6.88-22.82,10.75-2.14,1.11-4.26,2.24-6.37,3.4-1.09,.6-2.18,1.2-3.26,1.81s-2.13,1.14-2.78,2.25c-.04,.07-.08,.37,.03,.41h0Z"/><path class="cls-3" d="M897.44,405c.84,.66,1.39,.98,2.41,1.27,.93,.27,1.85,.56,2.77,.85,2,.63,3.96,1.4,5.87,2.26,3.51,1.58,6.93,3.33,10.26,5.27,6.82,3.98,13.21,8.66,20.15,12.41,1.97,1.06,3.83,2.34,5.92,3.18s4.24,1.53,6.41,2.15c1.2,.34,.93-5.34,.11-6.03-.23-.19-.43-.35-.69-.49-1.33-.67-.9,4.02-.71,4.54-.22-2.94-.33-3.79-.34-2.53-.01,.31,0,.61,.04,.92,.04,.45,.11,.9,.23,1.34,.22,.82,.58,1.48,1.11,2.14l.11-6.03c-1.9-.28-3.74-.75-5.57-1.35s-3.8-1.13-5.64-1.86c-3.57-1.43-6.97-3.54-10.29-5.45-6.55-3.78-12.91-8.16-20.04-10.83-2.01-.75-4.07-1.4-6.16-1.91-.98-.24-1.96-.43-2.96-.57-.52-.07-1.2-.27-1.71-.19-.43,.07-.92,.38-1.3,.57-.07,.03-.04,.29,0,.33h0Z"/><path class="cls-3" d="M943.37,426.32c.32,.2,.63,.43,.98,.56s.7,.25,1.04,.37l2.01,.71,2.01,.71c.31,.11,.72,.34,1.04,.34s.73-.1,.93-.34c.22-.26,.16-.85,.02-1.13-.19-.38-.55-.73-.9-.96-.28-.19-.68-.26-1-.36l-2.01-.66-2.01-.66c-.35-.11-.69-.23-1.04-.34s-.68-.11-1.04-.13c-.41-.02-.32,1.7-.03,1.88h0Z"/><path class="cls-3" d="M955.7,375.26c1.74-.56,1.37-2.44,.94-3.78-.06-.18-.17-.26-.3-.1-1.06,1.38-1.67,3.4-2.26,5.04-.69,1.88-1.27,3.81-1.81,5.75-1.07,3.86-1.96,7.77-2.8,11.69-1.7,7.96-2.69,16.08-1.91,24.22,.22,2.27,.54,4.53,1.04,6.75s1.05,4.69,1.98,6.85l.53-4.1-1.6,.03c-.83,.02-.55,2.41-.21,2.79,.49,.55,.98,1.1,1.47,1.66,.58,.66,.97-.02,1.14-.65,.28-1.02,.18-2.15-.15-3.14-.76-2.3-1.65-4.5-2.22-6.87s-.97-4.81-1.12-7.26c-.3-5,.27-9.97,1.13-14.89s1.88-9.74,3.09-14.53c.58-2.29,1.24-4.55,1.99-6.78,.41-1.21,.83-2.41,1.31-3.59,0,.02,.95-2.47,.79-.68-.05,.55-.62,1.03-1.06,1.28-.07,.04-.04,.35,.02,.33h0Z"/><path class="cls-3" d="M784.77,163.89c.26-.26,.55-.56,.75-.87,.37-.58,.3-1.35,.23-2-.03-.24-.22-1.13-.64-.86-1.87,1.17-3.33,3.07-4.5,4.92-.61,.96-1.14,1.97-1.6,3-.25,.56-.42,1.15-.59,1.74-.2,.7-.23,1.39-.33,2.11-.05,.32,.24,1.62,.61,.84,.08-.16,.17-.24,.28-.38,.17-.21,.25-.48,.36-.73,.2-.46,.42-.91,.62-1.37,.4-.94,.89-1.85,1.43-2.72,1.14-1.84,2.61-3.39,4.06-4.98l-.58-.56c.14,.58,.13,.96-.16,1.51-.03,.06-.01,.44,.07,.36h0Z"/><path class="cls-3" d="M786.33,160.43c-3.95,1.85-6.59,6.51-7.89,10.5-.27,.83-.3,1.82-.07,2.66,.09,.34,.47,1.41,1,.98,2.08-1.66,3.9-3.72,5.42-5.89s2.53-4.65,3.68-7.11c.19-.4,.25-2.92-.64-2.48-1.99,.98-3.61,3.07-4.71,4.96-1.22,2.09-2.12,4.46-2.48,6.86-.13,.84-.18,1.87,.2,2.67,.23,.47,.66,.9,1.07,.32,2-2.84,4.07-5.64,6.09-8.46,.44-.61,.38-1.71,.24-2.4-.05-.24-.42-1.58-.9-1.09-3.24,3.35-4.64,7.69-4.71,12.29,0,.18,.38,2.86,1.16,2.11,3.11-3.01,4.75-7.22,5.29-11.44,.07-.57,.02-1.43-.31-1.92-.19-.29-.56-.6-.81-.12-1.82,3.45-2.48,7.18-2.37,11.07,.02,.63,.08,1.69,.54,2.19,.32,.34,.72,.5,1-.02,1.18-2.23,2.31-4.49,3.46-6.74l-1.12-3.42c-1.29,3.09-1.71,6.3-1.32,9.63,.05,.46,.6,2.36,1.31,1.3,1.36-2.01,1.93-4.5,1.97-6.9s-.69-4.64-1.47-6.96c-.15-.45-.49-.74-.88-.41-.44,.38-.46,1.42-.44,1.92,.05,1.84,.38,3.67,.49,5.51s.15,3.69,.1,5.54c-.1,3.74-.4,7.5-.94,11.2-.08,.54-.2,1.61,.26,2.04s.68-.1,.79-.56c1-4.02,1.54-8.1,1.63-12.24,.05-2.09,0-4.18-.13-6.26s-.18-4.32-.74-6.32l-.83,3.09c.73,.71,.77,2.29,.63,3.24-.18,1.22-.74,2.28-1.42,3.3l1.31,1.3c-.21-1.68,.05-3.46,.79-4.99,.44-.91,.5-2.03,.23-3-.13-.47-.68-1.62-1.19-.76-1.21,2.04-2.43,4.07-3.61,6.12l1.54,2.17c-.12-2.78,.4-5.55,1.34-8.16l-1.19-2.19c-.59,3.37-2.16,6.1-4.5,8.57l1.16,2.11c-.08-3.16,1.36-6.24,3.44-8.56l-.65-3.49c-2.08,2.65-4.13,5.34-6.24,7.97l1.27,2.99c.39-2.14,1.02-4.11,2.11-6.01s2.61-3.56,4.04-5.28l-.78-2.33c-1.45,4.46-5.12,8.13-8.77,10.87l.93,3.65c1.31-4.34,3.95-7.48,6.96-10.75,.41-.45,.56-3.26-.37-2.82h0Z"/><path class="cls-3" d="M789,165.95c-.18,7.14,.31,14.36,.79,21.48,.47,7.08,1.08,14.13,2.06,21.15,.14,.97,.76,.54,.7-.25-.56-7.22-1.19-14.44-1.67-21.67s-.62-14-1.17-20.98c-.09-1.1-.7-.52-.72,.27h0Z"/></g></svg>