<?xml version="1.0" encoding="UTF-8"?><svg id="Layer_1" xmlns="http://www.w3.org/2000/svg" viewBox="0 0 1500 750"><defs><style>.cls-1{fill:#846a46;}.cls-2{fill:#ceb372;}.cls-3{fill:#231f20;}</style></defs><g><path class="cls-2" d="M587.71,402.57s92.01-30.41,138.7-13.68c46.69,16.73,33.62-14.98,79.95-26.49,46.33-11.5,63.28-2.44,63.28-2.44l52.01,21.53s13.84-29.33,20.98-31.97c7.15-2.64,39.93-4.63,77.8,12.88,37.86,17.51,61.28-.9,92.68-21.54,31.4-20.64,47.74-22.56,62.37-2.94,0,0,24.48-45.61,24.53-51.13,0,0-79.83-11.5-139.66,4.08-59.83,15.58-116.12,25.01-196.94,19.12-80.82-5.9-291.29-21.14-291.29-21.14,0,0-94.82,2.29-147.53,25.54-52.71,23.25-90.34,19.2-106.35,19.98s-27.75,30.07-5.3,39.88c22.45,9.81,36.35,3.77,36.35,3.77,0,0-5.04,4.89,9.23,6.89,14.27,2,47.07-1.04,47.07-1.04,0,0,5.04,9.62,43.28,12.78s138.85,5.92,138.85,5.92Z"/><path class="cls-2" d="M459.95,379.74s19.94,64.86,44.69,83.78c24.75,18.92,38.25,41.94,46.19,31.04,7.94-10.89,10.96-48.94,19.79-64.83,8.83-15.89,27.03-32.1,21.49-48.84-5.54-16.74-132.16-1.16-132.16-1.16Z"/><path class="cls-2" d="M698.49,312.54c2.49-3.09,47.52-30.66,59.82-43.4,12.3-12.75,69.76-23.79,66.73-10.45-3.03,13.34-11.89,35.39,0,53.85,11.89,18.46-126.55,0-126.55,0Z"/><path class="cls-2" d="M846.65,316.59c6.04-3,84.97-53.86,85.39-36.4,.43,17.46-3.08,17.13,16.82,38.53,19.9,21.4-102.21-2.13-102.21-2.13Z"/><path class="cls-1" d="M518.87,297.31c-2.12-1.98-1.13-4.72-3.45-3.88-.47,.17-1.05,.37-1.47,.65-.92,.6-1.73,1.52-2.55,2.24-1.82,1.59-3.64,3.18-5.42,4.81l.31-.29c-10.66,9.73-21.59,19.25-31.58,29.67-4.55,4.74-8.99,9.68-12.48,15.26s-5.78,12.13-6.96,18.78c-.78,4.35-1.21,8.75-1.51,13.15-.38,5.65-.65,11.35-.14,16.99,.04,.42,.15,2.74,.62,3.17s.57-.17,.69-.72c.61-2.99,.44-6.48,.09-9.5l-.23-2.04-.1,3.55,.21-.43c.33-.67,.18-1.81,.15-2.51,0-.18-.28-2.02-.34-1.98-.6,.49-.98,1.1-1.18,1.84-.25,.92-.2,2.02-.21,2.96-.02,1.88,.1,3.77,.3,5.65,.1,.91,.14,1.98,.51,2.83,.1,.22,.32,.95,.6,.33,.65-1.41,.61-3.24,.67-4.73,.05-1.21,.1-2.41,.16-3.62,.06-1.13,.12-2.26,.2-3.4,.02-.34,.11-2.33,.04-.65,.02-.6,.1-1.21,.16-1.8,.12-1.2,.26-2.39,.42-3.59,0-.04,.11-.78,.04-.27-.08,.56,.06-.37,.08-.49,.11-.67,.22-1.33,.35-1.99,.41-2.14,.91-4.27,1.6-6.35,2.91-8.77,8.55-16,14.78-22.68,3.86-4.13,7.9-8.09,11.98-11.99l-.3,.29c7.38-7,14.95-13.81,22.46-20.67l-.32,.29c2.2-2,4.34-4.07,6.51-6.12,1.11-1.05,2.03-2.21,2.87-3.49,.61-.93,1.07-2.12,1.3-3.2,.21-.97,.27-1.99,.41-2.98,.16-1.07,.43-1.95,.75-2.98,0-.03,.02-.12,0-.14h0Z"/><path class="cls-1" d="M478.58,338.04c-1.65,2.45-3.14,4.95-5,7.24-.78,.96-1.5,2.02-2.46,2.81-.45,.37-1.66,1.78-2.2,1.69l-.2,.24c-1.22,2.63-2.6,5.18-3.75,7.85s-2.23,5.48-3.18,8.3c-2.07,6.13-3.81,12.37-5.2,18.69l1.81,6.77c0-.25-.02-1.75-.01-.27s0-.01,0-.26c0-.58,.06-1.17,.04-1.75,.09,2.3,.01,.01,.04-.51,.02-.36,.05-.73,.07-1.09,.08-1.27-.13,1.24,0-.14s.27-2.61,.45-3.92c.04-.29,.08-.58,.12-.87,.14-.94,.04-.25,0-.05,.13-.79,.27-1.58,.42-2.37,.99-5.19,2.43-10.28,4.3-15.23,3.81-10.08,9.24-19.49,15.83-28.01,3.62-4.68,7.58-9.08,11.79-13.23l-.3,.29,.6-.59-.3,.29c6.26-6.11,13.06-11.64,20.23-16.65,.62-.43,.69-1.74,.77-2.34,.24-1.83,.26-3.77,.21-5.61s-.12-3.76-.48-5.6c-.05-.25-.49-2.54-.89-2.3-22.06,13.1-41.36,30.89-56.14,51.87-2.05,2.91-4.28,5.88-5.88,9.08-1.07,2.14-1.49,4.42-1.66,6.8-.24,3.3-.17,6.69,.19,9.98,.19,1.76,.44,3.52,1.17,5.15,.19,.37,.37,.37,.54-.01,4.87-16.8,13.31-32.5,24.57-45.88,3.18-3.78,6.6-7.36,10.2-10.74l-.31,.29,.6-.56-.31,.29,.61-.56-.31,.29c2.84-2.62,5.8-5.12,8.87-7.47,.67-.51,.76-1.58,.88-2.34,.28-1.82,.31-3.78,.25-5.61s-.13-3.77-.52-5.6c-.06-.26-.55-2.57-.99-2.3-15.98,10.05-29.06,24.56-37.39,41.5-2.35,4.78-4.3,9.75-5.87,14.84-.94,3.05-.72,6.62-.5,9.77,.11,1.57,.18,3.21,.6,4.72,.06,.19,.54,1.71,.84,.78,4.79-15.1,9.84-30.65,19.34-43.55,2.62-3.55,5.57-6.84,8.86-9.78l-.33,.29c.49-.43,.99-.86,1.49-1.28l-.72-15.56c-18.74,18.44-30.25,42.88-33.92,68.8-1.21,8.52-1.55,17.18-1.25,25.78,.07,2.08,.16,4.17,.56,6.21,.06,.29,.46,2.38,.94,1.4,3.05-6.33,5.14-13.12,6.22-20.07,.55-3.55,.51-7.28,.11-10.85l-.2-1.6c-.08-.7-.25-1.38-.51-2.03-.57-.49-.63,.18-.78,.82-2.12,8.92-2.72,18.05-2.65,27.19,.02,2.21,.08,4.68,.68,6.83,.34,1.22,.79,1.32,1.05-.03l3.14-16.79-1.74-8.91c-.28,9.12,.24,18.28,1.56,27.31,.03,.21,.36,3.02,1.11,2.01,3.5-4.69,5.32-10.26,5.96-16.05,.38-3.43,.3-6.99-.17-10.41-.08-.6-.16-2.4-.66-2.83-.6-.51-.67,.18-.86,.82-1.49,5.14-1.43,10.81-1.09,16.1,.28,4.41,1,8.83,2.94,12.84,.45,.93,.89-.77,.9-.82,.33-1.3,.66-2.61,1-3.91s.53-2.72,.99-3.95c.78-2.08,.52-4.78,.37-6.95-.08-1.11-.13-2.29-.44-3.36-.05-.16-.37-1.2-.61-.55-.27,.73-.88,1.45-1.29,2.13s-.86,1.42-1.29,2.13l.64-.02c-.35-.72-.64-1.4-.87-2.16-.06-.2-.43-1.67-.21-.62-.08-.39-.27-1.74-.05-.08-.06-.6-.06-.56,0,.1,.06,.59,.1,1.18,.11,1.78-.08,2.87-.09,3.64-.02,2.31l-.06,.76c.12-1.13-.18,.58,.06-.43,.13-.55,.26-1.1,.41-1.65l-1.69-12.41c-.03,.28-.06,.56-.1,.84-.05,.45-.08,.46,0,0-.12,.62-.24,1.24-.4,1.86-.26,1.03-.6,2.02-1,3.01-.91,2.22-2.11,4.3-3.54,6.23l1.11,2.01c-.05-.32-.1-.65-.14-.97,0-.02-.22-1.56-.09-.66,.11,.8-.03-.28-.05-.42-.05-.41-.09-.81-.14-1.22-.08-.73-.14-1.47-.21-2.2-.09-.99,.09,1.41,.04,.42-.02-.41-.06-.82-.08-1.23-.02-.33-.04-.65-.06-.98-.06-1.09,0,.3,.02,.63-.05-.73-.05-1.48-.06-2.21,0-.25,0-.49-.01-.74v1.12c0-.33,0-.66,0-.98,0-.82,.02-1.64,.05-2.46,.08-2.74-.05-5.63-.58-8.32-.19-.98-.78-2.65-1.17-.59l-3.14,16.79,1.73,6.81c.02,3.17-.08-.69,.03-.75-.17,.1-.07,1.76,0,.23,.02-.4,.04-.79,.06-1.19,.02-.3-.02-.67,.06-.95-.34,1.25-.03,.36,.01-.06,.07-.79,.15-1.58,.25-2.37,.05-.39,.1-.79,.15-1.18,.04-.28,.1-.69,.02-.17,.12-.79,.25-1.57,.39-2.35,.28-1.57,.62-3.12,.98-4.67l-1.38-13.66c-1,6.43-2.94,12.59-5.76,18.46l1.5,7.61c-.03-.81-.05-1.62-.06-2.43-.03-1.51,0,1.75,0,.69,0-.34,0-.67,0-1.01,0-.59,.14-3.45,0-.93,.04-.81,.06-1.62,.11-2.42,.04-.67,.1-1.35,.13-2.02-.07,1.78-.03,.36,0,0,.03-.4,.07-.81,.11-1.21,.14-1.48,.32-2.95,.52-4.42,.18-1.34-.16,.98,.05-.36,.06-.4,.12-.8,.19-1.2,.11-.67,.22-1.33,.34-1.99,.29-1.59,.6-3.18,.96-4.76,.67-3.02,1.48-6.01,2.42-8.96,3.66-11.57,9.09-22.6,16.07-32.53,3.96-5.63,8.42-10.89,13.32-15.71,.57-.56,.62-3.09,.66-3.66,.11-1.69,.1-3.37,.02-5.06-.07-1.51-.15-3.06-.46-4.54-.05-.22-.6-2.59-.94-2.3-12.84,10.71-20.04,26.02-25.49,41.49-1.56,4.44-3,8.92-4.43,13.41l.94,15.27c4.39-14.23,12.03-27.43,22.04-38.45,2.84-3.13,5.88-6.07,9.09-8.83l-.34,.29c3.76-3.21,7.74-6.14,11.92-8.78l-.39-15.85c-16.53,12.66-29.82,29.43-38.37,48.42-2.41,5.35-4.43,10.87-6.07,16.51h.54c-1.96-4.38-1.3,14.88,.26,10.59,.19-.53,.39-1.06,.63-1.57,.42-.9,.94-1.75,1.47-2.59,1.04-1.63,2.11-3.24,3.21-4.83,2.27-3.3,4.65-6.53,7.13-9.67,4.96-6.28,10.33-12.24,16.07-17.83l-.3,.29c10.31-10,21.75-18.79,34.1-26.12l-.39-15.85c-11.94,8.34-22.93,18.17-31.95,29.64-9.33,11.86-16.34,25.46-20.05,40.11-2.52,9.95-3.35,20.27-3.09,30.51,.06,2.21,.08,4.66,.71,6.8,.36,1.23,.82,1.29,1.1-.03,2.02-9.48,4.89-18.72,8.25-27.81,.91-2.45,1.79-4.92,2.79-7.34,.56-1.36,.84-2.82,1.25-4.24,.48-1.69,.97-3.37,1.47-5.05,1.62-5.4,4.1-10.47,6.83-15.39,.07-.13-.06-.55-.04-.59h0Z"/><path class="cls-1" d="M444.53,390.83l-1.28,2.55,.09,.77c.06,.47,.14,.94,.25,1.41,.13,.56,.31,1.09,.6,1.58,.51,.86,1.13,1.47,1.91,2.07,.71,.55,1.37,1.07,2.18,1.44,.77,.35,1.55,.69,2.33,1.02,1.46,.61,2.93,1.12,4.46,1.55,.8,.22,1.43,.32,2.24,.04,.42-.15,.78-.54,.99-.96,.32-.64,.31-1.6,.37-2.3,.06-.84,.09-1.68,.09-2.52,0-1.74-.05-3.48-.26-5.21-.04-.31-.17-2.38-.66-2.34-.44,.03-.4-.04-.71-.27-.07-.06-.2,1.61-.2,1.66,0,.67-.03,1.46,.22,2.09,.14,.34,.26,.68,.36,1.03l-.1-4.05-.04,.25,.61-.66c-.5-.88-1.1-1.39-1.98-1.86-.59-.31-1.33-.35-1.98-.48-1.22-.25-2.44-.48-3.65-.72s-2.4-.7-3.59-.7c-.55,0-1.21-.08-1.76,.01s-1.11,.53-1.46,.94l.88,5.81,.06-2.1s0-.04,0-.05h0Z"/><path class="cls-1" d="M476.13,303.74c.69-.62,.31-1.76-.16-2.4v1.15c.89,.69,.84,2.32,1.8,3.08,.4,.31,.65,.29,1.13,.31,1.08,.03,2.25-.2,3.33-.27,2-.13,4.23-.49,6.22-.29,1.16,.12,2.22,.81,3.39,.98,1.1,.16,2.29-.1,3.37-.23,2.17-.25,4.34-.46,6.52-.63,3.75-.29,7.56-.23,11.28-.83,.81-.13,1.59-.19,2.21-.73,.94-.83,1.6-2.06,2.17-3.16,1.13-2.17,2.57-4.15,3.51-6.44,.13-.32,.18-3.53-.15-3.44-.54,.14-1.16,.25-1.72,.21-.68-.05-1.57-.57-2.1-.98-.66-.51-1.23-1.19-2.02-1.5-.75-.29-1.67,.09-2.46,.21-3.66,.57-7.41,.63-11.09,1.02-2.18,.23-4.35,.5-6.51,.81-.98,.14-1.94,.27-2.88,.56-1.3,.4-2.18,1.36-3.32,2.01-.97,.54-2.28,.76-3.33,1.11-.95,.31-1.9,.63-2.85,.96-1.11,.38-2.21,.77-3.31,1.17-.67,.24-1.09,.32-1.58,.92-.94,1.16-.79,2.85-1.65,4-.1,.13-.13,1.07,.05,1.15,.54,.18,.59,.57,.15,1.17,0,.01,0,.08,0,.07h0Z"/><path class="cls-1" d="M514.32,299.61c-.36-.83-.88-.17-.91,.41-.05,.97,.28,1.92,1.47,1.7,.75-.14,1.51-.67,2.2-.97s1.47-.59,2.23-.83c1.69-.53,3.43-.84,5.18-1.1l-.33-.86,.52,3.7,.42-13.03c-2.96,1.9-5.78,4-8.63,6.05-1.39,1-2.99,1.92-4.21,3.12-1.44,1.41-2.85,2.85-4.23,4.33-2.77,2.98-5.59,5.86-8.53,8.68s-5.75,5.22-8.47,8c-.5,.52,.13,4.44,.19,4.41,3.11-1.34,6.04-3.11,9.08-4.6s5.99-2.7,9.1-3.89c1.53-.59,3.11-1.24,4.44-2.21,1.47-1.08,2.94-2.15,4.41-3.23l4.41-3.23c.82-.6,1.61-1.23,2.41-1.87,1.39-1.12,1.44-3.76,1.79-5.39s.26-3.36,.11-4.97c-.05-.6-.07-1.33-.28-1.89-.05-.13-.25-.84-.45-.39-.54,1.24-2.6,1.59-3.72,2.18s-2.25,1.28-3.31,2.03-1.99,1.48-2.92,2.3c-.25,.22-2.3,2.35-2.76,1.48l.09,1.01c.01-.23,.26-1.1,.68-.86,0,0,0-.07,0-.07h0Z"/><path class="cls-1" d="M567.59,294.07c-.53-.72-1.11-1.4-1.53-2.2-.47-.9-.69-2.36-1.42-3.07s-1.8-.59-2.63-.15c-1.77,.93-3.3,2.71-4.66,4.13-2.97,3.1-6.22,5.68-9.81,8.01-6.77,4.39-14.7,8.39-18.75,15.74-1.48,2.69-1.27,6.29-1.18,9.24,.06,2,.14,4.04,.47,6.01,.17,.98,.36,2.17,1.01,2.97,1.34,1.65,3.72,2.67,5.69,3.26,4.45,1.34,9.25,.85,13.73-.04,10.11-2.03,20.1-5.51,29.61-9.45,5.45-2.26,10.8-4.77,16.02-7.53,2.64-1.4,5.25-2.86,7.82-4.38s5.36-2.93,7.6-4.81c.62-.52,.68-1.6,.77-2.32,.24-1.81,.26-3.74,.21-5.57s-.12-3.73-.48-5.55c-.05-.24-.5-2.52-.89-2.28-.52,.33-1.21,.65-1.6,1.15-.62,.79-.54,1.96-1.72,2.19-1.04,.21-2.34,0-3.4,0-.46,0-.38,3.93,.1,4.27l3.23,2.22c.97,.67,1.4,2.07,1.83,3.14,.38,.95,1,1.66,1.63,2.46l-.07-15.44c-1.32,.62-2.54,1.58-3.78,2.35s-2.54,1.57-3.83,2.33c-2.44,1.44-4.92,2.83-7.43,4.17-5.21,2.77-10.55,5.3-16,7.57s-10.86,4.24-16.42,5.98-10.81,3.33-16.36,4.12-11.78,.64-16.12-3.16l.3,.28s-.57-.75-.47-.42l.46,2.83-.03-.41-.12,10.85c.35-1.57,1.9-3.27,2.92-4.47l-.25,.29c3.88-4.44,8.98-7.48,13.88-10.63,2.48-1.59,4.94-3.21,7.22-5.07s4.45-4.15,6.49-6.39l-.26,.28c1.26-1.36,2.68-2.53,3.99-3.84,.82-.82,1.54-1.82,1.91-2.91s.56-2.34,1.03-3.45c.33-.79,.81-1.51,1.26-2.24,0-.01,0-.06,0-.07h0Z"/><path class="cls-1" d="M545.13,319.31c-.47-1.68-.96-3.37-1.24-5.09,0-.05-.23-2.08-.71-2.13l-.44-.05c-.93-.1-1.28,13.5,.36,14.73,3.29,2.47,7.68,1.17,11.28,.08,4.13-1.25,8.21-2.64,12.24-4.18,8.07-3.09,15.89-6.87,23.43-11.09,.58-.32,.65-1.93,.69-2.34,.22-1.84,.23-3.77,.17-5.61s-.12-3.76-.45-5.6c-.08-.42-.23-2.27-.81-2.3-3.57-.19-6.97,.84-10.24,2.19-3.49,1.44-6.9,3.07-10.34,4.63l-21.22,9.58,.39,15.85,15.4-9.64c2.3-1.44,4.67-2.82,6.9-4.37,1.94-1.35,3.77-3.01,4.66-5.24,.44-1.1,.51-2.51,.57-3.66,.09-1.69,.08-3.37,0-5.06-.03-.64-.36-7.05-1.25-6.85-3.4,.79-6.88,.23-9.87-1.56l.39,15.85c16.58,.38,33.18-.44,49.65-2.46l-.39-15.85c-1.01,.25-1.46,.96-2.26,1.6-.52,.42-1.08,.78-1.69,1.08-.49,.24-.36,2.31-.37,2.67-.01,1.33-.04,2.79,.31,4.08,.41,1.54,.97,3.01,1.83,4.36,.37,.58,.79,1.21,1.29,1.69,.48,.46,.64,.53,1.27,.37,.55-.14,.67-2.19,.68-2.34,.21-1.84,.23-3.77,.17-5.61-.02-.68-.18-8.03-1.24-7.9-16.47,2.02-33.06,2.84-49.65,2.46-1.13-.03-.87,7.19-.85,7.95,.06,1.86,.12,3.76,.44,5.6,.12,.67,.15,1.92,.79,2.3,2.99,1.8,6.47,2.35,9.87,1.56l-.68-15.56c-.42,1.05-1.01,1.94-1.77,2.77l.28-.29c-1.44,1.48-3.18,2.58-4.93,3.67-2.22,1.39-4.44,2.78-6.66,4.17l-13.32,8.33c-.58,.36-.64,1.88-.69,2.34-.22,1.84-.23,3.77-.17,5.61s.12,3.76,.45,5.6c.05,.26,.4,2.49,.81,2.3l21.22-9.58c3.37-1.52,6.72-3.11,10.13-4.54s6.8-2.47,10.45-2.27l-.39-15.85c-7.56,4.23-15.39,7.88-23.43,11.1-4.03,1.61-8.1,3.1-12.23,4.43-3.74,1.21-7.41,1.99-11.26,.78l.36,14.73,.44-.05c.48-.06,.6-2.14,.61-2.16,.13-1.02,.31-2.03,.53-3.03,.14-.69,.29-1.38,.46-2.06,0-.02,0-.03,0-.05,0-.04,0-.08,0-.12h0Z"/><path class="cls-1" d="M635.22,306.27c2.42-1.95,3.2-4.04,2.34-6.27l-.51-1.77-1.03-3.54c-.25-.88-.7-.7-.95,.02-.45,1.31-.39,2.88-.36,4.24l.05-2.01-.1,1.84c-.07,1.67,.02,3.35,.2,5.01,.14,1.33,.4,2.6,.72,3.88,.35,1.42,.69,2.84,1.01,4.27,.62,2.77,1.19,5.56,1.7,8.35,.12,.64,.23,1.28,.34,1.92,.06,.35,.27,1.47,.02,.09,.06,.32,.1,.64,.16,.96,.23,1.43,.45,2.87,.65,4.3,.19,1.36,.36,2.72,.52,4.08,.08,.72,.17,1.44,.24,2.16,.03,.32,.06,.64,.1,.96l-.09-.92c.02,.24,.05,.48,.07,.72,.26,2.81,.48,5.62,.64,8.44,.02,.4,.05,.8,.07,1.21,.01,.2,.06,1.25,.02,.4s0,.2,.01,.4c.02,.4,.03,.81,.04,1.21,.05,1.41,.08,2.82,.1,4.23,0,.3,0,.59,0,.89-.04-2.28,0-1.27,0-.76,0,.6,0,1.19-.01,1.79,0,.37-.01,.74-.02,1.12-.02,.95,.07-1.5,.02-.55-.04,.75-.07,1.49-.12,2.23-.04,.67-.09,1.34-.14,2.01-.02,.29-.07,.6-.08,.89,0-.18,.14-1.38,.02-.27-.15,1.33-.3,2.66-.5,3.98-.04,.29-.09,.59-.14,.88,.15-.99-.08,.44-.09,.51-.14,.73-.28,1.45-.44,2.18-.31,1.44-.68,2.87-1.09,4.29-.79,2.71-1.82,5.33-3.03,7.88-.5,1.05-.59,2.53-.66,3.65-.1,1.68-.1,3.36-.02,5.04,.03,.64,.43,7.09,1.39,6.81,5.3-1.51,10.74-2.46,16.24-2.85,.69-.05,.68-2.67,.71-3.13,.17-2.29,.16-4.6,.01-6.89-.13-2.06,0,3.91,.03,1.85,0-.03-.06,1.53-.01,.72,.04-.72-.05,.41-.04,.43-.12-.32,.1-1.06,.14-1.4,.06-.52,.14-1.03,.22-1.55,.32-1.94,.72-3.87,1.14-5.79,.91-4.21,1.74-8.4,2.33-12.67,1.36-9.91,1.52-20.07,.81-30.05-.02-.24-.03-.48-.05-.71-.01-.15-.24-3.09-.13-1.65,.13,1.61-.12-1.47-.11-1.42-.03-.32-.05-.63-.08-.95-.1-1.11-.21-2.21-.34-3.32-.32-2.74-.72-5.47-1.22-8.18-.09-.51-.27-2.4-1.05-2.15s-.74,3.32-.77,3.79c-.39,4.96-.67,9.93-1.03,14.89-.17,2.4-.36,4.8-.57,7.2-.05,.64-.11,1.28-.17,1.92-.03,.32-.06,.64-.09,.96,.08-.8,.08-.86,.01-.17-.12,1.2-.24,2.39-.37,3.59-.52,4.86-1.16,9.7-1.94,14.52-.09,.57-.1,.63-.03,.18-.05,.32-.11,.63-.16,.95-.11,.63-.22,1.26-.34,1.89-.2,1.1-.42,2.2-.64,3.3-.51,2.51-1.08,5.01-1.7,7.5l1.94,8.88c.05-2.47,.13-4.95,.22-7.42,.05-1.47-.06,1.51,0-.09,.03-.66,.05-1.32,.08-1.98,.05-1.15,.11-2.31,.17-3.46,.24-4.7,.55-9.39,.93-14.08,.1-1.23,.2-2.47,.31-3.7,.04-.49,.09-.99,.13-1.48,.06-.7,.06-.66-.01,.13,.03-.33,.06-.66,.09-.99,.22-2.3,.46-4.6,.71-6.89,.52-4.76,1.1-9.51,1.79-14.24,.49-3.38,.33-7.02-.16-10.38-.13-.91-.86-4.76-1.65-2-5.11,17.87-8.29,36.26-9.93,54.76l2.51,3.93c-.08-2.17-.12-4.34-.15-6.51,0-.62,0-.32,0,.9,0-.32,0-.64,0-.96,0-.48,0-.96,.01-1.45,.01-1.13,.03-2.25,.07-3.38,.03-.96,.08-1.93,.1-2.89-.05,2.11,0,.18,.02-.28,.03-.56,.06-1.12,.1-1.69,.13-2.09,.29-4.17,.48-6.25,.04-.48,.07-.97,.14-1.44-.23,1.56,.03-.22,.06-.55,.12-1.04,.24-2.08,.37-3.11,.26-2.07,.56-4.14,.88-6.21,.7-4.45,1.27-7.39,2.32-12.02l-1.89-12.39c-2.8,18.3-5.61,36.6-8.41,54.9-.52,3.38-.37,7.03,.15,10.4,.1,.63,.22,2.38,.76,2.82,.61,.49,.87-.12,1-.82,3.55-18.15,5.09-36.56,4.83-55.05-.07-5.33-.32-10.66-.71-15.97-.11-1.49-.1-3.78-.91-5.11-.53-.87-.96-.71-1.2,.43-4.06,19.26-5.27,38.92-5.55,58.56-.07,5.27-.09,10.53-.09,15.8l2.67,2.04c0,2.48,0,.47,.01-.08,.01-1.11,.02-2.22-.01-3.33-.03-.97-.06-1.94-.08-2.92,0-.65,.02-1.3-.02-1.94v.57c.02-.35,.02-.69,.03-1.04,.02-.93,.07-2.12,.1-2.78,.02-.45,.05-.91,.06-1.36-.11,1.16-.11,1.16,.01,0,.05-.51,.09-1.02,.14-1.53,.1-1.03,.21-2.05,.33-3.07,.27-2.32,.56-4.67,1.02-6.96,.27-1.36,.26-2.8,.08-4.18-.04-.31-.49-2.29-.73-1.08-.89,4.46-1.71,8.91-2.4,13.41-.15,.99-.29,1.99-.41,2.98-.19,1.64-.16,1.57,.08-.21-.1,.44-.18,.88-.23,1.33-.06,.43-.11,.86-.16,1.3-.41,3.66-.52,7.27-.51,10.95,0,1.8,.14,3.83,.53,5.59,.1,.47,.28,2.01,.82,2.16s.66-.33,.83-.96c.4-1.52,.5-3.2,.5-4.75,0-8.92,.07-17.83,.41-26.74,.04-1.05,.09-2.11,.13-3.16,.03-.82-.03,.7-.03,.68,0-.32,.03-.65,.05-.97,.03-.57,.06-1.13,.09-1.7,.13-2.26,.28-4.52,.45-6.78s.35-4.35,.57-6.52c.06-.56,.12-1.13,.17-1.69,.07-.71-.04,.35-.05,.4,.01-.24,.05-.48,.08-.72,.14-1.2,.28-2.41,.44-3.61,.31-2.4,.67-4.8,1.06-7.19,.21-1.28,.43-2.55,.67-3.82,.04-.24,.09-.48,.13-.72,.02-.08,.19-.98,.11-.57-.1,.52,.09-.46,.12-.57,.08-.4,.16-.79,.25-1.19l-2.11-4.69c.1,1.3,.19,2.59,.26,3.89,.04,.65,.07,1.3,.11,1.95,.04,.86,.03,.65-.03-.64,.01,.32,.03,.65,.04,.97,.1,2.43,.16,4.87,.18,7.31,0,.32,0,.65,0,.97,0-1.29,0-1.51,0-.64,0,.65,0,1.3-.01,1.95-.01,1.14-.03,2.27-.06,3.41-.03,1.3-.08,2.6-.13,3.9-.04,.79-.03,.65,.02-.43-.02,.32-.03,.65-.05,.97-.03,.57-.06,1.14-.1,1.7-.15,2.51-.35,5.02-.58,7.53-.06,.65-.13,1.29-.19,1.94-.13,1.32,.13-1.11-.04,.33-.15,1.29-.3,2.58-.46,3.87-.31,2.42-.65,4.83-1.04,7.23-.2,1.28-.42,2.56-.65,3.84-.11,.64-.23,1.28-.35,1.92-.06,.32-.12,.64-.18,.96,.09-.45,.07-.38-.04,.19l1.91,12.39c2.79-18.3,5.59-36.6,8.38-54.9,.52-3.38,.36-7.03-.15-10.39-.1-.63-.21-2.38-.75-2.82-.61-.49-.83,.13-.99,.82-4.41,19.5-6.1,39.57-5.33,59.54,.06,1.6,.15,3.2,.4,4.79,.1,.63,.2,2.37,.74,2.82,.35,.29,.36,.29,.69-.02,.59-.54,.63-3.1,.68-3.65,.1-1.12,.18-2.24,.31-3.35-.18,1.51,0,.04,.03-.31,.07-.64,.14-1.27,.21-1.91,.23-2.07,.49-4.14,.77-6.2,.58-4.28,1.26-8.56,2.04-12.81-.16,.85,.09-.48,.12-.65,.12-.63,.24-1.26,.37-1.89,.19-.94,.38-1.88,.57-2.83,.46-2.2,.94-4.39,1.45-6.57,.98-4.21,2.06-8.4,3.21-12.56l-1.8-12.38c-2.68,20.31-4.34,40.7-4.76,61.19-.06,2.74,.04,5.61,.62,8.3,.08,.35,.2,1.35,.59,1.54,.48,.23,.61-.51,.72-.96,2.52-10.12,4.15-20.46,5.29-30.82,1.15-10.49,1.99-21.06,2.46-31.6l-1.82,1.64c.25,1.25,.49,2.5,.7,3.76,.11,.63,.2,1.26,.3,1.89,.05,.31,.1,.63,.14,.94,.07,.53,.09,.63,.04,.3,.08,.63,.15,1.26,.22,1.9,.03,.32,.07,.63,.1,.95,.07,.79,.05,.63-.04-.46,.21,.2,.11,1.59,.12,1.9,.02,.32,.03,.63,.05,.95-.05-1.3-.06-1.53-.03-.67,.02,.64,.03,1.27,.05,1.91,.01,.86,0,.64,0-.67,0,.32,0,.64,0,.95,0,.48-.01,.95-.02,1.43-.02,.79-.01,.64,.02-.46-.01,.32-.02,.64-.04,.95-.03,.64-.06,1.27-.1,1.9-.02,.32-.04,.63-.06,.95,.06-.81,.07-.87,.01-.18-.11,1.27-.23,2.53-.38,3.8-.07,.63-.15,1.26-.24,1.89,.12-.82-.15,.96-.18,1.12-.2,1.26-.42,2.51-.67,3.76-.46,2.32-.99,4.62-1.47,6.93-1.37,6.56-1.95,13.17-1.71,19.87l.81-7.92c-5.5,.38-10.93,1.34-16.24,2.85l.71,15.5c2.49-5.18,4.14-10.74,5.15-16.39,.62-3.43,1.04-6.88,1.35-10.35,.11-1.26,.2-2.53,.27-3.79,.04-.67,.07-1.34,.09-2.01,.03-.77,.07-1.56,.09-2.34,.03-.78,.02-.6-.03,.55l.08-1.89c.47-13.29-.37-26.68-2.3-39.84-1.05-7.18-2.46-14.31-4.24-21.35-.05-.21-.42-2.25-1.1-2.23s-.96,2.07-.99,2.28c-.55,3.42-.59,7.5,.27,10.89h0Z"/><path class="cls-1" d="M637.58,297.49c.61,1.62-.21-.55-.35-.83-.48-.98-1.12-1.69-1.86-2.49-.79-.86-1.01,3.03-1.02,3.28-.04,1.8-.12,4.06,.76,5.71,.28,.52,.56,1.05,.84,1.57,.24,.67,.52,1.32,.84,1.95,.4,.42,1.18,.52,1.71,.68,1.03,.31,2.08,.6,3.13,.86,2.32,.57,4.68,1,7.05,1.3,4.67,.58,9.38,.55,14.05,0l-.39-15.78c-5.21,3.52-7.9,9.22-9.54,15.12-1.82,6.52-2.12,13.48-4.83,19.73l1.32,14.4c1.96-6.81,2.78-13.91,2.91-20.97,.14-8.01-.45-16.19-2.34-23.99,0,0-.69-3.31-1.35-2-3.01,6.01-4.55,12.51-5.15,19.18-.76,8.54-.17,17.31,2.01,25.6,.12,.46,.41,1.18,.92,.92s.71-1.88,.75-2.19c1.73-12.6,1.39-25.77-1.34-38.2-.06-.28-.36-2.2-1.03-2.29s-.9,2.2-.92,2.34c-1.37,11.45-.62,24.25,5.28,34.45,1.39,2.4,5.71,8.8,8.64,4.46,1.19-1.76,1.37-4.36,1.75-6.39,.54-2.89,.98-5.76,1.26-8.68,.39-4.09,.41-8.25,.11-12.34-.27-3.77-.77-7.62-2.11-11.17-.23-.6-.4-1.35-.99-.77-.68,.65-.6,2.9-.67,3.65-1.68,19.56-2.36,39.15-2.37,58.78l2.04-.05c-.01-.22-.02-.45-.04-.67-.07-.88,.05,1.09,.03,.98-.06-.44-.01-.9-.04-1.35,.12,2.49,0,.69,.02,.08,0-.22,.02-.45,.01-.67,0,.32-.06,1.53-.01,.55,.02-.45,.05-.9,.07-1.34,.07-1.19-.1,1.01,.01-.19,.1-1.05,.2-2.09,.33-3.13,.05-.45,.11-.89,.17-1.34,.03-.25,.19-1.32,.07-.55,.16-1.04,.32-2.09,.5-3.13,.33-1.94,.69-3.87,1.07-5.8,1.6-8.28,3.31-16.5,3.97-24.92,.5-6.45,.35-12.95-.27-19.39-.04-.46-.21-3.55-.96-3.76-.78-.21-.89,1.68-.94,2.2-1.1,11.46-1.03,22.91-.79,34.41,.05,2.42,.09,4.85,.11,7.27,.02,1.59,0-1.66,0-.57,0,.29,0,.58,0,.88,0,.58,0,1.17,0,1.75-.01,1.24-.04,2.47-.07,3.71,0,.28-.04,.59-.03,.87-.06-1.88,.04-1.06,.02-.59-.03,.58-.05,1.16-.09,1.73s-.07,1.15-.11,1.73c-.02,.29-.04,.57-.06,.86,0,.05-.12,1.43-.04,.54-.23,2.43-.53,4.85-.97,7.24-.97,5.23-2.51,10.26-4.74,15.1l1.26,3.61c-.1-1.07-.2-2.13-.29-3.2-.04-.49-.08-.99-.12-1.48-.04-.55-.03-.33,.05,.66-.03-.33-.05-.66-.07-.99-.15-1.97-.28-3.95-.39-5.92-.06-.99-.11-1.98-.15-2.96-.02-.33-.03-.66-.04-.99l.05,1.12c-.03-.58-.04-1.15-.06-1.73-.07-2.06-.12-4.12-.15-6.18,0-.49-.01-.99-.02-1.48-.02-1.79,0,1.92,0,.13,0-.99,0-1.98,0-2.97,.01-2.14,.05-4.29,.11-6.43,.01-.47-.03-2.06,0-.08,0-.49,.03-.99,.05-1.48,.04-.99,.08-1.98,.12-2.97,.1-2.14,.26-4.28,.44-6.42l-2.26-6.05c-.1,4.48,.08,8.98,.11,13.47,0,.47,0,2.3,0-.13,0,.49,0,.99,0,1.48,0,.99,0,1.98,0,2.96,0,1.98-.02,3.95-.04,5.93s-.06,3.95-.11,5.92c-.02,.99-.06,1.97-.09,2.96-.04,1.17,.03-.71-.02,.57-.02,.49-.04,.99-.06,1.48-.09,1.89-.19,3.78-.31,5.66-.06,.98-.12,1.97-.18,2.95-.04,.66-.09,1.31-.14,1.97-.03,.45-.02,.33,.03-.38-.03,.33-.06,.66-.09,.98l1.71,1.56c-.07-.55-.12-1.11-.19-1.66-.05-.55-.03-.32,.05,.7-.02-.24-.03-.48-.04-.72-.05-.87-.04-4.27-.11-1.56,.01-.45-.09-1.92-.01,.09-.06-1.63-.02,1.45,0-.32,.01-.61,.01-.7,0-.29l.02-.57c.02-.46,.04-.92,.08-1.38,.03-.41,.07-.81,.11-1.22,.07-.88,.09-1.09,.05-.64,.31-1.62,.22-3.38,.05-5.01-.04-.37-.42-2.69-.69-1.3l-.09,.47,.23-.51c-.6,.54-.71,1.86-.88,2.64-.26,1.23-.44,2.48-.55,3.73-.47,5.18-.31,10.43,.34,15.59,.05,.41,.17,3.58,.87,3.76,.15,.23,.29,.18,.42-.15,.23-.66,.37-1.35,.42-2.05,.92-9.61,1.43-19.23,1.56-28.88s.22-18.8-.2-28.16c-.05-1.16-.18-2.35-.38-3.49-.08-.43-.23-2.03-.72-2.16-.4-.11-.4,.1-.58,.56-.38,.94-.43,2.31-.47,3.25-.93,19.83-.8,39.62,1.09,59.39,.1,1.04,.16,2.27,.57,3.23,.11,.25,.36,1.08,.68,.38,4.68-10.14,6.47-21.29,7.22-32.35s.54-22.6,.36-33.88c-.01-.74-.02-1.47-.03-2.21,0-.29,0-.59,0-.88,0-.29,0-.59,0-.88v1.22c-.07-1.46,.01-2.94,.04-4.4,.01-.73,.03-1.46,.06-2.19,0-.29,0-.59,.03-.88l-.04,1.02c.01-.29,.03-.58,.04-.87,.07-1.45,.17-2.9,.29-4.35l-2.05,.05c.03,.22,.05,.45,.07,.67,.08,.64-.01-.28-.03-.32,.06,.19,.03,.47,.04,.67,.07,.88-.06-1.09-.04-.98,.07,.33,.11,1.01,.03,1.34-.03,.1,.01-1.87,0-.99,0,.3,0,.6,0,.89,0,.22-.02,.45-.01,.67,0,.05,.07-1.58,.03-.78-.02,.45-.04,.89-.07,1.34-.03,.49-.16,1.08-.11,1.56,0-.02,.12-1.19,.04-.49-.03,.3-.06,.6-.09,.89-.2,1.86-.45,3.72-.74,5.58,.12-.78-.05,.29-.09,.54-.08,.45-.15,.89-.23,1.34-.17,.97-.33,1.93-.51,2.9-1.41,7.77-3.16,15.47-3.94,23.34-.62,6.28-.73,12.61-.32,18.91,.03,.52,.17,5.8,1.16,5.78s.88-5.38,.88-5.83c0-4.79,.09-9.58,.22-14.37,.03-1.16,.06-2.31,.1-3.47s.29-2.39,.12-3.47c-.03,1.07-.03,1.2,0,.41l.03-.5c.04-.66,.07-1.32,.11-1.98,.07-1.16,.12-2.31,.17-3.47,.42-9.4,1.04-18.8,1.85-28.18l-1.66,2.88c.16,.42,.31,.84,.44,1.26,.05,.16,.4,1.57,.31,1.09-.15-.76,.18,1.6,.06,.32-.07-.51-.08-.48,0,.08-.09-1.08-.12-1.34-.08-.78,.04,.62,.03,.29-.04-.99,.02,.85,.02,.59,0-.77-.02,1.41,.13-1.62,.01-.1-.04,.45-.03,.91-.1,1.35l.07-.7c-.03,.3-.07,.6-.11,.9-.12,.9-.25,1.8-.4,2.7,0,.06-.27,1.51-.09,.55-.08,.45-.17,.89-.26,1.33-.33,1.7-.29,2.97-1.52,4.08l.35-.29c-1.2,.82-2.41,.49-3.55-.27l.38,.27c-1.61-1.2-2.7-2.95-3.7-4.66s-1.82-3.45-2.48-5.39c-.16-.46-.3-.91-.44-1.38-.08-.26-.15-.53-.23-.79,.14,.56,.14,.57,0,.03-.12-.54-.23-1.08-.34-1.62-.25-1.24,.17,1.35-.03-.24-.23-1.76,.11,1.45,0,.04-.05-.84-.04-.55,.03,.86-.01-.27-.02-.55-.02-.83,0,1.41,0,1.7,0,.86,.03-.77,.01-.55-.04,.65,.06-.35,.23-2.31,.01-.45l-1.95,.05c.22,1.01,.43,2.02,.62,3.04,.03,.18,.29,1.75,.15,.85s.09,.68,.12,.86c.08,.55,.14,1.11,.21,1.66,.18,1.44-.11-1.55,0,.02,.04,.48,.08,.95,.11,1.43,.04,.57,.06,2.19,0-.19,.02,.95,.05,1.91,.07,2.86-.06-2.44,0-.69-.02-.19,0,.35-.07,1.46-.01,.49-.05,.95-.14,1.9-.22,2.86-.07,.69-.06,.63,.03-.18-.03,.24-.06,.47-.09,.71-.07,.55-.15,1.1-.23,1.66l1.67-1.28c.27,1.05-.14-.7-.18-.88-.12-.55-.29-1.14-.32-1.7,.12,1.78,0-.18-.05-.55-.08-.77-.07-.57,.06,.59-.02-.29-.05-.58-.07-.86-.05-.84-.04-.58,.03,.8-.01-.29-.02-.58-.02-.87,0-.84,0-.58,0,.8,0-.29,.01-.58,.02-.87,.03-.77,.02-.58-.03,.59,.02-.29,.04-.58,.06-.86,.02-.29,.05-.58,.08-.86-.09,.81-.11,.99-.05,.53,.08-.5,.14-1,.22-1.5,.03-.19,.38-1.94,.15-.89,.25-1.13,.53-2.25,.86-3.35,.63-2.08,1.43-4.08,2.39-6.03l-1.05-.77c.28,1.09,.51,2.2,.71,3.31,.11,.61,.22,1.22,.31,1.83-.23-1.68,.02,.39,.06,.71,.08,.78,.06,.62-.04-.5,.03,.31,.05,.62,.07,.93,.04,.61-.09,2.1,0-.24-.02,.6,0,1.26,.04,1.86-.19-2.55-.02-.38-.03,.22-.03,.78-.02,.62,.02-.5-.02,.31-.03,.62-.05,.93-.02,.31-.04,.62-.07,.93-.06,.69-.05,.62,.03-.22,.09,.23-.13,1.14-.16,1.38-.08,.61-.16,1.23-.26,1.84-.05,.31-.1,.61-.15,.92,.09-.48,.08-.44-.03,.13-.12,.61-.25,1.21-.38,1.82-.27,1.21-.59,2.4-.93,3.59-.87,3.04-.55,6.78-.27,9.87,.11,1.24,.21,2.58,.6,3.76,.09,.27,.59,1.68,.98,.77,2.73-6.3,3.41-13.06,5.02-19.67,1.27-5.22,3.45-10.41,7.83-14.01l-.36,.29c.4-.31,.81-.61,1.23-.89,2.09-1.41,1.38-15.98-.39-15.78-8.52,1-17.33,.33-25.55-2.19l-.37,.28c-.4,.97-.92,1.58-1.54,2.35l1.06,7.76c.15-1.08,.92-2.05,1.63-2.84,.27-.3,.13-1.26,0-1.6h0Z"/><path class="cls-1" d="M660.17,340.58c-1.74,5.07-3.37,10.2-5.47,15.14-2.27,5.34-4.85,10.53-7.84,15.51l1.34,7.52c0,1.29,0,1.51,0,.66,0-.78,0-.63-.02,.45-.08-.14,.1-2.54,.01-.77,.05-1.1,.18-2.2,.32-3.29-.1,.81,.14-.95,.17-1.11,.1-.62,.2-1.25,.31-1.87,.19-1.09,.41-2.18,.64-3.26,.97-4.55,2.25-9.01,3.51-13.48,.86-3.04,.63-6.55,.43-9.67-.1-1.55-.16-3.17-.55-4.68-.06-.22-.42-1.64-.75-.77-3.66,9.55-7.36,19.08-11.06,28.61l.88,15.18c6.65-21.41,9.99-43.9,10.37-66.3,.07-4.27,0-8.71-.88-12.9-.57-2.73-1.41-5.15-3.65-6.91-.28-.22-.7,1.56-.73,1.72-.25,1.36-.33,2.75-.36,4.13-.27,12.39-.44,24.79-.17,37.19,.04,1.6,.15,3.21,.39,4.8,.09,.63,.19,2.38,.73,2.82,.34,.29,.34,.29,.67-.02,.58-.53,.62-3.12,.67-3.66,1.34-16.23,.03-33.33-6.6-48.4-.19-.44-.35-1.21-.91-.92-.52,.27-.7,1.89-.75,2.2-.46,3.18-.3,6.43,.02,9.61-.21-2.08-.02-.14,.02,.31,.05,.57,.1,1.14,.15,1.71,.08,.98,.15,1.96,.22,2.94,.08,1.14,.1,2.29,.2,3.43-.21-2.41-.03-.64-.01-.14,.02,.57,.04,1.14,.06,1.72,.03,1.06,.06,2.13,.08,3.19,0,.49,.01,.98,.02,1.47,0,.26,0,2.38,0,.91s0,.65-.01,.91c0,.49-.01,.98-.02,1.47-.02,1.15-.05,2.29-.09,3.44-.07,2.01,.02,4.11,.29,6.1,.08,.57,.3,3.12,.94,3.62s.88-.13,1.08-.83c.44-1.53,.47-3.18,.54-4.75,.63-13.75-1.73-28.01-8.94-39.9-.8-1.32-1.46,2.77-1.48,2.88-.34,2.87-.34,5.94,.1,8.81,.86,5.62,1.71,11.24,2.46,16.87,.37,2.75,.71,5.51,1.01,8.27,.03,.31,.07,.61,.1,.92,.02,.17,.16,1.71,.05,.44s.03,.27,.04,.44c.03,.31,.06,.61,.09,.92,.14,1.46,.28,2.91,.4,4.37,.11,1.3,.22,2.6,.31,3.91,.05,.69,.09,1.38,.13,2.07,.04,.6,.1,3.61,.06,.88,.02,1.3,.11,2.6,.14,3.89,.02,.69,.02,1.37,.03,2.06,0,.5-.03,1.53,0-.74,0,.46,0,.91,0,1.37-.01,1.37-.05,2.73-.1,4.1-.01,.43-.09,1.38,.03-.53-.02,.3-.03,.61-.05,.91-.04,.76-.09,1.51-.14,2.27s-.11,1.51-.18,2.26c-.02,.27-.11,.64-.08,.9-.02-.17,.15-1.39,.02-.26-.16,1.42-.33,2.85-.54,4.26-.12,.82-.26,1.64-.39,2.46-.02,.15-.16,.92-.01,.09-.08,.45-.17,.89-.25,1.33-.29,1.48-.61,2.96-.96,4.42-.8,3.3-1.84,6.52-2.8,9.77l1.45,1.17c-.46-2.82-1.16-5.57-1.83-8.35-.22-.9-.5-.25-.6,.31-.24,1.3-.18,2.7-.1,4.01,.27,4.48,.5,8.96,.92,13.43,.1,1,.19,2.24,.64,3.15,.11,.22,.46,1.11,.77,.37,2.46-5.77,3.73-12.16,4.79-18.32,1.16-6.74,1.7-13.58,1.97-20.41,.52-13.61-.43-27.24-2.11-40.75-.85-6.79-1.87-13.55-2.9-20.31l-1.38,11.68c2.45,4.05,4.22,8.33,5.52,12.87-.13-.47-.09-.37,0,.04,.07,.28,.14,.57,.2,.85,.13,.57,.25,1.14,.37,1.72,.06,.29,.11,.58,.16,.86,.15,.82-.09,.04-.05-.3-.07,.51,.17,1.23,.24,1.74,.13,.98,0-.29-.05-.58,.05,.29,.05,.59,.08,.87,.03,.36,.05,.73,.07,1.09,.07,1.01-.05-1.8-.04-.79,0,.29,0,.59,.02,.88,.04,1.01,.03-1.8,0-.79-.02,.66-.03,1.32-.06,1.97l2.86,4.15c.34-11.21-.13-22.41-1.28-33.56l-1.64,10.89c1.19,2.7,2.25,5.45,3.13,8.26,.43,1.37,.8,2.75,1.15,4.14s-.09-.5,.07,.31c.07,.37,.16,.74,.24,1.11,.15,.74,.29,1.48,.42,2.22,.05,.3,.1,.6,.15,.89,.25,1.48-.11-.9,0-.03,.1,.75,.2,1.49,.28,2.25,.06,.54-.09,1.52-.02-.31-.01,.37,.06,.76,.09,1.13s.05,.75,.07,1.13c.07,1.11,.01-.5-.03-.75,.12,.7,.08,1.56,.05,2.26,.02-.57,0-1.84-.01-.52,0,.38-.02,.75-.02,1.13-.02,.98,0-.22,.03-.54-.03,.37-.04,.75-.06,1.13s-.05,.75-.08,1.13-.2,1.79-.02,.19l2.3,7.66c.02-3.42,.06-6.84,.05-10.26,0-.74,0-1.48,0-2.22,0-.33,0-.66,0-.99,0-1.73,0,1.4,0,.38,0-1.48,0-2.96,0-4.45,.02-5.85,.07-11.69,.17-17.54l-1.09,5.85,.27,.22-.35-.27c.6,.53,1.11,1.12,1.51,1.82,.11,.2,.21,.4,.31,.6-.03-.07-.13-.36,0,0,.06,.16,.11,.33,.16,.5,.36,1.06-.08-.67,0-.03,.03,.17,.05,.36,.09,.53-.12-.53-.17-1.13-.2-1.69,.01,.21-.08-2.06-.06-1.2,.03,.96,.01-1.98,0-1.03-.02,1.13-.04,2.26-.07,3.39,0,.28-.07,2.16-.03,.96s-.03,.73-.04,.96c-.05,1.11-.11,2.22-.18,3.34s-.15,2.22-.23,3.33c-.04,.56-.09,1.11-.13,1.67-.07,.9,.1-1.07,.01-.18-.03,.32-.06,.63-.09,.95-.22,2.3-.47,4.59-.76,6.88-.14,1.11-.29,2.21-.45,3.31-.08,.55-.16,1.1-.24,1.65-.04,.24-.07,.47-.11,.71,.12-.77-.04,.27-.07,.41-.72,4.48-1.58,8.93-2.57,13.36-1.12,5.01-2.44,9.97-3.89,14.89-.89,3.03-.63,6.59-.43,9.71,.1,1.56,.16,3.18,.55,4.7,.06,.22,.42,1.64,.75,.78,3.67-9.56,7.34-19.12,11.06-28.66l-.88-15.13c-1.57,5.45-3.11,10.93-4.2,16.5-1.38,7.04-1.84,14.19-1.68,21.36,.05,2.05,.15,4.12,.51,6.14,.06,.34,.31,2.25,.83,1.38,6.33-10.6,11.02-22.17,13.28-34.32,.47-2.51,.28-5.28,.1-7.81-.07-.99-.13-2.02-.36-2.98-.04-.16-.32-1.31-.56-.62h0Z"/><path class="cls-1" d="M743.06,307.82c-.44-1.36-1.17-2.57-2.2-3.55-.43-.41-.89-.77-1.39-1.09-.3-.19-.6-.36-.92-.51-2.54-1.23-.87,.49-3.34-5.52-1.12-2.73-1.84,1.81-1.91,2.59-.28,3.17-.23,6.64,.76,9.69,.7,2.15,2.31,3.91,3.57,5.77,1.12,1.64,2.18,3.32,3.19,5.03,2.03,3.42,3.86,6.95,5.45,10.59,3.12,7.13,5.34,14.53,6.65,22.2,.06,.35,.11,1.16-.05-.35,.03,.28,.08,.56,.12,.84,.08,.56,.15,1.12,.22,1.67s.13,1.12,.19,1.68c.03,.23,.1,1.01,0-.11-.12-1.3,0,.14,.02,.32,.05,.56,.09,1.12,.13,1.68,.02,.36,.11,2.1,.04,.63s0,.48,.02,.85c.02,.67,.02,2.9,.02,.21l2.71,2.04c0-3.29,.08-6.77-1.08-9.89l.45,2.8c-.29-3.16-.4-6.32-.48-9.49,0-.24,0-1.95-.36-2.01s-.36,1.31-.36,1.48c-.03,2.98-.07,5.96-.33,8.93l.44-2.17c-1.2,1.85-1.02,4.84-1.01,6.92,0,1.17,.02,2.33,.03,3.5,.02,1.83,.16,3.8,.53,5.59,.06,.27,.35,2.21,1.01,2.3,1.32,.17,1.16-7.66,1.16-7.96-.2-19.17-4.29-38.38-13.79-55.15-1.17-2.06-2.42-4.08-3.74-6.05-.62-.93-1.26-1.84-1.92-2.75-.45-.63-1.51-2.61-2.43-2.35l1.51,10.64c.32-4.15-.22-4.75,2.28-3.82,.74,.28,1.44,.66,2.08,1.13,1.28,.95,2.22,2.22,2.74,3.73,0,.01,.01-.05,0-.07h0Z"/><path class="cls-1" d="M744.48,313.24l2.61-5.4c-.17-.2-.33-.41-.48-.63-.27-.38-.53-.78-.75-1.19-.24-.44-.45-.89-.63-1.35-.62-1.61-.05-2.27-.22,1.81l-1.65,2.4c.09,.34,.27,1.5,.1,0-.22-1.99,.08,.87,.11,1.04,.16,1.14,.36,2.3,.91,3.32,.47,.87,.98,1.72,1.44,2.59,.93,1.75,1.8,3.54,2.69,5.32,1.58,3.17,2.99,6.43,4.25,9.74,1.33,3.51,2.5,7.08,3.48,10.7,.45,1.65,.83,3.33,1.19,5,.18,.86,.36,1.73,.52,2.6,.08,.43,.16,.87,.24,1.3,.04,.22,.07,.44,.11,.65,.14,.78-.02,.09-.04-.29,.07,1.08,.33,2.18,.47,3.26,.07,.51,.13,1.02,.19,1.53,.04,.31,.21,2,.09,.81s.04,.5,.07,.81c.04,.51,.08,1.02,.12,1.53s.07,1.02,.1,1.54c.02,.27,.06,1.1,0-.17-.07-1.47,0,.05,0,.27l2.48-4.04c-2.55-18.8-7.78-37.05-15.8-54.25v15.51c.31,.19,.62,.39,.92,.59l-.39-.27c1.57,1.13,2.89,2.52,3.99,4.11,.49,.7,.93,1.43,1.34,2.18,.49,.9,.77,1.5,1.08,2.24,1.69,4.01,2.9,8.23,4.24,12.36,3.16,9.69,6.32,19.39,9.49,29.08l.76-14.46c-2.03-4.26-3.74-8.68-5.25-13.15-.78-2.3-1.49-4.62-2.16-6.96-.33-1.17-.66-2.34-.97-3.52-.04-.16-.5-1.93-.26-.98-.15-.59-.29-1.18-.44-1.77-2.32-9.56-3.92-18.89-5.34-28.07l-1.45,11.65c4.52,6.56,8.27,13.6,11.33,20.95,1.55,3.72,2.93,7.51,4.17,11.35,.61,1.89,1.19,3.79,1.74,5.69,.26,.92,.52,1.84,.77,2.76,.07,.28,.34,1.28,.13,.48,.15,.57,.3,1.14,.44,1.71,1.12,4.42,2.1,8.87,2.96,13.34l1.68-11.22c-4.23-17.92-9.2-35.65-14.83-53.18l-.8,14.48c8.36,14.95,14.79,30.9,19.25,47.43l1.06-13.69c-4.63-16.08-9.34-32.15-13.65-48.32l-.36,14.76c.71,.06,1.17,.27,1.78,.64l-.4-.27c1.22,.99,1.76,2.14,2.25,3.17,.85,1.79,1.69,3.59,2.52,5.4,1.62,3.54,3.18,7.11,4.68,10.7,3.04,7.25,5.84,14.6,8.42,22.04,.24,.68,.52,1.31,1.15,.77s.74-3.08,.79-3.66c.27-3.53,.25-7.39-.79-10.82-4.35-14.36-9.03-28.66-12.88-43.16l-1.28,13.27c9.19,13.32,14.14,28.82,18.95,44.12,.12,.37,.56,2.31,1.37,2.29s1.18-1.98,1.26-2.35c.37-1.83,.47-3.75,.41-5.61s-.14-3.81-.68-5.59c-.26-.86-.52-1.71-.79-2.57-.55-1.73-1.09-3.47-1.62-5.21,0-.01-.45-1.49-.2-.64-.49-1.63-.91-3.29-1.35-4.93-.9-3.37-1.76-6.76-2.58-10.15s-1.56-6.64-2.27-9.98c-.38-1.74-.72-3.49-1.05-5.25-.03-.18-.27-1.54-.12-.63s-.08-.46-.11-.64c-.19-1.11-.34-2.23-.49-3.35l-2.2,10.9c.28,.73,.57,1.47,.84,2.2,.02,.06,.54,1.49,.2,.54,.23,.63,.47,1.27,.71,1.89,.57,1.44,1.12,2.89,1.64,4.34,1.11,3.06,2.15,6.14,3.13,9.24,2,6.31,3.99,12.64,5.62,19.06l1.35-13.29c-.8-1.46-1.61-2.92-2.41-4.37-.68-1.24-1.56-2.03-2.57-2.99-.89-.84-1.68-1.63-2.43-2.61-.81-1.04-1.91-2.12-2.52-3.26-.32-.58-.6,2.04-.61,2.15-.03,1.15-.1,2.69,.47,3.74,.92,1.7,1.52,3.7,2.27,5.49s1.45,3.74,2.11,5.65c.63,1.8,1.13,3.74,1.95,5.47s1.85,3.51,2.77,5.25c.28,.53,.67,1.47,1.35,.77s.7-2,.83-2.86c.49-3.42,.34-7.02-.39-10.4-1.42-6.59-2.99-13.12-5.1-19.52-2.26-6.85-4.76-13.64-7.73-20.21-.26-.59-.74-1.44-1.41-.76s-.74,2-.87,2.86c-.51,3.41-.37,7.04,.4,10.4,3.42,15.03,6.44,30.15,10.82,44.95l2.35-11.27c-5.15-16.69-10.47-33.81-20.8-48.14-.59-.81-1.13,.48-1.25,.83-.4,1.22-.5,2.53-.58,3.8-.21,3.27-.1,6.74,.92,9.87,4.78,14.7,9.01,29.57,13.43,44.38l1.15-13.7c-2.76-8.03-5.78-15.97-9.08-23.79-1.63-3.87-3.33-7.72-5.1-11.54-.85-1.83-1.63-3.73-2.67-5.46-.86-1.45-2.17-2.85-3.94-3-1.16-.1-1.24,5.47-1.24,5.84-.05,2.96,.02,6.06,.88,8.92,4.8,16.03,9.23,32.19,13.71,48.31,.19,.69,.49,1.3,1.08,.77s.7-3.1,.74-3.65c.26-3.59,.15-7.31-.76-10.81-4.45-17.12-11.18-33.61-19.88-49.01-.51-.91-1.08,.64-1.14,.83-.37,1.22-.45,2.53-.52,3.8-.18,3.21-.17,6.77,.86,9.86,2.81,8.47,5.42,16.99,7.83,25.58,1.18,4.21,2.32,8.44,3.42,12.67,.16,.63,.32,1.26,.48,1.88,.04,.16,.38,1.48,.17,.66,.28,1.1,.55,2.2,.82,3.3,.54,2.2,1.07,4.41,1.6,6.62,.03,.15,.39,2.31,1.04,2.29s.9-2.19,.92-2.34c.53-3.63,.42-7.57-.27-11.18-3.2-16.69-7.73-33.16-15.55-48.32-2.15-4.16-4.56-8.17-7.24-12-1.02-1.46-1.64,3.68-1.64,3.67-.26,3.2-.09,6.41,.47,9.57,.03,.15,.16,.92,.02,.1-.21-1.27,.23,1.34,.22,1.25,.16,.9,.31,1.8,.47,2.7,.17,.98,.34,1.96,.51,2.93,.34,1.96,.7,3.91,1.06,5.86,.7,3.76,1.44,7.5,2.26,11.23,1.74,7.91,3.74,15.78,6.44,23.42,1.51,4.28,3.26,8.47,5.21,12.57,.47,.98,1.07-.75,1.09-.82,.36-1.22,.43-2.53,.5-3.79,.17-3.2,.17-6.76-.83-9.84-2.56-7.88-5.14-15.76-7.71-23.64-1.31-4-2.61-8-3.92-11.99-1.02-3.12-2.14-6.21-3.66-9.12-1.64-3.14-3.85-5.79-6.89-7.64-.52-.31-.99,2.62-.95,2.34-.23,1.5-.28,3.02-.28,4.54,0,2.83,.02,6.02,1.24,8.63,3.61,7.74,6.61,15.77,9.02,23.96,.28,.96,.56,1.92,.82,2.88,.16,.59,.32,1.19,.48,1.78,.01,.05,.39,1.49,.15,.56,.53,2.08,1.02,4.18,1.47,6.28s.87,4.21,1.24,6.33c.08,.45,.16,.91,.23,1.36,.05,.3,.1,.61,.15,.91-.13-.83-.15-.91-.04-.23,.16,1.06,.32,2.13,.46,3.19s.22,2.29,.74,3.21c.28,.49,.38,.86,.91,.38,.4-.37,.48-1.56,.56-2.04,.31-1.78,.33-3.79,.27-5.59-.63-17.06-3.83-33.99-10.97-49.57-1.85-4.04-4.03-7.8-6.31-11.6-.49-.82-.98,.56-1.05,.76-.44,1.31-.5,3.02-.53,4.37-.04,1.86,0,3.76,.28,5.6,.17,1.12,.32,2.33,.91,3.32h0Z"/><path class="cls-1" d="M731.59,297.91c-.63-1.07-1.42-2.16-1.75-3.37l-.81,4.48c.32,1.54,.56,3.91,2.01,4.83,.75,.48,1.56,.8,2.41,1,1.75,.41,3.53,.8,5.31,1.06,3.6,.52,7.27,.76,10.9,.93,7.21,.33,14.43,.08,21.6-.77,.77-.09,.91-1.78,1.02-2.35,.42-2.17,.37-4.47,.26-6.67-.09-1.74-.24-3.47-.7-5.16-.17-.61-.52-2.21-1.37-1.39-.78,.76-1.2,1.72-2.15,2.31-.81,.5-1.88,.7-2.78,.98-1.61,.5-3.27,.64-4.93,.86-.52,.07-.4,3.12,.08,3.35,1.71,.81,3.43,1.55,5.02,2.58,.85,.55,1.75,1.06,2.51,1.73,1.16,1.02,1.71,2.27,2.64,3.47l.02-15.58c-7.16,.84-14.38,1.2-21.59,.98-3.57-.11-7.11-.4-10.66-.74-1.76-.17-3.53-.24-5.29-.4-.79-.07-1.87-.17-2.62,.18-1.37,.65-1.54,3.08-1.78,4.33s-.19,2.59,0,3.82c.02,.16,.38,2.02,.77,1.43,.72-1.09,1.01-1.27,1.91-1.83,.02,0,0-.06,0-.07h0Z"/><path class="cls-1" d="M731.67,304.76l.27-.2-.39,.28c2.9-1.64,5.83-3.16,8.64-4.95s5.61-3.75,8.3-5.8c5.4-4.12,10.57-8.54,15.71-12.97,.65-.56,.78-3.04,.84-3.67,.19-2,.19-4.11,0-6.11-.14-1.56-.24-3.25-.83-4.72-.25-.61-.52-1.35-1.22-.77-6.75,5.61-13.69,11.45-17.64,19.47-.54,1.1-.67,2.47-.77,3.66-.17,2-.17,4.11,0,6.11,.13,1.56,.23,3.24,.78,4.72,.22,.59,.46,1.35,1.13,.77,6.41-5.63,12.37-11.72,17.87-18.25l-1.49-14.46c-2.84,6.98-4.39,14.47-5,21.98-.24,2.91-.17,5.92,.34,8.8,.06,.37,.74,4.05,1.67,2.8,3.44-4.6,5.49-9.89,6.64-15.49l-2.09,.05,2.2,8.91c.08,.31,.38,2.21,1.08,2.3s.93-2.18,.96-2.35c.79-4.37,.98-8.78,.98-13.21v-.95c0-.4-.01-.8-.02-1.19-.04-1.26-.1-2.52-.19-3.77-.16-2.21-.43-4.42-.8-6.61-.1-.62-.54-4.3-1.65-3.75-.47,.23-.6,1.14-.7,1.58-.31,1.36-.39,2.74-.46,4.13-.2,4.22-.07,8.48,.19,12.69,.24,3.97,.71,8.02,1.72,11.88,1.44,5.52,3.84,10.98,8.45,14.56,.55,.43,.68,.11,.97-.42,.48-.87,.57-2.36,.64-3.26,.26-3.2,.12-6.44-.47-9.6-1.36-7.27-3.81-14.25-7.08-20.87-.47-.96-1.03,.74-1.06,.83-.34,1.23-.41,2.54-.48,3.8-.16,3.23-.15,6.77,.81,9.88,1.02,3.31,2.29,6.52,3.85,9.62,.71,1.42,1.48,2.8,2.31,4.15s1.71,3.14,2.92,4.14v-15.31c-.63,.18-1.27,.41-1.8,.81-.83,.63-1.16,1.72-1.55,2.67s-.7,1.97-1.29,2.87c-.45,.68-.81,1.36-1.14,2.1-.26,.58-.04,4.61,.47,4.24,.27-.2,.77-.54,1.12-.55,.68-.01,1.16,1.03,1.51,1.52,.41,.57,.75,1.04,1.41,1.31,.55,.22,1.12,.35,1.66,.61,.98,.46,1.25-6.62,1.25-6.79,0-2.69,.09-6.09-1.24-8.52-.77-1.41-1.85-2.68-2.71-4.04s-1.63-2.72-2.35-4.13c-1.38-2.69-2.49-5.52-3.35-8.42l-.72,14.51c1.33,2.72,2.44,5.55,3.39,8.42,.24,.73,.47,1.47,.7,2.21,.11,.37,.22,.74,.33,1.11-.2-.67,0,.03,.09,.33,.41,1.57,.77,3.16,1.09,4.75l1.14-13.28c-3.73-2.87-5.71-6.58-7.1-10.8,.33,1-.07-.3-.15-.66-.04-.19-.22-1.5-.13-.58,.08,.84-.03-.19-.05-.36-.05-.31-.08-.62-.13-.93-.14-.93,.15,1.85,.03,.26-.02-.31-.05-.62-.07-.94-.09-1.1,0,.41,.03,.7-.05-.7-.05-1.41-.07-2.12,0-.31,0-.63-.01-.94-.01-1.29-.03-.17,0,.46-.08-1.95,.05-3.92,0-5.88l-2.53,5.67c.07,.31,.14,.62,.2,.94,.13,.69,.12,.63-.03-.19,.16,.22,.16,1.15,.2,1.42,.2,1.47-.12-1.63,.02,.25,.15,1.98-.02-1.31,0-1.59,0,.09,.06,1.4-.03,1.43,.06-1.1,.07-1.26,.01-.47-.02,.32-.05,.63-.08,.95l.08-.66c-.04,.32-.08,.63-.13,.95-.09,.63-.2,1.26-.32,1.88l2.04-.05-2.16-8.91c-.08-.32-.39-2.21-1.1-2.3s-.95,2.17-.99,2.35c.1-.46,.11-.46,0,0-.07,.27-.14,.55-.21,.82-.15,.55-.31,1.09-.49,1.63-.34,1.05-.7,1.98-1.15,2.94-.99,2.12-2.21,4.12-3.61,5.99l2.01,11.6c.07-.77,.09-1.58,.23-2.34-.15,.77-.09,.73,.01-.02,.06-.39,.11-.77,.18-1.16,.12-.77,.26-1.54,.41-2.31,.02-.11,.27-1.3,.15-.75-.11,.51,.19-.78,.18-.75,.74-3.04,1.7-6.02,2.84-8.93,.52-1.33,.53-3.38,.56-4.75,.03-1.72-.02-3.44-.2-5.16-.06-.62-.77-5.84-1.85-4.55-5.44,6.55-11.42,12.66-17.85,18.25l1.14,15.27c4.02-8,10.93-13.85,17.7-19.47l-1.2-15.27c-5.14,4.43-10.27,8.85-15.67,12.97l.39-.29c-.61,.46-1.22,.92-1.83,1.39l.39-.29-.75,.57,.39-.29c-2.48,1.86-5.01,3.66-7.61,5.34-1.27,.82-2.56,1.61-3.86,2.37s-2.71,1.4-3.92,2.32c-.62,.47-.75,3.04-.8,3.56-.18,1.94-.18,3.99,0,5.94,.13,1.51,.23,3.16,.79,4.58,.25,.63,.48,1.26,1.16,.75h0Z"/><path class="cls-1" d="M765.12,331.66c.65-1.66,1.14-3.37,1.42-5.13,.12-.77,.13-1.57,.38-2.3,.7-2.1,.64-4.45,.42-6.64-.02-.17-.57-3.98-.96-3.71-1.32,.92-2.65,1.55-3.66,2.85-1.13,1.45-2.08,2.98-2.86,4.65-2.16,4.61-3.51,9.59-3.63,14.69-.07,3-.08,6.65,.97,9.51,.33,.91,.78,1.76,1.76,2.09,1.5,.51,3.19-.65,4.39-1.39,3.96-2.42,7.91-4.84,11.87-7.27l-.71-15.38c-2.36,3.41-5.06,6.55-8.08,9.4l.31-.29c-1.88,1.76-3.87,3.39-5.96,4.89-.6,.43-.66,1.73-.74,2.32-.23,1.82-.25,3.74-.19,5.57s.12,3.73,.47,5.55c.14,.75,.2,1.8,.85,2.28,2.52,1.85,5.63,1.41,8.53,.97,2.68-.4,6.52-1.23,8.82,.68l-.25-.28,.46,.51-.25-.28c.17,.33,.21,.37,.14,.11l-.52-4.7v.31l.2-8.91c.06-.43-.32,.47-.47,.66l.22-.29c-1.04,1.14-2.37,1.74-3.74,2.4l-4.72,2.26-9.67,4.62c-.6,.29-.69,1.95-.74,2.34-.23,1.83-.25,3.76-.19,5.6,.02,.64,.29,8.1,1.32,7.88,9.67-1.98,19.5-3.15,29.37-3.48,.54-.02,.73-2.33,.73-2.34,.23-1.83,.24-3.77,.19-5.61s-.12-3.76-.46-5.6c-.13-.69-.18-1.91-.84-2.3-1.27-.75-2.53-1.5-3.81-2.24-.5-.29-1-.73-1.49-.18-.77,.87-.71,3.02-.76,4.01-.12,2.6-.06,5.23,.19,7.82,.06,.64,.11,3.27,.88,3.81,.59,.42,.81-.42,.92-.95,.46-2.23,.39-4.66,.31-6.92-.08-2.04-.07-4.25-.62-6.24-.3-1.08-.75-1.23-.95,.02l-.04,.26,.47-1.03-.18-.04,.27,.26-.14-.24,.68,3.5-.03-.28-.59,11.68c.54-.45,1.87,.62,2.32,.89l2.96,1.74-.39-15.85c-9.87,.33-19.69,1.51-29.37,3.51l.39,15.82,13.04-6.27c1.86-.9,4.02-1.64,5.32-3.34,.77-1.02,.89-2.26,1.01-3.5,.35-3.72,.26-7.77-.28-11.46-.17-1.2-.31-2.57-1.27-3.43-.59-.53-1.36-.77-2.12-.93-1.78-.38-3.63-.17-5.41,.08-3.27,.47-6.92,1.36-9.82-.76l.39,15.72c5.57-4.04,10.45-8.99,14.38-14.63,.56-.8,.61-2.78,.66-3.62,.11-1.67,.1-3.33,.03-5-.07-1.49-.15-3.03-.45-4.49-.05-.25-.52-2.53-.94-2.27l-9.32,5.74c-1.39,.85-2.76,1.86-4.24,2.54-.99,.46-2.18,.79-3.18,.18l.37,.27c-.16-.13-.36-.49-.31-.31l.74,4.62c.8,8.4-.5,8.17,0,5.53-.18,.95,.08-.29,.12-.49,.2-.84,.43-1.68,.69-2.51,.48-1.54,1.05-3.03,1.74-4.49,.78-1.67,1.58-3.31,2.48-4.92,1.03-1.86,1.84-3.84,2.95-5.66l-.91-1.29c.12,.68,.19,1.43,.76,1.88l-.07-.67c-.14,2.68-.66,5.28-1.53,7.82,0,.01,0,.08,0,.07h0Z"/><path class="cls-1" d="M879.49,315.92c-.34-1.14-.81-2.12-1.44-3.12-.44-.69-.93-1.35-1.24-2.1-.56-1.35-.9-2.77-1.52-4.09-.3-.66-.68,1.44-.68,1.46-.16,1.46-.17,3.03,.06,4.48,.21,1.37,.36,2.77,.63,4.13,.22,1.06,.63,1.93,1.09,2.89,.62,1.3,1.36,2.52,2.14,3.72,1.35,2.06,2.69,4.11,4.04,6.17s2.74,4.09,4.05,6.17c.22,.35,.43,.7,.62,1.07,.1,.19,.19,.39,.27,.58-.11-.28-.11-.24,.03,.12,.15,.51,.13,.41-.04-.31-.86-3.66-.82-7.23,.12-10.7-.17,.1-.4,.64-.57,.81l.33-.29c-.23,.18-.43,.3-.69,.43-.64,.31-.75,1.87-.82,2.33-.26,1.82-.28,3.76-.22,5.59,.02,.57,.51,8.2,1.43,7.86,6.8-2.47,13.59-4.99,20.37-7.5,.64-.24,.78-1.96,.83-2.34,.26-1.83,.29-3.78,.23-5.61-.02-.73-.18-8.06-1.45-7.9-6.49,.84-13.02,1.22-19.56,1.13l.39,15.85c8.35-.9,16.72-1.49,25.12-1.76,.59-.02,.8-2.27,.81-2.34,.25-1.83,.28-3.78,.22-5.61s-.13-3.77-.5-5.6c-.11-.56-.23-2.13-.92-2.3-11.56-2.82-22.98-6.17-34.22-10.06l.39,15.85c4.92,0,9.85,.19,14.75,.61,2.45,.21,4.9,.48,7.34,.8,1.14,.15,2.28,.31,3.41,.48s2.83,.8,3.88,.35c.61-.26,.6-1.7,.67-2.26,.27-2.12,.22-4.3,.13-6.42-.07-1.67-.18-3.33-.51-4.97-.06-.31-.43-2.28-.93-1.35-.31,.57-.55,1.23-.94,1.74s-.68,.66-1.26,.94c-.67,.33-1.39,.58-2.09,.87-.54,.22-.31,3.42,.02,3.82,.77,.92,1.56,1.82,2.32,2.75,1.13,1.38,1.64,2.96,2.31,4.61l-.1-15.01c-1-.75-2.66-.74-3.89-.92-1.14-.17-2.27-.33-3.41-.48-2.44-.32-4.89-.58-7.34-.8-4.91-.42-9.83-.62-14.75-.61-.56,0-.76,2.33-.77,2.34-.24,1.83-.26,3.77-.2,5.61s.12,3.76,.48,5.6c.11,.59,.2,2.07,.88,2.3,11.24,3.89,22.66,7.25,34.22,10.06l-.39-15.85c-8.39,.28-16.77,.87-25.12,1.76-.61,.07-.8,2.2-.82,2.34-.26,1.83-.28,3.78-.23,5.61s.13,3.77,.5,5.6c.09,.45,.29,2.29,.93,2.3,6.54,.08,13.08-.3,19.56-1.13l-.39-15.85c-6.79,2.51-13.59,5.01-20.37,7.57l.39,15.78c1.12-.55,1.62-1.43,1.97-2.59,.93-3.17,.74-7.01,.49-10.26-.27-3.5-.79-7-2.74-9.99-1.73-2.64-3.49-5.27-5.23-7.9s-3.2-5.26-5.4-7.39l.02,13.71,3.3-2.59s.01-.15,0-.18h0Z"/><path class="cls-1" d="M872.59,311.01l-.25-1.2-.96,5.71c10.56-4.62,21.14-9.19,31.67-13.86l-.69-15.56c-2.51,5.37-3.05,11.36-3.03,17.22,.02,3.82,.22,7.7,.96,11.47,.26,1.31,.53,2.62,.95,3.88,.32,.98,.6,2.54,1.49,3.16,.25,.17,.57-1.5,.6-1.66,.2-1.31,.27-2.66,.28-3.98,.02-2.87-.04-5.82-.7-8.63-1.04-.11-1.56,.2-1.58,.91-.04,.24-.06,.48-.07,.72-.04,.55-.05,1.11-.04,1.66,.02,1.78,.2,3.56,.44,5.33l-.27-4.41c0,2.64,.18,5.22,.53,7.84,.02,.12,.24,2.24,.8,2.22,.69-.02,.72-2.59,.75-3.03,.3-3.65,.26-7.65-.57-11.23-.21-.9-.57-1.73-.84-2.61-.1-.34-.2-.67-.29-1.01-.11-.4-.22-.88-.07-.2-.07-.34-.12-.69-.19-1.04-.16-.81,.16,1.54,.03,.14,.03,.3,.15,2.85,.14,2.1,0-.42-.01-.28,0,.42,.01,.56,0,1.12-.04,1.69,.06-.82,.02,.02-.05,.35,.09-.39,.1-.85,.16-1.25-.06,.46-.09,.45,.01,0,.07-.34,.15-.69,.23-1.03,.32-1.31,.79-2.52,1.35-3.75,.48-1.05,.54-2.56,.6-3.66,.09-1.69,.09-3.37,.01-5.06-.03-.58-.61-7.15-1.31-6.84-5.74,2.55-11.46,5.14-17.19,7.72l-8.37,3.77-4.3,1.93c-.62,.28-1.68,.54-2.11,1.1s-.43,1.78-.55,2.45c-.2,1.19-.29,2.38-.39,3.58s-.05,2.47,.09,3.68c0,.03,.25,1.94,.52,1.79l2.22-.63s.04-.15,0-.19h0Z"/><path class="cls-1" d="M895.8,305.19c-2.64-.11-5.28-.06-7.9,.18-1.27,.12-2.53,.3-3.8,.4-.63,.05-1.26,.11-1.89,.18-1.3,.14-.62,.24-1.68-1.83-.49-.95-.9-2.18-1.67-2.98-.98-1.03-1.17,4.21-1.18,4.58-.02,1.67,0,3.36,.23,5.02,.1,.74,.1,2.49,.7,2.98s.94,.74,1.73,.84c.47,.06,.97,.04,1.44,.05,1.12,.03,2.23-.04,3.35-.07,2.08-.05,4.16-.02,6.24,.08s4.16,.28,6.22,.52c1.11,.13,2.23,.27,3.33,.43,1.02,.15,2.38,.66,3.31,.25l-1.28-5.58,.02,.3,.24-6.3c-.42,1.35-.45,2.77-.45,4.18s.01,3.06,.39,4.5c.29,1.59,.63,.52,1.03-3.21,.9-1.75,1.16-3.55,.79-5.41-.12-.91-.23-1.85-.49-2.73s-.74-1.25-1.58-1.48c-1.27-.34-2.72-.4-4.04-.54-1.43-.16-2.86-.25-4.29-.32-2.71-.13-5.43-.13-8.14,0-1.35,.06-2.72,.11-4.07,.28-.64,.08-1.27,.23-1.91,.37-.99,.22-1.47,.51-2.16,1.26l.87,12.55c.7-1.22,.81-2.34,1.01-3.73l-.25,1.03c.51-1.22,.62-1.93,.81-3.29l-.12,.33c2.02-1.55,5.06-1.9,7.53-2.24s5.09-.51,7.66-.53c0,0,0-.08,0-.08h0Z"/><path class="cls-1" d="M962.27,317.79l-.94,2.62,.11,.88c.09,.51,.2,.92,.41,1.39,.29,.65,.59,1.32,1.24,1.64,1.19,.59,2.68,1.09,3.99,1.3,2.81,.45,5.55,.34,8.37,.09,5.5-.49,10.86-1.77,16.08-3.54l-.61-15.44c-.11,.21-.24,.42-.38,.62l.22-.29c-1.09,1.38-2.62,2.16-4.18,2.91-1.94,.93-3.9,1.84-5.84,2.77l-12.14,5.74c-.63,.3-.73,1.9-.79,2.33-.25,1.82-.27,3.76-.21,5.59s.12,3.75,.49,5.57c.08,.41,.3,2.33,.9,2.29,6.41-.38,12.75-1.52,18.87-3.47,1.49-.47,2.96-1.01,4.43-1.56,1.06-.39,2.21-.81,3.36-.7,.66,.06,.94,.37,1.45-.16,.34-.36,.74-2.55,.82-3.25,.08-.64,.15-1.24,.33-1.86,.53-1.87,1.57-3.43,2.91-4.81,.56-.58-.1-4.65-.11-4.65-.58,.24-1.13,.53-1.65,.88-.22,.15-.43,.31-.65,.47-.75,.54-.37,.37-1.77-.23l.46,.88c-.4-1.43-.63-3.01-2.34-3.11-.98-.05-1.97,.26-2.88,.59-2.54,.92-5.06,1.84-7.67,2.56-5.21,1.44-10.56,2.31-15.95,2.64l.39,15.79,12.58-5.99c2.02-.96,4.06-1.89,6.06-2.89,1.69-.84,3.17-1.83,4.12-3.5,.46-.81,.4-2.83,.43-3.63,.06-1.67,.05-3.34-.02-5.02-.02-.58-.48-6.98-1.02-6.8-4.93,1.68-10.01,2.84-15.15,3.69-2.54,.42-5.11,.61-7.64,1.08-1.28,.24-2.47,.5-3.7,.9-.62,.2-1.43,.32-2,.65-.47,.27-.77,.82-1.13,1.24l.85,5.34-.11-1.63s0,.08,0,.07h0Z"/><path class="cls-1" d="M1050.92,298.57c.06-.59-.42-.85-1-.79-.31,.03-.53,.09-.66,.32-.3,.55,.88,4.9,.63,3.7,.18,.87,.24,2.41,.98,2.99,.52,.42,1.42,.5,2.06,.62,1.25,.24,2.6,.2,3.87,.18,2.7-.03,5.46-.5,8.14-.84l-.38-15.49c-5.63,1.5-10.86,3.97-15.61,7.35-.62,.44-.69,1.72-.77,2.33-.24,1.82-.26,3.76-.2,5.59,.02,.61,.38,8.13,1.36,7.86,4.5-1.23,9.17-1.34,13.73-.32l-.39-15.81c-5.61,3.02-11.47,5.51-17.53,7.46-.53,.17-.63,2.16-.65,2.34-.2,1.84-.21,3.76-.15,5.6s.12,3.75,.43,5.59c.06,.38,.23,2.31,.76,2.3,4.61-.06,9.23-.04,13.84-.2,.95-.03,1.9-.09,2.84-.21,.26-.03,.81-.04,1.05-.16,.57-.29,.95-1.63,1.19-2.18,.65-1.42,1.39-2.49,2.38-3.68,.78-.93,1.48-1.86,2.07-2.92,.22-.4,.04-4.03-.16-3.97-.79,.25-1.67,.39-2.49,.24-1.6-.3-2.23-1.83-3.1-3.07l-.29-.28c-2.66,.45-5.37,.4-8.06,.44l-9.67,.14,.39,15.83c6.06-1.95,11.93-4.45,17.53-7.48,.62-.34,.71-1.86,.77-2.33,.24-1.83,.26-3.76,.21-5.6s-.12-3.75-.48-5.58c-.1-.54-.22-2.15-.89-2.29-4.55-1.01-9.23-.9-13.72,.34l.39,15.79c4.73-3.38,10.03-5.98,15.6-7.65,.56-.17,.67-2.08,.69-2.29,.22-1.79,.23-3.68,.18-5.49-.02-.64-.23-7.89-1.25-7.72-2.77,.45-5.62,.65-8.36,1.23-1.37,.29-2.75,.52-4.07,1.01-.57,.21-1.45,.45-1.8,.99s-.39,1.53-.49,2.13c-.09,.49-.55,3.32-.52,3.36l.06,.69c.04-.9,1.6-1.01,1.53-.14,0,.01,0,.08,.01,.04h0Z"/><path class="cls-1" d="M1116.32,297.93c.55-.55,1.11-1.11,1.66-1.66,.02-.02,0-.09,0-.12,0,0,0-.08-.02-.07-.55,.55-1.11,1.11-1.66,1.66-.02,.02,0,.09,0,.12,0,0,0,.08,.02,.07h0Z"/><path class="cls-1" d="M1119.62,287.79c-.63-.55-1.08-1.09-1.89-1.42-2.84-1.15-1.51,1.1-4.46-3.55-.28-.44-.38,.33-.42,.48-.18,.72-.15,1.51-.17,2.24-.05,1.92-.05,3.96,.37,5.84l.4,1.77c0,.38,.15,.69,.43,.92,1.76,.31,3.5,.03,5.27-.07s3.52-.34,5.29-.5c3.53-.31,7.08-.46,10.63-.47s7.1,.14,10.64,.4c2.63,.19,6.21-.06,8.1,2.14l-.22-.28c.16,.23,.26,.41,.34,.67l-.4-2.03,.03,.23-.28-11.21v.23l.29-2.05c-.03,.17-.08,.32-.17,.46l.21-.29c-.91,1.24-2.48,.67-3.72,.35-1.72-.44-3.47-.72-5.24-.83-3.46-.22-6.94,.19-10.3,.98-7.07,1.65-13.67,4.85-20.12,8.09-.53,.27-.59,2.05-.62,2.34-.19,1.84-.2,3.76-.14,5.61,.02,.68,.14,7.99,1.15,7.9l16.39-1.48,7.95-.72c1.36-.12,2.72-.28,4.09-.36,1.08-.06,2.19,0,3,.81l-.25-.28c.11,.15,.38,.79,.26,.27l-.54-4.73c-.53-7.51,.7-6.97-.77-4.53-.08,.13-.7,1.02-.78,.63-.16-.77-.28,1.02-.28,1.15-.07,3.27,1.23,5.58,2.61,8.58l.25,.27h.03c.77-.2,.68-3.53,.7-3.95,.12-2.67,.02-5.34-.2-8-.13-1.62-.16-4.13-1.53-5.36-.9-.81-2.16-.76-3.3-.67-3.13,.24-6.26,.56-9.39,.84l-18.63,1.68,.39,15.85c10.44-5.25,22.35-11.03,34.36-8.54,1.19,.25,2.52,.87,3.75,.71,1.72-.22,1.84-2.19,1.95-3.55,.22-2.63,.18-5.32,.02-7.95-.1-1.78-.18-3.62-.62-5.36-.29-1.14-1.07-1.93-2.11-2.46-1.11-.56-2.31-.63-3.52-.75-1.69-.17-3.37-.3-5.06-.4-3.22-.19-6.45-.2-9.67-.1-3.55,.11-7.09,.37-10.62,.77-1.78,.21-3.53,.47-5.27,.87-.93,.22-1.96,.37-2.86,.7-.33,.12-.64,.29-.95,.46-1.15,.63-.96,1.91-1.16,3.14l.86,7.33c.08-1.08,.21-2.88,.92-3.73,.22-.26,.41-.38,.72-.48,.45-.15,1.04-.13,1.51-.07,1.08,.12,2.23,.65,2.77,1.63-.01-.02,.04-.15,0-.19h0Z"/><path class="cls-1" d="M887.43,360.87c.08-.46-.14-1.01-.71-1.01-.77,0-.43,1.8-.3,2.33,.11,.49,.35,.9,.67,1.28,.19,.22,.4,.42,.64,.6,.42,.58,.78,1.19,1.07,1.85,.79,1.12,2.36,1.57,3.55,2.17,2.14,1.07,4.95,.97,7.28,1.27,4.59,.59,9.25,.92,13.73,2.14,3.33,.9,6.72,2.39,8.74,5.32l-.18-.28c.2,.31,.65,1.53,1.06,1.55l-.37-14.88-.23,.11c-.33,.15-.33,2.03-.33,2.05-.07,1.33-.07,2.66-.05,4,.03,2.46-.11,5.24,.58,7.62,.18,.62-2.97-11.07-1.59-6.27,.21,.73,.39,1.47,.61,2.2,.49,1.62,.75,3.29,1.22,4.92,.27,.93,.46-1.01,.43-.76,.13-1.18,.14-2.38,.15-3.56,.03-3.03,.12-6.29-.47-9.28-.35-1.78-.96-3.16-2.24-4.47-.92-.94-2.02-1.68-3.19-2.27-2.69-1.37-5.69-1.98-8.64-2.45-4.01-.63-7.97-.97-12.02-.81-2.09,.08-3.95,.45-5.77,1.49-.93,.53-1.9,.96-2.48,1.91-.48,.78-.54,1.75-1.44,2.18-.11,.05-.67,.38-.76,.15l.05,1.93c.07-.37,.24-.79,.59-1,.03-.02,.4-.24,.39-.18,0,.04,.01,.18,.01,.17h0Z"/><path class="cls-1" d="M684.65,328.82c-.92,12.78,.29,25.71,1.86,38.4-.01-.09,.2,2.27,.62,2.29,4.03,.25,8.06-.1,11.98-1.12,1.53-.4,3.84-.74,4.75-2.23,.26-.43,.38-1,.48-1.48,.38-1.7,.38-3.56,.4-5.3,.03-2.49-.08-5-.35-7.48-.97-8.71-2.89-17.26-6.05-25.44-1.58-4.09-3.48-8.04-5.68-11.84l-.32-.28c-3.53,1.34-3.7,6.61-3.89,9.72-.31,5.09-.31,10.22-.24,15.32s.39,10.22,.8,15.31c.19,2.4,.34,4.85,.96,7.18,.4,1.49,1.05,3.2,2.72,3.58l.24-.29c2.45-9.62,3.51-19.54,3.54-29.46l-2.24,.06c.12,2.33,.3,4.65,.46,6.98,.15,2.08,.35,4.15,.53,6.22,.05,.56,.07,1.13,.15,1.68-.38-2.71,2.46-11.6-.16-8.69l.27-.29c-.88,.66-1.69,.27-2.41-.43l.25,.28c-1.45-1.61-1.43-2.99-1.86-5.18-.09-.48-.18-.95-.27-1.43,.14,.77-.17-1-.19-1.16-.18-1.12-.35-2.24-.51-3.37-.08-.56-.15-1.12-.22-1.69-.06-.45-.04-.32,.05,.39-.04-.32-.07-.64-.11-.97-.11-1.06-.41-2.32-.32-3.39,.08,1.08,.1,1.23,.04,.44-.02-.32-.04-.65-.06-.97-.03-.49-.06-.97-.08-1.46-.02-.32-.03-.65-.05-.97,.05,1.3,.06,1.51,.03,.65-.02-.65-.04-1.3-.06-1.94-.03-1.33-.1-2.67-.24-4-.11-1.05-.16-2.26-.57-3.23-.15-.36-.2-.73-.55-.53-.42,.24-.52,2.04-.54,2.19-.77,5.38-.96,10.83-.9,16.27s.43,10.9,1.38,16.24c0,.03,.23,2.25,.74,2.3,1.42,.15,2.51-.72,3.13-1.95,.42-.83,.37-1.95,.44-2.85,.11-1.6,.14-3.21,.09-4.81-.04-1.33-.11-2.67-.23-4-.07-.75-.14-2.89-.67-3.63-1.4-1.92-2.65-3.94-3.71-6.06-.53-1.06-1.04-2.14-1.45-3.25-1.64-4.52,4.11,2.9-.15,10.43,.23-.4,.39-.76,.7-1.11l-.29,.29c1.92-1.84,4.77-1.38,6.66,.24l-.31-.28c1,.96,1.78,2.15,2.28,3.44,.06,.15,.29,1.05,.43,1.47-.38-1.14,.06,.37,.07,.39l-.11-.78c.07,.59,.07,.55,0-.12-.09-1.02-.14-2.06-.11-3.09l.05-1.07c-.04,.54-.04,.55,.01,.02,.12-1-.04,.22-.08,.43,.17-1.1-.08,.25-.11,.38-.32,1.35-.79,2.56-1.45,3.83-.48,.92-.47,2.72-.51,3.66-.08,1.69-.06,3.37,0,5.06,.06,1.51,.13,3.05,.39,4.54,.07,.41,.21,2.27,.77,2.3,1.43,.08,2.78-.15,4.11-.68l-.64-15.56c-2.81,4.64-3.76,9.86-4.03,15.22-.17,3.37-.11,6.89,.5,10.22,.05,.3,.17,1.59,.62,1.69s.63-2.41,.62-2.34c.66-5.2,.69-10.72-.31-15.88l.38,3.25c-.25-3.61-.72-7.13-1.99-10.53-.16-.42-.32,.4-.31,.35-.14,.52-.11,1.1-.13,1.63-.04,1.38-.05,2.88,.27,4.23s.59,2.61,.76,3.93c.01,.08,.16,1.3,.11,.84,.03,.63,.04,.66,.02,.1,0,.31,.01,.62,.01,.93l.21-4.71c-.07,.5-.03,.03,.06-.18-.22,.51-.29,1.04-.36,1.58-.14,1.09-.21,2.2-.35,3.29l1.73,9.57c-.08,1.63-.02,.25,.03-.13-.12,.99,.06-.28,.1-.48,.16-.81,.37-1.58,.63-2.36,.59-1.73,1.37-3.37,2.32-4.93,.49-.81,.46-2.84,.5-3.66,.07-1.69,.06-3.37,0-5.06-.02-.58-.56-7.08-1.14-6.85-1.33,.53-2.68,.75-4.11,.68l.65,15.56c2.43-4.62,3.04-9.76,3.13-14.91,.11-5.86-.14-12.64-2.88-17.99-1.36-2.66-4.19-5.13-7.36-4.03-1.7,.59-2.53,2.06-2.89,3.73-.48,2.22-.48,4.55-.46,6.81,.02,2.84,.18,5.71,.74,8.51,.92,4.59,3.5,9.01,6.24,12.74l-.38-15.29c-.09,.22-.21,.43-.36,.62l.25-.29c-.68,.76-1.48,1.15-2.51,1.04l.74,2.3c-.03-.21-.35-1.47-.09-.64s-.05-.51-.06-.65c-.08-.72-.15-1.45-.22-2.18-.09-.96,.11,1.84,.02,.19-.02-.32-.06-.65-.05-.97l.05,1.14c0-.24-.02-.49-.02-.73-.01-.53,.07-1.85,0,.41,.01-.32,0-.65,0-.97,0-1.65-.06,1.16-.01,.2,.03-.7-.04-1.5,.12-2.18-.3,1.29-.02,.28,.02-.09,.04-.4,.08-.81,.12-1.21,.09-.81,.2-1.61,.31-2.41l-1.91-5.56c.16,6.25,.65,12.48,1.44,18.69,.28,2.25,.63,4.5,1.02,6.73,.5,2.82,.88,5.81,1.79,8.54,.41,1.23,1.48,3.35,3,3.41,.85,.03,1.45-.76,1.74-1.47,.78-1.95,.71-4.49,.75-6.55,.11-6.72-.58-13.56-1.17-20.25-.09-1.03-.19-2.3-.64-3.23-.23-.47-.29-.86-.77-.38-.37,.38-.4,1.58-.46,2.05-.26,1.81-.26,3.79-.2,5.61,.03,.96,.07,1.93,.09,2.89,.04,1.28,.01-.67,0-1.13,0-1.18-.01,.24-.03,.5-.02,.48-.05,.96-.08,1.45-.09,1.63,.13-1.31-.03,.32-.08,.88-.17,1.76-.27,2.64-.05,.4-.09,.8-.15,1.2,.11-.84-.1,.66-.1,.67-.13,.87-.28,1.75-.44,2.62-.33,1.82-.73,3.63-1.17,5.42l.44-1.09c-.37,.36-.33,.39-.8,.23-.21-.07-.41-.28-.56-.42l.26,.28c-.31-.35-.5-.7-.71-1.12-.09-.18-.13,.09-.05-.11-.06-.26-.06-.21,.01,.14,.08,.44,.13,.88,.15,1.33,.22,2.33,.01-.31-.03-.93s-.07-1.31-.1-1.97c-.08-1.46,.05,1.4,.01,.38-.01-.33-.02-.66-.04-.98-.02-.66-.04-1.31-.06-1.97-.04-1.48-.04-2.95-.06-4.43-.01-1.06,0,1.69,0,.63,0-.33,0-.66,0-.98,0-.74,0-1.48,.02-2.22,0-.66,.02-1.31,.04-1.97,0-.33,.02-.66,.03-.98,.04-1.57-.03,.59,.01-.32,.02-.33,.03-.66,.04-.98,.01-.21,.09-1.17-.01-.1-.11,1.15-.05-.02,.04-.2-.11,.22-.15,.89-.02,.25,.03-.15,.14-.48,.02-.15,.07-.2,.15-.4,.25-.59,.23-.47,.51-.88,.87-1.26l-.3,.29c.4-.36,.79-.6,1.29-.79l-.32-.28c2.94,5.09,5.41,10.45,7.28,16.03,.88,2.63,1.59,5.31,2.17,8.02,.16,.73,.31,1.45,.44,2.19-.09-.49-.05-.29,0,.08,.07,.44,.15,.88,.22,1.32,.1,.66,.19,1.32,.28,1.99,.11,.77-.13-1.22,0-.05l.05,.44c.31,3.14,.3,.58-.04-7.68l.39-2.05c-.11,.4-.23,.63-.48,.95l.26-.29c-.92,.81-2.22,1.09-3.37,1.42-1.41,.4-2.85,.73-4.3,.96-2.83,.47-5.7,.62-8.57,.49l.62,2.29c-.07-.65-.14-1.3-.21-1.95,.16,1.51-.01-.15-.03-.36-.11-1.14-.21-2.28-.3-3.42-.05-.65-.11-1.3-.15-1.96l.07,.88c-.02-.33-.04-.65-.06-.98-.07-1.14-.14-2.29-.2-3.43-.02-.49-.05-.98-.07-1.47-.04-.85-.03-.65,.02,.59-.01-.33-.02-.66-.04-.98-.02-.49-.03-.98-.05-1.48-.03-.84-.07-1.69-.11-2.53,.05,1.22,.06,1.4,.02,.56-.12-3.22-.4-6.42-.63-9.63-.03-.41-.04-2.29-.5-2.59-.4-.26-.46,1.38-.47,1.51h0Z"/><path class="cls-1" d="M697.47,311.93c.33,.57,.64,1.14,1.07,1.64,.36,.41,.72,.83,1.08,1.24,.66,.76,1.46,1.42,2.18,2.12,.24,.36,.47,.36,.69-.02,.41-.88,.61-1.77,.76-2.72,.33-2.01,.35-4.11,.3-6.14s-.18-4.17-.61-6.19c-.21-.98-.45-1.82-.88-2.72-.6-1.26-1.87-2.37-3.3-2.46l-.35,.29c-.22,.45-.36,.92-.42,1.41-.26,1.34-.34,2.72-.37,4.08-.05,2.12,.03,4.27,.29,6.37,.13,1.06,.3,2.17,.62,3.2,.17,.57,.4,1.15,.75,1.64,.5,.69,1.31,1.24,2.11,1.52,1.54,.54,3.35,.08,4.19-1.4,.48-.84,.53-1.91,.63-2.85,.17-1.59,.22-3.2,.17-4.79-.04-1.33-.12-2.66-.28-3.98-.07-.75-.2-1.48-.4-2.21-.09-.49-.25-.96-.49-1.4-1.18-1.51-3.31-2.24-5.09-1.37-.67,.33-.8,1.82-.87,2.34-.21,1.51-.25,3.03-.25,4.55,0,1.68,.05,3.38,.28,5.04l.24,1.6c.1,.71,.31,1.38,.63,2.02,.97,1.13,1.83,2.34,2.57,3.62,.51,.87,.95-.64,1.01-.82,.17-.67,.27-1.36,.32-2.05,.11-.9,.17-1.8,.17-2.7,.03-2.03,0-4.09-.28-6.1-.16-1.19-.26-2.57-.89-3.62,1.83,10.14,2.46,13.41,1.87,9.83l-.04-.22c-.04-.22-.08-.44-.11-.66-.09-.48-.18-.95-.27-1.42-.2-1.05-.43-2.08-.63-3.13l.37,3.99c-.08-2.11-.11-4.28-.56-6.36-.18-.82-.39-1.61-.82-2.33-.23-.39-.48-.77-.74-1.14-.51-.75-1.07-1.46-1.66-2.15l.03,15.55c1.32-.65,2.92-.45,4.08,.42l-.36-.27c.24,.19,.45,.4,.63,.64l-.37-15.24c-.15,.27-.34,.49-.57,.7l.35-.29c-1.26,1.01-3.15,.78-4.4-.14l.36,.27c-.4-.31-.72-.68-.93-1.15l.34,.78c-.04-.1-.07-.2-.1-.3,.23,.82,.39,1.64,.48,2.49,.22,1.87,.3,3.74,.26,5.62l-1.14,5.78c.65,.02,1.25,.25,1.78,.63l-.36-.27c.54,.42,.96,.96,1.23,1.59l-.33-.78c.05,.13,.09,.25,.14,.38,.17,.51-.26-1.08-.22-.91l.02,.1c-.2-1.05-.32-2.1-.34-3.17-.16-2.32-.2-5.24,.18-7.2,.19-1.01,.07-.36-.02-.12l.29-.79c-.03,.07-.05,.13-.08,.19l.69-.02c-.73-.68-1.43-1.44-2.22-2.04-.36-.27-.73-.55-1.09-.82-.24-.18-.48-.4-.77-.48-.19-.05-.4-.08-.59-.12-.52-.11-.8,2.05-.8,2.02-.19,1.3-.23,2.61-.23,3.92,0,1.44,.05,2.91,.25,4.35,.15,1.04,.25,2.2,.79,3.12h0Z"/><path class="cls-1" d="M810.49,321.26l-1.02-5.43,.14,1.77c.08,.89,.21,1.78,.4,2.66,.01,.42,.18,.76,.49,1,.11,.08,.23,.17,.34,.25,.37,.29,.73,.46,1.17,.63l2.5,.99c.42,.17,.7-2.58,.66-2.3,.21-1.81,.22-3.7,.16-5.51s-.12-3.69-.43-5.5l-.24-1.21c-.02-.45-.2-.8-.54-1.05-2.45-1.51-5.08-2.71-7.82-3.58-.44-.14-.7,2.58-.67,2.33-.21,1.83-.22,3.75-.17,5.59s.12,3.74,.44,5.58l.24,1.23c.02,.46,.2,.81,.55,1.07,1.9,.61,3.81,1.19,5.72,1.77,.46,.14,.72-2.57,.69-2.34,.16-1.51,.19-3.04,.18-4.56-.01-1.68-.06-3.38-.25-5.05-.14-1.23-.28-2.46-.72-3.63-.27-.7-.99-1.29-1.75-1.29-.52,0-.71,2.37-.7,2.34-.22,1.84-.23,3.77-.18,5.61s.12,3.76,.45,5.6l.25,1.23c.03,.46,.22,.82,.57,1.07,.42,.17,.89,.3,1.35,.3s.64-.53,.81-.9c.29-.6,.52-1.19,.68-1.84,.12-.5,.21-1.06,.41-1.54,.17-.4,.43-.78,.61-1.18,.36-.78,.64-1.64,.9-2.46,.19-.61,.16-1.3,.13-1.93,0-.23,.02-1.45-.28-1.51-.11-.02-.23-.04-.33-.08-.21-.08-.32-.24-.49-.38-.28-.22-.61-.4-.9-.62l.16,.14c-.34-.64-.49-1.36-.81-2-.23-.45-.52-1.05-.88-1.38-.26-.24-.57-.17-.9-.23-.29-.05-.57-.14-.85-.25l.39,15.85c.4,0,.74,.14,1.05,.39l-.29-.28c.19,.18,.32,.38,.42,.63l-.1-15.58c-1.9-.58-3.81-1.16-5.72-1.72l.39,15.79c2.74,.79,5.36,1.91,7.82,3.35l-.38-15.56-2-.73c-.33-.12-.66-.27-1-.37s-.65-.07-.99-.07c-.45-.01-.61,2.28-.6,2.19-.18,1.73-.19,3.53-.14,5.26s.11,3.52,.4,5.25c.11,.65,.13,1.74,.7,2.16h0Z"/><path class="cls-1" d="M543.46,376.49c-.37,.08-3.49,.03-3.51-.5l-1.35,4.67c1.24,1.91,3.89,1.71,5.88,1.58s4.01-.42,6.02-.58c3.9-.31,7.83-.24,11.72,.18,7.92,.86,15.68,3.2,22.74,6.89l-.51-.27c2.88,1.53,5.95,3.2,8.08,5.74,.52,.62,.76,.99,.98,1.47,.47,1.04-.09-.36,.04,.06,.25,.98,.13,.21-.36-2.3-.1-.97-.11-1.95-.03-2.92-.03-.82,.04-1.64,.2-2.45,.2-.66,.24-.81,.12-.45,.11,.42-.43,1.53-.55,2.1-.07,.3-.07,.31,0,.02-.17,.46-.29,.92-.37,1.4-.1,.54-.19,1.08-.27,1.62-.11,1.63-.15,2.06-.11,1.29l.95-2.42c-.86,.31-1.65,.66-2.46,1.07-.88,.45-.55,3.36-.16,4.05,.92,1.66,1.89,3.29,2.72,5,.13,.48,.42,.79,.87,.93,1.33-.22,1.66-1.37,1.99-2.53,.76-2.66,.92-5.49,.85-8.24-.09-3.95-.59-8.15-2.72-11.57-2.52-4.05-7.34-6.39-11.5-8.4-8.82-4.26-18.61-6.29-28.39-6.05-2.76,.07-5.63,.22-8.34,.77-3.18,.65-6.55,2.06-7.85,5.22-.8,1.94-.6,4.56-.25,6.58,.1,.57,1.04,3.68,1.62,1.68,1.17-3.96,.43-3.28,2.48-3.38,.51-.03,.99-.11,1.5-.08,.04,0,.02-.2,0-.2h0Z"/><path class="cls-1" d="M598.67,393.96c0,.15,.02,.3-.02,.45-.03,.11-.05,.22-.07,.34-.04,.25-.11,.5-.21,.73-.19,.5-.49,.91-.82,1.33-.69,.87-1.62,1.52-2.72,1.75-.09,.02-.06,.46,.01,.46,1.15-.1,2.33-.72,2.99-1.68,.35-.51,.61-1.07,.76-1.67s.15-1.13,.08-1.72c0-.04-.02-.02-.02,.01h0Z"/></g><g><path class="cls-3" d="M324.74,372.98c-5.64,1.35-11.54,.34-16.35-2.94-2.56-1.75-4.66-4.04-6.14-6.76-.31-.56-.6-1.15-.83-1.75-.94-2.46-1.27-8.81-.71-11.38,.31-1.43,.93-2.85,1.6-4.14,6.34-12.13,21.8-12.01,33.61-11.93,28.76,.18,56.06-7.59,83.05-16.85,28.14-9.65,56-20.04,85.64-24.06,31.79-4.31,64.01-2.84,95.88-.43,65.3,4.94,130.56,10.28,195.92,14.41,32.57,2.06,65.15,4.01,97.74,5.65s64.77,2.43,96.68-3.22c30.96-5.48,60.71-16.21,91.67-21.66,30.93-5.45,62.64-6.42,93.84-2.9,7.95,.9,15.85,2.11,23.71,3.57l-.09-3.63c-3.88,11.26-8.53,22.24-14.01,32.82-2.49,4.81-5.14,9.53-7.95,14.15-.2,.34-2.33,4.19-2.57,4.14s-1.21-2.26-1.44-2.62c-1.29-2-2.91-3.73-4.77-5.21-17.81-14.19-40.13-.73-55.48,10.26-16.47,11.79-33.4,25.95-53.7,30.29-10.04,2.15-20.09,1.08-29.48-3.07-10.08-4.46-18.88-11.34-29.08-15.55-24.18-9.97-51.19-6.15-76.27-2.46-.41,.06,.04,4.51,.11,4.5,22.38-3.29,45.95-6.64,68.17-.52,20.91,5.76,37.06,23.82,60,21.9,20.58-1.73,38.28-15.36,54.41-27.05,15.59-11.3,35.51-27.05,55.79-18,4.34,1.94,8.25,5,10.73,9.09,1.17,1.93,.3,2.47,1.98,.75,.96-.98,1.84-2.98,2.54-4.16,1.67-2.79,3.28-5.61,4.83-8.47,6.47-11.91,11.88-24.35,16.29-37.16,.11-.33,.05-3.61-.09-3.63-32.31-5.98-65.41-7.19-98.06-3.42-16.13,1.86-32.09,4.97-47.78,9.12s-31.59,9.18-47.58,13.07c-32.31,7.86-65.38,8.6-98.46,7.33-34-1.31-67.98-3.5-101.94-5.59-67.76-4.16-135.42-9.53-203.11-14.65-33.02-2.5-66.41-4.11-99.33,.51-30.66,4.31-59.38,15.46-88.52,25.37-14.06,4.78-28.27,9.22-42.84,12.16s-28.56,3.22-43.21,3.58c-11.77,.29-25.15,3.34-28.5,16.36-2.12,8.23,.46,17.34,7.78,22.12,4.87,3.18,10.75,4.04,16.35,2.58,.07-.02-.01-.53-.01-.53h0Z"/><path class="cls-3" d="M302.2,371.5c1.98,.19,4.04,1.12,5.97,1.63s3.71,.96,5.57,1.38c3.88,.89,7.8,1.62,11.75,2.2,7.88,1.16,15.84,1.69,23.81,1.63l-.02-.67c-1.95,1.71-.1,4.26,1.52,5.39,1.9,1.33,4.15,1.61,6.37,2.03,2.65,.51,5.3,.96,7.97,1.37,10.59,1.6,21.16,2.05,31.86,2.22,4.74,.07,9.57,.33,14.1,1.87s8.29,4.96,13.1,6.09,10.41,1.27,15.54,1.75l16.25,1.5c2.97,.27,5.99,.75,8.97,.81,1.65,.03,3.02-.51,3-2.3,0-.93-.4-2.13-1.66-1.48-.56,.29-.54,1.27-.2,1.74-.11-.15,.11-.68-.01-.9-.25-.46-.02,.37,0,.38,.02,.01,.14-.08,.18-.07,.13,.05,.41-.03,.56,0,.18,.03,.37,.09,.53,.18,.07,.04,.21,.18,.29,.21l.18,.25v-1.04c.4,.23-1.58,1.17-1.69,1.19-.85,.17-1.72,.07-2.57,0l-14.03-1.21-13.78-1.19c-4.35-.38-8.91-.44-13.11-1.71s-7.24-4.08-11.19-5.47-7.86-1.74-11.87-1.87c-4.35-.14-8.7-.03-13.04-.18-4.64-.15-9.28-.46-13.91-.91-5.19-.5-10.36-1.2-15.49-2.1-2.03-.36-4.14-.57-5.94-1.65-1.39-.84-3.64-2.67-1.91-4.23,.06-.05,.01-.67-.02-.67-7.95,.19-15.91-.24-23.8-1.29-3.94-.53-7.86-1.2-11.74-2.04-1.86-.4-3.72-.83-5.57-1.3-1.94-.49-4.19-.84-5.97-1.74,0,0-.02,.19,0,.2h0Z"/><path class="cls-3" d="M459.94,380c5.28,20.5,13.78,40.1,25.11,57.97s24.77,33.29,40.55,46.67c4.07,3.45,8.27,6.74,12.61,9.84,2.22,1.59,4.72,3.29,7.59,2.98,2.56-.28,4.81-1.94,6.66-3.64,6.83-6.29,8.79-15.84,9.89-24.67,.61-4.91,.95-9.85,1.62-14.75,.81-5.98,2.17-11.89,4.03-17.64s4-10.82,6.66-15.94,5.8-9.79,9.07-14.5c1.49-2.15,3.05-4.36,4-6.81s1.07-4.87,.92-7.38c-.25-4.3-2.09-7.98-5.63-10.5-1.8-1.28-3.77-2.13-5.81-2.96s-4.28-1.59-6.53-2.08c-6.06-1.32-12.36-1.74-18.54-1.41-3.16,.17-6.31,.55-9.42,1.12-.06,.01,0,.54,.01,.53,6.1-.9,12.3-1.05,18.43-.4,5.2,.55,10.48,1.52,15.29,3.62,4.01,1.76,7.95,4.96,10.23,8.72,.52,.86,.95,1.77,1.26,2.73,.45,1.39,.41,2.51,.06,3.93-.66,2.66-1.95,5.18-3.44,7.46-2.94,4.48-6.08,8.75-8.68,13.46s-4.99,9.96-6.87,15.2-3.33,10.55-4.36,15.99c-.91,4.82-1.38,9.7-1.86,14.58-.89,9.12-1.74,19.26-7.26,26.95-2.53,3.53-6.98,8.01-11.76,7.09-2.59-.5-4.79-2.3-6.87-3.81s-4.12-3.06-6.13-4.65c-16.47-13-30.85-28.61-42.57-46.01-11.33-16.8-20.23-35.3-26.11-54.7-.76-2.5-1.46-5.01-2.12-7.53-.01-.05-.05,.41-.02,.53h0Z"/><path class="cls-3" d="M583.73,402.5c.96-.24,1.97-.19,2.95-.33s1.97-.32,2.95-.49l6.39-1.05,12.28-2.02c8.19-1.35,16.38-2.68,24.56-4.06,16.17-2.73,32.34-5.47,48.52-8.18,7.61-1.27,15.31-2.46,23.05-2.25,3.81,.1,7.62,.55,11.31,1.5,3.45,.89,6.74,2.27,9.98,3.73,6.04,2.72,12.25,5.98,19,6.28s12.68-2.98,17.95-6.88c3.04-2.25,5.95-4.67,9.07-6.82,3.29-2.27,6.76-4.27,10.37-5.99s7.37-3.1,11.19-4.29c1.94-.6,3.92-1.19,5.81-1.94s3.86-1.42,5.9-1.87c.07-.02,0-.84-.02-.84-1.7,.09-3.39,.13-5.1,.18-1.86,.05-3.62,.39-5.44,.8-3.46,.77-6.87,2.21-10.09,3.66-6.47,2.91-12.6,6.71-17.99,11.33-4.97,4.26-10.27,9.3-16.9,10.64s-13.18-1.1-19.18-3.74c-6.67-2.94-13.11-5.94-20.43-6.82-7.67-.92-15.42-.1-23.02,1.08-16.08,2.5-32.09,5.52-48.13,8.31-9.17,1.59-18.34,3.22-27.5,4.84l-13.75,2.44-6.87,1.22-3.44,.61c-1.15,.2-2.28,.66-3.43,.76-.02,0,0,.2,0,.2h0Z"/><path class="cls-3" d="M768.93,366.25c1.25-.3,2.64-.26,3.93-.43l4.42-.58,8.1-1.05,16.2-2.11c10.56-1.37,21.12-2.94,31.74-3.77s20.86-.84,31.09,1.18c9.64,1.9,18.6,5.88,27.36,10.2,9.75,4.8,19.4,9.95,29.91,12.89l.02-.04c.62-2.43,2.06-4.54,3.26-6.72,.67-1.22,1.58-2.27,2.34-3.44s1.62-2.38,2.49-3.52c1.91-2.49,3.83-4.95,5.92-7.31,1.09-1.23,2.25-2.41,3.39-3.6,.62-.65,1.37-1.25,1.95-1.94,.81-.97,1.21-2.62,1.71-3.77,.34-.8,.1-2.27,.07-3.1-.02-.44,.15-2.17-.26-2.44-.47-.31-1.27-1.07-1.77-.95-.53,.14-1.22,.88-1.66,1.21-1.12,.85-2.15,1.79-3.15,2.78-1.99,1.96-3.73,4.12-5.33,6.4-3.73,5.33-6.09,11.76-7.64,18.03-.42,1.69-.7,3.4-1.11,5.09-.11,.46-.08,.94-.7,1.01-.18,.02-.63-.17-.83-.23-.83-.24-1.66-.49-2.48-.75-3.02-.96-5.98-2.09-8.89-3.33-5.66-2.39-11.15-5.15-16.69-7.81s-11.1-5.22-16.9-7.21c-6.2-2.12-12.61-3.44-19.13-4.01-13.49-1.19-27.04,.52-40.39,2.39-7.8,1.09-15.61,2.21-23.41,3.31l-11.53,1.63-5.89,.83-2.94,.42c-1.06,.15-2.13,.5-3.19,.53-.02,0,0,.2,0,.2h0Z"/><path class="cls-3" d="M718.16,300.24c9.92-3.56,17.53-11.07,25.07-18.12,3.86-3.61,7.8-7.14,12.11-10.2s9.04-5.77,13.91-7.99c9.72-4.42,20.21-7.01,30.87-7.61,5.29-.3,10.61-.11,15.87,.58,1.33,.18,2.66,.38,3.98,.63,1.25,.23,2.71,.37,3.74,1.18,1.25,.98,1.19,2.18,.8,3.57s-.87,2.61-1.28,3.93c-2.05,6.51-3.42,13.22-4.14,20.01-.37,3.48-.57,6.98-.61,10.48-.04,3.23-.08,6.55,.41,9.75,.08,.5,.13-.35,.13-.46-.06-3.36-.27-6.71-.17-10.07s.38-6.84,.83-10.23c.88-6.51,2.37-12.92,4.43-19.16,1.06-3.21,2.64-9.57-1.85-10.88-2.58-.75-5.46-.95-8.12-1.2s-5.49-.37-8.23-.36c-10.87,.07-21.75,2.21-31.87,6.18-10.25,4.02-19.41,9.99-27.5,17.43-8.74,8.04-16.98,17.39-28.39,21.64-.16,.06,.03,.91,.02,.91h0Z"/><path class="cls-3" d="M872.22,306.88c-2.94,.37-5.89,.75-8.83,1.12v.31c14.98-7.3,29.79-14.93,44.62-22.51l11.04-5.64c2.9-1.48,6.98-4.2,10.25-2.31,.6,.34,1.19,.69,1.67,1.19,.29,.31,.54,.65,.73,1.04,.09,.2,.22,.46,.24,.68-.07-.58-.15,.22-.2,.4-.5,1.56-1.41,2.93-1.79,4.55-.63,2.71-.39,5.77,.4,8.41,1.13,3.81,3.46,7.14,5.91,10.21,1.42,1.77,2.89,3.49,4.34,5.23,.73,.88,1.45,1.76,2.19,2.63,.59,.69,1.31,1.16,2.05,1.69-.05-.03,.07-.69,0-.82-.6-1.01-1.13-2.11-1.87-3.03-.61-.76-1.25-1.51-1.87-2.26-1.34-1.61-2.69-3.22-4.02-4.84-2.25-2.74-4.4-5.64-5.85-8.89-.83-1.85-1.55-3.9-1.19-5.95,.33-1.89,1.46-3.47,1.93-5.3,.55-2.17,.3-4.87-1.67-6.22-1.1-.76-2.78-.87-4.08-.72-1.95,.22-3.72,1.15-5.44,2.04-3.68,1.91-7.36,3.83-11.04,5.74l-21.64,11.25c-8.28,4.31-16.52,8.68-24.72,13.14-.04,.02-.01,.31,0,.31,2.94-.46,5.88-.9,8.82-1.35,.01,0,0-.08,0-.08h0Z"/><path class="cls-3" d="M353.62,348.97c-1.19,.23-2.49,.09-3.71,.08l-3.71-.02v.27c.91-.13,.35,.31,1.5,.5,.42,.07,1.04-.16,1.48-.23l2.96-.45,5.92-.91c4.03-.62,8.06-1.23,12.08-1.9l11.83-1.96c1.39-.23,3.28-.89,4.68-.38,.54,.2,.43,.5,.65-.1,.29-.79-.12-.19-.39-.07-.06,.03-.81,.23-.84,.03v.74c.02-.12,.07-.22,.15-.31,.09-.13-.08-.71-.03-.75-.81,.67,.41,2.27,1.24,1.48,.38-.36,.2-1.49,.09-1.93-.3-1.25-1.47-1.39-2.59-1.27-4.14,.44-8.27,1.33-12.38,2s-8.22,1.36-12.32,2.07l-6.9,1.2-3.45,.6-1.72,.3c-.83,.15-1.12,.92-1.95,1.07-.03,0-.02,.27,0,.27l3.7-.12c1.21-.04,2.51-.22,3.71-.02,.01,0,.01-.2,0-.2h0Z"/><path class="cls-3" d="M360.65,352.74c-.74-3.66-.92-4.79-.55-3.4,.03,.12,.07,.23,.11,.35,.2,.61,.19,1.25,.25,1.88s.16,1.16,.51,1.71c.45,.7,1,1.35,1.63,1.9,1.28,1.12,2.93,1.88,4.65,1.92,3.4,.08,6.19-2.53,6.76-5.79l-.38,.41s.12,.47,.13,.28c-.27-1.66-.33-3.35-.17-5.05l.03-.25c-.11,.19-.19,.52-.35,.81-.23,.42-.4,.88-.66,1.28s-.61,.75-.97,1.08c-.61,.57-1.22,.82-2.06,.77-.62-.04-1.24-.26-1.65-.74-.13-.16-.16,.74-.16,.8,0,.43-.04,.99,.14,1.4,.47,1.08,1.3,1.99,2.37,2.51,.93,.45,1.82,.94,2.87,.74s1.23-2.15,1.31-2.98c.18-1.82,.14-3.71-.06-5.53-.11-.95-.21-1.97-.68-2.82-.32-.57-.46,1.05-.46,1.04,.07-.55-.03,.11-.05,.18,.01-.04-.08,.26-.09,.29-.12,.36-.26,.7-.43,1.04-.33,.65-.74,1.25-1.23,1.78-.97,1.04-2.21,1.84-3.59,2.21-2.66,.71-5.66-.42-7.17-2.73-.15-.23-.19,.17-.21,.26-.11,.47-.09,1.06-.09,1.53,0,.66,.02,1.31,.08,1.97,.03,.36,.02,.85,.2,1.17h0Z"/><path class="cls-3" d="M360,348.98c.64,2.29,3.03,3.97,5.42,3.57s3.94-2.61,3.98-4.91c0-.12-.04-.37-.05-.1-.05,2.27-2.11,4.3-4.34,4.5s-4.4-1.32-5-3.45c-.01-.04-.04,.3-.02,.4h0Z"/><path class="cls-3" d="M431.29,356.55c1.05,5.77,1.78,7.59,2.19,5.44,.04-.18,.07-.37,.1-.55,.02-.13,.03-.26,.05-.39,.04-.4,.05-.81,.03-1.22-.06-1.7-.52-3.37-.64-5.07-.03-.4-.34-5.11-1.11-4.68-.36,.2-.46,1.67-.47,1.82-.17,1.54-.17,3.1-.15,4.65,.06,4.39,.38,8.79,.63,13.18s.14,8.84,1.32,12.97c-.02-.06,.36,1.26,.6,.55,.74-2.17,1.77-4.34,1.88-6.66,0-.2-.13-1.77-.22-1.06-.11,.94-.61,1.59-1.37,2.1l.26,1.26-.19-2.51,.03,4.3c.31-5.02-.07-10.02-.4-15.03-.28-4.14-.46-8.32-.95-12.45-.1-.87-.14-1.87-.5-2.67-.17-.38-.22-.71-.6-.32-.3,.32-.3,1.31-.36,1.7-.2,1.52-.17,3.12-.15,4.65h0Z"/><path class="cls-3" d="M444.03,349.62c.22,10.14,.75,13.54,1.59,10.2,.02-.08,.04-.16,.06-.24,.04-.21,.05-.29,.07-.5,.02-.22,.02-.44,.01-.66-.05-1.35-.49-2.63-.58-3.98s-.13-2.84-.48-4.14c-.07-.24-.31-1.39-.66-.68-.49,1.01-.57,2.22-.71,3.32-.21,1.71-.27,3.46-.28,5.19-.04,4.14,.18,8.35,1.03,12.42,.37,1.79,.97,3.57,1.78,5.21,.35,.71,.75,1.48,1.27,2.09,.23,.27,.52,.64,.86,.69,.3,.05,.57-.13,.81-.28,.4-.25,.42-1.55,.45-1.81,.1-1.17,.11-2.35,.1-3.53-.02-2.16,.08-4.67-.66-6.73,.68,4.22,.88,5.2,.61,2.93-.08-.51-.17-1.01-.28-1.51-.16-.83-.38-1.58-.67-2.37-.34-.94-.71-1.85-1.23-2.71-.71-1.17-1.38-2.31-1.88-3.59-.05-.14-.38-1.19-.16-.43-.09-.33-.19-.65-.27-.98-.04-.16-.08-.33-.11-.5-.1-.48-.07-.33,.08,.45-.03-.17-.05-.34-.08-.5,.13,1.14,.16,1.4,.1,.8,.1,1.41,.13,1.77,.08,1.07,.06,1.62,.08,2.04,.05,1.27,.03,.93,.02,1.86-.02,2.79,.03-.6,.01-.36-.05,.72,.02-.18,.03-.36,.05-.54-.13,1.01-.11,.83,.07-.54,.05-.44,.1-.89,.15-1.33,.34-2.72,.21-5.69-.08-8.41-.09-.83-.17-1.67-.36-2.48-.03-.13-.31-1.41-.66-.68h0Z"/><path class="cls-3" d="M455.47,352.25c-.29-1.05-.67-1.91-1.11-2.97-.37-.92-.7,.86-.69,.79-.28,1.51-.27,3.08-.31,4.61-.11,4.75,0,9.51,.29,14.25,.17,2.78,.26,5.69,.9,8.42,.11,.49,.32,1.83,1.04,1.88,.59,.04,.99-.68,1.26-1.12l-.16,.19c.89-.41,1.01-1.23,1.61-1.94,.63-.75,.8-1.57,.99-2.52,.14-.67,.08-1.42,.03-2.1-.03-.37-.06-.85-.26-.97l-.59-.68c-.08-.02-.17-.05-.25-.09-.23-.17-.29-.09-.52-.38-.2-.25-.22-.54-.37-.8-.12-.21-.36-.43-.53-.6l.16,.17c-.55-.63-.84-1.52-1.14-2.31-.1-.27-.24-.61-.32-.88-.09-.39-.2-.78-.32-1.16,.09,.29,.09,.25,0-.1l-.06-.24c.13,.82,.16,.98,.08,.49,.12,1.17,.16,1.46,.1,.84l-.02-.25c.26,2.74,0-.05-.03-.72-.02-.32-.03-.65-.05-.97-.06-1.36,.08,2.26,.03,.61-.02-.71-.04-1.41-.05-2.12-.02-1.36,0,2.24,0,.59,0-.38,0-.76,0-1.15,0-.67,.03-1.35,.06-2l-.58,3.15c.25-.13,.47-.32,.72-.47,.33-.19,.3-.78,.34-1.1,.11-.87,.15-1.76,.15-2.64,0-1.85,.08-3.92-.42-5.72h0Z"/><path class="cls-3" d="M469.35,352.09c-.46,4.3-.44,8.66-.16,12.97,.14,2.09,.36,4.17,.66,6.24,.21,1.44,.37,3.06,1.06,4.36,.17,.31,.39,.26,.55-.01,.44-.74,.4-1.85,.47-2.67,.23-2.73,.16-5.51-.12-8.23,.21,6.82,.3,8.76,.28,5.84,0-.34,0-.67-.01-1.01-.08-1.75-.09-2.1-.04-1.06,.02,.61,.03,.69,.02,.24,.12-1.95-.26-3.96-.48-5.9,.25,2.21-.06-.59-.13-1.02-.04-.27-.09-.55-.14-.82-.04-.23-.07-.46-.11-.68-.11-.66,.22,1.73,.07,.48-.03-.23-.05-.46-.08-.69-.14-1.2,.13,1.95,.06,.75-.02-.28-.02-.56-.05-.83,.01,.11,.08,2.33,.06,1.08s0,.97,0,1.08c0-.28,0-.56,.01-.84,.01-.49,0-.37-.02,.36-.05,1.25-.03,.85,.04-1.2,.03-1.13-.08,1.85-.02,.63,.15-3.2,.15-6.53-.52-9.67-.05-.24-.25-1.61-.7-1.6-.57,.01-.7,2.08-.71,2.22h0Z"/><path class="cls-3" d="M303.96,372.28c1.06,.09,2.13,.53,3.16,.82,1.21,.33,2.42,.67,3.64,.95,2.19,.52,4.42,.93,6.64,1.31,4.52,.77,9.09,1.32,13.67,1.64,9.08,.63,18.22,.36,27.24-.81,2.54-.33,5.08-.73,7.6-1.2s5.27-.92,7.74-1.89c.05-.02,0-.38,0-.38-2.31,.26-4.56,.91-6.83,1.36s-4.43,.83-6.67,1.17c-4.54,.68-9.11,1.13-13.69,1.35-9.09,.44-18.21-.02-27.21-1.37-2.54-.38-5.06-.84-7.57-1.36-1.21-.25-2.43-.49-3.64-.75-1.33-.28-2.83-.46-4.07-1.03,0,0-.03,.19,0,.2h0Z"/><path class="cls-3" d="M463.41,384.98c.87,2.44,1.39,5.03,2.15,7.5s1.52,4.76,2.36,7.11c1.71,4.83,3.64,9.58,5.76,14.25,4.18,9.18,9.17,17.99,14.86,26.32,11.41,16.74,25.63,31.57,41.99,43.52,4.05,2.96,8.59,6.79,13.74,7.41,4.67,.56,9.2-1.62,12.56-4.74,8.02-7.44,7.97-19.29,8.97-29.37s2.61-20.75,7.02-30.24c2.12-4.58,4.92-8.7,8.32-12.42,3.17-3.49,6.75-6.81,9.13-10.93,2.59-4.48,2.96-10.19,1.84-15.18-.88-3.94-3.61-7.89-7.52-9.26-.91-.32-1.85-.39-2.81-.53-1.06-.15-2.13-.6-3.19-.86-2.06-.51-4.19-.89-6.29-1.16-6.09-.77-12.27-.67-18.36,.06-2.98,.36-5.93,.91-8.85,1.63-.14,.03-.03,.85,.02,.84,5.79-1.24,11.67-1.79,17.59-1.5,5.13,.25,10.53,.8,15.3,2.8,.99,.41,1.99,.85,2.93,1.38,1.17,.66,2.13,1.66,3.11,2.56,1.58,1.45,3.26,2.88,4.67,4.49,1.25,1.42,2.24,3.07,2.74,4.9,.08,.28,.16,.66,.19,.66-.2,.02,.19-1.64-.13,0-.21,1.08-.59,2.14-1.04,3.14-1.95,4.27-5.27,7.69-8.38,11.13-3.28,3.62-6.2,7.41-8.44,11.77-4.74,9.21-6.61,19.53-7.73,29.73-.58,5.29-.75,10.61-1.34,15.89-.63,5.63-1.83,11.5-5.1,16.25-2.71,3.94-6.8,7.18-11.61,7.99-5.53,.93-10.12-2.18-14.45-5.19-15.96-11.11-29.99-24.94-41.47-40.61-11.55-15.77-20.6-33.45-26.43-52.12-.75-2.42-1.59-4.88-2.09-7.36-.02-.08-.03,.12-.02,.15h0Z"/><path class="cls-3" d="M591.12,403.4c-1.27,.38-2.63-.57-3.43-1.48l.03,1.31c2.11-.08,4.28-.66,6.37-1.01l6.61-1.12c4.24-.72,8.5-1.38,12.73-2.17,8.62-1.62,17.24-3.25,25.87-4.86,16.88-3.16,33.82-6.17,50.96-7.44,4.79-.35,9.59-.57,14.4-.61,2.44-.02,4.89,0,7.33,.08,1.14,.03,2.28,.08,3.42,.14,.65,.03,1.31,.11,1.96,.11,.73,0,1.25-.22,1.94-.48,.08-.03,.06-1.1-.03-1.14-.47-.24-.97-.58-1.48-.71s-1.17-.07-1.71-.1c-1.06-.06-2.12-.1-3.18-.14-2.2-.08-4.4-.12-6.6-.12-4.23,0-8.47,.14-12.69,.39-8.64,.52-17.25,1.51-25.81,2.77-17.09,2.5-34.04,5.93-51.01,9.13-4.82,.91-9.63,1.91-14.43,2.9l-7.34,1.52c-2.41,.5-5,.79-7.34,1.58-.12,.04-.08,1.23,.03,1.31,1.15,.78,2.12,.53,3.4,.37,.02,0,0-.2,0-.2h0Z"/><path class="cls-3" d="M590.35,399c.98-1.35,1.84-2.35,2.05-4.09,.14-1.18,.06-2.43-.2-3.59-.78-3.54-3.8-6.28-7.56-5.79s-6.67,3.53-6.86,7.22,1.38,6.77,4.74,8.32c1.73,.8,3.78,1.04,5.59,.35,2.57-.97,5.52-1.29,8.22-1.85,5.99-1.25,11.99-2.44,18-3.57,11.87-2.23,23.8-4,35.73-5.81,11.58-1.76,23.25-3.61,34.97-4.15,11.36-.52,22.5,.62,33.14,4.79,9.47,3.7,19.08,8.96,29.59,7.85,7.38-.78,13.99-4.49,19.9-8.77,11.63-8.42,22.29-20.99,37.23-23.17,1.74-.25,3.48-.19,5.2-.59,.14-.03,.1-2.86-.07-2.9-1.32-.36-2.47-.93-3.7-1.54,.15,.07-.18,1.21,.03,1.37,1.31,.98,2.55,1.94,3.74,3.07l-.07-2.9c-3.04-1.11-6.88-.27-9.91,.64-3.21,.97-6.24,2.46-9.1,4.2-6.08,3.7-11.45,8.44-16.96,12.91s-11.07,8.79-17.56,11.5c-3.14,1.31-6.46,2.18-9.86,2.42-4.87,.34-9.69-.7-14.28-2.25s-9.38-3.75-14.08-5.59-9.78-3.32-14.92-4.09c-10.66-1.61-21.49-.78-32.13,.56-22.53,2.85-44.87,7.12-67.06,11.92-2.8,.61-5.59,1.22-8.39,1.86-2.54,.58-5.32,.96-7.73,1.94-3.38,1.38-7.59-.37-9.37-3.47-2.23-3.88,1.97-8.04,5.67-8.8s7.07,1.81,7.87,5.47c.38,1.74-.11,5.25-1.89,6.32-.04,.03,.02,.17,0,.2h0Z"/><path class="cls-3" d="M765.25,365.4c2.95,.37,5.96-.14,8.92-.4l9.16-.8,17.82-1.57c11.96-1.05,23.91-2.12,35.87-3.24,5.78-.54,11.59-1.07,17.4-.91s11.33,1.11,16.8,2.86,10.56,4.02,15.73,6.29l16.63,7.28,9.34,4.09,4.56,2c1.45,.63,3.02,1.61,4.56,2,.77,.19,.27,.25,.7-.13,.25-.23,.52-.69,.7-.97,.4-.59,.74-1.22,1.07-1.85,.72-1.37,1.23-2.75,1.64-4.25,.9-3.29,1.63-6.66,1.96-10.06,.04-.39,.05-.81,0-1.2-.01-.08-.05-.63-.09-.31-.29,2.24-.8,4.52-2.04,6.45-.6,.94-1.1,1.88-1.62,2.86-.27,.5-.56,.98-.85,1.47-.22,.38-.76,1.81-1.16,1.95-.29,.1-1.52-.62-1.82-.74l-2.05-.83-4.33-1.76-8.2-3.33-16.16-6.58c-5.16-2.1-10.29-4.28-15.58-6.04s-10.85-2.99-16.51-3.26-11.62,.26-17.39,.94c-11.76,1.38-23.51,2.92-35.25,4.44l-19.78,2.56-9.89,1.28c-3.37,.44-6.91,.58-10.13,1.7,0,0,0,.08,0,.08h0Z"/><path class="cls-3" d="M347.27,379.94c-.71-.85-1.25,.25-1.33,.97-.08,.76,.05,1.45,.51,2.07,2.06,2.75,5.46,4,8.74,4.51,3.82,.6,7.71,.34,11.55,.22l14.62-.49c4.87-.16,9.75-.33,14.62-.5,2.36-.09,4.73-.23,7.1-.24,2.01,0,4.13,.17,5.88,1.26,1.65,1.03,2.62,2.77,4.04,4.04s3.39,1.99,5.32,2.39c4.51,.94,9.21,1.27,13.79,1.77,5.5,.6,11.02,1.12,16.53,1.56,2.72,.21,5.44,.41,8.16,.58,1.32,.08,2.64,.15,3.96,.23,.22,.01,.75-.02,.99,.08,.46,.19,.76,.67,1.26,.84,.71,.25,1.5,.09,2.22-.04l-.08-3.26c-.38,.58-.9,.9-1.61,.88-.26,0-.55-.05-.78-.18-.69-.38-.36-1.1-.53,.26,.04-.35,.06-.75,0-1.1-.01-.08-.06-.58-.1-.28-.14,.85-.15,1.97,.31,2.72,.53,.86,1.85,1.73,2.79,.96,.27-.22,.19-3.19-.08-3.26-.56-.15-1.15-.32-1.74-.29-.64,.03-.92,.37-1.47,.64-.94,.45-2.66,.09-3.71,.04-2.31-.11-4.62-.23-6.92-.37-4.53-.27-9.06-.6-13.58-1.01s-9.04-.9-13.54-1.44c-3.68-.44-8.1-.54-11.08-3.06-1.36-1.15-2.27-2.73-3.7-3.8-1.53-1.15-3.46-1.5-5.33-1.56-4.34-.15-8.75,.28-13.09,.45-9.17,.37-18.33,.8-27.5,1.19-3.69,.16-7.5,.22-11.07-.83-1.66-.49-3.27-1.24-4.59-2.37-.73-.62-1.93-1.57-1.71-2.64,.1-.47,.75-1.68,1.15-.74-.01-.03,.03-.15,0-.19h0Z"/><path class="cls-3" d="M479.3,301.57c-1.85-2.41-5.27-.05-6.84,1.53-2.53,2.53-4.91,5.23-7.16,8.01-4.54,5.62-8.53,11.69-11.91,18.07-6.71,12.68-10.99,26.67-12.6,40.92-.88,7.71-.96,15.49-.24,23.21,0,.02,.03,.28,.07,.16,1.02-3.17,2.04-6.33,3.03-9.51,.02-.07-.02-.38-.04-.33-.72,2.18-1.43,4.36-2.14,6.54l-.46,1.42c-.13,.39-.23,1.34-.48,.58-.26-.82-.15-1.94-.2-2.79-.24-3.98-.25-7.98-.05-11.97,.39-7.55,1.54-15.05,3.42-22.38,3.67-14.34,10.09-28.02,18.82-39.97,2.41-3.29,4.99-6.46,7.75-9.47,1.67-1.83,6.37-7.36,9.03-3.95,0,0,.01-.06,0-.07h0Z"/><path class="cls-3" d="M535.77,290.77c-1.53,1.67-3.54,3.03-5.28,4.48s-3.53,2.94-5.28,4.43l-10.75,9.15c-6.91,5.88-13.92,11.65-20.68,17.69-6.09,5.43-11.57,11.36-15.77,18.39s-7.12,14.45-9.71,22.06c-1.43,4.2-2.81,8.43-4.04,12.69-1.09,3.77-1.87,7.92-.6,11.74,.03,.1,.08,.1,.11,0,.42-1.73,.84-3.45,1.26-5.18,.02-.09-.03-.46-.05-.39-.27,.89-.53,1.77-.8,2.66-.05,.18-.38,1.44-.43,1.43-.44-.05-.47-1.85-.49-2.18-.13-2.48,.56-4.95,1.27-7.31,1.14-3.8,2.36-7.59,3.61-11.36,2.51-7.54,5.37-15.01,9.3-21.93s9.33-13.23,15.35-18.78c6.43-5.93,13.18-11.53,19.8-17.26l11.5-9.94c1.96-1.69,3.91-3.39,5.84-5.1l2.83-2.51c.97-.86,1.91-1.89,3.02-2.58,.05-.03-.02-.17,0-.2h0Z"/><path class="cls-3" d="M562,291.73c-.98,.74-2.19,1.27-3.23,1.94-1.21,.77-2.36,1.62-3.52,2.47-2.2,1.62-4.36,3.3-6.47,5.04-4.22,3.48-8.24,7.19-12.05,11.12-1.81,1.87-3.57,3.78-5.27,5.74-.85,.98-1.69,1.97-2.51,2.96s-1.95,2.09-2.29,3.39c-1.11,4.17,3.61,5.95,6.67,7.14,20.7,8.06,43.44,.25,60.65-12.06,4.89-3.5,9.51-7.38,13.93-11.45,2.19-2.02,4.38-4.06,6.46-6.2,1.75-1.8,3.23-3.77,3.32-6.37,0-.23-.13-1.44-.16-.65-.1,2.86-2.46,5.02-4.36,6.88-1.74,1.71-3.5,3.39-5.29,5.04-3.74,3.44-7.62,6.75-11.69,9.8-7.95,5.97-16.72,11.05-26.25,14.02s-19.81,3.9-29.59,1.79c-2.33-.5-4.63-1.17-6.85-2.03s-4.94-1.72-6.31-3.65c-.82-1.15,.02-2.21,.75-3.14,.85-1.09,1.73-2.15,2.61-3.2,1.72-2.05,3.49-4.05,5.32-6,3.86-4.13,7.96-8.03,12.27-11.69,2.21-1.88,4.47-3.69,6.79-5.43,1.16-.87,2.35-1.71,3.51-2.58s2.31-1.99,3.58-2.7c.05-.03-.02-.18,0-.2h0Z"/><path class="cls-3" d="M631,293.95c-.9-1.31-1.89-2.22-3.56-2.36-.05,0-.01,.41,0,.45,8.54,23.28,11.34,48.57,8.03,73.15-.91,6.78-2.3,13.49-4.12,20.09-.06,.2,.09,.68,.06,.77,1.3-3.57,2.54-7.17,3.81-10.75,.03-.08-.03-.26-.02-.29-1.28,3.41-2.59,6.81-3.84,10.23l.06,.77c6.62-23.98,7.3-49.56,2.03-73.87-1.51-6.98-3.53-13.84-6.01-20.53v.45c1.49-.03,2.94,.67,3.55,2.09-.01-.03,.04-.14,0-.19h0Z"/><path class="cls-3" d="M663.72,294.11c.55,11.86,.94,23.69,.66,35.56s-1.04,23.6-2.31,35.33c-.71,6.53-1.57,13.05-2.5,19.55-.01,.1,.05,.57,.07,.48,1.31-5.63,1.76-11.57,2.4-17.3s1.21-11.96,1.62-17.95c.83-12.01,1.12-24.06,.91-36.1-.12-6.53-.32-13.08-.84-19.59,0-.04,0,.02,0,.03h0Z"/><path class="cls-3" d="M737.29,305.14c1.71,4.21,3.11,8.59,4.68,12.85,1.44,3.91,2.87,7.81,4.27,11.74,2.81,7.91,5.48,15.88,7.73,23.98,1.28,4.6,2.42,9.23,3.39,13.9,.02,.09,.06,.08,.07,0,.52-2.88,1-5.77,1.49-8.65,.02-.09-.03-.44-.04-.39-.43,2.24-.88,4.48-1.29,6.72-.04,.2-.09,1.04-.28,.92-.09-.06-.16-.78-.19-.89-.25-1.18-.51-2.37-.79-3.55-1.1-4.72-2.38-9.39-3.78-14.02-2.78-9.18-6.05-18.21-9.39-27.2-1.93-5.19-4.08-10.34-5.88-15.58,0-.02-.02,.14,0,.18h0Z"/><path class="cls-3" d="M782.57,304.18c1.1,1.69,1.87,3.72,2.72,5.56s1.65,3.67,2.43,5.53c1.65,3.94,3.2,7.93,4.6,11.97,2.68,7.74,4.82,15.66,6.4,23.69,.92,4.66,1.63,9.35,2.17,14.06l.08-1c-1.87-3.56-3.83-7.07-5.77-10.59,.04,.07-.09,.49,0,.66,1.91,3.75,3.78,7.52,5.76,11.24,0,0,.1-.84,.08-1-1.87-16.23-5.91-32.34-12.32-47.38-.93-2.18-1.91-4.34-2.93-6.48s-2.27-4.25-3.2-6.45c.01,.02-.04,.14,0,.19h0Z"/><path class="cls-3" d="M769.87,265.61c1.32,6.48,3.14,12.85,5.35,19.07,2.22,6.26,4.76,12.54,7.97,18.37l.02,.02c1.19-1.04,1.79-2.37,1.88-3.93,0-.1-.05-.59-.07-.27-.07,.93-.41,1.8-1.03,2.51-.57,.65-.75,.48-1.21-.14-.22-.3-.35-.72-.52-1.05-.79-1.56-1.55-3.12-2.28-4.71-1.46-3.16-2.81-6.38-4.05-9.64-2.5-6.62-4.46-13.41-6.06-20.31,0,0,0,.05,0,.07h0Z"/><path class="cls-3" d="M869.35,314.42c1.83,2.49,4.12,4.57,6.03,7.01s3.44,4.79,4.84,7.39c2.92,5.4,4.93,11.39,5.65,17.5,0,.06,.06,.51,.15,.39,1.31-1.61,2.39-3.38,3.57-5.09,.07-.1-.04-.51-.03-.51-.7,.74-1.41,1.46-2.13,2.18-.33,.33-.61,.65-.91,1-.14,.23-.32,.42-.53,.58l-.06-.39c-.34-.71-.31-1.95-.47-2.75-.14-.69-.29-1.38-.46-2.07-.81-3.31-1.95-6.54-3.41-9.62s-3.26-6.08-5.34-8.84c-1.04-1.38-2.15-2.7-3.32-3.96-1.11-1.19-2.06-2.26-3.58-2.88,0,0,0,.07,0,.07h0Z"/><path class="cls-3" d="M886.02,340.06c-.16,.29-.35,.29-.61,.2-.46-.15-.39-.49-.29-.83,.19-.63,.75-.69,1.34-.77,1.48-.22,3-.29,4.49-.43,3.03-.29,6.05-.67,9.08-1.04l8.83-1.09c3.08-.38,6.22-1.02,9.33-.76,.23,.02,.07-1.86,.02-2.04-.89-3.72-2.05-7.37-3.52-10.91-.64-1.54-1.38-3.07-2.19-4.52-.34-.61-.71-1.28-1.15-1.82-.11-.14-.41-.47-.59-.55-.63-.26-.87,.68-1.44,.14,.14,.13-.17,1.53,.02,1.87,.75,1.39,.88,2.97,1.48,4.41,.33,.78,.74,1.48,1.17,2.21,.8,1.36,1.65,2.69,2.45,4.06,1.36,2.32,2.62,4.66,3.72,7.11v-2.15c-3.58,1.24-7.55,1.42-11.29,1.94l-11.28,1.54c-1.8,.25-3.6,.54-5.39,.83-.98,.16-1.96,.32-2.94,.48-.67,.11-1.47,.17-1.99,.65-.72,.65-.39,2.33,.77,1.65,.05-.03-.02-.18,0-.19h0Z"/><path class="cls-3" d="M881.37,357.55c.77-.78-1.64-1.56-1.4,.03s2.27,1.89,3.5,1.97c2.58,.17,5.13-.37,7.62-.99,4.47-1.12,8.73-2.15,13.36-1.53,4.07,.55,8,2.07,11.41,4.34,3.93,2.61,7.13,6.21,9.16,10.48l.02-1.61c-.51-1.07-1.16-2.09-1.75-3.12,.03,.05-.07,.45,0,.59,.57,1.38,1.09,2.8,1.74,4.14-.09-.18,.23-1.18,.02-1.61-2.88-5.94-8.13-10.47-14.27-12.81-3.09-1.18-6.4-1.79-9.71-1.73-4.07,.07-7.86,1.46-11.78,2.39-2.28,.54-4.61,.87-6.95,.57-.43-.06-.88-.1-1.28-.26-.23-.09-.45-.17-.62-.35-.21-.23-.39-.88-.12-1.13,.33-.31,1.53,.04,1.06,.57-.01,.01,0,.07,0,.07h0Z"/><path class="cls-3" d="M905.95,286.51c-.15-.76-.87-.22-1.2,.17-.6,.71-.37,1.77-.39,2.65-.05,2.91,.05,5.83,.31,8.73,.53,5.97,1.54,12.15,3.79,17.73-.02-.06,.05-.36,.01-.49-1.43-5.01-2.74-10.03-3.4-15.21-.34-2.66-.54-5.34-.59-8.03-.02-1.39-.1-2.86,.05-4.25,.06-.53,.25-1.15,.78-1.42,.3-.15,.53-.28,.64,.18,0,0,0-.05,0-.07h0Z"/><path class="cls-3" d="M958.1,318.82c-.43-.94-.25-2.38,.35-3.27,.31-.46,.82-1.01,1.39-.54,.34,.28,.6,.89,.85,1.25,.38,.55,.75,1.11,1.13,1.66,1.32,1.94,2.64,3.88,3.95,5.82,1.41,2.08,2.82,4.16,4.24,6.24,.92,1.34,1.94,2.71,3.7,2.84,1.06,.08,2.13-.29,3.14-.58,1.1-.32,2.21-.64,3.31-.96,2.37-.68,4.73-1.35,7.1-2.03l6.63-1.89,3.31-.95c1.23-.35,2.51-.88,3.79-.95,.2-.01,.05-1.82-.02-2-.47-1.22-.76-2.51-1.36-3.68-.45-.88-.91-1.77-1.37-2.65-.82-1.58-1.72-3.12-2.59-4.67-.83-1.46-1.7-2.87-2.6-4.29-.79-1.24-1.49-2.64-2.57-3.65l.3,7.93c.59-1.54,1.2-2.81,2.36-4l2.11-2.17c.25-.26-.11-2.11-.05-2.13l-2.34,.98c-1.16,.48-1.48,.27-2.38-.6-.11-.1-.27,1.43-.25,1.19-.06,.77-.06,1.55-.05,2.32,.02,1.31-.18,3.21,.39,4.43,1.34,2.85,3.38,5.5,5.3,7.98,.76,.98,1.48,1.99,2.31,2.92,.45,.5,.9,1,1.35,1.51,.61,.68,.75,.3,1.46,.59l-.05-2.04c-1.97,1.07-4.47,1.52-6.62,2.18l-6.15,1.9c-4.15,1.28-8.29,2.7-12.48,3.84-2.11,.57-3.66,.18-5.04-1.55-1.24-1.57-2.31-3.3-3.45-4.95-2.54-3.67-5.08-7.34-7.62-11.01h-.01c-1.6,1.2-1.93,3.34-1.45,5.15,0,.01,.02-.14,0-.18h0Z"/><path class="cls-3" d="M1048.76,300.28c-.07-.72-.17-1.56-.12-2.28,.04-.6,.05-1.22-.02-1.82,0-.07-.14-.89-.22-.68-1.35,3.22-2.21,6.67-3.12,10.04-.97,3.6-1.84,7.22-2.66,10.86-.1,.46-.29,5.24,.2,5.22,4.39-.18,8.78-.41,13.18-.61,3.53-.16,7.86,.18,10.08-3.14,1.66-2.49,1.76-5.81,1.9-8.7,.19-3.92,.74-7.71,1.99-11.45,.69-2.05,1.48-4.34,2.66-6.17,.34-.52,.79-.68,1.2-1.09,.47-.47,.62-.96,1.32-1.19,.88-.29,1.63-.02,2.32,.54-.16-.13,.17-1.24-.04-1.52-.51-.69-1.16-1.2-1.85-1.69-.32-.23-.7-.35-1.02-.56-.5-.33-.67-1.03-1.36-.96-.81,.08-1.06,1.18-1.38,1.82-.47,.94-.9,1.9-1.29,2.87-1.5,3.72-2.42,7.65-2.82,11.63-.31,3.14,.02,6.56-1.2,9.53-1.56,3.83-5.33,4.07-8.96,4.33-4.96,.34-9.92,.67-14.88,1.03l.2,5.22c.87-4.01,1.82-8.01,2.83-11.99,.5-1.94,1.03-3.88,1.52-5.82,.26-1.02,.53-2.03,.8-3.05,.11-.41,.15-1.24,.38-1.57-.02-.31,.05-.37,.22-.18,.04,.48,.08,.96,.11,1.45,0,.15,.03-.02,.02-.08h0Z"/><path class="cls-3" d="M1112.47,283.82c-.54,6.5-.54,13.05-.25,19.56,0,.07,.03,1.04,.15,1.03,2.15-.07,4.26,.18,6.4,.05s4.43-.28,6.64-.47l12.78-1.11c4.22-.37,8.56-.48,12.75-1.14,1.41-.22,2.75-.78,3.41-2.12,.71-1.45,.5-3.44,.43-4.99-.08-1.82-.36-3.55-.88-5.29s-.88-3.39-1.34-5.08l.19,1.47v.45c.05-.38,.03-.78,.01-1.16,0-.11-.14-.7-.1-.75-.93,1.42-.39,5.65,.18,7.81,.18,.67,.42,1.33,.65,1.98,.26,.73,.55,1.45,.76,2.2s.21,2.02,.13-.83,.08-1.59-.29-.84c-.91,1.85-3.19,2.04-4.98,2.24-2.46,.27-4.91,.54-7.37,.81l-14.74,1.63c-2.46,.27-4.91,.56-7.37,.9s-4.87,1.04-7.35,1.45l.15,1.03c-.36-6.25-.3-12.5,.03-18.75,0-.01,0-.07,0-.06h0Z"/></g></svg>