<?xml version="1.0" encoding="UTF-8"?><svg id="Layer_1" xmlns="http://www.w3.org/2000/svg" viewBox="0 0 1500 750"><defs><style>.cls-1{fill:#dcd2cd;}.cls-2{fill:#b98d77;}.cls-3{fill:#fff;}.cls-4{fill:#231f20;}.cls-5{fill:#f1e8e5;}</style></defs><g><path class="cls-2" d="M558.63,441.4s77.55-13.54,89.5-16.22c11.95-2.69,69.69-14.36,84.86-10.13s54.66,24.08,61.94,32.03c7.28,7.94,14.69-31.97,48.55-38.94,33.87-6.97,168.34-18.19,168.34-18.19l43.39,34.37s18.35,10.9,22.57-33.7c0,0,83.53-13.61,94.25-22.23s31.04-20.03,27.59-22.6c-3.45-2.57-175.05-65.41-264.6-53.51-89.55,11.9-163.3,30.37-163.3,30.37,0,0-205.61,78.59-213.07,82.26-7.47,3.66-106.94-6.67-149.5-30.65-42.56-23.99-112.15-71.33-109.03-62.72s38.52,62.65,38.52,62.65c0,0,14.94-.3,19.04,.07s-20.79,6.91,9.58,27.32c30.38,20.41,106.23,56.82,101.05,75.48-5.19,18.66-11.34,51.42-4.88,59.36,0,0,41.85-22.8,57.92-45.94,16.07-23.14,37.31-49.07,37.31-49.07Z"/><path class="cls-2" d="M813.92,316.43s41.29-39.16,27.3-72.23c-13.99-33.08-5.85-40.51,23.81-16.49,29.67,24.02,75.33,73.65,75.33,73.65l-126.44,15.08Z"/><path class="cls-2" d="M575.39,403.41s51.7-41.51,49.34-45.84c-2.36-4.32-15.8-49.07,11.92-36.23,27.72,12.84,60.67,36.23,60.67,36.23l-68.45,41.96-53.47,3.87Z"/><path class="cls-2" d="M1072.78,361.23s4.02,57.38-8.65,63.07c-12.67,5.7-53.97-41.03-62.22-40.9s70.86-22.18,70.86-22.18Z"/><path class="cls-1" d="M558.32,438.79c-1.02,.17-1.95,.17-2.82-.46-.76-.55-1.45-1.36-2.06-2.06l.99,5.15c4.04-.66,8.06-1.73,12.05-2.68s7.67-1.81,11.51-2.7c7.68-1.76,15.38-3.48,23.09-5.14,15.54-3.35,31.13-6.46,46.76-9.41,31.24-5.89,62.6-11.21,94.01-16.16,8.62-1.36,17.23-2.71,25.86-4.01,4.34-.65,8.68-1.31,13.02-1.97,2.25-.34,4.5-.68,6.75-1.02,1.12-.17,2.26-.3,3.38-.51s2.22-.7,3.32-1.12c.59-.23,1.08-1.61,1.22-2.07,.31-.98,.48-1.99,.56-3.02,.06-.83,.32-4.22-1.05-4.32-1.58-.12-2.94-.13-4.51,.12s-2.99,.46-4.49,.69c-2.99,.47-5.98,.93-8.97,1.41s-5.81,.94-8.72,1.42c-1.49,.25-2.99,.5-4.48,.75-.75,.13-1.49,.25-2.24,.38-3.55,.6-2.74,1.17-6.91,5.11l9.29-.7c-4.84-3.05-4.31-4.15-8.05-3.51-.83,.14-1.65,.29-2.48,.43-1.82,.31-3.64,.63-5.46,.95-3.47,.61-6.94,1.21-10.41,1.83-6.74,1.19-13.48,2.4-20.22,3.63-13.6,2.48-27.18,5.04-40.75,7.69-26.74,5.21-53.44,10.69-79.98,16.86-7.33,1.7-14.64,3.47-21.93,5.31-3.65,.92-7.3,1.83-10.93,2.8s-7.63,1.94-11.29,3.27c-.77,.28-.41,1.96-.29,2.47,.28,1.14,.8,2.23,1.66,3.04s1.43,.94,2.52,.85,2.11,.08,3.17-.12c.77-.14-.14-3.33-1.13-3.16h0Z"/><path class="cls-1" d="M794.12,393.41c-1.89-.02-3.97,.95-5.77,1.46-1.99,.56-3.94,1.2-5.91,1.8-4.13,1.25-8.3,2.35-12.51,3.28-8.48,1.88-17.06,3.24-25.73,3.89-4.94,.37-9.87,.46-14.82,.44-2.3-.01-3.09,8.39-1.45,8.38,17.43-.19,34.94-3.22,51.46-8.75,2.38-.8,4.81-1.58,7.12-2.59s5.05-2.01,7.06-3.6c.52-.41,1.67-4.29,.56-4.3h0Z"/><path class="cls-1" d="M539.94,439.93c31.93-10.45,63.86-20.8,96.2-29.91,32.36-9.12,65.05-17.08,97.98-23.88,32.83-6.77,65.91-12.3,99.14-16.67,33.34-4.38,66.85-7.61,100.43-9.52,32.93-1.87,66.16-3.09,99.13-1.71,3.67,.15,7.28-.09,10.94-.31,1.49-.09,3.52-6.42,2.6-6.51-9.2-.97-18.39-.69-27.63-.62-8.51,.07-17.01,.19-25.52,.34-16.76,.3-33.51,.91-50.24,1.82-33.48,1.82-66.89,4.75-100.16,8.91-33.23,4.16-66.29,9.55-99.13,16.06s-65.51,14.22-97.82,23.11c-16.01,4.41-31.91,9.17-47.73,14.22-15.97,5.09-31.97,10.3-47.59,16.4-3.85,1.5-7.69,3.02-11.52,4.56-.95,.38,.07,4,.93,3.72h0Z"/><path class="cls-1" d="M643.1,414.78c-1.77,.09-3.54,.02-5.23,.56-.99,.32-.97,4.34-.32,4.18,11.12-2.63,22.16-5.59,33.23-8.43,5.45-1.39,10.9-2.75,16.36-4.08,2.86-.7,5.73-1.37,8.6-2.07,1.3-.32,2.61-.63,3.91-.95,.78-.19,1.57-.36,2.35-.56,2.31-.61,1.6-.74,4.76-3.39l-1.52,.66c3.64-.89,7.29-1.75,10.94-2.6l-4.59-.4c2.91,1.25,3.77,2.58,6.11,2.08,.84-.18,1.67-.36,2.51-.54,1.39-.3,2.79-.6,4.18-.91,3.17-.69,6.33-1.39,9.5-2.08,5.77-1.24,11.56-2.45,17.35-3.61,11.58-2.33,23.2-4.51,34.84-6.52,23.54-4.06,47.2-7.46,70.94-10.09,46.96-5.22,94.28-7.47,141.52-6.09,14.1,.41,28.17,1.18,42.22,2.55,3.37,.33,6.75,.61,10.09,1.18,1.47,.25,2.99,.66,4.48,.74,1.34,.07,1.9-.19,2.34-1.48s1.82-11.47-.99-10.76c-1.17,.29-1.88,2.41-2.26,3.33-.63,1.53-2.53,5.07-1.38,6.74,.95,1.37,2.69-2.01,2.99-2.61,.6-1.18,2.44-4.77,1.47-6.17l-.43-.74-3.03,9.4c.91-.21,1.92,.24,2.41,.94l.1-10.09c-1.72,1.49-4.04,1.28-6.17,1.25-3.04-.04-6.05-.14-9.08-.31-5.79-.32-11.59-.57-17.38-.84-11.15-.52-22.31-.97-33.47-1.19-22.48-.45-44.97-.08-67.43,1.04-44.95,2.25-89.74,7.53-134.06,15.33-12.31,2.16-24.58,4.52-36.82,7.06-6.25,1.3-12.5,2.64-18.73,4.03-3.12,.7-6.23,1.39-9.34,2.12-1.46,.34-2.91,.69-4.36,1.05-.49,.12-.97,.24-1.46,.36-2.79,.7-2.18,.85-5.44,3.62l1.55-.67c-4.16,.97-8.3,1.98-12.45,2.98l4.01,.18c-3.57-1.5-3.17-2.19-5.44-1.76-.65,.12-1.29,.33-1.93,.49-1.29,.33-2.58,.65-3.87,.99-2.71,.71-5.41,1.43-8.11,2.16-5.41,1.46-10.81,2.94-16.19,4.46-10.91,3.07-21.8,6.3-32.51,10.03l-.12,4.13c1.81-.79,3.4-2.17,5.03-3.29,.18-.12,.68-1.43,.32-1.41h0Z"/><path class="cls-1" d="M1036.1,363.13c1.68,1.07,3.74,.96,5.69,1.07,2.14,.12,4.27,.27,6.41,.36,4.05,.17,8.12,.22,12.17,.3,8.23,.17,16.47,.05,24.7-.07,16.32-.25,32.63-.83,48.93-1.73,4.49-.25,8.98-.52,13.47-.82s9.32-.47,13.9-1.22c1.62-.26,2.05-6.68,.66-6.68-4.13-.02-8.25,.44-12.37,.74s-8.22,.58-12.33,.84c-8.06,.51-16.12,.95-24.18,1.31-16.15,.72-32.3,.97-48.46,1.38-4.64,.12-9.28,.22-13.92,.28-2.34,.03-4.67,.15-7,.22s-4.72-.06-6.89,.92c-.65,.3-1.54,2.62-.79,3.1h0Z"/><path class="cls-1" d="M1174.55,352.97c-1.39,.16-2.69,.3-4.02,.72-1.55,.49-3.12,.93-4.67,1.43-3.05,.97-6.08,1.97-9.13,2.94-6.03,1.91-12.09,3.74-18.21,5.34-12.42,3.25-25.05,5.83-37.74,7.7-7.22,1.07-14.47,1.88-21.75,2.46l-2.76,6.14c19.86-3.49,39.76-6.76,59.64-10.11,1.61-.27,2.79-6.9,1.7-6.85-19.46,.84-38.91,1.87-58.37,2.7l-2.56,7.53c14.28-1.07,28.51-2.92,42.8-4.02,.52-.04,1.28-1.22,1.48-1.54,.48-.79,.86-1.62,1.17-2.49,.14-.4,1.22-3.97,.19-3.95-19.2,.25-38.47,1.36-57.59,3.18-.55,.05-1.33,1.39-1.52,1.72-.48,.87-.85,1.78-1.15,2.73-.16,.51-1.17,4.21-.01,4.25,2.43,.1,4.8,.1,7.23,.01,.54-.02,1.34-1.22,1.54-1.54,.5-.79,.9-1.64,1.22-2.52,.19-.51,1.31-3.88,.18-4.04-2.37-.32-4.7-.52-7.09-.65l-2.68,8.7c18.99-1.51,37.99-2.78,57.01-3.87l2.45-7.97c-14.32,1.76-28.73,2.73-43.05,4.47-.5,.06-1.17,1.15-1.36,1.47-.54,.87-.96,1.88-1.24,2.86-.21,.73-.95,3.27,.41,3.19,19.63-1.19,39.28-2.16,58.91-3.34l1.7-6.85c-19.41,3.61-38.81,7.31-58.25,10.78-1.29,.23-2.29,2.3-2.76,3.36-.21,.47-1.2,2.89,0,2.79,26.22-2.18,52-7.5,76.92-15.95,3.47-1.18,6.9-2.5,10.31-3.85,1.83-.72,3.61-1.55,5.4-2.36s3.51-1.89,5.23-2.99c.23-.15,.87-1.64,.43-1.59h0Z"/><path class="cls-1" d="M1084,373.53c-2.45,1.8-5.01,3.3-7.87,4.35-.92,.34-2.44,4.82-1.19,5.15,1,.27,2.33-.12,3.36-.25l3.41-.43,6.34-.8c4.44-.56,8.87-1.25,13.29-1.91,8.83-1.31,17.66-2.61,26.49-3.89l1.47-6.99c-15.87,5.61-32.53,6.95-49.12,8.83-.48,.05-1.11,1.08-1.3,1.38-.51,.82-.91,1.78-1.18,2.71-.19,.65-.89,3.16,.41,3.02,6.78-.73,13.59-1.09,20.37-1.9s13.65-2,20.41-3.3c13.24-2.53,26.32-5.89,39.18-9.94,7.16-2.26,14.69-4.43,21.21-8.19,1.45-.84,2.4-3.36,2.89-4.83,.17-.51,1.02-3.36-.3-3.02-6.85,1.77-13.46,4.45-20.17,6.66s-13.01,4.11-19.59,5.88c-12.89,3.48-25.98,6.31-39.17,8.41-7.53,1.2-15.13,2.6-22.75,3.11l-2.07,7.11c16.86-1.22,34.12-3.04,50.05-9,1.52-.57,2.94-7.24,1.14-6.94-8.83,1.44-17.67,2.88-26.51,4.3-4.43,.72-8.88,1.39-13.3,2.2l-6.42,1.18-3.46,.63c-1.15,.21-2.45,.28-3.49,.81l-.67,4.91c2.6-2.93,5.34-5.69,8.39-8.16,.23-.18,.28-1.2,.15-1.1h0Z"/><path class="cls-1" d="M1184.22,353.89c-1.41,0-2.79,.32-4.18,.57s-2.63,.48-3.93,.8c-2.86,.71-5.65,1.48-8.37,2.63-.66,.28-1.1,1.08-1.38,1.7-.08,.18-.62,1.5-.05,1.38,2.77-.55,5.43-1.42,8.15-2.16,1.38-.38,2.74-.81,4.11-1.19,1.52-.43,3.05-.79,4.53-1.35,.46-.17,1.79-2.4,1.11-2.39h0Z"/><path class="cls-1" d="M1176.37,347.08c-.5,.16-.94,.48-1.29,.85-.73,.77-1.28,1.7-1.7,2.67-.52,1.2-.85,2.57-.51,3.86,.19,.75,.82,1.43,1.56,1.65,.39,.12,.83,.14,1.24,.09,.47-.06,.88-.26,1.28-.5,.82-.48,1.43-1.31,1.91-2.11,.67-1.1,1.28-2.4,1.32-3.71l-.04-.31c-.04-.14-.12-.2-.24-.17-.26-.01-.53,.25-.69,.43-.25,.28-.47,.59-.67,.91-.33,.52-.65,1.17-.81,1.77-.01,.04-.03,.09-.04,.13-.06,.22,.24-.64,.16-.43-.13,.32,.25-.54,.22-.47-.13,.27,.38-.65,.24-.44-.13,.2,.43-.62,.29-.43-.16,.21,.28-.32,.25-.29-.05,.04-.09,.1-.14,.14l.35-.32c-.22,.19-.45,.36-.7,.5l.32-.17c-.48,.24-1.01,.39-1.55,.37h.25c-.6-.02-1.14-.27-1.52-.73l.15,.19c-.27-.35-.45-.74-.51-1.18l.04,.32c-.02-.19-.02-.37,0-.56l-.05,.42c.01-.09,.03-.17,.04-.26,.04-.23-.16,.51-.08,.29,.04-.1,.1-.28-.06,.15-.1,.25-.12,.31-.07,.19l.02-.04c.11-.28-.31,.63-.21,.44,.15-.28-.28,.47-.24,.41,.03-.04,.05-.08,.08-.12,.02-.04-.41,.56-.23,.33,.16-.21-.22,.25-.21,.24,.06-.06,.12-.12,.18-.18-.38,.38-.16,.14-.03,.05,.08-.05,.16-.1,.24-.14,.16-.12,.31-.26,.43-.42,.17-.19,.33-.39,.46-.61,.26-.41,.48-.84,.66-1.3,.12-.32,.28-.72,.26-1.07-.01-.19-.05-.53-.34-.44h0Z"/><path class="cls-1" d="M1176.23,351.24c.19-.1,.39-.2,.6-.28h-.19c.2,.19,.52,.26,.76,.41,.26,.16,.48,.37,.68,.6l-.14-.17c.38,.45,.63,.98,.73,1.56l-.06-.34v.08l1.77-4.11c-.25,.28-.5,.57-.76,.83-.29,.29,.11-.12,.12-.11,0,0-.22,.2-.24,.22-.13,.12-.27,.23-.41,.34-.29,.23-.61,.43-.9,.66-.17,.13-.35,.25-.52,.38-.31,.24-.57,.55-.83,.84-.62,.68-1.06,1.61-1.34,2.47-.11,.34-.2,.67-.23,1.03-.01,.19-.05,.59,.18,.7,.21,.09,.39,.15,.61,.04,.16-.08,.31-.16,.47-.25,.44-.25,.83-.55,1.21-.88,.87-.76,1.69-1.61,2.35-2.56,.43-.61,.78-1.28,1.04-1.98,.22-.59,.53-1.41,.32-2.05-.05-.14-.12-.28-.2-.4-.2-.31-.46-.6-.76-.82-.27-.2-.58-.35-.9-.45-.38-.11-.87-.21-1.23-.06h.19c-.12-.1-.23-.18-.36-.26-.26-.16-.64,.28-.79,.44-.49,.51-.82,1.19-1.09,1.83-.22,.52-.41,1.04-.45,1.61-.01,.19,0,.9,.39,.69h0Z"/><path class="cls-1" d="M1176.77,346.79c-.53-.47-1.16-.87-1.88-.61-.5,.18-.96,.57-1.31,.94-.7,.74-1.25,1.62-1.67,2.55-.55,1.2-.9,2.56-.48,3.85,.29,.91,.9,1.64,1.73,2.11,.94,.54,1.99,.74,3.06,.7,.32,0,.82-.68,.96-.87,.33-.45,.6-.94,.83-1.45,.21-.45,.42-.95,.49-1.44,.02-.17,.15-.92-.14-.93-1.58-.08-3.12-.76-4.12-2.01l.14,.18c-.26-.35-.46-.74-.52-1.18l.04,.3c0-.09-.02-.18-.01-.27,0-.34-.05,.22,0,0,.05-.29-.16,.55-.04,.14-.17,.41-.21,.52-.12,.32l-.17,.35c.16-.31-.37,.61-.11,.19-.24,.33-.3,.41-.18,.25,.1-.12,.06-.08-.1,.1,.07-.05,.17-.15,.22-.22-.18,.15-.21,.17-.09,.08,.03-.02,.06-.05,.09-.07,.17-.12,.33-.24,.51-.34,.09-.05,.19-.1,.28-.15,.09-.05,.1-.05,.02-.01,.04-.02,.08-.03,.12-.05,.19-.07,.38-.13,.59-.16s.34,.03,.52,.1c.16,.06,.36-.12,.45-.21,.23-.22,.44-.52,.59-.8s.31-.59,.38-.91c.03-.16,.09-.38-.05-.5h0Z"/><path class="cls-1" d="M1181.73,352.27l-.12-.32-.94,1.86c.28-.21,1.13-.18,1.48-.2,.87-.05,1.73-.06,2.59-.18,1.86-.24,3.71-.49,5.57-.73l1.65-4.64c-8.48,4.62-16.79,9.52-24.99,14.6-.88,.54-1.44,1.89-1.72,2.83-.15,.53-.38,1.7,.5,1.22,8.42-4.49,16.7-9.21,24.85-14.17,.87-.53,1.48-1.93,1.79-2.84,.11-.32,.66-1.96-.14-1.8-3.01,.6-6.37,.91-9.23,2.07-1.05,.43-1.8,1.33-2.26,2.35-.1,.23-.17,.47-.25,.7-.14,.38,.04-.42-.09,.18-.09,.4-.13,.7,.08,1.06s1.52-1.46,1.22-1.99h0Z"/><path class="cls-1" d="M1187.67,348.34c-6.96,.76-13.81,2.04-20.68,3.33s-14.2,2.7-21.21,4.54c-.86,.23-2.2,3.5-1.48,3.4,7.06-.94,13.98-2.43,20.93-3.91s14.38-3.1,21.46-5.13c.53-.15,1.47-2.29,.97-2.23h0Z"/><path class="cls-1" d="M1159.23,357.79c4.53-1.38,9.07-2.69,13.62-4s9.15-2.91,13.72-4.35c.25-.08,.54-1.06,.32-1.02-4.37,.88-8.78,1.61-13.13,2.61s-8.81,2.03-13.23,2.96c-.73,.15-1.23,1.55-1.44,2.15-.08,.23-.54,1.84,.13,1.64h0Z"/><path class="cls-1" d="M1193.5,346.55c.07,0,.14,0,.21,0,.03,0,.06,0,.09,0,.03,0,.07,.03,.1,.04l-.08-.18v.31c0,.11,.03,.2,.11,.27,.13,.02,.26,.06,.39,.09,.2,.05,.36-.13,.48-.26,.15-.17,.29-.35,.41-.55,.11-.17,.2-.35,.28-.54,.14-.31,.26-.62,.3-.96,.02-.1,.02-.21-.01-.31-.04-.1-.11-.14-.21-.11l-.3,.06c-.05,0-.1,.02-.15,.03-.11,.01-.19,.1-.27,.17-.04,.04-.08,.07-.12,.11-.12,.14-.23,.28-.33,.43l.36-.34c-.1,.03-.2,.07-.3,.08-.11,.01-.23,0-.35,.01-.06,.03-.11,.06-.14,.11-.06,.06-.12,.13-.16,.21-.1,.16-.18,.33-.25,.51-.06,.16-.12,.33-.13,.5v.15c0,.07,.02,.12,.07,.16h0Z"/><path class="cls-1" d="M810.4,392.95c12.49-.68,24.96-1.91,37.41-3.19,12.44-1.28,24.9-2.46,37.36-3.54,25.34-2.2,50.72-3.98,76.11-5.47,14.16-.83,28.33-1.54,42.5-2.13,1.53-.06-.13-9.08-2.7-9.08-1.56,0-3.12,0-4.68-.07-1.2-.05-2.41-.16-3.6-.02-3.26,.41-6.62,.31-9.9,.47-6.82,.34-13.64,.85-20.45,1.41-13.39,1.11-26.76,2.49-40.14,3.7-27.11,2.44-54.24,4.55-81.42,6.16-15.4,.91-30.81,1.59-46.2,2.72l-4.33,8.38c1.68-.32,3.33-.91,4.97-1.38s2.71-2.41,3.41-3.76c.29-.57,1.6-3.19,.23-3.22s-2.86-.17-4.27-.02c-.69,.07-1.53,1-1.93,1.44-.82,.9-1.58,2.02-2.12,3.11-.32,.65-1.92,3.84-.29,3.84,13.77-.04,27.51-.7,41.26-1.43,13.66-.73,27.31-1.57,40.95-2.53,13.81-.97,27.61-2.03,41.4-3.26s27.12-2.62,40.69-3.84c7.69-.69,15.39-1.3,23.1-1.74,3.95-.23,7.93-.51,11.89-.55,2.6-.03,5.18,0,7.78-.14,2.12-.11,4.22-.19,6.34-.19l-2.7-9.08c-24.54,1.12-49.06,2.62-73.54,4.61s-49.76,4.45-74.58,7.26c-14.01,1.59-28.04,3.38-41.88,6.08-1.43,.28-1.84,5.53-.67,5.47h0Z"/><path class="cls-1" d="M812.7,391.06c-1.1-1.2-2.26-2.34-3.31-3.57l-1.29,6.1c1.96,.44,4.14,.38,6.15,.53s3.95,.31,5.92,.49c4.03,.37,8.05,.81,12.06,1.29s7.87,.97,11.8,1.54c1.96,.29,3.92,.59,5.88,.91,1.05,.17,2.12,.42,3.19,.45,1.22,.03,2.1-.18,3.28-.46,.86-.21,1.04-1.73,1.14-2.43s.41-2.78-.34-3.24c-.95-.59-1.73-1.13-2.8-1.48-.96-.32-1.89-.46-2.89-.6-2.02-.29-4.05-.57-6.07-.82-3.97-.5-7.95-.96-11.94-1.32s-8-.61-12-.82c-1.96-.1-3.93-.19-5.89-.26-2.09-.07-4.34-.33-6.41-.05-1.5,.21-2.41,6.13-1.05,6.26,.75,.07,1.14,.16,1.8,.56s1.13,.85,1.61,1.42c.55,.65,1.13-1.24,1.2-1.5,.19-.71,.59-2.36-.01-3.02h0Z"/><path class="cls-1" d="M865.82,394.86c-1.59,.11-3.09,.19-4.68,.02-.95-.1-1.53-.51-2.26-1.12-.28-.24-.44-.63-.7-.84-.34-.27-.82-.2-1.24-.23l-1.4,6.36c4.49-.53,9-.81,13.49-1.29s8.84-1.26,13.26-1.83c8.97-1.16,17.96-2.17,26.93-3.27,17.99-2.19,36.06-3.84,54.14-4.93,5.08-.31,10.17-.57,15.25-.78,2.44-.1,4.89-.16,7.33-.3,2.13-.13,4.25-.44,6.38-.52l3.27-12.47c-17.31,2.7-34.62,5.37-51.94,8.04-17.36,2.67-34.72,5.36-52.09,8.04-4.81,.74-9.63,1.48-14.44,2.23-2.44,.38-4.89,.76-7.33,1.14s-5.18,1.02-7.76,1.12l-4.7,11.76c1.22-.34,2.65-.58,3.72-1.27,.84-.54,1.67-1.09,2.51-1.65,1.91-1.27,2.65-4.46,2.95-6.58,.12-.83,.69-5.13-1.17-4.45-.61,.22-1.24,.42-1.83,.68-1.17,.52-2.13,1.79-3.02,2.63-1.79,1.68-3.2,4.59-3.83,6.95-.16,.59-1.05,4.34,.68,3.7,.95-.35,2.06-.38,3.06-.52,1.16-.17,2.31-.34,3.47-.51,2.15-.31,4.31-.63,6.46-.94,4.38-.64,8.77-1.28,13.15-1.93,8.85-1.3,17.71-2.59,26.56-3.89,17.63-2.58,35.26-5.17,52.9-7.76,9.98-1.47,19.96-2.91,29.94-4.35,.75-.11,1.76-2.08,1.99-2.55,.62-1.26,1.08-2.58,1.44-3.93,.18-.68,1.39-6.04-.16-6-5.15,.13-10.28,.04-15.43,.32-4.46,.24-8.91,.52-13.36,.84-8.99,.64-17.96,1.43-26.92,2.37-18.08,1.9-36.1,4.49-53.91,8.14-5,1.02-9.98,2.09-14.96,3.21s-9.98,2.85-14.94,4.27c-1.38,.4-2.26,6.4-1.1,6.31,.96-.08,1.25-.09,2.01-.67,1.01-.77,1.92-1.36,3.19-1.5,1.6-.17,3.12-.07,4.72,.05,.58,.04,.72-2.09,.36-2.07h0Z"/><path class="cls-1" d="M836.41,380.19c-1.66-.16-3.15-.8-4.46-1.83l-1.5,5.55c20.72-1.38,41.4-3.6,62.08-5.51,20.96-1.93,41.9-4.01,62.84-6.06,12.02-1.17,24.04-2.31,36.05-3.56,1.1-.11,.64-3.35,.57-3.86-.2-1.52-.54-3.36-1.68-4.47-1.88-1.82-4.24-2.44-6.81-2.29-3.3,.2-6.6,.68-9.89,1.04-7.37,.8-14.75,1.56-22.12,2.36-14.96,1.6-29.93,3.12-44.87,4.87-8.36,.98-16.73,1.96-25.08,3l-3.11,7.04c18.19-3.08,36.57-5.23,54.88-7.4,18.44-2.19,36.92-4.16,55.41-5.88,9.51-.88,19.03-1.79,28.55-2.54,.27-.02,.58,0,.84-.07,.24-.05,4.27-3.27,4.3-3.57,.03-.22,.21-.21,.08-.45-.17-.31-.44-.41-.75-.54-.78-.33-1.68-.42-2.53-.47l-.52-.03c-1.16,.37-1.48-.08-.95-1.33,.09-1.56,.4-1.39-.56-1.3-2.15,.2-4.3,.39-6.46,.57-4.44,.37-8.88,.76-13.32,1.21-18.19,1.86-36.36,3.83-54.5,6.14-18.2,2.32-36.37,4.89-54.5,7.68-2.28,.35-4.58,.61-6.87,.92-.54,.07-1.21,.93-1.49,1.27-.63,.79-1.16,1.72-1.57,2.64-.23,.52-1.37,3.25-.06,3.13,29.92-2.68,59.81-5.75,89.72-8.55,4.21-.39,8.44-.81,12.66-1.13,3.28-.25,7.71-.6,10.27,1.89l-1.11-8.33c-20.33,2.09-40.63,4.4-60.95,6.62-20.7,2.26-41.39,4.64-62.08,6.96-11.75,1.32-23.49,2.63-35.2,4.26-1.48,.21-2.49,4.87-1.28,5.7,1.45,.99,3.11,1.33,4.86,1.2,1.25-.09,2.16-4.81,1.1-4.91h0Z"/><path class="cls-1" d="M1015.26,369.28c.84,0,1.42,.05,1.92,.79,.38,.56,.72,1.25,1.01,1.86l1.59-3.95c-1.29,.36-2.63,.47-3.93,.84s-2.58,.75-3.87,1.11c-2.75,.77-5.51,1.51-8.26,2.25-5.45,1.46-10.91,2.8-16.47,3.74l-2.28,6.84c13.49-3.17,26.96-6.47,40.44-9.67l2.65-7.81c-12.79,4.41-25.66,8.71-38.03,14.24-.78,.35-1.39,1.34-1.8,2.01-.7,1.17-1.28,2.58-1.62,3.89-.14,.54-1.11,5.02,.57,4.29,5.75-2.52,11.65-3.92,17.82-4.97s12.45-1.79,18.39-3.76c1.66-.55,2.7-3.63,3.17-5.04,.35-1.03,1.49-4.11,.19-4.87-.44-.26-.91-.43-1.39-.61-1.19-.47-2.57,2.61-2.86,3.25-.42,.91-.78,1.86-1,2.85-.14,.66-.41,1.71-.04,2.33s.71,1.22,1.12,1.8l3.7-9.58c-6.04,1.57-12.15,2.56-18.29,3.62s-12.35,2.23-17.97,4.8l-2.85,10.19c12.63-5.8,25.18-11.78,38.23-16.62,1.51-.56,2.45-3.07,2.9-4.46,.16-.5,1.13-3.71-.25-3.35-13.6,3.57-27.22,7.04-40.82,10.64-1.31,.35-2.16,2.78-2.53,3.9-.14,.43-.96,3.27,.25,2.94,5.61-1.56,11.24-3.02,16.82-4.67,2.75-.81,5.48-1.69,8.2-2.63,1.33-.46,2.65-.92,3.97-1.39,1.58-.56,3.01-1.39,4.56-2,.86-.34,2.18-3.11,1.59-3.95-.47-.67-.81-1-1.65-1.11s-1.46-.45-2.25-.61c-.84-.17-1.35,2.89-.95,2.89h0Z"/><path class="cls-1" d="M1021.93,358.95l-.11,.02-.29,1.32,.07-.18-1.58,2.27c.31-.15,1.71,.23,2.05,.27,.64,.07,1.28,.13,1.91,.2,1.37,.13,2.75,.19,4.12,.25,2.78,.12,5.57,.11,8.35,.05s5.59-.15,8.38-.37c3-.23,5.95-.82,8.89-1.47,.87-.19,2.22-3.88,1.66-3.89-3.34-.08-6.65-.09-9.99,.07-3.54,.17-7.08,.35-10.63,.4s-7,.1-10.5,.18c-.78,.02-1.99-.18-2.68,.2-.64,.36-1.1,1.18-1.4,1.82-.43,.9-1.01,2.33-.04,3.08,.56,.44,1.66-1.9,1.74-2.1,.05-.13,.87-2.38,.05-2.12h0Z"/><path class="cls-1" d="M535.98,439.52c-.67-.12-1.32-.16-1.99-.2-1.62-.09-1.01-.11-2.84,1.51l1.51-.42c-1.13,.11-2.22,.33-3.34,.5-.43,.07-1.47,.35-1.15,.97s1.85,.64,2.4,.63c3.17-.04,6.08-.84,9.01-2s5.83-2.34,8.74-3.51l-3.8,.17c4.15,1.09,3.34,1.51,5.85,.57,.5-.19,1.01-.38,1.51-.57,1.16-.44,2.32-.87,3.44-1.38,2.14-.99,4.24-2.02,6.29-3.18,1.16-.65,.33-5.56-.91-5.22-2.2,.6-4.33,1.33-6.48,2.12-1.01,.37-1.97,.82-2.95,1.26-.5,.23-1.01,.46-1.51,.69-2.07,.94-1.99,1.26-4.46,3.54l.82-.48-8.51,3.65c-2.45,1.05-5.02,2.37-7.71,2.66l3.07,1.05c.16-.17,.36-.28,.59-.33h-2.59c3.24,1.15,1.86,.94,3.78,.89,.59-.01,1.2,.11,1.77,.23,.46,.09,.44-2.98-.55-3.15h0Z"/><path class="cls-1" d="M547.64,439.41c-.03,1.31,.01,1.5,.12,.55,0-.16,.02-.32,.04-.48,.05-.85,.06-1.75-.23-2.57-.34-.94-1.11-1.22-1.96-1.57-1.39-.57-2.89-.97-4.37-1.19s-2.95-.31-4.43-.29c-.74,.01-1.47,.06-2.21,.13s-1.45,.04-2.18,.21l-.08,7.78c2.43-.68,4.64-1.85,6.53-3.53,.49-.44,.71-1.2,.85-1.81,.22-.96,.28-2.07,.18-3.05-.08-.81-.33-3.37-1.65-2.79-3,1.33-5.54,3.65-7.13,6.53-.67,1.22-.8,2.7-.76,4.06,.02,.96,.07,2.76,.95,3.42,.26,.2,.49,.44,.74,.65,.33,.27-.1-.35,.16,.11,.04,.06,.29,.54,.13,.21s.11,.23,.07,.25c0,0-.16-1.02-.16-1.11,0-.4,.03-.8,.11-1.19-.12,.56,.18-.45-.05,.15-.52,1.34-.54,3.02-.2,4.41,.15,.6,.86,2.11,1.5,.9,1.17-2.23,1.35-4.9,.95-7.35-.28-1.72-.95-3.75-2.34-4.88l.18,7.48c1.53-2.61,3.66-4.62,6.46-5.98l-.62-7.64c-1.66,1.56-3.65,2.75-5.84,3.39s-1.58,8.13-.08,7.78c.66-.16,1.26-.44,1.92-.57s1.29-.23,1.94-.31c1.2-.15,2.41-.22,3.62-.21s2.4,.1,3.6,.22c.64,.07,1.27,.17,1.9,.25,.27,.03,.54,.06,.8,.1,.45,.06,.63,.07,1.04-.15l-.89-.68c-.1-.35,.07,.28,.13,.46s.14,.36,.25,.52l-.25-.72-.04-.47c0,.34,.1,2.34,.88,1.92,.24-.13,.37-.71,.41-.92,.14-.66,.12-1.35,0-2.01h0Z"/><path class="cls-1" d="M533.84,447.65l-1.5,.3,1.5-.3c.62,.01,.66,.31,.17-.02-.09-.06-.2-.1-.29-.17-.34-.25-.54-.63-.62-1.03l-4.68,.93c2.72,.43,5.56,.42,8.32,.54,2.58,.11,5.16,.22,7.74,.33l-2.61-.38c-.64-.48-.75-.55-.32-.21,.28,.27,.62,.45,1,.55,.85,.28,1.74,.4,2.62,.48l-2.18-2.88c-3.75,1.63-7.14,3.52-10.18,6.29-2.57,2.34-4.8,5.08-6.87,7.87-4.3,5.8-7.78,12.15-11.78,18.15-2.1,3.16-4.41,6.17-6.56,9.28s-3.93,6.06-6.01,9.01-4.18,6.08-6.75,8.57c-.73,.71-1.49,1.36-2.19,2.12s-1.38,1.51-2.08,2.26c-1.42,1.53-2.71,3.13-4.18,4.62-3.04,3.1-6.18,5.98-9.52,8.77s-6.89,5.69-10.65,7.89c-1.61,.94,.35,5.99,1.55,5.03,2.73-2.18,5.68-4.08,8.46-6.19s5.41-4.1,8.05-6.23c1.32-1.07,2.73-2.01,4.06-3.06,1.26-.99,2.6-1.88,3.85-2.87s2.5-2.09,3.69-3.19c.6-.55,1.2-1.11,1.8-1.67,1.01-.95,1.62-1.76,2.21-3.05l-.75,1.19c5.06-5.19,10.28-10.24,15.31-15.47,3.73-3.88,7.02-7.96,10.07-12.38,5.5-7.97,9.98-16.66,15.88-24.34,1.61-2.1,3.39-4.03,5.24-5.92,1.59-1.62,3.26-3.3,5.07-4.58,2.6-1.85-3.33-2.61-4.26-2.59-1.46,.03-2.95,.08-4.31,.68-.73,.3-.49,.27,.72-.08,1.19-.18,1.47-.26,.85-.26-.31-.06-.68-.02-1-.03-1.5-.04-3-.09-4.5-.13-3-.09-6.08-.32-9.07-.09-.3,.02-2.99,.49-2.17,1.33,1.96,2.02,5.39,3.1,8.09,1.98,1.4-.58-.7-1.03-1.23-1.05h0Z"/><path class="cls-1" d="M359.64,364.26c9.72,8.51,20.51,15.75,32.05,21.57,12.37,6.23,25.58,10.39,38.55,15.16,12.6,4.63,25.09,9.57,37.68,14.22,12.5,4.61,25.08,9.13,37.98,12.48,7.11,1.85,14.33,3.38,21.6,4.42,3.59,.51,7.18,.89,10.8,1.12,1.86,.12,3.72,.21,5.59,.26,.99,.03,1.7,.19,2.64,.43s1.83,.15,2.8,.04c.86-.1,1.24-1.48,1.38-2.1,.3-1.39,.21-3.1-.05-4.47-.32-1.67-1.13-5.73-3.46-5.74-.97,0-1.95-.1-2.88,.16s-1.66,.54-2.61,.58c-1.66,.07-3.33,.1-4.99,.1-3.11,0-6.23-.09-9.34-.28-6.44-.4-12.85-1.2-19.2-2.37-12.79-2.34-25.39-5.82-37.73-9.93s-24.67-8.74-37.09-12.84c-12.74-4.2-25.72-7.77-38.06-13.09-13.01-5.6-25.13-13.13-36-22.2-.49-.41-.51,.43-.47,.71,.07,.6,.35,1.35,.82,1.76h0Z"/><path class="cls-1" d="M533.97,431.1c-2.58,.83-5.78,.48-8.38-.19-1.25-.32-1.75,5.31-.09,5.86,3.18,1.05,5.9,3.45,7.58,6.32,.41,.7,.51,1.19,.93,1.96,.04,.12,.09,.23,.13,.35l.23,.02c.09,.16,.09,.55,.13,.73,.11,.63,0-.45,0-.03,0,.2,.03,.41,.04,.61,0,.09,.03,.78,.02,.33s0,.25-.01,.34c-.02,.42-.06,.84-.08,1.26-.05,.89-.15,1.67-.36,2.7-.19,.91,0,2.02,.35,2.88,.12,.28,.78,1.5,1.21,.9,1.41-1.97,1.68-4.22,1.64-6.59-.02-1.27-.2-2.54-.46-3.79-.42-2.06-.78-3.95-1.71-5.83-1.95-3.92-5.21-6.99-9.54-8.01l-.09,5.86c1.38,.22,2.75,.49,4.14,.62s2.78,.13,4.17,.42c.43,.09,.81-.73,.91-.96,.29-.7,.42-1.61,.42-2.36,0-.4-.14-3.72-1.16-3.39h0Z"/><path class="cls-1" d="M546.39,440.48c-.43,.31-.71,.2-.83-.31-.32-2.17-.48-2.82-.47-1.95-.02,.34,0,.69-.02,1.04-.01,.3-.02,.59-.04,.89,0-.02-.06,.86-.03,.46-.11,1.28-.28,2.56-.49,3.83-.46,2.77-1.3,5.45-1.99,8.17-.31,1.24,0,2.91,.6,4.02,.39,.74,1.07,1.53,1.68,.52,.98-1.62,1.51-3.47,1.97-5.3,.5-2.04,.83-4.1,1-6.19s.3-4.13,.03-6.12c-.19-1.35-1.27-5.64-3.46-4.24-.37,.24-.36,1.11-.36,1.5,0,.9,.2,1.8,.53,2.63,.25,.62,1.29,2.48,1.9,1.05h0Z"/><path class="cls-1" d="M599.7,427.98l.11,.14-.39-.83,.03,.13,.27-3.65-.04,.1,.84-1.3s-.14,.17-.17,.11c-.06,0-.12,0-.18,0-.27-.06-.21,.11,.18,.52l.07,2.27,.04-.28-.62,2.21c-.16,.35,.23-.05,.44-.13,.27-.1,.55-.15,.83-.23,.88-.23,1.75-.48,2.62-.72,1.75-.48,3.5-.95,5.24-1.43,3.42-.94,6.84-1.91,10.26-2.87,6.92-1.93,13.84-3.86,20.77-5.77,13.75-3.79,27.46-7.71,41.21-11.5,27.94-7.71,56.01-14.95,83.95-22.66,7.74-2.14,15.48-4.26,23.22-6.38,3.88-1.06,7.77-2.12,11.62-3.3,1.91-.59,3.88-1.08,5.75-1.78,2.02-.75,3.96-1.7,5.93-2.58,1.2-.54-.86-4.92-2.13-4.8-2.02,.19-4.04,.36-6.05,.62s-3.86,.78-5.77,1.2c-3.65,.8-7.29,1.71-10.92,2.63-7.44,1.9-14.87,3.81-22.29,5.75-14.67,3.81-29.25,7.93-43.82,12.08-29.88,8.52-59.82,16.86-89.57,25.82-8.31,2.51-16.64,4.98-24.92,7.59-1.86,.59-4.09,.98-5.81,1.91-2,1.08-2.55,3.83-2.34,5.93,.12,1.24,.86,2.65,2.23,1.76,1.54-1,2.03-4.96,.7-6.22-.84-.8-1.51,1.46-1.61,1.91-.26,1.13-.45,2.76,.32,3.75h0Z"/><path class="cls-1" d="M766.34,383.57c6.9-.78,13.82-1.17,20.73-1.79s13.67-1.24,20.49-1.9c13.74-1.32,27.48-2.79,41.19-4.48,7.82-.96,15.64-1.96,23.45-2.99,1.39-.18,1.81-4.71,1.16-4.63-27.61,3.41-55.25,6.61-82.91,9.56-7.74,.83-15.45,1.84-23.22,2.37-1.01,.07-1.93,3.98-.89,3.86h0Z"/><path class="cls-5" d="M840.34,218.8c-4.74,2.87-4.47,9.74-2.21,14.13,.21,.42,.57,1.19,1.14,1.21s.72-.56,.79-1.01c.73-4.82,1.18-9.68,1.75-14.52,.14-1.22-.24-3-1.03-3.96-.21-.25-.48-.6-.86-.54-.45,.08-.64,.71-.7,1.07-1.01,5.43-.65,11.11,1.06,16.37,.22,.67,.56,1.86,1.32,2.16s.97-.56,1.13-1.07c.54-1.75,1.18-3.62,1.85-5.54s1.4-3.86,2.15-5.78l-2.64-5.14c-.35,2.09-.77,4.17-1.31,6.22-.26,1-.54,1.99-.85,2.98,0-.02-.23,.73-.13,.41-.08,.26-.17,.51-.25,.76-.17,.51-.35,1.02-.53,1.52l2.78,5.44c.09-.34,.19-.67,.29-1,.05-.17,.1-.33,.15-.5-.1,.32,.04-.12,.08-.24,.11-.33,.22-.66,.34-.98,.37-1.03,.54-1.92,.73-3.05l-.88,1.78c2.36-2.57,2.8-2.34,3.59-4.25,.1-.24,.2-.49,.31-.73,.24-.57,.5-1.13,.76-1.68l-5.64,.92c.16,.04,.33,.09,.49,.13,.33,.09,.21,.03-.05-.02,.36,.08,.73,.24,1.08,.38,.67,.26,1.33,.55,1.97,.87l-.99-.68,3.33,3.44,.37-7.55c-1.12,.07-2.27,.17-3.35-.03-.96-.17-1.91-.49-2.8-.91-.44-.21-.88-.44-1.29-.71-.17-.1-.38-.22-.52-.35,.27,.25-.17-.25-.21-.3-.54-.67-1.07-1.38-1.55-2.09l-.83,7.12c4.88,1,9.38,3.36,13.23,6.51,.42,.34,.89-.05,1.13-.37,.42-.57,.61-1.53,.68-2.21,.14-1.44,.15-3.48-1.01-4.56-3.87-3.63-8.79-5.93-13.95-7.03-.42-.09-.78,.53-.92,.81-.32,.6-.49,1.31-.56,1.98-.14,1.36-.17,3.16,.65,4.33,.29,.41,.6,.8,.93,1.18,.85,.95,2.01,1.5,3.06,2.21,.75,.51,1.57,.94,2.42,1.26,.92,.35,1.88,.57,2.86,.71,.49,.07,.97,.1,1.46,.12,2.12,.1,2.61-1.64,4.52-3.46,.67-.64-.63-1.31-.99-1.49-1.68-.86-3.46-1.48-5.28-1.95-1.1-.29-2.3-.27-3.41-.08-.64,.11-1.9,.3-2.22,.99-.26,.56-.51,1.12-.76,1.68-.1,.24-.21,.49-.31,.73-.85,2.09-.11,1.6,1.07,5.36l-.24-3.68c-.26,.85-.5,1.71-.73,2.57-.39,1.52,.02,3.46,.72,4.83,.34,.67,1.58,2.07,2.06,.61,1.46-4.38,2.59-8.85,3.31-13.41,.24-1.53,.03-3.17-.68-4.56-.35-.68-1.45-1.92-1.96-.58-1.59,4.17-2.99,8.39-4.23,12.67l2.45,1.08c-.17-.5-.33-.99-.47-1.5-.07-.25-.13-.51-.2-.76-.18-.69,.1,.61-.03-.16-.09-.47-.18-.95-.25-1.42-.02-.13-.04-.26-.05-.39,.04,.39,.05,.46,.03,.21-.02-.26-.05-.52-.07-.79-.04-.48-.05-.97-.07-1.45,.03,.66,0-.21,0-.28,0-.26,.01-.53,.03-.79,.03-.53,.06-1.06,.13-1.58-.04,.34,.03-.13,.04-.25,.05-.31,.1-.61,.16-.91l-2.52-4.09c-.57,4.72-1.24,9.44-1.67,14.17l1.62-.35c.08,.13-.14-.31-.18-.37-.08-.18-.05-.11,.09,.21-.03-.09-.06-.18-.09-.27-.07-.21-.04-.12,.07,.27-.03-.13-.06-.25-.09-.38l.06,.35c-.02-.13-.04-.26-.05-.39-.08-.64-.01,.51,0-.14,0-.2,0-.4,.01-.6-.02,.42,.03-.17,.04-.25,.03-.24,.07-.47,.12-.71,.31-1.5,1.23-3.09,2.34-4.26,.61-.64-.33-4.13-1.12-3.65h0Z"/><path class="cls-5" d="M838.81,217.17c-1.09,3.7-1.1,7.79-.58,11.58s1.63,7.39,3.72,10.6c.51,.79,1.06-.05,1.25-.59,.31-.9,.43-2.28,0-3.17-1.3-2.73-2.33-5.63-2.87-8.61-.49-2.7-.36-5.29-.03-8.12,.08-.71,.16-2-.42-2.55s-.93,.39-1.06,.85h0Z"/><path class="cls-5" d="M845.34,225.09c3.02-.17,6.05,.21,8.93,1.14,.25,.08,.52-.45,.57-.57,.18-.41,.26-.96,.27-1.4,0-.64,0-1.77-.74-2.01-2.87-.97-5.9-1.41-8.93-1.29-.75,.03-.87,1.54-.87,2.05,0,.49,.01,1.02,.2,1.47,.09,.22,.26,.64,.56,.62h0Z"/><path class="cls-3" d="M838.76,218.25c-.42,1.62-.5,3.38-.57,5.05s-.05,3.39,.08,5.07c.27,3.49,.94,6.92,1.99,10.26,.09,.29,.36,.81,.74,.83s.68-.47,.81-.75c.53-1.11,.57-2.65,.19-3.82-.8-2.43-1.36-4.95-1.61-7.5-.11-1.19-.19-2.6-.19-3.67,0-1.41,.21-2.81,.22-4.21,0-.56,.06-1.93-.57-2.28s-.98,.57-1.09,1.02h0Z"/><path class="cls-3" d="M841.57,222.39c2.1,.21,4.12,1.02,6.08,1.77s3.89,1.58,5.79,2.48l-.61-2.16v.14l.17-1.58c.02-.12,.46-1.37,.63-1.36-.06,0-.19,.1-.26,.12,.11-.03-.08,0-.1,.01-.12,0-.25,0-.37-.03-.43-.09-.78-.42-1.13-.66-1.05-.7-2.1-.9-3.29-.43-2.64,1.06-3.5,4.41-4.05,6.9-.23,1.04-.41,2.52,.15,3.51,.47,.83,1.18,.36,1.55-.3,.53-.92,1.03-1.85,1.54-2.78,.63-1.14,.81-2.64,.58-3.91-.12-.68-.69-1.89-1.47-.96-1.81,2.16-3.46,4.41-4.82,6.88-.55,1-.77,2.27-.59,3.4,.08,.54,.6,1.73,1.26,.87,1.52-1.99,3.05-3.98,4.73-5.83l-.89-4.87c-.53,.9-1.06,1.79-1.58,2.7l1.71,3.21c.07-.31,.13-.62,.21-.93,.03-.14,.07-.27,.1-.41,.09-.39-.17,.47-.03,.1,.06-.16,.12-.33,.18-.49-.07,.21-.13,.25,0,.02,.07-.12,.13-.25,.21-.36-.16,.25,.07-.08,.11-.13,.58-.67,1.66-1.16,2.64-.76s1.62,1.32,2.73,1.19c2.08-.25,2.57-2.88,2.56-4.58,0-.49-.03-1.89-.61-2.16-2.01-.92-4.04-1.78-6.11-2.55s-4.15-1.29-6.08-2.23c-1.25-.6-1.71,1.68-1.83,2.47s-.14,1.57,.02,2.36c.09,.46,.27,1.28,.87,1.34h0Z"/><path class="cls-3" d="M841.6,215.34c-.07-.13-.17-.21-.3-.27-.15-.13-.31-.15-.48-.06-1.44,.93-1.85,2.92-2.02,4.51-.22,2.07,.12,4.22,.26,6.29,.29,4.09,.58,8.17,1.03,12.24,.08,.73,.59,2.14,1.46,1.22s.98-2.66,.9-3.87c-.22-3.46-.53-6.9-.88-10.35-.17-1.63-.33-3.27-.5-4.9l-.08-.75c-.02-.27-.03-.32-.02-.16,.01,.19,.18-.73-.03-.22-.06,.15-.12,.51-.12,.51,.11,.07,.66-.98,.72-1.09,.44-.8,.7-2.32,.06-3.09h0Z"/><path class="cls-3" d="M1041.93,414.96c3.68,4.09,8.35,8.89,14.16,9.44,2.26,.22,4.64-.06,6.68-1.12,.93-.49,2.02-1.17,2.64-2.04,.8-1.13,1.17-2.71,1.21-4.08,.02-.81-.14-1.61-.51-2.33-.13-.25-.72-1.32-1.17-1.04-1.59,.95-2.8,2.43-4.47,3.27-1.79,.89-3.9,1.32-5.89,1.11-4.91-.5-8.78-3.78-12.52-6.69-.64-.5-.9,.29-.92,.82-.03,.85,.22,2.01,.81,2.66h0Z"/><path class="cls-3" d="M1069.71,408.74c.42-.44,.84-.87,1.26-1.31l-2.16-4.75c-.55,2.27-1.43,4.44-2.66,6.43-.64,1.03-1.38,2-2.18,2.91-.37,.41-.77,.96-1.35,1.07-.65,.12-1.32-.34-1.87-.61-2.42-1.2-4.91-2.03-7.58-2.48-1.31-.22-2.63-.39-3.96-.46-.66-.04-1.33-.05-1.99-.05-2.28-.02-1.94,.77-4.46,3.2l3.25-.94c-.61,.03-1.22,.07-1.82,.11-1.57,.12-4.14,1.43-1.68,2.61,3.84,1.84,8.15,2.22,12.35,1.84l-3.76-.41,4.48,2.3,.42,.13c.38,0,.86-.17,1.24-.25,.67-.15,1.33-.33,1.98-.54,1.27-.4,2.5-.95,3.68-1.56,2.43-1.24,4.7-2.71,6.9-4.32l-2.26-7.44c-2.05,3.09-5.16,5.11-8.67,6.21-1.95,.61-3.95,.88-5.97,1.11-1.08,.12-2.16,.2-3.24,.24-.6,.02-1.21,0-1.81,.04-2.01,.14-1.3,.53-4.03,2.98l3.18-.81c-.78,0-1.55-.02-2.33-.03v2.87c9.01,.07,17.75-1.42,25.83-5.59l-3.78,.41c3.81,.28,3.76,1.11,5.68-.39,.47-.37,.91-.75,1.36-1.15,.9-.81,.57-2.82,.34-3.8-.11-.48-.9-3.13-1.83-2.64s-1.94,1.03-2.92,1.55c-.45,.24-.9,.48-1.32,.75-1.5,.96-2.37,2.71-3.97,3.52-2.09,1.05-4.26,1.97-6.5,2.67-1.86,.58-3.99,1.1-5.77,1.38-1.19,.19-2.39,.32-3.59,.4-.47,.03-2.11,.1-2.59,.07-1.12-.07-3.73-.25-4.36,1s1.75,1.72,2.47,1.77c.78,.06,1.56,.12,2.35,.18l-2.23-.65c3.19,2.69,2.38,2.88,5.2,2.94,.66,.01,1.31,.06,1.96,.08,1.12,.03,2.24,.04,3.35,0,2.17-.1,4.36-.5,6.42-1.18,3.58-1.19,6.93-3.3,9.03-6.48,.96-1.45,.71-3.46,.22-5.05-.27-.87-1.2-3.32-2.48-2.39-2,1.45-4.04,2.89-6.22,4.06-1.02,.55-2.08,1-3.15,1.44-.49,.2-.98,.4-1.48,.57-2.23,.75-1.63,.75-4.53,3.43l1.39-.57c-.73,.14-1.85,.18-2.52,.12-.94-.09-2.1-.49-3.15-1.02l-1.68,2.61h-.04l-3.33-.6,3.47,2.73c.25,.11,.51,.15,.77,.1,.48,.02,.97-.04,1.46-.03,.68,.01,1.36,.06,2.03,.12,1.43,.13,2.84,.38,4.23,.71,1.46,.35,2.9,.81,4.32,1.3,1.3,.45,2.6,1.24,3.96,1.46,2.62,.42,4.35-3.42,5.36-5.31,1.45-2.72,2.34-5.71,2.81-8.75,.17-1.07-.21-2.41-.72-3.34-.19-.35-1.06-1.66-1.54-.93-.41,.62-.82,1.24-1.22,1.86-.69,1.05,.81,5.71,1.94,4.54h0Z"/><path class="cls-3" d="M1075.91,401.59c.11-.41,.35-.77,.47-1.17,.17-.58,.09-1.2,.08-1.8,0-.46-.04-1.92-.65-2.15-2.63-1-3.22,3.37-3.51,5.05-.49,2.87-1.06,5.73-1.84,8.54-.61,2.2-1.24,4.53-2.44,6.5s-2.77,3.31-4.82,4.27c-1.34,.62-1.65,5.49,.03,5.83,5.04,1.02,7.49-6.16,8.61-9.79,.95-3.08,1.69-6.21,2.26-9.37,.28-1.58,.45-3.15,.65-4.73,.04-.32,.03-.32,.15-.7,.23-.68,.5-1.15,1.25-1.39l-1.1-3.41c-.12,.63-.26,1.16-.56,1.71-.39,.71-.03,2.02,.32,2.65,.37,.66,.86,.81,1.08-.03h0Z"/><path class="cls-3" d="M1035.59,414.25c6.43,3.2,12.75,6.64,19.1,10.01,1.24,.66,1.79-3.8,.61-4.44-6.33-3.44-12.69-6.8-18.93-10.4-1.29-.74-2.11,4.16-.78,4.82h0Z"/><path class="cls-3" d="M307.84,318.45c-1.48-.97-2.74-2.28-4.3-3.1s-1.35,1.02-.82,1.94c3.72,6.48,7.49,12.93,11.28,19.37l2.46-1.55c-3.81-6.4-7.71-12.74-11.6-19.09l-2.05,2.35c4.05,4.83,7.08,10.5,9.98,16.04,.58,1.1,1.42,2.55,2.69,3.01,1.02,.36,1.47-.54,1.31-1.45-1.33-7.91-4.64-15.13-9.37-21.57l.12,4.91c2.31,.91,4.61,1.91,6.76,3.15,1.1,.63,2.17,1.31,3.21,2.02,1.14,.78,1.93,1.36,2.8,2.15l-.12-5.79c-4.62-2.93-9.43-5.63-14.17-8.36l1.51,7.05c4.75,2.58,9.46,5.43,13.81,8.68l-1.5-7.05c-2.39-1.27-4.67,.59-5.42,2.87-.48,1.45-.42,2.91-.21,4.41,.17,1.23,.57,2.42,.25,3.51l5.3,5.99c.52-3.52-.55-7.01-2.3-10.04-.42-.73-3.07-4.18-4.14-2.28-1.42,2.52-1.87,5.27-1.69,8.14l5.13,3.61c-.05-.56-.05,.05-.03-.47,.01-.35,.04-.69,.09-1.03,.07-.51,.19-.98,.37-1.45,.41-1.09,1-2.14,1.8-2.99s1.77-1.55,2.8-2.05c.47-.22,.97-.43,1.47-.55,.3-.07,.59-.1,.9-.09,.63,.02,.31,.22-.32-.41l-1.11-1.43,.1,.17-.74-1.65-.09-.31c.03,1.43,1.2,3.16,2.27,4.02,.67,.54,2.09,1.19,2.19-.26,.19-2.79-2.16-6.27-5.06-6.61-1.69-.2-3.72,.73-5.06,1.68-3.23,2.27-4.84,5.93-4.71,9.81,.06,1.68,1.38,3.6,2.61,4.64,.69,.58,2.54,1.4,2.52-.3-.03-2.15,.51-4.13,1.61-5.98l-4.14-2.28c-.67-1.19,.27,1-.03-.07,.07,.22,.13,.44,.18,.67-.06-.27-.07-.28-.03-.04,.1,.81,.08,1.27-.07,2.16-.28,1.72,1.02,3.8,2.09,5.01,.45,.5,2.73,2.55,3.21,.98,.43-1.38,.52-2.67,.39-4.12-.05-.59-.15-1.18-.23-1.76-.07-.47-.16-1.25-.15-1.47,.03-.69,.32-1.43,.9-2.04,.24-.25,.61-.49,.95-.61,.16-.06,0-.04,.27-.05,.44-.01-.16-.12,.3,.09,1.57,.72,1.78-1.2,1.56-2.24-.38-1.78-1.52-3.78-3.06-4.81-4.96-3.33-9.95-6.56-15.18-9.45-1.56-.86-1.75,1.31-1.56,2.24,.36,1.7,1.51,3.91,3.06,4.82,4.89,2.86,9.79,5.79,14.81,8.41,1.49,.78,1.68-1.23,1.48-2.14-.38-1.75-1.47-3.54-2.94-4.59-4.54-3.26-9.27-6.18-14.6-7.95-.96-.32-1.44,.27-1.43,1.22,0,1.31,.76,2.69,1.55,3.69,.25,.32,.5,.65,.75,.98,.11,.14,.21,.28,.31,.42-.22-.33-.21-.3,.04,.07,.39,.59,.77,1.19,1.13,1.8,.24,.41,.47,.82,.7,1.23,.39,.69-.18-.38,.21,.4,.34,.69,.68,1.38,.99,2.09,1.07,2.43,1.95,5.23,2.47,8.12l4,1.55c-3.55-6.65-7.12-13.36-11.99-19.17-.48-.57-1.91-2.11-2.72-1.21s.18,2.77,.66,3.56c3.89,6.36,7.76,12.72,11.72,19.03,.47,.75,1.88,2.64,2.98,2s-.13-2.93-.52-3.55c-3.85-6.19-7.72-12.36-11.64-18.51l-.07,2.68c.64,.28,1.08,.36,1.76,.37,.65,0,1.23,.2,1.84,.37,.38,.11,.35-.29,.29-.53-.11-.42-.46-.8-.81-1.03h0Z"/><path class="cls-3" d="M321.07,325.35c-.17-1.96-1.72-4.57-4.03-4.14-1.91,.36-2.26,3.14-2.46,4.73-.3,2.35-.27,4.7,.03,7.05,.32,2.52,1.14,4.89,2.24,7.18,.25,.52,.92,1.73,1.67,1.58s.43-1.4,.28-1.86c-.85-2.64-1.32-5.68-1.26-8.52,.03-1.45,.17-2.98,.52-4.39,.13-.51,.4-1.16,.8-1.51,.14-.12,.37-.21,.55-.23,.11,0,.22,0,.33,.03-.71-.33-1.06-1-1.07-2.01,.08,.96,.5,2.01,1.25,2.65,.58,.49,1.23,.31,1.16-.55h0Z"/><path class="cls-3" d="M316.24,326.32c-.39,3.11-.25,6.26,.44,9.32,.18,.79,.67,1.85,1.45,2.2s.81-.63,.72-1.13c-.03-.18-.06-.36-.09-.54,0-.06-.07-.47-.05-.33,.02,.1,.01,.07-.01-.1-.01-.1-.02-.2-.04-.31-.02-.15-.03-.31-.05-.46-.06-.64-.09-1.29-.09-1.93,0-1.19,.11-2.37,.35-3.69,.18-.98-.43-2.21-1.07-2.92-.25-.27-.59-.64-.99-.66-.32-.02-.53,.23-.57,.54h0Z"/><path class="cls-3" d="M322.28,340.89c-1.62-.69-3.38-.71-4.97-1.43-.76-.34-.69,.61-.6,1.07,.61,2.89,2.24,5.39,4.1,7.63,1.73,2.09,3.88,3.96,5.21,6.35s1.89,5.19,2.67,7.8c.99,3.28,2.22,6.49,4.29,9.25,.49,.66,2.11,2.48,2.74,.96,.59-1.41-.78-3.47-1.6-4.46-.56-.67-1.04-1.59-1.43-2.48-.54-1.26-.97-2.56-1.4-3.86-.91-2.76-1.82-5.53-3.27-8.06-1.38-2.39-3.2-4.39-5.14-6.34-1.66-1.68-3.54-3.39-4.15-5.75v.96c.87-1.26,2.68-.74,3.89-.32,.57,.2,0-1.15-.35-1.3h0Z"/><path class="cls-3" d="M337.73,373.83c3.97,.1,7.98,.32,11.93,.74,1.92,.2,3.84,.42,5.75,.71,.95,.14,1.92,.26,2.85,.47,.25,.06,.48,.14,.73,.22-.13-.11-.06-.07,.19,.12-.99-.77-1.55-1.87-1.67-3.32-.45,1.15,.3,2.61,.94,3.53,.46,.67,1.62,2.19,2.61,1.67,1.06-.56,1-1.88,.7-2.89-.52-1.77-1.7-3.47-3.2-4.56-2-1.46-4.69-1.55-7.07-1.85-5.29-.67-10.58-.74-15.88-.19-1.98,.21,.45,5.32,2.11,5.36h0Z"/><path class="cls-3" d="M360.39,374.44c-1.83,.58-3.25,2.27-4.36,3.79s-1.9,3.2-2.12,5.03c-.23,1.97,.2,4.03,1.06,5.81,.59,1.22,1.32,2.36,2.32,3.28,.65,.59,1.54,1.21,2.46,1.12,1.43-.14-.27-2.85-.71-3.26-.28-.26-.54-.53-.81-.8,.15,.15,.18,.22,.03,.01-.1-.13-.2-.27-.31-.39-.25-.28,.38,.64,.07,.08-.02-.04-.16-.33-.2-.33,.15,.02,.27,.71,.07,.11-.12-.37,.13,.53,.05,.15-.04-.16-.09-.32-.14-.48,.09,.32,.04,.24,0-.04-.04-.31-.07-.61-.11-.92v-.21c-.01,.17-.01,.18,0,.03,0-.14,0-.28,.02-.42,.02-.34,.07-.69,.13-1.02,.64-3.26,3.49-5.33,4.62-8.32,.26-.7-.16-1.57-.53-2.15-.31-.47-.88-1.27-1.54-1.06h0Z"/><path class="cls-3" d="M358.82,389.47c-1.12-.82-2.18-1.63-3.2-2.57-.48-.44-1.44-1.2-1.96-.41s.27,2.25,.64,2.93c.99,1.81,2.74,2.9,4.3,4.17,1.45,1.17,2.89,2.35,4.38,3.48,2.74,2.09,5.61,4.05,8.52,5.9,5.75,3.66,11.69,6.99,17.6,10.4,2.91,1.69,5.74,3.54,8.7,5.15,3.24,1.76,6.48,3.51,9.77,5.16,6.11,3.06,12.28,5.97,18.43,8.94,3.07,1.48,6.17,2.91,9.25,4.36,.67,.32,1.34,.63,2.01,.95s1.34,.64,2.01,.96c-.85-.41,.47,.22,.52,.25,1.54,.74,3.07,1.47,4.59,2.24,2.97,1.5,5.97,2.94,8.93,4.49,1.38,.72,2.76,1.43,4.12,2.18,.72,.39,1.43,.79,2.14,1.21,.23,.14,.47,.28,.7,.43,.24,.15,1.83,1.07,.53,.32,.68,.4,1.32,.98,1.91,1.49,.2,.17,.39,.38,.6,.54-1.29-.98-.33-.3-.02,.04l.27,.3c.46,.55,.35,.41-.31-.43,.04,.24,.45,.64,.59,.85,.7,1.08-.26,.06-.13-.24-.13,.29,.77,1.15,.73,1.51l-.28-.7c.1,.26,.2,.53,.29,.79,.09,.27,.18,.53,.26,.8,.13,.41,.23,.82,.35,1.22,.41,1.36-.18-1.14,.07,.28,.3,1.72,.59,3.44,.81,5.18s.38,3.54,.48,5.32c.05,.81,.08,1.62,.11,2.43,.02,.49,.03,.97,.04,1.46-.01-.78,0,.77,0,.94-.02,3.66-.28,7.3-.54,10.95-.6,8.34-1.05,16.69-1.88,25.01s-.69,17.03,2.17,25.12c.39,1.11,1.74,2.27,2.91,2.42,1.02,.13,1.81-.6,1.45-1.7-2.15-6.67-2.08-13.55-1.05-20.42,.49-3.32,1.21-6.46,2.19-9.66,1.04-3.36,2.08-6.69,2.93-10.11,1.8-7.2,1.68-14.96,1.04-22.31-.67-7.76-2-15.73-6.54-22.27s-11.08-10.15-17.88-13.63c-6.77-3.47-13.63-6.77-20.49-10.06-6.11-2.93-12.27-5.76-18.42-8.6s-12.02-5.78-18.16-8.36c-6.89-2.9-13.43-6.32-19.89-10.09-3.24-1.89-6.48-3.82-9.67-5.8s-6.31-3.75-9.3-5.87c-.34-.24-.97-.57-1.41-.3l-.14,.09,3.03,5.06c.79-.36,1.43-.41,2.29-.46,.6-.04-.22-1.21-.4-1.34h0Z"/><path class="cls-3" d="M467.55,532.16c.31-1.54,.64-3.07,1.06-4.58,.21-.74,.42-1.48,.64-2.22,.2-.67,.42-2.56,1.48-2.2l-2.19-3.74c-.59,3.03-.65,6.18-.91,9.26-.14,1.72,.89,3.5,2.03,4.7,.61,.64,2.51,2.17,3.19,.76,.59-1.22,1.18-2.56,2.37-3.28,.52-.32,.67-.37,1.39-.28-.27-.04-.27-.03,.02,.04-.36-.21-.4-.22-.1-.05-.59-.42-1.06-.95-1.42-1.6-.61-2.42-.9-3.12-.87-2.1l5.53,1.84c-2.33-5.33-6.27-9.92-11.01-13.27l1.41,8.01c2.79,1.2,5.6,2.26,8.54,3.04,1.34,.36,2.15-.32,2.21-1.74,.07-1.75-.79-3.81-1.91-5.12-1.19-1.39-2.42-2.76-3.73-4.04-1.02-.99-2.13-1.87-3.16-2.85l-.41,7.79c2.78,1.88,5.92,2.97,9.23,3.46,2.75,.41,6.33,.7,8.48-1.34,1.51-1.43,.84-3.72,.08-5.41-.84-1.85-2.32-4.08-4.51-4.38-.74-.1-1.48-.17-2.22-.16-.63,0-1.23,.16-1.86,.25-1.27,.17-2.56,.22-3.85,.15-.61-.03-1.22-.1-1.82-.19-.27-.04-.55-.09-.82-.14-.81-.13,.32,.1-.4-.08-1.25-.31-2.47-.74-3.68-1.19-2.02-.75-2.54,1.35-2.3,2.9,.34,2.21,1.71,4.92,3.68,6.13,.53,.33,1.24,.75,1.64,1.24-.35-.44-.34-.29,.05,.05,.26,.23,.52,.46,.78,.7,.99,.9,1.93,1.85,2.84,2.83l-.53-7.79c-2.9-.6-5.77-1.4-8.51-2.52-1.81-.74-2.22,1.35-1.99,2.63,.36,2.08,1.65,4.18,3.4,5.38,.39,.27,.77,.56,1.16,.84s-.53-.46,.05,.05c.16,.14,.32,.28,.48,.42,.4,.35,.78,.72,1.16,1.1,.14,.14,.28,.35,.44,.46-.39-.26-.48-.53-.05-.03,.31,.36,.61,.74,.9,1.12,.13,.16,.24,.36,.38,.51-.32-.33-.51-.75-.1-.12,.55,.85,1.08,1.71,1.57,2.59,.62,1.12,2,2.73,3.37,2.85,1.24,.12,1.74-.93,1.59-2.09-.45-3.55-3.43-8.09-7.5-7.8-2.75,.2-4.12,2.89-5.04,5.14l5.22,4.71c-.38-3.57-.62-7.17-1.24-10.7-.2-1.15-.93-2.89-2.2-3.28-1.37-.42-1.05,1.44-.75,2.18,.18,.44,.39,.85,.61,1.26l-.19-.72c-.68,3.15-1.95,6.2-2.98,9.26-.22,.66,1.13,2.19,1.29,1.36h0Z"/><path class="cls-3" d="M493.18,511.58c-.61-.4-1.18-.78-1.92-.58-.49,.13-.95,.42-1.33,.73-.8,.63-1.66,1.21-2.43,1.89-1.65,1.45-3.33,2.86-5.08,4.19-3.47,2.63-7.1,5.01-10.87,7.19-1.17,.67-.31,2.88,.17,3.72,.45,.79,1.79,2.85,3,2.21,4.2-2.23,8.18-4.9,11.85-7.93,1.81-1.5,3.74-3.04,5.26-4.84,.78-.93,1.66-1.82,2.12-2.96,.43-1.04,.28-2.92-.76-3.6h0Z"/><path class="cls-3" d="M624.1,326.62c1.85-1.65,.13-4.71-1.39-5.87-.23-.18-.58-.18-.77,.07-1.62,2.16-2.05,5.17-2.07,7.81-.03,3.34,.69,6.62,1.93,9.71,.37,.91,.95,2.3,1.96,2.66,.85,.3,1.31-.41,1.33-1.24,.05-2.28-.02-4.56,.05-6.85,.03-1.04,.08-2.07,.14-3.11,.03-.49,.06-.98,.1-1.47,.02-.19,.03-.39,.06-.58,.02-.15,.02-.15,0-.01-.04,.18-.02,.14,.05-.11-.13,.11,.32-.26,.21-.21,.13-.06,.7-.17,.42-.16,.57-.02,1.18,.2,1.72,.36,1.37,.39,2.6,.63,3.8-.29,.44-.34,.46-1.55,.44-1.99-.05-.83-.24-1.63-.53-2.41-.43-1.14-1.16-2.72-2.55-2.71-.62,0-1.08,.05-1.64,.31-.5,.23-.98,.5-1.45,.8-1.11,.71-2.15,1.53-2.99,2.55-1.69,2.05-2.73,4.63-3.08,7.25-.22,1.69,.21,3.75,1.11,5.21,.5,.82,1.58,2.3,2.63,1.37,2.92-2.58,5.72-5.29,8.48-8.04l-3.47-7.5c-1.88,4.59-3.79,9.17-5.64,13.77l4.33,6.32c.05-.33,.11-.67,.18-1,.03-.17,.08-.33,.11-.49-.05,.25-.12,.42-.02,.07,.19-.65,.4-1.29,.65-1.91s.54-1.24,.86-1.83c.08-.15,.16-.3,.25-.44-.14,.24-.03,.06,.05-.07,.21-.32,.41-.64,.64-.95,.79-1.1,1.67-2.16,2.65-3.11,1.03-1,2.22-1.78,3.22-2.8,.45-.46,.51-1.49,.47-2.06-.05-.86-.24-1.69-.54-2.49-.38-1.02-1.26-3.05-2.65-2.81-1.5,.26-2.78,1.28-3.94,2.24s-2.1,1.97-2.92,3.17c-1.85,2.69-3.08,5.73-3.54,8.97-.28,1.98,.35,4.25,1.47,5.88,.67,.98,2.19,2.17,2.86,.44,1.81-4.64,3.55-9.3,5.33-13.95,.67-1.75,.16-3.95-.6-5.58-.38-.82-1.73-3.13-2.87-1.92-2.73,2.87-5.61,5.58-8.57,8.2l3.74,6.58c.04-.28,.08-.56,.14-.84,.16-.77-.12,.28,.08-.29,.16-.46,.31-.92,.51-1.36,.43-.97,1.03-1.81,1.71-2.62s1.46-1.56,2.33-2.17c.3-.21,.75-.47,1.14-.67,.61-.31,1.1-.71,1.64-1.11l-3.04-6.85c.21-.17-.1,.05-.2,.08-.11,.03-.21,.05-.32,.08-.41,.08,.22,.05-.23,0-.15-.01-.3-.04-.45-.07-.66-.12-1.29-.34-1.95-.45-1.75-.29-3.18,.41-3.64,2.23-.55,2.15-.45,4.56-.5,6.77-.06,2.5-.11,5.02,.11,7.51l2.9-.17c-.13-.25-.26-.49-.38-.74,.37,.73-.07-.18-.13-.35-.03-.09-.3-.93-.19-.53s-.11-.46-.14-.55c-.03-.1-.22-1.03-.13-.51-.05-.28-.09-.57-.13-.86-.06-.51-.11-1.04-.12-1.38-.04-2.45,.51-4.81,1.05-7.19l-.33,.46c.07,0,.15,0,.22,.02,.25,.07-.63-.09-.33-.55-.04,.06,0,.36-.02,.46-.06,.21-.2,.39-.34,.55-.28,.33,.34,1.7,.74,1.33h0Z"/><path class="cls-3" d="M627.44,324.25l-.06,.12-.1,1.4s.58,.04,.62,.04c.3-.02,.59-.1,.88-.15,.59-.1,1.19-.16,1.78-.24,1.19-.16,2.38-.26,3.58-.25,2.43,.02,4.86,.46,7.16,1.22s4.34,1.68,6.29,2.96,3.69,2.86,5.45,4.45c.66,.6,1.11-.18,1.21-.76,.17-1-.16-2.29-.69-3.14-3.36-5.44-9.29-8.87-15.6-9.62-2.88-.34-5.94-.28-8.74,.52-1.26,.36-3.17,.85-3.23,2.41-.04,1.28,.46,2.82,1.6,3.47,.62,.36,.35-2.07-.16-2.43h0Z"/><path class="cls-3" d="M631.76,331.95c3.77,.4,7.57,1.04,11.36,.66,.62-.06,.43-1.44,.37-1.77-.1-.53-.4-1.72-1.06-1.85-1.9-.4-3.76-.6-5.7-.61s-3.71-.03-5.57-.04c-.62,0-.46,1.47-.41,1.75,.08,.47,.38,1.8,1.01,1.87h0Z"/><path class="cls-3" d="M629.04,331.81c.6,.92,1.2,1.84,1.81,2.76,.29,.44,.58,.88,.89,1.31s.71,.76,1.12,1.09c.33,.27,.62,.06,.72-.31,.14-.54,.04-1.21-.17-1.72-.28-.68-.54-1.39-.92-2.02-.35-.57-.71-1.12-1.07-1.68-.61-.92-1.22-1.83-1.83-2.75-.15-.21-.49-.53-.79-.46s-.44,.52-.48,.78c-.15,1.04,.19,2.12,.75,2.99h0Z"/><path class="cls-3" d="M624.02,328.24c-.37,3.02-.55,6.05-.58,9.09-.01,1.43,.01,2.85,.09,4.27,.08,1.59,.1,3.27,.42,4.83,.2,.98,.57,2.62,1.6,3.09s1.18-.83,1.19-1.55c0-.61-.14-1.12-.21-1.72,.08,.64,.05-.14,.04-.36,0-.75-.27-1.65-.75-2.23-.33-.4-.8-.58-1.06-.02l-.29,.61,.39-.43c-.45,.18-.62,.34-.81,.81l2.7,3.35c.03-1.33-.17-2.68-.22-4.01s-.05-2.7-.02-4.05c.06-2.5,.33-5.11,.72-7.66,.23-1.49-.3-3.38-1.26-4.54-.28-.34-.74-.81-1.24-.67s-.66,.79-.72,1.21h0Z"/><path class="cls-3" d="M624.62,330.61c-.2-.83-.76-2.24-1.83-2.14-.87,.08-1.4,.84-1.66,1.59-.86,2.45-1.1,5.11-.95,7.69,.32,5.57,2.01,10.81,4.21,15.9,.2,.47,.77,1.64,1.45,1.26s.38-1.81,.22-2.33c-1.04-3.48-2.27-7-2.91-10.58-.31-1.72-.45-3.44-.37-5.19,.04-.92,.15-1.83,.33-2.73,.06-.31,.1-.76,.26-1.05,.12-.22,.49-.36,.37-.47l-.92-1.63,.05,.19c.15,.51,.66,1.99,1.44,1.78s.43-1.8,.32-2.27h0Z"/><path class="cls-3" d="M632.06,331.02c9.24,.05,18.6,3.13,25.72,9.11,.83,.7,1.16-.57,1.17-1.18,0-1.08-.36-2.36-1.16-3.11-7.12-6.72-16.94-10.21-26.69-8.68-1.15,.18-.24,3.86,.97,3.87h0Z"/><path class="cls-3" d="M844.6,214.94c-1.52,.72-2.34,1.63-2.86,3.26-.64,2.01-.95,4.19-1.16,6.28-.47,4.79-.16,9.7,1.2,14.33,.19,.64,.71,2.49,1.69,2.28s.51-2.29,.41-2.81c-.64-3.29-.96-6.69-.71-10.04,.09-1.21,.44-8.52,2.73-7.99,1.22,.28,.8-2.11,.68-2.62-.11-.45-.98-3.17-1.97-2.69h0Z"/><path class="cls-3" d="M840.16,217.69c-.79-.94-2.14-1.32-3.13-.37-1.13,1.08-1.01,3.05-.9,4.47,.3,4.16,.72,8.32,1.17,12.47,.92,8.45,2.04,16.93,3.86,25.24,.1,.46,.39,1.64,1.02,1.66s.63-1.08,.58-1.48c-.87-7.07-1.99-14.11-2.9-21.18-.46-3.53-.89-7.06-1.28-10.6-.2-1.81-.38-3.62-.57-5.44-.07-.65-.2-1.35,.23-1.92,.37-.49,1.22-.96,1.77-.49,.44,.38,.63-.21,.67-.55,.06-.57-.13-1.38-.51-1.83h0Z"/><path class="cls-3" d="M838.35,232.26c.9,2.38,1.3,5.09,1.74,7.58,.48,2.7,.86,5.43,1.14,8.16s.43,5.23,.47,7.85c.04,2.8-.32,5.76,.09,8.53,.1,.7,.27,1.6,.81,2.11,.33,.31,.81,.52,1.03-.06,.48-1.24,.44-2.63,.5-3.94,.07-1.5,.06-2.99,.02-4.48-.08-2.98-.26-5.96-.59-8.93s-.82-6.08-1.44-9.08-1.57-5.8-2.16-8.74c-.11-.55-.7-2.21-1.53-1.85s-.26,2.35-.07,2.85h0Z"/><path class="cls-3" d="M841.78,226.22c.43-.93,1.61-1.05,2.52-.96,1.29,.12,2.47,.72,3.62,1.25,2.75,1.26,5.22,2.96,7.47,4.97,.7,.63,1.03-.4,1.07-.97,.06-.87-.13-2.21-.82-2.85-2.46-2.28-5.41-4.18-8.53-5.42-2.16-.86-5.54-1.57-6.78,1.05-.35,.73-.06,1.83,.28,2.51,.22,.44,.82,1.16,1.16,.41h0Z"/><path class="cls-3" d="M842.91,219.11l.14,.9-.59,.6c2.89,1.19,5.72,2.4,8.31,4.17,2.42,1.65,4.63,3.72,6.73,5.76,.57,.55,.9-.2,.97-.7,.12-.83-.03-1.94-.52-2.64-1.97-2.81-4.37-4.96-7.31-6.72-2.59-1.55-5.52-2.89-8.53-3.28-.7-.09-.63,.96-.61,1.4,.07,1.29,.61,2.41,1.54,3.3,.57,.54,.71-.56,.7-.89-.02-.6-.23-1.57-.83-1.88h0Z"/><path class="cls-3" d="M849.68,225.58c.4-.11,.91,.53,1.12,.85,.12,.18,.25,.61,.36,.99l.27-2.85c-.75,.22-1.41,.43-2.21,.51-.86,.08-1.73,0-2.58-.14-1.04-.16-2.24-.69-2.87,.49-.57,1.07-.49,2.62-.5,3.8-.02,1.74,.09,3.47,.37,5.18,.1,.61,.38,1.63,.96,1.96,.54,.31,.81-.15,.93-.66,.61-2.42,.39-4.99-.3-7.37-.25-.85-1.38-2.43-1.77-.73-.22,.98-.32,1.9-.4,2.91l.46-1.6c-.84,.98-1.92,1.87-2.25,3.14-.08,.29-.14,.58-.21,.86l5.58-.31c-1.36-1.44-3.86-5.33-6.45-3.34-1.75,1.34-1.69,4.2-1.73,6.17-.05,2.66-.58,5.92,.98,8.26,.56,.84,1.66,1.49,2.27,.34,.77-1.45,.38-3.92-.55-5.19-.37-.51-1.25-1.17-1.6-.2-.6,1.68-.32,3.36,.8,4.76l-1.06-3.67v.05l.26-1.14c-.07,.19-.13,.38-.19,.56-.31,1.09,.06,.98,1.11-.33l.58,1.32c.07,.21,.15,1.61,.14,.66,0-.29,0-.58,0-.87v-1.57c0-1.11-.1-1.62,.06-2.63,.13-.81,1.51-1.71,2.23-.94l-.85-1.64,.11,.29c.11,.83,.68,2.87,1.77,1.69,1.53-1.66,2.22-1.57,2.25-3.14,.04-1.67-.79-1.91-2.07-3.78l.68,2.98c.02-.37,.04-.75,.06-1.12l-1.84-.24c.28,.97,.21,1.88,0,2.86l1.89,1.31c-.22-1.1-.43-2.19-.52-3.3-.04-.53-.08-1.05-.09-1.58,0-.45-.11-1.18,.15-1.57,.54-.8,2.51-.37,3.27-.22,1.35,.25,2.54,.79,3.77,1.38,.62,.3,.76-.87,.78-1.18,.07-1.57-.42-3.14-1.2-4.49-.68-1.17-1.69-1.82-2.56-2.79-1.17-1.3-1.37,1.58-1.32,2.03,.08,.77,.68,3.59,1.89,3.25h0Z"/><path class="cls-3" d="M847.25,221.12c-.18-.12-.35-.26-.5-.42,.04,.25,.03,.2-.03-.15l-.63,2c8.57,1.33,14.63,8.2,20.23,14.22,.74,.8,1.15-.53,1.19-1.09,.08-1.12-.22-2.31-.92-3.19-5.19-6.58-11.92-13.94-21.02-13.67-.83,.02-.39,2.22-.28,2.52,.38,1.05,1.01,1.92,2.01,2.45,.48,.25,.54-.76,.54-.96,0-.51-.14-1.39-.59-1.72h0Z"/><path class="cls-3" d="M745.98,415.7c3.09,2.49,6.89,4.13,10.34,6.07,3.24,1.82,6.38,3.81,9.46,5.88,6.28,4.22,12.24,8.89,18.58,13.03,3.49,2.28,7.2,4.58,11.45,4.98,.62,.06,.85-.34,1.06-.85,.41-.99,.81-1.98,1.2-2.98,.57-1.48-.6-3.75-1.5-4.87-.78-.96-2.01-1.77-2.62-.29-.39,.93-.76,1.87-1.12,2.81l1.06-.85c-3.64-.2-6.75-1.94-9.8-3.8s-6.07-3.83-9.11-5.73c-6.08-3.8-12.14-7.69-18.57-10.88-1.77-.88-3.6-1.64-5.45-2.34-1.65-.62-3.38-1.23-5.15-.85-.23,.05,.09,.6,.17,.67h0Z"/><path class="cls-3" d="M795.81,440.54c.29-.75,.09-1.61-.22-2.32l.13,.68c-.03-.95-.53-1.82-1.17-2.49-.36-.37-.9-.51-1.08,.09-.22,.7,.1,1.61,.43,2.21,.35,.64,.73,1.3,1.33,1.73,.38,.27,.8,.47,1.23,.66,.75,.33,1.54,.57,2.36,.63,1.61,.12,3.28-.48,4.56-1.41,2.89-2.11,4.88-5.68,5.45-9.17,.21-1.29-.16-2.58-.84-3.68-.35-.58-1.34-1.89-2.07-1.06-1.13,1.27-1.49,2.56-2.26,3.94s-1.64,2.67-2.84,3.66c-.92,.77-2.35,1.39-3.62,1.72-.57,.15-1.12,.31-1.7,.29-.34-.01-.65-.09-.98-.15-.44-.07-.64,.04-.93,.37l1.79,3.37c.1-.14,.18-.22,.32-.34l-.69-.42c.01-.36-.02-.44-.09-.25-.05,.07-.11,.13-.18,.18-.35,.3,.08,1.25,.24,1.5,.17,.27,.62,.77,.83,.24h0Z"/><path class="cls-3" d="M787.2,432.07c-.16,.02-.3,0-.43-.1l.75,.56,.41,.74,.52,2.13c-.23,.56-.15,.71,.22,.44,.23-.07,.47-.12,.71-.15,.41-.05,.83-.02,1.23,0,.95,.06,1.9,.19,2.83,.36,1.92,.35,3.79,.99,5.5,1.94,1.28,.71,1.73-.46,1.75-1.61,.03-1.55-.53-3.72-1.68-4.83-2.06-1.98-5.12-2.89-7.65-1.12-1.26,.88-.82,2.99-.38,4.23,.33,.94,1.36,3.6,2.81,3.19,4.77-1.37,10.01-3.91,13.25-7.77l-3.08-6.39c-1.97,3.05-3.11,6.76-2.12,10.36l.12-1.86c-.55,.71-1.63,1.04-2.44,1.41-.76,.35-1.44,.78-2.1,1.3l2.14,4.3c1.34-1.48,2.46-3.14,3.77-4.67s2.57-2.84,3.91-4.21c2.86-2.93,6.02-5.56,9.34-7.96,6.75-4.87,14.1-8.84,21.19-13.18,1.7-1.04-.64-6.79-2.3-5.97-7.6,3.71-14.91,7.96-21.67,13.09-3.33,2.53-6.51,5.27-9.38,8.33s-5.59,6.69-7.14,10.59c-.36,.9,.18,2.29,.63,3.05,.22,.37,1.16,1.7,1.66,.93,.81-1.25,2.27-3.21,3.98-2.54,.35,.14,.58-.26,.68-.5,.4-.97,.54-2.12,.9-3.13,.41-1.15,1.06-2.07,1.92-2.94,1.33-1.34-1.2-7.72-2.72-6.65-2.02,1.42-3.89,3-6.06,4.21s-4.49,2.13-6.89,2.79l2.42,7.42c1.63-1.12,3.62-1.15,5.15,.15l-.94-7.18c-3.08-1.4-6.63-1.99-9.97-1.32-3.95,.8-2.81,7.06,.19,8.39,1.16,.51,1-2.03,.92-2.5-.14-.79-.82-3.27-1.96-3.32h0Z"/><path class="cls-3" d="M775.29,426.99c1.48,.33,2.93,1.18,4.28,1.85,1.48,.73,2.96,1.46,4.45,2.19,2.88,1.41,5.71,2.87,8.7,4.03,.85,.33,.86-1.3,.84-1.7-.06-.87-.36-2.4-1.17-2.92-2.79-1.78-5.68-3.32-8.59-4.89-1.4-.75-2.8-1.51-4.2-2.26s-3.02-1.47-4.28-2.49-1.68,.95-1.68,1.91c0,.87,.14,1.71,.44,2.53,.19,.53,.57,1.6,1.22,1.75h0Z"/><path class="cls-3" d="M819.22,425.22c.92-.5,1.88-.96,2.72-1.59s1.64-1.23,2.46-1.84c.14-.1,.14-.5,.13-.63-.02-.27-.08-.52-.17-.77-.11-.29-.38-.96-.8-.88l-2.86,.6c-.94,.2-1.85,.61-2.75,.95-.31,.12-.4,.52-.44,.8-.06,.49,.04,1.09,.19,1.55s.36,1.01,.71,1.4c.16,.18,.52,.58,.81,.42h0Z"/></g><g><path class="cls-4" d="M531.67,449.68c7.18-4.76,15.96-5.7,24.34-6.52,9.71-.96,19.39-2.14,29.03-3.61,19.43-2.96,38.59-7.2,57.74-11.59,19-4.36,38.05-8.7,57.39-11.27,9.69-1.29,19.42-1.96,29.18-2.46,9.94-.51,19.86-1.07,29.71-2.54,9.17-1.37,18.2-3.66,26.91-6.86,2.22-.81,4.4-1.7,6.62-2.5,1.85-.67,3.96-1.23,5.63-2.3,1.88-1.21,2.07-3.7,1.72-5.73-.11-.66-.34-1.93-1.16-2.06-.5-.08-1.1,.34-1.43,.67-.96,.94-1.2,2.75-.65,3.95,.03,.06,.23,.55,.41,.48l.11,.05c.43,.35,.86-2.35,.2-2.89l-.16-.13,.32,.68,.05,.48-.26,1.5c.03-.06,.72,.26,.95,.26,.1,0,.1,.13,.17,.14-.65-.08,.58-3.47-.3-2.87-.42,.28-.75,.73-1.19,1.02-1.83,1.2-3.87,2.19-5.82,3.17-4.05,2.04-8.47,3.53-12.77,4.93-8.52,2.78-17.28,4.7-26.18,5.72-9.37,1.07-18.8,1.41-28.21,1.94-9.21,.52-18.37,1.38-27.5,2.7-18.21,2.64-36.17,6.76-54.09,10.88s-36.25,8.22-54.62,11.13c-9.36,1.48-18.76,2.66-28.18,3.73-7.87,.89-15.82,1.65-23.06,5.12-1.81,.87-3.51,1.91-5.11,3.13-.36,.27-.16,1.9,.2,1.67h0Z"/><path class="cls-4" d="M736.13,416c1.07,.64,1.9,.91,3.12,1.16s2.31,.49,3.46,.77c2.37,.57,4.71,1.24,7.03,2,4.58,1.51,9.07,3.31,13.38,5.47s8.4,4.62,12.3,7.41,7.22,6,10.93,8.91c3.23,2.55,7.55,5.31,11.8,3.66,3.99-1.54,5.93-6.2,8.27-9.46,5.15-7.18,11.73-13.31,19.16-18.07,4.16-2.67,8.6-4.92,13.22-6.67s9.67-2.94,14.45-4.56c.3-.1,.3-1.3-.03-1.31-4.38-.19-8.57,.85-12.69,2.28s-8.07,3.22-11.85,5.35c-7.56,4.27-14.33,9.91-19.88,16.58-1.41,1.7-2.75,3.46-3.99,5.29s-2.33,3.94-3.83,5.65c-3.4,3.87-8.11,3.14-12.1,.63s-7.22-6-10.94-8.82-7.73-5.4-11.88-7.63c-4.54-2.44-9.3-4.56-14.2-6.16-2.56-.84-5.16-1.56-7.78-2.17-1.28-.3-2.57-.56-3.86-.8-.68-.13-1.36-.26-2.04-.35-.76-.1-1.3,.06-2.04,.28-.14,.04-.13,.5-.01,.57h0Z"/><path class="cls-4" d="M847.61,406.69c9.58-1.3,19.12-2.93,28.7-4.27,9.58-1.34,19.19-2.56,28.8-3.66,19.32-2.2,38.69-3.88,58.1-5.06,5.41-.33,10.81-.62,16.22-.87,2.7-.13,5.41-.24,8.12-.35,1.29-.05,2.66,.02,3.94-.16,1.47-.21,2.95-.59,4.41-.87,.44-.08,.4-1.79-.05-1.84-1.15-.13-2.31-.25-3.46-.4-1.32-.17-2.61-.07-3.94-.01-2.38,.11-4.75,.23-7.13,.35-4.84,.25-9.67,.53-14.5,.86-9.66,.64-19.32,1.41-28.96,2.31-19.37,1.8-38.7,4.11-57.95,6.93-10.8,1.58-21.65,3.14-32.34,5.36-.42,.09-.31,1.73,.04,1.68h0Z"/><path class="cls-4" d="M1001.91,383.28l-1.93,.19c-.32,.03-.64,.15-.95,.23l-.47,.12c-.16,.04-.34,.06-.46,.17-.07,.07-.09,.41,.01,.46,.15,.07,.3,0,.46-.02l.44-.07c.32-.05,.67-.08,.98-.18l1.92-.64c.06-.02,.05-.27,0-.26h0Z"/><path class="cls-4" d="M994.3,383.12c-1.02,0-1.88-.08-2.88-.33-.33-.08-.47,1.81,.04,1.78,8.93-.45,17.93,2.5,24.87,8.13,3.84,3.12,6.72,7.11,9.77,10.95s6.17,7.18,9.67,10.37,7.26,6.08,11.23,8.65,8.23,5.3,12.97,5.5c4.11,.17,7.85-2.06,10.4-5.15,2.83-3.42,4.16-7.72,4.88-12.04,.96-5.77,1.22-11.7,1.53-17.54s.78-12.17,.31-18.17c-.09-1.11-.71-1.04-.79,.02-.39,5.2-.2,10.47-.42,15.69-.22,5.16-.5,10.33-1.02,15.47-.49,4.8-1.46,9.76-4.42,13.7-2.43,3.25-6.15,5.65-10.31,5.58-4.8-.08-9.23-2.96-13.15-5.47s-7.5-5.26-10.91-8.32-6.61-6.44-9.49-10.04-5.56-7.35-9.05-10.38c-7.15-6.23-16.67-9.37-26.12-8.73l.12,1.75c.89-.51,1.78-.87,2.76-1.16,.06-.02,.06-.26,0-.26h0Z"/><path class="cls-4" d="M993.67,383.62c1.42,.19,2.84,.44,4.28,.4,1.57-.04,3.16-.18,4.72-.31,2.99-.26,5.96-.73,8.91-1.27s5.89-1.18,8.79-1.92c2.42-.62,5.15-1.12,7.34-2.39s2.64-4,4.68-5.45c2.23-1.58,5.4-2.08,8.04-2.53,5.82-.99,11.78-.84,17.63-.19,3.28,.36,6.54,.88,9.8,1.46,1.7,.3,3.39,.61,5.08,.94,.92,.18,4.36,1.12,2.47,2.4-.21,.14-.19,1.35,.09,1.29,1.7-.37,1.41-3.12,.65-4.2-.66-.93-1.83-1.24-2.89-1.47-1.57-.34-3.17-.6-4.75-.89-6.54-1.19-13.16-2.2-19.82-2.15-3.24,.02-6.49,.3-9.67,.94-2.59,.52-5.83,1.1-7.75,3.09-.85,.89-1.3,2.04-1.98,3.05-.9,1.33-2.3,2.05-3.78,2.57-3.04,1.06-6.2,1.84-9.33,2.57-7.44,1.74-15.07,2.27-22.51,3.91-.04,0-.04,.15,0,.16h0Z"/><path class="cls-4" d="M992.8,390.27s.04-.16,0-.16c-.04,0-.04,.16,0,.16h0Z"/><path class="cls-4" d="M992,389.87c.85,.55,1.36,1.16,2.37,1.37,.76,.16,1.56,.17,2.33,.22,1.75,.12,3.5,.2,5.25,.24s3.37,.04,5.06-.03c.84-.03,1.68-.07,2.53-.12,.39-.02,.78-.03,1.16-.08,.61-.07,.76-.32,1.22-.75,.28-.26,.28-1.33-.04-1.57-.37-.27-.62-.53-1.06-.58s-.93,.07-1.36,.09c-.78,.05-1.55,.09-2.33,.12-1.75,.07-3.5,.11-5.25,.11s-3.37-.05-5.05-.13c-.84-.04-1.68-.14-2.52-.12-.98,.02-1.45,.55-2.31,.93-.07,.03-.05,.27,0,.3h0Z"/><path class="cls-4" d="M1077.79,387.71c4.66,.05,9.28-.33,13.93-.7s9.27-.8,13.9-1.31c9.21-1.03,18.43-2.37,27.49-4.35,15.9-3.47,31.57-9.11,45.48-17.63,7.71-4.72,14.86-10.32,21.15-16.82,.36-.37,.41-1.91-.05-2.23-2.31-1.59-4.65-3.02-7.11-4.37-.2-.11-.23,.82-.06,.96,2.28,1.99,4.58,3.86,7.03,5.64l-.05-2.23c-11.17,11.44-25.04,19.94-39.78,26-16.17,6.65-33.5,10.42-50.8,12.63-5.17,.66-10.36,1.2-15.56,1.66s-10.42,.72-15.59,1.44c-.34,.05-.3,1.31,.03,1.31h0Z"/><path class="cls-4" d="M557.67,445.7c1.77-.77,1.97-2.92,1.38-4.55-.08-.23-.25-.37-.42-.14-11.62,15.73-23.54,31.25-35.94,46.37-10.68,13.01-21.34,26.76-35.07,36.74-7.18,5.22-15.4,9.42-24.26,10.73l.57,.76c-2.16-7.53-3.25-15.35-2.84-23.19s2.23-14.7,4.64-21.86,4.6-14.21,3.33-21.64c-1.12-6.49-4.89-12.32-9.92-16.5s-11.06-7.42-16.89-10.51c-6.57-3.49-13.21-6.84-19.85-10.21-13.36-6.79-26.7-13.69-39.26-21.9-7.07-4.62-13.84-9.7-20.21-15.25-1.48-1.29-2.98-2.57-4.3-4.02-1.17-1.28-1.9-2.59-2.72-4.08,.31,.55-.55-1.07-.1-.09-.03,.35-.02,.32,.01-.09,.02,.07,.01,.13-.03,.18,.19-.74,.64-1.49,1.16-2.05,.8-.86,2.36-2.4,3.67-2.16,1.07,.2,1.32-4.25-.11-4.51-.63-.12-1.15-.45-1.83-.47-.64-.02-1.42,.1-1.98,.41-1.2,.67-2.09,2.19-2.62,3.4-1.54,3.47-1.22,7.88,.48,11.24,1.6,3.16,4.33,5.49,6.95,7.8,2.97,2.62,6.02,5.15,9.15,7.57,12.33,9.56,25.87,17.34,39.67,24.56,13.5,7.06,27.32,13.56,40.58,21.06,5.32,3.01,11.04,6.65,14.37,11.92,3.94,6.22,2,13.84,0,20.37-1.13,3.71-2.43,7.37-3.39,11.13s-1.62,7.64-1.98,11.52c-.72,7.75-.24,15.62,1.41,23.23,.42,1.93,.95,3.82,1.54,5.7,.06,.19,.24,.82,.57,.76,7.79-1.61,15.04-4.69,21.66-9.09s12.81-10.12,18.39-16.05c5.97-6.35,11.49-13.12,16.98-19.88,6.27-7.72,12.45-15.53,18.53-23.4,6.83-8.84,13.5-17.8,20.01-26.89l-.42-.14c.39,1.04-.24,2.05-.99,2.74-.08,.07-.08,.51,.06,.45h0Z"/><path class="cls-4" d="M353.67,376.89c-.56-1.18-1.21-2.46-2.28-3.25s-2.34-1.39-3.65-1.77c-1.21-.35-2.46-.54-3.73-.51-1.47,.04-2.9,.51-4.37,.52-2.91,0-4.5-2.8-5.98-4.9-1.86-2.65-3.62-5.34-5.34-8.08-6.46-10.25-13.55-20.06-19.25-30.78-3.21-6.04-5.73-12.28-8.15-18.66l-.43,4.85c5.65-3.14,12.63,2.42,17.2,5.29,5.91,3.71,11.98,7.1,18.08,10.5,.73,.41,.82-2.11,.23-2.54-6.1-4.45-12.18-8.87-18.49-13.02-5.1-3.36-11.02-7.93-17.49-5.92-1.52,.47-1.27,3.22-.96,4.38,1.6,6.09,4.11,12.03,6.79,17.72s5.9,11.57,9.36,17.05c3.27,5.18,6.8,10.2,10.5,15.08,1.8,2.37,3.8,4.57,5.59,6.94,1.56,2.07,3.12,4.79,5.44,6.11,2.85,1.64,5.87-.37,8.87-.34,1.53,.01,3.06,.33,4.47,.92,.61,.25,1.16,.59,1.81,.75,.55,.14,1.11,.24,1.66,.37,.23,.06,.15-.63,.11-.72h0Z"/><path class="cls-4" d="M327.56,323.17c21.17,17.38,44.35,32.14,68.8,44.46s50,21.74,76.44,28.34c14.91,3.72,30.14,6.87,45.48,8.05,.31,.02,.32-1.15-.03-1.21-13.58-2.24-27.15-4.39-40.55-7.55-13.33-3.15-26.49-7.02-39.39-11.61-25.6-9.1-50.25-20.75-73.33-35.1-12.95-8.06-25.43-16.91-37.34-26.44-.22-.17-.35,.85-.09,1.07h0Z"/><path class="cls-4" d="M518.37,403.92c22.74,5.35,45.73-.41,67.13-8.37,21.75-8.09,42.98-17.65,64.44-26.47,43.88-18.02,88.2-35.23,133.81-48.4,43.91-12.68,88.89-21.1,134.53-23.97,44.63-2.81,89.58-.64,133.73,6.42,21.98,3.51,43.77,8.23,65.24,14.14s42.54,13.48,63.28,21.83c5.21,2.1,10.31,4.11,15.67,5.78,.43,.13,.63-2.92,.04-3.25-19.09-10.57-40.83-16.54-61.6-22.91-21.47-6.58-43.31-11.95-65.37-16.1-43.95-8.26-88.8-11.69-133.49-10.14-45.39,1.57-90.37,8.47-134.28,20.04-45.56,12.01-89.77,28.51-133.38,46.22-21.79,8.85-43.44,18.04-65.13,27.13-21.37,8.96-43.96,18.02-67.52,17.84-5.78-.04-11.51-.72-17.14-2-.43-.1-.59,2.05,.05,2.2h0Z"/><path class="cls-4" d="M590.47,388.9c.51,.07,1.11,.21,1.62,.12s1.11-.51,1.57-.74c1.19-.59,2.35-1.23,3.49-1.91,2.22-1.33,4.35-2.82,6.4-4.41,4.08-3.17,7.84-6.73,11.5-10.38s7.59-6.92,8.12-12.17c.27-2.73-.22-5.47-.6-8.17-.42-3.01-.84-6.01-1.25-9.02s-.81-5.85-1.21-8.78c-.38-2.76-1.21-6,.02-8.65,1.77-3.82,6.4-4.33,10.11-3.88,4.78,.58,9.32,2.66,13.72,4.51,4.96,2.08,9.84,4.37,14.61,6.85,5.37,2.8,10.59,5.9,15.66,9.21,2.54,1.66,5.04,3.36,7.51,5.13,1.2,.86,2.39,1.73,3.57,2.62,1.28,.97,2.39,1.9,3.9,2.49,.6,.23,.45-1.43,.24-1.68-1.79-2.18-4.13-3.7-6.41-5.33s-4.45-3.12-6.73-4.61c-4.56-2.96-9.24-5.73-14.03-8.3s-9.82-5.06-14.88-7.28c-4.5-1.97-9.14-4.1-13.91-5.32-3.57-.91-7.95-1.42-11.24,.63-4.04,2.52-3.93,7.71-3.37,11.88,.81,5.99,1.68,11.98,2.51,17.97,.41,2.97,1.18,6.15,.86,9.16s-2.15,5.15-4.08,7.16c-4.13,4.29-8.39,8.52-12.93,12.37-2.26,1.92-4.62,3.73-7.11,5.36-1.18,.77-2.38,1.5-3.61,2.17-.62,.34-1.24,.66-1.87,.97-.95,.47-1.45,1.05-2.2,1.83-.03,.04-.06,.2,.02,.21h0Z"/><path class="cls-4" d="M823.23,306.11c11.12-10.08,20.35-24.64,19.56-40.13-.21-4.22-.94-8.39-1.67-12.54-.76-4.32-1.53-8.64-2.32-12.95s-1.61-8.78-2.41-13.17c-.53-2.92-1.46-6.2-.6-9.16,.34-1.16,1.02-2.17,2.12-2.73,1.91-.97,4.07-.05,5.84,.79,3.36,1.59,6.65,3.34,9.88,5.18,6.45,3.68,12.62,7.85,18.55,12.32,12,9.07,22.94,19.46,33.23,30.41,5.14,5.47,10.08,11.13,14.94,16.84,4.36,5.13,9.1,10.62,15.48,13.24,1.46,.6,2.99,1.01,4.56,1.26,.86,.14,.98-2.93-.08-3.09-7.02-1.12-12.31-6.23-16.89-11.29-4.98-5.51-9.79-11.18-14.85-16.62-10.24-11.01-20.99-21.56-32.81-30.87-5.89-4.64-12.04-8.96-18.45-12.85-3.18-1.93-6.42-3.76-9.73-5.47-2.81-1.45-6.68-4.16-9.93-2.66-2.31,1.07-3.08,3.91-3.32,6.22-.34,3.31,.41,6.55,1,9.79,1.57,8.7,3.11,17.41,4.73,26.1,.78,4.21,1.56,8.44,1.63,12.73s-.76,8.37-2.26,12.32c-2.77,7.3-7.19,14.08-12.41,19.86-1.31,1.45-2.69,2.83-4.12,4.16-.55,.51-.16,2.77,.34,2.32h0Z"/><path class="cls-4" d="M840.05,241.84c-.37,1.16-.02,2.76,1.08,3.43,.39,.24,.54-.6,.55-.79,.44-4.8,2.47-9.33,5.57-13.01,1.56-1.85,3.41-3.46,5.44-4.78,.95-.62,1.95-1.17,2.98-1.64,1.25-.57,2.37-.94,3.41-1.86,.32-.28,.37-1.36-.12-1.49-.72-.19-1.15-.22-1.87,0-.62,.19-1.22,.47-1.8,.74-1.13,.53-2.21,1.15-3.24,1.84-2.16,1.46-4.08,3.27-5.71,5.3-3.27,4.08-5.28,9.1-5.57,14.32l.55-.79c-.38-.15-.98-.27-.95-.85,0-.13-.18-.87-.32-.43h0Z"/><path class="cls-4" d="M319.26,346.73c-.15-.64-.14-1.36-.23-2.02-.08-.62-.14-1.25-.2-1.88-.13-1.25-.1-2.51-.02-3.76s.23-2.49,.38-3.73c.13-1.02,.23-2.16,.74-3.07l-.54,.5c.4-.07,.77,.04,1.15,.01,.67-.05,1.33-.77,1.99-.97,1.49-.45,3.16-.42,4.7-.55,.85-.07,1.81-.03,2.6-.4,.94-.44,1.56-1.37,1.75-2.37,.39-2.16-1.36-3.64-3.38-3.54-1.66,.08-3.35,.07-5,.29s-3.32,.78-3.97,2.45c-.35,.88-.44,1.77-.62,2.69,.09-.44-.15,.41-.19,.53-.12,.37-.23,.74-.31,1.12-.33,1.49-.47,3.02-.61,4.54-.18,1.83-.3,3.69-.19,5.52,.06,.97,.14,1.95,.4,2.89,.12,.43,.27,.87,.45,1.28,.19,.44,.5,.67,.75,1.07,.3,.49,.4-.42,.36-.61h0Z"/><path class="cls-4" d="M1072.27,348.02c-.05,1.6,.17,3.15,.63,4.68s1.07,2.89,1.5,4.36c.29,.97,.48,2.01,.34,3.02-.18,1.33-.88,2.36-1.47,3.53-.1,.2-.13,.94,.19,.98,1.11,.13,1.87-1.4,2.11-2.26,.41-1.47,.42-3.05,.21-4.55-.45-3.22-2.56-6.14-2.48-9.42,0-.31-.07-1.21-.49-1.3s-.54,.71-.55,.97h0Z"/><path class="cls-4" d="M1081.78,347.65c.05-1.76,.01-2.17-.09-1.24-.02,.29-.02,.57,.02,.86,.07,.55,.29,1.06,.46,1.58,.34,1,.63,2.01,.88,3.04,.49,2.06,.79,4.17,.86,6.29s-.04,4.24-.34,6.33c-.32,2.21-.96,4.35-1.26,6.56-.03,.25,.18,1.72,.63,1.11,1.2-1.63,1.56-3.99,1.88-5.94,.39-2.32,.56-4.65,.53-7-.06-4.46-.7-9.49-2.62-13.57-.24-.51-.53-.57-.84-.11-.34,.52-.28,1.54-.11,2.09h0Z"/><path class="cls-4" d="M1089.27,346.65c.92,.89,1.1,2.29,1.37,3.48,.24,1.06,.42,2.13,.57,3.21,.28,2.04,.4,4.1,.37,6.16s-.21,4.15-.54,6.2-1.06,4.1-.95,6.16c0,.18,.06,.8,.38,.67,.75-.29,.93-1.7,1.12-2.37,.35-1.28,.59-2.61,.78-3.93,.39-2.62,.56-5.26,.5-7.9s-.31-5.15-.77-7.69c-.24-1.32-.52-2.64-.88-3.94-.24-.87-.48-1.94-1.37-2.35-.57-.26-.68,.84-.72,1.14-.06,.46-.38,1.12,.11,1.42,.07,.04,.06-.21,.02-.25h0Z"/><path class="cls-4" d="M1101.37,346.02c-.45-.65-.91-1.28-1.38-1.92-.31-.43-.38,.66-.37,.77,.17,1.9,.81,3.75,1.08,5.65s.41,3.87,.39,5.82c-.04,3.94-.7,7.87-1.92,11.62l.83,1.44c.18-1.18,.28-2.29,.26-3.49,0-.23-.26-.96-.47-.43-.39,1-.58,1.95-.74,3.01-.06,.43,.51,2.3,.87,1.15,1.36-4.25,2.06-8.65,2.08-13.11,0-2.21-.16-4.42-.5-6.6-.28-1.82-.46-4.29-1.52-5.84l-.18,1.24c.5,.35,.99,.7,1.51,1.02,.1,.07,.08-.29,.05-.34h0Z"/><path class="cls-4" d="M1106.9,343.47c.27,2.39,.85,4.72,1.16,7.11,.3,2.25,.41,4.52,.31,6.78-.2,4.69-1.37,9.11-3,13.49l.94,.89c0-.69-.07-1.36-.06-2.05s-.5-1.06-.62-.19c-.08,.55-.24,1.07-.33,1.61-.08,.47-.15,1.25,.18,1.66,.27,.34,.5,.32,.7-.12,2.11-4.73,3.04-10.1,3.19-15.25,.08-2.57-.06-5.15-.42-7.7-.32-2.22-.63-4.63-1.92-6.5-.1-.15-.14,.23-.13,.27h0Z"/><path class="cls-4" d="M1175.84,347.82c-.3-.05-.67,0-.89,.23-.28,.29-.48,.67-.59,1.06-.19,.72-.22,1.52-.03,2.24,.07,.28,.17,.56,.33,.8,.06,.1,.14,.19,.22,.27,.09,.1,.23,.08,.36,.08,.39-.01,.78-.05,1.16-.16s.75-.28,1-.58c.18-.21,.31-.43,.39-.7,.15-.5,.17-1.05,.09-1.56-.08-.58-.27-1.14-.71-1.54-.13-.12-.27-.2-.43-.26-.03-.01-.1-.05-.14-.05-.06,0-.14,.06-.19,.1-.07,.05-.12,.11-.17,.17-.25,.3-.38,.62-.41,1.01-.02,.28,0,.57,.09,.83,.05,.14,.12,.24,.27,.25,.06,0,.11,0,.17,.03l-.1-.04c.07,.03,.14,.09,.19,.14,.05,.05,.08,.08,.15,.1,.05,.02,.11,.03,.17,.05l-.12-.04c.19,.07,.35,.19,.48,.35l-.11-.13c.06,.07,.1,.14,.15,.22s-.1-.23-.06-.12c0,.02,.01,.04,.02,.06,.05,.13-.06-.19-.05-.18v.04c.03,.1,.01,.02-.03-.25,.02,.15-.02-.39-.02-.26s.02-.41,0-.26c.02-.16,.03-.23,.05-.34,.05-.2,.02-.11,.01-.06-.03,.11,.11-.21,.04-.11-.01,.02-.03,.05-.04,.07-.03,.05-.06,.1-.1,.15l.1-.13c-.18,.23-.43,.39-.7,.5l.11-.05c-.49,.2-1.02,.25-1.55,.28l.11,.04s-.06-.06-.09-.1l.1,.12c-.05-.06-.09-.12-.13-.19-.07-.12,.08,.2,.03,.07-.01-.03-.02-.07-.04-.1-.03-.09,.07,.26,.05,.17,0-.02,0-.04-.01-.06-.03-.11,.05,.35,.03,.16-.02-.12,.02,.39,.01,.19,0-.14,0,.28,0,.24,0-.02,0-.05,0-.07,0-.17-.05,.32-.02,.15,0-.04,.01-.07,.02-.11,.02-.1-.07,.26-.04,.16,0-.02,.01-.04,.02-.05,.01-.04,.03-.08,.04-.12,.03-.09-.05,.11-.05,.11,0-.01,.02-.03,.02-.05,.02-.03,.03-.07,.05-.1,.04-.07,.09-.14,.14-.21l-.09,.12c.11-.14,.23-.27,.36-.4s.28-.23,.45-.3l-.09,.04h.03c.14-.07,.18-.16,.23-.3,.07-.21,.09-.47,.08-.69s-.03-.47-.11-.68c-.05-.12-.1-.26-.24-.28h0Z"/><path class="cls-4" d="M1172.58,344.74c-.93,.48-1.33,1.5-1.55,2.47-.26,1.14-.23,2.4,.08,3.53,.56,1.99,2.27,3.76,4.45,3.81,1.19,.03,2.32-.36,3.24-1.12,.22-.18,.18-1.37-.15-1.21-.75,.38-1.64,.52-2.48,.47s-1.72-.24-2.46-.62-1.41-.97-1.82-1.73c-.16-.31-.29-.68-.35-1s-.06-.53-.02-.82c.12-1,.67-1.96,1.22-2.78,.1-.15,.12-1.15-.17-1h0Z"/><path class="cls-4" d="M1180.52,346.41c.6,.53,1.2,1.23,1.51,1.98,.13,.32,.21,.71,.22,.92,0,.07,0,.07,0,0v.1c-.02,.16,0,.03-.03,.17-.03,.17-.08,.34-.15,.5-.32,.75-.9,1.38-1.58,1.82-.34,.22-.72,.37-1.09,.56-.42,.22-.84,.3-1.31,.32-.33,.01-.3,1.19,.03,1.26,.49,.1,1.12,.18,1.61,.1s.96-.36,1.34-.63c.93-.65,1.51-1.62,1.74-2.72,.25-1.18,.15-2.5-.31-3.62-.19-.46-.44-.9-.77-1.28s-.7-.59-1.19-.75c-.3-.1-.21,1.13-.03,1.29h0Z"/><path class="cls-4" d="M1184.99,348.95c.33-.02,.61-.13,.78,.25,.02,.05,.08,.18,.16,.17,.99-.07,1.95-.22,2.92-.39s1.95-.48,2.91-.77c.21-.06,.2-.85-.02-.84-.98,.03-1.96,.04-2.93,.2s-1.95,.33-2.92,.59c-.16,.04-.2,.32-.2,.45,0,.16-.59,.25-.71,.28-.01,0-.01,.05,0,.05h0Z"/><path class="cls-4" d="M530.62,436.57c31.84-10.59,63.84-20.71,96.16-29.7,32.4-9.01,65.08-16.86,98.11-23.23,32.83-6.33,65.88-11.41,99.06-15.46,33.35-4.07,66.85-6.93,100.41-8.55s67.18-2.07,100.76-1.28c4.14,.1,8.28,.22,12.41,.35,.11,0,.11-.52-.01-.52-33.58-1.27-67.2-1.34-100.78-.07-33.57,1.27-67.1,3.77-100.49,7.5-33.25,3.71-66.33,8.77-99.19,15.01-32.98,6.26-65.82,13.57-98.32,21.97-32.5,8.41-64.88,17.87-96.42,29.42-3.91,1.43-7.82,2.88-11.72,4.35-.06,.02-.03,.22,0,.21h0Z"/><path class="cls-4" d="M866.75,375.06h2.28s.02-.1,0-.1h-2.28s-.02,.1,0,.1h0Z"/><path class="cls-4" d="M900.91,372.8c22.64-1.45,45.31-2.51,67.97-3.49,6.45-.28,12.91-.54,19.36-.82,.15,0,.13-.63-.02-.63-22.69,.37-45.36,1.51-68,3.08-6.45,.45-12.89,.92-19.33,1.43-.1,0-.08,.43,.01,.42h0Z"/><path class="cls-4" d="M1089.99,359.32c21.48,.08,43.08-1.62,64.25-5.26,5.97-1.03,11.89-2.24,17.78-3.63,.17-.04,.11-.71-.02-.68-21.18,3.75-42.47,6.91-63.95,8.25-6.02,.38-12.04,.79-18.07,1.02-.07,0-.07,.31,0,.31h0Z"/><path class="cls-4" d="M378.74,373.19c15.78,9.8,32.19,18.64,49.18,26.16,16.88,7.47,34.25,13.82,51.97,19,9.86,2.88,19.87,5.35,29.95,7.31,.19,.04,.22-.68-.02-.73-18.05-4.18-35.92-9.11-53.38-15.32s-34.19-13.45-50.58-21.69c-9.22-4.63-18.26-9.62-27.1-14.92-.06-.03-.08,.17-.02,.2h0Z"/><path class="cls-4" d="M462.65,534.3c3.84,1.4,8.22,.19,11.8-1.46,4.06-1.87,7.63-4.6,11.09-7.39,6.95-5.6,13.5-11.68,19.73-18.06,12.49-12.77,23.61-26.78,34.38-41,2.89-3.82,5.78-7.65,9.04-11.15,1.6-1.72,3.27-3.37,5.06-4.89,.89-.76,1.8-1.49,2.74-2.19,1.15-.85,1.91-2.03,2.97-2.99,.27-.24,.33-2.02-.14-1.85-.8,.27-1.71,.32-2.47,.66-.89,.39-1.72,1.21-2.48,1.83-1.66,1.35-3.23,2.8-4.72,4.33-2.88,2.95-5.5,6.15-8.01,9.41-5.42,7.04-10.54,14.31-16,21.32-11.15,14.3-23.24,27.97-36.96,39.87-3.74,3.24-7.55,6.56-11.75,9.19-2.18,1.37-4.52,2.56-7.01,3.26s-4.79,.67-7.26,.55c-.16,0-.15,.52-.02,.57h0Z"/><path class="cls-4" d="M726.55,415.65c1.24,.46,2.52,.49,3.83,.66,1.39,.18,2.77,.41,4.14,.66,2.75,.52,5.46,1.18,8.14,1.98,5.52,1.63,10.9,3.6,16.1,6.07,10.25,4.87,19.89,11.24,28.61,18.48,1.2,1,2.39,2.02,3.57,3.04,1.07,.93,2.2,1.9,3.63,2.22,2.74,.61,4.08-2.38,3.59-4.67-.16-.73-.56-.29-.59,.23-.03,.59-1.94,.98-2.36,1-1.43,.06-2.67-.91-3.73-1.75-2.07-1.65-4.14-3.3-6.23-4.92-4.13-3.2-8.39-6.24-12.81-9.02-8.75-5.52-18.37-10.45-28.45-13.01-2.8-.71-5.64-1.28-8.51-1.69-1.44-.21-2.88-.37-4.33-.49s-3.13-.4-4.58,0c-.29,.08-.29,1.14-.03,1.24h0Z"/><path class="cls-4" d="M789.85,446.71c7.42,2.26,13.28-4.19,17.05-9.68,2.04-2.97,4-5.98,6.42-8.66,2.17-2.41,4.59-4.59,7.19-6.53,10.6-7.9,23.67-11.72,36.47-14.28,7.38-1.47,14.84-2.55,22.29-3.61,8.7-1.24,17.41-2.36,26.14-3.37,17.46-2,34.97-3.52,52.51-4.57s34.94-1.6,52.43-1.68c2.22-.01,4.43-.01,6.65,0,.78,0,.74-3.41-.08-3.41-17.49-.02-34.98,.42-52.44,1.35-17.46,.93-34.9,2.35-52.29,4.24-16.68,1.81-33.39,3.89-49.91,6.8-12.88,2.27-26.03,5.46-37.36,12.26-5.58,3.35-10.68,7.65-14.57,12.9-4.35,5.87-7.68,13.99-15.38,16.15-1.72,.48-3.38,.71-5.16,.4-.41-.07-.43,1.54,.04,1.68h0Z"/><path class="cls-4" d="M994.49,385.51c9.01,2.42,17.76,6.18,25.53,11.37,3.85,2.57,7.47,5.47,10.81,8.67s6.07,6.39,9.12,9.57,6.02,6.01,9.64,8.24,8.57,4.21,13.09,3.49c3.92-.62,6.27-3.77,7.8-7.2,1.91-4.29,2.93-9.01,3.84-13.6,1.15-5.79,2.02-11.73,2.42-17.62,.21-3.12,.2-6.25,.1-9.37-.05-1.42-.14-2.84-.24-4.26-.11-1.58-.07-3.27-1-4.63-.36-.52-.72-.11-.84,.35-.71,2.63-.26,5.42-.19,8.12,.07,2.53,0,5.05-.04,7.58-.1,4.94-.47,9.82-1.33,14.69-.8,4.59-1.77,9.32-3.42,13.69-1.32,3.48-3.75,7.08-7.42,8.35-4.24,1.47-9.1-.73-12.69-2.95s-6.52-4.97-9.38-7.9-5.67-6.13-8.66-9.03c-3.15-3.06-6.57-5.85-10.2-8.32-8.17-5.58-17.29-9.61-27-11.53-.46-.09-.58,2.14,.06,2.31h0Z"/><path class="cls-4" d="M1066.14,378.07c1.82,10.93,.15,22.13-4.55,32.15-.08,.17,.04,.95,.16,.72,5.24-10.1,6.78-21.98,4.51-33.11-.06-.3-.14,.13-.12,.24h0Z"/><path class="cls-4" d="M1061.53,372.27c-.71,1.12-.55,2.45-.24,3.68,.5,1.96,1.4,3.79,1.87,5.77,1.01,4.28,.79,8.76-.17,13.03-1.95,8.66-6.88,16.13-11.18,23.76-.11,.2,0,1.21,.21,.9,4.78-6.81,9.24-14.28,11.26-22.43,.93-3.77,1.37-7.66,1.09-11.54-.14-1.89-.44-3.76-.95-5.58-.63-2.25-2.46-4.82-1.76-7.19,.02-.07-.01-.57-.11-.41h0Z"/><path class="cls-4" d="M1058.92,375.11c.2-.91,.39-1.83,.66-2.72l-.38-.46c.14,3.16,.49,6.26,.4,9.44s-.37,6.17-.89,9.22c-1.08,6.29-3.08,12.49-5.82,18.25-.1,.21,.05,1.2,.21,.9,3.13-5.83,5.22-12.06,6.3-18.58,.53-3.22,.84-6.49,.88-9.75s.03-6.67-.69-9.81c-.12-.54-.36-.2-.39,.17-.1,1.06-.25,2.1-.4,3.15-.02,.11,.07,.47,.12,.21h0Z"/><path class="cls-4" d="M888.64,307.86s-.99-.69-.6-.73c.07,0,.31,.33,.34,.36,.35,.33,.63,.78,.93,1.16,.61,.77,1.21,1.54,1.8,2.32,1.22,1.6,2.38,3.24,3.49,4.92,2.21,3.38,4.18,6.92,5.88,10.58,3.35,7.2,5.72,14.9,6.98,22.75,.72,4.51,1.09,9.08,1.09,13.65,0,.56,.39,.55,.4,0,.42-16.2-4.01-32.28-12.44-46.09-2.37-3.88-5.01-7.86-8.23-11.1-.05-.05-.17-.15-.25-.07-.69,.69-.86,2.98,.63,2.69,.13-.03,.11-.39-.01-.42h0Z"/><path class="cls-4" d="M896.12,310.06c7.51,8.14,13.64,17.63,17.83,27.89,.13,.33,.25-.32,.19-.49-4.01-10.42-10.04-19.85-17.95-27.73-.1-.1-.13,.25-.07,.32h0Z"/><path class="cls-4" d="M915.27,322c4.03,9.5,7.06,19.43,9.04,29.56,.08,.38,.28,.09,.23-.16-1.96-10.2-5.03-20.13-9.17-29.66-.08-.18-.14,.17-.1,.26h0Z"/><path class="cls-4" d="M917.69,316.5c6.87,14.09,14.44,28.29,16.96,43.96,.73,4.53,1.05,9.1,.8,13.68-.02,.4,.34,.89,.38,.24,1.17-16.31-4.66-31.81-11.76-46.19-1.99-4.03-4.13-7.95-6.34-11.85-.04-.06-.06,.13-.05,.17h0Z"/><path class="cls-4" d="M926.44,319.97c4.74,6.84,8.83,14.07,11.67,21.91s4.51,16.05,5,24.39c.28,4.66,.15,9.33-.37,13.96-.04,.39,.28,.83,.36,.23,2.19-16.77-.97-34.09-8.81-49.07-2.2-4.21-4.72-8.19-7.77-11.83-.12-.14-.15,.32-.09,.41h0Z"/><path class="cls-4" d="M1003.49,305.19c7.44,9.34,12.17,20.83,13.3,32.72,.04,.46,.28,.1,.26-.19-1-12.06-5.67-23.53-13.51-32.76-.06-.08-.09,.17-.05,.23h0Z"/><path class="cls-4" d="M710.23,358.48c2.87,5.03,5.14,10.35,6.87,15.87,.08,.26,.18-.09,.14-.22-1.68-5.57-4.04-10.91-6.95-15.93-.05-.09-.1,.2-.06,.27h0Z"/><path class="cls-4" d="M710.9,351.01c7.51,8.36,13.85,17.74,18.34,28.07,.18,.4,.31-.4,.23-.6-4.17-10.42-10.35-20.06-18.52-27.81-.07-.06-.11,.27-.05,.34h0Z"/><path class="cls-4" d="M719.49,350.24c1.6,6.79,6.37,12.35,10.33,17.9,4.38,6.14,7.7,12.58,9.18,20.03,.86,4.37,1.02,8.82,.58,13.25-.05,.5,.37,1.08,.48,.3,.98-7.45,.11-15.08-2.48-22.14s-7.26-12.8-11.65-18.86c-2.46-3.39-4.53-6.96-6.28-10.77-.11-.23-.16,.21-.14,.29h0Z"/><path class="cls-4" d="M584.97,399.68c5.64,.36,9.49,5.65,11.83,10.26,2.8,5.51,4.59,11.46,5.18,17.62,.05,.56,.45,.31,.41-.14-.48-6.52-2.18-12.97-5.26-18.76-2.45-4.59-6.32-9.85-12.17-9.24-.08,0-.07,.26,0,.26h0Z"/><path class="cls-4" d="M591.8,397.67c4.7,3.01,8.94,6.47,12.05,11.15s5.03,10,5.39,15.57c.05,.71,.53,.71,.52-.01-.09-5.81-1.79-11.58-4.88-16.5-3.04-4.83-7.51-9.41-12.97-11.38-.39-.14-.38,.99-.11,1.17h0Z"/></g></svg>